<?xml version="1.0" encoding="UTF-8" standalone="no"?>
<svg
   xmlns:dc="http://purl.org/dc/elements/1.1/"
   xmlns:cc="http://creativecommons.org/ns#"
   xmlns:rdf="http://www.w3.org/1999/02/22-rdf-syntax-ns#"
   xmlns:svg="http://www.w3.org/2000/svg"
   xmlns="http://www.w3.org/2000/svg"
   xmlns:sodipodi="http://sodipodi.sourceforge.net/DTD/sodipodi-0.dtd"
   xmlns:inkscape="http://www.inkscape.org/namespaces/inkscape"
   id="Layer_1"
   data-name="Layer 1"
   viewBox="0 0 48.679998 48.679999"
   version="1.1"
   sodipodi:docname="instagram.svg">
  <metadata
     id="metadata953">
    <rdf:RDF>
      <cc:Work
         rdf:about="">
        <dc:format>image/svg+xml</dc:format>
        <dc:type
           rdf:resource="http://purl.org/dc/dcmitype/StillImage" />
        <dc:title>footer_icons</dc:title>
      </cc:Work>
    </rdf:RDF>
  </metadata>
  <sodipodi:namedview
     pagecolor="#ffffff"
     bordercolor="#666666"
     borderopacity="1"
     objecttolerance="10"
     gridtolerance="10"
     guidetolerance="10"
     inkscape:pageopacity="0"
     inkscape:pageshadow="2"
     inkscape:window-width="1920"
     inkscape:window-height="1014"
     id="namedview951"
     showgrid="false"
     inkscape:zoom="12.051709"
     inkscape:cx="25.055001"
     inkscape:cy="24.590001"
     inkscape:window-x="0"
     inkscape:window-y="34"
     inkscape:window-maximized="0"
     inkscape:current-layer="Layer_1" />
  <defs
     id="defs942">
    <style
       id="style940">.cls-1{fill:#ff7412;}.cls-2{fill:#fff;}</style>
  </defs>
  <title
     id="title944">footer_icons</title>
  <rect
     class="cls-1"
     x="0"
     y="0"
     width="48.68"
     height="48.68"
     rx="11.88"
     id="rect946" />
  <path
     class="cls-2"
     d="m 24.78,9.1399999 c 4.7,0 5.25,0 7.11,0.11 a 9.83,9.83 0 0 1 3.26,0.6 5.88,5.88 0 0 1 3.34,3.3400001 9.57,9.57 0 0 1 0.6,3.26 c 0.09,1.86 0.11,2.41 0.11,7.11 0,4.7 0,5.25 -0.11,7.1 a 9.58,9.58 0 0 1 -0.6,3.27 5.83,5.83 0 0 1 -3.34,3.33 9.75,9.75 0 0 1 -3.26,0.61 c -1.86,0.08 -2.41,0.1 -7.11,0.1 -4.7,0 -5.25,0 -7.1,-0.1 a 9.77,9.77 0 0 1 -3.27,-0.61 5.77,5.77 0 0 1 -3.33,-3.33 9.77,9.77 0 0 1 -0.61,-3.31 c -0.08,-1.85 -0.1,-2.41 -0.1,-7.1 0,-4.69 0,-5.25 0.1,-7.11 a 9.75,9.75 0 0 1 0.61,-3.26 5.83,5.83 0 0 1 3.33,-3.3400001 9.84,9.84 0 0 1 3.27,-0.6 c 1.85,-0.09 2.41,-0.11 7.1,-0.11 m 0,-3.16 c -4.77,0 -5.37,0 -7.25,0.1 a 13,13 0 0 0 -4.26,0.82 8.61,8.61 0 0 0 -3.12,2 A 8.79,8.79 0 0 0 8.1499996,11.97 a 12.94,12.94 0 0 0 -0.81,4.27 c -0.09,1.87 -0.11,2.47 -0.11,7.25 0,4.78 0,5.37 0.11,7.25 a 12.82,12.82 0 0 0 0.81,4.26 9,9 0 0 0 5.1500004,5.15 12.82,12.82 0 0 0 4.26,0.81 c 1.88,0.09 2.48,0.11 7.25,0.11 4.77,0 5.38,0 7.25,-0.11 a 12.94,12.94 0 0 0 4.27,-0.81 8.71,8.71 0 0 0 3.11,-2 8.61,8.61 0 0 0 2,-3.12 12.79,12.79 0 0 0 0.82,-4.26 c 0.08,-1.88 0.1,-2.48 0.1,-7.25 0,-4.77 0,-5.38 -0.1,-7.25 A 12.91,12.91 0 0 0 41.44,12 9,9 0 0 0 36.3,6.8599999 a 13.17,13.17 0 0 0 -4.27,-0.82 c -1.87,-0.04 -2.47,-0.06 -7.25,-0.06 z m 0,8.5500001 a 9,9 0 1 0 9,9 9,9 0 0 0 -9,-8.96 z m 0,14.89 a 5.86,5.86 0 1 1 5.86,-5.86 5.87,5.87 0 0 1 -5.86,5.9 z m 11.5,-15.25 a 2.11,2.11 0 1 1 -2.11,-2.11 2.11,2.11 0 0 1 2.11,2.15 z"
     id="path948" />
</svg>
