<?xml version="1.0" encoding="UTF-8" standalone="no"?>
<svg
   xmlns:dc="http://purl.org/dc/elements/1.1/"
   xmlns:cc="http://creativecommons.org/ns#"
   xmlns:rdf="http://www.w3.org/1999/02/22-rdf-syntax-ns#"
   xmlns:svg="http://www.w3.org/2000/svg"
   xmlns="http://www.w3.org/2000/svg"
   xmlns:sodipodi="http://sodipodi.sourceforge.net/DTD/sodipodi-0.dtd"
   xmlns:inkscape="http://www.inkscape.org/namespaces/inkscape"
   id="Layer_1"
   data-name="Layer 1"
   viewBox="0 0 48.679998 48.679999"
   version="1.1"
   sodipodi:docname="twitter.svg"
   inkscape:version="1.0.1 (0767f8302a, 2020-10-17)">
  <metadata
     id="metadata1570">
    <rdf:RDF>
      <cc:Work
         rdf:about="">
        <dc:format>image/svg+xml</dc:format>
        <dc:type
           rdf:resource="http://purl.org/dc/dcmitype/StillImage" />
        <dc:title>footer_icons</dc:title>
      </cc:Work>
    </rdf:RDF>
  </metadata>
  <sodipodi:namedview
     pagecolor="#ffffff"
     bordercolor="#666666"
     borderopacity="1"
     objecttolerance="10"
     gridtolerance="10"
     guidetolerance="10"
     inkscape:pageopacity="0"
     inkscape:pageshadow="2"
     inkscape:window-width="1920"
     inkscape:window-height="1014"
     id="namedview1568"
     showgrid="false"
     inkscape:zoom="12.051709"
     inkscape:cx="23.358219"
     inkscape:cy="23.593219"
     inkscape:window-x="0"
     inkscape:window-y="34"
     inkscape:window-maximized="0"
     inkscape:current-layer="Layer_1" />
  <defs
     id="defs1559">
    <style
       id="style1557">.cls-1{fill:#ff7412;}.cls-2{fill:#fff;}</style>
  </defs>
  <title
     id="title1561">footer_icons</title>
  <rect
     class="cls-1"
     x="0"
     y="0"
     width="48.68"
     height="48.68"
     rx="11.88"
     id="rect1563" />
  <path
     class="cls-2"
     d="M 44.11,12.37 A 15,15 0 0 1 39.81,13.54 7.47,7.47 0 0 0 43.1,9.3699999 14.9,14.9 0 0 1 38.35,11.18 7.47,7.47 0 0 0 25.62,18 21.22,21.22 0 0 1 10.21,10.19 a 7.49,7.49 0 0 0 2.31,10 7.47,7.47 0 0 1 -3.3800002,-0.94 v 0.12 A 7.48,7.48 0 0 0 15.14,26.7 a 7.44,7.44 0 0 1 -2,0.26 7.15,7.15 0 0 1 -1.4,-0.14 7.48,7.48 0 0 0 7,5.19 A 15.2,15.2 0 0 1 7.6699998,35.11 21.18,21.18 0 0 0 19.13,38.47 c 13.75,0 21.27,-11.39 21.27,-21.27 0,-0.32 0,-0.64 0,-1 a 15.59,15.59 0 0 0 3.71,-3.83"
     id="path1565" />
</svg>
