<?xml version="1.0" encoding="UTF-8" standalone="no"?>
<svg
   xmlns:dc="http://purl.org/dc/elements/1.1/"
   xmlns:cc="http://creativecommons.org/ns#"
   xmlns:rdf="http://www.w3.org/1999/02/22-rdf-syntax-ns#"
   xmlns:svg="http://www.w3.org/2000/svg"
   xmlns="http://www.w3.org/2000/svg"
   xmlns:sodipodi="http://sodipodi.sourceforge.net/DTD/sodipodi-0.dtd"
   xmlns:inkscape="http://www.inkscape.org/namespaces/inkscape"
   id="Layer_1"
   data-name="Layer 1"
   viewBox="0 0 48.679998 48.679999"
   version="1.1"
   sodipodi:docname="youtube.svg"
   inkscape:version="1.0.1 (0767f8302a, 2020-10-17)">
  <metadata
     id="metadata2191">
    <rdf:RDF>
      <cc:Work
         rdf:about="">
        <dc:format>image/svg+xml</dc:format>
        <dc:type
           rdf:resource="http://purl.org/dc/dcmitype/StillImage" />
        <dc:title>footer_icons</dc:title>
      </cc:Work>
    </rdf:RDF>
  </metadata>
  <sodipodi:namedview
     pagecolor="#ffffff"
     bordercolor="#666666"
     borderopacity="1"
     objecttolerance="10"
     gridtolerance="10"
     guidetolerance="10"
     inkscape:pageopacity="0"
     inkscape:pageshadow="2"
     inkscape:window-width="1920"
     inkscape:window-height="1014"
     id="namedview2189"
     showgrid="false"
     inkscape:zoom="11.801501"
     inkscape:cx="24.395001"
     inkscape:cy="24.670001"
     inkscape:window-x="0"
     inkscape:window-y="34"
     inkscape:window-maximized="0"
     inkscape:current-layer="Layer_1" />
  <defs
     id="defs2178">
    <style
       id="style2176">.cls-1{fill:#ff7412;}.cls-2{fill:#fff;}</style>
  </defs>
  <title
     id="title2180">footer_icons</title>
  <rect
     class="cls-1"
     x="0"
     y="0"
     width="48.68"
     height="48.68"
     rx="11.88"
     id="rect2182" />
  <path
     class="cls-2"
     d="M 41.93,16.52 A 4.6,4.6 0 0 0 38.67,13.24 C 35.8,12.46 24.28,12.46 24.28,12.46 c 0,0 -11.53,0 -14.4100003,0.78 a 4.64,4.64 0 0 0 -3.26,3.28 c -0.77,2.89 -0.77,8.93 -0.77,8.93 0,0 0,6 0.77,8.94 a 4.67,4.67 0 0 0 3.24,3.31 C 12.73,38.47 24.26,38.47 24.26,38.47 c 0,0 11.54,0 14.41,-0.77 a 4.64,4.64 0 0 0 3.26,-3.28 c 0.78,-2.9 0.78,-8.94 0.78,-8.94 0,0 0,-6.07 -0.78,-8.96 z"
     id="path2184" />
  <polygon
     class="cls-1"
     points="42.85,36.75 33.21,42.24 33.21,31.27 "
     id="polygon2186"
     transform="translate(-12.72,-11.3)" />
</svg>
