<?xml version="1.0" encoding="UTF-8" standalone="no"?>
<svg
   xmlns:dc="http://purl.org/dc/elements/1.1/"
   xmlns:cc="http://creativecommons.org/ns#"
   xmlns:rdf="http://www.w3.org/1999/02/22-rdf-syntax-ns#"
   xmlns:svg="http://www.w3.org/2000/svg"
   xmlns="http://www.w3.org/2000/svg"
   xmlns:xlink="http://www.w3.org/1999/xlink"
   xmlns:sodipodi="http://sodipodi.sourceforge.net/DTD/sodipodi-0.dtd"
   xmlns:inkscape="http://www.inkscape.org/namespaces/inkscape"
   viewBox="0 0 944.40002 355.02891"
   version="1.1"
   id="svg837"
   sodipodi:docname="favourites.svg"
   inkscape:version="1.0.1 (0767f8302a, 2020-10-17)">
  <metadata
     id="metadata841">
    <rdf:RDF>
      <cc:Work
         rdf:about="">
        <dc:format>image/svg+xml</dc:format>
        <dc:type
           rdf:resource="http://purl.org/dc/dcmitype/StillImage" />
        <dc:title>Favourite</dc:title>
      </cc:Work>
    </rdf:RDF>
  </metadata>
  <sodipodi:namedview
     pagecolor="#ffffff"
     bordercolor="#666666"
     borderopacity="1"
     objecttolerance="10"
     gridtolerance="10"
     guidetolerance="10"
     inkscape:pageopacity="0"
     inkscape:pageshadow="2"
     inkscape:window-width="1920"
     inkscape:window-height="1051"
     id="namedview839"
     showgrid="false"
     inkscape:zoom="1.0907144"
     inkscape:cx="449.90997"
     inkscape:cy="151.42394"
     inkscape:window-x="0"
     inkscape:window-y="0"
     inkscape:window-maximized="1"
     inkscape:current-layer="svg837" />
  <defs
     id="defs48">
    <style
       id="style2">.cls-1{fill:#fff;}.cls-2{fill:#eeefe4;}.cls-3{fill:url(#linear-gradient);}.cls-4{fill:url(#linear-gradient-2);}.cls-5{isolation:isolate;}.cls-6{fill:#ffd366;}.cls-7{fill:#fe4c00;}.cls-8{fill:#ffe19f;}.cls-11,.cls-16,.cls-17,.cls-19,.cls-20,.cls-22,.cls-23,.cls-24,.cls-27,.cls-31,.cls-34,.cls-41,.cls-51,.cls-57,.cls-58,.cls-62,.cls-63,.cls-64,.cls-67,.cls-69,.cls-70,.cls-76,.cls-83,.cls-86,.cls-9,.cls-92{fill:none;}.cls-9{stroke:#4f3102;}.cls-16,.cls-17,.cls-19,.cls-20,.cls-34,.cls-46,.cls-62,.cls-63,.cls-64,.cls-67,.cls-69,.cls-70,.cls-83,.cls-86,.cls-9{stroke-linecap:round;}.cls-11,.cls-16,.cls-17,.cls-19,.cls-20,.cls-22,.cls-23,.cls-24,.cls-27,.cls-31,.cls-32,.cls-34,.cls-41,.cls-51,.cls-57,.cls-58,.cls-62,.cls-63,.cls-64,.cls-67,.cls-69,.cls-70,.cls-76,.cls-83,.cls-86,.cls-9,.cls-92{stroke-miterlimit:10;}.cls-19,.cls-20,.cls-9{stroke-width:7px;}.cls-10{fill:#4f3102;}.cls-11{stroke:#bc3708;}.cls-12,.cls-99{fill:#fdedc8;}.cls-13{fill:#f4d79d;}.cls-14{opacity:0.47;}.cls-15{fill:#e5c88f;}.cls-16,.cls-83{stroke:#fdedc8;}.cls-16,.cls-17{stroke-width:6px;}.cls-17,.cls-23{stroke:#ffd505;}.cls-18,.cls-65{fill:#ff9100;}.cls-19,.cls-86{stroke:#5b3103;}.cls-20{stroke:#fcaa47;}.cls-21{fill:#ffd505;}.cls-22{stroke:#ff9100;stroke-width:23px;}.cls-23{stroke-width:34px;}.cls-24{stroke:#fe4c00;}.cls-25{fill:#284877;}.cls-26{mask:url(#mask);}.cls-27{stroke:#fff;}.cls-28{fill:#12243a;}.cls-29{fill:#fc6;}.cls-30,.cls-32{fill:#f4daa2;}.cls-31,.cls-32{stroke:#e2b969;}.cls-33{fill:#1d3519;}.cls-34{stroke:#e5a128;}.cls-34,.cls-46,.cls-67{stroke-width:0.5px;}.cls-35{mask:url(#mask-2);}.cls-36{fill:#c98712;}.cls-37{fill:#efbf6c;}.cls-38{fill:#af710e;}.cls-39{fill:#f96e53;}.cls-40{fill:#183251;}.cls-41,.cls-76{stroke:#39b54a;}.cls-42{fill:#230803;}.cls-43{fill:#3d1106;}.cls-44{fill:#c18946;}.cls-45{fill:#dba156;}.cls-46{fill:#c6883e;stroke:#c6883e;stroke-linejoin:round;}.cls-47{fill:#faf6de;}.cls-48{fill:#f5d39a;}.cls-49{fill:#efdfc2;}.cls-50{fill:#e7af5f;}.cls-51{stroke:#9e6c35;}.cls-52{fill:#f2ae38;}.cls-53{fill:#fdf8ec;}.cls-54{fill:#5b4837;}.cls-55{fill:#433025;}.cls-56{opacity:0.67;}.cls-57{stroke:#f7d38b;}.cls-58{stroke:#1a1a1a;stroke-width:4px;}.cls-59{fill:#1a1a1a;}.cls-60{fill:#4d4d4d;}.cls-61{fill:#f7b000;}.cls-62{stroke:#f7c977;}.cls-63{stroke:#f7d3a4;}.cls-63,.cls-64{stroke-width:2px;}.cls-64{stroke:#f9edd9;}.cls-65,.cls-91{mix-blend-mode:multiply;}.cls-66{fill:#f46800;}.cls-67{stroke:#ff9a55;}.cls-68{fill:#1f3440;}.cls-69,.cls-70{stroke:#d13505;}.cls-69{stroke-width:0.25px;}.cls-70{stroke-width:0.4px;}.cls-71,.cls-73{fill:#373a28;}.cls-72{fill:#292b1c;}.cls-73{opacity:0.38;}.cls-74{opacity:0.3;}.cls-75{mask:url(#mask-3);}.cls-76{stroke-width:1.5px;}.cls-77{mask:url(#mask-4);}.cls-78{fill:#9c6;}.cls-79{opacity:0.62;}.cls-80{clip-path:url(#clip-path);}.cls-81{fill:url(#linear-gradient-4);}.cls-82{fill:#c90;}.cls-84{fill:#c11f1f;}.cls-85{fill:#6c9e33;}.cls-87{fill:#ffdc9f;}.cls-88{fill:#ff2c2c;}.cls-89{fill:#a67c52;}.cls-90{fill:#7f5732;}.cls-91{opacity:0.25;}.cls-92{stroke:#7f5732;}.cls-93{fill:#fc4f4f;}.cls-94{opacity:0.73;}.cls-95{fill:#ffbdbd;}.cls-96{fill:#fc3;}.cls-97{fill:#efaf11;}.cls-98{fill:#563418;}.cls-99{font-size:34.88px;font-family:Somatic-Rounded, Somatic;}.cls-100{fill:#5b3103;}.cls-101{fill:#39b54a;}.cls-102{fill:#009245;}.cls-103{fill:#ffd38d;}.cls-104{fill:#ffda8f;}.cls-105{fill:#ffe6a6;}</style>
    <linearGradient
       id="linear-gradient"
       x1="908.91998"
       y1="348.17001"
       x2="1050.04"
       y2="348.17001"
       gradientUnits="userSpaceOnUse">
      <stop
         offset="0"
         stop-color="#fff"
         id="stop4" />
      <stop
         offset="0.08"
         stop-color="#f9f9f9"
         id="stop6" />
      <stop
         offset="0.18"
         stop-color="#e8e8e8"
         id="stop8" />
      <stop
         offset="0.3"
         stop-color="#ccc"
         id="stop10" />
      <stop
         offset="0.43"
         stop-color="#a5a5a5"
         id="stop12" />
      <stop
         offset="0.57"
         stop-color="#737373"
         id="stop14" />
      <stop
         offset="0.71"
         stop-color="#373737"
         id="stop16" />
      <stop
         offset="0.83"
         id="stop18" />
    </linearGradient>
    <linearGradient
       id="linear-gradient-2"
       x1="967.31"
       y1="241"
       x2="916.90997"
       y2="372.31"
       gradientUnits="userSpaceOnUse">
      <stop
         offset="0.03"
         stop-color="#fff"
         stop-opacity="0"
         id="stop21" />
      <stop
         offset="0.16"
         stop-color="#fefcf7"
         stop-opacity="0.05"
         id="stop23" />
      <stop
         offset="0.41"
         stop-color="#fcf4e2"
         stop-opacity="0.19"
         id="stop25" />
      <stop
         offset="0.73"
         stop-color="#f8e6c0"
         stop-opacity="0.4"
         id="stop27" />
      <stop
         offset="1"
         stop-color="#f4daa2"
         stop-opacity="0.6"
         id="stop29" />
    </linearGradient>
    <mask
       id="mask"
       x="438.2"
       y="383.22"
       width="115.01"
       height="49.84"
       maskUnits="userSpaceOnUse">
      <path
         class="cls-1"
         d="M 438.2,383.22 H 538 v 8 a 41.84,41.84 0 0 1 -41.84,41.84 H 480 a 41.84,41.84 0 0 1 -41.84,-41.84 v -8 z"
         id="path32" />
    </mask>
    <mask
       id="mask-2"
       x="440.48"
       y="377.42"
       width="47.23"
       height="20.01"
       maskUnits="userSpaceOnUse">
      <path
         class="cls-1"
         d="m 447.76,377.42 h 32.67 a 7.28,7.28 0 0 1 7.28,7.28 v 0 a 6.66,6.66 0 0 1 -6.66,6.66 h -33.91 a 6.66,6.66 0 0 1 -6.66,-6.66 v 0 a 7.28,7.28 0 0 1 7.28,-7.28 z"
         id="path35" />
    </mask>
    <mask
       id="mask-3"
       x="809.6"
       y="419.85"
       width="24.43"
       height="13.15"
       maskUnits="userSpaceOnUse">
      <rect
         class="cls-2"
         x="809.59998"
         y="419.85001"
         width="24.389999"
         height="8.3500004"
         id="rect38" />
    </mask>
    <mask
       id="mask-4"
       x="904.07"
       y="246.43"
       width="145.97"
       height="200.55"
       maskUnits="userSpaceOnUse">
      <rect
         class="cls-3"
         x="908.91998"
         y="249.36"
         width="141.12"
         height="197.62"
         id="rect41" />
    </mask>
    <clipPath
       id="clip-path">
      <path
         class="cls-4"
         d="m 982.49,246.83 h -78 c 3.32,13.85 9.88,19 15.06,21.18 9.36,4 18.28,0 24.8,5.39 4.08,3.39 5.79,9.3 4,14 -3.81,9.88 -20.41,7.39 -28.79,18 -6.79,8.55 -4.73,21.29 0.88,29.45 8.36,12.03 22.56,11.25 26.62,21.15 3.19,7.82 -3,17.62 -9.08,24.42 h 15.72 c 27.41,-15.48 32.39,-24.73 30.56,-30.52 -2.67,-8.43 -19.25,-7.83 -27,-20.83 -5.06,-8.48 -5.13,-20.64 2.22,-26.21 6.88,-5.22 14.35,-0.16 23.47,-5.39 11,-6.28 14.92,-22.05 8.42,-29.8 -2.46,-2.92 -5.29,-3.25 -7.62,-7.14 a 16.13,16.13 0 0 1 -1.24,-13.68"
         id="path44" />
    </clipPath>
    <linearGradient
       id="linear-gradient-4"
       x1="979.72998"
       y1="239.28"
       x2="922.70001"
       y2="387.85999"
       xlink:href="#linear-gradient-2" />
    <linearGradient
       inkscape:collect="always"
       xlink:href="#linear-gradient-2"
       id="linearGradient1666"
       gradientUnits="userSpaceOnUse"
       x1="967.31"
       y1="241"
       x2="916.90997"
       y2="372.31" />
  </defs>
  <title
     id="title50">Favourite</title>
  <g
     class="cls-5"
     id="g835"
     transform="translate(-82.31,-111.15107)">
    <g
       id="Layer_1"
       data-name="Layer 1">
      <rect
         class="cls-6"
         x="788.03998"
         y="423.59"
         width="45.369999"
         height="39.07"
         id="rect52" />
      <path
         class="cls-6"
         d="m 815.28,432.9 h -13.09 a 48.06,48.06 0 0 1 -47.64,-41.71 l -6.26,-46.85 c -5.64,-42.3 21.61,-82.07 60.44,-82.07 v 0 c 38.84,0 66.09,39.77 60.45,82.07 l -6.26,46.85 a 48.06,48.06 0 0 1 -47.64,41.71 z"
         id="path54" />
      <path
         class="cls-7"
         d="m 813.45,234 h 25.82 a 22.22,22.22 0 0 1 22.22,22.22 V 275.3 H 791.23 V 256.2 A 22.22,22.22 0 0 1 813.45,234 Z"
         transform="rotate(17.42,826.42315,254.65427)"
         id="path56" />
      <path
         class="cls-7"
         d="m 791.36,233.44 v 0 a 5.73,5.73 0 0 1 5.73,5.73 v 51.65 h -8.85 a 9.26,9.26 0 0 1 -9.26,-9.26 v -35.75 a 12.38,12.38 0 0 1 12.38,-12.37 z"
         transform="rotate(-72.58,788.02969,262.12639)"
         id="path58" />
      <circle
         class="cls-8"
         cx="837.84998"
         cy="369.87"
         r="4.4400001"
         id="circle60" />
      <line
         class="cls-9"
         x1="812.75"
         y1="347.59"
         x2="812.75"
         y2="354.26999"
         id="line62" />
      <line
         class="cls-9"
         x1="769.89001"
         y1="347.59"
         x2="769.89001"
         y2="354.26999"
         id="line64" />
      <rect
         class="cls-10"
         x="776.06"
         y="376.48999"
         width="20.190001"
         height="30.299999"
         rx="10.1"
         id="rect66" />
      <line
         class="cls-11"
         x1="789.97998"
         y1="253.25"
         x2="810.53998"
         y2="259.70001"
         id="line68" />
      <path
         class="cls-12"
         d="M 94.25,388.84 H 982.9 a 11.94,11.94 0 0 1 11.94,11.94 v 52.28 H 82.31 v -52.28 a 11.94,11.94 0 0 1 11.94,-11.94 z"
         id="path70" />
      <path
         class="cls-13"
         d="m 82.31,453.06 h 912.53 v 6.12 a 7,7 0 0 1 -7,7 H 89.66 a 7.35,7.35 0 0 1 -7.35,-7.35 v -5.75 z"
         id="path72" />
      <g
         class="cls-14"
         id="g160">
        <polygon
           class="cls-15"
           points="205.14,388.84 206.41,388.84 206.51,453.06 205.24,453.06 "
           id="polygon74" />
        <polygon
           class="cls-15"
           points="225.68,388.84 226.95,388.84 227.05,453.06 225.78,453.06 "
           id="polygon76" />
        <polygon
           class="cls-15"
           points="246.21,388.84 247.48,388.84 247.58,453.06 246.31,453.06 "
           id="polygon78" />
        <polygon
           class="cls-15"
           points="266.74,388.84 268.01,388.84 268.11,453.06 266.84,453.06 "
           id="polygon80" />
        <polygon
           class="cls-15"
           points="287.28,388.84 288.55,388.84 288.65,453.06 287.38,453.06 "
           id="polygon82" />
        <polygon
           class="cls-15"
           points="307.81,388.84 309.08,388.84 309.18,453.06 307.91,453.06 "
           id="polygon84" />
        <polygon
           class="cls-15"
           points="328.34,388.84 329.61,388.84 329.71,453.06 328.44,453.06 "
           id="polygon86" />
        <polygon
           class="cls-15"
           points="348.88,388.84 350.15,388.84 350.25,453.06 348.98,453.06 "
           id="polygon88" />
        <polygon
           class="cls-15"
           points="103.34,388.84 104.61,388.84 104.71,453.06 103.44,453.06 "
           id="polygon90" />
        <polygon
           class="cls-15"
           points="123.87,388.84 125.14,388.84 125.24,453.06 123.97,453.06 "
           id="polygon92" />
        <polygon
           class="cls-15"
           points="144.4,388.84 145.67,388.84 145.77,453.06 144.5,453.06 "
           id="polygon94" />
        <polygon
           class="cls-15"
           points="164.94,388.84 166.21,388.84 166.31,453.06 165.04,453.06 "
           id="polygon96" />
        <polygon
           class="cls-15"
           points="185.47,388.84 186.74,388.84 186.84,453.06 185.57,453.06 "
           id="polygon98" />
        <polygon
           class="cls-15"
           points="369.49,388.84 370.76,388.84 370.86,453.06 369.59,453.06 "
           id="polygon100" />
        <polygon
           class="cls-15"
           points="390.03,388.84 391.3,388.84 391.39,453.06 390.13,453.06 "
           id="polygon102" />
        <polygon
           class="cls-15"
           points="410.56,388.84 411.83,388.84 411.93,453.06 410.66,453.06 "
           id="polygon104" />
        <polygon
           class="cls-15"
           points="431.09,388.84 432.36,388.84 432.46,453.06 431.19,453.06 "
           id="polygon106" />
        <polygon
           class="cls-15"
           points="451.63,388.84 452.89,388.84 452.99,453.06 451.72,453.06 "
           id="polygon108" />
        <polygon
           class="cls-15"
           points="472.16,388.84 473.43,388.84 473.53,453.06 472.26,453.06 "
           id="polygon110" />
        <polygon
           class="cls-15"
           points="492.69,388.84 493.96,388.84 494.06,453.06 492.79,453.06 "
           id="polygon112" />
        <polygon
           class="cls-15"
           points="513.23,388.84 514.5,388.84 514.59,453.06 513.32,453.06 "
           id="polygon114" />
        <polygon
           class="cls-15"
           points="536.17,388.84 537.44,388.84 537.54,453.06 536.27,453.06 "
           id="polygon116" />
        <polygon
           class="cls-15"
           points="556.7,388.84 557.97,388.84 558.07,453.06 556.8,453.06 "
           id="polygon118" />
        <polygon
           class="cls-15"
           points="577.24,388.84 578.51,388.84 578.61,453.06 577.34,453.06 "
           id="polygon120" />
        <polygon
           class="cls-15"
           points="597.77,388.84 599.04,388.84 599.14,453.06 597.87,453.06 "
           id="polygon122" />
        <polygon
           class="cls-15"
           points="618.3,388.84 619.57,388.84 619.67,453.06 618.4,453.06 "
           id="polygon124" />
        <polygon
           class="cls-15"
           points="638.84,388.84 640.11,388.84 640.21,453.06 638.94,453.06 "
           id="polygon126" />
        <polygon
           class="cls-15"
           points="659.37,388.84 660.64,388.84 660.74,453.06 659.47,453.06 "
           id="polygon128" />
        <polygon
           class="cls-15"
           points="679.9,388.84 681.17,388.84 681.27,453.06 680,453.06 "
           id="polygon130" />
        <polygon
           class="cls-15"
           points="700.44,388.84 701.71,388.84 701.81,453.06 700.54,453.06 "
           id="polygon132" />
        <polygon
           class="cls-15"
           points="720.97,388.84 722.24,388.84 722.34,453.06 721.07,453.06 "
           id="polygon134" />
        <polygon
           class="cls-15"
           points="741.5,388.84 742.77,388.84 742.87,453.06 741.6,453.06 "
           id="polygon136" />
        <polygon
           class="cls-15"
           points="762.04,388.84 763.31,388.84 763.41,453.06 762.14,453.06 "
           id="polygon138" />
        <polygon
           class="cls-15"
           points="782.57,388.84 783.84,388.84 783.94,453.06 782.67,453.06 "
           id="polygon140" />
        <polygon
           class="cls-15"
           points="803.1,388.84 804.37,388.84 804.47,453.06 803.2,453.06 "
           id="polygon142" />
        <polygon
           class="cls-15"
           points="823.64,388.84 824.91,388.84 825,453.06 823.74,453.06 "
           id="polygon144" />
        <polygon
           class="cls-15"
           points="844.17,388.84 845.44,388.84 845.54,453.06 844.27,453.06 "
           id="polygon146" />
        <polygon
           class="cls-15"
           points="864.7,388.84 865.97,388.84 866.07,453.06 864.8,453.06 "
           id="polygon148" />
        <polygon
           class="cls-15"
           points="885.24,388.84 886.51,388.84 886.61,453.06 885.34,453.06 "
           id="polygon150" />
        <polygon
           class="cls-15"
           points="905.77,388.84 907.04,388.84 907.14,453.06 905.87,453.06 "
           id="polygon152" />
        <polygon
           class="cls-15"
           points="926.3,388.84 927.57,388.84 927.67,453.06 926.4,453.06 "
           id="polygon154" />
        <polygon
           class="cls-15"
           points="946.84,388.84 948.11,388.84 948.21,453.06 946.93,453.06 "
           id="polygon156" />
        <polygon
           class="cls-15"
           points="967.37,388.84 968.64,388.84 968.74,453.06 967.47,453.06 "
           id="polygon158" />
      </g>
      <path
         class="cls-1"
         d="m 93.06,464.11 a 7.84,7.84 0 0 0 7.83,-7.83 7.69,7.69 0 0 0 -0.7,-3.22 H 85.93 a 7.82,7.82 0 0 0 7.13,11.05 z"
         id="path162" />
      <path
         class="cls-1"
         d="m 349.56,464.11 a 7.84,7.84 0 0 0 7.83,-7.83 7.69,7.69 0 0 0 -0.7,-3.22 h -14.26 a 7.82,7.82 0 0 0 7.13,11.05 z"
         id="path164" />
      <path
         class="cls-1"
         d="m 660.05,464.11 a 7.84,7.84 0 0 0 7.14,-11.05 h -14.27 a 7.84,7.84 0 0 0 7.13,11.05 z"
         id="path166" />
      <path
         class="cls-1"
         d="m 985.07,464.11 a 7.84,7.84 0 0 0 7.83,-7.83 7.69,7.69 0 0 0 -0.7,-3.22 h -14.26 a 7.82,7.82 0 0 0 7.13,11.05 z"
         id="path168" />
      <rect
         class="cls-12"
         x="364.35001"
         y="158.06"
         width="58.93"
         height="49.25"
         rx="15.44"
         id="rect170" />
      <path
         class="cls-7"
         d="m 407.69,175.36 a 8.46,8.46 0 0 0 -2.19,-3 L 405,172 h -0.05 a 8.58,8.58 0 0 0 -5,-1.63 8.6,8.6 0 0 0 -3.48,0.74 8.38,8.38 0 0 0 -2.63,1.83 8.38,8.38 0 0 0 -2.63,-1.83 8.57,8.57 0 0 0 -3.48,-0.74 8.53,8.53 0 0 0 -5.58,2.08 8.48,8.48 0 0 0 -2.92,6.44 8.46,8.46 0 0 0 0.52,2.93 8.34,8.34 0 0 0 1.56,2.65 l 0.05,0.06 9.91,9.53 a 3.64,3.64 0 0 0 1.21,0.78 3.77,3.77 0 0 0 1.36,0.26 3.83,3.83 0 0 0 1.37,-0.26 3.74,3.74 0 0 0 1.21,-0.78 l 9.9,-9.53 v -0.06 a 8.56,8.56 0 0 0 1.57,-2.65 8.69,8.69 0 0 0 0.51,-2.93 8.56,8.56 0 0 0 -0.71,-3.53 z"
         id="path172" />
      <path
         class="cls-16"
         d="m 394.22,201.61 v 6.75 a 8.48,8.48 0 0 1 -8.48,8.48 h -6.54"
         id="path174" />
      <line
         class="cls-17"
         x1="425.25"
         y1="154.67999"
         x2="435.04001"
         y2="145.13"
         id="line176" />
      <line
         class="cls-17"
         x1="430.26999"
         y1="166.50999"
         x2="440.97"
         y2="166.50999"
         id="line178" />
      <line
         class="cls-17"
         x1="413.14999"
         y1="151.02"
         x2="413.14999"
         y2="142.00999"
         id="line180" />
      <rect
         class="cls-18"
         x="242.11"
         y="266.95001"
         width="44.02"
         height="27.940001"
         transform="rotate(11.19,264.08875,280.88497)"
         id="rect182" />
      <path
         class="cls-18"
         d="m 319.37,127.07 -1.69,8.55 a 5.67,5.67 0 0 1 -5.94,4.65 5.5,5.5 0 0 1 -4.87,-6.53 l 2.83,-14.32 a 2.4,2.4 0 0 0 -1.38,-2.67 c -1.88,-0.82 -3.82,-1.55 -5.8,-2.19 a 2.42,2.42 0 0 0 -3.13,1.82 l -3,15 a 5.66,5.66 0 0 1 -5.94,4.65 5.5,5.5 0 0 1 -4.88,-6.52 l 3,-15.29 a 2.43,2.43 0 0 0 -2.2,-2.88 q -3.12,-0.23 -6.2,-0.18 a 2.38,2.38 0 0 0 -2.29,2 l -2.79,14.07 a 5.66,5.66 0 0 1 -5.93,4.65 5.51,5.51 0 0 1 -4.88,-6.53 l 1.74,-8.8 a 2.41,2.41 0 0 0 -3,-2.79 67.47,67.47 0 0 0 -47.82,51.84 l -9.55,48.27 a 51.29,51.29 0 0 0 40.36,60.26 l 31.82,6.29 A 51.28,51.28 0 0 0 338.15,240 l 9.54,-48.26 a 67.48,67.48 0 0 0 -24.48,-66.15 2.41,2.41 0 0 0 -3.84,1.48 z"
         id="path184" />
      <path
         class="cls-19"
         d="M 302.43,226.61 A 14.67,14.67 0 0 1 276.15,222.3"
         id="path186" />
      <path
         class="cls-20"
         d="m 249.9,227.67 a 8.24,8.24 0 0 0 3,-14.91"
         id="path188" />
      <path
         class="cls-20"
         d="M 319.09,241.38 A 8.25,8.25 0 0 1 322,226.44"
         id="path190" />
      <path
         class="cls-21"
         d="m 285,388.84 h -91.19 l 21,-105.5 a 8.25,8.25 0 0 1 9.68,-6.48 l 67.38,13.33 a 13.07,13.07 0 0 1 10.29,15.37 z"
         id="path192" />
      <path
         class="cls-22"
         d="m 188.27,315 a 75.14,75.14 0 0 0 -7.51,37.69 c 2.49,46.63 68.57,24.32 73.57,-37.16"
         id="path194" />
      <path
         class="cls-22"
         d="m 309.17,339 a 74.88,74.88 0 0 1 -7.4,37.71 c -20,42.17 -49.2,1.88 -30.42,-56.88"
         id="path196" />
      <path
         class="cls-23"
         d="m 184.52,327.1 a 45.93,45.93 0 0 1 23.7,-33.1 c 0,0 7.66,-4.13 16.51,1.85"
         id="path198" />
      <line
         class="cls-19"
         x1="273.54999"
         y1="196.67"
         x2="271.73999"
         y2="205.83"
         id="line200" />
      <line
         class="cls-19"
         x1="314.29999"
         y1="204.73"
         x2="312.48999"
         y2="213.89"
         id="line202" />
      <path
         class="cls-24"
         d="m 208.7,314.86 c 0,0 2.38,-4.48 7.18,-5.54"
         id="path204" />
      <path
         class="cls-23"
         d="m 308.9,355.26 c 7.81,-23.44 -5.23,-40.26 -5.23,-40.26 0,0 -4,-6.93 -14.24,-7.62"
         id="path206" />
      <path
         class="cls-18"
         d="m 249,296.21 h 5.88 a 17.8,17.8 0 0 1 17.8,17.8 v 7.38 a 3.81,3.81 0 0 1 -3.81,3.81 h -34.41 a 3.81,3.81 0 0 1 -3.81,-3.81 v -6.88 A 18.31,18.31 0 0 1 249,296.21 Z"
         transform="rotate(-78.81,251.65653,310.71628)"
         id="path208" />
      <path
         class="cls-18"
         d="m 261.86,301.63 h 34.38 a 3.81,3.81 0 0 1 3.81,3.81 v 7.38 a 17.8,17.8 0 0 1 -17.8,17.8 h -5.88 a 18.31,18.31 0 0 1 -18.31,-18.31 v -6.88 a 3.81,3.81 0 0 1 3.81,-3.81 z"
         transform="rotate(-78.81,279.06533,316.12895)"
         id="path210" />
      <path
         class="cls-24"
         d="m 293.05,349.94 1.65,-8 a 8.78,8.78 0 0 1 3.15,-5.11 l 3.2,-2.54"
         id="path212" />
      <path
         class="cls-25"
         d="M 438.2,383.22 H 538 v 8 a 41.84,41.84 0 0 1 -41.84,41.84 H 480 a 41.84,41.84 0 0 1 -41.84,-41.84 v -8 z"
         id="path214" />
      <g
         class="cls-26"
         mask="url(#mask)"
         id="g224">
        <polyline
           class="cls-27"
           points="446.02 399.25 449.45 399.25 449.45 402.67 442.6 402.67 442.6 395.98 452.72 395.98 452.72 402.67 462.99 402.67 462.99 395.98 456.14 395.98 456.14 399.33 459.57 399.33"
           id="polyline216" />
        <polyline
           class="cls-27"
           points="470.2 399.25 473.63 399.25 473.63 402.67 466.78 402.67 466.78 395.98 476.9 395.98 476.9 402.67 487.17 402.67 487.17 395.98 480.32 395.98 480.32 399.33 483.75 399.33"
           id="polyline218" />
        <polyline
           class="cls-27"
           points="511.56 399.25 514.99 399.25 514.99 402.67 508.14 402.67 508.14 395.98 518.25 395.98 518.25 402.67 528.53 402.67 528.53 395.98 521.68 395.98 521.68 399.33 525.1 399.33"
           id="polyline220" />
        <polyline
           class="cls-27"
           points="535.74 399.25 539.16 399.25 539.16 402.67 532.32 402.67 532.32 395.98 542.43 395.98 542.43 402.67 552.71 402.67 552.71 395.98 545.86 395.98 545.86 399.33 549.28 399.33"
           id="polyline222" />
      </g>
      <rect
         class="cls-28"
         x="438.20001"
         y="373.38"
         width="99.769997"
         height="17.98"
         rx="8.9899998"
         id="rect226" />
      <path
         class="cls-29"
         d="m 447.76,377.42 h 79.89 a 7.28,7.28 0 0 1 7.28,7.28 v 0 a 6.66,6.66 0 0 1 -6.66,6.66 h -81.13 a 6.66,6.66 0 0 1 -6.66,-6.66 v 0 a 7.28,7.28 0 0 1 7.28,-7.28 z"
         id="path228" />
      <path
         class="cls-30"
         d="M 489.31,374.47 H 513 a 14.34,14.34 0 0 1 14.34,14.34 v 0 H 475 v 0 a 14.34,14.34 0 0 1 14.31,-14.34 z"
         id="path230" />
      <path
         class="cls-31"
         d="m 478.28,388.81 v -1 c 0,-6.16 6.14,-11.16 13.71,-11.16 h 18 c 7.57,0 13.71,5 13.71,11.16 v 1"
         id="path232" />
      <path
         class="cls-32"
         d="m 481.83,388.81 v -1.29 c 0,-4.53 4.51,-8.2 10.07,-8.2 h 18.22 c 5.56,0 10.07,3.67 10.07,8.2 v 1.29"
         id="path234" />
      <path
         class="cls-31"
         d="m 486.86,388.81 v -1.66 c 0,-2.82 2.81,-5.11 6.27,-5.11 h 15.76 c 3.46,0 6.27,2.29 6.27,5.11 v 1.66"
         id="path236" />
      <polygon
         class="cls-33"
         points="448.73,366.92 462.33,366.92 472.19,379.83 458.59,379.83 "
         id="polygon238" />
      <line
         class="cls-34"
         x1="454.48999"
         y1="379.82999"
         x2="475.76001"
         y2="379.82999"
         id="line240" />
      <g
         class="cls-35"
         mask="url(#mask-2)"
         id="g264">
        <path
           class="cls-36"
           d="m 468.63,384.71 c 1.43,4.62 -3.29,9.51 -10.31,11.7 -7.02,2.19 -13.68,0.83 -15.11,-3.79 -1.43,-4.62 3.09,-10.13 10.11,-12.31 7.02,-2.18 13.87,-0.21 15.31,4.4 z"
           id="path242" />
        <ellipse
           class="cls-37"
           cx="455.64001"
           cy="387.76999"
           rx="13.31"
           ry="7.8099999"
           transform="matrix(0.95,-0.3,0.3,0.95,-94.6,152.8)"
           id="ellipse244" />
        <path
           class="cls-38"
           d="m 449.5,384.48 a 18.81,18.81 0 0 1 7.51,-0.78 7.93,7.93 0 0 1 3.14,0.95 3,3 0 0 1 1.41,1.6 2.62,2.62 0 0 1 -0.57,2.36 7.88,7.88 0 0 1 -3.93,2.43 11.71,11.71 0 0 1 -4.73,0.49 4.79,4.79 0 0 1 -1.94,-0.58 1.73,1.73 0 0 1 -0.83,-0.92 1.52,1.52 0 0 1 0.34,-1.36 4.85,4.85 0 0 1 2.43,-1.49 7.25,7.25 0 0 1 2.95,-0.31 l 0.11,-1 a 8.44,8.44 0 0 0 -3.35,0.35 5.84,5.84 0 0 0 -2.92,1.84 2.48,2.48 0 0 0 -0.49,2.22 2.68,2.68 0 0 0 1.26,1.47 5.87,5.87 0 0 0 2.33,0.72 12.93,12.93 0 0 0 5.13,-0.53 8.67,8.67 0 0 0 4.42,-2.79 3.57,3.57 0 0 0 0.72,-3.22 3.91,3.91 0 0 0 -1.84,-2.14 8.8,8.8 0 0 0 -3.53,-1.08 19.57,19.57 0 0 0 -7.9,0.81 16.91,16.91 0 0 0 -4.6,2.2 8.61,8.61 0 0 0 -1.69,3.09 l 0.3,-0.46 a 12.47,12.47 0 0 1 6.27,-3.87 z"
           id="path246" />
        <path
           class="cls-12"
           d="m 483.63,386.87 c 0,0.49 -0.76,0.75 -1.13,1.19 -0.37,0.44 -0.3,1.15 -0.79,1.45 -0.49,0.3 -1.15,-0.1 -1.67,0.09 -0.52,0.19 -0.76,0.94 -1.29,1.07 -0.53,0.13 -1.11,-0.4 -1.64,-0.32 -0.53,0.08 -0.94,0.77 -1.47,0.81 -0.53,0.04 -1,-0.58 -1.57,-0.58 -0.57,0 -1.07,0.61 -1.57,0.58 -0.5,-0.03 -1,-0.73 -1.47,-0.81 -0.47,-0.08 -1.16,0.44 -1.65,0.32 -0.49,-0.12 -0.83,-0.89 -1.28,-1.07 -0.45,-0.18 -1.27,0.15 -1.67,-0.09 -0.4,-0.24 -0.5,-1.1 -0.8,-1.45 -0.3,-0.35 -1.13,-0.7 -1.13,-1.19 0,-0.49 0.77,-0.76 1.14,-1.2 0.37,-0.44 0.29,-1.15 0.79,-1.45 0.5,-0.3 1.15,0.11 1.67,-0.09 0.52,-0.2 0.76,-0.93 1.28,-1.07 0.52,-0.14 1.12,0.4 1.65,0.32 0.53,-0.08 0.94,-0.76 1.47,-0.8 0.53,-0.04 1,0.58 1.57,0.58 0.57,0 1.07,-0.62 1.57,-0.58 0.5,0.04 1,0.73 1.47,0.8 0.47,0.07 1.16,-0.44 1.64,-0.32 0.48,0.12 0.83,0.9 1.29,1.07 0.46,0.17 1.26,-0.15 1.67,0.09 0.41,0.24 0.5,1.1 0.79,1.45 0.29,0.35 1.13,0.7 1.13,1.2 z"
           id="path248" />
        <path
           class="cls-1"
           d="m 483.63,386.33 c 0,0.5 -0.76,0.76 -1.13,1.2 -0.37,0.44 -0.3,1.15 -0.79,1.45 -0.49,0.3 -1.15,-0.11 -1.67,0.09 -0.52,0.2 -0.76,0.93 -1.29,1.07 -0.53,0.14 -1.11,-0.4 -1.64,-0.32 -0.53,0.08 -0.94,0.76 -1.47,0.8 -0.53,0.04 -1,-0.57 -1.57,-0.57 -0.57,0 -1.07,0.61 -1.57,0.57 -0.5,-0.04 -1,-0.72 -1.47,-0.8 -0.47,-0.08 -1.16,0.44 -1.65,0.32 -0.49,-0.12 -0.83,-0.89 -1.28,-1.07 -0.45,-0.18 -1.27,0.15 -1.67,-0.09 -0.4,-0.24 -0.5,-1.1 -0.8,-1.45 -0.3,-0.35 -1.13,-0.7 -1.13,-1.2 0,-0.5 0.77,-0.75 1.14,-1.19 0.37,-0.44 0.29,-1.15 0.79,-1.45 0.5,-0.3 1.15,0.1 1.67,-0.09 0.52,-0.19 0.76,-0.94 1.28,-1.07 0.52,-0.13 1.12,0.4 1.65,0.32 0.53,-0.08 0.94,-0.77 1.47,-0.8 0.53,-0.03 1,0.57 1.57,0.57 0.57,0 1.07,-0.61 1.57,-0.57 0.5,0.04 1,0.72 1.47,0.8 0.47,0.08 1.16,-0.44 1.64,-0.32 0.48,0.12 0.83,0.89 1.29,1.07 0.46,0.18 1.26,-0.15 1.67,0.09 0.41,0.24 0.5,1.1 0.79,1.45 0.29,0.35 1.13,0.7 1.13,1.19 z"
           id="path250" />
        <polygon
           class="cls-39"
           points="473.89,386.86 473.86,386.86 473.89,386.87 "
           id="polygon252" />
        <polygon
           class="cls-39"
           points=""
           id="polygon254" />
        <polygon
           class="cls-39"
           points="473.89,386.86 473.89,386.87 473.89,386.86 "
           id="polygon256" />
        <polygon
           class="cls-39"
           points="473.89,386.86 473.89,386.85 473.87,386.86 473.89,386.86 "
           id="polygon258" />
        <path
           class="cls-39"
           d="m 469.14,385.34 a 9.12,9.12 0 0 1 4.78,-1.19 c 0.38,0 0.76,0 1.14,0.05 a 9.78,9.78 0 0 1 3.69,1 3.28,3.28 0 0 1 1,0.76 1.11,1.11 0 0 1 0.32,0.74 1.13,1.13 0 0 1 0,0.25 c -0.09,0.33 -0.55,0.74 -1.32,1 a 8.28,8.28 0 0 1 -2.88,0.46 c -0.3,0 -0.61,0 -0.92,0 a 6.29,6.29 0 0 1 -2.31,-0.6 2.14,2.14 0 0 1 -0.61,-0.46 0.61,0.61 0 0 1 -0.18,-0.4 v -0.12 a 1.2,1.2 0 0 1 0.77,-0.58 5.18,5.18 0 0 1 1.8,-0.29 H 475 a 3.8,3.8 0 0 1 1.43,0.37 1.28,1.28 0 0 1 0.36,0.26 0.36,0.36 0 0 1 0.08,0.18 v 0 c 0,0 -0.13,0.19 -0.41,0.29 a 3.2,3.2 0 0 1 -1.12,0.18 h -0.35 a 2.38,2.38 0 0 1 -0.87,-0.22 0.46,0.46 0 0 1 -0.19,-0.14 v 0 0 a 0.34,0.34 0 0 0 -0.65,-0.18 v 0.19 a 0.71,0.71 0 0 0 0.19,0.47 2.26,2.26 0 0 0 1.52,0.6 h 0.41 a 4,4 0 0 0 1.36,-0.22 1.24,1.24 0 0 0 0.82,-0.74 v -0.23 a 0.93,0.93 0 0 0 -0.25,-0.62 3.39,3.39 0 0 0 -2.25,-0.87 h -0.63 a 6,6 0 0 0 -2,0.33 1.81,1.81 0 0 0 -1.18,1 1.12,1.12 0 0 0 -0.05,0.31 1.31,1.31 0 0 0 0.34,0.84 5.23,5.23 0 0 0 3.39,1.3 c 0.32,0 0.65,0 1,0 a 8.93,8.93 0 0 0 3.13,-0.51 2.59,2.59 0 0 0 1.72,-1.47 1.67,1.67 0 0 0 0.06,-0.44 1.79,1.79 0 0 0 -0.48,-1.18 c -0.89,-1 -2.79,-1.76 -5.16,-2 -0.4,0 -0.8,0 -1.2,0 a 9.66,9.66 0 0 0 -5.14,1.3 6,6 0 0 0 -2.7,3.77 0.9,0.9 0 0 0 0.35,0.44 0.52,0.52 0 0 0 0.23,0.07 5.33,5.33 0 0 1 2.38,-3.7 z"
           id="path260" />
        <polygon
           class="cls-39"
           points="473.89,386.85 473.89,386.86 473.89,386.85 "
           id="polygon262" />
      </g>
      <rect
         class="cls-40"
         x="466.39001"
         y="431.10999"
         width="43.77"
         height="4.2199998"
         id="rect266" />
      <line
         class="cls-41"
         x1="462.14999"
         y1="383.04001"
         x2="463.64999"
         y2="382.57999"
         id="line268" />
      <line
         class="cls-41"
         x1="467.62"
         y1="381.35001"
         x2="468.72"
         y2="381.64001"
         id="line270" />
      <line
         class="cls-41"
         x1="470.41"
         y1="386.28"
         x2="469.31"
         y2="386.87"
         id="line272" />
      <line
         class="cls-41"
         x1="475.76001"
         y1="380.72"
         x2="477.5"
         y2="381.64001"
         id="line274" />
      <line
         class="cls-41"
         x1="484.45001"
         y1="388.42001"
         x2="482.70999"
         y2="389.76001"
         id="line276" />
      <line
         class="cls-41"
         x1="489.73999"
         y1="386.87"
         x2="491.38"
         y2="387.60001"
         id="line278" />
      <line
         class="cls-41"
         x1="486.85999"
         y1="382.81"
         x2="485.91"
         y2="384.07001"
         id="line280" />
      <line
         class="cls-41"
         x1="457.54999"
         y1="388.81"
         x2="459.37"
         y2="389.28"
         id="line282" />
      <line
         class="cls-41"
         x1="450.44"
         y1="382.73001"
         x2="452.78"
         y2="383.44"
         id="line284" />
      <line
         class="cls-41"
         x1="455.91"
         y1="382.04001"
         x2="457.12"
         y2="382.73999"
         id="line286" />
      <polygon
         class="cls-42"
         points="463.65,407.02 537.63,372.5 540.48,373.13 540.16,375.69 "
         id="polygon288" />
      <path
         class="cls-43"
         d="m 462.59,407.06 v 0 a 1.59,1.59 0 0 0 1.06,0 l 76.51,-33.54 c 0.58,-0.26 0.34,-1 -0.39,-1.19 l -3.47,-0.81 a 1,1 0 0 0 -0.69,0 l -73.07,34.22 c -0.88,0.41 -1.08,1.01 0.05,1.32 z"
         id="path290" />
      <polygon
         class="cls-42"
         points="466.39,408.88 536.73,368.87 539.63,369.27 539.56,371.85 "
         id="polygon292" />
      <path
         class="cls-43"
         d="m 465.34,409 v 0 a 1.58,1.58 0 0 0 1.05,-0.12 l 73,-39.23 c 0.56,-0.3 0.24,-1 -0.51,-1.15 L 535.3,368 a 1,1 0 0 0 -0.69,0.09 l -69.45,39.64 c -0.83,0.43 -0.98,1.05 0.18,1.27 z"
         id="path294" />
      <ellipse
         class="cls-44"
         cx="652.87"
         cy="397.94"
         rx="48.43"
         ry="15.64"
         id="ellipse296" />
      <path
         class="cls-45"
         d="m 652.87,404.56 c -26.75,0 -48.43,6.8 -48.43,15.19 v -21.82 0 -0.08 c 0,-8.39 21.68,-15.19 48.43,-15.19 26.75,0 48.44,6.8 48.44,15.19 0,0 0,0 0,0.08 v 0 21.82 c 0,-8.39 -21.69,-15.19 -48.44,-15.19 z"
         id="path298" />
      <path
         class="cls-46"
         d="m 697.53,402.18 a 31,31 0 0 0 -5.42,-3.39 52.57,52.57 0 0 0 -6.68,-2.8 c -1.19,-0.42 -2.46,-0.78 -3.72,-1.14 -0.64,-0.17 -1.31,-0.33 -2,-0.49 l -1,-0.24 -1,-0.2 a 64.56,64.56 0 0 0 -8.38,-1.12 l 2.06,0.32 1,0.16 1,0.19 2,0.38 1.95,0.45 1,0.22 1,0.25 c 0.62,0.17 1.26,0.33 1.88,0.51 l 1.83,0.55 c 0.62,0.18 1.18,0.4 1.78,0.59 2.36,0.81 4.59,1.7 6.71,2.66 l 1.56,0.74 c 0.51,0.25 1,0.5 1.52,0.76 1.03,0.51 1.98,1.05 2.91,1.6 z"
         id="path300" />
      <path
         class="cls-46"
         d="m 608.22,400.05 a 35.69,35.69 0 0 1 5.33,-2.59 c 1.92,-0.78 4,-1.48 6.1,-2.11 a 96.38,96.38 0 0 1 13.6,-2.89 c 2.37,-0.36 4.79,-0.61 7.22,-0.83 1.22,-0.09 2.44,-0.21 3.67,-0.27 l 1.85,-0.11 1.85,-0.08 c 4.94,-0.18 9.93,-0.17 14.9,0 a 148.7,148.7 0 0 0 -15,-0.4 l -1.88,0.05 -1.87,0.09 c -1.25,0 -2.49,0.15 -3.73,0.23 -2.47,0.22 -4.94,0.47 -7.35,0.82 -2.41,0.35 -4.78,0.77 -7.09,1.28 -2.31,0.51 -4.53,1.09 -6.64,1.77 a 52.17,52.17 0 0 0 -6,2.26 q -1.4,0.63 -2.67,1.32 a 19.32,19.32 0 0 0 -2.29,1.46 z"
         id="path302" />
      <path
         class="cls-46"
         d="m 617.82,402.58 a 31.35,31.35 0 0 1 4.44,-1.89 c 1.6,-0.56 3.3,-1.06 5,-1.5 a 83.32,83.32 0 0 1 11.19,-1.94 c 1.94,-0.22 3.92,-0.36 5.91,-0.48 1,0 2,-0.11 3,-0.13 h 1.51 1.51 c 4,0 8.07,0.09 12.11,0.33 -4,-0.4 -8.06,-0.62 -12.14,-0.64 h -1.53 -1.52 c -1,0 -2,0.07 -3.05,0.1 -2,0.11 -4,0.25 -6,0.47 -2,0.22 -3.92,0.49 -5.81,0.83 -1.89,0.34 -3.73,0.75 -5.48,1.22 a 49.5,49.5 0 0 0 -5,1.62 c -0.77,0.31 -1.52,0.63 -2.22,1 a 17.07,17.07 0 0 0 -1.92,1.01 z"
         id="path304" />
      <path
         class="cls-47"
         d="m 661.94,401.6 v 0 a 20.5,20.5 0 0 0 -1.61,-5.38 14.14,14.14 0 0 0 -2.76,-4.11 9.45,9.45 0 0 0 -4.78,-2.63 l -0.36,-0.26 c -0.3,-0.24 -0.68,-0.57 -1.08,-0.86 a 5.75,5.75 0 0 0 -0.63,-0.42 2.27,2.27 0 0 0 -0.38,-0.17 1.57,1.57 0 0 0 -1.29,0.11 4.65,4.65 0 0 0 -0.76,0.55 c -0.33,0.3 -0.65,0.63 -0.9,0.87 a 3.21,3.21 0 0 1 -0.3,0.25 8.82,8.82 0 0 0 -4.74,2.66 14.66,14.66 0 0 0 -3.27,6.35 19.09,19.09 0 0 0 -0.61,3.51 v 0 a 4.72,4.72 0 0 0 -0.05,0.64 3.86,3.86 0 0 0 0.76,2.34 5.65,5.65 0 0 0 2.82,1.95 9.77,9.77 0 0 0 3.18,0.53 h 10.11 a 7.85,7.85 0 0 0 2.16,-0.32 7.68,7.68 0 0 0 3.05,-1.61 4.79,4.79 0 0 0 1.1,-1.38 3.87,3.87 0 0 0 0.45,-1.8 4.32,4.32 0 0 0 -0.11,-0.82 z"
         id="path306" />
      <path
         class="cls-48"
         d="m 650.9,390.21 a 7.72,7.72 0 0 1 2.86,1.84 8.71,8.71 0 0 1 1.94,2.88 8.59,8.59 0 0 1 0.64,3.42 9.93,9.93 0 0 1 -0.18,1.71 15.22,15.22 0 0 1 -0.51,1.62 c 0,-0.58 0,-1.12 0,-1.67 a 14.71,14.71 0 0 0 -0.11,-1.63 10.85,10.85 0 0 0 -0.79,-3.07 13.31,13.31 0 0 0 -3.85,-5.1 z"
         id="path308" />
      <path
         class="cls-48"
         d="m 649.71,390.21 a 4.21,4.21 0 0 1 1.5,1.92 5.47,5.47 0 0 1 0.39,2.47 6.51,6.51 0 0 1 -0.71,2.38 7.8,7.8 0 0 1 -0.67,1 7.68,7.68 0 0 1 -0.85,0.86 c 0.13,-0.39 0.28,-0.75 0.43,-1.1 0.15,-0.35 0.26,-0.72 0.37,-1.08 a 11,11 0 0 0 0.44,-2.16 8.18,8.18 0 0 0 -0.9,-4.29 z"
         id="path310" />
      <path
         class="cls-48"
         d="m 648.81,390.21 a 4.42,4.42 0 0 1 0.11,2.11 5.23,5.23 0 0 1 -0.83,2 4.76,4.76 0 0 1 -1.6,1.46 4.45,4.45 0 0 1 -2,0.59 c 0.56,-0.44 1.11,-0.79 1.58,-1.23 a 7,7 0 0 0 1.23,-1.39 11.27,11.27 0 0 0 1.51,-3.54 z"
         id="path312" />
      <path
         class="cls-49"
         d="M 643.78,401.93 A 9.54,9.54 0 0 0 639,399.29 l -0.09,-0.06 a 18.5,18.5 0 0 0 -0.44,2.84 v 0 a 4.72,4.72 0 0 0 -0.05,0.64 3.86,3.86 0 0 0 0.76,2.34 5.65,5.65 0 0 0 2.82,1.95 9.77,9.77 0 0 0 3.18,0.53 h 2 c -0.17,-0.47 -0.36,-1 -0.59,-1.46 a 14,14 0 0 0 -2.81,-4.14 z"
         id="path314" />
      <path
         class="cls-47"
         d="m 684.66,408.56 v 0 a 20.86,20.86 0 0 0 -1.61,-5.39 14.1,14.1 0 0 0 -2.76,-4.1 9.54,9.54 0 0 0 -4.78,-2.64 3.7,3.7 0 0 1 -0.36,-0.26 c -0.3,-0.23 -0.69,-0.57 -1.08,-0.86 a 4.54,4.54 0 0 0 -0.63,-0.41 1.9,1.9 0 0 0 -0.38,-0.17 1.58,1.58 0 0 0 -0.54,-0.1 1.65,1.65 0 0 0 -0.75,0.2 4.16,4.16 0 0 0 -0.76,0.56 c -0.33,0.3 -0.65,0.62 -0.91,0.86 -0.26,0.24 -0.23,0.21 -0.29,0.26 a 8.82,8.82 0 0 0 -4.75,2.66 14.9,14.9 0 0 0 -3.27,6.34 21.41,21.41 0 0 0 -0.61,3.52 v 0 a 4.48,4.48 0 0 0 -0.06,0.63 4,4 0 0 0 0.76,2.35 5.74,5.74 0 0 0 2.79,1.91 9.82,9.82 0 0 0 3.18,0.53 H 678 a 8.23,8.23 0 0 0 2.16,-0.31 8,8 0 0 0 3.05,-1.61 4.93,4.93 0 0 0 1.1,-1.38 3.91,3.91 0 0 0 0.45,-1.81 3.53,3.53 0 0 0 -0.1,-0.78 z"
         id="path316" />
      <path
         class="cls-48"
         d="m 673.63,397.16 a 7.63,7.63 0 0 1 2.86,1.85 8.34,8.34 0 0 1 1.93,2.88 9,9 0 0 1 0.46,5.12 10.9,10.9 0 0 1 -0.51,1.62 c 0,-0.57 0,-1.12 0,-1.67 a 14.37,14.37 0 0 0 -0.11,-1.62 10.66,10.66 0 0 0 -0.78,-3.07 13.34,13.34 0 0 0 -3.85,-5.11 z"
         id="path318" />
      <path
         class="cls-48"
         d="m 672.44,397.16 a 4.21,4.21 0 0 1 1.5,1.92 5.63,5.63 0 0 1 0.39,2.48 6.29,6.29 0 0 1 -0.72,2.37 7.73,7.73 0 0 1 -0.66,1 10,10 0 0 1 -0.85,0.87 c 0.12,-0.4 0.28,-0.75 0.42,-1.11 0.14,-0.36 0.27,-0.72 0.37,-1.08 a 10.27,10.27 0 0 0 0.44,-2.15 8.2,8.2 0 0 0 -0.89,-4.3 z"
         id="path320" />
      <path
         class="cls-48"
         d="m 671.54,397.16 a 4.43,4.43 0 0 1 0.1,2.11 5.14,5.14 0 0 1 -0.82,2 4.6,4.6 0 0 1 -1.61,1.46 4.45,4.45 0 0 1 -2,0.59 19,19 0 0 0 1.57,-1.22 7.46,7.46 0 0 0 1.24,-1.4 11.51,11.51 0 0 0 1.52,-3.54 z"
         id="path322" />
      <path
         class="cls-47"
         d="m 646.55,412.65 v 0 a 20.15,20.15 0 0 0 -1.6,-5.39 13.94,13.94 0 0 0 -2.77,-4.1 9.42,9.42 0 0 0 -4.78,-2.64 4,4 0 0 1 -0.35,-0.26 c -0.3,-0.23 -0.69,-0.57 -1.08,-0.86 a 5.75,5.75 0 0 0 -0.63,-0.42 3.34,3.34 0 0 0 -0.38,-0.17 2,2 0 0 0 -0.54,-0.09 1.65,1.65 0 0 0 -0.75,0.2 4.16,4.16 0 0 0 -0.76,0.56 c -0.33,0.29 -0.65,0.62 -0.91,0.86 -0.26,0.24 -0.23,0.21 -0.29,0.26 a 8.81,8.81 0 0 0 -4.75,2.65 14.82,14.82 0 0 0 -3.27,6.35 19.23,19.23 0 0 0 -0.61,3.51 v 0 a 4.72,4.72 0 0 0 -0.05,0.64 4,4 0 0 0 0.76,2.35 5.74,5.74 0 0 0 2.79,1.91 9.82,9.82 0 0 0 3.18,0.53 h 10.11 a 7.92,7.92 0 0 0 2.17,-0.32 7.81,7.81 0 0 0 3.05,-1.61 4.92,4.92 0 0 0 1.1,-1.37 3.91,3.91 0 0 0 0.45,-1.81 3.46,3.46 0 0 0 -0.09,-0.78 z"
         id="path324" />
      <path
         class="cls-48"
         d="m 635.52,401.25 a 7.72,7.72 0 0 1 2.86,1.84 8.48,8.48 0 0 1 1.93,2.89 8.34,8.34 0 0 1 0.64,3.41 8.86,8.86 0 0 1 -0.18,1.71 11.29,11.29 0 0 1 -0.51,1.62 c 0,-0.57 0,-1.12 0,-1.67 a 14.37,14.37 0 0 0 -0.11,-1.62 11,11 0 0 0 -0.78,-3.07 13.34,13.34 0 0 0 -3.85,-5.11 z"
         id="path326" />
      <path
         class="cls-48"
         d="m 634.33,401.25 a 4.12,4.12 0 0 1 1.49,1.92 5.61,5.61 0 0 1 0.4,2.47 6.28,6.28 0 0 1 -0.72,2.38 8.9,8.9 0 0 1 -0.66,1 10,10 0 0 1 -0.85,0.87 c 0.12,-0.4 0.28,-0.75 0.42,-1.11 0.14,-0.36 0.27,-0.72 0.37,-1.08 a 11.1,11.1 0 0 0 0.44,-2.15 8.2,8.2 0 0 0 -0.89,-4.3 z"
         id="path328" />
      <path
         class="cls-48"
         d="m 633.42,401.25 a 4.3,4.3 0 0 1 0.11,2.11 5.14,5.14 0 0 1 -0.82,2 4.79,4.79 0 0 1 -1.61,1.46 4.45,4.45 0 0 1 -2,0.59 19.77,19.77 0 0 0 1.58,-1.23 6.74,6.74 0 0 0 1.23,-1.39 11.27,11.27 0 0 0 1.51,-3.54 z"
         id="path330" />
      <path
         class="cls-50"
         d="m 652.87,413 c -26.75,0 -48.43,-6.8 -48.43,-15.19 v 21.82 0 0.08 c 0,8.39 21.68,15.19 48.43,15.19 26.75,0 48.44,-6.8 48.44,-15.19 0,0 0,0 0,-0.08 v 0 -21.82 c 0,8.39 -21.69,15.19 -48.44,15.19 z"
         id="path332" />
      <path
         class="cls-50"
         d="m 652.87,413 c -26.75,0 -48.43,-6.8 -48.43,-15.19 v 21.82 0 0.08 c 0,8.39 21.68,15.19 48.43,15.19 26.75,0 48.44,-6.8 48.44,-15.19 0,0 0,0 0,-0.08 v 0 -21.82 c 0,8.39 -21.69,15.19 -48.44,15.19 z"
         id="path334" />
      <path
         class="cls-50"
         d="M 604.44,397.73 Z"
         id="path336" />
      <path
         class="cls-51"
         d="m 698.21,403.17 c -6.91,5.75 -24.6,9.83 -45.34,9.83 a 143.62,143.62 0 0 1 -19.31,-1.25"
         id="path338" />
      <path
         class="cls-12"
         d="m 593.84,434 v 3.56 a 21.82,21.82 0 0 0 6.47,0.87 21.11,21.11 0 0 0 6.47,-0.9 V 434 Z"
         id="path340" />
      <path
         class="cls-52"
         d="m 614.89,426.49 c 0,3.89 -2.84,10.9 -14.58,10.9 -12,0 -14.58,-7 -14.58,-10.9 0,-3.9 6.53,-7 14.58,-7 8.05,0 14.58,3.12 14.58,7 z"
         id="path342" />
      <ellipse
         class="cls-53"
         cx="600.31"
         cy="426.48999"
         rx="14.58"
         ry="7.0300002"
         id="ellipse344" />
      <path
         class="cls-54"
         d="m 600.31,433.3 c 6.44,0 11.9,-1.79 13.83,-4.58 -1,-3.27 -6.79,-5.78 -13.83,-5.78 -7.04,0 -12.85,2.51 -13.83,5.78 1.93,2.79 7.39,4.58 13.83,4.58 z"
         id="path346" />
      <path
         class="cls-55"
         d="m 600.31,433.3 c 5.39,0 9.76,-1.62 12,-3.43 -0.82,-2.73 -6.13,-5.19 -12,-5.19 -5.87,0 -13,1.31 -13.83,4 1.62,2.37 8.45,4.62 13.83,4.62 z"
         id="path348" />
      <path
         class="cls-53"
         d="m 600.31,420.46 c 8.12,0 13.58,3.12 13.58,6 0,2.88 -5.46,6 -13.58,6 -8.12,0 -13.58,-3.12 -13.58,-6 0,-2.88 5.46,-6 13.58,-6 m 0,-1 c -8,0 -14.58,3.15 -14.58,7 0,3.85 6.53,7 14.58,7 8.05,0 14.58,-3.14 14.58,-7 0,-3.86 -6.53,-7 -14.58,-7 z"
         id="path350" />
      <g
         class="cls-56"
         id="g360">
        <path
           class="cls-57"
           d="m 591.28,425.38 c 0,0 9.26,2.83 16.27,-2.15"
           id="path352" />
        <path
           class="cls-57"
           d="m 595,423.78 c 0,0 2.26,5.08 13.12,3.77"
           id="path354" />
        <path
           class="cls-57"
           d="m 594.76,426.77 c 0,0 4.22,3.63 13.47,-2.2"
           id="path356" />
        <path
           class="cls-57"
           d="m 609.35,426 c 0,0 -4.71,-3 -13,4.16"
           id="path358" />
      </g>
      <path
         class="cls-46"
         d="m 697.53,414 a 31,31 0 0 1 -5.42,3.39 52.57,52.57 0 0 1 -6.68,2.8 c -1.19,0.42 -2.46,0.78 -3.72,1.14 -0.64,0.18 -1.31,0.33 -2,0.49 l -1,0.24 -1,0.2 a 64.56,64.56 0 0 1 -8.38,1.12 l 2.06,-0.32 1,-0.16 c 0.33,-0.05 0.67,-0.13 1,-0.19 l 2,-0.38 1.95,-0.44 1,-0.23 1,-0.25 c 0.62,-0.17 1.26,-0.33 1.88,-0.51 l 1.83,-0.55 c 0.62,-0.17 1.18,-0.4 1.78,-0.59 2.36,-0.8 4.59,-1.7 6.71,-2.66 l 1.56,-0.73 c 0.51,-0.26 1,-0.51 1.52,-0.77 1.03,-0.51 1.98,-1.05 2.91,-1.6 z"
         id="path362" />
      <path
         class="cls-46"
         d="m 608.22,416.12 a 35.69,35.69 0 0 0 5.33,2.59 c 1.92,0.78 4,1.48 6.1,2.11 a 96.38,96.38 0 0 0 13.6,2.89 c 2.37,0.36 4.79,0.61 7.22,0.83 1.22,0.09 2.44,0.21 3.67,0.27 l 1.85,0.11 1.85,0.08 c 4.94,0.19 9.93,0.18 14.9,0 -4.93,0.37 -10,0.51 -15,0.39 h -1.88 l -1.87,-0.09 c -1.25,0 -2.49,-0.15 -3.73,-0.23 -2.47,-0.22 -4.94,-0.47 -7.35,-0.82 -2.41,-0.35 -4.78,-0.77 -7.09,-1.28 -2.31,-0.51 -4.53,-1.09 -6.64,-1.77 a 52.17,52.17 0 0 1 -6,-2.26 q -1.4,-0.63 -2.67,-1.32 a 19.32,19.32 0 0 1 -2.29,-1.5 z"
         id="path364" />
      <path
         class="cls-46"
         d="m 617.82,413.59 a 31.35,31.35 0 0 0 4.44,1.89 c 1.6,0.56 3.3,1.06 5,1.5 a 83.32,83.32 0 0 0 11.19,1.94 c 1.94,0.22 3.92,0.36 5.91,0.48 1,0 2,0.11 3,0.13 h 1.51 1.51 c 4,0 8.07,-0.09 12.11,-0.33 -4,0.4 -8.06,0.63 -12.14,0.64 h -1.53 -1.52 c -1,0 -2,-0.06 -3.05,-0.1 -2,-0.11 -4,-0.25 -6,-0.47 -2,-0.22 -3.92,-0.49 -5.81,-0.83 -1.89,-0.34 -3.73,-0.75 -5.48,-1.22 a 49.5,49.5 0 0 1 -5,-1.62 c -0.77,-0.31 -1.52,-0.63 -2.22,-1 a 15.68,15.68 0 0 1 -1.92,-1.01 z"
         id="path366" />
      <path
         class="cls-58"
         d="m 756.5,402.8 h 19.7 v 17.4 h -19.7 a 8.42,8.42 0 0 1 -8.42,-8.42 v -0.56 a 8.42,8.42 0 0 1 8.42,-8.42 z"
         id="path368" />
      <path
         class="cls-58"
         d="m 866.75,402.8 h 19.7 v 17.4 h -19.7 a 8.42,8.42 0 0 1 -8.42,-8.42 v -0.56 a 8.42,8.42 0 0 1 8.42,-8.42 z"
         transform="rotate(180,872.39,411.505)"
         id="path370" />
      <path
         class="cls-59"
         d="m 852.1,434.72 h -69.4 a 26.65,26.65 0 0 1 -19.51,-8.55 c -2.71,-2.88 -4.83,-6.32 -4.83,-10 v -7.65 c 0,-6 4.3,-10.9 9.61,-10.9 h 98.82 c 5.31,0 9.62,4.88 9.62,10.9 v 7.65 c 0,4 -2.53,7.75 -5.59,10.79 a 26.5,26.5 0 0 1 -18.72,7.76 z"
         id="path372" />
      <path
         class="cls-60"
         d="m 876.41,411.76 c 0,-10.24 -3.44,-14.91 -16.36,-18.55 -12.92,-3.64 -73.18,-3 -85.33,0 -12.15,3 -16.36,8.31 -16.36,18.55 v 0 a 21.43,21.43 0 0 0 0.3,3.52 c 1.39,-7.7 7.4,-13.49 14.6,-13.49 h 88.25 c 7.2,0 13.21,5.79 14.6,13.49 a 21.43,21.43 0 0 0 0.3,-3.52 z"
         id="path374" />
      <path
         class="cls-61"
         d="m 860.78,399.46 c -14.63,-3.73 -72.75,-4.46 -86.54,-0.11 -8.37,2.64 -14.19,6.12 -15.58,13.81 1.45,8.56 8.09,15 16.06,15 h 85.33 c 8,0 14.6,-6.48 16.06,-15 -1.39,-7.69 -6.59,-11.47 -15.33,-13.7 z"
         id="path376" />
      <line
         class="cls-62"
         x1="770.89001"
         y1="413.5"
         x2="768.85999"
         y2="415.07999"
         id="line378" />
      <line
         class="cls-62"
         x1="775.84003"
         y1="410.13"
         x2="778.02002"
         y2="411.5"
         id="line380" />
      <line
         class="cls-62"
         x1="778.02002"
         y1="415.07999"
         x2="780.20001"
         y2="414.29001"
         id="line382" />
      <line
         class="cls-62"
         x1="774.23999"
         y1="422.06"
         x2="776.92999"
         y2="423.23001"
         id="line384" />
      <line
         class="cls-62"
         x1="786.81"
         y1="410.82001"
         x2="789.08002"
         y2="410.13"
         id="line386" />
      <line
         class="cls-62"
         x1="787.94"
         y1="418.72"
         x2="790.23999"
         y2="419.59"
         id="line388" />
      <line
         class="cls-62"
         x1="793.72998"
         y1="413.92999"
         x2="796.06"
         y2="413.16"
         id="line390" />
      <line
         class="cls-62"
         x1="773.07001"
         y1="403.70001"
         x2="775.40002"
         y2="402.92999"
         id="line392" />
      <line
         class="cls-62"
         x1="797.51001"
         y1="419.59"
         x2="799.70001"
         y2="420.89999"
         id="line394" />
      <line
         class="cls-62"
         x1="799.70001"
         y1="406.20999"
         x2="801.29999"
         y2="405.19"
         id="line396" />
      <line
         class="cls-62"
         x1="782.38"
         y1="405.70001"
         x2="785.15002"
         y2="403.73001"
         id="line398" />
      <line
         class="cls-62"
         x1="766.29999"
         y1="407.81"
         x2="768.27002"
         y2="408.82001"
         id="line400" />
      <line
         class="cls-62"
         x1="808.72998"
         y1="413.92999"
         x2="811.03998"
         y2="415.07999"
         id="line402" />
      <line
         class="cls-62"
         x1="808.03003"
         y1="424.67999"
         x2="809.89001"
         y2="423.23001"
         id="line404" />
      <line
         class="cls-62"
         x1="813.21997"
         y1="409.54999"
         x2="815.54999"
         y2="408.82001"
         id="line406" />
      <line
         class="cls-62"
         x1="824.95001"
         y1="400.53"
         x2="827.28003"
         y2="399.81"
         id="line408" />
      <line
         class="cls-62"
         x1="806.67999"
         y1="405.70001"
         x2="808.03003"
         y2="408.32001"
         id="line410" />
      <line
         class="cls-62"
         x1="825.44"
         y1="405.70001"
         x2="827.91998"
         y2="404.72"
         id="line412" />
      <line
         class="cls-62"
         x1="821.90002"
         y1="414.29001"
         x2="824.42999"
         y2="415.07999"
         id="line414" />
      <line
         class="cls-62"
         x1="818.98999"
         y1="422.06"
         x2="821.90002"
         y2="420.89999"
         id="line416" />
      <line
         class="cls-62"
         x1="829.25"
         y1="423.23001"
         x2="831.98999"
         y2="424.67999"
         id="line418" />
      <line
         class="cls-62"
         x1="832.77002"
         y1="417.98001"
         x2="835.09003"
         y2="416.17001"
         id="line420" />
      <line
         class="cls-62"
         x1="845.17999"
         y1="413.92999"
         x2="847.12"
         y2="415.07999"
         id="line422" />
      <line
         class="cls-62"
         x1="837.41998"
         y1="409.19"
         x2="839.56"
         y2="407.81"
         id="line424" />
      <line
         class="cls-62"
         x1="848.66998"
         y1="408.82001"
         x2="851.16998"
         y2="408.82001"
         id="line426" />
      <line
         class="cls-62"
         x1="839.56"
         y1="403.73001"
         x2="842.08002"
         y2="402.79999"
         id="line428" />
      <line
         class="cls-62"
         x1="848.66998"
         y1="404.72"
         x2="851.09003"
         y2="405.70001"
         id="line430" />
      <line
         class="cls-62"
         x1="838.48999"
         y1="423.95001"
         x2="840.82001"
         y2="424.67999"
         id="line432" />
      <line
         class="cls-62"
         x1="847.12"
         y1="422.06"
         x2="849.91998"
         y2="421.48001"
         id="line434" />
      <line
         class="cls-62"
         x1="855.84998"
         y1="423.23001"
         x2="858.17999"
         y2="424.67999"
         id="line436" />
      <line
         class="cls-62"
         x1="858.17999"
         y1="417.59"
         x2="860.31"
         y2="416.17001"
         id="line438" />
      <line
         class="cls-62"
         x1="866.71002"
         y1="419.14999"
         x2="869.81"
         y2="420.20999"
         id="line440" />
      <line
         class="cls-62"
         x1="864.58002"
         y1="410.82001"
         x2="866.71002"
         y2="409.54999"
         id="line442" />
      <line
         class="cls-62"
         x1="857.01001"
         y1="405.70001"
         x2="859.25"
         y2="406.81"
         id="line444" />
      <line
         class="cls-62"
         x1="863.21997"
         y1="405.19"
         x2="865.64001"
         y2="403.26999"
         id="line446" />
      <line
         class="cls-62"
         x1="871.67999"
         y1="411.5"
         x2="869.81"
         y2="413.16"
         id="line448" />
      <line
         class="cls-62"
         x1="817.38"
         y1="403.26999"
         x2="818.98999"
         y2="404.23001"
         id="line450" />
      <line
         class="cls-62"
         x1="796.71002"
         y1="400.53"
         x2="798.32001"
         y2="401.48999"
         id="line452" />
      <line
         class="cls-62"
         x1="790.23999"
         y1="404.23001"
         x2="793.72998"
         y2="406.20999"
         id="line454" />
      <ellipse
         class="cls-63"
         cx="795.17999"
         cy="407.48001"
         rx="6.6700001"
         ry="3.45"
         id="ellipse456" />
      <ellipse
         class="cls-64"
         cx="795.17999"
         cy="406"
         rx="6.6700001"
         ry="3.45"
         id="ellipse458" />
      <ellipse
         class="cls-63"
         cx="809.39001"
         cy="421.17001"
         rx="3.45"
         ry="6.6700001"
         transform="rotate(-63.59,809.40453,421.17451)"
         id="ellipse460" />
      <ellipse
         class="cls-64"
         cx="809.21997"
         cy="419.85001"
         rx="3.45"
         ry="6.6700001"
         transform="rotate(-63.59,809.23168,419.85034)"
         id="ellipse462" />
      <ellipse
         class="cls-63"
         cx="838.65997"
         cy="407.37"
         rx="6.6700001"
         ry="3.45"
         transform="rotate(-39.38,838.73587,407.38645)"
         id="ellipse464" />
      <ellipse
         class="cls-64"
         cx="838.32001"
         cy="406.14999"
         rx="6.6700001"
         ry="3.45"
         transform="rotate(-39.38,838.40123,406.1634)"
         id="ellipse466" />
      <path
         class="cls-65"
         d="m 786.05,419.11 1.76,-1.4 a 4.11,4.11 0 0 1 3,-0.86 l 3.43,0.33 a 4.14,4.14 0 0 1 3.23,2.16 v 0 a 0.62,0.62 0 0 1 -0.61,0.91 z"
         id="path468" />
      <path
         class="cls-65"
         d="m 785.78,419 2.16,-0.62 a 4.12,4.12 0 0 1 3.06,0.32 l 3,1.61 a 4.12,4.12 0 0 1 2.17,3.22 v 0 a 0.62,0.62 0 0 1 -0.91,0.6 z"
         id="path470" />
      <path
         class="cls-66"
         d="M 794.66,406.19 A 12.25,12.25 0 0 1 793,406 c -0.26,0 -0.56,-0.13 -0.77,-0.15 h -0.5 a 6.78,6.78 0 0 0 -1.8,0.22 l -6.05,1.22 c -2,0.34 -4.1,0.73 -6.15,1 l -0.78,0.11 -0.61,0.1 a 2.75,2.75 0 0 0 -0.61,0.21 2.56,2.56 0 0 0 -1,0.82 2.66,2.66 0 0 0 -0.27,2.48 3.19,3.19 0 0 0 2.09,2 c 4,1.11 8.08,2.21 12.08,3.61 a 1.11,1.11 0 0 1 0.68,1.42 1.12,1.12 0 0 1 -1,0.74 c -4.23,0.22 -8.42,0.14 -12.61,0.07 a 8.82,8.82 0 0 1 -7.57,-5 9.43,9.43 0 0 1 0.76,-9.4 9.59,9.59 0 0 1 3.71,-3.18 9.41,9.41 0 0 1 2.35,-0.78 c 0.47,-0.09 0.65,-0.11 0.92,-0.15 l 0.77,-0.11 c 2.06,-0.31 4.13,-0.53 6.19,-0.8 l 6.28,-0.61 a 8.08,8.08 0 0 1 4.35,0.87 6,6 0 0 1 0.93,0.57 c 0.26,0.2 0.43,0.35 0.64,0.54 a 13.06,13.06 0 0 1 1.14,1.2 1.94,1.94 0 0 1 -0.3,2.72 2,2 0 0 1 -1.21,0.47 z"
         id="path472" />
      <path
         class="cls-67"
         d="m 773.7,418.4 a 7.3,7.3 0 0 1 -0.77,-0.44 8.21,8.21 0 0 1 -3,-3.37 8.86,8.86 0 0 1 0.71,-8.82 8.94,8.94 0 0 1 3.49,-3"
         id="path474" />
      <path
         class="cls-67"
         d="m 785.31,419.31 c -2,0 -3.9,0 -5.85,0"
         id="path476" />
      <path
         class="cls-66"
         d="m 796.23,403.05 a 13.06,13.06 0 0 0 -1.14,-1.2 c -0.21,-0.19 -0.38,-0.34 -0.64,-0.54 a 6,6 0 0 0 -0.93,-0.57 8.08,8.08 0 0 0 -4.35,-0.87 l -0.49,0.05 v 0 l -10,0.72 c 0,0 0,0.15 -0.07,0.39 -0.19,1.24 -0.6,5.23 1.57,6.86 a 3.33,3.33 0 0 0 0.89,0.49 l 9.91,-2.52 a 6.87,6.87 0 0 1 0.8,-0.05 h 0.5 c 0.21,0 0.51,0.11 0.77,0.15 a 12.25,12.25 0 0 0 1.64,0.2 2,2 0 0 0 1.27,-0.42 1.94,1.94 0 0 0 0.27,-2.69 z"
         id="path478" />
      <circle
         class="cls-68"
         cx="790.47998"
         cy="401.89001"
         r="0.80000001"
         id="circle480" />
      <path
         class="cls-66"
         d="m 795.16,403.93 a 8.45,8.45 0 0 0 5,3.11 5.5,5.5 0 0 1 -1.56,-0.14 5.67,5.67 0 0 1 -1.48,-0.57 4.14,4.14 0 0 1 -1.96,-2.4 z"
         id="path482" />
      <path
         class="cls-66"
         d="m 794.91,405.05 a 2.15,2.15 0 0 0 0.35,0.85 2.48,2.48 0 0 0 0.59,0.66 11.71,11.71 0 0 0 1.55,1.07 3.29,3.29 0 0 1 -1,-0.2 3.58,3.58 0 0 1 -0.88,-0.52 1.78,1.78 0 0 1 -0.61,-1.86 z"
         id="path484" />
      <path
         class="cls-66"
         d="m 795.32,405.05 a 2.28,2.28 0 0 0 0.95,0.57 3.43,3.43 0 0 0 1.06,0.2 21.83,21.83 0 0 0 2.28,0 5.53,5.53 0 0 1 -1.12,0.4 4.79,4.79 0 0 1 -1.2,0.08 3,3 0 0 1 -1.17,-0.33 1.67,1.67 0 0 1 -0.8,-0.92 z"
         id="path486" />
      <path
         class="cls-66"
         d="m 794,405.31 a 5.77,5.77 0 0 0 0.65,1.44 4.49,4.49 0 0 0 1.09,1.14 1.92,1.92 0 0 1 -0.84,-0.26 2.22,2.22 0 0 1 -0.64,-0.62 2.06,2.06 0 0 1 -0.26,-1.7 z"
         id="path488" />
      <path
         class="cls-66"
         d="m 773.7,411 a 2.13,2.13 0 0 1 0.69,-1.33 3.06,3.06 0 0 1 1.39,-0.7 3.16,3.16 0 0 1 1.53,0.17 5.07,5.07 0 0 1 0.65,0.35 3.85,3.85 0 0 1 0.51,0.56 v 0.07 0 a 4.29,4.29 0 0 0 -2.51,-0.39 3.46,3.46 0 0 0 -2.15,1.31 h -0.06 V 411 Z"
         id="path490" />
      <path
         class="cls-66"
         d="m 774.05,412.55 a 1.63,1.63 0 0 1 0.42,-1.11 2.33,2.33 0 0 1 1,-0.63 2.22,2.22 0 0 1 1.23,0.13 2.52,2.52 0 0 1 0.5,0.32 1.93,1.93 0 0 1 0.35,0.51 v 0 0 0 a 2.64,2.64 0 0 0 -1.86,-0.27 2.68,2.68 0 0 0 -1.58,1 v 0 0 z"
         id="path492" />
      <path
         class="cls-66"
         d="m 775.26,414.14 a 1.13,1.13 0 0 1 -0.09,-1 1.73,1.73 0 0 1 0.71,-0.81 1.77,1.77 0 0 1 1,-0.11 2.76,2.76 0 0 1 0.46,0.19 1.8,1.8 0 0 1 0.35,0.38 v 0 0.05 0 a 2.21,2.21 0 0 0 -1.48,0.16 1.76,1.76 0 0 0 -0.9,1.14 v 0 0 z"
         id="path494" />
      <path
         class="cls-66"
         d="m 777.54,415.07 a 0.86,0.86 0 0 1 -0.41,-0.9 1.34,1.34 0 0 1 0.65,-0.88 1.56,1.56 0 0 1 0.91,-0.11 l 0.4,0.16 a 1.61,1.61 0 0 1 0.35,0.34 v 0 0.05 0 a 2.69,2.69 0 0 0 -1.3,0.23 0.93,0.93 0 0 0 -0.52,1.07 v 0 0 z"
         id="path496" />
      <path
         class="cls-69"
         d="m 778.48,401.93 c 0,0 -0.8,3.62 1.32,5.47"
         id="path498" />
      <path
         class="cls-70"
         d="m 775.47,408.18 c 0,0 -3.86,-1 -3.27,-4.3"
         id="path500" />
      <path
         class="cls-70"
         d="m 774.05,410.4 c 0,0 -4.47,3.06 -6.15,0"
         id="path502" />
      <path
         class="cls-70"
         d="m 775.1,413.69 c 0,0 -0.59,4 -3.62,4.14"
         id="path504" />
      <path
         class="cls-70"
         d="m 778.48,415.09 c 0,0 0.82,3.2 -1.36,4.41"
         id="path506" />
      <path
         class="cls-70"
         d="m 783.17,416.24 c 0,0 1.55,2.21 -0.63,3.39"
         id="path508" />
      <path
         class="cls-66"
         d="m 781.17,408.12 a 9.62,9.62 0 0 1 2.54,-0.61 9.13,9.13 0 0 1 2.66,0 6,6 0 0 1 2.52,0.93 4.11,4.11 0 0 1 1.59,2.1 5.51,5.51 0 0 0 -1.87,-1.64 7.62,7.62 0 0 0 -2.35,-0.71 24,24 0 0 0 -5.09,-0.07 z"
         id="path510" />
      <path
         class="cls-66"
         d="m 781,407.56 a 17,17 0 0 1 3.32,-0.61 17.45,17.45 0 0 1 3.39,0 10.39,10.39 0 0 1 3.32,0.83 5,5 0 0 1 2.53,2.24 6.13,6.13 0 0 0 -2.73,-1.74 13.68,13.68 0 0 0 -3.19,-0.64 47.38,47.38 0 0 0 -6.64,-0.08 z"
         id="path512" />
      <path
         class="cls-66"
         d="m 780.32,408 a 5.07,5.07 0 0 1 1.94,-0.21 4.81,4.81 0 0 1 1.93,0.56 3.34,3.34 0 0 1 1.4,1.48 3.38,3.38 0 0 1 0.32,1.94 6.12,6.12 0 0 0 -0.78,-1.67 3.92,3.92 0 0 0 -1.28,-1.15 9.74,9.74 0 0 0 -3.53,-0.95 z"
         id="path514" />
      <path
         class="cls-71"
         d="m 807.2,408.76 v 0 a 4.08,4.08 0 0 1 1.73,-5.17 l 9.5,-5.36 c 3.1,-1.76 7,-0.87 8.23,2 v 0 c 1.27,2.91 -0.71,6.34 -4.1,7.42 l -10.4,3.35 a 4.07,4.07 0 0 1 -4.96,-2.24 z"
         id="path516" />
      <path
         class="cls-72"
         d="m 807.73,408.65 v 0 a 3.26,3.26 0 0 1 1.38,-4.14 l 7.62,-4.31 c 2.49,-1.4 5.59,-0.69 6.61,1.64 v 0 c 1,2.33 -0.57,5.08 -3.3,6 l -8.33,2.66 a 3.26,3.26 0 0 1 -3.98,-1.85 z"
         id="path518" />
      <path
         class="cls-73"
         d="m 807.73,408.65 v 0 a 2.44,2.44 0 0 1 1,-3.12 l 5.75,-3.25 c 1.88,-1.06 4.22,-0.53 5,1.23 v 0 c 0.76,1.76 -0.43,3.84 -2.49,4.49 l -6.29,2 a 2.46,2.46 0 0 1 -2.97,-1.35 z"
         id="path520" />
      <g
         class="cls-74"
         id="g526">
        <path
           class="cls-2"
           d="m 825.69,400.15 h -0.07 a 0.39,0.39 0 0 0 -0.31,0.45 v 0.06 a 8.16,8.16 0 0 1 0,0.85 6.06,6.06 0 0 1 -0.5,2.5 4.23,4.23 0 0 1 -2.35,2.23 0.39,0.39 0 1 0 0.3,0.72 5.06,5.06 0 0 0 2.76,-2.63 6.85,6.85 0 0 0 0.57,-2.82 5.19,5.19 0 0 0 -0.08,-1 0.38,0.38 0 0 0 -0.38,-0.32"
           id="path522" />
        <path
           class="cls-2"
           d="m 821.24,406.75 h -0.11 l -1.14,0.34 a 0.39,0.39 0 0 0 0.11,0.76 h 0.11 l 1.14,-0.34 a 0.39,0.39 0 0 0 0.26,-0.48 0.38,0.38 0 0 0 -0.37,-0.28"
           id="path524" />
      </g>
      <g
         class="cls-75"
         mask="url(#mask-3)"
         id="g540">
        <path
           class="cls-71"
           d="m 833.89,430 v 0 a 4.06,4.06 0 0 1 -4.6,2.91 l -10.76,-1.84 c -3.51,-0.6 -5.95,-3.72 -5.1,-6.77 v 0 c 0.86,-3.06 4.56,-4.47 7.88,-3.16 l 10.15,4 a 4.07,4.07 0 0 1 2.43,4.86 z"
           id="path528" />
        <path
           class="cls-72"
           d="m 833.41,429.78 v 0 a 3.26,3.26 0 0 1 -3.69,2.34 l -8.62,-1.48 c -2.82,-0.48 -4.78,-3 -4.1,-5.44 v 0 c 0.69,-2.45 3.66,-3.58 6.32,-2.53 l 8.15,3.2 a 3.26,3.26 0 0 1 1.94,3.91 z"
           id="path530" />
        <path
           class="cls-73"
           d="m 833.41,429.78 v 0 a 2.44,2.44 0 0 1 -2.78,1.76 l -6.51,-1.11 c -2.13,-0.36 -3.6,-2.25 -3.09,-4.1 v 0 c 0.52,-1.85 2.76,-2.7 4.77,-1.91 l 6.14,2.41 a 2.45,2.45 0 0 1 1.47,2.95 z"
           id="path532" />
        <g
           class="cls-74"
           id="g538">
          <path
             class="cls-2"
             d="m 814.11,425 h 0.06 a 0.39,0.39 0 0 0 0.53,-0.15 v -0.05 a 6,6 0 0 1 0.49,-0.7 6.24,6.24 0 0 1 2,-1.62 4.25,4.25 0 0 1 3.23,-0.24 0.39,0.39 0 0 0 0.35,-0.68 0.4,0.4 0 0 0 -0.13,-0.07 5,5 0 0 0 -3.8,0.3 7.17,7.17 0 0 0 -2.82,2.68 0.4,0.4 0 0 0 0.09,0.49"
             id="path534" />
          <path
             class="cls-2"
             d="m 821.74,422.72 0.09,0.06 1.1,0.45 a 0.39,0.39 0 0 0 0.51,-0.21 0.4,0.4 0 0 0 -0.12,-0.45 l -0.09,-0.05 -1.1,-0.46 a 0.39,0.39 0 0 0 -0.51,0.21 0.4,0.4 0 0 0 0.12,0.45"
             id="path536" />
        </g>
      </g>
      <path
         class="cls-65"
         d="m 850.88,403.42 -1.77,1.39 a 4.13,4.13 0 0 1 -3,0.87 l -3.43,-0.34 a 4.14,4.14 0 0 1 -3.23,-2.16 v 0 a 0.61,0.61 0 0 1 0.61,-0.9 z"
         id="path542" />
      <path
         class="cls-65"
         d="m 851.15,403.48 -2.16,0.62 a 4.12,4.12 0 0 1 -3.06,-0.31 l -3,-1.61 a 4.13,4.13 0 0 1 -2.17,-3.22 v 0 a 0.61,0.61 0 0 1 0.9,-0.61 z"
         id="path544" />
      <path
         class="cls-66"
         d="m 842.26,416.34 a 11,11 0 0 1 1.65,0.19 c 0.25,0 0.55,0.13 0.76,0.15 h 0.51 a 6.65,6.65 0 0 0 1.79,-0.22 l 6.06,-1.21 c 2.05,-0.35 4.09,-0.74 6.15,-1 l 0.77,-0.12 c 0.25,0 0.57,-0.08 0.61,-0.1 a 2.43,2.43 0 0 0 0.61,-0.2 2.58,2.58 0 0 0 1,-0.83 2.61,2.61 0 0 0 0.28,-2.47 3.2,3.2 0 0 0 -2.09,-2 c -4,-1.11 -8.09,-2.2 -12.09,-3.61 a 1.1,1.1 0 0 1 -0.68,-1.41 1.14,1.14 0 0 1 1,-0.75 c 4.24,-0.22 8.42,-0.14 12.61,-0.07 a 8.85,8.85 0 0 1 7.58,5 9.51,9.51 0 0 1 -4.48,12.59 9.18,9.18 0 0 1 -2.34,0.77 c -0.47,0.09 -0.66,0.11 -0.93,0.15 l -0.77,0.12 c -2.05,0.3 -4.12,0.52 -6.18,0.79 l -6.29,0.61 a 7.88,7.88 0 0 1 -5.28,-1.43 c -0.26,-0.21 -0.42,-0.36 -0.63,-0.55 a 11,11 0 0 1 -1.15,-1.2 1.93,1.93 0 0 1 0.31,-2.71 1.87,1.87 0 0 1 1.22,-0.49 z"
         id="path546" />
      <path
         class="cls-67"
         d="m 863.23,404.12 a 7.15,7.15 0 0 1 0.76,0.44 8.23,8.23 0 0 1 3,3.37 8.92,8.92 0 0 1 -4.2,11.81"
         id="path548" />
      <path
         class="cls-67"
         d="m 851.62,403.21 c 2,0 3.9,0 5.84,0"
         id="path550" />
      <path
         class="cls-66"
         d="m 840.69,419.47 a 11,11 0 0 0 1.15,1.2 c 0.21,0.19 0.37,0.34 0.63,0.55 a 7.88,7.88 0 0 0 5.28,1.43 h 0.5 v 0 l 10,-0.72 c 0,0 0,-0.15 0.06,-0.38 0.19,-1.25 0.61,-5.24 -1.57,-6.87 a 3.16,3.16 0 0 0 -0.89,-0.48 l -9.85,2.47 c -0.26,0 -0.52,0 -0.79,0 h -0.51 c -0.21,0 -0.51,-0.11 -0.76,-0.15 a 11,11 0 0 0 -1.65,-0.19 1.87,1.87 0 0 0 -1.26,0.42 1.93,1.93 0 0 0 -0.34,2.72 z"
         id="path552" />
      <circle
         class="cls-68"
         cx="846.44"
         cy="420.63"
         r="0.80000001"
         id="circle554" />
      <path
         class="cls-66"
         d="m 841.76,418.59 a 8.47,8.47 0 0 0 -5,-3.11 6.3,6.3 0 0 1 1.56,0.14 6.74,6.74 0 0 1 1.49,0.57 4.12,4.12 0 0 1 1.95,2.4 z"
         id="path556" />
      <path
         class="cls-66"
         d="m 842,417.48 a 2.35,2.35 0 0 0 -0.34,-0.86 2.48,2.48 0 0 0 -0.59,-0.66 11.38,11.38 0 0 0 -1.55,-1.06 3.7,3.7 0 0 1 1,0.19 3.52,3.52 0 0 1 0.87,0.52 1.76,1.76 0 0 1 0.61,1.87 z"
         id="path558" />
      <path
         class="cls-66"
         d="m 841.6,417.48 a 2.12,2.12 0 0 0 -0.94,-0.58 3.5,3.5 0 0 0 -1.07,-0.2 19.27,19.27 0 0 0 -2.27,0 4.41,4.41 0 0 1 2.31,-0.49 3,3 0 0 1 1.18,0.34 1.59,1.59 0 0 1 0.79,0.93 z"
         id="path560" />
      <path
         class="cls-66"
         d="m 842.94,417.22 a 5.68,5.68 0 0 0 -0.64,-1.45 4.67,4.67 0 0 0 -1.09,-1.14 1.81,1.81 0 0 1 0.83,0.27 1.9,1.9 0 0 1 0.64,0.62 2.06,2.06 0 0 1 0.26,1.7 z"
         id="path562" />
      <path
         class="cls-66"
         d="m 863.22,411.51 a 2.09,2.09 0 0 1 -0.69,1.33 3.14,3.14 0 0 1 -1.38,0.71 3.4,3.4 0 0 1 -1.53,-0.17 4,4 0 0 1 -0.62,-0.38 3,3 0 0 1 -0.51,-0.56 v 0 -0.05 0 a 4.17,4.17 0 0 0 2.52,0.39 3.44,3.44 0 0 0 2.15,-1.31 h 0.05 v 0 z"
         id="path564" />
      <path
         class="cls-66"
         d="m 862.87,410 a 1.58,1.58 0 0 1 -0.42,1.11 2.27,2.27 0 0 1 -1.05,0.64 2.22,2.22 0 0 1 -1.23,-0.13 2.55,2.55 0 0 1 -0.5,-0.33 2,2 0 0 1 -0.34,-0.51 v 0 -0.05 0 a 2.72,2.72 0 0 0 1.87,0.27 2.84,2.84 0 0 0 1.58,-1 h 0.05 v 0 z"
         id="path566" />
      <path
         class="cls-66"
         d="m 861.67,408.38 a 1.18,1.18 0 0 1 0.08,1 1.74,1.74 0 0 1 -0.7,0.8 1.8,1.8 0 0 1 -1,0.11 2.25,2.25 0 0 1 -0.45,-0.19 1.64,1.64 0 0 1 -0.36,-0.38 v 0 0 0 a 2.24,2.24 0 0 0 1.47,-0.15 1.76,1.76 0 0 0 0.9,-1.14 v 0 0 z"
         id="path568" />
      <path
         class="cls-66"
         d="m 859.38,407.45 a 0.86,0.86 0 0 1 0.42,0.9 1.42,1.42 0 0 1 -0.65,0.89 1.67,1.67 0 0 1 -0.92,0.1 l -0.4,-0.16 a 2.15,2.15 0 0 1 -0.35,-0.33 v 0 0 0 a 2.6,2.6 0 0 0 1.3,-0.23 0.94,0.94 0 0 0 0.52,-1.07 v 0 0 z"
         id="path570" />
      <path
         class="cls-69"
         d="m 858.45,420.6 c 0,0 0.79,-3.63 -1.33,-5.48"
         id="path572" />
      <path
         class="cls-70"
         d="m 861.45,414.34 c 0,0 3.86,1 3.28,4.31"
         id="path574" />
      <path
         class="cls-70"
         d="m 862.87,412.12 c 0,0 4.48,-3.06 6.15,0"
         id="path576" />
      <path
         class="cls-70"
         d="m 861.82,408.83 c 0,0 0.59,-4 3.62,-4.14"
         id="path578" />
      <path
         class="cls-70"
         d="m 858.45,407.43 c 0,0 -0.83,-3.2 1.36,-4.4"
         id="path580" />
      <path
         class="cls-70"
         d="m 853.76,406.29 c 0,0 -1.56,-2.22 0.63,-3.39"
         id="path582" />
      <path
         class="cls-66"
         d="m 855.76,414.4 a 10.11,10.11 0 0 1 -2.55,0.62 9.8,9.8 0 0 1 -2.65,0 6,6 0 0 1 -2.52,-0.94 4.09,4.09 0 0 1 -1.6,-2.1 5.39,5.39 0 0 0 1.87,1.64 7.68,7.68 0 0 0 2.36,0.71 24,24 0 0 0 5.09,0.07 z"
         id="path584" />
      <path
         class="cls-66"
         d="m 855.9,415 a 18.59,18.59 0 0 1 -6.71,0.61 10.39,10.39 0 0 1 -3.32,-0.83 4.94,4.94 0 0 1 -2.52,-2.24 6,6 0 0 0 2.72,1.74 13.78,13.78 0 0 0 3.19,0.64 48.94,48.94 0 0 0 6.64,0.08 z"
         id="path586" />
      <path
         class="cls-66"
         d="m 856.6,414.49 a 5.07,5.07 0 0 1 -1.94,0.21 4.71,4.71 0 0 1 -1.92,-0.55 3.47,3.47 0 0 1 -1.41,-1.48 3.57,3.57 0 0 1 -0.32,-1.94 6.58,6.58 0 0 0 0.78,1.67 4,4 0 0 0 1.29,1.14 9.64,9.64 0 0 0 3.52,0.95 z"
         id="path588" />
      <line
         class="cls-76"
         x1="816.87"
         y1="413.69"
         x2="818.98999"
         y2="415.12"
         id="line590" />
      <line
         class="cls-76"
         x1="812.71002"
         y1="415.92001"
         x2="810.75"
         y2="416.76001"
         id="line592" />
      <line
         class="cls-76"
         x1="807.52002"
         y1="411.19"
         x2="809.48999"
         y2="410.92999"
         id="line594" />
      <line
         class="cls-76"
         x1="829.67999"
         y1="411.5"
         x2="832"
         y2="413.14999"
         id="line596" />
      <line
         class="cls-76"
         x1="800.5"
         y1="419.95001"
         x2="798.59998"
         y2="420.60001"
         id="line598" />
      <line
         class="cls-76"
         x1="793.58002"
         y1="415.48001"
         x2="794.81"
         y2="416.76001"
         id="line600" />
      <line
         class="cls-76"
         x1="796.21997"
         y1="412.60001"
         x2="797.40002"
         y2="413.14999"
         id="line602" />
      <line
         class="cls-76"
         x1="832.77002"
         y1="421.17001"
         x2="831.96997"
         y2="422.03"
         id="line604" />
      <line
         class="cls-76"
         x1="827.04999"
         y1="405.67001"
         x2="827.91998"
         y2="406.34"
         id="line606" />
      <line
         class="cls-76"
         x1="811.72998"
         y1="402.01001"
         x2="811.69"
         y2="403.88"
         id="line608" />
      <line
         class="cls-76"
         x1="822.53003"
         y1="418.72"
         x2="821.59003"
         y2="419.82999"
         id="line610" />
      <line
         class="cls-76"
         x1="836.72998"
         y1="409.54999"
         x2="837.85999"
         y2="410.48001"
         id="line612" />
      <line
         class="cls-76"
         x1="841.21002"
         y1="419.26999"
         x2="840.27002"
         y2="419.82999"
         id="line614" />
      <line
         class="cls-76"
         x1="823.65002"
         y1="410.01001"
         x2="824.95001"
         y2="411.07999"
         id="line616" />
      <line
         class="cls-76"
         x1="796.81"
         y1="401.89001"
         x2="798.41998"
         y2="402.98999"
         id="line618" />
      <line
         class="cls-76"
         x1="805.71997"
         y1="398.79001"
         x2="805.04999"
         y2="399.81"
         id="line620" />
      <g
         class="cls-77"
         mask="url(#mask-4)"
         id="g674">
        <path
           class="cls-78"
           d="m 931.87,380.4 h 27.79 v 22.75 a 7.84,7.84 0 0 1 -7.84,7.84 h -12.11 a 7.84,7.84 0 0 1 -7.84,-7.84 z"
           id="path622" />
        <path
           class="cls-78"
           d="m 959,403.93 v -2.33 h -4.47 V 388.09 H 959 a 6,6 0 0 1 6,6 v 1.5 a 6,6 0 0 1 -6,6 v 4.65 a 10.65,10.65 0 0 0 10.7,-10.64 v -1.5 A 10.66,10.66 0 0 0 959,383.44 h -9.12 v 22.81 H 959 Z"
           id="path624" />
        <rect
           class="cls-21"
           x="931.87"
           y="383.44"
           width="27.91"
           height="1.59"
           id="rect626" />
        <g
           class="cls-79"
           id="g634">
          <path
             class="cls-4"
             d="m 982.49,246.83 h -78 c 3.32,13.85 9.88,19 15.06,21.18 9.36,4 18.28,0 24.8,5.39 4.08,3.39 5.79,9.3 4,14 -3.81,9.88 -20.41,7.39 -28.79,18 -6.79,8.55 -4.73,21.29 0.88,29.45 8.36,12.03 22.56,11.25 26.62,21.15 3.19,7.82 -3,17.62 -9.08,24.42 h 15.72 c 27.41,-15.48 32.39,-24.73 30.56,-30.52 -2.67,-8.43 -19.25,-7.83 -27,-20.83 -5.06,-8.48 -5.13,-20.64 2.22,-26.21 6.88,-5.22 14.35,-0.16 23.47,-5.39 11,-6.28 14.92,-22.05 8.42,-29.8 -2.46,-2.92 -5.29,-3.25 -7.62,-7.14 a 16.13,16.13 0 0 1 -1.24,-13.68"
             id="path628"
             style="fill:url(#linearGradient1666)" />
          <g
             class="cls-80"
             clip-path="url(#clip-path)"
             id="g632">
            <rect
               class="cls-81"
               x="904.07001"
               y="246.42999"
               width="94.290001"
               height="134.28"
               id="rect630"
               style="fill:url(#linear-gradient-4)" />
          </g>
        </g>
        <path
           class="cls-21"
           d="m 925.87,414.6 h 100.83 v 4 a 8.46,8.46 0 0 1 -8.46,8.46 h -83.91 a 8.46,8.46 0 0 1 -8.46,-8.46 z"
           id="path636" />
        <rect
           class="cls-82"
           x="925.87"
           y="406.17999"
           width="100.84"
           height="15.91"
           rx="7.9499998"
           id="rect638" />
        <path
           class="cls-83"
           d="m 995.41,422.09 h -62.23 c -4.65,0 -6.94,-3.65 -6.94,-8.16 v 0"
           id="path640" />
        <line
           class="cls-83"
           x1="1001.96"
           y1="422.09"
           x2="1008.68"
           y2="422.09"
           id="line642" />
        <path
           class="cls-29"
           d="m 1018.35,419.44 h -83.16 c 0,-5.89 3.29,-10.72 7.44,-10.94 l 65.29,-3.42 c 5.7,-0.3 10.43,6.17 10.43,14.25 z"
           id="path644" />
        <path
           class="cls-84"
           d="m 987.5,398.93 c 2.59,1.77 4.87,6.41 3.09,9 -1.78,2.59 -6.91,2.15 -9.5,0.38 a 5.68,5.68 0 1 1 6.41,-9.37 z"
           id="path646" />
        <path
           class="cls-85"
           d="m 981.59,400.43 a 5.23,5.23 0 0 1 1.25,2.34 5.22,5.22 0 0 1 -2.61,-0.45 c -0.8,-0.58 -1.14,-1.46 -0.76,-2 0.38,-0.54 1.32,-0.47 2.12,0.11 z"
           id="path648" />
        <path
           class="cls-85"
           d="m 980.57,402.54 a 5.34,5.34 0 0 1 -1.17,2.39 5.25,5.25 0 0 1 -1.16,-2.39 c 0,-1 0.53,-1.78 1.17,-1.78 0.64,0 1.16,0.8 1.16,1.78 z"
           id="path650" />
        <path
           class="cls-85"
           d="m 982,400.59 a 5.25,5.25 0 0 0 1.41,-2.25 5.3,5.3 0 0 0 -2.64,0.27 c -0.84,0.52 -1.24,1.38 -0.9,1.93 0.34,0.55 1.27,0.57 2.13,0.05 z"
           id="path652" />
        <path
           class="cls-86"
           d="m 983.94,397.92 c 0,0 5.1,1 4.15,9.95"
           id="path654" />
        <path
           class="cls-86"
           d="m 979.9,399.36 c 0,0 5.81,3.83 1.57,9.22"
           id="path656" />
        <polygon
           class="cls-87"
           points="1001.96,405.37 949.52,407.78 972.43,418.11 "
           id="polygon658" />
        <path
           class="cls-88"
           d="m 997.45,411.2 c -2.75,1.52 -7.92,1.46 -9.43,-1.29 -1.51,-2.75 1.2,-7.14 4,-8.65 a 5.68,5.68 0 1 1 5.48,9.94 z"
           id="path660" />
        <path
           class="cls-78"
           d="m 998.77,405.25 a 5.24,5.24 0 0 1 -2.66,0.06 5.25,5.25 0 0 1 1.59,-2.13 c 0.87,-0.45 1.81,-0.36 2.11,0.22 0.3,0.58 -0.17,1.39 -1.04,1.85 z"
           id="path662" />
        <path
           class="cls-78"
           d="m 997.34,403.38 a 5.23,5.23 0 0 1 -1.6,-2.12 5.16,5.16 0 0 1 2.65,0.05 c 0.88,0.44 1.35,1.27 1.06,1.84 -0.29,0.57 -1.24,0.68 -2.11,0.23 z"
           id="path664" />
        <path
           class="cls-78"
           d="m 998.45,405.52 a 5.18,5.18 0 0 0 1.37,2.27 5.27,5.27 0 0 0 0.95,-2.48 c -0.09,-1 -0.68,-1.72 -1.32,-1.66 -0.64,0.06 -1.09,0.89 -1,1.87 z"
           id="path666" />
        <path
           class="cls-86"
           d="m 965,407 c 0,0 9.2,3.08 2.57,4.63 -6.63,1.55 -11.6,-0.65 -16.52,-2.79 -3.25,-1.43 -5.6,-0.76 -7.53,-0.59"
           id="path668" />
        <path
           class="cls-86"
           d="m 972.43,406.29 c 0,0 13,0.67 14.33,13.37"
           id="path670" />
        <path
           class="cls-86"
           d="m 994.78,400.25 a 7.27,7.27 0 0 0 -3.26,8.22 c 1.53,5.54 6,8.56 11.74,10.77"
           id="path672" />
      </g>
      <path
         class="cls-89"
         d="m 283,393 h 73.82 a 2.57,2.57 0 0 1 2.57,2.57 v 34.73 h -79 V 395.53 A 2.57,2.57 0 0 1 283,393 Z"
         id="path676" />
      <path
         class="cls-90"
         d="m 280.42,430.26 h 79 v 2.66 a 1.47,1.47 0 0 1 -1.47,1.47 H 281.8 a 1.38,1.38 0 0 1 -1.38,-1.38 z"
         id="path678" />
      <g
         class="cls-91"
         id="g696">
        <path
           class="cls-92"
           d="m 280.42,427.34 h 14.66 a 2.56,2.56 0 0 0 2.56,-2.56 v 0 a 3.19,3.19 0 0 1 3.19,-3.19 h 58.56"
           id="path680" />
        <path
           class="cls-92"
           d="m 359.39,425.23 h -31.32 a 5,5 0 0 0 -5,5 v 0"
           id="path682" />
        <path
           class="cls-92"
           d="m 280.42,422.66 h 10.69 a 4.72,4.72 0 0 0 4.73,-4.72 v 0 a 4.73,4.73 0 0 0 -4.73,-4.73 h -10.69"
           id="path684" />
        <path
           class="cls-92"
           d="M 359.39,405.31 H 317.8 a 2.66,2.66 0 0 0 -2.66,2.66 v 0 a 2.66,2.66 0 0 0 2.66,2.66 h 16.1 a 2.25,2.25 0 0 1 2.25,2.25 v 0 a 4.14,4.14 0 0 0 4.14,4.14 h 19.1"
           id="path686" />
        <path
           class="cls-92"
           d="M 280.42,397.16 H 301 a 0.88,0.88 0 0 1 0.88,0.88 v 0 a 3.71,3.71 0 0 0 3.71,3.71 h 53.77"
           id="path688" />
        <path
           class="cls-92"
           d="M 280.42,400.81 H 293 a 1.56,1.56 0 0 1 1.56,1.57 v 0 A 1.57,1.57 0 0 1 293,404 h -12.58"
           id="path690" />
        <path
           class="cls-92"
           d="m 359.39,397.93 h -19.06 a 4.82,4.82 0 0 1 -4.82,-4.83 v 0"
           id="path692" />
        <path
           class="cls-92"
           d="M 359.39,407.58 H 343 a 2.15,2.15 0 0 0 -2.15,2.15 v 0 a 2.16,2.16 0 0 0 2.15,2.16 h 16.38"
           id="path694" />
      </g>
      <circle
         class="cls-7"
         cx="315.47"
         cy="394.79999"
         r="1.1900001"
         id="circle698" />
      <circle
         class="cls-7"
         cx="316.51999"
         cy="393.22"
         r="1.1900001"
         id="circle700" />
      <circle
         class="cls-7"
         cx="317.32001"
         cy="394.89001"
         r="1.1900001"
         id="circle702" />
      <circle
         class="cls-7"
         cx="318.07001"
         cy="393.22"
         r="1.1900001"
         id="circle704" />
      <circle
         class="cls-7"
         cx="319.26001"
         cy="391.57999"
         r="1.1900001"
         id="circle706" />
      <circle
         class="cls-7"
         cx="320.03"
         cy="392.95001"
         r="1.1900001"
         id="circle708" />
      <circle
         class="cls-7"
         cx="320.81"
         cy="394.79999"
         r="1.1900001"
         id="circle710" />
      <circle
         class="cls-7"
         cx="323.54999"
         cy="394.56"
         r="1.1900001"
         id="circle712" />
      <circle
         class="cls-7"
         cx="322"
         cy="394.14999"
         r="1.1900001"
         id="circle714" />
      <circle
         class="cls-7"
         cx="321.64001"
         cy="392.42001"
         r="1.1900001"
         id="circle716" />
      <circle
         class="cls-7"
         cx="323.54999"
         cy="392.63"
         r="1.1900001"
         id="circle718" />
      <circle
         class="cls-7"
         cx="325.16"
         cy="394.14999"
         r="1.1900001"
         id="circle720" />
      <circle
         class="cls-7"
         cx="326.82999"
         cy="394.41"
         r="1.1900001"
         id="circle722" />
      <circle
         class="cls-7"
         cx="328.79999"
         cy="394.29999"
         r="1.1900001"
         id="circle724" />
      <circle
         class="cls-7"
         cx="330.88"
         cy="394.41"
         r="1.1900001"
         id="circle726" />
      <circle
         class="cls-7"
         cx="329.84"
         cy="393.22"
         r="1.1900001"
         id="circle728" />
      <circle
         class="cls-7"
         cx="328.01999"
         cy="393.10001"
         r="1.1900001"
         id="circle730" />
      <circle
         class="cls-7"
         cx="326.19"
         cy="392.78"
         r="1.1900001"
         id="circle732" />
      <circle
         class="cls-7"
         cx="324.73999"
         cy="392.03"
         r="1.1900001"
         id="circle734" />
      <circle
         class="cls-7"
         cx="327.25"
         cy="391.23001"
         r="1.1900001"
         id="circle736" />
      <circle
         class="cls-7"
         cx="325.39999"
         cy="390.98999"
         r="1.1900001"
         id="circle738" />
      <circle
         class="cls-7"
         cx="323.19"
         cy="391.23001"
         r="1.1900001"
         id="circle740" />
      <circle
         class="cls-7"
         cx="324.38"
         cy="390.03"
         r="1.1900001"
         id="circle742" />
      <circle
         class="cls-7"
         cx="321.07999"
         cy="391.23001"
         r="1.1900001"
         id="circle744" />
      <circle
         class="cls-7"
         cx="318.69"
         cy="394.56"
         r="1.1900001"
         id="circle746" />
      <path
         class="cls-68"
         d="m 332.11,408.8 h -17.68 a 0.89,0.89 0 0 1 -0.89,-1 68.13,68.13 0 0 0 0,-11.95 0.9,0.9 0 0 1 0.89,-1 h 17.69 a 0.9,0.9 0 0 1 0.89,1 58.53,58.53 0 0 0 0,11.91 0.89,0.89 0 0 1 -0.9,1.04 z"
         id="path748" />
      <path
         class="cls-1"
         d="m 286.43,406.14 h 36.38 v 6.69 a 4.8,4.8 0 0 1 -4.8,4.8 h -26.78 a 4.8,4.8 0 0 1 -4.8,-4.8 z"
         id="path750" />
      <path
         class="cls-93"
         d="m 322.35,408.87 h -35.76 a 1.86,1.86 0 0 1 -1.86,-1.86 v 0 a 1.9,1.9 0 0 1 1.21,-1.77 50.9,50.9 0 0 1 37.07,0 1.9,1.9 0 0 1 1.21,1.77 v 0 a 1.86,1.86 0 0 1 -1.87,1.86 z"
         id="path752" />
      <g
         class="cls-94"
         id="g766">
        <polygon
           class="cls-95"
           points="290.23,408.87 288.89,408.87 288.89,408.88 290.23,408.88 "
           id="polygon754" />
        <path
           class="cls-95"
           d="m 292.37,406.3 6.1,-1.12 a 3.2,3.2 0 0 0 2.15,-1.49 l 1.13,-1.86 c -0.54,0 -1.09,0.07 -1.63,0.12 l -0.64,1.05 a 1.83,1.83 0 0 1 -1.25,0.86 l -6.11,1.14 a 4,4 0 0 0 -3.23,3.88 h 1.33 a 2.62,2.62 0 0 1 2.15,-2.58 z"
           id="path756" />
        <polygon
           class="cls-95"
           points=""
           id="polygon758" />
        <path
           class="cls-95"
           d="m 297.49,407.75 6.47,-1.09 a 10.17,10.17 0 0 0 6.85,-4.49 c -0.52,-0.07 -1,-0.14 -1.56,-0.19 a 8.77,8.77 0 0 1 -5.51,3.37 l -6.47,1.09 a 4.38,4.38 0 0 0 -3.06,2.08 l -0.22,0.35 h 1.61 a 3.16,3.16 0 0 1 1.89,-1.12 z"
           id="path760" />
        <path
           class="cls-95"
           d="m 313.59,406.93 a 3.12,3.12 0 0 1 0.92,-1.86 6.22,6.22 0 0 1 2.67,-1.43 l 0.46,-0.12 q -1.17,-0.31 -2.34,-0.57 a 6.53,6.53 0 0 0 -1.74,1.18 4.54,4.54 0 0 0 -1.3,2.62 7.78,7.78 0 0 0 -0.06,0.94 4.74,4.74 0 0 0 0.13,1.18 h 1.41 a 3.37,3.37 0 0 1 -0.21,-1.18 5.38,5.38 0 0 1 0.06,-0.76 z"
           id="path762" />
        <path
           class="cls-95"
           d="m 320,405.16 a 6.43,6.43 0 0 1 0.48,-0.79 v 0 l -1.33,-0.4 a 7.11,7.11 0 0 0 -1.18,3.7 4.78,4.78 0 0 0 0.17,1.22 h 1.39 a 3.81,3.81 0 0 1 -0.23,-1.22 5.54,5.54 0 0 1 0.7,-2.51 z"
           id="path764" />
      </g>
      <path
         class="cls-1"
         d="m 304.47,415.85 h 36.38 v 6.91 a 4.58,4.58 0 0 1 -4.58,4.58 h -27.22 a 4.58,4.58 0 0 1 -4.58,-4.58 z"
         id="path768" />
      <rect
         class="cls-96"
         x="303.14001"
         y="413.20999"
         width="39.23"
         height="6.5100002"
         rx="1.1900001"
         id="rect770" />
      <path
         class="cls-97"
         d="m 336.41,414.73 h -30.13 v 0.89 h 30.13 a 4,4 0 0 0 3.65,-2.41 h -1 a 3.07,3.07 0 0 1 -2.65,1.52 z"
         id="path772" />
      <rect
         class="cls-68"
         x="315.73999"
         y="413.20999"
         width="12.77"
         height="14.13"
         id="rect774" />
      <rect
         class="cls-98"
         x="290.35001"
         y="434.39001"
         width="17.59"
         height="4.04"
         id="rect776" />
      <rect
         class="cls-98"
         x="333.57001"
         y="434.39001"
         width="17.59"
         height="4.04"
         id="rect778" />
      <text
         class="cls-99"
         transform="matrix(0.95,0.32,-0.32,0.95,867.84,292.56)"
         id="text780">!!!</text>
      <polygon
         class="cls-1"
         points="234.14,402.16 201.28,453.56 196.14,464.11 171.75,453.56 109.35,418.48 165.33,379.42 "
         id="polygon782" />
      <path
         class="cls-50"
         d="m 203.66,424.37 a 257.18,257.18 0 0 1 -49.63,0 3.71,3.71 0 0 1 -3.71,-3.71 v -2.58 h 57.05 v 2.58 a 3.71,3.71 0 0 1 -3.71,3.71 z"
         id="path784" />
      <rect
         class="cls-100"
         x="148.92999"
         y="411.35001"
         width="59.830002"
         height="5.23"
         rx="2.3599999"
         id="rect786" />
      <rect
         class="cls-100"
         x="148.92999"
         y="405.26999"
         width="59.830002"
         height="5.23"
         rx="2.3599999"
         id="rect788" />
      <path
         class="cls-101"
         d="m 150.85,416.48 a 3.37,3.37 0 0 0 -4,1.6 c -1.25,2.45 1.87,2.66 3.74,1.72 1.87,-0.94 5.4,-0.35 7.58,0.4 2.18,0.75 5.15,1.63 8.94,-0.71 3.79,-2.34 6.7,0.9 10.28,0.71 3.58,-0.19 5.77,-2 9.35,-1.12 3.58,0.88 7.56,1.79 10.05,0.62 2.49,-1.17 5,-1.74 6.55,-1 1.55,0.74 3.5,1.73 5,0.79 1.5,-0.94 1.22,-2.89 -1,-3.12 z"
         id="path790" />
      <polygon
         class="cls-21"
         points="206.15,411.35 206.15,410.5 151.55,410.5 151.55,411.35 178.85,414.48 "
         id="polygon792" />
      <rect
         class="cls-102"
         x="152.14"
         y="403.79999"
         width="21.58"
         height="1.47"
         rx="0.66000003"
         id="rect794" />
      <rect
         class="cls-7"
         x="156.24001"
         y="403.79999"
         width="21.58"
         height="1.47"
         rx="0.66000003"
         id="rect796" />
      <rect
         class="cls-7"
         x="180.89"
         y="403.79999"
         width="21.58"
         height="1.47"
         rx="0.66000003"
         id="rect798" />
      <path
         class="cls-50"
         d="M 169.68,383.86 H 188 a 19.36,19.36 0 0 1 19.36,19.36 v 0.59 h -57.04 v -0.59 a 19.36,19.36 0 0 1 19.36,-19.36 z"
         id="path800" />
      <path
         class="cls-12"
         d="m 168.81,387.65 c -0.13,0.31 -0.43,0.49 -0.65,0.39 a 0.55,0.55 0 0 1 -0.18,-0.74 c 0.13,-0.31 0.78,-0.69 0.78,-0.69 a 2.41,2.41 0 0 1 0.05,1.04 z"
         id="path802" />
      <path
         class="cls-12"
         d="m 172.17,388.26 a 0.54,0.54 0 0 1 -0.14,0.74 c -0.22,0.11 -0.52,-0.05 -0.67,-0.35 a 2.53,2.53 0 0 1 0,-1 c 0,0 0.64,0.35 0.81,0.61 z"
         id="path804" />
      <path
         class="cls-12"
         d="m 187,388 a 0.56,0.56 0 0 1 -0.14,0.75 0.54,0.54 0 0 1 -0.67,-0.36 2.32,2.32 0 0 1 0,-1 2.47,2.47 0 0 1 0.81,0.61 z"
         id="path806" />
      <path
         class="cls-12"
         d="m 178.35,386.55 a 0.54,0.54 0 0 1 -0.15,0.74 c -0.22,0.11 -0.52,-0.05 -0.67,-0.35 a 2.48,2.48 0 0 1 0,-1.05 c 0,0 0.67,0.35 0.82,0.66 z"
         id="path808" />
      <path
         class="cls-12"
         d="m 182.42,387.68 a 0.55,0.55 0 0 1 -0.35,0.67 c -0.24,0 -0.48,-0.2 -0.54,-0.53 a 2.46,2.46 0 0 1 0.3,-1 2.41,2.41 0 0 1 0.59,0.86 z"
         id="path810" />
      <path
         class="cls-12"
         d="m 180.89,390.86 a 0.56,0.56 0 0 1 -0.11,0.76 0.55,0.55 0 0 1 -0.68,-0.33 2.39,2.39 0 0 1 0,-1 2.46,2.46 0 0 1 0.79,0.57 z"
         id="path812" />
      <path
         class="cls-12"
         d="m 190.27,386.63 a 0.55,0.55 0 0 1 0.1,0.75 0.56,0.56 0 0 1 -0.75,-0.13 2.4,2.4 0 0 1 -0.32,-1 2.29,2.29 0 0 1 0.97,0.38 z"
         id="path814" />
      <path
         class="cls-12"
         d="m 169.53,390.5 a 0.55,0.55 0 0 1 -0.65,0.39 0.54,0.54 0 0 1 -0.17,-0.74 c 0.13,-0.31 0.78,-0.69 0.78,-0.69 a 2.3,2.3 0 0 1 0.04,1.04 z"
         id="path816" />
      <path
         class="cls-12"
         d="m 164.24,387.76 a 0.47,0.47 0 1 1 -0.6,-0.68 2.47,2.47 0 0 1 1,-0.28 2.44,2.44 0 0 1 -0.4,0.96 z"
         id="path818" />
      <path
         class="cls-12"
         d="m 175.75,390.42 c -0.06,0.34 -0.31,0.57 -0.55,0.53 a 0.54,0.54 0 0 1 -0.34,-0.68 2.46,2.46 0 0 1 0.6,-0.85 2.49,2.49 0 0 1 0.29,1 z"
         id="path820" />
      <path
         class="cls-103"
         d="m 165.66,426.22 -27.19,-2.13 A 1,1 0 0 1 137.55,423 l 0.07,-1 a 1,1 0 0 1 1.08,-0.93 l 28.73,2.25 a 0.5,0.5 0 0 1 0.38,0.76 l -0.91,1.47 a 1.35,1.35 0 0 1 -1.24,0.67 z"
         id="path822" />
      <path
         class="cls-104"
         d="m 172.28,425.47 -27.12,2.82 a 1,1 0 0 1 -1.11,-0.9 l -0.1,-1 a 1,1 0 0 1 0.9,-1.1 l 28.65,-3 a 0.5,0.5 0 0 1 0.52,0.68 l -0.63,1.61 a 1.33,1.33 0 0 1 -1.11,0.89 z"
         id="path824" />
      <path
         class="cls-104"
         d="m 188.6,427.42 -27.12,2.82 a 1,1 0 0 1 -1.11,-0.9 l -0.1,-1 a 1,1 0 0 1 0.9,-1.1 l 28.65,-3 a 0.5,0.5 0 0 1 0.52,0.68 l -0.63,1.61 a 1.33,1.33 0 0 1 -1.11,0.89 z"
         id="path826" />
      <path
         class="cls-104"
         d="m 184,432.3 -27.28,-0.07 a 1,1 0 0 1 -1,-1 v -1 a 1,1 0 0 1 1,-1 l 28.81,0.09 a 0.49,0.49 0 0 1 0.45,0.72 l -0.8,1.54 A 1.33,1.33 0 0 1 184,432.3 Z"
         id="path828" />
      <path
         class="cls-103"
         d="m 173.75,421 26.2,7.55 a 1,1 0 0 1 0.69,1.25 l -0.27,0.94 a 1,1 0 0 1 -1.24,0.69 l -27.69,-8 a 0.5,0.5 0 0 1 -0.23,-0.82 l 1.19,-1.26 a 1.37,1.37 0 0 1 1.35,-0.35 z"
         id="path830" />
      <path
         class="cls-105"
         d="m 170.61,430.62 26.6,-6 a 1,1 0 0 1 1.21,0.76 l 0.21,1 a 1,1 0 0 1 -0.76,1.2 l -28.1,6.36 a 0.5,0.5 0 0 1 -0.59,-0.61 l 0.43,-1.68 a 1.35,1.35 0 0 1 1,-1.03 z"
         id="path832" />
    </g>
  </g>
</svg>
