<?xml version="1.0" encoding="UTF-8" standalone="no"?>
<svg
   xmlns:dc="http://purl.org/dc/elements/1.1/"
   xmlns:cc="http://creativecommons.org/ns#"
   xmlns:rdf="http://www.w3.org/1999/02/22-rdf-syntax-ns#"
   xmlns:svg="http://www.w3.org/2000/svg"
   xmlns="http://www.w3.org/2000/svg"
   xmlns:sodipodi="http://sodipodi.sourceforge.net/DTD/sodipodi-0.dtd"
   xmlns:inkscape="http://www.inkscape.org/namespaces/inkscape"
   id="Layer_1"
   data-name="Layer 1"
   viewBox="0 0 1267.12 347.98003"
   version="1.1"
   sodipodi:docname="search_desktop.svg"
   inkscape:version="1.0.1 (0767f8302a, 2020-10-17)">
  <metadata
     id="metadata660">
    <rdf:RDF>
      <cc:Work
         rdf:about="">
        <dc:format>image/svg+xml</dc:format>
        <dc:type
           rdf:resource="http://purl.org/dc/dcmitype/StillImage" />
        <dc:title>SearchResults</dc:title>
      </cc:Work>
    </rdf:RDF>
  </metadata>
  <sodipodi:namedview
     pagecolor="#ffffff"
     bordercolor="#666666"
     borderopacity="1"
     objecttolerance="10"
     gridtolerance="10"
     guidetolerance="10"
     inkscape:pageopacity="0"
     inkscape:pageshadow="2"
     inkscape:window-width="1920"
     inkscape:window-height="1051"
     id="namedview658"
     showgrid="false"
     inkscape:zoom="0.86228663"
     inkscape:cx="657.36002"
     inkscape:cy="156.25499"
     inkscape:window-x="0"
     inkscape:window-y="0"
     inkscape:window-maximized="1"
     inkscape:current-layer="Layer_1" />
  <defs
     id="defs49">
    <style
       id="style2">.cls-1{fill:none;}.cls-2{fill:#ffeec4;}.cls-3{fill:#fcbd4d;}.cls-4{fill:#ffe1a6;}.cls-5{fill:#fd8f04;}.cls-6{fill:#fdd307;}.cls-7{fill:#5b3103;}.cls-8{fill:#162c36;}.cls-9{fill:#1f3440;}.cls-10{fill:#0071c1;}.cls-11{clip-path:url(#clip-path);}.cls-12{fill:#7da87a;}.cls-13{fill:#7fb5c5;}.cls-14{fill:#fc4c01;}.cls-15{fill:#ffd57b;}.cls-16{fill:#ffe8b0;}.cls-17{fill:#ffe4a7;}.cls-18{fill:#faa747;}.cls-19{fill:#0c1d24;}.cls-20{fill:#fdca66;}.cls-21{fill:#d9991d;}.cls-22{fill:#ab6900;}.cls-23{fill:#bf7e00;}.cls-24{fill:#4e8e8c;}.cls-25{fill:#69adaa;}.cls-26{fill:#fae48b;}.cls-27{fill:#4f3102;}.cls-28{fill:#cc993e;}.cls-29{fill:#ac7b4a;}.cls-30{clip-path:url(#clip-path-2);}.cls-31{clip-path:url(#clip-path-3);}.cls-32{fill:#ab6d26;}.cls-33{fill:#a96316;}.cls-34{clip-path:url(#clip-path-4);}.cls-35{clip-path:url(#clip-path-5);}.cls-36{clip-path:url(#clip-path-6);}.cls-37{fill:#663606;}.cls-38{fill:#cc9a65;}.cls-39{fill:#aa7441;}.cls-40{clip-path:url(#clip-path-7);}.cls-41{fill:#cc8936;}.cls-42{fill:#ca7d22;}.cls-43{clip-path:url(#clip-path-9);}.cls-44{fill:#aa681f;}.cls-45{fill:#a75e10;}.cls-46{clip-path:url(#clip-path-11);}.cls-47{clip-path:url(#clip-path-12);}.cls-48{clip-path:url(#clip-path-13);}.cls-49{clip-path:url(#clip-path-14);}.cls-50{clip-path:url(#clip-path-16);}.cls-51{fill:#926030;}.cls-52{clip-path:url(#clip-path-17);}.cls-53{fill:#915615;}.cls-54{fill:#8f4e07;}.cls-55{fill:#471f05;}.cls-56{fill:#7b4a1a;}.cls-57{fill:#ffd400;}.cls-58{fill:#ffb300;}.cls-59{fill:#ffca46;}.cls-60{fill:#3ee5cb;}.cls-61{clip-path:url(#clip-path-22);}.cls-62{fill:#ffca5b;}.cls-63{fill:#c0d58e;}.cls-64{fill:#ffd574;}.cls-65{fill:#76ead7;}.cls-66{fill:#cedda8;}.cls-67{fill:#84580c;}.cls-68{fill:#825817;}.cls-69{fill:#645d2c;}.cls-70{fill:#ecb358;}.cls-71{fill:#dca84b;}.cls-72{fill:#c8ca53;}.cls-73{fill:#fde6b7;}</style>
    <clipPath
       id="clip-path">
      <path
         class="cls-1"
         d="m 1103.33,341.75 c -0.07,0.48 -0.16,1 -0.27,1.42 h 0.41 v 0 -1.44 h -0.16"
         id="path4" />
    </clipPath>
    <clipPath
       id="clip-path-2">
      <path
         class="cls-1"
         d="m 339.07,165.9 -1.07,2 a 9.16,9.16 0 0 1 -12.38,3.79 l -18.93,-10 a 5.67,5.67 0 0 1 -2.35,-7.66 l 0.05,-0.09 a 5.67,5.67 0 0 1 7.66,-2.35 l 27,14.33"
         id="path7" />
    </clipPath>
    <clipPath
       id="clip-path-3">
      <polyline
         class="cls-1"
         points="270.93 197.99 310.52 197.99 310.52 158.39 270.93 158.39 270.93 197.99"
         id="polyline10" />
    </clipPath>
    <clipPath
       id="clip-path-4">
      <polyline
         class="cls-1"
         points="310.52 197.99 350.12 197.99 350.12 158.39 310.52 158.39 310.52 197.99"
         id="polyline13" />
    </clipPath>
    <clipPath
       id="clip-path-5">
      <polyline
         class="cls-1"
         points="270.93 158.39 310.52 158.39 310.52 118.8 270.93 118.8 270.93 158.39"
         id="polyline16" />
    </clipPath>
    <clipPath
       id="clip-path-6">
      <polyline
         class="cls-1"
         points="310.52 158.39 350.12 158.39 350.12 118.8 310.52 118.8 310.52 158.39"
         id="polyline19" />
    </clipPath>
    <clipPath
       id="clip-path-7">
      <path
         class="cls-1"
         d="m 377.07,198.78 -58.42,-30.73 a 0.54,0.54 0 0 1 -0.23,-0.72 l 4.79,-9.09 a 28.23,28.23 0 0 1 38.14,-11.85 l 9.38,4.93 a 28.23,28.23 0 0 1 11.84,38.14 l -4.78,9.09 a 0.53,0.53 0 0 1 -0.72,0.23"
         id="path22" />
    </clipPath>
    <clipPath
       id="clip-path-9">
      <polyline
         class="cls-1"
         points="350.12 197.99 389.71 197.99 389.71 158.39 350.12 158.39 350.12 197.99"
         id="polyline25" />
    </clipPath>
    <clipPath
       id="clip-path-11">
      <polyline
         class="cls-1"
         points="350.12 158.39 389.71 158.39 389.71 118.8 350.12 118.8 350.12 158.39"
         id="polyline28" />
    </clipPath>
    <clipPath
       id="clip-path-12">
      <path
         class="cls-1"
         d="m 362.05,183.05 -1.05,2 a 9.16,9.16 0 0 0 3.88,12.36 l 19,9.9 a 5.66,5.66 0 0 0 7.64,-2.4 l 0.05,-0.1 a 5.66,5.66 0 0 0 -2.4,-7.64 l -27.12,-14.14"
         id="path31" />
    </clipPath>
    <clipPath
       id="clip-path-13">
      <polyline
         class="cls-1"
         points="350.12 237.58 389.71 237.58 389.71 197.99 350.12 197.99 350.12 237.58"
         id="polyline34" />
    </clipPath>
    <clipPath
       id="clip-path-14">
      <polyline
         class="cls-1"
         points="389.71 237.58 429.31 237.58 429.31 197.99 389.71 197.99 389.71 237.58"
         id="polyline37" />
    </clipPath>
    <clipPath
       id="clip-path-16">
      <polyline
         class="cls-1"
         points="389.71 197.99 429.31 197.99 429.31 158.39 389.71 158.39 389.71 197.99"
         id="polyline40" />
    </clipPath>
    <clipPath
       id="clip-path-17">
      <path
         class="cls-1"
         d="m 354.73,187 -31.21,-16.42 7.54,-14.33 a 20.34,20.34 0 0 1 27.47,-8.54 l 0.52,0.28 a 14.34,14.34 0 0 1 6,19.36 L 354.73,187"
         id="path43" />
    </clipPath>
    <clipPath
       id="clip-path-22">
      <path
         class="cls-1"
         d="m 364,215.5 v 0 m 0,0 v 0 m 0,0 v 0 m 0,0 v 0 m 0,0 v 0 m 0,0 v 0 m 0,0 v 0 m 0,0 v 0 0 0 m 0,0 v 0 m 0,-0.05 v 0 0 0 0 m 12.8,-7.3 v 0 m -2.76,-0.52 c -3.95,0 -8.06,3 -10,7.81 v 0 c 2,-4.77 6.09,-7.81 10,-7.81 m 0,0 v 0"
         id="path46" />
    </clipPath>
  </defs>
  <title
     id="title51">SearchResults</title>
  <path
     class="cls-2"
     d="m 148.27,40.56 -24.83,57.6 V 29.47 a 37.42,37.42 0 0 1 -3.69,0.65 52.23,52.23 0 0 1 -35.51,23.84 V 333.4 h 39.2 V 127.33 l 36.11,-83.77 a 34.9,34.9 0 0 1 -11.28,-3 z"
     id="path53" />
  <path
     class="cls-3"
     d="M 142.45,38.5 A 36.26,36.26 0 0 0 196.9,21.02 l -1,-0.36 -0.28,1 a 33.47,33.47 0 0 0 8.6,1.13 33.06,33.06 0 0 0 15.54,-3.86 l -1,-1.86 a 31,31 0 0 1 -14.55,3.61 31.45,31.45 0 0 1 -8.05,-1.06 l -0.93,-0.25 -0.33,0.9 a 34.14,34.14 0 0 1 -51.27,16.47 l -1.2,1.74 z"
     id="path55" />
  <path
     class="cls-3"
     d="m 0,28.52 a 37.18,37.18 0 0 0 45.89,17.81 l -0.37,-1 -0.61,0.86 A 53.28,53.28 0 0 0 120.65,30.7 l -0.9,-0.56 0.13,1.05 a 36.77,36.77 0 0 0 13,-4.13 l -1,-1.86 a 34.58,34.58 0 0 1 -12.24,3.89 l -0.5,0.07 -0.27,0.42 A 51.14,51.14 0 0 1 46.15,44.44 l -0.46,-0.32 -0.54,0.21 A 35,35 0 0 1 1.88,27.57 l -1.88,1 z"
     id="path57" />
  <path
     class="cls-3"
     d="M 81.39,0 A 8.41,8.41 0 0 1 70.49,4.33 L 69.41,3.88 69.07,4.99 A 10.78,10.78 0 0 1 47.99,1.84 V 0.78 h -12.5 v 2.11 h 11.44 v -1 h -1.05 a 12.89,12.89 0 0 0 25.21,3.77 l -1,-0.31 -0.4,1 A 10.49,10.49 0 0 0 83.33,0.91 L 81.4,0.05 Z"
     id="path59" />
  <path
     class="cls-4"
     d="m 113.71,148.6 a 5,5 0 0 0 -2.29,-2.49 6.8,6.8 0 0 0 -3.22,-0.77 7.64,7.64 0 0 0 -4.81,1.66 11.33,11.33 0 0 0 -3.17,4.47 28,28 0 0 0 -1.49,5.12 81.26,81.26 0 0 0 -2,17 44.08,44.08 0 0 0 3.77,18.74 12.81,12.81 0 0 0 3.65,5 6.87,6.87 0 0 0 4.08,1.43 5.28,5.28 0 0 0 2.44,-0.58 6.09,6.09 0 0 0 2.13,-1.95 11.34,11.34 0 0 0 1.24,-2.35 22,22 0 0 0 1.51,-6.21 q 0.39,-4 0.39,-7.95 a 80.85,80.85 0 0 0 -0.75,-11 27.05,27.05 0 0 0 -2.59,-9.13 4.32,4.32 0 0 0 -7.24,-0.6 15.71,15.71 0 0 0 -2.69,7.67 50.17,50.17 0 0 0 -0.27,5.2 49.08,49.08 0 0 0 1.75,12.87 3.38,3.38 0 0 0 0.79,1.39 2.85,2.85 0 0 0 1.45,0.83 2.72,2.72 0 0 0 0.63,0.08 2.52,2.52 0 0 0 1.32,-0.38 3.35,3.35 0 0 0 1.17,-1.33 6.08,6.08 0 0 0 0.53,-1.47 23.59,23.59 0 0 0 0.43,-8.36 l -2.1,0.27 a 20.63,20.63 0 0 1 0.18,2.73 21.13,21.13 0 0 1 -0.57,4.88 3.61,3.61 0 0 1 -0.49,1.22 1.12,1.12 0 0 1 -0.26,0.27 l -0.21,0.05 h -0.16 a 0.73,0.73 0 0 1 -0.39,-0.23 1.09,1.09 0 0 1 -0.28,-0.49 47,47 0 0 1 -1.64,-12.31 45.84,45.84 0 0 1 0.27,-5 13.58,13.58 0 0 1 2.26,-6.62 2.15,2.15 0 0 1 1.73,-0.85 2.2,2.2 0 0 1 2,1.17 25.08,25.08 0 0 1 2.36,8.42 79.69,79.69 0 0 1 0.72,10.7 77.18,77.18 0 0 1 -0.38,7.75 20.27,20.27 0 0 1 -1.35,5.61 9.82,9.82 0 0 1 -1,1.93 3.91,3.91 0 0 1 -1.38,1.29 3.11,3.11 0 0 1 -1.46,0.34 4.76,4.76 0 0 1 -2.81,-1 11,11 0 0 1 -3,-4.22 42,42 0 0 1 -3.58,-17.83 80,80 0 0 1 2,-16.56 26.3,26.3 0 0 1 1.22,-4.68 9.31,9.31 0 0 1 2.56,-3.66 5.62,5.62 0 0 1 3.47,-1.18 4.6,4.6 0 0 1 2.21,0.52 2.93,2.93 0 0 1 1.35,1.45 l 2,-0.82 z"
     id="path61" />
  <path
     class="cls-4"
     d="m 91.62,168.92 v -13.54 a 15.32,15.32 0 0 1 6.12,-12.25 17.41,17.41 0 0 0 7,-13.94 v -40 h -2.11 v 40 a 15.3,15.3 0 0 1 -6.13,12.25 17.45,17.45 0 0 0 -7,13.94 v 13.54 z"
     id="path63" />
  <path
     class="cls-4"
     d="m 89.5,181.43 v 13.54 a 17.47,17.47 0 0 0 7,13.95 15.3,15.3 0 0 1 6.13,12.24 v 12.22 h 2.11 v -12.22 a 17.44,17.44 0 0 0 -7,-13.94 15.32,15.32 0 0 1 -6.12,-12.25 v -13.54 z"
     id="path65" />
  <path
     class="cls-4"
     d="m 121.97,168.92 v -15.38 a 18.83,18.83 0 0 0 -4.25,-11.92 16.7,16.7 0 0 1 -3.78,-10.59 v -29.36 h -2.11 v 29.36 a 18.86,18.86 0 0 0 4.25,11.93 16.65,16.65 0 0 1 3.78,10.58 v 15.38 z"
     id="path67" />
  <polyline
     class="cls-4"
     points="118.45 346.1 118.45 400.86 120.56 400.86 120.56 346.1"
     id="polyline69"
     transform="translate(-15.85,-103.67)" />
  <polyline
     class="cls-4"
     points="108.33 387.47 108.33 411.19 110.44 411.19 110.44 387.47"
     id="polyline71"
     transform="translate(-15.85,-103.67)" />
  <polyline
     class="cls-4"
     points="133.63 322.59 133.63 351.64 135.74 351.64 135.74 322.59"
     id="polyline73"
     transform="translate(-15.85,-103.67)" />
  <polyline
     class="cls-4"
     points="108.03 168.43 108.03 207.42 110.15 207.42 110.15 168.43"
     id="polyline75"
     transform="translate(-15.85,-103.67)" />
  <path
     class="cls-5"
     d="m 1088.82,245.38 2.92,-5 -2.92,5 v 0 l 2.92,-5 -2.92,5 h 0.07 c 0.37,0.22 2.29,1.36 4.94,3.09 2,1.3 4.38,2.93 6.82,4.75 1.84,1.36 3.7,2.83 5.43,4.34 a 43.79,43.79 0 0 1 6.38,6.58 13.73,13.73 0 0 1 1.53,2.53 5.67,5.67 0 0 1 0.27,0.78 1.92,1.92 0 0 1 0.05,0.33 h 0.12 -0.12 0.12 -0.12 v 0 a 7.46,7.46 0 0 1 -0.37,1.51 0.53,0.53 0 0 1 -0.08,0.17 v 0 l 0.9,0.54 -0.74,-0.73 a 1.21,1.21 0 0 0 -0.16,0.19 l 0.9,0.54 -0.74,-0.73 1.62,1.61 -0.82,-2.12 a 2.56,2.56 0 0 0 -0.8,0.51 l 1.62,1.61 -0.82,-2.12 0.66,1.72 v -1.86 a 2,2 0 0 0 -0.66,0.14 l 0.66,1.72 v -1.28 -0.58 0 0.58 -0.58 0 0 0 a 2.14,2.14 0 0 1 -0.37,-0.09 10,10 0 0 1 -2,-1 36.48,36.48 0 0 1 -5.27,-4.06 97.67,97.67 0 0 1 -7.61,-7.78 c -1,-1.16 -1.85,-2.15 -2.43,-2.84 l -0.65,-0.8 c -0.07,-0.09 -0.13,-0.16 -0.16,-0.21 v 0 0 l -1.9,1.49 1.9,-1.49 v 0 l -1.9,1.49 1.9,-1.49 v 0 l -4.75,3.74 4.75,-3.74 v 0 l -4.75,3.74 4.75,-3.74 -9.94,7.83 c 0.05,0.05 1,1.32 2.67,3.21 1.22,1.42 2.79,3.19 4.59,5.06 1.34,1.41 2.81,2.88 4.37,4.31 a 52.25,52.25 0 0 0 7.49,5.88 24.5,24.5 0 0 0 4.24,2.16 16.31,16.31 0 0 0 2.4,0.71 12.81,12.81 0 0 0 2.69,0.3 10.88,10.88 0 0 0 4.26,-0.86 10.2,10.2 0 0 0 2.92,-1.9 11.23,11.23 0 0 0 1.66,-1.94 13.88,13.88 0 0 0 1.63,-3.3 19.72,19.72 0 0 0 0.87,-3.6 v 0 a 12.37,12.37 0 0 0 0.14,-1.91 14,14 0 0 0 -0.56,-3.9 21.5,21.5 0 0 0 -3,-6.13 39.71,39.71 0 0 0 -3.71,-4.62 74.45,74.45 0 0 0 -7.79,-7.17 139.66,139.66 0 0 0 -11.38,-8.21 c -3.16,-2.06 -5.32,-3.31 -5.39,-3.35 l -6.34,10.95 z"
     id="path77" />
  <polyline
     class="cls-5"
     points="1086.35 337.34 1062.14 337.34 1062.14 321.97 1086.35 321.97 1086.35 337.34"
     id="polyline79"
     transform="translate(-15.85,-103.67)" />
  <path
     class="cls-5"
     d="m 1071.78,137.09 v 4.79 a 3.11,3.11 0 0 1 -2.71,3.14 3,3 0 0 1 -3.32,-3 v -8 a 1.33,1.33 0 0 0 -1,-1.29 c -1.1,-0.24 -2.23,-0.42 -3.36,-0.56 a 1.33,1.33 0 0 0 -1.5,1.32 v 8.42 a 3.11,3.11 0 0 1 -2.7,3.14 3,3 0 0 1 -3.33,-3 v -8.56 a 1.33,1.33 0 0 0 -1.5,-1.32 c -1.13,0.14 -2.25,0.32 -3.36,0.56 a 1.33,1.33 0 0 0 -1,1.29 v 7.89 a 3.11,3.11 0 0 1 -2.7,3.14 3,3 0 0 1 -3.33,-3 v -4.93 a 1.33,1.33 0 0 0 -1.92,-1.19 37.12,37.12 0 0 0 -20.26,33.08 v 27.02 a 28.2,28.2 0 0 0 28.2,28.21 h 17.83 a 28.21,28.21 0 0 0 28.21,-28.21 v -27.05 a 37.11,37.11 0 0 0 -20.27,-33.08 1.33,1.33 0 0 0 -1.92,1.19"
     id="path81" />
  <path
     class="cls-6"
     d="m 1078.85,246.8 -1,-6.17 0.94,6.19 h 0.11 l -1,-6.17 0.94,6.19 -0.33,-2.17 0.31,2.17 v 0 l -0.33,-2.17 0.31,2.17 v 0 a 15,15 0 0 1 1.58,-0.08 19.49,19.49 0 0 1 5.75,0.88 17.55,17.55 0 0 1 6.88,4 l 12.82,-13.61 a 36.28,36.28 0 0 0 -7.09,-5.23 36.72,36.72 0 0 0 -10.3,-3.9 39.06,39.06 0 0 0 -8.06,-0.87 29.51,29.51 0 0 0 -4.58,0.33 l 3.13,18.43 v 0"
     id="path83" />
  <path
     class="cls-7"
     d="m 1046.79,199.23 h 26.43 a 1.38,1.38 0 1 0 0,-2.75 h -26.43 a 1.38,1.38 0 1 0 0,2.75"
     id="path85" />
  <path
     class="cls-5"
     d="m 1069.85,296.21 h -26.08 a 11.66,11.66 0 0 1 -11.62,-11.65 v -53.23 h 49.39 v 53.19 a 11.66,11.66 0 0 1 -11.65,11.65"
     id="path87" />
  <path
     class="cls-8"
     d="m 1081.55,297.2 h -39.58 a 9.91,9.91 0 0 1 -9.91,-9.91 v -22.43 h 49.49 z"
     id="path89" />
  <polyline
     class="cls-6"
     points="1097.4 381.18 1047.91 381.18 1047.91 331.69 1097.4 331.69 1097.4 381.18"
     id="polyline91"
     transform="translate(-15.85,-103.67)" />
  <polyline
     class="cls-5"
     points="1068.25 362.31 1068.25 435.11 1080.9 435.11 1080.9 362.31"
     id="polyline93"
     transform="translate(-15.85,-103.67)" />
  <path
     class="cls-9"
     d="m 1065.05,297.2 h -13.2 v -44.95 a 6.6,6.6 0 0 1 13.2,0 z"
     id="path95" />
  <path
     class="cls-9"
     d="m 1077.68,333.64 h -24.18 a 1.11,1.11 0 0 1 -1.11,-1.1 v -8.8 H 1070 a 8.8,8.8 0 0 1 8.79,8.8 1.1,1.1 0 0 1 -1.11,1.1 z"
     id="path97" />
  <rect
     class="cls-9"
     x="1052.4"
     y="305.09998"
     width="13.2"
     height="23.530001"
     id="rect99" />
  <polyline
     class="cls-5"
     points="1095.19 362.31 1095.19 435.11 1107.84 435.11 1107.84 362.31"
     id="polyline101"
     transform="translate(-15.85,-103.67)" />
  <path
     class="cls-9"
     d="m 1091.99,297.2 h -13.2 v -44.95 a 6.6,6.6 0 1 1 13.2,0 z"
     id="path103" />
  <path
     class="cls-9"
     d="m 1104.62,333.64 h -24.18 a 1.11,1.11 0 0 1 -1.11,-1.1 v -8.8 h 17.61 a 8.8,8.8 0 0 1 8.79,8.8 1.11,1.11 0 0 1 -1.11,1.1 z"
     id="path105" />
  <rect
     class="cls-9"
     x="1079.34"
     y="305.09998"
     width="13.2"
     height="23.530001"
     id="rect107" />
  <path
     class="cls-5"
     d="m 1016.61,235.13 a 46.16,46.16 0 0 0 -9.45,6.37 49.41,49.41 0 0 0 -8.65,9.89 l 10.52,7 a 36.68,36.68 0 0 1 6.43,-7.37 34.37,34.37 0 0 1 6.89,-4.65 l -5.74,-11.26 z"
     id="path109" />
  <path
     class="cls-6"
     d="m 1037.47,228.33 a 29.37,29.37 0 0 0 -4.58,-0.33 38.61,38.61 0 0 0 -11.32,1.73 36.23,36.23 0 0 0 -14.13,8.27 l 12.83,13.61 a 17.48,17.48 0 0 1 3.45,-2.55 18.1,18.1 0 0 1 5.07,-1.92 20.25,20.25 0 0 1 4.1,-0.44 12.88,12.88 0 0 1 1.35,0.06 h 0.23 v 0 l 0.68,-4.76 -0.8,4.74 h 0.12 l 0.68,-4.76 -0.8,4.74 3.12,-18.43 z"
     id="path111" />
  <path
     class="cls-2"
     d="m 1070.9,252.46 h -11.75 a 16.73,16.73 0 0 1 -16.73,-16.74 v -7.7 h 45.18 v 7.7 a 16.73,16.73 0 0 1 -16.74,16.74"
     id="path113" />
  <path
     class="cls-10"
     d="m 1042.46,232.73 a 3.22,3.22 0 0 1 1.57,0.36 5.1,5.1 0 0 1 0.88,0.63 10.91,10.91 0 0 0 1.53,1.23 4.69,4.69 0 0 0 2.47,0.66 4.74,4.74 0 0 0 2.26,-0.54 6.3,6.3 0 0 0 1.13,-0.81 10.75,10.75 0 0 1 1.34,-1.08 3,3 0 0 1 1.72,-0.45 3.26,3.26 0 0 1 1.58,0.36 5.52,5.52 0 0 1 0.88,0.63 10.78,10.78 0 0 0 1.52,1.23 4.75,4.75 0 0 0 2.48,0.66 4.7,4.7 0 0 0 2.25,-0.54 6,6 0 0 0 1.14,-0.81 11.5,11.5 0 0 1 1.33,-1.08 3.1,3.1 0 0 1 1.73,-0.45 3.26,3.26 0 0 1 1.58,0.36 5.52,5.52 0 0 1 0.88,0.63 10.78,10.78 0 0 0 1.52,1.23 4.75,4.75 0 0 0 2.48,0.66 4.7,4.7 0 0 0 2.25,-0.54 6,6 0 0 0 1.14,-0.81 11.5,11.5 0 0 1 1.33,-1.08 3.12,3.12 0 0 1 1.73,-0.45 3.24,3.24 0 0 1 1.58,0.36 4.68,4.68 0 0 1 0.88,0.64 12.39,12.39 0 0 0 1.53,1.22 4.72,4.72 0 0 0 2.47,0.66 v -1.44 a 3.18,3.18 0 0 1 -1.58,-0.37 4.89,4.89 0 0 1 -0.87,-0.63 12.39,12.39 0 0 0 -1.53,-1.22 4.64,4.64 0 0 0 -2.51,-0.62 4.59,4.59 0 0 0 -2.25,0.54 6,6 0 0 0 -1.14,0.81 11.5,11.5 0 0 1 -1.33,1.08 3.27,3.27 0 0 1 -1.73,0.45 3.15,3.15 0 0 1 -1.58,-0.37 4.62,4.62 0 0 1 -0.88,-0.63 11.53,11.53 0 0 0 -1.52,-1.22 4.66,4.66 0 0 0 -2.48,-0.66 4.56,4.56 0 0 0 -2.25,0.54 6,6 0 0 0 -1.14,0.81 11.5,11.5 0 0 1 -1.33,1.08 3.3,3.3 0 0 1 -1.73,0.45 3.15,3.15 0 0 1 -1.58,-0.37 4.62,4.62 0 0 1 -0.88,-0.63 11.53,11.53 0 0 0 -1.52,-1.22 4.66,4.66 0 0 0 -2.48,-0.66 4.59,4.59 0 0 0 -2.25,0.54 6,6 0 0 0 -1.14,0.81 10,10 0 0 1 -1.33,1.08 3.27,3.27 0 0 1 -1.73,0.45 3.15,3.15 0 0 1 -1.58,-0.37 4.89,4.89 0 0 1 -0.87,-0.63 12.39,12.39 0 0 0 -1.53,-1.22 4.62,4.62 0 0 0 -2.47,-0.66 v 1.44"
     id="path115" />
  <g
     class="cls-11"
     clip-path="url(#clip-path)"
     id="g119"
     transform="translate(-15.85,-103.67)">
    <rect
       class="cls-12"
       x="1103.0601"
       y="341.75"
       width="0.43000001"
       height="1.4400001"
       id="rect117" />
  </g>
  <path
     class="cls-12"
     d="m 1042.46,235.87 v 0.77 0 c 0,-0.25 0,-0.51 0,-0.77"
     id="path121" />
  <path
     class="cls-13"
     d="m 1081.21,235.21 v 0 a 4.63,4.63 0 0 0 -2.24,0.53 6,6 0 0 0 -1.14,0.81 11.5,11.5 0 0 1 -1.33,1.08 3.1,3.1 0 0 1 -1.73,0.45 3.26,3.26 0 0 1 -1.58,-0.36 5.1,5.1 0 0 1 -0.88,-0.63 10.78,10.78 0 0 0 -1.52,-1.23 4.67,4.67 0 0 0 -2.45,-0.65 v 0 a 4.63,4.63 0 0 0 -2.24,0.53 6,6 0 0 0 -1.14,0.81 11.5,11.5 0 0 1 -1.33,1.08 3.12,3.12 0 0 1 -1.73,0.45 3.26,3.26 0 0 1 -1.58,-0.36 5.1,5.1 0 0 1 -0.88,-0.63 10.78,10.78 0 0 0 -1.52,-1.23 4.67,4.67 0 0 0 -2.45,-0.65 v 0 a 4.63,4.63 0 0 0 -2.24,0.53 6,6 0 0 0 -1.14,0.81 10,10 0 0 1 -1.33,1.08 3.1,3.1 0 0 1 -1.73,0.45 3.26,3.26 0 0 1 -1.58,-0.36 5.45,5.45 0 0 1 -0.87,-0.63 11.53,11.53 0 0 0 -1.53,-1.23 4.64,4.64 0 0 0 -2.45,-0.65 v 0 0.66 c 0,0.26 0,0.52 0,0.77 a 3.13,3.13 0 0 1 1.55,0.37 4.62,4.62 0 0 1 0.88,0.63 10.9,10.9 0 0 0 1.53,1.22 4.55,4.55 0 0 0 2.45,0.66 v 0 a 4.69,4.69 0 0 0 2.24,-0.53 6.84,6.84 0 0 0 1.13,-0.81 10,10 0 0 1 1.34,-1.09 3.21,3.21 0 0 1 1.72,-0.45 3.26,3.26 0 0 1 1.58,0.37 5,5 0 0 1 0.88,0.63 10.77,10.77 0 0 0 1.52,1.22 4.58,4.58 0 0 0 2.45,0.66 v 0 a 4.63,4.63 0 0 0 2.24,-0.53 6.54,6.54 0 0 0 1.14,-0.81 10.68,10.68 0 0 1 1.33,-1.09 3.55,3.55 0 0 1 3.31,-0.08 5,5 0 0 1 0.88,0.63 10.77,10.77 0 0 0 1.52,1.22 4.58,4.58 0 0 0 2.45,0.66 v 0 a 4.63,4.63 0 0 0 2.24,-0.53 6.54,6.54 0 0 0 1.14,-0.81 10.68,10.68 0 0 1 1.33,-1.09 3.3,3.3 0 0 1 1.73,-0.45 3.23,3.23 0 0 1 1.58,0.37 4.62,4.62 0 0 1 0.88,0.63 11.52,11.52 0 0 0 1.53,1.22 4.51,4.51 0 0 0 2,0.64 c 0.11,-0.46 0.2,-0.94 0.27,-1.42 a 3.11,3.11 0 0 1 -1.42,-0.36 5.45,5.45 0 0 1 -0.87,-0.63 11.53,11.53 0 0 0 -1.53,-1.23 4.67,4.67 0 0 0 -2.45,-0.65"
     id="path123" />
  <polyline
     class="cls-14"
     points="1047.91 350.95 1051.76 350.95 1051.76 350.4 1047.91 350.4"
     id="polyline125"
     transform="translate(-15.85,-103.67)" />
  <path
     class="cls-5"
     d="m 1084.74,258.64 h 15.12 v -8 a 8,8 0 0 0 -8,-8 h -7.15 a 8,8 0 1 0 0,15.94 z"
     id="path127" />
  <path
     class="cls-5"
     d="m 998.51,251.39 a 26.12,26.12 0 0 0 -4.63,14.39 20.4,20.4 0 0 0 1,6.33 17.39,17.39 0 0 0 2,4.22 15.41,15.41 0 0 0 5.08,4.88 14.08,14.08 0 0 0 7.08,1.91 15.22,15.22 0 0 0 5,-0.87 18.34,18.34 0 0 0 4.14,-2.05 26.93,26.93 0 0 0 6.42,-6.09 55.28,55.28 0 0 0 7.93,-15.1 127.76,127.76 0 0 0 5.79,-23.52 l -12.49,-2 a 122.86,122.86 0 0 1 -4.42,19 59.64,59.64 0 0 1 -3.93,9.38 23.18,23.18 0 0 1 -5.51,7.22 7.25,7.25 0 0 1 -1.89,1.14 2.86,2.86 0 0 1 -1.05,0.23 1.37,1.37 0 0 1 -0.64,-0.15 2,2 0 0 1 -0.52,-0.4 4.1,4.1 0 0 1 -0.89,-1.48 7.69,7.69 0 0 1 -0.44,-2.66 13.42,13.42 0 0 1 2.5,-7.37 l -10.52,-7 z"
     id="path129" />
  <path
     class="cls-15"
     d="m 1068.08,199.33 c 0,2.87 -3.16,2.87 -3.16,5.74 0,2.87 3.16,2.87 3.16,5.74 0,2.87 -3.16,2.88 -3.16,5.75 0,2.87 3.16,2.87 3.16,5.74 0,2.87 -3.16,2.88 -3.16,5.75 h -14.89 c 0,-2.87 3.15,-2.87 3.15,-5.75 0,-2.88 -3.15,-2.87 -3.15,-5.74 0,-2.87 3.15,-2.87 3.15,-5.75 0,-2.88 -3.15,-2.87 -3.15,-5.74 0,-2.87 3.15,-2.87 3.15,-5.74 h 14.9"
     id="path131" />
  <path
     class="cls-2"
     d="m 1060.49,199.33 a 2.44,2.44 0 0 1 -0.4,1.4 12.73,12.73 0 0 1 -1.6,1.64 4.05,4.05 0 0 0 -0.8,1.11 3.58,3.58 0 0 0 -0.35,1.59 3.62,3.62 0 0 0 0.58,2 13,13 0 0 0 1.73,1.79 3.61,3.61 0 0 1 0.61,0.83 2.57,2.57 0 0 1 0.23,1.11 2.45,2.45 0 0 1 -0.4,1.41 12.71,12.71 0 0 1 -1.6,1.63 4.11,4.11 0 0 0 -0.8,1.12 3.52,3.52 0 0 0 -0.35,1.59 3.65,3.65 0 0 0 0.58,2 13,13 0 0 0 1.73,1.79 3.41,3.41 0 0 1 0.61,0.83 2.54,2.54 0 0 1 0.23,1.11 2.45,2.45 0 0 1 -0.4,1.41 12.1,12.1 0 0 1 -1.6,1.63 4.11,4.11 0 0 0 -0.8,1.12 3.58,3.58 0 0 0 -0.35,1.59 h 1.1 a 2.4,2.4 0 0 1 0.4,-1.4 12.75,12.75 0 0 1 1.6,-1.64 4.36,4.36 0 0 0 0.81,-1.12 3.66,3.66 0 0 0 0.34,-1.59 3.49,3.49 0 0 0 -0.58,-2 12.41,12.41 0 0 0 -1.73,-1.79 3.13,3.13 0 0 1 -0.6,-0.83 2.4,2.4 0 0 1 -0.24,-1.11 2.45,2.45 0 0 1 0.4,-1.41 13.41,13.41 0 0 1 1.6,-1.63 4.36,4.36 0 0 0 0.81,-1.12 3.66,3.66 0 0 0 0.34,-1.59 3.46,3.46 0 0 0 -0.58,-2 12.52,12.52 0 0 0 -1.73,-1.8 3.13,3.13 0 0 1 -0.6,-0.83 2.67,2.67 0 0 1 0.16,-2.51 13.43,13.43 0 0 1 1.6,-1.64 4.48,4.48 0 0 0 0.81,-1.11 3.73,3.73 0 0 0 0.34,-1.59 h -1.1"
     id="path133" />
  <path
     class="cls-16"
     d="m 1057.43,199.33 h -1 a 2.45,2.45 0 0 1 -0.4,1.41 12.78,12.78 0 0 1 -1.6,1.64 4.48,4.48 0 0 0 -0.81,1.11 3.65,3.65 0 0 0 -0.34,1.58 3.47,3.47 0 0 0 0.58,2 13,13 0 0 0 1.72,1.8 3,3 0 0 1 0.61,0.83 2.73,2.73 0 0 1 -0.16,2.54 13.46,13.46 0 0 1 -1.6,1.64 4.48,4.48 0 0 0 -0.81,1.11 3.65,3.65 0 0 0 -0.34,1.58 3.5,3.5 0 0 0 0.58,2 13,13 0 0 0 1.72,1.8 2.82,2.82 0 0 1 0.61,0.83 2.73,2.73 0 0 1 -0.16,2.54 12.78,12.78 0 0 1 -1.6,1.64 4.48,4.48 0 0 0 -0.81,1.11 3.65,3.65 0 0 0 -0.34,1.58 h 1.05 a 2.42,2.42 0 0 1 0.41,-1.42 12.73,12.73 0 0 1 1.6,-1.64 4.05,4.05 0 0 0 0.8,-1.11 3.65,3.65 0 0 0 0.34,-1.58 3.42,3.42 0 0 0 -0.58,-2 13,13 0 0 0 -1.72,-1.8 3.23,3.23 0 0 1 -0.61,-0.83 2.48,2.48 0 0 1 -0.24,-1.12 2.39,2.39 0 0 1 0.41,-1.42 12.12,12.12 0 0 1 1.6,-1.64 4.05,4.05 0 0 0 0.8,-1.11 3.65,3.65 0 0 0 0.34,-1.58 3.42,3.42 0 0 0 -0.58,-2 12.92,12.92 0 0 0 -1.72,-1.79 3.46,3.46 0 0 1 -0.61,-0.84 2.69,2.69 0 0 1 0.17,-2.54 12.73,12.73 0 0 1 1.6,-1.64 3.91,3.91 0 0 0 0.8,-1.11 3.6,3.6 0 0 0 0.34,-1.57"
     id="path135" />
  <path
     class="cls-17"
     d="m 1066.01,199.33 h -1 a 2.46,2.46 0 0 1 -0.41,1.41 12.78,12.78 0 0 1 -1.6,1.64 4.21,4.21 0 0 0 -0.8,1.11 3.51,3.51 0 0 0 -0.35,1.58 3.55,3.55 0 0 0 0.58,2 12.51,12.51 0 0 0 1.73,1.8 3.41,3.41 0 0 1 0.61,0.83 2.61,2.61 0 0 1 0.24,1.12 2.47,2.47 0 0 1 -0.41,1.42 13.46,13.46 0 0 1 -1.6,1.64 4.21,4.21 0 0 0 -0.8,1.11 3.51,3.51 0 0 0 -0.35,1.58 3.58,3.58 0 0 0 0.58,2 12.51,12.51 0 0 0 1.72,1.76 3.23,3.23 0 0 1 0.61,0.83 2.61,2.61 0 0 1 0.24,1.12 2.47,2.47 0 0 1 -0.41,1.42 12.78,12.78 0 0 1 -1.6,1.64 4.21,4.21 0 0 0 -0.8,1.11 3.51,3.51 0 0 0 -0.35,1.58 h 1 a 2.49,2.49 0 0 1 0.41,-1.42 14.22,14.22 0 0 1 1.6,-1.64 4.05,4.05 0 0 0 0.8,-1.11 3.51,3.51 0 0 0 0.35,-1.58 3.58,3.58 0 0 0 -0.58,-2 12.51,12.51 0 0 0 -1.73,-1.8 3.23,3.23 0 0 1 -0.61,-0.83 2.77,2.77 0 0 1 -0.24,-1.12 2.47,2.47 0 0 1 0.41,-1.42 13.46,13.46 0 0 1 1.6,-1.64 4.05,4.05 0 0 0 0.8,-1.11 3.51,3.51 0 0 0 0.35,-1.58 3.58,3.58 0 0 0 -0.58,-2 12.4,12.4 0 0 0 -1.73,-1.79 3.46,3.46 0 0 1 -0.61,-0.84 2.7,2.7 0 0 1 -0.24,-1.12 2.49,2.49 0 0 1 0.41,-1.42 14.22,14.22 0 0 1 1.6,-1.64 3.91,3.91 0 0 0 0.8,-1.11 3.46,3.46 0 0 0 0.35,-1.57"
     id="path137" />
  <path
     class="cls-2"
     d="m 1061.57,199.33 h -1.05 a 2.46,2.46 0 0 1 -0.41,1.41 12.78,12.78 0 0 1 -1.6,1.64 4.21,4.21 0 0 0 -0.8,1.11 3.51,3.51 0 0 0 -0.35,1.58 3.55,3.55 0 0 0 0.58,2 12.51,12.51 0 0 0 1.73,1.8 3.41,3.41 0 0 1 0.61,0.83 2.61,2.61 0 0 1 0.24,1.12 2.47,2.47 0 0 1 -0.41,1.42 13.46,13.46 0 0 1 -1.6,1.64 4.21,4.21 0 0 0 -0.8,1.11 3.51,3.51 0 0 0 -0.35,1.58 3.58,3.58 0 0 0 0.58,2 12.51,12.51 0 0 0 1.73,1.8 3.23,3.23 0 0 1 0.61,0.83 2.61,2.61 0 0 1 0.24,1.12 2.47,2.47 0 0 1 -0.41,1.42 12.78,12.78 0 0 1 -1.6,1.64 4.21,4.21 0 0 0 -0.8,1.11 3.51,3.51 0 0 0 -0.35,1.58 h 1.06 a 2.49,2.49 0 0 1 0.4,-1.42 14.22,14.22 0 0 1 1.6,-1.64 4.3,4.3 0 0 0 0.81,-1.11 3.65,3.65 0 0 0 0.34,-1.58 3.58,3.58 0 0 0 -0.58,-2 13,13 0 0 0 -1.72,-1.8 3.05,3.05 0 0 1 -0.62,-0.83 2.62,2.62 0 0 1 -0.23,-1.12 2.47,2.47 0 0 1 0.4,-1.42 13.46,13.46 0 0 1 1.6,-1.64 4.3,4.3 0 0 0 0.81,-1.11 3.65,3.65 0 0 0 0.34,-1.58 3.58,3.58 0 0 0 -0.58,-2 12.92,12.92 0 0 0 -1.72,-1.79 3.26,3.26 0 0 1 -0.62,-0.84 2.56,2.56 0 0 1 -0.23,-1.12 2.49,2.49 0 0 1 0.4,-1.42 14.22,14.22 0 0 1 1.6,-1.64 4.13,4.13 0 0 0 0.81,-1.11 3.6,3.6 0 0 0 0.34,-1.57"
     id="path139" />
  <path
     class="cls-18"
     d="m 1045.2,204.12 a 5.72,5.72 0 0 0 2.54,-8.46 5.88,5.88 0 0 0 -2.51,-2.06 1.93,1.93 0 0 0 -1.5,3.55 1.85,1.85 0 0 1 0.82,0.67 1.86,1.86 0 0 1 0,2.07 1.87,1.87 0 0 1 -0.82,0.68 1.923077,1.923077 0 1 0 1.48,3.55 z"
     id="path141" />
  <path
     class="cls-5"
     d="m 1041.26,240.17 h -15.58 v -9.95 a 5.12,5.12 0 0 1 5.12,-5.12 h 14.87 a 5.11,5.11 0 0 1 5.11,5.12 v 0.43 a 9.52,9.52 0 0 1 -9.52,9.52 z"
     id="path143" />
  <polygon
     class="cls-19"
     points="1050.63,331.93 1049.46,329.61 1092.1,311.24 1092.56,312.1 "
     id="polygon145"
     transform="translate(-15.85,-103.67)" />
  <path
     class="cls-18"
     d="m 1076.29,200.57 a 1.87,1.87 0 0 1 -0.82,-0.68 1.76,1.76 0 0 1 -0.32,-1 1.81,1.81 0 0 1 0.31,-1 1.85,1.85 0 0 1 0.82,-0.67 1.93,1.93 0 0 0 -1.5,-3.55 5.82,5.82 0 0 0 -2.51,2.06 5.7,5.7 0 0 0 2.54,8.46 1.923077,1.923077 0 1 0 1.48,-3.55 z"
     id="path147" />
  <polygon
     class="cls-19"
     points="1052.38,336.31 1051.01,334.1 1091.86,312.05 1092.4,312.87 "
     id="polygon149"
     transform="translate(-15.85,-103.67)" />
  <path
     class="cls-5"
     d="m 1030.4,229.68 3.3,-3.89 a 1.77,1.77 0 0 1 2.11,-0.46 v 0 l 4.16,1.92 a 2.2035483,2.2035483 0 0 0 1.85,-4 l -4.16,-1.92 v 0 a 6.15,6.15 0 0 0 -7.31,1.61 l -3.3,3.89 a 2.2,2.2 0 1 0 3.35,2.84 z"
     id="path151" />
  <path
     class="cls-7"
     d="m 1033.99,175.63 v 3.8 a 1.93,1.93 0 0 0 3.85,0 v -3.8 a 1.93,1.93 0 0 0 -3.85,0"
     id="path153" />
  <path
     class="cls-7"
     d="m 1060.61,175.63 v 3.8 a 1.93,1.93 0 0 0 3.85,0 v -3.8 a 1.93,1.93 0 0 0 -3.85,0"
     id="path155" />
  <path
     class="cls-20"
     d="m 302.73,145.18 c 0,0.12 -0.49,2.42 -1,6.05 a 113.24,113.24 0 0 0 -0.94,14.09 83.73,83.73 0 0 0 0.6,10.08 56.59,56.59 0 0 0 1.52,7.74 35.6,35.6 0 0 0 4.95,11 25.27,25.27 0 0 0 4.16,4.7 23.65,23.65 0 0 0 5.49,3.62 16,16 0 0 0 3.15,1.12 14.11,14.11 0 0 0 3.3,0.39 13.83,13.83 0 0 0 5.58,-1.17 17.25,17.25 0 0 0 4.26,-2.67 24.71,24.71 0 0 0 3.19,-3.28 41.58,41.58 0 0 0 4.68,-7.43 96,96 0 0 0 5.95,-15.55 217.66,217.66 0 0 0 5.35,-22.91 c 1.15,-6.37 1.71,-10.73 1.72,-10.81 l -12.54,-1.61 1.57,0.2 -1.57,-0.2 v 0 l 1.57,0.2 -1.57,-0.2 c 0,0 -0.46,3.65 -1.41,9 -0.71,4 -1.69,9 -2.95,14.21 -0.94,3.9 -2,7.91 -3.28,11.68 -0.93,2.83 -1.94,5.52 -3,7.91 a 44.57,44.57 0 0 1 -2.46,4.81 24.44,24.44 0 0 1 -1.84,2.67 9.16,9.16 0 0 1 -2.24,2.13 3.19,3.19 0 0 1 -0.64,0.31 1.29,1.29 0 0 1 -0.36,0.05 2,2 0 0 1 -0.37,0 3.65,3.65 0 0 1 -0.65,-0.24 11.24,11.24 0 0 1 -2.31,-1.48 14.07,14.07 0 0 1 -3.22,-4 29.4,29.4 0 0 1 -3.07,-9.21 62.46,62.46 0 0 1 -0.9,-11.06 101.54,101.54 0 0 1 0.83,-12.48 c 0.21,-1.62 0.42,-2.93 0.57,-3.82 l 0.18,-1 c 0,-0.11 0,-0.2 0,-0.25 v -0.05 0 l -2.77,-0.57 2.77,0.57 v 0 l -2.77,-0.57 2.77,0.57 -12.39,-2.53 z"
     id="path157" />
  <path
     class="cls-21"
     d="m 290.04,146.56 c 0,0.27 -0.28,3.32 -0.28,8 0,3.28 0.13,7.34 0.58,11.81 a 92.9,92.9 0 0 0 1.7,10.62 68.24,68.24 0 0 0 2.42,8.36 46.11,46.11 0 0 0 6.57,12.29 35.16,35.16 0 0 0 5.2,5.47 31.32,31.32 0 0 0 6.72,4.33 21.33,21.33 0 0 0 4.24,1.51 20,20 0 0 0 4.57,0.54 19.59,19.59 0 0 0 5.05,-0.67 20.78,20.78 0 0 0 4.19,-1.65 24.68,24.68 0 0 0 6,-4.53 34.07,34.07 0 0 0 3.8,-4.63 56.31,56.31 0 0 0 4.94,-8.93 113.38,113.38 0 0 0 5.26,-14.65 c 1.45,-5 2.64,-9.93 3.61,-14.47 l -23.13,-4.93 c -0.86,4.06 -1.92,8.45 -3.14,12.66 -0.92,3.15 -1.93,6.21 -3,8.92 a 52.56,52.56 0 0 1 -2.44,5.37 25.17,25.17 0 0 1 -1.7,2.8 9.33,9.33 0 0 1 -1,1.19 3.38,3.38 0 0 1 -0.35,0.33 v 0 0 l 1.28,1.88 -0.72,-2.14 a 2.19,2.19 0 0 0 -0.56,0.26 l 1.28,1.88 -0.72,-2.14 1.34,4 v -4.19 a 4.31,4.31 0 0 0 -1.34,0.22 l 1.34,4 v -0.25 l 0.92,-3.83 a 3.93,3.93 0 0 0 -0.92,-0.11 v 3.94 l 0.92,-3.83 -0.5,2.09 0.93,-1.95 a 1.83,1.83 0 0 0 -0.43,-0.14 l -0.5,2.09 0.93,-1.95 a 8,8 0 0 1 -2,-1.34 11.84,11.84 0 0 1 -1.72,-2 24.14,24.14 0 0 1 -2.81,-5.65 54.86,54.86 0 0 1 -2.58,-11.58 90.46,90.46 0 0 1 -0.63,-11 c 0,-1.87 0.05,-3.41 0.1,-4.45 0,-0.52 0.05,-0.91 0.07,-1.16 0.02,-0.25 0,-0.21 0,-0.26 v 0 l -0.74,-0.06 0.74,0.06 v 0 l -0.74,-0.06 0.74,0.06 -8,-0.69 8,0.71 v 0 l -8,-0.69 8,0.71 -23.56,-2.08 z"
     id="path159" />
  <rect
     class="cls-22"
     x="289.45999"
     y="133.39"
     width="34.25"
     height="9.6999998"
     id="rect161" />
  <rect
     class="cls-23"
     x="272.82001"
     y="215.71001"
     width="48.93"
     height="45.720001"
     id="rect163" />
  <path
     class="cls-24"
     d="m 291.4,206.48 -8.45,50.51 a 14.29,14.29 0 0 1 -3,6.65 l -0.17,0.21 -23.85,34.21 12.22,8.49 23.69,-34 -6.13,-4.22 5.77,4.68 a 29.25,29.25 0 0 0 6.12,-13.56 l 8.45,-50.51 -14.65,-2.45 z"
     id="path165" />
  <path
     class="cls-21"
     d="m 327.66,261.43 h -15.57 v -121.2 h 8.06 a 7.49,7.49 0 0 1 7.49,7.5 z"
     id="path167" />
  <path
     class="cls-20"
     d="m 288.23,154.48 h 25.17 v -28.6 l -16.62,-15.15 -6.75,11.95 a 14,14 0 0 0 -1.8,6.87 z"
     id="path169" />
  <path
     class="cls-23"
     d="m 312.07,180.72 11.55,-19.63 -5.77,-4.68 8.56,-1.74 -0.93,-17.42 a 4.07,4.07 0 0 0 -4.07,-3.86 l -9.34,7 z"
     id="path171" />
  <path
     class="cls-20"
     d="m 292.97,125.85 5.72,4.47 a 26.67,26.67 0 0 0 35.08,-2 l 18.75,-18.33 c 16.93,-16.51 18.63,-43.21 1.63,-56.49 -17,-13.28 -42.48,-5.2 -54.47,15.21 l -13.27,22.62 a 26.67,26.67 0 0 0 6.56,34.52"
     id="path173" />
  <path
     class="cls-24"
     d="m 313.39,217.08 h -29.5 a 9.91,9.91 0 0 1 -9.91,-9.91 v -8.84 h 49.49 V 207 a 10.08,10.08 0 0 1 -10.08,10.08 z"
     id="path175" />
  <polygon
     class="cls-19"
     points="300.35,253.5 328.81,253.5 339.32,302.06 289.83,302.06 "
     id="polygon177"
     transform="translate(-15.85,-103.67)" />
  <polyline
     class="cls-20"
     points="274.9 399.64 257.19 427.53 267.87 434.31 285.58 406.42"
     id="polyline179"
     transform="translate(-15.85,-103.67)" />
  <polyline
     class="cls-20"
     points="336.84 400.94 336.84 435.12 349.49 435.12 349.49 400.94"
     id="polyline181"
     transform="translate(-15.85,-103.67)" />
  <path
     class="cls-9"
     d="m 261.5,333.5 h -9.14 l -11.27,-7.17 a 1.1,1.1 0 0 1 -0.34,-1.53 l 4.71,-7.42 14.86,9.43 c 0.55,0.46 6.75,2.63 4.15,6.73 0,-0.02 -2.32,-0.06 -2.97,-0.04 z"
     id="path183" />
  <path
     class="cls-24"
     d="m 307.25,209.71 12.69,45.25 a 8,8 0 0 1 0.3,2.18 v 42 h 14.85 v -42 a 22.67,22.67 0 0 0 -0.86,-6.19 l -12.69,-45.25 -14.29,4 z"
     id="path185" />
  <path
     class="cls-9"
     d="m 346.28,333.65 h -24.13 a 1.11,1.11 0 0 1 -1.11,-1.11 v -8.79 h 17.6 a 8.79,8.79 0 0 1 8.8,8.79 1.11,1.11 0 0 1 -1.16,1.11 z"
     id="path187" />
  <rect
     class="cls-25"
     x="-117.74767"
     y="375.25516"
     width="7.9000001"
     height="15.59"
     transform="rotate(-57.59)"
     id="rect189" />
  <rect
     class="cls-25"
     x="319.79001"
     y="297.26999"
     width="15.59"
     height="7.9000001"
     id="rect191" />
  <path
     class="cls-20"
     d="m 285.25,149.87 a 54.61,54.61 0 0 0 -22.47,-4.79 56.78,56.78 0 0 0 -17,2.62 52.73,52.73 0 0 0 -11.18,4.95 41.38,41.38 0 0 0 -12.75,11.42 30.2,30.2 0 0 0 -3.83,7.34 25.06,25.06 0 0 0 -1.42,8.23 24.4,24.4 0 0 0 1.15,7.36 29.19,29.19 0 0 0 6,10.37 47.18,47.18 0 0 0 10.9,8.96 l 6.6,-10.78 a 38.8,38.8 0 0 1 -5.9,-4.36 20.75,20.75 0 0 1 -4.83,-6.13 12.13,12.13 0 0 1 -1.31,-5.38 12.32,12.32 0 0 1 0.56,-3.6 18.17,18.17 0 0 1 3.85,-6.53 28.7,28.7 0 0 1 5.24,-4.6 39.7,39.7 0 0 1 10.87,-5.21 44.35,44.35 0 0 1 13.05,-2 41.84,41.84 0 0 1 17.27,3.67 l 5.2,-11.53 z"
     id="path193" />
  <path
     class="cls-21"
     d="m 287.51,144.86 a 60,60 0 0 0 -24.73,-5.28 62.36,62.36 0 0 0 -18.69,2.87 58.81,58.81 0 0 0 -12.33,5.47 50.85,50.85 0 0 0 -7.94,5.77 40.47,40.47 0 0 0 -9,11.37 33,33 0 0 0 -2.71,6.95 29.53,29.53 0 0 0 0.28,16.22 32.63,32.63 0 0 0 3.76,8.1 l 19.94,-12.72 a 8.61,8.61 0 0 1 -1.06,-2.24 5.57,5.57 0 0 1 -0.27,-1.75 6.41,6.41 0 0 1 0.32,-2 9.49,9.49 0 0 1 1,-2.11 17.63,17.63 0 0 1 3.66,-4.29 31.48,31.48 0 0 1 10,-5.73 38.9,38.9 0 0 1 13.18,-2.31 36.33,36.33 0 0 1 15,3.19 l 9.72,-21.56 z"
     id="path195" />
  <rect
     class="cls-19"
     x="285.66"
     y="140.23"
     width="32.509998"
     height="10.33"
     rx="3.1900001"
     id="rect197" />
  <path
     class="cls-26"
     d="m 306.75,104.61 -1.6,1.84 a 2.51,2.51 0 0 0 1.65,0.63 2.48,2.48 0 0 0 2.46,-2.47 2.44,2.44 0 0 0 -0.76,-1.78 z"
     id="path199" />
  <path
     class="cls-27"
     d="m 343.46,104.19 -2,2.1 a 1.9241622,1.9241622 0 1 0 2.8,2.64 l 2,-2.1 a 1.9241622,1.9241622 0 0 0 -2.8,-2.64"
     id="path201" />
  <path
     class="cls-28"
     d="m 297.45,129.88 4.88,3.29 a 18.74,18.74 0 0 0 9.37,3.22 h 0.85 0.8 v -0.55 h -0.76 -0.82 a 18.2,18.2 0 0 1 -9.1,-3.13 l -4.87,-3.28 -0.31,0.45 z"
     id="path203" />
  <path
     class="cls-27"
     d="m 330.57,92.72 a 5.56,5.56 0 0 0 -0.18,-1.27 8.67,8.67 0 0 0 -2.23,-4 12.58,12.58 0 0 0 -6.71,-3.41 1.9249221,1.9249221 0 1 0 -0.78,3.77 10.23,10.23 0 0 1 3.69,1.45 5.36,5.36 0 0 1 2.09,2.47 4.25,4.25 0 0 1 0.24,0.85 1.26,1.26 0 0 1 0,0.21 v 0 h 0.95 -0.95 v 0 h 0.95 -0.95 a 1.93,1.93 0 1 0 3.85,0 z"
     id="path205" />
  <path
     class="cls-27"
     d="m 313.15,119.75 v 0 a 3.33,3.33 0 0 1 -0.21,-4.71 l 2,-2.17 a 3.3304091,3.3304091 0 1 1 4.92,4.49 l -2,2.17 a 3.33,3.33 0 0 1 -4.71,0.22 z"
     id="path207" />
  <path
     class="cls-29"
     d="m 323.22,62.23 -1.07,2 a 9.16,9.16 0 0 1 -12.38,3.79 l -18.93,-10 a 5.67,5.67 0 0 1 -2.35,-7.66 l 0.05,-0.09 a 5.67,5.67 0 0 1 7.66,-2.35 l 27,14.33"
     id="path209" />
  <g
     class="cls-30"
     clip-path="url(#clip-path-2)"
     id="g255"
     transform="translate(-15.85,-103.67)">
    <g
       class="cls-31"
       clip-path="url(#clip-path-3)"
       id="g217">
      <polyline
         class="cls-32"
         points="310.52 160.59 308.32 160.59 308.32 162.54 310.52 163.71 310.52 160.59"
         id="polyline211" />
      <path
         class="cls-32"
         d="M 308.32,158.39 H 304 a 5.57,5.57 0 0 0 1.31,2.2 h 3.06 v -2.2"
         id="path213" />
      <polyline
         class="cls-33"
         points="310.52 158.39 308.32 158.39 308.32 160.04 308.32 160.59 310.52 160.59 310.52 158.39"
         id="polyline215" />
    </g>
    <g
       class="cls-34"
       clip-path="url(#clip-path-4)"
       id="g233">
      <polyline
         class="cls-32"
         points="318.22 166.09 315.02 166.09 318.22 167.79 318.22 166.09"
         id="polyline219" />
      <polyline
         class="cls-32"
         points="321.97 160.59 318.22 160.59 318.22 166.09 318.22 167.79 318.22 166.09 319.07 166.09 321.97 160.59"
         id="polyline221" />
      <path
         class="cls-33"
         d="m 319.07,166.09 h -0.85 v 1.7 l 0.29,0.15 a 0.51,0.51 0 0 1 -0.15,-0.36 v 0 a 0.54,0.54 0 0 1 0.06,-0.25 l 0.65,-1.24"
         id="path223" />
      <polyline
         class="cls-32"
         points="312.72 160.59 310.52 160.59 310.52 163.71 312.72 164.87 312.72 160.59"
         id="polyline225" />
      <path
         class="cls-32"
         d="m 318.22,158.39 h -5.5 v 2.2 h 5.5 v -2.2 m 4.9,0 h -0.5 v 1 l 0.5,-1"
         id="path227" />
      <polyline
         class="cls-33"
         points="322.62 158.39 318.22 158.39 318.22 160.04 318.22 160.59 321.97 160.59 322.62 159.35 322.62 158.39"
         id="polyline229" />
      <polyline
         class="cls-33"
         points="312.72 158.39 310.52 158.39 310.52 160.59 312.72 160.59 312.72 158.39"
         id="polyline231" />
    </g>
    <g
       class="cls-35"
       clip-path="url(#clip-path-5)"
       id="g241">
      <path
         class="cls-32"
         d="m 308.32,156.19 h -4.62 c 0,0.16 0,0.32 0,0.48 a 5.53,5.53 0 0 0 0.27,1.72 h 4.37 v -2.2"
         id="path235" />
      <path
         class="cls-32"
         d="m 309.4,150.91 a 5.64,5.64 0 0 0 -1.08,0.1 v 5.18 h 2.2 V 151 a 6.07,6.07 0 0 0 -1.12,-0.11"
         id="path237" />
      <polyline
         class="cls-33"
         points="310.52 156.19 308.32 156.19 308.32 158.39 310.52 158.39 310.52 156.19"
         id="polyline239" />
    </g>
    <g
       class="cls-36"
       clip-path="url(#clip-path-6)"
       id="g253">
      <path
         class="cls-32"
         d="m 322.62,157.18 v 1.21 h 0.5 l 0.09,-0.15 c 0.1,-0.2 0.2,-0.39 0.31,-0.58 l -0.9,-0.48 m -4.4,-1 h -5.5 v 2.2 h 5.5 v -2.2"
         id="path243" />
      <polyline
         class="cls-32"
         points="318.22 154.84 318.22 156.19 318.22 158.39 318.22 156.19 320.77 156.19 318.22 154.84"
         id="polyline245" />
      <polyline
         class="cls-33"
         points="320.77 156.19 318.22 156.19 318.22 158.39 322.62 158.39 322.62 157.18 320.77 156.19"
         id="polyline247" />
      <path
         class="cls-32"
         d="m 310.52,151 v 5.17 h 2.2 v -4.26 l -0.67,-0.36 A 5.85,5.85 0 0 0 310.52,151"
         id="path249" />
      <polyline
         class="cls-33"
         points="312.72 156.19 312.72 156.19 310.52 156.19 310.52 158.39 312.72 158.39 312.72 156.19"
         id="polyline251" />
    </g>
  </g>
  <path
     class="cls-37"
     d="m 347.44,50.19 4.95,2.61 c 1.26,-2.39 0.38,-5.23 -0.16,-6.53 a 2,2 0 0 0 -0.94,-1 l -4.86,-2.56 c 0,0 2.63,4.45 1,7.52"
     id="path257" />
  <path
     class="cls-38"
     d="M 361.22,95.11 302.8,64.38 a 0.54,0.54 0 0 1 -0.23,-0.72 l 4.79,-9.09 A 28.23,28.23 0 0 1 345.5,42.72 l 9.38,4.93 a 28.23,28.23 0 0 1 11.84,38.14 l -4.78,9.09 a 0.53,0.53 0 0 1 -0.72,0.23"
     id="path259" />
  <path
     class="cls-38"
     d="M 361.22,95.11 302.8,64.38 a 0.54,0.54 0 0 1 -0.23,-0.72 l 4.79,-9.09 A 28.23,28.23 0 0 1 345.5,42.72 l 9.38,4.93 a 28.23,28.23 0 0 1 11.84,38.14 l -4.78,9.09 a 0.53,0.53 0 0 1 -0.72,0.23"
     id="path261" />
  <path
     class="cls-39"
     d="m 341.97,77.5 -2.49,4.72 h 0.34 l 2.15,-2.62 v -2.1 m 9.89,-10.68 h -4.28 l -1.21,2.32 v 3.19 h 1.57 l 2,-2.41 a 15.43,15.43 0 0 0 1.94,-3 v -0.06 m 0,-9.9 h -1 a 14.11,14.11 0 0 1 -1.05,5.5 h 2 v -5.5 m -5,-9.9 h -0.08 a 14.55,14.55 0 0 1 3.34,5.5 h 1.23 l -0.08,-0.14 a 25,25 0 0 0 -4.41,-5.36"
     id="path263" />
  <g
     class="cls-40"
     clip-path="url(#clip-path-7)"
     id="g395"
     transform="translate(-15.85,-103.67)">
    <g
       class="cls-34"
       clip-path="url(#clip-path-4)"
       id="g287">
      <polyline
         class="cls-41"
         points="333.75 175.99 333.75 175.99 338.02 178.24 338.02 178.24 333.75 175.99"
         id="polyline265" />
      <polyline
         class="cls-41"
         points="325.89 166.09 322.62 166.09 322.62 170.14 323.29 170.49 323.58 170.49 325.89 166.09"
         id="polyline267" />
      <path
         class="cls-41"
         d="m 328.12,173 v 0 l 4.4,2.31 v 0 l -4.4,-2.31 m 0.67,-12.44 h -0.67 v 1.27 l 0.67,-1.27"
         id="path269" />
      <polyline
         class="cls-41"
         points="342.11 180.39 342.11 180.39 342.42 180.55 342.42 180.55 342.11 180.39"
         id="polyline271" />
      <polyline
         class="cls-41"
         points="347.92 183.44 347.92 183.44 350.12 184.6 350.12 184.6 347.92 183.44"
         id="polyline273" />
      <polyline
         class="cls-41"
         points="322.62 160.59 321.97 160.59 319.07 166.09 322.62 166.09 322.62 160.59"
         id="polyline275" />
      <path
         class="cls-42"
         d="m 322.62,166.09 h -3.55 l -0.65,1.24 a 0.53,0.53 0 0 0 0.23,0.72 l 4,2.09 v -4"
         id="path277" />
      <polyline
         class="cls-42"
         points="338.02 178.24 338.02 178.24 342.11 180.39 342.11 180.39 338.02 178.24"
         id="polyline279" />
      <polyline
         class="cls-41"
         points="328.12 158.39 323.12 158.39 322.62 159.35 322.62 160.59 321.97 160.59 328.12 160.59 328.79 160.59 328.12 160.59 328.12 160.04 328.12 158.39"
         id="polyline281" />
      <polyline
         class="cls-42"
         points="322.62 159.35 322.62 159.35 321.97 160.59 322.62 160.59 322.62 159.35"
         id="polyline283" />
      <polyline
         class="cls-42"
         points="329.94 158.39 328.12 158.39 328.12 160.04 328.12 160.59 328.79 160.59 329.94 158.39"
         id="polyline285" />
    </g>
    <g
       class="cls-43"
       clip-path="url(#clip-path-9)"
       id="g343">
      <path
         class="cls-41"
         d="m 367.71,176 h -3.92 l -1.57,1.92 v 2.48 h 5.49 V 176 m 9.9,0 h -5.5 v 4.4 h 5.5 V 176 m 8.21,0 H 382 v 4.4 h 3.52 a 27.57,27.57 0 0 0 0.3,-4 c 0,-0.12 0,-0.24 0,-0.36"
         id="path289" />
      <polyline
         class="cls-44"
         points="363.79 175.99 362.21 175.99 362.21 177.91 363.79 175.99"
         id="polyline291" />
      <path
         class="cls-41"
         d="m 377.61,166.09 h -5.5 v 4.4 h 5.5 v -4.4 m 6.3,0 H 382 v 4.4 h 3.2 a 28.11,28.11 0 0 0 -1.3,-4.4"
         id="path293" />
      <path
         class="cls-44"
         d="m 367.71,166.09 h -2 q -0.27,0.66 -0.6,1.29 l -1.64,3.11 h 4.28 v -4.4"
         id="path295" />
      <path
         class="cls-41"
         d="m 357.82,185.89 h -2.15 l -0.94,1.14 -2.16,-1.14 v 0 l 5.25,2.76 v -2.76 m 9.89,0 h -0.22 l 0.22,0.11 v -0.11 m 9.9,0 h -5.5 v 2.41 l 3.82,2 h 1.68 v -4.4 m 6.54,0 H 382 v 4.4 h 0.13 l 0.43,-0.83 a 28.13,28.13 0 0 0 1.58,-3.57"
         id="path297" />
      <polyline
         class="cls-44"
         points="355.67 185.89 355.33 185.89 354.74 187.03 352.57 185.89 354.74 187.03 355.67 185.89"
         id="polyline299" />
      <path
         class="cls-41"
         d="m 372.11,170.49 h -4.37 v 0.06 15.34 h 4.4 v -5.5 h -4.4 V 176 h 4.4 v -5.5 m 0,-9.9 H 369 a 15,15 0 0 1 0.17,5.5 h 3 v -5.5"
         id="path301" />
      <path
         class="cls-44"
         d="m 369,160.59 h -1.24 v 10 -0.06 0 -4.4 h 1.41 a 15,15 0 0 0 -0.17,-5.5"
         id="path303" />
      <path
         class="cls-41"
         d="m 381.05,160.59 h -3.44 v 30.58 l 3.19,1.66 1.21,-2.3 v -0.24 h -4.4 v -4.4 H 382 v -5.5 h -4.4 V 176 h 4.4 v -5.5 h -4.4 v -4.4 h 4.4 v -4 c -0.3,-0.52 -0.62,-1 -1,-1.55"
         id="path305" />
      <path
         class="cls-41"
         d="m 362.22,180.39 h -2 l -2.36,2.88 v 2.62 h 2.8 a 8.67,8.67 0 0 1 0.38,-0.82 l 1.05,-2 0.17,0.09 v -2.75"
         id="path307" />
      <path
         class="cls-44"
         d="m 360.18,180.39 h -1.95 l -0.41,0.78 v 2.1 l 2.36,-2.88 m 2,-7.58 -1.64,3.19 h 1.68 v -3.18"
         id="path309" />
      <path
         class="cls-42"
         d="m 372.11,166.09 h -3 a 15.64,15.64 0 0 1 -1.38,4.4 h 4.37 v -4.4"
         id="path311" />
      <path
         class="cls-45"
         d="m 369.12,166.09 h -1.41 v 4.4 0 a 15.64,15.64 0 0 0 1.38,-4.4"
         id="path313" />
      <polyline
         class="cls-42"
         points="382.01 166.09 382.01 166.09 377.61 166.09 377.61 170.49 382.01 170.49 382.01 166.09"
         id="polyline315" />
      <polyline
         class="cls-42"
         points="362.21 177.91 360.18 180.39 362.21 180.39 362.21 177.91"
         id="polyline317" />
      <polyline
         class="cls-45"
         points="362.21 175.99 362.21 175.99 360.54 175.99 358.23 180.39 360.18 180.39 362.21 177.91 362.21 175.99"
         id="polyline319" />
      <polyline
         class="cls-42"
         points="372.11 175.99 372.11 175.99 367.71 175.99 367.71 180.39 372.11 180.39 372.11 175.99"
         id="polyline321" />
      <polyline
         class="cls-42"
         points="382.01 175.99 382.01 175.99 377.61 175.99 377.61 180.39 382.01 180.39 382.01 175.99"
         id="polyline323" />
      <path
         class="cls-42"
         d="m 360.62,185.89 h -2.8 v 2.76 l 2.15,1.13 c 0,-0.16 0,-0.33 0,-0.49 a 9,9 0 0 1 0.66,-3.4"
         id="path325" />
      <polyline
         class="cls-42"
         points="372.11 185.89 372.11 185.89 367.71 185.89 367.71 186 372.11 188.3 372.11 185.89"
         id="polyline327" />
      <polyline
         class="cls-42"
         points="382.01 185.89 382.01 185.89 377.61 185.89 377.61 190.29 382.01 190.29 382.01 185.89"
         id="polyline329" />
      <polyline
         class="cls-41"
         points="350.12 184.6 350.12 184.6 352.32 185.76 352.32 185.76 350.12 184.6"
         id="polyline331" />
      <polyline
         class="cls-41"
         points="377.61 158.39 372.11 158.39 372.11 160.59 368.95 160.59 368.95 160.59 377.61 160.59 381.05 160.59 381.05 160.59 377.61 160.59 377.61 160.04 377.61 158.39"
         id="polyline333" />
      <path
         class="cls-44"
         d="m 367.71,158.39 h -1.18 a 14.74,14.74 0 0 1 0.19,2.2 h 1 v -2.2"
         id="path335" />
      <path
         class="cls-42"
         d="m 372.11,158.39 h -3.81 a 15.8,15.8 0 0 1 0.65,2.2 h 3.16 v -2.2"
         id="path337" />
      <path
         class="cls-45"
         d="m 368.3,158.39 h -0.59 v 2.2 H 369 a 15.8,15.8 0 0 0 -0.65,-2.2"
         id="path339" />
      <path
         class="cls-42"
         d="m 379.41,158.39 h -1.8 v 2.2 h 3.44 c -0.51,-0.75 -1.05,-1.49 -1.64,-2.2"
         id="path341" />
    </g>
    <g
       class="cls-36"
       clip-path="url(#clip-path-6)"
       id="g363">
      <path
         class="cls-41"
         d="m 343.11,146.29 h -0.69 v 0.23 l 0.69,-0.23"
         id="path345" />
      <path
         class="cls-41"
         d="m 338,146.29 h -2.79 a 28.33,28.33 0 0 0 -2.71,1.6 v 2.8 h 2.85 a 20.68,20.68 0 0 1 2.65,-2 v -2.37"
         id="path347" />
      <path
         class="cls-41"
         d="m 328.12,156.19 h -3.73 q -0.45,0.72 -0.87,1.47 c -0.11,0.19 -0.21,0.38 -0.31,0.58 l -0.09,0.15 h 5 v -2.2"
         id="path349" />
      <path
         class="cls-41"
         d="M 332.52,150.69 H 329 c -0.29,0.27 -0.57,0.55 -0.85,0.83 v 4.67 h 3 a 20.42,20.42 0 0 1 1.42,-2.29 v -3.21"
         id="path351" />
      <path
         class="cls-41"
         d="M 342.42,143.74 A 28.11,28.11 0 0 0 338,145 v 3.62 0 -2.37 h 4.4 v -2.55"
         id="path353" />
      <path
         class="cls-41"
         d="m 348.22,143.14 h -0.3 v 2.29 0 c 0.38,0 0.77,0 1.16,0 h 1 v -2.23 c -0.64,0 -1.27,-0.06 -1.9,-0.06"
         id="path355" />
      <path
         class="cls-42"
         d="m 332.52,147.89 a 28,28 0 0 0 -3.55,2.8 h 3.55 v -2.8"
         id="path357" />
      <path
         class="cls-42"
         d="M 342.42,146.29 H 338 v 2.37 0 a 20.34,20.34 0 0 1 4.4,-2.14 v -0.23"
         id="path359" />
      <path
         class="cls-42"
         d="m 331.1,156.19 h -3 v 2.2 h 1.82 l 1.12,-2.11 v -0.09"
         id="path361" />
    </g>
    <g
       class="cls-46"
       clip-path="url(#clip-path-11)"
       id="g393">
      <path
         class="cls-41"
         d="M 357.82,146.29 H 355 a 22.82,22.82 0 0 1 2.8,1.09 v -1.09"
         id="path365" />
      <path
         class="cls-41"
         d="m 362.22,146.84 v 3.39 l 0.51,0.46 h 5 v -0.95 l -5,-2.66 -0.44,-0.24"
         id="path367" />
      <path
         class="cls-44"
         d="m 362.22,150.23 v 0 l 0.43,0.42 h 0.08 l -0.51,-0.46"
         id="path369" />
      <path
         class="cls-41"
         d="m 367.71,156.19 h -0.49 c 0.18,0.3 0.34,0.6 0.49,0.9 v -0.9 m 9.7,0 h -5.3 v 2.2 h 5.5 v -2 l -0.2,-0.21"
         id="path371" />
      <path
         class="cls-44"
         d="M 367.22,156.19 H 366 a 15.35,15.35 0 0 1 0.54,2.2 h 1.18 v -1.3 c -0.15,-0.3 -0.31,-0.6 -0.49,-0.9"
         id="path373" />
      <path
         class="cls-41"
         d="m 367.71,149.74 v 7.35 0 -0.9 h 4.4 v -4.09 q -0.67,-0.4 -1.38,-0.78 l -1.2,-0.63 h -1.82 v -0.95"
         id="path375" />
      <path
         class="cls-41"
         d="m 357.82,144.82 v 2.56 0 -1.09 h 3.35 a 31.83,31.83 0 0 0 -3.35,-1.47"
         id="path377" />
      <path
         class="cls-42"
         d="m 361.17,146.29 h -3.35 v 1.09 l 0.71,0.36 0.52,0.28 a 14,14 0 0 1 2.58,1.73 l 0.59,0.48 v -3.39 l -0.87,-0.45 -0.18,-0.1"
         id="path379" />
      <path
         class="cls-45"
         d="m 361.63,149.75 c 0.2,0.17 0.4,0.34 0.59,0.52 v 0 l -0.59,-0.48"
         id="path381" />
      <polyline
         class="cls-42"
         points="367.71 149.74 367.71 150.69 369.54 150.69 367.71 149.74"
         id="polyline383" />
      <path
         class="cls-42"
         d="m 372.11,156.19 h -4.4 v 0.9 c 0.22,0.43 0.41,0.86 0.59,1.3 h 3.81 v -2.2"
         id="path385" />
      <path
         class="cls-45"
         d="m 367.71,157.09 v 1.3 h 0.59 c -0.18,-0.44 -0.37,-0.87 -0.59,-1.3"
         id="path387" />
      <path
         class="cls-42"
         d="m 377.61,156.4 v 2 h 1.8 a 25.86,25.86 0 0 0 -1.8,-2"
         id="path389" />
      <path
         class="cls-41"
         d="m 350.12,143.2 v 2.23 0 a 20.78,20.78 0 0 1 2.2,0.23 v -2.23 c -0.74,-0.1 -1.47,-0.18 -2.2,-0.23"
         id="path391" />
    </g>
  </g>
  <path
     class="cls-37"
     d="m 347.91,43.45 5.19,2.73 a 1.44,1.44 0 0 0 1.95,-0.61 l 1.22,-2.32 a 1.44,1.44 0 0 0 -1.34,-2.11 l -5.69,0.22 a 0.33,0.33 0 0 0 -0.32,0.18 z"
     id="path397" />
  <path
     class="cls-38"
     d="m 346.2,79.38 -1.05,2 a 9.16,9.16 0 0 0 3.88,12.36 l 19,9.9 a 5.66,5.66 0 0 0 7.64,-2.4 l 0.05,-0.1 a 5.66,5.66 0 0 0 -2.4,-7.64 L 346.2,79.36"
     id="path399" />
  <g
     class="cls-47"
     clip-path="url(#clip-path-12)"
     id="g459"
     transform="translate(-15.85,-103.67)">
    <g
       class="cls-48"
       clip-path="url(#clip-path-13)"
       id="g421">
      <path
         class="cls-41"
         d="M 387.51,205.69 H 382 v 0.67 l 1.87,1 a 5.59,5.59 0 0 0 2.61,0.64 5.69,5.69 0 0 0 1,-0.09 v -2.19"
         id="path401" />
      <polyline
         class="cls-41"
         points="372.11 200.19 370.18 200.19 372.11 201.2 372.11 200.19"
         id="polyline403" />
      <polyline
         class="cls-41"
         points="382.01 200.19 377.61 200.19 377.61 204.06 380.73 205.69 382.01 205.69 382.01 200.19"
         id="polyline405" />
      <polyline
         class="cls-41"
         points="389.71 200.19 387.51 200.19 387.51 205.69 387.51 207.88 387.51 207.88 387.51 205.69 389.71 205.69 389.71 200.19"
         id="polyline407" />
      <polyline
         class="cls-42"
         points="382.01 205.69 382.01 205.69 380.73 205.69 382.01 206.36 382.01 205.69"
         id="polyline409" />
      <path
         class="cls-42"
         d="m 389.71,205.69 h -2.2 v 2.19 a 5.67,5.67 0 0 0 2.2,-0.9 v -1.29"
         id="path411" />
      <path
         class="cls-41"
         d="M 367.71,198 H 366 l 1.75,0.91 V 198 m 19.8,0 H 382 v 2.2 h -4.4 V 198 h -5.5 v 2.2 h 15.4 V 198"
         id="path413" />
      <polyline
         class="cls-42"
         points="372.11 197.99 367.71 197.99 367.71 198.9 370.18 200.19 372.11 200.19 372.11 197.99"
         id="polyline415" />
      <polyline
         class="cls-42"
         points="382.01 197.99 377.61 197.99 377.61 199.64 377.61 200.19 382.01 200.19 382.01 197.99"
         id="polyline417" />
      <polyline
         class="cls-42"
         points="389.71 197.99 387.51 197.99 387.51 199.64 387.51 200.19 389.71 200.19 389.71 197.99"
         id="polyline419" />
    </g>
    <g
       class="cls-49"
       clip-path="url(#clip-path-14)"
       id="g429">
      <path
         class="cls-41"
         d="m 391.84,200.19 h -2.13 v 5.5 h 1.34 a 6.45,6.45 0 0 0 0.47,-0.76 l 0.05,-0.1 a 5,5 0 0 0 0.34,-0.79 v -3.65 c 0,-0.07 -0.05,-0.14 -0.07,-0.2"
         id="path423" />
      <path
         class="cls-42"
         d="m 391.05,205.69 h -1.34 V 207 a 5.65,5.65 0 0 0 1.34,-1.29"
         id="path425" />
      <path
         class="cls-42"
         d="m 390.32,198 h -0.61 v 2.2 h 2.13 a 5.63,5.63 0 0 0 -1.52,-2.2"
         id="path427" />
    </g>
    <g
       class="cls-43"
       clip-path="url(#clip-path-9)"
       id="g453">
      <polyline
         class="cls-41"
         points="367.49 185.89 362.21 185.89 362.21 190.29 367.71 190.29 367.71 186 367.49 185.89"
         id="polyline431" />
      <polyline
         class="cls-41"
         points="372.11 188.3 372.11 190.29 375.93 190.29 372.11 188.3"
         id="polyline433" />
      <path
         class="cls-41"
         d="m 367.71,195.79 h -5.07 a 9.72,9.72 0 0 0 2.24,1.64 L 366,198 h 1.75 v -2.2 m 9.9,0 h -5.5 v 2.2 h 5.5 v -2.2 m 8.87,0 H 382 v 2.2 h 5.5 v -1.66 l -1,-0.54"
         id="path435" />
      <polyline
         class="cls-41"
         points="367.71 186 367.71 190.29 367.71 195.79 367.71 197.99 367.71 195.79 372.11 195.79 372.11 190.29 367.71 190.29 367.71 186"
         id="polyline437" />
      <polyline
         class="cls-41"
         points="377.61 191.17 377.61 195.79 377.61 197.99 377.61 195.79 382.01 195.79 382.01 193.46 377.61 191.17"
         id="polyline439" />
      <path
         class="cls-41"
         d="M 362.22,190.29 H 360 a 9.11,9.11 0 0 0 2.21,5 v -5 m -0.17,-7.24 -1.05,2 a 8.67,8.67 0 0 0 -0.38,0.82 h 1.6 v -2.75 l -0.17,-0.09"
         id="path441" />
      <path
         class="cls-42"
         d="m 362.22,185.89 h -1.6 a 9,9 0 0 0 -0.66,3.4 8.37,8.37 0 0 0 0.05,1 h 2.21 v -4.4"
         id="path443" />
      <polyline
         class="cls-42"
         points="367.71 186 367.71 190.29 372.11 190.29 372.11 188.3 367.71 186"
         id="polyline445" />
      <polyline
         class="cls-42"
         points="372.11 195.79 372.11 195.79 367.71 195.79 367.71 197.99 372.11 197.99 372.11 195.79"
         id="polyline447" />
      <polyline
         class="cls-42"
         points="382.01 195.79 382.01 195.79 377.61 195.79 377.61 197.99 382.01 197.99 382.01 195.79"
         id="polyline449" />
      <path
         class="cls-42"
         d="M 387.51,196.33 V 198 h 2.2 v -0.48 c -0.17,-0.11 -0.35,-0.22 -0.54,-0.32 l -1.66,-0.86"
         id="path451" />
    </g>
    <g
       class="cls-50"
       clip-path="url(#clip-path-16)"
       id="g457">
      <path
         class="cls-42"
         d="M 389.71,197.51 V 198 h 0.61 a 5.87,5.87 0 0 0 -0.61,-0.48"
         id="path455" />
    </g>
  </g>
  <path
     class="cls-51"
     d="m 338.88,83.33 -31.21,-16.42 7.54,-14.33 a 20.34,20.34 0 0 1 27.47,-8.54 l 0.52,0.28 a 14.34,14.34 0 0 1 6,19.36 l -10.32,19.65"
     id="path461" />
  <g
     class="cls-52"
     clip-path="url(#clip-path-17)"
     id="g567"
     transform="translate(-15.85,-103.67)">
    <g
       class="cls-34"
       clip-path="url(#clip-path-4)"
       id="g493">
      <path
         class="cls-53"
         d="m 338,176 h -4.27 l 4.27,2.25 V 176 m 9.9,0 h -5.5 v 4.4 h 5.5 V 176"
         id="path463" />
      <path
         class="cls-53"
         d="m 338,166.09 h -5.5 v 4.4 h 5.5 v -4.4 m 9.9,0 h -5.5 v 4.4 h 5.5 v -4.4"
         id="path465" />
      <polyline
         class="cls-53"
         points="328.12 166.09 325.89 166.09 323.58 170.49 328.12 170.49 328.12 166.09"
         id="polyline467" />
      <polyline
         class="cls-53"
         points="332.52 160.59 328.79 160.59 328.12 161.86 328.12 166.09 328.12 170.49 328.12 173.03 332.52 175.34 332.52 170.49 328.12 170.49 328.12 166.09 332.52 166.09 332.52 160.59"
         id="polyline469" />
      <path
         class="cls-53"
         d="m 342.42,180.39 h -0.31 l 0.31,0.16 v -0.16 m 0,-19.8 H 338 V 176 h 4.4 v -5.5 H 338 v -4.4 h 4.4 v -5.5"
         id="path471" />
      <polyline
         class="cls-53"
         points="350.12 160.59 347.92 160.59 347.92 166.09 347.92 170.49 347.92 175.99 347.92 180.39 347.92 183.44 350.12 184.6 350.12 180.39 347.92 180.39 347.92 175.99 350.12 175.99 350.12 170.49 347.92 170.49 347.92 166.09 350.12 166.09 350.12 160.59"
         id="polyline473" />
      <polyline
         class="cls-54"
         points="332.52 166.09 332.52 166.09 328.12 166.09 328.12 170.49 332.52 170.49 332.52 166.09"
         id="polyline475" />
      <polyline
         class="cls-54"
         points="342.42 166.09 342.42 166.09 338.02 166.09 338.02 170.49 342.42 170.49 342.42 166.09"
         id="polyline477" />
      <polyline
         class="cls-54"
         points="350.12 166.09 347.92 166.09 347.92 170.49 350.12 170.49 350.12 166.09"
         id="polyline479" />
      <polyline
         class="cls-54"
         points="342.42 175.99 342.42 175.99 338.02 175.99 338.02 178.24 342.11 180.39 342.42 180.39 342.42 175.99"
         id="polyline481" />
      <polyline
         class="cls-54"
         points="350.12 175.99 347.92 175.99 347.92 180.39 350.12 180.39 350.12 175.99"
         id="polyline483" />
      <polyline
         class="cls-53"
         points="347.92 158.39 342.42 158.39 342.42 160.59 338.02 160.59 338.02 160.04 338.02 158.39 332.52 158.39 332.52 160.59 328.79 160.59 338.02 160.59 347.92 160.59 350.12 160.59 347.92 160.59 347.92 160.04 347.92 158.39"
         id="polyline485" />
      <polyline
         class="cls-54"
         points="332.52 158.39 329.94 158.39 328.79 160.59 332.52 160.59 332.52 158.39"
         id="polyline487" />
      <polyline
         class="cls-54"
         points="342.42 158.39 338.02 158.39 338.02 160.04 338.02 160.59 342.42 160.59 342.42 158.39"
         id="polyline489" />
      <polyline
         class="cls-54"
         points="350.12 158.39 347.92 158.39 347.92 160.04 347.92 160.59 350.12 160.59 350.12 158.39"
         id="polyline491" />
    </g>
    <g
       class="cls-43"
       clip-path="url(#clip-path-9)"
       id="g519">
      <polyline
         class="cls-53"
         points="357.82 175.99 352.32 175.99 352.32 180.39 357.82 180.39 357.82 175.99"
         id="polyline495" />
      <path
         class="cls-53"
         d="m 357.82,166.09 h -5.5 v 4.4 h 5.5 v -4.4 m 7.85,0 h -3.45 v 4.4 h 1.21 l 1.64,-3.11 q 0.33,-0.63 0.6,-1.29"
         id="path497" />
      <polyline
         class="cls-53"
         points="355.33 185.89 352.57 185.89 354.74 187.03 355.33 185.89"
         id="polyline499" />
      <polyline
         class="cls-53"
         points="362.21 160.59 357.82 160.59 357.82 166.09 357.82 170.49 357.82 175.99 357.82 180.39 357.82 181.17 358.23 180.39 357.82 180.39 357.82 175.99 360.54 175.99 362.21 172.81 362.21 170.49 357.82 170.49 357.82 166.09 362.21 166.09 362.21 160.59"
         id="polyline501" />
      <polyline
         class="cls-54"
         points="362.21 166.09 362.21 166.09 357.82 166.09 357.82 170.49 362.21 170.49 362.21 166.09"
         id="polyline503" />
      <polyline
         class="cls-54"
         points="360.54 175.99 357.82 175.99 357.82 180.39 358.23 180.39 360.54 175.99"
         id="polyline505" />
      <path
         class="cls-53"
         d="m 352.32,180.39 h -2.2 v 4.21 l 2.2,1.16 v -5.37 m 0,-9.9 h -2.2 V 176 h 2.2 v -5.5 m 0,-9.9 h -2.2 v 5.5 h 2.2 v -5.5"
         id="path507" />
      <polyline
         class="cls-54"
         points="352.32 166.09 352.32 166.09 350.12 166.09 350.12 170.49 352.32 170.49 352.32 166.09"
         id="polyline509" />
      <polyline
         class="cls-54"
         points="352.32 175.99 352.32 175.99 350.12 175.99 350.12 180.39 352.32 180.39 352.32 175.99"
         id="polyline511" />
      <path
         class="cls-53"
         d="m 366.53,158.39 h -4.31 v 2.2 h -4.4 v -2.2 h -5.5 v 2.2 h 14.4 a 14.74,14.74 0 0 0 -0.19,-2.2 v 0"
         id="path513" />
      <polyline
         class="cls-54"
         points="362.21 158.39 357.82 158.39 357.82 160.04 357.82 160.59 362.21 160.59 362.21 158.39"
         id="polyline515" />
      <polyline
         class="cls-54"
         points="352.32 158.39 350.12 158.39 350.12 160.59 352.32 160.59 352.32 158.39"
         id="polyline517" />
    </g>
    <g
       class="cls-36"
       clip-path="url(#clip-path-6)"
       id="g543">
      <path
         class="cls-53"
         d="m 347.92,146.29 h -4.81 l -0.69,0.23 v 4.17 h 5.5 v -4.4"
         id="path521" />
      <path
         class="cls-53"
         d="m 338,148.66 a 20.68,20.68 0 0 0 -2.65,2 H 338 v -2"
         id="path523" />
      <path
         class="cls-53"
         d="m 338,156.19 h -5.5 v 2.2 h 5.5 v -2.2 m 9.9,0 h -5.5 v 2.2 h 5.5 v -2.2"
         id="path525" />
      <path
         class="cls-53"
         d="m 332.52,153.9 v 0 a 20.42,20.42 0 0 0 -1.42,2.29 h 1.42 v -2.29"
         id="path527" />
      <polyline
         class="cls-53"
         points="338.02 148.66 338.02 148.66 338.02 150.69 338.02 156.19 338.02 158.39 338.02 156.19 342.42 156.19 342.42 150.69 338.02 150.69 338.02 148.66"
         id="polyline529" />
      <path
         class="cls-53"
         d="m 349.08,145.4 c -0.39,0 -0.78,0 -1.16,0 v 10.76 h 2.2 v -5.5 h -2.2 v -4.4 h 2.2 v -0.86 0 h -1"
         id="path531" />
      <path
         class="cls-54"
         d="m 342.42,146.52 v 0 a 20.34,20.34 0 0 0 -4.4,2.14 v 2 h 4.4 v -4.17"
         id="path533" />
      <polyline
         class="cls-54"
         points="350.12 146.29 347.92 146.29 347.92 150.69 350.12 150.69 350.12 146.29"
         id="polyline535" />
      <path
         class="cls-54"
         d="m 332.52,156.19 h -1.42 v 0.09 l -1.12,2.11 h 2.58 v -2.2"
         id="path537" />
      <polyline
         class="cls-54"
         points="342.42 156.19 342.42 156.19 338.02 156.19 338.02 158.39 342.42 158.39 342.42 156.19"
         id="polyline539" />
      <polyline
         class="cls-54"
         points="350.12 156.19 347.92 156.19 347.92 158.39 350.12 158.39 350.12 156.19"
         id="polyline541" />
    </g>
    <g
       class="cls-46"
       clip-path="url(#clip-path-11)"
       id="g565">
      <path
         class="cls-53"
         d="m 362.22,150.27 v 0.42 h 0.43 l -0.43,-0.42"
         id="path545" />
      <path
         class="cls-53"
         d="m 355,146.29 h -2.7 v 4.4 h 5.5 v -3.31 0 a 22.82,22.82 0 0 0 -2.8,-1.09 v 0"
         id="path547" />
      <path
         class="cls-53"
         d="m 357.82,156.19 h -5.5 v 2.2 h 5.5 v -2.2 m 8.17,0 h -3.77 v 2.2 h 4.31 a 15.35,15.35 0 0 0 -0.54,-2.2 v 0"
         id="path549" />
      <polyline
         class="cls-53"
         points="357.82 147.38 357.82 150.69 357.82 156.19 357.82 158.39 357.82 156.19 362.21 156.19 362.21 150.69 357.82 150.69 357.82 147.38 357.82 147.38"
         id="polyline551" />
      <path
         class="cls-54"
         d="m 357.82,147.38 v 3.31 h 4.4 v -0.42 a 14.51,14.51 0 0 0 -3.17,-2.25 l -0.52,-0.28 -0.71,-0.36"
         id="path553" />
      <polyline
         class="cls-54"
         points="362.21 156.19 362.21 156.19 357.82 156.19 357.82 158.39 362.21 158.39 362.21 156.19"
         id="polyline555" />
      <polyline
         class="cls-53"
         points="352.32 150.69 350.12 150.69 350.12 156.19 352.32 156.19 352.32 150.69"
         id="polyline557" />
      <path
         class="cls-53"
         d="m 350.12,145.43 v 0.86 h 2.2 v -0.63 a 20.78,20.78 0 0 0 -2.2,-0.23"
         id="path559" />
      <polyline
         class="cls-54"
         points="352.32 146.29 352.32 146.29 350.12 146.29 350.12 150.69 352.32 150.69 352.32 146.29"
         id="polyline561" />
      <polyline
         class="cls-54"
         points="352.32 156.19 352.32 156.19 350.12 156.19 350.12 158.39 352.32 158.39 352.32 156.19"
         id="polyline563" />
    </g>
  </g>
  <path
     class="cls-37"
     d="m 308.15,67.2 7.38,-14 a 20.13,20.13 0 0 1 27.2,-8.45 14,14 0 0 1 5.89,19 l -10.22,19.43 1,0.52 10.22,-19.43 a 15.13,15.13 0 0 0 -6.35,-20.44 21.21,21.21 0 0 0 -28.68,8.91 l -7.38,14 1,0.52 z"
     id="path569" />
  <path
     class="cls-55"
     d="m 349.26,44.16 -3.66,-1.92 1.14,-2.17 2,1 a 1.94,1.94 0 0 1 0.81,2.61 z"
     id="path571" />
  <path
     class="cls-56"
     d="m 341.6,47.12 -4.95,-2.6 c 1.25,-2.39 4.09,-3.27 5.47,-3.57 a 2.09,2.09 0 0 1 1.39,0.18 l 4.86,2.56 c 0,0 -5.15,0.36 -6.77,3.43 z"
     id="path573" />
  <path
     class="cls-37"
     d="m 347.27,43.11 -9,-4.74 a 1.38,1.38 0 0 1 -0.57,-1.86 l 1.51,-2.87 a 2,2 0 0 1 3.29,-0.34 l 5.08,6.16 a 2.36,2.36 0 0 1 0.27,2.61 z"
     id="path575" />
  <polyline
     class="cls-37"
     points="351.24 148.15 358.8 152.12 359.31 151.15 351.75 147.17"
     id="polyline577"
     transform="translate(-15.85,-103.67)" />
  <polyline
     class="cls-37"
     points="380.9 192.65 371.84 187.88 371.65 188.25 380.71 193.01"
     id="polyline579"
     transform="translate(-15.85,-103.67)" />
  <path
     class="cls-21"
     d="m 254.09,261.43 h 32.25 L 295,214.82 c 0.63,-3.25 1.51,-6.14 1.51,-9.3 v -63.25 l -9,-7.11 -16.36,5.07 v 54.79 a 91.5,91.5 0 0 1 -4.58,28.57 z"
     id="path581" />
  <polyline
     class="cls-57"
     points="365.43 236.3 362.99 235.3 366.71 226.16 369.16 227.15 365.43 236.3"
     id="polyline583"
     transform="translate(-15.85,-103.67)" />
  <polyline
     class="cls-58"
     points="363.85 235.65 362.99 235.3 366.71 226.16 367.58 226.51 363.85 235.65"
     id="polyline585"
     transform="translate(-15.85,-103.67)" />
  <path
     class="cls-23"
     d="m 296.51,185.62 -13,-22.09 6.5,-5.27 -9.64,-1.93 1,-19.61 a 4.59,4.59 0 0 1 4.58,-4.34 l 10.51,7.87 z"
     id="path587" />
  <path
     class="cls-56"
     d="m 338.61,158.54 -1.74,-0.71 a 2.07,2.07 0 0 1 -1.14,-2.7 l 10.05,-24.66 a 1.2,1.2 0 0 1 1.56,-0.65 l 3.36,1.37 a 1.2,1.2 0 0 1 0.66,1.56 l -10,24.66 a 2.07,2.07 0 0 1 -2.75,1.13 z"
     id="path589" />
  <path
     class="cls-20"
     d="m 349.96,152.66 -3.46,-0.52 a 3.82,3.82 0 0 1 -3.2,-4.36 l 1,-6.47 a 11.51,11.51 0 0 1 13.12,-9.65 3.83,3.83 0 0 1 3.2,4.36 l -1.51,9.92 a 8,8 0 0 1 -9.15,6.72 z"
     id="path591" />
  <rect
     class="cls-57"
     x="-15.800695"
     y="368.8887"
     width="2.05"
     height="7.1199999"
     rx="0.56"
     transform="rotate(-67.83)"
     id="rect593" />
  <path
     class="cls-28"
     d="m 343.82,150.87 a 3.35,3.35 0 0 0 0.65,0.8 4.09,4.09 0 0 0 2.12,1 l 4.06,0.65 0.08,-0.55 -1.34,-0.21 -2.71,-0.43 a 3.48,3.48 0 0 1 -1.83,-0.89 3.18,3.18 0 0 1 -0.42,-0.46 l -0.1,-0.14 v 0 0 l -0.49,0.26 z"
     id="path595" />
  <path
     class="cls-58"
     d="m 363.9,117.93 c 2.21,-5.43 1.4,-11.19 -1.66,-14.7 l 0.38,-0.93 -3.2,-1.31 c -0.26,-0.13 -0.52,-0.26 -0.8,-0.37 -5.84,-2.38 -13,1.51 -15.87,8.69 -2.87,7.18 -0.57,14.94 5.27,17.32 l 4,1.63 0.4,-1 c 4.64,-0.38 9.24,-3.92 11.46,-9.36"
     id="path597" />
  <path
     class="cls-59"
     d="m 367.15,119.24 c -2.92,7.18 -10,11.07 -15.87,8.69 -5.87,-2.38 -8.21,-10.13 -5.28,-17.31 2.93,-7.18 10,-11.07 15.88,-8.69 5.88,2.38 8.2,10.13 5.27,17.31"
     id="path599" />
  <path
     class="cls-60"
     d="m 365.15,118.46 c -2.44,6 -8.2,9.28 -12.87,7.38 -4.67,-1.9 -6.49,-8.3 -4.05,-14.28 2.44,-5.98 8.2,-9.28 12.87,-7.38 4.67,1.9 6.49,8.3 4.05,14.28"
     id="path601" />
  <g
     class="cls-61"
     clip-path="url(#clip-path-22)"
     id="g605"
     transform="translate(-15.85,-103.67)">
    <rect
       class="cls-62"
       x="364.01001"
       y="207.32001"
       width="12.98"
       height="8.1899996"
       id="rect603" />
  </g>
  <path
     class="cls-63"
     d="m 348.29,111.52 v 0 0 0 m 0,-0.05 v 0 0 m 10,-7.82 v 0 c -3.95,0 -8.05,3 -10,7.81 a 14,14 0 0 1 3.56,-5.08 2.24,2.24 0 0 1 0.68,3.51 l -2.24,2.58 a 2.22,2.22 0 0 1 -1.7,0.78 2.34,2.34 0 0 1 -0.86,-0.16 c 0.15,-0.5 0.31,-1 0.51,-1.5 v 0 0 0 0 0 0.08 0 0 0 0 0 a 13.5,13.5 0 0 0 -0.58,8.21 l 1.9,-1.85 a 14.76,14.76 0 0 1 0.9,-3.2 c 1.92,-4.7 5.88,-7.75 9.76,-7.92 0.63,-0.82 1.22,-1.66 1.79,-2.51 -0.25,-0.14 -0.52,-0.27 -0.79,-0.39 v 0 a 7.41,7.41 0 0 0 -2.74,-0.52 v 0"
     id="path607" />
  <path
     class="cls-64"
     d="m 355.09,126.38 v 0 m -2.8,-0.55 v 0 m 0,0 v 0 m 0,0 v 0 m 12.9,-7.26 c -2,4.78 -6.09,7.82 -10.05,7.83 4,0 8.07,-3.05 10.05,-7.83 m 0,-0.09 v 0.08 -0.08 m 0,0 v 0 m 0,0 v 0"
     id="path609" />
  <path
     class="cls-65"
     d="m 360.48,107.08 h -0.33 a 45.54,45.54 0 0 1 -4.44,5 l -6.22,6.09 a 12.43,12.43 0 0 0 0.46,6.06 7.33,7.33 0 0 0 2.31,1.55 h 0.07 a 7.38,7.38 0 0 0 2.77,0.54 v 0 c 4,0 8.07,-3.05 10.05,-7.83 v 0 -0.08 0 0 0 0 0 a 13.23,13.23 0 0 0 0.41,-9.19 7.1,7.1 0 0 0 -2.38,-1.57 7.19,7.19 0 0 0 -2.77,-0.54"
     id="path611" />
  <path
     class="cls-66"
     d="m 360.15,107.08 c -3.88,0.17 -7.84,3.22 -9.76,7.92 a 14.76,14.76 0 0 0 -0.9,3.2 l 6.22,-6.09 a 45.54,45.54 0 0 0 4.44,-5"
     id="path613" />
  <path
     class="cls-67"
     d="m 348.29,111.51 v 0 m 0,-0.05 v 0"
     id="path615" />
  <path
     class="cls-68"
     d="m 348.27,111.56 v 0 0 0 m 0,0 v 0 m 0,-0.05 v 0"
     id="path617" />
  <path
     class="cls-69"
     d="m 351.87,106.38 a 14,14 0 0 0 -3.56,5.08 v 0 0 0 0 0 0 c -0.2,0.5 -0.36,1 -0.51,1.5 a 2.34,2.34 0 0 0 0.86,0.16 2.22,2.22 0 0 0 1.7,-0.78 l 2.24,-2.58 a 2.24,2.24 0 0 0 -0.68,-3.51"
     id="path619" />
  <polygon
     class="cls-70"
     points="299.92,316.23 285.65,314.17 286.17,310.72 300.33,312.73 "
     id="polygon621"
     transform="translate(-15.85,-103.67)" />
  <path
     class="cls-20"
     d="m 234.24,209.87 -3.63,-7.78 a 3.79,3.79 0 0 1 1.83,-5 l 5.26,-2.46 a 3.61,3.61 0 0 1 4.79,1.74 l 4.94,10.57 a 4.63,4.63 0 0 1 -2.23,6.15 l -1,0.45 a 7.53,7.53 0 0 1 -9.96,-3.67 z"
     id="path623" />
  <path
     class="cls-20"
     d="m 240.66,198.48 -0.34,-0.65 0.31,0.66 v 0 l -0.34,-0.65 0.31,0.66 a 2.28,2.28 0 0 1 0.92,-0.18 2.07,2.07 0 0 1 0.74,0.13 3.1,3.1 0 0 1 1.38,1.2 10.69,10.69 0 0 1 1.51,3.87 1.65,1.65 0 0 0 3.22,-0.72 16.93,16.93 0 0 0 -1.23,-3.69 7.86,7.86 0 0 0 -2.68,-3.22 5.3,5.3 0 0 0 -2.94,-0.87 5.68,5.68 0 0 0 -1.68,0.25 4.29,4.29 0 0 0 -0.74,0.3 1.65,1.65 0 1 0 1.53,2.92 z"
     id="path625" />
  <polyline
     class="cls-71"
     points="261.71 307.01 259.91 303.15 259.66 303.27 261.46 307.12"
     id="polyline627"
     transform="translate(-15.85,-103.67)" />
  <path
     class="cls-72"
     d="m 1086.82,318.84 a 19.93,19.93 0 0 0 -19.27,-25.09 19.27,19.27 0 0 0 -2,0.11 33.19,33.19 0 0 0 -41.19,-25.53 33.18,33.18 0 0 0 -63.52,-8.56 20.46,20.46 0 0 0 -5.4,-0.72 20.67,20.67 0 0 0 -18.66,11.79 32.46,32.46 0 0 0 -30.63,32.33 v 5 a 32.14,32.14 0 0 0 -39.45,25.48 h 201.1 l 15.2,-0.1 h 15.21 a 15.3,15.3 0 0 0 -11.39,-14.71 z"
     id="path629" />
  <path
     class="cls-73"
     d="m 404.76,341.46 h -4.43 c -1.57,0 -2.82,1.7 -2.62,3.67 a 3,3 0 0 0 2.74,2.85 h 4.31 a 1,1 0 0 0 0.91,-1.12 v -4.28 a 1,1 0 0 0 -0.91,-1.12"
     id="path631" />
  <path
     class="cls-73"
     d="m 423.34,341.46 h -14.3 a 1.07,1.07 0 0 0 -0.95,1.16 v 4.19 a 1.07,1.07 0 0 0 0.95,1.17 h 14.42 c 1.56,0 2.82,-1.7 2.62,-3.68 a 3,3 0 0 0 -2.74,-2.84"
     id="path633" />
  <path
     class="cls-73"
     d="m 497.98,323.33 h -4.44 c -1.56,0 -2.82,1.7 -2.62,3.68 a 3,3 0 0 0 2.74,2.85 h 4.32 a 1,1 0 0 0 0.9,-1.12 v -4.31 a 1,1 0 0 0 -0.9,-1.12"
     id="path635" />
  <path
     class="cls-73"
     d="m 516.56,323.33 h -14.31 a 1.08,1.08 0 0 0 -1,1.17 v 4.19 a 1.08,1.08 0 0 0 1,1.17 h 14.42 c 1.57,0 2.82,-1.7 2.62,-3.68 a 3,3 0 0 0 -2.73,-2.85"
     id="path637" />
  <path
     class="cls-73"
     d="m 591.62,341.46 h -4.47 c -1.57,0 -2.83,1.7 -2.62,3.67 a 3,3 0 0 0 2.73,2.85 h 4.32 a 1,1 0 0 0 0.91,-1.12 v -4.28 a 1,1 0 0 0 -0.91,-1.12"
     id="path639" />
  <path
     class="cls-73"
     d="m 610.2,341.46 h -14.31 a 1.07,1.07 0 0 0 -0.94,1.16 v 4.19 a 1.07,1.07 0 0 0 0.94,1.17 h 14.43 c 1.56,0 2.82,-1.7 2.62,-3.68 a 3,3 0 0 0 -2.74,-2.84"
     id="path641" />
  <path
     class="cls-73"
     d="m 785.27,341.46 h -4.43 c -1.57,0 -2.82,1.7 -2.62,3.67 a 3,3 0 0 0 2.73,2.85 h 4.32 a 1,1 0 0 0 0.91,-1.12 v -4.28 a 1,1 0 0 0 -0.91,-1.12"
     id="path643" />
  <path
     class="cls-73"
     d="m 803.85,341.46 h -14.3 a 1.07,1.07 0 0 0 -0.95,1.16 v 4.19 a 1.07,1.07 0 0 0 0.95,1.17 h 14.42 c 1.56,0 2.82,-1.7 2.62,-3.68 a 3,3 0 0 0 -2.74,-2.84"
     id="path645" />
  <path
     class="cls-73"
     d="m 695.99,323.33 h -4.44 c -1.56,0 -2.82,1.7 -2.62,3.68 a 3,3 0 0 0 2.74,2.85 h 4.32 a 1,1 0 0 0 0.9,-1.12 v -4.31 a 1,1 0 0 0 -0.9,-1.12"
     id="path647" />
  <path
     class="cls-73"
     d="m 714.57,323.33 h -14.31 a 1.08,1.08 0 0 0 -0.94,1.17 v 4.19 a 1.08,1.08 0 0 0 0.94,1.17 h 14.42 c 1.57,0 2.82,-1.7 2.62,-3.68 a 3,3 0 0 0 -2.73,-2.85"
     id="path649" />
  <polyline
     class="cls-57"
     points="53.67 438.14 320.13 438.14 320.13 436.49 53.67 436.49"
     id="polyline651"
     transform="translate(-15.85,-103.67)" />
  <polyline
     class="cls-57"
     points="372.36 436.49 343.51 436.49 343.51 438.14 372.36 438.14"
     id="polyline653"
     transform="translate(-15.85,-103.67)" />
  <polyline
     class="cls-57"
     points="1008.91 438.14 1282.97 438.14 1282.97 436.49 1008.91 436.49"
     id="polyline655"
     transform="translate(-15.85,-103.67)" />
</svg>
