<svg id="Layer_1" data-name="Layer 1" xmlns="http://www.w3.org/2000/svg" viewBox="0 0 819.38 204.85"><defs><style>.cls-1{fill:#fe4c00;}.cls-2{font-size:72.88px;font-family:Somatic-Rounded, Somatic;}.cls-2,.cls-3{fill:#fff;}.cls-4{fill:none;stroke:#fff;stroke-linecap:round;stroke-miterlimit:10;stroke-width:1.5px;}</style></defs><title>Thankyou</title><rect class="cls-1" x="19.71" y="36.4" width="774.3" height="133.71" rx="43.73"/><text class="cls-2" transform="translate(235.89 130.36)">Online booking</text><path class="cls-3" d="M145.33,133.72l1.78,1,25.75-47.25a7,7,0,0,0,.84-4,7.15,7.15,0,0,0-4.43-5.94,7,7,0,0,0-4.11-.34L112.53,88.33a5.33,5.33,0,0,0-4.19,4.4,5.35,5.35,0,0,0,1,4.07L117,107.09a1.28,1.28,0,0,1,.25,1,1.31,1.31,0,0,1-.52.87L91,128.15a5.38,5.38,0,0,0-1.1,7.53l5.52,7.4a5.38,5.38,0,0,0,7.53,1.1L128.69,125a1.33,1.33,0,0,1,1.86.27l7.52,10.09a5.35,5.35,0,0,0,3.62,2.12,5.43,5.43,0,0,0,3.91-1,5.55,5.55,0,0,0,1.51-1.74l-1.78-1-1.78-1a1.44,1.44,0,0,1-.37.43,1.4,1.4,0,0,1-1,.25,1.3,1.3,0,0,1-.88-.52l-7.52-10.1a5.4,5.4,0,0,0-3.54-2.1,5.33,5.33,0,0,0-4,1l-25.76,19.21a1.35,1.35,0,0,1-1,.25,1.37,1.37,0,0,1-.87-.52l-5.52-7.4a1.33,1.33,0,0,1,.27-1.86l25.76-19.2a5.39,5.39,0,0,0,1.09-7.53l-7.67-10.29a1.29,1.29,0,0,1-.25-1,1.31,1.31,0,0,1,1-1.09L166,81.09a3,3,0,0,1,1.75.13,3.18,3.18,0,0,1,1.31,1,3.12,3.12,0,0,1,.6,1.54,3,3,0,0,1-.37,1.72l-25.75,47.25Z"/><line class="cls-4" x1="195.29" y1="64.89" x2="182.41" y2="73.83"/><line class="cls-4" x1="201.24" y1="89.72" x2="185.98" y2="86.16"/><line class="cls-4" x1="174.19" y1="51.19" x2="171.45" y2="66.62"/></svg>