<?xml version="1.0" encoding="UTF-8" standalone="no"?>
<svg
   xmlns:dc="http://purl.org/dc/elements/1.1/"
   xmlns:cc="http://creativecommons.org/ns#"
   xmlns:rdf="http://www.w3.org/1999/02/22-rdf-syntax-ns#"
   xmlns:svg="http://www.w3.org/2000/svg"
   xmlns="http://www.w3.org/2000/svg"
   xmlns:sodipodi="http://sodipodi.sourceforge.net/DTD/sodipodi-0.dtd"
   xmlns:inkscape="http://www.inkscape.org/namespaces/inkscape"
   viewBox="0 0 708.58 708.58002"
   version="1.1"
   id="svg2393"
   sodipodi:docname="thank-you-phone.svg"
   inkscape:version="1.0.1 (0767f8302a, 2020-10-17)">
  <metadata
     id="metadata2397">
    <rdf:RDF>
      <cc:Work
         rdf:about="">
        <dc:format>image/svg+xml</dc:format>
        <dc:type
           rdf:resource="http://purl.org/dc/dcmitype/StillImage" />
        <dc:title>Thankyou</dc:title>
      </cc:Work>
    </rdf:RDF>
  </metadata>
  <sodipodi:namedview
     pagecolor="#ffffff"
     bordercolor="#666666"
     borderopacity="1"
     objecttolerance="10"
     gridtolerance="10"
     guidetolerance="10"
     inkscape:pageopacity="0"
     inkscape:pageshadow="2"
     inkscape:window-width="1920"
     inkscape:window-height="1015"
     id="namedview2395"
     showgrid="false"
     inkscape:zoom="0.87831364"
     inkscape:cx="358.92"
     inkscape:cy="356.26001"
     inkscape:window-x="0"
     inkscape:window-y="36"
     inkscape:window-maximized="1"
     inkscape:current-layer="svg2393" />
  <defs
     id="defs2310">
    <style
       id="style2295">.cls-1{isolation:isolate;}.cls-2{fill:url(#linear-gradient);}.cls-3{opacity:0.86;mix-blend-mode:multiply;}.cls-4{fill:#ffefca;}.cls-5{fill:#f9e2b2;}.cls-6{fill:#eb5929;}.cls-7{fill:#ffdb94;}.cls-8{fill:#fd8f04;}.cls-9{fill:#5b3103;}.cls-10{fill:#faa747;}.cls-11{fill:#fc4c01;}.cls-12{fill:#101d23;}.cls-13{fill:#fdd307;}.cls-14{fill:#ffd505;}.cls-15{fill:none;stroke:#fe4c00;stroke-miterlimit:10;}</style>
    <linearGradient
       id="linear-gradient"
       x1="401.07001"
       y1="759.34998"
       x2="401.07001"
       y2="50.77"
       gradientUnits="userSpaceOnUse">
      <stop
         offset="0"
         stop-color="#ffe7a3"
         id="stop2297" />
      <stop
         offset="0.14"
         stop-color="#ffedba"
         id="stop2299" />
      <stop
         offset="0.37"
         stop-color="#fff5d8"
         id="stop2301" />
      <stop
         offset="0.59"
         stop-color="#fffaee"
         id="stop2303" />
      <stop
         offset="0.8"
         stop-color="#fffefb"
         id="stop2305" />
      <stop
         offset="1"
         stop-color="#fff"
         id="stop2307" />
    </linearGradient>
  </defs>
  <title
     id="title2312">Thankyou</title>
  <g
     class="cls-1"
     id="g2391"
     transform="translate(-46.779999,-50.769989)">
    <g
       id="Layer_1"
       data-name="Layer 1">
      <circle
         class="cls-2"
         cx="401.07001"
         cy="405.06"
         r="354.29001"
         id="circle2314"
         style="fill:url(#linear-gradient)" />
      <g
         class="cls-3"
         id="g2352">
        <path
           class="cls-4"
           d="m 206.31,387.72 c 0,0 -1.68,-0.48 -4.51,-1.64 a 107.14,107.14 0 0 1 -11.48,-5.59 110.62,110.62 0 0 1 -15.57,-10.41 c -2.77,-2.19 -5.42,-4.64 -8.31,-7.31 a 106.46,106.46 0 0 1 -8.39,-8.84 c -10.88,-13 -20.91,-30.23 -27.89,-54.64 -0.88,-3.05 -1.7,-6.23 -2.44,-9.55 -0.74,-3.32 -1.65,-6.68 -2.36,-10.24 -0.71,-3.56 -1.39,-7.24 -2,-11.1 -0.61,-3.86 -1.35,-7.76 -1.91,-11.89 -0.56,-4.13 -1,-8.45 -1.59,-12.88 -0.59,-4.43 -1.1,-9 -1.55,-13.83 q -0.32,-3.6 -0.63,-7.35 c -0.26,-2.48 -0.51,-5 -0.77,-7.57 -0.49,-5.14 -0.91,-10.51 -1.29,-16.11 l 5.21,7.66 c 3.3,4.88 8.14,11.8 13.37,20.36 l 4.17,6.64 c 1.46,2.28 2.93,4.66 4.33,7.15 2.88,5 5.9,10.18 9,15.58 l 9,16.89 c 0.76,1.44 1.53,2.88 2.29,4.33 l 2.16,4.42 c 1.43,2.95 2.88,5.91 4.32,8.86 A 629.75,629.75 0 0 1 196.79,357 c 3.09,9.18 5.4,16.88 7.14,22.24 1.57,5.39 2.38,8.48 2.38,8.48 z"
           id="path2316" />
        <path
           class="cls-5"
           d="m 206.31,387.72 a 31.88,31.88 0 0 0 3.31,-2.74 52.09,52.09 0 0 0 7.43,-8.56 63,63 0 0 0 7.54,-14.94 65.59,65.59 0 0 0 3.64,-21.82 c 0.27,-16.85 -5.23,-38.65 -22.17,-63.6 q -3.18,-4.68 -6.83,-9.48 c -2.47,-3.2 -5.26,-6.38 -8.13,-9.63 -2.87,-3.25 -5.95,-6.52 -9.18,-9.83 -3.23,-3.31 -6.9,-6.54 -10.61,-9.84 -3.71,-3.3 -7.56,-6.63 -11.78,-9.89 -4.22,-3.26 -8.66,-6.5 -13.27,-9.75 -2.31,-1.62 -4.64,-3.24 -7.06,-4.85 -2.42,-1.61 -5,-3.15 -7.57,-4.72 q -7.71,-4.69 -16,-9.3 l 5.21,7.66 c 3.3,4.88 8.14,11.8 13.37,20.36 l 4.17,6.64 c 1.46,2.28 2.93,4.66 4.33,7.15 2.88,5 5.9,10.18 9,15.58 l 9,16.89 c 0.76,1.44 1.53,2.88 2.29,4.33 l 2.16,4.42 c 1.43,2.95 2.88,5.91 4.32,8.86 A 629.75,629.75 0 0 1 196.79,357 c 3.09,9.18 5.4,16.88 7.14,22.24 1.57,5.39 2.38,8.48 2.38,8.48 z"
           id="path2318" />
        <path
           class="cls-5"
           d="m 171.65,481.55 c 0.56,0.61 1.35,1.54 2.37,2.69 a 105.34,105.34 0 0 1 8.13,10.85 v 0 a 159.84,159.84 0 0 1 9.45,16.54 v 0 c 3.12,6.2 6.09,13 9,19.74 v 0 c 2.85,6.79 5.72,13.52 8.17,20 v -0.07 0.07 a 133.4,133.4 0 0 1 5.59,18.25 v 0 a 79.54,79.54 0 0 1 1.86,13.53 v 0 0 c 0.06,1 0.07,2 0.07,2.72 0,0.34 6.25,56.15 6.25,56.42 L 218,642.15 c 0,-0.23 -6.25,-56 -6.25,-56.27 0,-0.69 0,-1.55 -0.07,-2.54 v 0 a 75.38,75.38 0 0 0 -1.76,-12.74 v 0 A 129.89,129.89 0 0 0 204.5,553 v 0 c -2.39,-6.36 -5.28,-13.12 -8.1,-19.86 v 0 c -2.86,-6.73 -5.79,-13.41 -8.86,-19.48 v 0 a 158.65,158.65 0 0 0 -9.18,-16.07 v 0 a 102.17,102.17 0 0 0 -7.8,-10.41 v 0 c -0.9,-1 -1.61,-1.85 -2.19,-2.48 z"
           id="path2320" />
        <polygon
           class="cls-5"
           points="217.43,568.99 217.43,569 "
           id="polygon2322" />
        <polygon
           class="cls-5"
           points="209.91,570.65 209.91,570.66 "
           id="polygon2324" />
        <line
           class="cls-5"
           x1="178.37"
           y1="497.60001"
           x2="178.36"
           y2="497.59"
           id="line2326" />
        <polygon
           class="cls-5"
           points="204.49,553 204.5,553.01 "
           id="polygon2328" />
        <path
           class="cls-4"
           d="m 179.74,496.59 c 0,0 -0.9,0.13 -2.47,0.24 -1.57,0.11 -3.77,0.17 -6.37,0.12 a 118.36,118.36 0 0 1 -17.85,-1.82 c -1.51,-0.25 -2.93,-0.59 -4.4,-0.94 a 31.8,31.8 0 0 1 -4.31,-1.53 53.25,53.25 0 0 1 -10,-5.9 c -1,-0.73 -2.08,-1.43 -3.15,-2.29 -1.07,-0.86 -2.33,-1.68 -3.56,-2.66 -2.55,-1.86 -5.33,-4.05 -8.51,-6.45 -6.31,-4.87 -14.1,-10.78 -23.13,-18.18 l 4.16,0.27 c 2.65,0.19 6.44,0.47 11,1 9,1 21.16,2.82 32.54,7.18 a 72.91,72.91 0 0 1 15.76,8.25 l 1.74,1.21 c 0.55,0.43 1.08,0.88 1.62,1.31 1.06,0.86 2.12,1.68 3.05,2.6 l 1.42,1.31 1.3,1.34 c 0.88,0.87 1.66,1.76 2.4,2.62 a 82,82 0 0 1 6.61,8.8 c 1.41,2.21 2.15,3.52 2.15,3.52 z"
           id="path2330" />
        <path
           class="cls-5"
           d="m 179.74,496.59 a 18.36,18.36 0 0 0 1.36,-2.09 30,30 0 0 0 2.65,-6 28.59,28.59 0 0 0 1.38,-9.68 31.28,31.28 0 0 0 -3.24,-12.88 35.59,35.59 0 0 0 -4.6,-7 42,42 0 0 0 -6.92,-6.67 48.56,48.56 0 0 0 -20.29,-8.87 59.74,59.74 0 0 0 -6.1,-0.81 c -2.08,-0.16 -4.2,-0.15 -6.37,-0.13 a 66.17,66.17 0 0 0 -13.34,2 c -9.12,2.25 -18.48,6.56 -28.3,12.81 l 4.16,0.27 c 2.65,0.19 6.44,0.47 11,1 9,1 21.16,2.82 32.54,7.18 a 72.91,72.91 0 0 1 15.76,8.25 l 1.74,1.21 c 0.55,0.43 1.08,0.88 1.62,1.31 1.06,0.86 2.12,1.68 3.05,2.6 l 1.42,1.31 1.3,1.34 c 0.88,0.87 1.66,1.76 2.4,2.62 a 82,82 0 0 1 6.61,8.8 c 1.43,2.12 2.17,3.43 2.17,3.43 z"
           id="path2332" />
        <path
           class="cls-5"
           d="m 198.1,351.85 2.13,6 c 1.62,4.8 3.76,11.76 6.42,20.09 4.82,16.73 11,39.09 14.83,61.57 v 0 l 0.82,4.21 0.66,4.19 c 0.43,2.82 0.87,5.62 1.3,8.41 0.43,2.79 0.85,5.53 1.27,8.25 0.42,2.72 0.63,5.35 0.95,8 v 0 c 0.59,5.32 1.23,10.44 1.7,15.26 0.47,4.82 0.69,9.44 1,13.67 q 0.22,3.18 0.44,6.07 c 0.11,1.87 0.13,3.67 0.2,5.44 v 0 c 0.11,3.44 0.2,6.45 0.28,8.92 0.08,2.47 -2.47,108.23 -2.42,109.55 L 221.35,631 c 0,-1.31 2.5,-107.29 2.41,-109.87 -0.07,-2.43 -0.17,-5.39 -0.27,-8.78 v 0 c -0.07,-1.65 -0.09,-3.48 -0.21,-5.44 v 0 0 c -0.14,-1.9 -0.28,-3.9 -0.44,-6 -0.3,-4.18 -0.63,-8.7 -1,-13.49 v -0.05 c -0.47,-4.83 -1.11,-9.89 -1.68,-15.09 v 0 0 c -0.31,-2.58 -0.57,-5.25 -0.95,-8 v 0 c -0.41,-2.68 -0.84,-5.4 -1.26,-8.14 -0.42,-2.74 -0.85,-5.51 -1.27,-8.28 v 0 l -0.65,-4.2 -0.82,-4.19 c -3.85,-22.39 -10,-44.54 -14.71,-61.06 v -0.06 c -2.63,-8.21 -4.73,-15.07 -6.35,-19.89 v 0 c -0.81,-2.26 -1.44,-4 -1.9,-5.31 z"
           id="path2334" />
        <path
           class="cls-5"
           d="m 280.57,423 -3,5.6 c -2.28,4.53 -5.38,11.12 -9.19,19 -7.1,15.86 -16.38,37.12 -23.38,58.83 v 0 l -1.41,4.06 -1.24,4.05 -2.47,8.14 -2.43,8 c -0.74,2.59 -1.38,5.21 -2.07,7.82 v 0 c -1.33,5.18 -2.69,10.16 -3.83,14.86 -1.14,4.7 -2,9.25 -2.92,13.39 -0.45,2.08 -0.89,4.06 -1.3,6 -0.41,1.94 -0.65,3.62 -1,5.35 v 0 c -0.6,3.39 -1.12,6.35 -1.54,8.78 -0.42,2.43 -5.27,51.15 -5.5,52.44 l 6.33,0.42 c 0.23,-1.28 5.11,-50.21 5.55,-52.75 0.44,-2.54 0.93,-5.31 1.52,-8.65 v 0 c 0.3,-1.63 0.57,-3.43 1,-5.36 v 0 q 0.6,-2.8 1.28,-5.88 c 0.89,-4.09 1.86,-8.52 2.88,-13.21 v 0 c 1.14,-4.71 2.49,-9.63 3.79,-14.7 v 0 0 c 0.67,-2.51 1.3,-5.12 2.06,-7.78 v 0 0 c 0.79,-2.6 1.59,-5.24 2.4,-7.89 0.81,-2.65 1.62,-5.33 2.43,-8 v 0 l 1.25,-4.07 1.4,-4 c 7,-21.62 16.14,-42.69 23.19,-58.37 v 0 c 3.76,-7.76 6.81,-14.25 9.1,-18.8 v 0 0 l 2.63,-5 z"
           id="path2336" />
        <path
           class="cls-4"
           d="m 267.37,457.34 c 0,0 1.73,-0.24 4.7,-1 a 106.35,106.35 0 0 0 12.16,-3.91 111.58,111.58 0 0 0 16.88,-8.11 c 3.05,-1.77 6,-3.83 9.25,-6.06 a 105,105 0 0 0 9.56,-7.56 c 12.61,-11.31 25,-27 35.33,-50.15 q 2,-4.35 3.78,-9.11 c 1.23,-3.16 2.57,-6.38 3.77,-9.8 1.2,-3.42 2.4,-7 3.52,-10.71 1.12,-3.71 2.44,-7.5 3.58,-11.5 1.14,-4 2.2,-8.23 3.39,-12.53 1.19,-4.3 2.37,-8.78 3.49,-13.47 0.55,-2.35 1.1,-4.75 1.67,-7.19 l 1.83,-7.38 q 1.82,-7.55 3.55,-15.77 l -6.24,6.91 c -4,4.36 -9.73,10.53 -16.11,18.27 -1.63,1.91 -3.32,3.91 -5.07,6 -1.75,2.09 -3.56,4.2 -5.3,6.46 -3.55,4.5 -7.28,9.25 -11.15,14.15 l -11.33,15.44 -2.88,4 -2.75,3.96 -5.54,8.17 a 628.62,628.62 0 0 0 -36.32,61.81 c -4.36,8.65 -7.73,15.95 -10.22,21 -2.31,5.13 -3.55,8.08 -3.55,8.08 z"
           id="path2338" />
        <path
           class="cls-5"
           d="m 267.37,457.34 a 32.66,32.66 0 0 1 -2.89,-3.18 52.13,52.13 0 0 1 -6.15,-9.53 63.18,63.18 0 0 1 -5.33,-15.85 65.26,65.26 0 0 1 -0.52,-22.11 c 2.11,-16.72 10.64,-37.53 30.93,-59.84 q 3.81,-4.17 8.11,-8.42 c 2.89,-2.81 6.1,-5.57 9.4,-8.38 3.3,-2.81 6.81,-5.62 10.48,-8.43 3.67,-2.81 7.75,-5.5 11.89,-8.24 4.14,-2.74 8.43,-5.5 13.07,-8.13 4.64,-2.63 9.49,-5.21 14.51,-7.77 2.51,-1.28 5.06,-2.56 7.67,-3.81 2.61,-1.25 5.4,-2.41 8.16,-3.6 q 8.3,-3.56 17.14,-6.95 l -6.25,6.9 c -4,4.36 -9.73,10.53 -16.11,18.27 -1.63,1.91 -3.32,3.91 -5.07,6 -1.75,2.09 -3.56,4.2 -5.3,6.46 -3.55,4.5 -7.28,9.25 -11.15,14.15 l -11.33,15.44 -2.88,4 -2.75,3.96 -5.54,8.17 a 628.62,628.62 0 0 0 -36.32,61.81 c -4.36,8.65 -7.73,15.95 -10.22,21 -2.31,5.13 -3.55,8.08 -3.55,8.08 z"
           id="path2340" />
        <path
           class="cls-5"
           d="m 223.36,641 c 0.88,-3.15 2.14,-7.63 3.81,-13 3.33,-10.68 8.44,-25 16.82,-37.91 A 88.27,88.27 0 0 1 258.6,573 v 0 a 87.64,87.64 0 0 1 16,-11.35 94.54,94.54 0 0 1 12.5,-5.87 v 0 0 c 1.23,-0.5 2.24,-0.87 3,-1.13 l 1.8,5.43 c -0.76,0.26 -1.7,0.61 -2.8,1.06 v 0 a 92.87,92.87 0 0 0 -11.76,5.52 v 0 a 81.61,81.61 0 0 0 -15,10.63 v 0 a 82.32,82.32 0 0 0 -13.65,16 v 0 c -7.89,12.1 -12.88,26 -16.15,36.48 -1.63,5.26 -2.88,9.71 -3.75,12.82 v 0 0 c -0.33,1.2 -0.6,2.2 -0.82,3 L 222.53,644 c 0.21,-0.79 0.49,-1.8 0.83,-3 z"
           id="path2342" />
        <path
           class="cls-4"
           d="m 271.39,571 a 34.81,34.81 0 0 1 -0.81,-4 44.38,44.38 0 0 1 -0.29,-10.57 44.68,44.68 0 0 1 4,-14.75 45.5,45.5 0 0 1 11.83,-15.45 52.06,52.06 0 0 1 21.78,-10.89 65.16,65.16 0 0 1 7,-1.25 73.53,73.53 0 0 1 7.53,-0.42 68.13,68.13 0 0 1 15.9,2 79,79 0 0 1 32.61,17.33 c 10.38,9 19.75,21.26 27.16,36.87 l -5.27,-2.11 c -3.36,-1.31 -8.2,-3.11 -14.09,-5 -11.76,-3.77 -28,-7.67 -44.49,-8.18 a 120.27,120.27 0 0 0 -24.14,1.52 108.19,108.19 0 0 0 -20.37,5.51 92.46,92.46 0 0 0 -13.52,6.39 c -1.57,0.89 -2.79,1.61 -3.59,2.16 z"
           id="path2344" />
        <polygon
           class="cls-6"
           points="240.55,564.38 240.56,564.38 "
           id="polygon2346" />
        <polygon
           class="cls-6"
           points="247.03,571.62 247.04,571.61 247.03,571.61 "
           id="polygon2348" />
        <polygon
           class="cls-7"
           points="266.45,721.9 188.8,721.13 174.53,639.46 286.26,639.46 "
           id="polygon2350" />
      </g>
      <rect
         class="cls-8"
         x="356.14001"
         y="513.21997"
         width="101.32"
         height="64.309998"
         transform="rotate(-0.53,406.12991,543.49341)"
         id="rect2354" />
      <path
         class="cls-8"
         d="M 497.42,181 495,200.9 c -0.78,6.53 -6.23,11.83 -12.81,11.71 a 12.65,12.65 0 0 1 -12.33,-14.12 l 4,-33.37 a 5.52,5.52 0 0 0 -3.64,-5.88 q -6.69,-2.31 -13.69,-4 a 5.57,5.57 0 0 0 -6.87,4.73 l -4.18,35 c -0.79,6.53 -6.23,11.83 -12.81,11.71 a 12.65,12.65 0 0 1 -12.33,-14.12 l 4.25,-35.6 a 5.57,5.57 0 0 0 -5.56,-6.22 c -4.79,0 -9.55,0.22 -14.25,0.66 a 5.52,5.52 0 0 0 -4.92,4.87 L 396,189.05 c -0.78,6.54 -6.22,11.84 -12.81,11.72 a 12.66,12.66 0 0 1 -12.33,-14.12 l 2.45,-20.49 a 5.55,5.55 0 0 0 -7.38,-5.9 155.33,155.33 0 0 0 -100.68,127.37 L 251.81,400.08 A 118,118 0 0 0 355,531.28 l 74.13,8.86 A 118,118 0 0 0 560.33,437 L 573.77,324.55 A 155.3,155.3 0 0 0 506,177 a 5.54,5.54 0 0 0 -8.58,4 z"
         id="path2356" />
      <path
         class="cls-8"
         d="m 276.32,631.48 11.92,-0.13 -11.92,0.07 v 0.06 l 11.92,-0.13 -11.92,0.07 v 0 a 91.52,91.52 0 0 1 -1.07,12.47 100.73,100.73 0 0 1 -4.25,17.92 70.35,70.35 0 0 1 -6.22,13.52 49.31,49.31 0 0 1 -6.46,8.52 38.73,38.73 0 0 1 -13.08,9.08 c -5.33,2.25 -12,3.79 -20.89,3.81 -1.54,0 -3.14,0 -4.82,-0.15 -9.89,-0.6 -18.42,-2.71 -25.75,-6.38 a 51.24,51.24 0 0 1 -15.09,-11.47 68.15,68.15 0 0 1 -9.81,-14.18 c -4.55,-8.62 -8.52,-19.78 -11.31,-34 -2.79,-14.22 -4.42,-31.46 -4.41,-52 q 0,-6.94 0.25,-14.39 l -44,-1.48 q -0.28,8.14 -0.28,15.87 c 0,27 2.49,50.15 7.34,70 a 155.41,155.41 0 0 0 15.05,39.44 109.35,109.35 0 0 0 16.72,22.62 95.31,95.31 0 0 0 32.25,21.87 112.7,112.7 0 0 0 36.39,8 q 3.78,0.22 7.45,0.23 a 100,100 0 0 0 30.88,-4.62 83.54,83.54 0 0 0 22,-10.82 84.79,84.79 0 0 0 14.79,-13.02 99.74,99.74 0 0 0 16.65,-26 137.9,137.9 0 0 0 10.14,-35.72 135.69,135.69 0 0 0 1.57,-19 V 631 l -44,0.49 z"
         id="path2358" />
      <path
         class="cls-9"
         d="m 330.87,325 a 20.16,20.16 0 0 1 20,-17.76 22,22 0 0 1 2.42,0.14 20.09,20.09 0 0 1 17.62,22.41 7,7 0 1 0 13.81,1.65 35.15,35.15 0 0 0 0.24,-4.08 34.07,34.07 0 0 0 -30,-33.78 34.85,34.85 0 0 0 -4.07,-0.24 34.05,34.05 0 0 0 -33.78,30 6.95,6.95 0 1 0 13.8,1.65 z"
         id="path2360" />
      <path
         class="cls-9"
         d="m 441.48,338.17 a 20.15,20.15 0 1 1 40,4.79 7,7 0 1 0 13.81,1.65 35.15,35.15 0 0 0 0.24,-4.08 34.07,34.07 0 0 0 -30,-33.78 35,35 0 0 0 -4.07,-0.24 34.07,34.07 0 0 0 -33.79,30 7,7 0 0 0 13.81,1.64 z"
         id="path2362" />
      <path
         class="cls-10"
         d="m 461.24,426.84 a 12.05,12.05 0 0 1 -5.93,-10.35 11.81,11.81 0 0 1 0.11,-1.67 12,12 0 0 1 2.95,-6.38 12.11,12.11 0 0 1 5.85,-3.6 6.95,6.95 0 1 0 -3.61,-13.42 25.92,25.92 0 0 0 -19,21.49 25.55,25.55 0 0 0 -0.25,3.58 26,26 0 0 0 12.78,22.33 7,7 0 0 0 7.06,-12 z"
         id="path2364" />
      <path
         class="cls-10"
         d="m 321.18,418.16 a 25.92,25.92 0 0 0 19.09,-21.53 25.55,25.55 0 0 0 0.25,-3.58 26,26 0 0 0 -12.66,-22.26 7,7 0 0 0 -7.12,11.94 12.06,12.06 0 0 1 5.87,10.32 11.81,11.81 0 0 1 -0.11,1.67 12,12 0 0 1 -3,6.4 12.11,12.11 0 0 1 -5.89,3.59 7,7 0 0 0 3.54,13.45 z"
         id="path2366" />
      <path
         class="cls-9"
         d="m 385.06,445.39 v 0 A 15.93,15.93 0 0 1 371.3,427.56 l 1.84,-14.27 a 15.93,15.93 0 1 1 31.59,4.07 l -1.84,14.27 a 15.94,15.94 0 0 1 -17.83,13.76 z"
         id="path2368" />
      <polyline
         class="cls-11"
         points="297.43 635.5 313.54 635.36 313.52 633.04 297.4 633.19"
         id="polyline2370" />
      <path
         class="cls-8"
         d="m 507.4,611 c 1.08,0 1.82,-0.06 2.45,-0.12 a 26,26 0 0 0 2.62,-0.36 c 1.25,-0.23 2.08,-0.44 2.94,-0.66 1.62,-0.42 3.18,-0.89 5,-1.48 3.4,-1.11 7.59,-2.6 12.55,-4.55 a 337.52,337.52 0 0 0 69.57,-37.34 219.88,219.88 0 0 0 37,-32.6 c 11.25,-12.66 21.08,-27.33 27.38,-44.31 a 92.55,92.55 0 0 0 1.85,-60.36 c -4.59,-15 -12.25,-27.73 -20.69,-38.55 a 173.88,173.88 0 0 0 -19.89,-21.28 223.18,223.18 0 0 0 -27.09,-21 c -7.34,-4.84 -12.32,-7.51 -12.88,-7.81 l -24,45 6.29,-11.81 -6.34,11.78 v 0 l 6.29,-11.81 -6.34,11.78 0.7,0.39 c 1.74,1 6.59,3.82 12.72,8.15 a 171.21,171.21 0 0 1 15.18,12 c 7.92,7.06 15.65,15.58 21,24.35 a 61.34,61.34 0 0 1 6.11,13.17 41.84,41.84 0 0 1 -0.75,28.21 80.92,80.92 0 0 1 -9.87,18.35 c -7.4,10.52 -17.66,20.58 -29.13,29.46 -17.18,13.36 -37,24 -52.51,31.07 -7.76,3.53 -14.49,6.19 -19.18,7.87 -2.33,0.83 -4.18,1.43 -5.19,1.73 l -0.56,0.16 h -0.09 v 0 l 2.86,11.55 -2.15,-11.7 -0.71,0.15 2.86,11.55 -2.15,-11.7 3.75,20.42 -2.5,-20.5 c -0.59,0.08 -1,0.14 -1.23,0.19 l 3.73,20.31 -2.5,-20.5 2.88,23.63 V 560 a 25.69,25.69 0 0 0 -2.88,0.17 l 2.88,23.63 V 611 Z"
         id="path2372" />
      <path
         class="cls-12"
         d="m 559.45,432.6 -60,-12.5 a 10.27,10.27 0 0 1 -8,-12.14 l 28.28,-135.79 a 10.27,10.27 0 0 1 12.14,-8 l 60,12.5 a 10.27,10.27 0 0 1 8,12.14 l -28.28,135.83 a 10.27,10.27 0 0 1 -12.14,7.96 z"
         id="path2374" />
      <path
         class="cls-13"
         d="m 543.82,526.5 21.78,29.26 -21.75,-29.28 v 0 l 21.78,29.26 -21.75,-29.28 v 0 l 11.61,15.63 -11.55,-15.67 h -0.06 l 11.61,15.63 -11.55,-15.67 1.61,2.18 -1.61,-2.18 v 0 l 1.61,2.18 -1.61,-2.18 a 192.34,192.34 0 0 1 -26.85,15.75 163.72,163.72 0 0 1 -25.5,10 92.61,92.61 0 0 1 -25.38,4 53.21,53.21 0 0 1 -11.31,-1.15 L 439,627.51 a 126.76,126.76 0 0 0 27.21,2.87 167,167 0 0 0 47.24,-7.32 A 252.74,252.74 0 0 0 566,600.15 232.31,232.31 0 0 0 588.1,586 Z"
         id="path2376" />
      <path
         class="cls-8"
         d="m 592.72,391 -26.41,-4.85 a 22.57,22.57 0 0 1 -18.13,-26.29 l 9.44,-51.46 a 18.6,18.6 0 0 1 21.65,-14.93 l 1.85,0.34 A 37.22,37.22 0 0 1 611,337.18 l -8.67,47.23 a 8.25,8.25 0 0 1 -9.61,6.59 z"
         id="path2378" />
      <path
         class="cls-8"
         d="m 152.89,580.09 1,-25 A 23.53,23.53 0 0 0 131.3,530.67 l -50.4,-2 a 19.54,19.54 0 0 0 -20.3,18.82 38.16,38.16 0 0 0 36.64,39.62 l 46.11,1.8 a 9.18,9.18 0 0 0 9.54,-8.82 z"
         id="path2380" />
      <path
         class="cls-13"
         d="m 344.82,556.38 a 80.56,80.56 0 0 0 -15.38,4 102.42,102.42 0 0 0 -38,24.09 107,107 0 0 0 -22.58,33.78 c -5.91,13.82 -9.58,30 -10.4,48.18 l 74.07,3.37 a 76.05,76.05 0 0 1 2.12,-15.24 40.19,40.19 0 0 1 6.68,-14.71 28.54,28.54 0 0 1 5.56,-5.59 28,28 0 0 1 7.52,-4.07 15.7,15.7 0 0 1 1.76,-0.53 v 0 l -3.52,-16.92 2.4,17.1 c 0.74,-0.1 1.08,-0.17 1.12,-0.18 l -3.52,-16.92 2.4,17.1 -10.28,-73.43 z"
         id="path2382" />
      <path
         class="cls-13"
         d="m 444.07,553.56 -87.22,0.8 A 49.22,49.22 0 0 0 308.1,604 l 1.32,143.32 a 356.14,356.14 0 0 0 196.15,-3.67 l -1.2,-130.92 a 59.76,59.76 0 0 0 -60.3,-59.17 z"
         id="path2384" />
      <path
         class="cls-14"
         d="m 444.07,553.56 -87.22,0.8 A 49.22,49.22 0 0 0 308.1,604 l 1.32,143.32 a 356.14,356.14 0 0 0 196.15,-3.67 l -1.2,-130.92 a 59.76,59.76 0 0 0 -60.3,-59.17 z"
         id="path2386" />
      <path
         class="cls-15"
         d="m 299.65,644.66 3.71,2.24 a 10,10 0 0 1 4.79,8.11 l 0.55,13.82"
         id="path2388" />
    </g>
  </g>
</svg>
