<?xml version="1.0" encoding="UTF-8" standalone="no"?>
<svg
   xmlns:dc="http://purl.org/dc/elements/1.1/"
   xmlns:cc="http://creativecommons.org/ns#"
   xmlns:rdf="http://www.w3.org/1999/02/22-rdf-syntax-ns#"
   xmlns:svg="http://www.w3.org/2000/svg"
   xmlns="http://www.w3.org/2000/svg"
   xmlns:sodipodi="http://sodipodi.sourceforge.net/DTD/sodipodi-0.dtd"
   xmlns:inkscape="http://www.inkscape.org/namespaces/inkscape"
   id="Layer_1"
   data-name="Layer 1"
   viewBox="0 0 774.29998 133.71"
   version="1.1"
   sodipodi:docname="thank-you-online-button.svg"
   inkscape:version="1.0.1 (0767f8302a, 2020-10-17)">
  <metadata
     id="metadata2212">
    <rdf:RDF>
      <cc:Work
         rdf:about="">
        <dc:format>image/svg+xml</dc:format>
        <dc:type
           rdf:resource="http://purl.org/dc/dcmitype/StillImage" />
      </cc:Work>
    </rdf:RDF>
  </metadata>
  <sodipodi:namedview
     pagecolor="#ffffff"
     bordercolor="#666666"
     borderopacity="1"
     objecttolerance="10"
     gridtolerance="10"
     guidetolerance="10"
     inkscape:pageopacity="0"
     inkscape:pageshadow="2"
     inkscape:window-width="1920"
     inkscape:window-height="1015"
     id="namedview2210"
     showgrid="false"
     inkscape:zoom="1.7330176"
     inkscape:cx="389.98"
     inkscape:cy="66.024998"
     inkscape:window-x="0"
     inkscape:window-y="36"
     inkscape:window-maximized="1"
     inkscape:current-layer="Layer_1" />
  <defs
     id="defs2193">
    <style
       id="style2191">.cls-1{fill:#fe4c00;}.cls-2{font-size:72.88px;font-family:Somatic-Rounded, Somatic;}.cls-2,.cls-3{fill:#fff;}.cls-4{fill:none;stroke:#fff;stroke-linecap:round;stroke-miterlimit:10;stroke-width:1.5px;}</style>
  </defs>
  <title
     id="title2195">Thankyou</title>
  <rect
     class="cls-1"
     x="0"
     y="0"
     width="774.29999"
     height="133.71001"
     rx="43.73"
     id="rect2197" />
  <text
     class="cls-2"
     id="text2199"
     x="216.18001"
     y="93.959999">Online booking</text>
  <path
     class="cls-3"
     d="m 125.62,97.319998 1.78,1 25.75,-47.25 a 7,7 0 0 0 0.84,-4 7.15,7.15 0 0 0 -4.43,-5.94 7,7 0 0 0 -4.11,-0.34 l -52.629999,11.14 a 5.33,5.33 0 0 0 -4.19,4.4 5.35,5.35 0 0 0 1,4.07 l 7.66,10.29 a 1.28,1.28 0 0 1 0.25,1 1.31,1.31 0 0 1 -0.52,0.87 l -25.73,19.19 a 5.38,5.38 0 0 0 -1.1,7.53 l 5.52,7.400002 a 5.38,5.38 0 0 0 7.53,1.1 L 108.98,88.599998 a 1.33,1.33 0 0 1 1.86,0.27 l 7.52,10.09 a 5.35,5.35 0 0 0 3.62,2.120002 5.43,5.43 0 0 0 3.91,-1 5.55,5.55 0 0 0 1.51,-1.740002 l -1.78,-1 -1.78,-1 a 1.44,1.44 0 0 1 -0.37,0.43 1.4,1.4 0 0 1 -1,0.25 1.3,1.3 0 0 1 -0.88,-0.52 l -7.52,-10.1 a 5.4,5.4 0 0 0 -3.54,-2.1 5.33,5.33 0 0 0 -4,1 L 80.770001,104.51 a 1.35,1.35 0 0 1 -1,0.25 1.37,1.37 0 0 1 -0.87,-0.52 l -5.52,-7.400002 a 1.33,1.33 0 0 1 0.27,-1.86 l 25.76,-19.2 a 5.39,5.39 0 0 0 1.089999,-7.53 l -7.669999,-10.29 a 1.29,1.29 0 0 1 -0.25,-1 1.31,1.31 0 0 1 1,-1.09 l 52.709999,-11.18 a 3,3 0 0 1 1.75,0.13 3.18,3.18 0 0 1 1.31,1 3.12,3.12 0 0 1 0.6,1.54 3,3 0 0 1 -0.37,1.72 l -25.75,47.25 z"
     id="path2201" />
  <line
     class="cls-4"
     x1="175.57999"
     y1="28.489998"
     x2="162.70001"
     y2="37.43"
     id="line2203" />
  <line
     class="cls-4"
     x1="181.53"
     y1="53.32"
     x2="166.26999"
     y2="49.760002"
     id="line2205" />
  <line
     class="cls-4"
     x1="154.48001"
     y1="14.789997"
     x2="151.73999"
     y2="30.220001"
     id="line2207" />
</svg>
