<?xml version="1.0" encoding="UTF-8"?>
<svg data-name="Layer 1" version="1.1" viewBox="0 0 73.47 82.411" xmlns="http://www.w3.org/2000/svg">
 <path d="m0 14.5h73.47v48.17h-73.47z" fill="#274f73"/>
 <path d="m61.65 65.21-21.77 13.4a8.6 8.6 0 0 1-9.18-0.13l-20.16-13.25a7.79 7.79 0 0 1-3.59-6.49v-46a5.88 5.88 0 0 1 3.83-5.44c16.83-6.58 33.72-6.12 50.64 0a5.94 5.94 0 0 1 4 5.52v45.77a7.8 7.8 0 0 1-3.77 6.62z" fill="#fff"/>
 <path class="cls-1" d="m61.65 65.21-1.33-2.21-21.76 13.44a6 6 0 0 1-6.45-0.09l-20.17-13.25a5.23 5.23 0 0 1-2.44-4.36v-46a3.34 3.34 0 0 1 2.21-3.07 65.05 65.05 0 0 1 23.86-4.67 72.61 72.61 0 0 1 25 4.65 3.37 3.37 0 0 1 2.31 3.16v45.78a5.25 5.25 0 0 1-2.56 4.41l1.33 2.17 1.34 2.16a10.33 10.33 0 0 0 5-8.78v-45.74a8.49 8.49 0 0 0-5.69-7.91 77.83 77.83 0 0 0-26.73-4.9 70.23 70.23 0 0 0-25.69 4.87 8.45 8.45 0 0 0-5.45 7.82v46.05a10.34 10.34 0 0 0 4.73 8.61l20.18 13.26a11.2 11.2 0 0 0 11.91 0.17l21.74-13.41z" fill="#3882bb"/>
 <path class="cls-1" d="m13.88 48.05 11.8 12.4a5.82 5.82 0 0 0 9-0.66l24.47-35a3.39 3.39 0 1 0-5.56-3.88l-24.46 35 2.75 1.9-2.75-2 0.72 0.52v-0.84a0.89 0.89 0 0 0-0.72 0.32l0.72 0.52v0.06l0.68-0.64a1 1 0 0 0-0.68-0.26v0.9l0.68-0.64-11.8-12.4a3.4 3.4 0 0 0-4.85 4.7z" fill="#3882bb"/>
</svg>
