<?xml version="1.0" encoding="UTF-8" standalone="no"?>
<svg
   id="Layer_1"
   data-name="Layer 1"
   viewBox="0 0 300.39 82.410677"
   version="1.1"
   sodipodi:docname="covid-aware.svg"
   inkscape:version="1.1 (ce6663b3b7, 2021-05-25)"
   xmlns:inkscape="http://www.inkscape.org/namespaces/inkscape"
   xmlns:sodipodi="http://sodipodi.sourceforge.net/DTD/sodipodi-0.dtd"
   xmlns="http://www.w3.org/2000/svg"
   xmlns:svg="http://www.w3.org/2000/svg">
  <sodipodi:namedview
     id="namedview1051"
     pagecolor="#ffffff"
     bordercolor="#666666"
     borderopacity="1.0"
     inkscape:pageshadow="2"
     inkscape:pageopacity="0.0"
     inkscape:pagecheckerboard="0"
     showgrid="false"
     inkscape:zoom="3.1931264"
     inkscape:cx="148.13068"
     inkscape:cy="38.207068"
     inkscape:window-width="1920"
     inkscape:window-height="1015"
     inkscape:window-x="0"
     inkscape:window-y="0"
     inkscape:window-maximized="1"
     inkscape:current-layer="Layer_1" />
  <defs
     id="defs1028">
    <style
       id="style1026">.cls-1{fill:#fe4c00}</style>
  </defs>
  <rect
     class="cls-1"
     x="0"
     y="14.529999"
     width="300.39001"
     height="48.139999"
     rx="9.2399998"
     id="rect1030" />
  <path
     fill="#c12a02"
     d="M 13.36,14.5 H 86.83 V 62.67 H 13.36 Z"
     id="path1032" />
  <path
     d="M 75.01,65.21 53.24,78.61 A 8.6,8.6 0 0 1 44.06,78.48 L 23.9,65.23 a 7.79,7.79 0 0 1 -3.59,-6.49 v -46 A 5.88,5.88 0 0 1 24.14,7.3 c 16.83,-6.58 33.72,-6.12 50.64,0 a 5.94,5.94 0 0 1 4,5.52 v 45.77 a 7.8,7.8 0 0 1 -3.77,6.62 z"
     fill="#ffffff"
     id="path1034" />
  <path
     class="cls-1"
     d="M 75.01,65.21 73.68,63 51.92,76.44 A 6,6 0 0 1 45.47,76.35 L 25.3,63.1 a 5.23,5.23 0 0 1 -2.44,-4.36 v -46 A 3.34,3.34 0 0 1 25.07,9.67 65.05,65.05 0 0 1 48.93,5 a 72.61,72.61 0 0 1 25,4.65 3.37,3.37 0 0 1 2.31,3.16 V 58.59 A 5.25,5.25 0 0 1 73.68,63 l 1.33,2.17 1.34,2.16 a 10.33,10.33 0 0 0 5,-8.78 V 12.81 A 8.49,8.49 0 0 0 75.66,4.9 77.83,77.83 0 0 0 48.93,0 70.23,70.23 0 0 0 23.24,4.87 8.45,8.45 0 0 0 17.79,12.69 v 46.05 a 10.34,10.34 0 0 0 4.73,8.61 L 42.7,80.61 a 11.2,11.2 0 0 0 11.91,0.17 L 76.35,67.37 Z"
     id="path1036" />
  <path
     class="cls-1"
     d="m 27.24,48.05 11.8,12.4 a 5.82,5.82 0 0 0 9,-0.66 l 24.47,-35 a 3.39,3.39 0 1 0 -5.56,-3.88 l -24.46,35 2.75,1.9 -2.75,-2 0.72,0.52 v -0.84 a 0.89,0.89 0 0 0 -0.72,0.32 l 0.72,0.52 v 0.06 l 0.68,-0.64 a 1,1 0 0 0 -0.68,-0.26 v 0.9 l 0.68,-0.64 -11.8,-12.4 a 3.4,3.4 0 0 0 -4.85,4.7 z"
     id="path1038" />
  <text
     font-size="31.27px"
     font-family="Roboto-Bold, Roboto"
     font-weight="700"
     fill="#ffffff"
     id="text1048"
     x="97.389999"
     y="50.5">C<tspan
   x="117.38"
   y="50.5"
   letter-spacing="-0.01em"
   id="tspan1040">o</tspan><tspan
   x="134.78"
   y="50.5"
   id="tspan1042">vid</tspan><tspan
   x="184.54001"
   y="50.5"
   letter-spacing="-0.02em"
   id="tspan1044">A</tspan><tspan
   x="203.97"
   y="50.5"
   id="tspan1046">ware</tspan></text>
</svg>
