<?xml version="1.0" encoding="UTF-8" standalone="no"?>
<svg
   id="Layer_1"
   data-name="Layer 1"
   viewBox="0 0 386.42776 166.43906"
   version="1.1"
   sodipodi:docname="how-it-works-sprite-mobile.svg"
   inkscape:version="1.1 (ce6663b3b7, 2021-05-25)"
   xmlns:inkscape="http://www.inkscape.org/namespaces/inkscape"
   xmlns:sodipodi="http://sodipodi.sourceforge.net/DTD/sodipodi-0.dtd"
   xmlns="http://www.w3.org/2000/svg"
   xmlns:svg="http://www.w3.org/2000/svg"
   xmlns:rdf="http://www.w3.org/1999/02/22-rdf-syntax-ns#"
   xmlns:cc="http://creativecommons.org/ns#"
   xmlns:dc="http://purl.org/dc/elements/1.1/">
  <sodipodi:namedview
     id="namedview73"
     pagecolor="#ffffff"
     bordercolor="#666666"
     borderopacity="1.0"
     inkscape:pageshadow="2"
     inkscape:pageopacity="0.0"
     inkscape:pagecheckerboard="0"
     showgrid="false"
     inkscape:zoom="1.5634159"
     inkscape:cx="151.59114"
     inkscape:cy="153.51001"
     inkscape:window-width="1920"
     inkscape:window-height="1015"
     inkscape:window-x="0"
     inkscape:window-y="0"
     inkscape:window-maximized="1"
     inkscape:current-layer="Layer_1" />
  <defs
     id="defs4">
    <style
       id="style2">.cls-1{fill:#fe4c00;}.cls-2{fill:#101d23;}.cls-3{fill:#fff;}.cls-4{fill:#ffd600;}</style>
  </defs>
  <title
     id="title6">How_Button</title>
  <path
     class="cls-3"
     d="m 123.95,218.70746 v 31.77 a 3.04,3.04 0 0 1 -6.08,0 v -12.62 H 99.46 v 12.62 a 3.04,3.04 0 1 1 -6.08,0 v -31.77 a 3.04,3.04 0 1 1 6.08,0 v 13.08 h 18.41 v -13.08 a 3.04,3.04 0 1 1 6.08,0 z"
     id="path42" />
  <path
     class="cls-3"
     d="m 140.22,254.61746 a 12.52,12.52 0 1 1 12.57,-12.47 12.53,12.53 0 0 1 -12.57,12.47 z m 0,-18.91 a 6.39,6.39 0 1 0 6.38,6.39 6.38,6.38 0 0 0 -6.38,-6.39 z"
     id="path44" />
  <path
     class="cls-3"
     d="m 189.8,245.53746 v 0.3 a 9.74,9.74 0 0 1 -9.88,9.13 10.26,10.26 0 0 1 -6.88,-2.69 10.17,10.17 0 0 1 -6.88,2.69 9.69,9.69 0 0 1 -9.88,-9.43 v -12.52 a 3,3 0 0 1 6,0 v 12.52 a 3.92,3.92 0 0 0 7.78,0 v -12.52 a 3,3 0 0 1 6,0 v 12.52 a 3.92,3.92 0 0 0 7.78,0 v -12.62 a 3,3 0 0 1 6,0 z"
     id="path46" />
  <path
     class="cls-3"
     d="m 211.4,225.43746 a 3.11,3.11 0 0 1 -3.14,-3 v -0.25 a 3.09,3.09 0 1 1 6.18,0 v 0.25 a 3.08,3.08 0 0 1 -3.04,3 z m 0,29.28 a 3.12,3.12 0 0 1 -3.14,-3.09 v -19.26 a 3.09,3.09 0 0 1 6.18,0 v 19.26 a 3.09,3.09 0 0 1 -3.04,3.09 z"
     id="path48" />
  <path
     class="cls-3"
     d="m 232.25,251.57746 a 3,3 0 0 1 -3,3 11.3,11.3 0 0 1 -1.3,0 7.23,7.23 0 0 1 -4.39,-2.24 7.36,7.36 0 0 1 -1.7,-4.49 v -12.63 h -2.14 a 3,3 0 0 1 0,-6 h 2.14 v -9.53 a 3,3 0 0 1 6,0 v 9.53 h 1.65 a 3,3 0 0 1 0,6 h -1.65 v 11.87 c 0.1,0.4 0,1 0.35,1.29 0.35,0.29 0.7,0.2 1.05,0.2 a 3,3 0 0 1 2.99,3 z"
     id="path50" />
  <path
     class="cls-3"
     d="m 282.98,245.53746 v 0.3 a 9.74,9.74 0 0 1 -9.88,9.13 10.26,10.26 0 0 1 -6.88,-2.69 10.17,10.17 0 0 1 -6.88,2.69 9.69,9.69 0 0 1 -9.88,-9.43 v -12.52 a 3,3 0 0 1 6,0 v 12.52 a 3.92,3.92 0 0 0 7.78,0 v -12.52 a 3,3 0 1 1 6,0 v 12.52 a 3.92,3.92 0 0 0 7.78,0 v -12.62 a 3,3 0 0 1 6,0 z"
     id="path52" />
  <path
     class="cls-3"
     d="m 299.24,254.61746 a 12.52,12.52 0 1 1 12.57,-12.47 12.53,12.53 0 0 1 -12.57,12.47 z m 0,-18.91 a 6.39,6.39 0 1 0 6.39,6.39 6.37,6.37 0 0 0 -6.39,-6.39 z"
     id="path54" />
  <path
     class="cls-3"
     d="m 335.85,237.35746 a 3,3 0 0 1 -4.23,0.15 6,6 0 0 0 -4.14,-1.65 6.34,6.34 0 0 0 -6.19,6.44 v 9.43 a 3,3 0 0 1 -6,0 v -19.11 a 3,3 0 0 1 5.84,-0.9 11.9,11.9 0 0 1 14.57,1.45 2.94,2.94 0 0 1 0.15,4.19 z"
     id="path56" />
  <path
     class="cls-3"
     d="m 359.2,253.66746 a 3.27,3.27 0 0 1 -2.24,0.95 3,3 0 0 1 -2,-0.8 l -10.18,-9.38 v 7.44 a 3.04,3.04 0 1 1 -6.08,0 v -31.78 a 3.04,3.04 0 0 1 6.08,0 v 16.86 l 9.83,-6.78 a 3.063152,3.063152 0 0 1 3.54,5 l -8.38,5.61 9.28,8.53 a 3.11,3.11 0 0 1 0.15,4.35 z"
     id="path58" />
  <path
     class="cls-3"
     d="m 370.92,254.78746 a 12.59,12.59 0 0 1 -8,-2.84 3,3 0 0 1 4,-4.39 c 0.9,0.84 4.24,2 6.14,0.74 a 1.51,1.51 0 0 0 -0.3,-2.79 5.15,5.15 0 0 0 -2.15,-0.25 11.37,11.37 0 0 1 -3.94,-0.55 7.48,7.48 0 0 1 -4.89,-6.13 7.39,7.39 0 0 1 2.25,-6.19 c 2.49,-2.29 6.13,-2.64 8.78,-2.19 a 9,9 0 0 1 4.74,2.19 3,3 0 0 1 0.2,4.19 3,3 0 0 1 -3.84,0.5 4.56,4.56 0 0 0 -2.1,-1 c -1.5,-0.25 -4.29,-0.15 -4.09,2 a 2,2 0 0 0 0.9,1.05 8.07,8.07 0 0 0 2,0.15 11.68,11.68 0 0 1 4.59,0.79 7.61,7.61 0 0 1 4.54,6.84 7.73,7.73 0 0 1 -3.44,6.38 9.74,9.74 0 0 1 -5.39,1.5 z"
     id="path60" />
  <g
     id="g1030">
    <path
       class="cls-2"
       d="m 164.37,93.047464 c 0,7.339996 -5.92,13.549996 -13,13.549996 h -13.39 v -0.35 a 3.55,3.55 0 0 1 -3.32,-3.46 V 65.407464 a 3.49,3.49 0 0 1 3.49,-3.49 v -0.24 h 9.47 a 12.63,12.63 0 0 1 13,12.61 13,13 0 0 1 -2.67,7.81 12.91,12.91 0 0 1 6.42,10.95 z m -16.75,-24.39 h -6 v 11.55 h 6.75 a 6.06,6.06 0 0 0 5.21,-5.92 5.67,5.67 0 0 0 -5.96,-5.63 z m 9.77,24.39 c 0,-3.14 -3,-5.86 -6.45,-5.86 h -9.3 v 12.43 h 9.77 c 3.14,0 5.98,-3.14 5.98,-6.57 z"
       id="path10" />
    <path
       class="cls-2"
       d="m 183.13,106.65746 c -7.69,0 -14,-6.689996 -14,-14.849996 v -11.31 a 3.44,3.44 0 0 1 3.32,-3.55 3.76,3.76 0 0 1 3.73,3.55 v 11.29 c 0,4.26 3.55,7.69 7,7.69 4,0 7.05,-3.43 7.05,-7.69 v -10.82 a 3.87,3.87 0 0 1 3.67,-3.55 3.45,3.45 0 0 1 3.37,3.55 v 10.82 c -0.05,8.18 -6.38,14.869996 -14.14,14.869996 z"
       id="path12" />
    <path
       class="cls-2"
       d="m 228.59,80.557464 v 25.869996 a 14.84,14.84 0 0 1 -14.57,15 14.27,14.27 0 0 1 -11,-5.21 3.67,3.67 0 0 1 0.35,-5 3.31,3.31 0 0 1 4.85,0.42 7.61,7.61 0 0 0 13.44,-5.15 v -2.43 a 13.56,13.56 0 0 1 -6.75,1.83 c -7.46,0 -13.55,-6.509996 -13.55,-14.559996 v -10.65 a 3.43,3.43 0 1 1 6.86,0 v 10.59 c 0,4.09 3,7.46 6.69,7.46 3.69,0 6.75,-3.37 6.75,-7.46 v -10.71 a 3.47,3.47 0 1 1 6.93,0 z"
       id="path14" />
    <path
       class="cls-2"
       d="m 265.69,102.78746 a 3.53,3.53 0 0 1 -3.55,3.55 13.22,13.22 0 0 1 -1.54,-0.06 8.58,8.58 0 0 1 -5.21,-2.67 8.73,8.73 0 0 1 -2,-5.319996 v -14.95 h -2.55 a 3.55,3.55 0 1 1 0,-7.1 h 2.55 v -11.31 a 3.55,3.55 0 1 1 7.1,0 v 11.31 h 2 a 3.55,3.55 0 1 1 0,7.1 h -2 v 14.09 c 0.12,0.47 0,1.18 0.42,1.54 0.42,0.36 0.82,0.23 1.24,0.23 a 3.57,3.57 0 0 1 3.54,3.589996 z"
       id="path16" />
    <path
       class="cls-2"
       d="m 296.41,103.10746 a 3.59,3.59 0 0 1 -7.17,0 V 90.107464 a 6.1,6.1 0 1 0 -12.19,0 v 12.999996 a 3.58,3.58 0 0 1 -3.61,3.55 3.62,3.62 0 0 1 -3.61,-3.55 V 65.347464 a 3.66,3.66 0 0 1 3.61,-3.56 3.62,3.62 0 0 1 3.62,3.56 v 13 a 13.27,13.27 0 0 1 19.36,11.78 z"
       id="path18" />
    <path
       class="cls-2"
       d="m 305.75,71.787464 a 3.69,3.69 0 0 1 -3.73,-3.61 v -0.39 a 3.67,3.67 0 1 1 7.34,0 v 0.3 a 3.66,3.66 0 0 1 -3.61,3.7 z m 0,34.739996 a 3.7,3.7 0 0 1 -3.69,-3.74 V 79.967464 a 3.67,3.67 0 0 1 7.34,0 v 22.819996 a 3.67,3.67 0 0 1 -3.65,3.69 z"
       id="path20" />
    <path
       class="cls-2"
       d="m 325.28,106.59746 a 15,15 0 0 1 -9.53,-3.37 3.5420368,3.5420368 0 0 1 4.8,-5.209996 c 1.06,1 5,2.369996 7.28,0.89 a 2,2 0 0 0 1,-1.66 1.94,1.94 0 0 0 -1.31,-1.66 6.19,6.19 0 0 0 -2.54,-0.29 13.57,13.57 0 0 1 -4.68,-0.65 8.91,8.91 0 0 1 -5.8,-7.28 8.75,8.75 0 0 1 2.67,-7.34 c 3,-2.73 7.28,-3.14 10.41,-2.61 a 10.67,10.67 0 0 1 5.63,2.61 3.54,3.54 0 0 1 0.23,5 3.61,3.61 0 0 1 -4.55,0.59 5.38,5.38 0 0 0 -2.49,-1.18 c -1.78,-0.3 -5.09,-0.18 -4.85,2.36 a 2.35,2.35 0 0 0 1.06,1.25 9.53,9.53 0 0 0 2.43,0.18 13.47,13.47 0 0 1 5.44,0.94 9,9 0 0 1 5.39,8.11 9.19,9.19 0 0 1 -4.08,7.579996 11.62,11.62 0 0 1 -6.51,1.74 z"
       id="path22" />
    <path
       class="cls-2"
       d="m 107.78,166.02746 a 14.86,14.86 0 1 1 14.92,-14.8 14.87,14.87 0 0 1 -14.92,14.8 z m 0,-22.43 a 7.58,7.58 0 1 0 7.58,7.57 7.55,7.55 0 0 0 -7.58,-7.57 z"
       id="path24" />
    <path
       class="cls-2"
       d="m 146.78,129.14746 a 3.69,3.69 0 0 1 -5.09,0.18 4.46,4.46 0 0 0 -3.07,-1.24 4.56,4.56 0 0 0 -4.5,4.62 v 7.33 h 5.62 a 3.59,3.59 0 1 1 0,7.17 h -5.62 v 15 a 3.64,3.64 0 0 1 -7.28,0 v -29.5 a 11.78,11.78 0 0 1 19.77,-8.65 3.68,3.68 0 0 1 0.17,5.09 z"
       id="path26" />
    <path
       class="cls-2"
       d="m 167.06,129.14746 a 3.69,3.69 0 0 1 -5.09,0.18 4.48,4.48 0 0 0 -3.07,-1.24 4.56,4.56 0 0 0 -4.5,4.62 v 7.33 h 5.66 a 3.59,3.59 0 1 1 0,7.17 h -5.62 v 15 a 3.64,3.64 0 0 1 -7.28,0 v -29.5 a 11.78,11.78 0 0 1 19.77,-8.65 3.68,3.68 0 0 1 0.13,5.09 z"
       id="path28" />
    <path
       class="cls-2"
       d="m 191.47,153.29746 h -18.23 a 7.78,7.78 0 0 0 7.51,6 9.91,9.91 0 0 0 6.22,-2.25 3.55,3.55 0 0 1 5,0.06 3.5,3.5 0 0 1 -0.06,5 16.47,16.47 0 0 1 -11.19,4.2 14.86,14.86 0 0 1 0,-29.71 12.81,12.81 0 0 1 2.61,0.24 14.34,14.34 0 0 1 9.59,6.81 c 0.94,1.65 2,3.84 1.89,5.8 a 5.12,5.12 0 0 1 -0.47,1.71 3.22,3.22 0 0 1 -2.87,2.14 z m -17.23,-6 h 12.55 a 6.58,6.58 0 0 0 -6,-3.56 7.66,7.66 0 0 0 -6.55,3.59 z"
       id="path30" />
    <path
       class="cls-2"
       d="m 222.48,145.54746 a 3.56,3.56 0 0 1 -5,0.18 7.14,7.14 0 0 0 -4.92,-2 7.53,7.53 0 0 0 -7.34,7.64 v 11.19 a 3.55,3.55 0 1 1 -7.1,0 v -22.63 a 3.56,3.56 0 0 1 6.93,-1.07 14.08,14.08 0 0 1 17.28,1.72 3.48,3.48 0 0 1 0.15,4.97 z"
       id="path32" />
    <path
       class="cls-2"
       d="m 270,151.28746 v 11.19 a 3.52,3.52 0 1 1 -7,0 v -11.19 c 0,-4.2 -3.08,-7.58 -6.81,-7.58 -4.62,0 -7,4.62 -7,8.7 v 10.07 a 3.55,3.55 0 0 1 -7.1,0 v -22.61 a 3.56,3.56 0 0 1 3.55,-3.55 3.51,3.51 0 0 1 3.32,2.42 13.26,13.26 0 0 1 7.22,-2.13 c 7.6,0 13.82,6.57 13.82,14.68 z"
       id="path34" />
    <path
       class="cls-2"
       d="m 288.7,166.02746 a 14.86,14.86 0 1 1 14.91,-14.8 14.87,14.87 0 0 1 -14.91,14.8 z m 0,-22.43 a 7.58,7.58 0 1 0 7.57,7.57 7.55,7.55 0 0 0 -7.57,-7.57 z"
       id="path36" />
    <path
       class="cls-2"
       d="m 347.53,155.25746 v 0.35 a 11.55,11.55 0 0 1 -11.72,10.83 12.15,12.15 0 0 1 -8.17,-3.19 12,12 0 0 1 -8.17,3.19 c -6.45,0 -11.72,-5 -11.72,-11.18 v -14.86 a 3.56,3.56 0 0 1 7.11,0 v 14.86 a 4.65,4.65 0 0 0 9.23,0 v -14.86 a 3.55,3.55 0 0 1 7.1,0 v 14.86 a 4.66,4.66 0 0 0 9.24,0 v -15 a 3.55,3.55 0 0 1 7.1,0 z"
       id="path38" />
    <path
       class="cls-2"
       d="m 356.99,154.65746 a 3.56,3.56 0 0 1 -3.55,-3.55 v -26.32 a 3.58,3.58 0 1 1 7.16,0 v 26.28 a 3.56,3.56 0 0 1 -3.61,3.59 z m 0.42,11.49 h -0.42 a 3.58,3.58 0 0 1 0,-7.16 h 0.42 a 3.58,3.58 0 1 1 0,7.16 z"
       id="path40" />
    <path
       class="cls-4"
       d="m 356.06,69.597464 18.1,-18.55 a 4.1120828,4.1120828 0 1 0 -5.88,-5.75 l -18.15,18.54 a 4.12,4.12 0 0 0 5.88,5.76"
       id="path62" />
    <path
       class="cls-4"
       d="m 333.2,59.367464 -3,-26.65 a 4.12,4.12 0 0 0 -8.18,0.91 l 3,26.65 a 4.12,4.12 0 0 0 8.18,-0.91"
       id="path64" />
    <path
       class="cls-4"
       d="m 359.32,92.787464 22.37,3.43 a 4.1127667,4.1127667 0 0 0 1.25,-8.13 l -22.37,-3.43 a 4.1127667,4.1127667 0 0 0 -1.25,8.13"
       id="path66" />
    <path
       class="cls-4"
       d="m 0.06,3.7874643 c 0,0.08 -0.06,1 -0.06,2.54 a 94.82,94.82 0 0 0 2,18.5899997 90.2,90.2 0 0 0 6.79,20.54 73.26,73.26 0 0 0 26.07,30.2 c 12.83,8.42 30.2,14.13 53.37,14.63 a 4.0010124,4.0010124 0 0 0 0.18,-8 c -19.54,-0.44 -34.14,-4.7 -45.17,-10.89 a 64.55,64.55 0 0 1 -19.4,-16.61 74.87,74.87 0 0 1 -13.39,-28.6 A 87.6,87.6 0 0 1 8,6.2874643 c 0,-0.69 0,-1.22 0,-1.56 0,-0.18 0,-0.3 0,-0.38 v -0.09 0 l -1.3,-0.08 1.3,0.08 v 0 l -1.3,-0.08 1.3,0.08 a 4.0078049,4.0078049 0 0 0 -8,-0.5 z"
       id="path68" />
    <path
       class="cls-4"
       d="m 74.11,67.657464 14.58,18.88 -17.85,13.599996 a 4.0140908,4.0140908 0 1 0 4.86,6.39 L 96.77,90.467464 a 4,4 0 0 0 1.55,-2.67 4,4 0 0 0 -0.81,-3 l -17.05,-22.01 a 4.0134337,4.0134337 0 1 0 -6.35,4.91 z"
       id="path70" />
  </g>
  <metadata
     id="metadata890">
    <rdf:RDF>
      <cc:Work
         rdf:about="">
        <dc:title>How_Button</dc:title>
      </cc:Work>
    </rdf:RDF>
  </metadata>
</svg>
