<?xml version="1.0" encoding="UTF-8" standalone="no"?>
<svg
   id="Layer_1"
   data-name="Layer 1"
   viewBox="0 0 493.27295 155.83182"
   version="1.1"
   sodipodi:docname="how-it-works-sprite-desktop.svg"
   inkscape:version="1.1 (ce6663b3b7, 2021-05-25)"
   xmlns:inkscape="http://www.inkscape.org/namespaces/inkscape"
   xmlns:sodipodi="http://sodipodi.sourceforge.net/DTD/sodipodi-0.dtd"
   xmlns="http://www.w3.org/2000/svg"
   xmlns:svg="http://www.w3.org/2000/svg"
   xmlns:rdf="http://www.w3.org/1999/02/22-rdf-syntax-ns#"
   xmlns:cc="http://creativecommons.org/ns#"
   xmlns:dc="http://purl.org/dc/elements/1.1/">
  <sodipodi:namedview
     id="namedview73"
     pagecolor="#ffffff"
     bordercolor="#666666"
     borderopacity="1.0"
     inkscape:pageshadow="2"
     inkscape:pageopacity="0.0"
     inkscape:pagecheckerboard="0"
     showgrid="false"
     inkscape:zoom="0.82844429"
     inkscape:cx="120.70818"
     inkscape:cy="252.28009"
     inkscape:window-width="1920"
     inkscape:window-height="1015"
     inkscape:window-x="0"
     inkscape:window-y="0"
     inkscape:window-maximized="1"
     inkscape:current-layer="Layer_1" />
  <defs
     id="defs4">
    <style
       id="style2">.cls-1{fill:#101d23;}.cls-2{fill:#fe4c00;}.cls-3{fill:#fff;}.cls-4{fill:#ffd600;}</style>
  </defs>
  <title
     id="title6">How_Button</title>
  <g
     id="g993"
     transform="translate(-57.542717,-53.169508)">
    <path
       class="cls-1"
       d="m 365.09,145.43 c 0,6.29 -5.08,11.62 -11.12,11.62 h -11.52 v -0.3 a 3.06,3.06 0 0 1 -2.85,-3 v -32 a 3,3 0 0 1 3,-3 v -0.2 h 8.12 a 10.83,10.83 0 0 1 11.12,10.81 11,11 0 0 1 -2.29,6.7 11.1,11.1 0 0 1 5.54,9.37 z m -14.37,-20.92 h -5.13 v 9.9 h 5.79 a 5.19,5.19 0 0 0 4.47,-5.08 4.86,4.86 0 0 0 -5.13,-4.82 z m 8.38,20.92 c 0,-2.7 -2.59,-5 -5.54,-5 h -8 v 10.66 H 354 c 2.66,-0.03 5.1,-2.72 5.1,-5.66 z"
       id="path8" />
    <path
       class="cls-1"
       d="m 381.18,157.1 c -6.6,0 -12,-5.74 -12,-12.74 v -9.7 a 3,3 0 0 1 2.85,-3 3.23,3.23 0 0 1 3.2,3 v 9.7 c 0,3.65 3,6.6 6,6.6 3.45,0 6,-3 6,-6.6 v -9.29 a 3.32,3.32 0 0 1 3.15,-3 3,3 0 0 1 2.89,3 v 9.29 c -0.01,7 -5.44,12.74 -12.09,12.74 z"
       id="path10" />
    <path
       class="cls-1"
       d="m 420.16,134.71 v 22.19 a 12.71,12.71 0 0 1 -12.49,12.84 12.26,12.26 0 0 1 -9.44,-4.47 3.15,3.15 0 0 1 0.3,-4.31 2.85,2.85 0 0 1 4.17,0.35 6.59,6.59 0 0 0 5,2.34 6.67,6.67 0 0 0 6.55,-6.75 v -2.08 a 11.62,11.62 0 0 1 -5.79,1.57 c -6.39,0 -11.62,-5.58 -11.62,-12.49 v -9.08 a 2.95,2.95 0 1 1 5.89,0 v 9.08 c 0,3.51 2.59,6.4 5.73,6.4 3.14,0 5.79,-2.89 5.79,-6.4 v -9.19 a 3,3 0 1 1 5.94,0 z"
       id="path12" />
    <path
       class="cls-1"
       d="m 452,153.75 a 3,3 0 0 1 -3.05,3.05 11.65,11.65 0 0 1 -1.32,-0.05 7.37,7.37 0 0 1 -4.47,-2.29 7.5,7.5 0 0 1 -1.72,-4.57 V 137.1 h -2.19 a 3.045,3.045 0 0 1 0,-6.09 h 2.19 v -9.7 a 3.045,3.045 0 0 1 6.09,0 V 131 h 1.67 a 3.045,3.045 0 1 1 0,6.09 h -1.67 v 12.08 c 0.1,0.41 0,1 0.35,1.32 0.35,0.32 0.71,0.21 1.07,0.21 a 3.05,3.05 0 0 1 3.05,3.05 z"
       id="path14" />
    <path
       class="cls-1"
       d="m 478.33,154.06 a 3.07,3.07 0 0 1 -6.14,0 v -11.12 a 5.23,5.23 0 0 0 -10.46,0 v 11.12 a 3.1,3.1 0 0 1 -6.19,0 v -32.39 a 3.1,3.1 0 1 1 6.19,0 v 11.17 a 11.38,11.38 0 0 1 16.6,10.1 z"
       id="path16" />
    <path
       class="cls-1"
       d="m 486.35,127.15 a 3.16,3.16 0 0 1 -3.2,-3.1 v -0.25 a 3.15,3.15 0 1 1 6.29,0 v 0.25 a 3.14,3.14 0 0 1 -3.09,3.1 z m 0,29.8 a 3.17,3.17 0 0 1 -3.2,-3.15 v -19.59 a 3.15,3.15 0 0 1 6.29,0 v 19.59 a 3.15,3.15 0 0 1 -3.09,3.2 z"
       id="path18" />
    <path
       class="cls-1"
       d="m 503.1,157.05 a 12.77,12.77 0 0 1 -8.17,-2.89 3.0361571,3.0361571 0 0 1 4.11,-4.47 c 0.91,0.86 4.31,2 6.24,0.76 a 1.66,1.66 0 0 0 0.81,-1.42 1.65,1.65 0 0 0 -1.11,-1.42 5.14,5.14 0 0 0 -2.19,-0.26 11.79,11.79 0 0 1 -4,-0.55 7.62,7.62 0 0 1 -5,-6.25 7.52,7.52 0 0 1 2.28,-6.29 c 2.54,-2.34 6.25,-2.69 8.94,-2.24 a 9.1,9.1 0 0 1 4.82,2.24 3,3 0 0 1 0.2,4.26 3.1,3.1 0 0 1 -2.59,1 3.17,3.17 0 0 1 -1.31,-0.46 4.74,4.74 0 0 0 -2.14,-1 c -1.52,-0.25 -4.36,-0.15 -4.16,2 a 2,2 0 0 0 0.91,1.07 8.45,8.45 0 0 0 2.09,0.15 11.79,11.79 0 0 1 4.67,0.81 7.77,7.77 0 0 1 4.62,7 7.86,7.86 0 0 1 -3.51,6.5 10,10 0 0 1 -5.51,1.46 z"
       id="path20" />
    <path
       class="cls-1"
       d="M 321.47,208.68 A 12.74,12.74 0 1 1 334.26,196 12.74,12.74 0 0 1 321.47,208.68 Z m 0,-19.24 a 6.5,6.5 0 1 0 6.5,6.5 6.49,6.49 0 0 0 -6.5,-6.5 z"
       id="path22" />
    <path
       class="cls-1"
       d="m 354.92,177.06 a 3.16,3.16 0 0 1 -4.37,0.15 3.85,3.85 0 0 0 -2.63,-1.07 3.91,3.91 0 0 0 -3.86,4 v 6.3 h 4.82 a 3.07,3.07 0 1 1 0,6.14 h -4.82 v 12.89 a 3.13,3.13 0 0 1 -6.25,0 V 180.1 a 10.1,10.1 0 0 1 17,-7.41 3.16,3.16 0 0 1 0.11,4.37 z"
       id="path24" />
    <path
       class="cls-1"
       d="m 372.33,177.06 a 3.16,3.16 0 0 1 -4.37,0.15 3.85,3.85 0 0 0 -2.63,-1.07 3.91,3.91 0 0 0 -3.86,4 v 6.3 h 4.82 a 3.07,3.07 0 1 1 0,6.14 h -4.82 v 12.89 a 3.13,3.13 0 0 1 -6.25,0 V 180.1 a 10.1,10.1 0 0 1 17,-7.41 3.16,3.16 0 0 1 0.11,4.37 z"
       id="path26" />
    <path
       class="cls-1"
       d="m 393.24,197.77 h -15.63 a 6.7,6.7 0 0 0 6.45,5.13 8.5,8.5 0 0 0 5.33,-1.93 3,3 0 0 1 4.31,0.05 3,3 0 0 1 -0.05,4.31 14.14,14.14 0 0 1 -9.59,3.61 12.75,12.75 0 0 1 0,-25.49 10.53,10.53 0 0 1 2.23,0.21 12.28,12.28 0 0 1 8.22,5.83 9.79,9.79 0 0 1 1.63,5 4.35,4.35 0 0 1 -0.41,1.47 2.75,2.75 0 0 1 -2.49,1.81 z m -14.77,-5.13 h 10.76 a 5.63,5.63 0 0 0 -5.17,-3 6.58,6.58 0 0 0 -5.59,3 z"
       id="path28" />
    <path
       class="cls-1"
       d="m 419.84,191.12 a 3,3 0 0 1 -4.31,0.15 6.16,6.16 0 0 0 -4.22,-1.67 6.44,6.44 0 0 0 -6.29,6.54 v 9.6 a 3.045,3.045 0 1 1 -6.09,0 V 186.3 a 3.0054118,3.0054118 0 0 1 5.94,-0.92 12.08,12.08 0 0 1 14.82,1.47 3,3 0 0 1 0.15,4.27 z"
       id="path30" />
    <path
       class="cls-1"
       d="m 460.6,196 v 9.6 a 3,3 0 1 1 -6,0 V 196 c 0,-3.6 -2.64,-6.5 -5.84,-6.5 -4,0 -6,4 -6,7.47 v 8.63 a 3.045,3.045 0 0 1 -6.09,0 v -19.35 a 3.06,3.06 0 0 1 3.05,-3.05 3,3 0 0 1 2.84,2.08 11.35,11.35 0 0 1 6.19,-1.83 c 6.52,0 11.85,5.64 11.85,12.55 z"
       id="path32" />
    <path
       class="cls-1"
       d="M 476.64,208.68 A 12.74,12.74 0 1 1 489.43,196 12.74,12.74 0 0 1 476.64,208.68 Z m 0,-19.24 a 6.5,6.5 0 1 0 6.5,6.5 6.49,6.49 0 0 0 -6.5,-6.5 z"
       id="path34" />
    <path
       class="cls-1"
       d="m 527.1,199.44 v 0.31 a 9.91,9.91 0 0 1 -10.05,9.25 10.45,10.45 0 0 1 -7,-2.74 10.34,10.34 0 0 1 -7,2.74 9.86,9.86 0 0 1 -10,-9.6 v -12.7 a 3.045,3.045 0 0 1 6.09,0 v 12.74 a 4,4 0 0 0 7.92,0 V 186.7 a 3.05,3.05 0 0 1 6.1,0 v 12.74 a 4,4 0 0 0 7.92,0 V 186.6 a 3.045,3.045 0 1 1 6.09,0 z"
       id="path36" />
    <path
       class="cls-1"
       d="m 535.21,198.94 a 3.05,3.05 0 0 1 -3,-3.05 v -22.54 a 3.07,3.07 0 1 1 6.14,0 v 22.54 a 3.07,3.07 0 0 1 -3.14,3.05 z m 0.36,9.85 h -0.36 a 3.08,3.08 0 0 1 0,-6.15 h 0.36 a 3.08,3.08 0 1 1 0,6.15 z"
       id="path38" />
    <path
       class="cls-4"
       d="m 524.71,125.48 15.57,-15.91 a 3.53,3.53 0 0 0 -5,-4.93 l -15.56,15.9 a 3.53,3.53 0 0 0 5,4.94"
       id="path62" />
    <path
       class="cls-4"
       d="m 505.15,116.71 -2.56,-22.86 a 3.53,3.53 0 1 0 -7,0.78 l 2.56,22.86 a 3.53,3.53 0 1 0 7,-0.78"
       id="path64" />
    <path
       class="cls-4"
       d="m 527.55,145.41 19.19,2.94 a 3.5406532,3.5406532 0 0 0 1.07,-7 l -19.19,-2.94 a 3.5406532,3.5406532 0 0 0 -1.07,7"
       id="path66" />
    <path
       class="cls-4"
       d="m 64.08,98.6 v 0 c 0.6,-0.46 13.26,-9.87 33.72,-19.12 20.46,-9.25 48.72,-18.34 80.53,-18.33 a 159.66,159.66 0 0 1 59.3,11.27 c 20.51,8.14 41.53,21.26 62.28,41.33 a 4,4 0 1 0 5.56,-5.74 C 284.03,87.27 262.09,73.52 240.58,65.01 A 167.43,167.43 0 0 0 178.33,53.17 c -33.87,0 -63.56,9.77 -84.82,19.5 C 72.25,82.4 59.42,92.11 59.25,92.23 a 4,4 0 1 0 4.83,6.37 z"
       id="path68" />
    <path
       class="cls-4"
       d="m 276.52,115.82 28.1,1.82 a 4,4 0 0 0 4.24,-3.76 l 1.54,-26.69 a 4.006607,4.006607 0 0 0 -8,-0.46 l -1.3,22.67 -24.1,-1.55 a 4.0084411,4.0084411 0 1 0 -0.52,8 z"
       id="path70" />
  </g>
  <metadata
     id="metadata890">
    <rdf:RDF>
      <cc:Work
         rdf:about="">
        <dc:title>How_Button</dc:title>
      </cc:Work>
    </rdf:RDF>
  </metadata>
</svg>
