<?xml version="1.0" encoding="UTF-8"?>
<svg data-name="Layer 1" version="1.1" viewBox="0 0 94.441 83.82" xmlns="http://www.w3.org/2000/svg">
 <defs>
  <style>.cls-4{fill:#fff;}.cls-4,.cls-5{stroke-miterlimit:10;stroke-width:5px;}.cls-5{fill:none;}</style>
 </defs>
 <title>illustrations</title>
 <path class="cls-3" d="m87.09 16.67h-79.74a47.19 47.19 0 0 0-1.45 48.14h82.65a47.22 47.22 0 0 0-1.46-48.14z" fill="#274f73"/>
 <circle class="cls-4" cx="47.22" cy="41.91" r="39.41" stroke="#3882bb"/>
 <circle class="cls-5" cx="47" cy="42.31" r="28.52" stroke="#9eb8cc"/>
 <g fill="#3882bb">
  <path class="cls-1" d="m29.63 71.06a2.71 2.71 0 0 1-0.44-3.84l24-31a2.72 2.72 0 1 1 4.3 3.33l-24 31a2.7 2.7 0 0 1-3.86 0.51z"/>
  <path class="cls-1" d="m74 22.16-9.81 13.06a3.42 3.42 0 0 1-2.76 1.36 3.54 3.54 0 0 1-2.15-0.72l-2.85-2.14a3.55 3.55 0 0 1-1.43-2.84 3.31 3.31 0 0 1 0.69-2l9.84-13a2.003 2.003 0 1 0-3.2-2.41l-9.84 12.95a7.43 7.43 0 0 0-1.49 4.46 7.55 7.55 0 0 0 3 6l2.82 2.13a7.56 7.56 0 0 0 4.56 1.53 7.4 7.4 0 0 0 6-3l9.84-13a2 2 0 0 0-3.19-2.41z"/>
  <path class="cls-1" d="m68.42 17.22-12.91 17.26a2 2 0 1 0 3.2 2.4l12.91-17.22a2 2 0 1 0-3.2-2.4"/>
  <rect class="cls-1" transform="rotate(-33.215)" x="13.464" y="48.325" width="5.462" height="46.778" rx="2.731" stroke-width="1.004"/>
  <path class="cls-1" d="m30.782 14.243 0.7812-0.5115 17.452 26.653-9.1812 6.0115-11.952-18.253a10.04 10.04 0 0 1 2.9-13.9z" stroke-width="1.004"/>
 </g>
</svg>
