<svg id="Layer_1" data-name="Layer 1" xmlns="http://www.w3.org/2000/svg" viewBox="0 0 311.92 122.38"><defs><style>.cls-1{fill:#fe4c00;}.cls-2{fill:#c12a02;}.cls-3,.cls-4{fill:#fff;}.cls-4{font-size:31.27px;font-family:Roboto-Bold, Roboto;font-weight:700;}.cls-5{letter-spacing:-0.01em;}.cls-6{letter-spacing:-0.02em;}</style></defs><title>illustrations</title><rect class="cls-1" x="7.76" y="37.53" width="300.39" height="48.14" rx="9.24"/><rect class="cls-2" x="21.12" y="37.5" width="73.47" height="48.17"/><path class="cls-3" d="M82.77,88.21,61,101.61a8.6,8.6,0,0,1-9.18-.13L31.66,88.23a7.79,7.79,0,0,1-3.59-6.49v-46a5.88,5.88,0,0,1,3.83-5.44c16.83-6.58,33.72-6.12,50.64,0a5.94,5.94,0,0,1,4,5.52V81.59A7.8,7.8,0,0,1,82.77,88.21Z"/><path class="cls-1" d="M82.77,88.21,81.44,86,59.68,99.44a6,6,0,0,1-6.45-.09L33.06,86.1a5.23,5.23,0,0,1-2.44-4.36v-46a3.34,3.34,0,0,1,2.21-3.07A65.05,65.05,0,0,1,56.69,28a72.61,72.61,0,0,1,25,4.65A3.37,3.37,0,0,1,84,35.81V81.59A5.25,5.25,0,0,1,81.44,86l1.33,2.17,1.34,2.16a10.33,10.33,0,0,0,5-8.78V35.81a8.49,8.49,0,0,0-5.69-7.91A77.83,77.83,0,0,0,56.69,23,70.23,70.23,0,0,0,31,27.87a8.45,8.45,0,0,0-5.45,7.82V81.74a10.34,10.34,0,0,0,4.73,8.61l20.18,13.26a11.2,11.2,0,0,0,11.91.17L84.11,90.37Z"/><path class="cls-1" d="M35,71.05l11.8,12.4a5.82,5.82,0,0,0,9-.66h0l24.47-35a3.39,3.39,0,1,0-5.56-3.88l-24.46,35L53,80.81l-2.75-2,.72.52v-.84a.89.89,0,0,0-.72.32l.72.52v.06l.68-.64a1,1,0,0,0-.68-.26v.9l.68-.64-11.8-12.4A3.4,3.4,0,0,0,35,71.05Z"/><text class="cls-4" transform="translate(105.15 73.5)">C<tspan class="cls-5" x="19.99" y="0">o</tspan><tspan x="37.39" y="0">vid </tspan><tspan class="cls-6" x="87.15" y="0">A</tspan><tspan x="106.58" y="0">ware</tspan></text></svg>