<?xml version="1.0" encoding="UTF-8" standalone="no"?>
<svg
   xmlns:dc="http://purl.org/dc/elements/1.1/"
   xmlns:cc="http://creativecommons.org/ns#"
   xmlns:rdf="http://www.w3.org/1999/02/22-rdf-syntax-ns#"
   xmlns:svg="http://www.w3.org/2000/svg"
   xmlns="http://www.w3.org/2000/svg"
   xmlns:sodipodi="http://sodipodi.sourceforge.net/DTD/sodipodi-0.dtd"
   xmlns:inkscape="http://www.inkscape.org/namespaces/inkscape"
   id="Layer_1"
   data-name="Layer 1"
   viewBox="0 0 328.60001 411.5321"
   version="1.1"
   sodipodi:docname="xiao-divider.svg"
   width="328.60001"
   height="411.5321"
   inkscape:version="1.0.2 (e86c870879, 2021-01-15)">
  <metadata
     id="metadata89">
    <rdf:RDF>
      <cc:Work
         rdf:about="">
        <dc:format>image/svg+xml</dc:format>
        <dc:type
           rdf:resource="http://purl.org/dc/dcmitype/StillImage" />
      </cc:Work>
    </rdf:RDF>
  </metadata>
  <sodipodi:namedview
     pagecolor="#ffffff"
     bordercolor="#666666"
     borderopacity="1"
     objecttolerance="10"
     gridtolerance="10"
     guidetolerance="10"
     inkscape:pageopacity="0"
     inkscape:pageshadow="2"
     inkscape:window-width="1920"
     inkscape:window-height="1013"
     id="namedview87"
     showgrid="false"
     inkscape:zoom="0.856"
     inkscape:cx="-121.15839"
     inkscape:cy="166.26321"
     inkscape:window-x="0"
     inkscape:window-y="33"
     inkscape:window-maximized="1"
     inkscape:current-layer="Layer_1" />
  <defs
     id="defs4">
    <style
       id="style2">.cls-1{fill:#ffeec4;}.cls-2{fill:#fdf4cd;}.cls-3{fill:#e7af5f;}.cls-4{fill:#edad5d;}.cls-5{fill:#c6883e;}.cls-6{fill:#d5b57f;}.cls-7{fill:#ac8654;}.cls-8{fill:#fdeed0;}.cls-9{fill:#ffdc9b;}.cls-10{fill:#0c1d24;}</style>
  </defs>
  <title
     id="title6">XLB_coloured</title>
  <path
     class="cls-1"
     d="m 316.52,288.9821 c 0,0 -27.58,93.94 -152.23,93.94 -124.65,0 -152.83,-93.94 -152.83,-93.94 v -26.51 0 A 77.61,77.61 0 0 0 0,302.5321 c 0,60.17 73.56,109 164.3,109 90.74,0 164.3,-48.78 164.3,-108.95 0,-14.52 -4.3,-28.37 -12.07,-41 z"
     id="path8" />
  <path
     class="cls-2"
     d="m 151.32,80.642099 a 205.88,205.88 0 0 0 -37,5.58"
     id="path10" />
  <path
     class="cls-2"
     d="m 201.99,83.582099 a 211.72,211.72 0 0 0 -32.5,-3.29"
     id="path12" />
  <path
     class="cls-3"
     d="m 96.67,91.132099 0.14,0.26 A 167.22,167.22 0 0 0 53.25,113.9521 c -14.32,10.49 -26,23 -34.15,37.13 a 91.54,91.54 0 0 0 -12.7,46.11 c 0,0.2 0,0.39 0,0.59 v 0 90.61 h 0.3 a 58.91,58.91 0 0 0 3.11,13.27 c 3.87,10.85 10.79,21.65 20.09,31.83 14,15.28 33.35,29.2 56.35,39.36 a 193.65,193.65 0 0 0 78,16.55 c 43.3,0 82.44,-14.16 111,-34.36 14.27,-10.11 25.9,-21.74 34,-34 8.1,-12.26 12.86,-25.31 12.87,-38.13 0,-0.45 0,-5.59 0,-12.82 0,-0.43 0,-0.86 0,-1.28 0,-1.65 -0.16,-65.75 -0.16,-65.76 v -0.58 c 0.1,-1.74 0.16,-3.49 0.16,-5.25 a 91.54,91.54 0 0 0 -12.66,-46.14 c -12.22,-21.13 -32.39,-38.81 -57.52,-51.240001 a 183.38,183.38 0 0 0 -32.43,-12.26"
     id="path14" />
  <path
     class="cls-4"
     d="m 15.73,215.3221 v -0.27 h -3.37 v 3.42 h 3.38 v -3.38 c 0,-9.91 4,-21 11.43,-32.15 11.19,-16.65 30.16,-33.1 54.08,-45.3 a 185.21,185.21 0 0 1 83.75,-20.19 c 41.4,0 78.94,13.61 106,32.78 13.52,9.57 24.4,20.53 31.85,31.77 7.45,11.24 11.44,22.71 11.43,33.36 h 6.75 c 0,-12.34 -4.56,-25 -12.56,-37.09 -12,-18.09 -31.79,-34.91 -56.61,-47.29 a 195.67,195.67 0 0 0 -86.84,-20.28 c -42.87,0 -81.66,14.68 -109.85,34.92 -14.1,10.13 -25.57,21.66 -33.57,33.56 -8,11.9 -12.58,24.2 -12.59,35.91 h 3.37 v -3.37 H 9 v 3.64 z"
     id="path16" />
  <path
     class="cls-5"
     d="m 51.36,175.1821 a 256.91,256.91 0 0 1 26.18,-17.18 192.9,192.9 0 0 1 28.14,-13.42 174.24,174.24 0 0 1 29.91,-8.41 149.18,149.18 0 0 1 30.93,-2.37 164.11,164.11 0 0 1 30.83,3.52 205.05,205.05 0 0 1 29.83,8.87 238.85,238.85 0 0 1 28.38,13 c 9.25,4.84 18.17,10.3 26.95,16 a 280.6,280.6 0 0 0 -26.2,-17.33 237,237 0 0 0 -28.24,-13.91 175.32,175.32 0 0 0 -61.49,-13.28 156.28,156.28 0 0 0 -61.78,11.68 191.92,191.92 0 0 0 -28.05,14.34 227.51,227.51 0 0 0 -25.39,18.49 z"
     id="path18" />
  <path
     class="cls-5"
     d="m 24.13,190.1221 a 112.05,112.05 0 0 1 11.84,-17.22 159.34,159.34 0 0 1 14.29,-15.1 c 2.62,-2.27 5.14,-4.67 7.91,-6.77 1.35,-1.08 2.67,-2.22 4.06,-3.26 1.39,-1.04 2.81,-2 4.21,-3.09 l 2.1,-1.56 2.17,-1.44 4.34,-3 c 2.92,-1.92 5.95,-3.67 8.88,-5.66 -3.24,1.36 -6.49,2.76 -9.66,4.33 l -4.65,2.53 -2.32,1.29 -2.24,1.43 a 121.62,121.62 0 0 0 -16.93,12.87 110,110 0 0 0 -14.1,16 69.66,69.66 0 0 0 -9.9,18.65 z"
     id="path20" />
  <path
     class="cls-5"
     d="m 305.35,174.9021 a 117.72,117.72 0 0 0 -16.33,-20.43 138.5,138.5 0 0 0 -20.17,-16.86 c -3.59,-2.54 -7.42,-4.72 -11.21,-6.93 -1.94,-1 -3.95,-1.95 -5.91,-2.93 l -3,-1.44 -3.07,-1.2 c -8.06,-3.53 -16.73,-5.41 -25.3,-6.78 2.08,0.68 4.15,1.33 6.23,1.94 l 3.11,0.94 c 1,0.35 2,0.79 3,1.17 l 6.06,2.3 5.89,2.67 2.94,1.34 2.85,1.52 c 1.89,1 3.82,2 5.67,3.07 l 5.52,3.34 c 1.88,1.06 3.58,2.4 5.37,3.58 a 185.57,185.57 0 0 1 20.25,16 l 4.72,4.45 c 1.52,1.53 3.09,3 4.58,4.6 3.13,3.06 5.99,6.31 8.8,9.65 z"
     id="path22" />
  <path
     class="cls-5"
     d="m 35.92,157.8521 a 105.28,105.28 0 0 1 16.07,-15.66 150.63,150.63 0 0 1 18.4,-12.72 175.73,175.73 0 0 1 41,-17.46 210.51,210.51 0 0 1 21.8,-5 c 3.69,-0.54 7.36,-1.26 11.08,-1.62 l 5.56,-0.65 5.59,-0.47 a 312.19,312.19 0 0 1 44.95,-0.05 227.35,227.35 0 0 0 -45.1,-2.39 l -5.66,0.29 -5.65,0.54 c -3.78,0.29 -7.51,0.94 -11.26,1.42 a 199.81,199.81 0 0 0 -22.17,4.93 186.08,186.08 0 0 0 -21.39,7.71 155.91,155.91 0 0 0 -20.05,10.69 132.41,132.41 0 0 0 -18.12,13.65 c -2.81,2.53 -5.5,5.19 -8,8 a 70.36,70.36 0 0 0 -7.05,8.79 z"
     id="path24" />
  <path
     class="cls-6"
     d="m 17.26,224.1021 c 0,0 29.2,87.37 142.37,85.08 113.17,-2.29 152.36,-78.93 152.36,-78.93 0,0 -17.51,-39.34 -39.4,-44.9 h -5.21 c 0,0 14.4,21.39 -8.12,28 -22.52,6.61 -55.44,2.38 -55.44,2.38 0,0 -17.17,-3.94 -18,-11 -0.83,-7.06 5.06,-31.42 11.54,-36.95 6.48,-5.53 13.79,-11.45 13.79,-11.45 0,0 -60.08,-9.68 -71.91,-3.45 0,0 18.29,35.72 0.56,45.05 -17.73,9.33 -59.87,2.36 -59.87,2.36 0,0 -20.48,-0.4 -17.31,-17.26 -0.01,0.03 -34.36,21.29 -45.36,41.07 z"
     id="path26" />
  <rect
     class="cls-6"
     x="93.599998"
     y="181.9621"
     width="16.129999"
     height="115.98"
     id="rect28" />
  <rect
     class="cls-6"
     x="169.99001"
     y="158.12209"
     width="16.129999"
     height="149.08"
     id="rect30" />
  <rect
     class="cls-6"
     x="204.27"
     y="158.12209"
     width="16.129999"
     height="149.08"
     id="rect32" />
  <polygon
     class="cls-6"
     points="335.24,199.65 351.37,199.65 351.37,328.49 335.24,334.96 "
     id="polygon34"
     transform="translate(-93.54,-41.527901)" />
  <polygon
     class="cls-6"
     points="368.41,230.05 384.54,237.62 382.67,305.08 368.41,319.44 "
     id="polygon36"
     transform="translate(-93.54,-41.527901)" />
  <ellipse
     class="cls-7"
     cx="103.96999"
     cy="196.70209"
     rx="45.610001"
     ry="16.52"
     id="ellipse38" />
  <ellipse
     class="cls-7"
     cx="154.82001"
     cy="281.42212"
     rx="45.610001"
     ry="16.52"
     id="ellipse40" />
  <ellipse
     class="cls-7"
     cx="228.7"
     cy="210.8821"
     rx="45.610001"
     ry="16.52"
     id="ellipse42" />
  <path
     class="cls-8"
     d="m 174.62,284.2421 h -39.73 c -9.9,0 -23.91,-4.65 -21.94,-16.75 0,0 2.41,-40.09 31,-45.32 2,-0.36 7.06,-7.17 9.28,-7.17 2.44,0 8.36,6.46 10.48,6.89 28,5.67 32.9,44.05 32.9,44.05 2.5,11.26 -12.09,18.3 -21.99,18.3 z"
     id="path44" />
  <path
     class="cls-8"
     d="M 125.74,202.4721 H 86.01 c -9.9,0 -23.9,-4.64 -21.93,-16.74 0,0 2.4,-40.09 31,-45.33 2,-0.36 7.06,-7.16 9.28,-7.16 2.44,0 8.36,6.45 10.49,6.88 28,5.67 32.89,44.05 32.89,44.05 2.49,11.21 -12.1,18.3 -22,18.3 z"
     id="path46" />
  <path
     class="cls-8"
     d="m 248.51,217.6821 h -39.74 c -9.89,0 -23.9,-4.64 -21.93,-16.74 0,0 2.41,-40.09 31,-45.33 2,-0.36 7.06,-7.16 9.29,-7.16 2.44,0 8.36,6.45 10.48,6.88 28,5.67 32.89,44 32.89,44 2.5,11.31 -12.1,18.35 -21.99,18.35 z"
     id="path48" />
  <polygon
     class="cls-6"
     points="122.87,252.01 136.04,239.5 136.04,305.97 122.87,294.08 "
     id="polygon50"
     transform="translate(-93.54,-41.527901)" />
  <polygon
     class="cls-6"
     points="392.65,252.01 383.06,239.5 383.06,305.97 392.65,294.08 "
     id="polygon52"
     transform="translate(-93.54,-41.527901)" />
  <path
     class="cls-9"
     d="m 221.25,204.5521 c -9.9,0 -23.91,-4.64 -21.94,-16.74 0,0 0.94,-15.48 8.49,-28.45 -19.14,11.4 -21,41.58 -21,41.58 -2,12.1 12,16.74 21.93,16.74 h 39.74 c 8.89,0 21.57,-5.69 22.21,-15 a 28.45,28.45 0 0 1 -9.74,1.88 z"
     id="path54" />
  <path
     class="cls-9"
     d="m 98.46,187.1921 c -9.9,0 -23.9,-4.65 -21.93,-16.75 0,0 0.93,-15.47 8.48,-28.45 -19.13,11.41 -21,41.58 -21,41.58 -2,12.1 12,16.75 21.94,16.75 h 39.81 c 8.89,0 21.58,-5.69 22.21,-15 a 28.47,28.47 0 0 1 -9.74,1.89 z"
     id="path56" />
  <path
     class="cls-9"
     d="m 146.75,271.6321 c -9.89,0 -23.9,-4.64 -21.93,-16.75 0,0 0.94,-15.47 8.49,-28.44 -19.14,11.4 -21,41.57 -21,41.57 -2,12.11 12,16.75 21.93,16.75 h 39.73 c 8.9,0 21.58,-5.69 22.22,-15 a 28.52,28.52 0 0 1 -9.74,1.89 z"
     id="path58" />
  <path
     class="cls-1"
     d="m 225.08,104.0921 a 47.12,47.12 0 0 0 -3.9,-9.000001 v 0 a 11,11 0 0 1 -1.51,-5.48 10.26,10.26 0 0 1 0.55,-3.31 5.46,5.46 0 0 1 0.32,-0.79 v 0 l 0.1,-0.15 0.15,-0.31 a 50.49,50.49 0 0 0 3.1,-7.41 23.52,23.52 0 0 0 1.14,-7 20.57,20.57 0 0 0 -1.11,-6.53 c -0.6,-1.78 -1.2,-3.1 -1.7,-4.37 -1,-2.58 -2.08,-4.3 -2.51,-5.28 a 7.63,7.63 0 0 1 -0.37,-0.95 2.12,2.12 0 0 1 -0.06,-0.44 5.37,5.37 0 0 1 0.23,-1.28 17.28,17.28 0 0 1 1.28,-3.16 9,9 0 1 0 -16.09,-8 35.77,35.77 0 0 0 -2.52,6.35 22.78,22.78 0 0 0 -0.89,6.13 19.75,19.75 0 0 0 0.66,5 27,27 0 0 0 2.11,5.32 c 0.67,1.31 1.15,2.23 1.45,3 0.66,1.63 1.14,2.76 1.34,3.37 a 2.51,2.51 0 0 1 0.19,0.85 5.74,5.74 0 0 1 -0.33,1.61 32.76,32.76 0 0 1 -1.95,4.58 24.13,24.13 0 0 0 -1.56,3.61 28,28 0 0 0 -1.53,9.17 29.09,29.09 0 0 0 3.79,14.210001 v 0 a 28.89,28.89 0 0 1 2.42,5.52 14.73,14.73 0 0 1 0.72,4.29 8.39,8.39 0 0 1 -0.61,3.24 9.41,9.41 0 0 1 -2.15,3.08 9,9 0 0 0 12.72,12.72 27.56,27.56 0 0 0 6,-8.89 26.48,26.48 0 0 0 2,-10.15 32.8,32.8 0 0 0 -1.48,-9.55 z"
     id="path60" />
  <path
     class="cls-1"
     d="m 168.46,68.952099 a 47.12,47.12 0 0 0 -3.9,-9 v 0 a 11,11 0 0 1 -1.54,-5.48 10.38,10.38 0 0 1 0.55,-3.32 7.46,7.46 0 0 1 0.32,-0.78 v 0 l 0.09,-0.15 0.15,-0.31 a 50.58,50.58 0 0 0 3.1,-7.42 23.08,23.08 0 0 0 1.14,-7 20.3,20.3 0 0 0 -1.11,-6.53 c -0.6,-1.78 -1.2,-3.1 -1.7,-4.37 -1.05,-2.58 -2.08,-4.31 -2.5,-5.28 a 6.24,6.24 0 0 1 -0.38,-1 1.54,1.54 0 0 1 -0.05,-0.43 4.62,4.62 0 0 1 0.22,-1.28 18.06,18.06 0 0 1 1.3,-3.13 9,9 0 1 0 -16.09,-8.0000002 35.77,35.77 0 0 0 -2.52,6.3500002 22.78,22.78 0 0 0 -0.89,6.13 19.81,19.81 0 0 0 0.66,5 27,27 0 0 0 2.15,5.33 c 0.67,1.31 1.15,2.23 1.45,3 0.66,1.63 1.15,2.76 1.34,3.37 a 2.51,2.51 0 0 1 0.19,0.85 5.39,5.39 0 0 1 -0.33,1.61 34.21,34.21 0 0 1 -1.94,4.58 22.89,22.89 0 0 0 -1.57,3.61 28,28 0 0 0 -1.57,9.17 29,29 0 0 0 3.77,14.21 v 0 a 28.28,28.28 0 0 1 2.42,5.52 14.73,14.73 0 0 1 0.72,4.29 8.39,8.39 0 0 1 -0.61,3.24 9.62,9.62 0 0 1 -2.15,3.08 9,9 0 0 0 12.73,12.72 27.53,27.53 0 0 0 6,-8.89 26.3,26.3 0 0 0 2,-10.15 32.75,32.75 0 0 0 -1.45,-9.54 z"
     id="path62" />
  <path
     class="cls-1"
     d="m 116.65,91.402099 a 46.24,46.24 0 0 0 -3.9,-9 v 0 a 11,11 0 0 1 -1.5,-5.47 10.06,10.06 0 0 1 0.55,-3.32 7.15,7.15 0 0 1 0.31,-0.78 v 0 l 0.09,-0.15 0.16,-0.31 a 50.58,50.58 0 0 0 3.1,-7.42 23.51,23.51 0 0 0 1.14,-7 20.52,20.52 0 0 0 -1.09,-6.48 c -0.6,-1.78 -1.2,-3.1 -1.71,-4.38 -1.05,-2.57 -2.08,-4.3 -2.5,-5.27 a 7,7 0 0 1 -0.37,-1 2.12,2.12 0 0 1 -0.06,-0.43 4.72,4.72 0 0 1 0.22,-1.29 18.27,18.27 0 0 1 1.29,-3.15 9,9 0 0 0 -16.1,-8 35.78,35.78 0 0 0 -2.51,6.36 22.72,22.72 0 0 0 -0.89,6.13 19.82,19.82 0 0 0 0.65,5 27.17,27.17 0 0 0 2.12,5.31 c 0.67,1.32 1.14,2.24 1.45,3 0.66,1.62 1.14,2.76 1.34,3.37 a 2.47,2.47 0 0 1 0.19,0.85 6.28,6.28 0 0 1 -0.33,1.61 32.77,32.77 0 0 1 -2,4.57 23.89,23.89 0 0 0 -1.57,3.61 28.62,28.62 0 0 0 -1.53,9.18 29.08,29.08 0 0 0 3.78,14.21 v 0 a 29.89,29.89 0 0 1 2.42,5.53 14.68,14.68 0 0 1 0.71,4.290001 8.21,8.21 0 0 1 -0.61,3.24 9.57,9.57 0 0 1 -2.04,3.06 9,9 0 0 0 12.72,12.72 27.49,27.49 0 0 0 6,-8.9 26.4,26.4 0 0 0 2,-10.14 32.42,32.42 0 0 0 -1.53,-9.550001 z"
     id="path64" />
  <path
     class="cls-10"
     d="m 322.36,203.0121 v -0.54 c 0.11,-1.74 0.17,-3.49 0.17,-5.25 a 91.65,91.65 0 0 0 -12.7,-46.11 c -12.22,-21.13 -32.4,-38.81 -57.52,-51.240001 a 183.38,183.38 0 0 0 -32.43,-12.26 10.3,10.3 0 0 0 -0.21,2 11,11 0 0 0 1.51,5.48 q 1.21,2.2 2.21,4.46 a 159.13,159.13 0 0 1 46.07,22.920001 c 13.3,9.74 24,21.26 31.27,33.91 a 81,81 0 0 1 11.29,40.86 78.43,78.43 0 0 1 -2.24,18.59 118.89,118.89 0 0 0 -17,-20.21 158,158 0 0 0 -25.73,-19.75 53.32,53.32 0 0 0 -10.11,-14.68 36.4,36.4 0 0 0 -18.48,-10.2 3.18,3.18 0 0 1 -0.48,-0.28 l -0.39,-0.28 v 0 c -0.45,-0.33 -1,-0.76 -1.58,-1.23 -1.19,-1 -2.54,-2.11 -3.89,-3.08 a 16,16 0 0 0 -2.12,-1.32 7.83,7.83 0 0 0 -1.24,-0.52 5.12,5.12 0 0 0 -4.16,0.42 14.56,14.56 0 0 0 -2.79,2.05 c -1.27,1.14 -2.51,2.42 -3.54,3.38 -0.51,0.48 -1,0.87 -1.26,1.09 l -0.14,0.1 a 33.64,33.64 0 0 0 -5.31,1.47 198.4,198.4 0 0 0 -46.88,-5.62 191.32,191.32 0 0 0 -27.54,2 43.23,43.23 0 0 0 -2.95,-3.28 36.39,36.39 0 0 0 -18.46,-10.15 3.33,3.33 0 0 1 -0.47,-0.28 l -0.39,-0.28 v 0 c -0.45,-0.33 -1,-0.76 -1.58,-1.23 -1.19,-1 -2.54,-2.11 -3.89,-3.08 a 16.08,16.08 0 0 0 -2.13,-1.32 7.83,7.83 0 0 0 -1.24,-0.52 5.09,5.09 0 0 0 -4.15,0.42 14.26,14.26 0 0 0 -2.79,2.05 c -1.27,1.14 -2.52,2.42 -3.55,3.38 a 15.48,15.48 0 0 1 -1.25,1.09 l -0.15,0.1 a 33.74,33.74 0 0 0 -18.36,10.21 c -7,7.4 -10.59,16.9 -12.62,24.53 -0.6,2.28 -1.05,4.4 -1.39,6.25 a 162.07,162.07 0 0 0 -25.95,20.38 120.91,120.91 0 0 0 -16.14,19.03 78,78 0 0 1 -2.43,-19.27 81,81 0 0 1 11.29,-40.86 c 11,-19 29.49,-35.42 53.09,-47.08 a 167,167 0 0 1 18.51,-7.79 c 0,-0.17 0,-0.34 0,-0.51 a 14.68,14.68 0 0 0 -0.71,-4.290001 28.45,28.45 0 0 0 -2.29,-5.27 167.32,167.32 0 0 0 -43.55,22.560001 c -14.32,10.49 -26,23 -34.16,37.13 a 91.65,91.65 0 0 0 -12.7,46.11 c 0,0.2 0,0.39 0,0.59 v 0 90.61 h 0.31 a 58.38,58.38 0 0 0 3.11,13.27 c 3.89,10.8 10.81,21.63 20.11,31.8 14,15.28 33.34,29.2 56.34,39.36 a 193.69,193.69 0 0 0 78,16.55 c 43.31,0 82.44,-14.16 111,-34.36 14.26,-10.11 25.89,-21.74 34.05,-34 8.16,-12.26 12.86,-25.31 12.87,-38.13 0,-0.45 0,-5.6 0,-12.82 0,-0.43 0,-0.86 0,-1.28 0.01,-1.67 -0.16,-65.77 -0.16,-65.78 z m -21.45,112.19 c -10.93,16.52 -29.61,32.56 -53.27,44.34 a 187,187 0 0 1 -83,19.37 c -40.87,0 -78.05,-14.07 -104.82,-33.3 -13.38,-9.61 -24.14,-20.49 -31.45,-31.37 a 72.94,72.94 0 0 1 -8.31,-16.1 44.58,44.58 0 0 1 -2.8,-15 v -3.4 q 1.8,3.24 4,6.45 c 12,17.84 31.79,34.87 56.6,47.54 a 191.93,191.93 0 0 0 86.82,20.93 c 42.9,0 81.68,-14 109.88,-34 14.11,-10 25.57,-21.48 33.58,-33.55 1.42,-2.14 2.73,-4.31 3.93,-6.49 v 2.27 c -0.03,10.16 -3.85,21.3 -11.16,32.31 z M 67.46,184.9721 v -0.18 0 a 73.07,73.07 0 0 1 4.74,-20.13 43.45,43.45 0 0 1 8.61,-14 27,27 0 0 1 13.24,-7.73 19.11,19.11 0 0 1 -1.29,4.63 14.07,14.07 0 0 1 -2.79,4.29 13.61,13.61 0 0 1 -5,3.26 3.3733403,3.3733403 0 1 0 2.44,6.29 20.36,20.36 0 0 0 7.42,-4.87 22,22 0 0 0 5.24,-9.48 28.68,28.68 0 0 0 0.94,-5.81 55.51,55.51 0 0 1 1.15,10.94 35,35 0 0 1 -1.79,11.6 22.4,22.4 0 0 1 -6.66,9.85 3.3732959,3.3732959 0 0 0 4.37,5.14 29.19,29.19 0 0 0 8.65,-12.75 41.67,41.67 0 0 0 2.18,-13.84 64.77,64.77 0 0 0 -1.78,-14.55 c 0.84,0.67 1.72,1.41 2.58,2.09 0.23,0.18 0.46,0.33 0.69,0.5 a 59.69,59.69 0 0 1 5.5,7.95 46.24,46.24 0 0 1 3.7,7.89 25.59,25.59 0 0 1 1.6,8.44 14.8,14.8 0 0 1 -1.44,6.61 16.06,16.06 0 0 1 -5.17,6 3.3761517,3.3761517 0 1 0 4,5.44 22.83,22.83 0 0 0 7.25,-8.45 21.7,21.7 0 0 0 2.12,-9.56 32.73,32.73 0 0 0 -2,-10.83 53,53 0 0 0 -4,-8.62 31.42,31.42 0 0 1 7.51,5.58 c 6,6 9.87,14.25 12.1,21 a 78.13,78.13 0 0 1 2.28,8.49 c 0.22,1.06 0.37,1.91 0.47,2.48 0,0.29 0.08,0.5 0.1,0.65 v 0.15 0 0 0.16 0.16 a 8.46,8.46 0 0 1 0.21,1.81 7.89,7.89 0 0 1 -1.57,4.62 18,18 0 0 1 -7.59,5.62 25.68,25.68 0 0 1 -9.72,2.13 H 86.01 a 29,29 0 0 1 -13,-2.94 12.38,12.38 0 0 1 -4.29,-3.51 7.64,7.64 0 0 1 -1.51,-4.68 10.37,10.37 0 0 1 0.15,-1.69 z m 18.58,19.74 h 15.62 v 88.76 a 166.59,166.59 0 0 1 -22.69,-9.68 v -79.77 a 38.65,38.65 0 0 0 7.04,0.69 z m 72.56,17.51 c 0.23,0.18 0.46,0.33 0.69,0.5 a 59.69,59.69 0 0 1 5.5,7.95 46.49,46.49 0 0 1 3.7,7.88 25.69,25.69 0 0 1 1.6,8.45 14.8,14.8 0 0 1 -1.44,6.61 16.06,16.06 0 0 1 -5.17,5.95 3.3801812,3.3801812 0 0 0 4,5.45 22.92,22.92 0 0 0 7.25,-8.45 21.7,21.7 0 0 0 2.12,-9.56 32.54,32.54 0 0 0 -2,-10.84 52.43,52.43 0 0 0 -4,-8.61 31.17,31.17 0 0 1 7.5,5.58 c 6,6 9.88,14.25 12.1,21 a 76.77,76.77 0 0 1 2.29,8.48 c 0.22,1.07 0.37,1.92 0.47,2.49 0,0.28 0.08,0.5 0.1,0.64 v 0.16 0 0 0.16 0.16 a 8.46,8.46 0 0 1 0.21,1.81 7.92,7.92 0 0 1 -1.57,4.62 18.15,18.15 0 0 1 -7.59,5.62 25.68,25.68 0 0 1 -9.72,2.13 h -39.75 a 29,29 0 0 1 -13,-2.94 12.29,12.29 0 0 1 -4.29,-3.51 7.6,7.6 0 0 1 -1.51,-4.68 11.67,11.67 0 0 1 0.14,-1.7 v -0.16 -0.18 0 a 73.07,73.07 0 0 1 4.74,-20.13 43.45,43.45 0 0 1 8.61,-14 27,27 0 0 1 13.33,-7.63 19.11,19.11 0 0 1 -1.29,4.63 14.07,14.07 0 0 1 -2.79,4.29 13.61,13.61 0 0 1 -5,3.26 3.3733403,3.3733403 0 1 0 2.44,6.29 20.45,20.45 0 0 0 7.42,-4.87 21.81,21.81 0 0 0 5.23,-9.48 28.77,28.77 0 0 0 0.95,-5.81 55.51,55.51 0 0 1 1.15,10.94 35.28,35.28 0 0 1 -1.79,11.6 22.48,22.48 0 0 1 -6.66,9.85 3.3732959,3.3732959 0 0 0 4.37,5.14 29.19,29.19 0 0 0 8.65,-12.75 41.75,41.75 0 0 0 2.18,-13.84 64.94,64.94 0 0 0 -1.78,-14.56 z m 89.94,-2.25 a 27.85,27.85 0 0 0 3.24,-0.22 v 63.28 q -2,1.08 -4.09,2.1 a 171,171 0 0 1 -24.83,9.88 v -75 z m -136.38,57.95 v 0.05 a 21.59,21.59 0 0 0 10.5,7.19 37.76,37.76 0 0 0 12.19,2 h 6.63 v 15.17 a 193.81,193.81 0 0 1 -29.36,-5.68 z m 52.48,25.75 c -4.26,0 -8.46,-0.16 -12.63,-0.42 v -16.06 h 22.61 a 27.63,27.63 0 0 0 3.36,-0.23 v 16.26 c -4.4,0.25 -8.84,0.45 -13.34,0.45 z m -147.39,-41 v -23.41 c 0.71,1.36 1.43,2.71 2.2,4 a 113.21,113.21 0 0 0 15.07,20.21 v 0.16 h 0.16 a 146.26,146.26 0 0 0 42.29,30.86 c 25.14,12.43 55.28,19.62 87.67,19.63 43.19,0 82.38,-12.78 111,-33.74 14.32,-10.48 26,-23 34.16,-37.12 0.73,-1.27 1.42,-2.55 2.1,-3.84 0,7.71 0,16.29 0.06,23.77 a 72.11,72.11 0 0 1 -9.5,20.18 c -11.16,16.86 -30.08,33.07 -54,45 a 188.93,188.93 0 0 1 -83.84,19.56 c -41.3,0 -78.83,-14.2 -105.91,-33.65 -13.54,-9.72 -24.45,-20.74 -31.91,-31.84 a 71.53,71.53 0 0 1 -9.55,-19.8 z m 265.12,-61.84 v 60.34 a 131.64,131.64 0 0 1 -20.12,15.71 v -60.23 a 27,27 0 0 0 6.12,-4 18.18,18.18 0 0 0 4.09,-5.18 14.26,14.26 0 0 0 1.66,-6.64 15.26,15.26 0 0 0 -0.32,-3 v 0 c 0,-0.09 -0.28,-2.17 -1,-5.42 q 5.39,4.05 10.14,8.35 z m -18.13,-13.88 a 78.54,78.54 0 0 1 2.29,8.49 c 0.22,1.06 0.37,1.91 0.46,2.48 0.05,0.29 0.08,0.5 0.1,0.65 v 0.15 0 0 0.16 0.16 a 7.66,7.66 0 0 1 -1.36,6.43 18,18 0 0 1 -7.59,5.62 25.67,25.67 0 0 1 -9.71,2.13 h -39.66 a 29.06,29.06 0 0 1 -12.95,-2.94 12.48,12.48 0 0 1 -4.29,-3.51 7.63,7.63 0 0 1 -1.5,-4.68 10.51,10.51 0 0 1 0.14,-1.7 v -0.16 -0.18 0 a 73.27,73.27 0 0 1 4.73,-20.13 43.63,43.63 0 0 1 8.61,-14 27,27 0 0 1 13.25,-7.73 19.58,19.58 0 0 1 -1.29,4.63 14.29,14.29 0 0 1 -2.8,4.29 13.57,13.57 0 0 1 -5,3.26 3.3715353,3.3715353 0 1 0 2.43,6.29 20.36,20.36 0 0 0 7.42,-4.87 21.84,21.84 0 0 0 5.24,-9.48 28.77,28.77 0 0 0 0.95,-5.81 56.27,56.27 0 0 1 1.2,10.97 35,35 0 0 1 -1.8,11.6 22.46,22.46 0 0 1 -6.65,9.85 3.3732959,3.3732959 0 1 0 4.37,5.14 29.27,29.27 0 0 0 8.63,-12.76 42.19,42.19 0 0 0 2.2,-13.83 64.77,64.77 0 0 0 -1.78,-14.55 c 0.84,0.67 1.72,1.41 2.58,2.09 0.23,0.18 0.46,0.33 0.69,0.5 a 60.71,60.71 0 0 1 5.5,7.95 47.28,47.28 0 0 1 3.7,7.88 26.22,26.22 0 0 1 1.6,8.45 14.94,14.94 0 0 1 -1.44,6.61 16.15,16.15 0 0 1 -5.17,6 3.3761517,3.3761517 0 1 0 4,5.44 23,23 0 0 0 7.26,-8.45 21.7,21.7 0 0 0 2.12,-9.56 32.69,32.69 0 0 0 -2,-10.83 53,53 0 0 0 -4,-8.62 31.37,31.37 0 0 1 7.5,5.58 c 5.95,5.96 9.79,14.2 12.02,20.96 z m -75.78,26.41 a 24.26,24.26 0 0 0 8.11,4.59 37.68,37.68 0 0 0 12.18,2 h 3.56 v 78 a 194.48,194.48 0 0 1 -23.85,4.32 v -18.45 a 26.78,26.78 0 0 0 6,-4 18.39,18.39 0 0 0 4.11,-5.15 14.25,14.25 0 0 0 1.65,-6.64 14.53,14.53 0 0 0 -0.32,-3 v 0 a 80.21,80.21 0 0 0 -6.23,-20.88 61.54,61.54 0 0 0 -5.22,-9.25 z m -47,5.47 a 33.85,33.85 0 0 0 -16.94,9.89 c -6.75,7.18 -10.36,16.32 -12.42,23.83 v -47.84 h 13.58 a 30.57,30.57 0 0 0 8.25,-1.21 33.57,33.57 0 0 0 7.53,-3.18 z m -78.14,-23.36 a 18.27,18.27 0 0 0 5.15,4.66 v 77.63 c -3,-1.86 -5.89,-3.79 -8.66,-5.82 a 124.64,124.64 0 0 1 -14.79,-12.68 v -56.21 a 149.78,149.78 0 0 1 15.87,-12.87 14.42,14.42 0 0 0 2.43,5.29 z m -28.8,51.67 a 100.27,100.27 0 0 1 -6,-9.1 91.23,91.23 0 0 1 -4.41,-8.71 92,92 0 0 1 10.39,-15.21 z m 270.83,-18.26 a 90.21,90.21 0 0 1 -4.61,9.16 97.17,97.17 0 0 1 -7.88,11.56 v -38.72 a 91.15,91.15 0 0 1 12.49,18.02 z m -106.89,-67.41 a 50.51,50.51 0 0 0 -10,16.47 v -18.78 q 5.39,0.69 10.65,1.69 c -0.2,0.22 -0.43,0.43 -0.65,0.62 z m -20.49,-3.38 v 66 a 35.4,35.4 0 0 0 -13.41,-5.89 5,5 0 0 1 -0.47,-0.28 l -0.39,-0.28 v 0 c -0.45,-0.33 -1,-0.76 -1.58,-1.24 -1.2,-1 -2.54,-2.1 -3.9,-3.07 a 16.43,16.43 0 0 0 -2.12,-1.33 8.89,8.89 0 0 0 -1.24,-0.51 5.4,5.4 0 0 0 -1.63,-0.26 5.11,5.11 0 0 0 -1.19,0.16 v -53.3 c 4.17,-0.29 8.38,-0.46 12.63,-0.46 4.47,0 8.91,0.18 13.31,0.49 z"
     id="path66" />
  <path
     class="cls-10"
     d="m 116.66,91.402099 a 36.65,36.65 0 0 1 1.12,4.85 194.68,194.68 0 0 1 28.8,-4.73 8.94,8.94 0 0 1 2.6,-6.7 9.62,9.62 0 0 0 2.15,-3.08 10.06,10.06 0 0 0 0.35,-1.1 206,206 0 0 0 -37,5.58 43.5,43.5 0 0 1 1.98,5.18 z"
     id="path68" />
  <path
     class="cls-10"
     d="m 167.94,88.652099 c -0.3,0.71 -0.64,1.41 -1,2.11 a 200.2,200.2 0 0 1 35.13,3.43 27.61,27.61 0 0 1 0.29,-10.61 211.85,211.85 0 0 0 -32.5,-3.29 25.9,25.9 0 0 1 -1.92,8.36 z"
     id="path70" />
  <path
     class="cls-10"
     d="m 105.79,100.9521 a 14,14 0 0 1 -1.05,5.4 15.13,15.13 0 0 1 -3.35,4.89 3.3728993,3.3728993 0 0 0 4.77,4.77 21.89,21.89 0 0 0 4.81,-7.07 20.42,20.42 0 0 0 1.56,-8 c 0,-5.250001 -1.77,-10.560001 -4.69,-15.830001 a 16.67,16.67 0 0 1 -2.22,-8.2 15.82,15.82 0 0 1 0.86,-5.15 11.14,11.14 0 0 1 0.57,-1.39 3.06,3.06 0 0 1 0.16,-0.32 v 0 l 0.06,-0.09 0.06,-0.12 a 45.21,45.21 0 0 0 2.76,-6.57 17.91,17.91 0 0 0 0.89,-5.28 15,15 0 0 0 -0.83,-4.76 c -0.47,-1.41 -1,-2.67 -1.59,-4.06 -0.84,-2.09 -1.79,-3.68 -2.39,-5 a 8.55,8.55 0 0 1 -0.94,-3.73 c 0,-1.51 0.45,-3.65 2.1,-7 a 3.37,3.37 0 0 0 -6,-3 v 0 c -1.94,3.88 -2.81,7.08 -2.81,10 a 15.12,15.12 0 0 0 1.56,6.54 c 0.82,1.78 1.66,3.21 2.26,4.72 0.6,1.51 1.13,2.71 1.45,3.68 a 7.77,7.77 0 0 1 0.48,2.63 10.81,10.81 0 0 1 -0.59,3.28 36.92,36.92 0 0 1 -2.32,5.49 18.72,18.72 0 0 0 -1.24,2.85 22.53,22.53 0 0 0 -1.22,7.35 23.44,23.44 0 0 0 3.06,11.48 c 2.5,4.53 3.83,8.81 3.83,12.490001 z"
     id="path72" />
  <path
     class="cls-10"
     d="m 153.16,93.562099 a 3.37,3.37 0 0 0 4.77,0 21.82,21.82 0 0 0 4.82,-7.07 20.75,20.75 0 0 0 1.56,-8 c 0,-5.25 -1.78,-10.56 -4.7,-15.82 a 16.68,16.68 0 0 1 -2.21,-8.2 16.18,16.18 0 0 1 0.85,-5.15 c 0.22,-0.61 0.43,-1.09 0.57,-1.39 0.07,-0.15 0.13,-0.26 0.16,-0.32 v 0 -0.09 l 0.06,-0.11 a 44.62,44.62 0 0 0 2.76,-6.58 17.54,17.54 0 0 0 0.89,-5.28 14.84,14.84 0 0 0 -0.82,-4.75 c -0.48,-1.42 -1,-2.68 -1.59,-4.07 -0.85,-2.09 -1.79,-3.68 -2.4,-5 a 8.55,8.55 0 0 1 -0.94,-3.73 c 0,-1.51 0.45,-3.65 2.1,-7 a 3.37,3.37 0 1 0 -6,-3.0000002 v 0 a 22.29,22.29 0 0 0 -2.81,10.0000002 15.35,15.35 0 0 0 1.6,6.47 c 0.82,1.77 1.67,3.2 2.26,4.71 0.59,1.51 1.13,2.71 1.46,3.69 a 7.9,7.9 0 0 1 0.47,2.62 11.06,11.06 0 0 1 -0.58,3.28 38.54,38.54 0 0 1 -2.32,5.5 17.49,17.49 0 0 0 -1.25,2.85 22.78,22.78 0 0 0 -1.22,7.35 23.3,23.3 0 0 0 3.07,11.48 c 2.55,4.59 3.85,8.87 3.84,12.55 a 13.93,13.93 0 0 1 -1,5.4 15.16,15.16 0 0 1 -3.36,4.89 3.37,3.37 0 0 0 -0.04,4.77 z"
     id="path74" />
  <path
     class="cls-10"
     d="m 214.21,113.6421 a 13.89,13.89 0 0 1 -1,5.4 15.36,15.36 0 0 1 -3.36,4.9 3.3728993,3.3728993 0 1 0 4.77,4.77 22,22 0 0 0 4.82,-7.08 20.75,20.75 0 0 0 1.56,-8 c 0,-5.25 -1.78,-10.55 -4.7,-15.820001 a 16.68,16.68 0 0 1 -2.21,-8.21 15.78,15.78 0 0 1 0.85,-5.14 11.42,11.42 0 0 1 0.57,-1.4 c 0.07,-0.15 0.13,-0.25 0.16,-0.31 v -0.05 l 0.05,-0.1 0.06,-0.11 a 44.18,44.18 0 0 0 2.76,-6.58 17.54,17.54 0 0 0 0.89,-5.28 14.84,14.84 0 0 0 -0.82,-4.75 c -0.48,-1.42 -1,-2.68 -1.59,-4.06 -0.85,-2.09 -1.79,-3.69 -2.4,-5 a 8.59,8.59 0 0 1 -0.94,-3.74 c 0,-1.5 0.45,-3.65 2.1,-6.95 a 3.37,3.37 0 1 0 -6,-3 v 0 a 22.29,22.29 0 0 0 -2.81,10 15.35,15.35 0 0 0 1.55,6.55 c 0.82,1.77 1.66,3.2 2.26,4.71 0.6,1.51 1.13,2.71 1.45,3.69 a 7.71,7.71 0 0 1 0.48,2.62 11.06,11.06 0 0 1 -0.58,3.28 37.65,37.65 0 0 1 -2.33,5.5 18.8,18.8 0 0 0 -1.24,2.85 22.78,22.78 0 0 0 -1.22,7.34 23.45,23.45 0 0 0 3.06,11.490001 c 2.52,4.52 3.82,8.8 3.81,12.48 z"
     id="path76" />
  <path
     class="cls-5"
     d="m 49.28,285.6921 a 258,258 0 0 0 26.18,17.18 192.36,192.36 0 0 0 28.14,13.42 173.2,173.2 0 0 0 29.92,8.41 149.1,149.1 0 0 0 30.94,2.38 163.41,163.41 0 0 0 30.84,-3.53 204.93,204.93 0 0 0 29.82,-8.87 239,239 0 0 0 28.39,-13 c 9.25,-4.83 18.16,-10.3 26.94,-16 a 281.22,281.22 0 0 1 -26.19,17.34 239.39,239.39 0 0 1 -28.25,13.9 174.87,174.87 0 0 1 -61.55,13.29 156.1,156.1 0 0 1 -61.78,-11.68 192.31,192.31 0 0 1 -28,-14.34 226.37,226.37 0 0 1 -25.4,-18.5 z"
     id="path78" />
  <path
     class="cls-5"
     d="m 24.13,264.4721 a 111.57,111.57 0 0 0 11.84,17.22 159.34,159.34 0 0 0 14.29,15.1 c 2.62,2.27 5.14,4.67 7.91,6.77 1.35,1.08 2.67,2.22 4.06,3.26 1.39,1.04 2.81,2.05 4.21,3.09 l 2.1,1.56 2.17,1.45 4.34,2.94 c 2.92,1.92 5.95,3.68 8.88,5.66 -3.24,-1.36 -6.49,-2.76 -9.66,-4.33 l -4.65,-2.53 -2.32,-1.29 -2.24,-1.43 a 120.84,120.84 0 0 1 -16.93,-12.84 110.47,110.47 0 0 1 -14.1,-15.92 69.86,69.86 0 0 1 -9.9,-18.71 z"
     id="path80" />
  <path
     class="cls-5"
     d="m 305.35,300.2621 a 117.72,117.72 0 0 1 -16.33,20.47 139.13,139.13 0 0 1 -20.17,16.86 c -3.59,2.54 -7.42,4.72 -11.21,6.92 -1.94,1 -3.95,2 -5.91,2.94 l -3,1.44 -3.07,1.2 c -8.06,3.53 -16.73,5.41 -25.3,6.78 2.08,-0.68 4.15,-1.33 6.23,-1.95 l 3.11,-0.93 c 1,-0.35 2,-0.79 3,-1.17 l 6.06,-2.3 5.89,-2.67 3.01,-1.38 2.85,-1.52 c 1.89,-1 3.82,-2 5.67,-3.06 l 5.52,-3.35 c 1.88,-1.05 3.58,-2.39 5.37,-3.57 a 185.57,185.57 0 0 0 20.25,-16 l 4.72,-4.45 c 1.52,-1.53 3.09,-3 4.58,-4.6 3.06,-3.07 5.92,-6.33 8.73,-9.66 z"
     id="path82" />
  <path
     class="cls-5"
     d="m 35.92,313.0821 a 105.28,105.28 0 0 0 16.07,15.66 149.53,149.53 0 0 0 18.4,12.73 176.18,176.18 0 0 0 41,17.47 207.91,207.91 0 0 0 21.8,5 c 3.69,0.54 7.36,1.26 11.08,1.62 l 5.56,0.65 5.59,0.47 a 310.76,310.76 0 0 0 44.95,0 228.11,228.11 0 0 1 -45.1,2.4 l -5.66,-0.29 -5.65,-0.54 c -3.78,-0.3 -7.51,-0.95 -11.26,-1.43 a 199.81,199.81 0 0 1 -22.17,-4.93 182.38,182.38 0 0 1 -21.39,-7.71 155.91,155.91 0 0 1 -20.05,-10.69 132.41,132.41 0 0 1 -18.12,-13.65 c -2.81,-2.53 -5.5,-5.19 -8,-8 a 70.36,70.36 0 0 1 -7.05,-8.76 z"
     id="path84" />
</svg>
