<svg id="Layer_1" data-name="Layer 1" xmlns="http://www.w3.org/2000/svg" viewBox="0 0 500 500"><defs><style>.cls-1{fill:#ffeec4;}.cls-2{fill:#fdf4cd;}.cls-3{fill:#e7af5f;}.cls-4{fill:#edad5d;}.cls-5{fill:#c6883e;}.cls-6{fill:#d5b57f;}.cls-7{fill:#ac8654;}.cls-8{fill:#fdeed0;}.cls-9{fill:#ffdc9b;}.cls-10{fill:#0c1d24;}</style></defs><title>XLB_coloured</title><path class="cls-1" d="M410.06,330.51s-27.58,93.94-152.23,93.94S105,330.51,105,330.51V304h0a77.61,77.61,0,0,0-11.46,40.06c0,60.17,73.56,109,164.3,109s164.3-48.78,164.3-108.95c0-14.52-4.3-28.37-12.07-41Z"/><path class="cls-2" d="M244.86,122.17a205.88,205.88,0,0,0-37,5.58"/><path class="cls-2" d="M295.53,125.11a211.72,211.72,0,0,0-32.5-3.29"/><path class="cls-3" d="M190.21,132.66l.14.26a167.22,167.22,0,0,0-43.56,22.56c-14.32,10.49-26,23-34.15,37.13a91.54,91.54,0,0,0-12.7,46.11c0,.2,0,.39,0,.59h0v90.61h.3a58.91,58.91,0,0,0,3.11,13.27c3.87,10.85,10.79,21.65,20.09,31.83,14,15.28,33.35,29.2,56.35,39.36a193.65,193.65,0,0,0,78,16.55c43.3,0,82.44-14.16,111-34.36,14.27-10.11,25.9-21.74,34-34s12.86-25.31,12.87-38.13c0-.45,0-5.59,0-12.82,0-.43,0-.86,0-1.28,0-1.65-.16-65.75-.16-65.76V244c.1-1.74.16-3.49.16-5.25A91.54,91.54,0,0,0,403,192.61c-12.22-21.13-32.39-38.81-57.52-51.24a183.38,183.38,0,0,0-32.43-12.26"/><path class="cls-4" d="M109.27,256.85v-.27H105.9V260h3.38v-3.38c0-9.91,4-21,11.43-32.15,11.19-16.65,30.16-33.1,54.08-45.3a185.21,185.21,0,0,1,83.75-20.19c41.4,0,78.94,13.61,106,32.78,13.52,9.57,24.4,20.53,31.85,31.77s11.44,22.71,11.43,33.36h6.75c0-12.34-4.56-25-12.56-37.09-12-18.09-31.79-34.91-56.61-47.29a195.67,195.67,0,0,0-86.84-20.28c-42.87,0-81.66,14.68-109.85,34.92-14.1,10.13-25.57,21.66-33.57,33.56s-12.58,24.2-12.59,35.91h3.37v-3.37h-3.38v3.64Z"/><path class="cls-5" d="M144.9,216.71a256.91,256.91,0,0,1,26.18-17.18,192.9,192.9,0,0,1,28.14-13.42,174.24,174.24,0,0,1,29.91-8.41,149.18,149.18,0,0,1,30.93-2.37,164.11,164.11,0,0,1,30.83,3.52,205.05,205.05,0,0,1,29.83,8.87,238.85,238.85,0,0,1,28.38,13c9.25,4.84,18.17,10.3,26.95,16a280.6,280.6,0,0,0-26.2-17.33,237,237,0,0,0-28.24-13.91,175.32,175.32,0,0,0-61.49-13.28,156.28,156.28,0,0,0-61.78,11.68,191.92,191.92,0,0,0-28.05,14.34A227.51,227.51,0,0,0,144.9,216.71Z"/><path class="cls-5" d="M117.67,231.65a112.05,112.05,0,0,1,11.84-17.22,159.34,159.34,0,0,1,14.29-15.1c2.62-2.27,5.14-4.67,7.91-6.77,1.35-1.08,2.67-2.22,4.06-3.26s2.81-2,4.21-3.09l2.1-1.56,2.17-1.44,4.34-3c2.92-1.92,5.95-3.67,8.88-5.66-3.24,1.36-6.49,2.76-9.66,4.33l-4.65,2.53-2.32,1.29-2.24,1.43A121.62,121.62,0,0,0,141.67,197,110,110,0,0,0,127.57,213,69.66,69.66,0,0,0,117.67,231.65Z"/><path class="cls-5" d="M398.89,216.43A117.72,117.72,0,0,0,382.56,196a138.5,138.5,0,0,0-20.17-16.86c-3.59-2.54-7.42-4.72-11.21-6.93-1.94-1-3.95-1.95-5.91-2.93l-3-1.44-3.07-1.2c-8.06-3.53-16.73-5.41-25.3-6.78,2.08.68,4.15,1.33,6.23,1.94l3.11.94c1,.35,2,.79,3,1.17l6.06,2.3,5.89,2.67,2.94,1.34,2.85,1.52c1.89,1,3.82,2,5.67,3.07l5.52,3.34c1.88,1.06,3.58,2.4,5.37,3.58a185.57,185.57,0,0,1,20.25,16l4.72,4.45c1.52,1.53,3.09,3,4.58,4.6C393.22,209.84,396.08,213.09,398.89,216.43Z"/><path class="cls-5" d="M129.46,199.38a105.28,105.28,0,0,1,16.07-15.66A150.63,150.63,0,0,1,163.93,171a175.73,175.73,0,0,1,41-17.46,210.51,210.51,0,0,1,21.8-5c3.69-.54,7.36-1.26,11.08-1.62l5.56-.65,5.59-.47a312.19,312.19,0,0,1,44.95-.05,227.35,227.35,0,0,0-45.1-2.39l-5.66.29-5.65.54c-3.78.29-7.51.94-11.26,1.42a199.81,199.81,0,0,0-22.17,4.93,186.08,186.08,0,0,0-21.39,7.71,155.91,155.91,0,0,0-20.05,10.69,132.41,132.41,0,0,0-18.12,13.65c-2.81,2.53-5.5,5.19-8,8A70.36,70.36,0,0,0,129.46,199.38Z"/><path class="cls-6" d="M110.8,265.63S140,353,253.17,350.71s152.36-78.93,152.36-78.93-17.51-39.34-39.4-44.9h-5.21s14.4,21.39-8.12,28-55.44,2.38-55.44,2.38-17.17-3.94-18-11,5.06-31.42,11.54-36.95,13.79-11.45,13.79-11.45-60.08-9.68-71.91-3.45c0,0,18.29,35.72.56,45.05s-59.87,2.36-59.87,2.36-20.48-.4-17.31-17.26C156.15,224.59,121.8,245.85,110.8,265.63Z"/><rect class="cls-6" x="187.14" y="223.49" width="16.13" height="115.98"/><rect class="cls-6" x="263.53" y="199.65" width="16.13" height="149.08"/><rect class="cls-6" x="297.81" y="199.65" width="16.13" height="149.08"/><polygon class="cls-6" points="351.37 328.49 335.24 334.96 335.24 199.65 351.37 199.65 351.37 328.49"/><polygon class="cls-6" points="382.67 305.08 368.41 319.44 368.41 230.05 384.54 237.62 382.67 305.08"/><ellipse class="cls-7" cx="197.51" cy="238.23" rx="45.61" ry="16.52"/><ellipse class="cls-7" cx="248.36" cy="322.95" rx="45.61" ry="16.52"/><ellipse class="cls-7" cx="322.24" cy="252.41" rx="45.61" ry="16.52"/><path class="cls-8" d="M268.16,325.77H228.43c-9.9,0-23.91-4.65-21.94-16.75,0,0,2.41-40.09,31-45.32,2-.36,7.06-7.17,9.28-7.17,2.44,0,8.36,6.46,10.48,6.89,28,5.67,32.9,44.05,32.9,44.05C292.65,318.73,278.06,325.77,268.16,325.77Z"/><path class="cls-8" d="M219.28,244H179.55c-9.9,0-23.9-4.64-21.93-16.74,0,0,2.4-40.09,31-45.33,2-.36,7.06-7.16,9.28-7.16,2.44,0,8.36,6.45,10.49,6.88,28,5.67,32.89,44.05,32.89,44.05C243.77,236.91,229.18,244,219.28,244Z"/><path class="cls-8" d="M342.05,259.21H302.31c-9.89,0-23.9-4.64-21.93-16.74,0,0,2.41-40.09,31-45.33,2-.36,7.06-7.16,9.29-7.16,2.44,0,8.36,6.45,10.48,6.88,28,5.67,32.89,44,32.89,44C366.54,252.17,351.94,259.21,342.05,259.21Z"/><polygon class="cls-6" points="136.04 305.97 122.87 294.08 122.87 252.01 136.04 239.5 136.04 305.97"/><polygon class="cls-6" points="383.06 305.97 392.65 294.08 392.65 252.01 383.06 239.5 383.06 305.97"/><path class="cls-9" d="M314.79,246.08c-9.9,0-23.91-4.64-21.94-16.74,0,0,.94-15.48,8.49-28.45-19.14,11.4-21,41.58-21,41.58-2,12.1,12,16.74,21.93,16.74h39.74c8.89,0,21.57-5.69,22.21-15a28.45,28.45,0,0,1-9.74,1.88Z"/><path class="cls-9" d="M192,228.72c-9.9,0-23.9-4.65-21.93-16.75,0,0,.93-15.47,8.48-28.45-19.13,11.41-21,41.58-21,41.58-2,12.1,12,16.75,21.94,16.75H219.3c8.89,0,21.58-5.69,22.21-15a28.47,28.47,0,0,1-9.74,1.89Z"/><path class="cls-9" d="M240.29,313.16c-9.89,0-23.9-4.64-21.93-16.75,0,0,.94-15.47,8.49-28.44-19.14,11.4-21,41.57-21,41.57-2,12.11,12,16.75,21.93,16.75h39.73c8.9,0,21.58-5.69,22.22-15a28.52,28.52,0,0,1-9.74,1.89Z"/><path class="cls-1" d="M318.62,145.62a47.12,47.12,0,0,0-3.9-9h0a11,11,0,0,1-1.51-5.48,10.26,10.26,0,0,1,.55-3.31,5.46,5.46,0,0,1,.32-.79v0l.1-.15.15-.31a50.49,50.49,0,0,0,3.1-7.41,23.52,23.52,0,0,0,1.14-7,20.57,20.57,0,0,0-1.11-6.53c-.6-1.78-1.2-3.1-1.7-4.37-1-2.58-2.08-4.3-2.51-5.28a7.63,7.63,0,0,1-.37-.95,2.12,2.12,0,0,1-.06-.44,5.37,5.37,0,0,1,.23-1.28,17.28,17.28,0,0,1,1.28-3.16,9,9,0,1,0-16.09-8,35.77,35.77,0,0,0-2.52,6.35,22.78,22.78,0,0,0-.89,6.13,19.75,19.75,0,0,0,.66,5,27,27,0,0,0,2.11,5.32c.67,1.31,1.15,2.23,1.45,3,.66,1.63,1.14,2.76,1.34,3.37a2.51,2.51,0,0,1,.19.85,5.74,5.74,0,0,1-.33,1.61,32.76,32.76,0,0,1-1.95,4.58,24.13,24.13,0,0,0-1.56,3.61,28,28,0,0,0-1.53,9.17A29.09,29.09,0,0,0,299,145.36h0a28.89,28.89,0,0,1,2.42,5.52,14.73,14.73,0,0,1,.72,4.29,8.39,8.39,0,0,1-.61,3.24,9.41,9.41,0,0,1-2.15,3.08,9,9,0,0,0,12.72,12.72,27.56,27.56,0,0,0,6-8.89,26.48,26.48,0,0,0,2-10.15A32.8,32.8,0,0,0,318.62,145.62Z"/><path class="cls-1" d="M262,110.48a47.12,47.12,0,0,0-3.9-9h0A11,11,0,0,1,256.56,96a10.38,10.38,0,0,1,.55-3.32,7.46,7.46,0,0,1,.32-.78l0,0,.09-.15.15-.31a50.58,50.58,0,0,0,3.1-7.42,23.08,23.08,0,0,0,1.14-7,20.3,20.3,0,0,0-1.11-6.53c-.6-1.78-1.2-3.1-1.7-4.37-1.05-2.58-2.08-4.31-2.5-5.28a6.24,6.24,0,0,1-.38-1,1.54,1.54,0,0,1-.05-.43,4.62,4.62,0,0,1,.22-1.28A18.06,18.06,0,0,1,257.69,55a9,9,0,1,0-16.09-8,35.77,35.77,0,0,0-2.52,6.35,22.78,22.78,0,0,0-.89,6.13,19.81,19.81,0,0,0,.66,5A27,27,0,0,0,241,69.81c.67,1.31,1.15,2.23,1.45,3,.66,1.63,1.15,2.76,1.34,3.37a2.51,2.51,0,0,1,.19.85,5.39,5.39,0,0,1-.33,1.61,34.21,34.21,0,0,1-1.94,4.58,22.89,22.89,0,0,0-1.57,3.61A28,28,0,0,0,238.57,96a29,29,0,0,0,3.77,14.21h0a28.28,28.28,0,0,1,2.42,5.52,14.73,14.73,0,0,1,.72,4.29,8.39,8.39,0,0,1-.61,3.24,9.62,9.62,0,0,1-2.15,3.08,9,9,0,0,0,12.73,12.72,27.53,27.53,0,0,0,6-8.89,26.3,26.3,0,0,0,2-10.15A32.75,32.75,0,0,0,262,110.48Z"/><path class="cls-1" d="M210.19,132.93a46.24,46.24,0,0,0-3.9-9h0a11,11,0,0,1-1.5-5.47,10.06,10.06,0,0,1,.55-3.32,7.15,7.15,0,0,1,.31-.78l0,0,.09-.15.16-.31a50.58,50.58,0,0,0,3.1-7.42,23.51,23.51,0,0,0,1.14-7A20.52,20.52,0,0,0,209.05,93c-.6-1.78-1.2-3.1-1.71-4.38-1.05-2.57-2.08-4.3-2.5-5.27a7,7,0,0,1-.37-1,2.12,2.12,0,0,1-.06-.43,4.72,4.72,0,0,1,.22-1.29,18.27,18.27,0,0,1,1.29-3.15,9,9,0,0,0-16.1-8,35.78,35.78,0,0,0-2.51,6.36,22.72,22.72,0,0,0-.89,6.13,19.82,19.82,0,0,0,.65,5,27.17,27.17,0,0,0,2.12,5.31c.67,1.32,1.14,2.24,1.45,3,.66,1.62,1.14,2.76,1.34,3.37a2.47,2.47,0,0,1,.19.85,6.28,6.28,0,0,1-.33,1.61,32.77,32.77,0,0,1-2,4.57,23.89,23.89,0,0,0-1.57,3.61,28.62,28.62,0,0,0-1.53,9.18,29.08,29.08,0,0,0,3.78,14.21h0a29.89,29.89,0,0,1,2.42,5.53,14.68,14.68,0,0,1,.71,4.29,8.21,8.21,0,0,1-.61,3.24A9.57,9.57,0,0,1,191,148.8a9,9,0,0,0,12.72,12.72,27.49,27.49,0,0,0,6-8.9,26.4,26.4,0,0,0,2-10.14A32.42,32.42,0,0,0,210.19,132.93Z"/><path class="cls-10" d="M415.9,244.54V244c.11-1.74.17-3.49.17-5.25a91.65,91.65,0,0,0-12.7-46.11c-12.22-21.13-32.4-38.81-57.52-51.24a183.38,183.38,0,0,0-32.43-12.26,10.3,10.3,0,0,0-.21,2,11,11,0,0,0,1.51,5.48q1.21,2.2,2.21,4.46A159.13,159.13,0,0,1,363,164c13.3,9.74,24,21.26,31.27,33.91a81,81,0,0,1,11.29,40.86,78.43,78.43,0,0,1-2.24,18.59,118.89,118.89,0,0,0-17-20.21,158,158,0,0,0-25.73-19.75,53.32,53.32,0,0,0-10.11-14.68A36.4,36.4,0,0,0,332,192.52a3.18,3.18,0,0,1-.48-.28l-.39-.28,0,0c-.45-.33-1-.76-1.58-1.23-1.19-1-2.54-2.11-3.89-3.08a16,16,0,0,0-2.12-1.32,7.83,7.83,0,0,0-1.24-.52,5.12,5.12,0,0,0-4.16.42,14.56,14.56,0,0,0-2.79,2.05c-1.27,1.14-2.51,2.42-3.54,3.38-.51.48-1,.87-1.26,1.09l-.14.1a33.64,33.64,0,0,0-5.31,1.47,198.4,198.4,0,0,0-46.88-5.62,191.32,191.32,0,0,0-27.54,2,43.23,43.23,0,0,0-2.95-3.28,36.39,36.39,0,0,0-18.46-10.15,3.33,3.33,0,0,1-.47-.28l-.39-.28,0,0c-.45-.33-1-.76-1.58-1.23-1.19-1-2.54-2.11-3.89-3.08a16.08,16.08,0,0,0-2.13-1.32,7.83,7.83,0,0,0-1.24-.52,5.09,5.09,0,0,0-4.15.42,14.26,14.26,0,0,0-2.79,2.05c-1.27,1.14-2.52,2.42-3.55,3.38a15.48,15.48,0,0,1-1.25,1.09l-.15.1a33.74,33.74,0,0,0-18.36,10.21c-7,7.4-10.59,16.9-12.62,24.53-.6,2.28-1.05,4.4-1.39,6.25a162.07,162.07,0,0,0-25.95,20.38A120.91,120.91,0,0,0,113.22,258a78,78,0,0,1-2.43-19.27,81,81,0,0,1,11.29-40.86c11-19,29.49-35.42,53.09-47.08A167,167,0,0,1,193.68,143c0-.17,0-.34,0-.51a14.68,14.68,0,0,0-.71-4.29,28.45,28.45,0,0,0-2.29-5.27,167.32,167.32,0,0,0-43.55,22.56c-14.32,10.49-26,23-34.16,37.13a91.65,91.65,0,0,0-12.7,46.11c0,.2,0,.39,0,.59h0v90.61h.31a58.38,58.38,0,0,0,3.11,13.27C107.58,354,114.5,364.83,123.8,375c14,15.28,33.34,29.2,56.34,39.36a193.69,193.69,0,0,0,78,16.55c43.31,0,82.44-14.16,111-34.36,14.26-10.11,25.89-21.74,34.05-34s12.86-25.31,12.87-38.13c0-.45,0-5.6,0-12.82,0-.43,0-.86,0-1.28C416.07,308.65,415.9,244.55,415.9,244.54ZM394.45,356.73c-10.93,16.52-29.61,32.56-53.27,44.34a187,187,0,0,1-83,19.37c-40.87,0-78.05-14.07-104.82-33.3-13.38-9.61-24.14-20.49-31.45-31.37a72.94,72.94,0,0,1-8.31-16.1,44.58,44.58,0,0,1-2.8-15v-3.4q1.8,3.24,4,6.45c12,17.84,31.79,34.87,56.6,47.54a191.93,191.93,0,0,0,86.82,20.93c42.9,0,81.68-14,109.88-34,14.11-10,25.57-21.48,33.58-33.55,1.42-2.14,2.73-4.31,3.93-6.49v2.27C405.58,334.58,401.76,345.72,394.45,356.73ZM161,226.5v-.18h0a73.07,73.07,0,0,1,4.74-20.13,43.45,43.45,0,0,1,8.61-14,27,27,0,0,1,13.24-7.73,19.11,19.11,0,0,1-1.29,4.63,14.07,14.07,0,0,1-2.79,4.29,13.61,13.61,0,0,1-5,3.26,3.37,3.37,0,1,0,2.44,6.29,20.36,20.36,0,0,0,7.42-4.87,22,22,0,0,0,5.24-9.48,28.68,28.68,0,0,0,.94-5.81,55.51,55.51,0,0,1,1.15,10.94,35,35,0,0,1-1.79,11.6,22.4,22.4,0,0,1-6.66,9.85,3.37,3.37,0,0,0,4.37,5.14,29.19,29.19,0,0,0,8.65-12.75,41.67,41.67,0,0,0,2.18-13.84,64.77,64.77,0,0,0-1.78-14.55c.84.67,1.72,1.41,2.58,2.09.23.18.46.33.69.5a59.69,59.69,0,0,1,5.5,7.95,46.24,46.24,0,0,1,3.7,7.89,25.59,25.59,0,0,1,1.6,8.44,14.8,14.8,0,0,1-1.44,6.61,16.06,16.06,0,0,1-5.17,6,3.37,3.37,0,1,0,4,5.44,22.83,22.83,0,0,0,7.25-8.45,21.7,21.7,0,0,0,2.12-9.56,32.73,32.73,0,0,0-2-10.83,53,53,0,0,0-4-8.62,31.42,31.42,0,0,1,7.51,5.58c6,6,9.87,14.25,12.1,21a78.13,78.13,0,0,1,2.28,8.49c.22,1.06.37,1.91.47,2.48,0,.29.08.5.1.65l0,.15v0h0l0,.16,0,.16a8.46,8.46,0,0,1,.21,1.81,7.89,7.89,0,0,1-1.57,4.62,18,18,0,0,1-7.59,5.62,25.68,25.68,0,0,1-9.72,2.13H179.55a29,29,0,0,1-13-2.94,12.38,12.38,0,0,1-4.29-3.51,7.64,7.64,0,0,1-1.51-4.68,10.37,10.37,0,0,1,.15-1.69Zm18.58,19.74H195.2V335a166.59,166.59,0,0,1-22.69-9.68V245.55A38.65,38.65,0,0,0,179.55,246.24Zm72.56,17.51c.23.18.46.33.69.5a59.69,59.69,0,0,1,5.5,7.95,46.49,46.49,0,0,1,3.7,7.88,25.69,25.69,0,0,1,1.6,8.45,14.8,14.8,0,0,1-1.44,6.61,16.06,16.06,0,0,1-5.17,5.95,3.38,3.38,0,0,0,4,5.45,22.92,22.92,0,0,0,7.25-8.45,21.7,21.7,0,0,0,2.12-9.56,32.54,32.54,0,0,0-2-10.84,52.43,52.43,0,0,0-4-8.61,31.17,31.17,0,0,1,7.5,5.58c6,6,9.88,14.25,12.1,21a76.77,76.77,0,0,1,2.29,8.48c.22,1.07.37,1.92.47,2.49,0,.28.08.5.1.64l0,.16v0h0l0,.16,0,.16a8.46,8.46,0,0,1,.21,1.81,7.92,7.92,0,0,1-1.57,4.62,18.15,18.15,0,0,1-7.59,5.62,25.68,25.68,0,0,1-9.72,2.13H228.43a29,29,0,0,1-13-2.94,12.29,12.29,0,0,1-4.29-3.51,7.6,7.6,0,0,1-1.51-4.68,11.67,11.67,0,0,1,.14-1.7l0-.16v-.18h0a73.07,73.07,0,0,1,4.74-20.13,43.45,43.45,0,0,1,8.61-14A27,27,0,0,1,236.45,267a19.11,19.11,0,0,1-1.29,4.63,14.07,14.07,0,0,1-2.79,4.29,13.61,13.61,0,0,1-5,3.26,3.37,3.37,0,1,0,2.44,6.29,20.45,20.45,0,0,0,7.42-4.87,21.81,21.81,0,0,0,5.23-9.48,28.77,28.77,0,0,0,.95-5.81,55.51,55.51,0,0,1,1.15,10.94,35.28,35.28,0,0,1-1.79,11.6,22.48,22.48,0,0,1-6.66,9.85,3.37,3.37,0,0,0,4.37,5.14,29.19,29.19,0,0,0,8.65-12.75,41.75,41.75,0,0,0,2.18-13.84,64.94,64.94,0,0,0-1.78-14.56Zm89.94-2.25a27.85,27.85,0,0,0,3.24-.22v63.28q-2,1.08-4.09,2.1a171,171,0,0,1-24.83,9.88v-75ZM205.7,319.45l0,.05a21.59,21.59,0,0,0,10.5,7.19,37.76,37.76,0,0,0,12.19,2h6.63v15.17a193.81,193.81,0,0,1-29.36-5.68Zm52.48,25.75c-4.26,0-8.46-.16-12.63-.42V328.72h22.61a27.63,27.63,0,0,0,3.36-.23v16.26C267.12,345,262.68,345.2,258.18,345.2Zm-147.39-41V280.79c.71,1.36,1.43,2.71,2.2,4a113.21,113.21,0,0,0,15.07,20.21v.16h.16a146.26,146.26,0,0,0,42.29,30.86c25.14,12.43,55.28,19.62,87.67,19.63,43.19,0,82.38-12.78,111-33.74,14.32-10.48,26-23,34.16-37.12.73-1.27,1.42-2.55,2.1-3.84,0,7.71,0,16.29.06,23.77A72.11,72.11,0,0,1,396,324.9c-11.16,16.86-30.08,33.07-54,45a188.93,188.93,0,0,1-83.84,19.56c-41.3,0-78.83-14.2-105.91-33.65-13.54-9.72-24.45-20.74-31.91-31.84A71.53,71.53,0,0,1,110.79,304.17Zm265.12-61.84V302.7a131.64,131.64,0,0,1-20.12,15.71V258.18a27,27,0,0,0,6.12-4A18.18,18.18,0,0,0,366,249a14.26,14.26,0,0,0,1.66-6.64,15.26,15.26,0,0,0-.32-3h0c0-.09-.28-2.17-1-5.42q5.39,4.05,10.14,8.35Zm-18.13-13.88a78.54,78.54,0,0,1,2.29,8.49c.22,1.06.37,1.91.46,2.48.05.29.08.5.1.65l0,.15v0h0l0,.16,0,.16a7.66,7.66,0,0,1-1.36,6.43,18,18,0,0,1-7.59,5.62,25.67,25.67,0,0,1-9.71,2.13H302.31a29.06,29.06,0,0,1-12.95-2.94,12.48,12.48,0,0,1-4.29-3.51,7.63,7.63,0,0,1-1.5-4.68,10.51,10.51,0,0,1,.14-1.7l0-.16v-.18h0a73.27,73.27,0,0,1,4.73-20.13,43.63,43.63,0,0,1,8.61-14,27,27,0,0,1,13.25-7.73,19.58,19.58,0,0,1-1.29,4.63,14.29,14.29,0,0,1-2.8,4.29,13.57,13.57,0,0,1-5,3.26,3.37,3.37,0,1,0,2.43,6.29,20.36,20.36,0,0,0,7.42-4.87,21.84,21.84,0,0,0,5.24-9.48,28.77,28.77,0,0,0,.95-5.81A56.27,56.27,0,0,1,318.45,209a35,35,0,0,1-1.8,11.6,22.46,22.46,0,0,1-6.65,9.85,3.37,3.37,0,1,0,4.37,5.14A29.27,29.27,0,0,0,323,222.83,42.19,42.19,0,0,0,325.2,209a64.77,64.77,0,0,0-1.78-14.55c.84.67,1.72,1.41,2.58,2.09.23.18.46.33.69.5a60.71,60.71,0,0,1,5.5,7.95,47.28,47.28,0,0,1,3.7,7.88,26.22,26.22,0,0,1,1.6,8.45,14.94,14.94,0,0,1-1.44,6.61,16.15,16.15,0,0,1-5.17,6,3.37,3.37,0,1,0,4,5.44,23,23,0,0,0,7.26-8.45,21.7,21.7,0,0,0,2.12-9.56,32.69,32.69,0,0,0-2-10.83,53,53,0,0,0-4-8.62,31.37,31.37,0,0,1,7.5,5.58C351.71,213.45,355.55,221.69,357.78,228.45ZM282,254.89a24.26,24.26,0,0,0,8.11,4.59,37.68,37.68,0,0,0,12.18,2h3.56v78A194.48,194.48,0,0,1,282,343.8V325.35a26.78,26.78,0,0,0,6-4,18.39,18.39,0,0,0,4.11-5.15,14.25,14.25,0,0,0,1.65-6.64,14.53,14.53,0,0,0-.32-3h0a80.21,80.21,0,0,0-6.23-20.88,61.54,61.54,0,0,0-5.22-9.25Zm-47,5.47a33.85,33.85,0,0,0-16.94,9.89c-6.75,7.18-10.36,16.32-12.42,23.83V246.24h13.58a30.57,30.57,0,0,0,8.25-1.21,33.57,33.57,0,0,0,7.53-3.18ZM156.86,237a18.27,18.27,0,0,0,5.15,4.66v77.63c-3-1.86-5.89-3.79-8.66-5.82a124.64,124.64,0,0,1-14.79-12.68V244.58a149.78,149.78,0,0,1,15.87-12.87A14.42,14.42,0,0,0,156.86,237Zm-28.8,51.67a100.27,100.27,0,0,1-6-9.1,91.23,91.23,0,0,1-4.41-8.71,92,92,0,0,1,10.39-15.21Zm270.83-18.26a90.21,90.21,0,0,1-4.61,9.16,97.17,97.17,0,0,1-7.88,11.56V252.41A91.15,91.15,0,0,1,398.89,270.43ZM292,203a50.51,50.51,0,0,0-10,16.47V200.69q5.39.69,10.65,1.69C292.45,202.6,292.22,202.81,292,203Zm-20.49-3.38v66a35.4,35.4,0,0,0-13.41-5.89,5,5,0,0,1-.47-.28l-.39-.28,0,0c-.45-.33-1-.76-1.58-1.24-1.2-1-2.54-2.1-3.9-3.07a16.43,16.43,0,0,0-2.12-1.33,8.89,8.89,0,0,0-1.24-.51,5.4,5.4,0,0,0-1.63-.26,5.11,5.11,0,0,0-1.19.16V199.62c4.17-.29,8.38-.46,12.63-.46C262.68,199.16,267.12,199.34,271.52,199.65Z"/><path class="cls-10" d="M210.2,132.93a36.65,36.65,0,0,1,1.12,4.85,194.68,194.68,0,0,1,28.8-4.73,8.94,8.94,0,0,1,2.6-6.7,9.62,9.62,0,0,0,2.15-3.08,10.06,10.06,0,0,0,.35-1.1,206,206,0,0,0-37,5.58A43.5,43.5,0,0,1,210.2,132.93Z"/><path class="cls-10" d="M261.48,130.18c-.3.71-.64,1.41-1,2.11a200.2,200.2,0,0,1,35.13,3.43,27.61,27.61,0,0,1,.29-10.61,211.85,211.85,0,0,0-32.5-3.29A25.9,25.9,0,0,1,261.48,130.18Z"/><path class="cls-10" d="M199.33,142.48a14,14,0,0,1-1.05,5.4,15.13,15.13,0,0,1-3.35,4.89,3.37,3.37,0,0,0,4.77,4.77,21.89,21.89,0,0,0,4.81-7.07,20.42,20.42,0,0,0,1.56-8c0-5.25-1.77-10.56-4.69-15.83a16.67,16.67,0,0,1-2.22-8.2,15.82,15.82,0,0,1,.86-5.15,11.14,11.14,0,0,1,.57-1.39,3.06,3.06,0,0,1,.16-.32l0,0,.06-.09.06-.12a45.21,45.21,0,0,0,2.76-6.57,17.91,17.91,0,0,0,.89-5.28,15,15,0,0,0-.83-4.76c-.47-1.41-1-2.67-1.59-4.06-.84-2.09-1.79-3.68-2.39-5a8.55,8.55,0,0,1-.94-3.73c0-1.51.45-3.65,2.1-7a3.37,3.37,0,0,0-6-3h0c-1.94,3.88-2.81,7.08-2.81,10a15.12,15.12,0,0,0,1.56,6.54c.82,1.78,1.66,3.21,2.26,4.72s1.13,2.71,1.45,3.68a7.77,7.77,0,0,1,.48,2.63,10.81,10.81,0,0,1-.59,3.28,36.92,36.92,0,0,1-2.32,5.49,18.72,18.72,0,0,0-1.24,2.85,22.53,22.53,0,0,0-1.22,7.35,23.44,23.44,0,0,0,3.06,11.48C198,134.52,199.33,138.8,199.33,142.48Z"/><path class="cls-10" d="M246.7,135.09a3.37,3.37,0,0,0,4.77,0,21.82,21.82,0,0,0,4.82-7.07,20.75,20.75,0,0,0,1.56-8c0-5.25-1.78-10.56-4.7-15.82A16.68,16.68,0,0,1,250.94,96a16.18,16.18,0,0,1,.85-5.15c.22-.61.43-1.09.57-1.39.07-.15.13-.26.16-.32l0,0,0-.09.06-.11a44.62,44.62,0,0,0,2.76-6.58,17.54,17.54,0,0,0,.89-5.28,14.84,14.84,0,0,0-.82-4.75c-.48-1.42-1-2.68-1.59-4.07-.85-2.09-1.79-3.68-2.4-5a8.55,8.55,0,0,1-.94-3.73c0-1.51.45-3.65,2.1-7a3.37,3.37,0,1,0-6-3h0a22.29,22.29,0,0,0-2.81,10A15.35,15.35,0,0,0,245.37,66c.82,1.77,1.67,3.2,2.26,4.71s1.13,2.71,1.46,3.69a7.9,7.9,0,0,1,.47,2.62,11.06,11.06,0,0,1-.58,3.28,38.54,38.54,0,0,1-2.32,5.5,17.49,17.49,0,0,0-1.25,2.85A22.78,22.78,0,0,0,244.19,96a23.3,23.3,0,0,0,3.07,11.48c2.55,4.59,3.85,8.87,3.84,12.55a13.93,13.93,0,0,1-1,5.4,15.16,15.16,0,0,1-3.36,4.89A3.37,3.37,0,0,0,246.7,135.09Z"/><path class="cls-10" d="M307.75,155.17a13.89,13.89,0,0,1-1,5.4,15.36,15.36,0,0,1-3.36,4.9,3.37,3.37,0,1,0,4.77,4.77,22,22,0,0,0,4.82-7.08,20.75,20.75,0,0,0,1.56-8c0-5.25-1.78-10.55-4.7-15.82a16.68,16.68,0,0,1-2.21-8.21,15.78,15.78,0,0,1,.85-5.14,11.42,11.42,0,0,1,.57-1.4c.07-.15.13-.25.16-.31l0-.05.05-.1.06-.11a44.18,44.18,0,0,0,2.76-6.58,17.54,17.54,0,0,0,.89-5.28,14.84,14.84,0,0,0-.82-4.75c-.48-1.42-1-2.68-1.59-4.06-.85-2.09-1.79-3.69-2.4-5a8.59,8.59,0,0,1-.94-3.74c0-1.5.45-3.65,2.1-6.95a3.37,3.37,0,1,0-6-3h0a22.29,22.29,0,0,0-2.81,10,15.35,15.35,0,0,0,1.55,6.55c.82,1.77,1.66,3.2,2.26,4.71s1.13,2.71,1.45,3.69a7.71,7.71,0,0,1,.48,2.62,11.06,11.06,0,0,1-.58,3.28,37.65,37.65,0,0,1-2.33,5.5,18.8,18.8,0,0,0-1.24,2.85,22.78,22.78,0,0,0-1.22,7.34,23.45,23.45,0,0,0,3.06,11.49C306.46,147.21,307.76,151.49,307.75,155.17Z"/><path class="cls-5" d="M142.82,327.22A258,258,0,0,0,169,344.4a192.36,192.36,0,0,0,28.14,13.42,173.2,173.2,0,0,0,29.92,8.41A149.1,149.1,0,0,0,258,368.61a163.41,163.41,0,0,0,30.84-3.53,204.93,204.93,0,0,0,29.82-8.87,239,239,0,0,0,28.39-13c9.25-4.83,18.16-10.3,26.94-16a281.22,281.22,0,0,1-26.19,17.34,239.39,239.39,0,0,1-28.25,13.9A174.87,174.87,0,0,1,258,371.74a156.1,156.1,0,0,1-61.78-11.68,192.31,192.31,0,0,1-28-14.34A226.37,226.37,0,0,1,142.82,327.22Z"/><path class="cls-5" d="M117.67,306a111.57,111.57,0,0,0,11.84,17.22,159.34,159.34,0,0,0,14.29,15.1c2.62,2.27,5.14,4.67,7.91,6.77,1.35,1.08,2.67,2.22,4.06,3.26s2.81,2.05,4.21,3.09l2.1,1.56,2.17,1.45,4.34,2.94c2.92,1.92,5.95,3.68,8.88,5.66-3.24-1.36-6.49-2.76-9.66-4.33l-4.65-2.53-2.32-1.29-2.24-1.43a120.84,120.84,0,0,1-16.93-12.84,110.47,110.47,0,0,1-14.1-15.92A69.86,69.86,0,0,1,117.67,306Z"/><path class="cls-5" d="M398.89,341.79a117.72,117.72,0,0,1-16.33,20.47,139.13,139.13,0,0,1-20.17,16.86c-3.59,2.54-7.42,4.72-11.21,6.92-1.94,1-3.95,2-5.91,2.94l-3,1.44-3.07,1.2c-8.06,3.53-16.73,5.41-25.3,6.78,2.08-.68,4.15-1.33,6.23-1.95l3.11-.93c1-.35,2-.79,3-1.17l6.06-2.3,5.89-2.67L341.2,388l2.85-1.52c1.89-1,3.82-2,5.67-3.06l5.52-3.35c1.88-1.05,3.58-2.39,5.37-3.57a185.57,185.57,0,0,0,20.25-16l4.72-4.45c1.52-1.53,3.09-3,4.58-4.6C393.22,348.38,396.08,345.12,398.89,341.79Z"/><path class="cls-5" d="M129.46,354.61a105.28,105.28,0,0,0,16.07,15.66A149.53,149.53,0,0,0,163.93,383a176.18,176.18,0,0,0,41,17.47,207.91,207.91,0,0,0,21.8,5c3.69.54,7.36,1.26,11.08,1.62l5.56.65,5.59.47a310.76,310.76,0,0,0,44.95,0,228.11,228.11,0,0,1-45.1,2.4l-5.66-.29-5.65-.54c-3.78-.3-7.51-.95-11.26-1.43a199.81,199.81,0,0,1-22.17-4.93,182.38,182.38,0,0,1-21.39-7.71,155.91,155.91,0,0,1-20.05-10.69,132.41,132.41,0,0,1-18.12-13.65c-2.81-2.53-5.5-5.19-8-8A70.36,70.36,0,0,1,129.46,354.61Z"/></svg>