<?xml version="1.0" encoding="UTF-8" standalone="no"?>
<svg
   xmlns:dc="http://purl.org/dc/elements/1.1/"
   xmlns:cc="http://creativecommons.org/ns#"
   xmlns:rdf="http://www.w3.org/1999/02/22-rdf-syntax-ns#"
   xmlns:svg="http://www.w3.org/2000/svg"
   xmlns="http://www.w3.org/2000/svg"
   xmlns:sodipodi="http://sodipodi.sourceforge.net/DTD/sodipodi-0.dtd"
   xmlns:inkscape="http://www.inkscape.org/namespaces/inkscape"
   id="Layer_1"
   data-name="Layer 1"
   viewBox="0 0 81.180012 68.39001"
   version="1.1"
   sodipodi:docname="chat.svg"
   width="81.180008"
   height="68.390007"
   inkscape:version="1.0.1 (0767f8302a, 2020-10-17)">
  <metadata
     id="metadata13">
    <rdf:RDF>
      <cc:Work
         rdf:about="">
        <dc:format>image/svg+xml</dc:format>
        <dc:type
           rdf:resource="http://purl.org/dc/dcmitype/StillImage" />
      </cc:Work>
    </rdf:RDF>
  </metadata>
  <sodipodi:namedview
     pagecolor="#ffffff"
     bordercolor="#666666"
     borderopacity="1"
     objecttolerance="10"
     gridtolerance="10"
     guidetolerance="10"
     inkscape:pageopacity="0"
     inkscape:pageshadow="2"
     inkscape:window-width="1920"
     inkscape:window-height="1014"
     id="namedview11"
     showgrid="false"
     inkscape:zoom="6.3643181"
     inkscape:cx="39.180001"
     inkscape:cy="27.090001"
     inkscape:window-x="0"
     inkscape:window-y="34"
     inkscape:window-maximized="0"
     inkscape:current-layer="Layer_1" />
  <defs
     id="defs4">
    <style
       id="style2">.cls-1{fill:#ff4900;}</style>
  </defs>
  <title
     id="title6">livechat</title>
  <path
     class="cls-1"
     d="m 68.480004,3.9432189e-6 h -55.79 A 12.69,12.69 0 0 0 3.9401109e-6,12.700004 v 27.26 A 12.69,12.69 0 0 0 12.690004,52.650004 h 4.3 l -5.37,10.74 a 3.47,3.47 0 0 0 -0.37,1.55 3.48,3.48 0 0 0 3.46,3.45 3.57,3.57 0 0 0 1.92,-0.58 l 22.76,-15.16 h 29.09 a 12.7,12.7 0 0 0 12.7,-12.69 v -27.26 A 12.69,12.69 0 0 0 68.480004,3.9432189e-6 Z M 75.600004,40.000004 a 7.13,7.13 0 0 1 -7.12,7.07 h -30.78 l -17.51,11.66 5.83,-11.66 h -13.33 a 7.13,7.13 0 0 1 -7.1100001,-7.11 v -27.26 A 7.13,7.13 0 0 1 12.690004,5.5800039 h 55.79 a 7.14,7.14 0 0 1 7.12,7.1200001 z"
     id="path8" />
</svg>
