<?xml version="1.0" encoding="UTF-8" standalone="no"?>
<svg
   xmlns:dc="http://purl.org/dc/elements/1.1/"
   xmlns:cc="http://creativecommons.org/ns#"
   xmlns:rdf="http://www.w3.org/1999/02/22-rdf-syntax-ns#"
   xmlns:svg="http://www.w3.org/2000/svg"
   xmlns="http://www.w3.org/2000/svg"
   xmlns:sodipodi="http://sodipodi.sourceforge.net/DTD/sodipodi-0.dtd"
   xmlns:inkscape="http://www.inkscape.org/namespaces/inkscape"
   id="Layer_1"
   data-name="Layer 1"
   viewBox="0 0 82.660007 49.180001"
   version="1.1"
   sodipodi:docname="mastero.svg"
   inkscape:version="1.0.1 (0767f8302a, 2020-10-17)">
  <metadata
     id="metadata35">
    <rdf:RDF>
      <cc:Work
         rdf:about="">
        <dc:format>image/svg+xml</dc:format>
        <dc:type
           rdf:resource="http://purl.org/dc/dcmitype/StillImage" />
      </cc:Work>
    </rdf:RDF>
  </metadata>
  <sodipodi:namedview
     pagecolor="#ffffff"
     bordercolor="#666666"
     borderopacity="1"
     objecttolerance="10"
     gridtolerance="10"
     guidetolerance="10"
     inkscape:pageopacity="0"
     inkscape:pageshadow="2"
     inkscape:window-width="1920"
     inkscape:window-height="1014"
     id="namedview33"
     showgrid="false"
     inkscape:zoom="9.392804"
     inkscape:cx="41.529997"
     inkscape:cy="25.764999"
     inkscape:window-x="0"
     inkscape:window-y="34"
     inkscape:window-maximized="0"
     inkscape:current-layer="Layer_1" />
  <defs
     id="defs4">
    <style
       id="style2">.cls-1{fill:none;stroke:#cacaca;stroke-miterlimit:10;stroke-width:2px;}.cls-2{fill:#0097d9;}.cls-2,.cls-3,.cls-4{fill-rule:evenodd;}.cls-3{fill:#e40520;}.cls-4{fill:#fff;}</style>
  </defs>
  <title
     id="title6">cards_logo</title>
  <path
     class="cls-1"
     d="M 75.07,1 H 7.59 A 6.59,6.59 0 0 0 1,7.59 v 34 a 6.59,6.59 0 0 0 6.59,6.59 h 67.48 a 6.59,6.59 0 0 0 6.59,-6.59 v -34 A 6.59,6.59 0 0 0 75.07,1 Z"
     id="path8" />
  <path
     class="cls-2"
     d="m 41.14,38.31 a 18.18,18.18 0 0 0 0,-26.83 17.83,17.83 0 0 0 -12.06,-4.68 18.1,18.1 0 0 0 0,36.2 17.84,17.84 0 0 0 12.06,-4.69 z"
     id="path10" />
  <path
     class="cls-3"
     d="m 53.2,6.8 a 17.83,17.83 0 0 0 -12.06,4.68 19.3,19.3 0 0 0 -1.81,1.92 h 3.63 a 20.21,20.21 0 0 1 1.37,1.92 h -6.37 a 18.48,18.48 0 0 0 -1,1.91 h 8.44 a 17.82,17.82 0 0 1 0.76,1.92 h -10 a 17.33,17.33 0 0 0 -0.52,1.91 h 11 a 18,18 0 0 1 0.41,3.84 18.23,18.23 0 0 1 -0.93,5.75 h -10 a 18.52,18.52 0 0 0 0.76,1.91 h 8.44 a 18.56,18.56 0 0 1 -1,1.92 h -6.36 a 17.17,17.17 0 0 0 1.37,1.92 h 3.63 A 18.26,18.26 0 0 1 41.14,38.31 17.84,17.84 0 0 0 53.2,43 18.1,18.1 0 0 0 53.2,6.8 Z"
     id="path12" />
  <path
     class="cls-3"
     d="M 68.83,35 A 0.58,0.58 0 1 1 69.41,35.58 0.58,0.58 0 0 1 68.83,35 Z m 0.58,0.44 A 0.45,0.45 0 1 0 68.97,35 a 0.44,0.44 0 0 0 0.44,0.44 z m -0.08,-0.19 h -0.12 v -0.51 h 0.22 a 0.21,0.21 0 0 1 0.13,0 0.13,0.13 0 0 1 0.06,0.12 0.14,0.14 0 0 1 -0.09,0.14 l 0.1,0.22 h -0.14 l -0.07,-0.2 H 69.33 V 35 h 0.14 a 0.06,0.06 0 0 0 0,-0.06 0.09,0.09 0 0 0 0,-0.05 h -0.14 v 0.42 z"
     id="path14" />
  <path
     class="cls-4"
     d="m 64.98,28.82 a 0.58,0.58 0 1 1 0.58,0.58 0.58,0.58 0 0 1 -0.58,-0.58 z m 0.58,0.44 a 0.44,0.44 0 0 0 0,-0.88 0.44,0.44 0 0 0 0,0.88 z m -0.08,-0.18 h -0.12 v -0.52 h 0.22 a 0.21,0.21 0 0 1 0.13,0 0.16,0.16 0 0 1 0.06,0.13 0.13,0.13 0 0 1 -0.09,0.13 l 0.1,0.23 h -0.14 l -0.07,-0.21 h -0.09 v -0.08 h 0.14 a 0.09,0.09 0 0 0 0,-0.06 0.07,0.07 0 0 0 0,-0.06 h -0.14 v 0.42 z"
     id="path16" />
  <polygon
     class="cls-4"
     points="51.1,37.35 48.04,44.41 46,44.41 45.63,37.39 44.3,44.41 42.27,44.41 44,35.23 47.49,35.23 47.67,40.91 50.13,35.23 53.77,35.23 52.01,44.41 49.77,44.41 "
     id="polygon18"
     transform="translate(-25.17,-15)" />
  <path
     class="cls-4"
     d="m 51.83,29.31 a 5.81,5.81 0 0 1 -1.61,0.25 c -1.14,0 -1.77,-0.58 -1.77,-1.64 a 3.18,3.18 0 0 1 0.07,-0.67 l 0.13,-0.73 0.11,-0.59 1,-5.7 h 2.23 l -0.32,1.71 h 1.16 l -0.31,1.82 h -1.14 l -0.55,3.11 a 1.52,1.52 0 0 0 0,0.31 c 0,0.38 0.23,0.55 0.76,0.55 a 2,2 0 0 0 0.6,-0.07 z"
     id="path20" />
  <path
     class="cls-4"
     d="M 58.36,22 A 1.87,1.87 0 0 0 58.1,21.92 h -0.19 -0.22 c -0.74,0 -1.27,0.33 -2,1.21 L 55.89,22 h -2 l -1.34,7.4 h 2.28 c 0.8,-4.56 1.14,-5.36 2.21,-5.36 h 0.29 0.26 z"
     id="path22" />
  <path
     class="cls-4"
     d="m 42.96,24.3 c 0,0.94 0.53,1.59 1.73,2.08 0.91,0.37 1,0.48 1,0.82 0,0.34 -0.4,0.68 -1.3,0.68 a 7,7 0 0 1 -2,-0.3 l -0.31,1.72 h 0.1 l 0.41,0.08 0.59,0.06 c 0.54,0 1,0.06 1.25,0.06 2.39,0 3.49,-0.78 3.49,-2.49 A 2.05,2.05 0 0 0 46.36,25 c -1,-0.38 -1.06,-0.46 -1.06,-0.81 0,-0.35 0.37,-0.61 1.11,-0.61 a 14.36,14.36 0 0 1 1.62,0.11 l 0.32,-1.73 a 17.55,17.55 0 0 0 -2,-0.14 c -2.53,0 -3.4,1.14 -3.4,2.52 z"
     id="path24" />
  <path
     class="cls-4"
     d="m 34.11,29.4 h -1.86 v -0.77 a 3,3 0 0 1 -2.34,0.9 1.94,1.94 0 0 1 -2,-2 c 0,-1.82 1.45,-2.88 3.93,-2.88 a 7.83,7.83 0 0 1 0.91,0.06 1.7,1.7 0 0 0 0.09,-0.49 c 0,-0.49 -0.39,-0.68 -1.43,-0.68 a 8.07,8.07 0 0 0 -1.86,0.21 l -0.31,0.08 -0.2,0.05 0.31,-1.68 a 9.93,9.93 0 0 1 2.67,-0.4 c 1.93,0 2.94,0.76 2.94,2.19 a 7.5,7.5 0 0 1 -0.18,1.48 l -0.47,2.65 -0.08,0.47 v 0.38 0.26 0.2 z m -1.63,-3.32 h -0.5 c -1.27,0 -1.91,0.38 -1.91,1.13 a 0.73,0.73 0 0 0 0.76,0.79 1.73,1.73 0 0 0 1.61,-1.87 z"
     id="path26" />
  <path
     class="cls-4"
     d="m 41.44,29.24 a 8.48,8.48 0 0 1 -2.29,0.31 c -2.5,0 -3.8,-1.15 -3.8,-3.35 0,-2.56 1.66,-4.44 3.91,-4.44 1.84,0 3,1.05 3,2.71 a 7.28,7.28 0 0 1 -0.27,1.84 h -4.44 c 0,0.12 0,0.17 0,0.23 0,0.87 0.66,1.31 2,1.31 a 5.83,5.83 0 0 0 2.28,-0.47 l -0.37,1.86 z M 40.25,24.8 c 0,-0.15 0,-0.28 0,-0.38 a 0.93,0.93 0 0 0 -1.06,-1 c -0.71,0 -1.22,0.48 -1.42,1.34 z"
     id="path28" />
  <path
     class="cls-4"
     d="m 65.31,26 c -0.34,2.48 -2.06,3.58 -4.34,3.58 -2.53,0 -3.56,-1.54 -3.56,-3.44 a 4.17,4.17 0 0 1 4.42,-4.41 3.24,3.24 0 0 1 3.55,3.37 4.59,4.59 0 0 1 -0.06,0.92 z m -2.3,-1 c 0,-0.78 -0.32,-1.52 -1.24,-1.52 -1.14,0 -1.84,1.36 -1.84,2.56 0,1 0.48,1.69 1.28,1.67 A 2.2,2.2 0 0 0 62.93,26 4.91,4.91 0 0 0 63.01,25.11 Z"
     id="path30" />
</svg>
