<?xml version="1.0" encoding="UTF-8" standalone="no"?>
<svg
   xmlns:dc="http://purl.org/dc/elements/1.1/"
   xmlns:cc="http://creativecommons.org/ns#"
   xmlns:rdf="http://www.w3.org/1999/02/22-rdf-syntax-ns#"
   xmlns:svg="http://www.w3.org/2000/svg"
   xmlns="http://www.w3.org/2000/svg"
   xmlns:sodipodi="http://sodipodi.sourceforge.net/DTD/sodipodi-0.dtd"
   xmlns:inkscape="http://www.inkscape.org/namespaces/inkscape"
   id="Layer_1"
   data-name="Layer 1"
   viewBox="0 0 80.660007 47.189999"
   version="1.1"
   sodipodi:docname="visa.svg"
   inkscape:version="1.0.1 (0767f8302a, 2020-10-17)">
  <metadata
     id="metadata23">
    <rdf:RDF>
      <cc:Work
         rdf:about="">
        <dc:format>image/svg+xml</dc:format>
        <dc:type
           rdf:resource="http://purl.org/dc/dcmitype/StillImage" />
      </cc:Work>
    </rdf:RDF>
  </metadata>
  <sodipodi:namedview
     pagecolor="#ffffff"
     bordercolor="#666666"
     borderopacity="1"
     objecttolerance="10"
     gridtolerance="10"
     guidetolerance="10"
     inkscape:pageopacity="0"
     inkscape:pageshadow="2"
     inkscape:window-width="737"
     inkscape:window-height="1014"
     id="namedview21"
     showgrid="false"
     inkscape:zoom="9.392804"
     inkscape:cx="42.539997"
     inkscape:cy="22.734999"
     inkscape:window-x="608"
     inkscape:window-y="34"
     inkscape:window-maximized="0"
     inkscape:current-layer="Layer_1" />
  <defs
     id="defs4">
    <style
       id="style2">.cls-1{fill:none;stroke:#cacaca;stroke-miterlimit:10;stroke-width:2px;}.cls-2{fill:#005ca7;}.cls-3{fill:#f5a624;}</style>
  </defs>
  <title
     id="title6">cards_logo</title>
  <rect
     class="cls-1"
     x="1"
     y="1"
     width="78.660004"
     height="45.189999"
     rx="5.5900002"
     id="rect8" />
  <polygon
     class="cls-2"
     points="57.72,31.02 63,31.02 59.7,51.3 54.42,51.3 "
     id="polygon10"
     transform="translate(-24.16,-18.030001)" />
  <path
     class="cls-2"
     d="m 25.84,12.969999 -5,14 -0.6,-3 v 0 l -1.77,-9.12 a 2.27,2.27 0 0 0 -2.56,-1.88 H 7.5900002 l -0.1,0.34 a 19.76,19.76 0 0 1 5.5299998,2.32 l 4.58,17.64 h 5.5 l 8.4,-20.3 z"
     id="path12" />
  <path
     class="cls-2"
     d="m 67.35,33.269999 h 4.85 l -4.23,-20.3 h -4.25 a 2.41,2.41 0 0 0 -2.43,1.51 l -7.88,18.79 h 5.51 l 1.1,-3 h 6.71 z m -5.81,-7.18 2.77,-7.59 1.53,7.59 z"
     id="path14" />
  <path
     class="cls-2"
     d="m 53.84,17.859999 0.75,-4.35 a 15.2,15.2 0 0 0 -4.75,-0.89 c -2.62,0 -8.84,1.15 -8.84,6.72 0,5.24 7.3,5.3 7.3,8.05 0,2.75 -6.55,2.26 -8.71,0.53 l -0.75,4.55 a 14.76,14.76 0 0 0 6,1.15 c 3.61,0 9,-1.87 9,-6.95 0,-5.27 -7.36,-5.76 -7.36,-8.05 0,-2.29 5.09,-2 7.36,-0.76 z"
     id="path16" />
  <path
     class="cls-3"
     d="m 20.19,23.969999 -1.77,-9.12 a 2.27,2.27 0 0 0 -2.51,-1.88 H 7.5900002 l -0.1,0.34 a 20.53,20.53 0 0 1 7.8399998,3.93 15.77,15.77 0 0 1 4.86,6.73 z"
     id="path18" />
</svg>
