<svg id="Layer_1" data-name="Layer 1" xmlns="http://www.w3.org/2000/svg" viewBox="0 0 464 500"><defs><style>.cls-1,.cls-17{fill:#ffeec4;}.cls-2{fill:#fd8f04;}.cls-12,.cls-26,.cls-27,.cls-3,.cls-31,.cls-5,.cls-6,.cls-7,.cls-9{fill:none;stroke-miterlimit:10;}.cls-3{stroke:#5b3103;}.cls-3,.cls-31,.cls-5,.cls-9{stroke-linecap:round;}.cls-3,.cls-5{stroke-width:7px;}.cls-4{fill:#5b3103;}.cls-5{stroke:#faa747;}.cls-31,.cls-6,.cls-9{stroke:#fd8f04;}.cls-6{stroke-width:29px;}.cls-7{stroke:#fdd307;stroke-width:41px;}.cls-8{fill:#1f3440;}.cls-9{stroke-width:10px;}.cls-10{fill:#fdd307;}.cls-11{fill:#fc4c01;}.cls-12{stroke:#fc4c01;}.cls-13{fill:#fbbf00;}.cls-14{fill:#ffd400;}.cls-15{fill:#ffad00;}.cls-16{fill:#ffd57b;}.cls-17{opacity:0.46;}.cls-18{fill:#fdedc8;}.cls-19{fill:#faf6de;}.cls-20{fill:#f5d39a;}.cls-21{fill:#f2ae38;}.cls-22{fill:#fdf8ec;}.cls-23{fill:#5b4837;}.cls-24{fill:#433025;}.cls-25{opacity:0.67;}.cls-26{stroke:#f7d38b;}.cls-27{stroke:#d9a853;stroke-width:0.5px;}.cls-28{fill:#0c1d24;}.cls-29{fill:#fdf7dc;}.cls-30{fill:#d6c082;}.cls-31{stroke-width:9px;}</style></defs><title>XLBCharacter</title><path class="cls-1" d="M121.86,154.88H183a87.86,87.86,0,0,1,87.86,87.86V500a0,0,0,0,1,0,0H34a0,0,0,0,1,0,0V242.74A87.86,87.86,0,0,1,121.86,154.88Z"/><rect class="cls-2" x="188.68" y="271.33" width="60.27" height="38.26"/><path class="cls-2" d="M252.15,69.15V81.08a7.75,7.75,0,0,1-6.74,7.82,7.52,7.52,0,0,1-8.27-7.47v-20a3.28,3.28,0,0,0-2.57-3.22c-2.74-.59-5.54-1.06-8.37-1.4a3.31,3.31,0,0,0-3.72,3.28v21a7.75,7.75,0,0,1-6.74,7.82,7.53,7.53,0,0,1-8.28-7.47V60.1a3.31,3.31,0,0,0-3.72-3.28c-2.83.34-5.63.81-8.37,1.4a3.28,3.28,0,0,0-2.57,3.22V81.08a7.75,7.75,0,0,1-6.73,7.82,7.53,7.53,0,0,1-8.28-7.47V69.15a3.31,3.31,0,0,0-4.78-3,92.4,92.4,0,0,0-50.46,82.34V215.9a70.22,70.22,0,0,0,70.22,70.21h44.4a70.21,70.21,0,0,0,70.21-70.21V148.53a92.39,92.39,0,0,0-50.45-82.34A3.31,3.31,0,0,0,252.15,69.15Z"/><path class="cls-3" d="M172.56,175.24a16.13,16.13,0,1,1,32.25,0"/><path class="cls-4" d="M259.45,205.7a42.85,42.85,0,0,1-79-.21Z"/><path class="cls-5" d="M173.47,220.63a11.29,11.29,0,0,0,.06-20.83"/><path class="cls-5" d="M266.4,220.63a11.3,11.3,0,0,1-.06-20.83"/><path class="cls-3" d="M238.82,175.24a16.13,16.13,0,1,1,32.25,0"/><path class="cls-6" d="M265.85,318.38s87.31,14.8,85.94-119.37"/><path class="cls-7" d="M265.85,318.38s30.3,5.14,54.91-18.07"/><path class="cls-2" d="M153.4,303.86h123a0,0,0,0,1,0,0V444.11a21.19,21.19,0,0,1-21.19,21.19H174.59a21.19,21.19,0,0,1-21.19-21.19V303.86A0,0,0,0,1,153.4,303.86Z"/><path class="cls-8" d="M153.26,387.26H276.49a0,0,0,0,1,0,0v78a0,0,0,0,1,0,0H171.29a18,18,0,0,1-18-18v-60A0,0,0,0,1,153.26,387.26Z"/><path class="cls-2" d="M350.27,174.36h28.5a14.5,14.5,0,0,1,14.5,14.5v10.7a14.5,14.5,0,0,1-14.5,14.5h-43a0,0,0,0,1,0,0v-25.2a14.5,14.5,0,0,1,14.5-14.5Z"/><path class="cls-9" d="M346.56,184.93s19-6,15.67-26.47"/><rect class="cls-10" x="153.26" y="295.53" width="123.22" height="123.22"/><path class="cls-11" d="M223.85,218.68H189.08a42.78,42.78,0,0,0,46,10.43A11.28,11.28,0,0,0,223.85,218.68Z"/><line class="cls-12" x1="153.26" y1="342.79" x2="162.85" y2="342.79"/><rect class="cls-13" x="153.26" y="357.14" width="123.22" height="7.49"/><rect class="cls-14" y="364.63" width="464" height="135.37"/><ellipse class="cls-15" cx="314.74" cy="428.45" rx="94.59" ry="45.64"/><ellipse class="cls-16" cx="314.22" cy="425.57" rx="94.59" ry="45.64"/><ellipse class="cls-17" cx="314.22" cy="421.6" rx="58.94" ry="28.44"/><path class="cls-18" d="M166.45,451.35v6.7a41.75,41.75,0,0,0,12.15,1.62A40.32,40.32,0,0,0,190.75,458v-6.64Z"/><path class="cls-19" d="M356.34,414.46h0a38.56,38.56,0,0,0-3-10.11,26.37,26.37,0,0,0-5.19-7.71,17.86,17.86,0,0,0-9-5,6.1,6.1,0,0,1-.67-.48c-.57-.44-1.29-1.07-2-1.62a10,10,0,0,0-1.18-.78,6,6,0,0,0-.71-.32,3.07,3.07,0,0,0-1-.17,3,3,0,0,0-1.42.37,7.58,7.58,0,0,0-1.42,1.05c-.63.56-1.22,1.17-1.71,1.62a6.73,6.73,0,0,1-.55.48,16.59,16.59,0,0,0-8.91,5,27.71,27.71,0,0,0-6.14,11.92,35.84,35.84,0,0,0-1.15,6.6h0a10,10,0,0,0-.1,1.2,7.47,7.47,0,0,0,1.43,4.41,10.81,10.81,0,0,0,5.24,3.6,18.55,18.55,0,0,0,6,1h19a15.72,15.72,0,0,0,9.8-3.62,9.31,9.31,0,0,0,2.06-2.59,7.15,7.15,0,0,0,.84-3.39A7.58,7.58,0,0,0,356.34,414.46Z"/><path class="cls-20" d="M335.6,393.06a14.37,14.37,0,0,1,5.42,3.43c.37.39.76.78,1.11,1.2l1,1.31c.3.46.56.94.84,1.42a15.74,15.74,0,0,1,1.9,7.92,16.53,16.53,0,0,1-.35,3.22,22.49,22.49,0,0,1-1,3c-.06-1.08.05-2.11,0-3.14a27.69,27.69,0,0,0-.23-3c-.08-.5-.12-1-.2-1.49l-.34-1.45a10.05,10.05,0,0,0-.42-1.42,8.93,8.93,0,0,0-.51-1.39,21.74,21.74,0,0,0-3-5.15A30.78,30.78,0,0,0,335.6,393.06Z"/><path class="cls-20" d="M333.38,393.06a7.74,7.74,0,0,1,2.85,3.59,10.45,10.45,0,0,1,.76,4.67,11.89,11.89,0,0,1-1.37,4.47,15.49,15.49,0,0,1-1.26,1.92,17.58,17.58,0,0,1-1.62,1.61c.22-.75.51-1.42.77-2.1s.49-1.36.67-2a20.71,20.71,0,0,0,.81-4A15.78,15.78,0,0,0,333.38,393.06Z"/><path class="cls-20" d="M331.68,393.06a8.08,8.08,0,0,1,.24,4,9.52,9.52,0,0,1-1.54,3.78,8.62,8.62,0,0,1-3,2.75,8.07,8.07,0,0,1-3.84,1.07c1.06-.84,2.08-1.51,2.94-2.34a14.17,14.17,0,0,0,2.29-2.62,16.56,16.56,0,0,0,1.7-3.07C330.89,395.49,331.29,394.33,331.68,393.06Z"/><path class="cls-19" d="M322,430h0a38.77,38.77,0,0,0-3-10.12,26.54,26.54,0,0,0-5.2-7.71,17.73,17.73,0,0,0-9-5c-.09-.06-.36-.24-.66-.48-.57-.45-1.3-1.07-2-1.63a8.88,8.88,0,0,0-1.18-.77,3.89,3.89,0,0,0-.71-.32,2.88,2.88,0,0,0-2.43.2,7.55,7.55,0,0,0-1.42,1c-.62.56-1.22,1.17-1.7,1.62a6.45,6.45,0,0,1-.55.48,16.62,16.62,0,0,0-8.92,5A27.74,27.74,0,0,0,279,424.27a37.69,37.69,0,0,0-1.15,6.6h0a8.07,8.07,0,0,0-.1,1.19,7.38,7.38,0,0,0,1.42,4.41,10.85,10.85,0,0,0,5.24,3.6,18.59,18.59,0,0,0,6,1h19a15,15,0,0,0,4.07-.6,14.73,14.73,0,0,0,5.73-3,9.14,9.14,0,0,0,2.06-2.59,7.24,7.24,0,0,0,.85-3.38A7.45,7.45,0,0,0,322,430Z"/><path class="cls-20" d="M301.22,408.58a14.41,14.41,0,0,1,5.41,3.43c.37.4.76.78,1.11,1.2l1,1.31c.29.46.56,1,.84,1.42s.47,1,.7,1.49a15.7,15.7,0,0,1,1.2,6.43,17.35,17.35,0,0,1-.36,3.22,22.62,22.62,0,0,1-1,3.05c-.05-1.08.05-2.12,0-3.15a30.41,30.41,0,0,0-.22-3c-.09-.49-.12-1-.21-1.48l-.34-1.46a11.53,11.53,0,0,0-.41-1.42,9.54,9.54,0,0,0-.52-1.38,21.41,21.41,0,0,0-3-5.15A30.79,30.79,0,0,0,301.22,408.58Z"/><path class="cls-20" d="M299,408.58a7.79,7.79,0,0,1,2.85,3.59,10.2,10.2,0,0,1,.76,4.67,12.06,12.06,0,0,1-1.36,4.47,16,16,0,0,1-1.27,1.92,16.41,16.41,0,0,1-1.62,1.61c.22-.75.51-1.42.77-2.1s.49-1.35.68-2a21.45,21.45,0,0,0,.8-4A15.78,15.78,0,0,0,299,408.58Z"/><path class="cls-20" d="M297.29,408.58a8,8,0,0,1,.24,4,9.4,9.4,0,0,1-1.54,3.78,8.58,8.58,0,0,1-3,2.75,8.14,8.14,0,0,1-3.84,1.07c1.05-.84,2.07-1.51,2.93-2.34a14.17,14.17,0,0,0,2.3-2.61,17.57,17.57,0,0,0,1.69-3.08C296.5,411,296.9,409.85,297.29,408.58Z"/><path class="cls-21" d="M206,437.25c0,7.29-5.33,20.47-27.38,20.47-22.53,0-27.38-13.18-27.38-20.47S163.48,424,178.6,424,206,430,206,437.25Z"/><ellipse class="cls-22" cx="178.6" cy="437.25" rx="27.38" ry="13.21"/><path class="cls-23" d="M178.6,450c12.1,0,22.35-3.37,26-8.61-1.84-6.13-12.77-10.85-26-10.85s-24.14,4.72-26,10.85C156.25,446.67,166.51,450,178.6,450Z"/><path class="cls-24" d="M178.6,450c10.12,0,18.33-3.05,22.58-6.44-1.54-5.13-11.53-9.76-22.58-9.76s-24.44,2.46-26,7.59C155.66,445.81,168.49,450,178.6,450Z"/><path class="cls-22" d="M178.6,425c14.3,0,26.38,5.6,26.38,12.22s-12.08,12.21-26.38,12.21-26.38-5.6-26.38-12.21S164.3,425,178.6,425m0-1c-15.12,0-27.38,5.92-27.38,13.22s12.26,13.21,27.38,13.21S206,444.54,206,437.25,193.72,424,178.6,424Z"/><g class="cls-25"><path class="cls-26" d="M161.63,435.16s17.41,5.31,30.57-4"/><path class="cls-26" d="M168.59,432.15s4.25,9.55,24.65,7.08"/><path class="cls-26" d="M168.17,437.77s7.92,6.83,25.31-4.13"/><path class="cls-26" d="M195.57,436.31s-8.83-5.58-24.42,7.81"/></g><path class="cls-27" d="M313.74,412.16s4.54,3.53,5.5,8.39"/><path class="cls-2" d="M217.45,342.57h48.69a5.61,5.61,0,0,1,5.61,5.61v14.37a14.62,14.62,0,0,1-14.62,14.62H217.45a2.49,2.49,0,0,1-2.49-2.49V345.06A2.49,2.49,0,0,1,217.45,342.57Z"/><path class="cls-6" d="M121.94,327.25a102.71,102.71,0,0,0-39.11,35.2c-35.46,53.19,89.54,55,145.38-8.35"/><polygon class="cls-28" points="300.88 299.11 302.46 300.98 209.32 370.94 205.26 365.84 300.88 299.11"/><path class="cls-29" d="M313.47,323h0a43.37,43.37,0,0,0-3.35-11.22,29.28,29.28,0,0,0-5.76-8.55,19.75,19.75,0,0,0-10-5.5,7,7,0,0,1-.74-.53c-.63-.5-1.44-1.19-2.26-1.8a10.27,10.27,0,0,0-1.31-.87,5.84,5.84,0,0,0-.79-.35,3.69,3.69,0,0,0-1.12-.2,3.44,3.44,0,0,0-1.57.42,7.88,7.88,0,0,0-1.58,1.16c-.69.62-1.36,1.3-1.89,1.8a7.53,7.53,0,0,1-.61.53,18.42,18.42,0,0,0-9.9,5.54c-3.77,4-5.72,9.14-6.81,13.23a40.08,40.08,0,0,0-1.27,7.32h0a10.08,10.08,0,0,0-.11,1.33,8.17,8.17,0,0,0,1.59,4.89,11.87,11.87,0,0,0,5.81,4,20.47,20.47,0,0,0,6.63,1.1h21.07a16.76,16.76,0,0,0,4.52-.66,16.42,16.42,0,0,0,6.35-3.35,10.09,10.09,0,0,0,2.29-2.88,8,8,0,0,0,.94-3.75A8.38,8.38,0,0,0,313.47,323Z"/><path class="cls-30" d="M288.14,294.8a28,28,0,0,1,5.64,5.44,29.46,29.46,0,0,1,4.1,6.78,16.22,16.22,0,0,1,1.44,8.08,8.72,8.72,0,0,1-1.48,4,7.37,7.37,0,0,1-3.16,2.52,9,9,0,0,0,2.24-6.6,21.77,21.77,0,0,0-1.85-6.79c-.95-2.23-2.09-4.44-3.28-6.65S289.34,297.14,288.14,294.8Z"/><path class="cls-30" d="M288.14,294.8a20.83,20.83,0,0,1,2.2,6.44,23.93,23.93,0,0,1,.27,6.87,18.72,18.72,0,0,1-2,6.72,11.63,11.63,0,0,1-4.93,4.87,24.47,24.47,0,0,0,2.71-5.81,34.76,34.76,0,0,0,1.16-6.1c.25-2.08.32-4.21.38-6.36S288,297.09,288.14,294.8Z"/><path class="cls-30" d="M288.1,295.8a6.44,6.44,0,0,1,1,3.54,8,8,0,0,1-.85,3.63,7,7,0,0,1-2.57,2.84,5.47,5.47,0,0,1-3.64.83c.78-1,1.5-1.77,2-2.62a17.9,17.9,0,0,0,1.45-2.43c.42-.84.82-1.72,1.23-2.68S287.56,297,288.1,295.8Z"/><polygon class="cls-28" points="300.72 301.22 302.46 302.95 215.83 380.83 211.34 376.1 300.72 301.22"/><path class="cls-7" d="M162.85,319.35s-30.29-5.14-54.91,18.07"/><path class="cls-31" d="M220.15,346l5.11-6.9c3.81-6.13,9.12-7.57,13.58-5.55L250,339.46"/></svg>