<svg id="Layer_1" data-name="Layer 1" xmlns="http://www.w3.org/2000/svg" xmlns:xlink="http://www.w3.org/1999/xlink" viewBox="0 0 226.79 187.79"><defs><style>.cls-1{fill:#fff;}.cls-2{mask:url(#mask);}.cls-3{fill:#ffd400;}.cls-4{font-size:45.24px;fill:#ffc990;font-family:Somatic-Rounded, Somatic;}.cls-5{fill:none;stroke:#ffc990;stroke-miterlimit:10;stroke-width:2px;}</style><mask id="mask" x="-21.75" y="-11.32" width="241.1" height="216.11" maskUnits="userSpaceOnUse"><rect class="cls-1" x="-21.75" y="-11.32" width="241.1" height="199.33"/></mask></defs><title>hey</title><g class="cls-2"><path class="cls-3" d="M24.13,104.67h6.78c-.09-.21-.19-.4-.27-.61a17.53,17.53,0,0,1-1.16-6.39,21.13,21.13,0,0,1,.28-3.39,3.55,3.55,0,0,1,3.36-3,3.51,3.51,0,0,1,3.59,4.08,15.52,15.52,0,0,0-.19,2.34,9.89,9.89,0,0,0,2.69,7h.29a10.2,10.2,0,0,1,10.21,10.2v4.62c0,.41,0,.82,0,1.23.35,4.24,2.51,28.87,5.37,37.22a45.55,45.55,0,0,0,8.07,14.65A33.25,33.25,0,0,0,70,178.82a31.77,31.77,0,0,0,10.24,4.54,34.65,34.65,0,0,0,8.27,1c1.1,0,1.95,0,2.48-.1l.53-.06h0l1,6.49,2.31,13.65a41.06,41.06,0,0,1-6.38.44,54.67,54.67,0,0,1-16.15-2.45,52.17,52.17,0,0,1-15.1-7.53,54.55,54.55,0,0,1-10.88-10.53,72.39,72.39,0,0,1-12.26-25,127.3,127.3,0,0,1-4.47-29.95H24.13a10.21,10.21,0,0,1-10.21-10.2v-4.3A10.2,10.2,0,0,1,24.13,104.67Z"/><path class="cls-3" d="M199.86,201.53H86.59V125.69a56.64,56.64,0,0,1,113.27,0Z"/><path class="cls-1" d="M131.93,116.54a13,13,0,0,0-25.13,0,2.84,2.84,0,1,0,5.47,1.51,7.42,7.42,0,0,1,2.6-3.87,7.37,7.37,0,0,1,9,0,7.42,7.42,0,0,1,2.6,3.87,2.84,2.84,0,0,0,5.47-1.51Z"/><path class="cls-1" d="M167.92,116.54a13,13,0,0,0-25.14,0,2.84,2.84,0,0,0,5.48,1.51,7.35,7.35,0,0,1,14.18,0,2.84,2.84,0,0,0,5.48-1.51Z"/><path class="cls-1" d="M166.2,131.41a2.84,2.84,0,0,0-3.49,2h0a25.82,25.82,0,0,1-2.91,6.67.81.81,0,0,1-.73-.72c-1.34-12.06-13.71-9.68-16.2,1.37l0,.09c-1.69,4.63-2.92,10.76-7.77,11.68a26.14,26.14,0,0,1-22.81-19.09,2.84,2.84,0,1,0-5.47,1.5,31.84,31.84,0,0,0,61.39,0A2.84,2.84,0,0,0,166.2,131.41Z"/><text class="cls-4" transform="translate(26.82 73.75) rotate(-23.28)">hey!</text><path class="cls-5" d="M60.7,68h0a21,21,0,0,0,21,21h5.52"/></g></svg>