<svg xmlns="http://www.w3.org/2000/svg" xmlns:xlink="http://www.w3.org/1999/xlink" viewBox="0 0 1346.42 715.54"><defs><style>.cls-1{isolation:isolate;}.cls-2{opacity:0.86;fill:url(#linear-gradient);}.cls-3{fill:#efc375;}.cls-4{opacity:0.44;}.cls-102,.cls-17,.cls-21,.cls-23,.cls-27,.cls-30,.cls-4,.cls-44,.cls-62{mix-blend-mode:multiply;}.cls-5{fill:#efd8bb;}.cls-6{fill:#ff5b00;}.cls-100,.cls-101,.cls-24,.cls-26,.cls-40,.cls-51,.cls-57,.cls-61,.cls-66,.cls-67,.cls-68,.cls-69,.cls-7,.cls-72,.cls-73,.cls-77,.cls-78,.cls-79,.cls-80,.cls-83,.cls-84,.cls-85,.cls-87,.cls-89,.cls-9,.cls-90,.cls-97{fill:none;}.cls-7{stroke:#d34a05;}.cls-100,.cls-101,.cls-24,.cls-26,.cls-40,.cls-51,.cls-57,.cls-61,.cls-62,.cls-63,.cls-66,.cls-67,.cls-68,.cls-69,.cls-7,.cls-72,.cls-73,.cls-77,.cls-78,.cls-79,.cls-80,.cls-83,.cls-84,.cls-85,.cls-87,.cls-89,.cls-9,.cls-90{stroke-miterlimit:10;}.cls-7,.cls-9,.cls-90{stroke-width:0.5px;}.cls-8,.cls-91{fill:#5b3103;}.cls-9{stroke:#3d1f02;}.cls-10{fill:#ff9100;}.cls-103,.cls-11,.cls-14{fill:#fff;}.cls-11,.cls-12,.cls-15{opacity:0.53;}.cls-12,.cls-13,.cls-34{fill:#fe4c00;}.cls-13,.cls-16{opacity:0.21;}.cls-15{fill:#39b54a;}.cls-16{fill:#006837;}.cls-17,.cls-18{fill:#f2dac0;}.cls-17,.cls-30,.cls-62{opacity:0.6;}.cls-19{fill:#879196;}.cls-20{fill:#fffaf3;}.cls-21{fill:#f2f2f2;}.cls-22{opacity:0.51;}.cls-23,.cls-30,.cls-35{fill:#fcf3e0;}.cls-23{opacity:0.87;}.cls-24{stroke:#f9eacd;}.cls-101,.cls-24,.cls-40,.cls-66,.cls-67,.cls-72,.cls-84{stroke-linecap:round;}.cls-24,.cls-72,.cls-73{stroke-width:6px;}.cls-25{fill:#1a1a1a;}.cls-26{stroke:#1a1a1a;stroke-width:2px;}.cls-27{fill:#c7b299;opacity:0.69;}.cls-28,.cls-29,.cls-32{fill:#f7d89a;}.cls-28{opacity:0.34;}.cls-31{fill:#a8a8a8;}.cls-32{opacity:0.58;}.cls-33{opacity:0.26;}.cls-36{fill:#7a898c;}.cls-37{fill:#eae1d0;}.cls-38{fill:#95a2a5;}.cls-39{fill:url(#linear-gradient-2);}.cls-40,.cls-80{stroke:#2e4759;}.cls-41{fill:#ff408f;}.cls-42{fill:#00cfba;}.cls-43{fill:#ff8038;}.cls-44{opacity:0.4;}.cls-45{fill:#f2b446;}.cls-46,.cls-47{fill:#fcd590;}.cls-47{opacity:0.64;}.cls-48{opacity:0.48;}.cls-49{fill:#fc6;}.cls-50{fill:#eaac47;}.cls-51{stroke:#c48427;}.cls-52{fill:#d6912d;}.cls-53{fill:#c67f22;}.cls-54{fill:#f9deb2;}.cls-55{fill:#f9bd67;}.cls-56{fill:#fce2b9;}.cls-57{stroke:#d89432;}.cls-58{fill:#f2ba68;}.cls-59{fill:#e2b171;}.cls-60{fill:#ffe8c2;}.cls-61{stroke:#e5a535;stroke-width:8px;}.cls-102,.cls-62,.cls-82{fill:#c69c6d;}.cls-101,.cls-62,.cls-85{stroke:#c69c6d;}.cls-62,.cls-63,.cls-84{stroke-width:5px;}.cls-63{fill:#fdedc8;stroke:#f7b643;}.cls-64{fill:#ffe4bd;}.cls-65{fill:#ffedd2;}.cls-66{stroke:#5b3103;}.cls-66,.cls-67{stroke-width:4px;}.cls-67{stroke:#fcaa47;}.cls-68,.cls-73,.cls-78,.cls-79{stroke:#ff9100;}.cls-68{stroke-width:15px;}.cls-69{stroke:#ffd505;stroke-width:23px;}.cls-70{fill:#1f3440;}.cls-71{fill:#ffd505;}.cls-72{stroke:#ff7300;}.cls-74{fill:#7aad2a;}.cls-75{fill:#8cc63f;}.cls-76{fill:#e0d8b3;}.cls-77{stroke:#c66e05;}.cls-78{stroke-width:0.75px;}.cls-79{stroke-width:11px;}.cls-81{fill:#f15a24;}.cls-83{stroke:#a37445;}.cls-84{stroke:#4f3102;}.cls-101,.cls-85{stroke-width:12px;}.cls-86{fill:#332924;}.cls-87{stroke:#fff;stroke-width:20px;}.cls-88{fill:#277da1;}.cls-89{stroke:#277da1;stroke-width:16px;}.cls-90{stroke:#166175;}.cls-91{opacity:0.41;}.cls-92{fill:#893d0a;}.cls-93{fill:#995f30;}.cls-94{fill:#54280a;}.cls-95{fill:#2b1506;}.cls-96{fill:#a67c52;}.cls-98{fill:#301a05;}.cls-99{fill:#ffe7b6;}.cls-100{stroke:#fdedc8;stroke-width:0.25px;}.cls-102{opacity:0.42;}.cls-103{opacity:0.57;font-size:27.51px;font-family:Museo100-Regular, Museo;}</style><linearGradient id="linear-gradient" x1="673.21" y1="150.03" x2="673.21" y2="614.24" gradientUnits="userSpaceOnUse"><stop offset="0.2" stop-color="#fff" stop-opacity="0.4"/><stop offset="0.21" stop-color="#fffefb" stop-opacity="0.4"/><stop offset="0.63" stop-color="#ffe28f" stop-opacity="0.55"/><stop offset="0.85" stop-color="#ffd866" stop-opacity="0.6"/></linearGradient><linearGradient id="linear-gradient-2" x1="276.53" y1="316.83" x2="255.37" y2="467.37" gradientUnits="userSpaceOnUse"><stop offset="0.2" stop-color="#fff" stop-opacity="0"/><stop offset="0.51" stop-color="#fff" stop-opacity="0.2"/><stop offset="0.77" stop-color="#fff" stop-opacity="0.35"/><stop offset="0.9" stop-color="#fff" stop-opacity="0.4"/></linearGradient></defs><title>Mexico</title><g class="cls-1"><g id="background"><rect class="cls-2" y="150.03" width="1346.42" height="464.21"/></g><g id="Layer_1" data-name="Layer 1"><rect class="cls-3" x="17.66" y="322.03" width="358.99" height="174.51"/><g class="cls-4"><rect class="cls-5" x="164.59" y="326.04" width="1.7" height="170.5"/><rect class="cls-5" x="182.41" y="326.04" width="1.7" height="170.5"/><rect class="cls-5" x="200.94" y="326.04" width="1.7" height="170.5"/><rect class="cls-5" x="218.76" y="326.04" width="1.7" height="170.5"/><rect class="cls-5" x="236.58" y="326.04" width="1.7" height="170.5"/><rect class="cls-5" x="254.39" y="326.04" width="1.7" height="170.5"/><rect class="cls-5" x="272.93" y="326.04" width="1.7" height="170.5"/><rect class="cls-5" x="290.75" y="326.04" width="1.7" height="170.5"/><rect class="cls-5" x="21.67" y="326.04" width="1.7" height="170.5"/><rect class="cls-5" x="39.49" y="326.04" width="1.7" height="170.5"/><rect class="cls-5" x="58.02" y="326.04" width="1.7" height="170.5"/><rect class="cls-5" x="75.84" y="326.04" width="1.7" height="170.5"/><rect class="cls-5" x="93.66" y="326.04" width="1.7" height="170.5"/><rect class="cls-5" x="111.47" y="326.04" width="1.7" height="170.5"/><rect class="cls-5" x="130.01" y="326.04" width="1.7" height="170.5"/><rect class="cls-5" x="147.83" y="326.04" width="1.7" height="170.5"/><rect class="cls-5" x="309.72" y="326.04" width="1.7" height="170.5"/><rect class="cls-5" x="327.54" y="326.04" width="1.7" height="170.5"/><rect class="cls-5" x="346.07" y="326.04" width="1.7" height="170.5"/><rect class="cls-5" x="363.89" y="326.04" width="1.7" height="170.5"/></g><path class="cls-6" d="M194,377a6,6,0,0,1-1.89-4.1l-.55-13.36A.61.61,0,0,0,192,359V357.6a.6.6,0,0,0-.54-.59h-5.43a.6.6,0,0,0-.54.59V359a.61.61,0,0,0,.43.57l-.54,13.36a6,6,0,0,1-1.89,4.1,5.9,5.9,0,0,0-1.89,4.33V407.3a2.93,2.93,0,0,0,2.94,2.93H193a2.94,2.94,0,0,0,2.94-2.93V381.35A5.93,5.93,0,0,0,194,377Z"/><line class="cls-7" x1="185.96" y1="359.63" x2="189.53" y2="359.63"/><path class="cls-6" d="M269.57,377a5.94,5.94,0,0,1-1.88-4.1l-.55-13.36a.6.6,0,0,0,.43-.57V357.6A.6.6,0,0,0,267,357H261.6a.6.6,0,0,0-.54.59V359a.61.61,0,0,0,.44.57L261,372.92a5.91,5.91,0,0,1-1.89,4.1,5.93,5.93,0,0,0-1.89,4.33V407.3a2.94,2.94,0,0,0,2.94,2.93h8.42a2.93,2.93,0,0,0,2.93-2.93V381.35A5.9,5.9,0,0,0,269.57,377Z"/><line class="cls-7" x1="261.49" y1="359.63" x2="265.06" y2="359.63"/><path class="cls-8" d="M212.54,377a6,6,0,0,1-1.89-4.1l-.54-13.36a.61.61,0,0,0,.43-.57V357.6A.6.6,0,0,0,210,357h-5.43a.6.6,0,0,0-.54.59V359a.61.61,0,0,0,.43.57l-.54,13.36A6,6,0,0,1,202,377a5.9,5.9,0,0,0-1.89,4.33V407.3a2.93,2.93,0,0,0,2.94,2.93h8.41a2.93,2.93,0,0,0,2.94-2.93V381.35A5.93,5.93,0,0,0,212.54,377Z"/><line class="cls-9" x1="204.46" y1="359.63" x2="208.03" y2="359.63"/><rect class="cls-10" x="205.41" y="381.35" width="9.02" height="22.6"/><path class="cls-8" d="M231.53,377a5.94,5.94,0,0,1-1.88-4.1l-.55-13.36a.6.6,0,0,0,.43-.57V357.6A.59.59,0,0,0,229,357h-5.44a.59.59,0,0,0-.53.59V359a.6.6,0,0,0,.43.57l-.55,13.36A5.94,5.94,0,0,1,221,377a5.9,5.9,0,0,0-1.89,4.33V407.3a2.93,2.93,0,0,0,2.93,2.93h8.42a2.94,2.94,0,0,0,2.94-2.93V381.35A5.91,5.91,0,0,0,231.53,377Z"/><line class="cls-9" x1="223.46" y1="359.63" x2="227.02" y2="359.63"/><rect class="cls-10" x="221.77" y="381.35" width="11.65" height="22.6"/><path class="cls-8" d="M250.76,377a5.94,5.94,0,0,1-1.88-4.1l-.55-13.36a.6.6,0,0,0,.43-.57V357.6a.6.6,0,0,0-.54-.59h-5.43a.6.6,0,0,0-.54.59V359a.61.61,0,0,0,.44.57l-.55,13.36a5.91,5.91,0,0,1-1.89,4.1,5.93,5.93,0,0,0-1.89,4.33V407.3a2.94,2.94,0,0,0,2.94,2.93h8.42a2.93,2.93,0,0,0,2.93-2.93V381.35A5.9,5.9,0,0,0,250.76,377Z"/><line class="cls-9" x1="242.68" y1="359.63" x2="246.25" y2="359.63"/><rect class="cls-10" x="248.3" y="381.35" width="4.36" height="22.6"/><path class="cls-11" d="M342.94,375h17.35a3.4,3.4,0,0,1,3.4,3.4V404.5a5.74,5.74,0,0,1-5.74,5.74H345.28a5.74,5.74,0,0,1-5.74-5.74V378.43A3.4,3.4,0,0,1,342.94,375Z"/><path class="cls-12" d="M344.25,386.79H359a3.4,3.4,0,0,1,3.4,3.4v12.39a5.74,5.74,0,0,1-5.74,5.74H346.59a5.74,5.74,0,0,1-5.74-5.74V390.19A3.4,3.4,0,0,1,344.25,386.79Z"/><path class="cls-13" d="M343.94,386.79H359.3a3.09,3.09,0,0,1,3.09,3.09v0a2.92,2.92,0,0,1-2.92,2.92h-15.7a2.92,2.92,0,0,1-2.92-2.92v0A3.09,3.09,0,0,1,343.94,386.79Z"/><rect class="cls-14" x="340.16" y="370.69" width="22.92" height="4.34" rx="1.33"/><path class="cls-11" d="M314.21,375h17.35a3.4,3.4,0,0,1,3.4,3.4V404.5a5.74,5.74,0,0,1-5.74,5.74H316.54a5.74,5.74,0,0,1-5.74-5.74V378.43A3.4,3.4,0,0,1,314.21,375Z"/><path class="cls-15" d="M315.52,386.79h14.73a3.4,3.4,0,0,1,3.4,3.4v12.39a5.74,5.74,0,0,1-5.74,5.74H317.85a5.74,5.74,0,0,1-5.74-5.74V390.19A3.4,3.4,0,0,1,315.52,386.79Z"/><path class="cls-16" d="M315.2,386.79h15.37a3.09,3.09,0,0,1,3.09,3.09v0a2.92,2.92,0,0,1-2.92,2.92H315a2.92,2.92,0,0,1-2.92-2.92v0a3.09,3.09,0,0,1,3.09-3.09Z"/><rect class="cls-14" x="311.42" y="370.69" width="22.92" height="4.34" rx="1.33"/><rect class="cls-17" x="174.44" y="410.68" width="195.69" height="4.82"/><rect class="cls-18" x="174.44" y="410.23" width="195.69" height="2.55"/><rect class="cls-18" x="172.57" y="389.66" width="199.01" height="2.55"/><rect class="cls-18" x="174.4" y="389.66" width="1.69" height="22.32"/><rect class="cls-18" x="301.65" y="389.66" width="1.69" height="22.32"/><rect class="cls-18" x="240.8" y="389.66" width="1.69" height="22.32"/><rect class="cls-18" x="368.44" y="389.66" width="1.69" height="22.32"/><rect class="cls-19" x="14.61" y="603.87" width="54.1" height="20.73" transform="translate(83.32 1228.47) rotate(180)"/><rect class="cls-20" x="14.61" y="496.54" width="54.1" height="107.34" transform="translate(83.32 1100.41) rotate(180)"/><rect class="cls-21" x="14.61" y="496.54" width="54.1" height="128.07" transform="translate(83.32 1121.14) rotate(180)"/><rect class="cls-19" x="68.71" y="603.87" width="342.45" height="20.73"/><rect class="cls-20" x="68.71" y="496.54" width="342.45" height="107.34"/><rect class="cls-5" x="80.63" y="496.54" width="1.57" height="107.34"/><rect class="cls-5" x="97.09" y="496.54" width="1.57" height="107.34"/><rect class="cls-5" x="114.2" y="496.54" width="1.57" height="107.34"/><rect class="cls-5" x="130.65" y="496.54" width="1.57" height="107.34"/><g class="cls-22"><rect class="cls-5" x="18.44" y="496.54" width="1.57" height="107.34"/><rect class="cls-5" x="34.89" y="496.54" width="1.57" height="107.34"/><rect class="cls-5" x="52" y="496.54" width="1.57" height="107.34"/><rect class="cls-5" x="68.45" y="496.54" width="1.57" height="107.34"/></g><rect class="cls-5" x="146.56" y="496.54" width="1.57" height="107.34"/><rect class="cls-5" x="163.01" y="496.54" width="1.57" height="107.34"/><rect class="cls-5" x="180.12" y="496.54" width="1.57" height="107.34"/><rect class="cls-5" x="196.57" y="496.54" width="1.57" height="107.34"/><rect class="cls-5" x="214.35" y="496.54" width="1.57" height="107.34"/><rect class="cls-5" x="230.8" y="496.54" width="1.57" height="107.34"/><rect class="cls-5" x="247.91" y="496.54" width="1.57" height="107.34"/><rect class="cls-5" x="264.36" y="496.54" width="1.57" height="107.34"/><rect class="cls-5" x="280.82" y="496.54" width="1.57" height="107.34"/><rect class="cls-5" x="297.27" y="496.54" width="1.57" height="107.34"/><rect class="cls-5" x="314.38" y="496.54" width="1.57" height="107.34"/><rect class="cls-5" x="330.83" y="496.54" width="1.57" height="107.34"/><rect class="cls-5" x="348.35" y="496.54" width="1.57" height="107.34"/><rect class="cls-5" x="364.8" y="496.54" width="1.57" height="107.34"/><rect class="cls-5" x="381.92" y="496.54" width="1.57" height="107.34"/><rect class="cls-5" x="398.37" y="496.54" width="1.57" height="107.34"/><path class="cls-23" d="M303.31,193.4a23.58,23.58,0,0,0-12.39,3.52,33.09,33.09,0,0,0-30.47-20.18c-1.07,0-2.11.06-3.15.16a40.71,40.71,0,0,0-75.48,9.51,25.1,25.1,0,0,0-3.37-.26A24.58,24.58,0,0,0,154,214.69H326.93A23.75,23.75,0,0,0,303.31,193.4Z"/><path class="cls-23" d="M549.57,155a13.8,13.8,0,0,0-7.28,2.07,19.46,19.46,0,0,0-17.92-11.87c-.62,0-1.24,0-1.85.1a23.93,23.93,0,0,0-44.37,5.59,14.46,14.46,0,0,0-16.54,14.41,14.64,14.64,0,0,0,.19,2.21H563.45A14,14,0,0,0,549.57,155Z"/><line class="cls-24" x1="755.98" y1="665.51" x2="772.5" y2="665.51"/><line class="cls-24" x1="778.5" y1="676.02" x2="795.02" y2="676.02"/><line class="cls-24" x1="786.76" y1="664.71" x2="803.28" y2="664.71"/><line class="cls-24" x1="822.05" y1="684.28" x2="838.57" y2="684.28"/><line class="cls-24" x1="764.24" y1="595.12" x2="780.76" y2="595.12"/><line class="cls-24" x1="687.09" y1="632.28" x2="703.61" y2="632.28"/><line class="cls-24" x1="764.24" y1="630.31" x2="780.76" y2="630.31"/><line class="cls-24" x1="830.31" y1="638.29" x2="846.83" y2="638.29"/><line class="cls-24" x1="884.89" y1="701.17" x2="901.41" y2="701.17"/><line class="cls-24" x1="896.9" y1="689.16" x2="913.42" y2="689.16"/><path class="cls-8" d="M115.53,521.7h47.56a3,3,0,0,1,3,3v.13a.61.61,0,0,1-.61.61H113.81a1,1,0,0,1-1-1v-.13A2.68,2.68,0,0,1,115.53,521.7Z"/><rect class="cls-25" x="114.55" y="525.45" width="50.05" height="5.32"/><path class="cls-26" d="M116.66,528.11l-14.08,94.45a.74.74,0,0,1-.71.67H97.56a1.09,1.09,0,0,0-1,1.15h0a1.1,1.1,0,0,0,1,1.15h3.92a2.17,2.17,0,0,0,2-1.85l18.64-95.57"/><path class="cls-26" d="M161,528.11l14.07,94.45a.76.76,0,0,0,.72.67h4.31a1.1,1.1,0,0,1,1,1.15h0a1.1,1.1,0,0,1-1,1.15h-3.92a2.17,2.17,0,0,1-2-1.85l-18.64-95.57"/><path class="cls-26" d="M135.17,528.11l3.11,93.83c0,.36-.13.66-.32.66h-.45c-.42,0-.76.64-.77,1.44h0c0,.82.34,1.49.77,1.49h4.21c.42,0,.76-.64.76-1.43h0c0-.79-.34-1.42-.76-1.42h-.82c-.19,0-.34-.29-.33-.65L142,528.11"/><path class="cls-26" d="M108.48,583s5.58,10.2,31.09,10.2S169,581.9,169,581.9"/><path class="cls-8" d="M290.22,521.7h47.56a3,3,0,0,1,3,3v.13a.61.61,0,0,1-.61.61H288.5a1,1,0,0,1-1-1v-.13a2.68,2.68,0,0,1,2.68-2.68Z"/><rect class="cls-25" x="289.24" y="525.45" width="50.05" height="5.32"/><path class="cls-26" d="M291.35,528.11l-14.08,94.45a.76.76,0,0,1-.71.67h-4.31a1.09,1.09,0,0,0-1,1.15h0a1.1,1.1,0,0,0,1,1.15h3.92a2.17,2.17,0,0,0,2.05-1.85l18.64-95.57"/><path class="cls-26" d="M335.67,528.11l14.08,94.45a.76.76,0,0,0,.71.67h4.31a1.09,1.09,0,0,1,1,1.15h0a1.1,1.1,0,0,1-1,1.15h-3.91a2.17,2.17,0,0,1-2.05-1.85l-18.65-95.57"/><path class="cls-26" d="M309.86,528.11,313,621.94c0,.36-.14.66-.33.66h-.44c-.42,0-.77.64-.77,1.44h0c0,.82.34,1.49.77,1.49h4.21c.42,0,.75-.64.75-1.43h0c0-.79-.33-1.42-.75-1.42h-.83c-.18,0-.33-.29-.32-.65l1.44-93.92"/><path class="cls-26" d="M283.17,583s5.58,10.2,31.09,10.2,29.43-11.3,29.43-11.3"/><path class="cls-8" d="M473.12,521.7h47.56a3,3,0,0,1,3,3v.13a.61.61,0,0,1-.61.61H471.4a1,1,0,0,1-1-1v-.13A2.68,2.68,0,0,1,473.12,521.7Z"/><rect class="cls-25" x="472.14" y="525.45" width="50.05" height="5.32"/><path class="cls-26" d="M474.25,528.11l-14.08,94.45a.74.74,0,0,1-.71.67h-4.31a1.09,1.09,0,0,0-1,1.15h0a1.1,1.1,0,0,0,1,1.15h3.92a2.17,2.17,0,0,0,2.05-1.85l18.64-95.57"/><path class="cls-26" d="M518.58,528.11l14.07,94.45a.76.76,0,0,0,.72.67h4.31a1.09,1.09,0,0,1,1,1.15h0a1.1,1.1,0,0,1-1,1.15h-3.92a2.17,2.17,0,0,1-2-1.85l-18.64-95.57"/><path class="cls-26" d="M492.76,528.11l3.11,93.83c0,.36-.13.66-.32.66h-.45c-.42,0-.76.64-.77,1.44h0c0,.82.34,1.49.77,1.49h4.21c.42,0,.76-.64.76-1.43h0c0-.79-.34-1.42-.76-1.42h-.82c-.19,0-.34-.29-.33-.65l1.44-93.92"/><path class="cls-26" d="M466.07,583s5.58,10.2,31.09,10.2,29.43-11.3,29.43-11.3"/><rect class="cls-27" x="17.66" y="322.03" width="358.99" height="18.88"/><line class="cls-24" x1="1007.27" y1="686.91" x2="1023.79" y2="686.91"/><line class="cls-24" x1="1023.79" y1="699.67" x2="1040.31" y2="699.67"/><line class="cls-24" x1="1041.58" y1="686.91" x2="1058.09" y2="686.91"/><rect class="cls-28" x="65.49" y="496.54" width="345.67" height="13.04"/><rect class="cls-29" x="10.34" y="496.54" width="416.08" height="4.56"/><line class="cls-24" x1="1135.21" y1="668.51" x2="1151.73" y2="668.51"/><line class="cls-24" x1="645.23" y1="659.88" x2="661.75" y2="659.88"/><line class="cls-24" x1="624.4" y1="640.73" x2="640.92" y2="640.73"/><line class="cls-24" x1="465.48" y1="640.73" x2="482" y2="640.73"/><line class="cls-24" x1="486.57" y1="655.93" x2="503.09" y2="655.93"/><line class="cls-24" x1="560.79" y1="684.28" x2="577.31" y2="684.28"/><line class="cls-24" x1="347.09" y1="676.02" x2="363.61" y2="676.02"/><line class="cls-24" x1="214.35" y1="654.24" x2="230.87" y2="654.24"/><line class="cls-24" x1="228.15" y1="664.71" x2="244.67" y2="664.71"/><line class="cls-24" x1="147.83" y1="664.71" x2="164.34" y2="664.71"/><line class="cls-24" x1="170.61" y1="689.16" x2="187.12" y2="689.16"/><line class="cls-24" x1="63.67" y1="668.51" x2="80.19" y2="668.51"/><line class="cls-24" x1="1214.86" y1="686.91" x2="1231.38" y2="686.91"/><line class="cls-24" x1="1026.05" y1="650.57" x2="1042.57" y2="650.57"/><line class="cls-24" x1="297.32" y1="697.7" x2="313.84" y2="697.7"/><line class="cls-24" x1="297.32" y1="646.35" x2="313.84" y2="646.35"/><line class="cls-24" x1="199.64" y1="664.71" x2="216.16" y2="664.71"/><line class="cls-24" x1="440.45" y1="655.93" x2="456.96" y2="655.93"/><line class="cls-24" x1="462.19" y1="689.16" x2="478.71" y2="689.16"/><line class="cls-24" x1="950.18" y1="668.51" x2="966.7" y2="668.51"/><line class="cls-24" x1="700.18" y1="689.16" x2="716.7" y2="689.16"/><rect class="cls-20" x="78.37" y="322.03" width="6.1" height="174.51"/><rect class="cls-20" x="23.29" y="322.03" width="6.1" height="174.51"/><rect class="cls-20" x="396.88" y="322.03" width="6.1" height="174.51"/><rect class="cls-18" x="23.29" y="322.03" width="6.1" height="18.88"/><rect class="cls-18" x="78.37" y="322.03" width="6.1" height="18.88"/><rect class="cls-18" x="396.88" y="322.03" width="6.1" height="18.88"/><path class="cls-30" d="M807.74,295.3a18.29,18.29,0,0,1,9.61,2.73A25.71,25.71,0,0,1,841,282.37c.83,0,1.64.05,2.44.12a31.61,31.61,0,0,1,58.6,7.39,18.87,18.87,0,0,1,2.61-.2,19.23,19.23,0,0,1,19.23,19.22,18.88,18.88,0,0,1-.25,2.93H789.4A18.45,18.45,0,0,1,807.74,295.3Z"/><path class="cls-30" d="M1149.36,236.1a13.82,13.82,0,0,1,7.23,2.05,19.31,19.31,0,0,1,17.78-11.77c.62,0,1.23,0,1.84.09a23.75,23.75,0,0,1,44,5.55,15.71,15.71,0,0,1,2-.15,14.38,14.38,0,0,1,14.27,16.65h-100.9A13.86,13.86,0,0,1,1149.36,236.1Z"/><rect class="cls-31" x="191.6" y="470.62" width="197.19" height="25.91"/><rect class="cls-3" x="228.47" y="501.1" width="5.59" height="29.67"/><polygon class="cls-32" points="85.39 530.77 79.8 530.77 72.83 501.1 78.42 501.1 85.39 530.77"/><polygon class="cls-3" points="85.39 530.77 79.8 530.77 64.23 501.1 69.82 501.1 85.39 530.77"/><polygon class="cls-32" points="396.19 530.77 401.78 530.77 408.75 501.1 403.16 501.1 396.19 530.77"/><polygon class="cls-3" points="396.19 530.77 401.78 530.77 417.35 501.1 411.76 501.1 396.19 530.77"/><rect class="cls-29" x="8.25" y="322.03" width="418.18" height="3.92"/><g class="cls-33"><polygon class="cls-14" points="251.09 496.54 245.01 496.54 266 470.62 272.07 470.62 251.09 496.54"/><polygon class="cls-14" points="242.71 496.54 239.67 496.54 260.66 470.62 263.69 470.62 242.71 496.54"/></g><path class="cls-34" d="M160.06,492.66h54.28a0,0,0,0,1,0,0v0a3.87,3.87,0,0,1-3.87,3.87H163.94a3.87,3.87,0,0,1-3.87-3.87v0a0,0,0,0,1,0,0Z"/><path class="cls-34" d="M255.47,492.66h54.28a0,0,0,0,1,0,0v0a3.87,3.87,0,0,1-3.87,3.87H259.34a3.87,3.87,0,0,1-3.87-3.87v0A0,0,0,0,1,255.47,492.66Z"/><rect class="cls-35" x="85.37" y="294.56" width="341.05" height="27.47"/><polygon class="cls-36" points="17.66 273.25 85.37 288.81 85.37 294.56 17.66 316.28 17.66 273.25"/><polygon class="cls-37" points="17.66 278.99 85.37 294.56 85.37 322.03 17.66 322.03 17.66 278.99"/><polygon class="cls-38" points="17.66 273.25 327.97 273.25 426.42 288.79 85.37 288.79 17.66 273.25"/><path class="cls-39" d="M278.49,470.62c-25.32-11.61-30.72-21.35-30.91-28.13-.3-10.52,12-13.51,18.21-30.14,1.92-5.11,8.92-23.72-3.31-35-12-11-31.15-4.7-47.47-14.87-13.75-8.58-16.56-23.32-16-36.57h142.4c-11.09,7.54-23.28,18.47-22.08,30.94,1.56,16.27,24.54,20.81,23.18,32.95-1.93,17.31-49.77,18.82-61.26,41.4-6.86,13.46,2.74,28.84,11.52,39.38Z"/><path class="cls-40" d="M250.38,306.83S275.29,354,403.5,345.72"/><path class="cls-41" d="M253.92,344.05a5.95,5.95,0,0,0,10.51,5.55l0,0a5.94,5.94,0,0,0,10.65,5.2h0A5.94,5.94,0,0,0,285.8,360h0l11.69-24-1-.49a.37.37,0,0,1-.21.18.36.36,0,0,1-.27,0,.32.32,0,0,1-.18-.2.39.39,0,0,1,0-.28l-28.63-14a.37.37,0,0,1-.21.18.37.37,0,0,1-.27,0,.35.35,0,0,1-.18-.2.34.34,0,0,1,0-.28l-1.1-.53-11.31,23.16ZM270.85,325a.35.35,0,0,1-.48.16.36.36,0,0,1-.17-.48.35.35,0,0,1,.48-.16A.36.36,0,0,1,270.85,325Zm-.73,1.71a.36.36,0,0,1-.68-.22h0a.36.36,0,1,1,.68.22Zm-.81,2.11a.36.36,0,0,1-.31-.41.37.37,0,0,1,.4-.31.36.36,0,0,1-.09.72Zm12.4,2.22a1.16,1.16,0,0,1-1.55.53,1.16,1.16,0,1,1,1-2.08A1.16,1.16,0,0,1,281.71,331Zm-6.11,8a.36.36,0,1,1-.48.16A.36.36,0,0,1,275.6,339Zm9.18,1.49h0a.35.35,0,0,1-.46-.2.37.37,0,0,1,.2-.47h0a.37.37,0,0,1,.47.21A.36.36,0,0,1,284.78,340.49Zm4.65-4a.36.36,0,0,1,.06.51.36.36,0,0,1-.5.06.35.35,0,0,1-.06-.5h0A.35.35,0,0,1,289.43,336.51Zm6.23.77A.36.36,0,1,1,295,337a.36.36,0,1,1,.64.32Zm-.82,1.69a.36.36,0,0,1-.65-.32.36.36,0,0,1,.65.32Zm-.83,1.69a.35.35,0,0,1-.48.16.36.36,0,0,1-.16-.48.36.36,0,1,1,.64.32Zm-.82,1.69a.35.35,0,0,1-.48.16.36.36,0,0,1-.17-.48.36.36,0,0,1,.65.32Zm-.83,1.69a.35.35,0,0,1-.48.16.36.36,0,0,1-.16-.48.36.36,0,0,1,.64.32Zm-.82,1.69a.35.35,0,0,1-.48.16.36.36,0,1,1,.31-.64A.35.35,0,0,1,291.54,345.73Zm-.83,1.69a.34.34,0,0,1-.47.16.35.35,0,0,1-.17-.48.36.36,0,0,1,.48-.16A.35.35,0,0,1,290.71,347.42Zm-.82,1.69a.36.36,0,1,1-.17-.48A.36.36,0,0,1,289.89,349.11Zm-.83,1.69a.34.34,0,0,1-.47.16.35.35,0,0,1-.17-.48.36.36,0,0,1,.48-.16A.35.35,0,0,1,289.06,350.8Zm-.82,1.69a.36.36,0,0,1-.64-.32.36.36,0,0,1,.64.32Zm-.82,1.69a.36.36,0,0,1-.65-.32.36.36,0,0,1,.48-.16A.37.37,0,0,1,287.42,354.18Zm-.83,1.69a.36.36,0,0,1-.64-.32.36.36,0,0,1,.64.32Zm-.82,1.69a.36.36,0,0,1-.65-.32.36.36,0,0,1,.48-.16A.37.37,0,0,1,285.77,357.56Zm-1.34,1.84a.36.36,0,0,1-.13-.49.35.35,0,0,1,.49-.13.36.36,0,0,1-.36.62Zm-1.31.73h0a.36.36,0,1,1,.39.6.36.36,0,0,1-.5-.11A.36.36,0,0,1,283.12,360.13Zm-1.6.57h0a.36.36,0,0,1,.4.31.37.37,0,0,1-.32.4h0a.37.37,0,0,1-.4-.32A.36.36,0,0,1,281.52,360.7Zm-2.16,0a.37.37,0,0,1,.46-.22.34.34,0,0,1,.22.45.35.35,0,0,1-.45.23A.37.37,0,0,1,279.36,360.74Zm.75-3.77a1,1,0,1,1,.44,1.29A1,1,0,0,1,280.11,357Zm11.29-23.34a.36.36,0,1,1-.64-.32.36.36,0,0,1,.48-.16A.35.35,0,0,1,291.4,333.63Zm-.84,1.72a.36.36,0,0,1-.49.16.37.37,0,0,1-.15-.49.36.36,0,0,1,.48-.15.36.36,0,0,1,.16.48Zm-12.72,24.31a.36.36,0,1,1,0,.51A.35.35,0,0,1,277.84,359.66Zm9.83-21.74h0a.36.36,0,0,1,.5,0,.35.35,0,0,1,0,.51h0a.35.35,0,0,1-.5,0A.36.36,0,0,1,287.67,337.92Zm-1.12,1.71a.36.36,0,0,1-.37-.61h0a.37.37,0,0,1,.5.12A.36.36,0,0,1,286.55,339.63ZM276.92,358a.36.36,0,0,1,.47.2.35.35,0,0,1-.21.46.34.34,0,0,1-.46-.2A.36.36,0,0,1,276.92,358Zm-.11-1.87a.36.36,0,0,1,.33.39.35.35,0,0,1-.39.32.36.36,0,0,1-.33-.38A.37.37,0,0,1,276.81,356.16Zm.23-1.58a.34.34,0,0,1,.2-.19.39.39,0,0,1,.28,0,.37.37,0,0,1,.18.21.36.36,0,0,1,0,.27.37.37,0,0,1-.21.18.36.36,0,0,1-.27,0,.41.41,0,0,1-.18-.21A.32.32,0,0,1,277,354.58Zm5.71-14.26h0a.36.36,0,1,1,.12.7h0a.36.36,0,0,1-.12-.7Zm-.43-8.67s4,.78,4.56,1a1.07,1.07,0,1,1-.94,1.92C285.41,334.35,282.32,331.65,282.32,331.65Zm.69,6.19a1.08,1.08,0,0,1-1.33-.73c-.16-.57-.24-4.67-.24-4.67s2.13,3.5,2.3,4.07A1.08,1.08,0,0,1,283,337.84Zm-2.46,3a.36.36,0,0,1,.36-.36h0a.36.36,0,0,1,0,.72h0A.37.37,0,0,1,280.55,340.84Zm-6.35,12.58a.36.36,0,1,1,.48-.16A.36.36,0,0,1,274.2,353.42Zm-1.07,1.1a.35.35,0,0,1,.5,0,.36.36,0,1,1-.46.55A.35.35,0,0,1,273.13,354.52Zm-1.38,1.06a.35.35,0,0,1,.47.17.36.36,0,0,1-.16.48h0a.36.36,0,1,1-.31-.65Zm7.33-15.28a.36.36,0,1,1-.42.29A.35.35,0,0,1,279.08,340.3Zm-9,15.69h0a.36.36,0,0,1,0,.72h0a.36.36,0,0,1,0-.72Zm6.79-16a.35.35,0,0,1,.46-.21h0a.36.36,0,1,1-.26.67A.36.36,0,0,1,276.84,340Zm.47-2.76a1.07,1.07,0,0,1-.49-1.43c.26-.54,3-3.62,3-3.62s-.78,4-1,4.56A1.07,1.07,0,0,1,277.31,337.24Zm-9.45,18.62a.36.36,0,0,1,.47-.19h0a.36.36,0,1,1-.28.66h0A.36.36,0,0,1,267.86,355.86Zm1.14-4.31a1,1,0,0,1,1.29-.44,1,1,0,1,1-1.29.44Zm-2.61,3.11a.35.35,0,0,1,.5,0h0a.36.36,0,1,1-.52.49h0A.34.34,0,0,1,266.39,354.66Zm7.09-16.48a.36.36,0,0,1,.5-.1h0a.36.36,0,0,1-.41.59A.35.35,0,0,1,273.48,338.18ZM265.54,353a.36.36,0,0,1,.45.22h0a.36.36,0,1,1-.67.24h0A.35.35,0,0,1,265.54,353Zm-.08-1.9a.35.35,0,0,1,.32.39h0a.35.35,0,0,1-.39.32.35.35,0,0,1-.32-.39h0A.36.36,0,0,1,265.46,351.05Zm7.11-13.64a.36.36,0,1,1,0-.51h0A.36.36,0,0,1,272.57,337.41Zm-6.91,12a.36.36,0,0,1,.65.32.35.35,0,0,1-.48.16A.36.36,0,0,1,265.66,349.43ZM273,332.94a1.07,1.07,0,0,1,.6-1.39c.55-.22,4.62-.69,4.62-.69s-3.28,2.46-3.83,2.68A1.07,1.07,0,0,1,273,332.94Zm-2.09,2.45a.36.36,0,1,1-.09.5A.36.36,0,0,1,270.89,335.39Zm2.83-6.74a1.07,1.07,0,0,1-.49-1.43,1.08,1.08,0,0,1,1.43-.5c.53.26,3.62,3,3.62,3S274.25,328.91,273.72,328.65Zm-3.41,5.69a.36.36,0,0,1-.47-.18h0a.36.36,0,0,1,.65-.29h0A.36.36,0,0,1,270.31,334.34Zm-6.95,13.84a.35.35,0,0,1-.44-.49.34.34,0,0,1,.21-.18.32.32,0,0,1,.27,0,.34.34,0,0,1,.18.21.36.36,0,0,1,0,.27A.37.37,0,0,1,263.36,348.18Zm-1.41.95a.36.36,0,0,1,.49.53h0a.36.36,0,0,1-.51,0A.35.35,0,0,1,262,349.13Zm7.69-16.57a.36.36,0,0,1-.43-.27.36.36,0,1,1,.69-.17A.36.36,0,0,1,269.64,332.56ZM260.47,350a.35.35,0,0,1,.44.24.36.36,0,0,1-.24.45h0a.35.35,0,0,1-.44-.24A.36.36,0,0,1,260.47,350Zm8.45-19.63a.36.36,0,1,1,.72,0h0a.36.36,0,0,1-.34.38A.37.37,0,0,1,268.92,330.34Zm-10.16,19.75a.35.35,0,0,1,.3.41.35.35,0,0,1-.41.29.34.34,0,0,1-.29-.4A.35.35,0,0,1,258.76,350.09Zm-2.09-.52a.36.36,0,1,1,.6.39.36.36,0,0,1-.5.1h0A.36.36,0,0,1,256.67,349.57Zm1.57-3.27a1,1,0,0,1,1.72.84,1,1,0,1,1-1.72-.84Zm-2.75,1.81a.36.36,0,0,1,.49.12h0a.36.36,0,0,1-.12.5.36.36,0,0,1-.49-.12h0A.37.37,0,0,1,255.49,348.11Zm-.44-1.82a.36.36,0,1,1,.07.72.36.36,0,0,1-.39-.32A.37.37,0,0,1,255.05,346.29Zm0-1.62a.36.36,0,1,1,.66.27h0a.36.36,0,0,1-.46.2A.35.35,0,0,1,255,344.67Zm.82-1.71a.36.36,0,0,1,.48-.17.37.37,0,0,1,.17.48.36.36,0,0,1-.65-.31Zm.83-1.69a.35.35,0,0,1,.48-.17.36.36,0,0,1,.16.48.35.35,0,0,1-.48.16A.34.34,0,0,1,256.67,341.27Zm.82-1.7a.36.36,0,0,1,.48-.16.37.37,0,0,1,.17.48.35.35,0,0,1-.48.16A.36.36,0,0,1,257.49,339.57Zm.83-1.69a.36.36,0,1,1,.64.32.36.36,0,1,1-.64-.32Zm.82-1.69a.36.36,0,0,1,.48-.16.37.37,0,0,1,.17.48.36.36,0,0,1-.48.16A.36.36,0,0,1,259.14,336.19Zm.83-1.69a.36.36,0,0,1,.64.32.36.36,0,1,1-.64-.32Zm.82-1.69a.36.36,0,0,1,.48-.16.37.37,0,0,1,.17.48.36.36,0,0,1-.65-.32Zm.83-1.69a.36.36,0,0,1,.64.32.36.36,0,1,1-.64-.32Zm.82-1.69a.36.36,0,0,1,.48-.16.37.37,0,0,1,.17.48.36.36,0,0,1-.65-.32Zm.83-1.69a.36.36,0,0,1,.64.32.36.36,0,1,1-.64-.32Zm.82-1.69a.36.36,0,0,1,.48-.16.37.37,0,0,1,.17.48.36.36,0,0,1-.65-.32Zm.83-1.69a.36.36,0,0,1,.64.32.36.36,0,0,1-.64-.32Zm.82-1.69a.36.36,0,0,1,.48-.16.37.37,0,0,1,.17.48.36.36,0,0,1-.65-.32Z"/><path class="cls-42" d="M302.59,365a5.94,5.94,0,0,0,11.67,2.21h0A5.94,5.94,0,0,0,326,369.09h0a5.94,5.94,0,0,0,11.72,1.83h0l4.12-26.34-1.11-.17a.36.36,0,0,1-.15.23.35.35,0,0,1-.26.07.38.38,0,0,1-.24-.15.34.34,0,0,1-.06-.26l-31.48-4.93a.39.39,0,0,1-.14.23.38.38,0,0,1-.27.07.45.45,0,0,1-.24-.14.37.37,0,0,1-.06-.27l-1.21-.19-4,25.47A3.86,3.86,0,0,0,302.59,365Zm10.55-23.24a.37.37,0,0,1-.41.3.36.36,0,0,1-.3-.41.35.35,0,0,1,.41-.3A.36.36,0,0,1,313.14,341.8Zm-.19,1.85a.37.37,0,0,1-.37.35.36.36,0,0,1-.35-.36h0a.36.36,0,0,1,.36-.36.37.37,0,0,1,.36.37Zm-.16,2.25a.36.36,0,0,1-.41-.29.36.36,0,1,1,.71-.12A.36.36,0,0,1,312.79,345.9Zm12.51-1.53a1.16,1.16,0,1,1-1-1.32A1.16,1.16,0,0,1,325.3,344.37Zm-3.49,9.46a.35.35,0,0,1,.3.41.36.36,0,0,1-.41.3.37.37,0,0,1-.3-.41A.36.36,0,0,1,321.81,353.83Zm9.22-1.27h0a.35.35,0,0,1-.5-.07.34.34,0,0,1,.06-.5h0a.36.36,0,0,1,.5.06A.37.37,0,0,1,331,352.56Zm3.27-5.18a.35.35,0,0,1,.21.46.36.36,0,0,1-.67-.25h0A.36.36,0,0,1,334.3,347.38Zm6.18-1.1a.35.35,0,0,1-.7-.11.35.35,0,0,1,.41-.3A.35.35,0,0,1,340.48,346.28Zm-.29,1.85a.35.35,0,0,1-.41.3.35.35,0,0,1-.29-.41.35.35,0,1,1,.7.11ZM339.9,350a.35.35,0,0,1-.41.3.36.36,0,0,1-.3-.41.37.37,0,0,1,.41-.3A.36.36,0,0,1,339.9,350Zm-.29,1.86a.35.35,0,0,1-.41.3.36.36,0,1,1,.11-.71A.35.35,0,0,1,339.61,351.85Zm-.29,1.86a.36.36,0,0,1-.41.3.37.37,0,0,1-.3-.41.36.36,0,0,1,.41-.3A.35.35,0,0,1,339.32,353.71Zm-.29,1.86a.36.36,0,0,1-.41.3.37.37,0,0,1-.3-.41.36.36,0,0,1,.41-.3A.35.35,0,0,1,339,355.57Zm-.29,1.85a.36.36,0,0,1-.71-.11.36.36,0,1,1,.71.11Zm-.29,1.86a.36.36,0,0,1-.71-.11.36.36,0,1,1,.71.11Zm-.29,1.86a.36.36,0,0,1-.41.3.36.36,0,1,1,.11-.71A.36.36,0,0,1,338.16,361.14Zm-.29,1.86a.37.37,0,0,1-.41.3.36.36,0,0,1-.3-.41.35.35,0,0,1,.41-.3A.36.36,0,0,1,337.87,363Zm-.29,1.86a.37.37,0,0,1-.41.3.36.36,0,0,1-.3-.41.35.35,0,0,1,.41-.3A.36.36,0,0,1,337.58,364.86Zm-.29,1.86a.36.36,0,0,1-.41.29.35.35,0,0,1-.3-.41.35.35,0,0,1,.41-.29A.36.36,0,0,1,337.29,366.72Zm-.29,1.85a.37.37,0,0,1-.41.3.35.35,0,0,1-.3-.41.36.36,0,0,1,.41-.3A.37.37,0,0,1,337,368.57Zm-.74,2.15a.35.35,0,0,1-.27-.43.37.37,0,0,1,.43-.27.38.38,0,0,1,.27.44A.36.36,0,0,1,336.26,370.72Zm-1,1.08h0a.36.36,0,1,1,.55.47.35.35,0,0,1-.5,0A.36.36,0,0,1,335.23,371.8Zm-1.37,1h0a.36.36,0,0,1,.47.18.36.36,0,0,1-.18.48h0a.36.36,0,0,1-.48-.19A.37.37,0,0,1,333.86,372.82Zm-2.05.68a.37.37,0,0,1,.37-.35.36.36,0,1,1,0,.72A.37.37,0,0,1,331.81,373.5Zm-.39-3.82a1,1,0,1,1,.8,1.09A1,1,0,0,1,331.42,369.68ZM335.34,344a.36.36,0,0,1-.41.3.35.35,0,0,1-.3-.41.36.36,0,0,1,.41-.3A.37.37,0,0,1,335.34,344Zm-.3,1.9a.36.36,0,0,1-.42.29.36.36,0,1,1,.13-.71.38.38,0,0,1,.29.42Zm-5,27a.36.36,0,0,1,.48-.16.36.36,0,1,1-.48.16Zm3-23.66h0a.37.37,0,0,1,.5-.12.36.36,0,0,1,.12.49h0a.37.37,0,0,1-.5.12A.37.37,0,0,1,333,349.25Zm-.56,2a.35.35,0,0,1-.5,0,.36.36,0,0,1,0-.51h0a.35.35,0,0,1,.5,0A.36.36,0,0,1,332.47,351.21Zm-3.79,20.41a.37.37,0,0,1,.51.06.36.36,0,0,1-.57.45A.37.37,0,0,1,328.68,371.62Zm-.65-1.75a.35.35,0,0,1,.42.28.35.35,0,0,1-.27.42.36.36,0,1,1-.15-.7Zm-.26-1.58a.36.36,0,0,1,.15-.23.35.35,0,0,1,.26-.07.38.38,0,0,1,.24.15.34.34,0,0,1,.06.26.33.33,0,0,1-.14.24.36.36,0,0,1-.27.06.35.35,0,0,1-.23-.14A.37.37,0,0,1,327.77,368.29ZM329,353h0a.36.36,0,0,1,.49.16.36.36,0,0,1-.16.48h0a.36.36,0,0,1-.48-.15A.37.37,0,0,1,329,353Zm-3-8.15s4.08-.45,4.67-.35a1.07,1.07,0,1,1-.34,2.11C329.82,346.5,326.07,344.83,326.07,344.83Zm2.49,5.71a1.09,1.09,0,0,1-1.49-.31c-.32-.49-1.6-4.39-1.6-4.39s3.07,2.72,3.39,3.21A1.08,1.08,0,0,1,328.56,350.54Zm-1.47,3.59a.36.36,0,0,1,.24-.45h0a.35.35,0,0,1,.44.24.34.34,0,0,1-.23.44h0A.36.36,0,0,1,327.09,354.13ZM324.73,368a.35.35,0,0,1-.3-.41.36.36,0,0,1,.41-.3.37.37,0,0,1,.3.41A.36.36,0,0,1,324.73,368Zm-.71,1.36a.36.36,0,0,1,.47-.18.35.35,0,0,1,.19.47.37.37,0,0,1-.47.19A.38.38,0,0,1,324,369.38Zm-1,1.43a.37.37,0,0,1,.51,0,.35.35,0,0,1,0,.51h0a.36.36,0,1,1-.49-.53Zm2.51-16.76a.36.36,0,0,1,.4.32.36.36,0,0,1-.32.39.37.37,0,0,1-.4-.31A.36.36,0,0,1,325.52,354.05Zm-4,17.65h0a.37.37,0,0,1,.46.23.35.35,0,0,1-.23.45h0a.34.34,0,0,1-.45-.22A.36.36,0,0,1,321.51,371.7Zm1.78-17.28a.37.37,0,0,1,.39-.34h0a.37.37,0,0,1,.33.39.36.36,0,0,1-.38.33A.37.37,0,0,1,323.29,354.42Zm-.35-2.78a1.07,1.07,0,0,1-.9-1.22c.09-.59,1.76-4.33,1.76-4.33s.45,4.07.36,4.66A1.07,1.07,0,0,1,322.94,351.64Zm-3.56,20.58a.36.36,0,0,1,.4-.32h0a.36.36,0,0,1,.32.39.36.36,0,0,1-.4.32h0A.36.36,0,0,1,319.38,372.22Zm-.17-4.45a1,1,0,1,1,.8,1.09A1,1,0,0,1,319.21,367.77Zm-1.59,3.73a.36.36,0,0,1,.49-.13h0a.36.36,0,0,1-.36.62h0A.36.36,0,0,1,317.62,371.5Zm1.93-17.84a.36.36,0,0,1,.45-.23h0a.36.36,0,1,1-.45.23Zm-3.24,16.46a.36.36,0,0,1,.5.08h0a.36.36,0,0,1-.08.5.35.35,0,0,1-.5-.08h0A.36.36,0,0,1,316.31,370.12Zm-.64-1.79a.36.36,0,0,1,.43.28h0a.36.36,0,0,1-.28.42.35.35,0,0,1-.42-.28h0A.35.35,0,0,1,315.67,368.33Zm2.78-15.13a.36.36,0,0,1-.49.15.35.35,0,0,1-.14-.48.34.34,0,0,1,.48-.15h0A.35.35,0,0,1,318.45,353.2Zm-3.06,13.53a.36.36,0,0,1,.41-.3.35.35,0,0,1,.3.41.35.35,0,0,1-.41.29A.36.36,0,0,1,315.39,366.73Zm2.14-17.92a1.07,1.07,0,0,1,.16-1.5c.46-.38,4.22-2,4.22-2S319.5,348.6,319,349A1.08,1.08,0,0,1,317.53,348.81Zm-1.27,2.95a.35.35,0,0,1,.5-.05.36.36,0,1,1-.5.05Zm.71-7.27a1.07,1.07,0,0,1,.34-2.12c.58.1,4.33,1.77,4.33,1.77S317.56,344.58,317,344.49Zm-1.58,6.45a.35.35,0,0,1-.5,0h0a.35.35,0,0,1,0-.5.36.36,0,0,1,.51,0h0A.36.36,0,0,1,315.39,350.94Zm-2.57,15.27a.34.34,0,0,1-.26.06.33.33,0,0,1-.24-.14.36.36,0,0,1-.06-.27.31.31,0,0,1,.14-.23.37.37,0,0,1,.27-.07.36.36,0,0,1,.23.15.35.35,0,0,1,.07.26A.38.38,0,0,1,312.82,366.21Zm-1.07,1.32a.36.36,0,1,1,.62.36h0a.36.36,0,0,1-.62-.36Zm2.47-18.1a.36.36,0,1,1,.13-.5A.37.37,0,0,1,314.22,349.43Zm-3.63,19.34a.35.35,0,0,1,.49.1.36.36,0,0,1-.1.5h0a.36.36,0,0,1-.39-.6Zm2.3-21.26a.35.35,0,0,1,.21-.46.37.37,0,0,1,.46.22h0a.36.36,0,0,1-.21.46A.35.35,0,0,1,312.89,347.51ZM309,369.38a.36.36,0,1,1,.1.71.36.36,0,0,1-.4-.3A.36.36,0,0,1,309,369.38Zm-2.15.12a.35.35,0,0,1,.44-.24.35.35,0,1,1-.2.68h0A.35.35,0,0,1,306.84,369.5Zm.53-3.59a1,1,0,0,1,1.1-.79,1,1,0,0,1,.8,1.09,1,1,0,0,1-1.1.8A1,1,0,0,1,307.37,365.91Zm-2.09,2.55a.36.36,0,0,1,.51,0h0a.36.36,0,1,1-.48.53h0A.35.35,0,0,1,305.28,368.46Zm-.95-1.61a.36.36,0,0,1,.47.19.36.36,0,0,1-.2.47.36.36,0,0,1-.47-.19A.37.37,0,0,1,304.33,366.85Zm-.51-1.54a.36.36,0,1,1,.71.06h0a.36.36,0,1,1-.71-.06Zm.28-1.89a.35.35,0,0,1,.41-.29.36.36,0,0,1,.3.41.36.36,0,0,1-.71-.12Zm.29-1.85a.36.36,0,1,1,.71.11.37.37,0,0,1-.41.3A.36.36,0,0,1,304.39,361.57Zm.29-1.86a.36.36,0,1,1,.3.41A.36.36,0,0,1,304.68,359.71Zm.29-1.86a.36.36,0,1,1,.71.11.36.36,0,1,1-.71-.11Zm.29-1.86a.37.37,0,0,1,.41-.3.36.36,0,0,1,.3.41.35.35,0,0,1-.41.3A.36.36,0,0,1,305.26,356Zm.29-1.86a.36.36,0,1,1,.3.41A.36.36,0,0,1,305.55,354.13Zm.29-1.85a.36.36,0,0,1,.41-.3.35.35,0,0,1,.3.41.36.36,0,0,1-.41.3A.37.37,0,0,1,305.84,352.28Zm.29-1.86a.37.37,0,0,1,.41-.3.35.35,0,0,1,.3.41.36.36,0,0,1-.41.3A.37.37,0,0,1,306.13,350.42Zm.3-1.86a.35.35,0,0,1,.41-.3.36.36,0,0,1,.29.41.35.35,0,0,1-.41.3A.35.35,0,0,1,306.43,348.56Zm.29-1.86a.36.36,0,0,1,.41-.3.36.36,0,1,1-.41.3Zm.29-1.86a.35.35,0,0,1,.41-.29.35.35,0,1,1-.41.29Zm.29-1.85a.35.35,0,0,1,.41-.3.36.36,0,0,1,.3.41.36.36,0,0,1-.71-.11Zm.29-1.86a.35.35,0,0,1,.41-.3.36.36,0,0,1,.3.41.37.37,0,0,1-.41.3A.36.36,0,0,1,307.59,341.13Z"/><path class="cls-43" d="M350.2,371.61a5.95,5.95,0,0,0,11.88.38h0A5.94,5.94,0,0,0,374,372h0a5.94,5.94,0,0,0,11.86,0h0V345.33h-1.13a.37.37,0,0,1-.1.25.36.36,0,0,1-.26.11.38.38,0,0,1-.36-.36H352.16a.37.37,0,0,1-.1.25.36.36,0,0,1-.26.11.36.36,0,0,1-.25-.11.34.34,0,0,1-.11-.25h-1.22v25.78C350.21,371.27,350.2,371.44,350.2,371.61ZM357,347a.36.36,0,1,1-.36-.36A.36.36,0,0,1,357,347Zm.1,1.85a.37.37,0,0,1-.31.41.35.35,0,0,1-.4-.31h0a.36.36,0,0,1,.3-.4.36.36,0,0,1,.41.3Zm.19,2.25a.36.36,0,0,1-.45-.22.36.36,0,1,1,.68-.23A.35.35,0,0,1,357.32,351.12Zm12.12-3.44a1.16,1.16,0,1,1-1.16-1.16A1.16,1.16,0,0,1,369.44,347.68Zm-2,9.88a.36.36,0,1,1-.36.36A.36.36,0,0,1,367.46,357.56Zm8.91-2.68h0a.36.36,0,0,1-.51,0,.35.35,0,0,1,0-.5h0a.34.34,0,0,1,.5,0A.36.36,0,0,1,376.37,354.88Zm2.43-5.62a.36.36,0,1,1-.42.28h0A.35.35,0,0,1,378.8,349.26Zm5.94-2.05a.36.36,0,1,1-.36-.36A.36.36,0,0,1,384.74,347.21Zm0,1.88a.36.36,0,1,1-.36-.36A.36.36,0,0,1,384.74,349.09Zm0,1.88a.36.36,0,1,1-.36-.36A.36.36,0,0,1,384.74,351Zm0,1.88a.36.36,0,1,1-.72,0,.36.36,0,0,1,.72,0Zm0,1.88a.36.36,0,1,1-.36-.35A.36.36,0,0,1,384.74,354.73Zm0,1.88a.36.36,0,1,1-.36-.35A.36.36,0,0,1,384.74,356.61Zm0,1.89a.36.36,0,1,1-.36-.36A.36.36,0,0,1,384.74,358.5Zm0,1.88a.36.36,0,1,1-.36-.36A.36.36,0,0,1,384.74,360.38Zm0,1.88a.36.36,0,0,1-.72,0,.36.36,0,0,1,.72,0Zm0,1.88a.36.36,0,1,1-.36-.36A.36.36,0,0,1,384.74,364.14Zm0,1.88a.36.36,0,1,1-.36-.36A.36.36,0,0,1,384.74,366Zm0,1.88a.36.36,0,1,1-.36-.36A.36.36,0,0,1,384.74,367.9Zm0,1.88a.36.36,0,1,1-.36-.36A.36.36,0,0,1,384.74,369.78Zm-.4,2.24a.36.36,0,1,1,.39-.33A.37.37,0,0,1,384.34,372Zm-.85,1.23h0a.36.36,0,0,1,.61.37.36.36,0,1,1-.61-.37Zm-1.19,1.21h0a.35.35,0,0,1,.49.11.35.35,0,0,1-.1.49h0a.37.37,0,0,1-.5-.1A.36.36,0,0,1,382.3,374.46Zm-1.92,1a.36.36,0,0,1,.72-.09.37.37,0,0,1-.31.4A.37.37,0,0,1,380.38,375.45Zm-1-3.72a1,1,0,1,1,1,1A1,1,0,0,1,379.4,371.73Zm-.09-25.93a.36.36,0,1,1-.36-.36A.36.36,0,0,1,379.31,345.8Zm0,1.92a.36.36,0,0,1-.72,0,.36.36,0,0,1,.72,0Zm-.77,27.42a.35.35,0,0,1,.45-.23.34.34,0,0,1,.23.44.36.36,0,1,1-.68-.21Zm-.7-23.84h0a.37.37,0,0,1,.47-.2.36.36,0,0,1,.19.47h0a.36.36,0,1,1-.66-.27Zm-.25,2a.36.36,0,0,1-.5.11.37.37,0,0,1-.11-.5h0a.37.37,0,0,1,.5-.1A.36.36,0,0,1,377.59,353.32ZM377,374.08a.34.34,0,0,1,.5,0,.35.35,0,0,1,0,.5.36.36,0,0,1-.51,0A.35.35,0,0,1,377,374.08Zm-.92-1.63a.36.36,0,1,1-.2.46A.35.35,0,0,1,376.08,372.45Zm-.49-1.52a.35.35,0,0,1,.1-.26.4.4,0,0,1,.26-.1.39.39,0,0,1,.25.1.35.35,0,0,1,.1.26.35.35,0,0,1-.1.25.36.36,0,0,1-.25.11.36.36,0,0,1-.26-.11A.35.35,0,0,1,375.59,370.93Zm-1.12-15.32h0a.35.35,0,0,1,.5.07.38.38,0,0,1-.08.51h0a.36.36,0,0,1-.5-.08A.35.35,0,0,1,374.47,355.61Zm-4.19-7.6s4-1.07,4.55-1.07a1.07,1.07,0,1,1,0,2.14C374.24,349.08,370.28,348,370.28,348Zm3.33,5.26a1.07,1.07,0,0,1-1.51-.08c-.4-.44-2.26-4.09-2.26-4.09s3.45,2.21,3.85,2.65A1.09,1.09,0,0,1,373.61,353.27Zm-.89,3.77a.35.35,0,0,1,.17-.48h0a.35.35,0,0,1,.47.17.34.34,0,0,1-.16.47h0A.35.35,0,0,1,372.72,357Zm-.19,14.09a.36.36,0,1,1,.36-.36A.36.36,0,0,1,372.53,371.13Zm-.48,1.46a.36.36,0,0,1,.43-.26.36.36,0,0,1-.17.69A.36.36,0,0,1,372.05,372.59Zm-.78,1.56a.36.36,0,0,1,.57.45h0a.36.36,0,0,1-.57-.45Zm-.11-16.95a.36.36,0,0,1,.19.7.36.36,0,0,1-.44-.25A.37.37,0,0,1,371.16,357.2Zm-1.23,18.07h0a.35.35,0,0,1,.48.15.36.36,0,0,1-.15.48h0a.36.36,0,0,1-.49-.15A.35.35,0,0,1,369.93,375.27ZM369,357.91a.36.36,0,0,1,.32-.39h0a.37.37,0,0,1,.39.33.36.36,0,0,1-.33.39A.35.35,0,0,1,369,357.91Zm-.79-2.68a1.07,1.07,0,0,1-1.07-1.08c0-.59,1.07-4.55,1.07-4.55s1.07,4,1.07,4.55A1.07,1.07,0,0,1,368.23,355.23Zm-.33,20.88a.36.36,0,0,1,.34-.38h0a.36.36,0,0,1,.38.34.37.37,0,0,1-.34.38h0A.37.37,0,0,1,367.9,376.11Zm-.86-4.38a1,1,0,1,1,1,1A1,1,0,0,1,367,371.73Zm-1,3.94a.35.35,0,0,1,.46-.21h0a.36.36,0,0,1,.21.47.36.36,0,0,1-.46.2h0A.35.35,0,0,1,366.05,375.67Zm-.85-17.92a.35.35,0,0,1,.41-.3h0a.36.36,0,0,1,.3.4.36.36,0,1,1-.71-.1Zm-.66,16.76a.36.36,0,0,1,.51,0h0a.36.36,0,0,1-.51.51h0A.36.36,0,0,1,364.54,374.51Zm-.9-1.67a.36.36,0,0,1,.46.2h0a.36.36,0,1,1-.67.26h0A.35.35,0,0,1,363.64,372.84Zm.4-15.38a.35.35,0,0,1-.46.22.36.36,0,0,1-.22-.45.36.36,0,0,1,.46-.22h0A.34.34,0,0,1,364,357.46Zm-.93,13.83a.36.36,0,1,1,.36.36A.36.36,0,0,1,363.11,371.29Zm-.66-18a1.08,1.08,0,0,1-.07-1.52c.4-.44,3.85-2.65,3.85-2.65s-1.87,3.65-2.26,4.09A1.09,1.09,0,0,1,362.45,353.27Zm-.8,3.11a.37.37,0,0,1,.49-.14.36.36,0,0,1,.13.49.34.34,0,0,1-.48.14A.35.35,0,0,1,361.65,356.38Zm-.41-7.3a1.07,1.07,0,0,1,0-2.14c.59,0,4.55,1.07,4.55,1.07S361.83,349.08,361.24,349.08Zm-.57,6.62a.36.36,0,0,1-.51,0h0a.36.36,0,1,1,.47-.55h0A.36.36,0,0,1,360.67,355.7Zm-.18,15.48a.34.34,0,0,1-.25.11.33.33,0,0,1-.25-.11.36.36,0,0,1-.11-.25.36.36,0,0,1,.11-.26.36.36,0,0,1,.25-.1.37.37,0,0,1,.25.1.36.36,0,0,1,.11.26A.36.36,0,0,1,360.49,371.18Zm-.85,1.47a.36.36,0,0,1,.67.26h0a.35.35,0,0,1-.46.21A.36.36,0,0,1,359.64,372.65Zm-.36-18.27a.34.34,0,0,1-.5-.05.35.35,0,0,1,0-.5.36.36,0,0,1,.51.05A.35.35,0,0,1,359.28,354.38Zm-.6,19.68a.35.35,0,0,1,.51,0,.36.36,0,0,1,0,.51h0a.35.35,0,0,1-.5,0A.34.34,0,0,1,358.68,374.06Zm-1-21.36a.36.36,0,0,1,.63-.35h0a.35.35,0,0,1-.14.49A.35.35,0,0,1,357.66,352.7Zm-.46,22.21a.35.35,0,0,1,.45.23.37.37,0,0,1-.24.45.36.36,0,0,1-.45-.24A.35.35,0,0,1,357.2,374.91Zm-2.11.45a.36.36,0,1,1,.71.09.36.36,0,0,1-.4.31h0A.36.36,0,0,1,355.09,375.36Zm0-3.63a1,1,0,1,1,1,1A1,1,0,0,1,355.06,371.73Zm-1.67,2.84a.36.36,0,0,1,.5-.11h0a.37.37,0,0,1,.1.5.35.35,0,0,1-.49.1h0A.35.35,0,0,1,353.39,374.57Zm-1.19-1.44a.36.36,0,1,1,.37.61.36.36,0,0,1-.37-.61Zm-.74-1.44a.36.36,0,0,1,.33-.39.36.36,0,0,1,.38.33h0a.36.36,0,1,1-.71.06Zm0-1.91a.36.36,0,1,1,.36.36A.36.36,0,0,1,351.44,369.78Zm0-1.88a.36.36,0,1,1,.36.36A.36.36,0,0,1,351.44,367.9Zm0-1.88a.36.36,0,1,1,.36.36A.36.36,0,0,1,351.44,366Zm0-1.88a.36.36,0,1,1,.36.36A.36.36,0,0,1,351.44,364.14Zm0-1.88a.36.36,0,0,1,.72,0,.36.36,0,0,1-.72,0Zm0-1.88a.36.36,0,1,1,.36.35A.36.36,0,0,1,351.44,360.38Zm0-1.88a.36.36,0,1,1,.36.35A.36.36,0,0,1,351.44,358.5Zm0-1.89a.36.36,0,1,1,.36.36A.36.36,0,0,1,351.44,356.61Zm0-1.88a.36.36,0,1,1,.36.36A.36.36,0,0,1,351.44,354.73Zm0-1.88a.36.36,0,0,1,.72,0,.36.36,0,1,1-.72,0Zm0-1.88a.36.36,0,1,1,.36.36A.36.36,0,0,1,351.44,351Zm0-1.88a.36.36,0,1,1,.36.36A.36.36,0,0,1,351.44,349.09Zm0-1.88a.36.36,0,1,1,.36.36A.36.36,0,0,1,351.44,347.21Z"/><line class="cls-40" x1="396.88" y1="346.91" x2="402.98" y2="347.52"/><line class="cls-40" x1="396.57" y1="348.37" x2="402.98" y2="348.19"/><g class="cls-44"><rect class="cls-45" x="1017.28" y="137.14" width="34.06" height="44.67"/><rect class="cls-46" x="999.41" y="154.45" width="1.12" height="22.33"/><rect class="cls-46" x="1067.53" y="154.45" width="1.12" height="22.33"/><rect class="cls-46" x="1033.47" y="154.45" width="1.12" height="22.33"/><rect class="cls-47" x="999.41" y="161.89" width="69.24" height="14.89"/><path class="cls-46" d="M1036,47.43s2.94-11.48,11.48-16.29,15.75-7.21,17.89-10.14c0,0,1.16,5.07-1.51,7.74s-1.78,6.94-6.41,8.36-3,5.34-5.16,7.12-3.56,2.67-5,8-5,5.88-5,5.88-.89,8.54,1.42,10.5,3.74,3.2,3.74,3.2h10.15s2.31.36,1.78,4.1a19.28,19.28,0,0,1-2,6.23h-1.78s.53-5.52-.71-5.88-10.33,0-10.33,0a3.79,3.79,0,0,1-3-2.84c-.89-2.67-2-3.39-2-3.39l-.18,5.52s3.92,4.81,5.34,9.08,6.23,5.87,9.43,8.9,3.92,10.68.18,11.92-4.8,0-4.8,0-1.18,4.45,1.19,5.88,1.37,4.63,0,5-2.44.89-4-4.09-1.43-6.77-1.43-6.77h-2.67s.72,7.48-1.6,8.55v15.48a4.57,4.57,0,0,1,3.74,3.92,3.94,3.94,0,0,0,3.2,3.74h-27.23s0-5.7,4.1-6.59,2.13-5.34,3.56-6.58a6.12,6.12,0,0,0,2.13-5.34,3.12,3.12,0,0,1-3.56-2.32s-3.56.54-3.38-2.49,1.42-6-2.85-6.76-3.2-2.32-3.56-4.1-3.2.18-3.91-1.6-.18-4.63,3.38-5.34,2.31-6.23,3.74-6.76,1.6-2.49,2-6.41,3.39-3.56,4.1-5,1.78-5-1.43-4.81-6,0-8-3-4.09-1.78-6.23-2.67-2.84-2.67-3-6.4-4.1-3.39-5.16-5,.53-4.45-1.78-5.87-2.32-.18-4.1-4.81-5.34-2.13-7.65-4.8-1.07-4.1-2.67-6.41-5.52-1.78-5.7-6-1.6-8.9,0-9.26,22.61,13,26.7,18.87a72.61,72.61,0,0,0,7.12,8.9s-2-3.56.54-4.81,8-3.91,9.79-3,1.78,4.62,0,5.34-4.63-.54-5.17.89.12,8.18,3.09,10.32,5.1-.18,4.57-3.92,0-7.12,2.13-8.54S1035.87,41.91,1036,47.43Z"/><g class="cls-48"><rect class="cls-49" x="1104.66" y="549.21" width="29.05" height="19"/><path class="cls-50" d="M1129.38,546.48H1109a4,4,0,0,0-3,1.27l-1.29,1.46h29l-1.29-1.46A4,4,0,0,0,1129.38,546.48Z"/><rect class="cls-50" x="1104.66" y="539.85" width="29.05" height="6.62" rx="3.25"/><path class="cls-49" d="M1128.27,539.85H1110.1c-2,0-3.56-1.29-3.56-2.88h0c0-1.58,1.6-2.88,3.56-2.88l9.08-1.77,9.09,1.77c2,0,3.55,1.3,3.55,2.88h0C1131.82,538.56,1130.22,539.85,1128.27,539.85Z"/><line class="cls-51" x1="1108.74" y1="546.48" x2="1124" y2="546.48"/><rect class="cls-52" x="1110.1" y="528.78" width="18.2" height="5.31"/><rect class="cls-53" x="1110.1" y="528.78" width="18.2" height="1.49"/><path class="cls-50" d="M1105.48,522.41h27.1a0,0,0,0,1,0,0v.11a6.25,6.25,0,0,1-6.25,6.25h-14.6a6.25,6.25,0,0,1-6.25-6.25v-.11A0,0,0,0,1,1105.48,522.41Z"/><rect class="cls-46" x="1104.66" y="522.41" width="29.05" height="1.22" rx="0.6"/><rect class="cls-50" x="1098.03" y="568.21" width="40.76" height="17.46"/><polygon class="cls-49" points="1124.8 473.96 1119.01 471.8 1113.21 473.96 1108.74 522.41 1129.27 522.41 1124.8 473.96"/><polygon class="cls-45" points="1124.8 473.96 1119.01 471.8 1119.01 522.41 1129.27 522.41 1124.8 473.96"/></g><g class="cls-48"><rect class="cls-49" x="933.65" y="549.21" width="29.05" height="19"/><path class="cls-50" d="M958.37,546.48H938a4,4,0,0,0-3,1.27l-1.29,1.46H962.7l-1.29-1.46A4,4,0,0,0,958.37,546.48Z"/><rect class="cls-50" x="933.65" y="539.85" width="29.05" height="6.62" rx="3.25"/><path class="cls-49" d="M957.26,539.85H939.09c-2,0-3.56-1.29-3.56-2.88h0c0-1.58,1.6-2.88,3.56-2.88l9.08-1.77,9.09,1.77c2,0,3.55,1.3,3.55,2.88h0C960.81,538.56,959.21,539.85,957.26,539.85Z"/><line class="cls-51" x1="937.73" y1="546.48" x2="952.99" y2="546.48"/><rect class="cls-52" x="939.09" y="528.78" width="18.2" height="5.31"/><rect class="cls-53" x="939.09" y="528.78" width="18.2" height="1.49"/><path class="cls-50" d="M934.48,522.41h27.1a0,0,0,0,1,0,0v.11a6.25,6.25,0,0,1-6.25,6.25h-14.6a6.25,6.25,0,0,1-6.25-6.25v-.11A0,0,0,0,1,934.48,522.41Z"/><rect class="cls-46" x="933.65" y="522.41" width="29.05" height="1.22" rx="0.6"/><rect class="cls-50" x="927.02" y="568.21" width="40.76" height="17.46"/><polygon class="cls-49" points="953.79 473.96 948 471.8 942.2 473.96 937.73 522.41 958.26 522.41 953.79 473.96"/><polygon class="cls-45" points="953.79 473.96 948 471.8 948 522.41 958.26 522.41 953.79 473.96"/></g><rect class="cls-54" x="969" y="497.11" width="131.07" height="67.04"/><rect class="cls-46" x="969" y="497.11" width="131.07" height="9.43"/><rect class="cls-55" x="969" y="506.54" width="131.07" height="2.65"/><rect class="cls-56" x="832.13" y="607.01" width="418.89" height="7.17"/><rect class="cls-46" x="841.8" y="599.84" width="399.45" height="7.17"/><rect class="cls-56" x="848.14" y="592.67" width="384.31" height="7.17"/><rect class="cls-46" x="857.19" y="585.49" width="365.93" height="7.17"/><rect class="cls-56" x="882.05" y="580.29" width="311.04" height="5.38"/><rect class="cls-46" x="889.23" y="574.91" width="296.6" height="5.38"/><rect class="cls-56" x="893.94" y="569.53" width="285.36" height="5.38"/><rect class="cls-46" x="900.65" y="564.15" width="271.71" height="5.38"/><rect class="cls-49" x="880.18" y="549.21" width="29.05" height="19"/><path class="cls-50" d="M904.91,546.48h-20.4a4,4,0,0,0-3,1.27l-1.3,1.46h29.05l-1.29-1.46A4,4,0,0,0,904.91,546.48Z"/><rect class="cls-50" x="880.18" y="539.85" width="29.05" height="6.62" rx="3.25"/><path class="cls-49" d="M903.8,539.85H885.62c-2,0-3.55-1.29-3.55-2.88h0c0-1.58,1.6-2.88,3.55-2.88l9.09-1.77,9.09,1.77c2,0,3.55,1.3,3.55,2.88h0C907.35,538.56,905.75,539.85,903.8,539.85Z"/><line class="cls-51" x1="884.27" y1="546.48" x2="899.53" y2="546.48"/><rect class="cls-52" x="885.62" y="528.78" width="18.2" height="5.31"/><rect class="cls-53" x="885.62" y="528.78" width="18.2" height="1.49"/><path class="cls-50" d="M881,522.41h27.1a0,0,0,0,1,0,0v.11a6.25,6.25,0,0,1-6.25,6.25h-14.6a6.25,6.25,0,0,1-6.25-6.25v-.11A0,0,0,0,1,881,522.41Z"/><rect class="cls-46" x="880.18" y="522.41" width="29.05" height="1.22" rx="0.6"/><rect class="cls-50" x="873.56" y="568.21" width="40.76" height="17.46"/><polygon class="cls-49" points="900.33 473.96 894.53 471.8 888.74 473.96 884.27 522.41 904.8 522.41 900.33 473.96"/><polygon class="cls-45" points="900.33 473.96 894.53 471.8 894.53 522.41 904.8 522.41 900.33 473.96"/><rect class="cls-49" x="1158.96" y="549.21" width="29.05" height="19"/><path class="cls-50" d="M1183.68,546.48h-20.4a4,4,0,0,0-3,1.27l-1.29,1.46h29l-1.3-1.46A4,4,0,0,0,1183.68,546.48Z"/><rect class="cls-50" x="1158.96" y="539.85" width="29.05" height="6.62" rx="3.25"/><path class="cls-49" d="M1182.57,539.85h-18.18c-2,0-3.55-1.29-3.55-2.88h0c0-1.58,1.6-2.88,3.55-2.88l9.09-1.77,9.09,1.77c2,0,3.55,1.3,3.55,2.88h0C1186.12,538.56,1184.52,539.85,1182.57,539.85Z"/><line class="cls-51" x1="1163.04" y1="546.48" x2="1178.3" y2="546.48"/><rect class="cls-52" x="1164.39" y="528.78" width="18.2" height="5.31"/><rect class="cls-53" x="1164.39" y="528.78" width="18.2" height="1.49"/><path class="cls-50" d="M1159.78,522.41h27.1a0,0,0,0,1,0,0v.11a6.25,6.25,0,0,1-6.25,6.25H1166a6.25,6.25,0,0,1-6.25-6.25v-.11A0,0,0,0,1,1159.78,522.41Z"/><rect class="cls-46" x="1158.96" y="522.41" width="29.05" height="1.22" rx="0.6"/><rect class="cls-50" x="1152.33" y="568.21" width="40.76" height="17.46"/><polygon class="cls-49" points="1179.1 473.96 1173.3 471.8 1167.51 473.96 1163.04 522.41 1183.57 522.41 1179.1 473.96"/><polygon class="cls-45" points="1179.1 473.96 1173.3 471.8 1173.3 522.41 1183.57 522.41 1179.1 473.96"/><rect class="cls-49" x="957.29" y="515.23" width="29.05" height="19"/><path class="cls-50" d="M982,512.5h-20.4a4.07,4.07,0,0,0-3,1.26l-1.29,1.47h29.05l-1.29-1.47A4.06,4.06,0,0,0,982,512.5Z"/><rect class="cls-50" x="957.29" y="505.87" width="29.05" height="6.62" rx="3.25"/><line class="cls-57" x1="961.38" y1="512.5" x2="976.63" y2="512.5"/><rect class="cls-58" x="953.19" y="534.23" width="37.43" height="29.92"/><rect class="cls-55" x="953.19" y="534.23" width="37.43" height="3.58"/><line class="cls-57" x1="953.19" y1="537.81" x2="968.45" y2="537.81"/><rect class="cls-49" x="1080.74" y="515.23" width="29.05" height="19"/><path class="cls-50" d="M1105.46,512.5h-20.4a4.06,4.06,0,0,0-3,1.26l-1.29,1.47h29l-1.3-1.47A4.06,4.06,0,0,0,1105.46,512.5Z"/><rect class="cls-50" x="1080.74" y="505.87" width="29.05" height="6.62" rx="3.25"/><line class="cls-57" x1="1084.82" y1="512.5" x2="1100.08" y2="512.5"/><rect class="cls-58" x="1076.63" y="534.23" width="37.43" height="29.92"/><rect class="cls-55" x="1076.63" y="534.23" width="37.43" height="3.58"/><line class="cls-57" x1="1076.63" y1="537.81" x2="1091.89" y2="537.81"/><rect class="cls-49" x="1008.07" y="515.23" width="49.81" height="19"/><path class="cls-50" d="M1050.46,512.5h-35a10,10,0,0,0-5.21,1.26l-2.21,1.47h49.81l-2.21-1.47A10,10,0,0,0,1050.46,512.5Z"/><rect class="cls-50" x="1008.07" y="505.87" width="49.81" height="6.62" rx="3.25"/><line class="cls-57" x1="1015.07" y1="512.5" x2="1041.23" y2="512.5"/><rect class="cls-58" x="1001.03" y="534.23" width="64.18" height="29.92"/><rect class="cls-55" x="1001.03" y="534.23" width="64.18" height="3.58"/><line class="cls-57" x1="1001.03" y1="537.81" x2="1027.2" y2="537.81"/><polygon class="cls-54" points="1103.64 497.11 965.4 497.11 961.38 493.22 965.4 489.33 1103.64 489.33 1107.84 493.22 1103.64 497.11"/><polyline class="cls-59" points="1107.84 493.22 1103.64 497.11 965.4 497.11 961.38 493.22"/><rect class="cls-45" x="971.82" y="434.48" width="128.26" height="54.85"/><rect class="cls-49" x="982.29" y="434.48" width="106.03" height="54.85"/><polyline class="cls-60" points="1008.07 434.48 1008.07 489.33 990.62 489.33 990.62 434.48 1008.07 434.48"/><path class="cls-46" d="M1026.16,410.6h15.24a19.66,19.66,0,0,1,19.66,19.66V443.7a0,0,0,0,1,0,0H1006.5a0,0,0,0,1,0,0V430.26A19.66,19.66,0,0,1,1026.16,410.6Z"/><rect class="cls-60" x="1061.06" y="434.48" width="17.45" height="54.85"/><path class="cls-46" d="M1051.56,440.11h-35.38c-8.28-60.73-5.12-146.92,0-237.49h35.38C1056.71,294.77,1059.81,381.76,1051.56,440.11Z"/><path class="cls-49" d="M1034.09,421h.95a26,26,0,0,1,26,26v42.36a0,0,0,0,1,0,0h-53a0,0,0,0,1,0,0V447A26,26,0,0,1,1034.09,421Z"/><path class="cls-61" d="M971.82,434.48h39.64a26.47,26.47,0,0,1,23.1-13.52h0a26.49,26.49,0,0,1,23.11,13.52h42.41"/><rect class="cls-60" x="1014.11" y="450.54" width="38.74" height="27.59"/><rect class="cls-62" x="1024.99" y="413.33" width="17.34" height="26.78" rx="8.52"/><rect class="cls-63" x="1024.99" y="410.6" width="17.34" height="26.78" rx="8.52"/><rect class="cls-64" x="1014.03" y="200.58" width="39.62" height="12.69" rx="6"/><path class="cls-64" d="M1019.51,209.61s-3.66-20.31-13.64-20.81-13.36-4.5-11.92-9.49,6.34-5.49,15.87-5.49h5.34a12.72,12.72,0,0,1,12,8.33,20.29,20.29,0,0,1,1.15,6.15c.53,12,0,21.31,0,21.31Z"/><path class="cls-64" d="M1048.23,209.61s3.65-20.31,13.64-20.81,13.36-4.5,11.92-9.49-6.34-5.49-15.87-5.49h-5.34a12.72,12.72,0,0,0-12,8.33,20.29,20.29,0,0,0-1.15,6.15c-.53,12,0,21.31,0,21.31Z"/><path class="cls-64" d="M1050.05,166.58c-3.06-.81-11-.58-16.21-.31-5.26-.27-13.16-.5-16.21.31-4.75,1.24-7,8,1.49,12s9,34.71,9,34.71h11.45s.5-30.71,9-34.71S1054.79,167.82,1050.05,166.58Z"/><rect class="cls-65" x="1011.09" y="258.56" width="45.56" height="7.19"/><rect class="cls-65" x="1010.17" y="308.24" width="47.52" height="7.19"/><rect class="cls-65" x="1010.17" y="361.36" width="47.52" height="7.19"/></g><path class="cls-10" d="M160.77,346.37v5.28a3.43,3.43,0,0,1-3,3.46,3.33,3.33,0,0,1-3.67-3.3V343a1.46,1.46,0,0,0-1.13-1.43c-1.22-.26-2.45-.46-3.7-.62a1.48,1.48,0,0,0-1.65,1.46v9.28a3.43,3.43,0,0,1-3,3.46,3.33,3.33,0,0,1-3.67-3.3v-9.44a1.48,1.48,0,0,0-1.65-1.46c-1.25.16-2.49.36-3.7.62A1.47,1.47,0,0,0,134.5,343v8.69a3.42,3.42,0,0,1-3,3.46,3.32,3.32,0,0,1-3.66-3.3v-5.44a1.47,1.47,0,0,0-2.12-1.31,40.9,40.9,0,0,0-22.33,36.44v29.82a31.08,31.08,0,0,0,31.08,31.07h19.65a31.07,31.07,0,0,0,31.07-31.07V381.5a40.88,40.88,0,0,0-22.33-36.44A1.46,1.46,0,0,0,160.77,346.37Z"/><path class="cls-66" d="M125.54,393.32a7.14,7.14,0,0,1,14.28,0"/><path class="cls-8" d="M164,406.81a19,19,0,0,1-35-.1Z"/><path class="cls-67" d="M126,413.41a5,5,0,0,0,0-9.22"/><path class="cls-67" d="M167.08,413.41a5,5,0,0,1,0-9.22"/><path class="cls-66" d="M154.87,393.32a7.14,7.14,0,0,1,14.27,0"/><path class="cls-34" d="M148.24,412.55H132.86a19,19,0,0,0,20.35,4.62A5,5,0,0,0,148.24,412.55Z"/><path class="cls-68" d="M182,466.75c18.5,1.82,45.91-6.49,34.37-51.28"/><path class="cls-69" d="M160.92,456.27s12.83,17.37,34.29,8.35"/><path class="cls-10" d="M117.06,450.25h44.55a9.86,9.86,0,0,1,9.86,9.86V500.5a21.19,21.19,0,0,1-21.19,21.19h-12a21.19,21.19,0,0,1-21.19-21.19V450.25a0,0,0,0,1,0,0Z"/><path class="cls-70" d="M117,487.16h54.53a0,0,0,0,1,0,0V521.7a0,0,0,0,1,0,0H135a18,18,0,0,1-18-18V487.16A0,0,0,0,1,117,487.16Z"/><path class="cls-71" d="M117,446.56h45.08a9.46,9.46,0,0,1,9.46,9.46V501.1a0,0,0,0,1,0,0H117a0,0,0,0,1,0,0V446.56A0,0,0,0,1,117,446.56Z"/><path class="cls-68" d="M103.14,460.6a45.47,45.47,0,0,0-17.31,15.58c-15.69,23.54,39.63,24.34,64.35-3.7"/><path class="cls-69" d="M121.25,457.1a30.55,30.55,0,0,0-24.3,8"/><path class="cls-72" d="M148.65,465a4.35,4.35,0,0,1,4-3c3.13,0,3.44,3.44,3.44,3.44"/><path class="cls-10" d="M148.22,462.85H162.6a6.55,6.55,0,0,1,6.55,6.55v2.44a6.55,6.55,0,0,1-6.55,6.55H147a3.19,3.19,0,0,1-3.19-3.19V467.3A4.45,4.45,0,0,1,148.22,462.85Z"/><path class="cls-73" d="M214.83,407.47s.77-6.37-6.89-6.12"/><path class="cls-10" d="M125.95,446.56h37.8a0,0,0,0,1,0,0v.29a7.23,7.23,0,0,1-7.23,7.23H133.18a7.23,7.23,0,0,1-7.23-7.23v-.29a0,0,0,0,1,0,0Z"/><rect class="cls-10" x="132.68" y="435.85" width="26.68" height="16.93"/><path class="cls-74" d="M192.08,400.9a6.6,6.6,0,0,1,.72-3.82c1-1.53.56-2,1.32-4a3.61,3.61,0,0,1,4.34-2.48c1.6.57,3.25,1.25,2.87,2.32s1.47,6.1,1.47,6.1S194.12,401.67,192.08,400.9Z"/><ellipse class="cls-34" cx="194.67" cy="400.58" rx="5.52" ry="4.07" transform="translate(-209.64 213.79) rotate(-39.29)"/><path class="cls-71" d="M195.78,398.28s-.86-3,2.7-4.84S195.78,398.28,195.78,398.28Z"/><path class="cls-75" d="M189.68,403.63s2-3.75,4.38-5,2.47-2,2.76-3.06,2.47-4.85,4.32-5,3.05-1.34,3.76-1,3.45,2.68,1.92,4.6-9.32,8.8-9.32,8.8Z"/><path class="cls-35" d="M216.14,434l-17.21,3.82a1.59,1.59,0,0,1-1.91-1.21l-7.34-33c-.5-2.24,4-3.48,6.81-4.12a2.85,2.85,0,0,0,1.65-1.1l4.34-6a3.64,3.64,0,0,1,3.35-.82,4.7,4.7,0,0,1,3.3,3.5l8.23,37A1.6,1.6,0,0,1,216.14,434Z"/><path class="cls-76" d="M192.36,415.68l17.83-15.82,7.22,32.48a1.38,1.38,0,0,1-1,1.64l-17.65,3.92a1.38,1.38,0,0,1-1.65-1Z"/><path class="cls-71" d="M196.14,392.62v0a6.48,6.48,0,0,1-.41,1,3,3,0,0,1-1.09,1.21l.43.8a3.91,3.91,0,0,0,1.52-1.69,7.47,7.47,0,0,0,.43-1.09l-.88-.23Z"/><path class="cls-71" d="M193.13,397.56a4.74,4.74,0,0,0-.84.54,3.82,3.82,0,0,0-1.24,1.6l.85.31a2.94,2.94,0,0,1,.95-1.19,5.08,5.08,0,0,1,.48-.34l.15-.08,0,0h0l-.39-.82Z"/><line class="cls-77" x1="132.68" y1="442.67" x2="146.45" y2="442.67"/><path class="cls-10" d="M196.82,404.65h17.62a8.45,8.45,0,0,1,8.45,8.45v.67a8.45,8.45,0,0,1-8.45,8.45h-9.17a8.45,8.45,0,0,1-8.45-8.45v-9.12A0,0,0,0,1,196.82,404.65Z" transform="translate(419.72 826.88) rotate(180)"/><path class="cls-78" d="M174.9,461.74l-.92.95a9,9,0,0,0-2.55,6.27v7.2"/><path class="cls-78" d="M117,467.59s2.75-.34,3.86.51"/><line class="cls-79" x1="164.33" y1="518.08" x2="164.33" y2="598.3"/><line class="cls-79" x1="176.04" y1="514.26" x2="203.31" y2="589.69"/><path class="cls-70" d="M163.75,503.77h.55a7,7,0,0,1,7,7v49.8a0,0,0,0,1,0,0H156.76a0,0,0,0,1,0,0v-49.8A7,7,0,0,1,163.75,503.77Z"/><path class="cls-70" d="M180.83,499h.55a7,7,0,0,1,7,7v49.8a0,0,0,0,1,0,0H173.84a0,0,0,0,1,0,0V506A7,7,0,0,1,180.83,499Z" transform="matrix(0.94, -0.34, 0.34, 0.94, -168.5, 92.98)"/><path class="cls-70" d="M158.53,589.81h26.74a1.17,1.17,0,0,1,1.17,1.17v9.74a0,0,0,0,1,0,0H166.68a9.32,9.32,0,0,1-9.32-9.32V591a1.17,1.17,0,0,1,1.17-1.17Z" transform="translate(343.8 1190.53) rotate(-180)"/><path class="cls-70" d="M196,578.81h26.74a1.17,1.17,0,0,1,1.17,1.17v9.74a0,0,0,0,1,0,0H204.18a9.32,9.32,0,0,1-9.32-9.32V580a1.17,1.17,0,0,1,1.17-1.17Z" transform="translate(604.95 1062.55) rotate(160.13)"/><rect class="cls-70" x="190.86" y="561.52" width="14.54" height="25.93" transform="translate(579.76 1047.4) rotate(160.13)"/><rect class="cls-70" x="157.37" y="569.27" width="14.54" height="25.93" transform="translate(329.27 1164.47) rotate(-180)"/><path class="cls-80" d="M245.26,291.67S154.81,364.52-12,326"/><path class="cls-42" d="M212.24,338.64a5.94,5.94,0,0,0,10.91-4.71l0,0a5.94,5.94,0,0,0,10.73-5.05h0a5.94,5.94,0,0,0,10.73-5.05h0l-11.35-24.12-1,.48a.32.32,0,0,1,0,.27.34.34,0,0,1-.18.21.36.36,0,0,1-.27,0,.36.36,0,0,1-.21-.19L202.83,314a.32.32,0,0,1,0,.27.35.35,0,0,1-.18.2.37.37,0,0,1-.27,0,.36.36,0,0,1-.21-.19l-1.1.52,11,23.33C212.11,338.33,212.17,338.49,212.24,338.64ZM208,313.48a.36.36,0,1,1-.47-.17A.34.34,0,0,1,208,313.48Zm.88,1.64a.36.36,0,0,1-.1.5.37.37,0,0,1-.5-.11h0a.36.36,0,0,1,.6-.39Zm1.14,1.95a.36.36,0,0,1-.5-.52.37.37,0,0,1,.51,0A.36.36,0,0,1,210,317.07Zm9.5-8.27a1.16,1.16,0,1,1-1.55-.56A1.16,1.16,0,0,1,219.47,308.8Zm2.41,9.78a.36.36,0,1,1-.17.48A.36.36,0,0,1,221.88,318.58Zm6.92-6.22h0a.36.36,0,0,1-.68-.22h0a.36.36,0,1,1,.68.22Zm-.19-6.12a.36.36,0,1,1-.26.43h0A.36.36,0,0,1,228.61,306.24Zm4.5-4.38a.36.36,0,0,1-.17.48.37.37,0,0,1-.48-.17.37.37,0,0,1,.17-.48A.36.36,0,0,1,233.11,301.86Zm.8,1.7a.35.35,0,0,1-.17.48.37.37,0,0,1-.48-.17.37.37,0,0,1,.18-.48A.35.35,0,0,1,233.91,303.56Zm.8,1.7a.36.36,0,0,1-.65.31.37.37,0,0,1,.18-.48A.36.36,0,0,1,234.71,305.26Zm.8,1.71a.34.34,0,0,1-.17.47.36.36,0,0,1-.48-.17.37.37,0,0,1,.18-.48A.36.36,0,0,1,235.51,307Zm.8,1.7a.35.35,0,1,1-.64.3.35.35,0,1,1,.64-.3Zm.8,1.7a.36.36,0,1,1-.47-.17A.34.34,0,0,1,237.11,310.37Zm.81,1.7a.37.37,0,0,1-.18.48.36.36,0,0,1-.3-.65A.37.37,0,0,1,237.92,312.07Zm.8,1.7a.37.37,0,0,1-.18.48.35.35,0,0,1-.47-.17.36.36,0,0,1,.17-.48A.37.37,0,0,1,238.72,313.77Zm.8,1.71a.36.36,0,0,1-.18.47.35.35,0,0,1-.47-.17.36.36,0,0,1,.17-.48A.37.37,0,0,1,239.52,315.48Zm.8,1.7a.36.36,0,0,1-.17.47.35.35,0,0,1-.48-.17.34.34,0,0,1,.17-.47A.36.36,0,0,1,240.32,317.18Zm.8,1.7a.36.36,0,1,1-.65.3.35.35,0,0,1,.17-.47A.36.36,0,0,1,241.12,318.88Zm.8,1.7a.36.36,0,1,1-.48-.17A.37.37,0,0,1,241.92,320.58Zm.8,1.7a.36.36,0,1,1-.48-.17A.36.36,0,0,1,242.72,322.28Zm.59,2.2a.36.36,0,0,1-.46-.21.35.35,0,0,1,.21-.46.36.36,0,0,1,.46.2A.36.36,0,0,1,243.31,324.48Zm-.25,1.47h0a.37.37,0,0,1,.4-.32.36.36,0,0,1-.08.72A.37.37,0,0,1,243.06,326Zm-.56,1.61h0a.36.36,0,0,1,.5-.11.36.36,0,0,1,.11.49h0a.35.35,0,0,1-.49.11A.36.36,0,0,1,242.5,327.56Zm-1.31,1.71a.36.36,0,0,1,.11-.5.35.35,0,0,1,.49.11.36.36,0,1,1-.6.39Zm-2.47-2.95a1,1,0,1,1,1.28.46A1,1,0,0,1,238.72,326.32ZM227.6,302.9a.36.36,0,1,1-.48-.17A.36.36,0,0,1,227.6,302.9Zm.81,1.74a.36.36,0,1,1-.65.29.37.37,0,0,1,.18-.48.36.36,0,0,1,.47.19Zm11,25.14a.36.36,0,1,1,.71-.1.36.36,0,0,1-.71.1ZM228.61,308.5h0a.36.36,0,1,1,.71,0h0a.36.36,0,1,1-.71,0Zm.63,1.94a.36.36,0,0,1-.4.3.35.35,0,0,1-.31-.4h0a.37.37,0,0,1,.4-.31A.36.36,0,0,1,229.24,310.44Zm8.3,19a.36.36,0,1,1,.24.45A.36.36,0,0,1,237.54,329.47ZM236,328.38a.36.36,0,0,1,.52.5.36.36,0,0,1-.52-.5Zm-1.1-1.16a.39.39,0,0,1,0-.28.37.37,0,0,1,.19-.2.36.36,0,0,1,.27,0,.35.35,0,0,1,.2.18.39.39,0,0,1,0,.28.37.37,0,0,1-.19.2.36.36,0,0,1-.27,0A.37.37,0,0,1,234.92,327.22Zm-7.53-13.39h0a.35.35,0,0,1,.48-.14.36.36,0,0,1,.15.49h0a.37.37,0,0,1-.49.14A.36.36,0,0,1,227.39,313.83Zm-7-5.09s3.12-2.65,3.66-2.91a1.07,1.07,0,0,1,1.42.52,1.05,1.05,0,0,1-.51,1.42C224.41,308,220.37,308.74,220.37,308.74Zm5.25,3.34a1.07,1.07,0,0,1-1.4.57c-.55-.22-3.79-2.73-3.79-2.73s4.07.53,4.61.76A1.06,1.06,0,0,1,225.62,312.08Zm.8,3.79a.35.35,0,0,1-.06-.5h0a.36.36,0,1,1,.56.45h0A.36.36,0,0,1,226.42,315.87Zm5.83,12.83a.36.36,0,0,1-.48-.17.37.37,0,0,1,.18-.48.36.36,0,0,1,.47.18A.34.34,0,0,1,232.25,328.7Zm.18,1.53a.35.35,0,0,1,.28-.42.34.34,0,0,1,.42.28.35.35,0,0,1-.28.42A.36.36,0,0,1,232.43,330.23Zm0,1.74a.36.36,0,1,1,.69.17h0a.36.36,0,1,1-.69-.17Zm-7.32-15.28a.35.35,0,1,1,0,.5A.35.35,0,0,1,225.08,316.69Zm6.57,16.86h0a.36.36,0,0,1,.5-.06.35.35,0,0,1,.07.5h0a.35.35,0,0,1-.5.07A.37.37,0,0,1,231.65,333.55Zm-8.21-15.31a.36.36,0,0,1,.13-.49h0a.36.36,0,1,1-.13.49Zm-1.85-2.1a1.08,1.08,0,0,1-1.43-.51c-.25-.54-1-4.58-1-4.58s2.66,3.13,2.91,3.67A1.07,1.07,0,0,1,221.59,316.14Zm8.59,19a.36.36,0,0,1,.14-.49h0a.37.37,0,0,1,.49.14.36.36,0,0,1-.15.49h0A.36.36,0,0,1,230.18,335.18Zm-2.64-3.6a1,1,0,1,1,1.27.46A.95.95,0,0,1,227.54,331.58Zm.77,4a.37.37,0,0,1,.34-.39h0a.36.36,0,0,1,0,.72h0A.37.37,0,0,1,228.31,335.57Zm-8.39-15.86a.35.35,0,0,1,.24-.44h0a.35.35,0,1,1-.24.44Zm6.53,15.45a.36.36,0,0,1,.46-.21h0a.35.35,0,0,1,.22.46.36.36,0,0,1-.46.21h0A.36.36,0,0,1,226.45,335.16ZM224.92,334a.37.37,0,0,1,.51,0h0a.36.36,0,0,1-.5.52h0A.37.37,0,0,1,224.92,334ZM218.75,320a.36.36,0,1,1-.4-.32h0A.37.37,0,0,1,218.75,320Zm5,12.91a.36.36,0,1,1,.65-.3.35.35,0,0,1-.17.47A.36.36,0,0,1,223.79,332.86Zm-8.27-16a1.09,1.09,0,0,1-.71-1.34c.18-.57,2.36-4,2.36-4s-.14,4.1-.31,4.67A1.08,1.08,0,0,1,215.52,316.83Zm.6,3.16a.36.36,0,1,1,.33.38A.36.36,0,0,1,216.12,320Zm-3.48-6.43a1.07,1.07,0,0,1-.91-1.94c.53-.25,4.57-1,4.57-1S213.18,313.31,212.64,313.56Zm2.3,6.22a.35.35,0,0,1-.44.26h0a.36.36,0,0,1-.25-.44.35.35,0,0,1,.44-.25h0A.35.35,0,0,1,214.94,319.78Zm6.43,14.09a.34.34,0,0,1-.18.21.36.36,0,0,1-.27,0,.36.36,0,0,1,0-.66.39.39,0,0,1,.28,0,.37.37,0,0,1,.2.19A.32.32,0,0,1,221.37,333.87Zm-.14,1.7a.35.35,0,0,1,.33-.38.36.36,0,0,1,.39.33h0a.36.36,0,0,1-.34.38A.35.35,0,0,1,221.23,335.57Zm-8.1-16.38a.37.37,0,0,1-.48.17.36.36,0,0,1-.17-.48.36.36,0,1,1,.65.31ZM221,337.25a.36.36,0,1,1,.66.27h0a.37.37,0,0,1-.47.2A.36.36,0,0,1,221,337.25Zm-10-18.89a.36.36,0,0,1,.42-.59h0a.36.36,0,0,1-.42.59Zm9,20.29a.35.35,0,0,1,.51,0,.36.36,0,0,1,0,.51.35.35,0,0,1-.5,0A.34.34,0,0,1,220,338.65Zm-1.72,1.3a.36.36,0,1,1,.45.23h0A.35.35,0,0,1,218.26,340Zm-1.57-3.27a1,1,0,0,1,1.74-.81,1,1,0,0,1-.46,1.27A1,1,0,0,1,216.69,336.68Zm-.3,3.28a.37.37,0,0,1,.4-.31h0a.36.36,0,0,1,.31.41.35.35,0,0,1-.4.3h0A.35.35,0,0,1,216.39,340Zm-1.69-.8a.36.36,0,1,1,.1.5A.37.37,0,0,1,214.7,339.16Zm-1.29-1a.37.37,0,0,1,.14-.49.36.36,0,0,1,.49.13h0a.37.37,0,0,1-.14.49A.36.36,0,0,1,213.41,338.18Zm-.82-1.72a.36.36,0,0,1,.17-.48.36.36,0,0,1,.48.17.36.36,0,0,1-.65.31Zm-.8-1.71a.35.35,0,0,1,.17-.47.36.36,0,0,1,.48.17.36.36,0,1,1-.65.3Zm-.8-1.7a.34.34,0,0,1,.17-.47.36.36,0,1,1-.17.47Zm-.8-1.7a.36.36,0,0,1,.17-.48.37.37,0,0,1,.48.18.36.36,0,0,1-.17.47A.35.35,0,0,1,210.19,331.35Zm-.8-1.7a.36.36,0,0,1,.17-.48.36.36,0,1,1,.3.65A.35.35,0,0,1,209.39,329.65Zm-.8-1.7a.35.35,0,0,1,.17-.48.37.37,0,0,1,.48.17.37.37,0,0,1-.18.48A.35.35,0,0,1,208.59,328Zm-.8-1.7a.36.36,0,1,1,.65-.31.37.37,0,0,1-.18.48A.36.36,0,0,1,207.79,326.25Zm-.8-1.71a.35.35,0,1,1,.64-.3.35.35,0,1,1-.64.3Zm-.8-1.7a.35.35,0,1,1,.64-.3.35.35,0,1,1-.64.3Zm-.81-1.7a.37.37,0,0,1,.18-.48.36.36,0,0,1,.47.17.36.36,0,1,1-.65.31Zm-.8-1.7a.37.37,0,0,1,.18-.48.36.36,0,0,1,.3.65A.37.37,0,0,1,204.58,319.44Zm-.8-1.7a.37.37,0,0,1,.18-.48.36.36,0,0,1,.3.65A.37.37,0,0,1,203.78,317.74ZM203,316a.36.36,0,0,1,.17-.47.36.36,0,1,1,.31.65A.37.37,0,0,1,203,316Z"/><path class="cls-81" d="M162.81,354A5.95,5.95,0,0,0,174.33,351h0a5.94,5.94,0,0,0,11.4-3.29h0a5.94,5.94,0,0,0,11.4-3.28h0l-7.38-25.61-1.08.31a.42.42,0,0,1,0,.27.37.37,0,0,1-.22.17.32.32,0,0,1-.27,0,.33.33,0,0,1-.17-.21l-30.62,8.82a.32.32,0,0,1,0,.27.34.34,0,0,1-.21.18.4.4,0,0,1-.28,0,.36.36,0,0,1-.17-.21l-1.17.34,7.14,24.76C162.73,353.64,162.77,353.8,162.81,354Zm-.24-25.52a.37.37,0,0,1-.25.45.36.36,0,0,1-.44-.25.35.35,0,0,1,.24-.44A.36.36,0,0,1,162.57,328.44Zm.61,1.76a.35.35,0,0,1-.19.47.36.36,0,0,1-.47-.18h0a.36.36,0,0,1,.18-.47.37.37,0,0,1,.48.18Zm.81,2.11a.36.36,0,0,1-.5-.1.36.36,0,0,1,.59-.4A.37.37,0,0,1,164,332.31Zm10.69-6.67a1.16,1.16,0,1,1-1.44-.79A1.16,1.16,0,0,1,174.68,325.64Zm.83,10a.37.37,0,0,1,.45.25.36.36,0,0,1-.25.44.35.35,0,0,1-.44-.24A.36.36,0,0,1,175.51,335.68Zm7.82-5h0a.36.36,0,0,1-.49.16.37.37,0,0,1-.15-.49h0a.36.36,0,0,1,.48-.15A.36.36,0,0,1,183.33,330.64Zm.78-6.07a.36.36,0,1,1-.33.38h0A.36.36,0,0,1,184.11,324.57Zm5.14-3.61a.36.36,0,0,1-.25.44.35.35,0,0,1-.44-.24.36.36,0,0,1,.24-.45A.37.37,0,0,1,189.25,321Zm.52,1.8a.37.37,0,0,1-.25.45.36.36,0,0,1-.44-.25.36.36,0,0,1,.25-.44A.35.35,0,0,1,189.77,322.76Zm.52,1.81a.34.34,0,0,1-.25.44.35.35,0,0,1-.44-.24.36.36,0,0,1,.25-.44A.35.35,0,0,1,190.29,324.57Zm.52,1.81a.35.35,0,0,1-.24.44.36.36,0,0,1-.45-.24.37.37,0,0,1,.25-.45A.36.36,0,0,1,190.81,326.38Zm.52,1.81a.35.35,0,0,1-.24.44.37.37,0,0,1-.45-.25.36.36,0,0,1,.25-.44A.35.35,0,0,1,191.33,328.19Zm.52,1.8a.36.36,0,0,1-.24.45.37.37,0,0,1-.45-.25.36.36,0,0,1,.25-.44A.35.35,0,0,1,191.85,330Zm.52,1.81a.35.35,0,0,1-.24.44.36.36,0,0,1-.45-.24.37.37,0,0,1,.25-.45A.36.36,0,0,1,192.37,331.8Zm.52,1.81a.35.35,0,0,1-.68.2.35.35,0,1,1,.68-.2Zm.52,1.8a.35.35,0,1,1-.68.2.35.35,0,1,1,.68-.2Zm.53,1.81a.36.36,0,0,1-.25.44.35.35,0,0,1-.2-.68A.36.36,0,0,1,193.94,337.22Zm.52,1.81a.36.36,0,0,1-.25.44.35.35,0,0,1-.44-.24.36.36,0,0,1,.24-.45A.37.37,0,0,1,194.46,339Zm.52,1.81a.36.36,0,0,1-.25.44.36.36,0,0,1-.44-.25.35.35,0,0,1,.24-.44A.37.37,0,0,1,195,340.84Zm.52,1.8a.37.37,0,0,1-.25.45.36.36,0,0,1-.44-.25.35.35,0,0,1,.24-.44A.36.36,0,0,1,195.5,342.64Zm.24,2.26a.36.36,0,1,1-.15-.7.36.36,0,0,1,.15.7Zm-.48,1.42h0a.36.36,0,1,1,.25.44A.36.36,0,0,1,195.26,346.32Zm-.81,1.5h0a.35.35,0,0,1,.5,0,.36.36,0,0,1,0,.51h0a.36.36,0,0,1-.51,0A.35.35,0,0,1,194.45,347.82Zm-1.57,1.48a.36.36,0,1,1,.48.18A.36.36,0,0,1,192.88,349.3Zm-2-3.3a1,1,0,1,1,1.85-.53,1,1,0,0,1-1.85.53Zm-7.27-24.89a.35.35,0,0,1-.24.44.37.37,0,0,1-.45-.25.36.36,0,0,1,.25-.44A.36.36,0,0,1,183.64,321.11Zm.53,1.84a.36.36,0,0,1-.26.44.36.36,0,0,1-.18-.69.36.36,0,0,1,.44.25ZM191,349.51a.37.37,0,0,1,.37-.35.37.37,0,0,1,.35.37.36.36,0,0,1-.36.35A.37.37,0,0,1,191,349.51Zm-7.27-22.71h0a.36.36,0,1,1,.71.08h0a.36.36,0,0,1-.71-.08Zm.32,2a.36.36,0,1,1-.69-.21h0a.36.36,0,0,1,.69.21Zm5.18,20.11a.36.36,0,1,1,.64.32.36.36,0,0,1-.48.16A.35.35,0,0,1,189.25,348.92Zm-1.33-1.31a.36.36,0,1,1,.43.57.36.36,0,0,1-.43-.57Zm-.9-1.33a.36.36,0,0,1,0-.27.32.32,0,0,1,.22-.17.32.32,0,0,1,.27,0,.35.35,0,0,1,.14.48.39.39,0,0,1-.22.18.36.36,0,0,1-.27,0A.36.36,0,0,1,187,346.28Zm-5.32-14.41h0a.34.34,0,0,1,.5-.06.35.35,0,0,1,.07.5h0a.36.36,0,0,1-.57-.44Zm-6.13-6.14s3.51-2.13,4.08-2.29a1.07,1.07,0,1,1,.59,2.06C179.68,325.66,175.57,325.73,175.57,325.73Zm4.66,4.13a1.07,1.07,0,0,1-1.47.34c-.5-.31-3.31-3.3-3.31-3.3s3.93,1.17,4.44,1.48A1.08,1.08,0,0,1,180.23,329.86Zm.19,3.87a.36.36,0,0,1,0-.51h0a.35.35,0,0,1,.5,0,.36.36,0,0,1,0,.51h0A.35.35,0,0,1,180.42,333.73Zm3.72,13.59a.35.35,0,0,1-.44-.24.37.37,0,0,1,.25-.45.36.36,0,1,1,.19.69Zm-.06,1.53a.36.36,0,1,1,.37.35A.36.36,0,0,1,184.08,348.85Zm-.31,1.72a.36.36,0,0,1,.66.28h0a.35.35,0,0,1-.46.19A.35.35,0,0,1,183.77,350.57ZM179,334.32a.36.36,0,1,1,.37.61.36.36,0,0,1-.37-.61Zm3.81,17.7h0a.36.36,0,0,1,.5.52h0a.36.36,0,0,1-.51,0A.35.35,0,0,1,182.78,352Zm-5.68-16.43a.35.35,0,0,1,.21-.46h0a.35.35,0,0,1,.46.21.36.36,0,1,1-.67.25Zm-1.5-2.36a1.08,1.08,0,0,1-1.32-.73c-.16-.57-.23-4.67-.23-4.67s2.12,3.51,2.29,4.07A1.08,1.08,0,0,1,175.6,333.23Zm5.47,20.16a.37.37,0,0,1,.22-.46h0a.36.36,0,0,1,.46.22.35.35,0,0,1-.22.45h0A.36.36,0,0,1,181.07,353.39Zm-2-4a1,1,0,1,1,1.19.66A1,1,0,0,1,179,349.42Zm.14,4.06a.36.36,0,0,1,.39-.33h0a.36.36,0,1,1-.06.72h0A.36.36,0,0,1,179.17,353.48Zm-5.78-17a.36.36,0,0,1,.31-.4h0a.35.35,0,0,1,.4.31.36.36,0,1,1-.71.09Zm4,16.29a.37.37,0,0,1,.49-.14h0a.36.36,0,0,1-.35.63h0A.36.36,0,0,1,177.4,352.78Zm-1.33-1.36a.36.36,0,0,1,.5.07h0a.37.37,0,0,1-.07.51.37.37,0,0,1-.51-.08h0A.37.37,0,0,1,176.07,351.42Zm-3.87-14.88a.36.36,0,1,1-.34-.38h0A.36.36,0,0,1,172.2,336.54Zm2.93,13.55a.37.37,0,0,1,.25-.45.36.36,0,0,1,.44.25.35.35,0,0,1-.24.44A.36.36,0,0,1,175.13,350.09ZM169.51,333a1.08,1.08,0,0,1-.49-1.44c.26-.53,3-3.61,3-3.61s-.79,4-1.05,4.56A1.07,1.07,0,0,1,169.51,333Zm.09,3.21a.36.36,0,1,1,.27.43A.35.35,0,0,1,169.6,336.16Zm-2.42-6.9a1.06,1.06,0,0,1-1.32-.73,1.07,1.07,0,0,1,.73-1.33c.57-.16,4.67-.23,4.67-.23S167.75,329.1,167.18,329.26Zm1.29,6.51a.35.35,0,0,1-.47.19h0a.36.36,0,0,1-.19-.48.37.37,0,0,1,.48-.18h0A.36.36,0,0,1,168.47,335.77Zm4.12,14.93a.34.34,0,0,1-.22.17.32.32,0,0,1-.27,0,.33.33,0,0,1-.17-.21.32.32,0,0,1,0-.27.3.3,0,0,1,.21-.17.35.35,0,0,1,.28,0,.36.36,0,0,1,.17.21A.42.42,0,0,1,172.59,350.7Zm-.41,1.66a.35.35,0,0,1,.38-.33.36.36,0,0,1,.33.39h0a.35.35,0,0,1-.39.32A.34.34,0,0,1,172.18,352.36Zm-5.41-17.46a.36.36,0,1,1-.09-.5A.36.36,0,0,1,166.77,334.9ZM171.64,354a.36.36,0,0,1,.49-.12.35.35,0,0,1,.12.49h0a.35.35,0,0,1-.49.12A.36.36,0,0,1,171.64,354Zm-6.89-20.24a.36.36,0,0,1,.51-.51h0a.36.36,0,0,1-.51.51Zm5.7,21.47a.36.36,0,0,1,.5.1.36.36,0,1,1-.6.39A.35.35,0,0,1,170.45,355.2Zm-1.9,1a.36.36,0,1,1,.71-.1.36.36,0,0,1-.3.4h0A.35.35,0,0,1,168.55,356.21Zm-1-3.47a1,1,0,0,1,.66-1.19,1,1,0,0,1,.53,1.85A1,1,0,0,1,167.52,352.74Zm-.82,3.19a.36.36,0,0,1,.45-.24h0a.35.35,0,0,1,.24.44.36.36,0,0,1-.45.24h0A.35.35,0,0,1,166.7,355.93Zm-1.54-1.06a.34.34,0,0,1,.5,0,.35.35,0,0,1,0,.5.36.36,0,0,1-.51,0A.35.35,0,0,1,165.16,354.87ZM164,353.69a.37.37,0,0,1,.22-.46.36.36,0,0,1,.46.21h0a.36.36,0,0,1-.68.25Zm-.54-1.83a.36.36,0,0,1,.25-.44.35.35,0,0,1,.44.24.36.36,0,0,1-.24.45A.37.37,0,0,1,163.5,351.86Zm-.52-1.8a.37.37,0,0,1,.25-.45.36.36,0,0,1,.44.25.35.35,0,0,1-.24.44A.36.36,0,0,1,163,350.06Zm-.52-1.81a.37.37,0,0,1,.25-.45.36.36,0,0,1,.44.25.35.35,0,0,1-.24.44A.36.36,0,0,1,162.46,348.25Zm-.52-1.81a.36.36,0,0,1,.25-.44.35.35,0,0,1,.44.24.36.36,0,0,1-.24.45A.37.37,0,0,1,161.94,346.44Zm-.52-1.81a.36.36,0,0,1,.25-.44.36.36,0,0,1,.44.25.36.36,0,0,1-.69.19Zm-.52-1.8a.36.36,0,1,1,.69-.2.36.36,0,0,1-.25.44A.35.35,0,0,1,160.9,342.83Zm-.52-1.81a.35.35,0,0,1,.24-.44.36.36,0,0,1,.45.24.37.37,0,0,1-.25.45A.36.36,0,0,1,160.38,341Zm-.52-1.81a.35.35,0,0,1,.24-.44.36.36,0,0,1,.45.24.37.37,0,0,1-.25.45A.36.36,0,0,1,159.86,339.21Zm-.52-1.8a.36.36,0,0,1,.24-.45.37.37,0,0,1,.45.25.36.36,0,0,1-.25.44A.35.35,0,0,1,159.34,337.41Zm-.52-1.81a.36.36,0,0,1,.24-.45.37.37,0,0,1,.45.25.36.36,0,0,1-.25.44A.35.35,0,0,1,158.82,335.6Zm-.52-1.81a.35.35,0,0,1,.24-.44.36.36,0,0,1,.45.24.37.37,0,0,1-.25.45A.36.36,0,0,1,158.3,333.79Zm-.52-1.81a.35.35,0,0,1,.24-.44.36.36,0,0,1,.44.25.35.35,0,0,1-.24.44A.36.36,0,0,1,157.78,332Zm-.53-1.8a.37.37,0,0,1,.25-.45.36.36,0,0,1,.44.25.35.35,0,0,1-.24.44A.36.36,0,0,1,157.25,330.18Z"/><path class="cls-41" d="M108.11,361.25a5.94,5.94,0,0,0,11.86-.74h0a5.94,5.94,0,0,0,11.81-1.12h0a5.94,5.94,0,0,0,11.81-1.12h0l-2.52-26.53-1.12.1a.36.36,0,0,1-.71.07l-31.72,3a.38.38,0,0,1-.08.27.33.33,0,0,1-.25.12.35.35,0,0,1-.26-.08.36.36,0,0,1-.13-.24l-1.21.12,2.43,25.66A4.26,4.26,0,0,0,108.11,361.25Zm4.48-25.13a.36.36,0,1,1-.39-.32A.36.36,0,0,1,112.59,336.12Zm.27,1.84a.35.35,0,0,1-.26.43.35.35,0,0,1-.43-.26h0a.35.35,0,0,1,.26-.43.35.35,0,0,1,.43.26Zm.41,2.22a.36.36,0,1,1,.18-.47A.36.36,0,0,1,113.27,340.18ZM125,335.61a1.16,1.16,0,1,1-1.26-1A1.17,1.17,0,0,1,125,335.61Zm-1,10a.36.36,0,1,1,.07.71.36.36,0,0,1-.39-.32A.35.35,0,0,1,124,345.64Zm8.62-3.51h0a.37.37,0,0,1-.51.06.36.36,0,0,1-.06-.5h0a.35.35,0,0,1,.5-.07A.37.37,0,0,1,132.59,342.13Zm1.89-5.83a.37.37,0,0,1,.32.4.36.36,0,1,1-.71-.08h0A.35.35,0,0,1,134.48,336.3Zm5.72-2.6a.37.37,0,0,1-.33.4.37.37,0,0,1-.39-.33.36.36,0,0,1,.72-.07Zm.18,1.88a.37.37,0,0,1-.33.39.36.36,0,0,1-.39-.33.36.36,0,0,1,.32-.39A.37.37,0,0,1,140.38,335.58Zm.17,1.87a.35.35,0,0,1-.32.39.36.36,0,0,1-.39-.32.35.35,0,0,1,.32-.39A.35.35,0,0,1,140.55,337.45Zm.18,1.87a.36.36,0,0,1-.32.39.35.35,0,0,1-.39-.32.36.36,0,1,1,.71-.07Zm.18,1.87a.36.36,0,0,1-.72.07.36.36,0,0,1,.33-.39A.36.36,0,0,1,140.91,341.19Zm.17,1.88a.36.36,0,1,1-.71.06.36.36,0,0,1,.32-.39A.35.35,0,0,1,141.08,343.07Zm.18,1.87a.35.35,0,0,1-.32.39.36.36,0,0,1-.39-.32.35.35,0,0,1,.32-.39A.35.35,0,0,1,141.26,344.94Zm.18,1.87a.36.36,0,0,1-.32.39.35.35,0,0,1-.39-.32.36.36,0,1,1,.71-.07Zm.18,1.87a.36.36,0,0,1-.72.07.36.36,0,0,1,.33-.39A.36.36,0,0,1,141.62,348.68Zm.17,1.88a.36.36,0,0,1-.32.39.36.36,0,0,1-.07-.72A.35.35,0,0,1,141.79,350.56Zm.18,1.87a.36.36,0,0,1-.71.07.36.36,0,0,1,.32-.4A.37.37,0,0,1,142,352.43Zm.18,1.87a.36.36,0,0,1-.32.39.36.36,0,1,1-.07-.71A.36.36,0,0,1,142.15,354.3Zm.18,1.87a.37.37,0,0,1-.33.39.36.36,0,1,1-.06-.71A.36.36,0,0,1,142.33,356.17Zm-.19,2.27a.36.36,0,0,1-.36-.35.36.36,0,1,1,.71,0A.36.36,0,0,1,142.14,358.44Zm-.73,1.3h0a.35.35,0,0,1,.48-.16.34.34,0,0,1,.16.47.35.35,0,0,1-.48.17A.36.36,0,0,1,141.41,359.74Zm-1.07,1.32h0a.36.36,0,0,1,.5.06.37.37,0,0,1-.06.51h0a.36.36,0,0,1-.5-.06A.36.36,0,0,1,140.34,361.06Zm-1.82,1.17a.36.36,0,0,1,.27-.43.35.35,0,0,1,.43.27.35.35,0,0,1-.27.43A.37.37,0,0,1,138.52,362.23Zm-1.32-3.61a1,1,0,0,1,1.91-.18,1,1,0,1,1-1.91.18Zm-2.54-25.81a.36.36,0,0,1-.32.39.35.35,0,0,1-.39-.32.35.35,0,0,1,.32-.39A.36.36,0,0,1,134.66,332.81Zm.18,1.92a.36.36,0,1,1-.39-.34.37.37,0,0,1,.39.34Zm1.82,27.37a.35.35,0,0,1,.42-.28.36.36,0,1,1-.15.7A.35.35,0,0,1,136.66,362.1Zm-2.95-23.67h0a.36.36,0,0,1,.45-.24.35.35,0,0,1,.24.44h0a.36.36,0,0,1-.45.24A.35.35,0,0,1,133.71,338.43Zm-.06,2a.36.36,0,1,1-.63-.33h0a.36.36,0,0,1,.48-.15A.35.35,0,0,1,133.65,340.46ZM135,361.18a.37.37,0,0,1,.51-.07.36.36,0,0,1-.44.58A.37.37,0,0,1,135,361.18ZM134,359.65a.36.36,0,0,1,.48.16.36.36,0,0,1-.16.48.36.36,0,0,1-.48-.16A.35.35,0,0,1,134,359.65Zm-.64-1.47a.36.36,0,0,1,.32-.39.38.38,0,0,1,.27.08.38.38,0,0,1,.13.24.41.41,0,0,1-.09.26.32.32,0,0,1-.24.13.35.35,0,0,1-.26-.08A.38.38,0,0,1,133.32,358.18ZM130.76,343h0a.36.36,0,0,1,.48.54h0a.36.36,0,0,1-.48-.54Zm-4.88-7.17s3.84-1.44,4.43-1.49a1.07,1.07,0,0,1,.2,2.13C129.92,336.56,125.88,335.86,125.88,335.86Zm3.81,4.92a1.06,1.06,0,0,1-1.51.07c-.44-.4-2.64-3.86-2.64-3.86s3.65,1.88,4.08,2.28A1.06,1.06,0,0,1,129.69,340.78Zm-.53,3.84a.35.35,0,0,1,.12-.49h0a.36.36,0,1,1,.37.61h0A.36.36,0,0,1,129.16,344.62Zm1.14,14.05a.36.36,0,0,1-.39-.32.36.36,0,0,1,.72-.07A.37.37,0,0,1,130.3,358.67Zm-.34,1.49a.36.36,0,0,1,.41-.3.36.36,0,0,1-.11.71A.35.35,0,0,1,130,360.16Zm-.63,1.64a.36.36,0,0,1,.5-.11.37.37,0,0,1,.1.5h0a.35.35,0,0,1-.49.1A.35.35,0,0,1,129.33,361.8Zm-1.71-16.87a.36.36,0,0,1,.25.68.36.36,0,0,1-.25-.68Zm.48,18.1h0a.35.35,0,0,1,.49.11.35.35,0,0,1-.1.49h0a.37.37,0,0,1-.5-.1A.36.36,0,0,1,128.1,363Zm-2.55-17.19a.37.37,0,0,1,.29-.42h0a.36.36,0,1,1-.29.42Zm-1-2.6a1.08,1.08,0,0,1-1.17-1c0-.58.64-4.63.64-4.63s1.44,3.84,1.49,4.43A1.07,1.07,0,0,1,124.52,343.24Zm1.64,20.82a.36.36,0,0,1,.3-.41h0a.36.36,0,0,1,.41.3.35.35,0,0,1-.3.41h0A.35.35,0,0,1,126.16,364.06Zm-1.27-4.27a1,1,0,1,1,1,.86A1,1,0,0,1,124.89,359.79Zm-.61,4a.36.36,0,0,1,.44-.25h0a.36.36,0,0,1,.25.44.36.36,0,0,1-.44.25h0A.34.34,0,0,1,124.28,363.8ZM121.74,346a.36.36,0,0,1,.38-.34h0a.36.36,0,1,1,0,.71A.36.36,0,0,1,121.74,346Zm.92,16.75a.36.36,0,0,1,.51-.05h0a.35.35,0,0,1,0,.5.34.34,0,0,1-.5.05h0A.36.36,0,0,1,122.66,362.79Zm-1.06-1.59a.36.36,0,0,1,.48.17h0a.35.35,0,0,1-.16.48.36.36,0,0,1-.48-.17h0A.36.36,0,0,1,121.6,361.2Zm-1-15.34a.36.36,0,0,1-.44.26.35.35,0,0,1-.26-.43.36.36,0,0,1,.43-.26h0A.36.36,0,0,1,120.56,345.86Zm.38,13.86a.36.36,0,0,1,.71-.07.36.36,0,0,1-.32.39A.35.35,0,0,1,120.94,359.72Zm-2.36-17.89a1.07,1.07,0,0,1-.21-1.5c.35-.47,3.58-3,3.58-3s-1.51,3.81-1.87,4.29A1.07,1.07,0,0,1,118.58,341.83Zm-.5,3.18a.36.36,0,1,1,.18.47A.35.35,0,0,1,118.08,345Zm-1.1-7.23a1.06,1.06,0,0,1-1.17-1,1.07,1.07,0,0,1,1-1.17c.59-.06,4.64.64,4.64.64S117.56,337.73,117,337.78Zm.06,6.64a.37.37,0,0,1-.5.09h0a.35.35,0,0,1-.09-.5.35.35,0,0,1,.49-.09h0A.36.36,0,0,1,117,344.42Zm1.28,15.43a.34.34,0,0,1-.24.13.38.38,0,0,1-.27-.08.33.33,0,0,1-.12-.24.34.34,0,0,1,.08-.26.32.32,0,0,1,.24-.13.35.35,0,0,1,.26.08.38.38,0,0,1,.13.24A.34.34,0,0,1,118.32,359.85Zm-.71,1.55a.36.36,0,0,1,.44-.25.36.36,0,0,1,.25.44h0a.34.34,0,0,1-.44.25A.35.35,0,0,1,117.61,361.4Zm-2.08-18.15a.37.37,0,0,1-.51,0,.35.35,0,0,1,0-.5.36.36,0,1,1,.51.51Zm1.25,19.64a.36.36,0,1,1,.54.48h0a.36.36,0,0,1-.54-.48Zm-3-21.17a.36.36,0,0,1,.59-.4h0a.36.36,0,0,1-.09.5A.36.36,0,0,1,113.76,341.72Zm1.63,22.15a.36.36,0,0,1,.27.67.36.36,0,0,1-.27-.67Zm-2.06.65a.37.37,0,0,1,.37-.35.37.37,0,0,1,.35.38.36.36,0,0,1-.37.34h0A.36.36,0,0,1,113.33,364.52Zm-.37-3.6a1,1,0,1,1,1.91-.18,1,1,0,0,1-.86,1A1,1,0,0,1,113,360.92Zm-1.39,3a.35.35,0,0,1,.48-.16h0a.35.35,0,0,1,.15.49.36.36,0,0,1-.48.15h0A.36.36,0,0,1,111.57,363.9Zm-1.32-1.33a.36.36,0,0,1,.5.07.36.36,0,1,1-.58.43A.37.37,0,0,1,110.25,362.57Zm-.88-1.36a.36.36,0,0,1,.71-.12h0a.36.36,0,0,1-.3.41A.35.35,0,0,1,109.37,361.21Zm-.19-1.9a.35.35,0,0,1,.32-.39.36.36,0,0,1,.39.32.35.35,0,0,1-.32.39A.35.35,0,0,1,109.18,359.31Zm-.18-1.87a.36.36,0,0,1,.32-.39.35.35,0,0,1,.39.32.36.36,0,1,1-.71.07Zm-.18-1.87a.36.36,0,0,1,.72-.07.36.36,0,0,1-.33.39A.36.36,0,0,1,108.82,355.57Zm-.17-1.88a.36.36,0,0,1,.32-.39.36.36,0,0,1,.07.72A.35.35,0,0,1,108.65,353.69Zm-.18-1.87a.36.36,0,0,1,.71-.07.36.36,0,0,1-.32.4A.37.37,0,0,1,108.47,351.82Zm-.18-1.87a.36.36,0,0,1,.32-.39.36.36,0,1,1,.07.71A.35.35,0,0,1,108.29,350Zm-.18-1.87a.37.37,0,0,1,.33-.39.36.36,0,1,1,.06.71A.36.36,0,0,1,108.11,348.08Zm-.17-1.87a.36.36,0,0,1,.32-.4.36.36,0,0,1,.07.72A.36.36,0,0,1,107.94,346.21Zm-.18-1.88a.36.36,0,0,1,.32-.39.36.36,0,0,1,.07.72A.37.37,0,0,1,107.76,344.33Zm-.18-1.87a.36.36,0,0,1,.33-.39.36.36,0,0,1,.39.32.36.36,0,0,1-.72.07Zm-.18-1.87a.37.37,0,0,1,.33-.39.36.36,0,1,1,.07.71A.36.36,0,0,1,107.4,340.59Zm-.17-1.87a.35.35,0,0,1,.32-.39.36.36,0,1,1,.07.71A.36.36,0,0,1,107.23,338.72Zm-.18-1.88a.36.36,0,0,1,.32-.39.36.36,0,0,1,.07.72A.36.36,0,0,1,107.05,336.84Z"/><path class="cls-42" d="M50.48,361.25a5.95,5.95,0,0,0,11.85.93h0a5.94,5.94,0,0,0,11.84.55h0a5.94,5.94,0,0,0,11.84.55h0l1.24-26.63-1.13,0a.37.37,0,0,1-.12.25.34.34,0,0,1-.25.09.33.33,0,0,1-.25-.12.35.35,0,0,1-.1-.25l-31.82-1.48a.37.37,0,0,1-.12.25.35.35,0,0,1-.26.09.34.34,0,0,1-.34-.37L51.72,335l-1.19,25.75A4,4,0,0,0,50.48,361.25Zm8-24.25a.36.36,0,0,1-.71,0,.36.36,0,1,1,.71,0Zm0,1.86a.35.35,0,0,1-.32.39.36.36,0,0,1-.39-.32h0a.36.36,0,0,1,.71-.07Zm.09,2.26a.36.36,0,0,1-.19-.69.35.35,0,0,1,.44.24A.37.37,0,0,1,58.54,341.12Zm12.27-2.88A1.16,1.16,0,1,1,69.7,337,1.15,1.15,0,0,1,70.81,338.24ZM68.37,348a.36.36,0,1,1-.37.34A.36.36,0,0,1,68.37,348Zm9-2.27h0a.36.36,0,0,1-.51,0,.35.35,0,0,1,0-.51h0a.36.36,0,0,1,.5.52Zm2.69-5.5a.36.36,0,1,1-.18.69.35.35,0,0,1-.26-.43h0A.37.37,0,0,1,80.09,340.25Zm6-1.77a.35.35,0,0,1-.37.34.36.36,0,1,1,.37-.34ZM86,340.36a.36.36,0,1,1-.72,0,.36.36,0,0,1,.37-.34A.37.37,0,0,1,86,340.36Zm-.09,1.88a.36.36,0,1,1-.72,0,.36.36,0,0,1,.38-.34A.37.37,0,0,1,85.94,342.24Zm-.09,1.87a.36.36,0,0,1-.37.35.36.36,0,0,1-.34-.38.34.34,0,0,1,.37-.34A.36.36,0,0,1,85.85,344.11ZM85.76,346a.36.36,0,1,1-.71,0,.36.36,0,0,1,.71,0Zm-.08,1.88a.36.36,0,0,1-.38.34.35.35,0,0,1-.34-.37.36.36,0,0,1,.72,0Zm-.09,1.88a.36.36,0,1,1-.34-.37A.35.35,0,0,1,85.59,349.75Zm-.09,1.88a.35.35,0,0,1-.37.34.36.36,0,0,1-.34-.37.37.37,0,0,1,.37-.35A.36.36,0,0,1,85.5,351.63Zm-.08,1.88a.36.36,0,1,1-.72,0,.36.36,0,0,1,.37-.34A.37.37,0,0,1,85.42,353.51Zm-.09,1.88A.36.36,0,1,1,85,355,.36.36,0,0,1,85.33,355.39Zm-.09,1.88a.36.36,0,0,1-.37.34.36.36,0,0,1-.34-.38.34.34,0,0,1,.37-.34A.36.36,0,0,1,85.24,357.27Zm-.09,1.87a.36.36,0,1,1-.34-.37A.36.36,0,0,1,85.15,359.14ZM85.07,361a.36.36,0,0,1-.38.34.35.35,0,0,1-.34-.37.36.36,0,0,1,.38-.34A.36.36,0,0,1,85.07,361Zm-.5,2.22a.35.35,0,0,1-.31-.4.34.34,0,0,1,.39-.31.36.36,0,0,1,.32.4A.37.37,0,0,1,84.57,363.24Zm-.91,1.19h0a.36.36,0,0,1,.5-.1.36.36,0,0,1,.09.5.36.36,0,0,1-.59-.4Zm-1.25,1.16h0a.36.36,0,0,1,.36.62h0a.36.36,0,1,1-.36-.62Zm-2,.9a.36.36,0,0,1,.72-.07.35.35,0,0,1-.33.39A.36.36,0,0,1,80.45,366.49Zm-.8-3.76a1,1,0,1,1,1.91.09,1,1,0,1,1-1.91-.09Zm1.1-25.91a.35.35,0,0,1-.37.34.36.36,0,1,1,.37-.34Zm-.09,1.92a.35.35,0,0,1-.38.33.34.34,0,0,1-.33-.38.36.36,0,1,1,.71.05Zm-2,27.35a.36.36,0,0,1,.46-.21.35.35,0,0,1,.22.46.36.36,0,0,1-.68-.25ZM79,342.24h0a.36.36,0,0,1,.65.31h0a.36.36,0,1,1-.65-.31Zm-.35,2a.36.36,0,1,1-.58-.41h0a.36.36,0,1,1,.58.41ZM77.13,365a.36.36,0,1,1,0,.51A.36.36,0,0,1,77.13,365Zm-.84-1.67a.37.37,0,0,1,.46.23.36.36,0,0,1-.23.45.35.35,0,0,1-.45-.23A.35.35,0,0,1,76.29,363.29Zm-.42-1.54a.37.37,0,0,1,.12-.25.35.35,0,0,1,.26-.1.37.37,0,0,1,.24.12.35.35,0,0,1,.1.26.42.42,0,0,1-.12.25.39.39,0,0,1-.26.09A.37.37,0,0,1,76,362,.38.38,0,0,1,75.87,361.75Zm-.41-15.36h0a.36.36,0,0,1,.4.6h0a.36.36,0,0,1-.4-.6Zm-3.83-7.78s4-.89,4.6-.86a1.07,1.07,0,1,1-.1,2.14C75.54,339.86,71.63,338.61,71.63,338.61Zm3.09,5.4a1.08,1.08,0,0,1-1.51-.14c-.38-.46-2.07-4.19-2.07-4.19s3.34,2.37,3.72,2.82A1.08,1.08,0,0,1,74.72,344Zm-1.07,3.73a.36.36,0,0,1,.19-.47h0a.35.35,0,0,1,.47.19.36.36,0,0,1-.19.47h0A.37.37,0,0,1,73.65,347.74Zm-.84,14.07a.36.36,0,0,1-.34-.38.36.36,0,0,1,.72,0A.36.36,0,0,1,72.81,361.81Zm-.55,1.43a.36.36,0,0,1,.45-.24.36.36,0,1,1-.21.69A.36.36,0,0,1,72.26,363.24Zm-.85,1.53a.36.36,0,1,1,.54.47h0a.36.36,0,0,1-.54-.47Zm.67-16.94a.36.36,0,1,1-.27.43A.37.37,0,0,1,72.08,347.83Zm-2.06,18h0a.34.34,0,0,1,.47.17.35.35,0,0,1-.17.48h0a.37.37,0,0,1-.48-.18A.36.36,0,0,1,70,365.82Zm-.11-17.38a.35.35,0,0,1,.35-.37h0a.36.36,0,0,1,.37.34.36.36,0,0,1-.35.37A.35.35,0,0,1,69.91,348.44Zm-.66-2.72a1.07,1.07,0,0,1-1-1.12c0-.59,1.28-4.5,1.28-4.5s.89,4,.86,4.6A1.07,1.07,0,0,1,69.25,345.72ZM68,366.56a.35.35,0,0,1,.35-.36h0a.36.36,0,0,1,.36.36.35.35,0,0,1-.35.36h0A.36.36,0,0,1,68,366.56Zm-.66-4.4a1,1,0,1,1,1.92.08,1,1,0,0,1-1,.92A1,1,0,0,1,67.3,362.16ZM66.13,366a.35.35,0,0,1,.47-.18h0a.36.36,0,1,1-.29.65h0A.36.36,0,0,1,66.13,366Zm0-17.94a.35.35,0,0,1,.42-.28h0a.36.36,0,0,1,.28.42.36.36,0,0,1-.42.28A.35.35,0,0,1,66.11,348.1Zm-1.44,16.71a.36.36,0,0,1,.51,0h0a.35.35,0,0,1,0,.5.34.34,0,0,1-.5,0h0A.35.35,0,0,1,64.67,364.81Zm-.83-1.71a.37.37,0,0,1,.46.23h0a.36.36,0,0,1-.68.22h0A.35.35,0,0,1,63.84,363.1ZM65,347.76a.36.36,0,1,1-.67-.27.37.37,0,0,1,.47-.2h0A.37.37,0,0,1,65,347.76Zm-1.57,13.77a.36.36,0,1,1,.72,0,.36.36,0,0,1-.38.34A.37.37,0,0,1,63.39,361.53Zm.18-18a1.06,1.06,0,0,1,0-1.51c.41-.42,4-2.47,4-2.47s-2,3.56-2.46,4A1.06,1.06,0,0,1,63.57,343.49Zm-1,3.08a.36.36,0,0,1,.5-.11.35.35,0,0,1,.11.49.35.35,0,0,1-.49.11A.36.36,0,0,1,62.62,346.57Zm-.07-7.31a1.07,1.07,0,1,1,.1-2.14c.59,0,4.49,1.28,4.49,1.28S63.14,339.29,62.55,339.26Zm-.87,6.58a.37.37,0,0,1-.51,0h0a.35.35,0,0,1,0-.51.37.37,0,0,1,.51,0h0A.37.37,0,0,1,61.68,345.84Zm-.9,15.46a.35.35,0,0,1-.26.09.36.36,0,0,1-.25-.11.41.41,0,0,1-.09-.26.37.37,0,0,1,.12-.25.35.35,0,0,1,.26-.09.32.32,0,0,1,.24.11.35.35,0,0,1,0,.51Zm-.92,1.43a.36.36,0,0,1,.47-.18.36.36,0,0,1,.19.47h0a.36.36,0,0,1-.48.18A.35.35,0,0,1,59.86,362.73Zm.49-18.27a.36.36,0,1,1,.07-.5A.35.35,0,0,1,60.35,344.46Zm-1.51,19.63a.35.35,0,0,1,.5,0,.36.36,0,0,1,0,.51h0a.35.35,0,0,1-.51-.05A.34.34,0,0,1,58.84,364.09Zm0-21.38a.36.36,0,0,1,.16-.48.35.35,0,0,1,.48.16h0a.36.36,0,0,1-.64.32Zm-1.49,22.16a.36.36,0,0,1,.18.69.36.36,0,1,1-.18-.69Zm-2.13.35a.36.36,0,0,1,.42-.29.37.37,0,0,1,.29.42.38.38,0,0,1-.42.29h0A.36.36,0,0,1,55.19,365.22Zm.14-3.62a1,1,0,0,1,1-.91,1,1,0,1,1-1,.91Zm-1.8,2.76a.36.36,0,0,1,.5-.09h0a.36.36,0,0,1,.08.5.36.36,0,0,1-.5.09h0A.36.36,0,0,1,53.53,364.36Zm-1.12-1.5a.35.35,0,0,1,.48.14.36.36,0,1,1-.62.35A.35.35,0,0,1,52.41,362.86Zm-.68-1.47a.36.36,0,1,1,.72,0h0a.36.36,0,0,1-.72,0Zm.08-1.91a.35.35,0,0,1,.37-.34.36.36,0,0,1,.34.37.37.37,0,0,1-.37.35A.36.36,0,0,1,51.81,359.48Zm.08-1.88a.36.36,0,1,1,.72,0,.36.36,0,0,1-.37.34A.37.37,0,0,1,51.89,357.6Zm.09-1.88a.36.36,0,1,1,.34.38A.37.37,0,0,1,52,355.72Zm.09-1.88a.36.36,0,0,1,.37-.34.36.36,0,0,1,.34.38.34.34,0,0,1-.37.34A.36.36,0,0,1,52.07,353.84Zm.09-1.87a.36.36,0,1,1,.34.37A.36.36,0,0,1,52.16,352Zm.08-1.88a.36.36,0,0,1,.38-.34.34.34,0,0,1,.34.37.36.36,0,0,1-.72,0Zm.09-1.88a.36.36,0,1,1,.34.37A.35.35,0,0,1,52.33,348.21Zm.09-1.88a.35.35,0,0,1,.37-.34.36.36,0,0,1,.34.37.35.35,0,0,1-.37.34A.34.34,0,0,1,52.42,346.33Zm.08-1.88a.36.36,0,0,1,.72,0,.36.36,0,1,1-.72,0Zm.09-1.88a.36.36,0,0,1,.38-.34.36.36,0,1,1,0,.72A.36.36,0,0,1,52.59,342.57Zm.09-1.88a.36.36,0,0,1,.37-.34.36.36,0,0,1,.34.38.35.35,0,0,1-.37.34A.36.36,0,0,1,52.68,340.69Zm.09-1.87a.35.35,0,0,1,.37-.35.36.36,0,1,1-.37.35Zm.08-1.88a.37.37,0,0,1,.38-.35.37.37,0,0,1,.34.38.36.36,0,0,1-.38.34A.36.36,0,0,1,52.85,336.94Z"/><path class="cls-41" d="M.86,354.51a5.94,5.94,0,0,0,11.68,2.18h0A5.94,5.94,0,0,0,24.3,358.5h0A5.94,5.94,0,0,0,36,360.3h0l4-26.35L39,333.79a.36.36,0,0,1-.15.23.35.35,0,0,1-.26.07.42.42,0,0,1-.24-.14.37.37,0,0,1-.06-.27L6.8,328.83a.38.38,0,0,1-.15.24.34.34,0,0,1-.26.06.33.33,0,0,1-.24-.14.34.34,0,0,1-.06-.26l-1.21-.19L1,354C.92,354.18.89,354.34.86,354.51Zm10.49-23.27a.35.35,0,0,1-.41.3.36.36,0,0,1-.3-.41.37.37,0,0,1,.41-.3A.35.35,0,0,1,11.35,331.24Zm-.18,1.85a.36.36,0,0,1-.37.35.35.35,0,0,1-.35-.36h0a.34.34,0,0,1,.36-.35.36.36,0,0,1,.36.36ZM11,335.34a.36.36,0,0,1-.42-.29.36.36,0,0,1,.3-.41.35.35,0,0,1,.41.29A.36.36,0,0,1,11,335.34Zm12.5-1.56a1.16,1.16,0,1,1-1-1.32A1.15,1.15,0,0,1,23.52,333.78Zm-3.46,9.47a.35.35,0,0,1,.3.41.36.36,0,1,1-.71-.11A.35.35,0,0,1,20.06,343.25Zm9.21-1.3h0a.36.36,0,1,1-.44-.56h0a.34.34,0,0,1,.5.06A.35.35,0,0,1,29.27,342Zm3.26-5.18a.35.35,0,0,1,.21.46.35.35,0,0,1-.46.21.36.36,0,0,1-.21-.46h0A.35.35,0,0,1,32.53,336.77Zm6.18-1.12a.36.36,0,0,1-.41.3.37.37,0,0,1-.3-.41.36.36,0,0,1,.71.11Zm-.29,1.86a.35.35,0,1,1-.7-.11.35.35,0,0,1,.4-.3A.35.35,0,0,1,38.42,337.51Zm-.28,1.86a.36.36,0,0,1-.71-.11.35.35,0,0,1,.41-.3A.36.36,0,0,1,38.14,339.37Zm-.29,1.85a.35.35,0,0,1-.41.3.36.36,0,0,1-.3-.41.36.36,0,0,1,.71.11Zm-.28,1.86a.36.36,0,0,1-.41.3.35.35,0,0,1-.3-.41.36.36,0,0,1,.41-.3A.37.37,0,0,1,37.57,343.08Zm-.29,1.86a.35.35,0,0,1-.41.3.36.36,0,1,1,.41-.3ZM37,346.8a.35.35,0,0,1-.4.3.36.36,0,1,1,.4-.3Zm-.28,1.86a.36.36,0,1,1-.3-.41A.36.36,0,0,1,36.71,348.66Zm-.29,1.86a.36.36,0,0,1-.41.3.37.37,0,0,1-.3-.41.36.36,0,0,1,.41-.3A.35.35,0,0,1,36.42,350.52Zm-.28,1.86a.37.37,0,0,1-.41.3.36.36,0,0,1-.3-.41.35.35,0,0,1,.41-.3A.36.36,0,0,1,36.14,352.38Zm-.29,1.86a.36.36,0,0,1-.41.3.37.37,0,0,1-.3-.41.36.36,0,0,1,.71.11Zm-.29,1.85a.35.35,0,1,1-.3-.4A.35.35,0,0,1,35.56,356.09ZM35.28,358a.36.36,0,0,1-.71-.11.36.36,0,0,1,.41-.3A.37.37,0,0,1,35.28,358Zm-.73,2.15a.35.35,0,0,1-.27-.43.35.35,0,0,1,.43-.26.36.36,0,0,1,.27.43A.36.36,0,0,1,34.55,360.1Zm-1,1.09h0a.35.35,0,1,1,0,.5A.35.35,0,0,1,33.52,361.19Zm-1.37,1h0a.37.37,0,0,1,.48.18.36.36,0,0,1-.19.47h0a.35.35,0,0,1-.47-.18A.36.36,0,0,1,32.15,362.21Zm-2,.69a.36.36,0,1,1,.35.36A.36.36,0,0,1,30.11,362.9Zm-.4-3.83a1,1,0,1,1,.8,1.1A1,1,0,0,1,29.71,359.07Zm3.85-25.64a.37.37,0,0,1-.41.3.36.36,0,1,1,.11-.71A.36.36,0,0,1,33.56,333.43Zm-.3,1.9a.36.36,0,0,1-.41.29.36.36,0,0,1-.29-.42.36.36,0,0,1,.41-.29.36.36,0,0,1,.29.42Zm-4.93,27a.36.36,0,0,1,.65.31.36.36,0,0,1-.48.17A.37.37,0,0,1,28.33,362.31Zm2.94-23.67h0a.36.36,0,1,1,.61.37h0a.36.36,0,0,1-.61-.37Zm-.56,2a.36.36,0,0,1-.51,0,.37.37,0,0,1,0-.51h0a.37.37,0,0,1,.51,0A.36.36,0,0,1,30.71,340.6ZM27,361a.36.36,0,1,1,0,.5A.35.35,0,0,1,27,361Zm-.66-1.76a.37.37,0,0,1,.43.28.37.37,0,0,1-.27.43.36.36,0,0,1-.43-.28A.37.37,0,0,1,26.31,359.27Zm-.25-1.57a.33.33,0,0,1,.14-.24.36.36,0,0,1,.27-.06.33.33,0,0,1,.23.14.36.36,0,0,1,.07.27.39.39,0,0,1-.15.23.3.3,0,0,1-.26.06.33.33,0,0,1-.24-.14A.34.34,0,0,1,26.06,357.7Zm1.22-15.32h0a.36.36,0,0,1,.48.16.35.35,0,0,1-.15.48h0a.36.36,0,0,1-.33-.64Zm-3-8.14s4.07-.46,4.66-.37a1.07,1.07,0,0,1-.33,2.12C28.05,335.9,24.3,334.24,24.3,334.24Zm2.49,5.7a1.06,1.06,0,0,1-1.48-.3c-.33-.5-1.62-4.39-1.62-4.39s3.08,2.71,3.41,3.21A1.07,1.07,0,0,1,26.79,339.94Zm-1.46,3.59a.37.37,0,0,1,.24-.45h0a.37.37,0,0,1,.45.24.36.36,0,0,1-.24.45h0A.36.36,0,0,1,25.33,343.53ZM23,357.43a.35.35,0,0,1-.3-.4.35.35,0,0,1,.41-.3.36.36,0,0,1,.3.41A.35.35,0,0,1,23,357.43Zm-.7,1.37a.36.36,0,1,1,.19.47A.36.36,0,0,1,22.31,358.8Zm-1,1.43a.35.35,0,0,1,.51,0,.34.34,0,0,1,0,.5h0a.36.36,0,0,1-.51,0A.37.37,0,0,1,21.3,360.23Zm2.47-16.77a.36.36,0,0,1,.39.32.34.34,0,0,1-.31.39.36.36,0,1,1-.08-.71Zm-4,17.66h0a.37.37,0,0,1,.46.23.35.35,0,0,1-.23.45h0a.35.35,0,0,1-.45-.22A.36.36,0,0,1,19.8,361.12Zm1.74-17.29a.36.36,0,0,1,.38-.33h0a.36.36,0,1,1-.38.33Zm-.36-2.77a1.07,1.07,0,0,1-.9-1.22c.09-.59,1.75-4.34,1.75-4.34s.46,4.08.37,4.66A1.07,1.07,0,0,1,21.18,341.06Zm-3.5,20.59a.36.36,0,0,1,.39-.33h0a.37.37,0,0,1,.32.4A.36.36,0,0,1,18,362h0A.36.36,0,0,1,17.68,361.65Zm-.19-4.46a1,1,0,1,1,.8,1.1A1,1,0,0,1,17.49,357.19Zm-1.58,3.74a.36.36,0,0,1,.49-.13h0a.36.36,0,0,1,.13.49.35.35,0,0,1-.48.13h0A.35.35,0,0,1,15.91,360.93Zm1.89-17.84a.37.37,0,0,1,.45-.24h0a.36.36,0,0,1-.22.69A.35.35,0,0,1,17.8,343.09Zm-3.21,16.47a.37.37,0,0,1,.51.07h0a.38.38,0,0,1-.08.51.36.36,0,0,1-.5-.08h0A.36.36,0,0,1,14.59,359.56Zm-.63-1.8a.36.36,0,0,1,.42.28h0a.37.37,0,0,1-.27.43.37.37,0,0,1-.43-.28h0A.37.37,0,0,1,14,357.76Zm2.73-15.13a.36.36,0,0,1-.63-.33.34.34,0,0,1,.48-.15h0A.34.34,0,0,1,16.69,342.63Zm-3,13.53a.36.36,0,0,1,.41-.3.36.36,0,1,1-.41.3Zm2.09-17.92a1.07,1.07,0,0,1,.16-1.5c.46-.38,4.21-2,4.21-2s-2.4,3.33-2.86,3.7A1.08,1.08,0,0,1,15.76,338.24Zm-1.26,3a.35.35,0,0,1,.5-.06.36.36,0,1,1-.45.56A.35.35,0,0,1,14.5,341.2Zm.7-7.28a1.07,1.07,0,1,1,.32-2.11c.59.09,4.34,1.75,4.34,1.75S15.78,334,15.2,333.92Zm-1.57,6.45a.36.36,0,0,1-.51,0h0a.36.36,0,0,1,0-.51.35.35,0,0,1,.5,0h0A.35.35,0,0,1,13.63,340.37ZM11.1,355.65a.37.37,0,0,1-.27.07.36.36,0,0,1-.23-.15.35.35,0,0,1-.07-.26.38.38,0,0,1,.15-.24.34.34,0,0,1,.26-.06.33.33,0,0,1,.24.14.36.36,0,0,1,.06.27A.31.31,0,0,1,11.1,355.65ZM10,357a.36.36,0,0,1,.49-.13.35.35,0,0,1,.13.48h0a.34.34,0,0,1-.48.14A.35.35,0,0,1,10,357Zm2.43-18.12a.36.36,0,1,1-.37-.61.36.36,0,0,1,.37.61ZM8.87,358.22a.36.36,0,1,1,.4.59h0a.36.36,0,1,1-.4-.59ZM11.11,337a.36.36,0,0,1,.22-.46.35.35,0,0,1,.46.21h0a.36.36,0,0,1-.21.46A.37.37,0,0,1,11.11,337ZM7.28,358.83a.36.36,0,1,1-.31.41A.37.37,0,0,1,7.28,358.83ZM5.12,359a.37.37,0,0,1,.45-.25.36.36,0,0,1,.24.45.35.35,0,0,1-.44.24h0A.36.36,0,0,1,5.12,359Zm.53-3.59a1,1,0,1,1,.8,1.1A1,1,0,0,1,5.65,355.37Zm-2.08,2.55a.35.35,0,0,1,.5,0h0a.36.36,0,0,1-.47.54h0A.35.35,0,0,1,3.57,357.92Zm-1-1.61a.36.36,0,0,1,.47.2.35.35,0,0,1-.2.46.35.35,0,0,1-.46-.19A.36.36,0,0,1,2.61,356.31Zm-.52-1.53a.36.36,0,0,1,.72.05h0a.36.36,0,0,1-.72-.05Zm.28-1.89a.35.35,0,0,1,.41-.3.36.36,0,0,1-.11.71A.35.35,0,0,1,2.37,352.89ZM2.66,351a.35.35,0,1,1,.7.11.35.35,0,0,1-.4.3A.35.35,0,0,1,2.66,351Zm.28-1.86a.36.36,0,1,1,.71.11.35.35,0,0,1-.41.3A.36.36,0,0,1,2.94,349.17Zm.29-1.86a.36.36,0,0,1,.41-.3.37.37,0,0,1,.3.41.36.36,0,0,1-.41.3A.35.35,0,0,1,3.23,347.31Zm.28-1.86a.37.37,0,0,1,.41-.3.36.36,0,0,1,.3.41.35.35,0,0,1-.41.3A.36.36,0,0,1,3.51,345.45Zm.29-1.85a.36.36,0,1,1,.3.4A.35.35,0,0,1,3.8,343.6Zm.29-1.86a.35.35,0,0,1,.4-.3.36.36,0,0,1-.1.71A.36.36,0,0,1,4.09,341.74Zm.28-1.86a.36.36,0,1,1,.71.11.36.36,0,0,1-.41.3A.37.37,0,0,1,4.37,339.88ZM4.66,338a.35.35,0,0,1,.41-.3.36.36,0,0,1,.3.41.37.37,0,0,1-.41.3A.35.35,0,0,1,4.66,338Zm.28-1.86a.36.36,0,0,1,.41-.3.36.36,0,0,1-.11.71A.36.36,0,0,1,4.94,336.16Zm.29-1.86a.36.36,0,1,1,.71.11.36.36,0,0,1-.71-.11Zm.29-1.86a.35.35,0,1,1,.7.11.35.35,0,0,1-.4.3A.35.35,0,0,1,5.52,332.44Zm.28-1.86a.36.36,0,0,1,.71.11.35.35,0,0,1-.41.3A.36.36,0,0,1,5.8,330.58Z"/><rect class="cls-38" x="85.37" y="288.79" width="341.05" height="5.77"/><rect class="cls-82" x="484.57" y="423.4" width="26.01" height="22.4"/><path class="cls-82" d="M501.35,428.74h-8.76c-16.13,0-29.78-10.23-31.91-23.92L456.49,378C452.71,353.72,471,336.83,497,336.83h0c26,0,44.26,16.89,40.48,41.13l-4.19,26.86C531.13,418.51,517.49,428.74,501.35,428.74Z"/><path class="cls-83" d="M510.58,427.72a27.52,27.52,0,0,1-10.39,2h-7.5"/><polygon class="cls-14" points="471.86 491.16 523 491.16 512.13 436.99 482.72 436.99 471.86 491.16"/><line class="cls-84" x1="503.72" y1="381.83" x2="503.72" y2="385.66"/><path class="cls-85" d="M523,450.53s20.29,8.55,24,31c0,0,7,25.15-12.29,27.28"/><rect class="cls-86" x="484.57" y="403.66" width="7.45" height="13.66" rx="3.72"/><line class="cls-84" x1="479.15" y1="381.83" x2="479.15" y2="385.66"/><path class="cls-8" d="M484.83,399.29h6.94a10.63,10.63,0,0,1,10.63,10.63v0a0,0,0,0,1,0,0H474.2a0,0,0,0,1,0,0v0A10.63,10.63,0,0,1,484.83,399.29Z"/><path class="cls-14" d="M495.15,457.37h3.63a23.75,23.75,0,0,1,23.75,23.75v17.7a0,0,0,0,1,0,0H471.41a0,0,0,0,1,0,0v-17.7A23.75,23.75,0,0,1,495.15,457.37Z"/><path class="cls-87" d="M483.68,446.86s-25.07,1.28-36.55,13.78"/><path class="cls-87" d="M510.83,446.86a44.63,44.63,0,0,1,26.54,13.78"/><line class="cls-85" x1="482" y1="577.52" x2="491.88" y2="593.05"/><path class="cls-88" d="M471.41,498.82h51.13a0,0,0,0,1,0,0v9.93a13,13,0,0,1-13,13H484.36a13,13,0,0,1-13-13v-9.93A0,0,0,0,1,471.41,498.82Z"/><line class="cls-85" x1="478.7" y1="542.69" x2="495.07" y2="544.62"/><path class="cls-89" d="M503.09,509.58s-74.85-8.48-16.52,74.69"/><path class="cls-89" d="M478,507.65s-25.2-8.65-46.37,8.28,52.09,27.57,52.09,27.57"/><path class="cls-70" d="M481.44,590.1h19.77a0,0,0,0,1,0,0v9.74A1.17,1.17,0,0,1,500,601H473.29a1.17,1.17,0,0,1-1.17-1.17v-.42a9.32,9.32,0,0,1,9.32-9.32Z" transform="translate(-255.39 393.37) rotate(-35.5)"/><path class="cls-70" d="M491.27,542.45H511a0,0,0,0,1,0,0v9.74a1.17,1.17,0,0,1-1.17,1.17H483.12a1.17,1.17,0,0,1-1.17-1.17v-.42A9.32,9.32,0,0,1,491.27,542.45Z" transform="translate(141.02 1196.25) rotate(-109.08)"/><path class="cls-90" d="M463.25,513.37A15.34,15.34,0,0,1,475,505.44"/><path class="cls-82" d="M524.57,482.63h4.86a0,0,0,0,1,0,0v7a3.84,3.84,0,0,1-3.84,3.84h-1a0,0,0,0,1,0,0V482.63A0,0,0,0,1,524.57,482.63Z"/><path class="cls-91" d="M518.77,338.56h-15a39.39,39.39,0,0,0,33.79,39C540.45,361.63,530.75,347.18,518.77,338.56Z"/><path class="cls-8" d="M513.51,334.23H487.3c-3.71-.73-5-4.47-5.37-7.79V321h-3.88a20.34,20.34,0,0,0-20.34,20.34v4.06a7.92,7.92,0,0,0,7.92,7.92h67A19.12,19.12,0,0,0,513.51,334.23Z"/><path class="cls-85" d="M520.76,489.75c-1,8.68.35,20.56,15.37,18.81"/><ellipse class="cls-92" cx="444.98" cy="480.98" rx="27.63" ry="30.45"/><ellipse class="cls-92" cx="484.34" cy="481.49" rx="23.22" ry="25.59"/><path class="cls-92" d="M459.25,454.9s6.38,6.51,19.88,1.66v21.53H454.82Z"/><path class="cls-92" d="M456.39,508.72s8.9-6.07,24.79-1.88l-5.33-21.91H452.09Z"/><circle class="cls-93" cx="466.98" cy="480.24" r="11.72"/><rect class="cls-94" x="471.14" y="474.05" width="97.51" height="12.39"/><circle class="cls-95" cx="466.98" cy="480.24" r="9.48"/><path class="cls-94" d="M439.28,471.93h0a.9.9,0,0,1-.9-.9v-2.66a.89.89,0,0,0-.9-.89h-3.84a.89.89,0,0,0-.89.89v22.7a.89.89,0,0,0,.89.89h3.84a.89.89,0,0,0,.9-.89v-2.66a.9.9,0,0,1,.9-.9h0a.89.89,0,0,0,.89-.9V472.83A.89.89,0,0,0,439.28,471.93Z"/><rect class="cls-8" x="565.29" y="468.6" width="2.46" height="22.81"/><rect class="cls-8" x="571.32" y="468.6" width="2.46" height="22.81"/><rect class="cls-8" x="577.27" y="468.6" width="2.46" height="22.81"/><path class="cls-96" d="M579.08,489.78l-17.8-1.51a2.77,2.77,0,0,1-2.53-2.76V474.62a2.77,2.77,0,0,1,2.53-2.76l17.8-1.51a7.74,7.74,0,0,1,8.39,7.71v4A7.74,7.74,0,0,1,579.08,489.78Z"/><rect class="cls-97" x="567.76" y="479.02" width="3.57" height="1.86"/><rect class="cls-97" x="573.79" y="479.02" width="3.48" height="1.86"/><path class="cls-98" d="M584,479v-1.11a4.72,4.72,0,0,0-4.25-4.6V479Z"/><polygon class="cls-98" points="577.27 479.02 577.27 473.42 573.79 473.73 573.79 479.02 577.27 479.02"/><polygon class="cls-98" points="571.32 479.02 571.32 473.94 567.76 474.26 567.76 479.02 571.32 479.02"/><path class="cls-98" d="M562.43,474.73a.87.87,0,0,0-.82.85v2.58a.88.88,0,0,0,.9.86h2.78v-4.55Z"/><path class="cls-98" d="M562.51,480.88a.88.88,0,0,0-.9.86v2.58a.87.87,0,0,0,.82.85l2.86.25v-4.54Z"/><polygon class="cls-98" points="567.76 480.88 567.76 485.64 571.32 485.95 571.32 480.88 567.76 480.88"/><polygon class="cls-98" points="573.79 480.88 573.79 486.17 577.27 486.48 577.27 480.88 573.79 480.88"/><path class="cls-98" d="M584,482v-1.11h-4.25v5.71A4.72,4.72,0,0,0,584,482Z"/><polygon class="cls-99" points="567.76 474.26 565.29 474.47 565.29 479.02 567.76 479.02 567.76 474.26"/><polygon class="cls-99" points="565.29 480.88 565.29 485.42 567.76 485.64 567.76 480.88 565.29 480.88"/><polygon class="cls-99" points="573.79 479.02 573.79 473.73 571.32 473.94 571.32 479.02 573.79 479.02"/><polygon class="cls-99" points="571.32 480.88 571.32 485.95 573.79 486.17 573.79 480.88 571.32 480.88"/><path class="cls-99" d="M579.74,479v-5.71a5.35,5.35,0,0,0-1.06,0l-1.41.13V479Z"/><path class="cls-99" d="M577.27,486.48l1.41.12a5.36,5.36,0,0,0,1.06,0v-5.71h-2.47Z"/><rect class="cls-96" x="564.28" y="467.43" width="4.36" height="2.16" rx="0.76"/><rect class="cls-96" x="570.37" y="467.43" width="4.36" height="2.16" rx="0.76"/><rect class="cls-96" x="576.32" y="467.43" width="4.36" height="2.16" rx="0.76"/><rect class="cls-96" x="564.28" y="490.54" width="4.36" height="2.16" rx="0.76"/><rect class="cls-96" x="570.37" y="490.54" width="4.36" height="2.16" rx="0.76"/><rect class="cls-96" x="576.32" y="490.54" width="4.36" height="2.16" rx="0.76"/><line class="cls-100" x1="579.73" y1="479.02" x2="432.75" y2="479.02"/><line class="cls-100" x1="579.73" y1="477.72" x2="432.75" y2="477.72"/><line class="cls-100" x1="579.73" y1="476.6" x2="432.75" y2="476.6"/><line class="cls-100" x1="579.73" y1="483.15" x2="432.75" y2="483.15"/><line class="cls-100" x1="579.73" y1="481.85" x2="432.75" y2="481.85"/><line class="cls-100" x1="579.73" y1="480.72" x2="432.75" y2="480.72"/><path class="cls-101" d="M417.35,473.52S423,482.19,445,486"/><path class="cls-82" d="M448.46,478.09h10.87a4.45,4.45,0,0,1,4.45,4.45v0a9.43,9.43,0,0,1-9.43,9.43H444.4a.39.39,0,0,1-.39-.39v-9A4.45,4.45,0,0,1,448.46,478.09Z"/><path class="cls-82" d="M522.09,475.66h1.23a3.24,3.24,0,0,1,3.24,3.24v14.57a0,0,0,0,1,0,0h-8.3a6.37,6.37,0,0,1-6.37-6.37v-1.25A10.2,10.2,0,0,1,522.09,475.66Z"/><rect class="cls-102" x="240.19" y="273.76" width="145.52" height="35.82"/><rect class="cls-43" x="240.19" y="270.88" width="145.52" height="35.82"/><text class="cls-103" transform="translate(251.41 298.79)">BURRERIA</text></g></g></svg>