<svg xmlns="http://www.w3.org/2000/svg" width="106.39" height="77.15" viewBox="0 0 106.39 77.15">
  <defs>
    <style>
      .cls-1 {
        fill: #fafafa;
        stroke: #3882bb;
        stroke-linecap: round;
        stroke-linejoin: round;
      }

      .cls-2 {
        font-size: 16.25px;
        fill: #3882bb;
        font-family: Poppins-Bold, Poppins;
        font-weight: 700;
      }
    </style>
  </defs>
  <g id="Layer_2" data-name="Layer 2">
    <g id="Layer_1-2" data-name="Layer 1">
      <g>
        <rect class="cls-1" x="0.5" y="0.5" width="105.39" height="35.21" rx="16.18"/>
        <text class="cls-2" transform="translate(16.98 24.66)">BOOK</text>
        <g id="a7eUH5.tif">
          <path class="cls-1" d="M38.82,65.6c-2-3.82-4-7.66-6-11.47q-1.65-3.19-3.31-6.37c-.11-.21-.2-.42-.3-.62,2.33-2.39,5.27-2.76,7.54-.9A12.35,12.35,0,0,1,38.46,48c.87,1,1.71,2.06,2.55,3.1.35.43.73.75,1.32.53S43,51,43,50.41c0-9.58,0-14.72,0-24.3a5.9,5.9,0,0,1,.23-1.72A3.28,3.28,0,0,1,46.81,22a3.5,3.5,0,0,1,2.9,3.12c0,.37,0,.74,0,1.1v20.1c0,1,.34,1.56,1,1.55s1-.5,1-1.58c0-2.46,0-4.92,0-7.38a3.34,3.34,0,0,1,4.34-3.2A3.5,3.5,0,0,1,58.51,39c0,2.18,0,4.36,0,6.54a5.61,5.61,0,0,0,0,.58,1,1,0,0,0,2,0,4.51,4.51,0,0,0,0-.52c0-1.68,0-3.37,0-5a3.3,3.3,0,1,1,6.59,0c0,1.66,0,3.32,0,5,0,.83.39,1.3,1,1.28s1-.47,1-1.26c0-1,0-2,.06-3a3.4,3.4,0,0,1,4.37-2.93,3.5,3.5,0,0,1,2.36,3,7.86,7.86,0,0,1,0,.84V64.67a12,12,0,0,1-4.17,9.44,10,10,0,0,1-6.75,2.53H51.31A10.38,10.38,0,0,1,41.68,71q-1.45-2.67-2.86-5.36"/>
        </g>
        <polyline class="cls-1" points="71.65 20.28 78.36 26.07 92.87 8.22"/>
      </g>
    </g>
  </g>
</svg>
