<svg xmlns="http://www.w3.org/2000/svg" width="114.56" height="51.54" viewBox="0 0 114.56 51.54">
  <defs>
    <style>
      .cls-1 {
        fill: #fafafa;
        stroke: #3882bb;
        stroke-linecap: round;
        stroke-linejoin: round;
      }

      .cls-2 {
        font-size: 8px;
        fill: #3882bb;
        font-family: Poppins-Medium, Poppins;
        font-weight: 500;
      }
    </style>
  </defs>
  <g id="Layer_2" data-name="Layer 2">
    <g id="Layer_1-2" data-name="Layer 1">
      <g>
        <path class="cls-1" d="M114.06,34.25v13.6c0,1.76-1.81,3.19-4,3.19H4.55c-2.24,0-4-1.43-4-3.19V20c0-1.76,1.81-3.19,4.05-3.19H110c2.24,0,4,1.43,4,3.19V34.25"/>
        <g id="WiHiG5.tif">
          <path class="cls-1" d="M43.92,4.9A6.17,6.17,0,0,1,48.36.69c.35-.09.71-.13,1.06-.19h1c.35.07.69.12,1,.21a6.29,6.29,0,0,1,3.36,2.4c.26.35.5.72.74,1.09.25-.37.48-.74.75-1.09A6.21,6.21,0,0,1,60.06.61L60.68.5h1a12.51,12.51,0,0,1,1.5.33,6.33,6.33,0,0,1,4.19,4.69c.11.45.16.92.24,1.38v1c0,.06,0,.12,0,.18a8,8,0,0,1-1.4,3.87,17.29,17.29,0,0,1-3,3.41c-2.33,2.07-4.7,4.11-7,6.16a.77.77,0,0,1-1.17,0c-2-1.74-4.05-3.47-6.05-5.23a22.16,22.16,0,0,1-4-4.34,7.73,7.73,0,0,1-1-7"/>
        </g>
        <text class="cls-2" transform="translate(27.44 31.59)">Try a new dish<tspan x="4.57" y="12">from Numa!</tspan></text>
      </g>
    </g>
  </g>
</svg>
