<?xml version="1.0" encoding="UTF-8" standalone="no"?>
<!-- Created with Inkscape (http://www.inkscape.org/) -->

<svg
   width="159.80879mm"
   height="9.0401449mm"
   viewBox="0 0 159.80879 9.0401449"
   version="1.1"
   id="svg5"
   sodipodi:docname="mustache.svg"
   inkscape:version="1.1.1 (3bf5ae0d25, 2021-09-20)"
   xmlns:inkscape="http://www.inkscape.org/namespaces/inkscape"
   xmlns:sodipodi="http://sodipodi.sourceforge.net/DTD/sodipodi-0.dtd"
   xmlns="http://www.w3.org/2000/svg"
   xmlns:svg="http://www.w3.org/2000/svg">
  <sodipodi:namedview
     id="namedview7"
     pagecolor="#ffffff"
     bordercolor="#666666"
     borderopacity="1.0"
     inkscape:pageshadow="2"
     inkscape:pageopacity="0.0"
     inkscape:pagecheckerboard="0"
     inkscape:document-units="mm"
     showgrid="false"
     inkscape:zoom="1"
     inkscape:cx="136"
     inkscape:cy="12.5"
     inkscape:window-width="1920"
     inkscape:window-height="1020"
     inkscape:window-x="0"
     inkscape:window-y="28"
     inkscape:window-maximized="0"
     inkscape:current-layer="layer1" />
  <defs
     id="defs2" />
  <g
     inkscape:label="Layer 1"
     inkscape:groupmode="layer"
     id="layer1"
     transform="translate(-11.042664,-105.34217)">
    <path
       style="fill:#3882bb;fill-opacity:1;stroke-width:0.264583;paint-order:stroke fill markers"
       id="path2743-6"
       d="m 81.186352,109.8736 c 0,0 -1.540675,-1.04249 -2.302115,-1.52205 -1.16042,-0.65344 1.189964,0.55878 -0.774688,-0.41749 -0.92754,-0.43181 -1.87109,-0.7443 -2.84933,-1.03746 -2.14434,-0.5292 -4.38091,-0.65714 -6.58144,-0.50278 -0.58121,0.0408 -1.15933,0.11752 -1.73899,0.17629 -4.07368,0.60825 -8.05185,1.70694 -12.028985,2.75359 -3.29146,0.84583 -6.57404,1.73245 -9.8911,2.47506 -2.414,0.54043 -3.19718,0.66667 -5.64006,1.12772 -3.85179,0.6499 -7.72631,1.24894 -11.63568,1.40607 -2.40808,0.0968 -3.3669,0.0147 -5.76007,-0.0754 -2.58261,-0.19002 -5.15051,-0.5276 -7.68003,-1.08564 -0.69526,-0.15337 -0.840997,-0.31315 -1.782406,-0.72059 l -1.478794,-0.69906 v 0 c 0.70492,0.18364 1.40545,0.38497 2.11474,0.55092 2.5491,0.59639 5.1402,0.96702 7.75018,1.16577 2.49704,0.10641 3.24875,0.18808 5.76076,0.0936 3.90628,-0.147 7.78084,-0.73062 11.62746,-1.39237 0.94756,-0.18209 1.89759,-0.35171 2.84266,-0.54627 4.22716,-0.87029 8.39185,-2.01057 12.55614,-3.13614 3.953495,-1.05632 7.898845,-2.18497 11.944745,-2.84002 0.56961,-0.0704 1.13723,-0.15948 1.70884,-0.21127 2.17355,-0.19694 4.3924,-0.0919 6.52215,0.38879 0.80289,0.23079 1.18635,0.32148 1.9625,0.62088 1.70459,0.65754 3.25613,1.6351 4.83227,2.54553 0.808869,0.50619 1.618335,1.01478 2.361264,1.61622 z"
       sodipodi:nodetypes="cccccccscscsccssccccccscsccc" />
    <path
       style="fill:#3882bb;fill-opacity:1;stroke-width:0.264583;paint-order:stroke fill markers"
       id="path2743-6-7"
       d="m 100.70768,109.87979 c 0,0 1.54068,-1.04249 2.30213,-1.52205 1.16042,-0.65344 -1.18998,0.55878 0.77469,-0.41749 0.92755,-0.43181 1.8711,-0.7443 2.84935,-1.03745 2.14435,-0.5292 4.38093,-0.65714 6.58147,-0.50278 0.58122,0.0408 1.15934,0.11752 1.739,0.17629 4.07369,0.60824 8.05186,1.70693 12.02899,2.75358 3.29146,0.84583 6.57404,1.73245 9.8911,2.47506 2.414,0.54043 3.19718,0.66667 5.64006,1.12772 3.85179,0.6499 7.72631,1.24894 11.63568,1.40607 2.40808,0.0968 3.3669,0.0147 5.76007,-0.0754 2.58261,-0.19002 5.15051,-0.5276 7.68003,-1.08564 0.69526,-0.15337 0.841,-0.31315 1.78241,-0.72059 l 1.47879,-0.69906 v 0 c -0.70492,0.18364 -1.40545,0.38497 -2.11474,0.55092 -2.5491,0.59639 -5.1402,0.96702 -7.75018,1.16577 -2.49704,0.10641 -3.24875,0.18808 -5.76076,0.0936 -3.90628,-0.147 -7.78084,-0.73062 -11.62746,-1.39237 -0.94756,-0.18209 -1.89759,-0.35171 -2.84266,-0.54627 -4.22716,-0.87029 -8.39185,-2.01057 -12.55614,-3.13614 -3.95349,-1.05632 -7.89884,-2.18497 -11.94474,-2.84001 -0.56961,-0.0704 -1.13724,-0.15948 -1.70885,-0.21127 -2.17356,-0.19694 -4.39242,-0.0919 -6.52218,0.38879 -0.8029,0.23079 -1.18636,0.32148 -1.96251,0.62088 -1.7046,0.65753 -3.25615,1.63509 -4.8323,2.54552 -0.80888,0.50619 -1.618362,1.01478 -2.361292,1.61622 z"
       sodipodi:nodetypes="cccccccscscsccssccccccscsccc" />
    <circle
       style="fill:#3882bb;fill-opacity:1;stroke-width:0.264583;paint-order:stroke fill markers"
       id="path2901"
       cx="90.948822"
       cy="110.26514"
       r="1.194331" />
  </g>
</svg>
