<svg id="Layer_1" data-name="Layer 1" xmlns="http://www.w3.org/2000/svg" viewBox="0 0 300 300"><defs><style>.cls-1{fill:#fe4c00;}</style></defs><title>WebIcons</title><path class="cls-1" d="M153.07,227.47a16.57,16.57,0,0,1-11.58-4.66l-69.59-67-.1-.11A50.62,50.62,0,0,1,146.26,87.2l6.81,7,6.81-7A49.72,49.72,0,0,1,175.5,76.32,51,51,0,0,1,213.6,75,50.15,50.15,0,0,1,226,81.64L227.81,83l1.54,1.33a50.65,50.65,0,0,1,5,71.41l-.1.11-69.58,67a16.64,16.64,0,0,1-11.58,4.67Z"/><path class="cls-1" d="M110,81.45A41.28,41.28,0,0,1,126.79,85a40.47,40.47,0,0,1,12.66,8.81l13.62,14,13.61-14A40.4,40.4,0,0,1,179.35,85a41.56,41.56,0,0,1,31-1.07,40.65,40.65,0,0,1,10,5.38l1.5,1.09,1.24,1.07a40.46,40.46,0,0,1,10.52,14.24,41.49,41.49,0,0,1,1.06,31,40.83,40.83,0,0,1-7.36,12.57L158.06,216a7.18,7.18,0,0,1-5,2,7.09,7.09,0,0,1-5-2L78.8,149.29a40.86,40.86,0,0,1-7.37-12.57,41.56,41.56,0,0,1,1.07-31A40.91,40.91,0,0,1,95.79,83.94,41.27,41.27,0,0,1,110,81.45m86.23-19a60.47,60.47,0,0,0-24.53,5.19,59.54,59.54,0,0,0-18.58,12.93,59.54,59.54,0,0,0-18.58-12.93A60.49,60.49,0,0,0,89.28,66.1,59.8,59.8,0,0,0,55.13,98a60.49,60.49,0,0,0-1.54,45.21,59.77,59.77,0,0,0,11,18.72l.38.43,69.88,67.27a26.21,26.21,0,0,0,36.35,0l69.88-67.26.38-.44a59.61,59.61,0,0,0,11.05-18.72,60.21,60.21,0,0,0-17-66.09L231.93,74h-.34a59.53,59.53,0,0,0-14.73-7.87,60.14,60.14,0,0,0-20.68-3.65Z"/></svg>