<svg id="Layer_1" data-name="Layer 1" xmlns="http://www.w3.org/2000/svg" viewBox="0 0 300 300"><defs><style>.cls-1{fill:#ffd617;}</style></defs><title>WebIcons</title><path class="cls-1" d="M112.54,80.8a41.28,41.28,0,0,1,16.84,3.56A40.5,40.5,0,0,1,142,93.18l13.62,14,13.61-14a40.5,40.5,0,0,1,12.66-8.82,41.49,41.49,0,0,1,31-1.06,40.5,40.5,0,0,1,10,5.37l1.49,1.09,1.24,1.08a40.48,40.48,0,0,1,10.53,14.23,41.62,41.62,0,0,1,1.06,31,40.54,40.54,0,0,1-7.37,12.57l-69.27,66.68a7.19,7.19,0,0,1-10,0L81.39,148.64A40.54,40.54,0,0,1,74,136.07a41.56,41.56,0,0,1,1.07-31A40.77,40.77,0,0,1,98.38,83.3a41,41,0,0,1,14.16-2.5m86.23-19A60.55,60.55,0,0,0,174.23,67a59.67,59.67,0,0,0-18.57,12.93A59.83,59.83,0,0,0,137.08,67a60.52,60.52,0,0,0-45.22-1.54A60,60,0,0,0,57.71,97.37a60.65,60.65,0,0,0-1.54,45.22,59.68,59.68,0,0,0,11,18.71l.38.44L137.48,229a26.18,26.18,0,0,0,36.35,0l69.88-67.26.38-.44a59.68,59.68,0,0,0,11-18.71,60.65,60.65,0,0,0-1.54-45.22A59.8,59.8,0,0,0,238.17,76.5l-3.65-3.17h-.34a59.57,59.57,0,0,0-14.73-7.88,60.42,60.42,0,0,0-20.68-3.65Z"/></svg>