<?xml version="1.0" encoding="UTF-8" standalone="no"?>
<svg
   xmlns:dc="http://purl.org/dc/elements/1.1/"
   xmlns:cc="http://creativecommons.org/ns#"
   xmlns:rdf="http://www.w3.org/1999/02/22-rdf-syntax-ns#"
   xmlns:svg="http://www.w3.org/2000/svg"
   xmlns="http://www.w3.org/2000/svg"
   xmlns:sodipodi="http://sodipodi.sourceforge.net/DTD/sodipodi-0.dtd"
   xmlns:inkscape="http://www.inkscape.org/namespaces/inkscape"
   id="Layer_1"
   data-name="Layer 1"
   viewBox="0 0 75.000003 75.000003"
   version="1.1"
   sodipodi:docname="help.svg"
   inkscape:version="1.0.1 (0767f8302a, 2020-10-17)">
  <metadata
     id="metadata15">
    <rdf:RDF>
      <cc:Work
         rdf:about="">
        <dc:format>image/svg+xml</dc:format>
        <dc:type
           rdf:resource="http://purl.org/dc/dcmitype/StillImage" />
      </cc:Work>
    </rdf:RDF>
  </metadata>
  <sodipodi:namedview
     pagecolor="#ffffff"
     bordercolor="#666666"
     borderopacity="1"
     objecttolerance="10"
     gridtolerance="10"
     guidetolerance="10"
     inkscape:pageopacity="0"
     inkscape:pageshadow="2"
     inkscape:window-width="960"
     inkscape:window-height="1014"
     id="namedview13"
     showgrid="false"
     inkscape:zoom="6.3643181"
     inkscape:cx="38.149997"
     inkscape:cy="34.699997"
     inkscape:window-x="960"
     inkscape:window-y="34"
     inkscape:window-maximized="0"
     inkscape:current-layer="Layer_1" />
  <defs
     id="defs4">
    <style
       id="style2">.cls-1{fill:#ff4900;}</style>
  </defs>
  <title
     id="title6">questionmark</title>
  <path
     class="cls-1"
     d="m 40.13,51.64 h -8.45 v 7.18 h 8.45 z m -0.06,-4.71 a 10.46,10.46 0 0 1 0.55,-3.75 6.89,6.89 0 0 1 2.3,-2.72 19,19 0 0 0 5.36,-5.2 11.63,11.63 0 0 0 2.17,-6.75 11.25,11.25 0 0 0 -3.66,-8.86 q -3.68,-3.27 -10.1,-3.27 a 15.23,15.23 0 0 0 -9.7,2.93 q -3.72,2.94 -3.64,8.45 l 0.06,0.18 h 8.16 a 4.68,4.68 0 0 1 1.51,-3.71 5.39,5.39 0 0 1 3.58,-1.23 5.17,5.17 0 0 1 4,1.5 5.81,5.81 0 0 1 1.39,4.14 7.93,7.93 0 0 1 -1.22,4.31 15.32,15.32 0 0 1 -3.28,3.55 19.48,19.48 0 0 0 -4.64,4.5 c -0.78,1.24 -1.18,3.21 -1.2,5.89 z"
     id="path8" />
  <path
     class="cls-1"
     d="M 72.17,37.5 H 69.34 A 31.82,31.82 0 1 1 60.02,15 31.78,31.78 0 0 1 69.34,37.5 H 75 A 37.5,37.5 0 1 0 37.5,75 37.5,37.5 0 0 0 75,37.5 Z"
     id="path10" />
</svg>
