<svg id="Layer_1" data-name="Layer 1" xmlns="http://www.w3.org/2000/svg" viewBox="0 0 40.76 63.82" fill='#ff4900'><defs><style>.cls-1{}</style></defs><title>Password</title><polygon class="cls-1" points="38.66 61.72 38.66 59.62 4.2 59.62 4.2 30.52 36.56 30.52 36.56 61.72 38.66 61.72 38.66 59.62 38.66 61.72 40.76 61.72 40.76 26.31 0 26.31 0 63.82 40.76 63.82 40.76 61.72 38.66 61.72"/><path class="cls-1" d="M37.37,45.36V33a11.64,11.64,0,0,1,23.28,0V45.36h4.2V33a15.84,15.84,0,1,0-31.68,0V45.36Z" transform="translate(-28.51 -17.18)"/><circle class="cls-1" cx="20.5" cy="41.65" r="4.74"/><path class="cls-1" d="M52.83,72.53H45.1c-.7,0-1.12-.88-.89-1.78l2.91-11.11h3.7l2.91,11.11C54,71.65,53.54,72.53,52.83,72.53Z" transform="translate(-28.51 -17.18)"/></svg>