<?xml version="1.0" encoding="UTF-8" standalone="no"?>
<svg
   xmlns:dc="http://purl.org/dc/elements/1.1/"
   xmlns:cc="http://creativecommons.org/ns#"
   xmlns:rdf="http://www.w3.org/1999/02/22-rdf-syntax-ns#"
   xmlns:svg="http://www.w3.org/2000/svg"
   xmlns="http://www.w3.org/2000/svg"
   xmlns:sodipodi="http://sodipodi.sourceforge.net/DTD/sodipodi-0.dtd"
   xmlns:inkscape="http://www.inkscape.org/namespaces/inkscape"
   id="Layer_1"
   data-name="Layer 1"
   viewBox="0 0 80.660007 47.189999"
   version="1.1"
   sodipodi:docname="mastercard.svg"
   inkscape:version="1.0.1 (0767f8302a, 2020-10-17)">
  <metadata
     id="metadata21">
    <rdf:RDF>
      <cc:Work
         rdf:about="">
        <dc:format>image/svg+xml</dc:format>
        <dc:type
           rdf:resource="http://purl.org/dc/dcmitype/StillImage" />
      </cc:Work>
    </rdf:RDF>
  </metadata>
  <sodipodi:namedview
     pagecolor="#ffffff"
     bordercolor="#666666"
     borderopacity="1"
     objecttolerance="10"
     gridtolerance="10"
     guidetolerance="10"
     inkscape:pageopacity="0"
     inkscape:pageshadow="2"
     inkscape:window-width="1920"
     inkscape:window-height="1014"
     id="namedview19"
     showgrid="false"
     inkscape:zoom="9.392804"
     inkscape:cx="41.039997"
     inkscape:cy="23.174999"
     inkscape:window-x="0"
     inkscape:window-y="34"
     inkscape:window-maximized="0"
     inkscape:current-layer="Layer_1" />
  <defs
     id="defs4">
    <style
       id="style2">.cls-1{fill:none;stroke:#cacaca;stroke-miterlimit:10;stroke-width:2px;}.cls-2{fill:#010101;}.cls-3{fill:#ef6522;}.cls-4{fill:#e41b25;}.cls-5{fill:#f79d1d;}</style>
  </defs>
  <title
     id="title6">cards_logo</title>
  <rect
     class="cls-1"
     x="1"
     y="1"
     width="78.660004"
     height="45.189999"
     rx="5.5900002"
     id="rect8" />
  <path
     class="cls-2"
     d="m 25.24,40.92 v -2.36 a 1.41,1.41 0 0 0 -1.49,-1.51 1.47,1.47 0 0 0 -1.32,0.68 1.4,1.4 0 0 0 -1.25,-0.68 1.25,1.25 0 0 0 -1.11,0.56 v -0.46 h -0.82 v 3.77 h 0.83 v -2.09 a 0.88,0.88 0 0 1 0.92,-1 c 0.55,0 0.83,0.35 0.83,1 v 2.1 h 0.82 v -2.1 a 0.89,0.89 0 0 1 0.93,-1 c 0.56,0 0.83,0.35 0.83,1 v 2.1 z M 37.51,37.15 H 36.17 V 36 h -0.83 v 1.15 h -0.77 v 0.75 h 0.77 v 1.72 c 0,0.88 0.34,1.4 1.31,1.4 a 1.94,1.94 0 0 0 1,-0.29 l -0.24,-0.71 a 1.43,1.43 0 0 1 -0.73,0.22 c -0.41,0 -0.54,-0.26 -0.54,-0.63 V 37.9 h 1.34 z m 7,-0.1 a 1.13,1.13 0 0 0 -1,0.56 V 37.15 H 42.7 v 3.77 h 0.82 v -2.11 c 0,-0.63 0.27,-1 0.81,-1 a 1.34,1.34 0 0 1 0.51,0.09 l 0.25,-0.77 a 1.8,1.8 0 0 0 -0.58,-0.11 m -10.58,0.39 a 2.84,2.84 0 0 0 -1.54,-0.4 c -1,0 -1.58,0.46 -1.58,1.21 0,0.75 0.46,1 1.31,1.12 l 0.38,0.05 c 0.45,0.07 0.67,0.18 0.67,0.4 0,0.22 -0.3,0.45 -0.86,0.45 a 2.05,2.05 0 0 1 -1.26,-0.39 l -0.39,0.64 a 2.74,2.74 0 0 0 1.64,0.49 c 1.09,0 1.72,-0.51 1.72,-1.23 0,-0.72 -0.5,-1 -1.32,-1.13 L 32.34,38.6 c -0.35,0 -0.64,-0.12 -0.64,-0.37 0,-0.25 0.27,-0.44 0.72,-0.44 a 2.45,2.45 0 0 1 1.18,0.32 z m 22,-0.4 a 1.11,1.11 0 0 0 -1,0.56 v -0.46 h -0.82 v 3.77 h 0.82 v -2.07 c 0,-0.63 0.27,-1 0.81,-1 a 1.34,1.34 0 0 1 0.51,0.09 l 0.25,-0.77 a 1.75,1.75 0 0 0 -0.58,-0.11 m -10.58,2.02 a 1.9,1.9 0 0 0 2,2 2,2 0 0 0 1.36,-0.45 l -0.36,-0.68 a 1.64,1.64 0 0 1 -1,0.34 1.21,1.21 0 0 1 0,-2.42 1.64,1.64 0 0 1 1,0.34 l 0.4,-0.67 a 2,2 0 0 0 -1.4,-0.45 1.91,1.91 0 0 0 -2,2 m 7.69,0 v -1.9 h -0.82 v 0.46 a 1.44,1.44 0 0 0 -1.19,-0.56 2,2 0 0 0 0,4 1.43,1.43 0 0 0 1.19,-0.55 v 0.45 h 0.82 z m -3.06,0 a 1.15,1.15 0 1 1 1.15,1.21 1.13,1.13 0 0 1 -1.15,-1.21 m -9.91,-2 a 2.000225,2.000225 0 0 0 0.06,4 2.26,2.26 0 0 0 1.54,-0.53 l -0.4,-0.61 a 1.81,1.81 0 0 1 -1.1,0.4 1.05,1.05 0 0 1 -1.13,-0.93 h 2.81 c 0,-0.1 0,-0.2 0,-0.31 a 1.81,1.81 0 0 0 -1.79,-2 m 0,0.74 a 0.94,0.94 0 0 1 1,0.91 h -2 a 1,1 0 0 1 1,-0.91 m 20.61,1.25 v -3.43 h -0.82 v 2 a 1.44,1.44 0 0 0 -1.19,-0.56 2,2 0 0 0 0,4 1.43,1.43 0 0 0 1.19,-0.55 v 0.45 h 0.82 z m -3.06,0 a 1.15,1.15 0 1 1 1.15,1.21 1.13,1.13 0 0 1 -1.15,-1.21 m -27.73,0 v -1.91 h -0.83 v 0.46 a 1.43,1.43 0 0 0 -1.19,-0.56 2,2 0 0 0 0,4 1.42,1.42 0 0 0 1.19,-0.55 v 0.45 h 0.83 z m -3.06,0 a 1.14,1.14 0 1 1 2.28,0 1.14,1.14 0 1 1 -2.28,0 m 35.22,1.35 a 0.4,0.4 0 0 1 0.15,0 0.37,0.37 0 0 1 0.2,0.2 0.32,0.32 0 0 1 0,0.14 0.4,0.4 0 0 1 0,0.15 0.42,0.42 0 0 1 -0.08,0.12 0.36,0.36 0 0 1 -0.12,0.08 0.39,0.39 0 0 1 -0.3,0 0.36,0.36 0 0 1 -0.12,-0.08 0.42,0.42 0 0 1 -0.08,-0.12 0.4,0.4 0 0 1 0,-0.15 0.32,0.32 0 0 1 0,-0.14 0.37,0.37 0 0 1 0.2,-0.2 0.4,0.4 0 0 1 0.15,0 m 0,0.66 a 0.2,0.2 0 0 0 0.11,0 0.21,0.21 0 0 0 0.1,-0.06 l 0.06,-0.09 a 0.5,0.5 0 0 0 0,-0.12 0.36,0.36 0 0 0 0,-0.11 0.35,0.35 0 0 0 -0.06,-0.09 l -0.1,-0.07 h -0.11 -0.11 l -0.1,0.07 a 0.35,0.35 0 0 0 -0.06,0.09 0.2,0.2 0 0 0 0,0.11 0.25,0.25 0 0 0 0,0.12 l 0.06,0.09 a 0.21,0.21 0 0 0 0.1,0.06 0.2,0.2 0 0 0 0.11,0 m 0,-0.46 a 0.18,0.18 0 0 1 0.11,0 0.1,0.1 0 0 1 0,0.08 0.09,0.09 0 0 1 0,0.07 0.1,0.1 0 0 1 -0.08,0 l 0.12,0.14 h -0.09 l -0.11,-0.14 v 0 0.14 H 61.9 v -0.35 z m -0.08,0.06 v 0.1 h 0.08 0.05 c 0,0 0,0 0,0 h -0.13 z"
     id="path10" />
  <rect
     class="cls-3"
     x="33.650002"
     y="8.3799992"
     width="12.44"
     height="22.360001"
     id="rect12" />
  <path
     class="cls-4"
     d="M 34.44,19.56 A 14.21,14.21 0 0 1 39.87,8.4099998 14.22,14.22 0 1 0 39.87,30.76 14.2,14.2 0 0 1 34.44,19.56"
     id="path14" />
  <path
     class="cls-5"
     d="m 62.88,19.55 a 14.22,14.22 0 0 1 -23,11.18 14.21,14.21 0 0 0 0,-22.3500002 14.22,14.22 0 0 1 23,11.1700002 m -1.36,8.86 v -0.5 h 0.19 v -0.09 h -0.47 v 0.09 h 0.18 v 0.5 z m 0.92,0 v -0.6 h -0.1 l -0.16,0.38 -0.17,-0.38 h -0.14 v 0.6 h 0.1 v -0.42 l 0.15,0.36 h 0.11 l 0.15,-0.36 v 0.42 z"
     id="path16" />
</svg>
