<svg id="Layer_1" data-name="Layer 1" xmlns="http://www.w3.org/2000/svg" viewBox="0 0 483.18 365.4"><style>@keyframes diamondMovesBack{10%{transform:rotate(2deg)}25%{transform:rotate(5deg)}45%,70%{transform:rotate(1deg)}55%,80%,95%{transform:rotate(3deg)}65%,90%{transform:rotate(0deg)}}@keyframes bdiamondMovesBack{0%{opacity:.35;transform:translate(0,20px)}10%,90%{opacity:1}}@keyframes smoke1{0%{opacity:.35;transform:translate(0,10px)}10%,90%{opacity:1}}@keyframes smoke2{0%{opacity:.35;transform:translate(0,15px)}10%,90%{opacity:1}}@keyframes smoke3{0%{opacity:.35;transform:translate(0,10px)}10%,90%{opacity:1}}@keyframes blink{0%,20%,22%,3%,40%,70%,72%{opacity:1}1.5%,21%,71%{opacity:0}}</style><path d="M139 265l-.85.95a40 40 0 00-2.89 3.86 59.26 59.26 0 00-3.37 5.89c-1.12 2.2-2.17 4.62-3.19 7-1 2.42-2 4.81-2.91 7.14a47.26 47.26 0 00-2 6.49 29.19 29.19 0 00-.66 4.84v1c0 .3-2.22 20-2.22 20.09l1.62-.05c0-.08 2.22-19.94 2.22-20v-.9a26.66 26.66 0 01.62-4.54 45.57 45.57 0 011.93-6.28c.85-2.27 1.88-4.68 2.89-7.08 1-2.39 2.05-4.77 3.15-6.93a54.74 54.74 0 013.26-5.72 38.55 38.55 0 012.78-3.71c.32-.36.57-.66.78-.88z" transform="translate(-8.41 -67.3)" fill="#f9e2b2"/><path fill="#f9e2b2" d="M114.33 228.78zm2.67.6v-.01.01z"/><path fill="none" d="M128.23 203.36h.01"/><path d="M136.16 270.3s.32.05.87.09 1.35.06 2.28 0a41.05 41.05 0 006.35-.65c.54-.09 1.05-.21 1.57-.33a12.14 12.14 0 001.53-.55 19.11 19.11 0 003.57-2.1c.34-.26.74-.51 1.12-.82s.83-.59 1.27-.94c.91-.66 1.9-1.44 3-2.3 2.25-1.73 5-3.84 8.24-6.48l-1.49.11c-.94.06-2.29.16-3.9.34a47.37 47.37 0 00-11.57 2.6 25.76 25.76 0 00-5.6 2.93l-.62.44-.58.47c-.38.31-.75.6-1.09.93l-.5.46-.46.48c-.32.31-.59.63-.86.93a28.84 28.84 0 00-2.35 3.14c-.51.79-.78 1.25-.78 1.25z" transform="translate(-8.41 -67.3)" fill="#ffefca"/><path d="M136.16 270.3a7.29 7.29 0 01-.49-.74 10.71 10.71 0 01-.94-2.14 10.78 10.78 0 01-.5-3.45 11.29 11.29 0 011.16-4.59 12.69 12.69 0 011.64-2.5 15 15 0 012.46-2.38 17.31 17.31 0 017.23-3.15 17.66 17.66 0 012.17-.29c.74-.06 1.49-.06 2.27-.05a23.88 23.88 0 014.75.69 34.53 34.53 0 0110.09 4.56l-1.49.11c-.94.06-2.29.16-3.9.34a47.37 47.37 0 00-11.61 2.56 25.76 25.76 0 00-5.6 2.93l-.62.44-.58.47c-.38.31-.75.6-1.09.93l-.5.46-.46.48c-.32.31-.59.63-.86.93a28.84 28.84 0 00-2.35 3.14c-.51.79-.78 1.25-.78 1.25zm-6.54-51.54c-.16.44-.44 1.17-.76 2.12-.58 1.71-1.32 4.19-2.29 7.16A208.75 208.75 0 00121.3 250l-.29 1.49-.24 1.5c-.15 1-.3 2-.46 3s-.3 2-.44 2.94-.22 1.91-.34 2.86c-.2 1.9-.43 3.72-.6 5.43s-.24 3.37-.35 4.87c-.06.76-.11 1.48-.16 2.17s0 1.32-.07 1.93c0 1.23-.08 2.3-.1 3.17s.88 38.55.88 39l2.25-.17c0-.47-.88-38.21-.88-39.13s.06-1.91.1-3.12c0-.58 0-1.23.07-1.93 0-.68.1-1.4.15-2.14.11-1.49.23-3.08.35-4.8.17-1.72.4-3.52.6-5.38.11-.92.2-1.87.34-2.85.14-1 .29-1.92.44-2.9s.29-2 .44-2.95l.23-1.5.29-1.49a204.93 204.93 0 015.24-21.74c.93-2.92 1.68-5.36 2.26-7.08.29-.8.52-1.43.68-1.89z" transform="translate(-8.41 -67.3)" fill="#f9e2b2"/><path d="M126.7 231.53a16.2 16.2 0 001.61-.58 38.59 38.59 0 004.09-2 39.07 39.07 0 005.54-3.71c1-.78 1.93-1.66 3-2.6a35.58 35.58 0 003-3.15 51.57 51.57 0 009.89-19.49c.31-1.09.6-2.2.88-3.4s.58-2.38.83-3.65.5-2.58.7-4 .49-2.77.69-4.24.36-3 .56-4.59.39-3.21.55-4.92c.08-.88.15-1.73.23-2.64s.18-1.76.27-2.69q.26-2.75.44-5.74l-1.85 2.87c-1.18 1.74-2.9 4.2-4.76 7.25-.48.76-1 1.55-1.49 2.36s-1 1.67-1.54 2.55l-3.22 5.55-3.22 6-.81 1.59-.77 1.57-1.54 3.13a222.59 222.59 0 00-9.69 23.62c-1.1 3.27-1.93 6-2.55 7.91a29 29 0 00-.84 3z" transform="translate(-8.41 -67.3)" fill="#ffefca"/><path d="M126.7 231.53a12 12 0 01-1.17-1 18.71 18.71 0 01-2.64-3.05 23 23 0 01-4-13.09c-.1-6 1.86-13.77 7.91-22.66.75-1.1 1.56-2.23 2.43-3.37s1.87-2.27 2.9-3.43 2.11-2.32 3.26-3.52 2.46-2.32 3.78-3.51 2.7-2.36 4.2-3.52 3.08-2.32 4.72-3.47c.82-.58 1.66-1.16 2.52-1.73s1.78-1.12 2.69-1.68q2.74-1.68 5.69-3.31l-1.82 2.81c-1.18 1.73-2.9 4.2-4.76 7.24l-1.49 2.37c-.52.81-1 1.66-1.54 2.55l-3.22 5.55-3.22 6-.85 1.59-.77 1.57-1.54 3.13a222.59 222.59 0 00-9.69 23.62c-1.1 3.27-1.93 6-2.55 7.91a29 29 0 00-.84 3zm-26.45 12.56c.22.44.58 1.11 1 2 .81 1.61 1.92 3.95 3.28 6.76a207.59 207.59 0 018.32 21l.5 1.44.44 1.45c.3 1 .59 1.93.88 2.89s.58 1.91.88 2.85.49 1.86.74 2.78c.47 1.85 1 3.62 1.37 5.28s.71 3.29 1 4.77c.17.73.32 1.44.47 2.11s.23 1.29.34 1.91c.22 1.21.4 2.26.55 3.13s1.88 18.21 2 18.67l-2.26.15c-.08-.46-1.81-17.88-2-18.78l-.54-3.08c-.11-.58-.21-1.22-.35-1.91l-.44-2.09c-.31-1.46-.66-3-1-4.71-.41-1.67-.88-3.42-1.36-5.23-.23-.88-.46-1.82-.73-2.77l-.85-2.81-.88-2.86-.44-1.45-.5-1.43a208.39 208.39 0 00-8.26-20.79c-1.34-2.76-2.43-5.07-3.25-6.69l-.93-1.76z" transform="translate(-8.41 -67.3)" fill="#f9e2b2"/><path d="M105 256.33s-.62-.09-1.68-.36a37.58 37.58 0 01-4.33-1.39 39.87 39.87 0 01-6-2.89c-1.09-.63-2.15-1.36-3.3-2.16a36.84 36.84 0 01-3.4-2.69A51.41 51.41 0 0173.65 229c-.46-1-.91-2.11-1.34-3.24s-.92-2.28-1.34-3.49-.86-2.49-1.26-3.82-.88-2.66-1.27-4.09-.79-2.93-1.21-4.46-.84-3.13-1.24-4.8l-.6-2.56c-.21-.86-.44-1.73-.65-2.64-.44-1.79-.85-3.66-1.26-5.62l2.22 2.44c1.41 1.55 3.46 3.75 5.74 6.51l1.8 2.12c.63.74 1.27 1.5 1.89 2.31l4 5 4 5.51 1 1.41 1 1.45 2 2.91a224.8 224.8 0 0112.94 22c1.55 3.08 2.75 5.68 3.63 7.48a27.77 27.77 0 011.3 2.91z" transform="translate(-8.41 -67.3)" fill="#ffefca"/><path d="M105 256.33a12.32 12.32 0 001-1.14 18.93 18.93 0 002.2-3.39 22.53 22.53 0 001.9-5.65 23.11 23.11 0 00.18-7.87c-.75-5.95-3.79-13.36-11-21.31-.91-1-1.87-2-2.89-3s-2.17-2-3.34-3-2.43-2-3.74-3-2.76-2-4.23-2.94-3-2-4.66-2.89-3.38-1.86-5.16-2.77c-.88-.44-1.8-.91-2.73-1.36s-1.93-.88-2.91-1.28c-2-.84-4-1.67-6.11-2.48l2.23 2.44c1.41 1.56 3.46 3.75 5.73 6.51l1.81 2.13c.63.73 1.27 1.5 1.89 2.3l4 5 4 5.5 1 1.41 1 1.45 2 2.91a224.8 224.8 0 0112.94 22c1.55 3.08 2.75 5.68 3.63 7.48a27.77 27.77 0 011.26 2.95zm15.63 65.39c-.32-1.12-.77-2.71-1.36-4.63a55 55 0 00-6-13.5 31.5 31.5 0 00-5.21-6.08 32.05 32.05 0 00-5.69-4 34.68 34.68 0 00-4.45-2.09c-.44-.17-.8-.31-1.08-.4l-.64 1.94 1 .37a34 34 0 014.19 2 29.73 29.73 0 015.33 3.78 29.28 29.28 0 014.86 5.68 52.72 52.72 0 015.75 13c.58 1.88 1 3.46 1.34 4.57.12.44.22.78.29 1.06l2-.54-.3-1.07z" transform="translate(-8.41 -67.3)" fill="#f9e2b2"/><path d="M103.52 296.79a13.74 13.74 0 00.29-1.42 15.85 15.85 0 00.1-3.77 14.23 14.23 0 00-.44-2.5 14.07 14.07 0 00-1-2.75 16.11 16.11 0 00-4.21-5.5 18.53 18.53 0 00-7.74-3.85 20.92 20.92 0 00-2.49-.44 24.07 24.07 0 00-2.68-.15 23.4 23.4 0 00-5.65.72 28.12 28.12 0 00-11.63 6.18 39.69 39.69 0 00-9.67 13.09l1.88-.75c1.19-.47 2.91-1.11 5-1.76A59.62 59.62 0 0181.12 291a42.68 42.68 0 018.6.54 38.85 38.85 0 017.25 2 34.06 34.06 0 014.81 2.27c.56.32 1 .57 1.28.77a4.25 4.25 0 00.46.21z" transform="translate(-8.41 -67.3)" fill="#ffefca"/><path fill="#ffd617" d="M0 255.96h483.18v-2.14H0"/><path fill="#ff9100" d="M217.81 248.92v113.07h16.32V248.92m.66-2.62l38.44 106.34 15.34-5.55-38.43-106.34"/><path d="M244.2 376.11h-20.5v-71.55a8.52 8.52 0 018.5-8.52h3.48a8.51 8.51 0 018.51 8.51z" transform="translate(-8.41 -67.3)" fill="#1f3440"/><path d="M281.27 363.52l-19.28 7-24.32-67.29a8.51 8.51 0 015.1-10.89l3.27-1.19a8.52 8.52 0 0110.9 5.12zm-27.09 53.8h-9.13v-28.95h-20.5v42.9a1.44 1.44 0 001.45 1.43h38.14a1.43 1.43 0 001.42-1.43v-2.6a11.35 11.35 0 00-11.34-11.35zm65.13-8.89l-.88-2.44a11.33 11.33 0 00-14.5-6.81l-8.62 3.11-9.84-27.29-19.28 7 12.43 34.38 2.16 6a1.43 1.43 0 001.81.88l35.87-13a1.44 1.44 0 00.85-1.83z" transform="translate(-8.41 -67.3)" fill="#1f3440"/><path fill="#ff9100" d="M170.03 132.76h37.6v23.86h-37.6z"/><path d="M229.06 77.69l-.67 7.4a4.86 4.86 0 01-4.62 4.49 4.71 4.71 0 01-4.77-4.65v-.46l1.12-12.42a2.05 2.05 0 00-1.41-2.15 51.18 51.18 0 00-5.12-1.31 2.07 2.07 0 00-2.46 1.58 2 2 0 000 .24l-1.18 13a4.84 4.84 0 01-4.62 4.48 4.7 4.7 0 01-4.75-4.64v-.49l1.2-13.25a2.06 2.06 0 00-1.88-2.24h-.25c-1.77.06-3.53.19-5.27.4a2.05 2.05 0 00-1.76 1.86l-1.1 12.2a4.84 4.84 0 01-4.63 4.48 4.69 4.69 0 01-4.74-4.64 3.54 3.54 0 010-.46l.68-7.63a2.05 2.05 0 00-1.83-2.21 2.19 2.19 0 00-1 .13 57.64 57.64 0 00-36 48.33l-3.78 41.85A43.8 43.8 0 00180 209.15l27.6 2.5A43.8 43.8 0 00255.15 172l3.78-41.85a57.64 57.64 0 00-26.73-54 2.07 2.07 0 00-2.84.66 2.13 2.13 0 00-.3.88zm-4.18 160.79l1.61-8.59-1.63 8.58 1.63-8.58-1.63 8.58.2-1-.2 1 .2-1-.2 1s3 .58 7.38 1.86a104.22 104.22 0 0111.52 4.06A75.78 75.78 0 01253 249a49.22 49.22 0 016.08 4.27 26.65 26.65 0 016.23 7.19 16.23 16.23 0 011.57 3.78 15.31 15.31 0 01.55 4.15 21.88 21.88 0 01-1.54 7.75 45.9 45.9 0 01-5.81 10.51l15 10.73a63.83 63.83 0 008.12-14.8 40.26 40.26 0 002.7-14.19 33.94 33.94 0 00-2.94-13.9 38.94 38.94 0 00-6.27-9.75 59.33 59.33 0 00-14.84-11.95 107.81 107.81 0 00-22.52-9.63 109.7 109.7 0 00-11-2.83l-3.41 18.13z" transform="translate(-8.41 -67.3)" fill="#ff9100"/><path d="M229 243.8l-1.63-9.6 1.46 9.62h.17l-1.63-9.6 1.46 9.62-.51-3.38.49 3.39-.51-3.38.49 3.38a20 20 0 012.45-.12 30.27 30.27 0 018.91 1.35 27.85 27.85 0 015.32 2.3 27.26 27.26 0 015.36 3.95l19.95-21.16a56.52 56.52 0 00-27-14.19 59.83 59.83 0 00-12.51-1.35 46 46 0 00-7.13.51L229 243.8z" transform="translate(-8.41 -67.3)" fill="#ffd505"/><path d="M218.1 321.05h-46.64a15 15 0 01-15-15v-85.69h76.71V306a15 15 0 01-15.07 15.05z" transform="translate(-8.41 -67.3)" fill="#ff9100"/><path d="M233.22 321.05h-64.09a12.77 12.77 0 01-12.78-12.74v-35.93h76.87z" transform="translate(-8.41 -67.3)" fill="#1f3440"/><path fill="#ffd505" d="M147.94 147.86h76.87v76.87h-76.87z"/><path d="M220.73 182.52a17.6 17.6 0 01-32.33-3z" transform="translate(-8.41 -67.3)" fill="#5b3103"/><path d="M176.1 184.54a9.54 9.54 0 006.63-8.23 8.51 8.51 0 000-.88 9.5 9.5 0 00-5.05-8.4 2.49 2.49 0 00-2.33 4.4 4.52 4.52 0 012.42 4v.42a4.63 4.63 0 01-1 2.48 4.47 4.47 0 01-2.16 1.46 2.48 2.48 0 101.49 4.74zm58.15.65a4.68 4.68 0 01-1.76-1.66 4.49 4.49 0 01-.67-2.37v-.42a4.53 4.53 0 013.15-3.93 2.48 2.48 0 00-1.51-4.73 9.53 9.53 0 00-6.6 8.22v.88a9.54 9.54 0 005.09 8.42 2.49 2.49 0 102.32-4.4z" transform="translate(-8.41 -67.3)" fill="#fcaa47"/><path d="M205.68 186.51l-14.23-1.29a17.58 17.58 0 0018.43 6 4.63 4.63 0 00-4.2-4.71z" transform="translate(-8.41 -67.3)" fill="#fe4c00"/><path fill="#fe4c00" d="M147.94 177.69h5.97v-.7h-5.97"/><path d="M223.93 150.41l-.44 4.83a2.49 2.49 0 004.95.44l.44-4.83a2.49 2.49 0 00-4.95-.44m-34.67-3.21l-.44 4.84a2.48 2.48 0 104.94.44l.44-4.84a2.49 2.49 0 00-4.95-.44" transform="translate(-8.41 -67.3)" fill="#3d2407"/><path d="M268.44 276.49h-13.25a3.26 3.26 0 013.27-3.26h10z" transform="translate(-8.41 -67.3)" fill="#ff9100"/><path d="M249.92 290.51L249 289l1.17-.68.9 1.55a.58.58 0 01-.2.77l-.19.12a.58.58 0 01-.78-.19z" transform="translate(-8.41 -67.3)" fill="#1a1a1a"/><path fill="#ffefca" d="M240.93 222.27l-7.96-5.94 7.9-4.61 1.26 9.85-.6.35-.6.35z"/><g style="animation-name:diamondMovesBack;animation-duration:3s;animation-iteration-count:infinite;animation-timing-function:linear;animation-direction:alternate;transform-origin:left 4px;transform-box:fill-box"><path d="M132.61 226.73a71.85 71.85 0 00-14.55 9.81 76.29 76.29 0 00-13.33 15.25 33 33 0 00-3.86 7.66 24.8 24.8 0 00-1.4 8.09 22.59 22.59 0 001.4 7.8 24.06 24.06 0 003.21 5.89 31.12 31.12 0 008.4 7.65 53.21 53.21 0 0016.52 6.63 85.75 85.75 0 0019.62 2.16 100.26 100.26 0 0035-6.28 84.91 84.91 0 0016.7-8.42 72 72 0 0014.55-12.54L201 258.24a53.54 53.54 0 01-10.83 9.32 69.86 69.86 0 01-20.1 8.84 83.12 83.12 0 01-21.45 2.83A70 70 0 01135 278a45.87 45.87 0 01-8.2-2.4 27 27 0 01-4.48-2.29 14.83 14.83 0 01-2.27-1.76 7.87 7.87 0 01-1.7-2.19 4 4 0 01-.4-1.76 6.43 6.43 0 01.4-2.13 15.24 15.24 0 011.76-3.4 57.26 57.26 0 0110.09-11.55 52.79 52.79 0 0110.8-7.32l-8.38-16.43zm83.97 24.33l-1.32-1.76 1.28 1.79-1.32-1.76 1.28 1.79-.18-.26.18.26-.18-.26.18.26a11.6 11.6 0 012.06-1.09 12 12 0 014.68-1 9.42 9.42 0 013.67.72 12.34 12.34 0 014.09 2.85 3.55 3.55 0 005.16-4.88l-.1-.1a19.54 19.54 0 00-6.45-4.44 16.75 16.75 0 00-6.37-1.26 19.4 19.4 0 00-7.72 1.69 17.7 17.7 0 00-3.19 1.76 3.55 3.55 0 004.19 5.71z" transform="translate(-8.41 -67.3)" fill="#ff9100"/><path d="M210.54 230.8l1.32 2.26 7.89-4.61-1.32-2.26A3.25 3.25 0 00214 225l-2.29 1.32a3.24 3.24 0 00-1.18 4.43z" transform="translate(-8.41 -67.3)" fill="#f15a24"/><path transform="matrix(.86 -.5 .5 .86 -106.99 84.85)" fill="#ffd505" d="M227.31 231.56h9.14v53.39h-9.14z"/><path transform="rotate(-30.28 88.37 214.559)" fill="#333" d="M212.37 229.74h9.14v5.87h-9.14z"/><path transform="rotate(-30.29 88.7 215.076)" fill="#4d4d4d" d="M212.66 232.61h9.14v1.16h-9.14z"/><path transform="rotate(-30.28 103.773 239.868)" fill="#ffbc00" d="M230.55 231.29h3.57v53.39h-3.57z"/><path d="M221.05 274.29L197.64 264l5.84-13.23a10.3 10.3 0 0113.52-5.33l14 6.17a10.29 10.29 0 015.28 13.57l-1.7 3.84a10.29 10.29 0 01-13.56 5.26z" transform="translate(-8.41 -67.3)" fill="#ff9100"/></g><path fill="#f9d793" d="M194.69 229.43h34.85l40.65-13.85-32.91-2.26-42.59 16.11z"/><path d="M164.75 215.68a44.51 44.51 0 00-7.11-.51 59.29 59.29 0 00-17.59 2.69 56.21 56.21 0 00-21.93 12.85l19.94 21.16a27.26 27.26 0 015.36-4 28.07 28.07 0 017.87-3 31 31 0 016.37-.69c.94 0 1.67.05 2.08.09a2.21 2.21 0 01.36 0l1.06-7.41-1.25 7.38h.19l1.06-7.41-1.25 7.38 4.86-28.68z" transform="translate(-8.41 -67.3)" fill="#ffd505"/><path fill="#ffefca" d="M237.28 215.59l-42.59 13.84v-8.26l42.59-13.83v8.25z"/><path fill="#ffe7b6" d="M237.29 207.34h32.91v8.24h-32.91z"/><path fill="#f9d793" d="M237.28 209.19l-32.18 10.25 32.18-9.52v-.73z"/><path d="M208.79 290.6l29.82-9s-22.03 7.58-29.82 9z" transform="translate(-8.41 -67.3)" fill="#f9d793"/><path fill="#efc77f" d="M194.69 226.7l13.81-3.4-13.81 4.2v-.8z"/><path d="M271.36 299.85h-16.27a10.75 10.75 0 01-10.75-10.75 2.35 2.35 0 012.37-2.33h28.76v9a4.11 4.11 0 01-4.11 4.08z" transform="translate(-8.41 -67.3)" fill="#ff9100"/><path fill="#eb5929" d="M106.09 227.14zm-2.31 2.58z"/><path d="M318.4 224.49a5 5 0 00-.75 3.95c.46 1.76 1.75 2.05 2.2 4.22a5.74 5.74 0 01-.25 3.26 7 7 0 01-1.2 1.92 3.74 3.74 0 00-.25 1.87 4.47 4.47 0 001.27 2.48m14.03-17.85a5 5 0 00-.75 3.95c.46 1.76 1.75 2.05 2.2 4.21a5.77 5.77 0 01-.25 3.27 7 7 0 01-1.2 1.92 3.74 3.74 0 00-.25 1.87 4.51 4.51 0 001.27 2.48m-8.82-21.01a5.08 5.08 0 00-.75 3.95c.46 1.76 1.75 2.05 2.2 4.22a5.65 5.65 0 01-.25 3.26 6.29 6.29 0 01-1.2 1.92 3.78 3.78 0 00-.24 1.87 4.48 4.48 0 001.26 2.49" fill="none" stroke="#dedede" stroke-linecap="round" stroke-linejoin="round" stroke-width="4"/><path d="M357.1 295.48a9.49 9.49 0 00-6.74-2.8h-1.12V288a1.88 1.88 0 00-1.88-1.88h-25.53a1.89 1.89 0 00-1.89 1.88v31.44a1.89 1.89 0 001.89 1.88h25.54a1.88 1.88 0 001.88-1.88v-2.74h1.13a9.53 9.53 0 009.52-9.53v-4.94a9.49 9.49 0 00-2.8-6.75zm-1.47 11.67a5.27 5.27 0 01-5.27 5.28h-1.12v-15.49h1.12a5.27 5.27 0 015.27 5.27z" transform="translate(-8.41 -67.3)" fill="#ff9100"/><path d="M329.4 299.48a3.41 3.41 0 00-6.59 0 .75.75 0 001.44.4 1.92 1.92 0 013.71 0 .75.75 0 001.44-.39zm9.44 0a3.42 3.42 0 00-6.6 0 .75.75 0 00.52.92.74.74 0 00.92-.52 2 2 0 01.68-1 1.94 1.94 0 013 1 .74.74 0 101.43-.4zm-.46 3.9a.74.74 0 00-.91.52 7 7 0 01-.76 1.76.21.21 0 01-.19-.19c-.36-3.16-3.6-2.54-4.25.36-.44 1.21-.77 2.82-2 3.08a6.85 6.85 0 01-6-5 .75.75 0 00-.95-.46.77.77 0 00-.49.86 8.36 8.36 0 0016.1 0 .76.76 0 00-.51-.93z" transform="translate(-8.41 -67.3)" fill="#fffaee"/><path d="M344.78 296.19v14.31a1.07 1.07 0 102.13 0v-14.31a1.07 1.07 0 00-2.13 0m0-5.19v1.7a1.07 1.07 0 102.13 0V291a1.07 1.07 0 00-2.13 0" transform="translate(-8.41 -67.3)" fill="#fcc27c"/></svg>