<?xml version="1.0" encoding="UTF-8" standalone="no"?>
<svg
   xmlns:dc="http://purl.org/dc/elements/1.1/"
   xmlns:cc="http://creativecommons.org/ns#"
   xmlns:rdf="http://www.w3.org/1999/02/22-rdf-syntax-ns#"
   xmlns:svg="http://www.w3.org/2000/svg"
   xmlns="http://www.w3.org/2000/svg"
   xmlns:sodipodi="http://sodipodi.sourceforge.net/DTD/sodipodi-0.dtd"
   xmlns:inkscape="http://www.inkscape.org/namespaces/inkscape"
   id="Layer_1"
   data-name="Layer 1"
   viewBox="0 0 415.14 467.58"
   version="1.1"
   sodipodi:docname="suggest-restaurant-illustration.svg"
   inkscape:version="1.0.2 (e86c870879, 2021-01-15)">
  <metadata
     id="metadata1514">
    <rdf:RDF>
      <cc:Work
         rdf:about="">
        <dc:format>image/svg+xml</dc:format>
        <dc:type
           rdf:resource="http://purl.org/dc/dcmitype/StillImage" />
      </cc:Work>
    </rdf:RDF>
  </metadata>
  <sodipodi:namedview
     pagecolor="#ffffff"
     bordercolor="#666666"
     borderopacity="1"
     objecttolerance="10"
     gridtolerance="10"
     guidetolerance="10"
     inkscape:pageopacity="0"
     inkscape:pageshadow="2"
     inkscape:window-width="1920"
     inkscape:window-height="1013"
     id="namedview1512"
     showgrid="false"
     inkscape:zoom="1.5174171"
     inkscape:cx="204.855"
     inkscape:cy="235.455"
     inkscape:window-x="0"
     inkscape:window-y="33"
     inkscape:window-maximized="1"
     inkscape:current-layer="Layer_1" />
  <defs
     id="defs1319">
    <style
       id="style1314">.cls-1,.cls-2,.cls-28,.cls-29,.cls-30,.cls-33,.cls-34,.cls-9{fill:none;}.cls-2,.cls-28,.cls-30{stroke:#fd8f04;}.cls-2,.cls-28,.cls-29,.cls-30,.cls-33,.cls-34,.cls-9{stroke-miterlimit:10;}.cls-2{stroke-width:30px;}.cls-3{fill:#101d23;}.cls-4{fill:#fd8f04;}.cls-5{fill:#fdd307;}.cls-6{fill:#faa747;}.cls-7{fill:#5b3103;}.cls-8{fill:#fc4c01;}.cls-9{stroke:#5b3103;stroke-width:8px;}.cls-28,.cls-30,.cls-33,.cls-34,.cls-9{stroke-linecap:round;}.cls-10{fill:#284877;}.cls-11{fill:#fff;}.cls-12{fill:#12243a;}.cls-13{fill:#fc6;}.cls-14{fill:#f4daa2;}.cls-15{fill:#e2b969;}.cls-16{fill:#1d3519;}.cls-17{fill:#e5a128;}.cls-18{clip-path:url(#clip-path);}.cls-19{fill:#c98712;}.cls-20{fill:#efbf6c;}.cls-21{fill:#af710e;}.cls-22{fill:#fdedc8;}.cls-23{fill:#f96e53;}.cls-24{fill:#183251;}.cls-25{fill:#39b54a;}.cls-26{fill:#230803;}.cls-27{fill:#3d1106;}.cls-28{stroke-width:12px;}.cls-29{stroke:#fdd307;stroke-width:44px;}.cls-30{stroke-width:13px;}.cls-31{fill:#fe4c00;}.cls-32{fill:#ffd505;}.cls-33,.cls-34{stroke:#ffd505;}.cls-33{stroke-width:7px;}.cls-34{stroke-width:3px;}</style>
    <clipPath
       id="clip-path">
      <polyline
         class="cls-1"
         points="288.88 411.96 349.73 411.96 349.73 438.89 288.88 438.89 288.88 411.96"
         id="polyline1316" />
    </clipPath>
  </defs>
  <title
     id="title1321">Suggest_Restaurant_illo</title>
  <path
     class="cls-2"
     d="m 73.78,251.91 c 0,0 -73.78,-53.2 -6.65,-198.19"
     id="path1323" />
  <path
     class="cls-2"
     d="m 228.74,263.22 c 0,0 100.43,-49.88 143.66,-6.62 43.23,43.26 6.65,73.16 6.65,73.16"
     id="path1325" />
  <path
     class="cls-3"
     d="m 84.420275,307.54278 118.634455,18.70496 -10.35236,65.65889 a 30.63,30.63 0 0 1 -35.0267,25.48576 L 99.553678,408.22836 A 30.63,30.63 0 0 1 74.067913,373.20167 Z"
     id="path1327" />
  <rect
     class="cls-4"
     x="-232.37811"
     y="166.09999"
     width="37.470001"
     height="59.029999"
     transform="rotate(-80.92)"
     id="rect1329" />
  <path
     class="cls-4"
     d="m 242,41.47 -2.87,11.32 a 7.61,7.61 0 0 1 -8.29,5.8 7.38,7.38 0 0 1 -6.06,-9.09 l 4.82,-19 A 3.23,3.23 0 0 0 228,26.85 c -2.46,-1.22 -5,-2.34 -7.61,-3.34 A 3.23,3.23 0 0 0 216,25.72 l -5,19.88 a 7.58,7.58 0 0 1 -8.28,5.8 7.37,7.37 0 0 1 -6.06,-9.08 l 5.14,-20.25 a 3.25,3.25 0 0 0 -2.75,-4 q -4.15,-0.52 -8.28,-0.68 a 3.21,3.21 0 0 0 -3.21,2.44 l -4.73,18.64 a 7.58,7.58 0 0 1 -8.28,5.8 7.36,7.36 0 0 1 -6.06,-9.08 l 3,-11.66 a 3.24,3.24 0 0 0 -3.83,-4 90.48,90.48 0 0 0 -67.73,66 l -16.23,64 a 68.77,68.77 0 0 0 49.75,83.57 l 42.16,10.7 a 68.76,68.76 0 0 0 83.56,-49.75 L 275.4,130.1 A 90.46,90.46 0 0 0 247.33,39.78 3.22,3.22 0 0 0 242,41.47 Z"
     id="path1331" />
  <path
     class="cls-5"
     d="m 194.74,379.95 -119.17,-19 19.68,-124.35 101.32,16.19 c 9.86,1.57 16.83,9.29 15.56,17.24 z"
     id="path1333" />
  <path
     class="cls-6"
     d="m 135.46,178.33 a 15,15 0 0 0 12.32,-11.12 c 0.11,-0.45 0.2,-0.89 0.27,-1.34 a 14.82,14.82 0 0 0 -0.92,-8 15.09,15.09 0 0 0 -4.81,-6.27 3.9010415,3.9010415 0 1 0 -4.71,6.22 7.15,7.15 0 0 1 2.3,3 7.06,7.06 0 0 1 0.45,3.82 c 0,0.22 -0.08,0.43 -0.14,0.65 a 7.05,7.05 0 0 1 -2.18,3.59 7.29,7.29 0 0 1 -3.72,1.74 3.9,3.9 0 1 0 1.14,7.71 z"
     id="path1335" />
  <path
     class="cls-6"
     d="m 225.45,193.74 a 7.2,7.2 0 0 1 -2.33,-3 7,7 0 0 1 -0.45,-3.83 c 0,-0.22 0.08,-0.43 0.13,-0.65 a 7.16,7.16 0 0 1 5.86,-5.32 3.9,3.9 0 1 0 -1.18,-7.71 15,15 0 0 0 -12.24,11.11 c -0.11,0.45 -0.2,0.89 -0.27,1.34 a 15,15 0 0 0 5.8,14.31 3.9,3.9 0 1 0 4.68,-6.23 z"
     id="path1337" />
  <path
     class="cls-7"
     d="M 205.15,186.24 A 27.64,27.64 0 0 1 155.77,173.6 Z"
     id="path1339" />
  <path
     class="cls-8"
     d="m 180.83,188.71 -21.74,-5.52 a 27.58,27.58 0 0 0 27.09,13.82 7.27,7.27 0 0 0 -5.35,-8.3 z"
     id="path1341" />
  <polyline
     class="cls-8"
     points="153.99 317.31 163.25 318.79 163.53 317.07 154.26 315.59"
     id="polyline1343"
     transform="translate(-66,-35.4)" />
  <line
     class="cls-9"
     x1="162.85001"
     y1="116.98"
     x2="160.92999"
     y2="124.3"
     id="line1345" />
  <path
     class="cls-9"
     d="m 212.39,138.38 a 11.110204,11.110204 0 0 1 21.23,6.56"
     id="path1347" />
  <rect
     class="cls-5"
     x="73.333466"
     y="306.07986"
     width="73.269997"
     height="47.009998"
     transform="rotate(-21.4)"
     id="rect1349" />
  <path
     class="cls-10"
     d="m 302.31,456.48 h -23.93 a 62.22,62.22 0 0 1 -62.22,-62.22 v -11.9 h 148.38 v 11.9 a 62.23,62.23 0 0 1 -62.23,62.22"
     id="path1351" />
  <path
     class="cls-11"
     d="m 243.59,402.65 c -0.5,0.12 -1,0.22 -1.49,0.31 v 4.1 h 5.84 v -1.46 h -4.35 v -2.92 m -17,-2.05 H 222 v 11.44 h 11.68 v -6.59 h -5.88 v 1.49 h 4.35 v 3.63 h -8.7 v -8.47 h 5.66 a 11.44,11.44 0 0 1 -2.53,-1.48 m 27.2,0 h -4 a 35.66,35.66 0 0 1 -3.69,1.37 l -0.37,0.11 h 6.57 v 8.47 H 238.5 v -7.13 c -0.51,0 -1,0.06 -1.49,0.06 v 8.56 h 16.77 V 400.6"
     id="path1353" />
  <polyline
     class="cls-11"
     points="355.74 436 344.06 436 344.06 442.46 349.9 442.46 349.9 440.97 345.55 440.97 345.55 437.48 354.25 437.48 354.25 445.95 340.46 445.95 340.46 436 323.92 436 323.92 447.44 335.6 447.44 335.6 440.86 329.76 440.86 329.76 442.34 334.11 442.34 334.11 445.95 325.41 445.95 325.41 437.48 338.97 437.48 338.97 447.44 355.74 447.44 355.74 436"
     id="polyline1355"
     transform="translate(-66,-35.4)" />
  <polyline
     class="cls-11"
     points="417.25 436 405.57 436 405.57 442.46 411.41 442.46 411.41 440.97 407.06 440.97 407.06 437.48 415.76 437.48 415.76 445.95 401.96 445.95 401.96 436 385.43 436 385.43 447.44 397.1 447.44 397.1 440.86 391.27 440.86 391.27 442.34 395.62 442.34 395.62 445.95 386.92 445.95 386.92 437.48 400.48 437.48 400.48 447.44 417.25 447.44 417.25 436"
     id="polyline1357"
     transform="translate(-66,-35.4)" />
  <path
     class="cls-11"
     d="m 363.53,405.45 h -2.3 v 1.49 h 2 c 0.1,-0.49 0.2,-1 0.29,-1.49 m 0.69,-4.85 h -8.83 v 11.44 H 362 c 0.15,-0.5 0.29,-1 0.42,-1.49 h -5.5 v -8.47 h 7.17 c 0.06,-0.49 0.12,-1 0.17,-1.48"
     id="path1359" />
  <path
     class="cls-12"
     d="M 351.16,394.46 H 229.53 a 13.37,13.37 0 1 1 0,-26.74 h 121.63 a 13.37,13.37 0 1 1 0,26.74"
     id="path1361" />
  <path
     class="cls-13"
     d="M 350.13,394.46 H 229.46 a 9.9,9.9 0 0 1 -9.9,-9.9 10.83,10.83 0 0 1 10.83,-10.83 H 349.2 a 10.83,10.83 0 0 1 10.8,10.87 9.9,9.9 0 0 1 -9.9,9.9"
     id="path1363" />
  <path
     class="cls-14"
     d="m 348.72,390.67 h -77.87 a 21.33,21.33 0 0 1 21.33,-21.33 h 35.2 a 21.33,21.33 0 0 1 21.34,21.33"
     id="path1365" />
  <path
     class="cls-15"
     d="m 276.52,390.67 v -1.49 a 14.45,14.45 0 0 1 5.69,-11.16 22.19,22.19 0 0 1 14,-4.69 H 323 a 22.17,22.17 0 0 1 13.95,4.69 14.46,14.46 0 0 1 5.7,11.16 v 1.49 h 1.48 v -1.49 a 15.94,15.94 0 0 0 -6.24,-12.31 23.59,23.59 0 0 0 -14.89,-5 h -26.84 a 23.61,23.61 0 0 0 -14.89,5 15.94,15.94 0 0 0 -6.27,12.31 v 1.49 h 1.49"
     id="path1367" />
  <path
     class="cls-14"
     d="m 281.05,390.67 v -1.92 c 0,-6.73 6.7,-12.19 15,-12.19 h 27.1 c 8.27,0 15,5.46 15,12.19 v 1.92 h -57.1"
     id="path1369" />
  <path
     class="cls-15"
     d="m 281.79,390.67 v -1.92 a 10.43,10.43 0 0 1 4.12,-8 16,16 0 0 1 10.09,-3.45 h 27.1 a 16.08,16.08 0 0 1 10.12,3.41 10.42,10.42 0 0 1 4.11,8 v 1.92 h 1.49 v -1.92 a 11.89,11.89 0 0 0 -4.67,-9.2 17.51,17.51 0 0 0 -11.05,-3.73 H 296 a 17.53,17.53 0 0 0 -11,3.82 11.88,11.88 0 0 0 -4.66,9.2 v 1.92 h 1.48"
     id="path1371" />
  <path
     class="cls-15"
     d="m 289.27,390.67 v -2.46 a 6.2,6.2 0 0 1 2.46,-4.8 9.71,9.71 0 0 1 6.13,-2.06 h 23.43 a 9.71,9.71 0 0 1 6.13,2.06 6.2,6.2 0 0 1 2.46,4.8 v 2.46 h 1.49 v -2.46 a 7.7,7.7 0 0 0 -3,-5.95 11.21,11.21 0 0 0 -7.07,-2.39 h -23.44 a 11.21,11.21 0 0 0 -7.07,2.39 7.7,7.7 0 0 0 -3,5.95 v 2.46 z"
     id="path1373" />
  <polyline
     class="cls-16"
     points="332.71 412.72 312.49 412.72 297.83 393.51 318.05 393.51 332.71 412.72"
     id="polyline1375"
     transform="translate(-66,-35.4)" />
  <polyline
     class="cls-17"
     points="306.4 413.1 338.03 413.1 338.4 412.72 338.03 412.35 306.4 412.35 306.02 412.72 306.4 413.1"
     id="polyline1377"
     transform="translate(-66,-35.4)" />
  <g
     class="cls-18"
     clip-path="url(#clip-path)"
     id="g1439"
     transform="translate(-66,-35.4)">
    <path
       class="cls-10"
       d="m 303,437.48 h -7.9 a 19.2,19.2 0 0 0 7.56,1.41 H 303 v -1.4 m 8.71,0 h -2.13 v 0.57 q 1.07,-0.24 2.13,-0.57 m -3.62,-1 a 31.1,31.1 0 0 1 -3.6,0.5 v 1.83 a 29.08,29.08 0 0 0 3.6,-0.46 v -1.87 m -18.67,-5.49 0.19,0.72 a 8.62,8.62 0 0 0 3,4.26 h 2.78 c -2.86,-1 -5,-2.71 -5.94,-5 m 35.21,-1.16 h -2.42 a 29.7,29.7 0 0 1 -10.66,5.75 l -1.32,0.39 h 5.55 a 25.48,25.48 0 0 0 8.85,-6.14"
       id="path1379" />
    <path
       class="cls-11"
       d="m 295.36,436 h -2.78 a 11.44,11.44 0 0 0 2.53,1.48 H 303 v 1.4 c 0.49,0 1,0 1.49,-0.06 V 437 q -1.12,0.09 -2.19,0.09 a 21,21 0 0 1 -6.95,-1.08 m 20.42,0 h -5.55 c -0.72,0.19 -1.42,0.35 -2.13,0.49 v 1.87 c 0.49,-0.09 1,-0.19 1.49,-0.31 v -0.57 h 2.13 l 0.37,-0.11 a 35.66,35.66 0 0 0 3.69,-1.37"
       id="path1381" />
    <path
       class="cls-10"
       d="m 288.88,428.09 v 0.26 a 7.19,7.19 0 0 0 0.32,2 l 0.23,0.62 c 0.95,2.27 3.08,4 5.94,5 h 9.14 v 1 a 31.1,31.1 0 0 0 3.6,-0.5 V 436 h 2.13 l 1.32,-0.39 a 29.7,29.7 0 0 0 10.66,-5.75 H 313 a 18,18 0 0 1 -2.36,0.91 19.58,19.58 0 0 1 -5.76,0.89 16.61,16.61 0 0 1 -1.87,-0.1 8.76,8.76 0 0 1 -3.46,-1.06 5.2,5.2 0 0 1 -0.86,-0.64 h -3.23 -0.54 a 13.18,13.18 0 0 1 -6,-1.75"
       id="path1383" />
    <path
       class="cls-11"
       d="m 304.5,436 h -9.14 a 21,21 0 0 0 6.95,1.08 q 1.06,0 2.19,-0.09 v -1 m 5.73,0 h -2.13 v 0.49 c 0.71,-0.14 1.41,-0.3 2.13,-0.49"
       id="path1385" />
    <path
       class="cls-12"
       d="m 288.93,427.4 -0.05,0.69 a 13.18,13.18 0 0 0 6,1.75 9.82,9.82 0 0 1 -6,-2.44"
       id="path1387" />
    <path
       class="cls-10"
       d="m 308.38,429.86 h -6.62 a 10.62,10.62 0 0 0 1.42,0.26 13.46,13.46 0 0 0 1.69,0.1 18.1,18.1 0 0 0 3.51,-0.36"
       id="path1389" />
    <path
       class="cls-10"
       d="m 313,429.86 h -4.62 a 18.1,18.1 0 0 1 -3.51,0.36 13.46,13.46 0 0 1 -1.69,-0.1 10.62,10.62 0 0 1 -1.42,-0.26 h -3.07 a 5.2,5.2 0 0 0 0.86,0.64 8.76,8.76 0 0 0 3.46,1.06 16.61,16.61 0 0 0 1.87,0.1 19.58,19.58 0 0 0 5.76,-0.89 18,18 0 0 0 2.36,-0.91"
       id="path1391" />
    <path
       class="cls-19"
       d="m 326,427.16 h -0.64 l -0.62,0.05 v 0 a 19.73,19.73 0 0 1 -2.51,2.61 h 2.42 a 14.78,14.78 0 0 0 1.88,-2.65 h -0.49"
       id="path1393" />
    <path
       class="cls-20"
       d="m 312,412 c -0.9,0.06 -1.83,0.17 -2.76,0.32 h 3 L 312,412"
       id="path1395" />
    <path
       class="cls-20"
       d="m 308.39,429.86 v 0 m 13.82,0 v 0 m -27.29,0 h 0.54 -0.54"
       id="path1397" />
    <path
       class="cls-20"
       d="m 288.93,427.4 v 0 a 9.82,9.82 0 0 0 6,2.44 H 295 a 9.85,9.85 0 0 1 -6.1,-2.45"
       id="path1399" />
    <path
       class="cls-20"
       d="m 306.14,413 c -0.49,0.13 -1,0.27 -1.5,0.43 -8.78,2.73 -15.07,8.54 -15.71,14 a 9.85,9.85 0 0 0 6.1,2.45 h 3.66 a 3.49,3.49 0 0 1 -1,-1.55 3.67,3.67 0 0 1 0.73,-3.3 8.57,8.57 0 0 1 4.34,-2.75 12.79,12.79 0 0 1 3.76,-0.58 9.87,9.87 0 0 1 1.22,0.07 l -0.16,1.44 a 9.28,9.28 0 0 0 -1.06,-0.06 11.3,11.3 0 0 0 -3.33,0.51 7.21,7.21 0 0 0 -3.61,2.23 2.2,2.2 0 0 0 -0.51,2 2.61,2.61 0 0 0 1.23,1.38 6.15,6.15 0 0 0 1.47,0.6 h 6.63 a 18,18 0 0 0 1.82,-0.47 11.65,11.65 0 0 0 5.84,-3.62 3.88,3.88 0 0 0 0.85,-3.51 4.37,4.37 0 0 0 -2.09,-2.37 11.77,11.77 0 0 0 -4.67,-1.41 24.16,24.16 0 0 0 -2.7,-0.15 29,29 0 0 0 -8.46,1.3 c -4.07,1.26 -7.55,3.37 -9.34,5.81 l -0.44,0.68 a 12.66,12.66 0 0 1 2.51,-4.59 24.52,24.52 0 0 1 6.84,-3.28 30.44,30.44 0 0 1 8.88,-1.37 27.45,27.45 0 0 1 2.87,0.16 13.11,13.11 0 0 1 5.25,1.61 5.85,5.85 0 0 1 2.74,3.19 5.32,5.32 0 0 1 -1.08,4.79 11.11,11.11 0 0 1 -4.21,3.23 h 9.21 a 19.73,19.73 0 0 0 2.51,-2.61 l -0.58,-0.14 c -0.73,-0.44 -0.73,-1.64 -1.18,-2.15 -0.45,-0.51 -1.68,-1 -1.68,-1.78 l 0.12,-0.39 -0.12,-0.4 c 0,-0.73 1.14,-1.13 1.69,-1.78 0.55,-0.65 0.44,-1.71 1.17,-2.15 l 0.62,-0.13 h 0.62 l 0.64,0.05 0.61,-0.1 0.22,-0.12 c -0.9,-2.32 -3,-4.06 -5.88,-5.11 H 306.4 l -0.26,-0.09"
       id="path1401" />
    <path
       class="cls-20"
       d="m 313.89,412 c -0.64,0 -1.28,0 -1.93,0.07 l 0.24,0.32 h 6 A 23,23 0 0 0 313.86,412"
       id="path1403" />
    <path
       class="cls-20"
       d="m 318.23,412.35 h -9 c -1,0.16 -2,0.38 -3.06,0.65 l 0.26,0.09 H 321 a 17.15,17.15 0 0 0 -2.74,-0.74"
       id="path1405" />
    <path
       class="cls-21"
       d="m 307.43,416.88 a 30.44,30.44 0 0 0 -8.88,1.37 24.52,24.52 0 0 0 -6.84,3.28 12.66,12.66 0 0 0 -2.51,4.59 l 0.44,-0.68 c 1.79,-2.44 5.27,-4.55 9.34,-5.81 a 29,29 0 0 1 8.46,-1.3 24.16,24.16 0 0 1 2.7,0.15 11.77,11.77 0 0 1 4.67,1.41 4.37,4.37 0 0 1 2.09,2.37 3.88,3.88 0 0 1 -0.85,3.51 11.65,11.65 0 0 1 -5.84,3.62 18,18 0 0 1 -1.82,0.47 H 313 a 11.11,11.11 0 0 0 4.21,-3.23 5.32,5.32 0 0 0 1.08,-4.79 5.85,5.85 0 0 0 -2.74,-3.19 13.11,13.11 0 0 0 -5.25,-1.65 27.45,27.45 0 0 0 -2.87,-0.16"
       id="path1407" />
    <path
       class="cls-21"
       d="m 306.51,421.68 a 12.79,12.79 0 0 0 -3.76,0.58 8.57,8.57 0 0 0 -4.34,2.75 3.67,3.67 0 0 0 -0.73,3.3 3.49,3.49 0 0 0 1,1.55 h 3.07 a 6.15,6.15 0 0 1 -1.47,-0.6 2.61,2.61 0 0 1 -1.23,-1.38 2.2,2.2 0 0 1 0.51,-2 7.21,7.21 0 0 1 3.61,-2.23 11.3,11.3 0 0 1 3.33,-0.51 9.28,9.28 0 0 1 1.06,0.06 l 0.16,-1.44 a 9.87,9.87 0 0 0 -1.22,-0.07"
       id="path1409" />
    <path
       class="cls-22"
       d="m 321.4,422.79 -0.12,0.39 c 0,0.73 1.13,1.13 1.68,1.78 0.55,0.65 0.45,1.71 1.18,2.15 l 0.58,0.14 v 0 l 0.62,-0.05 h 0.64 0.49 0.12 c 0.67,0.26 1.13,1.39 1.91,1.59 h 0.23 a 3,3 0 0 0 1,-0.25 3.06,3.06 0 0 1 1,-0.26 H 331 c 0.73,0.12 1.39,1.14 2.18,1.2 h 0.06 c 0.73,0 1.51,-0.86 2.28,-0.86 0.77,0 1.54,0.86 2.27,0.86 h 0.07 c 0.78,-0.06 1.44,-1.08 2.18,-1.2 h 0.18 a 3.12,3.12 0 0 1 1,0.26 3.06,3.06 0 0 0 1,0.25 h 0.23 c 0.79,-0.2 1.24,-1.33 1.91,-1.59 l 0.62,-0.09 h 0.64 l 0.61,0.05 0.62,-0.14 a 1.83,1.83 0 0 0 0.7,-1 h -0.41 l -0.29,0.25 -0.62,0.14 h -0.61 -0.64 l -0.62,0.09 c -0.67,0.26 -1.12,1.39 -1.91,1.59 h -0.23 a 3.06,3.06 0 0 1 -1,-0.25 3.12,3.12 0 0 0 -1,-0.26 H 340 c -0.74,0.12 -1.4,1.14 -2.18,1.2 h -0.07 c -0.73,0 -1.51,-0.86 -2.27,-0.86 -0.76,0 -1.55,0.86 -2.28,0.86 h -0.06 c -0.79,-0.06 -1.45,-1.08 -2.18,-1.2 h -0.18 a 3.06,3.06 0 0 0 -1,0.26 3.11,3.11 0 0 1 -1,0.25 h -0.23 c -0.78,-0.2 -1.24,-1.33 -1.91,-1.59 l -0.61,-0.09 h -0.64 -0.62 l -0.62,-0.14 v 0 c -0.72,-0.45 -0.73,-1.64 -1.17,-2.16 -0.44,-0.52 -1.26,-0.87 -1.56,-1.37"
       id="path1411" />
    <path
       class="cls-22"
       d="m 349.62,422.79 c -0.31,0.5 -1.13,0.86 -1.57,1.38 l -0.26,0.46 v 0.79 l 0.26,-0.46 c 0.54,-0.64 1.66,-1 1.68,-1.75 v 0 l -0.11,-0.37"
       id="path1413" />
    <path
       class="cls-22"
       d="m 347.79,424.63 a 5,5 0 0 1 -0.63,1.44 h 0.41 l 0.22,-0.65 v -0.79"
       id="path1415" />
    <path
       class="cls-11"
       d="m 336,421.78 a 7.85,7.85 0 0 0 -2.67,0.43 c -0.7,0.26 -1.09,0.63 -1.14,0.86 v 0.18 l 0.26,0.59 a 2.91,2.91 0 0 0 0.91,0.68 9.17,9.17 0 0 0 3.44,0.9 h 0.07 v -0.64 h -0.12 a 3.41,3.41 0 0 1 -2.26,-0.9 1.05,1.05 0 0 1 -0.28,-0.7 v -0.28 l 0.49,-0.36 h 0.14 a 0.49,0.49 0 0 1 0.34,0.61 v 0 0.06 l 0.28,0.21 a 3.7,3.7 0 0 0 1.3,0.33 H 337 c 0.07,-0.65 0.17,-1.28 0.29,-1.91 l -0.37,-0.05 h -0.86 v 0 m -0.74,-2.63 a 13.42,13.42 0 0 0 -7.1,1.77 8,8 0 0 0 -3.7,5.51 l -0.34,-0.11 0.62,0.14 h 0.62 0.64 l 0.61,0.09 c 0.67,0.26 1.13,1.39 1.91,1.59 h 0.23 a 3.11,3.11 0 0 0 1,-0.25 3.06,3.06 0 0 1 1,-0.26 H 331 c 0.73,0.12 1.39,1.14 2.18,1.2 h 0.06 c 0.73,0 1.51,-0.86 2.28,-0.86 0.77,0 1.54,0.86 2.27,0.86 h 0.07 c 0.78,-0.06 1.44,-1.08 2.18,-1.2 h 0.17 a 3.12,3.12 0 0 1 1,0.26 3.06,3.06 0 0 0 1,0.25 h 0.23 c 0.79,-0.2 1.24,-1.33 1.91,-1.59 l 0.62,-0.09 h 0.64 0.61 l 0.62,-0.14 0.29,-0.25 h -5.43 a 14.65,14.65 0 0 1 -3.58,0.42 q -0.7,0 -1.44,-0.06 c -2.29,-0.21 -4.12,-0.88 -5,-1.93 a 2,2 0 0 1 -0.5,-1.25 l 0.07,-0.47 a 2.67,2.67 0 0 1 1.75,-1.52 8.77,8.77 0 0 1 3,-0.49 c 0.31,0 0.63,0 0.94,0 l 0.52,0.06 c 0.13,-0.53 0.28,-1 0.45,-1.55 l -0.95,-0.1 c -0.57,-0.05 -1.14,-0.07 -1.7,-0.07 v 0 m 2.5,-3.14 c -0.73,0 -1.51,0.86 -2.27,0.86 -0.76,0 -1.49,-0.84 -2.26,-0.84 h -0.06 c -0.79,0.06 -1.45,1.09 -2.18,1.2 h -0.18 a 3.06,3.06 0 0 1 -1,-0.26 3.39,3.39 0 0 0 -1,-0.25 h -0.23 c -0.7,0.17 -1.13,1.08 -1.69,1.46 l -0.22,0.12 -0.61,0.1 -0.64,-0.05 h -0.62 l -0.62,0.13 c -0.73,0.44 -0.73,1.64 -1.17,2.15 -0.44,0.51 -1.69,1.05 -1.69,1.78 l 0.12,0.4 c 0.3,0.5 1.12,0.85 1.56,1.37 0.44,0.52 0.45,1.71 1.17,2.16 a 1.43,1.43 0 0 1 -0.51,-0.65 8.94,8.94 0 0 1 4,-5.61 14.4,14.4 0 0 1 7.64,-1.92 c 0.59,0 1.19,0 1.78,0.07 l 1.22,0.14 c 0.22,-0.58 0.47,-1.14 0.74,-1.7 A 2.38,2.38 0 0 0 337.86,416 h -0.07"
       id="path1417" />
    <path
       class="cls-11"
       d="m 337.26,421.86 c -0.12,0.63 -0.22,1.26 -0.29,1.91 h 0.42 a 4.8,4.8 0 0 0 1.65,-0.26 c 0.43,-0.15 0.62,-0.38 0.62,-0.43 V 423 l -0.12,-0.26 a 1.76,1.76 0 0 0 -0.53,-0.39 5.12,5.12 0 0 0 -1.76,-0.51 M 343,421 a 12.73,12.73 0 0 0 -0.51,3.6 v 0.18 c 1.09,-0.42 1.75,-1 1.88,-1.5 l 0.05,-0.37 a 1.69,1.69 0 0 0 -0.47,-1.1 4.14,4.14 0 0 0 -1,-0.81 m -5.09,-1.66 c -0.17,0.51 -0.32,1 -0.45,1.55 a 4.61,4.61 0 0 1 2.83,1.24 1.42,1.42 0 0 1 0.36,0.91 l -0.05,0.35 a 1.86,1.86 0 0 1 -1.23,1.1 5.89,5.89 0 0 1 -2,0.32 h -0.5 v 0.64 c 0.43,0 0.87,0.06 1.29,0.06 v 0 a 14.15,14.15 0 0 0 2.86,-0.28 v -0.62 a 14.68,14.68 0 0 1 0.65,-4.3 15,15 0 0 0 -3.74,-1 m 6.23,-1.11 a 14.34,14.34 0 0 0 -0.82,1.78 5.61,5.61 0 0 1 1.4,1.14 2.68,2.68 0 0 1 0.71,1.76 l -0.09,0.65 a 3.91,3.91 0 0 1 -2.56,2.2 l -0.29,0.1 v 0.23 h 3.79 v -1.92 a 10.94,10.94 0 0 1 1.16,-4.9 1.59,1.59 0 0 0 -0.6,-0.79 l -0.62,-0.13 h -0.61 l -0.64,0.05 -0.61,-0.1 -0.22,-0.11 M 339,416.65 c -0.27,0.56 -0.52,1.12 -0.74,1.7 a 16.21,16.21 0 0 1 3.73,1 15.08,15.08 0 0 1 1.07,-2.22 l -0.62,-0.36 h -0.23 a 3.33,3.33 0 0 0 -1,0.25 3.12,3.12 0 0 1 -1,0.26 H 340 a 2.35,2.35 0 0 1 -1,-0.56"
       id="path1419" />
    <path
       class="cls-11"
       d="m 342.52,426.07 v 0 m 0,-0.23 c -0.26,0.09 -0.52,0.16 -0.79,0.23 h 0.79 v -0.23 m -0.84,-5.56 a 14.68,14.68 0 0 0 -0.65,4.3 v 0.62 a 10,10 0 0 0 1.42,-0.41 h 0.07 v -0.18 A 12.73,12.73 0 0 1 343,421 l -0.55,-0.33 c -0.25,-0.13 -0.51,-0.25 -0.8,-0.37 m 1.41,-3.18 a 15.08,15.08 0 0 0 -1.07,2.22 8.69,8.69 0 0 1 1.33,0.67 14.34,14.34 0 0 1 0.82,-1.78 12.74,12.74 0 0 1 -1.08,-1.11"
       id="path1421" />
    <path
       class="cls-11"
       d="m 348.37,420.93 a 9.22,9.22 0 0 0 -0.58,3.22 v 0.48 l 0.26,-0.46 c 0.44,-0.52 1.26,-0.88 1.57,-1.38 l 0.11,-0.37 v -0.05 c 0,-0.6 -0.79,-1 -1.36,-1.44"
       id="path1423" />
    <path
       class="cls-11"
       d="m 347.47,419.25 a 10.94,10.94 0 0 0 -1.16,4.9 v 1.92 h 0.85 a 5,5 0 0 0 0.63,-1.44 v -0.48 a 9.22,9.22 0 0 1 0.58,-3.22 l -0.32,-0.31 a 5.88,5.88 0 0 1 -0.58,-1.37"
       id="path1425" />
    <polyline
       class="cls-23"
       points="335.24 423.17 335.2 423.17 335.24 423.18 335.24 423.17"
       id="polyline1427" />
    <polyline
       class="cls-23"
       points="335.24 423.17 335.24 423.17 335.24 423.18 335.24 423.17"
       id="polyline1429" />
    <polyline
       class="cls-23"
       points="335.24 423.16 335.21 423.17 335.24 423.17 335.24 423.17 335.24 423.16"
       id="polyline1431" />
    <path
       class="cls-23"
       d="m 334.76,422.53 -0.49,0.36 v 0.28 a 1.05,1.05 0 0 0 0.28,0.7 3.41,3.41 0 0 0 2.26,0.9 h 0.12 c 0,-0.34 0,-0.68 0.08,-1 h -0.11 a 3.7,3.7 0 0 1 -1.3,-0.33 l -0.28,-0.21 v -0.06 0 a 0.49,0.49 0 0 0 -0.34,-0.61 h -0.14 m 1.27,-1.76 a 8.77,8.77 0 0 0 -3,0.49 2.67,2.67 0 0 0 -1.75,1.52 l -0.07,0.47 a 2,2 0 0 0 0.5,1.25 c 0.92,1.05 2.75,1.72 5,1.93 q 0.74,0.06 1.44,0.06 a 14.65,14.65 0 0 0 3.58,-0.42 h -4.88 v -0.65 h -0.07 a 9.17,9.17 0 0 1 -3.44,-0.9 2.91,2.91 0 0 1 -0.91,-0.68 l -0.26,-0.59 v -0.18 c 0.05,-0.23 0.44,-0.6 1.14,-0.86 a 7.85,7.85 0 0 1 2.67,-0.43 v 0 h 0.86 l 0.37,0.05 c 0.07,-0.34 0.14,-0.67 0.23,-1 L 337,420.8 c -0.31,0 -0.63,0 -0.94,0 m -0.74,-2.63 a 14.4,14.4 0 0 0 -7.64,1.92 8.94,8.94 0 0 0 -4,5.61 1.43,1.43 0 0 0 0.51,0.65 v 0 l 0.34,0.11 a 8,8 0 0 1 3.7,-5.51 13.42,13.42 0 0 1 7.1,-1.77 v 0 c 0.56,0 1.13,0 1.7,0.07 l 0.95,0.1 c 0.1,-0.32 0.22,-0.65 0.35,-1 l -1.22,-0.14 c -0.59,0 -1.19,-0.07 -1.78,-0.07"
       id="path1433" />
    <path
       class="cls-23"
       d="m 341,425.2 a 14.15,14.15 0 0 1 -2.86,0.28 v 0 c -0.42,0 -0.86,0 -1.29,-0.06 v 0.65 H 341 v -0.87 m -3.54,-4.33 c -0.09,0.32 -0.16,0.65 -0.23,1 a 5.12,5.12 0 0 1 1.76,0.51 1.76,1.76 0 0 1 0.53,0.39 l 0.12,0.26 v 0.07 c 0,0.05 -0.19,0.28 -0.62,0.43 a 4.8,4.8 0 0 1 -1.65,0.26 H 337 c 0,0.33 -0.07,0.67 -0.08,1 h 0.5 a 5.89,5.89 0 0 0 2,-0.32 1.86,1.86 0 0 0 1.23,-1.1 l 0.05,-0.35 a 1.42,1.42 0 0 0 -0.36,-0.91 4.61,4.61 0 0 0 -2.83,-1.24 m 5.86,-0.88 c -0.12,0.32 -0.23,0.65 -0.32,1 a 4.14,4.14 0 0 1 1,0.81 1.69,1.69 0 0 1 0.47,1.1 l -0.05,0.37 c -0.13,0.49 -0.79,1.08 -1.88,1.5 v 1.08 l 0.29,-0.1 a 3.91,3.91 0 0 0 2.56,-2.2 l 0.09,-0.65 a 2.68,2.68 0 0 0 -0.71,-1.76 5.61,5.61 0 0 0 -1.4,-1.14 m -5.06,-1.64 c -0.13,0.32 -0.25,0.65 -0.35,1 a 15,15 0 0 1 3.74,1 c 0.1,-0.32 0.21,-0.64 0.34,-1 a 16.21,16.21 0 0 0 -3.73,-1"
       id="path1435" />
    <path
       class="cls-23"
       d="m 342.52,424.76 h -0.07 a 10,10 0 0 1 -1.42,0.41 v 0.87 h 0.7 c 0.27,-0.07 0.53,-0.14 0.79,-0.23 v -1.08 m -0.5,-5.44 c -0.13,0.32 -0.24,0.64 -0.34,1 0.29,0.12 0.55,0.24 0.8,0.37 l 0.55,0.33 c 0.09,-0.34 0.2,-0.67 0.32,-1 a 8.69,8.69 0 0 0 -1.33,-0.67"
       id="path1437" />
  </g>
  <rect
     class="cls-24"
     x="258.09"
     y="453.58002"
     width="65.089996"
     height="6.2800002"
     id="rect1441" />
  <polyline
     class="cls-25"
     points="318.01 418.2 320.23 417.51 319.79 416.09 317.57 416.78"
     id="polyline1443"
     transform="translate(-66,-35.4)" />
  <polyline
     class="cls-25"
     points="325.74 415.7 327.36 416.13 327.74 414.69 326.11 414.26"
     id="polyline1445"
     transform="translate(-66,-35.4)" />
  <polyline
     class="cls-25"
     points="329.71 421.66 328.08 422.53 328.78 423.84 330.41 422.97"
     id="polyline1447"
     transform="translate(-66,-35.4)" />
  <polyline
     class="cls-25"
     points="337.68 414.69 340.26 416.06 340.96 414.75 338.38 413.38"
     id="polyline1449"
     transform="translate(-66,-35.4)" />
  <polyline
     class="cls-25"
     points="350.49 424.91 347.91 426.9 348.82 428.08 351.4 426.08"
     id="polyline1451"
     transform="translate(-66,-35.4)" />
  <polyline
     class="cls-25"
     points="358.5 423.86 360.95 424.95 361.55 423.59 359.11 422.5"
     id="polyline1453"
     transform="translate(-66,-35.4)" />
  <polyline
     class="cls-25"
     points="353.93 416.7 352.52 418.57 353.71 419.46 355.12 417.59"
     id="polyline1455"
     transform="translate(-66,-35.4)" />
  <polyline
     class="cls-25"
     points="310.75 426.79 313.46 427.5 313.84 426.06 311.13 425.35"
     id="polyline1457"
     transform="translate(-66,-35.4)" />
  <polyline
     class="cls-25"
     points="300.15 417.74 303.63 418.79 304.06 417.37 300.58 416.32"
     id="polyline1459"
     transform="translate(-66,-35.4)" />
  <polyline
     class="cls-25"
     points="308.13 416.65 309.93 417.69 310.67 416.4 308.88 415.37"
     id="polyline1461"
     transform="translate(-66,-35.4)" />
  <polygon
     class="cls-26"
     points="320.01,453.16 430.05,401.82 434.27,402.75 433.8,406.56 "
     id="polygon1463"
     transform="translate(-66,-35.4)" />
  <path
     class="cls-27"
     d="m 252.44,417.82 v 0 a 2.45,2.45 0 0 0 1.57,-0.06 l 113.8,-49.89 c 0.86,-0.38 0.5,-1.46 -0.59,-1.76 l -5.16,-1.21 a 1.56,1.56 0 0 0 -1,0.05 l -108.67,50.9 c -1.33,0.61 -1.64,1.51 0.05,1.97 z"
     id="path1465" />
  <polygon
     class="cls-26"
     points="324.09,455.92 428.7,396.41 433.01,397.01 432.91,400.85 "
     id="polygon1467"
     transform="translate(-66,-35.4)" />
  <path
     class="cls-27"
     d="m 256.53,420.7 v 0 a 2.32,2.32 0 0 0 1.56,-0.18 l 108.5,-58.35 c 0.82,-0.44 0.36,-1.49 -0.76,-1.71 l -5.25,-0.81 a 1.48,1.48 0 0 0 -1,0.13 l -103.29,59 c -1.29,0.67 -1.49,1.59 0.24,1.92 z"
     id="path1469" />
  <path
     class="cls-4"
     d="m 353.56652,320.97681 10.77635,-5.43645 a 18.79,18.79 0 0 1 25.23933,8.31292 l 2.54932,5.05337 a 13.13,13.13 0 0 1 -5.80886,17.63663 l -15.82973,7.98577 a 13.13,13.13 0 0 1 -17.5965,-5.84031 L 347.79779,338.582 a 13.13,13.13 0 0 1 5.80886,-17.63664 z"
     id="path1471" />
  <path
     class="cls-28"
     d="m 357.44,325.74 c 0,0 -25.28,10.64 -27.94,26.93"
     id="path1473" />
  <path
     class="cls-29"
     d="m 104.73,260.4 c 0,0 -35.83,-0.73 -49.35,-32.21"
     id="path1475" />
  <rect
     class="cls-4"
     x="43.190002"
     y="18.51"
     width="43.560001"
     height="49.509998"
     rx="18.34"
     id="rect1477" />
  <path
     class="cls-30"
     d="m 49.67,35.1 c 0,0 0.83,-23 -3.82,-28.6"
     id="path1479" />
  <rect
     class="cls-22"
     x="287.57999"
     y="25.24"
     width="63.040001"
     height="52.68"
     rx="16.51"
     id="rect1481" />
  <path
     class="cls-31"
     d="m 334,43.75 a 9.21,9.21 0 0 0 -2.39,-3.15 l -0.56,-0.48 H 331 a 8.9,8.9 0 0 0 -2.23,-1.19 9.1,9.1 0 0 0 -6.85,0.23 9,9 0 0 0 -2.82,2 9.09,9.09 0 0 0 -2.81,-2 9.12,9.12 0 0 0 -6.86,-0.23 9,9 0 0 0 -2.84,1.67 9.17,9.17 0 0 0 -2.59,10 9.07,9.07 0 0 0 1.68,2.84 l 0.05,0.06 10.6,10.2 a 4.13,4.13 0 0 0 1.29,0.83 3.95,3.95 0 0 0 2.92,0 4.29,4.29 0 0 0 1.3,-0.83 l 10.59,-10.2 0.05,-0.06 a 9.07,9.07 0 0 0 1.7,-2.84 9.22,9.22 0 0 0 -0.23,-6.85 z"
     id="path1483" />
  <path
     class="cls-22"
     d="m 316.32,71.82 v 7.23 a 5.86,5.86 0 0 1 -5.85,5.86 h -7 a 3.21,3.21 0 0 0 0,6.42 h 7 a 12.27,12.27 0 0 0 12.27,-12.28 v -7.23 a 3.21,3.21 0 0 0 -6.42,0 z"
     id="path1485" />
  <path
     class="cls-32"
     d="m 355,23.92 10.47,-10.21 a 3.2105451,3.2105451 0 0 0 -4.48,-4.6 l -10.5,10.22 a 3.2174602,3.2174602 0 1 0 4.51,4.59"
     id="path1487" />
  <path
     class="cls-32"
     d="m 358.1,37.49 h 11.45 a 3.21,3.21 0 0 0 0,-6.42 H 358.1 a 3.21,3.21 0 0 0 0,6.42"
     id="path1489" />
  <path
     class="cls-32"
     d="M 343,17.71 V 8.07 a 3.21,3.21 0 0 0 -6.42,0 v 9.64 a 3.21,3.21 0 0 0 6.42,0"
     id="path1491" />
  <polygon
     class="cls-3"
     points="140.21,416.29 172.1,423 155.53,501.75 122.71,499.25 "
     id="polygon1493"
     transform="translate(-66,-35.4)" />
  <polygon
     class="cls-3"
     points="207.45,427.94 238.13,416.97 266.35,495.94 234,502.25 "
     id="polygon1495"
     transform="translate(-66,-35.4)" />
  <line
     class="cls-33"
     x1="3.5"
     y1="464.08002"
     x2="407.20999"
     y2="464.08002"
     id="line1497" />
  <polygon
     class="cls-32"
     points="396.4,354.42 392.52,367.1 388.33,354.59 380.87,350.7 388.17,346.51 392.06,334.98 396.24,346.35 403.7,350.24 "
     id="polygon1499"
     transform="translate(-66,-35.4)" />
  <polygon
     class="cls-32"
     points="353.58,387.79 351.52,394.49 349.31,387.88 345.37,385.83 349.23,383.62 351.28,377.52 353.49,383.53 357.43,385.58 "
     id="polygon1501"
     transform="translate(-66,-35.4)" />
  <polygon
     class="cls-32"
     points="477.28,408.41 475.23,415.11 473.02,408.5 469.08,406.44 472.93,404.23 474.99,398.14 477.2,404.15 481.14,406.2 "
     id="polygon1503"
     transform="translate(-66,-35.4)" />
  <line
     class="cls-34"
     x1="229.48001"
     y1="349.04001"
     x2="224.45999"
     y2="337.69"
     id="line1505" />
  <line
     class="cls-34"
     x1="216.17001"
     y1="360.29001"
     x2="205.84"
     y2="356.14001"
     id="line1507" />
  <line
     class="cls-34"
     x1="248.47"
     y1="347.02002"
     x2="253.35001"
     y2="339.48001"
     id="line1509" />
</svg>
