<?xml version="1.0" encoding="UTF-8" standalone="no"?>
<svg
   xmlns:dc="http://purl.org/dc/elements/1.1/"
   xmlns:cc="http://creativecommons.org/ns#"
   xmlns:rdf="http://www.w3.org/1999/02/22-rdf-syntax-ns#"
   xmlns:svg="http://www.w3.org/2000/svg"
   xmlns="http://www.w3.org/2000/svg"
   xmlns:sodipodi="http://sodipodi.sourceforge.net/DTD/sodipodi-0.dtd"
   xmlns:inkscape="http://www.inkscape.org/namespaces/inkscape"
   version="1.1"
   id="Layer_1"
   x="0px"
   y="0px"
   viewBox="0 0 420.5 443.79998"
   xml:space="preserve"
   sodipodi:docname="thumbs-up-illustration.svg"
   inkscape:version="1.0.2 (e86c870879, 2021-01-15)"><metadata
   id="metadata1240"><rdf:RDF><cc:Work
       rdf:about=""><dc:format>image/svg+xml</dc:format><dc:type
         rdf:resource="http://purl.org/dc/dcmitype/StillImage" /></cc:Work></rdf:RDF></metadata><defs
   id="defs1238" /><sodipodi:namedview
   pagecolor="#ffffff"
   bordercolor="#666666"
   borderopacity="1"
   objecttolerance="10"
   gridtolerance="10"
   guidetolerance="10"
   inkscape:pageopacity="0"
   inkscape:pageshadow="2"
   inkscape:window-width="1920"
   inkscape:window-height="1013"
   id="namedview1236"
   showgrid="false"
   inkscape:zoom="0.75872254"
   inkscape:cx="52.698237"
   inkscape:cy="221.92659"
   inkscape:window-x="0"
   inkscape:window-y="33"
   inkscape:window-maximized="1"
   inkscape:current-layer="Layer_1" />
<style
   type="text/css"
   id="style1177">
	.st0{fill:#101D23;}
	.st1{fill:#F7E0B1;stroke:#FFD505;stroke-width:7;stroke-linecap:round;stroke-miterlimit:10;}
	.st2{fill:none;stroke:#FFD505;stroke-width:7;stroke-linecap:round;stroke-miterlimit:10;}
	.st3{fill:#FD8F04;}
	.st4{fill:#FDD307;}
	.st5{fill:none;stroke:#FD8F04;stroke-width:30;stroke-miterlimit:10;}
	.st6{fill:#FAA747;}
	.st7{fill:none;stroke:#FDD307;stroke-width:44;stroke-miterlimit:10;}
	.st8{fill:none;stroke:#5B3103;stroke-width:8;stroke-linecap:round;stroke-miterlimit:10;}
	.st9{fill:none;stroke:#FD8F04;stroke-width:13;stroke-linecap:round;stroke-miterlimit:10;}
	.st10{fill:none;stroke:#FC4C01;stroke-miterlimit:10;}
	.st11{fill:#FFD505;}
</style>
<rect
   x="103.86497"
   y="429.44016"
   transform="rotate(-10.935735)"
   class="st0"
   width="29.098797"
   height="40.998306"
   id="rect1179"
   style="stroke-width:0.999959" />
<polygon
   class="st0"
   points="242.5,451.6 272.6,445.8 309.8,498.1 276.3,499.8 "
   id="polygon1181"
   transform="translate(-9.8,-59.2)" />
<path
   class="st0"
   d="m 265.2,403.5 -75.3,14.6 c -11.7,2.3 -23.1,-5.4 -25.4,-17.2 l -6.5,-33.7 117.8,-22.8 6.5,33.7 c 2.3,11.7 -5.3,23.1 -17.1,25.4 z"
   id="path1183" />
<g
   id="g1189"
   transform="translate(-9.8,-59.2)">
	<polygon
   class="st1"
   points=""
   id="polygon1185" />
	<line
   class="st2"
   x1="23.1"
   y1="499.5"
   x2="426.79999"
   y2="499.5"
   id="line1187" />
</g>
<rect
   x="120.80496"
   y="256.5184"
   transform="rotate(-10.795287)"
   class="st3"
   width="58.99984"
   height="37.499897"
   id="rect1191"
   style="stroke-width:0.999997" />
<path
   class="st3"
   d="m 208.8,25.8 1.1,11.6 c 0.4,3.8 -2.1,7.5 -5.8,8.3 -4.3,0.9 -8.4,-2.2 -8.8,-6.5 l -1.9,-19.5 c -0.1,-1.5 -1.3,-2.7 -2.8,-2.9 -2.7,-0.3 -5.5,-0.5 -8.3,-0.6 -1.9,0 -3.5,1.6 -3.3,3.6 l 2,20.4 c 0.4,3.8 -2.1,7.5 -5.8,8.3 -4.3,0.9 -8.4,-2.2 -8.8,-6.5 l -2.1,-20.8 c -0.2,-1.9 -2,-3.3 -3.9,-2.8 -2.7,0.6 -5.4,1.3 -8,2.2 -1.4,0.5 -2.3,1.9 -2.2,3.4 l 1.9,19.1 c 0.4,3.8 -2.1,7.5 -5.8,8.3 -4.3,0.9 -8.4,-2.2 -8.8,-6.5 l -1.2,-12 c -0.2,-2.4 -2.9,-3.7 -4.9,-2.4 -27.7,17.8 -44.7,50.1 -41.3,85.1 l 6.5,65.7 c 3.7,37.8 37.4,65.4 75.2,61.7 l 43.3,-4.3 c 37.8,-3.7 65.4,-37.4 61.7,-75.2 l -6.6,-65.7 c -3.5,-35 -26.4,-63.4 -57.1,-75.4 -2.2,-0.9 -4.6,1 -4.3,3.4 z"
   id="path1193" />
<path
   class="st4"
   d="m 280.7,366.9 -118.6,22.6 -21,-109.2 c -2.2,-11.7 5.4,-23 17.1,-25.2 l 79.6,-15.2 c 9.8,-1.9 19,3 20.5,10.9 z"
   id="path1195" />
<path
   class="st5"
   d="m 124.4,298.4 c 0,0 -27,45 5.8,83.1 30.2,35.1 124.1,7.8 112.2,-54"
   id="path1197" />
<path
   class="st6"
   d="m 155.1,190.7 c 2.6,-1.4 4.7,-3.5 6.1,-6 1.4,-2.5 2,-5.5 1.7,-8.6 0,-0.5 -0.1,-0.9 -0.2,-1.3 -0.5,-2.8 -1.8,-5.2 -3.6,-7.2 -1.8,-2 -4.1,-3.5 -6.7,-4.3 -2.1,-0.6 -4.2,0.5 -4.9,2.6 -0.6,2.1 0.5,4.2 2.6,4.9 1.2,0.4 2.3,1.1 3.2,2 0.9,0.9 1.5,2.1 1.7,3.4 0,0.2 0.1,0.4 0.1,0.7 0.1,1.5 -0.2,2.9 -0.8,4.1 -0.7,1.2 -1.7,2.2 -2.9,2.9 -1.9,1 -2.6,3.4 -1.6,5.3 1,1.8 3.4,2.5 5.3,1.5 z"
   id="path1199" />
<path
   class="st7"
   d="m 158.7,277.9 c 0,0 -38.2,4.1 -42.3,43.5"
   id="path1201" />
<path
   class="st6"
   d="m 244.9,174.6 c -1.2,-0.4 -2.4,-1.1 -3.2,-2 -0.9,-1 -1.5,-2.1 -1.7,-3.5 0,-0.2 -0.1,-0.4 -0.1,-0.6 -0.1,-1.5 0.2,-2.9 0.8,-4.1 0.7,-1.2 1.7,-2.2 2.9,-2.9 1.9,-1 2.6,-3.4 1.6,-5.3 -1,-1.9 -3.4,-2.6 -5.3,-1.6 -2.6,1.4 -4.6,3.5 -6,6 -1.4,2.5 -2,5.5 -1.7,8.6 0,0.5 0.1,0.9 0.2,1.3 0.5,2.8 1.8,5.3 3.6,7.2 1.8,2 4.1,3.5 6.7,4.3 2.1,0.6 4.2,-0.5 4.9,-2.6 0.6,-2 -0.6,-4.2 -2.7,-4.8 z"
   id="path1203" />
<path
   class="st8"
   d="m 213.8,127 c -0.3,-6.1 4.4,-11.3 10.6,-11.6 6.1,-0.3 11.3,4.4 11.6,10.6"
   id="path1205" />
<path
   class="st8"
   d="m 151.3,135.1 c -1.1,-6 3,-11.8 9,-12.8 6,-1.1 11.8,3 12.8,9"
   id="path1207" />
<g
   id="g1213"
   transform="translate(-9.8,-59.2)">
	<path
   class="st3"
   d="m 389.6,161.3 -6.5,2.2 c -9.6,3.3 -20,-1.8 -23.3,-11.4 L 355.6,140 c -3.3,-9.6 1.8,-20 11.4,-23.3 l 6.5,-2.2 c 9.6,-3.3 20,1.8 23.3,11.4 L 401,138 c 3.2,9.6 -1.9,20 -11.4,23.3 z"
   id="path1209" />
	<path
   class="st9"
   d="m 361.1,136.3 c 0,0 -6.7,-22 -12.9,-25.8"
   id="path1211" />
</g>
<path
   class="st5"
   d="m 267.2,244.1 c 0,0 147.3,-30 105.5,-157.4"
   id="path1215" />
<rect
   x="134.21199"
   y="307.05148"
   transform="rotate(-20.395771)"
   class="st4"
   width="73.2994"
   height="46.999615"
   id="rect1217"
   style="stroke-width:0.999992" />
<path
   class="st8"
   d="m 180.8,179.4 c 0,0 18,13.8 39.1,-3.5"
   id="path1219" />
<g
   id="g1225"
   transform="translate(-9.8,-59.2)">
	<path
   class="st3"
   d="m 258.5,392.4 -6.7,1.7 c -9.8,2.5 -19.8,-3.5 -22.3,-13.3 l -3.1,-12.4 c -2.5,-9.8 3.5,-19.8 13.3,-22.3 l 6.7,-1.7 c 9.8,-2.5 19.8,3.5 22.3,13.3 l 3.1,12.4 c 2.5,9.8 -3.5,19.8 -13.3,22.3 z"
   id="path1221" />
	<path
   class="st9"
   d="m 233.9,370.6 c 0,0 -4.8,-22.5 -10.7,-26.8"
   id="path1223" />
</g>
<path
   class="st10"
   d="m 146.1,307.5 c 0,0 4.2,-5.3 8.2,-6.1"
   id="path1227" />
<polygon
   class="st11"
   points="328.7,106.4 327.3,119.5 320.8,108.1 312.8,105.7 319.1,100.2 320.8,88.1 327,98.5 335.1,100.9 "
   id="polygon1229"
   transform="translate(-9.8,-59.2)" />
<polygon
   class="st11"
   points="423,145.6 422.2,152.6 418.8,146.5 414.6,145.2 417.9,142.3 418.8,136 422.1,141.4 426.4,142.7 "
   id="polygon1231"
   transform="translate(-9.8,-59.2)" />
<polygon
   class="st11"
   points="379.7,70.9 378.8,79.3 374.6,72 369.5,70.4 373.5,66.9 374.6,59.2 378.6,65.8 383.8,67.4 "
   id="polygon1233"
   transform="translate(-9.8,-59.2)" />
</svg>
