<svg id="Layer_1" data-name="Layer 1" xmlns="http://www.w3.org/2000/svg" viewBox="0 0 623.11 431.19"><defs><style>.cls-1{fill:#ffd400;}.cls-2{fill:#ffeec4;opacity:0.6;}.cls-3{fill:#97ca67;}.cls-4{fill:#fc6;}.cls-5{fill:#fd8f04;}.cls-6{fill:#5b3103;}.cls-7{fill:#193441;}.cls-8{fill:#faa747;}.cls-9{fill:#fc4c01;}.cls-10{fill:#ff5800;}.cls-11{fill:#ffe38d;}.cls-12{fill:#fff0ce;}.cls-13{fill:none;stroke:#193441;stroke-miterlimit:10;stroke-width:21px;}.cls-14{fill:#ffd988;}.cls-15{fill:#507591;}.cls-16{fill:#e8e1d7;}.cls-17{fill:#ffd978;}</style></defs><title>wellgetback</title><path class="cls-1" d="M183.67,463.55H672a1.42,1.42,0,0,0,0-2.84H183.67a1.42,1.42,0,1,0,0,2.84" transform="translate(-50.28 -32.35)"/><path class="cls-1" d="M153.5,460.71H51.69a1.42,1.42,0,0,0,0,2.84H153.5a1.42,1.42,0,0,0,0-2.84" transform="translate(-50.28 -32.35)"/><path class="cls-2" d="M519.43,293.12,506.09,284c-6.86-4.72-11.14-13.8-11.14-23.68v-4.12c0-9.87,4.28-19,11.14-23.68l13.34-9.16c30-20.65,52-56.11,60.56-97.94L592.18,66c-3.09-3.91-80.45-1.6-112-.49-31.56-1.11-108.92-3.42-112,.49l12.19,59.33c8.6,41.83,30.53,77.29,60.56,97.94l13.34,9.16c6.86,4.72,11.14,13.81,11.14,23.68v4.12c0,9.88-4.28,19-11.14,23.68l-13.34,9.17c-30,20.64-52,56.1-60.56,97.94l-12.19,59.32c3.09,3.92,80.45,1.61,112,.5,31.55,1.11,108.91,3.42,112-.5L580,391.06C571.39,349.22,549.47,313.76,519.43,293.12Z" transform="translate(-50.28 -32.35)"/><rect class="cls-3" x="308.05" y="25.16" width="238.79" height="15.05" rx="7.53"/><rect class="cls-3" x="308.05" y="413.33" width="238.79" height="15.05" rx="7.53"/><path class="cls-4" d="M564.09,391.75a13.64,13.64,0,0,0-7.19-7.93c-7.7-3.15-18.22-4.5-26.81-1.17-12.79,4.94-50.08,10.77-85.24-.45a95,95,0,0,0-31.55-4.34c-7.7.21-14.64,5.82-18,14.57a162.87,162.87,0,0,0-5.78,18.28l-4.78,18.93c-.72,2.83.93,5.73,3.28,5.75,16.61.19,72.5,0,91.81-.11,18.82.08,72.36.28,90.46.13,3,0,5.15-3.75,4.23-7.39l-4.37-17.31A161.92,161.92,0,0,0,564.09,391.75Z" transform="translate(-50.28 -32.35)"/><path class="cls-4" d="M523.82,145.81c-20.05,8.31-36.3,4.38-83.66-3.06-18.3-2.87-32-2-41.93.11,8.92,30.4,26.81,55.36,50,69.54l10.65,6.51c8.47,5.18,15.32,13.8,19.46,24.5v0a.72.72,0,0,0,1.4,0h0c4.13-10.72,11-19.37,19.48-24.56l10.62-6.49c22.63-13.83,40.21-37.92,49.34-67.32C549.81,142.75,535.77,140.86,523.82,145.81Z" transform="translate(-50.28 -32.35)"/><rect class="cls-5" x="364.85" y="155.28" width="22.59" height="35.59" transform="translate(113.83 496.36) rotate(-83.9)"/><path class="cls-5" d="M381.12,36.43l-1.51,6.87a4.57,4.57,0,0,0,2.89,5.37,4.44,4.44,0,0,0,5.72-3.26l2.54-11.53a2,2,0,0,1,1.89-1.53c1.66,0,3.33.1,5,.26A2,2,0,0,1,399.38,35l-2.66,12.1a4.59,4.59,0,0,0,2.89,5.37,4.46,4.46,0,0,0,5.73-3.26l2.7-12.3a2,2,0,0,1,2.57-1.42q2.38.84,4.65,1.87a2,2,0,0,1,1.07,2.18l-2.5,11.33a4.58,4.58,0,0,0,2.89,5.36A4.44,4.44,0,0,0,422.45,53L424,45.87a2,2,0,0,1,3.13-1.1,54.56,54.56,0,0,1,18.64,53.88l-8.56,38.85a41.46,41.46,0,0,1-49.4,31.58l-25.61-5.64A41.47,41.47,0,0,1,330.64,114l8.55-38.84a54.56,54.56,0,0,1,39.55-41.08A2,2,0,0,1,381.12,36.43Z" transform="translate(-50.28 -32.35)"/><path class="cls-6" d="M359.38,128.75a17.75,17.75,0,0,0,32,6.95Z" transform="translate(-50.28 -32.35)"/><path class="cls-7" d="M328.23,254.6h77.07a0,0,0,0,1,0,0v18.65A23.78,23.78,0,0,1,381.53,297H352a23.78,23.78,0,0,1-23.78-23.78V254.6a0,0,0,0,1,0,0Z" transform="translate(-18.91 -69.75) rotate(6.1)"/><path class="cls-8" d="M395.8,143a4.89,4.89,0,0,1-1.71-2.16,4.74,4.74,0,0,1-.22-2.8,4.66,4.66,0,0,1,1.37-2.44,4.82,4.82,0,0,1,2.43-1.25,1.87,1.87,0,0,0-.68-3.68,8.54,8.54,0,0,0-3.35,15.39A1.87,1.87,0,1,0,395.8,143Z" transform="translate(-50.28 -32.35)"/><path class="cls-8" d="M353.48,136.5a8.66,8.66,0,0,0,4.36-2.21,8.51,8.51,0,0,0,2.47-4.37,8.52,8.52,0,0,0-3.41-8.8,1.87,1.87,0,1,0-2.16,3.06,4.79,4.79,0,0,1,.52,7.39,4.82,4.82,0,0,1-2.45,1.24,1.88,1.88,0,0,0,.67,3.69Z" transform="translate(-50.28 -32.35)"/><path class="cls-9" d="M332.87,257.92,407.68,266l5.65-64.34a22.25,22.25,0,0,0-19.46-24.42L364.17,174a23.59,23.59,0,0,0-25.83,21.51Z" transform="translate(-50.28 -32.35)"/><path class="cls-5" d="M335.44,178.82l.52,4.05-.5-4.05h0l.52,4.05-.5-4.05a83.19,83.19,0,0,1-12.11.37,66.64,66.64,0,0,1-10.71-1.26,36.47,36.47,0,0,1-9.71-3.33,18,18,0,0,1-5-3.8,13.31,13.31,0,0,1-2.87-5.12,25.21,25.21,0,0,1-1-7.3,39.77,39.77,0,0,1,2-11.9A68.35,68.35,0,0,1,301,135a92.18,92.18,0,0,1,6.68-10.61c.94-1.29,1.72-2.29,2.26-3,.26-.33.47-.58.6-.73l.13-.17,0,0-2.37-2,2.36,2.05h0l-2.37-2,2.36,2.05-13.44-11.67c-.13.15-1.71,2-4,5.07a110.1,110.1,0,0,0-8,12.67,80,80,0,0,0-7.7,20,53.94,53.94,0,0,0-1.36,11.77,43.17,43.17,0,0,0,1.8,12.43,31,31,0,0,0,6.64,11.85,36,36,0,0,0,9.85,7.62,54.15,54.15,0,0,0,14.74,5.12,91.35,91.35,0,0,0,19.5,1.63c5.23-.1,8.72-.54,9-.57l-2.28-17.65Z" transform="translate(-50.28 -32.35)"/><polyline class="cls-10" points="340.75 137.19 330.61 134.96 330.41 135.88 340.55 138.1"/><rect class="cls-9" x="327.8" y="170.54" width="28.86" height="34.59" transform="translate(93.37 491.59) rotate(-88.18)"/><path class="cls-11" d="M417.53,115.75c-1.89,8.61,3.86,17.19,12.84,19.16s17.8-3.41,19.69-12-3.86-17.19-12.85-19.16S419.42,107.14,417.53,115.75Z" transform="translate(-50.28 -32.35)"/><path class="cls-12" d="M420.8,116.47a16,16,0,1,0,19-12.17A16,16,0,0,0,420.8,116.47Z" transform="translate(-50.28 -32.35)"/><rect class="cls-5" x="367.27" y="333.34" width="18.8" height="72.73" transform="translate(-77.41 677.22) rotate(-84.55)"/><path class="cls-7" d="M430.38,402.93l3.48-36.48a1.68,1.68,0,0,0-1.51-1.83l-13.26-1.26-2.53,26.55a13.32,13.32,0,0,0,12,14.53A1.68,1.68,0,0,0,430.38,402.93Z" transform="translate(-50.28 -32.35)"/><rect class="cls-7" x="397.77" y="354.5" width="20" height="35.66" transform="translate(-51.88 710.55) rotate(-84.55)"/><path class="cls-11" d="M427.81,118.39a9.33,9.33,0,1,0,11.11-7.11A9.33,9.33,0,0,0,427.81,118.39Z" transform="translate(-50.28 -32.35)"/><polygon class="cls-5" points="301.67 408.16 320.46 408.16 334.81 305.58 316.01 305.58 301.67 408.16"/><path class="cls-13" d="M346.42,280.81s-49.93,22.45-45.19,53.24c5,32.69,50.64,34.94,50.64,34.94" transform="translate(-50.28 -32.35)"/><polygon class="cls-7" points="303.82 371.31 328.62 371.31 347.54 235.95 322.74 235.95 303.82 371.31"/><path class="cls-12" d="M428.6,129l-15.75,15.34a16.64,16.64,0,0,1-15.17,4.33l-27.47-6-.61,2.75,27.48,6a19.42,19.42,0,0,0,17.73-5.07L430.56,131l-2-2Z" transform="translate(-50.28 -32.35)"/><path class="cls-14" d="M366.28,146.68l8.21,1.8a3.58,3.58,0,1,0,1.54-7l-8.21-1.8a3.58,3.58,0,0,0-1.54,7Z" transform="translate(-50.28 -32.35)"/><path class="cls-15" d="M329.33,277.15l50.13,5.39a6.55,6.55,0,0,0,7.13-5.72l8.78-69.33a6.26,6.26,0,0,0-5.51-7.07L339.73,195a6.55,6.55,0,0,0-7.13,5.71l-8.78,69.34A6.26,6.26,0,0,0,329.33,277.15Z" transform="translate(-50.28 -32.35)"/><path class="cls-16" d="M351.81,196.69l-.22,3.61a1,1,0,0,0,.88,1l21.77,2.33a.9.9,0,0,0,1-.85l.23-3.6a1,1,0,0,0-.89-1.05l-2.23-.24-2-1.71a6.31,6.31,0,0,0-3.48-1.53l-.85-.09.52-2.8a2.68,2.68,0,0,0,2-2.45,3,3,0,0,0-2.65-3.14l-1.3-.14h-.15l-1.42-.15a2.69,2.69,0,0,0-3,2.53,3,3,0,0,0,1.8,2.9l.16,2.83-.95-.11a6,6,0,0,0-3.63.77l-2.16,1.28-2.44-.26A.89.89,0,0,0,351.81,196.69Zm12.78-6.13-.65-.06a1.69,1.69,0,0,1-1.48-1.76,1.5,1.5,0,0,1,1.68-1.42l.65.07a1.67,1.67,0,0,1,1.48,1.75A1.5,1.5,0,0,1,364.59,190.56Z" transform="translate(-50.28 -32.35)"/><path class="cls-5" d="M402,223.9h0a51.85,51.85,0,0,1-2.47,5.17,62.13,62.13,0,0,1-4.63,7.34,41.22,41.22,0,0,1-10.66,10.41,25.16,25.16,0,0,1-6.53,3,22,22,0,0,1-7.48.8c-.43,0-.84-.06-1.26-.11a24.57,24.57,0,0,1-6.59-1.61,25.77,25.77,0,0,1-8.76-5.95,35.5,35.5,0,0,1-4.78-6.08,47.71,47.71,0,0,1-4.29-8.67c-.43-1.17-.74-2.11-.92-2.73-.09-.31-.15-.54-.19-.67l0-.13h0l-3.73.92,3.74-.88v0l-3.73.92,3.74-.88-17.32,4.09a49.6,49.6,0,0,0,1.84,5.79,65,65,0,0,0,4.11,8.86,53.11,53.11,0,0,0,12.47,15.28,42,42,0,0,0,22.56,9.49c.68.07,1.36.13,2.06.17a39.79,39.79,0,0,0,12.43-1.17,41.4,41.4,0,0,0,9.36-3.69,51.58,51.58,0,0,0,12.62-9.77,74.59,74.59,0,0,0,11.3-15.59,66.82,66.82,0,0,0,3.78-7.9L402,223.9Z" transform="translate(-50.28 -32.35)"/><path class="cls-5" d="M328.7,229.85l15.42,1.65.13-.12.64-5.92a12.41,12.41,0,0,0-11-13.65l-6.32-.67c-3.62-.39-6.9,2.62-7.34,6.72h0C319.57,223.91,323.37,229.28,328.7,229.85Z" transform="translate(-50.28 -32.35)"/><path class="cls-9" d="M391.76,200.71l-.44-6.18.21,6.19h.23l-.44-6.18.21,6.19,0-.57,0,.57h0l0-.57,0,.57s.44,0,1.07.06a13.3,13.3,0,0,1,2.53.54,9.82,9.82,0,0,1,2,.9,8.46,8.46,0,0,1,2.68,2.42,14.38,14.38,0,0,1,2.34,5.63,3.3,3.3,0,0,1,.06.62,11.26,11.26,0,0,1-.08,1.51,29.52,29.52,0,0,1-1.06,5,62.08,62.08,0,0,1-2.85,7.68c-.46,1-.86,1.88-1.14,2.44-.13.28-.24.49-.3.62l-.07.13.14.08-.14-.08h0l.14.08-.14-.08,21,11.1c.13-.25,1.72-3.28,3.51-7.71.89-2.22,1.83-4.79,2.65-7.6a53.06,53.06,0,0,0,1.87-9.12,33.7,33.7,0,0,0,.2-4.66,27.15,27.15,0,0,0-.59-5.07A39.16,39.16,0,0,0,420,191.93a33,33,0,0,0-6.24-7,33.45,33.45,0,0,0-10.2-5.84,36.46,36.46,0,0,0-8.39-1.92,29.5,29.5,0,0,0-5.06-.14l1.69,23.72Z" transform="translate(-50.28 -32.35)"/><path class="cls-6" d="M361.61,98.7l-.81,3.69a3.08,3.08,0,0,0,6,1.32l.81-3.69a3.08,3.08,0,1,0-6-1.32" transform="translate(-50.28 -32.35)"/><path class="cls-6" d="M396.07,106.26l-.81,3.69a3.08,3.08,0,1,0,6,1.33l.81-3.7a3.08,3.08,0,1,0-6-1.32" transform="translate(-50.28 -32.35)"/><path class="cls-17" d="M443.33,121.78A9.41,9.41,0,0,0,437.58,111a9.4,9.4,0,1,1-2.53,18.57,9.52,9.52,0,0,1-1.43-.45A9.39,9.39,0,0,0,443.33,121.78Z" transform="translate(-50.28 -32.35)"/><path class="cls-7" d="M332.57,460.78h36.65a1.68,1.68,0,0,0,1.67-1.68V445.78H344.22A13.32,13.32,0,0,0,330.9,459.1,1.68,1.68,0,0,0,332.57,460.78Z" transform="translate(-50.28 -32.35)"/><polygon class="cls-7" points="319.63 420.83 299.63 420.83 304.62 385.18 324.61 385.18 319.63 420.83"/><rect class="cls-5" x="285.56" y="96.8" width="22.91" height="31.84" rx="10.36" transform="translate(64.88 340.86) rotate(-75.86)"/><rect class="cls-5" x="282.15" y="84.84" width="6.37" height="33.08" rx="2.88" transform="translate(67.06 320.96) rotate(-75.86)"/></svg>