<svg id="Layer_1" data-name="Layer 1" xmlns="http://www.w3.org/2000/svg" xmlns:xlink="http://www.w3.org/1999/xlink" viewBox="830 0 1000.1 355.03"><style>@keyframes l2{0%{transform:translateX(0)}}@keyframes l1{0%{transform:translateX(0)}}@keyframes l3{0%{transform:translateX(0)}}@keyframes a{0%{opacity:0;transform:translateX(0)}17%,92%{opacity:0}19%,90%{opacity:1}}@keyframes b{0%{opacity:0;transform:translateX(0)}17%,92%{opacity:0}19%,90%{opacity:1}}@keyframes c{0%{opacity:0;transform:translateX(0)}17%,92%{opacity:0}19%,90%{opacity:1}}@keyframes d{0%{opacity:0;transform:translateX(0)}17%,92%{opacity:0}19%,90%{opacity:1}}@keyframes e{0%{opacity:0;transform:translateX(0)}17%,92%{opacity:0}19%,90%{opacity:1}}@keyframes f{0%{opacity:0;transform:translateX(0)}17%,92%{opacity:0}19%,90%{opacity:1}}@keyframes man1{0%,60%{transform:translateY(100px)}}@keyframes e1{0%,20%,35%,65%,80%,95%{transform:rotateX(0deg)}75%,85%{transform:rotateX(80deg)}}@keyframes e2{0%,20%,35%,65%,80%,95%{transform:rotateX(0deg)}75%,85%{transform:rotateX(80deg)}}@keyframes sdiamondOpacity{0%,90%{opacity:0;transform:translateY(10px)}91%{opacity:1;transform:translateX(0)}}@keyframes pp{0%,70%{opacity:0;transform:translateY(10px)}71%{opacity:1;transform:translateX(0)}}</style><defs><linearGradient id="linear-gradient" x1="1139.74" y1="287" x2="1089.33" y2="155.68" gradientTransform="matrix(1 0 0 -1 0 528)" gradientUnits="userSpaceOnUse"><stop offset=".03" stop-color="#fff" stop-opacity="0"/><stop offset=".16" stop-color="#fefcf7" stop-opacity=".05"/><stop offset=".41" stop-color="#fcf4e2" stop-opacity=".19"/><stop offset=".73" stop-color="#f8e6c0" stop-opacity=".4"/><stop offset="1" stop-color="#f4daa2" stop-opacity=".6"/></linearGradient><linearGradient id="linear-gradient-2" x1="1152.18" y1="288.72" x2="1095.15" y2="140.14" gradientTransform="matrix(1 0 0 -1 791.68 416.85)" xlink:href="#linear-gradient"/><clipPath id="clip-path" transform="translate(791.68 -111.15)"><path fill="none" d="M81 0h914.73v466.18H81z"/></clipPath><clipPath id="clip-path-2" transform="translate(791.68 -111.15)"><path d="M1154.94 246.83h-78c3.32 13.85 9.88 19 15.06 21.18 9.36 4 18.28 0 24.8 5.39 4.08 3.39 5.79 9.3 4 14-3.81 9.88-20.41 7.39-28.79 18-6.79 8.55-4.73 21.29.88 29.45 8.36 12 22.56 11.25 26.62 21.15 3.19 7.82-3 17.62-9.08 24.42h15.72c27.41-15.48 32.39-24.73 30.56-30.52-2.67-8.43-19.25-7.83-27-20.83-5.06-8.48-5.13-20.64 2.22-26.21 6.88-5.22 14.35-.16 23.47-5.39 11-6.28 14.92-22.05 8.42-29.8-2.46-2.92-5.29-3.25-7.62-7.14a16.08 16.08 0 01-1.24-13.68" fill="none"/></clipPath></defs><g clip-path="url(#clip-path)"><g id="Layer_1-2" data-name="Layer 1"><g style="animation:man1 6.5s linear forwards;transform-origin:center"><path fill="#ffd366" d="M1579.72 312.44h45.37v39.07h-45.37z"/><path d="M815.28 432.9h-13.09a48.06 48.06 0 01-47.64-41.71l-6.26-46.85c-5.64-42.3 21.61-82.07 60.44-82.07 38.84 0 66.09 39.77 60.45 82.07l-6.26 46.85a48.06 48.06 0 01-47.64 41.71z" transform="translate(791.68 -111.15)" fill="#ffd366"/><path d="M820.23 231.06l24.63 7.73a22.22 22.22 0 0114.55 27.86l-5.71 18.2-67-21 5.72-18.23a22.22 22.22 0 0127.81-14.56z" transform="translate(791.68 -111.15)" fill="#fe4c00"/><path d="M761.66 250.36a5.72 5.72 0 017.18-3.75l49.28 15.46-2.65 8.45a9.26 9.26 0 01-11.61 6.06l-34.11-10.7a12.38 12.38 0 01-8.09-15.52z" transform="translate(791.68 -111.15)" fill="#fe4c00"/><circle cx="1629.53" cy="258.72" r="4.44" fill="#ffe19f"/><path d="M1604.43 236.44v6.68m-42.86-6.68v6.68" fill="none" stroke="#4f3102" stroke-linecap="round" stroke-miterlimit="10" stroke-width="7"/><path d="M786.16 376.49a10.1 10.1 0 0110.09 10.1v10.1a10.1 10.1 0 01-10.09 10.1 10.1 10.1 0 01-10.1-10.1v-10.1a10.1 10.1 0 0110.1-10.1z" transform="translate(791.68 -111.15)" fill="#4f3102"/><path fill="none" stroke="#bc3708" stroke-miterlimit="10" d="M1581.66 142.1l20.56 6.45"/></g><path d="M94.25 388.84H982.9a12 12 0 0111.94 11.94v52.28H82.31v-52.28a12 12 0 0111.94-11.94z" transform="translate(791.68 -111.15)" fill="#fdedc8"/><path d="M82.31 453.06h912.53v6.12a7 7 0 01-7 7H89.66a7.35 7.35 0 01-7.35-7.35v-5.75z" transform="translate(791.68 -111.15)" fill="#f4d79d"/><path d="M1869.88 342.05h-1.27l-.1-64.22h1.27l.1 64.22zm20.53 0h-1.27l-.09-64.22h1.27l.09 64.22zm20.53 0h-1.27l-.09-64.22h1.27l.09 64.22zm20.53 0h-1.27l-.09-64.22h1.27l.09 64.22zm20.55 0h-1.28l-.1-64.22h1.27l.11 64.22zm20.53 0h-1.27l-.11-64.22h1.27l.11 64.22zm20.53 0h-1.27l-.11-64.22h1.27l.11 64.22zm20.54 0h-1.27l-.11-64.22h1.28l.1 64.22zm-245.54 0h-1.27l-.11-64.22h1.27l.11 64.22zm20.53 0h-1.27l-.11-64.22h1.28l.1 64.22zm20.52 0h-1.26l-.1-64.22h1.27l.09 64.22zm20.54 0h-1.27l-.09-64.22h1.27l.09 64.22zm20.53 0h-1.27l-.09-64.22h1.27l.09 64.22zm184.02 0h-1.27l-.09-64.22h1.27l.09 64.22zm20.54 0h-1.27l-.1-64.22h1.27l.1 64.22zm20.54 0h-1.27l-.1-64.22h1.27l.1 64.22zm20.52 0h-1.27l-.1-64.22h1.27l.1 64.22zm20.54 0h-1.27l-.1-64.22h1.27l.1 64.22zm20.53 0h-1.26l-.1-64.22h1.27l.09 64.22zm20.54 0h-1.27l-.11-64.22h1.27l.11 64.22zm20.52 0h-1.27l-.09-64.22h1.27l.09 64.22zm22.96 0h-1.27l-.11-64.22h1.27l.11 64.22zm20.52 0h-1.27l-.09-64.22h1.27l.09 64.22zm20.54 0h-1.27l-.09-64.22h1.27l.09 64.22zm20.54 0h-1.27l-.1-64.22h1.27l.1 64.22zm20.52 0h-1.27l-.1-64.22h1.27l.1 64.22zm20.54 0h-1.27l-.1-64.22h1.27l.1 64.22zm20.54 0h-1.27l-.1-64.22h1.27l.1 64.22zm20.53 0h-1.28l-.1-64.22h1.27l.11 64.22zm20.54 0h-1.27l-.11-64.22h1.27l.11 64.22zm20.52 0h-1.27l-.09-64.22h1.27l.09 64.22zm20.54 0h-1.27l-.11-64.22h1.28l.1 64.22zm20.54 0h-1.27l-.1-64.22h1.27l.1 64.22zm20.52 0h-1.27l-.1-64.22h1.27l.1 64.22zm20.54 0h-1.27l-.1-64.22h1.27l.1 64.22zm20.52 0h-1.25l-.1-64.22h1.27l.08 64.22zm20.55 0h-1.27l-.11-64.22h1.27l.11 64.22zm20.52 0h-1.27l-.09-64.22h1.27l.09 64.22zm20.54 0h-1.27l-.09-64.22h1.27l.09 64.22zm20.54 0h-1.27l-.1-64.22h1.27l.1 64.22zm20.52 0h-1.27l-.1-64.22h1.27l.1 64.22zm20.54 0h-1.27l-.1-64.22h1.27l.1 64.22zm20.54 0h-1.27l-.1-64.22h1.27l.1 64.22zm-2528.94 0h-1.27l-.1-64.22h1.27l.1 64.22zm20.54 0h-1.27l-.1-64.22h1.27l.1 64.22zm20.53 0h-1.27l-.1-64.22h1.27l.1 64.22zm20.53 0h-1.27l-.1-64.22h1.27l.1 64.22zm20.54 0h-1.27l-.1-64.22h1.27l.1 64.22zm20.53 0h-1.27l-.1-64.22h1.27l.1 64.22zm20.53 0h-1.27l-.1-64.22h1.27l.1 64.22zm20.54 0h-1.27l-.1-64.22h1.27l.1 64.22zm-245.54 0H.1L0 277.83h1.27l.1 64.22zm20.53 0h-1.27l-.1-64.22h1.27l.1 64.22zm20.53 0h-1.27l-.1-64.22h1.27l.1 64.22zm20.54 0H61.7l-.1-64.22h1.27l.1 64.22zm20.53 0h-1.27l-.1-64.22h1.27l.1 64.22zm184.02 0h-1.27l-.1-64.22h1.27l.1 64.22zm20.53 0h-1.26l-.1-64.22h1.27l.09 64.22zm20.54 0h-1.27l-.1-64.22h1.27l.1 64.22zm20.53 0h-1.27l-.1-64.22h1.27l.1 64.22zm20.53 0h-1.27l-.09-64.22h1.26l.1 64.22zm20.54 0h-1.27l-.1-64.22h1.27l.1 64.22zm20.53 0h-1.27l-.1-64.22h1.27l.1 64.22zm20.53 0h-1.27l-.09-64.22h1.27l.09 64.22zm22.95 0h-1.27l-.1-64.22h1.27l.1 64.22zm20.53 0h-1.27l-.1-64.22h1.27l.1 64.22zm20.54 0H474l-.1-64.22h1.27l.1 64.22zm20.53 0h-1.27l-.1-64.22h1.27l.1 64.22zm20.53 0h-1.27l-.1-64.22h1.27l.1 64.22zm20.54 0h-1.27l-.1-64.22h1.27l.1 64.22zm20.53 0h-1.27l-.1-64.22h1.27l.1 64.22zm20.53 0h-1.27l-.1-64.22h1.27l.1 64.22zm20.54 0h-1.27l-.1-64.22h1.27l.1 64.22zm20.53 0h-1.27l-.1-64.22h1.27l.1 64.22zm20.53 0h-1.27l-.1-64.22h1.27l.1 64.22zm20.54 0h-1.27l-.1-64.22h1.27l.1 64.22zm20.53 0h-1.27l-.1-64.22h1.27l.1 64.22zm20.53 0h-1.27l-.1-64.22h1.27l.1 64.22zm20.53 0h-1.26l-.1-64.22h1.27l.09 64.22zm20.54 0h-1.27l-.1-64.22h1.27l.1 64.22zm20.53 0h-1.27l-.1-64.22h1.27l.1 64.22zm20.54 0H782l-.1-64.22h1.27l.1 64.22zm20.53 0h-1.27l-.1-64.22h1.27l.1 64.22zm20.53 0h-1.27l-.1-64.22h1.27l.1 64.22zm20.54 0h-1.28l-.09-64.22h1.27l.1 64.22zm20.53 0h-1.27l-.1-64.22h1.27l.1 64.22zm118.79-.14h-1.27l-.1-64.22h1.27l.1 64.22zm20.54 0h-1.27l-.1-64.22h1.27l.1 64.22zm20.53 0h-1.27l-.1-64.22h1.27l.1 64.22zm20.53 0h-1.27l-.1-64.22h1.27l.1 64.22zm20.54 0h-1.27l-.1-64.22h1.27l.1 64.22zm20.53 0h-1.27l-.1-64.22h1.27l.1 64.22zm20.53 0h-1.27l-.1-64.22h1.27l.1 64.22zm20.54 0h-1.27l-.1-64.22h1.27l.1 64.22zm-245.54 0h-1.27l-.1-64.22h1.27l.1 64.22zm20.53 0h-1.27l-.1-64.22h1.27l.1 64.22zm20.53 0h-1.27l-.1-64.22h1.27l.1 64.22zm20.54 0h-1.27l-.1-64.22h1.27l.1 64.22zm20.53 0h-1.27l-.1-64.22h1.27l.1 64.22zm184.02 0h-1.27l-.1-64.22h1.27l.1 64.22zm20.53 0h-1.26l-.1-64.22h1.27l.09 64.22zm20.54 0h-1.27l-.1-64.22h1.27l.1 64.22zm20.53 0h-1.27l-.1-64.22h1.27l.1 64.22zm20.53 0h-1.27l-.09-64.22h1.26l.1 64.22zm20.54 0h-1.27l-.1-64.22h1.27l.1 64.22zm20.53 0h-1.27l-.1-64.22h1.27l.1 64.22zm20.53 0H1291l-.09-64.22h1.27l.09 64.22zm22.95 0h-1.27l-.1-64.22h1.27l.1 64.22zm20.53 0h-1.27l-.1-64.22h1.27l.1 64.22zm20.54 0h-1.27l-.1-64.22h1.27l.1 64.22zm20.53 0h-1.27l-.1-64.22h1.27l.1 64.22zm20.53 0h-1.27l-.1-64.22h1.27l.1 64.22zm20.54 0h-1.27l-.1-64.22h1.27l.1 64.22zm20.53 0h-1.27l-.1-64.22h1.27l.1 64.22zm20.53 0h-1.27l-.1-64.22h1.27l.1 64.22zm20.54 0h-1.27l-.1-64.22h1.27l.1 64.22zm20.53 0h-1.27l-.1-64.22h1.27l.1 64.22zm20.53 0h-1.27l-.1-64.22h1.27l.1 64.22zm20.54 0h-1.27l-.1-64.22h1.27l.1 64.22zm20.53 0h-1.27l-.1-64.22h1.27l.1 64.22zm20.53 0h-1.27l-.1-64.22h1.27l.1 64.22zm20.53 0h-1.26l-.1-64.22h1.27l.09 64.22zm20.54 0h-1.27l-.1-64.22h1.27l.1 64.22zm20.53 0h-1.27l-.1-64.22h1.27l.1 64.22zm20.54 0h-1.27l-.1-64.22h1.27l.1 64.22zm20.53 0h-1.27l-.1-64.22h1.27l.1 64.22zm20.53 0h-1.27l-.1-64.22h1.27l.1 64.22zm20.54 0h-1.28l-.09-64.22h1.27l.1 64.22zm20.53 0h-1.27l-.1-64.22h1.27l.1 64.22z" opacity=".47" fill="#e5c88f"/><path d="M93.06 464.11a7.82 7.82 0 007.13-11.05H85.93a7.82 7.82 0 007.13 11.05zm256.5 0a7.82 7.82 0 007.13-11.05h-14.26a7.82 7.82 0 007.13 11.05zm310.49 0a7.83 7.83 0 007.14-11.05h-14.27a7.84 7.84 0 007.13 11.05zm325.02 0a7.82 7.82 0 007.13-11.05h-14.26a7.82 7.82 0 007.13 11.05z" transform="translate(791.68 -111.15)" fill="#fff"/><g style="animation-name:sdiamondOpacity;animation-duration:14s;animation-iteration-count:1"><rect x="1156.03" y="46.91" width="58.93" height="49.25" rx="15.44" fill="#fdedc8"/><path d="M407.69 175.36a8.55 8.55 0 00-2.19-3l-.5-.36a8.51 8.51 0 00-8.48-.89 8.46 8.46 0 00-2.63 1.83 8.51 8.51 0 00-14.61 5.95 8.53 8.53 0 002.08 5.58l.05.06 9.91 9.53a3.7 3.7 0 002.57 1 3.79 3.79 0 001.37-.26 3.7 3.7 0 001.21-.78l9.9-9.53v-.06a8.74 8.74 0 001.37-9.11z" transform="translate(791.68 -111.15)" fill="#fe4c00"/><path d="M1185.9 90.46v6.75a8.48 8.48 0 01-8.48 8.48h-6.54" fill="none" stroke="#fdedc8" stroke-linecap="round" stroke-miterlimit="10" stroke-width="6"/></g><path d="M1216.93 43.53l9.79-9.55m-4.77 21.38h10.7m-27.82-15.49v-9.01" stroke-dasharray="2000" stroke-dashoffset="2000" fill="none" stroke="#ffd505" stroke-linecap="round" stroke-miterlimit="10" stroke-width="6"/><path transform="rotate(-78.81 592.305 -256.465)" fill="#ff9100" d="M250.14 258.92h27.94v44.02h-27.94z"/><path d="M319.37 127.07l-1.69 8.55a5.68 5.68 0 01-5.94 4.65 5.5 5.5 0 01-4.95-6c0-.18 0-.36.08-.53l2.83-14.32a2.41 2.41 0 00-1.38-2.67c-1.88-.82-3.82-1.55-5.8-2.19a2.42 2.42 0 00-3.06 1.54 2.86 2.86 0 00-.07.28l-3 15a5.66 5.66 0 01-5.94 4.65 5.51 5.51 0 01-5-6c0-.17.05-.35.08-.52l3-15.29a2.42 2.42 0 00-1.93-2.84h-.27q-3.12-.23-6.2-.18a2.38 2.38 0 00-2.29 2l-2.79 14.07a5.67 5.67 0 01-5.93 4.65 5.5 5.5 0 01-5-6 4.34 4.34 0 01.07-.52l1.74-8.8a2.41 2.41 0 00-3-2.79 67.47 67.47 0 00-47.73 51.79l-9.55 48.27A51.3 51.3 0 00246 274.13l31.82 6.29a51.29 51.29 0 0060.3-40.3V240l9.54-48.26a67.48 67.48 0 00-24.48-66.15 2.42 2.42 0 00-3.38.44 2.5 2.5 0 00-.43 1.04z" transform="translate(791.68 -111.15)" fill="#ff9100"/><path d="M1094.11 115.46a14.67 14.67 0 01-26.28-4.31" fill="none" stroke="#5b3103" stroke-linecap="round" stroke-miterlimit="10" stroke-width="7"/><path d="M1041.58 116.52a8.24 8.24 0 003-14.91m66.19 28.62a8.25 8.25 0 012.91-14.94" fill="none" stroke="#fcaa47" stroke-linecap="round" stroke-miterlimit="10" stroke-width="7"/><path d="M285 388.84h-91.19l21-105.5a8.25 8.25 0 019.68-6.48l67.38 13.33a13.07 13.07 0 0110.29 15.35z" transform="translate(791.68 -111.15)" fill="#ffd505"/><path d="M979.95 203.85a75.08 75.08 0 00-7.51 37.69c2.49 46.63 68.57 24.32 73.57-37.16m54.84 23.47a74.78 74.78 0 01-7.4 37.71c-20 42.17-49.2 1.88-30.42-56.88" fill="none" stroke="#ff9100" stroke-miterlimit="10" stroke-width="23"/><path d="M976.2 215.95a45.92 45.92 0 0123.7-33.1s7.66-4.13 16.51 1.85" fill="none" stroke="#ffd505" stroke-miterlimit="10" stroke-width="34"/><path d="M1065.23 85.52l-1.81 9.16m42.56-1.1l-1.81 9.16" fill="none" stroke="#5b3103" stroke-linecap="round" stroke-miterlimit="10" stroke-width="7"/><path d="M208.7 314.86s2.38-4.48 7.18-5.54" transform="translate(791.68 -111.15)" fill="none" stroke="#fe4c00" stroke-miterlimit="10"/><path d="M1100.58 244.11c7.81-23.44-5.23-40.26-5.23-40.26s-4-6.93-14.24-7.62" fill="none" stroke="#ffd505" stroke-miterlimit="10" stroke-width="34"/><path d="M236.91 310.51l1.14-5.77a17.81 17.81 0 0120.92-14l7.24 1.43a3.83 3.83 0 013 4.48l-6.68 33.76a3.81 3.81 0 01-4.48 3l-6.75-1.33a18.31 18.31 0 01-14.4-21.52z" transform="translate(791.68 -111.15)" fill="#ff9100"/><path d="M261.5 330.19l6.68-33.72a3.8 3.8 0 014.47-3l7.24 1.43a17.8 17.8 0 0114 20.92l-1.14 5.77A18.3 18.3 0 01271.24 336l-6.75-1.33a3.81 3.81 0 01-3-4.48z" transform="translate(791.68 -111.15)" fill="#ff9100"/><path d="M293.05 349.94l1.65-8a8.78 8.78 0 013.15-5.11l3.2-2.54" transform="translate(791.68 -111.15)" fill="none" stroke="#fe4c00" stroke-miterlimit="10"/><g style="animation:c 20s 6.6s linear infinite;animation-direction:inherit;transform-origin:center"><path d="M1086.92 383.22h99.8v8a41.84 41.84 0 01-41.84 41.84h-16.16a41.84 41.84 0 01-41.84-41.84v-8z" transform="translate(791.68 -111.15)" fill="#284877"/><path d="M1886.78 288.11h2.82v2.81h-5.62v-5.49h8.3v5.49h8.42v-5.49h-5.62v2.75h2.81m8.72-.07h2.81v2.81h-5.61v-5.49h8.29v5.49h8.43v-5.49h-5.62v2.75h2.81m22.81-.07h2.81v2.81h-5.62v-5.49h8.29v5.49h8.43v-5.49h-5.62v2.75h2.81m8.72-.07h2.81v2.81h-5.61v-5.49h8.29v5.49h8.43v-5.49h-5.62v2.75h2.8" fill="none" stroke="#fff" stroke-miterlimit="10"/><path d="M1095.91 373.38h81.79a9 9 0 019 9 9 9 0 01-9 9h-81.79a9 9 0 01-9-9 9 9 0 019-9z" transform="translate(791.68 -111.15)" fill="#12243a"/><path d="M1096.48 377.42h79.89a7.28 7.28 0 017.28 7.28 6.66 6.66 0 01-6.66 6.66h-81.13a6.66 6.66 0 01-6.66-6.66 7.28 7.28 0 017.28-7.28z" transform="translate(791.68 -111.15)" fill="#fc6"/><path d="M1138 374.47h23.69a14.34 14.34 0 0114.34 14.34h-52.34a14.35 14.35 0 0114.31-14.34z" transform="translate(791.68 -111.15)" fill="#f4daa2"/><path d="M1127 388.81v-1c0-6.16 6.14-11.16 13.71-11.16h18c7.57 0 13.71 5 13.71 11.16v1" transform="translate(791.68 -111.15)" fill="none" stroke="#e2b969" stroke-miterlimit="10"/><path d="M1130.55 388.81v-1.29c0-4.53 4.51-8.2 10.07-8.2h18.22c5.56 0 10.07 3.67 10.07 8.2v1.29" transform="translate(791.68 -111.15)" fill="#f4daa2" stroke="#e2b969" stroke-miterlimit="10"/><path d="M1135.58 388.81v-1.66c0-2.82 2.81-5.11 6.27-5.11h15.76c3.46 0 6.27 2.29 6.27 5.11v1.66" transform="translate(791.68 -111.15)" fill="none" stroke="#e2b969" stroke-miterlimit="10"/><path fill="#1d3519" d="M1912.59 268.68h-13.6l-9.86-12.91h13.6l9.86 12.91z"/><path fill="none" stroke="#e5a128" stroke-linecap="round" stroke-miterlimit="10" stroke-width=".5" d="M1894.89 268.68h21.27"/><path d="M1117.35 384.71c1.43 4.62-3.29 9.51-10.31 11.7s-13.68.83-15.11-3.79 3.09-10.13 10.11-12.31 13.87-.21 15.31 4.4z" transform="translate(791.68 -111.15)" fill="#c98712"/><ellipse cx="1103.31" cy="384.49" rx="13.26" ry="7.78" transform="matrix(.95 -.3 .3 .95 727.11 238.93)" fill="#efbf6c"/><path d="M1098.22 384.48a18.91 18.91 0 017.51-.78 7.91 7.91 0 013.14.95 3 3 0 011.41 1.6 2.6 2.6 0 01-.57 2.36 7.86 7.86 0 01-3.93 2.43 11.63 11.63 0 01-4.73.49 4.75 4.75 0 01-1.94-.58 1.74 1.74 0 01-.83-.92 1.56 1.56 0 01.34-1.36 4.86 4.86 0 012.43-1.49 7.2 7.2 0 013-.31l.11-1a8.46 8.46 0 00-3.35.35 5.94 5.94 0 00-2.92 1.84 2.5 2.5 0 00-.49 2.22 2.72 2.72 0 001.26 1.47 5.81 5.81 0 002.33.72 12.89 12.89 0 005.13-.53 8.64 8.64 0 004.42-2.79 3.57 3.57 0 00.72-3.22 3.88 3.88 0 00-1.84-2.14 8.75 8.75 0 00-3.53-1.08 19.57 19.57 0 00-7.9.81 17.24 17.24 0 00-4.6 2.2 8.64 8.64 0 00-1.69 3.09l.3-.46a12.53 12.53 0 016.22-3.87z" transform="translate(791.68 -111.15)" fill="#af710e"/><path d="M1132.35 386.87c0 .49-.76.75-1.13 1.19s-.3 1.15-.79 1.45-1.15-.1-1.67.09-.76.94-1.29 1.07-1.11-.4-1.64-.32-.94.77-1.47.81-1-.58-1.57-.58-1.07.61-1.57.58-1-.73-1.47-.81-1.16.44-1.65.32-.83-.89-1.28-1.07-1.27.15-1.67-.09-.5-1.1-.8-1.45-1.13-.7-1.13-1.19.77-.76 1.14-1.2.29-1.15.79-1.45 1.15.11 1.67-.09.76-.93 1.28-1.07 1.12.4 1.65.32.94-.76 1.47-.8 1 .58 1.57.58 1.07-.62 1.57-.58 1 .73 1.47.8 1.16-.44 1.64-.32.83.9 1.29 1.07 1.26-.15 1.67.09.5 1.1.79 1.45 1.13.7 1.13 1.2z" transform="translate(791.68 -111.15)" fill="#fdedc8"/><path d="M1132.35 386.33c0 .5-.76.76-1.13 1.2s-.3 1.15-.79 1.45-1.15-.11-1.67.09-.76.93-1.29 1.07-1.11-.4-1.64-.32-.94.76-1.47.8-1-.57-1.57-.57-1.07.61-1.57.57-1-.72-1.47-.8-1.16.44-1.65.32-.83-.89-1.28-1.07-1.27.15-1.67-.09-.5-1.1-.8-1.45-1.13-.7-1.13-1.2.77-.75 1.14-1.19.29-1.15.79-1.45 1.15.1 1.67-.09.76-.94 1.28-1.07 1.12.4 1.65.32.94-.77 1.47-.8 1 .57 1.57.57 1.07-.61 1.57-.57 1 .72 1.47.8 1.16-.44 1.64-.32.83.89 1.29 1.07 1.26-.15 1.67.09.5 1.1.79 1.45 1.13.7 1.13 1.19z" transform="translate(791.68 -111.15)" fill="#fff"/><path fill="#f96e53" d="M1914.26 275.71l.03.01v-.01h-.03zm.03 0zm0 .01v-.01.01zm-.02-.01h.02v-.01l-.02.01z"/><path d="M1117.86 385.34a9.11 9.11 0 014.78-1.19 8.7 8.7 0 011.14.05 9.84 9.84 0 013.69 1 3.24 3.24 0 011 .76 1.09 1.09 0 01.32.74 1 1 0 010 .25 2 2 0 01-1.32 1 8.28 8.28 0 01-2.88.46h-.92a6.22 6.22 0 01-2.31-.6 2.28 2.28 0 01-.61-.46.67.67 0 01-.18-.4v-.12a1.25 1.25 0 01.77-.58 5.26 5.26 0 011.8-.29h.58a3.69 3.69 0 011.43.37 1.19 1.19 0 01.36.26.3.3 0 01.08.18.88.88 0 01-.41.29 3.06 3.06 0 01-1.12.18h-.35a2.43 2.43 0 01-.87-.22.52.52 0 01-.19-.14.33.33 0 00-.28-.38.34.34 0 00-.37.2v.19a.75.75 0 00.19.47 2.27 2.27 0 001.52.6h.41a3.88 3.88 0 001.36-.22 1.22 1.22 0 00.82-.74v-.23a.9.9 0 00-.25-.62 3.34 3.34 0 00-2.25-.87h-.63a6.21 6.21 0 00-2 .33 1.84 1.84 0 00-1.18 1 1.54 1.54 0 000 .31 1.31 1.31 0 00.34.84 5.23 5.23 0 003.39 1.3h1a8.75 8.75 0 003.13-.51 2.56 2.56 0 001.72-1.47 1.61 1.61 0 00.06-.44 1.78 1.78 0 00-.48-1.18c-.89-1-2.79-1.76-5.16-2h-1.2a9.75 9.75 0 00-5.14 1.3 6 6 0 00-2.7 3.77 1 1 0 00.35.44.62.62 0 00.23.07 5.34 5.34 0 012.33-3.7z" transform="translate(791.68 -111.15)" fill="#f96e53"/><path fill="#f96e53" d="M1914.29 275.71v-.01.01z"/><path fill="#183251" d="M1906.79 319.96h43.77v4.22h-43.77z"/><path fill="none" stroke="#39b54a" stroke-miterlimit="10" d="M1902.55 271.89l1.5-.46m3.97-1.23l1.1.29m1.69 4.64l-1.1.59m6.45-6.15l1.74.92m6.95 6.78l-1.74 1.34m7.03-2.89l1.64.73m-4.52-4.79l-.95 1.26m-28.36 4.74l1.82.47m-8.93-6.55l2.34.71m3.13-1.4l1.21.7"/><path fill="#230803" d="M1980.88 261.98l-.32 2.56-76.51 31.33 73.98-34.52 2.85.63z"/><path d="M1111.31 407.06a1.61 1.61 0 001.06 0l76.51-33.54c.58-.26.34-1-.39-1.19l-3.47-.81a1 1 0 00-.69 0l-73.07 34.22c-.88.41-1.08 1.01.05 1.32z" transform="translate(791.68 -111.15)" fill="#3d1106"/><path fill="#230803" d="M1980.03 258.12l-.07 2.58-73.17 37.03 70.34-40.01 2.9.4z"/><path d="M1114.06 409a1.58 1.58 0 001-.12l73-39.23c.56-.3.24-1-.51-1.15l-3.55-.5a1 1 0 00-.69.09l-69.45 39.64c-.81.43-.96 1.05.2 1.27z" transform="translate(791.68 -111.15)" fill="#3d1106"/></g><g style="animation:d 20s 9.9s linear infinite;animation-direction:inherit;transform-origin:center"><ellipse cx="1939.08" cy="286.79" rx="48.43" ry="15.64" fill="#c18946"/><path d="M1147.4 404.56c-26.75 0-48.43 6.8-48.43 15.19v-21.9c0-8.39 21.68-15.19 48.43-15.19s48.44 6.8 48.44 15.19v21.9c0-8.39-21.69-15.19-48.44-15.19z" transform="translate(791.68 -111.15)" fill="#dba156"/><path d="M1983.74 291.03a31.74 31.74 0 00-5.42-3.39 52.69 52.69 0 00-6.64-2.79c-1.19-.42-2.46-.78-3.72-1.14-.64-.17-1.31-.33-2-.49l-1-.24-1-.2a64.11 64.11 0 00-8.38-1.12l2.06.32 1 .16 1 .19 2 .38 1.95.45 1 .22 1 .25c.62.17 1.26.33 1.88.51l1.83.55c.62.18 1.18.4 1.78.59 2.36.81 4.59 1.7 6.71 2.66l1.56.74 1.52.76c.99.5 1.94 1.04 2.87 1.59zm-89.31-2.13a35 35 0 015.33-2.59c1.92-.78 4-1.48 6.1-2.11a95.34 95.34 0 0113.6-2.89c2.37-.36 4.79-.61 7.22-.83 1.22-.09 2.44-.21 3.67-.27l1.85-.11 1.85-.08c4.94-.18 9.93-.17 14.9 0a147.23 147.23 0 00-15-.4l-1.88.05-1.87.09c-1.25 0-2.49.15-3.73.23-2.47.22-4.94.47-7.35.82s-4.78.77-7.09 1.28-4.53 1.09-6.64 1.77a51 51 0 00-6 2.26q-1.41.63-2.67 1.32a18.14 18.14 0 00-2.29 1.46zm9.6 2.53a30.52 30.52 0 014.44-1.89c1.6-.56 3.3-1.06 5-1.5a83.12 83.12 0 0111.19-1.94c1.94-.22 3.92-.36 5.91-.48 1 0 2-.11 3-.13h3c4 0 8.07.09 12.11.33-4-.4-8.06-.62-12.14-.64h-3.05c-1 0-2 .07-3 .1-2 .11-4 .25-6 .47s-3.92.49-5.81.83-3.73.75-5.48 1.22a47.79 47.79 0 00-5 1.62 23.69 23.69 0 00-2.22 1 15.91 15.91 0 00-1.95 1.01z" fill="#c6883e" stroke="#c6883e" stroke-linecap="round" stroke-linejoin="round" stroke-width=".5"/><path d="M1156.47 401.6a20.61 20.61 0 00-1.61-5.38 14.48 14.48 0 00-2.76-4.11 9.48 9.48 0 00-4.78-2.63l-.36-.26c-.3-.24-.68-.57-1.08-.86q-.32-.23-.63-.42a2.11 2.11 0 00-.38-.17 1.57 1.57 0 00-1.29.11 4.21 4.21 0 00-.76.55c-.33.3-.65.63-.9.87l-.3.25a8.84 8.84 0 00-4.74 2.66 14.62 14.62 0 00-3.27 6.35 18.17 18.17 0 00-.61 3.51 3.45 3.45 0 000 .64 3.81 3.81 0 00.76 2.34 5.59 5.59 0 002.82 1.95 9.78 9.78 0 003.18.53h10.11a8 8 0 002.16-.32 7.81 7.81 0 003-1.61 5.07 5.07 0 001.1-1.38 4 4 0 00.45-1.8 4.49 4.49 0 00-.11-.82z" transform="translate(791.68 -111.15)" fill="#faf6de"/><path d="M1145.43 390.21a7.77 7.77 0 012.86 1.84 8.82 8.82 0 011.94 2.88 8.7 8.7 0 01.64 3.42 10.9 10.9 0 01-.18 1.71 15.22 15.22 0 01-.51 1.62V400c0-.54 0-1.09-.11-1.63a11.19 11.19 0 00-.79-3.07 13.36 13.36 0 00-3.85-5.09zm-1.19 0a4.3 4.3 0 011.5 1.92 5.63 5.63 0 01.39 2.47 6.83 6.83 0 01-.71 2.38 9.68 9.68 0 01-.67 1 7.68 7.68 0 01-.85.86c.13-.39.28-.75.43-1.1a10.58 10.58 0 00.37-1.08 12.17 12.17 0 00.44-2.16 8.27 8.27 0 00-.9-4.29zm-.9 0a4.56 4.56 0 01.11 2.11 5.35 5.35 0 01-.83 2 5 5 0 01-1.6 1.46 4.59 4.59 0 01-2 .59c.56-.44 1.11-.79 1.58-1.23a7.09 7.09 0 001.23-1.39 11.34 11.34 0 001.51-3.54z" transform="translate(791.68 -111.15)" fill="#f5d39a"/><path d="M1138.31 401.93a9.61 9.61 0 00-4.78-2.64l-.09-.06a18 18 0 00-.44 2.84 3.45 3.45 0 000 .64 3.81 3.81 0 00.76 2.34 5.59 5.59 0 002.82 1.95 9.78 9.78 0 003.18.53h2a13.93 13.93 0 00-.59-1.46 14.3 14.3 0 00-2.86-4.14z" transform="translate(791.68 -111.15)" fill="#efdfc2"/><path d="M1179.19 408.56a21.6 21.6 0 00-1.61-5.39 14.29 14.29 0 00-2.76-4.1 9.61 9.61 0 00-4.78-2.64 3.32 3.32 0 01-.36-.26c-.3-.23-.69-.57-1.08-.86a5.23 5.23 0 00-.63-.41 1.84 1.84 0 00-.38-.17 1.71 1.71 0 00-.54-.1 1.61 1.61 0 00-.75.2 3.82 3.82 0 00-.76.56c-.33.3-.65.62-.91.86l-.29.26a8.74 8.74 0 00-4.75 2.66 14.86 14.86 0 00-3.27 6.34 19.94 19.94 0 00-.61 3.52 3.36 3.36 0 00-.06.63 3.9 3.9 0 00.76 2.35 5.67 5.67 0 002.79 1.91 9.78 9.78 0 003.18.53h10.15a8.35 8.35 0 002.16-.31 8.08 8.08 0 003-1.61 5.27 5.27 0 001.1-1.38 4.07 4.07 0 00.45-1.81 4.17 4.17 0 00-.05-.78z" transform="translate(791.68 -111.15)" fill="#faf6de"/><path d="M1168.16 397.16A7.71 7.71 0 011171 399a8.54 8.54 0 011.93 2.88 9.14 9.14 0 01.46 5.12 11.7 11.7 0 01-.51 1.62V407c0-.54-.05-1.08-.11-1.62a10.83 10.83 0 00-.78-3.07 13.47 13.47 0 00-3.83-5.15zm-1.16 0a4.3 4.3 0 011.5 1.92 5.82 5.82 0 01.39 2.48 6.53 6.53 0 01-.72 2.37 9.6 9.6 0 01-.66 1 10 10 0 01-.85.87c.12-.4.28-.75.42-1.11s.27-.72.37-1.08a10.52 10.52 0 00.44-2.15 8.22 8.22 0 00-.89-4.3zm-.93 0a4.56 4.56 0 01.1 2.11 5.17 5.17 0 01-.82 2 4.69 4.69 0 01-1.61 1.46 4.59 4.59 0 01-2 .59c.54-.38 1.06-.79 1.57-1.22a7.54 7.54 0 001.24-1.4 11.71 11.71 0 001.52-3.54z" transform="translate(791.68 -111.15)" fill="#f5d39a"/><path d="M1147.4 413c-26.75 0-48.43-6.8-48.43-15.19v21.9c0 8.39 21.68 15.19 48.43 15.19s48.44-6.8 48.44-15.19v-21.9c0 8.39-21.69 15.19-48.44 15.19z" transform="translate(791.68 -111.15)" fill="#e7af5f"/><path d="M1141.08 412.65a20.28 20.28 0 00-1.6-5.39 14.12 14.12 0 00-2.77-4.1 9.49 9.49 0 00-4.78-2.64 3.18 3.18 0 01-.35-.26c-.3-.23-.69-.57-1.08-.86l-.63-.42-.38-.17a2.54 2.54 0 00-.54-.09 1.61 1.61 0 00-.75.2 3.82 3.82 0 00-.76.56c-.33.29-.65.62-.91.86l-.29.26a8.78 8.78 0 00-4.75 2.65 14.68 14.68 0 00-3.27 6.35 18.17 18.17 0 00-.61 3.51 3.45 3.45 0 000 .64 3.9 3.9 0 00.76 2.35 5.67 5.67 0 002.79 1.91 9.78 9.78 0 003.18.53h10.11a8 8 0 002.17-.32 7.81 7.81 0 003-1.61 5.22 5.22 0 001.1-1.37 4.07 4.07 0 00.45-1.81 4.15 4.15 0 00-.09-.78z" transform="translate(791.68 -111.15)" fill="#faf6de"/><path d="M1130.05 401.25a7.77 7.77 0 012.86 1.84 8.58 8.58 0 011.93 2.89 8.47 8.47 0 01.64 3.41 9.83 9.83 0 01-.18 1.71 11.7 11.7 0 01-.51 1.62v-1.67c0-.54 0-1.08-.11-1.62a11.54 11.54 0 00-.78-3.07 13.47 13.47 0 00-3.85-5.11zm-1.19 0a4.22 4.22 0 011.49 1.92 5.79 5.79 0 01.4 2.47 6.45 6.45 0 01-.75 2.36 9.6 9.6 0 01-.66 1 10 10 0 01-.85.87c.12-.4.28-.75.42-1.11s.27-.72.37-1.08a12.06 12.06 0 00.44-2.15 8.22 8.22 0 00-.86-4.28zm-.86 0a4.43 4.43 0 01.11 2.11 5.17 5.17 0 01-.82 2 4.9 4.9 0 01-1.61 1.46 4.59 4.59 0 01-2 .59c.54-.38 1.07-.79 1.58-1.23a6.81 6.81 0 001.23-1.39 11.34 11.34 0 001.51-3.54z" transform="translate(791.68 -111.15)" fill="#f5d39a"/><path d="M1192.74 403.17c-6.91 5.75-24.6 9.83-45.34 9.83a143.29 143.29 0 01-19.31-1.25" transform="translate(791.68 -111.15)" fill="none" stroke="#9e6c35" stroke-miterlimit="10"/><path d="M1088.37 434v3.56a21.77 21.77 0 006.47.87 21.17 21.17 0 006.47-.9V434z" transform="translate(791.68 -111.15)" fill="#fdedc8"/><path d="M1147.4 413c-26.75 0-48.43-6.8-48.43-15.19v21.9c0 8.39 21.68 15.19 48.43 15.19s48.44-6.8 48.44-15.19v-21.9c0 8.39-21.69 15.19-48.44 15.19z" transform="translate(791.68 -111.15)" fill="#e7af5f"/><path d="M1109.42 426.49c0 3.89-2.84 10.9-14.58 10.9-12 0-14.58-7-14.58-10.9s6.53-7 14.58-7 14.58 3.12 14.58 7z" transform="translate(791.68 -111.15)" fill="#f2ae38"/><ellipse cx="1886.52" cy="315.34" rx="14.58" ry="7.03" fill="#fdf8ec"/><path d="M1094.84 433.3c6.44 0 11.9-1.79 13.83-4.58-1-3.27-6.79-5.78-13.83-5.78s-12.85 2.51-13.83 5.78c1.93 2.79 7.39 4.58 13.83 4.58z" transform="translate(791.68 -111.15)" fill="#5b4837"/><path d="M1094.84 433.3c5.39 0 9.76-1.62 12-3.43-.82-2.73-6.13-5.19-12-5.19s-13 1.31-13.83 4c1.62 2.37 8.45 4.62 13.83 4.62z" transform="translate(791.68 -111.15)" fill="#433025"/><path d="M1094.84 420.46c8.12 0 13.58 3.12 13.58 6s-5.46 6-13.58 6-13.58-3.12-13.58-6 5.46-6 13.58-6m0-1c-8 0-14.58 3.15-14.58 7s6.53 7 14.58 7 14.58-3.14 14.58-7-6.53-7-14.58-7z" transform="translate(791.68 -111.15)" fill="#fdf8ec"/><path d="M1085.81 425.38s9.26 2.83 16.27-2.15m-12.55.55s2.26 5.08 13.12 3.77m-13.36-.78s4.22 3.63 13.47-2.2m1.12 1.43s-4.71-3-13 4.16" transform="translate(791.68 -111.15)" opacity=".67" fill="none" stroke="#f7d38b" stroke-miterlimit="10"/><path d="M1983.74 302.85a31.74 31.74 0 01-5.42 3.39 52.69 52.69 0 01-6.68 2.8c-1.19.42-2.46.78-3.72 1.14-.64.18-1.31.33-2 .49l-1 .24-1 .2a64.11 64.11 0 01-8.38 1.12l2.06-.32 1-.16c.33 0 .67-.13 1-.19l2-.38 1.95-.44 1-.23 1-.25c.62-.17 1.26-.33 1.88-.51l1.83-.55c.62-.17 1.18-.4 1.78-.59 2.36-.8 4.59-1.7 6.71-2.66l1.56-.73 1.52-.77c1.03-.51 1.98-1.05 2.91-1.6zm-89.31 2.12a35 35 0 005.33 2.59c1.92.78 4 1.48 6.1 2.11a95.34 95.34 0 0013.6 2.89c2.37.36 4.79.61 7.22.83 1.22.09 2.44.21 3.67.27l1.85.11 1.85.08c4.94.19 9.93.18 14.9 0-4.93.37-10 .51-15 .39h-1.88l-1.87-.09c-1.25 0-2.49-.15-3.73-.23-2.47-.22-4.94-.47-7.35-.82s-4.78-.77-7.09-1.28-4.53-1.09-6.64-1.77a51 51 0 01-6-2.26q-1.41-.63-2.67-1.32a19.62 19.62 0 01-2.29-1.5zm9.6-2.53a30.52 30.52 0 004.44 1.89c1.6.56 3.3 1.06 5 1.5a83.12 83.12 0 0011.19 1.94c1.94.22 3.92.36 5.91.48 1 0 2 .11 3 .13h3c4 0 8.07-.09 12.11-.33-4 .4-8.06.63-12.14.64h-3.05c-1 0-2-.06-3-.1-2-.11-4-.25-6-.47s-3.92-.49-5.81-.83-3.73-.75-5.48-1.22a47.79 47.79 0 01-5-1.62 23.69 23.69 0 01-2.22-1 14.6 14.6 0 01-1.95-1.01z" fill="#c6883e" stroke="#c6883e" stroke-linecap="round" stroke-linejoin="round" stroke-width=".5"/></g><g style="animation:e 20s 13.2s linear infinite;animation-direction:inherit;transform-origin:center"><path d="M1868.96 291.65h19.72v17.4h-19.7a8.42 8.42 0 01-8.42-8.42v-.56a8.42 8.42 0 018.4-8.42zm121.53 17.41h-19.7v-17.4h19.7a8.42 8.42 0 018.42 8.42v.56a8.42 8.42 0 01-8.42 8.42z" fill="none" stroke="#1a1a1a" stroke-miterlimit="10" stroke-width="4"/><path d="M1172.88 434.72h-69.4a26.62 26.62 0 01-19.51-8.55c-2.71-2.88-4.83-6.32-4.83-10v-7.65c0-6 4.3-10.9 9.61-10.9h98.82c5.31 0 9.62 4.88 9.62 10.9v7.65c0 4-2.53 7.75-5.59 10.79a26.51 26.51 0 01-18.72 7.76z" transform="translate(791.68 -111.15)" fill="#1a1a1a"/><path d="M1197.19 411.76c0-10.24-3.44-14.91-16.36-18.55s-73.18-3-85.33 0-16.36 8.31-16.36 18.55a20.74 20.74 0 00.3 3.52c1.39-7.7 7.4-13.49 14.6-13.49h88.25c7.2 0 13.21 5.79 14.6 13.49a20.74 20.74 0 00.3-3.52z" transform="translate(791.68 -111.15)" fill="#4d4d4d"/><path d="M1181.56 399.46c-14.63-3.73-72.75-4.46-86.54-.11-8.37 2.64-14.19 6.12-15.58 13.81 1.45 8.56 8.09 15 16.06 15h85.33c8 0 14.6-6.48 16.06-15-1.39-7.69-6.59-11.47-15.33-13.7z" transform="translate(791.68 -111.15)" fill="#f7b000"/><path fill="none" stroke="#f7c977" stroke-linecap="round" stroke-miterlimit="10" d="M1883.35 302.35l-2.03 1.58m6.98-4.95l2.18 1.37m0 3.58l2.18-.79m-5.96 7.77l2.69 1.17m9.88-12.41l2.27-.69m-1.14 8.59l2.3.87m3.49-5.66l2.33-.77m-22.99-9.46l2.33-.77m22.11 16.66l2.19 1.31m0-14.69l1.6-1.02m-18.92.51l2.77-1.97m-18.85 4.08l1.97 1.01m40.46 5.11l2.31 1.15m-3.01 9.6l1.86-1.45m3.33-13.68l2.33-.73m9.4-8.29l2.33-.72m-20.6 5.89l1.35 2.62m17.41-2.62l2.48-.98m-6.02 9.57l2.53.79m-5.44 6.98l2.91-1.16m7.35 2.33l2.74 1.45m.78-6.7l2.32-1.81m10.09-2.24l1.94 1.15m-9.7-5.89l2.14-1.38m9.11 1.01h2.5m-11.61-5.09l2.52-.93m6.59 1.92l2.42.98m-12.6 18.25l2.33.73m6.3-2.62l2.8-.58m5.93 1.75l2.33 1.45m0-7.09l2.13-1.42m6.4 2.98l3.1 1.06m-5.23-9.39l2.13-1.27m-9.7-3.85l2.24 1.11m3.97-1.62l2.42-1.92m6.04 8.23l-1.87 1.66m-52.43-9.89l1.61.96m-22.28-3.7l1.61.96m-8.08 2.74l3.49 1.98"/><ellipse cx="1907.64" cy="296.33" rx="6.67" ry="3.45" fill="none" stroke="#f7d3a4" stroke-linecap="round" stroke-miterlimit="10" stroke-width="2"/><ellipse cx="1907.64" cy="294.85" rx="6.67" ry="3.45" fill="none" stroke="#f9edd9" stroke-linecap="round" stroke-miterlimit="10" stroke-width="2"/><ellipse cx="1130.17" cy="421.19" rx="3.45" ry="6.67" transform="rotate(-63.59 1436.368 -272.942)" fill="none" stroke="#f7d3a4" stroke-linecap="round" stroke-miterlimit="10" stroke-width="2"/><path d="M1915.68 305.74c.85-1.7 4.21-1.76 7.51-.12s5.29 4.35 4.44 6.06-4.21 1.76-7.51.12-5.25-4.35-4.44-6.06z" fill="none" stroke="#f9edd9" stroke-linecap="round" stroke-miterlimit="10" stroke-width="2"/><path d="M1948.94 293.61c2.85-2.34 6.13-3 7.34-1.57s-.12 4.56-3 6.9-6.14 3-7.35 1.56.16-4.56 3.01-6.89z" fill="none" stroke="#f7d3a4" stroke-linecap="round" stroke-miterlimit="10" stroke-width="2"/><path d="M1948.6 292.39c2.85-2.34 6.14-3 7.35-1.57s-.12 4.56-3 6.9-6.14 3-7.35 1.57.15-4.56 3-6.9z" fill="none" stroke="#f9edd9" stroke-linecap="round" stroke-miterlimit="10" stroke-width="2"/><path d="M1106.83 419.11l1.76-1.4a4.11 4.11 0 013-.86l3.43.33a4.14 4.14 0 013.23 2.16.62.62 0 01-.25.84.65.65 0 01-.36.07z" transform="translate(791.68 -111.15)" fill="#ff9100"/><path d="M1106.56 419l2.16-.62a4.12 4.12 0 013.06.32l3 1.61a4.1 4.1 0 012.17 3.22.62.62 0 01-.91.6z" transform="translate(791.68 -111.15)" fill="#ff9100"/><path d="M1115.44 406.19a13.18 13.18 0 01-1.66-.19 7 7 0 01-.77-.15h-.5a6.83 6.83 0 00-1.8.22l-6 1.22c-2 .34-4.1.73-6.15 1l-.78.11-.61.1a3.14 3.14 0 00-.61.21 2.57 2.57 0 00-1 .82 2.64 2.64 0 00-.27 2.48 3.18 3.18 0 002.09 2c4 1.11 8.08 2.21 12.08 3.61a1.1 1.1 0 01.68 1.41 1.11 1.11 0 01-1 .74c-4.23.22-8.42.14-12.61.07a8.82 8.82 0 01-7.57-5 9.45 9.45 0 01.76-9.4 9.59 9.59 0 013.71-3.18 9.83 9.83 0 012.35-.78c.47-.09.65-.11.92-.15l.77-.11c2.06-.31 4.13-.53 6.19-.8l6.28-.61a8.1 8.1 0 014.35.87 5.52 5.52 0 01.93.57c.26.2.43.35.64.54A12.87 12.87 0 011117 403a1.94 1.94 0 01-.3 2.72 2 2 0 01-1.26.47z" transform="translate(791.68 -111.15)" fill="#f46800"/><path d="M1886.16 307.25a8.46 8.46 0 01-.77-.44 8.28 8.28 0 01-3-3.37 8.91 8.91 0 014.2-11.82m11.18 16.54h-5.85" fill="none" stroke="#ff9a55" stroke-linecap="round" stroke-miterlimit="10" stroke-width=".5"/><path d="M1117 403.05a12.87 12.87 0 00-1.14-1.2 9.49 9.49 0 00-.64-.54 5.52 5.52 0 00-.93-.57 8.1 8.1 0 00-4.35-.87l-.49.05-10 .72a1.55 1.55 0 01-.07.39c-.19 1.24-.6 5.23 1.57 6.86a3.36 3.36 0 00.89.49l9.91-2.52a7.16 7.16 0 01.8-.05h.5a6.89 6.89 0 01.77.15 12.88 12.88 0 001.64.2 2 2 0 001.27-.42 2 2 0 00.27-2.69z" transform="translate(791.68 -111.15)" fill="#f46800"/><circle cx="1902.94" cy="290.74" r=".8" fill="#1f3440"/><path d="M1115.94 403.93a8.43 8.43 0 005 3.11 5.47 5.47 0 01-1.56-.14 5.54 5.54 0 01-1.48-.57 4.17 4.17 0 01-1.96-2.4zm-.25 1.12a2 2 0 00.35.85 2.66 2.66 0 00.59.66 11.56 11.56 0 001.55 1.07 3.12 3.12 0 01-1-.2 3.71 3.71 0 01-.88-.52 1.76 1.76 0 01-.61-1.86z" transform="translate(791.68 -111.15)" fill="#f46800"/><path d="M1116.1 405.05a2.26 2.26 0 001 .57 3.49 3.49 0 001.06.2 21.68 21.68 0 002.28 0 5.53 5.53 0 01-1.12.4 4.82 4.82 0 01-1.2.08 3 3 0 01-1.17-.33 1.65 1.65 0 01-.85-.92zm-1.32.26a5.84 5.84 0 00.65 1.44 4.38 4.38 0 001.09 1.14 1.92 1.92 0 01-.84-.26 2.22 2.22 0 01-.64-.62 2.08 2.08 0 01-.26-1.7zm-20.3 5.69a2.16 2.16 0 01.69-1.33 3.06 3.06 0 011.39-.7 3.18 3.18 0 011.53.17 5.07 5.07 0 01.65.35 3.85 3.85 0 01.51.56v.07a4.26 4.26 0 00-2.51-.39 3.46 3.46 0 00-2.15 1.31h-.06zm.35 1.55a1.67 1.67 0 01.42-1.11 2.34 2.34 0 011-.63 2.25 2.25 0 011.23.13 2.37 2.37 0 01.5.32 2 2 0 01.35.51 2.63 2.63 0 00-1.86-.27 2.68 2.68 0 00-1.58 1zm1.17 1.59a1.14 1.14 0 01-.09-1 1.69 1.69 0 01.71-.81 1.8 1.8 0 011-.11 2.62 2.62 0 01.46.19 2.11 2.11 0 01.35.38 2.22 2.22 0 00-1.48.16 1.75 1.75 0 00-.9 1.14zm2.32.93a.85.85 0 01-.41-.9 1.35 1.35 0 01.65-.88 1.5 1.5 0 01.91-.11l.4.16a1.61 1.61 0 01.35.34v.05a2.76 2.76 0 00-1.3.23.92.92 0 00-.52 1.07z" transform="translate(791.68 -111.15)" fill="#f46800"/><path d="M1890.94 290.78s-.8 3.62 1.32 5.47" fill="none" stroke="#d13505" stroke-linecap="round" stroke-miterlimit="10" stroke-width=".25"/><path d="M1887.93 297.03s-3.86-1-3.27-4.3m1.85 6.52s-4.47 3.06-6.15 0m7.2 3.29s-.59 4-3.62 4.14m7-2.74s.82 3.2-1.36 4.41m6.1-3.26s1.55 2.21-.63 3.39" fill="none" stroke="#d13505" stroke-linecap="round" stroke-miterlimit="10" stroke-width=".4"/><path d="M1102 408.12a9.71 9.71 0 012.54-.61 9.12 9.12 0 012.66 0 6 6 0 012.52.93 4.06 4.06 0 011.59 2.1 5.56 5.56 0 00-1.87-1.64 7.7 7.7 0 00-2.35-.71 24.06 24.06 0 00-5.09-.07z" transform="translate(791.68 -111.15)" fill="#f46800"/><path d="M1101.78 407.56a17 17 0 013.32-.61 17.45 17.45 0 013.39 0 10.26 10.26 0 013.32.83 5 5 0 012.53 2.24 6.13 6.13 0 00-2.73-1.74 13.78 13.78 0 00-3.19-.64 47.48 47.48 0 00-6.64-.08z" transform="translate(791.68 -111.15)" fill="#f46800"/><path d="M1101.1 408a5.11 5.11 0 011.94-.21 4.83 4.83 0 011.93.56 3.42 3.42 0 011.72 3.42 6.06 6.06 0 00-.78-1.67 3.92 3.92 0 00-1.28-1.15 9.65 9.65 0 00-3.53-.95z" transform="translate(791.68 -111.15)" fill="#f46800"/><path d="M1128 408.76a4.08 4.08 0 011.73-5.17l9.5-5.36c3.1-1.76 7-.87 8.23 2 1.27 2.91-.71 6.34-4.1 7.42l-10.4 3.35a4.08 4.08 0 01-4.96-2.24z" transform="translate(791.68 -111.15)" fill="#373a28"/><path d="M1128.51 408.65a3.26 3.26 0 011.38-4.14l7.62-4.31c2.49-1.4 5.59-.69 6.61 1.64 1 2.33-.57 5.08-3.3 6l-8.33 2.66a3.27 3.27 0 01-3.98-1.85z" transform="translate(791.68 -111.15)" fill="#292b1c"/><path d="M1128.51 408.65a2.44 2.44 0 011-3.12l5.75-3.25c1.88-1.06 4.22-.53 5 1.23.76 1.76-.43 3.84-2.49 4.49l-6.29 2a2.45 2.45 0 01-2.97-1.35z" transform="translate(791.68 -111.15)" style="isolation:isolate" fill="#373a28" opacity=".38"/><path d="M1146.47 400.15h-.07a.39.39 0 00-.31.45v.06a6 6 0 010 .85 6.14 6.14 0 01-.5 2.5 4.22 4.22 0 01-2.35 2.23.39.39 0 00.3.72 5 5 0 002.76-2.63 6.84 6.84 0 00.57-2.82 4.77 4.77 0 00-.08-1 .38.38 0 00-.38-.32m-4.41 6.56h-.11l-1.14.34a.39.39 0 00.11.76h.11l1.14-.34a.39.39 0 00.26-.48.38.38 0 00-.37-.28" transform="translate(791.68 -111.15)" opacity=".3" fill="#eeefe4"/><path d="M1154.67 430a4.06 4.06 0 01-4.6 2.91l-10.76-1.84c-3.51-.6-6-3.72-5.1-6.77.86-3.06 4.56-4.47 7.88-3.16l10.15 4a4.07 4.07 0 012.43 4.86z" transform="translate(791.68 -111.15)" fill="#373a28"/><path d="M1154.19 429.78a3.26 3.26 0 01-3.69 2.34l-8.62-1.48c-2.82-.48-4.78-3-4.1-5.44.69-2.45 3.66-3.58 6.32-2.53l8.15 3.2a3.26 3.26 0 011.94 3.91z" transform="translate(791.68 -111.15)" fill="#292b1c"/><path d="M1154.19 429.78a2.44 2.44 0 01-2.78 1.76l-6.51-1.11c-2.13-.36-3.6-2.25-3.09-4.1.52-1.85 2.76-2.7 4.77-1.91l6.14 2.41a2.45 2.45 0 011.47 2.95z" transform="translate(791.68 -111.15)" style="isolation:isolate" fill="#373a28" opacity=".38"/><path d="M1134.89 425h.06a.39.39 0 00.53-.15v-.05a6.76 6.76 0 01.49-.7 6.41 6.41 0 012-1.62 4.26 4.26 0 013.23-.24.39.39 0 00.48-.27.38.38 0 00-.13-.41l-.13-.07a5 5 0 00-3.8.3 7.19 7.19 0 00-2.82 2.68.4.4 0 00.09.49m7.63-2.24l.09.06 1.1.45a.39.39 0 00.51-.21.4.4 0 00-.12-.45l-.09-.05-1.1-.46a.39.39 0 00-.51.21.4.4 0 00.12.45" transform="translate(791.68 -111.15)" opacity=".3" fill="#eeefe4"/><path d="M1171.66 403.42l-1.77 1.39a4.15 4.15 0 01-3 .87l-3.43-.34a4.14 4.14 0 01-3.23-2.16.61.61 0 01.24-.83.59.59 0 01.37-.07z" transform="translate(791.68 -111.15)" fill="#ff9100"/><path d="M1171.93 403.48l-2.16.62a4.12 4.12 0 01-3.06-.31l-3-1.61a4.14 4.14 0 01-2.17-3.22.62.62 0 01.53-.68.59.59 0 01.37.07z" transform="translate(791.68 -111.15)" fill="#ff9100"/><path d="M1163 416.34a11.42 11.42 0 011.65.19 7.31 7.31 0 01.76.15h.51a6.75 6.75 0 001.79-.22l6.06-1.21c2-.35 4.09-.74 6.15-1l.77-.12a2.24 2.24 0 00.61-.1 2.57 2.57 0 00.61-.2 2.56 2.56 0 001.28-3.3 3.21 3.21 0 00-2.09-2c-4-1.11-8.09-2.2-12.09-3.61a1.1 1.1 0 01-.68-1.4 1.14 1.14 0 011-.75c4.24-.22 8.42-.14 12.61-.07a8.85 8.85 0 017.58 5 9.51 9.51 0 01-4.48 12.59 9.18 9.18 0 01-2.34.77c-.47.09-.66.11-.93.15l-.77.12c-2 .3-4.12.52-6.18.79l-6.29.61a7.89 7.89 0 01-5.28-1.43c-.26-.21-.42-.36-.63-.55a10.87 10.87 0 01-1.15-1.2 1.93 1.93 0 01.31-2.71 1.84 1.84 0 011.22-.5z" transform="translate(791.68 -111.15)" fill="#f46800"/><path d="M1975.68 292.97a7.15 7.15 0 01.76.44 8.28 8.28 0 013 3.37 8.91 8.91 0 01-4.2 11.81m-11.16-16.53h5.84" fill="none" stroke="#ff9a55" stroke-linecap="round" stroke-miterlimit="10" stroke-width=".5"/><path d="M1161.47 419.47a10.87 10.87 0 001.15 1.2c.21.19.37.34.63.55a7.89 7.89 0 005.28 1.43h.5l10-.72a1.67 1.67 0 01.06-.38c.19-1.25.61-5.24-1.57-6.87a3.07 3.07 0 00-.89-.48l-9.85 2.47h-1.3a6.34 6.34 0 01-.76-.15 11.42 11.42 0 00-1.65-.19 1.85 1.85 0 00-1.26.42 1.94 1.94 0 00-.35 2.71z" transform="translate(791.68 -111.15)" fill="#f46800"/><circle cx="1958.9" cy="309.48" r=".8" fill="#1f3440"/><path d="M1162.54 418.59a8.48 8.48 0 00-5-3.11 6.3 6.3 0 011.56.14 6.55 6.55 0 011.49.57 4.11 4.11 0 011.95 2.4zm.24-1.11a2.22 2.22 0 00-.34-.86 2.48 2.48 0 00-.59-.66 10.89 10.89 0 00-1.55-1.06 3.77 3.77 0 011 .19 3.65 3.65 0 01.87.52 1.74 1.74 0 01.61 1.87z" transform="translate(791.68 -111.15)" fill="#f46800"/><path d="M1162.38 417.48a2.19 2.19 0 00-.94-.58 3.5 3.5 0 00-1.07-.2 21.49 21.49 0 00-2.27 0 4.41 4.41 0 012.31-.49 3.08 3.08 0 011.18.34 1.58 1.58 0 01.79.93zm1.34-.26a5.53 5.53 0 00-.64-1.45 4.72 4.72 0 00-1.09-1.14 1.77 1.77 0 01.83.27 1.9 1.9 0 01.64.62 2 2 0 01.26 1.7zm20.28-5.71a2.09 2.09 0 01-.69 1.33 3.14 3.14 0 01-1.38.71 3.45 3.45 0 01-1.53-.17 4 4 0 01-.62-.38 3 3 0 01-.51-.56v-.05a4.14 4.14 0 002.52.39 3.43 3.43 0 002.15-1.31zm-.35-1.51a1.57 1.57 0 01-.42 1.11 2.2 2.2 0 01-1 .64 2.25 2.25 0 01-1.23-.13 2.41 2.41 0 01-.5-.33 2 2 0 01-.34-.51 2.7 2.7 0 001.87.27 2.9 2.9 0 001.58-1h.09zm-1.2-1.62a1.21 1.21 0 01.08 1 1.75 1.75 0 01-.7.8 1.8 1.8 0 01-1 .11 2.25 2.25 0 01-.45-.19 1.63 1.63 0 01-.36-.38 2.26 2.26 0 001.47-.15 1.75 1.75 0 00.9-1.14zm-2.29-.93a.85.85 0 01.42.9 1.43 1.43 0 01-.65.89 1.7 1.7 0 01-.92.1l-.4-.16a2.2 2.2 0 01-.35-.33 2.53 2.53 0 001.3-.23.94.94 0 00.52-1.07z" transform="translate(791.68 -111.15)" fill="#f46800"/><path d="M1970.91 309.45s.79-3.63-1.33-5.48" fill="none" stroke="#d13505" stroke-linecap="round" stroke-miterlimit="10" stroke-width=".25"/><path d="M1973.91 303.19s3.86 1 3.28 4.31m-1.86-6.53s4.48-3.06 6.15 0m-7.2-3.29s.59-4 3.62-4.14m-6.99 2.74s-.83-3.2 1.36-4.4m-6.05 3.26s-1.56-2.22.63-3.39" fill="none" stroke="#d13505" stroke-linecap="round" stroke-miterlimit="10" stroke-width=".4"/><path d="M1176.54 414.4a10.22 10.22 0 01-2.55.62 9.8 9.8 0 01-2.65 0 6 6 0 01-2.52-.94 4.09 4.09 0 01-1.6-2.1 5.46 5.46 0 001.87 1.64 7.76 7.76 0 002.36.71 24.06 24.06 0 005.09.07z" transform="translate(791.68 -111.15)" fill="#f46800"/><path d="M1176.68 415a18.52 18.52 0 01-6.71.61 10.32 10.32 0 01-3.32-.83 4.93 4.93 0 01-2.52-2.24 6 6 0 002.72 1.74 13.89 13.89 0 003.19.64 49.06 49.06 0 006.64.08z" transform="translate(791.68 -111.15)" fill="#f46800"/><path d="M1177.38 414.49a5.11 5.11 0 01-1.94.21 4.62 4.62 0 01-1.92-.55 3.47 3.47 0 01-1.41-1.48 3.51 3.51 0 01-.32-1.94 6.52 6.52 0 00.78 1.67 3.92 3.92 0 001.29 1.14 9.6 9.6 0 003.52.95z" transform="translate(791.68 -111.15)" fill="#f46800"/><path fill="none" stroke="#39b54a" stroke-miterlimit="10" stroke-width="1.5" d="M1929.33 302.54l2.12 1.43m-6.28.8l-1.96.84m-3.23-5.57l1.97-.26m20.19.57l2.32 1.65m-31.5 6.8l-1.9.65m-5.02-5.12l1.23 1.28m1.41-4.16l1.18.55m35.37 8.02l-.8.86m-4.92-16.36l.87.67m-16.19-4.33l-.04 1.87m10.84 14.84l-.94 1.11m15.14-10.28l1.13.93m3.35 8.79l-.94.56m-16.62-9.82l1.3 1.07m-28.14-9.19l1.61 1.1m7.3-4.2l-.67 1.02"/></g><g style="animation:f 20s 16.5s linear infinite;animation-direction:inherit;transform-origin:center"><path d="M1104.32 380.4h27.79v22.75a7.84 7.84 0 01-7.84 7.84h-12.11a7.84 7.84 0 01-7.84-7.84V380.4z" transform="translate(791.68 -111.15)" fill="#9c6"/><path d="M1131.45 403.93v-2.33H1127v-13.51h4.47a6 6 0 016 6v1.5a6 6 0 01-6 6v4.65a10.65 10.65 0 0010.7-10.6v-1.54a10.66 10.66 0 00-10.66-10.66h-9.16v22.81h9.12z" transform="translate(791.68 -111.15)" fill="#9c6"/><path fill="#ffd505" d="M1896 272.29h27.91v1.59H1896z"/><g opacity=".62"><path d="M1154.94 246.83h-78c3.32 13.85 9.88 19 15.06 21.18 9.36 4 18.28 0 24.8 5.39 4.08 3.39 5.79 9.3 4 14-3.81 9.88-20.41 7.39-28.79 18-6.79 8.55-4.73 21.29.88 29.45 8.36 12 22.56 11.25 26.62 21.15 3.19 7.82-3 17.62-9.08 24.42h15.72c27.41-15.48 32.39-24.73 30.56-30.52-2.67-8.43-19.25-7.83-27-20.83-5.06-8.48-5.13-20.64 2.22-26.21 6.88-5.22 14.35-.16 23.47-5.39 11-6.28 14.92-22.05 8.42-29.8-2.46-2.92-5.29-3.25-7.62-7.14a16.08 16.08 0 01-1.24-13.68" transform="translate(791.68 -111.15)" fill="url(#linear-gradient)"/><g clip-path="url(#clip-path-2)"><path fill="url(#linear-gradient-2)" d="M1868.2 135.28h94.29v134.28h-94.29z"/></g></g><path d="M1098.32 414.6h100.83v4a8.46 8.46 0 01-8.46 8.46h-83.91a8.46 8.46 0 01-8.46-8.46v-4z" transform="translate(791.68 -111.15)" fill="#ffd505"/><rect x="1890" y="295.03" width="100.84" height="15.91" rx="7.95" fill="#c90"/><path d="M1167.86 422.09h-62.23c-4.65 0-6.94-3.65-6.94-8.16h0" transform="translate(791.68 -111.15)" fill="none" stroke="#fdedc8" stroke-linecap="round" stroke-miterlimit="10"/><path fill="none" stroke="#fdedc8" stroke-linecap="round" stroke-miterlimit="10" d="M1966.09 310.94h6.72"/><path d="M1190.8 419.44h-83.16c0-5.89 3.29-10.72 7.44-10.94l65.29-3.42c5.7-.3 10.43 6.17 10.43 14.25z" transform="translate(791.68 -111.15)" fill="#fc6"/><path d="M1160 398.93c2.59 1.77 4.87 6.41 3.09 9s-6.91 2.15-9.5.38a5.68 5.68 0 116.07-9.6l.34.23z" transform="translate(791.68 -111.15)" fill="#c11f1f"/><path d="M1154 400.43a5.28 5.28 0 011.25 2.34 5.18 5.18 0 01-2.61-.45c-.8-.58-1.14-1.46-.76-2s1.36-.47 2.12.11z" transform="translate(791.68 -111.15)" fill="#6c9e33"/><path d="M1153 402.54a5.52 5.52 0 01-1.17 2.39 5.14 5.14 0 01-1.16-2.39c0-1 .53-1.78 1.17-1.78s1.16.8 1.16 1.78zm1.45-1.95a5.31 5.31 0 001.41-2.25 5.27 5.27 0 00-2.64.27c-.84.52-1.24 1.38-.9 1.93s1.27.57 2.13.05z" transform="translate(791.68 -111.15)" fill="#6c9e33"/><path d="M1156.39 397.92s5.1 1 4.15 9.95m-8.19-8.51s5.81 3.83 1.57 9.22" transform="translate(791.68 -111.15)" fill="none" stroke="#5b3103" stroke-linecap="round" stroke-miterlimit="10"/><path fill="#ffdc9f" d="M1913.65 296.63l22.91 10.33 29.53-12.74-52.44 2.41z"/><path d="M1169.9 411.2c-2.75 1.52-7.92 1.46-9.43-1.29s1.2-7.14 4-8.65a5.68 5.68 0 115.88 9.72l-.4.22z" transform="translate(791.68 -111.15)" fill="#ff2c2c"/><path d="M1171.22 405.25a5.22 5.22 0 01-2.66.06 5.14 5.14 0 011.59-2.13c.87-.45 1.81-.36 2.11.22s-.17 1.39-1.04 1.85z" transform="translate(791.68 -111.15)" fill="#9c6"/><path d="M1169.79 403.38a5.22 5.22 0 01-1.6-2.12 5.18 5.18 0 012.65.05c.88.44 1.35 1.27 1.06 1.84s-1.24.68-2.11.23zm1.11 2.14a5.17 5.17 0 001.37 2.27 5.32 5.32 0 001-2.48c-.09-1-.68-1.72-1.32-1.66s-1.14.89-1.05 1.87z" transform="translate(791.68 -111.15)" fill="#9c6"/><path d="M1137.45 407s9.2 3.08 2.57 4.63-11.6-.65-16.52-2.79c-3.25-1.43-5.6-.76-7.53-.59m28.91-1.96s13 .67 14.33 13.37m8.02-19.41a7.27 7.27 0 00-3.26 8.22c1.53 5.54 6 8.56 11.74 10.77" transform="translate(791.68 -111.15)" fill="none" stroke="#5b3103" stroke-linecap="round" stroke-miterlimit="10"/></g><g style="animation:b 20s 3.3s linear infinite;animation-direction:inherit;transform-origin:center"><path d="M1101.14 393H1175a2.57 2.57 0 012.57 2.57v34.73h-79v-34.77a2.57 2.57 0 012.61-2.53z" transform="translate(791.68 -111.15)" fill="#a67c52"/><path d="M1098.56 430.26h79v2.66a1.47 1.47 0 01-1.47 1.47h-76.15a1.38 1.38 0 01-1.38-1.38v-2.75z" transform="translate(791.68 -111.15)" fill="#7f5732"/><g opacity=".25" fill="none" stroke="#7f5732" stroke-miterlimit="10"><path d="M1098.56 427.34h14.66a2.56 2.56 0 002.56-2.56h0a3.19 3.19 0 013.19-3.19h58.56m0 3.64h-31.32a5 5 0 00-5 5h0m-42.65-7.57h10.69A4.72 4.72 0 001114 418h0a4.73 4.73 0 00-4.73-4.73h-10.69m78.95-7.96h-41.59a2.66 2.66 0 00-2.66 2.66h0a2.66 2.66 0 002.66 2.66H1152a2.25 2.25 0 012.25 2.25h0a4.14 4.14 0 004.14 4.14h19.1m-78.93-19.86h20.58a.87.87 0 01.88.88h0a3.71 3.71 0 003.71 3.71h53.77m-78.94-.94h12.58a1.56 1.56 0 011.56 1.56h0a1.57 1.57 0 01-1.52 1.62h-12.62m78.97-6.06h-19.06a4.82 4.82 0 01-4.82-4.82h0" transform="translate(791.68 -111.15)"/><path d="M1177.53 407.58h-16.39a2.15 2.15 0 00-2.15 2.15h0a2.16 2.16 0 002.15 2.16h16.38" transform="translate(791.68 -111.15)"/></g><circle cx="1925.29" cy="283.65" r="1.19" fill="#fe4c00"/><circle cx="1926.34" cy="282.07" r="1.19" fill="#fe4c00"/><circle cx="1927.14" cy="283.74" r="1.19" fill="#fe4c00"/><circle cx="1927.89" cy="282.07" r="1.19" fill="#fe4c00"/><circle cx="1929.08" cy="280.43" r="1.19" fill="#fe4c00"/><circle cx="1929.85" cy="281.8" r="1.19" fill="#fe4c00"/><circle cx="1930.63" cy="283.65" r="1.19" fill="#fe4c00"/><circle cx="1933.37" cy="283.41" r="1.19" fill="#fe4c00"/><circle cx="1931.82" cy="283" r="1.19" fill="#fe4c00"/><circle cx="1931.46" cy="281.27" r="1.19" fill="#fe4c00"/><circle cx="1933.37" cy="281.48" r="1.19" fill="#fe4c00"/><circle cx="1934.98" cy="283" r="1.19" fill="#fe4c00"/><circle cx="1936.65" cy="283.26" r="1.19" fill="#fe4c00"/><circle cx="1938.62" cy="283.15" r="1.19" fill="#fe4c00"/><circle cx="1940.7" cy="283.26" r="1.19" fill="#fe4c00"/><circle cx="1939.66" cy="282.07" r="1.19" fill="#fe4c00"/><circle cx="1937.84" cy="281.95" r="1.19" fill="#fe4c00"/><circle cx="1936.01" cy="281.63" r="1.19" fill="#fe4c00"/><circle cx="1934.56" cy="280.88" r="1.19" fill="#fe4c00"/><circle cx="1937.07" cy="280.08" r="1.19" fill="#fe4c00"/><circle cx="1935.22" cy="279.84" r="1.19" fill="#fe4c00"/><circle cx="1933.01" cy="280.08" r="1.19" fill="#fe4c00"/><circle cx="1934.2" cy="278.88" r="1.19" fill="#fe4c00"/><circle cx="1930.9" cy="280.08" r="1.19" fill="#fe4c00"/><circle cx="1928.51" cy="283.41" r="1.19" fill="#fe4c00"/><path d="M1150.25 408.8h-17.68a.9.9 0 01-.9-.88v-.12a68.13 68.13 0 000-11.95.9.9 0 01.79-1h17.79a.9.9 0 01.9.9v.1a59.25 59.25 0 000 11.91.9.9 0 01-.73 1z" transform="translate(791.68 -111.15)" fill="#1f3440"/><path d="M1104.57 406.14H1141v6.69a4.8 4.8 0 01-4.8 4.8h-26.78a4.8 4.8 0 01-4.8-4.8v-6.69z" transform="translate(791.68 -111.15)" fill="#fff"/><path d="M1140.49 408.87h-35.76a1.86 1.86 0 01-1.86-1.86 1.9 1.9 0 011.21-1.77 50.9 50.9 0 0137.07 0 1.9 1.9 0 011.21 1.77 1.86 1.86 0 01-1.86 1.86z" transform="translate(791.68 -111.15)" fill="#fc4f4f"/><g opacity=".73" fill="#ffbdbd"><path d="M1898.71 297.73h1.34v-.01h-1.34v.01z"/><path d="M1110.51 406.3l6.1-1.12a3.2 3.2 0 002.15-1.49l1.13-1.86c-.54 0-1.09.07-1.63.12l-.64 1.05a1.83 1.83 0 01-1.25.86l-6.11 1.14a4 4 0 00-3.23 3.88h1.33a2.62 2.62 0 012.15-2.58zm5.12 1.45l6.47-1.09a10.17 10.17 0 006.85-4.49c-.52-.07-1-.14-1.56-.19a8.77 8.77 0 01-5.51 3.37l-6.47 1.09a4.38 4.38 0 00-3.06 2.08l-.22.35h1.61a3.19 3.19 0 011.89-1.12zm16.1-.82a3.14 3.14 0 01.92-1.86 6.25 6.25 0 012.67-1.43l.46-.12q-1.17-.31-2.34-.57a6.68 6.68 0 00-1.74 1.18 4.55 4.55 0 00-1.3 2.62 7.42 7.42 0 00-.06.94 4.69 4.69 0 00.13 1.18h1.41a3.41 3.41 0 01-.21-1.18 4.87 4.87 0 01.06-.76zm6.41-1.77a6.4 6.4 0 01.48-.79l-1.33-.4a7.08 7.08 0 00-1.18 3.7 4.6 4.6 0 00.17 1.22h1.39a3.88 3.88 0 01-.23-1.22 5.53 5.53 0 01.7-2.51z" transform="translate(791.68 -111.15)"/></g><path d="M1122.61 415.85H1159v6.91a4.58 4.58 0 01-4.58 4.58h-27.22a4.58 4.58 0 01-4.58-4.58v-6.91z" transform="translate(791.68 -111.15)" fill="#fff"/><rect x="1912.96" y="302.06" width="39.23" height="6.51" rx="1.19" fill="#fc3"/><path d="M1154.55 414.73h-30.13v.89h30.13a4 4 0 003.65-2.41h-1a3.07 3.07 0 01-2.65 1.52z" transform="translate(791.68 -111.15)" fill="#efaf11"/><path fill="#1f3440" d="M1925.56 302.06h12.77v14.13h-12.77z"/><path fill="#563418" d="M1900.17 323.24h17.59v4.04h-17.59zm43.22 0h17.59v4.04h-17.59z"/></g><g style="animation-name:pp;animation-duration:10s;animation-iteration-count:1;animation-direction:alternate"><text transform="rotate(18.62 276.423 5152.152)" style="isolation:isolate" font-size="34.965" fill="#fdedc8" font-family="Somatic-Rounded,Somatic">!!!</text></g><g style="animation:a 20s linear infinite;animation-direction:inherit;transform-origin:center"><path fill="#fff" d="M1867.33 307.33l55.98-39.06 68.81 22.74-32.86 51.4-5.14 10.55-24.39-10.55-62.4-35.08z"/><path d="M1170 424.37a257.18 257.18 0 01-49.63 0 3.71 3.71 0 01-3.71-3.71v-2.58h57.05v2.58a3.71 3.71 0 01-3.71 3.71z" transform="translate(791.68 -111.15)" fill="#e7af5f"/><rect x="1906.91" y="300.2" width="59.83" height="5.23" rx="2.36" fill="#5b3103"/><rect x="1906.91" y="294.12" width="59.83" height="5.23" rx="2.36" fill="#5b3103"/><path d="M1117.15 416.48a3.37 3.37 0 00-4 1.6c-1.25 2.45 1.87 2.66 3.74 1.72s5.4-.35 7.58.4 5.15 1.63 8.94-.71 6.7.9 10.28.71 5.77-2 9.35-1.12 7.56 1.79 10 .62 5-1.74 6.55-1 3.5 1.73 5 .79 1.22-2.89-1-3.12z" transform="translate(791.68 -111.15)" fill="#39b54a"/><path fill="#ffd505" d="M1909.53 300.2l27.3 3.13 27.3-3.13v-.85h-54.6v.85z"/><rect x="1910.12" y="292.65" width="21.58" height="1.47" rx=".66" fill="#009245"/><rect x="1914.22" y="292.65" width="21.58" height="1.47" rx=".66" fill="#fe4c00"/><rect x="1938.87" y="292.65" width="21.58" height="1.47" rx=".66" fill="#fe4c00"/><path d="M1136 383.86h18.32a19.36 19.36 0 0119.36 19.36v.59h-57v-.59a19.36 19.36 0 0119.32-19.36z" transform="translate(791.68 -111.15)" fill="#e7af5f"/><path d="M1135.11 387.65c-.13.31-.43.49-.65.39a.55.55 0 01-.18-.74c.13-.31.78-.69.78-.69a2.43 2.43 0 01.05 1.04zm3.36.61a.54.54 0 01-.14.74c-.22.11-.52-.05-.67-.35a2.41 2.41 0 010-1 3.12 3.12 0 01.81.61zm14.83-.26a.47.47 0 11-.81.39 2.41 2.41 0 010-1 2.44 2.44 0 01.81.61zm-8.65-1.45a.54.54 0 01-.15.74c-.22.11-.52-.05-.67-.35a2.65 2.65 0 010-1.05s.67.35.82.66zm4.07 1.13a.55.55 0 01-.35.67.59.59 0 01-.54-.53 2.52 2.52 0 01.3-1 2.32 2.32 0 01.59.86zm-1.53 3.18a.56.56 0 01-.11.76.55.55 0 01-.68-.33 2.41 2.41 0 010-1 2.5 2.5 0 01.79.57zm9.38-4.23a.55.55 0 01.1.75.56.56 0 01-.75-.13 2.4 2.4 0 01-.32-1 2.27 2.27 0 01.97.38zm-20.74 3.87a.55.55 0 01-.65.39.54.54 0 01-.17-.74c.13-.31.78-.69.78-.69a2.28 2.28 0 01.04 1.04zm6.22-.08c-.06.34-.31.57-.55.53a.55.55 0 01-.34-.68 2.53 2.53 0 01.6-.85 2.36 2.36 0 01.29 1z" transform="translate(791.68 -111.15)" fill="#fdedc8"/><path d="M1132 426.22l-27.19-2.13a1 1 0 01-.92-1.07l.07-1a1 1 0 011.06-.93l28.73 2.25a.49.49 0 01.45.54.44.44 0 01-.07.22l-.91 1.47a1.33 1.33 0 01-1.22.65z" transform="translate(791.68 -111.15)" fill="#ffd38d"/><path d="M1138.58 425.47l-27.12 2.82a1 1 0 01-1.11-.88l-.1-1a1 1 0 01.89-1.1l28.65-3a.5.5 0 01.52.68l-.63 1.61a1.33 1.33 0 01-1.1.87zm16.32 1.95l-27.12 2.82a1 1 0 01-1.11-.88l-.1-1a1 1 0 01.89-1.1l28.65-3a.5.5 0 01.52.68l-.63 1.61a1.33 1.33 0 01-1.1.87z" transform="translate(791.68 -111.15)" fill="#ffda8f"/><path d="M1150.3 432.3l-27.28-.07a1 1 0 01-1-1v-1a1 1 0 011-1l28.81.09a.49.49 0 01.51.47.54.54 0 01-.06.25l-.8 1.54a1.33 1.33 0 01-1.18.72z" transform="translate(791.68 -111.15)" fill="#ffda8f"/><path d="M1140.05 421l26.2 7.55a1 1 0 01.7 1.23l-.27.94a1 1 0 01-1.23.69l-27.69-8a.49.49 0 01-.34-.62.56.56 0 01.11-.2l1.19-1.26a1.37 1.37 0 011.33-.33z" transform="translate(791.68 -111.15)" fill="#ffd38d"/><path d="M1136.91 430.62l26.6-6a1 1 0 011.21.74l.21 1a1 1 0 01-.75 1.2l-28.1 6.36a.49.49 0 01-.59-.38.45.45 0 010-.23l.43-1.68a1.35 1.35 0 01.99-1.01z" transform="translate(791.68 -111.15)" fill="#ffe6a6"/></g></g></g></svg>