<svg id="Layer_1" data-name="Layer 1" xmlns="http://www.w3.org/2000/svg" viewBox="0 0 924 700"><defs><style>.cls-1{fill:#ffd400}.cls-3{fill:#ffe5b4}.cls-7{fill:#fd8f04}.cls-8{fill:#5b3103}.cls-10{fill:#fc4c01}.cls-12{fill:#ffe38d}.cls-13{fill:#fff0ce}.cls-15{fill:#ffd988}.cls-18{fill:#ffedbe}</style></defs><path class="cls-1" d="M207.88 683.31h691a2 2 0 100-4h-691a2 2 0 100 4m-42.69-4.01H21.12a2 2 0 100 4h144.07a2 2 0 000-4"/><rect x="272.62" y="185.73" width="563.14" height="400" rx="30.51" fill="#f5c34f"/><path class="cls-3" d="M651.44 663.07H472.59L419.15 339.2h155.34l76.95 323.87z"/><path class="cls-3" d="M421.78 679H639a12.42 12.42 0 0012.42-12.42v-3.69H409.36v3.69A12.42 12.42 0 00421.78 679z"/><path fill="#f2bf67" d="M419.15 339.2l43.74 265.06h174.58L574.49 339.2H419.15z"/><rect x="255.7" y="185.73" width="563.14" height="400" rx="30.51" fill="#f7d591"/><path d="M818.84 535.69H255.7V216.24a30.51 30.51 0 0130.51-30.51h502.13a30.51 30.51 0 0130.5 30.51z" fill="#1f3440"/><rect class="cls-1" x="277.46" y="207.48" width="518.43" height="303.23" rx="16.35"/><path class="cls-7" d="M530.86 296.58h76.21v48.37h-76.21z"/><path class="cls-7" d="M525.23 35.06v15.07a9.81 9.81 0 008.52 9.9 9.51 9.51 0 0010.47-9.44V25.32a4.15 4.15 0 013.24-4.07c3.47-.75 7-1.34 10.59-1.77a4.19 4.19 0 014.7 4.15v26.53a9.8 9.8 0 008.51 9.9 9.52 9.52 0 0010.47-9.44v-27a4.19 4.19 0 014.71-4.15q5.37.66 10.59 1.78a4.15 4.15 0 013.23 4.07v24.83a9.81 9.81 0 008.52 9.9 9.51 9.51 0 0010.47-9.44V35.12a4.18 4.18 0 016-3.74A116.85 116.85 0 01689 135.53v85.18a88.78 88.78 0 01-88.84 88.72h-56.15a88.77 88.77 0 01-88.72-88.83l.06-85.18A116.82 116.82 0 01519.2 31.31a4.17 4.17 0 016.03 3.75z"/><path class="cls-8" d="M518.13 238.27a38 38 0 0070.12-.14z"/><path d="M600.85 251.37a10.41 10.41 0 01-4.55-3.72 10.3 10.3 0 010-11.5 10.37 10.37 0 014.53-3.72 4 4 0 00-3.13-7.43 18.3 18.3 0 00.06 33.74 4 4 0 003.09-7.41zm-91.5 5.81a18.29 18.29 0 00.11-33.73 4 4 0 00-3.13 7.39 10.28 10.28 0 01-.06 18.94 4 4 0 103.08 7.4z" fill="#faa747"/><path class="cls-10" d="M522.3 511h162.85l-25.47-136.79c-4.6-26-29.38-47-55.35-47h-64.66c-28.25 0-47.1 22.91-42.11 51.15z"/><path class="cls-8" d="M499.1 177.87v7.37a6 6 0 0012 0v-7.37a6 6 0 10-12 0"/><path class="cls-7" d="M474.37 367.68l5.08 7.12-5.06-7.13 5.08 7.12-5.06-7.13a173.12 173.12 0 01-22.47 12.94 143.1 143.1 0 01-21.48 8.46 78.11 78.11 0 01-21.7 3.55 38.89 38.89 0 01-13.29-2.12 28.31 28.31 0 01-10.59-6.78 53.88 53.88 0 01-9.35-12.71 85.28 85.28 0 01-8.24-24.48 146.12 146.12 0 01-2.29-26.7 198.35 198.35 0 011.88-26.77c.47-3.39.93-6.08 1.27-7.88.17-.9.3-1.57.39-2l.1-.44v-.07l-6.54-1.45 6.54 1.48-6.54-1.45 6.54 1.48-37.17-8.43c-.1.42-1.23 5.47-2.35 13.57a235.75 235.75 0 00-2.23 32c0 13.92 1.3 29.73 5.72 45.62A115.29 115.29 0 00342 389a92 92 0 0016 21.65 66.57 66.57 0 0024.53 15.65 76.86 76.86 0 0026.3 4.41 116.47 116.47 0 0033-5.25 195.75 195.75 0 0038.46-16.65 191.06 191.06 0 0016.33-10.13l-22.15-31z"/><path class="cls-7" d="M324 291.44h34.5a10.3 10.3 0 0010.3-10.3v-13.09a13.38 13.38 0 00-13.38-13.38h-51.63a6.57 6.57 0 00-6.56 6.57v3.42A26.77 26.77 0 00324 291.44z"/><path fill="#ff5800" d="M607.06 308.93h-22.23v2.01h22.23"/><path class="cls-10" transform="rotate(-26.37 496.352 377.85)" d="M459.27 346.92h74.07v61.81h-74.07z"/><path class="cls-12" d="M637.8 184.26c0 18.88 16 34.18 35.65 34.18s35.66-15.3 35.66-34.18-16-34.18-35.66-34.18-35.65 15.3-35.65 34.18z"/><path class="cls-13" d="M645 184.26a34.18 34.18 0 1034.18-34.18A34.18 34.18 0 00645 184.26z"/><path class="cls-12" d="M660.51 185.05a20 20 0 1020-20 20 20 0 00-20 20z"/><path d="M694.12 185.05a20 20 0 00-16.8-19.69 19.34 19.34 0 013.16-.28 20 20 0 010 39.95 19.34 19.34 0 01-3.16-.28 20 20 0 0016.8-19.7z" fill="#ffd978"/><path class="cls-13" d="M667 206.78l-25.9 39.32a35.63 35.63 0 01-29.75 16h-60.21v6h60.23a41.64 41.64 0 0034.77-18.73l25.91-39.32-5-3.31z"/><path class="cls-15" d="M544.8 272.47h18a7.67 7.67 0 100-15.34h-18a7.67 7.67 0 100 15.34z"/><path d="M349.67 541.49h108.66c7.57 0 12.31-6.14 10.59-13.7l-33.77-148.68c-1.72-7.57-9.25-13.71-16.82-13.71H309.68c-7.57 0-12.32 6.14-10.6 13.71l33.78 148.68c1.72 7.56 9.25 13.7 16.81 13.7z" fill="#507591"/><path d="M336.15 366l1.76 7.72a2.69 2.69 0 002.49 2h46.85a1.57 1.57 0 001.57-2l-1.75-7.72a2.7 2.7 0 00-2.49-2h-4.8l-5.19-3.2a15.74 15.74 0 00-8.21-2.47h-1.81l-.65-6.07a4.74 4.74 0 002.65-5.68 8.11 8.11 0 00-7.47-6.08h-6.17a4.71 4.71 0 00-4.7 6.08 8.22 8.22 0 005.53 5.77l2.08 6h-2a10.74 10.74 0 00-7.1 2.47L343 364h-5.24a1.57 1.57 0 00-1.61 2zm22.9-16h-1.39a4.55 4.55 0 01-4.18-3.41 2.64 2.64 0 012.63-3.41h1.39a4.54 4.54 0 014.19 3.41 2.65 2.65 0 01-2.64 3.41z" fill="#e8e1d7"/><path class="cls-7" d="M579.52 428.12a112.28 112.28 0 01-4.09 11.58 135.64 135.64 0 01-8.18 16.67c-5.21 9-12.16 18.07-20.35 24.58a52.84 52.84 0 01-13.22 7.87 47 47 0 01-15.75 3.4c-.91 0-1.81.06-2.69.06a52.47 52.47 0 01-14.41-1.95 55.14 55.14 0 01-20-10.66 77.88 77.88 0 01-11.56-11.86 102.29 102.29 0 01-11.1-17.5 86.337 86.337 0 01-2.58-5.6c-.26-.64-.45-1.11-.55-1.39l-.1-.26-7.74 2.8 7.77-2.73v-.07l-7.74 2.8 7.77-2.73-36 12.64a107.68 107.68 0 005.24 11.92A140.71 140.71 0 00435 485.61a114.49 114.49 0 0030 29.7 91.41 91.41 0 0022.61 10.85 90.49 90.49 0 0027.59 4.23c1.45 0 2.92 0 4.41-.1a85.29 85.29 0 0026.2-5.32A88.8 88.8 0 00565 515a110.48 110.48 0 0024.65-23.68 160.27 160.27 0 0020.51-35.77 145.59 145.59 0 006.25-17.67l-36.84-9.75z"/><path class="cls-7" d="M420.37 457.45H458l.29-.28v-16.79a22.51 22.51 0 00-22.51-22.51h-23.19a15.82 15.82 0 00-15.82 15.82v.16a23.61 23.61 0 0023.6 23.6z"/><path class="cls-8" d="M577.74 184.89a11.16 11.16 0 0122.32 0 5 5 0 1010 0 21.19 21.19 0 00-42.38 0 5 5 0 1010 0z"/><rect class="cls-18" x="268.72" y="125.81" width="145.1" height="90.71" rx="24.43"/><path class="cls-18" d="M363.56 213.18l68.77 41.46a1.46 1.46 0 001.78-2.3l-49.75-49z"/><path class="cls-15" d="M368.25 192.79h-.91a7.08 7.08 0 01-7-7.31c0-4.12 3.09-7.55 7-7.55h.91c3.77 0 7 3.43 7 7.55a7.16 7.16 0 01-7 7.31zm-26.29 0H341a7.07 7.07 0 01-7-7.31c0-4.12 3.08-7.55 7-7.55h1c3.77 0 7 3.43 7 7.55a7.15 7.15 0 01-7 7.31zm-26.3 0h-.91a7.08 7.08 0 01-7-7.31c0-4.12 3.09-7.55 7-7.55h.91c3.77 0 7 3.43 7 7.55a7.16 7.16 0 01-7 7.31z"/><rect class="cls-18" x="141.62" y="17.31" width="127.99" height="90.71" rx="24.43"/><path class="cls-18" d="M189.5 100.13l-79.34 72a2 2 0 01-2.93-2.55l52.49-77z"/><path class="cls-15" d="M202.42 85.4h-.58a5 5 0 000 9.94h.58a5 5 0 000-9.94zm.17-52.28A18.39 18.39 0 00188.31 40a4.93 4.93 0 107.69 6.15 8.56 8.56 0 016.6-3.09 8.44 8.44 0 110 16.87h-.5a5 5 0 00-4.93 5v9.6a5 5 0 109.94 0v-5.25a18.36 18.36 0 00-4.51-36.16z"/></svg>