<svg
  id="Layer_1"
  data-name="Layer 1"
  xmlns="http://www.w3.org/2000/svg"
  viewBox="0 0 1246 417.1"
>
  <style>
    @keyframes sdiamondOpacity {
      0%,
      30% {
        opacity: 0;
        transform: translateY(10px);
      }
      31% {
        opacity: 1;
        transform: translateX(0);
      }
    }
    @keyframes ch {
      0% {
        transform: translateX(0);
      }
      50% {
        transform: translateX(50px);
      }
      100% {
        transform: translateX(50px) rotateZ(15deg);
      }
    }
    @keyframes h {
      0% {
        transform: rotateZ(0deg);
      }
      50% {
        transform: rotateZ(-5deg);
      }
    }
    @keyframes hd {
      0% {
        transform: rotateZ(55deg);
      }
      50% {
        transform: rotateZ(-5deg);
      }
    }
    @keyframes td {
      0% {
        transform: rotateZ(55deg);
      }
      50% {
        transform: rotateZ(-5deg);
      }
    }
    @keyframes h2 {
      0% {
        transform: rotateZ(0deg);
      }
      50% {
        transform: rotateZ(-3deg);
      }
    }
  </style>
  <defs>
    <clipPath id="clip-path">
      <path
        d="M687.7 427.5l-76.4-293.3c-9.5-38.6 0-77.5 26.1-100.6 16.4-14.6 35-19.1 45.7-20.7Q788-12.75 892.6-38.2l44.8 147.9 49.5 190 11.8 45.3-311 82.5-76.4-293.3c-9.5-38.6 0-77.5 26.1-100.6 16.4-14.6 35-19.1 45.7-20.7"
        fill="none"
      />
    </clipPath>
  </defs>
  <path fill="#ffeec4" d="M76 276h1085v140H76z" />
  <path
    d="M110.1 0h1016.7a34.16 34.16 0 0134.2 34.1V279c-337.9 1.5-701.9 1.3-1085 0V34.1A34.14 34.14 0 01110.1 0z"
    fill="#ffdb94"
  />
  <path
    d="M1005.7 254.7h-30.3a4.76 4.76 0 00-.86 9.48h31.16a4.85 4.85 0 005-4.5 4.77 4.77 0 00-4.5-5h-.5"
    fill="#ffc873"
  />
  <path
    d="M987.4 338h-30.3a4.76 4.76 0 000 9.5h30.3a4.76 4.76 0 000-9.5"
    fill="#ffd57b"
  />
  <path
    d="M987.4 237h-30.3a4.76 4.76 0 000 9.5h30.3a4.76 4.76 0 000-9.5"
    fill="#ffc873"
  />
  <path
    d="M972.3 413.1H758.1V107.6c0-58 43.7-104.3 97.5-104.3h19.2c53.8 0 97.5 48.1 97.5 104.3z"
    fill="#ffeec4"
    stroke="#ffd400"
    stroke-miterlimit="10"
    stroke-width="3"
  />
  <g
    style="animation:ch 0.75s linear 1s forwards 1;transform-origin:bottom;transform-box:fill-box"
    clip-path="url(#clip-path)"
  >
    <g id="chef-2">
      <path
        d="M719.1 175.2l42.3-4.7a47.26 47.26 0 0041.7-52.1l-5.7-51.1-21.4 2.4 5.7 51.1a25.5 25.5 0 01-22.4 28.2h-.1l-42.3 4.7z"
        fill="#ff7d37"
      />
      <path
        d="M719.5 178.2l42.3-4.7a50.38 50.38 0 0044.5-55.5l-2.5-22.3-27.6 3.1 2.5 22.4a22.36 22.36 0 01-19.6 24.8h-.3l-42.3 4.7z"
        fill="#fff8da"
      />
      <path
        fill="#ff7d37"
        d="M679 272.5l16.8 135.6 15.6-2-16.9-135.5m15.6 3.1l.5-3.9-.5 3.9.5-4-.5 4h.3a77.92 77.92 0 0120.4 7.3 80.76 80.76 0 0115.7 10.7 78.47 78.47 0 0114.9 17.5 50.54 50.54 0 015.6 13.4 75.51 75.51 0 012.1 23.2 144.64 144.64 0 01-5.4 32c-1.2 4.2-2.4 7.8-3.2 10.1-.4 1.2-.8 2.2-1 2.8l-.2.7-.1.1 2.8 1.1-2.8-1.1 2.8 1.1-2.8-1.1 6.8 2.9-6.8-2.9 6.8 2.9-6.8-2.9 14.4 6a167 167 0 007.8-25.8 142.71 142.71 0 003.4-25.2 90.07 90.07 0 00-2.6-27.8 64.44 64.44 0 00-7.5-17.7 90.4 90.4 0 00-19.5-22.4 92.73 92.73 0 00-29-16.5 76.27 76.27 0 00-14-3.8l-2.1 15.4z"
      />
      <path
        d="M709.2 276.3l1.9-10.1-1.9 10.1 1.9-10.1-1.9 10.1.9-4.7-.9 4.7.9-4.7-.9 4.7a71.74 71.74 0 0118 6.9 95.06 95.06 0 0116.1 10.6 85.8 85.8 0 0116.1 17.4 39.73 39.73 0 016.1 13.4 51 51 0 011.6 12.3 97.76 97.76 0 01-1.3 18c-.4 2.8-1 5.4-1.5 7.7s-1 4.5-1.4 6.5l20.6 4.4c.5-2.2 1.2-5.4 1.9-9.2A127.25 127.25 0 00788 344a82.18 82.18 0 00-2.3-24.7 62.5 62.5 0 00-9.2-20.1 110.53 110.53 0 00-20.6-22 112.68 112.68 0 00-29-17 85.49 85.49 0 00-13.8-4.3zm-32 3.2l12.9 104 20.9-2.6L698 277m28.8 134.8l-29.5 3.7a1.29 1.29 0 01-1.49-1.05v-.05l-1.3-10.7L716 401a10.78 10.78 0 0112 9.4 1.31 1.31 0 01-1.2 1.4z"
        fill="#193441"
      />
      <g
        style="animation:h 1.5s ease-in-out 1s forwards;transform-origin:bottom;transform-box:fill-box"
      >
        <path
          d="M706 25.5a6.92 6.92 0 00-5.4 7.5l.4 4 .1 1.3v.1l.4 4 .1 1.3.4 4 1.2 11.5.6 5.4a5.64 5.64 0 01-11.2 1.3l-.6-5.4-1.1-11.5-.4-4-.1-1.3-.4-4-.1-.2-.1-1.2-.5-4.2a6.55 6.55 0 00-7.21-5.81H682a6.55 6.55 0 00-5.81 7.21v.09l.5 4.2.1 1.2.1.2.4 3.8.1.2.1 1.3.4 3.9L679 62l.5 5.2a5.78 5.78 0 01-4.1 6.2 5.65 5.65 0 01-6.9-4 1.4 1.4 0 01-.1-.9l-.6-5.4-1.2-11.5-.4-4-.1-1.3-.4-4-.1-1.3-.4-4a6.75 6.75 0 00-6.3-6.1 6.58 6.58 0 00-7 6.13v1.17l.5 4.2.1 1.2.1.2.4 3.9.1.2.1 1.4.4 3.9 1.3 11.7.5 5.2a5.78 5.78 0 01-4.1 6.2 5.65 5.65 0 01-6.9-4 1.4 1.4 0 01-.1-.9l-.6-5.4-1.2-11.5-.4-4-.2-1.4-.4-4-.1-1.3-.4-4a6.84 6.84 0 00-6.3-6.1 6.6 6.6 0 00-6.9 6.3 3.37 3.37 0 00.1 1l.5 4.2.1 1.2.5 4.2 1.9 16.9.6 5.4 3.9 35.8.6 5.4a35.49 35.49 0 0039 31.3l16.2-1.8a35.49 35.49 0 0031.3-39l-.6-5.4-3.9-35.8-.6-5.4-1.8-17-.5-4.2-.1-1.2-.5-4.2a6.58 6.58 0 00-7.27-5.81h-.13z"
          fill="#ff7d37"
        />
        <path
          transform="rotate(-6.33 682.648 145.135)"
          fill="#ff7d37"
          d="M666.81 136.15h31.7v18h-31.7z"
        />
        <path
          d="M652.5 102.4a5.63 5.63 0 0111.2-1.2 2.36 2.36 0 104.7-.5v-.1a7.67 7.67 0 00-.3-1.5 10.39 10.39 0 00-11.2-7.6 7.67 7.67 0 00-1.5.3 10.39 10.39 0 00-7.6 11.2 2.37 2.37 0 002.6 2.1 2.33 2.33 0 002.12-2.52 1.1 1.1 0 00-.02-.18zm32.6-3.6a5.64 5.64 0 0111.2-1.4.35.35 0 00.1.2 2.36 2.36 0 004.7-.5 7.67 7.67 0 00-.3-1.5 10.39 10.39 0 00-11.2-7.6 7.67 7.67 0 00-1.5.3 10.39 10.39 0 00-7.6 11.2 2.47 2.47 0 002.8 2 2.82 2.82 0 001.8-2.7zm-29.4 18.4a21.26 21.26 0 0038.9-4.4z"
          fill="#681800"
        />
        <path
          d="M674 121.6l17.1-1.9a21.25 21.25 0 01-22.1 7.6 5.63 5.63 0 015-5.7z"
          fill="#fc4c01"
        />
        <path
          d="M652 121.6a2.38 2.38 0 00-1.6 2.9 2.48 2.48 0 003 1.6 8 8 0 005.5-5.6 3.75 3.75 0 00.2-1.1 7.52 7.52 0 00-.9-4.6 8.46 8.46 0 00-3.2-3.3 2.35 2.35 0 10-2.3 4.1 3.09 3.09 0 011.7 3.1.87.87 0 00-.1.5 3.49 3.49 0 01-2.3 2.4zm47.5-4a3.16 3.16 0 01-2.3-2.3.87.87 0 01-.1-.5 3.09 3.09 0 011.7-3.1 2.35 2.35 0 00-2.3-4.1 8.46 8.46 0 00-3.2 3.3 7.37 7.37 0 00-.9 4.6 3.75 3.75 0 00.2 1.1 8 8 0 005.5 5.6 2.4 2.4 0 001.4-4.6zm-17.3 27.1a61.34 61.34 0 0012.8-1.6 30.2 30.2 0 003.2-1.1c.2-.1.2-.3.2-.5s-.3-.2-.5-.2a18.68 18.68 0 01-3.1 1 59.56 59.56 0 01-8.5 1.3c-1.2.1-2.3.2-3.1.2H682c-.2.1-.4.2-.3.3.3.4.4.6.5.6z"
          fill="#681800"
        />
      </g>
      <path
        transform="rotate(-6.33 691.44 204.304)"
        fill="#fff8da"
        d="M650.1 153.47h82.6v101.7h-82.6z"
      />
      <path
        fill="#507591"
        d="M708.5 151.1l13.4 108.1 8.4-1.1-13.3-108m-64.1 7l13.4 108.1 8.5-1.1L661.4 156"
      />
      <path
        d="M737.9 250l-82 9.5 2.1 16c1.5 11.9 11.2 20.8 21.5 19.9l45.1-4c14.2-1.4 17.4-11.3 15.9-23.1z"
        fill="#193441"
      />
      <path
        d="M802 76.6L780.3 79a3.41 3.41 0 01-3.79-3l-.5-4.4a7.86 7.86 0 016.9-8.7h.1L808.9 60a3.41 3.41 0 013.79 3l.1.2a12.09 12.09 0 01-10.64 13.38z"
        fill="#ff7d37"
      />
      <path
        d="M785.3 58.3l-21.5 2.4a9 9 0 017.88-10h.12l3.5-.4a9 9 0 0110 7.87z"
        fill="#f7d999"
      />
      <path
        d="M783.6 58.5l-.1-.3-17.7 2v-.4a6.34 6.34 0 014.6-6.8 1.4 1.4 0 01.9-.1l4.8-.5a6.34 6.34 0 016.8 4.6 1.4 1.4 0 01.1.9v.1l.1.7.5-.2.3-.1-.1-.8a7.18 7.18 0 00-7.7-6.2l-4.8.5a7.18 7.18 0 00-6.2 7.7l.1.8.1.3 18.7-2.1-.1-.3z"
        fill="#e8b75a"
      />
      <path
        d="M780.9 52a2.92 2.92 0 11-3.21-2.6 3.15 3.15 0 013.21 2.6z"
        fill="#8e1b00"
      />
      <path
        d="M781.3 58.8l-13.4 1.5-.1-1a4.64 4.64 0 014-5l4.5-.5a4.64 4.64 0 015 4z"
        fill="#f7d999"
      />
      <path
        d="M781.3 58.8l-.1-.3L768 60l-.1-.7a4.14 4.14 0 013.1-4.5l.6-.2 4.5-.5a4.06 4.06 0 014.5 3.57v.13l.1 1 .3-.1.3.1v-1c-.1-.2-.1-.5-.2-.7a5 5 0 00-5.3-3.6l-4.5.5-.7.2a5 5 0 00-3.6 5.2l.2 1.4 14.3-1.5-.1-.3z"
        fill="#e8b75a"
      />
      <path
        d="M816.5 54.1l-37.3 4.1-.1-.6a11.94 11.94 0 0110.54-13.19h.06L803 42.9a12 12 0 0113.29 10.55z"
        fill="#f7d999"
      />
      <path
        d="M813.8 54.4l-.1-.3-32.3 3.6.1.3.3-.1a10.39 10.39 0 017.6-11.2 7.67 7.67 0 011.5-.3l11-1.2A10.33 10.33 0 01813 53a7.67 7.67 0 01.3 1.5l.3-.1.3-.1a8.68 8.68 0 00-.3-1.6 11 11 0 00-11.8-8.2l-11 1.2a8.68 8.68 0 00-1.6.3 11 11 0 00-8.2 11.8l.1.3 33-3.6-.1-.3z"
        fill="#e8b75a"
      />
      <path
        d="M809.1 46a2.92 2.92 0 01-5.8.6 2.82 2.82 0 012.49-3.1 3 3 0 013.31 2.5z"
        fill="#8e1b00"
      />
      <path
        d="M811.3 54.7l-27.3 3v-.5a7.71 7.71 0 016.73-8.58h.17l11.7-1.3a7.71 7.71 0 018.58 6.68v.17z"
        fill="#f7d999"
      />
      <path
        d="M811.3 54.7l-.1-.3-26.9 3v-.1a7.63 7.63 0 015.5-8.1 4.63 4.63 0 011.1-.2l11.7-1.3a7.63 7.63 0 018.1 5.5 4.63 4.63 0 01.2 1.1v.5l.4-.1.3-.1v-.5a4.86 4.86 0 00-.2-1.2 8.17 8.17 0 00-8.8-6.1L791 48.2a4.86 4.86 0 00-1.2.2 8.17 8.17 0 00-6.1 8.8v.5l.1.3 27.9-3.1-.1-.3z"
        fill="#e8b75a"
      />
      <path
        d="M807.7 55.1l-.1-.3-19.8 2.2-.1-.7a4.45 4.45 0 013.4-4.9l.7-.2 10.4-1.2a4.45 4.45 0 014.9 3.4 5.6 5.6 0 01.2.7l.1 1h.3l-.1-.4.1.4.3-.2-.1-1c-.1-.3 0-.5-.1-.8a5.26 5.26 0 00-5.7-3.9l-10.4 1.3a2 2 0 01-.8.1 5.26 5.26 0 00-3.9 5.7l.2 1.4 20.8-2.3-.1-.3z"
        fill="#e8b75a"
      />
      <path
        d="M798.8 44.3a2.82 2.82 0 11-3.11-2.5 2.86 2.86 0 013.11 2.5z"
        fill="#8e1b00"
      />
      <path
        d="M825.3 55.8l-71.2 7.9a6.23 6.23 0 01-6.8-5.4l83.4-9.2a6.21 6.21 0 01-5.4 6.7z"
        fill="#fff8da"
      />
      <path
        d="M851.7 55.3L735.6 68.2a4.29 4.29 0 01-4.79-3.7v-.1L855.4 50.5a4.15 4.15 0 01-3.4 4.76z"
        fill="#0a293c"
      />
      <path
        d="M778.2 383.9l-6.4 1.7 3.1 11.8 17.4-4.5a1.46 1.46 0 001.23-1.66v-.14c-1.33-5.9-8.23-9-15.33-7.2z"
        fill="#193441"
      />
      <path
        d="M771.9 385.6l-10.1-3.7-3.6 10.5a1.91 1.91 0 001.1 2.3l10.1 3.6a3.41 3.41 0 002 .1l4.4-1.1c.2-.2 2-9.6-3.9-11.7zm-91.2-227.3l-.5-4.2a3 3 0 012.56-3.38h.14l1.1-.1a3 3 0 013.38 2.56v.14l.5 4.2a3 3 0 01-2.56 3.38h-.14l-1.1.1a3 3 0 01-3.38-2.56z"
        fill="#193441"
      />
      <path
        d="M681.6 154.1l-10-4.3a2.87 2.87 0 00-3.78 1.44v.05a2.66 2.66 0 00-.2 1.5l1.3 10.8a3 3 0 003.3 2.6 2.49 2.49 0 001.4-.6l8.7-6.5a3 3 0 00.6-4.1 4.42 4.42 0 00-1.32-.89zm4.1-.5l8.8-6.4a2.9 2.9 0 014.06.55v.05a3.63 3.63 0 01.6 1.4l1.3 10.8a3.07 3.07 0 01-2.6 3.3 4 4 0 01-1.5-.2l-10-4.3a2.9 2.9 0 01-1.61-3.77 2.49 2.49 0 01.95-1.43z"
        fill="#193441"
      />
    </g>
  </g>
  <path
    d="M1045.5 299.9h-30.4a4.76 4.76 0 000 9.5h30.4a4.76 4.76 0 000-9.5m-643.8 67.4h-30.3a4.76 4.76 0 000 9.5h30.3a4.85 4.85 0 005-4.5 4.78 4.78 0 00-4.5-5h-.5m17-19.8h-30.4a4.76 4.76 0 000 9.5h30.4a4.76 4.76 0 000-9.5"
    fill="#ffd57b"
  />
  <path
    d="M681.2.1c64.5.3 111.3.5 119.8.5a33.33 33.33 0 015.9.5 40.42 40.42 0 0115.8 6.5 113.84 113.84 0 00-29.2 19.8c-1.1 1.1-16.5 15.6-25 34.2a125 125 0 00-6.8 19.7c-.5 2.1-.8 3.8-1 5-2.2 44.5-2.9 78.4-3.1 100.7-.2 24.5 0 51.5.1 60.5.1 13.1.3 24.2.4 32.6q-73.65-.15-147.3-.2v-35.4a312.55 312.55 0 006-38c4.7-50.4-4.2-93.3-13.9-124 1.1-15.2 5.4-40.2 22.5-63.8a112.07 112.07 0 0113.1-15.1C652.8 2.5 667 1.3 681.2.1z"
    fill="#ffdb94"
  />
  <path
    d="M321.3 386.3h-30.4a4.76 4.76 0 000 9.5h30.4a4.76 4.76 0 000-9.5M257 320.4h-30.3a4.85 4.85 0 00-5 4.5 4.78 4.78 0 004.5 5H257a4.85 4.85 0 005-4.5 4.77 4.77 0 00-4.5-5h-.5m21.4 20.2H248a4.76 4.76 0 000 9.5h30.4a4.76 4.76 0 000-9.5m70.5 26.7h-30.4a4.76 4.76 0 000 9.5h30.4a4.76 4.76 0 000-9.5m-41.2-46.9h-30.4a4.76 4.76 0 000 9.5h30.4a4.76 4.76 0 000-9.5"
    fill="#ffd57b"
  />
  <path
    d="M587.4 297.2l23.5-17.1q73.65.15 147.3.2 0 32.79-.05 65.56 0 33-.13 66.09l-173.42-.45z"
    fill="#ffeec4"
  />
  <path
    d="M713 307.6h-30.3a4.76 4.76 0 000 9.5H713a4.76 4.76 0 000-9.5m21.3 20.3H704a4.76 4.76 0 00-.5 9.5h30.8a4.76 4.76 0 00.86-9.48h-.86m-14 18.38H690a4.76 4.76 0 00-.5 9.5h30.8a4.76 4.76 0 00.86-9.48h-.86"
    fill="#ffd57b"
  />
  <path
    d="M1037 237h-30.3a4.85 4.85 0 00-5 4.5 4.78 4.78 0 004.5 5h30.8a4.85 4.85 0 005-4.5 4.77 4.77 0 00-4.5-5h-.5m-287 19.8h-30.3a4.76 4.76 0 00-.5 9.5H750a4.76 4.76 0 001-9.47h-1M220.7 210.3h-30.4a4.76 4.76 0 000 9.5h30.4a4.76 4.76 0 000-9.5m-14 14h-30.4a4.76 4.76 0 000 9.5h30.4a4.76 4.76 0 000-9.5m68-66h-30.4a4.76 4.76 0 000 9.5h30.4a4.76 4.76 0 000-9.5m433.9 78h-30.3a4.76 4.76 0 000 9.5h30.3a4.76 4.76 0 001-9.47h-1"
    fill="#ffc873"
  />
  <path
    d="M763.1 413.1V110a140.15 140.15 0 0114.2-50.8c4.4-8.8 10.3-20.2 22.4-30 5-4 13.5-8.8 15.3-9.8 6.7-3.8 9.6-5 11.3-5.6 3.4-1.2 6.4-1.8 12.4-3A93.93 93.93 0 01849.5 9c2.6-.2 4.2-.2 11.5-.3 3.7 0 6.7-.1 8.5-.1"
    fill="none"
    stroke="#ffeec4"
    stroke-linecap="round"
    stroke-miterlimit="10"
    stroke-width="8"
  />
  <path
    d="M637.5 264H285.9c-14.4 0-26.1-10.4-26.1-23.3V22h403.8v218.7c0 12.9-11.7 23.3-26.1 23.3"
    fill="#ffeec4"
  />
  <path fill="#ffc990" d="M337.3 55.1h-45.8L259 22h45.8l32.5 33.1z" />
  <path fill="#ff9300" d="M383.1 55.1h-45.8L304.8 22h45.8l32.5 33.1z" />
  <path fill="#ffc990" d="M428.6 55.1h-45.8L350.3 22h45.8l32.5 33.1z" />
  <path fill="#ff9300" d="M474.4 55.1h-45.8L396.1 22h45.8l32.5 33.1z" />
  <path fill="#ffc990" d="M520.4 55.1h-45.8L442.1 22h45.8l32.5 33.1z" />
  <path fill="#ff9300" d="M566.2 55.1h-45.8L487.9 22h45.8l32.5 33.1z" />
  <path fill="#ffc990" d="M611.7 55.1h-45.8L533.4 22h45.8l32.5 33.1z" />
  <path fill="#ff9300" d="M657.5 55.1h-45.8L579.2 22H625l32.5 33.1z" />
  <path
    d="M759.1 413.1V110a118.68 118.68 0 0115.5-57.1c5.4-9.3 14.9-25.4 34.6-37.1a92.26 92.26 0 0151.9-12.5"
    fill="none"
    stroke="#ffd400"
    stroke-miterlimit="10"
    stroke-width="3"
  />
  <path
    d="M324.4 74.6h-19.9a12.93 12.93 0 01-12.9-12.9v-6.6h45.8v6.6a13.08 13.08 0 01-13 12.9z"
    fill="#ffc990"
  />
  <path
    d="M370.2 74.6h-19.9a12.93 12.93 0 01-12.9-12.9v-6.6h45.8v6.6a13.08 13.08 0 01-13 12.9z"
    fill="#ff9300"
  />
  <path
    d="M415.7 74.6h-19.9a12.93 12.93 0 01-12.9-12.9v-6.6h45.8v6.6a13.08 13.08 0 01-13 12.9z"
    fill="#ffc990"
  />
  <path
    d="M461.4 74.6h-19.9a12.93 12.93 0 01-12.9-12.9v-6.6h45.8v6.6a12.89 12.89 0 01-12.88 12.9h-.12z"
    fill="#ff9300"
  />
  <path
    d="M507.5 74.6h-19.9a12.93 12.93 0 01-12.9-12.9v-6.6h45.8v6.6a13.08 13.08 0 01-13 12.9z"
    fill="#ffc990"
  />
  <path
    d="M553.3 74.6h-19.9a12.93 12.93 0 01-12.9-12.9v-6.6h45.8v6.6a13 13 0 01-13 12.9z"
    fill="#ff9300"
  />
  <path
    d="M598.8 74.6h-19.9A12.93 12.93 0 01566 61.7v-6.6h45.8v6.6a13.08 13.08 0 01-13 12.9zm104.5-19.5h-45.8L625 22h45.8l32.5 33.1z"
    fill="#ffc990"
  />
  <path
    d="M690.4 74.6h-19.9a12.93 12.93 0 01-12.9-12.9v-6.6h45.8v6.6a13.08 13.08 0 01-13 12.9z"
    fill="#ffc990"
  />
  <path
    d="M644.6 74.6h-19.9a12.93 12.93 0 01-12.9-12.9v-6.6h45.8v6.6a13.08 13.08 0 01-13 12.9z"
    fill="#ff9300"
  />
  <path fill="#fff8dd" d="M294.5 55.4h287.4v-.6H294.5m375.3 0h-65.5v.6h65.5" />
  <path
    d="M516 99.4a4.35 4.35 0 00-3.3 1.4l-61.8 61.6a4.74 4.74 0 006.7 6.7l61.8-61.6a4.65 4.65 0 00.13-6.57l-.13-.13a4.75 4.75 0 00-3.4-1.4m56.6-14.2a4.35 4.35 0 00-3.3 1.4L435.1 220.4a4.74 4.74 0 006.7 6.7L576 93.3a4.74 4.74 0 000-6.7 5.12 5.12 0 00-3.4-1.4m-5.8 52.2a4.75 4.75 0 00-3.4 1.4l-46.8 46.7a4.65 4.65 0 00-.13 6.57l.13.13a4.74 4.74 0 006.7 0l46.8-46.7a4.65 4.65 0 00.13-6.57l-.13-.13a4.51 4.51 0 00-3.3-1.4"
    fill="#fff6e3"
  />
  <path
    d="M314.42 166.7h47.9a9.36 9.36 0 019.3 9.3v50.2a9.36 9.36 0 01-9.3 9.3h-47.9a9.36 9.36 0 01-9.3-9.3V176a9.36 9.36 0 019.3-9.3z"
    fill="#fffcf1"
  />
  <path
    d="M312.27 221.14a.89.89 0 01-.88-.89V211a.88.88 0 01.79-1 .89.89 0 011 .79v9.49a.9.9 0 01-.91.86zm9.45-3.65v2.76a.87.87 0 01-1.73.19.6.6 0 010-.19v-2.76a1.78 1.78 0 00-1.68-1.87c-1.14 0-1.72 1.14-1.72 2.15v2.48a.89.89 0 01-1 .78.87.87 0 01-.78-.78v-5.58a.87.87 0 011.69-.27 3.18 3.18 0 011.78-.53 3.52 3.52 0 013.44 3.62zm13.41-6.49a.89.89 0 01-.87.89h-2.51v8.42a.9.9 0 01-.8 1 .89.89 0 01-1-.79.61.61 0 010-.19v-8.42h-2.5a.88.88 0 110-1.76h6.77a.88.88 0 01.89.85zm4.47 10.12a3.66 3.66 0 113.67-3.65 3.66 3.66 0 01-3.67 3.65zm0-5.53a1.87 1.87 0 101.86 1.88h0a1.87 1.87 0 00-1.85-1.87zm14.5 2.88v.08a2.86 2.86 0 01-2.89 2.67 3 3 0 01-2-.78 3 3 0 01-2 .78 2.82 2.82 0 01-2.89-2.75v-3.67a.88.88 0 011.75 0v3.67a1.15 1.15 0 002.28 0v-3.67a.88.88 0 011.75 0v3.67a1.15 1.15 0 002.28 0v-3.69a.87.87 0 01.78-1 .89.89 0 011 .78v.19zm8.12-.98v2.76a.87.87 0 01-1.73.19.6.6 0 010-.19v-2.76a1.78 1.78 0 00-1.68-1.87c-1.14 0-1.72 1.14-1.72 2.15v2.48a.89.89 0 01-1 .78.87.87 0 01-.78-.78v-5.58a.87.87 0 011.69-.27 3.18 3.18 0 011.78-.53 3.52 3.52 0 013.44 3.62zm2.19.83a.87.87 0 01-.87-.87V211a.88.88 0 011.76 0v6.48a.89.89 0 01-.89.84zm.11 2.83h-.11a.88.88 0 110-1.76h.07a.88.88 0 010 1.76h0z"
    fill="#ffce7c"
    stroke="#ffce7c"
    stroke-miterlimit="10"
    stroke-width=".25"
  />
  <path
    d="M349 160.4a12.55 12.55 0 00-12.5-12.6h-.1a12.5 12.5 0 00-11.8 16.9A23.87 23.87 0 00336 178l.5.3.5-.3a25 25 0 0011.5-13.3 15.2 15.2 0 00.5-4.3z"
    fill="#fc4c01"
  />
  <path
    d="M341.6 160.4a5.7 5.7 0 01-11 0 .68.68 0 00-.8-.4.67.67 0 00-.4.7 6.84 6.84 0 008.38 4.83h.12a7 7 0 004.8-4.8.58.58 0 00-.45-.69.79.79 0 00-.65.36zm-7-3.6a3.07 3.07 0 00-1-1.5 2.71 2.71 0 00-3.4 0 3.07 3.07 0 00-1 1.5.58.58 0 00.45.69.58.58 0 00.7-.4 1.56 1.56 0 01.6-.8 1.52 1.52 0 012 0 1.56 1.56 0 01.6.8.63.63 0 00.8.4c.1 0 .3-.4.2-.7zm8.1 0a3.07 3.07 0 00-1-1.5 2.85 2.85 0 00-3.5 0 3.07 3.07 0 00-1 1.5.58.58 0 00.45.69.67.67 0 00.7-.4 1.59 1.59 0 011.5-1.2 1.68 1.68 0 011 .3 1.56 1.56 0 01.6.8c.1.3.4.6.7.5a.73.73 0 00.5-.7z"
    fill="#ffd400"
  />
  <path
    d="M338.1 164.7a5.9 5.9 0 003.1-2.9l-.1.1c-.1.1-.2.1-.2 0l-.1-.1c-.3-2.6-3-2.1-3.5.3-.4 1.1-.7 2.6-2 2.6h-.3a3.22 3.22 0 003.1 0z"
    fill="#ffd400"
  />
  <path fill="#ffd500" d="M0 416h1246v-4.6H0" />
  <path
    d="M1072.1 396.2a14.49 14.49 0 00-3.6.3 15.47 15.47 0 00-21.1-5.5 13.48 13.48 0 00-1.5 1 15.7 15.7 0 00-14.7-10.8 15.51 15.51 0 00-15.5 15.5v2.4a15.4 15.4 0 00-18.7 11.1 3.78 3.78 0 00-.2 1h90.2a15.72 15.72 0 00-14.9-15zm-812.6 12.6a17 17 0 00-6.18-23.23l-.12-.07a17.25 17.25 0 00-19.3 1.5 17 17 0 00-26.5-17.5l-1.8-6a17.08 17.08 0 00-21.2-11.5 17.08 17.08 0 00-11.5 21.2l3.8 12.8-8.7-5a17.09 17.09 0 10-17.1 29.6l1.6.9H258z"
    fill="#cacc53"
  />
  <path
    d="M405.9 327.1h80.9a6.81 6.81 0 001-13.58H406a6.81 6.81 0 00-.1 13.6"
    fill="#ffae3c"
  />
  <path
    d="M409 323.8V404c0 4.1 3 7.4 6.8 7.4s6.8-3.3 6.8-7.4v-80.2c0-4.1-3-7.4-6.8-7.4s-6.8 3.3-6.8 7.4m222.3 3.3h80.9a6.81 6.81 0 001-13.58h-81.8a6.81 6.81 0 00-.6 13.6h.5"
    fill="#ffae3c"
  />
  <path
    d="M634.4 323.8V404c0 4.1 3 7.4 6.8 7.4s6.8-3.3 6.8-7.4v-80.2c0-4.1-3-7.4-6.8-7.4s-6.8 3.3-6.8 7.4m64 0V404c0 4.1 3 7.4 6.8 7.4s6.8-3.3 6.8-7.4v-80.2c0-4.1-3-7.4-6.8-7.4s-6.8 3.3-6.8 7.4m-227.8 0V404c0 4.1 3 7.4 6.8 7.4s6.8-3.3 6.8-7.4v-80.2c0-4.1-3-7.4-6.8-7.4s-6.8 3.3-6.8 7.4"
    fill="#ffae3c"
  />
  <path fill="#ff8a00" d="M435.3 217.6h29.8v18.9h-29.8z" />
  <path
    d="M464.3 313.7h-32.1a14.4 14.4 0 01-14.4-14.4v-65.6h60.9v65.6a14.4 14.4 0 01-14.4 14.4z"
    fill="#ff8a00"
  />
  <path
    d="M478.8 313.7H430a12.25 12.25 0 01-12.2-12.2V275h61z"
    fill="#193441"
  />
  <g
    style="animation:hd 1s linear 1s forwards;transform-origin:2% 82%;transform-box:fill-box"
  >
    <path
      d="M472.2 248.6a27.88 27.88 0 005 .4 47 47 0 0012.8-1.9 40.39 40.39 0 0011.9-6 48.28 48.28 0 008.6-8.3 56.37 56.37 0 009.7-19.8 108.33 108.33 0 003.7-29.6v-1.6l-15.6.2v1.4c0 12.6-1.7 21.9-4.2 28.8a35.89 35.89 0 01-6.5 11.8 26.41 26.41 0 01-5.5 5 27.27 27.27 0 01-8.3 3.7 29.65 29.65 0 01-6.7.8 13.34 13.34 0 01-2-.1h-.4l-.6 3.9.7-3.9h-.1l-.6 3.9.7-3.9-2.6 15.2z"
      fill="#ff8a00"
    />
    <path
      d="M471.6 252.3a36.25 36.25 0 005.7.4 47.45 47.45 0 0014-2.1 43.81 43.81 0 0017.4-10.2l-15.8-16.8a19.05 19.05 0 01-4.3 3.1 24.18 24.18 0 01-6.3 2.4 20.51 20.51 0 01-5 .5 9.65 9.65 0 01-1.7-.1h-.3l-.8 5.9 1-5.8h-.2l-.8 5.9 1-5.8z"
      fill="#ffd400"
    />
    <path
      d="M526.8 189.3h-18.6v-9.8a9.82 9.82 0 019.8-9.8h8.8a9.8 9.8 0 110 19.6z"
      fill="#ff8a00"
    />
    <path
      d="M514.5 178.1a8.69 8.69 0 001.7-.7 17.81 17.81 0 005.3-4.1 12.79 12.79 0 002.3-3.9 13.72 13.72 0 001-5.3 28.06 28.06 0 00-.2-2.9 3.38 3.38 0 10-6.7.9v.1a10.9 10.9 0 01.2 1.8 7.72 7.72 0 01-2.2 5.4 7.94 7.94 0 01-2.4 1.7c-.3.1-.5.3-.8.4l-.2.1a3.37 3.37 0 101.4 6.6h.2a1.12 1.12 0 00.4-.1z"
      fill="#ff8a00"
    />
  </g>
  <path fill="#ffd400" d="M417.8 229.6h61v61h-61z" />
  <g id="food">
    <path
      d="M399.4 239.6a54.15 54.15 0 00-11.6 7.9 61.68 61.68 0 00-10.6 12.2 28 28 0 00-3.2 6.2 18.4 18.4 0 00-1.2 6.6 16.65 16.65 0 00.8 5 14.4 14.4 0 002 3.9 18.53 18.53 0 005.1 5 25.15 25.15 0 004.6 2.4 40 40 0 007.7 2 59 59 0 008.4.6 75.92 75.92 0 0015.1-1.6 91.17 91.17 0 0023.8-8.4 75.5 75.5 0 0021.3-16.4l-11.7-10.3a54.72 54.72 0 01-10.6 9.2 71 71 0 01-19.3 9 65.19 65.19 0 01-18.6 2.9 38.72 38.72 0 01-6.8-.6 16.18 16.18 0 01-3.6-1 5.27 5.27 0 01-1.6-.9 2.62 2.62 0 01-.6-.5c-.2-.2-.2-.3-.2-.3v-.2a3.09 3.09 0 01.3-1.3 15.09 15.09 0 011.5-2.8 45.74 45.74 0 017.9-9.1 37.42 37.42 0 018.5-5.7l-7.4-13.8z"
      fill="#ff8a00"
    />
    <path fill="#cab195" d="M467.5 255.6h28.2v2.6h-28.2z" />
    <path
      d="M457.9 255.4l-2-.6 2 .6-2-.6 2 .6-.6-.1.6.1-.6-.1.6.1a.35.35 0 00.1-.2 1.21 1.21 0 01.5-.5.37.37 0 01.3-.1c.1 0 .3-.1.4-.1h.2v-.1l-.1.1v-.2l-.1.1.1.1c.1.2.1.3.2.5v.3l2.2-.3-2.2.2 2.2-.3-2.2.2a3.41 3.41 0 006.8-.6 4.63 4.63 0 00-.2-1.1 8.8 8.8 0 00-.5-1.5 6.68 6.68 0 00-.8-1.4 7.17 7.17 0 00-5.7-2.9 8.5 8.5 0 00-3.8.9 6.74 6.74 0 00-1.9 1.5 8.49 8.49 0 00-1.5 2.2 5.74 5.74 0 00-.5 1.2 3.34 3.34 0 002.16 4.19 3.48 3.48 0 004.3-2.2z"
      fill="#ff6900"
    />
    <path
      d="M467.1 267.2h-14.6a3.37 3.37 0 01-3.4-3.34v-7.16a4.69 4.69 0 014.68-4.7H467a6.91 6.91 0 016.9 6.9v1.4a6.65 6.65 0 01-6.39 6.9z"
      fill="#ff8a00"
    />
    <path
      d="M496.8 260.2h-2.9a2.43 2.43 0 01-2.4-2.4V256a2.43 2.43 0 012.4-2.4h2.9z"
      fill="#cab195"
    />
    <path
      d="M495.3 258.7h8.1a.65.65 0 01.6.6v.3a.65.65 0 01-.6.6h-8.1a.65.65 0 01-.6-.6v-.3a.65.65 0 01.6-.6zm0-2.5h8.1a.65.65 0 01.6.6v.3a.65.65 0 01-.6.6h-8.1a.65.65 0 01-.6-.6v-.3a.65.65 0 01.6-.6zm0-2.6h8.1a.65.65 0 01.6.6v.3a.65.65 0 01-.6.6h-8.1a.65.65 0 01-.6-.6v-.3a.65.65 0 01.6-.6z"
      fill="#cab195"
    />
    <path
      d="M497.4 266.7a.67.67 0 01-.7-.64V255.8a.7.7 0 011.4 0V266a.67.67 0 01-.64.7h-.06z"
      fill="#f7d999"
    />
    <path
      d="M498.4 266.5a.67.67 0 01-.7-.64V253.3a.67.67 0 01.64-.7.67.67 0 01.7.6v12.5a.7.7 0 01-.61.79zm1.5-.8a.65.65 0 01-.6-.6v-11.3a.54.54 0 01.56-.52h.14a.54.54 0 01.5.5v11.3a.58.58 0 01-.56.6zm2.2 0a.65.65 0 01-.6-.6v-11.3a.54.54 0 01.56-.52h.14a.54.54 0 01.5.5v11.3a.64.64 0 01-.6.62z"
      fill="#f7d999"
    />
    <path
      d="M501.1 261a.67.67 0 01-.7-.64v-7.2a.77.77 0 01.6-.7.67.67 0 01.7.64v7.2a.67.67 0 01-.6.7z"
      fill="#f7d999"
    />
  </g>
  <path
    d="M424.4 230.1a36.2 36.2 0 00-5.6-.4 47.45 47.45 0 00-14 2.1 44.36 44.36 0 00-17.4 10.2l15.8 16.8a19.05 19.05 0 014.3-3.1 24.18 24.18 0 016.3-2.4 21.54 21.54 0 015-.5 9.65 9.65 0 011.7.1h.3l.8-5.9-1 5.8h.1l.8-5.9-1 5.8z"
    fill="#ffd400"
  />
  <g
    style="animation:h2 1.5s ease-in-out 1s forwards;transform-origin:bottom;transform-box:fill-box"
  >
    <path
      d="M466.7 117.5v5.9a4 4 0 01-3.3 3.9 3.78 3.78 0 01-4.1-3.3v-10.3a1.61 1.61 0 00-1.3-1.6c-1.4-.3-2.7-.5-4.1-.7a1.59 1.59 0 00-1.79 1.36v10.6a3.88 3.88 0 01-3.3 3.9 3.78 3.78 0 01-4.1-3.3V113.1a1.58 1.58 0 00-1.56-1.6h-.24c-1.4.2-2.8.4-4.1.7a1.73 1.73 0 00-1.3 1.6v9.7a3.88 3.88 0 01-3.3 3.9 3.78 3.78 0 01-4.1-3.3v-6.5a1.58 1.58 0 00-1.56-1.6 1.32 1.32 0 00-.7.2 45.87 45.87 0 00-25 40.8v33.3a34.84 34.84 0 0034.8 34.8h22a34.84 34.84 0 0034.8-34.8V157a45.87 45.87 0 00-25-40.8 1.64 1.64 0 00-2.2.7c-.4.1-.4.4-.5.6z"
      fill="#ff8a00"
    />
    <path
      d="M429.7 170.1a5.6 5.6 0 1111.2 0 2.35 2.35 0 004.7 0 10.36 10.36 0 00-20.68-1.28v1.28a2.43 2.43 0 002.4 2.4 2.49 2.49 0 002.38-2.4zm40.6 15a21.28 21.28 0 01-27.8 11.3 21 21 0 01-11.3-11.4z"
      fill="#612f00"
    />
    <path
      d="M428.7 194.7a8 8 0 004.2-10.5 7.85 7.85 0 00-4.2-4.2 2.38 2.38 0 00-3 1.4 2.34 2.34 0 001.2 2.9 2.79 2.79 0 011.4 1.2 2.35 2.35 0 01.5 1.8 3.69 3.69 0 01-.5 1.8 4.15 4.15 0 01-1.4 1.2 2.39 2.39 0 00-1.3 3.1 2.35 2.35 0 003 1.32h.05zm46-4.4a3.2 3.2 0 01-1.9-3 3.69 3.69 0 01.5-1.8 3.33 3.33 0 011.4-1.2 2.38 2.38 0 00-1.8-4.4 8 8 0 00-4.2 10.5 7.85 7.85 0 004.2 4.2 2.39 2.39 0 003.1-1.3 2.51 2.51 0 00-1.3-3z"
      fill="#ffa625"
    />
    <path
      d="M462.5 170.1a5.6 5.6 0 1111.2 0 2.4 2.4 0 104.8 0 10.36 10.36 0 00-20.7 0 2.35 2.35 0 004.7 0z"
      fill="#612f00"
    />
    <path
      d="M452.7 191.6h-17.2a21.28 21.28 0 0022.8 5.2 5.66 5.66 0 00-5.6-5.2z"
      fill="#fc4c01"
    />
  </g>
  <path fill="#fc4c01" d="M417.8 253.4h4.7v-.7h-4.7" />
  <path
    d="M493.4 276.8h-21.7a9.13 9.13 0 019.1-9.1h3.6a9.13 9.13 0 019 9.1z"
    fill="#f7d999"
  />
  <path
    d="M491.6 276.8v-.3h-17.8v-.4a6.27 6.27 0 016.24-6.3h5a6.27 6.27 0 016.3 6.24v.86h.7v-.8a7 7 0 00-7-7h-4.8a7 7 0 00-7 7v1.1H492v-.3h-.4z"
    fill="#e8b75a"
  />
  <path
    d="M489.7 270.2a2.9 2.9 0 11-2.9-2.9 2.9 2.9 0 012.9 2.9z"
    fill="#8e1b00"
  />
  <path
    d="M489.3 276.8h-13.5v-1a4.49 4.49 0 014.46-4.5h4.64a4.49 4.49 0 014.5 4.46v1z"
    fill="#f7d999"
  />
  <path
    d="M489.3 276.8v-.3h-13.2v-.7a4.14 4.14 0 014.18-4.1h4.62a4.21 4.21 0 014.2 4.1v1h.7v-1a4.8 4.8 0 00-4.8-4.8h-4.6a4.89 4.89 0 00-4.9 4.8v1.4h14.2v-.3z"
    fill="#e8b75a"
  />
  <path
    d="M524.8 276.1h-37.5v-.6a12 12 0 0112-12h13.5a12 12 0 0112 12z"
    fill="#f7d999"
  />
  <path
    d="M522.2 276.1v-.3h-32.5v.3h.3a10.37 10.37 0 0110.3-10.4h11.2a10.32 10.32 0 0110.3 10.3v.08h.7a11 11 0 00-11-11h-11.2a11 11 0 00-11 11v.3h33.2v-.3z"
    fill="#e8b75a"
  />
  <path
    d="M518.4 267.3a2.9 2.9 0 11-2.9-2.9 2.9 2.9 0 012.9 2.9z"
    fill="#8e1b00"
  />
  <path
    d="M519.7 276.1h-27.5v-.5a8 8 0 017.8-7.9h11.8a7.84 7.84 0 017.8 7.86z"
    fill="#f7d999"
  />
  <path
    d="M519.7 276.1v-.3h-27.1v-.1a7.55 7.55 0 017.5-7.5h11.8a7.55 7.55 0 017.5 7.5v.5h.7v-.5a8.24 8.24 0 00-8.2-8.2h-11.8a8.24 8.24 0 00-8.2 8.2v.8H520v-.3h-.3z"
    fill="#e8b75a"
  />
  <path
    d="M516.1 276.1v-.3h-19.9v-.7a4.65 4.65 0 014.6-4.6h10.5a4.49 4.49 0 014.5 4.48v1.12h.7v-1a5.16 5.16 0 00-5.12-5.2H500.8a5.16 5.16 0 00-5.2 5.12v1.48h20.9v-.3z"
    fill="#e8b75a"
  />
  <path d="M508.4 264.4a2.9 2.9 0 11-2.9-2.9 3 3 0 012.9 2.9z" fill="#8e1b00" />
  <path
    d="M533.3 278.8h-71.7a6.06 6.06 0 01-6.1-6v-.08h83.8a6 6 0 01-5.9 6.1z"
    fill="#fff"
  />
  <path
    d="M595.4 276.8h-21.7a9.13 9.13 0 019-9.1h3.6a9.2 9.2 0 019.1 9.1z"
    fill="#f7d999"
  />
  <path
    d="M593.6 276.8v-.3h-17.8v-.4a6.27 6.27 0 016.24-6.3h5a6.27 6.27 0 016.3 6.24v.86h.7v-.8a7 7 0 00-7-7h-4.8a7 7 0 00-7 7v1.1H594v-.3h-.4z"
    fill="#e8b75a"
  />
  <path
    d="M591.7 270.2a2.9 2.9 0 11-2.9-2.9 2.9 2.9 0 012.9 2.9z"
    fill="#8e1b00"
  />
  <path
    d="M591.4 276.8h-13.5v-1a4.49 4.49 0 014.46-4.5H587a4.49 4.49 0 014.5 4.46z"
    fill="#f7d999"
  />
  <path
    d="M591.4 276.8v-.3h-13.2v-.7a4.14 4.14 0 014.18-4.1H587a4.21 4.21 0 014.2 4.1v1h.7v-1a4.8 4.8 0 00-4.8-4.8h-4.6a4.8 4.8 0 00-4.8 4.8v1.4h14.2v-.3z"
    fill="#e8b75a"
  />
  <path
    d="M626.8 276.1h-37.5v-.6a12 12 0 0112-12h13.5a12 12 0 0112 12z"
    fill="#f7d999"
  />
  <path
    d="M624.3 276.1v-.3h-32.5v.3h.3a10.23 10.23 0 0110.16-10.3h11.44a10.32 10.32 0 0110.3 10.32v.08h.7a11 11 0 00-11-11h-11.2a11 11 0 00-11 11v.3h33.2v-.3z"
    fill="#e8b75a"
  />
  <path
    d="M620.4 267.3a2.9 2.9 0 11-2.9-2.9 2.9 2.9 0 012.9 2.9z"
    fill="#8e1b00"
  />
  <path
    d="M621.7 276.1h-27.4v-.5a8 8 0 017.8-7.9h11.8a7.84 7.84 0 017.8 7.86v.54z"
    fill="#f7d999"
  />
  <path
    d="M621.7 276.1v-.3h-27.1v-.1a7.55 7.55 0 017.5-7.5h11.8a7.55 7.55 0 017.5 7.5v.5h.7v-.5a8.24 8.24 0 00-8.2-8.2h-11.8a8.24 8.24 0 00-8.2 8.2v.8H622v-.3h-.3z"
    fill="#e8b75a"
  />
  <path
    d="M618.1 276.1v-.3h-19.9v-.7a4.59 4.59 0 014.58-4.6h10.52a4.49 4.49 0 014.5 4.48v1.12h.7v-1a5.16 5.16 0 00-5.12-5.2H602.9a5.16 5.16 0 00-5.2 5.12v1.48h20.9v-.3z"
    fill="#e8b75a"
  />
  <path d="M610.4 264.4a2.9 2.9 0 11-2.9-2.9 3 3 0 012.9 2.9z" fill="#8e1b00" />
  <path
    d="M635.4 278.8h-71.7a6.06 6.06 0 01-6.1-6v-.08h83.9a6.25 6.25 0 01-6.1 6.08z"
    fill="#fff"
  />
  <path fill="#ffae3c" d="M538.4 280.7h25.2v127.6h-25.2z" />
  <path fill="#ff8d00" d="M538.4 285.4h25.2v11.8h-25.2z" />
  <path fill="#ffca4f" d="M645.5 209.9h31v26.7h-31z" />
  <path
    d="M664.2 216.2h-9a32.78 32.78 0 01-32.5-28.5l-4.3-32c-3.9-28.9 14.8-56.1 41.3-56.1s45.2 27.2 41.3 56.1l-4.3 32a32.78 32.78 0 01-32.5 28.5z"
    fill="#ffca4f"
  />
  <path
    d="M633.7 182.4a20.25 20.25 0 0026.5 10.8 20.52 20.52 0 008.9-7.3 23.2 23.2 0 001.9-3.5 2.35 2.35 0 00-1.2-3.1 2.39 2.39 0 00-3.1 1.3 15.51 15.51 0 01-20.3 8.3 15.67 15.67 0 01-8.3-8.3 2.38 2.38 0 10-4.5 1.55l.09.22z"
    fill="#543000"
  />
  <path
    d="M630.4 313.7h48.8a12.25 12.25 0 0012.2-12.2v-10.9h-61z"
    fill="#33918e"
  />
  <path
    d="M613.7 216.3h19.5a2.8 2.8 0 012.8 2.8v37.8a2.8 2.8 0 01-2.8 2.8h-19.5a2.8 2.8 0 01-2.8-2.8V219a2.7 2.7 0 012.7-2.7h.1z"
    fill="#4c6169"
  />
  <path fill="#fc4c01" d="M630.4 290.7h61l-13-59.8h-35.1l-12.9 59.8z" />
  <path fill="#ffca4f" d="M648 312.1v89.7h15.6v-89.7m-44.8 0v89.7h15.6v-89.7" />
  <path
    d="M648 365.9h16.3v-61.7a8.15 8.15 0 00-16.3-.5v62.2zm-29.9 0h16.3v-61.7a8.15 8.15 0 00-16.3-.5v62.2z"
    fill="#33918e"
  />
  <path
    d="M632.4 411.4h29.8a1.37 1.37 0 001.4-1.34V399.2h-21.7a10.82 10.82 0 00-10.8 10.8 1.24 1.24 0 001.07 1.39h.23z"
    fill="#193441"
  />
  <path
    d="M603.3 411.4h29.8a1.37 1.37 0 001.4-1.34V399.2h-21.7A10.82 10.82 0 00602 410a1.24 1.24 0 001.07 1.39h.23z"
    fill="#193441"
  />
  <path
    fill="#4eb0ac"
    d="M646.9 359.7h19.2v9.7h-19.2zm-30.2 0h19.2v9.7h-19.2z"
  />
  <path
    d="M674.4 246.3a69.63 69.63 0 013.4 20.8 46.34 46.34 0 01-.9 9.1 29.39 29.39 0 01-1.6 5 12.79 12.79 0 01-1.4 2.5 5.73 5.73 0 01-1.8 1.7l-.6.3a4 4 0 00-.5.1 3.09 3.09 0 01-1.3-.3 11.48 11.48 0 01-1.9-1 22.55 22.55 0 01-4.9-4.4 65.56 65.56 0 01-9.1-14.7 178.33 178.33 0 01-9.5-25.2l-14.9 4.5a205.3 205.3 0 009 24.5 109.85 109.85 0 007.2 13.5 61.28 61.28 0 005.7 7.7 36.61 36.61 0 009.2 7.9 23.74 23.74 0 005.1 2.2 20.16 20.16 0 005.4.8 17.81 17.81 0 009.8-3 20.84 20.84 0 005.8-5.7 35 35 0 005.1-11.5 61.45 61.45 0 001.7-14.1 87.63 87.63 0 00-4.1-25.4z"
    fill="#ffca4f"
  />
  <path
    d="M670.4 249.2l1.6-7.4-1.9 7.4h.3l1.6-7.4-1.9 7.4.7-2.8-.8 2.8h.1l.7-2.8-.8 2.8.2-.6-.2.6.2-.6-.2.6a3.64 3.64 0 01.9.4 8.64 8.64 0 011.2.8 7.57 7.57 0 01.8.9 6 6 0 011.1 2.1 15.66 15.66 0 01.6 4.3 23.93 23.93 0 01-.7 5.9l22.6 4.7a62.91 62.91 0 001.2-10.6 43.19 43.19 0 00-.8-8.1 31.36 31.36 0 00-4.9-11.4 32.19 32.19 0 00-5.3-5.7 32.54 32.54 0 00-7.4-4.5 19.56 19.56 0 00-4.1-1.3z"
    fill="#fc4c01"
  />
  <path fill="#fc4c01" d="M677 253.6h-4.8v.7h4.8" />
  <path
    d="M637.8 162.4a1.5 1.5 0 011.3-1.4 1.32 1.32 0 011.3 1.3 2.35 2.35 0 104.7 0 6.06 6.06 0 00-12.1-.5v.5a2.43 2.43 0 002.4 2.4 2.22 2.22 0 002.39-2 1 1 0 000-.25zm27 0a1.29 1.29 0 01.4-1 1.39 1.39 0 011.9 0 1.29 1.29 0 01.4 1 2.35 2.35 0 004.7 0 6.06 6.06 0 00-12.1 0 2.35 2.35 0 004.7 0z"
    fill="#543000"
  />
  <path
    d="M643.6 219h32.2a3.92 3.92 0 013.9 3.9v4.9a3.92 3.92 0 01-3.9 3.9h-32.2a3.92 3.92 0 01-3.9-3.9v-4.9a3.92 3.92 0 013.9-3.9z"
    fill="#fc4c01"
  />
  <path
    d="M690.4 115l-45.8-14.4 1.5-4.9a23.29 23.29 0 0129-15.2l1.7.5a23.29 23.29 0 0115.2 29z"
    fill="#00b9e6"
  />
  <path
    d="M666.1 99.4l-.7 2.4a9.93 9.93 0 01-12.4 6.5l-22.1-6.9a6.18 6.18 0 01-4-7.7v-.1a6.18 6.18 0 017.7-4z"
    fill="#00b9e6"
  />
  <path
    d="M620 246.3l17.6 9.1 6.7-12.9a3.13 3.13 0 00-1.3-4.2l-14.8-7.6a8.88 8.88 0 00-11.8 4.2 8.78 8.78 0 003.6 11.4z"
    fill="#ffca4f"
  />
  <path fill="#ff8a00" d="M476.1 308.8l30.5 84.4 14.7-5.3-30.5-84.4" />
  <circle cx="679.6" cy="173.1" r="3" fill="#ffe57f" />
  <path
    d="M507.6 348l-15.3 5.5-18.9-52.1a8.13 8.13 0 0115.3-5.5z"
    fill="#193441"
  />
  <path
    d="M399.8 292.2h302.3a6.8 6.8 0 000-13.6H399.8a6.8 6.8 0 100 13.6"
    fill="#ffae3c"
  />
  <path
    d="M536.9 385.1l-28 10.1a1.26 1.26 0 01-1.65-.67.5.5 0 01-.05-.13l-3.7-10.2 20.4-7.4a11 11 0 0113.9 6.5 1.56 1.56 0 01-.9 1.8z"
    fill="#193441"
  />
  <path
    transform="rotate(-19.89 507.853 373.336)"
    fill="#193441"
    d="M499.84 358.9h16.29v28.99h-16.29z"
  />
  <path
    d="M576.9 411.4H525a6.27 6.27 0 016.24-6.3h39.36a6.27 6.27 0 016.3 6.24v.06z"
    fill="#ffae3c"
  />
  <path
    d="M545 255a10.46 10.46 0 01-10.4-10.4v-19h20.8v19A10.39 10.39 0 01545 255z"
    fill="#fffae8"
  />
  <path
    d="M545.4 251.8h-.8a7.32 7.32 0 01-7.3-7.2v-1.3h15.3v1.3a7 7 0 01-6.79 7.2z"
    fill="#f89e57"
  />
  <path fill="#fff" d="M544.3 255v23.5h1.4V255" />
  <path fill="#fff" d="M541.2 278.6h7.7v-1.3h-7.7" />
  <g
    style="animation-name:sdiamondOpacity;animation-duration:6s;animation-iteration-count:1;animation-direction:alternate"
  >
    <g id="b">
      <path
        d="M582.1 210.3h14.5a10.5 10.5 0 0110.5 10.5v8.7a10.5 10.5 0 01-10.5 10.5h-14.5a10.5 10.5 0 01-10.5-10.5v-8.7a10.55 10.55 0 0110.5-10.5z"
        fill="#fff"
      />
      <path
        d="M581 220.7a4.66 4.66 0 011.3-1.8l.3-.3a5.44 5.44 0 011.3-.7 5 5 0 013.8.1 5.64 5.64 0 011.6 1.1 4.54 4.54 0 011.6-1.1 5 5 0 013.8-.1 5.27 5.27 0 011.6.9 4.66 4.66 0 011.3 1.8 5.2 5.2 0 01.4 2.1 5.53 5.53 0 01-.3 1.8 5.27 5.27 0 01-.9 1.6l-6 5.7a2.88 2.88 0 01-.7.5 2.21 2.21 0 01-1.6 0 1.84 1.84 0 01-.7-.5l-6-5.7a5 5 0 01-.9-1.6 5.53 5.53 0 01-.3-1.8 4.45 4.45 0 01.4-2z"
        fill="#fc4c01"
      />
    </g>
    <g id="a">
      <path
        id="as"
        d="M587.4 236.1v6.4a6.82 6.82 0 006.8 6.8h3.9a1.7 1.7 0 10.2-3.4h-4.2a3.37 3.37 0 01-3.4-3.34v-6.46a1.83 1.83 0 00-1.8-1.6 1.94 1.94 0 00-1.5 1.6z"
        fill="#fff"
      />
    </g>
  </g>
  <path fill="#ff8a00" d="M462.6 310.4v89.8h15.6v-89.8" />
  <path
    d="M478.2 358h-16.3v-55.4a8.11 8.11 0 0116.2 0V358zm15.6 44.9H464a1.37 1.37 0 01-1.4-1.34V390.7h21.7a10.82 10.82 0 0110.8 10.8 1.35 1.35 0 01-1.3 1.4z"
    fill="#193441"
  />
  <path fill="#193441" d="M462.6 367.7h16.3v29h-16.3z" />
  <path fill="#eb5000" d="M435.3 225.3h11.6v-.7h-11.6" />
  <path
    d="M676.4 213.5c-.5.3-5.3 2.4-13.6 2.4h-9.2v.7h9.2c8.9 0 13.9-2.5 13.9-2.5l-.3-.6z"
    fill="#ff8200"
  />
  <path
    fill="none"
    stroke="#eb5000"
    stroke-miterlimit="10"
    stroke-width=".5"
    d="M523.7 169.6h-3.3"
  />
  <path fill="#507591" d="M610.9 230.8h25v1.7h-25z" />
  <circle cx="614.6" cy="228.5" r="1.4" fill="#193441" />
  <path
    d="M332.6 187.61a3.32 3.32 0 01-3.2 3.34h-3.31v-.09a.86.86 0 01-.81-.86v-9.2a.85.85 0 01.84-.86h0v-.06h2.33a3.11 3.11 0 013.19 3 .22.22 0 010 .08 3.26 3.26 0 01-.66 1.93 3.22 3.22 0 011.62 2.72zm-4.13-6H327v2.84h1.66a1.49 1.49 0 001.28-1.46 1.39 1.39 0 00-1.39-1.39h-.08zm2.41 6a1.58 1.58 0 00-1.59-1.45H327v3.07h2.4a1.62 1.62 0 001.48-1.62zm8.81.14h-4.49a1.91 1.91 0 001.85 1.48 2.38 2.38 0 001.53-.56.88.88 0 011.24 0 .87.87 0 010 1.22h0a4.12 4.12 0 01-2.76 1 3.66 3.66 0 010-7.32 3.46 3.46 0 013 1.74 2.89 2.89 0 01.47 1.43 1.45 1.45 0 01-.12.42.77.77 0 01-.72.59zm-4.24-1.47h3.09a1.63 1.63 0 00-1.49-.87 1.87 1.87 0 00-1.6.87zm8.49 4.72a3.65 3.65 0 01-2.35-.83.874.874 0 111.18-1.29 1.78 1.78 0 001.79.22.52.52 0 00.24-.41.49.49 0 00-.32-.4 1.52 1.52 0 00-.63-.08 3.2 3.2 0 01-1.15-.16 2.16 2.16 0 01-.78-3.6 3.13 3.13 0 012.57-.64 2.62 2.62 0 011.39.64.88.88 0 01.05 1.23h0a.9.9 0 01-.74.27.82.82 0 01-.38-.13 1.33 1.33 0 00-.61-.29c-.44-.07-1.26 0-1.2.58a.61.61 0 00.26.31 3 3 0 00.6 0 3.47 3.47 0 011.35.24 2.22 2.22 0 011.32 2 2.29 2.29 0 01-1 1.87 2.92 2.92 0 01-1.59.47zm7.51-1a.88.88 0 01-.86.88h-.39a2 2 0 01-1.78-2v-3.67h-.6a.88.88 0 11-.19-1.75.6.6 0 01.19 0h.63v-2.76a.87.87 0 01.78-1 .89.89 0 011 .78v3h.48a.88.88 0 010 1.75h-.48v3.47a.52.52 0 00.1.38c.1.09.2.06.3.06a.88.88 0 01.82.86zm-23.22 8.25a3.32 3.32 0 01-3.33 3.2h-2.31v3.66a.86.86 0 11-1.72 0v-9.26a.87.87 0 01.82-.86v-.09H325a3.33 3.33 0 013.23 3.35zm-1.74 0a1.63 1.63 0 00-1.47-1.62h-2.43v3.08h2.31a1.58 1.58 0 001.59-1.46zm9.77 1.29v5.59a.83.83 0 01-.83.83h0a.76.76 0 01-.77-.77V205a3.37 3.37 0 01-2.24.86 3.53 3.53 0 01-.38-7.05h.38a3.48 3.48 0 012.24.85v-.07a.78.78 0 01.71-.83h.06a.83.83 0 01.83.78zm-2 2.75a1.83 1.83 0 10-1.85 1.81h0a1.85 1.85 0 001.81-1.81zm5.99 3.71a3.65 3.65 0 01-2.35-.83.874.874 0 111.18-1.29 1.79 1.79 0 001.8.22.49.49 0 00.23-.41.47.47 0 00-.32-.4 1.5 1.5 0 00-.63-.08 3.2 3.2 0 01-1.15-.16 2.16 2.16 0 01-.77-3.6 3.07 3.07 0 012.56-.64 2.59 2.59 0 011.39.64.87.87 0 01.06 1.22.88.88 0 01-.75.28.82.82 0 01-.38-.13 1.24 1.24 0 00-.61-.29c-.44-.07-1.25 0-1.2.58a.63.63 0 00.27.31 3 3 0 00.6 0 3.42 3.42 0 011.34.24 2.22 2.22 0 011.32 2 2.24 2.24 0 01-1 1.87 2.9 2.9 0 01-1.59.47zm7.51-.92a.88.88 0 01-.86.88h-.39a2 2 0 01-1.78-2v-3.66h-.63a.88.88 0 01-.78-1 .87.87 0 01.78-.78h.63v-2.79a.88.88 0 011.75-.19.61.61 0 010 .19v2.79h.52a.88.88 0 01.78 1 .87.87 0 01-.78.78h-.47v3.47a.52.52 0 00.1.38c.1.09.2.06.31.06a.87.87 0 01.82.87zm8.11-5.54v5.59a.83.83 0 01-.83.83h0a.78.78 0 01-.78-.78V205a3.3 3.3 0 01-2.23.86 3.53 3.53 0 01-.38-7.05h.35a3.46 3.46 0 012.23.85v-.07a.78.78 0 01.73-.83h0a.83.83 0 01.91.78zm-2 2.75a1.84 1.84 0 10-1.87 1.81h0a1.85 1.85 0 001.81-1.81z"
    fill="#ffce7c"
    stroke="#ffce7c"
    stroke-miterlimit="10"
    stroke-width=".25"
  />
</svg>
