
<svg id="Layer_1" data-name="Layer 1" xmlns="http://www.w3.org/2000/svg" width="600" height="1104.8" viewBox="0 0 600 1104.8">
  <defs>
    <style>
      .cls-1 {
        fill: #fc6;
      }

      .cls-2 {
        fill: #4e908e;
      }

      .cls-25, .cls-3 {
        fill: #fe4c00;
      }

      .cls-4 {
        fill: #277da1;
      }

      .cls-5 {
        fill: #fce68d;
      }

      .cls-17, .cls-18, .cls-20, .cls-21, .cls-24, .cls-28, .cls-37, .cls-38, .cls-43, .cls-44, .cls-45, .cls-46, .cls-47, .cls-48, .cls-49, .cls-6, .cls-65, .cls-66, .cls-74, .cls-8, .cls-9 {
        fill: none;
      }

      .cls-6 {
        stroke: #4f3102;
      }

      .cls-43, .cls-46, .cls-47, .cls-49, .cls-6, .cls-74, .cls-9 {
        stroke-linecap: round;
      }

      .cls-17, .cls-18, .cls-20, .cls-21, .cls-24, .cls-28, .cls-37, .cls-43, .cls-44, .cls-45, .cls-46, .cls-47, .cls-48, .cls-49, .cls-6, .cls-65, .cls-66, .cls-74, .cls-8, .cls-9 {
        stroke-miterlimit: 10;
      }

      .cls-46, .cls-47, .cls-6 {
        stroke-width: 4px;
      }

      .cls-7 {
        fill: #4f3102;
      }

      .cls-8 {
        stroke: #edab35;
      }

      .cls-45, .cls-48, .cls-66, .cls-8 {
        stroke-width: 0.5px;
      }

      .cls-18, .cls-28, .cls-43, .cls-44, .cls-9 {
        stroke: #ffd505;
      }

      .cls-9 {
        stroke-width: 7px;
      }

      .cls-10 {
        fill: #f7c54f;
      }

      .cls-11 {
        fill: #ffe7b6;
      }

      .cls-12 {
        fill: #f4c167;
      }

      .cls-13 {
        fill: #ff9100;
      }

      .cls-14 {
        fill: #f9d793;
      }

      .cls-15 {
        fill: #1f3440;
      }

      .cls-16, .cls-54 {
        fill: #fff;
      }

      .cls-17, .cls-21, .cls-24, .cls-49 {
        stroke: #ff9100;
      }

      .cls-17 {
        stroke-width: 12px;
      }

      .cls-18 {
        stroke-width: 20px;
      }

      .cls-19, .cls-27 {
        fill: #ffd505;
      }

      .cls-20 {
        stroke: #1f3440;
        stroke-width: 19px;
      }

      .cls-21 {
        stroke-width: 14px;
      }

      .cls-22 {
        fill: #b57e37;
      }

      .cls-23 {
        fill: #0c1d24;
      }

      .cls-25, .cls-27, .cls-29, .cls-39, .cls-40, .cls-54, .cls-81, .cls-82 {
        isolation: isolate;
      }

      .cls-25 {
        font-size: 39.14px;
      }

      .cls-25, .cls-27, .cls-29, .cls-40, .cls-82 {
        font-family: SomaticRounded, Somatic;
      }

      .cls-26, .cls-29, .cls-82 {
        fill: #fc4c01;
      }

      .cls-27 {
        font-size: 20.92px;
      }

      .cls-28, .cls-74 {
        stroke-width: 2px;
      }

      .cls-29 {
        font-size: 8.04px;
      }

      .cls-30 {
        fill: #7c691a;
      }

      .cls-31 {
        fill: #e8e2d9;
      }

      .cls-32 {
        fill: #e7af5f;
      }

      .cls-33 {
        fill: #5b3103;
      }

      .cls-34 {
        fill: #39b54a;
      }

      .cls-35 {
        fill: #009245;
      }

      .cls-36 {
        fill: #fdedc8;
      }

      .cls-37 {
        stroke: #ce9142;
        stroke-width: 0.25px;
      }

      .cls-40 {
        font-size: 15px;
      }

      .cls-40, .cls-51 {
        fill: #101d23;
      }

      .cls-41 {
        letter-spacing: 0em;
      }

      .cls-42 {
        fill: #e2b705;
      }

      .cls-44 {
        stroke-width: 22px;
      }

      .cls-45 {
        stroke: #f1732b;
      }

      .cls-46 {
        stroke: #fcaa47;
      }

      .cls-47 {
        stroke: #5b3103;
      }

      .cls-48 {
        stroke: #ff6700;
      }

      .cls-49 {
        stroke-width: 5px;
      }

      .cls-50 {
        fill: #936303;
      }

      .cls-52 {
        fill: #d08e00;
      }

      .cls-53 {
        fill: #c1ecf7;
      }

      .cls-54 {
        opacity: 0.46;
      }

      .cls-55 {
        opacity: 0.63;
      }

      .cls-56 {
        fill: #cacc53;
      }

      .cls-57 {
        fill: #57758f;
      }

      .cls-58 {
        fill: #ff8a00;
      }

      .cls-59 {
        fill: #612f00;
      }

      .cls-60 {
        fill: #ffa625;
      }

      .cls-61 {
        fill: #ffd400;
      }

      .cls-62 {
        fill: #193441;
      }

      .cls-63 {
        fill: #ff6900;
      }

      .cls-64 {
        fill: #eb5000;
      }

      .cls-65 {
        stroke: #ff8a00;
        stroke-width: 13px;
      }

      .cls-66 {
        stroke: #eb5000;
      }

      .cls-67 {
        fill: #ffca4f;
      }

      .cls-68 {
        fill: #33918e;
      }

      .cls-69 {
        fill: #4eb0ac;
      }

      .cls-70 {
        fill: #ffecc5;
      }

      .cls-71 {
        fill: #ffe57f;
      }

      .cls-72 {
        fill: #ff8200;
      }

      .cls-73 {
        fill: #543000;
      }

      .cls-74 {
        stroke: #543000;
      }

      .cls-75 {
        fill: #ffae3c;
      }

      .cls-76 {
        fill: #ffd38d;
      }

      .cls-77 {
        fill: #ffda8f;
      }

      .cls-78 {
        fill: #ffe6a6;
      }

      .cls-79 {
        fill: #fff6e1;
      }

      .cls-80 {
        fill: #fccd7a;
      }

      .cls-81 {
        fill: #ffe499;
        opacity: 0.47;
      }

      .cls-82 {
        font-size: 7.04px;
      }

      .cls-83 {
        fill: #f9b843;
      }

      .cls-84 {
        fill: #fbe5af;
      }

      .cls-85 {
        fill: #ffe0a9;
      }

      .cls-86 {
        fill: #fadc95;
      }

      .cls-87 {
        fill: #fff1d3;
      }
    </style>
  </defs>
  <g>
    <rect class="cls-1" x="-9.9" y="506.13" width="23.6" height="23.9" transform="translate(-492.39 362.87) rotate(-72.36)"/>
    <path class="cls-1" d="M6.9,512l7.9.7a28.91,28.91,0,0,0,30.9-22.4l6.4-27.8c5.7-25.1-8.4-50.5-31.7-52.7h0c-23.3-2.2-41.9,20.2-40.9,45.9l1.1,28.5A29.06,29.06,0,0,0,6.9,512Z"/>
    <path class="cls-2" d="M-6.8,601.1l-24.5-7.8A18,18,0,0,1-43,570.7l.7-2.3L9,584.8l-3.1,9.8A10.14,10.14,0,0,1-6.8,601.1Z"/>
    <polygon class="cls-3" points="8.9 584.8 -42.3 568.5 -14.7 520.9 14 531.1 8.9 584.8"/>
    <path class="cls-3" d="M-11.4,523.8l23,7.3a5.57,5.57,0,0,0,7-3.6h0a5.57,5.57,0,0,0-3.6-7l-23-7.3a5.57,5.57,0,0,0-7,3.6h0A5.5,5.5,0,0,0-11.4,523.8Z"/>
    <path class="cls-4" d="M-7.9,420.9,33.5,412l-.8-3.6A21.21,21.21,0,0,0,7.6,392.1h0A21.31,21.31,0,0,0-8.7,417.3Z"/>
    <path class="cls-4" d="M14.7,409.2l.4,2A8.82,8.82,0,0,0,25.6,418l19.9-4.3a5.5,5.5,0,0,0,4.2-6.5h0a5.5,5.5,0,0,0-6.5-4.2Z"/>
    <circle class="cls-5" cx="0.7" cy="472.2" r="2.7" transform="translate(-0.58 0) rotate(-0.07)"/>
    <line class="cls-6" x1="37.2" y1="460.8" x2="36.5" y2="463.5"/>
    <line class="cls-6" x1="13.9" y1="457.2" x2="13.2" y2="460.1"/>
    <path class="cls-7" d="M21,488.6h0a4.34,4.34,0,0,1-3.4-5.1l.8-3.9a4.34,4.34,0,0,1,5.1-3.4h0a4.34,4.34,0,0,1,3.4,5.1l-.8,3.9A4.39,4.39,0,0,1,21,488.6Z"/>
    <path class="cls-8" d="M15.9,512.7s-4.1.3-10.6-1.9"/>
  </g>
  <line class="cls-9" x1="553.9" y1="235.1" x2="340.3" y2="235.1"/>
  <path class="cls-10" d="M525.5,206.4H398.2A15.19,15.19,0,0,1,383,191.2V109.6a15.19,15.19,0,0,1,15.2-15.2H525.5a15.19,15.19,0,0,1,15.2,15.2v81.6A15.19,15.19,0,0,1,525.5,206.4Z"/>
  <g>
    <polygon class="cls-11" points="489.1 228.1 439 228.1 424 137.3 467.6 137.3 489.1 228.1"/>
    <path class="cls-11" d="M425.2,232.5h60a3.9,3.9,0,0,0,3.9-3.9V228H421.3v.6A3.84,3.84,0,0,0,425.2,232.5Z"/>
  </g>
  <polygon class="cls-12" points="424 137.3 436.3 211.6 485.2 211.6 467.6 137.3 424 137.3"/>
  <path class="cls-13" d="M387.4,232.5H371.2v-13H392a3.33,3.33,0,0,1,3.3,3.3v1.8A7.85,7.85,0,0,1,387.4,232.5Z"/>
  <path class="cls-14" d="M520.8,206.4H393.5a15.19,15.19,0,0,1-15.2-15.2V109.6a15.19,15.19,0,0,1,15.2-15.2H520.8A15.19,15.19,0,0,1,536,109.6v81.6A15.19,15.19,0,0,1,520.8,206.4Z"/>
  <path class="cls-15" d="M536,192.4H378.2V109.6a15.19,15.19,0,0,1,15.2-15.2H520.7a15.19,15.19,0,0,1,15.2,15.2v82.8Z"/>
  <path class="cls-16" d="M521.4,185.4H392.5a8.17,8.17,0,0,1-8.2-8.2V108.6a8.17,8.17,0,0,1,8.2-8.2H521.4a8.17,8.17,0,0,1,8.2,8.2v68.6A8.24,8.24,0,0,1,521.4,185.4Z"/>
  <path class="cls-17" d="M299.2,220.6s-14,65.7,77.1,5.7"/>
  <rect class="cls-1" x="387.5" y="229.8" width="42.5" height="2.9"/>
  <g>
    <rect class="cls-13" x="390.8" y="306.7" width="12" height="12.7"/>
    <rect class="cls-13" x="341" y="306.7" width="12" height="12.7"/>
    <path class="cls-18" d="M320.4,194.7s-21.8,4.5-19.7,33.4"/>
    <path class="cls-13" d="M337,90.6l.6,4.8a3.2,3.2,0,0,1-2.3,3.5,3,3,0,0,1-3.7-2.6l-1-8a1.49,1.49,0,0,0-1.2-1.2c-1.1-.1-2.3-.1-3.4-.1a1.32,1.32,0,0,0-1.3,1.5l1.1,8.4a3.2,3.2,0,0,1-2.3,3.5,3,3,0,0,1-3.7-2.6l-1.1-8.5a1.35,1.35,0,0,0-1.7-1.1c-1.1.3-2.2.6-3.3,1a1.42,1.42,0,0,0-.9,1.4l1,7.8a3.2,3.2,0,0,1-2.3,3.5,3,3,0,0,1-3.7-2.6l-.6-4.9a1.31,1.31,0,0,0-2.1-.9,36.91,36.91,0,0,0-15.9,35.4l3.4,26.9a28.18,28.18,0,0,0,31.6,24.4l17.7-2.3a28.18,28.18,0,0,0,24.4-31.6l-3.4-26.9a37.23,37.23,0,0,0-24.3-30.3A1.29,1.29,0,0,0,337,90.6Z"/>
    <rect class="cls-13" x="316.8" y="159.3" width="30.1" height="31.1"/>
    <path class="cls-19" d="M358.3,251H300.7V208.2a24.8,24.8,0,0,1,24.8-24.8h8a24.8,24.8,0,0,1,24.8,24.8V251Z"/>
    <path class="cls-15" d="M335.8,278.4H323.5a22.75,22.75,0,0,1-22.7-22.7v-5.1h57.7v5.1A22.68,22.68,0,0,1,335.8,278.4Z"/>
    <path class="cls-15" d="M453.3,232.6h-25V231a10.24,10.24,0,0,1,10.2-10.2h4.7A10.24,10.24,0,0,1,453.4,231v1.6Z"/>
    <path class="cls-20" d="M342,266.1h25.3a30.35,30.35,0,0,1,30.1,30.5v16.8"/>
    <path class="cls-20" d="M317.4,266.1a30.35,30.35,0,0,1,30.1,30.5v16.8"/>
    <path class="cls-21" d="M360.4,215.9s7,24.2,26.4,29.1,33.2-2.9,44.1-20.6"/>
    <path class="cls-18" d="M345.1,198.1s15,22.9,19.4,30.6"/>
    <path class="cls-13" d="M438.5,230.4H425.3a.79.79,0,0,1-.8-.8v-8.4a3.8,3.8,0,0,1,3.8-3.8h14.2a3.59,3.59,0,0,1,3.6,3.6v1.8A7.66,7.66,0,0,1,438.5,230.4Z"/>
    <rect class="cls-15" x="390" y="317.6" width="14.2" height="26.8"/>
    <path class="cls-15" d="M414.2,345.6H390V334.8h14.9a9.35,9.35,0,0,1,9.3,9.3v1.5Z"/>
    <rect class="cls-15" x="340.1" y="319.2" width="14.2" height="26.8"/>
    <path class="cls-15" d="M364.3,346H340.1V335.2H355a9.35,9.35,0,0,1,9.3,9.3Z"/>
  </g>
  <g>
    <path class="cls-22" d="M366.8,282.3H300.5v-1a6.06,6.06,0,0,1,6.1-6.1h54a6.06,6.06,0,0,1,6.1,6.1v1Z"/>
    <rect class="cls-23" x="300.6" y="282.2" width="66.2" height="3"/>
    <rect class="cls-23" x="329.6" y="283.7" width="7" height="60.3"/>
    <path class="cls-23" d="M352,346H314.1v-.7a4.44,4.44,0,0,1,4.4-4.4h29.1a4.44,4.44,0,0,1,4.4,4.4Z"/>
  </g>
  <polyline class="cls-24" points="346.3 221.8 354 235.1 356.8 233.7"/>
  <line class="cls-24" x1="300.7" y1="228.1" x2="300.7" y2="217.6"/>
  <text class="cls-25" transform="translate(86.05 110.57)">Discover</text>
  <g>
    <g>
      <path class="cls-26" d="M450.2,108.6a.77.77,0,0,0-.7-.8h-5.8a.8.8,0,0,0,0,1.6h2.1v7.2a.79.79,0,0,0,.8.8.71.71,0,0,0,.7-.8v-7.2h2.2A.77.77,0,0,0,450.2,108.6Z"/>
      <path class="cls-26" d="M454.2,110.8a.68.68,0,0,0-.7.7v.1a3,3,0,0,0-2-.8,3.1,3.1,0,0,0,0,6.2,3,3,0,0,0,2-.8v.2a.68.68,0,0,0,.7.7.77.77,0,0,0,.8-.7v-5A1,1,0,0,0,454.2,110.8Zm-2.7,4.8a1.6,1.6,0,1,1,1.6-1.6A1.58,1.58,0,0,1,451.5,115.6Z"/>
      <path class="cls-26" d="M459.1,113.5a2.74,2.74,0,0,0-1.2-.2h-.5c-.1,0-.2-.2-.2-.3-.1-.6.7-.6,1.1-.5a.55.55,0,0,1,.5.3.37.37,0,0,0,.3.1,1.85,1.85,0,0,0,.7-.2.71.71,0,0,0-.1-1.1,2.28,2.28,0,0,0-1.2-.6,2.9,2.9,0,0,0-2.3.6,2.17,2.17,0,0,0-.6,1.6,2,2,0,0,0,1.3,1.6,3.75,3.75,0,0,0,1,.1,1.27,1.27,0,0,1,.6.1c.1.1.3.2.3.4a.76.76,0,0,1-.2.4,1.71,1.71,0,0,1-1.6-.2.71.71,0,0,0-1.1.1.78.78,0,0,0,0,1.1,3.3,3.3,0,0,0,2.1.7,2.3,2.3,0,0,0,1.4-.4,2,2,0,0,0,.9-1.7A1.87,1.87,0,0,0,459.1,113.5Z"/>
      <path class="cls-26" d="M466.6,111.7a.79.79,0,0,0-.8.8v4a.8.8,0,1,0,1.6,0v-4A.86.86,0,0,0,466.6,111.7Z"/>
      <path class="cls-26" d="M471.9,110.9c-.2,0-.4-.1-.6-.1a3.22,3.22,0,0,0-3.2,3.2,3.16,3.16,0,0,0,3.2,3.2,3.45,3.45,0,0,0,2.4-.9.78.78,0,0,0-1.1-1.1,2.11,2.11,0,0,1-1.3.5,1.62,1.62,0,0,1-1.6-1.3h4a.63.63,0,0,0,.6-.5.6.6,0,0,0,.1-.4,3.26,3.26,0,0,0-.4-1.3A4.44,4.44,0,0,0,471.9,110.9Zm-2,2.3a1.6,1.6,0,0,1,1.4-.8,1.34,1.34,0,0,1,1.3.8Z"/>
      <path class="cls-26" d="M478.6,113.5a2.74,2.74,0,0,0-1.2-.2h-.5c-.1,0-.2-.2-.2-.3-.1-.6.7-.6,1.1-.5a.55.55,0,0,1,.5.3.37.37,0,0,0,.3.1,1.85,1.85,0,0,0,.7-.2.71.71,0,0,0-.1-1.1,2.28,2.28,0,0,0-1.2-.6,2.9,2.9,0,0,0-2.3.6,2.17,2.17,0,0,0-.6,1.6,2,2,0,0,0,1.3,1.6,3.75,3.75,0,0,0,1,.1,1.27,1.27,0,0,1,.6.1c.1.1.3.2.3.4a.76.76,0,0,1-.2.4,1.71,1.71,0,0,1-1.6-.2.71.71,0,0,0-1.1.1.78.78,0,0,0,0,1.1,3.3,3.3,0,0,0,2.1.7,2.3,2.3,0,0,0,1.4-.4,2,2,0,0,0,.9-1.7A2.18,2.18,0,0,0,478.6,113.5Z"/>
      <path class="cls-26" d="M468.2,108.8a.57.57,0,0,0-.7.4,1,1,0,0,1-.4.5,1,1,0,0,1-1.2,0,1,1,0,0,1-.4-.5.57.57,0,1,0-1.1.3,2.59,2.59,0,0,0,.7,1.1h0a2,2,0,0,0,1.3.4,2.5,2.5,0,0,0,1.3-.4,2.84,2.84,0,0,0,.8-1.1C468.6,109.2,468.5,108.8,468.2,108.8Z"/>
      <path class="cls-26" d="M463.4,113.7v-.8h.7a.8.8,0,0,0,0-1.6h-.7V111h0v-1.5a.79.79,0,0,0-.8-.8.74.74,0,0,0-.8.8v1.7H461a.8.8,0,0,0,0,1.6h.8v2.7a2.1,2.1,0,0,0,.4,1.1,2.38,2.38,0,0,0,1.1.6h.7a.8.8,0,1,0,0-1.6h-.6a.37.37,0,0,1-.1-.3v-1.6Z"/>
      <path class="cls-26" d="M482.9,113.7v-.8h.7a.8.8,0,0,0,0-1.6h-.7V111h0v-1.5a.8.8,0,1,0-1.6,0v1.7h-.8a.8.8,0,0,0,0,1.6h.8v2.7a2.1,2.1,0,0,0,.4,1.1,2.38,2.38,0,0,0,1.1.6h.7a.8.8,0,1,0,0-1.6h-.6a.37.37,0,0,1-.1-.3v-1.6Z"/>
    </g>
    <g>
      <path class="cls-26" d="M431.1,109.7a2.38,2.38,0,0,0-.9-1.3,2.69,2.69,0,0,0-1.5-.5,2.46,2.46,0,0,0-1.5.5,3,3,0,0,0-.9,1.3.57.57,0,1,0,1.1.3,1.28,1.28,0,0,1,.5-.7,1.22,1.22,0,0,1,.9-.3,1.61,1.61,0,0,1,.9.3,1.79,1.79,0,0,1,.5.7.57.57,0,0,0,.7.4c.1-.2.3-.5.2-.7Z"/>
      <path class="cls-26" d="M438,109.7a2.38,2.38,0,0,0-.9-1.3,2.69,2.69,0,0,0-1.5-.5,2.46,2.46,0,0,0-1.5.5,3,3,0,0,0-.9,1.3.57.57,0,1,0,1.1.3,1.28,1.28,0,0,1,.5-.7,1.22,1.22,0,0,1,.9-.3,1.61,1.61,0,0,1,.9.3,1.79,1.79,0,0,1,.5.7.57.57,0,0,0,.7.4c.3-.1.3-.5.2-.7Z"/>
      <path class="cls-26" d="M437.7,112.5a.57.57,0,0,0-.7.4h0a3.1,3.1,0,0,1-.6,1.3.1.1,0,0,1-.1-.1c-.3-2.3-2.6-1.9-3.1.3h0c-.3.9-.6,2.1-1.5,2.3a5.46,5.46,0,0,1-2.6-1,5,5,0,0,1-1.8-2.7.57.57,0,1,0-1.1.3,6,6,0,0,0,2.2,3.2,5.92,5.92,0,0,0,7.4,0,6.61,6.61,0,0,0,2.2-3.2A.53.53,0,0,0,437.7,112.5Z"/>
    </g>
  </g>
  <text class="cls-27" transform="translate(56.13 105.71)">1</text>
  <circle class="cls-28" cx="59.4" cy="97.3" r="12.1"/>
  <text class="cls-29" transform="translate(435.32 135.2)">Best Burger</text>
  <path class="cls-19" d="M522.1,185.6H392.2a7.85,7.85,0,0,1-7.9-7.9V144.4H530v33.3A7.92,7.92,0,0,1,522.1,185.6Z"/>
  <g>
    <rect class="cls-30" x="463.9" y="165.8" width="43.9" height="1.5"/>
    <rect class="cls-30" x="463.9" y="169.6" width="43.9" height="1.5"/>
    <rect class="cls-30" x="463.9" y="173.5" width="20" height="1.5"/>
  </g>
  <rect class="cls-31" x="441.5" y="138.2" width="30.4" height="1.5"/>
  <rect class="cls-31" x="446.9" y="140.9" width="19.6" height="1"/>
  <rect class="cls-16" x="399.2" y="150.6" width="55.2" height="34.8"/>
  <rect class="cls-31" x="399.2" y="178.5" width="55.2" height="7.1"/>
  <g>
    <g>
      <g>
        <path class="cls-32" d="M438.2,181.5a128.43,128.43,0,0,1-24.8,0,1.9,1.9,0,0,1-1.9-1.9v-1.3H440v1.3A1.82,1.82,0,0,1,438.2,181.5Z"/>
        <path class="cls-33" d="M439.7,178.6H411.9a1,1,0,0,1-1-1V177a1,1,0,0,1,1-1h27.8a1,1,0,0,1,1,1v.5A1,1,0,0,1,439.7,178.6Z"/>
        <path class="cls-33" d="M439.7,174.6H411.9a1,1,0,0,1-1-1V173a1,1,0,0,1,1-1h27.8a1,1,0,0,1,1,1v.5A1,1,0,0,1,439.7,174.6Z"/>
        <path class="cls-34" d="M411.8,175.1a1.73,1.73,0,0,0-2,.8c-.6,1.2.9,1.3,1.9.9s2.7-.2,3.8.2a4.66,4.66,0,0,0,4.5-.4c1.9-1.2,3.3.4,5.1.4s2.9-1,4.7-.6,3.8.9,5,.3a4.12,4.12,0,0,1,3.3-.5c.8.4,1.7.9,2.5.4s.6-1.4-.5-1.6Z"/>
        <polygon class="cls-19" points="412.2 175 425.8 176.6 439.4 175 439.4 174.6 412.2 174.6 412.2 175"/>
        <path class="cls-35" d="M423,172H412.8a.27.27,0,0,1-.3-.3v-.1a.27.27,0,0,1,.3-.3H423a.27.27,0,0,1,.3.3v.1Q423.15,172,423,172Z"/>
        <path class="cls-3" d="M425,172H414.8a.27.27,0,0,1-.3-.3v-.1a.27.27,0,0,1,.3-.3H425a.27.27,0,0,1,.3.3v.1A.27.27,0,0,1,425,172Z"/>
        <path class="cls-3" d="M437.3,172H427.1a.27.27,0,0,1-.3-.3v-.1a.27.27,0,0,1,.3-.3h10.2a.27.27,0,0,1,.3.3v.1A.27.27,0,0,1,437.3,172Z"/>
      </g>
      <path class="cls-32" d="M440,171.3H411.5v-1.4a8.6,8.6,0,0,1,8.6-8.6h11.3a8.6,8.6,0,0,1,8.6,8.6Z"/>
      <g>
        <path class="cls-36" d="M420.8,163.2c-.1.2-.2.2-.3.2s-.2-.2-.1-.4a.28.28,0,1,1,.4.2Z"/>
        <path class="cls-36" d="M422.5,163.5c.1.2,0,.3-.1.4s-.3,0-.3-.2v-.5A.78.78,0,0,1,422.5,163.5Z"/>
        <path class="cls-36" d="M429.9,163.4c.1.2,0,.3-.1.4s-.3,0-.3-.2v-.5A.78.78,0,0,1,429.9,163.4Z"/>
        <path class="cls-36" d="M425.5,163.2c.1.2,0,.3-.1.4s-.3,0-.3-.2v-.5A4,4,0,0,1,425.5,163.2Z"/>
        <path class="cls-36" d="M427.6,163.2c0,.2-.1.3-.2.3s-.2-.1-.3-.3a2,2,0,0,1,.1-.5S427.6,163,427.6,163.2Z"/>
        <path class="cls-36" d="M426.8,164.8a.25.25,0,0,1-.1.4c-.1.1-.3,0-.3-.2s0-.5,0-.5A4,4,0,0,1,426.8,164.8Z"/>
        <path class="cls-36" d="M431.5,162.7a.3.3,0,0,1,0,.4.25.25,0,0,1-.4-.1,1.69,1.69,0,0,1-.2-.5A2.07,2.07,0,0,1,431.5,162.7Z"/>
        <path class="cls-36" d="M421.2,164.6c-.1.2-.2.2-.3.2s-.2-.2-.1-.4a.78.78,0,0,1,.4-.3Z"/>
        <path class="cls-36" d="M418.5,163.3a.3.3,0,0,1-.4,0c-.1-.1,0-.3.1-.4s.5-.1.5-.1A4.71,4.71,0,0,1,418.5,163.3Z"/>
        <path class="cls-36" d="M424.3,164.6a.32.32,0,0,1-.3.3c-.1,0-.2-.2-.2-.3s.3-.4.3-.4A.7.7,0,0,1,424.3,164.6Z"/>
      </g>
    </g>
    <rect class="cls-36" x="424.4" y="155.4" width="0.2" height="7"/>
    <polygon class="cls-3" points="432.6 159.2 424.4 159.2 424.4 155.1 432.6 155.1 431.3 157 432.6 159.2"/>
    <line class="cls-37" x1="424" y1="162.4" x2="425.5" y2="162.4"/>
  </g>
  <rect class="cls-38" x="88" y="125.7" width="125.4" height="65.5"/>
  <g class="cls-39">
    <text class="cls-40" transform="translate(88 137.09)">Find the Tastiest </text>
    <text class="cls-40" transform="translate(88 155.09)">Restaurants in </text>
    <text class="cls-40" transform="translate(88 173.09)">London. </text>
  </g>
  <text class="cls-25" transform="translate(86.05 394.56)">Eat</text>
  <text class="cls-27" transform="translate(53.5 388.34)">2</text>
  <circle class="cls-28" cx="59.4" cy="380.5" r="12.1"/>
  <rect class="cls-38" x="88" y="409.7" width="175.6" height="115.7"/>
  <g class="cls-39">
    <text class="cls-40" transform="translate(88 421.08)">Choo<tspan class="cls-41" x="36.03" y="0">s</tspan><tspan x="42.4" y="0">e how many people </tspan></text>
    <text class="cls-40" transform="translate(88 439.08)">you want to go with. Let </text>
    <text class="cls-40" transform="translate(88 457.08)">the Restaurant know you </text>
    <text class="cls-40" transform="translate(88 475.08)">bought fromTastiest when </text>
    <text class="cls-40" transform="translate(88 493.08)">you book.</text>
  </g>
  <text class="cls-25" transform="translate(86.05 765.67)">Smile</text>
  <text class="cls-27" transform="translate(53.5 759.46)">3</text>
  <circle class="cls-28" cx="59.4" cy="751.6" r="12.1"/>
  <g>
    <ellipse class="cls-42" cx="466.7" cy="162.6" rx="1.9" ry="0.5"/>
    <g>
      <path class="cls-3" d="M470,157.7c0,2-3.4,5-3.4,5s-3.4-3-3.4-5a3.41,3.41,0,1,1,6.8,0Z"/>
      <circle class="cls-19" cx="466.7" cy="157.2" r="1.3"/>
    </g>
  </g>
  <rect class="cls-30" x="472.1" y="160.2" width="20" height="2.5"/>
  <line class="cls-43" x1="260.2" y1="346" x2="457.1" y2="346"/>
  <line class="cls-43" x1="481.9" y1="346" x2="466" y2="346"/>
  <line class="cls-9" x1="553.9" y1="577" x2="340.3" y2="577"/>
  <path class="cls-10" d="M525.5,548.3H398.2A15.19,15.19,0,0,1,383,533.1V451.5a15.19,15.19,0,0,1,15.2-15.2H525.5a15.19,15.19,0,0,1,15.2,15.2V533A15.28,15.28,0,0,1,525.5,548.3Z"/>
  <g>
    <polygon class="cls-11" points="489.1 569.9 439 569.9 424 479.2 467.6 479.2 489.1 569.9"/>
    <path class="cls-11" d="M425.2,574.4h60a3.9,3.9,0,0,0,3.9-3.9v-.6H421.3v.6A3.84,3.84,0,0,0,425.2,574.4Z"/>
  </g>
  <polygon class="cls-12" points="424 479.2 436.3 553.4 485.2 553.4 467.6 479.2 424 479.2"/>
  <path class="cls-14" d="M520.8,548.3H393.5a15.19,15.19,0,0,1-15.2-15.2V451.5a15.19,15.19,0,0,1,15.2-15.2H520.8A15.19,15.19,0,0,1,536,451.5V533A15.28,15.28,0,0,1,520.8,548.3Z"/>
  <path class="cls-15" d="M536,534.2H378.2V451.4a15.19,15.19,0,0,1,15.2-15.2H520.7a15.19,15.19,0,0,1,15.2,15.2v82.8Z"/>
  <path class="cls-16" d="M521.4,527.2H392.5a8.17,8.17,0,0,1-8.2-8.2V450.4a8.17,8.17,0,0,1,8.2-8.2H521.4a8.17,8.17,0,0,1,8.2,8.2V519A8.17,8.17,0,0,1,521.4,527.2Z"/>
  <rect class="cls-1" x="387.5" y="571.6" width="42.5" height="2.9"/>
  <g>
    <path class="cls-22" d="M366.8,624.2H300.5v-1a6.06,6.06,0,0,1,6.1-6.1h54a6.06,6.06,0,0,1,6.1,6.1v1Z"/>
    <rect class="cls-23" x="300.6" y="624" width="66.2" height="3"/>
    <rect class="cls-23" x="329.6" y="625.5" width="7" height="60.3"/>
    <path class="cls-23" d="M352,687.9H314.1v-.7a4.44,4.44,0,0,1,4.4-4.4h29.1a4.44,4.44,0,0,1,4.4,4.4Z"/>
  </g>
  <polyline class="cls-24" points="346.3 563.7 354 576.9 356.8 575.5"/>
  <line class="cls-24" x1="300.7" y1="569.9" x2="300.7" y2="559.4"/>
  <g>
    <g>
      <path class="cls-26" d="M450.2,450.4a.77.77,0,0,0-.7-.8h-5.8a.8.8,0,1,0,0,1.6h2.1v7.2a.79.79,0,0,0,.8.8.71.71,0,0,0,.7-.8v-7.2h2.2A.71.71,0,0,0,450.2,450.4Z"/>
      <path class="cls-26" d="M454.2,452.7a.68.68,0,0,0-.7.7v.1a3,3,0,0,0-2-.8,3.1,3.1,0,0,0,0,6.2,3,3,0,0,0,2-.8v.2a.68.68,0,0,0,.7.7.77.77,0,0,0,.8-.7v-5A.87.87,0,0,0,454.2,452.7Zm-2.7,4.8a1.6,1.6,0,1,1,1.6-1.6A1.58,1.58,0,0,1,451.5,457.5Z"/>
      <path class="cls-26" d="M459.1,455.4a2.74,2.74,0,0,0-1.2-.2h-.5c-.1,0-.2-.2-.2-.3-.1-.6.7-.6,1.1-.5a.55.55,0,0,1,.5.3.37.37,0,0,0,.3.1,1.85,1.85,0,0,0,.7-.2.71.71,0,0,0-.1-1.1,2.28,2.28,0,0,0-1.2-.6,2.9,2.9,0,0,0-2.3.6,2.17,2.17,0,0,0-.6,1.6,2,2,0,0,0,1.3,1.6,3.75,3.75,0,0,0,1,.1,1.27,1.27,0,0,1,.6.1c.1.1.3.2.3.4a.76.76,0,0,1-.2.4,1.71,1.71,0,0,1-1.6-.2.71.71,0,0,0-1.1.1.78.78,0,0,0,0,1.1,3.3,3.3,0,0,0,2.1.7,2.3,2.3,0,0,0,1.4-.4,2,2,0,0,0,.9-1.7A1.87,1.87,0,0,0,459.1,455.4Z"/>
      <path class="cls-26" d="M466.6,453.6a.79.79,0,0,0-.8.8v4a.8.8,0,1,0,1.6,0v-4A.79.79,0,0,0,466.6,453.6Z"/>
      <path class="cls-26" d="M471.9,452.8c-.2,0-.4-.1-.6-.1a3.22,3.22,0,0,0-3.2,3.2,3.16,3.16,0,0,0,3.2,3.2,3.45,3.45,0,0,0,2.4-.9.78.78,0,0,0-1.1-1.1,2.11,2.11,0,0,1-1.3.5,1.62,1.62,0,0,1-1.6-1.3h4a.63.63,0,0,0,.6-.5.6.6,0,0,0,.1-.4,3.26,3.26,0,0,0-.4-1.3A3.79,3.79,0,0,0,471.9,452.8Zm-2,2.3a1.6,1.6,0,0,1,1.4-.8,1.34,1.34,0,0,1,1.3.8Z"/>
      <path class="cls-26" d="M478.6,455.4a2.74,2.74,0,0,0-1.2-.2h-.5c-.1,0-.2-.2-.2-.3-.1-.6.7-.6,1.1-.5a.55.55,0,0,1,.5.3.37.37,0,0,0,.3.1,1.85,1.85,0,0,0,.7-.2.71.71,0,0,0-.1-1.1,2.28,2.28,0,0,0-1.2-.6,2.9,2.9,0,0,0-2.3.6,2.17,2.17,0,0,0-.6,1.6,2,2,0,0,0,1.3,1.6,3.75,3.75,0,0,0,1,.1,1.27,1.27,0,0,1,.6.1c.1.1.3.2.3.4a.76.76,0,0,1-.2.4,1.71,1.71,0,0,1-1.6-.2.71.71,0,0,0-1.1.1.78.78,0,0,0,0,1.1,3.3,3.3,0,0,0,2.1.7,2.3,2.3,0,0,0,1.4-.4,2,2,0,0,0,.9-1.7A2.18,2.18,0,0,0,478.6,455.4Z"/>
      <path class="cls-26" d="M468.2,450.6a.57.57,0,0,0-.7.4,1,1,0,0,1-.4.5,1,1,0,0,1-1.2,0,1,1,0,0,1-.4-.5.57.57,0,0,0-1.1.3,2.59,2.59,0,0,0,.7,1.1h0a2,2,0,0,0,1.3.4,2.5,2.5,0,0,0,1.3-.4,2.84,2.84,0,0,0,.8-1.1A.52.52,0,0,0,468.2,450.6Z"/>
      <path class="cls-26" d="M463.4,455.5v-.8h.7a.8.8,0,0,0,0-1.6h-.7v-.3h0v-1.5a.79.79,0,0,0-.8-.8.74.74,0,0,0-.8.8V453H461a.8.8,0,0,0,0,1.6h.8v2.7a2.1,2.1,0,0,0,.4,1.1,2.38,2.38,0,0,0,1.1.6h.7a.8.8,0,0,0,0-1.6h-.6a.37.37,0,0,1-.1-.3v-1.6Z"/>
      <path class="cls-26" d="M482.9,455.5v-.8h.7a.8.8,0,0,0,0-1.6h-.7v-.3h0v-1.5a.8.8,0,0,0-1.6,0V453h-.8a.8.8,0,0,0,0,1.6h.8v2.7a2.1,2.1,0,0,0,.4,1.1,2.38,2.38,0,0,0,1.1.6h.7a.8.8,0,0,0,0-1.6h-.6a.37.37,0,0,1-.1-.3v-1.6Z"/>
    </g>
    <g>
      <path class="cls-26" d="M431.1,451.5a2.38,2.38,0,0,0-.9-1.3,2.69,2.69,0,0,0-1.5-.5,2.46,2.46,0,0,0-1.5.5,3,3,0,0,0-.9,1.3.57.57,0,0,0,1.1.3,1.28,1.28,0,0,1,.5-.7,1.22,1.22,0,0,1,.9-.3,1.61,1.61,0,0,1,.9.3,1.79,1.79,0,0,1,.5.7.57.57,0,0,0,.7.4.75.75,0,0,0,.2-.7Z"/>
      <path class="cls-26" d="M438,451.5a2.38,2.38,0,0,0-.9-1.3,2.69,2.69,0,0,0-1.5-.5,2.46,2.46,0,0,0-1.5.5,3,3,0,0,0-.9,1.3.57.57,0,0,0,1.1.3,1.28,1.28,0,0,1,.5-.7,1.22,1.22,0,0,1,.9-.3,1.61,1.61,0,0,1,.9.3,1.79,1.79,0,0,1,.5.7.57.57,0,0,0,.7.4c.3-.1.3-.4.2-.7Z"/>
      <path class="cls-26" d="M437.7,454.4a.57.57,0,0,0-.7.4h0a3.1,3.1,0,0,1-.6,1.3.1.1,0,0,1-.1-.1c-.3-2.3-2.6-1.9-3.1.3h0c-.3.9-.6,2.1-1.5,2.3a5.46,5.46,0,0,1-2.6-1,5,5,0,0,1-1.8-2.7.57.57,0,0,0-1.1.3,6,6,0,0,0,2.2,3.2,5.92,5.92,0,0,0,7.4,0,6.61,6.61,0,0,0,2.2-3.2A.53.53,0,0,0,437.7,454.4Z"/>
    </g>
  </g>
  <text class="cls-29" transform="translate(435.32 477.05)">Best Burger</text>
  <path class="cls-19" d="M522.1,527.4H392.2a7.85,7.85,0,0,1-7.9-7.9V486.2H530v33.3A7.85,7.85,0,0,1,522.1,527.4Z"/>
  <g>
    <rect class="cls-30" x="463.9" y="507.7" width="43.9" height="1.5"/>
    <rect class="cls-30" x="463.9" y="511.4" width="43.9" height="1.5"/>
    <rect class="cls-30" x="463.9" y="515.4" width="20" height="1.5"/>
  </g>
  <rect class="cls-31" x="441.5" y="480" width="30.4" height="1.5"/>
  <rect class="cls-31" x="446.9" y="482.8" width="19.6" height="1"/>
  <rect class="cls-16" x="399.2" y="492.4" width="55.2" height="34.8"/>
  <rect class="cls-31" x="399.2" y="520.3" width="55.2" height="7.1"/>
  <g>
    <g>
      <g>
        <path class="cls-32" d="M438.2,523.4a128.43,128.43,0,0,1-24.8,0,1.9,1.9,0,0,1-1.9-1.9v-1.3H440v1.3A1.88,1.88,0,0,1,438.2,523.4Z"/>
        <path class="cls-33" d="M439.7,520.4H411.9a1,1,0,0,1-1-1v-.5a1,1,0,0,1,1-1h27.8a1,1,0,0,1,1,1v.5A.94.94,0,0,1,439.7,520.4Z"/>
        <path class="cls-33" d="M439.7,516.5H411.9a1,1,0,0,1-1-1V515a1,1,0,0,1,1-1h27.8a1,1,0,0,1,1,1v.5A1,1,0,0,1,439.7,516.5Z"/>
        <path class="cls-34" d="M411.8,516.9a1.73,1.73,0,0,0-2,.8c-.6,1.2.9,1.3,1.9.9s2.7-.2,3.8.2a4.66,4.66,0,0,0,4.5-.4c1.9-1.2,3.3.4,5.1.4s2.9-1,4.7-.6,3.8.9,5,.3a4.12,4.12,0,0,1,3.3-.5c.8.4,1.7.9,2.5.4s.6-1.4-.5-1.6Z"/>
        <polygon class="cls-19" points="412.2 516.9 425.8 518.4 439.4 516.9 439.4 516.5 412.2 516.5 412.2 516.9"/>
        <path class="cls-35" d="M423,513.8H412.8a.27.27,0,0,1-.3-.3v-.1a.27.27,0,0,1,.3-.3H423a.27.27,0,0,1,.3.3v.1Q423.15,513.8,423,513.8Z"/>
        <path class="cls-3" d="M425,513.8H414.8a.27.27,0,0,1-.3-.3v-.1a.27.27,0,0,1,.3-.3H425a.27.27,0,0,1,.3.3v.1A.27.27,0,0,1,425,513.8Z"/>
        <path class="cls-3" d="M437.3,513.8H427.1a.27.27,0,0,1-.3-.3v-.1a.27.27,0,0,1,.3-.3h10.2a.27.27,0,0,1,.3.3v.1A.27.27,0,0,1,437.3,513.8Z"/>
      </g>
      <path class="cls-32" d="M440,513.1H411.5v-1.4a8.6,8.6,0,0,1,8.6-8.6h11.3a8.6,8.6,0,0,1,8.6,8.6Z"/>
      <g>
        <path class="cls-36" d="M420.8,505.1c-.1.2-.2.2-.3.2s-.2-.2-.1-.4a.28.28,0,1,1,.4.2Z"/>
        <path class="cls-36" d="M422.5,505.4c.1.2,0,.3-.1.4s-.3,0-.3-.2a.28.28,0,1,1,.4-.2Z"/>
        <path class="cls-36" d="M429.9,505.2c.1.2,0,.3-.1.4s-.3,0-.3-.2a.78.78,0,0,1,0-.5A4,4,0,0,1,429.9,505.2Z"/>
        <path class="cls-36" d="M425.5,505.1c.1.2,0,.3-.1.4s-.3,0-.3-.2a.28.28,0,1,1,.4-.2Z"/>
        <path class="cls-36" d="M427.6,505.1c0,.2-.1.3-.2.3s-.2-.1-.3-.3.1-.5.1-.5S427.6,504.9,427.6,505.1Z"/>
        <path class="cls-36" d="M426.8,506.7a.25.25,0,0,1-.1.4c-.2.1-.3,0-.3-.2s0-.5,0-.5A.78.78,0,0,1,426.8,506.7Z"/>
        <path class="cls-36" d="M431.5,504.5a.3.3,0,0,1,0,.4.25.25,0,0,1-.4-.1,1.69,1.69,0,0,1-.2-.5A2.07,2.07,0,0,1,431.5,504.5Z"/>
        <path class="cls-36" d="M421.2,506.5c-.1.2-.2.2-.3.2s-.2-.2-.1-.4a.78.78,0,0,1,.4-.3Z"/>
        <path class="cls-36" d="M418.5,505.1a.3.3,0,0,1-.4,0c-.1-.1,0-.3.1-.4s.5-.1.5-.1A1.69,1.69,0,0,1,418.5,505.1Z"/>
        <path class="cls-36" d="M424.3,506.4a.32.32,0,0,1-.3.3c-.1,0-.2-.2-.2-.3s.3-.4.3-.4A1.47,1.47,0,0,1,424.3,506.4Z"/>
      </g>
    </g>
    <rect class="cls-36" x="424.4" y="497.2" width="0.2" height="7"/>
    <polygon class="cls-3" points="432.6 501 424.4 501 424.4 496.9 432.6 496.9 431.3 498.9 432.6 501"/>
    <line class="cls-37" x1="424" y1="504.3" x2="425.5" y2="504.3"/>
  </g>
  <g>
    <ellipse class="cls-42" cx="466.7" cy="504.5" rx="1.9" ry="0.5"/>
    <g>
      <path class="cls-3" d="M470,499.6c0,2-3.4,5-3.4,5s-3.4-3-3.4-5a3.41,3.41,0,1,1,6.8,0Z"/>
      <circle class="cls-19" cx="466.7" cy="499.1" r="1.3"/>
    </g>
  </g>
  <rect class="cls-30" x="472.1" y="502.1" width="20" height="2.5"/>
  <line class="cls-43" x1="260.2" y1="687.8" x2="457.1" y2="687.8"/>
  <path class="cls-21" d="M360.2,549.8s24.6,25.3,44.3,19.5S432,532.1,432,532.1"/>
  <line class="cls-43" x1="481.9" y1="687.8" x2="466" y2="687.8"/>
  <g>
    <path class="cls-21" d="M298.9,557.6s-7,24.2-26.4,29.1-33.2-2.9-44.1-20.6"/>
    <path class="cls-13" d="M223,572.2h14.3a1.37,1.37,0,0,0,1.4-1.4v-3.4a8.07,8.07,0,0,0-8.1-8.1H216.8a3.37,3.37,0,0,0-3.4,3.4h0A9.58,9.58,0,0,0,223,572.2Z"/>
    <rect class="cls-13" x="260.33" y="648.61" width="12" height="12.7"/>
    <rect class="cls-13" x="310.17" y="648.61" width="12" height="12.7"/>
    <path class="cls-13" d="M324.5,433.1l-.6,4.8a3.2,3.2,0,0,0,2.3,3.5,3,3,0,0,0,3.7-2.6l1-8a1.49,1.49,0,0,1,1.2-1.2c1.1-.1,2.3-.1,3.4-.1a1.32,1.32,0,0,1,1.3,1.5l-1.1,8.4a3.2,3.2,0,0,0,2.3,3.5,3,3,0,0,0,3.7-2.6l1.1-8.5a1.35,1.35,0,0,1,1.7-1.1c1.1.3,2.2.6,3.3,1a1.42,1.42,0,0,1,.9,1.4l-1,7.8a3.2,3.2,0,0,0,2.3,3.5,3,3,0,0,0,3.7-2.6l.6-4.9a1.31,1.31,0,0,1,2.1-.9,36.91,36.91,0,0,1,15.9,35.4l-3.4,26.9a28.18,28.18,0,0,1-31.6,24.4l-17.7-2.3a28.18,28.18,0,0,1-24.4-31.6l3.4-26.9a37.23,37.23,0,0,1,24.3-30.3A1.29,1.29,0,0,1,324.5,433.1Z"/>
    <rect class="cls-13" x="317.18" y="501.82" width="24.4" height="31.1"/>
    <path class="cls-19" d="M304.8,592.8h57.6V550.9a24.8,24.8,0,0,0-24.8-24.8H322a17.09,17.09,0,0,0-17.1,17.1v49.6Z"/>
    <path class="cls-15" d="M327.4,620.3h12.3a22.75,22.75,0,0,0,22.7-22.7v-5.1H304.7v5.1A22.75,22.75,0,0,0,327.4,620.3Z"/>
    <path class="cls-20" d="M321.2,608H295.9a30.35,30.35,0,0,0-30.1,30.5v16.8"/>
    <path class="cls-20" d="M345.8,608a30.35,30.35,0,0,0-30.1,30.5v16.8"/>
    <rect class="cls-15" x="259.01" y="659.5" width="14.2" height="26.8"/>
    <path class="cls-15" d="M248.9,687.4h24.2V676.6H258.2a9.35,9.35,0,0,0-9.3,9.3v1.5Z"/>
    <path class="cls-18" d="M320.9,536.1S302.6,538,295.7,561"/>
    <rect class="cls-15" x="308.86" y="661.05" width="14.2" height="26.8"/>
    <path class="cls-15" d="M298.9,687.9h24.2V677.1H308.2a9.35,9.35,0,0,0-9.3,9.3v1.5Z"/>
    <line class="cls-44" x1="344.5" y1="539.1" x2="373.8" y2="558.9"/>
    <line class="cls-45" x1="352.5" y1="557.8" x2="361.5" y2="563.6"/>
    <path class="cls-46" d="M305.9,499.5a5.72,5.72,0,0,0,4-5.1,6,6,0,0,0-3.1-5.7"/>
    <path class="cls-46" d="M339.3,502.6a6,6,0,0,1-3.1-5.7,5.83,5.83,0,0,1,4-5.1"/>
    <line class="cls-47" x1="338.8" y1="472.1" x2="338.3" y2="476.1"/>
    <line class="cls-47" x1="314.1" y1="469.2" x2="313.8" y2="472.8"/>
    <line class="cls-45" x1="304.8" y1="563.7" x2="304.7" y2="554.2"/>
    <line class="cls-48" x1="317.1" y1="519.9" x2="325.7" y2="521.2"/>
    <path class="cls-33" d="M322.1,494.5l5.1.4a5.16,5.16,0,0,1-10.3-.7Z"/>
  </g>
  <path class="cls-13" d="M428.9,537.1l-2.6-3.1a5.57,5.57,0,0,1,.7-7.9l9.2-7.8a5.57,5.57,0,0,1,7.9.7l.6.7a8.84,8.84,0,0,1-1,12.4l-6.8,5.7A5.69,5.69,0,0,1,428.9,537.1Z"/>
  <path class="cls-49" d="M435.4,522.4s8.6-9.1,15.3-9.6"/>
  <rect class="cls-38" x="88" y="780.8" width="148.6" height="77.1"/>
  <g class="cls-39">
    <text class="cls-40" transform="translate(88 792.2)">Go to the Restaurant.</text>
    <text class="cls-40" transform="translate(88 810.2)">Enjoy the Tastiest </text>
    <text class="cls-40" transform="translate(88 828.2)">Exclusive Special </text>
    <text class="cls-40" transform="translate(88 846.2)">Offer.</text>
  </g>
  <g>
    <rect class="cls-50" x="240.8" y="915.1" width="5.3" height="78.5"/>
    <rect class="cls-50" x="243.6" y="1033.4" width="42.1" height="2.5"/>
    <rect class="cls-10" x="238.9" y="989.3" width="55.3" height="6.3"/>
    <path class="cls-51" d="M280.1,948.7H240a5.12,5.12,0,0,1-5.1-5.1V923.2a5.12,5.12,0,0,1,5.1-5.1h40.1Z"/>
    <rect class="cls-50" x="472.04" y="914.98" width="5.3" height="78.5"/>
    <rect class="cls-50" x="432.47" y="1033.35" width="42.1" height="2.5"/>
    <rect class="cls-10" x="424.04" y="989.36" width="55.3" height="6.3"/>
    <path class="cls-51" d="M438.1,948.7h40.1a5.12,5.12,0,0,0,5.1-5.1V923.2a5.12,5.12,0,0,0-5.1-5.1H438.1Z"/>
    <g>
      <rect class="cls-52" x="427.96" y="995.55" width="5.7" height="70.2"/>
      <rect class="cls-50" x="427.96" y="995.67" width="5.7" height="1.9"/>
    </g>
    <g>
      <rect class="cls-52" x="471.85" y="995.55" width="5.7" height="70.2"/>
      <rect class="cls-50" x="471.85" y="995.67" width="5.7" height="1.9"/>
    </g>
    <g>
      <rect class="cls-52" x="284.5" y="995.7" width="5.7" height="70.2"/>
      <rect class="cls-50" x="284.5" y="995.6" width="5.7" height="1.9"/>
    </g>
    <g>
      <rect class="cls-15" x="288.2" y="734.8" width="165" height="254.6"/>
      <rect class="cls-53" x="292.9" y="739.9" width="155.4" height="243.6"/>
      <polygon class="cls-54" points="317.3 983.5 309 983.5 340.6 739.9 348.9 739.9 317.3 983.5"/>
      <g class="cls-55">
        <path class="cls-56" d="M444.2,890.6h0a26.64,26.64,0,0,0-33.1,18l-2.8,9.4a26.59,26.59,0,0,0-41.4,27.3,26.67,26.67,0,0,0-30.1-2.4h0a26.63,26.63,0,0,0-9.7,36.4l2.4,4.1H448.4V892.3A26.32,26.32,0,0,0,444.2,890.6Z"/>
      </g>
      <rect class="cls-15" x="369" y="738" width="3.3" height="246.6"/>
      <rect class="cls-15" x="289.69" y="813.44" width="162.1" height="3.3"/>
      <rect class="cls-15" x="289.75" y="900.2" width="162.1" height="3.3"/>
      <g>
        <circle class="cls-19" cx="355.4" cy="826.5" r="9.2"/>
        <rect class="cls-15" x="354.8" y="738.8" width="1.5" height="64.8"/>
        <path class="cls-57" d="M382.7,829.4H328v-3.5a27.27,27.27,0,0,1,27.3-27.3h0a27.27,27.27,0,0,1,27.3,27.3v3.5Z"/>
      </g>
    </g>
    <g>
      <rect class="cls-58" x="265.5" y="913.5" width="23.8" height="15.1"/>
      <path class="cls-58" d="M290.5,833.6v4.7a3.12,3.12,0,0,1-2.7,3.1,3,3,0,0,1-3.3-3v-7.9a1.38,1.38,0,0,0-1-1.3l-3.3-.6a1.32,1.32,0,0,0-1.5,1.3v8.3a3.12,3.12,0,0,1-2.7,3.1,3,3,0,0,1-3.3-3v-8.4a1.32,1.32,0,0,0-1.5-1.3,19.09,19.09,0,0,0-3.3.6,1.3,1.3,0,0,0-1,1.3v7.8a3.12,3.12,0,0,1-2.7,3.1,3,3,0,0,1-3.3-3v-4.9a1.32,1.32,0,0,0-1.9-1.2,36.43,36.43,0,0,0-19.9,32.5v26.6a27.7,27.7,0,0,0,27.7,27.7h17.5A27.7,27.7,0,0,0,312,891.4V865a36.43,36.43,0,0,0-19.9-32.5C291.6,832,290.5,832.7,290.5,833.6Z"/>
      <path class="cls-59" d="M261,875.6a4.82,4.82,0,0,1,1.3-3.2,4.45,4.45,0,0,1,3.2-1.3,4.82,4.82,0,0,1,3.2,1.3,4.45,4.45,0,0,1,1.3,3.2,1.9,1.9,0,0,0,3.8,0,7.91,7.91,0,0,0-2.4-5.8,8.25,8.25,0,0,0-5.8-2.4,7.91,7.91,0,0,0-5.8,2.4,8.25,8.25,0,0,0-2.4,5.8,1.9,1.9,0,0,0,1.9,1.9,1.74,1.74,0,0,0,1.7-1.9Z"/>
      <path class="cls-59" d="M293.4,887.6a16.93,16.93,0,0,1-31.2-.1Z"/>
      <path class="cls-60" d="M260.2,895.2a6.39,6.39,0,0,0,3.9-5.9,6.63,6.63,0,0,0-1.1-3.6,7,7,0,0,0-2.8-2.3,1.9,1.9,0,0,0-1.5,3.5,2,2,0,0,1,1.1.9,2.3,2.3,0,0,1,.4,1.4,3.26,3.26,0,0,1-.4,1.4,3.13,3.13,0,0,1-1.1.9,1.87,1.87,0,0,0-1,2.5,1.82,1.82,0,0,0,2.5,1.2Z"/>
      <path class="cls-60" d="M296.9,891.7a2,2,0,0,1-1.1-.9,2.3,2.3,0,0,1-.4-1.4,3.26,3.26,0,0,1,.4-1.4,3.13,3.13,0,0,1,1.1-.9,1.9,1.9,0,1,0-1.5-3.5,7,7,0,0,0-2.8,2.3,6.15,6.15,0,0,0-1.1,3.6,6.38,6.38,0,0,0,1.1,3.6,7,7,0,0,0,2.8,2.3,2,2,0,0,0,2.5-1,2.12,2.12,0,0,0-1-2.7Z"/>
      <path class="cls-59" d="M287.2,875.6a4.82,4.82,0,0,1,1.3-3.2,4.45,4.45,0,0,1,3.2-1.3,4.82,4.82,0,0,1,3.2,1.3,4.45,4.45,0,0,1,1.3,3.2,1.9,1.9,0,0,0,1.9,1.9,1.84,1.84,0,0,0,1.9-1.9,7.91,7.91,0,0,0-2.4-5.8,8.25,8.25,0,0,0-5.8-2.4,7.91,7.91,0,0,0-5.8,2.4,8.25,8.25,0,0,0-2.4,5.8,1.9,1.9,0,0,0,1.9,1.9,2,2,0,0,0,1.7-1.9Z"/>
      <path class="cls-58" d="M294.9,938.2a30.91,30.91,0,0,0,4,.3,36.7,36.7,0,0,0,10.2-1.5,32.23,32.23,0,0,0,9.5-4.7,35.4,35.4,0,0,0,6.9-6.6,44.82,44.82,0,0,0,7.7-15.8c1.9-6.5,2.9-14.3,2.9-23.7v-1.3l-12.4.1v1.2c0,10-1.4,17.5-3.3,22.9a31.44,31.44,0,0,1-5.2,9.4,20.2,20.2,0,0,1-4.4,4,19.9,19.9,0,0,1-6.6,2.9,24.09,24.09,0,0,1-5.3.7,6.66,6.66,0,0,1-1.6-.1H297l-.5,3.1.5-3.1h-.1l-.5,3.1.5-3.1-2,12.2Z"/>
      <path class="cls-61" d="M294.4,941.2a25,25,0,0,0,4.5.3,36.51,36.51,0,0,0,11.1-1.7,37,37,0,0,0,6.9-3,35.53,35.53,0,0,0,7-5.1l-12.6-13.4a14.77,14.77,0,0,1-3.4,2.5,18.22,18.22,0,0,1-5,1.9,22.29,22.29,0,0,1-4,.4,4.15,4.15,0,0,1-1.3-.1h-.2l-.7,4.7.8-4.7h-.1l-.7,4.7.8-4.7-3.1,18.2Z"/>
      <path class="cls-58" d="M288.6,990.2H263a11.5,11.5,0,0,1-11.5-11.5V926.4h48.6v52.3A11.5,11.5,0,0,1,288.6,990.2Z"/>
      <path class="cls-62" d="M300.1,990.2H261.2a9.71,9.71,0,0,1-9.7-9.7V959.4h48.7v30.8Z"/>
      <path class="cls-58" d="M338.4,890.9H323.5V883a7.81,7.81,0,0,1,7.8-7.8h7a7.81,7.81,0,0,1,7.8,7.8A7.57,7.57,0,0,1,338.4,890.9Z"/>
      <path class="cls-58" d="M328.6,882a7.13,7.13,0,0,0,1.4-.6,12.45,12.45,0,0,0,4.2-3.3,13.51,13.51,0,0,0,1.9-3.1,11.22,11.22,0,0,0,.8-4.2,19.53,19.53,0,0,0-.2-2.3,2.69,2.69,0,0,0-5.3.9,7.08,7.08,0,0,1,.1,1.4,6.2,6.2,0,0,1-.7,2.9,8.28,8.28,0,0,1-1.1,1.5,7.71,7.71,0,0,1-1.9,1.4,1.63,1.63,0,0,0-.6.3c-.1,0-.1,0-.2.1h0a2.83,2.83,0,0,0-1.8,3.4,2.91,2.91,0,0,0,3.4,1.6Z"/>
      <path class="cls-61" d="M300.1,971.8H251.4V930.7a7.49,7.49,0,0,1,7.5-7.5H300v48.6Z"/>
      <path class="cls-26" d="M279.3,892.7H265.6a16.91,16.91,0,0,0,12.2,5.2,17.25,17.25,0,0,0,6-1.1A4.48,4.48,0,0,0,279.3,892.7Z"/>
      <polyline class="cls-58" points="298.1 986.3 322.4 1053.6 334.1 1049.4 309.8 982"/>
      <path class="cls-62" d="M323.2,1017.5l-12.2,4.4-15-41.6a6.48,6.48,0,0,1,12.2-4.4Z"/>
      <path class="cls-62" d="M348,1052.2l-22.4,8.1a1.08,1.08,0,0,1-1.4-.7l-2.9-8.1,16.3-5.9a8.68,8.68,0,0,1,11.1,5.2A1.27,1.27,0,0,1,348,1052.2Z"/>
      <rect class="cls-62" x="318.61" y="1031.24" width="13" height="23.1" transform="translate(-335.19 172.67) rotate(-19.88)"/>
      <path class="cls-63" d="M288,923.4l-1.6-.5,1.6.5h0l-1.6-.5,1.6.5-.5-.1.5.1h0l-.5-.1.5.1h0a.31.31,0,0,1,.1-.2.78.78,0,0,1,.4-.4c.1,0,.1-.1.2-.1h.4v-.1l-.1.1h0v-.1l-.1.1h0l.1.1c.1.1.1.3.2.4v.1h0l1.8-.2-1.8.2h0l1.8-.2-1.8.2a2.66,2.66,0,1,0,5.3-.5,2.31,2.31,0,0,0-.2-.9,8.4,8.4,0,0,0-.4-1.2c-.2-.4-.4-.7-.6-1.1a4.72,4.72,0,0,0-1.8-1.6,6.44,6.44,0,0,0-2.8-.7,7,7,0,0,0-3,.7,6.09,6.09,0,0,0-1.5,1.2,6.73,6.73,0,0,0-1.2,1.7,4.91,4.91,0,0,0-.4,1,2.83,2.83,0,0,0,1.8,3.4,3.11,3.11,0,0,0,3.6-1.9Z"/>
      <g>
        <g>
          <path class="cls-32" d="M314.7,928.8a128.43,128.43,0,0,1-24.8,0,1.9,1.9,0,0,1-1.9-1.9v-1.3h28.5v1.3A1.82,1.82,0,0,1,314.7,928.8Z"/>
          <path class="cls-33" d="M316.2,925.9H288.4a1,1,0,0,1-1-1v-.5a1,1,0,0,1,1-1h27.8a1,1,0,0,1,1,1v.5A1,1,0,0,1,316.2,925.9Z"/>
          <path class="cls-33" d="M316.2,921.9H288.4a1,1,0,0,1-1-1v-.5a1,1,0,0,1,1-1h27.8a1,1,0,0,1,1,1v.5A1,1,0,0,1,316.2,921.9Z"/>
          <path class="cls-34" d="M288.3,922.4a1.73,1.73,0,0,0-2,.8c-.6,1.2.9,1.3,1.9.9s2.7-.2,3.8.2a4.66,4.66,0,0,0,4.5-.4c1.9-1.2,3.3.4,5.1.4s2.9-1,4.7-.6,3.8.9,5,.3a4.12,4.12,0,0,1,3.3-.5c.8.4,1.7.9,2.5.4s.6-1.4-.5-1.6Z"/>
          <polygon class="cls-19" points="288.7 922.3 302.3 923.9 315.9 922.3 315.9 921.9 288.7 921.9 288.7 922.3"/>
          <path class="cls-35" d="M299.5,919.3H289.3a.27.27,0,0,1-.3-.3v-.1a.27.27,0,0,1,.3-.3h10.2a.27.27,0,0,1,.3.3v.1Q299.65,919.3,299.5,919.3Z"/>
          <path class="cls-3" d="M301.5,919.3H291.3a.27.27,0,0,1-.3-.3v-.1a.27.27,0,0,1,.3-.3h10.2a.27.27,0,0,1,.3.3v.1A.27.27,0,0,1,301.5,919.3Z"/>
          <path class="cls-3" d="M313.8,919.3H303.6a.27.27,0,0,1-.3-.3v-.1a.27.27,0,0,1,.3-.3h10.2a.27.27,0,0,1,.3.3v.1A.27.27,0,0,1,313.8,919.3Z"/>
        </g>
        <path class="cls-32" d="M316.5,918.6H288v-1.4a8.6,8.6,0,0,1,8.6-8.6H308a8.6,8.6,0,0,1,8.6,8.6v1.4Z"/>
        <g>
          <path class="cls-36" d="M297.3,910.5c-.1.2-.2.2-.3.2s-.2-.2-.1-.4a.28.28,0,1,1,.4.2Z"/>
          <path class="cls-36" d="M299,910.8c.1.2,0,.3-.1.4s-.3,0-.3-.2v-.5A4,4,0,0,1,299,910.8Z"/>
          <path class="cls-36" d="M306.4,910.7c.1.2,0,.3-.1.4s-.3,0-.3-.2a.28.28,0,1,1,.4-.2Z"/>
          <path class="cls-36" d="M302,910.5c.1.2,0,.3-.1.4s-.3,0-.3-.2a.78.78,0,0,1,0-.5A4,4,0,0,1,302,910.5Z"/>
          <path class="cls-36" d="M304.1,910.5c0,.2-.1.3-.2.3s-.2-.1-.3-.3a2,2,0,0,1,.1-.5S304.1,910.4,304.1,910.5Z"/>
          <path class="cls-36" d="M303.3,912.1a.25.25,0,0,1-.1.4c-.2.1-.3,0-.3-.2s0-.5,0-.5A4,4,0,0,1,303.3,912.1Z"/>
          <path class="cls-36" d="M308,910a.3.3,0,0,1,0,.4.25.25,0,0,1-.4-.1,1.69,1.69,0,0,1-.2-.5A2.07,2.07,0,0,1,308,910Z"/>
          <path class="cls-36" d="M297.7,911.9c-.1.2-.2.2-.3.2s-.2-.2-.1-.4a.78.78,0,0,1,.4-.3Z"/>
          <path class="cls-36" d="M295,910.6a.3.3,0,0,1-.4,0c-.1-.1,0-.3.1-.4s.5-.1.5-.1A4.71,4.71,0,0,1,295,910.6Z"/>
          <path class="cls-36" d="M300.8,911.9a.32.32,0,0,1-.3.3c-.1,0-.2-.2-.2-.3s.3-.4.3-.4A.7.7,0,0,1,300.8,911.9Z"/>
        </g>
      </g>
      <path class="cls-58" d="M295.3,932.8H283.6a2.69,2.69,0,0,1-2.7-2.7v-5.7a3.8,3.8,0,0,1,3.8-3.8h10.7a5.57,5.57,0,0,1,5.6,5.5v1.1A5.68,5.68,0,0,1,295.3,932.8Z"/>
      <polyline class="cls-58" points="287.2 987.6 287.2 1059.2 299 1059.2 299 987.6"/>
      <path class="cls-62" d="M299.7,1025.5h-13V981.3a6.5,6.5,0,0,1,13,0Z"/>
      <path class="cls-62" d="M311.9,1066.3H288.1a1.11,1.11,0,0,1-1.1-1.1v-8.6h17.3a8.6,8.6,0,0,1,8.6,8.6A1,1,0,0,1,311.9,1066.3Z"/>
      <rect class="cls-62" x="287" y="1038.3" width="13" height="23.1"/>
      <polyline class="cls-64" points="265.5 919.6 274.7 919.6 274.7 919.1 265.5 919.1"/>
      <path class="cls-65" d="M249.5,940.4s-3.7,4.2-4.4,17.5c-.7,14.6,23.6,14,32.3-2.3s10-25,10-25"/>
      <line class="cls-66" x1="336" y1="875.2" x2="333.4" y2="875.2"/>
      <path class="cls-61" d="M257.6,923.1a24.15,24.15,0,0,0-4.2,1.7,38.48,38.48,0,0,0-9.2,6.5,36.41,36.41,0,0,0-4.9,5.8,32.68,32.68,0,0,0-3.9,7.7l17.3,6.3a16.85,16.85,0,0,1,1.9-3.8,19.58,19.58,0,0,1,3.6-3.9,26.7,26.7,0,0,1,3.4-2.2,7.81,7.81,0,0,1,1.2-.5.35.35,0,0,0,.2-.1h0l-1.5-4.5,1.4,4.5h.1l-1.5-4.5,1.4,4.5-5.3-17.5Z"/>
    </g>
    <g>
      <rect class="cls-67" x="433.4" y="909.3" width="24.8" height="21.3"/>
      <path class="cls-67" d="M448.3,914.4h-7.1a26.21,26.21,0,0,1-26-22.8L411.8,866c-3.1-23.1,11.8-44.8,33-44.8s36.1,21.7,33,44.8l-3.4,25.6A26.46,26.46,0,0,1,448.3,914.4Z"/>
      <path class="cls-68" d="M421.3,992.2h38.9a9.71,9.71,0,0,0,9.7-9.7v-8.7H421.2v18.4Z"/>
      <polygon class="cls-26" points="421.3 973.8 470 973.8 459.6 926.1 431.6 926.1 421.3 973.8"/>
      <polyline class="cls-67" points="435.3 990.9 435.3 1062.5 447.8 1062.5 447.8 990.9"/>
      <polyline class="cls-67" points="412.1 990.9 412.1 1062.5 424.5 1062.5 424.5 990.9"/>
      <path class="cls-68" d="M435.3,1033.8h13V984.6a6.5,6.5,0,0,0-13,0Z"/>
      <path class="cls-68" d="M411.5,1033.8h13V984.6a6.5,6.5,0,1,0-13,0Z"/>
      <path class="cls-62" d="M425,1065.8h22.3a1,1,0,0,0,1-1.1v-8.6H432.1c-4.5,0-8.1,3.9-8.1,8.7A.94.94,0,0,0,425,1065.8Z"/>
      <path class="cls-62" d="M401.7,1065.8h22.2a1,1,0,0,0,1-1.1v-8.6H408.8c-4.4,0-8.1,3.9-8.1,8.6A1,1,0,0,0,401.7,1065.8Z"/>
      <rect class="cls-69" x="433.9" y="1029.2" width="15.3" height="7.8"/>
      <rect class="cls-69" x="409.8" y="1029.2" width="15.3" height="7.8"/>
      <path class="cls-67" d="M456.5,938.4a56.6,56.6,0,0,1,2.7,16.6,39.32,39.32,0,0,1-.7,7.3,17.08,17.08,0,0,1-1.3,4,12,12,0,0,1-1.1,2,5.85,5.85,0,0,1-1.4,1.4c-.2.1-.3.2-.5.2s-.3.1-.4.1a2.17,2.17,0,0,1-1-.2,5.57,5.57,0,0,1-1.5-.8,18.91,18.91,0,0,1-3.9-3.5,57.3,57.3,0,0,1-7.3-11.7,148.92,148.92,0,0,1-7.6-20.1l-11.9,3.6a158.81,158.81,0,0,0,7.2,19.6,89.13,89.13,0,0,0,5.8,10.8,53.72,53.72,0,0,0,4.5,6.1,28.22,28.22,0,0,0,7.3,6.3,16.52,16.52,0,0,0,4.1,1.8,15.93,15.93,0,0,0,4.3.6,13.08,13.08,0,0,0,4.4-.7,13.53,13.53,0,0,0,3.4-1.7,17.91,17.91,0,0,0,4.6-4.5,27,27,0,0,0,4.1-9.1,44.39,44.39,0,0,0,1.3-11.3,67.06,67.06,0,0,0-3.3-20.3l-11.8,3.5Z"/>
      <path class="cls-26" d="M453.3,940.7l1.3-5.9-1.5,5.9h.2l1.3-5.9-1.5,5.9.6-2.3-.6,2.2h0l.6-2.3-.6,2.2.1-.5-.1.5h0l.1-.5-.1.5a6,6,0,0,1,.7.3l.9.6a4.62,4.62,0,0,1,.7.7,6.5,6.5,0,0,1,.9,1.7,10,10,0,0,1,.5,3.5,22.75,22.75,0,0,1-.5,4.7l18,3.8a43.16,43.16,0,0,0,.9-8.5,27.73,27.73,0,0,0-4.6-15.6,20.44,20.44,0,0,0-4.2-4.5,25.19,25.19,0,0,0-5.9-3.6,17,17,0,0,0-3.3-1.1l-3.9,18.2Z"/>
      <polyline class="cls-26" points="458.5 944.2 454.7 944.2 454.7 944.8 458.5 944.8"/>
      <path class="cls-26" d="M457.6,926.8H431.9a3.12,3.12,0,0,1-3.1-3.1v-3.9a3.12,3.12,0,0,1,3.1-3.1h25.7a3.12,3.12,0,0,1,3.1,3.1v3.9A3.12,3.12,0,0,1,457.6,926.8Z"/>
      <path class="cls-4" d="M469.2,833.6l-36.6-11.5,1.2-3.9A18.59,18.59,0,0,1,457,806.1l1.3.4a18.59,18.59,0,0,1,12.1,23.2Z"/>
      <polygon class="cls-70" points="406.6 956.5 425.9 956.5 428.4 912.6 404.1 912.6 406.6 956.5"/>
      <rect class="cls-52" x="403.7" y="911.52" width="25.2" height="2.7"/>
      <polygon class="cls-3" points="425.1 911.6 423.1 911.6 426.4 896.2 428.3 897.1 425.1 911.6"/>
      <path class="cls-19" d="M408.9,924.3a8.4,8.4,0,0,1,0,16.8,8.66,8.66,0,0,1-3.2-.6l-.9-15.1A7.22,7.22,0,0,1,408.9,924.3Z"/>
      <path class="cls-4" d="M449.8,821.2l-.6,1.9a7.87,7.87,0,0,1-9.9,5.2l-17.7-5.5a4.87,4.87,0,0,1-3.2-6.1v-.1a4.87,4.87,0,0,1,6.1-3.2Z"/>
      <path class="cls-67" d="M413,938.4l14,7.2,5.3-10.3a2.54,2.54,0,0,0-1.1-3.4l-11.8-6.1a7.07,7.07,0,0,0-9.5,3A7.29,7.29,0,0,0,413,938.4Z"/>
      <circle class="cls-71" cx="460.6" cy="880" r="2.4"/>
      <path class="cls-72" d="M458,912.2h0a27.73,27.73,0,0,1-10.9,1.9h-7.4v.5h7.4c7.1,0,11.1-1.9,11.1-2l-.2-.4Z"/>
      <path class="cls-73" d="M427.2,871.5a1.1,1.1,0,1,1,2.2,0,1.9,1.9,0,1,0,3.8,0,4.6,4.6,0,0,0-1.4-3.4,4.76,4.76,0,0,0-3.4-1.4,4.6,4.6,0,0,0-3.4,1.4,4.76,4.76,0,0,0-1.4,3.4,1.9,1.9,0,0,0,1.9,1.9,1.87,1.87,0,0,0,1.7-1.9Z"/>
      <path class="cls-73" d="M448.7,871.5a1.1,1.1,0,1,1,2.2,0,1.9,1.9,0,1,0,3.8,0,4.6,4.6,0,0,0-1.4-3.4,4.76,4.76,0,0,0-3.4-1.4,4.6,4.6,0,0,0-3.4,1.4,4.76,4.76,0,0,0-1.4,3.4,1.9,1.9,0,0,0,1.9,1.9,1.87,1.87,0,0,0,1.7-1.9Z"/>
      <path class="cls-74" d="M425.4,893.5s.4,5.6,6.7,4.2"/>
    </g>
    <rect class="cls-15" x="352.5" y="965.7" width="10.9" height="97.6"/>
    <rect class="cls-23" x="352.5" y="965.3" width="10.9" height="9.4"/>
    <path class="cls-75" d="M237,971.7H478.2c3,0,5.4-1.9,5.4-4.2s-2.4-4.2-5.4-4.2H237c-3,0-5.4,1.9-5.4,4.2s2.4,4.2,5.4,4.2"/>
    <path class="cls-75" d="M378.2,1065.8H336.8a5,5,0,0,1,5-5h31.4A5,5,0,0,1,378.2,1065.8Z"/>
    <g>
      <g>
        <g>
          <path class="cls-32" d="M406.9,962.4a128.43,128.43,0,0,1-24.8,0,1.9,1.9,0,0,1-1.9-1.9v-1.3h28.5v1.3A1.82,1.82,0,0,1,406.9,962.4Z"/>
          <path class="cls-33" d="M408.4,959.5H380.6a1,1,0,0,1-1-1V958a1,1,0,0,1,1-1h27.8a1,1,0,0,1,1,1v.5A1.08,1.08,0,0,1,408.4,959.5Z"/>
          <path class="cls-33" d="M408.4,955.5H380.6a1,1,0,0,1-1-1V954a1,1,0,0,1,1-1h27.8a1,1,0,0,1,1,1v.5A1.08,1.08,0,0,1,408.4,955.5Z"/>
          <path class="cls-34" d="M380.5,955.9a1.73,1.73,0,0,0-2,.8c-.6,1.2.9,1.3,1.9.9s2.7-.2,3.8.2a4.66,4.66,0,0,0,4.5-.4c1.9-1.2,3.3.4,5.1.4s2.9-1,4.7-.6,3.8.9,5,.3a4.12,4.12,0,0,1,3.3-.5c.8.4,1.7.9,2.5.4s.6-1.4-.5-1.6Z"/>
          <polygon class="cls-19" points="380.9 955.9 394.5 957.5 408.1 955.9 408.1 955.5 380.9 955.5 380.9 955.9"/>
          <path class="cls-35" d="M391.6,952.9H381.4a.27.27,0,0,1-.3-.3v-.1a.27.27,0,0,1,.3-.3h10.2a.27.27,0,0,1,.3.3v.1A.27.27,0,0,1,391.6,952.9Z"/>
          <path class="cls-3" d="M393.7,952.9H383.5a.27.27,0,0,1-.3-.3v-.1a.27.27,0,0,1,.3-.3h10.2a.27.27,0,0,1,.3.3v.1A.32.32,0,0,1,393.7,952.9Z"/>
          <path class="cls-3" d="M406,952.9H395.8a.27.27,0,0,1-.3-.3v-.1a.27.27,0,0,1,.3-.3H406a.27.27,0,0,1,.3.3v.1A.32.32,0,0,1,406,952.9Z"/>
        </g>
        <path class="cls-32" d="M408.7,952.2H380.2v-1.4a8.6,8.6,0,0,1,8.6-8.6h11.3a8.6,8.6,0,0,1,8.6,8.6Z"/>
        <g>
          <path class="cls-36" d="M389.5,944.1c-.1.2-.2.2-.3.2s-.2-.2-.1-.4a.78.78,0,0,1,.4-.3Z"/>
          <path class="cls-36" d="M391.1,944.4c.1.2,0,.3-.1.4s-.3,0-.3-.2v-.5S391.1,944.2,391.1,944.4Z"/>
          <path class="cls-36" d="M398.5,944.3c.1.2,0,.3-.1.4s-.3,0-.3-.2V944S398.5,944.1,398.5,944.3Z"/>
          <path class="cls-36" d="M394.1,944.1c.1.2,0,.3-.1.4s-.3,0-.3-.2a.78.78,0,0,1,0-.5S394.1,943.9,394.1,944.1Z"/>
          <path class="cls-36" d="M396.3,944.1c0,.2-.1.3-.2.3s-.2-.1-.3-.3.1-.5.1-.5A2.74,2.74,0,0,1,396.3,944.1Z"/>
          <path class="cls-36" d="M395.5,945.7a.25.25,0,0,1-.1.4c-.1.1-.3,0-.3-.2s0-.5,0-.5A.78.78,0,0,1,395.5,945.7Z"/>
          <path class="cls-36" d="M400.2,943.6a.3.3,0,0,1,0,.4.25.25,0,0,1-.4-.1,1.69,1.69,0,0,1-.2-.5A2.07,2.07,0,0,1,400.2,943.6Z"/>
          <path class="cls-36" d="M389.8,945.5c-.1.2-.2.2-.3.2s-.2-.2-.1-.4a.78.78,0,0,1,.4-.3S389.9,945.4,389.8,945.5Z"/>
          <path class="cls-36" d="M387.2,944.1a.3.3,0,0,1-.4,0c-.1-.1,0-.3.1-.4s.5-.1.5-.1A1.69,1.69,0,0,1,387.2,944.1Z"/>
          <path class="cls-36" d="M392.9,945.5a.32.32,0,0,1-.3.3c-.1,0-.2-.2-.2-.3s.3-.4.3-.4S393,945.3,392.9,945.5Z"/>
        </g>
      </g>
      <rect class="cls-36" x="393.1" y="936.3" width="0.2" height="7"/>
      <polygon class="cls-3" points="401.2 940 393.1 940 393.1 935.9 401.2 935.9 400 937.9 401.2 940"/>
      <line class="cls-37" x1="392.7" y1="943.3" x2="394.1" y2="943.3"/>
    </g>
    <line class="cls-43" x1="232" y1="1066.1" x2="468.4" y2="1066.1"/>
    <line class="cls-43" x1="202.7" y1="1066.1" x2="214.7" y2="1066.1"/>
    <g>
      <rect class="cls-52" x="240.6" y="995.7" width="5.7" height="70.2"/>
      <rect class="cls-50" x="240.6" y="995.6" width="5.7" height="1.9"/>
    </g>
    <rect class="cls-33" x="373.9" y="961.3" width="53.1" height="2.1"/>
    <rect class="cls-33" x="291.8" y="961.3" width="53.1" height="2.1"/>
    <g>
      <path class="cls-76" d="M405.9,960.9l-13.1-1c-.3,0-.5-.3-.4-.5v-.5c0-.3.3-.5.5-.4l13.8,1.1c.2,0,.3.2.2.4l-.4.7A.85.85,0,0,1,405.9,960.9Z"/>
      <path class="cls-77" d="M409.1,960.5l-13,1.4a.46.46,0,0,1-.5-.4V961a.46.46,0,0,1,.4-.5l13.8-1.4c.2,0,.3.2.2.3l-.3.8C409.5,960.3,409.3,960.5,409.1,960.5Z"/>
      <path class="cls-77" d="M417.3,960.1l-13,1.4a.46.46,0,0,1-.5-.4v-.5a.46.46,0,0,1,.4-.5l13.8-1.4c.2,0,.3.2.2.3l-.3.8Z"/>
      <path class="cls-77" d="M415,962.4H401.9a.47.47,0,0,1-.5-.5v-.5a.47.47,0,0,1,.5-.5h13.8c.2,0,.3.2.2.4l-.4.7C415.5,962.3,415.3,962.4,415,962.4Z"/>
      <path class="cls-76" d="M410.1,957l12.6,3.6a.42.42,0,0,1,.3.6l-.1.5a.42.42,0,0,1-.6.3L409,958.2c-.2,0-.2-.3-.1-.4l.6-.6C409.7,957,409.9,956.9,410.1,957Z"/>
      <path class="cls-78" d="M408.6,961.6l12.8-2.9c.3-.1.5.1.6.4l.1.5c.1.3-.1.5-.4.6l-13.5,3.1a.27.27,0,0,1-.3-.3l.2-.8C408.2,961.8,408.4,961.6,408.6,961.6Z"/>
    </g>
    <g>
      <path class="cls-76" d="M311.3,960.9l-13.1-1c-.3,0-.5-.3-.4-.5v-.5c0-.3.3-.5.5-.4l13.8,1.1c.2,0,.3.2.2.4l-.4.7A1.07,1.07,0,0,1,311.3,960.9Z"/>
      <path class="cls-77" d="M314.5,960.5l-13,1.4a.46.46,0,0,1-.5-.4V961a.46.46,0,0,1,.4-.5l13.8-1.4c.2,0,.3.2.2.3l-.3.8C314.9,960.3,314.7,960.5,314.5,960.5Z"/>
      <path class="cls-77" d="M322.6,960.1l-13,1.4a.46.46,0,0,1-.5-.4v-.5a.46.46,0,0,1,.4-.5l13.8-1.4c.2,0,.3.2.2.3l-.3.8A1.63,1.63,0,0,1,322.6,960.1Z"/>
      <path class="cls-77" d="M320.4,962.4H307.3a.47.47,0,0,1-.5-.5v-.5a.47.47,0,0,1,.5-.5h13.8c.2,0,.3.2.2.4l-.3.7A.55.55,0,0,1,320.4,962.4Z"/>
      <path class="cls-76" d="M315.5,957l12.6,3.6a.42.42,0,0,1,.3.6l-.1.5a.42.42,0,0,1-.6.3l-13.3-3.8c-.2,0-.2-.3-.1-.4l.6-.6A.48.48,0,0,1,315.5,957Z"/>
      <path class="cls-78" d="M314,961.6l12.8-2.9c.3-.1.5.1.6.4l.1.5c.1.3-.1.5-.4.6l-13.5,3.1a.27.27,0,0,1-.3-.3l.2-.8C313.6,961.8,313.8,961.6,314,961.6Z"/>
    </g>
    <rect class="cls-52" x="489.5" y="771.9" width="57.2" height="81.1"/>
    <rect class="cls-79" x="494.7" y="777" width="46.8" height="71.6"/>
    <rect class="cls-80" x="494.7" y="847.5" width="46.8" height="1.1"/>
    <polygon class="cls-81" points="518 826.6 525.2 814.4 526.4 828.5 538.2 820.7 533.2 833.9 547.2 832 536.9 841.7 550.4 846 536.9 850.4 547.2 860.1 533.2 858.2 538.2 871.4 526.4 863.6 525.2 877.7 518 865.5 510.7 877.7 509.5 863.6 497.7 871.4 502.7 858.2 488.7 860.1 499 850.4 485.5 846 499 841.7 488.7 832 502.7 833.9 497.7 820.7 509.5 828.5 510.7 814.4 518 826.6"/>
    <g class="cls-39">
      <text class="cls-82" transform="translate(499.33 808.03)">Best Burger</text>
      <text class="cls-82" transform="translate(504.73 815.03)">in Town!</text>
    </g>
    <g>
      <path class="cls-3" d="M516.5,788.4a2.38,2.38,0,0,0-.9-1.3,2.69,2.69,0,0,0-1.5-.5,2.46,2.46,0,0,0-1.5.5,3,3,0,0,0-.9,1.3.57.57,0,0,0,1.1.3,1.28,1.28,0,0,1,.5-.7,1.22,1.22,0,0,1,.9-.3,1.61,1.61,0,0,1,.9.3,1.79,1.79,0,0,1,.5.7.57.57,0,0,0,.7.4.75.75,0,0,0,.2-.7Z"/>
      <path class="cls-3" d="M523.4,788.4a2.38,2.38,0,0,0-.9-1.3,2.69,2.69,0,0,0-1.5-.5,2.46,2.46,0,0,0-1.5.5,3,3,0,0,0-.9,1.3.57.57,0,1,0,1.1.3,1.28,1.28,0,0,1,.5-.7,1.22,1.22,0,0,1,.9-.3,1.61,1.61,0,0,1,.9.3,1.79,1.79,0,0,1,.5.7.57.57,0,0,0,.7.4.75.75,0,0,0,.2-.7Z"/>
      <path class="cls-3" d="M523.1,791.3a.57.57,0,0,0-.7.4h0a3.1,3.1,0,0,1-.6,1.3.1.1,0,0,1-.1-.1c-.3-2.3-2.6-1.9-3.1.3h0c-.3.9-.6,2.1-1.5,2.3a5.46,5.46,0,0,1-2.6-1,5,5,0,0,1-1.8-2.7.57.57,0,1,0-1.1.3,6,6,0,0,0,2.2,3.2,5.92,5.92,0,0,0,7.4,0,6.61,6.61,0,0,0,2.2-3.2A.53.53,0,0,0,523.1,791.3Z"/>
    </g>
    <g>
      <path class="cls-1" d="M528,840.9a5.25,5.25,0,0,0-2.3.6,3.19,3.19,0,0,1-1.4.3,20.34,20.34,0,0,1-3.3-.5,2.77,2.77,0,0,0-.9-.1c-1.2,0-2.1.6-3.5.6h-.1a5.26,5.26,0,0,1-1.7-.4,4.71,4.71,0,0,0-1.6-.4,2.2,2.2,0,0,0-1.3.4,4.62,4.62,0,0,1-2.3.7,5.85,5.85,0,0,1-1.9-.4,7.88,7.88,0,0,0-2.3-.4,3.73,3.73,0,0,0-1.2.2.1.1,0,0,0-.1.1v.3a1.69,1.69,0,0,0,1.7,1.7,110.51,110.51,0,0,0,23,0,1.69,1.69,0,0,0,1.7-1.7v-.4h-.2a4.8,4.8,0,0,1-1.7-.5c-.1-.1-.4-.1-.6-.1"/>
      <path class="cls-83" d="M530,837.6h0l-12.7,1.5-12.7-1.5a1.16,1.16,0,0,0-1.2,1.2,1.3,1.3,0,0,0,.8,1.2h.1l26.2-.1a1.23,1.23,0,0,0,.7-1.1,1.22,1.22,0,0,0-1.2-1.2"/>
      <path class="cls-83" d="M530,834.8H504.6a1.2,1.2,0,1,0,0,2.4H530a1.2,1.2,0,0,0,0-2.4"/>
      <path class="cls-84" d="M503.8,839.9a1.3,1.3,0,0,0-1.3.8c-.4.7.1,1,.7,1a2.92,2.92,0,0,0,.9-.2.1.1,0,0,0,.1-.1,2.17,2.17,0,0,1,1.2-.2,7.88,7.88,0,0,1,2.3.4,4.88,4.88,0,0,0,1.9.4,4.62,4.62,0,0,0,2.3-.7,2.42,2.42,0,0,1,1.3-.4,4.19,4.19,0,0,1,1.6.4,4.71,4.71,0,0,0,1.7.4h.1c1.3-.1,2.3-.6,3.5-.6a2.77,2.77,0,0,1,.9.1,13.22,13.22,0,0,0,3.3.5,3.19,3.19,0,0,0,1.4-.3,5.25,5.25,0,0,1,2.3-.6,2.2,2.2,0,0,1,.8.1,4.8,4.8,0,0,0,1.7.5h.2c.2,0,.3-.1.5-.2.7-.4.6-1.3-.5-1.5h-.1l-26.2.1h-.1c-.2.2-.3.1-.5.1"/>
      <polyline class="cls-85" points="530 837.2 504.6 837.2 504.6 837.6 517.3 839.1 530 837.6 530 837.2"/>
      <polyline class="cls-86" points="507.1 834.1 505.2 834.1 504.9 834.4 505.2 834.8 514.6 834.8 507.1 834.8 506.8 834.4 507.1 834.1"/>
      <polyline class="cls-85" points="516.5 834.1 507.1 834.1 506.8 834.4 507.1 834.8 514.6 834.8 516.5 834.8 516.8 834.4 516.5 834.1"/>
      <polyline class="cls-85" points="528 834.1 518.6 834.1 518.3 834.4 518.6 834.8 528 834.8 528.3 834.4 528 834.1"/>
      <path class="cls-1" d="M518.2,828.4l-.3-.2v-.5l.4.3-.1.4m-5.5-.3-.1-.3.4-.3v.5l-.3.1m2.9,0-.2-.3.3-.4.1.5-.2.2m-1.5-.9-.3-.2v-.5l.4.3-.1.4m6.9-.1-.3-.2v-.5l.4.3-.1.4m-2.2-.2-.2-.2.1-.5.3.4-.2.3m-8.6-.2.1-.3.5-.1-.2.4h-.4m2.1.1-.1-.3.4-.3v.5l-.3.1m10.4-.3-.3-.1-.2-.5.5.2v.4m-5.7-.1-.3-.2v-.5l.4.3-.1.4m4.3-1.6h-8a9.35,9.35,0,0,0-9.3,9.3h26.5a9.2,9.2,0,0,0-9.2-9.3"/>
      <polyline class="cls-87" points="512.6 826.1 512.3 826.4 512.3 826.8 512.7 826.6 512.6 826.1"/>
      <polyline class="cls-87" points="513.8 826.6 513.8 827 514.1 827.2 514.2 826.9 513.8 826.6"/>
      <polyline class="cls-87" points="520.7 826.4 520.7 826.9 521 827.1 521.1 826.8 520.7 826.4"/>
      <polyline class="cls-87" points="516.7 825.8 516.7 826.3 517 826.4 517.1 826.1 516.7 825.8"/>
      <polyline class="cls-87" points="518.7 826.2 518.6 826.7 518.8 826.9 519 826.6 518.7 826.2"/>
      <polyline class="cls-87" points="517.9 827.8 517.9 828.3 518.2 828.4 518.3 828.1 517.9 827.8"/>
      <polyline class="cls-87" points="522.2 825.9 522.3 826.4 522.7 826.5 522.6 826.1 522.2 825.9"/>
      <polyline class="cls-87" points="513 827.4 512.6 827.7 512.7 828.1 513 827.9 513 827.4"/>
      <polyline class="cls-87" points="510.7 826.2 510.3 826.3 510.2 826.7 510.5 826.6 510.7 826.2"/>
      <polyline class="cls-87" points="515.7 827.4 515.5 827.8 515.6 828.1 515.9 827.9 515.7 827.4"/>
    </g>
  </g>
</svg>
