<?xml version="1.0" encoding="UTF-8"?>
<svg version="1.1" viewBox="0 0 927.11 508.99" xmlns="http://www.w3.org/2000/svg" xmlns:xlink="http://www.w3.org/1999/xlink">
 <defs>
  <style>.cls-1 {
        isolation: isolate;
      }

      .cls-17, .cls-18, .cls-2 {
        fill: none;
        stroke-linecap: round;
        stroke-miterlimit: 10;
      }

      .cls-2 {
        stroke: #c9e4f4;
        stroke-width: 3px;
      }

      .cls-3 {
        opacity: 0.43;
        fill: url(#linear-gradient);
      }

      .cls-4 {
        fill: #fff4c0;
      }

      .cls-5 {
        fill: #fcfbe3;
      }

      .cls-6 {
        fill: #fffef5;
      }

      .cls-7 {
        fill: url(#linear-gradient-2);
      }

      .cls-8 {
        fill: url(#linear-gradient-3);
      }

      .cls-9 {
        mix-blend-mode: multiply;
      }

      .cls-10 {
        fill: #f9c675;
      }

      .cls-11 {
        fill: #fce7c5;
      }

      .cls-12 {
        fill: #fff;
      }

      .cls-13 {
        fill: url(#linear-gradient-4);
      }

      .cls-14 {
        fill: url(#linear-gradient-5);
      }

      .cls-15 {
        fill: url(#linear-gradient-6);
      }

      .cls-16 {
        fill: #ffcb00;
        opacity: 0.8;
      }

      .cls-17 {
        stroke: url(#linear-gradient-7);
      }

      .cls-18 {
        stroke-width: 2px;
        opacity: 0.63;
        stroke: url(#linear-gradient-8);
      }

      .cls-19 {
        fill: #8cc63f;
      }</style>
  <linearGradient id="linear-gradient" x1="154.84" x2="573.39" y1="458.68" y2="154.59" gradientUnits="userSpaceOnUse">
   <stop stop-color="#fff" stop-opacity="0" offset="0"/>
   <stop stop-color="#fff9e8" stop-opacity=".22" offset=".2"/>
   <stop stop-color="#ffeebe" stop-opacity=".64" offset=".6"/>
   <stop stop-color="#ffe7a3" stop-opacity=".9" offset=".87"/>
   <stop stop-color="#ffe499" offset="1"/>
  </linearGradient>
  <linearGradient id="linear-gradient-2" x1="488.37" x2="610.56" y1="293.29" y2="81.65" gradientTransform="rotate(6.02 354.58 -254.36)" gradientUnits="userSpaceOnUse">
   <stop stop-color="#c97b2a" offset="0"/>
   <stop stop-color="#eaba81" offset=".17"/>
   <stop stop-color="#e8b67b" offset=".24"/>
   <stop stop-color="#e3ab6c" offset=".32"/>
   <stop stop-color="#db9a52" offset=".41"/>
   <stop stop-color="#d0812e" offset=".51"/>
   <stop stop-color="#cf7f2b" offset=".52"/>
   <stop stop-color="#7d4e24" offset="1"/>
  </linearGradient>
  <linearGradient id="linear-gradient-3" x1="482.24" x2="602.89" y1="261.56" y2="52.58" gradientTransform="rotate(6.02 354.37 -258.35)" gradientUnits="userSpaceOnUse">
   <stop stop-color="#fff" offset="0"/>
   <stop stop-color="#ffe7a6" offset=".45"/>
   <stop stop-color="#ffe499" offset=".52"/>
   <stop stop-color="#eaad53" offset="1"/>
  </linearGradient>
  <linearGradient id="linear-gradient-4" x1="547.76" x2="551.62" y1="100.47" y2="174.05" gradientTransform="rotate(5.62 483.11 -334.65)" gradientUnits="userSpaceOnUse">
   <stop stop-color="#f2d480" offset=".19"/>
   <stop stop-color="#f3d479" offset=".22"/>
   <stop stop-color="#fccd22" offset=".56"/>
   <stop stop-color="#ffcb00" offset=".72"/>
  </linearGradient>
  <linearGradient id="linear-gradient-5" x1="534.91" x2="535.96" y1="113.94" y2="134.01" gradientTransform="rotate(3.33 591.1 352.44)" gradientUnits="userSpaceOnUse">
   <stop stop-color="#fcfbe3" stop-opacity=".2" offset="0"/>
   <stop stop-color="#fafafa" offset="1"/>
  </linearGradient>
  <linearGradient id="linear-gradient-6" x1="573.87" x2="598.91" y1="122.73" y2="158.5" gradientTransform="rotate(3.63 447.74 -1092.7)" gradientUnits="userSpaceOnUse">
   <stop stop-color="#f7931e" offset=".19"/>
   <stop stop-color="#fbb10e" offset=".41"/>
   <stop stop-color="#fec404" offset=".59"/>
   <stop stop-color="#ffcb00" offset=".72"/>
  </linearGradient>
  <linearGradient id="linear-gradient-7" x1="638" x2="645.71" y1="190.06" y2="190.06" gradientTransform="rotate(3.63 419.12 -1996)" xlink:href="#linear-gradient-5"/>
  <linearGradient id="linear-gradient-8" x1="647.87" x2="671.51" y1="228.92" y2="228.92" gradientTransform="rotate(3.63 411.44 -2238.2)" xlink:href="#linear-gradient-5"/>
  <linearGradient id="linearGradient960" x1="534.91" x2="535.96" y1="113.94" y2="134.01" gradientTransform="rotate(3.33 568.22 -434.68)" gradientUnits="userSpaceOnUse" xlink:href="#linear-gradient-5"/>
 </defs>
 <title>404</title>
 <g class="cls-1" transform="translate(-39.45 -53.65)">
  <line class="cls-2" x1="97.97" x2="908.04" y1="113.05" y2="113.05"/>
  <polygon class="cls-3" transform="matrix(.93883 0 0 1.0075 3.1566 -8.0669)" points="230.37 562.64 691.05 316.53 450.37 69.48 39.45 295.1" fill="url(#linear-gradient)"/>
  <path class="cls-4" d="m721 206.51c0 84.42-97.59 143.15-218 143.15s-218-58.73-218-143.15 97.59-152.86 218-152.86 218 68.44 218 152.86z"/>
  <ellipse class="cls-5" cx="503" cy="196.47" rx="217.97" ry="142.82"/>
  <ellipse class="cls-6" cx="503" cy="194.31" rx="170.56" ry="98.35"/>
  <path class="cls-7" d="m384.04 201.68s-15.59 75.32 36.83 92.58c50.57 16.68 101.71 3.05 135.31-18.24 18.14-11.5 33.1-26.95 44.56-40.64 10.72-12.82 18.78-27.65 20-44.34l3.4-47.94z" fill="url(#linear-gradient-2)"/>
  <path class="cls-8" d="m520.3 71.1s-47.39-5.51-84.34 31.9-83.26 124.27-27.71 154.89 165.19-10.95 206-85.06-65.27-99.74-93.95-101.73z" fill="url(#linear-gradient-3)"/>
  <g class="cls-9" transform="translate(-39.325)">
   <path class="cls-10" d="m451.28 222a4.45 4.45 0 0 1-2.45-0.68 4.54 4.54 0 0 1-1.65-2 7.54 7.54 0 0 1-0.57-3 14.51 14.51 0 0 1 2.47-7.61c2.46-3.83 6.08-6.1 8.91-6.1a4.45 4.45 0 0 1 2.45 0.68 4.51 4.51 0 0 1 1.65 2 7.59 7.59 0 0 1 0.57 3 14.54 14.54 0 0 1-2.47 7.61c-2.46 3.83-6.08 6.1-8.91 6.1m6.72-20.37c-3.35 0-7.16 2.51-9.78 6.56a15.49 15.49 0 0 0-2.63 8.15 8.37 8.37 0 0 0 0.66 3.41 5.27 5.27 0 0 0 5 3.27c3.35 0 7.16-2.51 9.78-6.56a15.49 15.49 0 0 0 2.63-8.15 8.3 8.3 0 0 0-0.66-3.41 5.27 5.27 0 0 0-5-3.27"/>
   <path class="cls-10" d="m457.85 240.68a2.78 2.78 0 0 1-1.52-0.42 2.86 2.86 0 0 1-1-1.24 4.8 4.8 0 0 1-0.36-1.9 9.35 9.35 0 0 1 1.6-4.9c1.58-2.48 3.92-3.93 5.69-3.93a2.77 2.77 0 0 1 1.51 0.42 2.74 2.74 0 0 1 1 1.24 4.77 4.77 0 0 1 0.36 1.9 9.44 9.44 0 0 1-1.59 4.9c-1.59 2.47-3.93 3.93-5.7 3.93m4.4-13.39c-2.29 0-4.82 1.7-6.56 4.39a10.3 10.3 0 0 0-1.76 5.44 5.69 5.69 0 0 0 0.45 2.3 3.74 3.74 0 0 0 1.39 1.68 3.79 3.79 0 0 0 2.05 0.58c2.28 0 4.81-1.7 6.56-4.39l-0.37-0.29 0.42 0.27a10.31 10.31 0 0 0 1.75-5.44 5.77 5.77 0 0 0-0.44-2.31 3.8 3.8 0 0 0-1.4-1.67 3.7 3.7 0 0 0-2.05-0.58"/>
   <path class="cls-11" d="m481.5 129c-2 0-4.47 1.57-6.14 4.16-2.21 3.42-2.24 7.33-0.07 8.73a3.23 3.23 0 0 0 1.78 0.5c2 0 4.47-1.57 6.15-4.16 2.2-3.42 2.23-7.33 0.06-8.73a3.23 3.23 0 0 0-1.78-0.5"/>
   <path class="cls-10" d="m540.85 249a4.43 4.43 0 0 1-4.23-2.77 7.6 7.6 0 0 1-0.59-3.09 14.89 14.89 0 0 1 2.54-7.83c2.54-4 6.26-6.29 9.18-6.29a4.6 4.6 0 0 1 2.52 0.7 4.69 4.69 0 0 1 1.71 2.06 7.82 7.82 0 0 1 0.59 3.1 14.93 14.93 0 0 1-2.57 7.82c-2.53 4-6.25 6.29-9.17 6.29m6.9-21c-3.44 0-7.35 2.58-10 6.74a15.93 15.93 0 0 0-2.7 8.38 8.74 8.74 0 0 0 0.67 3.5 5.45 5.45 0 0 0 5.14 3.36c3.44 0 7.35-2.59 10-6.75a15.88 15.88 0 0 0 2.71-8.37 8.57 8.57 0 0 0-0.68-3.5 5.39 5.39 0 0 0-5.14-3.36"/>
   <path class="cls-10" d="m629.15 133.5a3.44 3.44 0 0 1-1.89-0.52 3.51 3.51 0 0 1-1.27-1.54 5.85 5.85 0 0 1-0.45-2.34 11.46 11.46 0 0 1 2-6c1.94-3 4.78-4.8 7-4.8a3.53 3.53 0 0 1 1.89 0.53 3.4 3.4 0 0 1 1.27 1.54 5.81 5.81 0 0 1 0.45 2.34 11.4 11.4 0 0 1-2 6c-1.93 3-4.78 4.8-7 4.8m5.32-16.19c-2.71 0-5.74 2-7.84 5.26a12.39 12.39 0 0 0-2.1 6.53 6.93 6.93 0 0 0 0.52 2.74 4.29 4.29 0 0 0 4.07 2.66c2.71 0 5.75-2 7.84-5.26a12.38 12.38 0 0 0 2.11-6.52 6.73 6.73 0 0 0-0.53-2.74 4.49 4.49 0 0 0-1.65-2 4.4 4.4 0 0 0-2.42-0.69"/>
   <path class="cls-10" d="m509.18 152.16a3.44 3.44 0 0 1-1.89-0.52 3.4 3.4 0 0 1-1.29-1.54 5.85 5.85 0 0 1-0.45-2.34 11.46 11.46 0 0 1 1.95-6c1.93-3 4.78-4.79 7-4.79a3.44 3.44 0 0 1 1.89 0.52 3.4 3.4 0 0 1 1.27 1.54 5.85 5.85 0 0 1 0.45 2.34 11.4 11.4 0 0 1-2 6c-1.93 3-4.78 4.8-7 4.8m5.39-16.17c-2.71 0-5.75 2-7.84 5.25a12.44 12.44 0 0 0-2.11 6.53 6.73 6.73 0 0 0 0.53 2.74 4.29 4.29 0 0 0 4.07 2.66c2.71 0 5.75-2 7.84-5.25a12.44 12.44 0 0 0 2.11-6.53 6.9 6.9 0 0 0-0.53-2.74 4.49 4.49 0 0 0-1.65-2 4.39 4.39 0 0 0-2.42-0.68"/>
   <path class="cls-10" d="m474.52 219.7a3.07 3.07 0 0 1-1.73-0.48 3.13 3.13 0 0 1-1.17-1.41 5.37 5.37 0 0 1-0.41-2.16 10.48 10.48 0 0 1 1.8-5.54c1.79-2.8 4.43-4.45 6.45-4.45a3.06 3.06 0 0 1 2.9 1.9 5.34 5.34 0 0 1 0.41 2.16 10.54 10.54 0 0 1-1.8 5.54c-1.79 2.8-4.43 4.44-6.45 4.44m4.94-15c-2.54 0-5.37 1.89-7.32 4.9a11.52 11.52 0 0 0-2 6.09 6.42 6.42 0 0 0 0.49 2.56 4 4 0 0 0 3.82 2.49c2.54 0 5.37-1.89 7.32-4.9a11.49 11.49 0 0 0 2-6.08 6.42 6.42 0 0 0-0.49-2.56 4 4 0 0 0-3.82-2.5"/>
  </g>
  <path class="cls-12" d="m576.15 116c-1.83-1.91-3.67-3.8-5.42-5.78-6.18-7-27.63-27.66-64.06-26.13-43.79 1.84-72.8 43.7-78.29 68s-16.51 30.09-18.83 46.82 28.47 53.09 105.31 31.39c74.91-21.14 105.43-68.04 61.29-114.3z"/>
  <path class="cls-13" d="m549.99 149.42c-1.81 18.4-24.31 31.25-50.26 28.7s-45.52-19.54-43.71-38 24.34-37.91 50.29-35.35 45.49 26.23 43.68 44.65z" fill="url(#linear-gradient-4)"/>
  <path class="cls-14" d="m484.24 130.88c5.31-5.41 18.75-16.79 38-16.83a0.72 0.72 0 0 0 0.18-1.42c-9.57-2.46-29.62-4.51-39.31 17.48a0.69 0.69 0 0 0 1.13 0.77z" fill="url(#linearGradient960)"/>
  <path class="cls-15" d="m508.39 172.15h0.12c9.59-5.19 16-13.2 17-22.7a30.37 30.37 0 0 0-2.47-14.45l-42.62 3.22z" fill="url(#linear-gradient-6)"/>
  <path class="cls-16" d="m461.95 172.15s24.38 8.85 24.91 24.95 22.45 6.36 22.6 8.19 3.79 26.21 0.76 33 22 13.86 31.86 1.24-13-8.61-16.46-14.81-0.16-22.08-6.84-31.34-12.53-3.13-19-7.69-17.81-14.12-34.41-18.55c0.01 0.03-5.53-2.66-3.42 5.01z"/>
  <path class="cls-17" d="m499.37 204s6-6 7.26-8.5" stroke="url(#linear-gradient-7)"/>
  <path class="cls-18" d="m514.07 235.94s-8.34 10.64-22.14 7" stroke="url(#linear-gradient-8)"/>
  <polyline class="cls-19" transform="translate(-23.1)" points="528.17 152.71 522.85 154.37 524.04 158.19 529.36 156.52"/>
  <polyline class="cls-19" transform="translate(-44.635)" points="545.72 156.86 545.56 160.85 549.55 161.01 549.72 157.03"/>
  <polyline class="cls-19" transform="translate(-34.985)" points="539.28 141.2 535.78 142.03 536.71 145.92 540.2 145.09"/>
  <polyline class="cls-19" transform="translate(-3.735)" points="508.68 142.36 503.86 143.53 504.79 147.41 509.62 146.25"/>
  <polyline class="cls-19" transform="translate(-61.01)" points="563.43 194.87 561.11 199.03 564.6 200.98 566.92 196.83"/>
  <polyline class="cls-19" transform="translate(-123.86)" points="629.28 148.31 623.96 148.97 624.45 152.94 629.77 152.28"/>
  <polyline class="cls-19" transform="translate(-114.47)" points="619.86 106.4 614.7 106.9 615.09 110.88 620.24 110.38"/>
  <polyline class="cls-19" transform="translate(-72.98)" points="573.67 119.8 574.34 124.78 578.3 124.25 577.64 119.27"/>
  <polyline class="cls-19" transform="translate(-38.65)" points="545.25 99.77 538.76 98.61 538.06 102.54 544.54 103.71"/>
  <polyline class="cls-19" transform="translate(-12.46)" points="517.4 169.75 513.07 170.25 513.53 174.23 517.86 173.73"/>
 </g>
</svg>
