<svg xmlns="http://www.w3.org/2000/svg" id="Layer_1" data-name="Layer 1" viewBox="0 0 1267.12 347.98" version="1.1"><defs id="defs49"><clipPath id="clip-path"><path class="cls-1" d="M1103.33 341.75c-.07.48-.16 1-.27 1.42h.41v-1.44h-.16" id="path4"/></clipPath><clipPath id="clip-path-2"><path class="cls-1" d="M339.07 165.9l-1.07 2a9.16 9.16 0 01-12.38 3.79l-18.93-10a5.67 5.67 0 01-2.35-7.66l.05-.09a5.67 5.67 0 017.66-2.35l27 14.33" id="path7"/></clipPath><clipPath id="clip-path-3"><path class="cls-1" id="polyline10" d="M270.93 197.99h39.59v-39.6h-39.59v39.6"/></clipPath><clipPath id="clip-path-4"><path class="cls-1" id="polyline13" d="M310.52 197.99h39.6v-39.6h-39.6v39.6"/></clipPath><clipPath id="clip-path-5"><path class="cls-1" id="polyline16" d="M270.93 158.39h39.59V118.8h-39.59v39.59"/></clipPath><clipPath id="clip-path-6"><path class="cls-1" id="polyline19" d="M310.52 158.39h39.6V118.8h-39.6v39.59"/></clipPath><clipPath id="clip-path-7"><path class="cls-1" d="M377.07 198.78l-58.42-30.73a.54.54 0 01-.23-.72l4.79-9.09a28.23 28.23 0 0138.14-11.85l9.38 4.93a28.23 28.23 0 0111.84 38.14l-4.78 9.09a.53.53 0 01-.72.23" id="path22"/></clipPath><clipPath id="clip-path-9"><path class="cls-1" id="polyline25" d="M350.12 197.99h39.59v-39.6h-39.59v39.6"/></clipPath><clipPath id="clip-path-11"><path class="cls-1" id="polyline28" d="M350.12 158.39h39.59V118.8h-39.59v39.59"/></clipPath><clipPath id="clip-path-12"><path class="cls-1" d="M362.05 183.05l-1.05 2a9.16 9.16 0 003.88 12.36l19 9.9a5.66 5.66 0 007.64-2.4l.05-.1a5.66 5.66 0 00-2.4-7.64l-27.12-14.14" id="path31"/></clipPath><clipPath id="clip-path-13"><path class="cls-1" id="polyline34" d="M350.12 237.58h39.59v-39.59h-39.59v39.59"/></clipPath><clipPath id="clip-path-14"><path class="cls-1" id="polyline37" d="M389.71 237.58h39.6v-39.59h-39.6v39.59"/></clipPath><clipPath id="clip-path-16"><path class="cls-1" id="polyline40" d="M389.71 197.99h39.6v-39.6h-39.6v39.6"/></clipPath><clipPath id="clip-path-17"><path class="cls-1" d="M354.73 187l-31.21-16.42 7.54-14.33a20.34 20.34 0 0127.47-8.54l.52.28a14.34 14.34 0 016 19.36L354.73 187" id="path43"/></clipPath><clipPath id="clip-path-22"><path class="cls-1" d="M374.04 207.63c-3.95 0-8.06 3-10 7.81 2-4.77 6.09-7.81 10-7.81m0 0" id="path46"/></clipPath><style id="style2">.cls-1{fill:none}.cls-2{fill:#ffeec4}.cls-3{fill:#fcbd4d}.cls-4{fill:#ffe1a6}.cls-5{fill:#fd8f04}.cls-6{fill:#fdd307}.cls-7{fill:#5b3103}.cls-9{fill:#1f3440}.cls-18{fill:#faa747}.cls-19{fill:#0c1d24}.cls-20{fill:#fdca66}.cls-21{fill:#d9991d}.cls-23{fill:#bf7e00}.cls-24{fill:#4e8e8c}.cls-25{fill:#69adaa}.cls-27{fill:#4f3102}.cls-28{fill:#cc993e}.cls-32{fill:#ab6d26}.cls-33{fill:#a96316}.cls-34{clip-path:url(#clip-path-4)}.cls-36{clip-path:url(#clip-path-6)}.cls-37{fill:#663606}.cls-38{fill:#cc9a65}.cls-41{fill:#cc8936}.cls-42{fill:#ca7d22}.cls-43{clip-path:url(#clip-path-9)}.cls-44{fill:#aa681f}.cls-45{fill:#a75e10}.cls-46{clip-path:url(#clip-path-11)}.cls-53{fill:#915615}.cls-54{fill:#8f4e07}.cls-56{fill:#7b4a1a}.cls-57{fill:#ffd400}.cls-58{fill:#ffb300}.cls-73{fill:#fde6b7}</style></defs><path class="cls-2" d="M148.27 40.56l-24.83 57.6V29.47a37.42 37.42 0 01-3.69.65 52.23 52.23 0 01-35.51 23.84V333.4h39.2V127.33l36.11-83.77a34.9 34.9 0 01-11.28-3z" id="path53"/><path class="cls-3" d="M142.45 38.5a36.26 36.26 0 0054.45-17.48l-1-.36-.28 1a33.47 33.47 0 008.6 1.13 33.06 33.06 0 0015.54-3.86l-1-1.86a31 31 0 01-14.55 3.61 31.45 31.45 0 01-8.05-1.06l-.93-.25-.33.9a34.14 34.14 0 01-51.27 16.47l-1.2 1.74z" id="path55"/><path class="cls-3" d="M0 28.52a37.18 37.18 0 0045.89 17.81l-.37-1-.61.86a53.28 53.28 0 0075.74-15.49l-.9-.56.13 1.05a36.77 36.77 0 0013-4.13l-1-1.86a34.58 34.58 0 01-12.24 3.89l-.5.07-.27.42a51.14 51.14 0 01-72.72 14.86l-.46-.32-.54.21A35 35 0 011.88 27.57l-1.88 1z" id="path57"/><path class="cls-3" d="M81.39 0a8.41 8.41 0 01-10.9 4.33l-1.08-.45-.34 1.11a10.78 10.78 0 01-21.08-3.15V.78h-12.5v2.11h11.44v-1h-1.05a12.89 12.89 0 0025.21 3.77l-1-.31-.4 1A10.49 10.49 0 0083.33.91L81.4.05z" id="path59"/><path class="cls-4" d="M113.71 148.6a5 5 0 00-2.29-2.49 6.8 6.8 0 00-3.22-.77 7.64 7.64 0 00-4.81 1.66 11.33 11.33 0 00-3.17 4.47 28 28 0 00-1.49 5.12 81.26 81.26 0 00-2 17 44.08 44.08 0 003.77 18.74 12.81 12.81 0 003.65 5 6.87 6.87 0 004.08 1.43 5.28 5.28 0 002.44-.58 6.09 6.09 0 002.13-1.95 11.34 11.34 0 001.24-2.35 22 22 0 001.51-6.21q.39-4 .39-7.95a80.85 80.85 0 00-.75-11 27.05 27.05 0 00-2.59-9.13 4.32 4.32 0 00-7.24-.6 15.71 15.71 0 00-2.69 7.67 50.17 50.17 0 00-.27 5.2 49.08 49.08 0 001.75 12.87 3.38 3.38 0 00.79 1.39 2.85 2.85 0 001.45.83 2.72 2.72 0 00.63.08 2.52 2.52 0 001.32-.38 3.35 3.35 0 001.17-1.33 6.08 6.08 0 00.53-1.47 23.59 23.59 0 00.43-8.36l-2.1.27a20.63 20.63 0 01.18 2.73 21.13 21.13 0 01-.57 4.88 3.61 3.61 0 01-.49 1.22 1.12 1.12 0 01-.26.27l-.21.05h-.16a.73.73 0 01-.39-.23 1.09 1.09 0 01-.28-.49 47 47 0 01-1.64-12.31 45.84 45.84 0 01.27-5 13.58 13.58 0 012.26-6.62 2.15 2.15 0 011.73-.85 2.2 2.2 0 012 1.17 25.08 25.08 0 012.36 8.42 79.69 79.69 0 01.72 10.7 77.18 77.18 0 01-.38 7.75 20.27 20.27 0 01-1.35 5.61 9.82 9.82 0 01-1 1.93 3.91 3.91 0 01-1.38 1.29 3.11 3.11 0 01-1.46.34 4.76 4.76 0 01-2.81-1 11 11 0 01-3-4.22 42 42 0 01-3.58-17.83 80 80 0 012-16.56 26.3 26.3 0 011.22-4.68 9.31 9.31 0 012.56-3.66 5.62 5.62 0 013.47-1.18 4.6 4.6 0 012.21.52 2.93 2.93 0 011.35 1.45l2-.82z" id="path61"/><path class="cls-4" d="M91.62 168.92v-13.54a15.32 15.32 0 016.12-12.25 17.41 17.41 0 007-13.94v-40h-2.11v40a15.3 15.3 0 01-6.13 12.25 17.45 17.45 0 00-7 13.94v13.54z" id="path63"/><path class="cls-4" d="M89.5 181.43v13.54a17.47 17.47 0 007 13.95 15.3 15.3 0 016.13 12.24v12.22h2.11v-12.22a17.44 17.44 0 00-7-13.94 15.32 15.32 0 01-6.12-12.25v-13.54z" id="path65"/><path class="cls-4" d="M121.97 168.92v-15.38a18.83 18.83 0 00-4.25-11.92 16.7 16.7 0 01-3.78-10.59v-29.36h-2.11v29.36a18.86 18.86 0 004.25 11.93 16.65 16.65 0 013.78 10.58v15.38z" id="path67"/><path class="cls-4" id="polyline69" transform="translate(-15.85 -103.67)" d="M118.45 346.1v54.76h2.11V346.1"/><path class="cls-4" id="polyline71" transform="translate(-15.85 -103.67)" d="M108.33 387.47v23.72h2.11v-23.72"/><path class="cls-4" id="polyline73" transform="translate(-15.85 -103.67)" d="M133.63 322.59v29.05h2.11v-29.05"/><path class="cls-4" id="polyline75" transform="translate(-15.85 -103.67)" d="M108.03 168.43v38.99h2.12v-38.99"/><path class="cls-5" d="M1088.82 245.38l2.92-5-2.92 5 2.92-5-2.92 5h.07c.37.22 2.29 1.36 4.94 3.09 2 1.3 4.38 2.93 6.82 4.75a86.7 86.7 0 015.43 4.34 43.79 43.79 0 016.38 6.58 13.73 13.73 0 011.53 2.53 5.67 5.67 0 01.27.78 1.92 1.92 0 01.05.33h.12-.12.12-.12a7.46 7.46 0 01-.37 1.51.53.53 0 01-.08.17l.9.54-.74-.73a1.21 1.21 0 00-.16.19l.9.54-.74-.73 1.62 1.61-.82-2.12a2.56 2.56 0 00-.8.51l1.62 1.61-.82-2.12.66 1.72v-1.86a2 2 0 00-.66.14l.66 1.72v-1.86.58-.58a2.14 2.14 0 01-.37-.09 10 10 0 01-2-1 36.48 36.48 0 01-5.27-4.06 97.67 97.67 0 01-7.61-7.78c-1-1.16-1.85-2.15-2.43-2.84l-.65-.8c-.07-.09-.13-.16-.16-.21l-1.9 1.49 1.9-1.49-1.9 1.49 1.9-1.49-4.75 3.74 4.75-3.74-4.75 3.74 4.75-3.74-9.94 7.83c.05.05 1 1.32 2.67 3.21 1.22 1.42 2.79 3.19 4.59 5.06 1.34 1.41 2.81 2.88 4.37 4.31a52.25 52.25 0 007.49 5.88 24.5 24.5 0 004.24 2.16 16.31 16.31 0 002.4.71 12.81 12.81 0 002.69.3 10.88 10.88 0 004.26-.86 10.2 10.2 0 002.92-1.9 11.23 11.23 0 001.66-1.94 13.88 13.88 0 001.63-3.3 19.72 19.72 0 00.87-3.6 12.37 12.37 0 00.14-1.91 14 14 0 00-.56-3.9 21.5 21.5 0 00-3-6.13 39.71 39.71 0 00-3.71-4.62 74.45 74.45 0 00-7.79-7.17 139.66 139.66 0 00-11.38-8.21c-3.16-2.06-5.32-3.31-5.39-3.35l-6.34 10.95z" id="path77"/><path class="cls-5" id="polyline79" transform="translate(-15.85 -103.67)" d="M1086.35 337.34h-24.21v-15.37h24.21v15.37"/><path class="cls-5" d="M1071.78 137.09v4.79a3.11 3.11 0 01-2.71 3.14 3 3 0 01-3.32-3v-8a1.33 1.33 0 00-1-1.29c-1.1-.24-2.23-.42-3.36-.56a1.33 1.33 0 00-1.5 1.32v8.42a3.11 3.11 0 01-2.7 3.14 3 3 0 01-3.33-3v-8.56a1.33 1.33 0 00-1.5-1.32c-1.13.14-2.25.32-3.36.56a1.33 1.33 0 00-1 1.29v7.89a3.11 3.11 0 01-2.7 3.14 3 3 0 01-3.33-3v-4.93a1.33 1.33 0 00-1.92-1.19 37.12 37.12 0 00-20.26 33.08v27.02a28.2 28.2 0 0028.2 28.21h17.83a28.21 28.21 0 0028.21-28.21v-27.05a37.11 37.11 0 00-20.27-33.08 1.33 1.33 0 00-1.92 1.19" id="path81"/><path class="cls-6" d="M1078.85 246.8l-1-6.17.94 6.19h.11l-1-6.17.94 6.19-.33-2.17.31 2.17-.33-2.17.31 2.17a15 15 0 011.58-.08 19.49 19.49 0 015.75.88 17.55 17.55 0 016.88 4l12.82-13.61a36.28 36.28 0 00-7.09-5.23 36.72 36.72 0 00-10.3-3.9 39.06 39.06 0 00-8.06-.87 29.51 29.51 0 00-4.58.33l3.13 18.43" id="path83"/><path class="cls-7" d="M1046.79 199.23h26.43a1.38 1.38 0 100-2.75h-26.43a1.38 1.38 0 100 2.75" id="path85"/><path class="cls-5" d="M1069.85 296.21h-26.08a11.66 11.66 0 01-11.62-11.65v-53.23h49.39v53.19a11.66 11.66 0 01-11.65 11.65" id="path87"/><path d="M1081.55 297.2h-39.58a9.91 9.91 0 01-9.91-9.91v-22.43h49.49z" id="path89" fill="#162c36"/><path class="cls-6" id="polyline91" transform="translate(-15.85 -103.67)" d="M1097.4 381.18h-49.49v-49.49h49.49v49.49"/><path class="cls-5" id="polyline93" transform="translate(-15.85 -103.67)" d="M1068.25 362.31v72.8h12.65v-72.8"/><path class="cls-9" d="M1065.05 297.2h-13.2v-44.95a6.6 6.6 0 0113.2 0z" id="path95"/><path class="cls-9" d="M1077.68 333.64h-24.18a1.11 1.11 0 01-1.11-1.1v-8.8H1070a8.8 8.8 0 018.79 8.8 1.1 1.1 0 01-1.11 1.1z" id="path97"/><path class="cls-9" id="rect99" d="M1052.4 305.1h13.2v23.53h-13.2z"/><path class="cls-5" id="polyline101" transform="translate(-15.85 -103.67)" d="M1095.19 362.31v72.8h12.65v-72.8"/><path class="cls-9" d="M1091.99 297.2h-13.2v-44.95a6.6 6.6 0 1113.2 0z" id="path103"/><path class="cls-9" d="M1104.62 333.64h-24.18a1.11 1.11 0 01-1.11-1.1v-8.8h17.61a8.8 8.8 0 018.79 8.8 1.11 1.11 0 01-1.11 1.1z" id="path105"/><path class="cls-9" id="rect107" d="M1079.34 305.1h13.2v23.53h-13.2z"/><path class="cls-5" d="M1016.61 235.13a46.16 46.16 0 00-9.45 6.37 49.41 49.41 0 00-8.65 9.89l10.52 7a36.68 36.68 0 016.43-7.37 34.37 34.37 0 016.89-4.65l-5.74-11.26z" id="path109"/><path class="cls-6" d="M1037.47 228.33a29.37 29.37 0 00-4.58-.33 38.61 38.61 0 00-11.32 1.73 36.23 36.23 0 00-14.13 8.27l12.83 13.61a17.48 17.48 0 013.45-2.55 18.1 18.1 0 015.07-1.92 20.25 20.25 0 014.1-.44 12.88 12.88 0 011.35.06h.23l.68-4.76-.8 4.74h.12l.68-4.76-.8 4.74 3.12-18.43z" id="path111"/><path class="cls-2" d="M1070.9 252.46h-11.75a16.73 16.73 0 01-16.73-16.74v-7.7h45.18v7.7a16.73 16.73 0 01-16.74 16.74" id="path113"/><path d="M1042.46 232.73a3.22 3.22 0 011.57.36 5.1 5.1 0 01.88.63 10.91 10.91 0 001.53 1.23 4.69 4.69 0 002.47.66 4.74 4.74 0 002.26-.54 6.3 6.3 0 001.13-.81 10.75 10.75 0 011.34-1.08 3 3 0 011.72-.45 3.26 3.26 0 011.58.36 5.52 5.52 0 01.88.63 10.78 10.78 0 001.52 1.23 4.75 4.75 0 002.48.66 4.7 4.7 0 002.25-.54 6 6 0 001.14-.81 11.5 11.5 0 011.33-1.08 3.1 3.1 0 011.73-.45 3.26 3.26 0 011.58.36 5.52 5.52 0 01.88.63 10.78 10.78 0 001.52 1.23 4.75 4.75 0 002.48.66 4.7 4.7 0 002.25-.54 6 6 0 001.14-.81 11.5 11.5 0 011.33-1.08 3.12 3.12 0 011.73-.45 3.24 3.24 0 011.58.36 4.68 4.68 0 01.88.64 12.39 12.39 0 001.53 1.22 4.72 4.72 0 002.47.66v-1.44a3.18 3.18 0 01-1.58-.37 4.89 4.89 0 01-.87-.63 12.39 12.39 0 00-1.53-1.22 4.64 4.64 0 00-2.51-.62 4.59 4.59 0 00-2.25.54 6 6 0 00-1.14.81 11.5 11.5 0 01-1.33 1.08 3.27 3.27 0 01-1.73.45 3.15 3.15 0 01-1.58-.37 4.62 4.62 0 01-.88-.63 11.53 11.53 0 00-1.52-1.22 4.66 4.66 0 00-2.48-.66 4.56 4.56 0 00-2.25.54 6 6 0 00-1.14.81 11.5 11.5 0 01-1.33 1.08 3.3 3.3 0 01-1.73.45 3.15 3.15 0 01-1.58-.37 4.62 4.62 0 01-.88-.63 11.53 11.53 0 00-1.52-1.22 4.66 4.66 0 00-2.48-.66 4.59 4.59 0 00-2.25.54 6 6 0 00-1.14.81 10 10 0 01-1.33 1.08 3.27 3.27 0 01-1.73.45 3.15 3.15 0 01-1.58-.37 4.89 4.89 0 01-.87-.63 12.39 12.39 0 00-1.53-1.22 4.62 4.62 0 00-2.47-.66v1.44" id="path115" fill="#0071c1"/><g clip-path="url(#clip-path)" id="g119" transform="translate(-15.85 -103.67)"><path id="rect117" d="M1103.06 341.75h.43v1.44h-.43z" fill="#7da87a"/></g><path d="M1081.21 235.21a4.63 4.63 0 00-2.24.53 6 6 0 00-1.14.81 11.5 11.5 0 01-1.33 1.08 3.1 3.1 0 01-1.73.45 3.26 3.26 0 01-1.58-.36 5.1 5.1 0 01-.88-.63 10.78 10.78 0 00-1.52-1.23 4.67 4.67 0 00-2.45-.65 4.63 4.63 0 00-2.24.53 6 6 0 00-1.14.81 11.5 11.5 0 01-1.33 1.08 3.12 3.12 0 01-1.73.45 3.26 3.26 0 01-1.58-.36 5.1 5.1 0 01-.88-.63 10.78 10.78 0 00-1.52-1.23 4.67 4.67 0 00-2.45-.65 4.63 4.63 0 00-2.24.53 6 6 0 00-1.14.81 10 10 0 01-1.33 1.08 3.1 3.1 0 01-1.73.45 3.26 3.26 0 01-1.58-.36 5.45 5.45 0 01-.87-.63 11.53 11.53 0 00-1.53-1.23 4.64 4.64 0 00-2.45-.65v1.43a3.13 3.13 0 011.55.37 4.62 4.62 0 01.88.63 10.9 10.9 0 001.53 1.22 4.55 4.55 0 002.45.66 4.69 4.69 0 002.24-.53 6.84 6.84 0 001.13-.81 10 10 0 011.34-1.09 3.21 3.21 0 011.72-.45 3.26 3.26 0 011.58.37 5 5 0 01.88.63 10.77 10.77 0 001.52 1.22 4.58 4.58 0 002.45.66 4.63 4.63 0 002.24-.53 6.54 6.54 0 001.14-.81 10.68 10.68 0 011.33-1.09 3.55 3.55 0 013.31-.08 5 5 0 01.88.63 10.77 10.77 0 001.52 1.22 4.58 4.58 0 002.45.66 4.63 4.63 0 002.24-.53 6.54 6.54 0 001.14-.81 10.68 10.68 0 011.33-1.09 3.3 3.3 0 011.73-.45 3.23 3.23 0 011.58.37 4.62 4.62 0 01.88.63 11.52 11.52 0 001.53 1.22 4.51 4.51 0 002 .64c.11-.46.2-.94.27-1.42a3.11 3.11 0 01-1.42-.36 5.45 5.45 0 01-.87-.63 11.53 11.53 0 00-1.53-1.23 4.67 4.67 0 00-2.45-.65" id="path123" fill="#7fb5c5"/><path id="polyline125" transform="translate(-15.85 -103.67)" fill="#fc4c01" d="M1047.91 350.95h3.85v-.55h-3.85"/><path class="cls-5" d="M1084.74 258.64h15.12v-8a8 8 0 00-8-8h-7.15a8 8 0 100 15.94z" id="path127"/><path class="cls-5" d="M998.51 251.39a26.12 26.12 0 00-4.63 14.39 20.4 20.4 0 001 6.33 17.39 17.39 0 002 4.22 15.41 15.41 0 005.08 4.88 14.08 14.08 0 007.08 1.91 15.22 15.22 0 005-.87 18.34 18.34 0 004.14-2.05 26.93 26.93 0 006.42-6.09 55.28 55.28 0 007.93-15.1 127.76 127.76 0 005.79-23.52l-12.49-2a122.86 122.86 0 01-4.42 19 59.64 59.64 0 01-3.93 9.38 23.18 23.18 0 01-5.51 7.22 7.25 7.25 0 01-1.89 1.14 2.86 2.86 0 01-1.05.23 1.37 1.37 0 01-.64-.15 2 2 0 01-.52-.4 4.1 4.1 0 01-.89-1.48 7.69 7.69 0 01-.44-2.66 13.42 13.42 0 012.5-7.37l-10.52-7z" id="path129"/><path d="M1068.08 199.33c0 2.87-3.16 2.87-3.16 5.74s3.16 2.87 3.16 5.74-3.16 2.88-3.16 5.75 3.16 2.87 3.16 5.74-3.16 2.88-3.16 5.75h-14.89c0-2.87 3.15-2.87 3.15-5.75s-3.15-2.87-3.15-5.74 3.15-2.87 3.15-5.75-3.15-2.87-3.15-5.74 3.15-2.87 3.15-5.74h14.9" id="path131" fill="#ffd57b"/><path class="cls-2" d="M1060.49 199.33a2.44 2.44 0 01-.4 1.4 12.73 12.73 0 01-1.6 1.64 4.05 4.05 0 00-.8 1.11 3.58 3.58 0 00-.35 1.59 3.62 3.62 0 00.58 2 13 13 0 001.73 1.79 3.61 3.61 0 01.61.83 2.57 2.57 0 01.23 1.11 2.45 2.45 0 01-.4 1.41 12.71 12.71 0 01-1.6 1.63 4.11 4.11 0 00-.8 1.12 3.52 3.52 0 00-.35 1.59 3.65 3.65 0 00.58 2 13 13 0 001.73 1.79 3.41 3.41 0 01.61.83 2.54 2.54 0 01.23 1.11 2.45 2.45 0 01-.4 1.41 12.1 12.1 0 01-1.6 1.63 4.11 4.11 0 00-.8 1.12 3.58 3.58 0 00-.35 1.59h1.1a2.4 2.4 0 01.4-1.4 12.75 12.75 0 011.6-1.64 4.36 4.36 0 00.81-1.12 3.66 3.66 0 00.34-1.59 3.49 3.49 0 00-.58-2 12.41 12.41 0 00-1.73-1.79 3.13 3.13 0 01-.6-.83 2.4 2.4 0 01-.24-1.11 2.45 2.45 0 01.4-1.41 13.41 13.41 0 011.6-1.63 4.36 4.36 0 00.81-1.12 3.66 3.66 0 00.34-1.59 3.46 3.46 0 00-.58-2 12.52 12.52 0 00-1.73-1.8 3.13 3.13 0 01-.6-.83 2.67 2.67 0 01.16-2.51 13.43 13.43 0 011.6-1.64 4.48 4.48 0 00.81-1.11 3.73 3.73 0 00.34-1.59h-1.1" id="path133"/><path d="M1057.43 199.33h-1a2.45 2.45 0 01-.4 1.41 12.78 12.78 0 01-1.6 1.64 4.48 4.48 0 00-.81 1.11 3.65 3.65 0 00-.34 1.58 3.47 3.47 0 00.58 2 13 13 0 001.72 1.8 3 3 0 01.61.83 2.73 2.73 0 01-.16 2.54 13.46 13.46 0 01-1.6 1.64 4.48 4.48 0 00-.81 1.11 3.65 3.65 0 00-.34 1.58 3.5 3.5 0 00.58 2 13 13 0 001.72 1.8 2.82 2.82 0 01.61.83 2.73 2.73 0 01-.16 2.54 12.78 12.78 0 01-1.6 1.64 4.48 4.48 0 00-.81 1.11 3.65 3.65 0 00-.34 1.58h1.05a2.42 2.42 0 01.41-1.42 12.73 12.73 0 011.6-1.64 4.05 4.05 0 00.8-1.11 3.65 3.65 0 00.34-1.58 3.42 3.42 0 00-.58-2 13 13 0 00-1.72-1.8 3.23 3.23 0 01-.61-.83 2.48 2.48 0 01-.24-1.12 2.39 2.39 0 01.41-1.42 12.12 12.12 0 011.6-1.64 4.05 4.05 0 00.8-1.11 3.65 3.65 0 00.34-1.58 3.42 3.42 0 00-.58-2 12.92 12.92 0 00-1.72-1.79 3.46 3.46 0 01-.61-.84 2.69 2.69 0 01.17-2.54 12.73 12.73 0 011.6-1.64 3.91 3.91 0 00.8-1.11 3.6 3.6 0 00.34-1.57" id="path135" fill="#ffe8b0"/><path d="M1066.01 199.33h-1a2.46 2.46 0 01-.41 1.41 12.78 12.78 0 01-1.6 1.64 4.21 4.21 0 00-.8 1.11 3.51 3.51 0 00-.35 1.58 3.55 3.55 0 00.58 2 12.51 12.51 0 001.73 1.8 3.41 3.41 0 01.61.83 2.61 2.61 0 01.24 1.12 2.47 2.47 0 01-.41 1.42 13.46 13.46 0 01-1.6 1.64 4.21 4.21 0 00-.8 1.11 3.51 3.51 0 00-.35 1.58 3.58 3.58 0 00.58 2 12.51 12.51 0 001.72 1.76 3.23 3.23 0 01.61.83 2.61 2.61 0 01.24 1.12 2.47 2.47 0 01-.41 1.42 12.78 12.78 0 01-1.6 1.64 4.21 4.21 0 00-.8 1.11 3.51 3.51 0 00-.35 1.58h1a2.49 2.49 0 01.41-1.42 14.22 14.22 0 011.6-1.64 4.05 4.05 0 00.8-1.11 3.51 3.51 0 00.35-1.58 3.58 3.58 0 00-.58-2 12.51 12.51 0 00-1.73-1.8 3.23 3.23 0 01-.61-.83 2.77 2.77 0 01-.24-1.12 2.47 2.47 0 01.41-1.42 13.46 13.46 0 011.6-1.64 4.05 4.05 0 00.8-1.11 3.51 3.51 0 00.35-1.58 3.58 3.58 0 00-.58-2 12.4 12.4 0 00-1.73-1.79 3.46 3.46 0 01-.61-.84 2.7 2.7 0 01-.24-1.12 2.49 2.49 0 01.41-1.42 14.22 14.22 0 011.6-1.64 3.91 3.91 0 00.8-1.11 3.46 3.46 0 00.35-1.57" id="path137" fill="#ffe4a7"/><path class="cls-2" d="M1061.57 199.33h-1.05a2.46 2.46 0 01-.41 1.41 12.78 12.78 0 01-1.6 1.64 4.21 4.21 0 00-.8 1.11 3.51 3.51 0 00-.35 1.58 3.55 3.55 0 00.58 2 12.51 12.51 0 001.73 1.8 3.41 3.41 0 01.61.83 2.61 2.61 0 01.24 1.12 2.47 2.47 0 01-.41 1.42 13.46 13.46 0 01-1.6 1.64 4.21 4.21 0 00-.8 1.11 3.51 3.51 0 00-.35 1.58 3.58 3.58 0 00.58 2 12.51 12.51 0 001.73 1.8 3.23 3.23 0 01.61.83 2.61 2.61 0 01.24 1.12 2.47 2.47 0 01-.41 1.42 12.78 12.78 0 01-1.6 1.64 4.21 4.21 0 00-.8 1.11 3.51 3.51 0 00-.35 1.58h1.06a2.49 2.49 0 01.4-1.42 14.22 14.22 0 011.6-1.64 4.3 4.3 0 00.81-1.11 3.65 3.65 0 00.34-1.58 3.58 3.58 0 00-.58-2 13 13 0 00-1.72-1.8 3.05 3.05 0 01-.62-.83 2.62 2.62 0 01-.23-1.12 2.47 2.47 0 01.4-1.42 13.46 13.46 0 011.6-1.64 4.3 4.3 0 00.81-1.11 3.65 3.65 0 00.34-1.58 3.58 3.58 0 00-.58-2 12.92 12.92 0 00-1.72-1.79 3.26 3.26 0 01-.62-.84 2.56 2.56 0 01-.23-1.12 2.49 2.49 0 01.4-1.42 14.22 14.22 0 011.6-1.64 4.13 4.13 0 00.81-1.11 3.6 3.6 0 00.34-1.57" id="path139"/><path class="cls-18" d="M1045.2 204.12a5.72 5.72 0 002.54-8.46 5.88 5.88 0 00-2.51-2.06 1.93 1.93 0 00-1.5 3.55 1.85 1.85 0 01.82.67 1.86 1.86 0 010 2.07 1.87 1.87 0 01-.82.68 1.923 1.923 0 101.48 3.55z" id="path141"/><path class="cls-5" d="M1041.26 240.17h-15.58v-9.95a5.12 5.12 0 015.12-5.12h14.87a5.11 5.11 0 015.11 5.12v.43a9.52 9.52 0 01-9.52 9.52z" id="path143"/><path class="cls-19" id="polygon145" transform="translate(-15.85 -103.67)" d="M1050.63 331.93l-1.17-2.32 42.64-18.37.46.86z"/><path class="cls-18" d="M1076.29 200.57a1.87 1.87 0 01-.82-.68 1.76 1.76 0 01-.32-1 1.81 1.81 0 01.31-1 1.85 1.85 0 01.82-.67 1.93 1.93 0 00-1.5-3.55 5.82 5.82 0 00-2.51 2.06 5.7 5.7 0 002.54 8.46 1.923 1.923 0 101.48-3.55z" id="path147"/><path class="cls-19" id="polygon149" transform="translate(-15.85 -103.67)" d="M1052.38 336.31l-1.37-2.21 40.85-22.05.54.82z"/><path class="cls-5" d="M1030.4 229.68l3.3-3.89a1.77 1.77 0 012.11-.46l4.16 1.92a2.204 2.204 0 001.85-4l-4.16-1.92a6.15 6.15 0 00-7.31 1.61l-3.3 3.89a2.2 2.2 0 103.35 2.84z" id="path151"/><path class="cls-7" d="M1033.99 175.63v3.8a1.93 1.93 0 003.85 0v-3.8a1.93 1.93 0 00-3.85 0" id="path153"/><path class="cls-7" d="M1060.61 175.63v3.8a1.93 1.93 0 003.85 0v-3.8a1.93 1.93 0 00-3.85 0" id="path155"/><path class="cls-20" d="M302.73 145.18c0 .12-.49 2.42-1 6.05a113.24 113.24 0 00-.94 14.09 83.73 83.73 0 00.6 10.08 56.59 56.59 0 001.52 7.74 35.6 35.6 0 004.95 11 25.27 25.27 0 004.16 4.7 23.65 23.65 0 005.49 3.62 16 16 0 003.15 1.12 14.11 14.11 0 003.3.39 13.83 13.83 0 005.58-1.17 17.25 17.25 0 004.26-2.67 24.71 24.71 0 003.19-3.28 41.58 41.58 0 004.68-7.43 96 96 0 005.95-15.55 217.66 217.66 0 005.35-22.91c1.15-6.37 1.71-10.73 1.72-10.81l-12.54-1.61 1.57.2-1.57-.2 1.57.2-1.57-.2s-.46 3.65-1.41 9c-.71 4-1.69 9-2.95 14.21-.94 3.9-2 7.91-3.28 11.68-.93 2.83-1.94 5.52-3 7.91a44.57 44.57 0 01-2.46 4.81 24.44 24.44 0 01-1.84 2.67 9.16 9.16 0 01-2.24 2.13 3.19 3.19 0 01-.64.31 1.29 1.29 0 01-.36.05 2 2 0 01-.37 0 3.65 3.65 0 01-.65-.24 11.24 11.24 0 01-2.31-1.48 14.07 14.07 0 01-3.22-4 29.4 29.4 0 01-3.07-9.21 62.46 62.46 0 01-.9-11.06 101.54 101.54 0 01.83-12.48c.21-1.62.42-2.93.57-3.82l.18-1v-.3l-2.77-.57 2.77.57-2.77-.57 2.77.57-12.39-2.53z" id="path157"/><path class="cls-21" d="M290.04 146.56c0 .27-.28 3.32-.28 8 0 3.28.13 7.34.58 11.81a92.9 92.9 0 001.7 10.62 68.24 68.24 0 002.42 8.36 46.11 46.11 0 006.57 12.29 35.16 35.16 0 005.2 5.47 31.32 31.32 0 006.72 4.33 21.33 21.33 0 004.24 1.51 20 20 0 004.57.54 19.59 19.59 0 005.05-.67 20.78 20.78 0 004.19-1.65 24.68 24.68 0 006-4.53 34.07 34.07 0 003.8-4.63 56.31 56.31 0 004.94-8.93 113.38 113.38 0 005.26-14.65c1.45-5 2.64-9.93 3.61-14.47l-23.13-4.93c-.86 4.06-1.92 8.45-3.14 12.66-.92 3.15-1.93 6.21-3 8.92a52.56 52.56 0 01-2.44 5.37 25.17 25.17 0 01-1.7 2.8 9.33 9.33 0 01-1 1.19 3.38 3.38 0 01-.35.33l1.28 1.88-.72-2.14a2.19 2.19 0 00-.56.26l1.28 1.88-.72-2.14 1.34 4v-4.19a4.31 4.31 0 00-1.34.22l1.34 4v-.25l.92-3.83a3.93 3.93 0 00-.92-.11v3.94l.92-3.83-.5 2.09.93-1.95a1.83 1.83 0 00-.43-.14l-.5 2.09.93-1.95a8 8 0 01-2-1.34 11.84 11.84 0 01-1.72-2 24.14 24.14 0 01-2.81-5.65 54.86 54.86 0 01-2.58-11.58 90.46 90.46 0 01-.63-11c0-1.87.05-3.41.1-4.45 0-.52.05-.91.07-1.16.02-.25 0-.21 0-.26l-.74-.06.74.06-.74-.06.74.06-8-.69 8 .71-8-.69 8 .71-23.56-2.08z" id="path159"/><path id="rect161" fill="#ab6900" d="M289.46 133.39h34.25v9.7h-34.25z"/><path class="cls-23" id="rect163" d="M272.82 215.71h48.93v45.72h-48.93z"/><path class="cls-24" d="M291.4 206.48l-8.45 50.51a14.29 14.29 0 01-3 6.65l-.17.21-23.85 34.21 12.22 8.49 23.69-34-6.13-4.22 5.77 4.68a29.25 29.25 0 006.12-13.56l8.45-50.51-14.65-2.45z" id="path165"/><path class="cls-21" d="M327.66 261.43h-15.57v-121.2h8.06a7.49 7.49 0 017.49 7.5z" id="path167"/><path class="cls-20" d="M288.23 154.48h25.17v-28.6l-16.62-15.15-6.75 11.95a14 14 0 00-1.8 6.87z" id="path169"/><path class="cls-23" d="M312.07 180.72l11.55-19.63-5.77-4.68 8.56-1.74-.93-17.42a4.07 4.07 0 00-4.07-3.86l-9.34 7z" id="path171"/><path class="cls-20" d="M292.97 125.85l5.72 4.47a26.67 26.67 0 0035.08-2l18.75-18.33c16.93-16.51 18.63-43.21 1.63-56.49-17-13.28-42.48-5.2-54.47 15.21l-13.27 22.62a26.67 26.67 0 006.56 34.52" id="path173"/><path class="cls-24" d="M313.39 217.08h-29.5a9.91 9.91 0 01-9.91-9.91v-8.84h49.49V207a10.08 10.08 0 01-10.08 10.08z" id="path175"/><path class="cls-19" id="polygon177" transform="translate(-15.85 -103.67)" d="M300.35 253.5h28.46l10.51 48.56h-49.49z"/><path class="cls-20" id="polyline179" transform="translate(-15.85 -103.67)" d="M274.9 399.64l-17.71 27.89 10.68 6.78 17.71-27.89"/><path class="cls-20" id="polyline181" transform="translate(-15.85 -103.67)" d="M336.84 400.94v34.18h12.65v-34.18"/><path class="cls-9" d="M261.5 333.5h-9.14l-11.27-7.17a1.1 1.1 0 01-.34-1.53l4.71-7.42 14.86 9.43c.55.46 6.75 2.63 4.15 6.73 0-.02-2.32-.06-2.97-.04z" id="path183"/><path class="cls-24" d="M307.25 209.71l12.69 45.25a8 8 0 01.3 2.18v42h14.85v-42a22.67 22.67 0 00-.86-6.19l-12.69-45.25-14.29 4z" id="path185"/><path class="cls-9" d="M346.28 333.65h-24.13a1.11 1.11 0 01-1.11-1.11v-8.79h17.6a8.79 8.79 0 018.8 8.79 1.11 1.11 0 01-1.16 1.11z" id="path187"/><path class="cls-25" transform="rotate(-57.59)" id="rect189" d="M-117.748 375.255h7.9v15.59h-7.9z"/><path class="cls-25" id="rect191" d="M319.79 297.27h15.59v7.9h-15.59z"/><path class="cls-20" d="M285.25 149.87a54.61 54.61 0 00-22.47-4.79 56.78 56.78 0 00-17 2.62 52.73 52.73 0 00-11.18 4.95 41.38 41.38 0 00-12.75 11.42 30.2 30.2 0 00-3.83 7.34 25.06 25.06 0 00-1.42 8.23 24.4 24.4 0 001.15 7.36 29.19 29.19 0 006 10.37 47.18 47.18 0 0010.9 8.96l6.6-10.78a38.8 38.8 0 01-5.9-4.36 20.75 20.75 0 01-4.83-6.13 12.13 12.13 0 01-1.31-5.38 12.32 12.32 0 01.56-3.6 18.17 18.17 0 013.85-6.53 28.7 28.7 0 015.24-4.6 39.7 39.7 0 0110.87-5.21 44.35 44.35 0 0113.05-2 41.84 41.84 0 0117.27 3.67l5.2-11.53z" id="path193"/><path class="cls-21" d="M287.51 144.86a60 60 0 00-24.73-5.28 62.36 62.36 0 00-18.69 2.87 58.81 58.81 0 00-12.33 5.47 50.85 50.85 0 00-7.94 5.77 40.47 40.47 0 00-9 11.37 33 33 0 00-2.71 6.95 29.53 29.53 0 00.28 16.22 32.63 32.63 0 003.76 8.1l19.94-12.72a8.61 8.61 0 01-1.06-2.24 5.57 5.57 0 01-.27-1.75 6.41 6.41 0 01.32-2 9.49 9.49 0 011-2.11 17.63 17.63 0 013.66-4.29 31.48 31.48 0 0110-5.73 38.9 38.9 0 0113.18-2.31 36.33 36.33 0 0115 3.19l9.72-21.56z" id="path195"/><rect class="cls-19" x="285.66" y="140.23" width="32.51" height="10.33" rx="3.19" id="rect197"/><path d="M306.75 104.61l-1.6 1.84a2.51 2.51 0 001.65.63 2.48 2.48 0 002.46-2.47 2.44 2.44 0 00-.76-1.78z" id="path199" fill="#fae48b"/><path class="cls-27" d="M343.46 104.19l-2 2.1a1.924 1.924 0 102.8 2.64l2-2.1a1.924 1.924 0 00-2.8-2.64" id="path201"/><path class="cls-28" d="M297.45 129.88l4.88 3.29a18.74 18.74 0 009.37 3.22h1.65v-.55h-1.58a18.2 18.2 0 01-9.1-3.13l-4.87-3.28-.31.45z" id="path203"/><path class="cls-27" d="M330.57 92.72a5.56 5.56 0 00-.18-1.27 8.67 8.67 0 00-2.23-4 12.58 12.58 0 00-6.71-3.41 1.925 1.925 0 10-.78 3.77 10.23 10.23 0 013.69 1.45 5.36 5.36 0 012.09 2.47 4.25 4.25 0 01.24.85 1.26 1.26 0 010 .21h.95-.95.95-.95a1.93 1.93 0 103.85 0z" id="path205"/><path class="cls-27" d="M313.15 119.75a3.33 3.33 0 01-.21-4.71l2-2.17a3.33 3.33 0 114.92 4.49l-2 2.17a3.33 3.33 0 01-4.71.22z" id="path207"/><path d="M323.22 62.23l-1.07 2a9.16 9.16 0 01-12.38 3.79l-18.93-10a5.67 5.67 0 01-2.35-7.66l.05-.09a5.67 5.67 0 017.66-2.35l27 14.33" id="path209" fill="#ac7b4a"/><g clip-path="url(#clip-path-2)" id="g255" transform="translate(-15.85 -103.67)"><g clip-path="url(#clip-path-3)" id="g217"><path class="cls-32" id="polyline211" d="M310.52 160.59h-2.2v1.95l2.2 1.17v-3.12"/><path class="cls-32" d="M308.32 158.39H304a5.57 5.57 0 001.31 2.2h3.06v-2.2" id="path213"/><path class="cls-33" id="polyline215" d="M310.52 158.39h-2.2v2.2h2.2v-2.2"/></g><g class="cls-34" clip-path="url(#clip-path-4)" id="g233"><path class="cls-32" id="polyline219" d="M318.22 166.09h-3.2l3.2 1.7v-1.7"/><path class="cls-32" id="polyline221" d="M321.97 160.59h-3.75v7.2-1.7h.85l2.9-5.5"/><path class="cls-33" d="M319.07 166.09h-.85v1.7l.29.15a.51.51 0 01-.15-.36.54.54 0 01.06-.25l.65-1.24" id="path223"/><path class="cls-32" id="polyline225" d="M312.72 160.59h-2.2v3.12l2.2 1.16v-4.28"/><path class="cls-32" d="M318.22 158.39h-5.5v2.2h5.5v-2.2m4.9 0h-.5v1l.5-1" id="path227"/><path class="cls-33" id="polyline229" d="M322.62 158.39h-4.4v2.2h3.75l.65-1.24v-.96"/><path class="cls-33" id="polyline231" d="M312.72 158.39h-2.2v2.2h2.2v-2.2"/></g><g clip-path="url(#clip-path-5)" id="g241"><path class="cls-32" d="M308.32 156.19h-4.62v.48a5.53 5.53 0 00.27 1.72h4.37v-2.2" id="path235"/><path class="cls-32" d="M309.4 150.91a5.64 5.64 0 00-1.08.1v5.18h2.2V151a6.07 6.07 0 00-1.12-.11" id="path237"/><path class="cls-33" id="polyline239" d="M310.52 156.19h-2.2v2.2h2.2v-2.2"/></g><g class="cls-36" clip-path="url(#clip-path-6)" id="g253"><path class="cls-32" d="M322.62 157.18v1.21h.5l.09-.15c.1-.2.2-.39.31-.58l-.9-.48m-4.4-1h-5.5v2.2h5.5v-2.2" id="path243"/><path class="cls-32" id="polyline245" d="M318.22 154.84v3.55-2.2h2.55l-2.55-1.35"/><path class="cls-33" id="polyline247" d="M320.77 156.19h-2.55v2.2h4.4v-1.21l-1.85-.99"/><path class="cls-32" d="M310.52 151v5.17h2.2v-4.26l-.67-.36a5.85 5.85 0 00-1.53-.55" id="path249"/><path class="cls-33" id="polyline251" d="M312.72 156.19h-2.2v2.2h2.2v-2.2"/></g></g><path class="cls-37" d="M347.44 50.19l4.95 2.61c1.26-2.39.38-5.23-.16-6.53a2 2 0 00-.94-1l-4.86-2.56s2.63 4.45 1 7.52" id="path257"/><path class="cls-38" d="M361.22 95.11L302.8 64.38a.54.54 0 01-.23-.72l4.79-9.09a28.23 28.23 0 0138.14-11.85l9.38 4.93a28.23 28.23 0 0111.84 38.14l-4.78 9.09a.53.53 0 01-.72.23" id="path259"/><path class="cls-38" d="M361.22 95.11L302.8 64.38a.54.54 0 01-.23-.72l4.79-9.09a28.23 28.23 0 0138.14-11.85l9.38 4.93a28.23 28.23 0 0111.84 38.14l-4.78 9.09a.53.53 0 01-.72.23" id="path261"/><path d="M341.97 77.5l-2.49 4.72h.34l2.15-2.62v-2.1m9.89-10.68h-4.28l-1.21 2.32v3.19h1.57l2-2.41a15.43 15.43 0 001.94-3v-.06m0-9.9h-1a14.11 14.11 0 01-1.05 5.5h2v-5.5m-5-9.9h-.08a14.55 14.55 0 013.34 5.5h1.23l-.08-.14a25 25 0 00-4.41-5.36" id="path263" fill="#aa7441"/><g clip-path="url(#clip-path-7)" id="g395" transform="translate(-15.85 -103.67)"><g class="cls-34" clip-path="url(#clip-path-4)" id="g287"><path class="cls-41" id="polyline265" d="M333.75 175.99l4.27 2.25-4.27-2.25"/><path class="cls-41" id="polyline267" d="M325.89 166.09h-3.27v4.05l.67.35h.29l2.31-4.4"/><path class="cls-41" d="M328.12 173l4.4 2.31-4.4-2.31m.67-12.44h-.67v1.27l.67-1.27" id="path269"/><path class="cls-41" id="polyline271" d="M342.11 180.39l.31.16-.31-.16"/><path class="cls-41" id="polyline273" d="M347.92 183.44l2.2 1.16-2.2-1.16"/><path class="cls-41" id="polyline275" d="M322.62 160.59h-.65l-2.9 5.5h3.55v-5.5"/><path class="cls-42" d="M322.62 166.09h-3.55l-.65 1.24a.53.53 0 00.23.72l4 2.09v-4" id="path277"/><path class="cls-42" id="polyline279" d="M338.02 178.24l4.09 2.15-4.09-2.15"/><path class="cls-41" id="polyline281" d="M328.12 158.39h-5l-.5.96v1.24h-.65 6.82-.67v-2.2"/><path class="cls-42" id="polyline283" d="M322.62 159.35l-.65 1.24h.65v-1.24"/><path class="cls-42" id="polyline285" d="M329.94 158.39h-1.82v2.2h.67l1.15-2.2"/></g><g class="cls-43" clip-path="url(#clip-path-9)" id="g343"><path class="cls-41" d="M367.71 176h-3.92l-1.57 1.92v2.48h5.49V176m9.9 0h-5.5v4.4h5.5V176m8.21 0H382v4.4h3.52a27.57 27.57 0 00.3-4v-.36" id="path289"/><path class="cls-44" id="polyline291" d="M363.79 175.99h-1.58v1.92l1.58-1.92"/><path class="cls-41" d="M377.61 166.09h-5.5v4.4h5.5v-4.4m6.3 0H382v4.4h3.2a28.11 28.11 0 00-1.3-4.4" id="path293"/><path class="cls-44" d="M367.71 166.09h-2q-.27.66-.6 1.29l-1.64 3.11h4.28v-4.4" id="path295"/><path class="cls-41" d="M357.82 185.89h-2.15l-.94 1.14-2.16-1.14 5.25 2.76v-2.76m9.89 0h-.22l.22.11v-.11m9.9 0h-5.5v2.41l3.82 2h1.68v-4.4m6.54 0H382v4.4h.13l.43-.83a28.13 28.13 0 001.58-3.57" id="path297"/><path class="cls-44" id="polyline299" d="M355.67 185.89h-.34l-.59 1.14-2.17-1.14 2.17 1.14.93-1.14"/><path class="cls-41" d="M372.11 170.49h-4.37v15.4h4.4v-5.5h-4.4V176h4.4v-5.5m0-9.9H369a15 15 0 01.17 5.5h3v-5.5" id="path301"/><path class="cls-44" d="M369 160.59h-1.24v10-4.46h1.41a15 15 0 00-.17-5.5" id="path303"/><path class="cls-41" d="M381.05 160.59h-3.44v30.58l3.19 1.66 1.21-2.3v-.24h-4.4v-4.4H382v-5.5h-4.4V176h4.4v-5.5h-4.4v-4.4h4.4v-4c-.3-.52-.62-1-1-1.55" id="path305"/><path class="cls-41" d="M362.22 180.39h-2l-2.36 2.88v2.62h2.8a8.67 8.67 0 01.38-.82l1.05-2 .17.09v-2.75" id="path307"/><path class="cls-44" d="M360.18 180.39h-1.95l-.41.78v2.1l2.36-2.88m2-7.58l-1.64 3.19h1.68v-3.18" id="path309"/><path class="cls-42" d="M372.11 166.09h-3a15.64 15.64 0 01-1.38 4.4h4.37v-4.4" id="path311"/><path class="cls-45" d="M369.12 166.09h-1.41v4.4a15.64 15.64 0 001.38-4.4" id="path313"/><path class="cls-42" id="polyline315" d="M382.01 166.09h-4.4v4.4h4.4v-4.4"/><path class="cls-42" id="polyline317" d="M362.21 177.91l-2.03 2.48h2.03v-2.48"/><path class="cls-45" id="polyline319" d="M362.21 175.99h-1.67l-2.31 4.4h1.95l2.03-2.48v-1.92"/><path class="cls-42" id="polyline321" d="M372.11 175.99h-4.4v4.4h4.4v-4.4"/><path class="cls-42" id="polyline323" d="M382.01 175.99h-4.4v4.4h4.4v-4.4"/><path class="cls-42" d="M360.62 185.89h-2.8v2.76l2.15 1.13v-.49a9 9 0 01.66-3.4" id="path325"/><path class="cls-42" id="polyline327" d="M372.11 185.89h-4.4v.11l4.4 2.3v-2.41"/><path class="cls-42" id="polyline329" d="M382.01 185.89h-4.4v4.4h4.4v-4.4"/><path class="cls-41" id="polyline331" d="M350.12 184.6l2.2 1.16-2.2-1.16"/><path class="cls-41" id="polyline333" d="M377.61 158.39h-5.5v2.2h-3.16 12.1-3.44v-2.2"/><path class="cls-44" d="M367.71 158.39h-1.18a14.74 14.74 0 01.19 2.2h1v-2.2" id="path335"/><path class="cls-42" d="M372.11 158.39h-3.81a15.8 15.8 0 01.65 2.2h3.16v-2.2" id="path337"/><path class="cls-45" d="M368.3 158.39h-.59v2.2H369a15.8 15.8 0 00-.65-2.2" id="path339"/><path class="cls-42" d="M379.41 158.39h-1.8v2.2h3.44c-.51-.75-1.05-1.49-1.64-2.2" id="path341"/></g><g class="cls-36" clip-path="url(#clip-path-6)" id="g363"><path class="cls-41" d="M343.11 146.29h-.69v.23l.69-.23" id="path345"/><path class="cls-41" d="M338 146.29h-2.79a28.33 28.33 0 00-2.71 1.6v2.8h2.85a20.68 20.68 0 012.65-2v-2.37" id="path347"/><path class="cls-41" d="M328.12 156.19h-3.73q-.45.72-.87 1.47c-.11.19-.21.38-.31.58l-.09.15h5v-2.2" id="path349"/><path class="cls-41" d="M332.52 150.69H329c-.29.27-.57.55-.85.83v4.67h3a20.42 20.42 0 011.42-2.29v-3.21" id="path351"/><path class="cls-41" d="M342.42 143.74A28.11 28.11 0 00338 145v3.62-2.37h4.4v-2.55" id="path353"/><path class="cls-41" d="M348.22 143.14h-.3v2.29h2.16v-2.23c-.64 0-1.27-.06-1.9-.06" id="path355"/><path class="cls-42" d="M332.52 147.89a28 28 0 00-3.55 2.8h3.55v-2.8" id="path357"/><path class="cls-42" d="M342.42 146.29H338v2.37a20.34 20.34 0 014.4-2.14v-.23" id="path359"/><path class="cls-42" d="M331.1 156.19h-3v2.2h1.82l1.12-2.11v-.09" id="path361"/></g><g class="cls-46" clip-path="url(#clip-path-11)" id="g393"><path class="cls-41" d="M357.82 146.29H355a22.82 22.82 0 012.8 1.09v-1.09" id="path365"/><path class="cls-41" d="M362.22 146.84v3.39l.51.46h5v-.95l-5-2.66-.44-.24" id="path367"/><path class="cls-44" d="M362.22 150.23l.43.42h.08l-.51-.46" id="path369"/><path class="cls-41" d="M367.71 156.19h-.49c.18.3.34.6.49.9v-.9m9.7 0h-5.3v2.2h5.5v-2l-.2-.21" id="path371"/><path class="cls-44" d="M367.22 156.19H366a15.35 15.35 0 01.54 2.2h1.18v-1.3c-.15-.3-.31-.6-.49-.9" id="path373"/><path class="cls-41" d="M367.71 149.74v7.35-.9h4.4v-4.09q-.67-.4-1.38-.78l-1.2-.63h-1.82v-.95" id="path375"/><path class="cls-41" d="M357.82 144.82v2.56-1.09h3.35a31.83 31.83 0 00-3.35-1.47" id="path377"/><path class="cls-42" d="M361.17 146.29h-3.35v1.09l.71.36.52.28a14 14 0 012.58 1.73l.59.48v-3.39l-.87-.45-.18-.1" id="path379"/><path class="cls-45" d="M361.63 149.75c.2.17.4.34.59.52l-.59-.48" id="path381"/><path class="cls-42" id="polyline383" d="M367.71 149.74v.95h1.83l-1.83-.95"/><path class="cls-42" d="M372.11 156.19h-4.4v.9c.22.43.41.86.59 1.3h3.81v-2.2" id="path385"/><path class="cls-45" d="M367.71 157.09v1.3h.59c-.18-.44-.37-.87-.59-1.3" id="path387"/><path class="cls-42" d="M377.61 156.4v2h1.8a25.86 25.86 0 00-1.8-2" id="path389"/><path class="cls-41" d="M350.12 143.2v2.23a20.78 20.78 0 012.2.23v-2.23c-.74-.1-1.47-.18-2.2-.23" id="path391"/></g></g><path class="cls-37" d="M347.91 43.45l5.19 2.73a1.44 1.44 0 001.95-.61l1.22-2.32a1.44 1.44 0 00-1.34-2.11l-5.69.22a.33.33 0 00-.32.18z" id="path397"/><path class="cls-38" d="M346.2 79.38l-1.05 2a9.16 9.16 0 003.88 12.36l19 9.9a5.66 5.66 0 007.64-2.4l.05-.1a5.66 5.66 0 00-2.4-7.64L346.2 79.36" id="path399"/><g clip-path="url(#clip-path-12)" id="g459" transform="translate(-15.85 -103.67)"><g clip-path="url(#clip-path-13)" id="g421"><path class="cls-41" d="M387.51 205.69H382v.67l1.87 1a5.59 5.59 0 002.61.64 5.69 5.69 0 001-.09v-2.19" id="path401"/><path class="cls-41" id="polyline403" d="M372.11 200.19h-1.93l1.93 1.01v-1.01"/><path class="cls-41" id="polyline405" d="M382.01 200.19h-4.4v3.87l3.12 1.63h1.28v-5.5"/><path class="cls-41" id="polyline407" d="M389.71 200.19h-2.2v7.69-2.19h2.2v-5.5"/><path class="cls-42" id="polyline409" d="M382.01 205.69h-1.28l1.28.67v-.67"/><path class="cls-42" d="M389.71 205.69h-2.2v2.19a5.67 5.67 0 002.2-.9v-1.29" id="path411"/><path class="cls-41" d="M367.71 198H366l1.75.91V198m19.8 0H382v2.2h-4.4V198h-5.5v2.2h15.4V198" id="path413"/><path class="cls-42" id="polyline415" d="M372.11 197.99h-4.4v.91l2.47 1.29h1.93v-2.2"/><path class="cls-42" id="polyline417" d="M382.01 197.99h-4.4v2.2h4.4v-2.2"/><path class="cls-42" id="polyline419" d="M389.71 197.99h-2.2v2.2h2.2v-2.2"/></g><g clip-path="url(#clip-path-14)" id="g429"><path class="cls-41" d="M391.84 200.19h-2.13v5.5h1.34a6.45 6.45 0 00.47-.76l.05-.1a5 5 0 00.34-.79v-3.65c0-.07-.05-.14-.07-.2" id="path423"/><path class="cls-42" d="M391.05 205.69h-1.34V207a5.65 5.65 0 001.34-1.29" id="path425"/><path class="cls-42" d="M390.32 198h-.61v2.2h2.13a5.63 5.63 0 00-1.52-2.2" id="path427"/></g><g class="cls-43" clip-path="url(#clip-path-9)" id="g453"><path class="cls-41" id="polyline431" d="M367.49 185.89h-5.28v4.4h5.5V186l-.22-.11"/><path class="cls-41" id="polyline433" d="M372.11 188.3v1.99h3.82l-3.82-1.99"/><path class="cls-41" d="M367.71 195.79h-5.07a9.72 9.72 0 002.24 1.64l1.12.57h1.75v-2.2m9.9 0h-5.5v2.2h5.5v-2.2m8.87 0H382v2.2h5.5v-1.66l-1-.54" id="path435"/><path class="cls-41" id="polyline437" d="M367.71 186v11.99-2.2h4.4v-5.5h-4.4V186"/><path class="cls-41" id="polyline439" d="M377.61 191.17v6.82-2.2h4.4v-2.33l-4.4-2.29"/><path class="cls-41" d="M362.22 190.29H360a9.11 9.11 0 002.21 5v-5m-.17-7.24l-1.05 2a8.67 8.67 0 00-.38.82h1.6v-2.75l-.17-.09" id="path441"/><path class="cls-42" d="M362.22 185.89h-1.6a9 9 0 00-.66 3.4 8.37 8.37 0 00.05 1h2.21v-4.4" id="path443"/><path class="cls-42" id="polyline445" d="M367.71 186v4.29h4.4v-1.99l-4.4-2.3"/><path class="cls-42" id="polyline447" d="M372.11 195.79h-4.4v2.2h4.4v-2.2"/><path class="cls-42" id="polyline449" d="M382.01 195.79h-4.4v2.2h4.4v-2.2"/><path class="cls-42" d="M387.51 196.33V198h2.2v-.48c-.17-.11-.35-.22-.54-.32l-1.66-.86" id="path451"/></g><g clip-path="url(#clip-path-16)" id="g457"><path class="cls-42" d="M389.71 197.51v.49h.61a5.87 5.87 0 00-.61-.48" id="path455"/></g></g><path d="M338.88 83.33l-31.21-16.42 7.54-14.33a20.34 20.34 0 0127.47-8.54l.52.28a14.34 14.34 0 016 19.36l-10.32 19.65" id="path461" fill="#926030"/><g clip-path="url(#clip-path-17)" id="g567" transform="translate(-15.85 -103.67)"><g class="cls-34" clip-path="url(#clip-path-4)" id="g493"><path class="cls-53" d="M338 176h-4.27l4.27 2.25V176m9.9 0h-5.5v4.4h5.5V176" id="path463"/><path class="cls-53" d="M338 166.09h-5.5v4.4h5.5v-4.4m9.9 0h-5.5v4.4h5.5v-4.4" id="path465"/><path class="cls-53" id="polyline467" d="M328.12 166.09h-2.23l-2.31 4.4h4.54v-4.4"/><path class="cls-53" id="polyline469" d="M332.52 160.59h-3.73l-.67 1.27v11.17l4.4 2.31v-4.85h-4.4v-4.4h4.4v-5.5"/><path class="cls-53" d="M342.42 180.39h-.31l.31.16v-.16m0-19.8H338V176h4.4v-5.5H338v-4.4h4.4v-5.5" id="path471"/><path class="cls-53" id="polyline473" d="M350.12 160.59h-2.2v22.85l2.2 1.16v-4.21h-2.2v-4.4h2.2v-5.5h-2.2v-4.4h2.2v-5.5"/><path class="cls-54" id="polyline475" d="M332.52 166.09h-4.4v4.4h4.4v-4.4"/><path class="cls-54" id="polyline477" d="M342.42 166.09h-4.4v4.4h4.4v-4.4"/><path class="cls-54" id="polyline479" d="M350.12 166.09h-2.2v4.4h2.2v-4.4"/><path class="cls-54" id="polyline481" d="M342.42 175.99h-4.4v2.25l4.09 2.15h.31v-4.4"/><path class="cls-54" id="polyline483" d="M350.12 175.99h-2.2v4.4h2.2v-4.4"/><path class="cls-53" id="polyline485" d="M347.92 158.39h-5.5v2.2h-4.4v-2.2h-5.5v2.2h-3.73 21.33-2.2v-2.2"/><path class="cls-54" id="polyline487" d="M332.52 158.39h-2.58l-1.15 2.2h3.73v-2.2"/><path class="cls-54" id="polyline489" d="M342.42 158.39h-4.4v2.2h4.4v-2.2"/><path class="cls-54" id="polyline491" d="M350.12 158.39h-2.2v2.2h2.2v-2.2"/></g><g class="cls-43" clip-path="url(#clip-path-9)" id="g519"><path class="cls-53" id="polyline495" d="M357.82 175.99h-5.5v4.4h5.5v-4.4"/><path class="cls-53" d="M357.82 166.09h-5.5v4.4h5.5v-4.4m7.85 0h-3.45v4.4h1.21l1.64-3.11q.33-.63.6-1.29" id="path497"/><path class="cls-53" id="polyline499" d="M355.33 185.89h-2.76l2.17 1.14.59-1.14"/><path class="cls-53" id="polyline501" d="M362.21 160.59h-4.39v20.58l.41-.78h-.41v-4.4h2.72l1.67-3.18v-2.32h-4.39v-4.4h4.39v-5.5"/><path class="cls-54" id="polyline503" d="M362.21 166.09h-4.39v4.4h4.39v-4.4"/><path class="cls-54" id="polyline505" d="M360.54 175.99h-2.72v4.4h.41l2.31-4.4"/><path class="cls-53" d="M352.32 180.39h-2.2v4.21l2.2 1.16v-5.37m0-9.9h-2.2V176h2.2v-5.5m0-9.9h-2.2v5.5h2.2v-5.5" id="path507"/><path class="cls-54" id="polyline509" d="M352.32 166.09h-2.2v4.4h2.2v-4.4"/><path class="cls-54" id="polyline511" d="M352.32 175.99h-2.2v4.4h2.2v-4.4"/><path class="cls-53" d="M366.53 158.39h-4.31v2.2h-4.4v-2.2h-5.5v2.2h14.4a14.74 14.74 0 00-.19-2.2" id="path513"/><path class="cls-54" id="polyline515" d="M362.21 158.39h-4.39v2.2h4.39v-2.2"/><path class="cls-54" id="polyline517" d="M352.32 158.39h-2.2v2.2h2.2v-2.2"/></g><g class="cls-36" clip-path="url(#clip-path-6)" id="g543"><path class="cls-53" d="M347.92 146.29h-4.81l-.69.23v4.17h5.5v-4.4" id="path521"/><path class="cls-53" d="M338 148.66a20.68 20.68 0 00-2.65 2H338v-2" id="path523"/><path class="cls-53" d="M338 156.19h-5.5v2.2h5.5v-2.2m9.9 0h-5.5v2.2h5.5v-2.2" id="path525"/><path class="cls-53" d="M332.52 153.9a20.42 20.42 0 00-1.42 2.29h1.42v-2.29" id="path527"/><path class="cls-53" id="polyline529" d="M338.02 148.66v9.73-2.2h4.4v-5.5h-4.4v-2.03"/><path class="cls-53" d="M349.08 145.4h-1.16v10.76h2.2v-5.5h-2.2v-4.4h2.2v-.86h-1" id="path531"/><path class="cls-54" d="M342.42 146.52a20.34 20.34 0 00-4.4 2.14v2h4.4v-4.17" id="path533"/><path class="cls-54" id="polyline535" d="M350.12 146.29h-2.2v4.4h2.2v-4.4"/><path class="cls-54" d="M332.52 156.19h-1.42v.09l-1.12 2.11h2.58v-2.2" id="path537"/><path class="cls-54" id="polyline539" d="M342.42 156.19h-4.4v2.2h4.4v-2.2"/><path class="cls-54" id="polyline541" d="M350.12 156.19h-2.2v2.2h2.2v-2.2"/></g><g class="cls-46" clip-path="url(#clip-path-11)" id="g565"><path class="cls-53" d="M362.22 150.27v.42h.43l-.43-.42" id="path545"/><path class="cls-53" d="M355 146.29h-2.7v4.4h5.5v-3.31a22.82 22.82 0 00-2.8-1.09" id="path547"/><path class="cls-53" d="M357.82 156.19h-5.5v2.2h5.5v-2.2m8.17 0h-3.77v2.2h4.31a15.35 15.35 0 00-.54-2.2" id="path549"/><path class="cls-53" id="polyline551" d="M357.82 147.38v11.01-2.2h4.39v-5.5h-4.39v-3.31"/><path class="cls-54" d="M357.82 147.38v3.31h4.4v-.42a14.51 14.51 0 00-3.17-2.25l-.52-.28-.71-.36" id="path553"/><path class="cls-54" id="polyline555" d="M362.21 156.19h-4.39v2.2h4.39v-2.2"/><path class="cls-53" id="polyline557" d="M352.32 150.69h-2.2v5.5h2.2v-5.5"/><path class="cls-53" d="M350.12 145.43v.86h2.2v-.63a20.78 20.78 0 00-2.2-.23" id="path559"/><path class="cls-54" id="polyline561" d="M352.32 146.29h-2.2v4.4h2.2v-4.4"/><path class="cls-54" id="polyline563" d="M352.32 156.19h-2.2v2.2h2.2v-2.2"/></g></g><path class="cls-37" d="M308.15 67.2l7.38-14a20.13 20.13 0 0127.2-8.45 14 14 0 015.89 19L338.4 83.18l1 .52 10.22-19.43a15.13 15.13 0 00-6.35-20.44 21.21 21.21 0 00-28.68 8.91l-7.38 14 1 .52z" id="path569"/><path d="M349.26 44.16l-3.66-1.92 1.14-2.17 2 1a1.94 1.94 0 01.81 2.61z" id="path571" fill="#471f05"/><path class="cls-56" d="M341.6 47.12l-4.95-2.6c1.25-2.39 4.09-3.27 5.47-3.57a2.09 2.09 0 011.39.18l4.86 2.56s-5.15.36-6.77 3.43z" id="path573"/><path class="cls-37" d="M347.27 43.11l-9-4.74a1.38 1.38 0 01-.57-1.86l1.51-2.87a2 2 0 013.29-.34l5.08 6.16a2.36 2.36 0 01.27 2.61z" id="path575"/><path class="cls-37" id="polyline577" transform="translate(-15.85 -103.67)" d="M351.24 148.15l7.56 3.97.51-.97-7.56-3.98"/><path class="cls-37" id="polyline579" transform="translate(-15.85 -103.67)" d="M380.9 192.65l-9.06-4.77-.19.37 9.06 4.76"/><path class="cls-21" d="M254.09 261.43h32.25l8.66-46.61c.63-3.25 1.51-6.14 1.51-9.3v-63.25l-9-7.11-16.36 5.07v54.79a91.5 91.5 0 01-4.58 28.57z" id="path581"/><path class="cls-57" id="polyline583" transform="translate(-15.85 -103.67)" d="M365.43 236.3l-2.44-1 3.72-9.14 2.45.99-3.73 9.15"/><path class="cls-58" id="polyline585" transform="translate(-15.85 -103.67)" d="M363.85 235.65l-.86-.35 3.72-9.14.87.35-3.73 9.14"/><path class="cls-23" d="M296.51 185.62l-13-22.09 6.5-5.27-9.64-1.93 1-19.61a4.59 4.59 0 014.58-4.34l10.51 7.87z" id="path587"/><path class="cls-56" d="M338.61 158.54l-1.74-.71a2.07 2.07 0 01-1.14-2.7l10.05-24.66a1.2 1.2 0 011.56-.65l3.36 1.37a1.2 1.2 0 01.66 1.56l-10 24.66a2.07 2.07 0 01-2.75 1.13z" id="path589"/><path class="cls-20" d="M349.96 152.66l-3.46-.52a3.82 3.82 0 01-3.2-4.36l1-6.47a11.51 11.51 0 0113.12-9.65 3.83 3.83 0 013.2 4.36l-1.51 9.92a8 8 0 01-9.15 6.72z" id="path591"/><rect class="cls-57" x="-15.801" y="368.889" width="2.05" height="7.12" rx=".56" transform="rotate(-67.83)" id="rect593"/><path class="cls-28" d="M343.82 150.87a3.35 3.35 0 00.65.8 4.09 4.09 0 002.12 1l4.06.65.08-.55-1.34-.21-2.71-.43a3.48 3.48 0 01-1.83-.89 3.18 3.18 0 01-.42-.46l-.1-.14-.49.26z" id="path595"/><path class="cls-58" d="M363.9 117.93c2.21-5.43 1.4-11.19-1.66-14.7l.38-.93-3.2-1.31c-.26-.13-.52-.26-.8-.37-5.84-2.38-13 1.51-15.87 8.69-2.87 7.18-.57 14.94 5.27 17.32l4 1.63.4-1c4.64-.38 9.24-3.92 11.46-9.36" id="path597"/><path d="M367.15 119.24c-2.92 7.18-10 11.07-15.87 8.69-5.87-2.38-8.21-10.13-5.28-17.31 2.93-7.18 10-11.07 15.88-8.69 5.88 2.38 8.2 10.13 5.27 17.31" id="path599" fill="#ffca46"/><path d="M365.15 118.46c-2.44 6-8.2 9.28-12.87 7.38-4.67-1.9-6.49-8.3-4.05-14.28 2.44-5.98 8.2-9.28 12.87-7.38 4.67 1.9 6.49 8.3 4.05 14.28" id="path601" fill="#3ee5cb"/><g clip-path="url(#clip-path-22)" id="g605" transform="translate(-15.85 -103.67)"><path id="rect603" fill="#ffca5b" d="M364.01 207.32h12.98v8.19h-12.98z"/></g><path d="M358.29 103.65c-3.95 0-8.05 3-10 7.81a14 14 0 013.56-5.08 2.24 2.24 0 01.68 3.51l-2.24 2.58a2.22 2.22 0 01-1.7.78 2.34 2.34 0 01-.86-.16c.15-.5.31-1 .51-1.5v.08a13.5 13.5 0 00-.58 8.21l1.9-1.85a14.76 14.76 0 01.9-3.2c1.92-4.7 5.88-7.75 9.76-7.92.63-.82 1.22-1.66 1.79-2.51-.25-.14-.52-.27-.79-.39a7.41 7.41 0 00-2.74-.52" id="path607" fill="#c0d58e"/><path d="M365.19 118.57c-2 4.78-6.09 7.82-10.05 7.83 4 0 8.07-3.05 10.05-7.83m0-.09v.08-.08m0 0" id="path609" fill="#ffd574"/><path d="M360.48 107.08h-.33a45.54 45.54 0 01-4.44 5l-6.22 6.09a12.43 12.43 0 00.46 6.06 7.33 7.33 0 002.31 1.55h.07a7.38 7.38 0 002.77.54c4 0 8.07-3.05 10.05-7.83v-.08a13.23 13.23 0 00.41-9.19 7.1 7.1 0 00-2.38-1.57 7.19 7.19 0 00-2.77-.54" id="path611" fill="#76ead7"/><path d="M360.15 107.08c-3.88.17-7.84 3.22-9.76 7.92a14.76 14.76 0 00-.9 3.2l6.22-6.09a45.54 45.54 0 004.44-5" id="path613" fill="#cedda8"/><path d="M351.87 106.38a14 14 0 00-3.56 5.08c-.2.5-.36 1-.51 1.5a2.34 2.34 0 00.86.16 2.22 2.22 0 001.7-.78l2.24-2.58a2.24 2.24 0 00-.68-3.51" id="path619" fill="#645d2c"/><path id="polygon621" transform="translate(-15.85 -103.67)" fill="#ecb358" d="M299.92 316.23l-14.27-2.06.52-3.45 14.16 2.01z"/><path class="cls-20" d="M234.24 209.87l-3.63-7.78a3.79 3.79 0 011.83-5l5.26-2.46a3.61 3.61 0 014.79 1.74l4.94 10.57a4.63 4.63 0 01-2.23 6.15l-1 .45a7.53 7.53 0 01-9.96-3.67z" id="path623"/><path class="cls-20" d="M240.66 198.48l-.34-.65.31.66-.34-.65.31.66a2.28 2.28 0 01.92-.18 2.07 2.07 0 01.74.13 3.1 3.1 0 011.38 1.2 10.69 10.69 0 011.51 3.87 1.65 1.65 0 003.22-.72 16.93 16.93 0 00-1.23-3.69 7.86 7.86 0 00-2.68-3.22 5.3 5.3 0 00-2.94-.87 5.68 5.68 0 00-1.68.25 4.29 4.29 0 00-.74.3 1.65 1.65 0 101.53 2.92z" id="path625"/><path id="polyline627" transform="translate(-15.85 -103.67)" fill="#dca84b" d="M261.71 307.01l-1.8-3.86-.25.12 1.8 3.85"/><path d="M1086.82 318.84a19.93 19.93 0 00-19.27-25.09 19.27 19.27 0 00-2 .11 33.19 33.19 0 00-41.19-25.53 33.18 33.18 0 00-63.52-8.56 20.46 20.46 0 00-5.4-.72 20.67 20.67 0 00-18.66 11.79 32.46 32.46 0 00-30.63 32.33v5a32.14 32.14 0 00-39.45 25.48h201.1l15.2-.1h15.21a15.3 15.3 0 00-11.39-14.71z" id="path629" fill="#c8ca53"/><path class="cls-73" d="M404.76 341.46h-4.43c-1.57 0-2.82 1.7-2.62 3.67a3 3 0 002.74 2.85h4.31a1 1 0 00.91-1.12v-4.28a1 1 0 00-.91-1.12" id="path631"/><path class="cls-73" d="M423.34 341.46h-14.3a1.07 1.07 0 00-.95 1.16v4.19a1.07 1.07 0 00.95 1.17h14.42c1.56 0 2.82-1.7 2.62-3.68a3 3 0 00-2.74-2.84" id="path633"/><path class="cls-73" d="M497.98 323.33h-4.44c-1.56 0-2.82 1.7-2.62 3.68a3 3 0 002.74 2.85h4.32a1 1 0 00.9-1.12v-4.31a1 1 0 00-.9-1.12" id="path635"/><path class="cls-73" d="M516.56 323.33h-14.31a1.08 1.08 0 00-1 1.17v4.19a1.08 1.08 0 001 1.17h14.42c1.57 0 2.82-1.7 2.62-3.68a3 3 0 00-2.73-2.85" id="path637"/><path class="cls-73" d="M591.62 341.46h-4.47c-1.57 0-2.83 1.7-2.62 3.67a3 3 0 002.73 2.85h4.32a1 1 0 00.91-1.12v-4.28a1 1 0 00-.91-1.12" id="path639"/><path class="cls-73" d="M610.2 341.46h-14.31a1.07 1.07 0 00-.94 1.16v4.19a1.07 1.07 0 00.94 1.17h14.43c1.56 0 2.82-1.7 2.62-3.68a3 3 0 00-2.74-2.84" id="path641"/><path class="cls-73" d="M785.27 341.46h-4.43c-1.57 0-2.82 1.7-2.62 3.67a3 3 0 002.73 2.85h4.32a1 1 0 00.91-1.12v-4.28a1 1 0 00-.91-1.12" id="path643"/><path class="cls-73" d="M803.85 341.46h-14.3a1.07 1.07 0 00-.95 1.16v4.19a1.07 1.07 0 00.95 1.17h14.42c1.56 0 2.82-1.7 2.62-3.68a3 3 0 00-2.74-2.84" id="path645"/><path class="cls-73" d="M695.99 323.33h-4.44c-1.56 0-2.82 1.7-2.62 3.68a3 3 0 002.74 2.85h4.32a1 1 0 00.9-1.12v-4.31a1 1 0 00-.9-1.12" id="path647"/><path class="cls-73" d="M714.57 323.33h-14.31a1.08 1.08 0 00-.94 1.17v4.19a1.08 1.08 0 00.94 1.17h14.42c1.57 0 2.82-1.7 2.62-3.68a3 3 0 00-2.73-2.85" id="path649"/><path class="cls-57" id="polyline651" transform="translate(-15.85 -103.67)" d="M53.67 438.14h266.46v-1.65H53.67"/><path class="cls-57" id="polyline653" transform="translate(-15.85 -103.67)" d="M372.36 436.49h-28.85v1.65h28.85"/><path class="cls-57" id="polyline655" transform="translate(-15.85 -103.67)" d="M1008.91 438.14h274.06v-1.65h-274.06"/></svg>