<?xml version="1.0" encoding="UTF-8" standalone="no"?>
<svg
   id="Layer_1"
   data-name="Layer 1"
   viewBox="0 0 241.41981 230.18"
   version="1.1"
   sodipodi:docname="thank-you-food.svg"
   inkscape:version="1.1 (ce6663b3b7, 2021-05-25)"
   xmlns:inkscape="http://www.inkscape.org/namespaces/inkscape"
   xmlns:sodipodi="http://sodipodi.sourceforge.net/DTD/sodipodi-0.dtd"
   xmlns="http://www.w3.org/2000/svg"
   xmlns:svg="http://www.w3.org/2000/svg"
   xmlns:rdf="http://www.w3.org/1999/02/22-rdf-syntax-ns#"
   xmlns:cc="http://creativecommons.org/ns#"
   xmlns:dc="http://purl.org/dc/elements/1.1/">
  <sodipodi:namedview
     id="namedview114"
     pagecolor="#ffffff"
     bordercolor="#666666"
     borderopacity="1.0"
     inkscape:pageshadow="2"
     inkscape:pageopacity="0.0"
     inkscape:pagecheckerboard="0"
     showgrid="false"
     fit-margin-top="0"
     fit-margin-left="0"
     fit-margin-right="0"
     fit-margin-bottom="0"
     inkscape:zoom="1.3775387"
     inkscape:cx="21.05204"
     inkscape:cy="136.83826"
     inkscape:window-width="1920"
     inkscape:window-height="1020"
     inkscape:window-x="0"
     inkscape:window-y="28"
     inkscape:window-maximized="0"
     inkscape:current-layer="Layer_1" />
  <defs
     id="defs17">
    <style
       id="style2">.cls-1{fill:url(#linear-gradient);}.cls-2{fill:#ffe499;}.cls-3{fill:#f4c551;}.cls-4{fill:#97ca67;}.cls-5{fill:#fd8f01;}.cls-6{fill:#5b3103;}.cls-7{fill:#faa847;}.cls-8{fill:#fdd305;}.cls-9{fill:#f5c24f;}.cls-10{fill:#e5ad5f;}.cls-11{fill:#39b34a;}.cls-12{fill:#029045;}.cls-13{fill:#fc4d00;}.cls-14{fill:#fbebc6;}.cls-15{fill:#cc8f42;}.cls-16{fill:#f1732b;}.cls-17{fill:#ffecc2;}.cls-18{fill:#fa4c01;}.cls-19{fill:#ffd505;}.cls-20{fill:#fff;}</style>
    <linearGradient
       id="linear-gradient"
       x1="209.92"
       y1="262.14001"
       x2="209.92"
       y2="31.950001"
       gradientUnits="userSpaceOnUse"
       gradientTransform="translate(-92.900189,-31.960007)">
      <stop
         offset="0"
         stop-color="#ffe7a3"
         id="stop4" />
      <stop
         offset="0.14"
         stop-color="#ffedba"
         id="stop6" />
      <stop
         offset="0.37"
         stop-color="#fff5d8"
         id="stop8" />
      <stop
         offset="0.59"
         stop-color="#fffaee"
         id="stop10" />
      <stop
         offset="0.8"
         stop-color="#fffefb"
         id="stop12" />
      <stop
         offset="1"
         stop-color="#fff"
         id="stop14" />
    </linearGradient>
  </defs>
  <title
     id="title19">payment_confirmation</title>
  <g
     id="g103"
     transform="matrix(-1,0,0,1,241.41981,0)">
    <circle
       class="cls-1"
       cx="117.01981"
       cy="115.09"
       r="115.09"
       id="circle21"
       style="fill:url(#linear-gradient)" />
    <polygon
       class="cls-2"
       points="317.14,165.72 313.6,227.97 286.23,227.97 282.68,165.72 "
       id="polygon23"
       transform="translate(-92.900189,-31.960007)" />
    <rect
       class="cls-3"
       x="189.12981"
       y="132.20999"
       width="35.759998"
       height="3.8599999"
       id="rect25" />
    <polygon
       class="cls-4"
       points="316.69,142.54 311.93,164.25 309.05,164.25 313.82,142.54 "
       id="polygon27"
       transform="translate(-92.900189,-31.960007)" />
    <rect
       class="cls-5"
       x="46.449818"
       y="133.15999"
       width="36.52"
       height="23.18"
       id="rect29" />
    <path
       class="cls-5"
       d="m 72.239811,8.8999933 0.92,7.1699997 a 4.7,4.7 0 0 1 -3.45,5.22 4.57,4.57 0 0 1 -5.55,-3.86 l -1.53,-11.9999997 a 2,2 0 0 0 -1.79,-1.74 c -1.7,-0.14 -3.41,-0.21 -5.14,-0.2 a 2,2 0 0 0 -2,2.26 l 1.61,12.6099997 a 4.7,4.7 0 0 1 -3.45,5.22 4.57,4.57 0 0 1 -5.55,-3.86 l -1.63,-12.8199997 a 2,2 0 0 0 -2.49,-1.69 c -1.68,0.43 -3.32,0.92 -4.93,1.49 a 2,2 0 0 0 -1.29,2.13 l 1.51,11.7999997 a 4.69,4.69 0 0 1 -3.45,5.22 4.55,4.55 0 0 1 -5.54,-3.81 l -0.94,-7.38 a 2,2 0 0 0 -3.1,-1.41 56,56 0 0 0 -24.00000002,53.35 L 5.609811,107.03999 a 42.54,42.54 0 0 0 47.58,36.82 l 26.69,-3.41 A 42.54,42.54 0 0 0 116.69981,92.869993 l -5.17,-40.49 A 56,56 0 0 0 74.889811,6.7599933 a 2,2 0 0 0 -2.65,2.14 z"
       id="path31" />
    <path
       class="cls-6"
       d="m 37.939811,78.039993 a 8.42,8.42 0 0 1 -0.08,-1.22 9.59,9.59 0 0 1 8.37,-9.5 8.47,8.47 0 0 1 1.23,-0.08 9.59,9.59 0 0 1 9.5,8.37 2.38,2.38 0 1 1 -4.72,0.61 4.84,4.84 0 0 0 -4.78,-4.23 c -0.21,0 -0.41,0 -0.62,0 a 4.84,4.84 0 0 0 -4.22,4.79 c 0,0.2 0,0.41 0,0.62 a 2.3740314,2.3740314 0 1 1 -4.71,0.6 z"
       id="path33" />
    <path
       class="cls-6"
       d="m 86.999811,98.099993 a 18.23,18.23 0 0 1 -33.35,4.169997 z"
       id="path35" />
    <path
       class="cls-7"
       d="m 48.149811,109.49999 a 4.49,4.49 0 0 0 2.24,-3.86 3.64,3.64 0 0 0 0,-0.57 4.42,4.42 0 0 0 -1.07,-2.38 4.53,4.53 0 0 0 -2.15,-1.36 2.38,2.38 0 0 1 1.28,-4.579997 9.37,9.37 0 0 1 4.45,2.8 9.2,9.2 0 0 1 2.21,4.909997 9.48,9.48 0 0 1 0.08,1.18 9.24,9.24 0 0 1 -4.63,8 2.3808507,2.3808507 0 1 1 -2.37,-4.13 z"
       id="path37" />
    <path
       class="cls-7"
       d="m 93.019811,106.49999 a 9.23,9.23 0 0 1 -6.71,-7.729997 9.33,9.33 0 0 1 -0.08,-1.17 9.23,9.23 0 0 1 4.59,-8 2.3815174,2.3815174 0 0 1 2.39,4.12 4.47,4.47 0 0 0 -2.22,3.85 3.73,3.73 0 0 0 0,0.57 4.42,4.42 0 0 0 1.07,2.379997 4.55,4.55 0 0 0 2.18,1.36 2.38,2.38 0 0 1 -1.26,4.59 z"
       id="path39" />
    <path
       class="cls-6"
       d="m 74.779811,73.379993 a 10.13,10.13 0 0 1 -0.08,-1.22 9.59,9.59 0 0 1 8.4,-9.51 10,10 0 0 1 1.22,-0.07 9.59,9.59 0 0 1 9.5,8.37 2.38,2.38 0 0 1 -4.72,0.61 4.84,4.84 0 0 0 -4.78,-4.23 c -0.2,0 -0.41,0 -0.62,0 a 4.82,4.82 0 0 0 -4.22,4.79 4.4,4.4 0 0 0 0,0.62 2.38,2.38 0 0 1 -4.72,0.6 z"
       id="path41" />
    <path
       class="cls-5"
       d="m 87.569811,150.68999 -1.7,5.83 1.62,-5.85 h 0.08 l -1.7,5.83 1.62,-5.85 v 0 a 35.74,35.74 0 0 0 8.24,0.82 54.79,54.79 0 0 0 12.999999,-1.62 c 7.66,-1.88 16.86,-5.69 26.88,-13.39 10.02,-7.7 20.87,-19.37 31.52,-37.079997 l 16.31,9.809997 a 167.43,167.43 0 0 1 -24,31.55 c -12.2,12.34 -24.49,19.87 -35.56,24.22 a 76.86,76.86 0 0 1 -28.129999,5.54 51.3,51.3 0 0 1 -13.49,-1.56 l 5.33,-18.27 z"
       id="path43" />
    <path
       class="cls-8"
       d="m 88.679811,148.54999 -2.2,6.57 2,-6.65 0.22,0.08 -2.2,6.57 2,-6.65 -0.38,1.28 0.37,-1.28 v 0 l -0.38,1.28 0.37,-1.28 h 0.09 a 25.51,25.51 0 0 0 6.08,0.61 51.78,51.78 0 0 0 18.379999,-3.7 l 8.45,22.23 a 75.49,75.49 0 0 1 -26.829999,5.26 44.23,44.23 0 0 1 -13.5,-1.79 l 7.56,-22.55 z"
       id="path45" />
    <path
       class="cls-5"
       d="m 190.43981,86.179993 -7,22.999997 -12.59,-3.82 a 11.2,11.2 0 0 1 -7.46,-13.999997 l 3.71,-12.26 a 11.19,11.19 0 0 1 14,-7.46 l 1.88,0.57 a 11.2,11.2 0 0 1 7.46,13.97 z"
       id="path47" />
    <path
       class="cls-8"
       d="m 99.649811,160.80999 a 13,13 0 0 0 -13,-13 h -39.21 a 22.45,22.45 0 0 0 -22.45,22.45 v 13.92 a 115.34,115.34 0 0 0 50.66,38.29 h 24 z"
       id="path49" />
    <path
       class="cls-9"
       d="M 239.15981,205.26999 H 68.159811 c -1.25,0 -2.26,-1.86 -2.26,-4.16 0,-2.3 1,-4.17 2.26,-4.17 H 239.15981 c 1.25,0 2.26,1.87 2.26,4.17 0,2.3 -1,4.16 -2.26,4.16"
       id="path51" />
    <path
       class="cls-10"
       d="m 137.15981,194.68999 a 238.22,238.22 0 0 0 45.94,0 3.43,3.43 0 0 0 3.43,-3.43 v -2.39 h -52.81 v 2.39 a 3.43,3.43 0 0 0 3.44,3.43 z"
       id="path53" />
    <rect
       class="cls-6"
       x="132.4398"
       y="184.42"
       width="55.380001"
       height="4.8400002"
       rx="2.0899999"
       id="rect55" />
    <rect
       class="cls-6"
       x="132.4398"
       y="177.00999"
       width="55.380001"
       height="4.8400002"
       rx="2.0899999"
       id="rect57" />
    <path
       class="cls-11"
       d="m 186.03981,182.68999 a 3.11,3.11 0 0 1 3.66,1.48 c 1.16,2.27 -1.73,2.46 -3.46,1.59 -1.73,-0.87 -5,-0.32 -7,0.37 a 8.73,8.73 0 0 1 -8.27,-0.66 c -3.5,-2.16 -6.2,0.83 -9.51,0.66 -3.31,-0.17 -5.34,-1.83 -8.66,-1 -3.32,0.83 -7,1.66 -9.3,0.58 -2.3,-1.08 -4.61,-1.62 -6.06,-0.95 -1.45,0.67 -3.24,1.6 -4.61,0.73 -1.37,-0.87 -1.13,-2.68 0.91,-2.89 z"
       id="path59" />
    <polygon
       class="cls-8"
       points="227.76,213.82 278.29,213.82 278.29,214.6 253.03,217.5 227.76,214.6 "
       id="polygon61"
       transform="translate(-92.900189,-31.960007)" />
    <rect
       class="cls-12"
       x="164.8698"
       y="175.65999"
       width="19.969999"
       height="1.36"
       rx="0.57999998"
       id="rect63" />
    <rect
       class="cls-13"
       x="161.0798"
       y="175.65999"
       width="19.969999"
       height="1.36"
       rx="0.57999998"
       id="rect65" />
    <rect
       class="cls-13"
       x="164.26982"
       y="175.65999"
       width="19.969999"
       height="1.36"
       rx="0.57999998"
       id="rect67" />
    <path
       class="cls-10"
       d="m 133.71981,175.65999 h 52.81 v -2.55 a 15.91,15.91 0 0 0 -15.91,-15.91 h -21 a 15.91,15.91 0 0 0 -15.92,15.91 z"
       id="path69" />
    <path
       class="cls-14"
       d="m 169.41981,160.70999 c 0.12,0.28 0.39,0.45 0.6,0.36 a 0.51,0.51 0 0 0 0.16,-0.69 c -0.12,-0.29 -0.72,-0.64 -0.72,-0.64 a 2.29,2.29 0 0 0 -0.04,0.97 z"
       id="path71" />
    <path
       class="cls-14"
       d="m 166.29981,161.26999 a 0.51,0.51 0 0 0 0.14,0.69 c 0.2,0.1 0.48,0 0.61,-0.33 a 2.16,2.16 0 0 0 0,-1 2.33,2.33 0 0 0 -0.75,0.64 z"
       id="path73" />
    <path
       class="cls-14"
       d="m 178.61981,161.03999 a 0.5,0.5 0 0 0 0.13,0.69 c 0.21,0.1 0.48,-0.05 0.62,-0.33 a 2.28,2.28 0 0 0 0,-1 c 0,0 -0.62,0.35 -0.75,0.64 z"
       id="path75" />
    <path
       class="cls-14"
       d="m 160.75981,160.71999 a 0.51,0.51 0 0 0 0.14,0.69 c 0.2,0.1 0.48,-0.05 0.61,-0.33 a 2.12,2.12 0 0 0 0,-1 2.26,2.26 0 0 0 -0.75,0.64 z"
       id="path77" />
    <path
       class="cls-14"
       d="m 182.82981,160.72999 a 0.51,0.51 0 0 0 0.32,0.63 c 0.22,0 0.45,-0.19 0.5,-0.5 a 2.15,2.15 0 0 0 -0.28,-0.92 c 0,0 -0.5,0.48 -0.54,0.79 z"
       id="path79" />
    <path
       class="cls-14"
       d="m 184.24981,163.67999 a 0.44,0.44 0 1 0 0.73,0.4 2.19,2.19 0 0 0 0,-1 c 0,0 -0.59,0.33 -0.73,0.6 z"
       id="path81" />
    <path
       class="cls-14"
       d="m 175.55981,159.75999 a 0.53,0.53 0 0 0 -0.09,0.7 0.51,0.51 0 0 0 0.69,-0.12 2.18,2.18 0 0 0 0.3,-0.92 2.16,2.16 0 0 0 -0.9,0.34 z"
       id="path83" />
    <path
       class="cls-14"
       d="m 168.74981,163.33999 c 0.12,0.29 0.39,0.45 0.6,0.36 a 0.51,0.51 0 0 0 0.16,-0.68 c -0.12,-0.29 -0.72,-0.64 -0.72,-0.64 a 2.1,2.1 0 0 0 -0.04,0.96 z"
       id="path85" />
    <path
       class="cls-14"
       d="m 173.64981,160.80999 a 0.44,0.44 0 1 0 0.55,-0.63 2.34,2.34 0 0 0 -0.93,-0.26 2.17,2.17 0 0 0 0.38,0.89 z"
       id="path87" />
    <path
       class="cls-14"
       d="m 162.99981,163.26999 c 0,0.31 0.28,0.53 0.5,0.49 a 0.51,0.51 0 0 0 0.32,-0.63 2.31,2.31 0 0 0 -0.56,-0.79 2.12,2.12 0 0 0 -0.26,0.93 z"
       id="path89" />
    <rect
       class="cls-14"
       x="162.2798"
       y="146.2"
       width="0.44"
       height="12.98"
       id="rect91" />
    <polygon
       class="cls-13"
       points="240.5,177.57 242.8,181.22 240.5,185.17 255.67,185.17 255.67,177.57 "
       id="polygon93"
       transform="translate(-92.900189,-31.960007)" />
    <polyline
       class="cls-15"
       points="256.39 191.34 253.69 191.34 253.69 191.04 256.39 191.04"
       id="polyline95"
       transform="translate(-92.900189,-31.960007)" />
    <path
       class="cls-16"
       d="m 124.09981,196.91999 h 104.82 a 3.6,3.6 0 0 0 3.19,-2.07 l 1.52,-3.09 h -114.34 l 1.46,3 a 3.82,3.82 0 0 0 3.35,2.16 z"
       id="path97" />
    <path
       class="cls-5"
       d="m 55.919811,186.95999 a 20.39,20.39 0 0 0 4.15,6.67 43.32,43.32 0 0 0 14.31,10.19 58.18,58.18 0 0 0 21.49,5.13 c 1.3,0.06 2.57,0.09 3.79,0.09 9.649999,0 16.999999,-1.77 22.719999,-4.24 a 40.36,40.36 0 0 0 10.47,-6.51 38.28,38.28 0 0 0 8.42,-10.25 31.76,31.76 0 0 0 1.64,-3.39 c 0.15,-0.38 0.25,-0.66 0.3,-0.81 v -0.12 l 1.46,0.46 -1.46,-0.45 v 0 l 1.46,0.46 -1.46,-0.45 5.13,1.58 -5.14,-1.55 v 0 l 5.13,1.58 -5.14,-1.55 7.12,2.14 -7.12,-2.12 v 0 l 7.12,2.14 -7.12,-2.12 v 0 l 8.94,2.66 -9,-2.63 v 0 l 8.94,2.66 -9,-2.63 18.26,5.37 a 40.23,40.23 0 0 1 -2.84,6.71 56.68,56.68 0 0 1 -6.39,9.68 58.44,58.44 0 0 1 -19.35,15.34 c -8.71,4.33 -19.76,7.19 -33.249999,7.18 -1.52,0 -3.08,0 -4.68,-0.11 a 75.69,75.69 0 0 1 -36.42,-11.08 58,58 0 0 1 -12.74,-10.64 39.17,39.17 0 0 1 -7.91,-13.12 l 18,-6.16 z"
       id="path99" />
    <path
       class="cls-5"
       d="m 167.86981,191.54999 -23.14,6.62 -3.63,-12.64 a 11.19,11.19 0 0 1 7.68,-13.85 l 12.38,-3.54 a 11.2,11.2 0 0 1 13.84,7.68 l 0.54,1.88 a 11.2,11.2 0 0 1 -7.67,13.85 z"
       id="path101" />
    <rect
       class="cls-17"
       x="131.53981"
       y="33.499992"
       width="33.599998"
       height="28.08"
       rx="9.9300003"
       id="rect103" />
    <path
       class="cls-18"
       d="m 156.24981,43.359993 a 4.87,4.87 0 0 0 -1.25,-1.69 l -0.29,-0.25 v 0 a 4.43,4.43 0 0 0 -1.19,-0.64 4.77,4.77 0 0 0 -1.67,-0.29 4.77,4.77 0 0 0 -3.48,1.46 5,5 0 0 0 -1.5,-1 5.05,5.05 0 0 0 -2,-0.41 4.81,4.81 0 0 0 -3.19,1.18 4.71,4.71 0 0 0 -1.24,1.69 4.86,4.86 0 0 0 -0.42,2 4.77,4.77 0 0 0 0.28,1.63 4.93,4.93 0 0 0 0.89,1.51 v 0 l 5.68,5.49 a 2.06,2.06 0 0 0 0.69,0.45 2.24,2.24 0 0 0 1.56,0 2.16,2.16 0 0 0 0.69,-0.45 l 5.64,-5.43 v 0 a 4.77,4.77 0 0 0 0.9,-1.51 5,5 0 0 0 0.29,-1.67 4.86,4.86 0 0 0 -0.39,-2.07 z"
       id="path105" />
    <path
       class="cls-17"
       d="m 150.17981,58.039993 v 6 a 6.45,6.45 0 0 1 -6.44,6.44 h -3.73 a 1.61,1.61 0 1 1 0,-3.22 h 3.73 a 3.21,3.21 0 0 0 3.22,-3.22 v -6 a 1.61,1.61 0 0 1 3.22,0 z"
       id="path107" />
  </g>
  <metadata
     id="metadata116">
    <rdf:RDF>
      <cc:Work
         rdf:about="">
        <dc:title>payment_confirmation</dc:title>
      </cc:Work>
    </rdf:RDF>
  </metadata>
</svg>
