<svg xmlns="http://www.w3.org/2000/svg" viewBox="0 0 708.58 708.58" version="1.1" id="svg2393"><defs id="defs2310"><linearGradient id="linear-gradient" x1="401.07" y1="759.35" x2="401.07" y2="50.77" gradientUnits="userSpaceOnUse"><stop offset="0" stop-color="#ffe7a3" id="stop2297"/><stop offset=".14" stop-color="#ffedba" id="stop2299"/><stop offset=".37" stop-color="#fff5d8" id="stop2301"/><stop offset=".59" stop-color="#fffaee" id="stop2303"/><stop offset=".8" stop-color="#fffefb" id="stop2305"/><stop offset="1" stop-color="#fff" id="stop2307"/></linearGradient><style id="style2295">.cls-4{fill:#ffefca}.cls-5{fill:#f9e2b2}.cls-6{fill:#eb5929}.cls-8{fill:#fd8f04}.cls-9{fill:#5b3103}.cls-10{fill:#faa747}.cls-13{fill:#fdd307}</style></defs><g id="g2391" transform="translate(-46.78 -50.77)" style="isolation:isolate"><g id="Layer_1" data-name="Layer 1"><circle cx="401.07" cy="405.06" r="354.29" id="circle2314" fill="url(#linear-gradient)"/><g id="g2352" style="mix-blend-mode:multiply" opacity=".86"><path class="cls-4" d="M206.31 387.72s-1.68-.48-4.51-1.64a107.14 107.14 0 01-11.48-5.59 110.62 110.62 0 01-15.57-10.41c-2.77-2.19-5.42-4.64-8.31-7.31a106.46 106.46 0 01-8.39-8.84c-10.88-13-20.91-30.23-27.89-54.64-.88-3.05-1.7-6.23-2.44-9.55-.74-3.32-1.65-6.68-2.36-10.24-.71-3.56-1.39-7.24-2-11.1-.61-3.86-1.35-7.76-1.91-11.89-.56-4.13-1-8.45-1.59-12.88-.59-4.43-1.1-9-1.55-13.83q-.32-3.6-.63-7.35c-.26-2.48-.51-5-.77-7.57-.49-5.14-.91-10.51-1.29-16.11l5.21 7.66c3.3 4.88 8.14 11.8 13.37 20.36l4.17 6.64c1.46 2.28 2.93 4.66 4.33 7.15 2.88 5 5.9 10.18 9 15.58l9 16.89c.76 1.44 1.53 2.88 2.29 4.33l2.16 4.42c1.43 2.95 2.88 5.91 4.32 8.86A629.75 629.75 0 01196.79 357c3.09 9.18 5.4 16.88 7.14 22.24 1.57 5.39 2.38 8.48 2.38 8.48z" id="path2316"/><path class="cls-5" d="M206.31 387.72a31.88 31.88 0 003.31-2.74 52.09 52.09 0 007.43-8.56 63 63 0 007.54-14.94 65.59 65.59 0 003.64-21.82c.27-16.85-5.23-38.65-22.17-63.6q-3.18-4.68-6.83-9.48c-2.47-3.2-5.26-6.38-8.13-9.63-2.87-3.25-5.95-6.52-9.18-9.83-3.23-3.31-6.9-6.54-10.61-9.84-3.71-3.3-7.56-6.63-11.78-9.89-4.22-3.26-8.66-6.5-13.27-9.75-2.31-1.62-4.64-3.24-7.06-4.85-2.42-1.61-5-3.15-7.57-4.72q-7.71-4.69-16-9.3l5.21 7.66c3.3 4.88 8.14 11.8 13.37 20.36l4.17 6.64c1.46 2.28 2.93 4.66 4.33 7.15 2.88 5 5.9 10.18 9 15.58l9 16.89c.76 1.44 1.53 2.88 2.29 4.33l2.16 4.42c1.43 2.95 2.88 5.91 4.32 8.86A629.75 629.75 0 01196.79 357c3.09 9.18 5.4 16.88 7.14 22.24 1.57 5.39 2.38 8.48 2.38 8.48z" id="path2318"/><path class="cls-5" d="M171.65 481.55c.56.61 1.35 1.54 2.37 2.69a105.34 105.34 0 018.13 10.85 159.84 159.84 0 019.45 16.54c3.12 6.2 6.09 13 9 19.74 2.85 6.79 5.72 13.52 8.17 20v-.07.07a133.4 133.4 0 015.59 18.25 79.54 79.54 0 011.86 13.53c.06 1 .07 2 .07 2.72 0 .34 6.25 56.15 6.25 56.42l-4.54-.14c0-.23-6.25-56-6.25-56.27 0-.69 0-1.55-.07-2.54a75.38 75.38 0 00-1.76-12.74 129.89 129.89 0 00-5.42-17.6c-2.39-6.36-5.28-13.12-8.1-19.86-2.86-6.73-5.79-13.41-8.86-19.48a158.65 158.65 0 00-9.18-16.07 102.17 102.17 0 00-7.8-10.41c-.9-1-1.61-1.85-2.19-2.48z" id="path2320"/><path class="cls-5" id="polygon2322" d="M217.43 568.99v.01z"/><path class="cls-5" id="polygon2324" d="M209.91 570.65v.01z"/><path class="cls-5" id="line2326" d="M178.37 497.6l-.01-.01"/><path class="cls-5" id="polygon2328" d="M204.49 553l.01.01z"/><path class="cls-4" d="M179.74 496.59s-.9.13-2.47.24c-1.57.11-3.77.17-6.37.12a118.36 118.36 0 01-17.85-1.82c-1.51-.25-2.93-.59-4.4-.94a31.8 31.8 0 01-4.31-1.53 53.25 53.25 0 01-10-5.9c-1-.73-2.08-1.43-3.15-2.29-1.07-.86-2.33-1.68-3.56-2.66-2.55-1.86-5.33-4.05-8.51-6.45-6.31-4.87-14.1-10.78-23.13-18.18l4.16.27c2.65.19 6.44.47 11 1 9 1 21.16 2.82 32.54 7.18a72.91 72.91 0 0115.76 8.25l1.74 1.21c.55.43 1.08.88 1.62 1.31 1.06.86 2.12 1.68 3.05 2.6l1.42 1.31 1.3 1.34c.88.87 1.66 1.76 2.4 2.62a82 82 0 016.61 8.8c1.41 2.21 2.15 3.52 2.15 3.52z" id="path2330"/><path class="cls-5" d="M179.74 496.59a18.36 18.36 0 001.36-2.09 30 30 0 002.65-6 28.59 28.59 0 001.38-9.68 31.28 31.28 0 00-3.24-12.88 35.59 35.59 0 00-4.6-7 42 42 0 00-6.92-6.67 48.56 48.56 0 00-20.29-8.87 59.74 59.74 0 00-6.1-.81c-2.08-.16-4.2-.15-6.37-.13a66.17 66.17 0 00-13.34 2c-9.12 2.25-18.48 6.56-28.3 12.81l4.16.27c2.65.19 6.44.47 11 1 9 1 21.16 2.82 32.54 7.18a72.91 72.91 0 0115.76 8.25l1.74 1.21c.55.43 1.08.88 1.62 1.31 1.06.86 2.12 1.68 3.05 2.6l1.42 1.31 1.3 1.34c.88.87 1.66 1.76 2.4 2.62a82 82 0 016.61 8.8c1.43 2.12 2.17 3.43 2.17 3.43z" id="path2332"/><path class="cls-5" d="M198.1 351.85l2.13 6c1.62 4.8 3.76 11.76 6.42 20.09 4.82 16.73 11 39.09 14.83 61.57l.82 4.21.66 4.19c.43 2.82.87 5.62 1.3 8.41.43 2.79.85 5.53 1.27 8.25.42 2.72.63 5.35.95 8 .59 5.32 1.23 10.44 1.7 15.26s.69 9.44 1 13.67q.22 3.18.44 6.07c.11 1.87.13 3.67.2 5.44.11 3.44.2 6.45.28 8.92.08 2.47-2.47 108.23-2.42 109.55l-6.33-.48c0-1.31 2.5-107.29 2.41-109.87-.07-2.43-.17-5.39-.27-8.78-.07-1.65-.09-3.48-.21-5.44-.14-1.9-.28-3.9-.44-6-.3-4.18-.63-8.7-1-13.49v-.05c-.47-4.83-1.11-9.89-1.68-15.09-.31-2.58-.57-5.25-.95-8-.41-2.68-.84-5.4-1.26-8.14-.42-2.74-.85-5.51-1.27-8.28l-.65-4.2-.82-4.19c-3.85-22.39-10-44.54-14.71-61.06v-.06c-2.63-8.21-4.73-15.07-6.35-19.89-.81-2.26-1.44-4-1.9-5.31z" id="path2334"/><path class="cls-5" d="M280.57 423l-3 5.6c-2.28 4.53-5.38 11.12-9.19 19-7.1 15.86-16.38 37.12-23.38 58.83l-1.41 4.06-1.24 4.05-2.47 8.14-2.43 8c-.74 2.59-1.38 5.21-2.07 7.82-1.33 5.18-2.69 10.16-3.83 14.86-1.14 4.7-2 9.25-2.92 13.39-.45 2.08-.89 4.06-1.3 6-.41 1.94-.65 3.62-1 5.35-.6 3.39-1.12 6.35-1.54 8.78-.42 2.43-5.27 51.15-5.5 52.44l6.33.42c.23-1.28 5.11-50.21 5.55-52.75.44-2.54.93-5.31 1.52-8.65.3-1.63.57-3.43 1-5.36q.6-2.8 1.28-5.88c.89-4.09 1.86-8.52 2.88-13.21 1.14-4.71 2.49-9.63 3.79-14.7.67-2.51 1.3-5.12 2.06-7.78.79-2.6 1.59-5.24 2.4-7.89.81-2.65 1.62-5.33 2.43-8l1.25-4.07 1.4-4c7-21.62 16.14-42.69 23.19-58.37 3.76-7.76 6.81-14.25 9.1-18.8l2.63-5z" id="path2336"/><path class="cls-4" d="M267.37 457.34s1.73-.24 4.7-1a106.35 106.35 0 0012.16-3.91 111.58 111.58 0 0016.88-8.11c3.05-1.77 6-3.83 9.25-6.06a105 105 0 009.56-7.56c12.61-11.31 25-27 35.33-50.15q2-4.35 3.78-9.11c1.23-3.16 2.57-6.38 3.77-9.8 1.2-3.42 2.4-7 3.52-10.71 1.12-3.71 2.44-7.5 3.58-11.5 1.14-4 2.2-8.23 3.39-12.53 1.19-4.3 2.37-8.78 3.49-13.47.55-2.35 1.1-4.75 1.67-7.19l1.83-7.38q1.82-7.55 3.55-15.77l-6.24 6.91c-4 4.36-9.73 10.53-16.11 18.27-1.63 1.91-3.32 3.91-5.07 6-1.75 2.09-3.56 4.2-5.3 6.46-3.55 4.5-7.28 9.25-11.15 14.15l-11.33 15.44-2.88 4-2.75 3.96-5.54 8.17a628.62 628.62 0 00-36.32 61.81c-4.36 8.65-7.73 15.95-10.22 21-2.31 5.13-3.55 8.08-3.55 8.08z" id="path2338"/><path class="cls-5" d="M267.37 457.34a32.66 32.66 0 01-2.89-3.18 52.13 52.13 0 01-6.15-9.53 63.18 63.18 0 01-5.33-15.85 65.26 65.26 0 01-.52-22.11c2.11-16.72 10.64-37.53 30.93-59.84q3.81-4.17 8.11-8.42c2.89-2.81 6.1-5.57 9.4-8.38 3.3-2.81 6.81-5.62 10.48-8.43 3.67-2.81 7.75-5.5 11.89-8.24 4.14-2.74 8.43-5.5 13.07-8.13 4.64-2.63 9.49-5.21 14.51-7.77 2.51-1.28 5.06-2.56 7.67-3.81 2.61-1.25 5.4-2.41 8.16-3.6q8.3-3.56 17.14-6.95l-6.25 6.9c-4 4.36-9.73 10.53-16.11 18.27-1.63 1.91-3.32 3.91-5.07 6-1.75 2.09-3.56 4.2-5.3 6.46-3.55 4.5-7.28 9.25-11.15 14.15l-11.33 15.44-2.88 4-2.75 3.96-5.54 8.17a628.62 628.62 0 00-36.32 61.81c-4.36 8.65-7.73 15.95-10.22 21-2.31 5.13-3.55 8.08-3.55 8.08z" id="path2340"/><path class="cls-5" d="M223.36 641c.88-3.15 2.14-7.63 3.81-13 3.33-10.68 8.44-25 16.82-37.91A88.27 88.27 0 01258.6 573a87.64 87.64 0 0116-11.35 94.54 94.54 0 0112.5-5.87c1.23-.5 2.24-.87 3-1.13l1.8 5.43c-.76.26-1.7.61-2.8 1.06a92.87 92.87 0 00-11.76 5.52 81.61 81.61 0 00-15 10.63 82.32 82.32 0 00-13.65 16c-7.89 12.1-12.88 26-16.15 36.48-1.63 5.26-2.88 9.71-3.75 12.82-.33 1.2-.6 2.2-.82 3l-5.44-1.59c.21-.79.49-1.8.83-3z" id="path2342"/><path class="cls-4" d="M271.39 571a34.81 34.81 0 01-.81-4 44.38 44.38 0 01-.29-10.57 44.68 44.68 0 014-14.75 45.5 45.5 0 0111.83-15.45 52.06 52.06 0 0121.78-10.89 65.16 65.16 0 017-1.25 73.53 73.53 0 017.53-.42 68.13 68.13 0 0115.9 2A79 79 0 01370.94 533c10.38 9 19.75 21.26 27.16 36.87l-5.27-2.11c-3.36-1.31-8.2-3.11-14.09-5-11.76-3.77-28-7.67-44.49-8.18a120.27 120.27 0 00-24.14 1.52 108.19 108.19 0 00-20.37 5.51 92.46 92.46 0 00-13.52 6.39c-1.57.89-2.79 1.61-3.59 2.16z" id="path2344"/><path class="cls-6" id="polygon2346" d="M240.55 564.38h.01z"/><path class="cls-6" id="polygon2348" d="M247.03 571.62l.01-.01h-.01z"/><path id="polygon2350" fill="#ffdb94" d="M266.45 721.9l-77.65-.77-14.27-81.67h111.73z"/></g><path class="cls-8" transform="rotate(-.53 406.13 543.493)" id="rect2354" d="M356.14 513.22h101.32v64.31H356.14z"/><path class="cls-8" d="M497.42 181L495 200.9c-.78 6.53-6.23 11.83-12.81 11.71a12.65 12.65 0 01-12.33-14.12l4-33.37a5.52 5.52 0 00-3.64-5.88q-6.69-2.31-13.69-4a5.57 5.57 0 00-6.87 4.73l-4.18 35c-.79 6.53-6.23 11.83-12.81 11.71a12.65 12.65 0 01-12.33-14.12l4.25-35.6a5.57 5.57 0 00-5.56-6.22c-4.79 0-9.55.22-14.25.66a5.52 5.52 0 00-4.92 4.87L396 189.05c-.78 6.54-6.22 11.84-12.81 11.72a12.66 12.66 0 01-12.33-14.12l2.45-20.49a5.55 5.55 0 00-7.38-5.9 155.33 155.33 0 00-100.68 127.37l-13.44 112.45A118 118 0 00355 531.28l74.13 8.86A118 118 0 00560.33 437l13.44-112.45A155.3 155.3 0 00506 177a5.54 5.54 0 00-8.58 4z" id="path2356"/><path class="cls-8" d="M276.32 631.48l11.92-.13-11.92.07v.06l11.92-.13-11.92.07a91.52 91.52 0 01-1.07 12.47 100.73 100.73 0 01-4.25 17.92 70.35 70.35 0 01-6.22 13.52 49.31 49.31 0 01-6.46 8.52 38.73 38.73 0 01-13.08 9.08c-5.33 2.25-12 3.79-20.89 3.81-1.54 0-3.14 0-4.82-.15-9.89-.6-18.42-2.71-25.75-6.38a51.24 51.24 0 01-15.09-11.47 68.15 68.15 0 01-9.81-14.18c-4.55-8.62-8.52-19.78-11.31-34-2.79-14.22-4.42-31.46-4.41-52q0-6.94.25-14.39l-44-1.48q-.28 8.14-.28 15.87c0 27 2.49 50.15 7.34 70A155.41 155.41 0 00131.52 688a109.35 109.35 0 0016.72 22.62 95.31 95.31 0 0032.25 21.87 112.7 112.7 0 0036.39 8q3.78.22 7.45.23a100 100 0 0030.88-4.62 83.54 83.54 0 0022-10.82A84.79 84.79 0 00292 712.26a99.74 99.74 0 0016.65-26 137.9 137.9 0 0010.14-35.72 135.69 135.69 0 001.57-19V631l-44 .49z" id="path2358"/><path class="cls-9" d="M330.87 325a20.16 20.16 0 0120-17.76 22 22 0 012.42.14 20.09 20.09 0 0117.62 22.41 7 7 0 1013.81 1.65 35.15 35.15 0 00.24-4.08 34.07 34.07 0 00-30-33.78 34.85 34.85 0 00-4.07-.24 34.05 34.05 0 00-33.78 30 6.95 6.95 0 1013.8 1.65z" id="path2360"/><path class="cls-9" d="M441.48 338.17a20.15 20.15 0 1140 4.79 7 7 0 1013.81 1.65 35.15 35.15 0 00.24-4.08 34.07 34.07 0 00-30-33.78 35 35 0 00-4.07-.24 34.07 34.07 0 00-33.79 30 7 7 0 0013.81 1.64z" id="path2362"/><path class="cls-10" d="M461.24 426.84a12.05 12.05 0 01-5.93-10.35 11.81 11.81 0 01.11-1.67 12 12 0 012.95-6.38 12.11 12.11 0 015.85-3.6 6.95 6.95 0 10-3.61-13.42 25.92 25.92 0 00-19 21.49 25.55 25.55 0 00-.25 3.58 26 26 0 0012.78 22.33 7 7 0 007.06-12z" id="path2364"/><path class="cls-10" d="M321.18 418.16a25.92 25.92 0 0019.09-21.53 25.55 25.55 0 00.25-3.58 26 26 0 00-12.66-22.26 7 7 0 00-7.12 11.94 12.06 12.06 0 015.87 10.32 11.81 11.81 0 01-.11 1.67 12 12 0 01-3 6.4 12.11 12.11 0 01-5.89 3.59 7 7 0 003.54 13.45z" id="path2366"/><path class="cls-9" d="M385.06 445.39a15.93 15.93 0 01-13.76-17.83l1.84-14.27a15.93 15.93 0 1131.59 4.07l-1.84 14.27a15.94 15.94 0 01-17.83 13.76z" id="path2368"/><path id="polyline2370" fill="#fc4c01" d="M297.43 635.5l16.11-.14-.02-2.32-16.12.15"/><path class="cls-8" d="M507.4 611c1.08 0 1.82-.06 2.45-.12a26 26 0 002.62-.36c1.25-.23 2.08-.44 2.94-.66 1.62-.42 3.18-.89 5-1.48 3.4-1.11 7.59-2.6 12.55-4.55a337.52 337.52 0 0069.57-37.34 219.88 219.88 0 0037-32.6c11.25-12.66 21.08-27.33 27.38-44.31a92.55 92.55 0 001.85-60.36c-4.59-15-12.25-27.73-20.69-38.55a173.88 173.88 0 00-19.89-21.28 223.18 223.18 0 00-27.09-21c-7.34-4.84-12.32-7.51-12.88-7.81l-24 45 6.29-11.81-6.34 11.78 6.29-11.81-6.34 11.78.7.39c1.74 1 6.59 3.82 12.72 8.15a171.21 171.21 0 0115.18 12c7.92 7.06 15.65 15.58 21 24.35a61.34 61.34 0 016.11 13.17 41.84 41.84 0 01-.75 28.21 80.92 80.92 0 01-9.87 18.35c-7.4 10.52-17.66 20.58-29.13 29.46-17.18 13.36-37 24-52.51 31.07-7.76 3.53-14.49 6.19-19.18 7.87-2.33.83-4.18 1.43-5.19 1.73l-.56.16h-.09l2.86 11.55-2.15-11.7-.71.15 2.86 11.55-2.15-11.7L507 580.7l-2.5-20.5c-.59.08-1 .14-1.23.19L507 580.7l-2.5-20.5 2.88 23.63V560a25.69 25.69 0 00-2.88.17l2.88 23.63V611z" id="path2372"/><path d="M559.45 432.6l-60-12.5a10.27 10.27 0 01-8-12.14l28.28-135.79a10.27 10.27 0 0112.14-8l60 12.5a10.27 10.27 0 018 12.14l-28.28 135.83a10.27 10.27 0 01-12.14 7.96z" id="path2374" fill="#101d23"/><path class="cls-13" d="M543.82 526.5l21.78 29.26-21.75-29.28 21.78 29.26-21.75-29.28 11.61 15.63-11.55-15.67h-.06l11.61 15.63-11.55-15.67 1.61 2.18-1.61-2.18 1.61 2.18-1.61-2.18a192.34 192.34 0 01-26.85 15.75 163.72 163.72 0 01-25.5 10 92.61 92.61 0 01-25.38 4 53.21 53.21 0 01-11.31-1.15L439 627.51a126.76 126.76 0 0027.21 2.87 167 167 0 0047.24-7.32A252.74 252.74 0 00566 600.15 232.31 232.31 0 00588.1 586z" id="path2376"/><path class="cls-8" d="M592.72 391l-26.41-4.85a22.57 22.57 0 01-18.13-26.29l9.44-51.46a18.6 18.6 0 0121.65-14.93l1.85.34A37.22 37.22 0 01611 337.18l-8.67 47.23a8.25 8.25 0 01-9.61 6.59z" id="path2378"/><path class="cls-8" d="M152.89 580.09l1-25a23.53 23.53 0 00-22.59-24.42l-50.4-2a19.54 19.54 0 00-20.3 18.82 38.16 38.16 0 0036.64 39.62l46.11 1.8a9.18 9.18 0 009.54-8.82z" id="path2380"/><path class="cls-13" d="M344.82 556.38a80.56 80.56 0 00-15.38 4 102.42 102.42 0 00-38 24.09 107 107 0 00-22.58 33.78c-5.91 13.82-9.58 30-10.4 48.18l74.07 3.37a76.05 76.05 0 012.12-15.24 40.19 40.19 0 016.68-14.71 28.54 28.54 0 015.56-5.59 28 28 0 017.52-4.07 15.7 15.7 0 011.76-.53l-3.52-16.92 2.4 17.1c.74-.1 1.08-.17 1.12-.18l-3.52-16.92 2.4 17.1-10.28-73.43z" id="path2382"/><path class="cls-13" d="M444.07 553.56l-87.22.8A49.22 49.22 0 00308.1 604l1.32 143.32a356.14 356.14 0 00196.15-3.67l-1.2-130.92a59.76 59.76 0 00-60.3-59.17z" id="path2384"/><path d="M444.07 553.56l-87.22.8A49.22 49.22 0 00308.1 604l1.32 143.32a356.14 356.14 0 00196.15-3.67l-1.2-130.92a59.76 59.76 0 00-60.3-59.17z" id="path2386" fill="#ffd505"/><path d="M299.65 644.66l3.71 2.24a10 10 0 014.79 8.11l.55 13.82" id="path2388" fill="none" stroke="#fe4c00" stroke-miterlimit="10"/></g></g></svg>