<svg id="Layer_1" data-name="Layer 1" xmlns="http://www.w3.org/2000/svg" viewBox="0 0 199.82 173.18">
  <defs>
    <style>
      .cls-1, .cls-2 {
        fill: #fafafa;
        stroke: #3882bb;
        stroke-linejoin: round;
        stroke-width: 1.5px;
      }

      .cls-2 {
        stroke-linecap: round;
      }
    </style>
  </defs>
  <title>ThankYou</title>
  <g id="iWKcb2.tif">
    <path class="cls-1" d="M104.89,143.34a22,22,0,0,1-2.83-.85c-4.23-1.93-8.51-3.75-12.62-5.92A113.07,113.07,0,0,1,67.1,121a107.69,107.69,0,0,1-15.64-17.33A118.75,118.75,0,0,1,38,79.39a18.86,18.86,0,0,1-1.45-11.15A15.48,15.48,0,0,1,43.74,58.1,19.78,19.78,0,0,1,50,55.34,8.29,8.29,0,0,1,57.58,57a42.74,42.74,0,0,1,7.68,8.66,90,90,0,0,1,5.49,9.15C72.9,79,71.26,82.59,68,85.06c-.55.42-1.13.81-1.68,1.24-2.79,2.14-3.51,4.45-2.27,7.72a34.84,34.84,0,0,0,6.36,10.48,40.84,40.84,0,0,0,14,10.25c1.7.79,3.52,1.47,5.28.4a10.58,10.58,0,0,0,2.58-2.59,12.6,12.6,0,0,1,4.69-4,8.68,8.68,0,0,1,7.88.27,70.34,70.34,0,0,1,7.5,4.71c2.64,1.86,5.21,3.84,7.71,5.89,4.22,3.45,5,7.34,2.49,12.15-3.31,6.19-8.29,10.28-15.31,11.66a.74.74,0,0,0-.22.14Z"/>
  </g>
  <g>
    <path class="cls-1" d="M166.12,42.78H96.37a3.27,3.27,0,0,0-3.27,3.27V82.41a3.27,3.27,0,0,0,3.27,3.26h25.51l-4.51,17.08,18.68-17.08h30.07a3.26,3.26,0,0,0,3.26-3.26V46.05A3.26,3.26,0,0,0,166.12,42.78Z"/>
    <line class="cls-2" x1="103.95" y1="55.01" x2="156.96" y2="55.01"/>
    <line class="cls-2" x1="104.15" y1="64.03" x2="135.36" y2="64.03"/>
    <line class="cls-2" x1="104.15" y1="73.06" x2="145.96" y2="73.06"/>
    <line class="cls-2" x1="157.35" y1="64.03" x2="142.43" y2="64.03"/>
  </g>
</svg>
