<svg id="Layer_1" data-name="Layer 1" xmlns="http://www.w3.org/2000/svg" xmlns:xlink="http://www.w3.org/1999/xlink" viewBox="0 0 550.98 287.57">
  <defs>
    <style>
      .cls-1 {
        opacity: 0.99;
        fill: url(#linear-gradient);
      }

      .cls-2, .cls-3 {
        fill: none;
        stroke: #fff;
        stroke-linecap: round;
        stroke-linejoin: round;
        stroke-width: 9px;
      }

      .cls-3 {
        stroke-dasharray: 0 20.13;
      }

      .cls-4 {
        fill: #fff;
      }

      .cls-5 {
        opacity: 0.49;
      }

      .cls-6 {
        fill: url(#linear-gradient-2);
      }

      .cls-7 {
        fill: url(#linear-gradient-3);
      }
    </style>
    <linearGradient id="linear-gradient" x1="139.39" y1="7.54" x2="414.82" y2="282.98" gradientUnits="userSpaceOnUse">
      <stop offset="0.02" stop-color="#fffee3"/>
      <stop offset="0.39" stop-color="#b3cfd4"/>
      <stop offset="1" stop-color="#3882bb"/>
    </linearGradient>
    <linearGradient id="linear-gradient-2" x1="249.04" y1="-2.73" x2="250.11" y2="-2.73" gradientTransform="matrix(-38.64, 216.82, 216.82, 38.64, 10293.38, -53857.81)" gradientUnits="userSpaceOnUse">
      <stop offset="0" stop-color="#f3ffff"/>
      <stop offset="0.01" stop-color="#f2fefe"/>
      <stop offset="0.35" stop-color="#def1e9"/>
      <stop offset="0.68" stop-color="#d2e9dd"/>
      <stop offset="1" stop-color="#cee6d9"/>
    </linearGradient>
    <linearGradient id="linear-gradient-3" x1="434.25" y1="75.93" x2="558.52" y2="213.94" gradientTransform="matrix(1, 0, 0, 1, 0, 0)" xlink:href="#linear-gradient-2"/>
  </defs>
  <title>ThankYou</title>
  <g>
    <rect class="cls-1" x="101.93" y="44.99" width="350.35" height="200.52"/>
    <g>
      <line class="cls-2" x1="353" y1="44" x2="353" y2="44"/>
      <line class="cls-3" x1="353" y1="64.13" x2="353" y2="255.4"/>
      <line class="cls-2" x1="353" y1="265.47" x2="353" y2="265.47"/>
    </g>
    <circle class="cls-4" cx="103.93" cy="146.42" r="28.93"/>
    <circle class="cls-4" cx="455.75" cy="146.42" r="28.93"/>
    <g class="cls-5">
      <path class="cls-4" d="M305.86,146.92h-3.41a64.19,64.19,0,1,1-18.8-45.38,63.95,63.95,0,0,1,18.8,45.38h6.82a71,71,0,1,0-71,71,71,71,0,0,0,71-71Z"/>
      <path class="cls-4" d="M263,116.22H244.82v72.41c0,2.77-.59,4.67-1.77,5.72s-3.11,1.58-5.76,1.58q-5.56,0-5.57-6.06V116.22H213.51v8.63q0,4.29-1.75,6.1t-5.31,1.82q-5.2,0-5.21-6.05v-12.4c0-1.78.58-3,1.75-3.58a12.39,12.39,0,0,1,5.54-.92H268a12.47,12.47,0,0,1,5.55.92c1.16.61,1.75,1.8,1.75,3.58v12.4c0,2.13-.43,3.68-1.28,4.62a5,5,0,0,1-3.94,1.43,7.07,7.07,0,0,1-5.31-1.82q-1.75-1.81-1.75-6.1Z"/>
    </g>
  </g>
  <path class="cls-6" d="M73,33.06,70.87,97.77a11.17,11.17,0,0,1-.17,1.93,11,11,0,0,1-3.76,6.49,11.63,11.63,0,0,1-2.28,1.49,1.38,1.38,0,0,1-2-1.19l-1.8-74H58.78L57,106.39a1.43,1.43,0,0,1-2.09,1.23,11.18,11.18,0,0,1-3.5-2.76,10.93,10.93,0,0,1-2.59-7.14L47,33.06l-2.56,0L43,97.71a16.79,16.79,0,0,0,11.93,16.12l-6,144a11.12,11.12,0,1,0,22.23.09L66.37,113.23a16.8,16.8,0,0,0,10-12.52,17.64,17.64,0,0,0,.26-2.93L75.26,33.1Z"/>
  <path class="cls-7" d="M522.5,69.46c0-24-11.72-43.42-26.18-43.42s-26.18,19.44-26.18,43.42c0,21.55,6.7,39.42,21,42.83l-6.55,142.42a11.25,11.25,0,1,0,22.48.19L503,112.11C518.44,108.31,522.5,90.66,522.5,69.46Z"/>
</svg>
