<svg xmlns="http://www.w3.org/2000/svg" id="Layer_1" data-name="Layer 1" viewBox="0 0 774.3 133.71" version="1.1"><defs id="defs2193"><style id="style2191">.cls-4{fill:none;stroke:#fff;stroke-linecap:round;stroke-miterlimit:10;stroke-width:1.5px}</style></defs><rect x="0" y="0" width="774.3" height="133.71" rx="43.73" id="rect2197" fill="#fe4c00"/><text id="text2199" x="216.18" y="93.96" fill="#fff" font-size="72.88" font-family="Somatic-Rounded,Somatic">Online booking</text><path d="M125.62 97.32l1.78 1 25.75-47.25a7 7 0 00.84-4 7.15 7.15 0 00-4.43-5.94 7 7 0 00-4.11-.34L92.82 51.93a5.33 5.33 0 00-4.19 4.4 5.35 5.35 0 001 4.07l7.66 10.29a1.28 1.28 0 01.25 1 1.31 1.31 0 01-.52.87L71.29 91.75a5.38 5.38 0 00-1.1 7.53l5.52 7.4a5.38 5.38 0 007.53 1.1l25.74-19.18a1.33 1.33 0 011.86.27l7.52 10.09a5.35 5.35 0 003.62 2.12 5.43 5.43 0 003.91-1 5.55 5.55 0 001.51-1.74l-1.78-1-1.78-1a1.44 1.44 0 01-.37.43 1.4 1.4 0 01-1 .25 1.3 1.3 0 01-.88-.52l-7.52-10.1a5.4 5.4 0 00-3.54-2.1 5.33 5.33 0 00-4 1l-25.76 19.21a1.35 1.35 0 01-1 .25 1.37 1.37 0 01-.87-.52l-5.52-7.4a1.33 1.33 0 01.27-1.86l25.76-19.2a5.39 5.39 0 001.09-7.53l-7.67-10.29a1.29 1.29 0 01-.25-1 1.31 1.31 0 011-1.09l52.71-11.18a3 3 0 011.75.13 3.18 3.18 0 011.31 1 3.12 3.12 0 01.6 1.54 3 3 0 01-.37 1.72l-25.75 47.25z" id="path2201" fill="#fff"/><path class="cls-4" id="line2203" d="M175.58 28.49l-12.88 8.94"/><path class="cls-4" id="line2205" d="M181.53 53.32l-15.26-3.56"/><path class="cls-4" id="line2207" d="M154.48 14.79l-2.74 15.43"/></svg>