<svg xmlns="http://www.w3.org/2000/svg" viewBox="0 0 1341.51 754.36"><style>@keyframes car{0%{opacity:0;transform:translateX(70px)}10%{opacity:0}11%{opacity:1}to{opacity:1;transform:translateX(-700px)}}@keyframes hda{to{transform:rotateZ(7deg) translateX(-5px)}}@keyframes hdb{to{transform:rotateZ(-8deg)}}@keyframes flag{to{transform:skewY(-2deg) skewX(5deg)}}@keyframes w1{0%{opacity:0;transform:translateX(700px)}10%{opacity:0}11%{opacity:1}to{opacity:1;transform:translateX(-700px)}}@keyframes wave{15%,25%,35%,45%,5%,55%,65%,75%,85%,95%{opacity:1;transform:translateY(3px)}0%,10%,20%,30%,40%,50%,60%,70%,80%,90%{opacity:1;transform:translateY(0)}}@keyframes w2{0%{opacity:0;transform:translateX(700px)}10%{opacity:0}11%{opacity:1}to{opacity:1;transform:translateX(-700px)}}@keyframes w3{0%{opacity:0;transform:translateX(200px)}10%{opacity:0}11%{opacity:1}to{opacity:1;transform:translateX(-700px)}}@keyframes w4{0%{opacity:0;transform:translateX(150px)}10%{opacity:0}11%{opacity:1}to{opacity:1;transform:translateX(-700px)}}@keyframes cld3{0%,35%{opacity:0;transform:translateX(700px)}37%{opacity:0}39%,98%{opacity:1}to{opacity:0;transform:translateX(-600px)}}@keyframes cld2{0%,25%{opacity:0;transform:translateX(280px)}27%{opacity:0}29%,98%{opacity:1}to{opacity:0;transform:translateX(-980px)}}@keyframes cld1{0%{opacity:0;transform:translateX(1050px)}2%{opacity:0}4%,98%{opacity:1}to{opacity:0;transform:translateX(-230px)}}</style><defs><linearGradient id="prefix__linear-gradient" x1="1250.19" y1="285.72" x2="1345.97" y2="285.72" gradientUnits="userSpaceOnUse"><stop offset="0" stop-color="#fff"/><stop offset=".1" stop-color="#fbfbfb"/><stop offset=".22" stop-color="#eee"/><stop offset=".33" stop-color="#d9d9d9"/><stop offset=".45" stop-color="#bbb"/><stop offset=".57" stop-color="#949494"/><stop offset=".69" stop-color="#656565"/><stop offset=".81" stop-color="#2e2e2e"/><stop offset=".9"/></linearGradient><linearGradient id="prefix__linear-gradient-2" x1="1128.98" y1="927.06" x2="-34.11" y2="384.7" gradientTransform="matrix(1 0 0 -1 133.84 1311.76)" gradientUnits="userSpaceOnUse"><stop offset=".01" stop-color="#fff" stop-opacity="0"/><stop offset=".12" stop-color="#fffcf3"/><stop offset=".59" stop-color="#ffcc2b"/><stop offset=".82" stop-color="#fffbf0"/><stop offset="1" stop-color="#fff" stop-opacity="0"/></linearGradient><linearGradient id="prefix__linear-gradient-3" x1="52.59" y1="501.33" x2="1320.13" y2="501.33" gradientUnits="userSpaceOnUse"><stop offset=".01" stop-color="#fff"/><stop offset=".08" stop-color="#eefafa"/><stop offset=".22" stop-color="#c3eeec"/><stop offset=".41" stop-color="#7edbd6"/><stop offset=".5" stop-color="#5ad1cb"/><stop offset=".93" stop-color="#fff"/></linearGradient><linearGradient id="prefix__linear-gradient-4" x1="1218.23" y1="513.82" x2="1218.23" y2="464.6" gradientUnits="userSpaceOnUse"><stop offset="0" stop-color="#fff"/><stop offset=".31" stop-color="#fffefd"/><stop offset=".49" stop-color="#fffbf4"/><stop offset=".64" stop-color="#fff7e6"/><stop offset=".76" stop-color="#fff0d3"/><stop offset=".88" stop-color="#ffe7b9"/><stop offset=".98" stop-color="#ffdd9a"/><stop offset="1" stop-color="#ffdb94"/></linearGradient><linearGradient id="prefix__linear-gradient-5" x1="795.24" y1="513.82" x2="795.24" y2="464.6" gradientUnits="userSpaceOnUse"><stop offset="0" stop-color="#fff"/><stop offset=".16" stop-color="#fffdf8"/><stop offset=".38" stop-color="#fff7e6"/><stop offset=".65" stop-color="#ffedc8"/><stop offset=".93" stop-color="#ffdf9f"/><stop offset="1" stop-color="#ffdb94"/></linearGradient><clipPath id="prefix__clip-path" transform="translate(-22.62 -7.33)"><path fill="none" d="M52.64 3.15h844.5v626.12H52.64z"/></clipPath><clipPath id="prefix__clip-path-2" transform="translate(-22.62 -7.33)"><path fill="none" d="M425.09 68.33h844.5v486.21h-844.5z"/></clipPath><mask id="prefix__mask" x="1227.58" y="146.37" width="113.94" height="264.04" maskUnits="userSpaceOnUse"><path fill="url(#prefix__linear-gradient)" d="M1250.19 153.7h95.77v264.04h-95.77z" transform="translate(-22.62 -7.33)"/></mask></defs><g style="isolation:isolate"><path transform="rotate(-180 669.965 652.215)" style="mix-blend-mode:multiply" opacity=".53" fill="url(#prefix__linear-gradient-2)" d="M22.62 550.06h1317.31v211.63H22.62z" id="prefix__Layer_2" data-name="Layer 2"/><g id="prefix__Layer_1" data-name="Layer 1"><path d="M1017.14 461.81c0-69.11-55.86-125.14-124.76-125.14s-124.76 56-124.76 125.14a125 125 0 0036.66 88.62h176.2a125 125 0 0036.66-88.62z" transform="translate(-22.62 -7.33)" fill="#ffd505"/><g style="animation:car 20s linear infinite;animation-direction:inherit;transform-origin:center;transform-box:fill-box"><path d="M1343.64 394.72v-27.2l-.76-10.33a11 11 0 00-11-10.2h-48.7a6.07 6.07 0 00-6.07 5.68l-1 15v1.82h1.11v15.12a6.35 6.35 0 00-1.52 4.12v6.63h3a5.79 5.79 0 0011.43 0h21.39a5.79 5.79 0 0011.44 0h22.22v-.68z" transform="translate(-22.62 -7.33)" fill="#fff"/><g opacity=".56"><path fill="#ad0404" d="M1284.39 362.85h36.24v25.22h-36.24z"/><path fill="#3f2626" d="M1284.39 384.57h36.24v3.5h-36.24z"/><path fill="#c00" d="M1254.61 362.09h15.08v19.52h-15.08z"/><path d="M1292.06 381.08h-14.32v-8a2.23 2.23 0 012.23-2.24h12.09z" transform="translate(-22.62 -7.33)" fill="#101d23"/><path d="M1329 387.16v-.38h-1.19v-5.45h1.19a.33.33 0 01.33.32v4.81a.33.33 0 01-.33.32v.76a1.09 1.09 0 001.09-1.08v-4.81a1.09 1.09 0 00-1.09-1.08h-2v7h2z" transform="translate(-22.62 -7.33)" fill="#fc6"/><path fill="#fc6" d="M1312.74 363.31h.68v24.08h-.68z"/><path d="M1289.81 367.52v2h-12.37l11.1 1.36a1.45 1.45 0 011.27 1.45v23.07h38.62v-18.6a5.43 5.43 0 014.68-5.38l8-1.14a.65.65 0 01.74.65v24.47h1.78v-27.88z" transform="translate(-22.62 -7.33)" fill="#f33"/><path d="M1343.64 367.64h-67.52l1-15a6.07 6.07 0 016.07-5.68h48.7a11 11 0 0111 10.2zM1295.58 395.4h-19.87v-6.63a6.37 6.37 0 015.48-6.31l14.39-2z" transform="translate(-22.62 -7.33)" fill="#f33"/><path fill="#fff" d="M1253.5 360.31h67.52v1.39h-67.52z"/><path fill="#c10505" d="M1253.08 382.56h52.8v-.77h-52.8M1253.5 361.71h67.51v.49h-67.51z"/><path d="M1291 395.4h-12.92v-1.65a6.21 6.21 0 016.21-6.21h.5a6.21 6.21 0 016.21 6.21z" transform="translate(-22.62 -7.33)" fill="#101d23"/><circle cx="1261.84" cy="387.15" r="5.8" fill="#1f3440"/><circle cx="1261.71" cy="387.09" r="2.74" fill="#101d23"/><path d="M1323.87 395.4h-12.93v-1.65a6.21 6.21 0 016.21-6.21h.51a6.21 6.21 0 016.21 6.21z" transform="translate(-22.62 -7.33)" fill="#101d23"/><circle cx="1294.66" cy="387.15" r="5.8" fill="#1f3440"/><path d="M1319.89 394.42a2.74 2.74 0 11-2.74-2.74 2.74 2.74 0 012.74 2.74z" transform="translate(-22.62 -7.33)" fill="#101d23"/><path fill="#f33" d="M1304.23 387.39h18.38v.68h-18.38z"/><rect x="1269.76" y="366.02" width="12.93" height="6.59" rx="1.85" fill="#101d23"/><rect x="1287.18" y="366.02" width="12.93" height="6.59" rx="1.85" fill="#101d23"/><path fill="#f33" d="M1267.67 367.79h33.79v.43h-33.79z"/><rect x="1269.76" y="343.54" width="12.93" height="6.59" rx="1.85" fill="#101d23"/><path d="M1287.08 357.46h-7.43a1.52 1.52 0 01-1.51-1.7l.38-3a2.11 2.11 0 012.09-1.85h6.47a1.51 1.51 0 011.51 1.52V356a1.51 1.51 0 01-1.51 1.46zM1328.69 357.46h7.43a1.52 1.52 0 001.51-1.7l-.38-3a2.11 2.11 0 00-2.09-1.85h-6.47a1.52 1.52 0 00-1.51 1.52V356a1.52 1.52 0 001.51 1.46z" transform="translate(-22.62 -7.33)" fill="#101d23"/><rect x="1287.18" y="343.54" width="12.93" height="6.59" rx="1.85" fill="#101d23"/><path fill="#f33" d="M1255.42 345.32h59.76v.44h-59.76z"/><path d="M1301.18 385.2h-.38a2.56 2.56 0 01-.8 1.8 2.78 2.78 0 01-3.82 0 2.55 2.55 0 010-3.67 2.78 2.78 0 013.82 0 2.59 2.59 0 01.78 1.84h.76a3.45 3.45 0 10-3.45 3.35 3.4 3.4 0 003.45-3.35z" transform="translate(-22.62 -7.33)" fill="#fff"/><path fill="#fff" d="M1270.83 376.47h9.19v1.71h-9.19z"/></g></g><path fill="none" d="M847.2 395.9h18.06v9.68H847.2zM874.23 408.6h-20.29l20.29 25.39V408.6zM968.9 395.9h13.88v9.68H968.9zM830.95 404.8h9.32v.79h4.93v-9.69h-14.25v8.9zM888.05 395.9h18.06v9.68h-18.06zM867.26 395.9h18.8v9.68h-18.8zM897.34 408.6h-19.43l19.43 21.8v-21.8zM988.15 395.91h13.88v9.68h-13.88zM969.17 408.6h-18l18 14.36V408.6zM921.78 408.6h-20.55l20.55 19.29V408.6zM908.11 395.9h17.93v9.68h-17.93zM946.89 408.6h-20.83l20.83 16.69V408.6zM1140.2 215.88h-8v-7.82H836.65v7.82h-5.7v57.14h.03v1.78h-.03v8.78h.03v1.78h-.03v56.17h.03v1.77h-.03v8.78h.03v1.78h-.03v39.04h154.83v.01h154.42V215.88zM1004.03 395.91h18.79v9.68h-18.79zM1125.74 405.59h6.69v-.79h7.77v-8.89h-14.46v9.68zM982.8 419.95V408.6h-10.35l10.35 11.35zM1001.76 408.6v14.37l18-14.37h-18zM948.11 395.9h18.8v9.68h-18.8zM1105.68 395.91h18.06v9.68h-18.06zM1024.83 395.91h18.06v9.68h-18.06zM1024.04 408.6v16.69l20.84-16.69h-20.84zM1084.88 395.91h18.8v9.68h-18.8zM1044.89 395.91h17.93v9.68h-17.93zM1064.82 395.91h18.06v9.68h-18.06zM928.04 395.9h18.06v9.68h-18.06zM1132.43 408.6h-11.95v28.05l11.95-17.18V408.6zM1081.29 174.14h50.91v21.43h-50.91zM1118.48 409.94l-20.81 26.05 20.81 2.57v-28.62zM1047.15 409.34l-22.07 17.69 22.07 2.72v-20.41zM1008.21 174.14h51.65v21.43h-51.65zM1094.71 409.71l-20.8 23.34 20.8 2.57v-25.91zM1071.59 409.56l-21.84 20.51 21.84 2.7v-23.21zM1049.15 408.6v19.29l20.55-19.29h-20.55zM840.27 425.51v14.55l9.32-1.15-9.32-13.4zM909.69 174.14h51.51v21.43h-51.51zM1121.35 438.91l11.08 1.37v-17.3l-11.08 15.93zM836.65 174.14h51.61v21.43h-51.61zM876.23 409.71v25.91l20.8-2.57-20.8-23.34zM899.34 409.56v23.21l21.85-2.7-21.85-20.51zM852.45 409.94v28.61l20.81-2.56-20.81-26.05zM923.78 409.33v20.42l22.08-2.73-22.08-17.69zM1073.59 408.6v21.8l19.43-21.8h-19.43zM850.45 408.6h-10.18v13.41l10.18 14.64V408.6zM1096.71 408.6V434l20.29-25.4h-20.29zM999.76 410.17l-11.26 12.34 11.26 1.39v-13.73zM1022.04 409.33l-18.78 15 18.78 2.32v-17.32zM988.13 408.6v11.35l10.36-11.35h-10.36zM971.17 410.17v13.73l11.26-1.39-11.26-12.34zM948.89 409.33v17.32l18.79-2.32-18.79-15z"/><path d="M1276.31 412.13V223.21h5.7V101.83h.27l-7.19-63.46a1.22 1.22 0 000-2.44h-3.24v-8.59h5.4a.58.58 0 100-1.16h-5.4V21.1a.75.75 0 00-1.5 0v5.08h-4.74a.58.58 0 000 1.16h4.74v8.59h-2.85a1.22 1.22 0 000 2.44h.09l-7.19 63.46h-.4v1.93h-6.79l-20.88-74.92h1.23a1.09 1.09 0 000-2.17h-4.8V25h-7.67l-1-5.65h-2V8.08a.76.76 0 00-.75-.75h-.4a.76.76 0 00-.75.75v11.28h-1.6l-1 5.65h-6.78v1.66h-4.47a1.09 1.09 0 000 2.17h1.43L1183 103.76h-6.21v-1.93h-.06l-7.19-63.46a1.22 1.22 0 000-2.44h-3.24v-8.59h5.4a.58.58 0 100-1.16h-5.4V21.1a.75.75 0 00-1.5 0v5.08h-4.74a.58.58 0 000 1.16h4.74v8.59h-2.8a1.22 1.22 0 000 2.44h.1l-7.19 63.46v76.65h-124v-16h.55a1.33 1.33 0 100-2.66h-2a3.11 3.11 0 10-2.27 0h-1.62a1.33 1.33 0 100 2.66h.22v4.95h-36.8v-4.95h.55a1.33 1.33 0 100-2.66h-2a3.11 3.11 0 10-2.27 0h-1.62a1.33 1.33 0 000 2.66h.22v16h-124.6v-76.65h.27l-7.19-63.46a1.22 1.22 0 000-2.44h-3.25v-8.59h5.41a.58.58 0 000-1.16h-5.41V21.1a.75.75 0 00-1.49 0v5.08h-4.74a.58.58 0 100 1.16h4.74v8.59h-2.86a1.22 1.22 0 000 2.44h.1l-7.19 63.46h-.38v1.93h-6.8L809.6 28.84h1.22a1.09 1.09 0 000-2.17H806V25h-7.67l-1-5.65h-1.95V8.08a.75.75 0 00-.74-.75h-.4a.76.76 0 00-.75.75v11.28h-1.61L791 25h-6.78v1.66h-4.46a1.09 1.09 0 000 2.17h1.43l-20.87 74.92h-6.22v-1.93h-.1l-7.19-63.46a1.22 1.22 0 000-2.44h-3.24v-8.58H749a.58.58 0 000-1.16h-5.4V21.1a.75.75 0 00-1.5 0v5.08h-4.74a.58.58 0 100 1.16h4.74v8.59h-2.85a1.22 1.22 0 000 2.44h.09l-7.19 63.46v121.38h8v188.92h-7.77v52.5h20.9v.17h86v-.17H863v-14.22l145.18-17.92 1 .12 146 18v14H1176v.17h86v-.17h23.71v-52.5zm-251.93 3.8h18l-18 14.37zm-19 11.35l-10.36-11.35h10.36zm40-24v9.68h-18.8v-9.68zm117.37 8.89h-7.77v.79h-6.69v-9.68h14.46zm-16.46.79h-17.99v-9.68h18.06zm-20.06 0h-18.8v-9.68h18.8zm-20.8 0h-18.06v-9.68h18.06zm-20.06 0h-17.93v-9.68h17.93zm-19.93 0h-18.06v-9.68h18.06zm97.31-12.68H853.57V223.21h5.7v-7.81h295.55v7.81h8zm-192.1 12.68v-9.69h18.8v9.69zm-2 0h-17.99v-9.69h18.06zm-20.06 0h-17.86v-9.69h17.93zm-19.93 0h-17.99v-9.69h18.06zm-20.06 0h-18.72v-9.69h18.79zm-20.79 0h-18v-9.69h18.07zm-20.07 0h-4.92v-.79h-9.32v-8.9h14.24zm123.71 0v-9.69h13.88v9.69zm-94.67 3v25.4l-20.29-25.4zm23.11 0v21.8l-19.43-21.8zm24.44 0v19.29l-20.55-19.29zm25.11 0v16.69l-20.83-16.69zm22.28 0v14.34l-18-14.37zm19-12.69h13.88v9.68h-13.88zm35.89 12.69h20.83l-20.83 16.69zm25.11 0h20.55l-20.55 19.29zm24.44 0h19.43l-19.43 21.8zm23.11 0h20.3l-20.3 25.4zm-256.43 0h10.18V444l-10.18-14.64zm12.18 1.34l20.81 26.05-20.81 2.56zm23.78-.23l20.8 23.34-20.75 2.59zm23.11-.15l21.89 20.48-21.8 2.7zm24.44-.22l22.08 17.69-22.08 2.72zm25.11 0l18.78 15-18.73 2.3zm22.28.84l11.26 12.34-11.26 1.39zm17-1.57h10.36l-10.36 11.36zm11.63 1.57v13.73l-11.26-1.39zm22.28-.84V434l-18.78-2.32zm25.11 0v20.41l-22.08-2.72zm24.44.23v23.2l-21.84-2.7zm23.11.14V443l-20.79-2.56zm23.78.23v28.62l-20.81-2.57zm2-1.34h12v10.84l-12 17.19zm11.72-234.45v21.39h-50.91v-21.42zm-72.35 0v21.39h-51.64v-21.42zm-98.64 0v21.39h-51.51v-21.42zm-73 0v21.39h-51.55v-21.42zm-48 251.37l9.31 13.39-9.31 1.15zM1144 446.24l11.08-15.93v17.3z" transform="translate(-22.62 -7.33)" fill="#fff"/><g style="animation:cld2 60s linear infinite;transform-origin:center" opacity=".82"><path d="M1103.07 116.51a24.67 24.67 0 00-13.23 3.82 29.48 29.48 0 00-56.43 6.23 16.2 16.2 0 00-3.06-.29 16.39 16.39 0 00-16.35 15.07h113.9a24.83 24.83 0 00-24.83-24.83z" transform="translate(-22.62 -7.33)" fill="#fcf3e0"/></g><g opacity=".49" fill="none" stroke="#f9c44e" stroke-linecap="round" stroke-miterlimit="10" stroke-width="7"><path d="M271.98 692.3h14.73M284.39 682.1h14.73M298.58 692.07h14.73M334.94 692.07h14.73M351.34 680.55h14.73M229.85 650.84h14.73M211.23 664.58h14.73M117.68 664.58h14.73M101.27 677H116M134.08 677h14.73M21.46 719.12h14.73M166.01 652.61h14.73M418.74 661.92h14.73M495.89 676.11h14.73M512.29 686.31h14.73M606.29 718.68h14.73M618.93 704.71h14.73M649.52 717.35h14.73M342.92 737.96h14.73M192.61 726.66h14.73M785.2 710.03h14.73M934.84 650.17h14.73M920.87 664.14h14.73M956.79 664.14h14.73M767.24 579.67h14.73M697.63 575.68h14.73M900.26 604.95h14.73M872.32 579.23h14.73M965.44 578.34h14.72M978.74 591.2h14.73M749.73 593.64h14.73M785.64 593.64h14.73M847.72 638.2h14.73M867 740.62h14.73M717.36 691.41h14.73M793.84 675.45h14.73M467.51 715.24h14.73M479.93 705.04h14.72M494.11 715.02h14.73"/></g><g opacity=".56"><g fill="none" stroke-miterlimit="10" mask="url(#prefix__mask)"><path stroke="#ffe499" stroke-width="1.5" d="M1286.44 266.42l36.57 1M1288.76 232.83l32.92 79.15M1286.1 229.43v164.02"/><path d="M1340.97 278.73c-43.9-17-82.8-94.78-82.8-94.78s9 87 78.28 140.15M1324.57 406.42h-78.37v-11.97h78.37" stroke="#5bb8c4" stroke-width="3"/><g stroke="#5bb8c4" stroke-width="2"><path d="M1273.13 394.45v11.64M1293.58 394.45v11.64M1315.86 394.45v11.64"/></g></g><g fill="none" stroke-miterlimit="10"><path stroke="#ffe499" stroke-width="1.5" d="M683.21 266.42l-36.58 1M680.88 232.83l-32.92 79.15M683.54 229.43v164.02M646.29 268.86v124.59"/><path d="M628.67 278.73c43.89-17 82.8-94.78 82.8-94.78s-9 87-78.28 140.15M631.99 406.42h91.45v-11.97h-91.45" stroke="#5bb8c4" stroke-width="3"/><g stroke="#5bb8c4" stroke-width="2"><path d="M696.51 394.45v11.64M676.06 394.45v11.64M653.78 394.45v11.64"/></g></g><path fill="#71adad" d="M835.18 198.41h305.78v8.43H835.18z"/><path fill="none" stroke="#5bb8c4" stroke-miterlimit="10" stroke-width="2" d="M846.2 394.34v11.75M866.26 394.34v11.75M887.05 394.34v11.75M907.11 394.34v11.75M927.04 394.34v11.75M947.11 394.34v11.75M967.9 394.34v11.75"/><path d="M850.47 415l22.78 32.75 1.82-.57v-29.9l22 27.53 1.78-.62V417l21.36 24 1.75-.66v-23.45l22.76 21.37 1.68-.73v-20.86l23.48 18.81 1.63-.78v-18l20.66 16.5 1.62-.79V417.5l12.06 13.22a1 1 0 001.48-1.35l-13.8-15.13-1.74.68v15.38l-20.66-16.5-1.62.78v18L946 413.8l-1.63.78v20.64l-22.75-21.37-1.69.73v23.15l-21.36-24-1.75.67v26.91l-22-27.54-1.78.63V444l-21-30.13a1 1 0 00-1.39-.25 1 1 0 00-.25 1.39z" transform="translate(-22.62 -7.33)" fill="#afe5e8"/><path fill="none" stroke="#5bb8c4" stroke-miterlimit="10" stroke-width="3" d="M828.69 394.4h155.59v12.69H828.69z"/><path fill="none" stroke="#afe5e8" stroke-miterlimit="10" stroke-width="3" d="M984.3 423.79L828.67 443v-35.91H984.3v16.7z"/><path fill="none" stroke="#5bb8c4" stroke-miterlimit="10" stroke-width="2" d="M1124.74 394.34v11.75M1104.68 394.34v11.75M1083.88 394.34v11.75M1063.82 394.34v11.75M1043.89 394.34v11.75M1023.83 394.34v11.75M1003.03 394.34v11.75"/><path d="M1165.7 415l-22.78 32.76-1.82-.58v-29.9l-22 27.54-1.78-.63V417L1096 441l-1.75-.66V416.9l-22.76 21.36-1.68-.73v-20.86l-23.48 18.81-1.63-.78v-18l-20.7 16.46-1.63-.78V417.5l-12.06 13.22a1 1 0 01-1.41.07 1 1 0 01-.07-1.42l13.8-15.13 1.74.68v15.38l20.63-16.5 1.62.79v18l23.48-18.81 1.63.78v20.63l22.76-21.36 1.68.73v23.14l21.37-24 1.74.67v26.91l22-27.53 1.78.62V444l21-30.14a1 1 0 011.64 1.14z" transform="translate(-22.62 -7.33)" fill="#afe5e8"/><path fill="none" stroke="#5bb8c4" stroke-miterlimit="10" stroke-width="3" d="M1142.25 407.09H986.66V394.4h155.59z"/><path fill="none" stroke="#afe5e8" stroke-miterlimit="10" stroke-width="3" d="M986.63 423.79L1142.26 443v-35.91H986.63v16.7z"/><path fill="none" stroke="#5bb8c4" stroke-miterlimit="10" stroke-width="3" d="M832.85 172.64h57.01v25.94h-57.01zM908.2 172.64h57.01v25.94H908.2z"/><path fill="#ffeec4" stroke="#afe5e8" stroke-miterlimit="10" stroke-width="3" d="M908.2 198.58h-18.43v-25.94h18.43z"/><path fill="none" stroke="#5bb8c4" stroke-miterlimit="10" stroke-width="3" d="M1004.44 172.64h57.01v25.94h-57.01z"/><path fill="#ffeec4" stroke="#afe5e8" stroke-miterlimit="10" stroke-width="3" d="M1004.44 198.58h-39.33v-37.01h39.33z"/><path d="M993.55 205.91h27.28v-17.27a13.89 13.89 0 00-8.18-12.66l-5.88-2.66-5.33 2.57a13.89 13.89 0 00-7.89 12.52z" transform="translate(-22.62 -7.33)" fill="#fff"/><path fill="none" stroke="#5bb8c4" stroke-miterlimit="10" stroke-width="3" d="M1079.79 172.64h57.01v25.94h-57.01z"/><path fill="#ffeec4" stroke="#afe5e8" stroke-miterlimit="10" stroke-width="3" d="M1079.79 198.58h-18.43v-25.94h18.43z"/><path fill="#afe5e8" d="M835.18 195.57h305.78v7.22H835.18zM835.18 205.23h305.78v2.84H835.18z"/><g><rect x="770.93" width="1.89" height="21.45" rx=".75" fill="#f4d3a2"/><path fill="#eab875" d="M777.09 25.55h-10.08l2.32-13.52h5.44l2.32 13.52z"/><path fill="#f4d3a2" d="M761.57 17.68h21.84v4.21h-21.84z"/><path fill="#86b79a" d="M709.46 96.43h126.97v119.44H709.46z"/><path fill="#a3d3b8" d="M813.89 118.11h-82.26l27.42-98.43h27.42l27.42 98.43z"/><path fill="#f4d3a2" d="M792.83 154.91h-42.56V95.5l20.84-26.72 21.72 26.72v59.41zM717.46 207.89h113.06V457.3H717.46z"/><path fill="#d3a56a" d="M717.46 215.87h113.06v4.02H717.46z"/><path fill="#ffedd4" d="M717.46 207.89h19.71V457.3h-19.71zM811.23 207.89h19.71V457.3h-19.71z"/><path fill="#f9ddbb" d="M717.46 207.89h19.71v12.64h-19.71zM811.23 207.89h19.71v12.64h-19.71z"/><path fill="#fce2b9" d="M709.69 404.8h130.58v52.5H709.69z"/><g fill="#e2b77f"><path d="M737.2 344.69h74.05v1.77H737.2zM737.2 355.24h74.05v1.77H737.2z"/></g><g fill="#f4d3a2"><path transform="rotate(180 738.64 346.08)" d="M740.08 348.86h19.74v1.77h-19.74z"/><path transform="rotate(180 738.64 356.635)" d="M740.08 359.42h19.74v1.77h-19.74z"/></g><g fill="#f4d3a2"><path transform="rotate(180 832.415 346.08)" d="M833.85 348.86h19.74v1.77h-19.74z"/><path transform="rotate(180 832.415 356.635)" d="M833.85 359.42h19.74v1.77h-19.74z"/></g><path d="M839.17 455.82c0-5.84-15.14-11.9-27.43-15.86a50.61 50.61 0 00-30.94 0c-12.35 4-27.59 10-27.59 15.88v8.98h86V456c-.05-.07-.04-.13-.04-.18z" transform="translate(-22.62 -7.33)" fill="#fff1dc"/><g fill="#e2b77f"><path d="M737.2 276.18h74.05v1.77H737.2zM737.2 286.74h74.05v1.77H737.2z"/></g><g fill="#f4d3a2"><path transform="rotate(180 738.64 277.575)" d="M740.08 280.35h19.74v1.77h-19.74z"/><path transform="rotate(180 738.64 288.135)" d="M740.08 290.91h19.74v1.77h-19.74z"/></g><g fill="#f4d3a2"><path transform="rotate(180 832.415 277.575)" d="M833.85 280.35h19.74v1.77h-19.74z"/><path transform="rotate(180 832.415 288.135)" d="M833.85 290.91h19.74v1.77h-19.74z"/></g><path fill="#f4d3a2" d="M709.46 117.56h126.97v98.31H709.46z"/><path fill="#ffedd4" d="M709.46 94.5h22v121.38h-22zM814.65 94.5h22v121.38h-22z"/><g fill="#e2b77f"><path d="M731.56 200.36h82.8v1.77h-82.8zM731.56 210.92h82.8v1.77h-82.8z"/></g><g fill="#f4d3a2"><path transform="rotate(180 731.825 201.755)" d="M732.09 204.53h22.08v1.77h-22.08z"/><path transform="rotate(180 731.825 212.315)" d="M732.09 215.09h22.08v1.77h-22.08z"/></g><g fill="#f4d3a2"><path transform="rotate(180 836.695 201.755)" d="M836.96 204.53h22.08v1.77h-22.08z"/><path transform="rotate(180 836.695 212.315)" d="M836.96 215.09h22.08v1.77h-22.08z"/></g><g fill="#e2b77f"><path d="M731.56 128.87h82.8v1.77h-82.8zM731.56 139.42h82.8v1.77h-82.8z"/></g><g fill="#f4d3a2"><path transform="rotate(180 731.825 130.26)" d="M732.09 133.04h22.08v1.77h-22.08z"/><path transform="rotate(180 731.825 140.82)" d="M732.09 143.6h22.08v1.77h-22.08z"/></g><g fill="#f4d3a2"><path transform="rotate(180 836.695 130.26)" d="M836.96 133.04h22.08v1.77h-22.08z"/><path transform="rotate(180 836.695 140.82)" d="M836.96 143.6h22.08v1.77h-22.08z"/></g><g fill="#c99250"><path d="M777.17 394.46H771v-6.62a4.6 4.6 0 011.35-3.24l1.55-1.55 1.7 1.53a4.59 4.59 0 011.53 3.41zM777.17 379H771v-6.62a4.58 4.58 0 011.35-3.24l1.55-1.56 1.7 1.53a4.59 4.59 0 011.53 3.42zM821.39 394.46h-6.12v-6.62a4.6 4.6 0 011.35-3.24l1.55-1.55 1.7 1.53a4.58 4.58 0 011.52 3.41zM821.39 379h-6.12v-6.62a4.58 4.58 0 011.35-3.24l1.55-1.56 1.7 1.53a4.58 4.58 0 011.52 3.42zM794.06 394.08h-4.77V378a6 6 0 011.05-3.48l1.21-1.66 1.32 1.64a5.84 5.84 0 011.19 3.66zM801.87 394.08h-4.76V378a6 6 0 011-3.48l1.21-1.66 1.33 1.64a5.9 5.9 0 011.18 3.66z" transform="translate(-22.62 -7.33)"/><path d="M748.38 393.97h6.19v7.05h-6.19zM792.61 393.97h6.19v7.05h-6.19zM766.67 394.06h4.82v7.18h-4.82zM774.74 394.06h4.82v7.18h-4.82z"/></g><g fill="#c99250"><path d="M794.06 336.66h-4.77v-16.08a6 6 0 011.05-3.49l1.21-1.66 1.32 1.64a5.86 5.86 0 011.19 3.66zM776.54 336.66h-5.87v-16.08a5.24 5.24 0 011.29-3.49l1.49-1.66 1.63 1.64a5.2 5.2 0 011.46 3.66zM821.27 336.66h-5.87v-16.08a5.24 5.24 0 011.29-3.49l1.48-1.66 1.64 1.64a5.2 5.2 0 011.46 3.66zM801.87 336.66h-4.76v-16.08a6 6 0 011-3.49l1.21-1.66 1.33 1.64a5.92 5.92 0 011.18 3.66z" transform="translate(-22.62 -7.33)"/></g><g fill="#c99250"><path d="M790.23 176h-4.76v-16.12a6 6 0 011-3.49l1.21-1.66 1.33 1.64a5.92 5.92 0 011.18 3.66zM775.38 176h-5.88v-16.12a5.29 5.29 0 011.29-3.49l1.49-1.66 1.64 1.64a5.2 5.2 0 011.46 3.66zM821.93 176h-5.87v-16.12a5.24 5.24 0 011.29-3.49l1.49-1.66 1.63 1.64a5.2 5.2 0 011.46 3.66zM798.05 176h-4.77v-16.12a6 6 0 011.05-3.49l1.2-1.66 1.33 1.64a5.92 5.92 0 011.19 3.66zM805.36 176h-4.76v-16.12a6 6 0 011-3.49l1.21-1.66 1.33 1.64a5.92 5.92 0 011.18 3.66z" transform="translate(-22.62 -7.33)"/></g><path d="M775.71 273.81h-5.87v-16.08a5.24 5.24 0 011.29-3.49l1.49-1.66 1.63 1.64a5.2 5.2 0 011.46 3.66zM797.33 273.81h-5.88v-16.08a5.29 5.29 0 011.29-3.49l1.49-1.66 1.64 1.64a5.2 5.2 0 011.46 3.66zM796 129.29h-5.88v-16.08a5.25 5.25 0 011.29-3.48l1.49-1.67 1.64 1.64a5.22 5.22 0 011.46 3.67zM786.52 129.29h-5.87v-16.08a5.19 5.19 0 011.29-3.48l1.48-1.67 1.64 1.64a5.22 5.22 0 011.46 3.67zM806.31 129.29h-5.88v-16.08a5.25 5.25 0 011.29-3.48l1.49-1.67 1.63 1.64a5.19 5.19 0 011.47 3.67zM819.94 273.81h-5.87v-16.08a5.24 5.24 0 011.29-3.49l1.48-1.66 1.64 1.64a5.2 5.2 0 011.46 3.66z" transform="translate(-22.62 -7.33)" fill="#c99250"/><path fill="#a3d3b8" d="M719.32 30.09h-2.52l-7.3 64.41h12.72l-2.9-64.41z"/><path fill="#a3d3b8" d="M721.58 30.09h2.52l7.3 64.41h-12.72l2.9-64.41z"/><path fill="#86b79a" d="M721.59 30.09h-2.52l-5.09 64.41h12.71l-5.1-64.41z"/><rect x="715.38" y="28.6" width="10.03" height="2.44" rx="1.22" fill="#d8efe1"/><rect x="719.45" y="13.02" width="1.5" height="16.96" rx=".75" fill="#d8efe1"/><rect x="714.13" y="18.84" width="12.8" height="1.16" rx=".58" fill="#d8efe1"/><g><path fill="#a3d3b8" d="M824.85 30.09h-2.52l-7.3 64.41h12.71l-2.89-64.41z"/><path fill="#a3d3b8" d="M827.11 30.09h2.52l7.29 64.41h-12.71l2.9-64.41z"/><path fill="#86b79a" d="M827.12 30.09h-2.52l-5.1 64.41h12.72l-5.1-64.41z"/><rect x="820.91" y="28.6" width="10.03" height="2.44" rx="1.22" fill="#d8efe1"/><rect x="824.98" y="13.02" width="1.5" height="16.96" rx=".75" fill="#d8efe1"/><rect x="819.66" y="18.84" width="12.8" height="1.16" rx=".58" fill="#d8efe1"/></g><rect x="756.03" y="19.34" width="33.25" height="2.16" rx="1.08" fill="#86b79a"/><path fill="#e2b77f" d="M709.92 415.62h130.3v1.77h-130.3z"/><path fill="#c99250" d="M771 417.06h5.49v7.98H771zM753.48 417.06h5.49v7.98h-5.49zM788.62 417.06h5.49v7.98h-5.49zM818.22 417.06h5.49v7.98h-5.49zM725.77 417.06h5.49v7.98h-5.49z"/></g><g><rect x="1193.67" width="1.89" height="21.45" rx=".75" fill="#f4d3a2"/><path fill="#eab875" d="M1199.84 25.55h-10.09l2.32-13.52h5.45l2.32 13.52z"/><path fill="#f4d3a2" d="M1184.32 17.68h21.84v4.21h-21.84z"/><path fill="#86b79a" d="M1132.2 96.43h126.97v119.44H1132.2z"/><path fill="#a3d3b8" d="M1236.64 118.11h-82.27l27.43-98.43h27.41l27.43 98.43z"/><path fill="#f4d3a2" d="M1215.58 154.91h-42.57V95.5l20.84-26.72 21.73 26.72v59.41zM1140.2 207.89h113.06V457.3H1140.2z"/><path fill="#d3a56a" d="M1140.2 215.87h113.06v4.02H1140.2z"/><path fill="#ffedd4" d="M1140.2 207.89h19.71V457.3h-19.71zM1233.98 207.89h19.71V457.3h-19.71z"/><path fill="#f9ddbb" d="M1140.2 207.89h19.71v11.97h-19.71zM1233.98 207.89h19.71v11.97h-19.71z"/><path fill="#fce2b9" d="M1132.43 404.8h130.58v52.5h-130.58z"/><g fill="#e2b77f"><path d="M1159.94 344.69h74.05v1.77h-74.05zM1159.94 355.24h74.05v1.77h-74.05z"/></g><g fill="#f4d3a2"><path transform="rotate(180 1161.38 346.08)" d="M1162.82 348.86h19.74v1.77h-19.74z"/><path transform="rotate(180 1161.38 356.635)" d="M1162.82 359.42h19.74v1.77h-19.74z"/></g><g fill="#f4d3a2"><path transform="rotate(180 1255.16 346.08)" d="M1256.6 348.86h19.74v1.77h-19.74z"/><path transform="rotate(180 1255.16 356.635)" d="M1256.6 359.42h19.74v1.77h-19.74z"/></g><path d="M1261.92 455.82c0-5.84-15.14-11.9-27.44-15.86a50.57 50.57 0 00-30.93 0c-12.35 4-27.6 10-27.6 15.88v8.98h86V456c-.04-.07-.03-.13-.03-.18z" transform="translate(-22.62 -7.33)" fill="#fff1dc"/><g fill="#e2b77f"><path d="M1159.94 276.18h74.05v1.77h-74.05zM1159.94 286.74h74.05v1.77h-74.05z"/></g><g fill="#f4d3a2"><path transform="rotate(180 1161.38 277.575)" d="M1162.82 280.35h19.74v1.77h-19.74z"/><path transform="rotate(180 1161.38 288.135)" d="M1162.82 290.91h19.74v1.77h-19.74z"/></g><g fill="#f4d3a2"><path transform="rotate(180 1255.16 277.575)" d="M1256.6 280.35h19.74v1.77h-19.74z"/><path transform="rotate(180 1255.16 288.135)" d="M1256.6 290.91h19.74v1.77h-19.74z"/></g><path fill="#f4d3a2" d="M1132.2 117.56h126.97v98.31H1132.2z"/><path fill="#ffedd4" d="M1132.2 94.5h22v121.38h-22zM1237.39 94.5h22v121.38h-22z"/><g fill="#e2b77f"><path d="M1154.3 200.36h82.8v1.77h-82.8zM1154.3 210.92h82.8v1.77h-82.8z"/></g><g fill="#f4d3a2"><path transform="rotate(180 1154.57 201.755)" d="M1154.84 204.53h22.08v1.77h-22.08z"/><path transform="rotate(180 1154.57 212.315)" d="M1154.84 215.09h22.08v1.77h-22.08z"/></g><g fill="#f4d3a2"><path transform="rotate(180 1259.435 201.755)" d="M1259.71 204.53h22.08v1.77h-22.08z"/><path transform="rotate(180 1259.435 212.315)" d="M1259.71 215.09h22.08v1.77h-22.08z"/></g><g fill="#e2b77f"><path d="M1154.3 128.87h82.8v1.77h-82.8zM1154.3 139.42h82.8v1.77h-82.8z"/></g><g fill="#f4d3a2"><path transform="rotate(180 1154.57 130.26)" d="M1154.84 133.04h22.08v1.77h-22.08z"/><path transform="rotate(180 1154.57 140.82)" d="M1154.84 143.6h22.08v1.77h-22.08z"/></g><g fill="#f4d3a2"><path transform="rotate(180 1259.435 130.26)" d="M1259.71 133.04h22.08v1.77h-22.08z"/><path transform="rotate(180 1259.435 140.82)" d="M1259.71 143.6h22.08v1.77h-22.08z"/></g><g fill="#c99250"><path d="M1199.91 394.46h-6.12v-6.62a4.59 4.59 0 011.34-3.24l1.55-1.55 1.71 1.53a4.58 4.58 0 011.52 3.41zM1199.91 379h-6.12v-6.62a4.57 4.57 0 011.34-3.24l1.55-1.56 1.71 1.53a4.58 4.58 0 011.52 3.42zM1244.14 394.46H1238v-6.62a4.59 4.59 0 011.34-3.24l1.55-1.55 1.7 1.53a4.59 4.59 0 011.53 3.41zM1244.14 379H1238v-6.62a4.57 4.57 0 011.34-3.24l1.55-1.56 1.7 1.53a4.59 4.59 0 011.53 3.42zM1216.8 394.08h-4.8V378a6 6 0 011-3.48l1.21-1.66 1.32 1.64a5.84 5.84 0 011.19 3.66zM1224.62 394.08h-4.77V378a6 6 0 011.05-3.48l1.2-1.66 1.33 1.64a5.9 5.9 0 011.19 3.66z" transform="translate(-22.62 -7.33)"/><path d="M1171.13 393.97h6.19v7.05h-6.19zM1215.35 393.97h6.19v7.05h-6.19zM1189.42 394.06h4.82v7.18h-4.82zM1197.48 394.06h4.82v7.18h-4.82z"/></g><g fill="#c99250"><path d="M1216.8 336.66h-4.8v-16.08a6 6 0 011-3.49l1.21-1.66 1.32 1.64a5.86 5.86 0 011.19 3.66zM1199.29 336.66h-5.88v-16.08a5.29 5.29 0 011.29-3.49l1.49-1.66 1.63 1.64a5.16 5.16 0 011.47 3.66zM1244 336.66h-5.87v-16.08a5.24 5.24 0 011.29-3.49l1.49-1.66 1.63 1.64a5.2 5.2 0 011.46 3.66zM1224.62 336.66h-4.77v-16.08a6 6 0 011.05-3.49l1.2-1.66 1.33 1.64a5.92 5.92 0 011.19 3.66z" transform="translate(-22.62 -7.33)"/></g><g fill="#c99250"><path d="M1213 176h-4.76v-16.12a6 6 0 011-3.49l1.21-1.66 1.33 1.64A5.92 5.92 0 011213 160zM1198.12 176h-5.87v-16.12a5.24 5.24 0 011.29-3.49l1.48-1.66 1.64 1.64a5.2 5.2 0 011.46 3.66zM1244.68 176h-5.88v-16.12a5.29 5.29 0 011.29-3.49l1.49-1.66 1.63 1.64a5.21 5.21 0 011.47 3.66zM1220.79 176H1216v-16.12a6 6 0 011-3.49l1.21-1.66 1.32 1.64a5.86 5.86 0 011.19 3.66zM1228.1 176h-4.76v-16.12a6 6 0 011.05-3.49l1.2-1.66 1.33 1.64a5.92 5.92 0 011.18 3.66z" transform="translate(-22.62 -7.33)"/></g><path d="M1198.46 273.81h-5.88v-16.08a5.24 5.24 0 011.29-3.49l1.49-1.66 1.63 1.64a5.21 5.21 0 011.47 3.66zM1220.07 273.81h-5.87v-16.08a5.24 5.24 0 011.29-3.49l1.48-1.66 1.64 1.64a5.2 5.2 0 011.46 3.66zM1218.74 129.29h-5.87v-16.08a5.19 5.19 0 011.29-3.48l1.48-1.67 1.64 1.64a5.22 5.22 0 011.46 3.67zM1209.26 129.29h-5.87v-16.08a5.19 5.19 0 011.29-3.48l1.49-1.67 1.63 1.64a5.22 5.22 0 011.46 3.67zM1229.05 129.29h-5.88v-16.08a5.25 5.25 0 011.29-3.48l1.49-1.67 1.64 1.64a5.22 5.22 0 011.46 3.67zM1242.68 273.81h-5.87v-16.08a5.24 5.24 0 011.29-3.49l1.49-1.66 1.63 1.64a5.2 5.2 0 011.46 3.66z" transform="translate(-22.62 -7.33)" fill="#c99250"/><path fill="#a3d3b8" d="M1142.06 30.09h-2.52l-7.29 64.41h12.71l-2.9-64.41z"/><path fill="#a3d3b8" d="M1144.32 30.09h2.52l7.3 64.41h-12.71l2.89-64.41z"/><path fill="#86b79a" d="M1144.33 30.09h-2.51l-5.1 64.41h12.71l-5.1-64.41z"/><rect x="1138.12" y="28.6" width="10.03" height="2.44" rx="1.22" fill="#d8efe1"/><rect x="1142.2" y="13.02" width="1.5" height="16.96" rx=".75" fill="#d8efe1"/><rect x="1136.87" y="18.84" width="12.8" height="1.16" rx=".58" fill="#d8efe1"/><g><path fill="#a3d3b8" d="M1247.59 30.09h-2.52l-7.3 64.41h12.71l-2.89-64.41z"/><path fill="#a3d3b8" d="M1249.85 30.09h2.52l7.29 64.41h-12.71l2.9-64.41z"/><path fill="#86b79a" d="M1249.86 30.09h-2.52l-5.09 64.41h12.71l-5.1-64.41z"/><rect x="1243.65" y="28.6" width="10.03" height="2.44" rx="1.22" fill="#d8efe1"/><rect x="1247.72" y="13.02" width="1.5" height="16.96" rx=".75" fill="#d8efe1"/><rect x="1242.4" y="18.84" width="12.8" height="1.16" rx=".58" fill="#d8efe1"/></g><rect x="1178.77" y="19.34" width="33.25" height="2.16" rx="1.08" fill="#86b79a"/><path fill="#e2b77f" d="M1132.66 415.62h130.3v1.77h-130.3z"/><path fill="#c99250" d="M1193.74 417.06h5.49v7.98h-5.49zM1176.23 417.06h5.49v7.98h-5.49zM1211.36 417.06h5.49v7.98h-5.49zM1240.96 417.06h5.49v7.98h-5.49zM1148.51 417.06h5.49v7.98h-5.49z"/></g><g><path fill="#afe5e8" d="M961.21 152.47h5.1v47h-5.1z"/><rect x="959.66" y="152.47" width="8.54" height="2.66" rx="1.33" fill="#85c1c1"/><circle cx="963.75" cy="149.59" r="3.1" fill="#afe5e8"/></g><g><path fill="#afe5e8" d="M1003.11 152.47h5.1v47h-5.1z"/><rect x="1001.56" y="152.47" width="8.54" height="2.66" rx="1.33" fill="#85c1c1"/><circle cx="1005.65" cy="149.59" r="3.1" fill="#afe5e8"/></g></g><path opacity=".72" fill="url(#prefix__linear-gradient-3)" d="M52.59 457.22h1267.54v88.22H52.59z"/><g style="animation:wave 10s linear infinite;animation-direction:inherit;transform-origin:center;transform-box:fill-box"><path d="M790.62 512.52c8.51 0 8.51-6 17-6s8.51 6 17 6 8.51-6 17-6 8.5 6 17 6 8.51-6 17-6 8.51 6 17 6 8.51-6 17-6 8.51 6 17 6 8.5-6 17-6 8.51 6 17 6 8.51-6 17-6 8.51 6 17 6" transform="translate(-22.62 -7.33)" fill="none" stroke="#fff" stroke-linecap="round" stroke-miterlimit="10" opacity=".57"/><path d="M1100.76 529.48c8.51 0 8.51-6 17-6s8.51 6 17 6 8.51-6 17-6 8.51 6 17 6 8.5-6 17-6 8.51 6 17 6 8.51-6 17-6 8.51 6 17 6M1132.32 494.91c8.5 0 8.5-6 17-6s8.5 6 17 6 8.51-6 17-6 8.51 6 17 6" transform="translate(-22.62 -7.33)" fill="none" stroke="#fff" stroke-linecap="round" stroke-miterlimit="10" opacity=".93"/><path d="M722.63 483.6c8.5 0 8.5-6 17-6s8.5 6 17 6 8.5-6 17-6 8.51 6 17 6" transform="translate(-22.62 -7.33)" fill="none" stroke="#fff" stroke-linecap="round" stroke-miterlimit="10" opacity=".76"/></g><path fill="none" stroke="#fc6" stroke-linecap="round" stroke-miterlimit="10" stroke-width="2.5" d="M606.06 544.76h410.02M1077.93 544.76h-37.24"/><g><path transform="rotate(36.11 677.796 191.192)" fill="#8c6239" d="M676.58 194.45h2.66v70.28h-2.66z"/><g style="animation:flag 1.5s linear infinite;transform-origin:20% 40%;animation-direction:alternate;transform-box:fill-box"><path fill="#36c" d="M698.14 274.11l-43.78-52.83 25.47-34.93 43.79 52.83-25.48 34.93z"/><path fill="#fff" d="M721.26 242.41l2.36-3.23-2.61-3.15-30.2-8.41-8.46-38.23-2.52-3.04-2.41 3.31 8.08 36.47-28.83-8.03-2.31 3.18 2.68 3.23 29.94 8.35 8.39 37.9 2.77 3.35 2.27-3.11-8.11-36.66 28.96 8.07z"/><path fill="#e83636" d="M699.54 272.19l-8.79-39.72 31.38 8.75 1.49-2.04-1.06-1.28-32.62-9.09-9.14-41.29-.97-1.17-1.54 2.11 8.75 39.54-31.24-8.71-1.44 1.99 1.13 1.37 32.36 9.02 9.07 40.96 1.22 1.48 1.4-1.92z"/><path fill="#fff" d="M708.23 260.28l-43.79-52.82 5.96-8.18 43.79 52.83-5.96 8.17z"/><path fill="#fff" d="M679.42 251.51l-6.58-7.94 25.47-34.92 6.58 7.94-25.47 34.92z"/><path fill="#e83636" d="M709.2 258.95l-43.79-52.83 4.01-5.49 43.79 52.83-4.01 5.49z"/><path fill="#e83636" d="M678.35 250.23l-4.47-5.39 25.48-34.93 4.47 5.39-25.48 34.93z"/></g></g><g><path fill="#ffeec4" d="M15.87 260.53H638.1v364.39H15.87z"/><path fill="#e8c682" d="M15.87 260.53H638.1v8.63H15.87z"/><path fill="#101d23" d="M15.87 191.23H638.1v69.18H15.87z"/><path fill="none" stroke="#57758f" stroke-miterlimit="10" stroke-width="9" d="M15.87 191.23H638.1v69.18H15.87z"/><path fill="none" stroke="#7394ad" stroke-miterlimit="10" stroke-width="4" d="M15.87 191.23H638.1v69.18H15.87z"/><path fill="#edcb7e" d="M209.25 624.7V280.14h237.63V624.7"/><g opacity=".18"><path fill="none" stroke="#1f3440" stroke-linecap="round" stroke-linejoin="round" stroke-width="2" d="M370.85 511.34l-8.06 94.16 31.05-93.67M418.65 511.33l8.06 94.16-31.05-93.66"/><path fill="#d37324" d="M367.08 508.52h55.4v2.82h-55.4z"/><path d="M372.34 503.25h44.86a5.27 5.27 0 015.27 5.27h-55.4a5.27 5.27 0 015.27-5.27z" fill="#dd883c"/><path fill="#1f3440" d="M367.08 511.34h55.4v1.78h-55.4z"/><path fill="none" stroke="#1f3440" stroke-linecap="round" stroke-linejoin="round" stroke-width="2" d="M380.39 512.22l14.09 93.28 11.89-93.28"/></g><path fill="#fff" d="M209.25 624.7v-24.37h237.63v24.37"/><path fill="#ffeec4" d="M209.25 448v152.33h170.6V448"/><path fill="#f4d798" d="M209.25 448v14.63h170.6V448"/><g style="mix-blend-mode:multiply" opacity=".2" fill="none" stroke="#9e968d" stroke-miterlimit="10" stroke-width="3"><path d="M350.61 454.09v146.24M379.85 480.9H214.12M379.85 515.33H214.12M379.85 547.62H214.12M379.85 581.74H214.12M307.96 454.09v146.24M267.13 454.09v146.24M225.7 454.09v146.24"/></g><path fill="#664020" d="M209.25 446.78v12.49h177v-12.49"/><path fill="none" stroke="#1f3440" stroke-linecap="round" stroke-linejoin="round" stroke-width="2" d="M190.83 511.34l-8.06 94.16 31.05-93.67M238.63 511.33l8.06 94.16-31.05-93.66"/><path fill="#d37324" d="M187.06 508.52h55.4v2.82h-55.4z"/><path d="M192.33 503.25h44.86a5.27 5.27 0 015.27 5.27h-55.4a5.27 5.27 0 015.27-5.27z" fill="#dd883c"/><path fill="#1f3440" d="M187.06 511.34h55.4v1.78h-55.4z"/><path fill="none" stroke="#1f3440" stroke-linecap="round" stroke-linejoin="round" stroke-width="2" d="M200.38 512.22l14.08 93.28 11.9-93.28M99.84 511.34l-8.06 94.16 31.06-93.67M147.65 511.33l8.05 94.16-31.05-93.66"/><path fill="#d37324" d="M96.07 508.52h55.4v2.82h-55.4z"/><path d="M101.34 503.25h44.86a5.27 5.27 0 015.27 5.27h-55.4a5.27 5.27 0 015.27-5.27z" fill="#dd883c"/><path fill="#1f3440" d="M96.07 511.34h55.4v1.78h-55.4z"/><path fill="none" stroke="#1f3440" stroke-linecap="round" stroke-linejoin="round" stroke-width="2" d="M109.39 512.22l14.08 93.28 11.9-93.28"/><g><path d="M171.78 431.33a1.48 1.48 0 01.21-.69 1.27 1.27 0 00.15-.4 1.42 1.42 0 00-.12-.39 2 2 0 01-.16-.64v-.09a1.59 1.59 0 01.3-.68 1.24 1.24 0 00.21-.38v-.1a2.55 2.55 0 000-.34 2 2 0 01-.06-.45 1 1 0 010-.3 1.26 1.26 0 01.55-.62 4.35 4.35 0 00.48-.35 2.18 2.18 0 00.29-.46 1.56 1.56 0 01.55-.61 1.44 1.44 0 01.77-.16 2.4 2.4 0 00.55-.06 1.69 1.69 0 00.43-.3 1.73 1.73 0 01.7-.38.93.93 0 01.23 0 2.09 2.09 0 01.6.1 1.73 1.73 0 00.43.08h.11a1.85 1.85 0 00.48-.18 1.75 1.75 0 01.75-.21 1.75 1.75 0 01.75.24 2.12 2.12 0 00.49.21h.07a1.76 1.76 0 00.4-.06 2.73 2.73 0 01.54-.07 1.08 1.08 0 01.3 0c.82.24 1.53.74 2.36.9a3.73 3.73 0 00.69.05h.87a4.84 4.84 0 011 .08c.87.16 1.62.65 2.44.79a3.61 3.61 0 00.76.06h.71a5.12 5.12 0 011.09.09c.88.19 1.63.7 2.42.86s1.61 0 2.57.22 1.61.74 2.39.93 1.61.05 2.55.29c1.13.3 2.08 1 3.07 1.34s2.12.47 3.19 1 1.9 1.32 2.81 1.81 2.05.75 3 1.35 1.78 1.53 2.6 2.07 2 1 2.91 1.61c1.05.76 1.75 1.74 2.43 2.27a6 6 0 001.48.9 3.8 3.8 0 011.33.95 1.67 1.67 0 01.51 1.12 1.36 1.36 0 01-.28.8 3.39 3.39 0 01-1.18.89 11.83 11.83 0 01-1.84.71 28.72 28.72 0 01-4.7 1.32c-1.53.22-3.19.05-4.85.19-1.51.12-3.12.57-4.81.64h-.5c-1.45 0-2.87-.24-4.23-.24h-.12c-1.52 0-3.07.33-4.6.33h-.24c-1.76 0-3.39-.47-4.81-.56-1.86-.13-3.54 0-4.87-.19a3.76 3.76 0 01-1-.4 4.77 4.77 0 00-.82-.35 4.11 4.11 0 00-.81-.06h-.18a3.26 3.26 0 01-1-.11 3.42 3.42 0 01-1-.51 3.79 3.79 0 00-.77-.45 4.15 4.15 0 00-.92-.2 3.66 3.66 0 01-1-.25 3.83 3.83 0 01-.91-.67 4.34 4.34 0 00-.67-.57 4 4 0 00-.9-.37 3.74 3.74 0 01-.95-.45 3.43 3.43 0 01-.77-.88 5 5 0 00-.5-.7 9.31 9.31 0 00-.89-.77 2.35 2.35 0 01-.64-.66.51.51 0 010-.2.77.77 0 01.13-.4l-.11-.07-.14-.12a.49.49 0 01-.13-.28V438a.49.49 0 01.12-.3l.11-.13-.14-.13a.45.45 0 01-.12-.27v-.06a.57.57 0 01.09-.28.56.56 0 010-.08l-.15-.07a.54.54 0 01-.2-.2.49.49 0 01-.05-.24 1.15 1.15 0 010-.21h-.19a.63.63 0 01-.26-.13.88.88 0 01-.22-.36 2.53 2.53 0 01-.09-.5 1.46 1.46 0 00-.08-.38 1.56 1.56 0 00-.27-.34 1.54 1.54 0 01-.39-.67 1 1 0 010-.18 2.2 2.2 0 01.12-.57 1.43 1.43 0 00.08-.38 1.3 1.3 0 00-.18-.39 1.57 1.57 0 01-.24-.71z" transform="translate(-22.62 -7.33)" fill="#eaa654"/><path d="M192.83 430.24a4.76 4.76 0 00-2.21-.5c-.73.11-1.06.71-1.29 1.34l.55-.22a3.33 3.33 0 00-3-.18 3.36 3.36 0 01-.33.16.56.56 0 01-.34 0 2 2 0 00-.76 0 1.93 1.93 0 00-1.14.79c-.29.39.36.76.65.38a1.2 1.2 0 011-.48 2.43 2.43 0 00.54.08 1.37 1.37 0 00.5-.21 2.55 2.55 0 012.47.08.38.38 0 00.55-.23c.2-.54.45-.89 1.08-.79a7.94 7.94 0 011.5.48c.46.16.66-.57.2-.73zM181.25 428.56a1.32 1.32 0 00-1.13-.14 1.51 1.51 0 00-.52.3 1.14 1.14 0 00-.2.23.75.75 0 00-.13.27c0 .11.22 0 .18-.07a.26.26 0 00-.13-.06 1.15 1.15 0 00-.35-.1 1.14 1.14 0 00-.6.12 1.16 1.16 0 00-.66 1l.57-.32a.89.89 0 00-.89 0c-.42.23 0 .88.38.64a.12.12 0 01.13 0 .37.37 0 00.56-.32v-.05a.28.28 0 01.09-.13.49.49 0 01.13-.08h.19a.56.56 0 01.17.07.59.59 0 00.67 0c.15-.12.17-.29.27-.43l.11-.11.14-.08a.58.58 0 01.58.06.38.38 0 10.38-.65zM192.75 433.59a.6.6 0 00-.19.06l-.18.09a1.15 1.15 0 00-.33.33 1.12 1.12 0 00-.15.84.38.38 0 00.46.26.38.38 0 00.26-.46.13.13 0 000-.06v.1a.49.49 0 010-.17v.1a.6.6 0 01.06-.19v.09a1 1 0 01.1-.17l-.06.08a.62.62 0 01.14-.14l-.08.06.16-.1h-.09.15a.38.38 0 00.26-.46.36.36 0 00-.18-.22H193a.34.34 0 00-.2 0zM202.67 430.9a2 2 0 00-1.37-.11 1.07 1.07 0 00-.75 1l.47-.36a1.14 1.14 0 00-1.09 0 .74.74 0 00-.28 1 .39.39 0 00.52.14.4.4 0 00.13-.52.17.17 0 010 .07.29.29 0 01.18 0 2.33 2.33 0 01.31.11c.23.1.47-.14.47-.36s0 .05 0 0 0-.06 0 0a.26.26 0 010-.09s.06-.05 0 0l.08-.05h.08a1.68 1.68 0 01.87.14.38.38 0 00.46-.26.37.37 0 00-.26-.46z" transform="translate(-22.62 -7.33)" fill="#d3822a"/><path d="M228.14 444.1l16.59-11.76a.67.67 0 00.15-1l-.45-.54a.81.81 0 00-1.07-.13l-17.53 12.43a.34.34 0 00.06.6l1.19.51a1.09 1.09 0 001.06-.11z" transform="translate(-22.62 -7.33)" fill="#ffd38d"/><path d="M225.88 449.88l11.2-16.28a.67.67 0 00-.23-1l-.63-.36a.81.81 0 00-1.06.22l-11.84 17.2a.34.34 0 00.29.53l1.31.1a1.07 1.07 0 00.96-.41zM224 447.79l11.2-16.27a.66.66 0 00-.23-1l-.63-.37a.82.82 0 00-1.06.23l-11.83 17.2a.34.34 0 00.28.53l1.32.1a1.07 1.07 0 00.95-.42z" transform="translate(-22.62 -7.33)" fill="#ffd38d"/><path d="M223.58 446.22l18.58-8.83a.68.68 0 00.34-.95l-.33-.61a.79.79 0 00-1-.3l-19.64 9.33a.33.33 0 00-.05.59l1.06.7a1.1 1.1 0 001.04.07zM220.19 447.87l-15.58-13.44a.69.69 0 01-.07-1l.48-.5a.8.8 0 011.07 0l16.46 14.21a.34.34 0 01-.11.59l-1.21.39a1.07 1.07 0 01-1.04-.25z" transform="translate(-22.62 -7.33)" fill="#ffda8f"/><path d="M211.8 442.77l17.54-10.51a.68.68 0 00.23-1l-.4-.58a.81.81 0 00-1.06-.2l-18.53 11.11a.34.34 0 000 .6l1.14.6a1.1 1.1 0 001.08-.02z" transform="translate(-22.62 -7.33)" fill="#ffda8f"/><path d="M216.88 443.37l16.25-12.15a.67.67 0 00.12-1l-.47-.54a.8.8 0 00-1.07-.09l-17.17 12.84a.33.33 0 00.08.59l1.2.48a1.09 1.09 0 001.06-.13z" transform="translate(-22.62 -7.33)" fill="#ffda8f"/><path d="M217.64 432.7l-12.08 15.74a.66.66 0 00.18 1l.61.39a.82.82 0 001.07-.18L220.18 433a.35.35 0 00-.26-.55l-1.3-.15a1.07 1.07 0 00-.98.4z" transform="translate(-22.62 -7.33)" fill="#ffd38d"/><path d="M207.45 441.59L225 431.07a.68.68 0 00.24-1l-.41-.57a.79.79 0 00-1.06-.2l-18.52 11.11a.34.34 0 000 .6l1.14.59a1.08 1.08 0 001.06-.01z" transform="translate(-22.62 -7.33)" fill="#ffda8f"/><path d="M213.29 431.51l-12.08 15.74a.67.67 0 00.18 1l.61.4a.82.82 0 001.07-.18l12.76-16.63a.34.34 0 00-.26-.55l-1.3-.16a1.09 1.09 0 00-.98.38z" transform="translate(-22.62 -7.33)" fill="#ffd38d"/><path d="M224.06 436.53l-18.74 8.54a.68.68 0 00-.36.94l.32.62a.8.8 0 001 .32l19.8-9a.33.33 0 00.06-.59l-1-.72a1.08 1.08 0 00-1.08-.11z" transform="translate(-22.62 -7.33)" fill="#ffe6a6"/><g><path d="M205.36 436.59l1.35-.39a6.64 6.64 0 004.57-8.2l-14.12 4a6.63 6.63 0 008.2 4.59z" transform="translate(-22.62 -7.33)" fill="#ffd505"/><path d="M205.15 435.44l1.3-.37c3.39-1 5.47-4.11 4.64-7l-13.58 3.87c.83 2.89 4.25 4.47 7.64 3.5z" transform="translate(-22.62 -7.33)" fill="#ffeea4"/><g fill="#ffd505"><path d="M205.07 429.76l4.71 3.26-.22.24-4.89-3.38zM203.77 430.14l-2.61 5.29-.32-.1 2.51-5.07z" transform="translate(-22.62 -7.33)"/></g><path d="M204.22 431.05a.36.36 0 00.7-.2c0-.2-.32-.53-.51-.47s-.25.47-.19.67zM206.46 430.27a.37.37 0 00.46-.24.36.36 0 00-.24-.46c-.19-.06-.61 0-.67.17s.26.47.45.53zM202.29 431.46a.37.37 0 11-.55-.48c.13-.15.51-.34.66-.21s.03.53-.11.69z" transform="translate(-22.62 -7.33)" fill="#f7c54f"/></g><g><path d="M184.69 453.77h46a7.52 7.52 0 006.93-5.32l3.35-9.69h-66.56l3.36 9.69a7.5 7.5 0 006.92 5.32z" transform="translate(-22.62 -7.33)" fill="#e6e6e6"/><path d="M184.69 453.77h46a7.52 7.52 0 006.93-5.32l3.35-9.69h-66.56l3.36 9.69a7.5 7.5 0 006.92 5.32z" transform="translate(-22.62 -7.33)" fill="none" stroke="#fe4c00" stroke-miterlimit="10"/><path fill="none" stroke="#fe4c00" stroke-miterlimit="10" d="M215 441.12h-59.85M216.75 436.37h-63.18M185.25 431.23v15.31"/><g fill="none" stroke="#fe4c00" stroke-miterlimit="10"><path d="M191.98 431.23l-2.76 15.31M198.24 431.23l-4.75 15.31M204.79 431.23l-7.14 15.31M211.67 431.23l-8.97 15.31M217.96 431.23l-10.67 15.31"/></g><g fill="none" stroke="#fe4c00" stroke-miterlimit="10"><path d="M178.43 431.23l2.76 15.31M172.17 431.23l4.75 15.31M165.62 431.23l7.15 15.31M158.74 431.23l8.98 15.31M152.46 431.23l10.66 15.31"/></g></g><path d="M229.45 438.5l-26.79 13.69s-6.08-2.24-7.84-2.37-9-2.11-10.41-3.82-7.6-7.9-7.6-7.9 11.81-1.31 15.67-.79a49.33 49.33 0 0010.53.27c1.64-.27 25.16.42 26.44.92z" transform="translate(-22.62 -7.33)" fill="#f2f2f2"/><g fill="none" stroke="#999" stroke-miterlimit="10"><path d="M180.38 441.67a60 60 0 00-8.3-2.9c-3.82-.92-5.93-2.76-6.52-3.68M164.5 433.87a5.59 5.59 0 00-1.78-1.52" stroke-width="2"/><path d="M165.95 430.05a5.41 5.41 0 003.82 3.49c3.16.92 10.13 3.42 14 6.71M169.86 429.98s.76 1.65 3.72 2.37M186.62 438.84s-5.48-4.94-10.86-6M176.15 430.67a4.92 4.92 0 001.78.79M179.56 432.02a15.24 15.24 0 012.07 1M183.38 433.8a50.32 50.32 0 015.09 4M191.21 436.57a47.57 47.57 0 00-7.35-5.73M193.53 435.18s-2.86-2.61-4.05-3.45M196.05 433.75a22.43 22.43 0 01-3-2.12l-.35-.5M198.6 432.81a6.7 6.7 0 01-1.64-1.58" stroke-width=".5"/></g><g fill="none" stroke="#dded43" stroke-miterlimit="10"><path d="M187.91 427.11s-.13.92 1 .85M193 429.41a.43.43 0 00-.59.2M196 430.6s.06.79-.86.72M187.58 434.15s-1.05-.33-1.45.2" transform="translate(-22.62 -7.33)"/><path d="M169.04 425.7l-.59.46M180.76 426.23l-.85.13"/><path d="M200.26 431.64s.22-.52-.5-.85M185.47 428.69a1.16 1.16 0 00-.85-.46M216.09 435.27a.86.86 0 01-1 .46M212.34 434.74s-.33-.46-.86.27M209.31 431.39s-.07.65-.6.52M205.55 437.11a2.2 2.2 0 00-1.31.07" transform="translate(-22.62 -7.33)"/></g></g><path fill="#ffeec4" d="M26.05 538.18h182.62v86.55H26.05z"/><g><path fill="#ffeec4" d="M183.62 285.04h21.28v263.82h-21.28z"/><path fill="#69e8e2" opacity=".72" d="M35.83 292.93h146.01v246.46H35.83z"/><path fill="#58c6bd" opacity=".72" d="M33.93 453.28v86.73H181.4v-86.73"/><path fill="#58c6bd" d="M33.93 447v12.38H181.4V447"/><path fill="none" stroke="#101d23" stroke-miterlimit="10" stroke-width="10" d="M35.83 292.93h146.01v246.46H35.83z"/><path fill="none" stroke="#101d23" stroke-miterlimit="10" stroke-width="10" d="M35.83 292.93h146.01v36.86H35.83z"/><path fill="none" stroke="#101d23" stroke-miterlimit="10" stroke-width="10" d="M35.83 292.93h73.15v36.86H35.83z"/><g opacity=".45" fill="none" stroke="#fff" stroke-linecap="round" stroke-miterlimit="10" stroke-width="4"><path d="M132.34 372.68l-44.48 76.77M136.6 437.26l-28.64 49.97M153.05 369.02L81.76 492.71"/></g></g><g><path fill="#69e8e2" opacity=".72" d="M470.79 292.93H616.8v246.46H470.79z"/><path fill="none" stroke="#101d23" stroke-miterlimit="10" stroke-width="10" d="M470.79 292.93H616.8v246.46H470.79z"/><path fill="none" stroke="#101d23" stroke-miterlimit="10" stroke-width="10" d="M470.79 292.93H616.8v36.86H470.79z"/><path fill="none" stroke="#101d23" stroke-miterlimit="10" stroke-width="10" d="M470.79 292.93h73.15v36.86h-73.15z"/><g opacity=".45" fill="none" stroke="#fff" stroke-linecap="round" stroke-miterlimit="10" stroke-width="4"><path d="M567.29 372.68l-44.47 76.77M571.56 437.26l-28.64 49.97M588.01 369.02l-71.29 123.69"/></g></g><path fill="none" stroke="#101d23" stroke-miterlimit="10" stroke-width="10" d="M209.25 624.7V280.14h237.63V624.7"/><g opacity=".42"><path d="M82.38 421.77c1.13 1.39-.27 1.58.38 2.39l.51.64 4.3-5.74-.53-.65c-.27-.34-.37-.27-.73 0s-.62.52-1.22-.23l-2.15-2.61.77-1c.69-.92 1.62.59 2.08 0l.58-.78-3-3.72-.52.71c-.65.86.63 1.35-.21 2.48l-.77 1-2.51-3 1.49-2c1.09-1.47 2.18.38 2.82-.47l.55-.74-2.54-3.11a5.6 5.6 0 01-1.16 2.06l-5.67 7.58.52.65c.58.73.88-.93 1.86.27zM84.93 405.51a1.8 1.8 0 002.69-.08 2.22 2.22 0 00.14-3.13 1.73 1.73 0 00-2.57.13 2.19 2.19 0 00-.26 3.08zm4.9 7.84a1.61 1.61 0 00.32.43c1 1 2.09.41 3-.47 1.14-1.12 1.91-3.08 1.59-3.41a3.81 3.81 0 00-.9-.47 2.15 2.15 0 01-.45 1 .51.51 0 01-.8-.16l-3.1-5.27c-.06-.12-.16-.22-.27-.12a21.16 21.16 0 01-3.28 4.29l.42.72c.12.2.26.24.51.12l.19-.09c.28-.11.61-.16 1.06.58zM97.13 400.73a3.05 3.05 0 00.2.53c.33.45 1.1.36 1.63 0a1.44 1.44 0 00.5-2c-.93-1.28-3.31.43-3.83.81-2.86 2.08-3.37 4.15-2.45 5.41 1.13 1.56 4.33.09 5 1 .23.33 0 .79-.4 1.11a1.07 1.07 0 01-.68.22 1.32 1.32 0 00-.24-.55 1.47 1.47 0 00-2.06-.13 1.53 1.53 0 00-.45 2.16c.7 1 2.57.67 4.72-.9 3.22-2.34 2.92-4.57 2.22-5.53-1.39-1.92-4.42.29-5.17-.73-.33-.46.15-.92.34-1.06a2.1 2.1 0 01.67-.34zM104.91 390.08l-4.9 2.47.15.76c.15.9 1.27-.3 1.57 1.31l1.9 10.22 3.7-1.7-1.14-6.14a1.8 1.8 0 01.81-.89.6.6 0 01.81.21c.29.65.68 4 1 4.68s1.5 1.1 3.05.39 2.78-2.24 2.6-2.64c0-.1-.18-.22-.77-.66a1.59 1.59 0 01-.59.65c-.2.1-.71.21-.89-.75l-.33-1.77a9 9 0 00-.57-2.32c-.38-.81-1.39-1.26-2.89-.57a7.69 7.69 0 00-2.56 2zM124.62 392.32a13.47 13.47 0 002.2 3.52 1.21 1.21 0 01-.61.2 2.34 2.34 0 01-2.38-2.25 1.25 1.25 0 01.79-1.47zm3.21-3.29a4.42 4.42 0 01-.42-1.51c0-.31 0-1.21.79-1.29s.75.63.77.81a2.22 2.22 0 01-1.14 1.96zm2.13 1.38l-.11.75c-.11.67.66.38.72 1a1.92 1.92 0 01-.53 1.23 11.23 11.23 0 01-1.64-3 11.14 11.14 0 001.9-1.28 2.85 2.85 0 00.92-2.27c-.1-1-1-2.52-3.62-2.28-2.83.26-4.37 2.28-4.18 4.3a6.14 6.14 0 00.58 1.94c-2 .69-4.42 1.58-4.17 4.25.16 1.71 1.68 3.41 4.74 3.13a6.73 6.73 0 003.5-1.39 4.37 4.37 0 003 .79c1.91-.18 3.56-1.64 3.52-2.11 0-.19-.14-.3-.6-.68a1.66 1.66 0 01-1 .44 2.64 2.64 0 01-2-.83l1.26-1.72c1-1.34 1.83-1.13 2-1.85l.12-.84zM156.64 389.05l-1.37-.34a1.12 1.12 0 01-.63 0c-.55-.13-.85-1-2.94-1.49a8 8 0 00-9.61 5.84c-.71 2.9.35 5.75 4.28 6.72s6.13-1.53 6.25-2c0-.15 0-.35-.61-1.13a4.48 4.48 0 01-4.11 1.51c-1.77-.43-1.48-2.31-1.3-3.07.42-1.71 2.8-6.75 5.54-6.08 1.35.34 1.22 1.38 1.13 2.32-.1.75-.15 1.12.53 1.28l.85.21zM164.49 392.87l-5-2.26-.5.59c-.61.68 1 .8 0 2.05l-6.76 7.88 3.64 1.82 4.1-4.77a1.79 1.79 0 011.21.07c.21.11.51.42.34.76-.32.64-2.66 3-3 3.72s.08 1.86 1.6 2.63 3.49.76 3.69.36a2.73 2.73 0 000-1 1.71 1.71 0 01-.88 0c-.19-.1-.6-.43 0-1.18l1.17-1.36a9.59 9.59 0 001.44-1.9c.4-.8.11-1.87-1.36-2.6a7.71 7.71 0 00-3.18-.73zM171.88 399.75a1.82 1.82 0 00.51 2.65 2.22 2.22 0 003.12-.37 1.73 1.73 0 00-.54-2.51 2.19 2.19 0 00-3.09.23zm-7 6.1a1.55 1.55 0 00-.37.38c-.82 1.11-.07 2.13.95 2.88 1.28.95 3.34 1.39 3.61 1a3.36 3.36 0 00.33-1 2.12 2.12 0 01-1-.29.51.51 0 010-.82l4.68-3.88c.1-.09.19-.2.07-.29a21.27 21.27 0 01-4.76-2.55l-.65.53c-.17.15-.19.29 0 .52l.11.18c.16.25.26.57-.4 1.13z" transform="translate(-22.62 -7.33)" fill="#e6fffc"/><path d="M176.65 410.73a2 2 0 01.85.4c.46.47-.08 1-.21 1.14-.76.74-3.27 2.09-4.12 1.22-.23-.23-.21-.44 0-.68a3.2 3.2 0 01.6-.41zm-4.94 2.91a3.12 3.12 0 00.95 1.9c1.88 1.9 5.5 1.88 7.83-.41a2.59 2.59 0 00.25-3.87 6 6 0 00-2.81-1.29l.83-.49c.1-.05.12-.11 0-.19a17.09 17.09 0 01-4.27-3.24l-.67.41c-.3.19-.23.35-.15.53l.09.2c.1.28.12.62-.59 1l-7.8 4.62 2.8 2.85zM186.15 421.21a3.13 3.13 0 00-.54.19c-.45.3-.4 1.08 0 1.63a1.44 1.44 0 002 .57c1.31-.87-.3-3.32-.66-3.85-2-2.94-4-3.53-5.31-2.66-1.6 1.07-.26 4.32-1.2 5-.34.22-.79 0-1.09-.44a1 1 0 01-.2-.68 1.45 1.45 0 00.56-.22 1.48 1.48 0 00.21-2.06 1.53 1.53 0 00-2.14-.53c-1 .66-.77 2.54.71 4.75 2.22 3.3 4.46 3.1 5.45 2.43 2-1.31-.13-4.43.92-5.14.47-.31.92.18 1 .38a2.12 2.12 0 01.29.63zM149.19 426.07c-4.54-4.37-13.34-11.31-23.46-11.31-14.73 0-26.73 6.62-26.73 14.78s12 14.77 26.75 14.77c10.34 0 19.3-7.24 23.75-11.58a12.17 12.17 0 0011.35 8.27l.1-12.11v-12.11a12.18 12.18 0 00-11.76 9.29" transform="translate(-22.62 -7.33)" fill="#e6fffc"/><path d="M112.09 418.09a.49.49 0 00-.27.91 13 13 0 01.68 21.31.5.5 0 00.3.9.54.54 0 00.3-.1 14 14 0 00-.73-22.94.48.48 0 00-.28-.08" transform="translate(-22.62 -7.33)" fill="#8ceee9"/><path d="M108.69 425a1.45 1.45 0 11-1.45-1.45 1.45 1.45 0 011.45 1.45z" transform="translate(-22.62 -7.33)" fill="#69e8e2"/></g><path d="M498.73 232a7.06 7.06 0 00-.37 1.38c0 1.37 1.69 2.33 3.34 2.33 2.52 0 3.93-1.74 3.93-3.29 0-3.94-7.32-4-8.92-4-8.83 0-12.9 3.43-12.9 7.32 0 4.8 8.6 6.54 8.6 9.37 0 1-1.05 1.65-2.42 1.65a2.5 2.5 0 01-1.69-.55 3.65 3.65 0 00.32-1.46c0-2.11-2.11-3.3-4-3.3a3.83 3.83 0 00-4.08 3.71c0 3 4.21 5.12 10.85 5.12 9.92 0 12.62-4.94 12.62-7.91 0-5.9-9.38-5.9-9.38-9.06 0-1.42 1.65-1.65 2.25-1.65a5.11 5.11 0 011.85.34zM465 234.82a4.87 4.87 0 012.2-.83c1.64 0 1.64 1.92 1.64 2.38 0 2.65-2 9.47-5 9.47-.82 0-1.14-.41-1.14-1.28a8.28 8.28 0 01.32-1.79zm-3.48 13.86c1.15 1.28 3.8 1.64 5 1.64 6.67 0 13-6.49 13-14.64 0-5.62-3.94-7.22-6.45-7.22s-5.45 1.6-7.23 2.74l.59-2.33c.1-.28 0-.41-.27-.41a42.14 42.14 0 01-13.16 1.92l-.46 1.92c-.18.87.23 1 .69 1.19l.5.18c.69.32 1.33.87.82 2.88l-5.44 22h10zm-21.36-26.63c0 3.39 2.74 4.58 4.94 4.58a5.54 5.54 0 005.72-5.36c0-2.37-1.79-4.25-4.8-4.25-4.25-.02-5.85 3.25-5.85 5.03zm-5 22.55a4.33 4.33 0 00-.18 1.33c0 3.43 3 4.39 6.18 4.39 4 0 8.78-2.15 8.78-3.29a9.06 9.06 0 00-.78-2.43 5.11 5.11 0 01-2.51 1 1.28 1.28 0 01-1.15-1.7l3.66-14.73c.09-.32.09-.68-.27-.68a53.1 53.1 0 01-13.36 1.92l-.5 2c-.14.55 0 .87.68 1.1l.51.18c.68.28 1.37.78.86 2.88zm-15.87-27.08l-13.68.51-.46 1.87c-.59 2.2 3.21.64 2.2 4.62l-6.31 25.16h10.15l3.84-15.23a4.49 4.49 0 012.79-1.19c.6 0 1.61.37 1.61 1.33 0 1.78-2.57 9.69-2.57 11.66s2.25 4.07 6.5 4.07c3.89 0 8.65-2.19 8.65-3.29 0-.28-.19-.69-1.06-2.29a4.18 4.18 0 01-2 .87c-.55 0-1.83-.27-1.23-2.65l1.09-4.35c.87-3.43 1.1-4.48 1.1-5.85 0-2.24-1.83-4.3-5.95-4.3a19 19 0 00-7.91 1.92zm-16.29.78h-3.5a2.85 2.85 0 01-1.51.46c-1.42 0-2.65-1.88-8-1.88a19.85 19.85 0 00-19.81 19.9c0 7.46 4.25 13.73 14.36 13.73s13.95-7.37 13.95-8.65c0-.37-.27-.82-2.15-2.38-2.65 4.44-6.4 6.13-9 6.13-4.58 0-5-4.71-5-6.68 0-4.39 2.74-18 9.79-18 3.48 0 3.8 2.61 4.12 4.94.23 1.87.32 2.79 2.05 2.79h2.2zm-74.61 17.29c2.1 5.22 2.61 6.41 4.67 9.24a2.8 2.8 0 01-1.56.37c-3.2 0-5.4-3-5.4-6.13.02-2.47 1.07-2.93 2.31-3.48zm8.74-7.45a11 11 0 01-.69-3.85c0-.77.28-3 2.24-3 1.65 0 1.74 1.74 1.74 2.2.02 2.77-2.36 4.14-3.27 4.65zm5 3.93l-.45 1.83c-.42 1.65 1.55 1.1 1.55 2.65a4.68 4.68 0 01-1.6 2.93 28.57 28.57 0 01-3.38-7.78 27.85 27.85 0 005-2.74 7.15 7.15 0 002.79-5.44c0-2.57-1.92-6.5-8.47-6.5-7.09 0-11.39 4.67-11.39 9.74a15.77 15.77 0 001 4.94c-5 1.29-11.34 2.93-11.34 9.61 0 4.3 3.38 8.88 11.07 8.88a16.87 16.87 0 009-2.66 10.75 10.75 0 007.27 2.66c4.8 0 9.24-3.25 9.24-4.44 0-.46-.27-.78-1.32-1.83a4 4 0 01-2.52.87 6.52 6.52 0 01-4.76-2.52l3.52-4c2.79-3.11 4.81-2.38 5.27-4.16l.5-2.06zm-54.71-14.55l-13.68.51-.45 1.87c-.6 2.2 3.2.64 2.19 4.62l-6.31 25.16h10.15l3.85-15.23a4.46 4.46 0 012.79-1.19c.59 0 1.6.37 1.6 1.33 0 1.78-2.56 9.69-2.56 11.66s2.24 4.07 6.49 4.07c3.89 0 8.65-2.19 8.65-3.29 0-.28-.18-.69-1.05-2.29a4.21 4.21 0 01-2 .87c-.55 0-1.83-.27-1.23-2.65l1.1-4.35c.86-3.43 1.09-4.48 1.09-5.85 0-2.24-1.83-4.3-5.94-4.3a19 19 0 00-7.92 1.92zM260.7 232a7.8 7.8 0 00-.36 1.38c0 1.37 1.69 2.33 3.34 2.33 2.51 0 3.93-1.74 3.93-3.29 0-3.94-7.32-4-8.92-4-8.83 0-12.9 3.43-12.9 7.32 0 4.8 8.6 6.54 8.6 9.37 0 1-1 1.65-2.42 1.65a2.55 2.55 0 01-1.7-.55 3.49 3.49 0 00.32-1.46c0-2.11-2.1-3.3-4-3.3a3.83 3.83 0 00-4.07 3.71c0 3 4.21 5.12 10.85 5.12 9.92 0 12.62-4.94 12.62-7.91 0-5.9-9.38-5.9-9.38-9.06 0-1.42 1.65-1.65 2.24-1.65a5 5 0 011.85.34zm-28.82-10c0 3.39 2.75 4.58 4.94 4.58a5.53 5.53 0 005.72-5.36c0-2.37-1.78-4.25-4.8-4.25-4.25.03-5.86 3.3-5.86 5.08zm-5 22.55a4.33 4.33 0 00-.18 1.33c0 3.43 3 4.39 6.17 4.39 4 0 8.78-2.15 8.78-3.29a9.24 9.24 0 00-.77-2.43 5.17 5.17 0 01-2.52 1 1.27 1.27 0 01-1.14-1.7l3.66-14.73c.09-.32.09-.68-.28-.68a53.1 53.1 0 01-13.36 1.92l-.5 2c-.14.55.05.87.69 1.1l.5.18c.69.28 1.37.78.87 2.88zm-28.37-1.23c-1.09 4.35-3.56 1.83-4.2 4.35l-.51 2h17.89l.5-2c.28-1 0-1.14-1.14-1.42s-2-.46-1.37-2.79l2-8.19h3.2c2.88 0 1.24 4.12 3.16 4.12h2.42l2.93-11.57h-2.2c-2.69 0-1.73 3.29-5.26 3.29h-3.2l2.33-9.56h6.18c4.57 0 2.52 4.94 5.17 4.94h2.29l2.42-9.74c-1.28.54-2.65.77-5.81.77h-23.62l-.5 2c-.6 2.24 3.15.36 2.24 4.11z" transform="translate(-22.62 -7.33)" fill="#ffd505"/><g><path fill="none" stroke="#1f3440" stroke-miterlimit="10" d="M311.76 282.38v59.2"/><path d="M308.43 334.92h5.32a41.9 41.9 0 0141.9 41.9h-89.12a41.9 41.9 0 0141.9-41.9z" fill="#ffeec4"/></g></g><g><path d="M567.15 616.75h46.55a7.45 7.45 0 017.45 7.45H559.7a7.45 7.45 0 017.45-7.45z" fill="#ffb255"/><path fill="none" stroke="#1f3440" stroke-linecap="round" stroke-linejoin="round" stroke-width="2" d="M644.41 521.77l-8.79 102.78 33.89-102.23M696.59 521.77l8.8 102.78-33.9-102.23"/><path fill="#d37324" d="M640.29 518.7h60.47v3.07h-60.47z"/><path d="M646 513h49a5.75 5.75 0 015.75 5.75h-60.46A5.75 5.75 0 01646 513z" fill="#dd883c"/><path fill="#1f3440" d="M640.29 521.77h60.47v1.94h-60.47z"/><path fill="none" stroke="#1f3440" stroke-linecap="round" stroke-linejoin="round" stroke-width="2" d="M654.83 522.74l15.38 101.81 12.98-101.81"/><path transform="rotate(-.16 -1963.551 8530.76)" fill="#fc6" d="M681.18 437.88h24.74v21.31h-24.74z"/><path d="M696 443h-7.14a26.22 26.22 0 01-26-22.68l-3.48-25.55C656.22 371.68 671 350 692.2 349.89c21.18-.06 36.1 21.6 33.08 44.67L722 420.13A26.21 26.21 0 01696 443z" transform="translate(-22.62 -7.33)" fill="#fc6"/><path d="M650.77 407.94a14.26 14.26 0 0026.29-.14" fill="none" stroke="#4f3102" stroke-linecap="round" stroke-miterlimit="10" stroke-width="3"/><path d="M687.28 502.29h30.63v18.44h-48.65v-.42a18 18 0 0118.02-18.02z" transform="rotate(179.84 682.257 507.854)" fill="#4e908e"/><path fill="#fe4c00" d="M646.62 495.08l48.65-.13-10.47-47.7-27.98.08-10.2 47.75z"/><path fill="none" stroke="#fc6" stroke-miterlimit="10" stroke-width="12" d="M666.92 512.1l.2 71.57M643.68 512.17l.19 71.56"/><path d="M683.36 506.66h13v49.19a6.49 6.49 0 01-6.49 6.49 6.49 6.49 0 01-6.49-6.49v-49.19z" transform="rotate(179.84 678.525 530.853)" fill="#4e908e"/><path d="M659.58 506.73h13v49.19a6.49 6.49 0 01-6.49 6.49 6.49 6.49 0 01-6.49-6.49v-49.19z" transform="rotate(179.84 654.74 530.915)" fill="#4e908e"/><path d="M678.65 583.45H696v8.64a1.09 1.09 0 01-1.09 1.09h-23.82a1.09 1.09 0 01-1.09-1.09 8.64 8.64 0 018.64-8.64z" transform="rotate(-.16 -1974.484 8666.822)" fill="#1f3440"/><path d="M655.39 583.51h17.3v8.64a1.09 1.09 0 01-1.09 1.09h-23.76a1.09 1.09 0 01-1.09-1.09 8.64 8.64 0 018.64-8.64z" transform="rotate(-.16 -1995.97 8666.792)" fill="#1f3440"/><path transform="rotate(179.84 678.898 557.624)" fill="#68afac" d="M682.56 557.39h15.33v7.76h-15.33z"/><path transform="rotate(179.84 654.813 557.685)" fill="#68afac" d="M658.47 557.46h15.33v7.76h-15.33z"/><path fill="none" stroke="#fe4c00" stroke-miterlimit="10" d="M683.69 465.67l-3.79.01"/><path d="M650.38 392.79a3 3 0 015.93 0M671.86 392.73a3 3 0 015.94 0" fill="none" stroke="#4f3102" stroke-linecap="round" stroke-miterlimit="10" stroke-width="3"/><rect x="676.5" y="445.18" width="31.96" height="10.15" rx="5.08" transform="rotate(-.16 -1963.556 8534.34)" fill="#fe4c00"/><path d="M701.81 334.43A19.16 19.16 0 01721 353.59V357h-38.35v-3.37a19.16 19.16 0 0119.16-19.2z" transform="rotate(17.27 714.468 267.45)" fill="#277da1"/><path d="M680.92 334.19a4.94 4.94 0 014.94 4.94v26.36H684a8 8 0 01-8-8v-18.36a4.94 4.94 0 014.92-4.94z" transform="rotate(-72.73 664.676 361.53)" fill="#277da1"/><circle cx="685.62" cy="401.2" r="2.42" fill="#fce68d"/><g><path fill="#ff9100" d="M488.94 432.51h24.99v15.86h-24.99z"/><path d="M529.21 354.8l.63 4.9a3.23 3.23 0 01-2.36 3.58 3.13 3.13 0 01-3.8-2.64l-1-8.22a1.35 1.35 0 00-1.22-1.19c-1.16-.1-2.34-.15-3.52-.14a1.37 1.37 0 00-1.36 1.54l1.1 8.63a3.21 3.21 0 01-2.36 3.57 3.12 3.12 0 01-3.8-2.63l-1.12-8.78a1.37 1.37 0 00-1.7-1.15c-1.15.29-2.27.63-3.37 1a1.36 1.36 0 00-.88 1.46l1 8.08a3.21 3.21 0 01-2.37 3.57 3.11 3.11 0 01-3.79-2.64l-.65-5.05a1.37 1.37 0 00-2.12-1 38.32 38.32 0 00-16.43 36.51l3.52 27.8a29.11 29.11 0 0032.56 25.2l18.27-2.34a29.1 29.1 0 0025.19-32.56l-3.53-27.71a38.32 38.32 0 00-25.1-31.26 1.37 1.37 0 00-1.79 1.47z" transform="translate(-22.62 -7.33)" fill="#ff9100"/><path d="M484.73 394.61a4.935 4.935 0 019.79-1.25" fill="none" stroke="#5b3103" stroke-linecap="round" stroke-miterlimit="10" stroke-width="3"/><path d="M539.31 415.84a12.47 12.47 0 01-22.82 2.85z" transform="translate(-22.62 -7.33)" fill="#5b3103"/><path d="M490.91 417.73a4.68 4.68 0 00-1.07-8.57M521.24 412.67a4.69 4.69 0 01-1.12-8.57" fill="none" stroke="#fcaa47" stroke-linecap="round" stroke-miterlimit="10" stroke-width="3"/><path d="M509.94 391.39a4.935 4.935 0 019.79-1.25" fill="none" stroke="#5b3103" stroke-linecap="round" stroke-miterlimit="10" stroke-width="3"/><path d="M474.25 480.58h51.09v32.36h-33.07a18 18 0 01-18-18v-14.36h-.02z" fill="#1f3440"/><g style="animation:hdb 1.5s linear infinite;transform-origin:left bottom;animation-direction:alternate;transform-box:fill-box"><path d="M515.25 450.75s27.62 24.19 56.29-23.5" fill="none" stroke="#ff9100" stroke-miterlimit="10" stroke-width="13"/><path d="M515.25 450.75a28.62 28.62 0 0023.32 5.55" fill="none" stroke="#ffd505" stroke-miterlimit="10" stroke-width="17"/><path d="M596 426h7.47a8.33 8.33 0 018.33 8.33 8.33 8.33 0 01-8.33 8.33h-15.8v-8.33A8.33 8.33 0 01596 426z" transform="rotate(14.16 618.035 339.663)" fill="#ff9100"/><path d="M610.42 459.18l-16.68-2.9a1.49 1.49 0 01-1.18-1.86c5.77-21.85 5.93-42 8.05-58.39a1.47 1.47 0 011.71-1.25l21 3.67a1.47 1.47 0 011.19 1.77c-4 16.72-11.31 35.84-12.38 57.55a1.5 1.5 0 01-1.71 1.41z" transform="translate(-22.62 -7.33)" fill="#ffefd2" opacity=".59"/><path d="M609.28 456.74l-13.59-2.37a1.19 1.19 0 01-1-1.46c4.57-17 4.57-32.73 6.2-45.53a1.17 1.17 0 011.39-1l17.15 3a1.16 1.16 0 011 1.39c-3.13 13-9 27.91-9.74 44.84a1.19 1.19 0 01-1.41 1.13z" transform="translate(-22.62 -7.33)" fill="#ffa70b" opacity=".59"/><circle cx="583.11" cy="403.37" r="1.06" fill="#fff" opacity=".51"/><circle cx="585.88" cy="406.53" r=".55" fill="#fff" opacity=".51"/><circle cx="581.13" cy="408.14" r=".58" fill="#fff" opacity=".51"/><circle cx="584.43" cy="410.38" r=".55" fill="#fff" opacity=".51"/><circle cx="592.47" cy="406.73" r=".39" fill="#fff" opacity=".51"/><circle cx="589.85" cy="421.17" r=".55" fill="#fff" opacity=".51"/><circle cx="584.58" cy="423.77" r=".35" fill="#fff" opacity=".51"/><circle cx="587.13" cy="425.03" r=".51" fill="#fff" opacity=".51"/><circle cx="578.43" cy="432.48" r=".61" fill="#fff" opacity=".51"/><circle cx="579.06" cy="426.82" r=".58" fill="#fff" opacity=".51"/><circle cx="584.6" cy="434.7" r=".71" fill="#fff" opacity=".51"/><path d="M571.8 424.79s5.53 3.56 10.8 0" fill="none" stroke="#ff9100" stroke-linecap="round" stroke-miterlimit="10" stroke-width="7"/></g><path d="M474.25 442.54h40.18a10.92 10.92 0 0110.92 10.92v40.18h-51.1v-51.1z" fill="#ffd505"/></g><path fill="#ffb255" d="M578.09 487.87h18.65v136.22h-18.65z"/><path fill="#fc9322" d="M578.09 492.53h18.65v11.64h-18.65z"/><path fill="none" stroke="#ffb255" stroke-linecap="round" stroke-miterlimit="10" stroke-width="17" d="M509.92 486.25h163.54"/><g fill="none" stroke-miterlimit="10"><path d="M461.26 455.67a42.55 42.55 0 00-16.21 14.6c-14.71 22.06 38.93 33.16 62.08 6.89" stroke="#ff9100" stroke-width="13"/><path d="M478.23 452.42a28.63 28.63 0 00-22.77 7.49" stroke="#ffd505" stroke-width="20"/><path stroke="#fe4c00" d="M474.25 462.13h3.98"/></g><g><path fill="none" stroke="#1f3440" stroke-linecap="round" stroke-linejoin="round" stroke-width="2" d="M470.79 521.77L462 624.55l33.89-102.23M522.97 521.77l8.79 102.78-33.89-102.23"/><path fill="#d37324" d="M466.67 518.7h60.47v3.07h-60.47z"/><path d="M472.42 513h49a5.75 5.75 0 015.75 5.75h-60.5a5.75 5.75 0 015.75-5.75z" fill="#dd883c"/><path fill="#1f3440" d="M466.67 521.77h60.47v1.94h-60.47z"/><path fill="none" stroke="#1f3440" stroke-linecap="round" stroke-linejoin="round" stroke-width="2" d="M481.21 522.74l15.37 101.81 12.99-101.81"/></g><g><path fill="none" stroke="#ff9100" stroke-miterlimit="10" stroke-width="12" d="M518.33 510.23v75.15M529.3 506.64l25.54 70.68"/><path d="M518 496.82a6.81 6.81 0 016.81 6.81V550h-13.57v-46.4a6.81 6.81 0 016.76-6.78z" fill="#1f3440"/><path d="M556.67 499.68a6.81 6.81 0 016.81 6.81v46.4h-13.62v-46.4a6.81 6.81 0 016.81-6.81z" transform="rotate(-19.87 524.548 587.278)" fill="#1f3440"/><path d="M535.56 584.76h25a1.14 1.14 0 011.14 1.14v9.1h-18.21a9.08 9.08 0 01-9.08-9.08 1.14 1.14 0 011.14-1.14z" transform="rotate(180 536.73 586.205)" fill="#1f3440"/><path d="M570.69 574.46h25a1.14 1.14 0 011.14 1.14v9.08h-18.21a9.08 9.08 0 01-9.08-9.08 1.14 1.14 0 011.14-1.14z" transform="rotate(160.13 572.522 573.9)" fill="#1f3440"/><path transform="rotate(160.13 561.96 564.732)" fill="#1f3440" d="M565.8 558.25h13.63v24.3H565.8z"/><path transform="rotate(-180 529.925 573.995)" fill="#1f3440" d="M534.42 565.51h13.63v24.3h-13.63z"/></g><path fill="none" stroke="#ffd505" stroke-linecap="round" stroke-miterlimit="10" stroke-width="2" d="M427.06 624.55h216.28M734.76 624.55H653.2"/><g><path d="M544.21 464.86a1.56 1.56 0 01.21-.68 1.3 1.3 0 00.15-.41 1.59 1.59 0 00-.11-.39 1.87 1.87 0 01-.17-.64v-.1a1.63 1.63 0 01.3-.69 1.13 1.13 0 00.21-.37v-.09a2.88 2.88 0 000-.35 2 2 0 01-.06-.45 1.13 1.13 0 010-.3 1.35 1.35 0 01.55-.62 2.72 2.72 0 00.48-.35 2.06 2.06 0 00.29-.45 1.59 1.59 0 01.55-.62 1.68 1.68 0 01.78-.16 1.57 1.57 0 00.54-.06 1.59 1.59 0 00.43-.29 1.73 1.73 0 01.7-.39h.23a2.5 2.5 0 01.6.1 1.41 1.41 0 00.43.08 1.63 1.63 0 00.48-.17 1.62 1.62 0 01.75-.22 1.67 1.67 0 01.76.25 1.53 1.53 0 00.48.2h.21a2.43 2.43 0 00.4-.06 2.83 2.83 0 01.54-.07 1.08 1.08 0 01.3 0c.82.23 1.53.74 2.36.9a3.73 3.73 0 00.69.05h.87a5.85 5.85 0 011 .08c.86.16 1.61.65 2.43.8a4.47 4.47 0 00.76.05h.65a6 6 0 011.1.09c.87.19 1.62.7 2.42.87s1.6 0 2.56.21 1.61.75 2.39.93 1.61.05 2.56.29a32 32 0 013.06 1.35c1 .36 2.12.47 3.2 1s1.89 1.33 2.8 1.81 2 .75 3 1.35 1.78 1.53 2.6 2.08 2 1 2.91 1.6c1.06.77 1.75 1.74 2.43 2.27a5.69 5.69 0 001.48.9 3.94 3.94 0 011.33.95 1.69 1.69 0 01.51 1.12 1.36 1.36 0 01-.28.8 3.39 3.39 0 01-1.18.89 11.83 11.83 0 01-1.84.71 29.34 29.34 0 01-4.7 1.33c-1.53.22-3.19 0-4.85.18-1.51.12-3.11.57-4.81.65h-.5c-1.44 0-2.87-.23-4.22-.23h-.13c-1.52 0-3.07.32-4.6.32h-.23c-1.77 0-3.39-.46-4.82-.56-1.86-.13-3.54.05-4.87-.19a3.75 3.75 0 01-1-.39 3.86 3.86 0 00-.82-.35 3.44 3.44 0 00-.81-.07h-.18a3.57 3.57 0 01-1-.1 3.7 3.7 0 01-1-.52 4.32 4.32 0 00-.77-.45 4.16 4.16 0 00-.92-.19 3.55 3.55 0 01-1-.26 3.64 3.64 0 01-.92-.67 5 5 0 00-.67-.57 4.34 4.34 0 00-.9-.37 3.17 3.17 0 01-1-.45 3.27 3.27 0 01-.77-.88 5 5 0 00-.5-.7 10.44 10.44 0 00-.88-.76 2.26 2.26 0 01-.65-.66.52.52 0 010-.21.88.88 0 01.13-.4l-.11-.06-.14-.13a.49.49 0 01-.13-.28v-.06a.56.56 0 01.12-.31l.11-.12-.14-.13a.45.45 0 01-.12-.27.62.62 0 01.08-.28.35.35 0 00.05-.08.48.48 0 01-.15-.07.54.54 0 01-.2-.2.45.45 0 01-.05-.23.62.62 0 010-.21.75.75 0 01-.2 0 .45.45 0 01-.26-.13.82.82 0 01-.22-.36 2.53 2.53 0 01-.09-.5 1.68 1.68 0 00-.08-.38 1.73 1.73 0 00-.27-.34 1.49 1.49 0 01-.39-.67.88.88 0 010-.17 2.11 2.11 0 01.12-.57 1.49 1.49 0 00.08-.39 1.1 1.1 0 00-.18-.4 1.49 1.49 0 01-.24-.71z" transform="translate(-22.62 -7.33)" fill="#eaa654"/><path d="M565.26 463.77a4.78 4.78 0 00-2.21-.51c-.73.11-1.06.71-1.29 1.35l.55-.23a3.36 3.36 0 00-3-.18 3.41 3.41 0 01-.33.17.56.56 0 01-.34 0 1.93 1.93 0 00-1.9.82c-.29.39.36.77.65.38a1.17 1.17 0 011-.47 2.42 2.42 0 00.54.07 1.54 1.54 0 00.5-.2 2.55 2.55 0 012.47.07.39.39 0 00.56-.22c.19-.54.44-.9 1.07-.8a8.73 8.73 0 011.5.48c.46.16.66-.56.2-.72zM553.68 462.09a1.29 1.29 0 00-1.13-.14 1.48 1.48 0 00-.52.29 1.37 1.37 0 00-.19.23.67.67 0 00-.14.28c0 .1.22 0 .18-.07s-.09-.05-.13-.07a1.09 1.09 0 00-1 0 1.12 1.12 0 00-.65 1l.56-.32a.89.89 0 00-.89 0c-.42.23 0 .88.38.65a.11.11 0 01.13 0 .39.39 0 00.57-.33c0-.12 0 0 0 0v-.05a.34.34 0 01.09-.12.48.48 0 01.13-.09h.19a.56.56 0 01.17.07.61.61 0 00.67 0c.15-.13.17-.29.27-.43a.56.56 0 01.11-.11l.14-.08a.58.58 0 01.58.06.38.38 0 10.38-.65zM565.18 467.11a1.06 1.06 0 00-.19.06l-.18.09a1.72 1.72 0 00-.33.33 1.14 1.14 0 00-.15.84.38.38 0 00.46.26.39.39 0 00.27-.46v-.05.1a.54.54 0 010-.18v.1a.41.41 0 01.05-.18v.08l.1-.17-.06.08a.93.93 0 01.14-.14l-.08.06a.51.51 0 01.16-.09h-.09a.42.42 0 01.15 0 .39.39 0 00.22-.18.37.37 0 000-.29.41.41 0 00-.17-.22h-.09a.34.34 0 00-.2 0zM575.1 464.42a2.09 2.09 0 00-1.37-.11 1.08 1.08 0 00-.75 1l.48-.36a1.19 1.19 0 00-1.1 0 .74.74 0 00-.27 1 .38.38 0 00.51.13.37.37 0 00.13-.51.22.22 0 010 .08.38.38 0 01.18 0l.31.11c.23.1.47-.14.47-.36s0 .06 0 0 0-.05 0 0a.41.41 0 010-.09s.06-.06 0 0l.08-.05h.08c-.06 0 0 0 0 0a1.57 1.57 0 01.87.15.38.38 0 00.2-.73z" transform="translate(-22.62 -7.33)" fill="#d3822a"/><path d="M600.57 477.62l16.59-11.75a.67.67 0 00.15-1l-.45-.55a.81.81 0 00-1.07-.12l-17.53 12.42a.33.33 0 00.06.59l1.19.51a1.09 1.09 0 001.06-.1z" transform="translate(-22.62 -7.33)" fill="#ffd38d"/><path d="M598.31 483.4l11.2-16.28a.67.67 0 00-.23-1l-.63-.36a.82.82 0 00-1.06.23l-11.84 17.19a.35.35 0 00.29.54l1.31.09a1.07 1.07 0 00.96-.41zM596.4 481.32L607.61 465a.67.67 0 00-.24-1l-.63-.36a.8.8 0 00-1.06.23l-11.83 17.19a.34.34 0 00.28.53l1.32.1a1 1 0 00.95-.37z" transform="translate(-22.62 -7.33)" fill="#ffd38d"/><path d="M596 479.75l18.58-8.84a.68.68 0 00.34-1l-.33-.61a.79.79 0 00-1-.3l-19.64 9.33a.34.34 0 000 .6l1.07.7a1.11 1.11 0 00.98.12zM592.62 481.4L577 468a.69.69 0 01-.07-1l.48-.5a.8.8 0 011.08 0L595 480.63a.34.34 0 01-.11.59l-1.21.4a1.1 1.1 0 01-1.06-.22z" transform="translate(-22.62 -7.33)" fill="#ffda8f"/><path d="M584.23 476.3l17.54-10.52a.68.68 0 00.23-1l-.4-.57a.79.79 0 00-1.06-.2L582 475.14a.34.34 0 000 .6l1.13.59a1.1 1.1 0 001.1-.03z" transform="translate(-22.62 -7.33)" fill="#ffda8f"/><path d="M589.31 476.9l16.25-12.16a.66.66 0 00.12-1l-.47-.53a.8.8 0 00-1.07-.1L587 476a.34.34 0 00.08.6l1.2.48a1.12 1.12 0 001.03-.18z" transform="translate(-22.62 -7.33)" fill="#ffda8f"/><path d="M590.07 466.22L578 482a.66.66 0 00.18 1l.61.4a.82.82 0 001.07-.18l12.76-16.63a.35.35 0 00-.26-.55l-1.3-.16a1.09 1.09 0 00-.99.34z" transform="translate(-22.62 -7.33)" fill="#ffd38d"/><path d="M579.88 475.11l17.54-10.51a.69.69 0 00.24-1l-.41-.58a.8.8 0 00-1-.2L577.67 474a.34.34 0 000 .6l1.14.6a1.08 1.08 0 001.07-.09z" transform="translate(-22.62 -7.33)" fill="#ffda8f"/><path d="M585.72 465l-12.08 15.74a.67.67 0 00.18 1l.61.39a.82.82 0 001.07-.18l12.76-16.63a.34.34 0 00-.25-.55l-1.31-.15a1.07 1.07 0 00-.98.38z" transform="translate(-22.62 -7.33)" fill="#ffd38d"/><path d="M596.49 470.05l-18.74 8.54a.7.7 0 00-.36 1l.32.61a.79.79 0 001 .32l19.8-9a.34.34 0 00.06-.6l-1.05-.72a1.11 1.11 0 00-1.03-.15z" transform="translate(-22.62 -7.33)" fill="#ffe6a6"/><g><path d="M577.79 470.11l1.35-.38a6.65 6.65 0 004.57-8.21l-14.12 4a6.63 6.63 0 008.2 4.59z" transform="translate(-22.62 -7.33)" fill="#ffd505"/><path d="M577.58 469l1.3-.37c3.39-1 5.47-4.11 4.64-7l-13.58 3.86c.83 2.87 4.25 4.44 7.64 3.51z" transform="translate(-22.62 -7.33)" fill="#ffeea4"/><g fill="#ffd505"><path d="M577.5 463.29l4.71 3.25-.22.24-4.89-3.38zM576.2 463.66l-2.61 5.34-.32-.1 2.51-5.07z" transform="translate(-22.62 -7.33)"/></g><path d="M576.65 464.57a.35.35 0 00.45.25.35.35 0 00.25-.45c-.05-.19-.32-.52-.51-.47s-.25.48-.19.67zM578.89 463.79a.35.35 0 00.46-.23.36.36 0 00-.24-.46c-.19-.07-.61 0-.67.17s.26.46.45.52zM574.73 465a.37.37 0 01-.52 0 .37.37 0 010-.52c.13-.15.51-.34.66-.21s-.01.56-.14.73z" transform="translate(-22.62 -7.33)" fill="#f7c54f"/></g><g><path d="M557.12 487.3h46a7.53 7.53 0 006.93-5.33l3.35-9.68h-66.56l3.36 9.71a7.51 7.51 0 006.92 5.3z" transform="translate(-22.62 -7.33)" fill="#e6e6e6"/><path d="M557.12 487.3h46a7.53 7.53 0 006.93-5.33l3.35-9.68h-66.56l3.36 9.71a7.51 7.51 0 006.92 5.3z" transform="translate(-22.62 -7.33)" fill="none" stroke="#fe4c00" stroke-miterlimit="10"/><path fill="none" stroke="#fe4c00" stroke-miterlimit="10" d="M587.43 474.64h-59.85M589.18 469.89h-63.17M557.68 464.76v15.3"/><g fill="none" stroke="#fe4c00" stroke-miterlimit="10"><path d="M564.41 464.76l-2.76 15.3M570.67 464.76l-4.75 15.3M577.22 464.76l-7.14 15.3M584.1 464.76l-8.97 15.3M590.39 464.76l-10.67 15.3"/></g><g fill="none" stroke="#fe4c00" stroke-miterlimit="10"><path d="M550.86 464.76l2.76 15.3M544.61 464.76l4.74 15.3M538.05 464.76l7.15 15.3M531.17 464.76l8.98 15.3M524.89 464.76l10.66 15.3"/></g></g><path d="M601.88 472l-26.79 13.7s-6.08-2.24-7.84-2.37-9-2.11-10.41-3.82-7.6-7.9-7.6-7.9 11.81-1.32 15.67-.79a49.87 49.87 0 0010.53.26c1.64-.24 25.16.42 26.44.92z" transform="translate(-22.62 -7.33)" fill="#f2f2f2"/><g fill="none" stroke="#999" stroke-miterlimit="10"><path d="M552.8 475.23a58.59 58.59 0 00-8.3-2.9c-3.82-.92-5.92-2.77-6.52-3.69M536.93 467.39a5.62 5.62 0 00-1.78-1.51" stroke-width="2"/><path d="M538.38 463.57a5.41 5.41 0 003.82 3.49c3.16.92 10.14 3.43 13.95 6.72M542.29 463.51s.76 1.64 3.73 2.37M559.05 472.36s-5.48-4.94-10.86-6M548.58 464.17a4.92 4.92 0 001.78.79M551.99 465.55a14.64 14.64 0 012.07 1M555.84 467.33a50.32 50.32 0 015.09 4M563.64 470.09a47.57 47.57 0 00-7.35-5.73M565.96 468.67s-2.86-2.62-4-3.46M568.48 467.28a21.74 21.74 0 01-3-2.13l-.35-.49M571.03 466.34a6.7 6.7 0 01-1.64-1.58" stroke-width=".5"/></g><g fill="none" stroke="#dded43" stroke-miterlimit="10"><path d="M560.34 460.63s-.13.92 1 .86M565.41 462.94a.43.43 0 00-.59.19M568.44 464.12s.06.79-.86.73M560 467.68s-1-.33-1.45.19" transform="translate(-22.62 -7.33)"/><path d="M541.47 459.23l-.59.46M553.19 459.75l-.85.13"/><path d="M572.69 465.17s.22-.52-.5-.85M557.9 462.21a1.16 1.16 0 00-.85-.46M588.52 468.8a.88.88 0 01-1 .46M584.77 468.27s-.33-.46-.86.26M581.74 464.91s-.07.66-.6.53M578 470.64a2.11 2.11 0 00-1.31.07" transform="translate(-22.62 -7.33)"/></g></g><g style="animation:hda 1.5s linear infinite;transform-origin:right;animation-direction:alternate;transform-box:fill-box"><path d="M643.06 433.08h6.38a7.27 7.27 0 017.27 7.27V442a5.15 5.15 0 01-5.15 5.15h-8.5a7 7 0 01-7-7 7 7 0 017-7.07z" transform="rotate(3.31 761.974 45.01)" style="mix-blend-mode:multiply" fill="#fc6"/><path d="M637.17 462.94l16.67-2.9a1.51 1.51 0 001.18-1.87c-5.77-21.85-5.93-42-8-58.39a1.46 1.46 0 00-1.71-1.24l-21 3.66A1.47 1.47 0 00623 404c4 16.72 11.3 35.84 12.38 57.55a1.5 1.5 0 001.79 1.39z" transform="translate(-22.62 -7.33)" fill="#ffefd2" opacity=".59"/><path d="M638.3 460.49l13.59-2.37a1.18 1.18 0 001-1.46c-4.57-17-4.57-32.72-6.2-45.52a1.17 1.17 0 00-1.38-1l-17.16 3a1.16 1.16 0 00-1 1.39c3.12 13 9 27.91 9.73 44.85a1.18 1.18 0 001.42 1.11z" transform="translate(-22.62 -7.33)" fill="#ffa70b" opacity=".59"/><circle cx="619.24" cy="407.12" r="1.06" fill="#fff" opacity=".51"/><circle cx="616.46" cy="410.28" r=".55" fill="#fff" opacity=".51"/><circle cx="621.21" cy="411.9" r=".58" fill="#fff" opacity=".51"/><circle cx="617.92" cy="414.14" r=".55" fill="#fff" opacity=".51"/><circle cx="609.88" cy="410.48" r=".39" fill="#fff" opacity=".51"/><circle cx="612.49" cy="424.93" r=".55" fill="#fff" opacity=".51"/><circle cx="617.77" cy="427.53" r=".35" fill="#fff" opacity=".51"/><circle cx="615.22" cy="428.79" r=".51" fill="#fff" opacity=".51"/><circle cx="623.92" cy="436.24" r=".61" fill="#fff" opacity=".51"/><circle cx="623.29" cy="430.58" r=".58" fill="#fff" opacity=".51"/><circle cx="617.75" cy="438.45" r=".71" fill="#fff" opacity=".51"/><path d="M681.38 460.29c-5.52 31.53-63.59 32.32-51.34-26.94" fill="none" stroke="#fc6" stroke-miterlimit="10" stroke-width="12"/><path d="M677.12 452.77s11.1 9.06-1.25 24.43" fill="none" stroke="#fe4c00" stroke-miterlimit="10" stroke-width="24"/><path d="M643.26 431.06h8.49a7.27 7.27 0 017.27 7.27V440a5.15 5.15 0 01-5.15 5.15h-10.61a7 7 0 01-7-7 7 7 0 017-7z" transform="rotate(3.31 763.13 43.072)" fill="#fc6"/></g><path d="M533.34 473h3.79a12 12 0 0112 12 4.21 4.21 0 01-4.21 4.21h-17a4.21 4.21 0 01-4.21-4.21v-2.4a9.63 9.63 0 019.63-9.63z" transform="rotate(-14.75 496.943 564.946)" fill="#ff9100"/></g><path fill="#dd883c" d="M4.49 567.04h209.95v9.31H4.49z"/><g><path fill="#dd883c" d="M11.14 576.35h6.32v48.88h-6.32z"/><path fill="#c66f28" d="M11.14 576.35h6.32v3.37h-6.32z"/></g><g><path fill="#dd883c" d="M201.13 576.35h6.32v48.88h-6.32z"/><path fill="#c66f28" d="M201.13 576.35h6.32v3.37h-6.32z"/></g><path fill="none" stroke="#ffd505" stroke-linecap="round" stroke-miterlimit="10" stroke-width="2" d="M4.43 624.9H220.7"/><path d="M1285.49 464.6c0 4.92-4 4.92-4 9.84s4 4.92 4 9.85-4 4.92-4 9.84 4 4.92 4 9.84-4 4.93-4 9.85H1151s4-4.92 4-9.85-4-4.92-4-9.84 4-4.92 4-9.84-4-4.93-4-9.85 4-4.92 4-9.84z" transform="translate(-22.62 -7.33)" style="mix-blend-mode:multiply" fill="url(#prefix__linear-gradient-4)"/><path d="M862.5 464.6c0 4.92-4 4.92-4 9.84s4 4.92 4 9.85-4 4.92-4 9.84 4 4.92 4 9.84-4 4.93-4 9.85H728s4-4.92 4-9.85-4-4.92-4-9.84 4-4.92 4-9.84-4-4.93-4-9.85 4-4.92 4-9.84z" transform="translate(-22.62 -7.33)" style="mix-blend-mode:multiply" fill="url(#prefix__linear-gradient-5)"/><g style="animation:cld3 70s linear infinite;transform-origin:center"><path d="M630.1 109.55a24 24 0 0112.63 3.58 33.74 33.74 0 0131.06-20.57c1.09 0 2.15.07 3.21.17a41.49 41.49 0 0176.94 9.69 25.75 25.75 0 013.43-.26 25.24 25.24 0 0125.24 25.24 25.75 25.75 0 01-.32 3.85H606a24.2 24.2 0 0124.1-21.7z" transform="translate(-22.62 -7.33)" fill="#fcf3e0" opacity=".72"/></g><g style="animation:cld1 50s linear infinite;transform-origin:center" opacity=".82"><path d="M328.91 141.78a24.78 24.78 0 00-13.23 3.82 29.48 29.48 0 00-56.43 6.23 17.07 17.07 0 00-3.06-.29 16.39 16.39 0 00-16.33 15.07h113.88a24.83 24.83 0 00-24.83-24.83z" transform="translate(-22.62 -7.33)" fill="#fcf3e0"/></g></g></g></svg>