<svg id="Layer_1" data-name="Layer 1" xmlns="http://www.w3.org/2000/svg" viewBox="0 0 133.4 133.4"><defs><style>.cls-1{fill:#ff4900;}</style></defs><title>livechat</title><path class="cls-1" d="M96,39.61H40.21a12.69,12.69,0,0,0-12.69,12.7V79.57A12.69,12.69,0,0,0,40.21,92.26h4.3L39.14,103a3.47,3.47,0,0,0-.37,1.55A3.48,3.48,0,0,0,42.23,108a3.57,3.57,0,0,0,1.92-.58L66.91,92.26H96a12.7,12.7,0,0,0,12.7-12.69V52.31A12.69,12.69,0,0,0,96,39.61Zm7.12,40A7.13,7.13,0,0,1,96,86.68H65.22L47.71,98.34l5.83-11.66H40.21a7.13,7.13,0,0,1-7.11-7.11V52.31a7.13,7.13,0,0,1,7.11-7.12H96a7.14,7.14,0,0,1,7.12,7.12Z"/></svg>