<svg id="Layer_1" data-name="Layer 1" xmlns="http://www.w3.org/2000/svg" viewBox="0 0 133.4 133.4"><defs><style>.cls-1{fill:#ff4900;}</style></defs><title>questionmark</title><path class="cls-1" d="M68.68,83.64H60.23v7.18h8.45Zm-.06-4.71a10.46,10.46,0,0,1,.55-3.75,6.89,6.89,0,0,1,2.3-2.72,19,19,0,0,0,5.36-5.2A11.63,11.63,0,0,0,79,60.51a11.25,11.25,0,0,0-3.66-8.86q-3.68-3.27-10.1-3.27a15.23,15.23,0,0,0-9.7,2.93q-3.72,2.94-3.64,8.45l.06.18h8.16a4.68,4.68,0,0,1,1.51-3.71A5.39,5.39,0,0,1,65.21,55a5.17,5.17,0,0,1,4,1.5,5.81,5.81,0,0,1,1.39,4.14,7.93,7.93,0,0,1-1.22,4.31A15.32,15.32,0,0,1,66.1,68.5,19.48,19.48,0,0,0,61.46,73c-.78,1.24-1.18,3.21-1.2,5.89Z"/><path class="cls-1" d="M100.72,69.5H97.89A31.82,31.82,0,1,1,88.57,47,31.78,31.78,0,0,1,97.89,69.5h5.66A37.5,37.5,0,1,0,66.05,107a37.5,37.5,0,0,0,37.5-37.5Z"/></svg>