<svg id="Layer_1" data-name="Layer 1" xmlns="http://www.w3.org/2000/svg" viewBox="0 0 133.4 81.53"><defs><style>.cls-1{fill:#f2f2f2;}.cls-2{fill:#010101;}.cls-3{fill:#878787;}.cls-4{fill:#585858;}.cls-5{fill:#aaa;}</style></defs><title>cards_logo</title><path class="cls-1" d="M103,15.09H35.49a6.59,6.59,0,0,0-6.59,6.59v34a6.59,6.59,0,0,0,6.59,6.59H103a6.59,6.59,0,0,0,6.59-6.59v-34A6.59,6.59,0,0,0,103,15.09Z"/><path class="cls-2" d="M54.45,56.85V54.48A1.41,1.41,0,0,0,53,53a1.46,1.46,0,0,0-1.33.67A1.38,1.38,0,0,0,50.39,53a1.24,1.24,0,0,0-1.1.56v-.46h-.83v3.77h.83V54.76a.88.88,0,0,1,.93-1c.54,0,.82.35.82,1v2.1h.83V54.76a.89.89,0,0,1,.92-1c.56,0,.83.35.83,1v2.1Zm12.28-3.77H65.38V51.93h-.83v1.15h-.76v.75h.76v1.72c0,.88.34,1.4,1.31,1.4a1.86,1.86,0,0,0,1-.3l-.23-.7a1.57,1.57,0,0,1-.73.21c-.41,0-.55-.25-.55-.63v-1.7h1.35Zm7-.1a1.11,1.11,0,0,0-1,.55v-.45h-.82v3.77h.82V54.74c0-.63.27-1,.81-1a1.32,1.32,0,0,1,.51.1l.26-.78a1.83,1.83,0,0,0-.59-.1m-10.59.4A2.82,2.82,0,0,0,61.6,53c-1,0-1.57.46-1.57,1.21s.46,1,1.3,1.11l.39.06c.45.06.66.18.66.39s-.3.46-.86.46a2.05,2.05,0,0,1-1.26-.39l-.38.64a2.73,2.73,0,0,0,1.63.49c1.09,0,1.73-.52,1.73-1.24s-.5-1-1.32-1.12l-.39-.06c-.36-.05-.64-.12-.64-.37s.27-.44.72-.44a2.41,2.41,0,0,1,1.17.32Zm22-.4a1.11,1.11,0,0,0-1,.55v-.45h-.81v3.77h.82V54.74c0-.63.27-1,.8-1a1.41,1.41,0,0,1,.52.1l.25-.78a1.78,1.78,0,0,0-.59-.1M74.56,55a1.91,1.91,0,0,0,2,2,2,2,0,0,0,1.36-.45l-.39-.67a1.67,1.67,0,0,1-1,.34,1.21,1.21,0,0,1,0-2.41,1.61,1.61,0,0,1,1,.34l.39-.67A2,2,0,0,0,76.57,53a1.91,1.91,0,0,0-2,2m7.69,0V53.08h-.82v.45A1.42,1.42,0,0,0,80.24,53a2,2,0,0,0,0,4,1.43,1.43,0,0,0,1.19-.56v.46h.82Zm-3,0a1.14,1.14,0,1,1,1.14,1.21A1.12,1.12,0,0,1,79.2,55m-9.92-2a1.84,1.84,0,0,0-1.87,2,1.86,1.86,0,0,0,1.93,2,2.34,2.34,0,0,0,1.55-.53l-.4-.61a1.82,1.82,0,0,1-1.1.39,1,1,0,0,1-1.13-.92h2.8c0-.1,0-.21,0-.32a1.82,1.82,0,0,0-1.8-2m0,.74a.93.93,0,0,1,1,.91h-2a1,1,0,0,1,1-.91M89.88,55v-3.4h-.83v2A1.42,1.42,0,0,0,87.86,53a2,2,0,0,0,0,4,1.43,1.43,0,0,0,1.19-.56v.46h.83Zm-3.06,0A1.14,1.14,0,1,1,88,56.17,1.12,1.12,0,0,1,86.82,55M59.08,55V53.08h-.82v.45A1.43,1.43,0,0,0,57.07,53a2,2,0,0,0,0,4,1.44,1.44,0,0,0,1.19-.56v.46h.82ZM56,55a1.15,1.15,0,1,1,1.15,1.21A1.13,1.13,0,0,1,56,55M91.25,56.3a.32.32,0,0,1,.14,0,.57.57,0,0,1,.13.08.83.83,0,0,1,.08.12.39.39,0,0,1,0,.3.44.44,0,0,1-.08.11.38.38,0,0,1-.13.09.32.32,0,0,1-.14,0,.41.41,0,0,1-.16,0L91,56.94a.44.44,0,0,1-.08-.11.39.39,0,0,1,0-.3.83.83,0,0,1,.08-.12l.12-.08a.41.41,0,0,1,.16,0m0,.67.11,0,.09-.06a.21.21,0,0,0,.06-.1.31.31,0,0,0,0-.22.21.21,0,0,0-.06-.1l-.09-.06-.11,0-.12,0-.09.06a.29.29,0,0,0,0,.42l.09.06.12,0m0-.47a.15.15,0,0,1,.1,0,.1.1,0,0,1,0,.09.11.11,0,0,1,0,.07.11.11,0,0,1-.08,0l.11.13h-.09l-.11-.13h0v.13h-.07V56.5Zm-.09.07v.09h.13s0,0,0,0,0,0,0,0h-.13Z"/><rect class="cls-3" x="62.87" y="24.3" width="12.44" height="22.36"/><path class="cls-4" d="M63.66,35.48A14.21,14.21,0,0,1,69.09,24.3a14.22,14.22,0,1,0,0,22.36,14.18,14.18,0,0,1-5.43-11.18"/><path class="cls-5" d="M92.09,35.48a14.21,14.21,0,0,1-23,11.18,14.22,14.22,0,0,0,0-22.36,14.21,14.21,0,0,1,23,11.18m-1.35,8.81v-.45h.18v-.1h-.47v.1h.19v.45Zm.91,0v-.55h-.14l-.17.38-.17-.38H91v.55h.1v-.41l.16.36h.1l.16-.36v.41Z"/></svg>