<svg id="Layer_1" data-name="Layer 1" xmlns="http://www.w3.org/2000/svg" viewBox="0 0 133.4 81.53"><defs><style>.cls-1{fill:#f2f2f2;}.cls-2{fill:#a1a1a1;}.cls-2,.cls-3,.cls-4{fill-rule:evenodd;}.cls-3{fill:#4f4f4f;}.cls-4{fill:#fff;}</style></defs><title>cards_logo</title><path class="cls-1" d="M103,17.76H35.49a6.59,6.59,0,0,0-6.59,6.59v34A6.59,6.59,0,0,0,35.49,65H103a6.59,6.59,0,0,0,6.59-6.59v-34A6.59,6.59,0,0,0,103,17.76Z"/><path class="cls-2" d="M68.73,54.76a18.18,18.18,0,0,0,0-26.83,17.8,17.8,0,0,0-12.06-4.69,18.1,18.1,0,0,0,0,36.2,17.79,17.79,0,0,0,12.06-4.68Z"/><path class="cls-3" d="M80.79,23.24a17.84,17.84,0,0,0-12.06,4.69,18.16,18.16,0,0,0-1.81,1.91h3.63a20.21,20.21,0,0,1,1.37,1.92H65.55a17.65,17.65,0,0,0-1,1.92H73a16.51,16.51,0,0,1,.76,1.91h-10c-.2.63-.38,1.27-.52,1.92h11a18.57,18.57,0,0,1,.4,3.83,18.23,18.23,0,0,1-.93,5.75h-10A20.17,20.17,0,0,0,64.51,49H73a18.41,18.41,0,0,1-1,1.91H65.55a18.57,18.57,0,0,0,1.37,1.92h3.63a19.41,19.41,0,0,1-1.82,1.92,17.83,17.83,0,0,0,12.06,4.68,18.1,18.1,0,0,0,0-36.2Z"/><path class="cls-3" d="M96.37,51.43A.58.58,0,1,1,97,52a.58.58,0,0,1-.58-.58Zm.58.44a.44.44,0,1,0-.44-.44.44.44,0,0,0,.44.44Zm-.08-.18h-.12v-.52H97a.21.21,0,0,1,.13,0,.16.16,0,0,1,.06.13.13.13,0,0,1-.09.13l.1.23H97L97,51.48h-.09V51.4H97a.09.09,0,0,0,0-.06.07.07,0,0,0,0-.06s-.05,0-.08,0h-.06v.42Z"/><path class="cls-4" d="M92.57,45.26a.58.58,0,1,1,.58.59.58.58,0,0,1-.58-.59Zm.58.45a.45.45,0,1,0-.44-.45.45.45,0,0,0,.44.45Zm-.08-.19H93V45h.22a.3.3,0,0,1,.13,0,.16.16,0,0,1,.06.13.13.13,0,0,1-.09.13l.1.23h-.13l-.08-.2h-.09v-.09h.14a.07.07,0,0,0,0-.06.05.05,0,0,0,0,0h-.14v.42Z"/><polygon class="cls-4" points="54.43 45.85 52.19 45.85 53.52 38.79 50.46 45.85 48.42 45.85 48.05 38.84 46.72 45.85 44.69 45.85 46.42 36.67 49.91 36.67 50.1 42.35 52.56 36.67 56.19 36.67 54.43 45.85 54.43 45.85"/><path class="cls-4" d="M79.42,45.76a5.72,5.72,0,0,1-1.61.24C76.67,46,76,45.42,76,44.36a4.13,4.13,0,0,1,.07-.67l.14-.73.1-.59,1-5.7h2.22l-.32,1.72h1.14l-.31,1.81H79l-.59,3.11a1.52,1.52,0,0,0,0,.31c0,.39.23.56.76.56a2.29,2.29,0,0,0,.6-.07l-.29,1.65Z"/><path class="cls-4" d="M86,38.45a.68.68,0,0,0-.25-.08l-.2,0-.22,0c-.74,0-1.26.33-2,1.22l.2-1.13h-2l-1.36,7.46h2.24c.8-4.57,1.14-5.37,2.21-5.37l.29,0,.26.06L86,38.45Z"/><path class="cls-4" d="M70.55,40.74c0,.95.53,1.6,1.73,2.08.91.38,1,.49,1,.83s-.4.67-1.29.67A7.32,7.32,0,0,1,70,44l-.31,1.72h.1l.41.08c.14,0,.33,0,.59.07.54,0,1,.06,1.25.06,2.39,0,3.49-.79,3.49-2.49A2.06,2.06,0,0,0,74,41.4c-1-.38-1.06-.46-1.06-.81S73.27,40,74,40a14.36,14.36,0,0,1,1.62.11l.32-1.72a17.64,17.64,0,0,0-2-.15c-2.53,0-3.4,1.15-3.4,2.52Z"/><path class="cls-4" d="M61.7,45.85H59.84l0-.78A3.06,3.06,0,0,1,57.4,46a2,2,0,0,1-1.89-1.7c-.19-2,1.28-3.22,3.91-3.22a7.83,7.83,0,0,1,.91.06,1.64,1.64,0,0,0,.09-.49c0-.49-.39-.67-1.43-.67a8.69,8.69,0,0,0-1.86.2l-.31.08-.2,0,.31-1.68a10.29,10.29,0,0,1,2.68-.39c1.92,0,2.93.76,2.93,2.19a7.51,7.51,0,0,1-.18,1.47l-.47,2.65-.07.48-.06.38,0,.26,0,.2Zm-1.63-3.33-.5,0c-1.27,0-1.91.38-1.91,1.14a.73.73,0,0,0,.8.76,1.72,1.72,0,0,0,1.61-1.87Z"/><path class="cls-4" d="M69,45.69a8.83,8.83,0,0,1-2.29.3c-2.5,0-3.8-1.15-3.8-3.34,0-2.57,1.66-4.45,3.91-4.45,1.84,0,3,1.06,3,2.71a7.22,7.22,0,0,1-.27,1.84H65.14c0,.12,0,.17,0,.24,0,.86.67,1.3,2,1.3a5.91,5.91,0,0,0,2.33-.47L69,45.69Zm-1.19-4.44a2.91,2.91,0,0,0,0-.38.93.93,0,0,0-1.06-1c-.71,0-1.22.48-1.42,1.34Z"/><path class="cls-4" d="M92.9,42.46c-.33,2.49-2.06,3.59-4.34,3.59A3.19,3.19,0,0,1,85,42.61a4.17,4.17,0,0,1,4.4-4.44A3.24,3.24,0,0,1,93,41.54a4.59,4.59,0,0,1-.06.92Zm-2.3-1c0-.78-.32-1.52-1.23-1.52-1.14,0-1.85,1.36-1.85,2.56,0,1,.48,1.69,1.28,1.68a2.21,2.21,0,0,0,1.72-1.83,4.91,4.91,0,0,0,.08-.89Z"/></svg>