<svg id="Layer_1" data-name="Layer 1" xmlns="http://www.w3.org/2000/svg" viewBox="0 0 133.4 81.53"><defs><style>.cls-1{fill:none;stroke:#cacaca;stroke-miterlimit:10;stroke-width:2px;}.cls-2{fill:#0097d9;}.cls-2,.cls-3,.cls-4{fill-rule:evenodd;}.cls-3{fill:#e40520;}.cls-4{fill:#fff;}</style></defs><title>cards_logo</title><path class="cls-1" d="M100.24,16H32.76a6.59,6.59,0,0,0-6.59,6.59v34a6.59,6.59,0,0,0,6.59,6.59h67.48a6.59,6.59,0,0,0,6.59-6.59v-34A6.59,6.59,0,0,0,100.24,16Z"/><path class="cls-2" d="M66.31,53.31a18.18,18.18,0,0,0,0-26.83A17.83,17.83,0,0,0,54.25,21.8a18.1,18.1,0,0,0,0,36.2,17.84,17.84,0,0,0,12.06-4.69Z"/><path class="cls-3" d="M78.37,21.8a17.83,17.83,0,0,0-12.06,4.68A19.3,19.3,0,0,0,64.5,28.4h3.63a20.21,20.21,0,0,1,1.37,1.92H63.13a18.48,18.48,0,0,0-1,1.91h8.44a17.82,17.82,0,0,1,.76,1.92h-10a17.33,17.33,0,0,0-.52,1.91h11a18,18,0,0,1,.41,3.84,18.23,18.23,0,0,1-.93,5.75h-10a18.52,18.52,0,0,0,.76,1.91h8.44a18.56,18.56,0,0,1-1,1.92H63.13A17.17,17.17,0,0,0,64.5,51.4h3.63a18.26,18.26,0,0,1-1.82,1.91A17.84,17.84,0,0,0,78.37,58a18.1,18.1,0,0,0,0-36.2Z"/><path class="cls-3" d="M94,50a.58.58,0,1,1,.58.58A.58.58,0,0,1,94,50Zm.58.44a.45.45,0,1,0-.44-.44.44.44,0,0,0,.44.44Zm-.08-.19h-.12v-.51h.22a.21.21,0,0,1,.13,0,.13.13,0,0,1,.06.12.14.14,0,0,1-.09.14l.1.22h-.14l-.07-.2h-.09V50h.14a.06.06,0,0,0,0-.06.09.09,0,0,0,0-.05h-.14v.42Z"/><path class="cls-4" d="M90.15,43.82a.58.58,0,1,1,.58.58.58.58,0,0,1-.58-.58Zm.58.44a.44.44,0,0,0,0-.88.44.44,0,0,0,0,.88Zm-.08-.18h-.12v-.52h.22a.21.21,0,0,1,.13,0,.16.16,0,0,1,.06.13.13.13,0,0,1-.09.13l.1.23h-.14l-.07-.21h-.09v-.08h.14a.09.09,0,0,0,0-.06.07.07,0,0,0,0-.06h-.14v.42Z"/><polygon class="cls-4" points="52.01 44.41 49.77 44.41 51.1 37.35 48.04 44.41 46 44.41 45.63 37.39 44.3 44.41 42.27 44.41 44 35.23 47.49 35.23 47.67 40.91 50.13 35.23 53.77 35.23 52.01 44.41 52.01 44.41"/><path class="cls-4" d="M77,44.31a5.81,5.81,0,0,1-1.61.25c-1.14,0-1.77-.58-1.77-1.64a3.18,3.18,0,0,1,.07-.67l.13-.73.11-.59,1-5.7h2.23l-.32,1.71H78l-.31,1.82H76.55L76,41.87a1.52,1.52,0,0,0,0,.31c0,.38.23.55.76.55a2,2,0,0,0,.6-.07L77,44.31Z"/><path class="cls-4" d="M83.53,37a1.87,1.87,0,0,0-.26-.08l-.19,0-.22,0c-.74,0-1.27.33-2,1.21l.2-1.13h-2L77.72,44.4H80c.8-4.56,1.14-5.36,2.21-5.36l.29,0,.26,0L83.53,37Z"/><path class="cls-4" d="M68.13,39.3c0,.94.53,1.59,1.73,2.08.91.37,1,.48,1,.82s-.4.68-1.3.68a7,7,0,0,1-2-.3l-.31,1.72.1,0,.41.08.59.06c.54,0,1,.06,1.25.06,2.39,0,3.49-.78,3.49-2.49A2.05,2.05,0,0,0,71.53,40c-1-.38-1.06-.46-1.06-.81s.37-.61,1.11-.61a14.36,14.36,0,0,1,1.62.11l.32-1.73a17.55,17.55,0,0,0-2-.14c-2.53,0-3.4,1.14-3.4,2.52Z"/><path class="cls-4" d="M59.28,44.4H57.42l0-.77a3,3,0,0,1-2.34.9,1.94,1.94,0,0,1-2-2c0-1.82,1.45-2.88,3.93-2.88a7.83,7.83,0,0,1,.91.06,1.7,1.7,0,0,0,.09-.49c0-.49-.39-.68-1.43-.68a8.07,8.07,0,0,0-1.86.21l-.31.08-.2.05.31-1.68a9.93,9.93,0,0,1,2.67-.4c1.93,0,2.94.76,2.94,2.19a7.5,7.5,0,0,1-.18,1.48l-.47,2.65-.08.47,0,.38,0,.26,0,.2Zm-1.63-3.32-.5,0c-1.27,0-1.91.38-1.91,1.13A.73.73,0,0,0,56,43a1.73,1.73,0,0,0,1.61-1.87Z"/><path class="cls-4" d="M66.61,44.24a8.48,8.48,0,0,1-2.29.31c-2.5,0-3.8-1.15-3.8-3.35,0-2.56,1.66-4.44,3.91-4.44,1.84,0,3,1.05,3,2.71a7.28,7.28,0,0,1-.27,1.84H62.72c0,.12,0,.17,0,.23,0,.87.66,1.31,2,1.31A5.83,5.83,0,0,0,67,42.38l-.37,1.86ZM65.42,39.8c0-.15,0-.28,0-.38a.93.93,0,0,0-1.06-1c-.71,0-1.22.48-1.42,1.34Z"/><path class="cls-4" d="M90.48,41c-.34,2.48-2.06,3.58-4.34,3.58-2.53,0-3.56-1.54-3.56-3.44A4.17,4.17,0,0,1,87,36.73a3.24,3.24,0,0,1,3.55,3.37,4.59,4.59,0,0,1-.06.92Zm-2.3-1c0-.78-.32-1.52-1.24-1.52-1.14,0-1.84,1.36-1.84,2.56,0,1,.48,1.69,1.28,1.67A2.2,2.2,0,0,0,88.1,41a4.91,4.91,0,0,0,.08-.89Z"/></svg>