<svg id="Layer_1" data-name="Layer 1" xmlns="http://www.w3.org/2000/svg" viewBox="0 0 133.4 81.53"><defs><style>.cls-1{fill:none;stroke:#cacaca;stroke-miterlimit:10;stroke-width:2px;}.cls-2{fill:#010101;}.cls-3{fill:#ef6522;}.cls-4{fill:#e41b25;}.cls-5{fill:#f79d1d;}</style></defs><title>cards_logo</title><rect class="cls-1" x="26.66" y="18.59" width="78.66" height="45.19" rx="5.59"/><path class="cls-2" d="M50.9,58.51V56.15a1.41,1.41,0,0,0-1.49-1.51,1.47,1.47,0,0,0-1.32.68,1.4,1.4,0,0,0-1.25-.68,1.25,1.25,0,0,0-1.11.56v-.46h-.82v3.77h.83V56.42a.88.88,0,0,1,.92-1c.55,0,.83.35.83,1v2.1h.82V56.42a.89.89,0,0,1,.93-1c.56,0,.83.35.83,1v2.1Zm12.27-3.77H61.83V53.59H61v1.15h-.77v.75H61v1.72c0,.88.34,1.4,1.31,1.4a1.94,1.94,0,0,0,1-.29l-.24-.71a1.43,1.43,0,0,1-.73.22c-.41,0-.54-.26-.54-.63V55.49h1.34Zm7-.1a1.13,1.13,0,0,0-1,.56v-.46h-.81v3.77h.82V56.4c0-.63.27-1,.81-1a1.34,1.34,0,0,1,.51.09l.25-.77a1.8,1.8,0,0,0-.58-.11M59.59,55a2.84,2.84,0,0,0-1.54-.4c-1,0-1.58.46-1.58,1.21s.46,1,1.31,1.12l.38.05c.45.07.67.18.67.4s-.3.45-.86.45a2.05,2.05,0,0,1-1.26-.39l-.39.64a2.74,2.74,0,0,0,1.64.49c1.09,0,1.72-.51,1.72-1.23s-.5-1-1.32-1.13L58,56.19c-.35,0-.64-.12-.64-.37s.27-.44.72-.44a2.45,2.45,0,0,1,1.18.32Zm22-.4a1.11,1.11,0,0,0-1,.56v-.46h-.82v3.77h.82V56.4c0-.63.27-1,.81-1a1.34,1.34,0,0,1,.51.09l.25-.77a1.75,1.75,0,0,0-.58-.11M71,56.63a1.9,1.9,0,0,0,2,2,2,2,0,0,0,1.36-.45L74,57.5a1.64,1.64,0,0,1-1,.34,1.21,1.21,0,0,1,0-2.42,1.64,1.64,0,0,1,1,.34l.4-.67A2,2,0,0,0,73,54.64a1.91,1.91,0,0,0-2,2m7.69,0V54.74h-.82v.46a1.44,1.44,0,0,0-1.19-.56,2,2,0,0,0,0,4,1.43,1.43,0,0,0,1.19-.55v.45h.82Zm-3.06,0a1.15,1.15,0,1,1,1.15,1.21,1.13,1.13,0,0,1-1.15-1.21m-9.91-2a2,2,0,0,0,.06,4,2.26,2.26,0,0,0,1.54-.53l-.4-.61a1.81,1.81,0,0,1-1.1.4,1.05,1.05,0,0,1-1.13-.93h2.81c0-.1,0-.2,0-.31a1.81,1.81,0,0,0-1.79-2m0,.74a.94.94,0,0,1,1,.91h-2a1,1,0,0,1,1-.91m20.61,1.25V53.22H85.5v2a1.44,1.44,0,0,0-1.19-.56,2,2,0,0,0,0,4,1.43,1.43,0,0,0,1.19-.55v.45h.82Zm-3.06,0a1.15,1.15,0,1,1,1.15,1.21,1.13,1.13,0,0,1-1.15-1.21m-27.73,0V54.74H54.7v.46a1.43,1.43,0,0,0-1.19-.56,2,2,0,0,0,0,4,1.42,1.42,0,0,0,1.19-.55v.45h.83Zm-3.06,0a1.14,1.14,0,1,1,2.28,0,1.14,1.14,0,1,1-2.28,0M87.69,58a.4.4,0,0,1,.15,0,.37.37,0,0,1,.2.2.32.32,0,0,1,0,.14.4.4,0,0,1,0,.15.42.42,0,0,1-.08.12.36.36,0,0,1-.12.08.39.39,0,0,1-.3,0,.36.36,0,0,1-.12-.08.42.42,0,0,1-.08-.12.4.4,0,0,1,0-.15.32.32,0,0,1,0-.14.37.37,0,0,1,.2-.2.4.4,0,0,1,.15,0m0,.66a.2.2,0,0,0,.11,0,.21.21,0,0,0,.1-.06l.06-.09a.5.5,0,0,0,0-.12.36.36,0,0,0,0-.11.35.35,0,0,0-.06-.09l-.1-.07-.11,0-.11,0-.1.07a.35.35,0,0,0-.06.09.2.2,0,0,0,0,.11.25.25,0,0,0,0,.12l.06.09a.21.21,0,0,0,.1.06.2.2,0,0,0,.11,0m0-.46a.18.18,0,0,1,.11,0,.1.1,0,0,1,0,.08.09.09,0,0,1,0,.07.1.1,0,0,1-.08,0l.12.14h-.09l-.11-.14h0v.14h-.08v-.35Zm-.08.06v.1h.08l.05,0s0,0,0,0a.05.05,0,0,0,0,0h-.13Z"/><rect class="cls-3" x="59.31" y="25.97" width="12.44" height="22.36"/><path class="cls-4" d="M60.1,37.15A14.21,14.21,0,0,1,65.53,26a14.22,14.22,0,1,0,0,22.35A14.2,14.2,0,0,1,60.1,37.15"/><path class="cls-5" d="M88.54,37.14a14.22,14.22,0,0,1-23,11.18,14.21,14.21,0,0,0,0-22.35,14.22,14.22,0,0,1,23,11.17M87.18,46V45.5h.19v-.09H86.9v.09h.18V46Zm.92,0V45.4H88l-.16.38-.17-.38h-.14V46h.1v-.42l.15.36h.11l.15-.36V46Z"/></svg>