<svg id="Layer_1" data-name="Layer 1" xmlns="http://www.w3.org/2000/svg" viewBox="0 0 133.4 81.53"><defs><style>.cls-1{fill:#f2f2f2;}.cls-2{fill:#494949;}.cls-3{fill:#afafaf;}</style></defs><title>cards_logo</title><path class="cls-1" d="M103,18.53H35.47a6.59,6.59,0,0,0-6.59,6.59v34a6.6,6.6,0,0,0,6.59,6.6H103a6.6,6.6,0,0,0,6.59-6.6v-34A6.59,6.59,0,0,0,103,18.53Z"/><polygon class="cls-2" points="63.59 51.3 58.31 51.3 61.61 31.02 66.89 31.02 63.59 51.3"/><path class="cls-2" d="M53.87,31l-5,14-.59-3h0l-1.78-9.12A2.25,2.25,0,0,0,44,31H35.64l-.1.34a19.64,19.64,0,0,1,5.52,2.32L45.65,51.3h5.5L59.55,31Z"/><path class="cls-2" d="M95.4,51.3h4.84L96,31H91.77a2.43,2.43,0,0,0-2.44,1.51L81.46,51.3H87l1.1-3h6.72Zm-5.81-7.18,2.77-7.59,1.56,7.59Z"/><path class="cls-2" d="M81.87,35.89l.76-4.35a15.2,15.2,0,0,0-4.75-.89c-2.62,0-8.84,1.15-8.84,6.72,0,5.24,7.3,5.3,7.3,8.05s-6.55,2.26-8.71.53l-.79,4.55a14.76,14.76,0,0,0,6,1.15c3.6,0,9-1.87,9-6.95,0-5.27-7.37-5.76-7.37-8.05S79.61,34.65,81.87,35.89Z"/><path class="cls-3" d="M48.24,42l-1.78-9.12A2.25,2.25,0,0,0,44,31H35.64l-.1.34a20.53,20.53,0,0,1,7.84,3.93A15.88,15.88,0,0,1,48.24,42Z"/></svg>