<svg id="Layer_1" data-name="Layer 1" xmlns="http://www.w3.org/2000/svg" viewBox="0 0 133.4 81.53"><defs><style>.cls-1{fill:none;stroke:#cacaca;stroke-miterlimit:10;stroke-width:2px;}.cls-2{fill:#005ca7;}.cls-3{fill:#f5a624;}</style></defs><title>cards_logo</title><rect class="cls-1" x="25.16" y="19.03" width="78.66" height="45.19" rx="5.59"/><polygon class="cls-2" points="59.7 51.3 54.42 51.3 57.72 31.02 63 31.02 59.7 51.3"/><path class="cls-2" d="M50,31,45,45l-.6-3h0l-1.77-9.12A2.27,2.27,0,0,0,40.07,31H31.75l-.1.34a19.76,19.76,0,0,1,5.53,2.32L41.76,51.3h5.5L55.66,31Z"/><path class="cls-2" d="M91.51,51.3h4.85L92.13,31H87.88a2.41,2.41,0,0,0-2.43,1.51L77.57,51.3h5.51l1.1-3h6.71ZM85.7,44.12l2.77-7.59L90,44.12Z"/><path class="cls-2" d="M78,35.89l.75-4.35A15.2,15.2,0,0,0,74,30.65c-2.62,0-8.84,1.15-8.84,6.72,0,5.24,7.3,5.3,7.3,8.05s-6.55,2.26-8.71.53L63,50.5a14.76,14.76,0,0,0,6,1.15c3.61,0,9-1.87,9-6.95,0-5.27-7.36-5.76-7.36-8.05S75.73,34.65,78,35.89Z"/><path class="cls-3" d="M44.35,42l-1.77-9.12A2.27,2.27,0,0,0,40.07,31H31.75l-.1.34a20.53,20.53,0,0,1,7.84,3.93A15.77,15.77,0,0,1,44.35,42Z"/></svg>