<svg id="Layer_1" data-name="Layer 1" xmlns="http://www.w3.org/2000/svg" xmlns:xlink="http://www.w3.org/1999/xlink" viewBox="0 0 1205.08 519.85"><defs><style>.cls-1,.cls-3{fill:#fff;}.cls-2{fill:#ffebd1;}.cls-3{stroke:#ffd505;stroke-width:3px;}.cls-3,.cls-44{stroke-miterlimit:10;}.cls-4{fill:#ffdd9e;}.cls-5{fill:#ffefca;}.cls-6{fill:#fc9;}.cls-7{fill:#f93;}.cls-8{fill:#fff9e1;}.cls-9{fill:#ffb255;}.cls-10{fill:#fff7e6;}.cls-11{fill:#ff9100;}.cls-12{fill:#5b3103;}.cls-13{fill:#fcaa47;}.cls-14{fill:#ffd505;}.cls-15{fill:#1f3440;}.cls-16{fill:#fe4c00;}.cls-17{fill:#f4daa2;}.cls-18{fill:#e2b969;}.cls-19{fill:#842606;}.cls-20{fill:#fc9322;}.cls-21{fill:#fc6;}.cls-22{fill:#4f3102;}.cls-23{fill:#4e908e;}.cls-24{fill:#506168;}.cls-25{fill:#68afac;}.cls-26{fill:#15b8e2;}.cls-27{fill:#fce68d;}.cls-28{fill:#c7b299;}.cls-29{fill:#ff7300;}.cls-30{fill:#fffbeb;}.cls-31{fill:#eda264;}.cls-32{fill:#fffdf3;}.cls-33{font-size:15.38px;fill:#fcd088;font-family:Somatic-Rounded, Somatic;}.cls-34{fill:#ffd617;}.cls-35{fill:#db5a03;}.cls-36{fill:#f48908;}.cls-37{mask:url(#mask);}.cls-38{fill:#f9844a;}.cls-39{fill:#fff9de;}.cls-40{fill:#601e01;}.cls-41{fill:#57758f;}.cls-42{fill:#12293a;}.cls-43{fill:#cc6;}.cls-44{fill:none;stroke:#db5a03;stroke-width:0.5px;}</style><mask id="mask" x="749.27" y="57.72" width="269.06" height="416.18" maskUnits="userSpaceOnUse"><rect class="cls-1" x="768.64" y="57.72" width="249.69" height="414.39"/></mask></defs><title>home-hero</title><path class="cls-2" d="M996.33,288.53h-32a5,5,0,0,0,0,10h32a5,5,0,1,0,0-10"/><path class="cls-2" d="M1015.55,307.15h-32a5,5,0,0,0,0,10h32a5,5,0,0,0,0-10"/><path class="cls-2" d="M1057.56,354.83h-32a5,5,0,1,0,0,10h32a5,5,0,0,0,0-10"/><path class="cls-2" d="M1048.59,288.53h-32a5,5,0,0,0,0,10h32a5,5,0,0,0,0-10"/><path class="cls-2" d="M996.33,395h-32a5,5,0,0,0,0,10h32a5,5,0,1,0,0-10"/><path class="cls-2" d="M770.54,325.25h-32a5,5,0,1,0,0,10h32a5,5,0,0,0,0-10"/><path class="cls-3" d="M980.33,474.25H754.54V152c0-61.14,46-109.95,102.8-109.95h20.19c56.78,0,102.8,50.69,102.8,110Z"/><path class="cls-4" d="M965.47,475H769.4V147a89.26,89.26,0,0,1,89.27-89.26H876.2A89.26,89.26,0,0,1,965.47,147Z"/><path class="cls-5" d="M627.32,346.81H256.49A27.48,27.48,0,0,1,229,319.33V61.78h425.8V319.33a27.48,27.48,0,0,1-27.49,27.48"/><polygon class="cls-6" points="310.74 96.7 262.43 96.7 228.15 61.78 276.46 61.78 310.74 96.7"/><polygon class="cls-7" points="359.04 96.7 310.74 96.7 276.46 61.78 324.76 61.78 359.04 96.7"/><polygon class="cls-6" points="407.02 96.7 358.71 96.7 324.43 61.78 372.74 61.78 407.02 96.7"/><polygon class="cls-7" points="455.32 96.7 407.02 96.7 372.74 61.78 421.04 61.78 455.32 96.7"/><polygon class="cls-6" points="503.85 96.7 455.54 96.7 421.26 61.78 469.56 61.78 503.85 96.7"/><polygon class="cls-7" points="552.15 96.7 503.85 96.7 469.56 61.78 517.87 61.78 552.15 96.7"/><polygon class="cls-6" points="600.13 96.7 551.82 96.7 517.54 61.78 565.84 61.78 600.13 96.7"/><polygon class="cls-7" points="648.43 96.7 600.13 96.7 565.84 61.78 614.15 61.78 648.43 96.7"/><path class="cls-6" d="M297.1,117.27h-21a13.64,13.64,0,0,1-13.64-13.64V96.7h48.31v6.93A13.64,13.64,0,0,1,297.1,117.27Z"/><path class="cls-7" d="M345.4,117.27h-21a13.64,13.64,0,0,1-13.64-13.64V96.7H359v6.93A13.64,13.64,0,0,1,345.4,117.27Z"/><path class="cls-6" d="M393.38,117.27h-21a13.64,13.64,0,0,1-13.64-13.64V96.7H407v6.93A13.64,13.64,0,0,1,393.38,117.27Z"/><path class="cls-7" d="M441.68,117.27h-21A13.64,13.64,0,0,1,407,103.63V96.7h48.3v6.93A13.64,13.64,0,0,1,441.68,117.27Z"/><path class="cls-6" d="M490.2,117.27h-21a13.64,13.64,0,0,1-13.64-13.64V96.7h48.3v6.93A13.64,13.64,0,0,1,490.2,117.27Z"/><path class="cls-7" d="M538.51,117.27h-21a13.65,13.65,0,0,1-13.65-13.64V96.7h48.31v6.93A13.64,13.64,0,0,1,538.51,117.27Z"/><path class="cls-6" d="M586.48,117.27h-21a13.64,13.64,0,0,1-13.64-13.64V96.7h48.3v6.93A13.64,13.64,0,0,1,586.48,117.27Z"/><polygon class="cls-6" points="696.7 96.7 648.4 96.7 614.12 61.78 662.42 61.78 696.7 96.7"/><path class="cls-6" d="M683.06,117.27H662a13.64,13.64,0,0,1-13.64-13.64V96.7h48.3v6.93A13.64,13.64,0,0,1,683.06,117.27Z"/><path class="cls-7" d="M634.79,117.27h-21a13.65,13.65,0,0,1-13.65-13.64V96.7h48.31v6.93A13.64,13.64,0,0,1,634.79,117.27Z"/><polyline class="cls-8" points="265.57 97.06 568.72 97.06 568.72 96.35 265.57 96.35"/><polyline class="cls-8" points="661.39 96.35 592.25 96.35 592.25 97.06 661.39 97.06"/><path class="cls-2" d="M378.68,426h-32a5,5,0,0,0,0,10h32a5,5,0,1,0,0-10"/><path class="cls-2" d="M396.56,405h-32a5,5,0,1,0,0,10h32a5,5,0,0,0,0-10"/><path class="cls-2" d="M293.87,446h-32a5,5,0,0,0,0,10h32a5,5,0,0,0,0-10"/><path class="cls-2" d="M226.12,376.44h-32a5,5,0,0,0,0,10h32a5,5,0,1,0,0-10"/><path class="cls-2" d="M187.77,260.34h-32a5,5,0,1,0,0,10h32a5,5,0,0,0,0-10"/><path class="cls-2" d="M248.66,397.77h-32a5,5,0,0,0,0,10h32a5,5,0,1,0,0-10"/><path class="cls-2" d="M323,426H291a5,5,0,1,0,0,10h32a5,5,0,1,0,0-10"/><path class="cls-2" d="M279.52,376.44h-32a5,5,0,0,0,0,10h32a5,5,0,0,0,0-10"/><path class="cls-2" d="M706.9,363h-32a5,5,0,1,0,0,10h32a5,5,0,1,0,0-10"/><path class="cls-2" d="M729.44,384.34h-32a5,5,0,0,0,0,10h32a5,5,0,1,0,0-10"/><path class="cls-2" d="M714.64,403.82h-32a5,5,0,0,0,0,10h32a5,5,0,0,0,0-10"/><path class="cls-2" d="M702.31,287.74h-32a5,5,0,0,0,0,10h32a5,5,0,1,0,0-10"/><path class="cls-9" d="M383.12,393.27h85.33a7.15,7.15,0,1,0,0-14.29H383.12a7.15,7.15,0,1,0,0,14.29"/><path class="cls-9" d="M386.37,389.21v77.68a7.15,7.15,0,1,0,14.29,0V389.21a7.15,7.15,0,1,0-14.29,0"/><path class="cls-9" d="M620.83,393.27h85.32a7.15,7.15,0,1,0,0-14.29H620.83a7.15,7.15,0,1,0,0,14.29"/><path class="cls-9" d="M624.07,389.21v77.68a7.15,7.15,0,1,0,14.3,0V389.21a7.15,7.15,0,0,0-14.3,0"/><path class="cls-9" d="M691.49,389.21v77.68a7.15,7.15,0,1,0,14.3,0V389.21a7.15,7.15,0,1,0-14.3,0"/><path class="cls-9" d="M451.32,389.21v77.68a7.15,7.15,0,1,0,14.3,0V389.21a7.15,7.15,0,0,0-14.3,0"/><path class="cls-10" d="M499.19,143.39a5,5,0,0,0-3.53,1.46l-65.13,65a5,5,0,0,0,7.07,7.08l65.13-65a5,5,0,0,0-3.54-8.55"/><path class="cls-10" d="M558.88,128.4a5,5,0,0,0-3.54,1.46L413.87,271a5,5,0,1,0,7.06,7.09L562.41,137a5,5,0,0,0-3.53-8.55"/><path class="cls-10" d="M552.74,183.52a4.94,4.94,0,0,0-3.53,1.46l-49.35,49.23a5,5,0,0,0,7.07,7.08l49.35-49.23a5,5,0,0,0-3.54-8.54"/><rect class="cls-11" x="414.08" y="277.87" width="31.47" height="19.97"/><path class="cls-11" d="M447.21,172.32v6.22a4,4,0,0,1-3.51,4.09,3.94,3.94,0,0,1-4.33-3.9V168.29a1.71,1.71,0,0,0-1.33-1.68c-1.44-.31-2.9-.55-4.37-.73a1.73,1.73,0,0,0-1.95,1.71v10.95a4,4,0,0,1-3.52,4.09,3.93,3.93,0,0,1-4.32-3.9V167.59a1.72,1.72,0,0,0-1.94-1.71c-1.48.18-2.94.42-4.37.73a1.71,1.71,0,0,0-1.34,1.68v10.25a4,4,0,0,1-3.52,4.09,3.93,3.93,0,0,1-4.32-3.9v-6.41a1.72,1.72,0,0,0-2.49-1.55,48.22,48.22,0,0,0-26.34,43v35.17a36.65,36.65,0,0,0,36.65,36.65h23.18a36.65,36.65,0,0,0,36.66-36.65V213.76a48.24,48.24,0,0,0-26.34-43A1.73,1.73,0,0,0,447.21,172.32Z"/><path class="cls-12" d="M408.16,227.7a5.92,5.92,0,0,1,11.83,0,2.51,2.51,0,0,0,5,0,10.92,10.92,0,0,0-21.84,0,2.5,2.5,0,0,0,5,0Z"/><path class="cls-12" d="M451,243.61a22.37,22.37,0,0,1-41.25-.12Z"/><path class="cls-13" d="M407.1,253.71a8.41,8.41,0,0,0,5.17-7.76,8.42,8.42,0,0,0-5.13-7.73,2.5,2.5,0,0,0-1.95,4.61,3.38,3.38,0,0,1,1.49,5,3.47,3.47,0,0,1-1.5,1.23,2.5,2.5,0,0,0,1.92,4.62Z"/><path class="cls-13" d="M455.61,249.09a3.47,3.47,0,0,1-1.5-1.23,3.38,3.38,0,0,1,1.49-5,2.5,2.5,0,0,0-2-4.61,8.4,8.4,0,0,0,0,15.49,2.5,2.5,0,1,0,1.92-4.62Z"/><path class="cls-12" d="M442.76,227.7a5.92,5.92,0,0,1,11.83,0,2.5,2.5,0,0,0,5,0,10.92,10.92,0,0,0-21.84,0,2.51,2.51,0,0,0,5,0Z"/><path class="cls-11" d="M453,310.54a34.16,34.16,0,0,0,5.3.36,45.74,45.74,0,0,0,13.45-2,43.35,43.35,0,0,0,12.56-6.27,45.49,45.49,0,0,0,9.07-8.77A60.4,60.4,0,0,0,503.59,273c2.47-8.58,3.87-18.87,3.87-31.27,0-.56,0-1.13,0-1.7l-16.44.16c0,.52,0,1,0,1.54,0,13.24-1.79,23.09-4.38,30.32a40.19,40.19,0,0,1-6.83,12.4,28.09,28.09,0,0,1-5.8,5.29,27,27,0,0,1-8.7,3.86,28.71,28.71,0,0,1-7,.86,20.52,20.52,0,0,1-2.11-.09l-.46-.05h-.05l-.63,4.15.7-4.14h-.07l-.63,4.15.7-4.14L453,310.54Z"/><path class="cls-14" d="M452.34,314.41a37.82,37.82,0,0,0,6,.43A49.78,49.78,0,0,0,473,312.59a47.16,47.16,0,0,0,18.36-10.75L474.7,284.16a23.11,23.11,0,0,1-11.08,5.8,25.67,25.67,0,0,1-5.33.57c-.8,0-1.41,0-1.75-.07l-.3,0h0l-.89,6.18,1-6.16-.16,0-.89,6.18,1-6.16-4.06,24Z"/><path class="cls-11" d="M444.7,379.13H410.81A15.15,15.15,0,0,1,395.66,364V294.85h64.19V364A15.15,15.15,0,0,1,444.7,379.13Z"/><path class="cls-15" d="M459.92,379.13H408.47a12.87,12.87,0,0,1-12.88-12.88V338.39h64.33Z"/><path class="cls-11" d="M510.53,248H490.87V237.61a10.36,10.36,0,0,1,10.36-10.37h9.3a10.37,10.37,0,0,1,0,20.73Z"/><path class="cls-11" d="M497.58,236.17a13.86,13.86,0,0,0,1.8-.75,17.25,17.25,0,0,0,5.58-4.3,14.57,14.57,0,0,0,2.48-4.16,15.28,15.28,0,0,0,1-5.58,18.61,18.61,0,0,0-.25-3,3.58,3.58,0,0,0-7.06,1.14,10.65,10.65,0,0,1,.16,1.87,7.76,7.76,0,0,1-.89,3.78,8.07,8.07,0,0,1-1.45,1.93,10.78,10.78,0,0,1-2.5,1.8c-.36.18-.66.31-.85.39l-.2.08v0h0v0a3.57,3.57,0,1,0,2.16,6.81Z"/><rect class="cls-14" x="395.59" y="290.5" width="64.33" height="64.33"/><path class="cls-11" d="M375.5,299.74A60.94,60.94,0,0,0,363.22,308,64,64,0,0,0,352,320.88a29.92,29.92,0,0,0-3.36,6.52,20.23,20.23,0,0,0-1.27,6.92,16.78,16.78,0,0,0,.82,5.27,16.48,16.48,0,0,0,2,4.13,19.25,19.25,0,0,0,5.4,5.29,25.89,25.89,0,0,0,4.85,2.5,37.94,37.94,0,0,0,8.08,2.14,56.83,56.83,0,0,0,8.91.66,80.87,80.87,0,0,0,16-1.68,95.39,95.39,0,0,0,25.11-8.89,77.78,77.78,0,0,0,22.38-17.23l-12.33-10.87a57.32,57.32,0,0,1-11.19,9.69,75.44,75.44,0,0,1-20.31,9.45,69.71,69.71,0,0,1-19.63,3.09,39.16,39.16,0,0,1-7.22-.61,21,21,0,0,1-3.82-1.07,10,10,0,0,1-1.73-.89,5.74,5.74,0,0,1-.63-.51,1.23,1.23,0,0,1-.22-.28.86.86,0,0,1,0-.19,4.16,4.16,0,0,1,.31-1.36,14.09,14.09,0,0,1,1.57-3,47.74,47.74,0,0,1,8.35-9.57,44.23,44.23,0,0,1,9-6l-7.47-14.64Z"/><path class="cls-14" d="M402.62,291a36.64,36.64,0,0,0-5.95-.43A49.73,49.73,0,0,0,382,292.78a47.16,47.16,0,0,0-18.36,10.75l16.67,17.68a22.75,22.75,0,0,1,4.49-3.31,23.25,23.25,0,0,1,6.59-2.49,24.94,24.94,0,0,1,5.33-.57,16.63,16.63,0,0,1,1.74.07l.31,0h0l.88-6.18-1,6.16.16,0,.88-6.18-1,6.16,4.06-24Z"/><path class="cls-16" d="M432.44,250.38H414.29a22.36,22.36,0,0,0,24,5.45A5.89,5.89,0,0,0,432.44,250.38Z"/><polyline class="cls-16" points="395.59 315.53 400.59 315.53 400.59 314.81 395.59 314.81"/><path class="cls-17" d="M475.36,340.31H452.52a9.54,9.54,0,0,1,9.54-9.55h3.76A9.54,9.54,0,0,1,475.36,340.31Z"/><path class="cls-18" d="M473.49,340.31V340H454.75v-.45a6.62,6.62,0,0,1,6.63-6.63h5.12a6.62,6.62,0,0,1,6.63,6.63v.81h.36v0h.35v-.81a7.34,7.34,0,0,0-7.34-7.35h-5.12A7.35,7.35,0,0,0,454,339.5v1.16h19.8v-.35Z"/><path class="cls-19" d="M471.46,333.28a3,3,0,1,1-3-3A3,3,0,0,1,471.46,333.28Z"/><path class="cls-17" d="M471.09,340.31H456.8V339.2a4.73,4.73,0,0,1,4.73-4.73h4.82a4.74,4.74,0,0,1,4.74,4.73Z"/><path class="cls-18" d="M471.09,340.31V340H457.15v-.75a4.37,4.37,0,0,1,4.38-4.37h4.82a4.37,4.37,0,0,1,4.38,4.37v1.11h.36v0h.35V339.2a5.09,5.09,0,0,0-5.09-5.09h-4.82a5.09,5.09,0,0,0-5.09,5.09v1.46h15v-.35Z"/><path class="cls-17" d="M508.47,339.55H469v-.63a12.66,12.66,0,0,1,12.66-12.66h14.2a12.65,12.65,0,0,1,12.65,12.66Z"/><path class="cls-18" d="M505.77,339.55v-.35H471.46v.35h.36a10.91,10.91,0,0,1,10.91-10.91H494.5a10.93,10.93,0,0,1,10.91,10.91h.36v0h.35a11.62,11.62,0,0,0-11.62-11.62H482.73a11.63,11.63,0,0,0-11.63,11.62v.36h35v-.36Z"/><path class="cls-19" d="M501.69,330.26a3,3,0,1,1-3-3A3,3,0,0,1,501.69,330.26Z"/><path class="cls-17" d="M503.09,339.55H474.14V339a8.28,8.28,0,0,1,8.28-8.28h12.39a8.28,8.28,0,0,1,8.28,8.28Z"/><path class="cls-18" d="M503.09,339.55v-.35H474.5V339a7.92,7.92,0,0,1,7.92-7.92h12.39a7.92,7.92,0,0,1,7.92,7.92v.51h.36v0h.36V339a8.65,8.65,0,0,0-8.64-8.64H482.42a8.64,8.64,0,0,0-8.64,8.64v.87h29.67v-.36Z"/><path class="cls-18" d="M499.3,339.55v-.35h-21v-.76a4.81,4.81,0,0,1,4.8-4.8h11a4.81,4.81,0,0,1,4.81,4.8v1.11h.36v0h.35v-1.11a5.52,5.52,0,0,0-5.52-5.51h-11a5.52,5.52,0,0,0-5.52,5.51v1.47h22.08v-.36Z"/><path class="cls-19" d="M491.16,327.23a3,3,0,1,1-3-3A3,3,0,0,1,491.16,327.23Z"/><path class="cls-1" d="M517.49,342.32H441.91a6.44,6.44,0,0,1-6.44-6.44h88.46A6.44,6.44,0,0,1,517.49,342.32Z"/><path class="cls-17" d="M582.94,340.31H560.1a9.54,9.54,0,0,1,9.54-9.55h3.76A9.54,9.54,0,0,1,582.94,340.31Z"/><path class="cls-18" d="M581.07,340.31V340H562.33v-.45a6.62,6.62,0,0,1,6.63-6.63h5.12a6.62,6.62,0,0,1,6.63,6.63v.81h.36v0h.35v-.81a7.35,7.35,0,0,0-7.34-7.35H569a7.34,7.34,0,0,0-7.34,7.35v1.16h19.8v-.35Z"/><path class="cls-19" d="M579,333.28a3,3,0,1,1-3-3A3,3,0,0,1,579,333.28Z"/><path class="cls-17" d="M578.66,340.31H564.37V339.2a4.74,4.74,0,0,1,4.74-4.73h4.82a4.73,4.73,0,0,1,4.73,4.73Z"/><path class="cls-18" d="M578.66,340.31V340H564.73v-.75a4.37,4.37,0,0,1,4.38-4.37h4.82a4.37,4.37,0,0,1,4.38,4.37v1.11h.35v0H579V339.2a5.09,5.09,0,0,0-5.09-5.09h-4.82A5.09,5.09,0,0,0,564,339.2v1.46h15v-.35Z"/><path class="cls-17" d="M616.05,339.55H576.54v-.63a12.66,12.66,0,0,1,12.66-12.66h14.2a12.65,12.65,0,0,1,12.65,12.66Z"/><path class="cls-18" d="M613.35,339.55v-.35H579v.35h.36a10.91,10.91,0,0,1,10.91-10.91h11.76A10.93,10.93,0,0,1,613,339.55h.36v0h.35a11.62,11.62,0,0,0-11.63-11.62H590.31a11.63,11.63,0,0,0-11.63,11.62v.36h35v-.36Z"/><path class="cls-19" d="M609.27,330.26a3,3,0,1,1-3-3A3,3,0,0,1,609.27,330.26Z"/><path class="cls-17" d="M610.67,339.55H581.72V339a8.28,8.28,0,0,1,8.28-8.28h12.39a8.28,8.28,0,0,1,8.28,8.28Z"/><path class="cls-18" d="M610.67,339.55v-.35H582.08V339a7.92,7.92,0,0,1,7.92-7.92h12.39a7.92,7.92,0,0,1,7.92,7.92v.51h.36v0H611V339a8.63,8.63,0,0,0-8.63-8.64H590a8.64,8.64,0,0,0-8.64,8.64v.87H611v-.36Z"/><path class="cls-18" d="M606.87,339.55v-.35h-21v-.76a4.81,4.81,0,0,1,4.8-4.8h11a4.81,4.81,0,0,1,4.81,4.8v1.11h.35v0h.36v-1.11a5.52,5.52,0,0,0-5.52-5.51h-11a5.52,5.52,0,0,0-5.52,5.51v1.47h22.08v-.36Z"/><path class="cls-19" d="M598.74,327.23a3,3,0,1,1-3-3A3,3,0,0,1,598.74,327.23Z"/><path class="cls-1" d="M625.06,342.32H549.49a6.44,6.44,0,0,1-6.44-6.44H631.5A6.44,6.44,0,0,1,625.06,342.32Z"/><rect class="cls-9" x="522.76" y="344.33" width="26.53" height="128.99"/><rect class="cls-20" x="522.76" y="349.34" width="26.53" height="12.48"/><rect class="cls-21" x="635.78" y="269.66" width="32.72" height="28.18"/><path class="cls-21" d="M655.42,276.38H646a34.65,34.65,0,0,1-34.36-30.08l-4.51-33.79C603,182,622.7,153.32,650.71,153.32S698.37,182,694.3,212.51l-4.51,33.79A34.67,34.67,0,0,1,655.42,276.38Z"/><path class="cls-22" d="M623.29,240.68a21.36,21.36,0,0,0,39.38-.1,2.5,2.5,0,0,0-4.62-1.93,16.35,16.35,0,0,1-30.15.08,2.5,2.5,0,0,0-4.61,2Z"/><path class="cls-23" d="M619.79,379.21h51.45a12.88,12.88,0,0,0,12.88-12.88v-11.5H619.79Z"/><rect class="cls-24" x="599.24" y="276.43" width="26.36" height="45.75" rx="2.92"/><polygon class="cls-16" points="619.79 354.91 684.12 354.91 670.45 291.8 633.46 291.8 619.79 354.91"/><polyline class="cls-21" points="638.36 377.49 638.36 472.11 654.79 472.11 654.79 377.49"/><polyline class="cls-21" points="607.62 377.49 607.62 472.11 624.06 472.11 624.06 377.49"/><path class="cls-23" d="M638.36,434.22h17.15v-65a8.58,8.58,0,1,0-17.15,0Z"/><path class="cls-23" d="M606.91,434.22h17.15v-65a8.58,8.58,0,1,0-17.15,0Z"/><path class="cls-15" d="M621.93,475h31.44a1.44,1.44,0,0,0,1.43-1.44V462.1H631.92a11.42,11.42,0,0,0-11.42,11.43A1.44,1.44,0,0,0,621.93,475Z"/><path class="cls-15" d="M591.19,475h31.43a1.44,1.44,0,0,0,1.44-1.44V462.1H601.18a11.43,11.43,0,0,0-11.43,11.43A1.44,1.44,0,0,0,591.19,475Z"/><rect class="cls-25" x="637.2" y="427.68" width="20.27" height="10.26"/><rect class="cls-25" x="605.35" y="427.68" width="20.27" height="10.26"/><path class="cls-21" d="M666.28,308.07A74.45,74.45,0,0,1,669.87,330a46.06,46.06,0,0,1-.94,9.61,26.89,26.89,0,0,1-1.67,5.23,14.5,14.5,0,0,1-1.48,2.61,6.49,6.49,0,0,1-1.86,1.83,2.91,2.91,0,0,1-.61.26,2,2,0,0,1-.58.07,4.2,4.2,0,0,1-1.36-.26,10,10,0,0,1-2-1,24.25,24.25,0,0,1-5.14-4.69,71.4,71.4,0,0,1-9.62-15.45,184,184,0,0,1-10.05-26.61l-15.74,4.75a209.6,209.6,0,0,0,9.52,25.86,113.92,113.92,0,0,0,7.61,14.27,67.31,67.31,0,0,0,6,8.1,38.65,38.65,0,0,0,9.71,8.31,24.58,24.58,0,0,0,5.38,2.34,20.2,20.2,0,0,0,5.72.84,18.39,18.39,0,0,0,5.81-.92,19.24,19.24,0,0,0,4.54-2.19,23,23,0,0,0,6.11-6,36.05,36.05,0,0,0,5.38-12.08A60,60,0,0,0,686.31,330,91.1,91.1,0,0,0,682,303.19l-15.7,4.88Z"/><path class="cls-16" d="M662.05,311.18l1.71-7.85-2,7.78.31.07,1.71-7.85-2,7.78.78-3-.84,3,.06,0,.78-3-.84,3,.17-.6-.18.6h0l.17-.6-.18.6a5.36,5.36,0,0,1,1,.42,7.8,7.8,0,0,1,1.25.86,6.69,6.69,0,0,1,.89.94,7.57,7.57,0,0,1,1.19,2.26,14.48,14.48,0,0,1,.64,4.59,30.53,30.53,0,0,1-.71,6.18l23.78,5a54.36,54.36,0,0,0,1.23-11.18,39.82,39.82,0,0,0-.88-8.57,32.65,32.65,0,0,0-5.19-12,31.26,31.26,0,0,0-13.32-10.72,25,25,0,0,0-4.3-1.42l-5.17,23.75Z"/><polyline class="cls-16" points="668.91 315.8 663.91 315.8 663.91 316.51 668.91 316.51"/><path class="cls-22" d="M627.63,219.67a1.35,1.35,0,0,1,.42-1,1.39,1.39,0,0,1,1-.42,1.43,1.43,0,0,1,1,.42,1.38,1.38,0,0,1,.41,1,2.51,2.51,0,1,0,5,0,6.43,6.43,0,0,0-11-4.54,6.37,6.37,0,0,0-1.88,4.54,2.5,2.5,0,1,0,5,0Z"/><path class="cls-22" d="M656,219.67a1.43,1.43,0,0,1,1.42-1.42,1.41,1.41,0,0,1,1,.42,1.39,1.39,0,0,1,.42,1,2.5,2.5,0,1,0,5,0,6.43,6.43,0,0,0-12.85,0,2.5,2.5,0,1,0,5,0Z"/><rect class="cls-16" x="629.58" y="279.32" width="42.26" height="13.42" rx="4.14"/><path class="cls-26" d="M683.13,169.61l-48.34-15.17,1.6-5.12a24.5,24.5,0,0,1,30.61-16l1.75.55a24.49,24.49,0,0,1,16,30.61Z"/><path class="cls-26" d="M657.47,153.18l-.77,2.49a10.46,10.46,0,0,1-13.11,6.84l-23.33-7.32a6.47,6.47,0,0,1-4.24-8.11l0-.11a6.46,6.46,0,0,1,8.1-4.24Z"/><path class="cls-21" d="M608.88,308.13l18.52,9.58,7-13.59a3.32,3.32,0,0,0-1.43-4.47l-15.56-8a9.31,9.31,0,0,0-8.55,16.53Z"/><circle class="cls-27" cx="671.7" cy="230.92" r="3.2"/><path class="cls-9" d="M376.64,356.48H695.42a7.15,7.15,0,1,0,0-14.29H376.64a7.15,7.15,0,1,0,0,14.29"/><rect class="cls-28" x="447.37" y="316.61" width="29.73" height="2.77"/><path class="cls-29" d="M437.24,316.39l-2.14-.65,2.12.72,0-.07-2.14-.65,2.12.72-.59-.2.58.21h0l-.59-.2.58.21v0a2.24,2.24,0,0,1,.16-.32,1.81,1.81,0,0,1,.49-.56.79.79,0,0,1,.26-.13,1.46,1.46,0,0,1,.45-.06h.19l0-.11-.07.1h0l0-.11-.07.1,0,0,0,0h0l0,0,0,0a.93.93,0,0,1,.1.13,2,2,0,0,1,.2.54.59.59,0,0,1,0,.18v0l.37-.06-.38.05h0l.37-.06-.38.05,2.34-.27-2.34.21v.06l2.34-.27-2.34.21a3.57,3.57,0,0,0,7.12-.64,8.67,8.67,0,0,0-.2-1.16,10,10,0,0,0-.55-1.62,8.72,8.72,0,0,0-.84-1.48,7.19,7.19,0,0,0-2.37-2.13,7.39,7.39,0,0,0-3.66-.92,8.29,8.29,0,0,0-4,1,8.47,8.47,0,0,0-2,1.55,9.25,9.25,0,0,0-1.62,2.3,7.23,7.23,0,0,0-.52,1.26,3.57,3.57,0,1,0,6.84,2.07Z"/><path class="cls-11" d="M447,328.88H431.62a3.57,3.57,0,0,1-3.56-3.56v-7.53a5,5,0,0,1,5-5h14a7.32,7.32,0,0,1,7.3,7.3v1.46A7.32,7.32,0,0,1,447,328.88Z"/><path class="cls-28" d="M478.22,321.44h-3a2.5,2.5,0,0,1-2.5-2.5V317a2.5,2.5,0,0,1,2.5-2.5h3Z"/><rect class="cls-28" x="476.04" y="319.91" width="9.82" height="1.54" rx="0.62"/><rect class="cls-28" x="476.04" y="317.22" width="9.82" height="1.54" rx="0.62"/><rect class="cls-28" x="476.04" y="314.54" width="9.82" height="1.54" rx="0.62"/><path class="cls-9" d="M563.4,473.32H508.66a6.63,6.63,0,0,1,6.63-6.63h41.48A6.63,6.63,0,0,1,563.4,473.32Z"/><path class="cls-17" d="M479,328.28h0a.74.74,0,0,1-.74-.73V316.81a.74.74,0,0,1,1.48,0v10.74A.74.74,0,0,1,479,328.28Z"/><path class="cls-17" d="M480.32,327.42h0a.63.63,0,0,1-.62-.63V314.9a.63.63,0,0,1,1.25,0v11.89A.63.63,0,0,1,480.32,327.42Z"/><path class="cls-17" d="M481.57,327.24h0a.62.62,0,0,1-.62-.62V314.73a.62.62,0,1,1,1.24,0v11.89A.62.62,0,0,1,481.57,327.24Z"/><path class="cls-17" d="M483.82,327.24h0a.63.63,0,0,1-.63-.62V314.73a.63.63,0,1,1,1.25,0v11.89A.62.62,0,0,1,483.82,327.24Z"/><path class="cls-17" d="M482.82,322.18h0a.63.63,0,0,1-.63-.62v-6.83a.63.63,0,1,1,1.25,0v6.83A.62.62,0,0,1,482.82,322.18Z"/><path class="cls-30" d="M529.78,317.22h0a11,11,0,0,1-11-11v-20h21.93v20A11,11,0,0,1,529.78,317.22Z"/><path class="cls-31" d="M530.18,313.94h-.79a7.64,7.64,0,0,1-7.65-7.65v-1.36h16.09v1.36A7.64,7.64,0,0,1,530.18,313.94Z"/><polyline class="cls-1" points="529.07 317.22 529.07 342.09 530.5 342.09 530.5 317.22"/><polyline class="cls-1" points="525.73 342.17 533.83 342.17 533.83 340.75 525.73 340.75"/><rect class="cls-1" x="557.88" y="270.11" width="37.33" height="31.19" rx="11.03"/><path class="cls-16" d="M567.75,281.06a5.23,5.23,0,0,1,1.39-1.87l.32-.29h0a5.47,5.47,0,0,1,1.33-.7,5.35,5.35,0,0,1,1.85-.33,5.4,5.4,0,0,1,2.2.47,5.24,5.24,0,0,1,1.67,1.16,5.24,5.24,0,0,1,1.67-1.16,5.4,5.4,0,0,1,5.74.85,5.32,5.32,0,0,1,1.38,1.87,5.4,5.4,0,0,1-.85,5.74l0,0-6.27,6a2.47,2.47,0,0,1-.76.49,2.39,2.39,0,0,1-.87.16,2.3,2.3,0,0,1-.86-.16,2.4,2.4,0,0,1-.77-.49l-6.27-6,0,0a5.4,5.4,0,0,1-.85-5.74Z"/><path class="cls-1" d="M574.5,297.39v6.7a7.15,7.15,0,0,0,7.15,7.16h4.15a1.79,1.79,0,0,0,0-3.58h-4.15a3.58,3.58,0,0,1-3.58-3.58v-6.7a1.79,1.79,0,1,0-3.57,0Z"/><rect class="cls-32" x="255.85" y="248.14" width="70.1" height="72.52" rx="9.82"/><text class="cls-33" transform="translate(276.65 275.52)">Best</text><text class="cls-33" transform="translate(271.81 290.53)">Pasta</text><text class="cls-33" transform="translate(264.19 305.54)">in town!</text><path class="cls-1" d="M302.38,241.5A13.34,13.34,0,0,0,289,228.16h0a13.34,13.34,0,0,0-13.33,13.34,13.19,13.19,0,0,0,.8,4.5h0s2.3,8.62,12,14.05l.49.29c.16-.1.32-.2.49-.29A25.92,25.92,0,0,0,301.6,246h0A13.43,13.43,0,0,0,302.38,241.5Z"/><path class="cls-16" d="M302.38,241.5A13.34,13.34,0,0,0,289,228.16h0a13.34,13.34,0,0,0-13.33,13.34,13.19,13.19,0,0,0,.8,4.5h0s2.3,8.62,12,14.05l.49.29c.16-.1.32-.2.49-.29A25.92,25.92,0,0,0,301.6,246h0A13.43,13.43,0,0,0,302.38,241.5Z"/><path class="cls-14" d="M294.52,241.54a6,6,0,0,1-5.79,4.41,6,6,0,0,1-5.79-4.41.64.64,0,0,0-.8-.46.66.66,0,0,0-.46.8,7.3,7.3,0,0,0,7.05,5.37,7.3,7.3,0,0,0,7-5.37.65.65,0,0,0-.45-.8A.67.67,0,0,0,294.52,241.54Z"/><path class="cls-14" d="M287.13,237.67a2.94,2.94,0,0,0-1.06-1.58,3,3,0,0,0-1.83-.62,3,3,0,0,0-1.83.62,3,3,0,0,0-1.05,1.58.65.65,0,1,0,1.25.34,1.82,1.82,0,0,1,.6-.89,1.69,1.69,0,0,1,1-.35,1.66,1.66,0,0,1,1,.35,1.75,1.75,0,0,1,.6.89.66.66,0,0,0,.8.46A.65.65,0,0,0,287.13,237.67Z"/><path class="cls-14" d="M295.72,237.67a2.94,2.94,0,0,0-1.06-1.58,3,3,0,0,0-1.83-.62,3,3,0,0,0-1.83.62,3,3,0,0,0-1.05,1.58.65.65,0,0,0,.45.8.67.67,0,0,0,.81-.46,1.73,1.73,0,0,1,.59-.89,1.69,1.69,0,0,1,1-.35,1.71,1.71,0,0,1,1,.35,1.73,1.73,0,0,1,.59.89.66.66,0,0,0,.8.46A.65.65,0,0,0,295.72,237.67Z"/><path class="cls-14" d="M290.85,246a6.35,6.35,0,0,0,3.32-3.09,1.14,1.14,0,0,0-.16.14.18.18,0,0,1-.32-.11c-.31-2.77-3.15-2.22-3.72.32v0c-.42,1.15-.71,2.72-2.09,2.71h-.24C288.18,246.36,289.19,246.7,290.85,246Z"/><polyline class="cls-11" points="442.87 375.72 442.87 470.34 459.31 470.34 459.31 375.72"/><polyline class="cls-11" points="457.16 374 489.32 462.99 504.79 457.4 472.62 368.42"/><path class="cls-15" d="M459.3,425.84H442.15V367.42a8.58,8.58,0,1,1,17.15,0Z"/><path class="cls-15" d="M490.33,415.3l-16.13,5.83-19.86-54.94a8.58,8.58,0,0,1,16.13-5.83Z"/><path class="cls-15" d="M475.73,473.2H444.29a1.43,1.43,0,0,1-1.43-1.44V460.34h22.88a11.42,11.42,0,0,1,11.42,11.42A1.43,1.43,0,0,1,475.73,473.2Z"/><path class="cls-15" d="M521.21,454.5l-29.56,10.69a1.44,1.44,0,0,1-1.84-.87l-3.89-10.74,21.52-7.78a11.42,11.42,0,0,1,14.63,6.86A1.43,1.43,0,0,1,521.21,454.5Z"/><rect class="cls-15" x="482.37" y="426.96" width="17.15" height="30.59" transform="translate(-121.11 193.25) rotate(-19.87)"/><rect class="cls-15" x="442.86" y="436.1" width="17.15" height="30.59"/><polyline class="cls-34" points="32.49 476.04 1171.81 476.04 1171.81 472.46 32.49 472.46"/><polyline class="cls-35" points="414.08 285.94 426.29 285.94 426.29 285.23 414.08 285.23"/><path class="cls-36" d="M668.34,273.5l-.05,0c-.57.26-5.63,2.5-14.31,2.5h-.24l-9.48,0v.71h1.18l8.29,0H654c9.39,0,14.64-2.58,14.68-2.59l-.32-.65Z"/><g class="cls-37"><path class="cls-38" d="M838.39,230.38l44.42,6.46a50.4,50.4,0,0,0,7.21.53,49.55,49.55,0,0,0,17.46-3.18,49.79,49.79,0,0,0,31.75-39.44l7.8-53.68-22.63-3.29-7.81,53.68a26.77,26.77,0,0,1-3.12,9.25,27.15,27.15,0,0,1-9.79,10A26.81,26.81,0,0,1,890,214.49a27.61,27.61,0,0,1-3.92-.28l-44.42-6.46-3.29,22.63Z"/><path class="cls-39" d="M837.93,233.57,882.35,240a53.79,53.79,0,0,0,7.67.55,53,53,0,0,0,52.39-45.37l3.41-23.46-29-4.22L913.41,191A23.58,23.58,0,0,1,902,208a23.58,23.58,0,0,1-12,3.31,24,24,0,0,1-3.45-.26l-44.43-6.45-4.21,29Z"/><polyline class="cls-38" points="771.56 319.09 752.8 461.87 769.1 464.01 787.86 321.23"/><path class="cls-38" d="M802.93,328.58l1.59-3.84-1.62,3.83h0l1.59-3.84-1.62,3.83.37.16a78.79,78.79,0,0,1,18.84,12.79,84.33,84.33,0,0,1,13.23,15.1,80.84,80.84,0,0,1,10.5,21.83A51.08,51.08,0,0,1,848,393.63a84,84,0,0,1-4,24.29,152.07,152.07,0,0,1-14,31.17c-2.35,4-4.47,7.29-6,9.52-.76,1.11-1.36,2-1.77,2.54-.2.28-.36.49-.46.62l-.1.14,0,0h0l2.52,1.9-2.52-1.9h0l2.52,1.9-2.52-1.9h0l6.24,4.71-6.24-4.71h0l6.24,4.71-6.24-4.71,13.12,9.9a176.65,176.65,0,0,0,14.78-24.3,157.16,157.16,0,0,0,10.17-24.8,100.18,100.18,0,0,0,4.74-29.11,67.62,67.62,0,0,0-2.9-20,97.6,97.6,0,0,0-13.89-28.05,102.18,102.18,0,0,0-25.17-24.61,79.21,79.21,0,0,0-13.28-7.55l-6.28,15.19Z"/><path class="cls-15" d="M801.36,331l4.62-9.82L801.34,331h0l4.62-9.82L801.34,331h0l2.15-4.55L801.31,331h0l2.15-4.55L801.31,331h0a79.32,79.32,0,0,1,16.58,11.8,96.36,96.36,0,0,1,13.59,15.11,94.65,94.65,0,0,1,11.83,22A42.76,42.76,0,0,1,846,395.2a60.37,60.37,0,0,1-1.51,13,97.3,97.3,0,0,1-6.1,18.07c-1.19,2.72-2.41,5.25-3.55,7.55s-2.2,4.34-3.12,6.2l19.84,9.85c1.06-2.13,2.65-5.17,4.4-8.8a142.72,142.72,0,0,0,8-20,88.18,88.18,0,0,0,4.17-25.84,65.05,65.05,0,0,0-4.1-23.08,116.34,116.34,0,0,0-15.2-28A118.26,118.26,0,0,0,823.75,319a85,85,0,0,0-13-8.05L801.36,331Z"/><polyline class="cls-15" points="767.8 325.75 753.41 435.25 775.38 438.14 789.77 328.64"/><path class="cls-15" d="M783.38,473.89l-31.16-4.1a1.43,1.43,0,0,1-1.24-1.61l1.49-11.33,22.68,3A11.42,11.42,0,0,1,785,472.65,1.44,1.44,0,0,1,783.38,473.89Z"/><path class="cls-38" d="M864.78,74.12a7.2,7.2,0,0,0-7.48,6.24l-.61,4.2-.2,1.41,0,.09-.6,4.18v0l-.2,1.4L855,95.94l-1.75,12-.82,5.67a6,6,0,0,1-11.79-1.71l.83-5.67,1.74-12,.62-4.28.21-1.4v0l.62-4.28,0-.16.18-1.24.64-4.46a7,7,0,0,0-5.92-7.94h0a7,7,0,0,0-7.94,5.92L831,80.84l-.18,1.23,0,.17-.6,4.09,0,.21-.2,1.4-.6,4.09-1.77,12.18-.8,5.5A6.06,6.06,0,0,1,821,115a6,6,0,0,1-6-6.81l.83-5.67,1.74-12,.62-4.27.21-1.41v0l.62-4.23v0l.21-1.4.61-4.25a7.14,7.14,0,0,0-4.81-7.9,7,7,0,0,0-9,5.67l-.65,4.47-.18,1.24,0,.16-.6,4.09,0,.21-.2,1.4-.6,4.09L802,100.48l-.8,5.5a6.07,6.07,0,0,1-5.83,5.28,6,6,0,0,1-6-6.82l.83-5.67,1.74-12,.62-4.27.21-1.4v0l.62-4.23v0l.21-1.41.61-4.25a7.14,7.14,0,0,0-4.81-7.9,7,7,0,0,0-9,5.68l-.65,4.46-.18,1.24-.65,4.46-2.57,17.67-.83,5.71L770.06,140h0l-.83,5.7a37.31,37.31,0,0,0,31.56,42.29l17,2.47a37.31,37.31,0,0,0,42.29-31.56l.83-5.7,5.45-37.49.83-5.71,2.57-17.67.65-4.46.18-1.24.64-4.46A7,7,0,0,0,864.78,74.12Z"/><rect class="cls-38" x="799.64" y="173.33" width="19.02" height="33.41" transform="matrix(0.14, -0.99, 0.99, 0.14, 504.69, 963.43)"/><path class="cls-40" d="M789.75,138.43a5.92,5.92,0,0,1,5.84-5.06,6.36,6.36,0,0,1,.87.06,5.92,5.92,0,0,1,5.06,5.84,6.47,6.47,0,0,1-.06.87,2.5,2.5,0,0,0,4.95.71,10.51,10.51,0,0,0,.12-1.58,10.93,10.93,0,0,0-9.35-10.79,10.64,10.64,0,0,0-1.59-.12,10.93,10.93,0,0,0-10.79,9.35,2.5,2.5,0,1,0,5,.72Z"/><path class="cls-40" d="M824,143.41a5.83,5.83,0,0,1,2-3.64,5.9,5.9,0,0,1,3.84-1.43,5.07,5.07,0,0,1,.86.07,5.83,5.83,0,0,1,3.64,2,5.9,5.9,0,0,1,1.43,3.84,5.07,5.07,0,0,1-.07.86,2.51,2.51,0,0,0,5,.72,12.11,12.11,0,0,0,.11-1.58,10.95,10.95,0,0,0-9.35-10.8,12.11,12.11,0,0,0-1.58-.11,10.95,10.95,0,0,0-10.8,9.35,2.51,2.51,0,1,0,5,.72Z"/><path class="cls-40" d="M789.05,154.4a22.37,22.37,0,0,0,40.84,5.83Z"/><path class="cls-16" d="M806.47,163.78l18,2.61a22.35,22.35,0,0,1-24.54,1.94A5.89,5.89,0,0,1,806.47,163.78Z"/><path class="cls-40" d="M833.63,166.42a3.41,3.41,0,0,1-1.65-2.9,2.81,2.81,0,0,1,0-.5h0a3.32,3.32,0,0,1,.84-1.79,3.41,3.41,0,0,1,1.66-1,2.5,2.5,0,0,0-1.27-4.84,8.48,8.48,0,0,0-4.09,2.48,8.37,8.37,0,0,0-2.1,4.44v0a8.49,8.49,0,0,0,4,8.42,2.5,2.5,0,0,0,2.57-4.3Z"/><path class="cls-40" d="M808.91,189.48a65.5,65.5,0,0,0,13.51,1.83,22.36,22.36,0,0,0,3.57-.26.35.35,0,0,0,.3-.41.37.37,0,0,0-.41-.29,22.12,22.12,0,0,1-3.46.24,54.54,54.54,0,0,1-8.95-.9c-1.29-.22-2.39-.45-3.16-.62l-.91-.2-.32-.08a.36.36,0,0,0-.43.26.35.35,0,0,0,.26.43Z"/><rect class="cls-39" x="748.77" y="209.3" width="107.23" height="87.08" transform="translate(436.75 1010.51) rotate(-81.73)"/><polyline class="cls-41" points="833.97 203.02 818.85 316.87 827.77 318.06 842.89 204.2"/><polyline class="cls-41" points="775.69 194.32 760.57 308.17 769.49 309.36 784.62 195.5"/><path class="cls-15" d="M837.77,312.16l-86.18-12.53-2.11,14.52a19.72,19.72,0,0,0,16.69,22.37l47.11,6.85a19.75,19.75,0,0,0,22.38-16.7Z"/><path class="cls-38" d="M949.1,151.88l-22.81-3.32a3.67,3.67,0,0,1-3.1-4.15l.67-4.6a8.32,8.32,0,0,1,9.43-7l27.18,3.95a3.67,3.67,0,0,1,3.1,4.15l0,.24A12.73,12.73,0,0,1,949.1,151.88Z"/><path class="cls-17" d="M937,128.69l-22.61-3.29a9.54,9.54,0,0,1,10.82-8.07l3.72.54A9.54,9.54,0,0,1,937,128.69Z"/><path class="cls-18" d="M935.11,128.42l.06-.36-18.55-2.69.07-.45a6.63,6.63,0,0,1,6.55-5.68,8.05,8.05,0,0,1,1,.07l5.06.74A6.63,6.63,0,0,1,935,126.6a7.75,7.75,0,0,1-.07,1l0,.09-.1.72.35,0,.06-.36-.06.36.36.05.11-.8h0a6.51,6.51,0,0,0,.08-1.07,7.34,7.34,0,0,0-6.29-7.26l-5.06-.74a7.79,7.79,0,0,0-1.07-.07,7.34,7.34,0,0,0-7.26,6.29l-.11.8-.06.35,19.61,2.85.05-.35Z"/><path class="cls-19" d="M934.12,121.18a3,3,0,1,1-2.56-3.43A3,3,0,0,1,934.12,121.18Z"/><path class="cls-17" d="M932.74,128.07l-14.14-2,.15-1.09a4.75,4.75,0,0,1,5.37-4l4.77.69a4.75,4.75,0,0,1,4,5.37Z"/><path class="cls-18" d="M932.74,128.07l0-.35-13.79-2,.11-.73a4.37,4.37,0,0,1,4.32-3.75,4.58,4.58,0,0,1,.64,0l4.77.7a4.37,4.37,0,0,1,3.75,4.32,4.6,4.6,0,0,1-.05.64l-.16,1.09.36,0,0-.35,0,.35.35.05.16-1.09a4.6,4.6,0,0,0,0-.74,5.09,5.09,0,0,0-4.36-5l-4.77-.69a4.62,4.62,0,0,0-.74-.06,5.09,5.09,0,0,0-5,4.36l-.21,1.45L933,128.48l.05-.36Z"/><path class="cls-17" d="M969.85,132.71,930.74,127l.1-.63a12.64,12.64,0,0,1,14.34-10.7l14.05,2a12.67,12.67,0,0,1,10.71,14.35Z"/><path class="cls-18" d="M967.17,132.32l.05-.36-34-4.93,0,.35.35.05a10.92,10.92,0,0,1,10.79-9.34,12.11,12.11,0,0,1,1.58.11l11.64,1.7a10.87,10.87,0,0,1,9.23,12.37l.36,0,.05-.36-.05.36.35.05a12.11,12.11,0,0,0,.12-1.69,11.63,11.63,0,0,0-10-11.49L946,117.5a10.65,10.65,0,0,0-1.68-.13,11.64,11.64,0,0,0-11.5,10l-.05.35,34.66,5,0-.35Z"/><path class="cls-19" d="M964.47,122.53a3,3,0,1,1-2.56-3.43A3,3,0,0,1,964.47,122.53Z"/><path class="cls-17" d="M964.52,131.93l-28.65-4.16.07-.51a8.28,8.28,0,0,1,9.39-7L957.59,122a8.28,8.28,0,0,1,7,9.38Z"/><path class="cls-18" d="M964.52,131.93l.05-.35-28.3-4.12,0-.15a7.92,7.92,0,0,1,7.82-6.78,7.41,7.41,0,0,1,1.15.08l12.27,1.78a7.92,7.92,0,0,1,6.78,7.83,9,9,0,0,1-.08,1.15l-.08.51.36.05.05-.35-.05.35.35,0,.07-.51a8.86,8.86,0,0,0,.09-1.25,8.64,8.64,0,0,0-7.39-8.54l-12.26-1.78a8.9,8.9,0,0,0-1.26-.09,8.63,8.63,0,0,0-8.53,7.4l-.08.51,0,.35,29.36,4.27,0-.36Z"/><path class="cls-18" d="M960.76,131.39l0-.36L940,128l.1-.74a4.81,4.81,0,0,1,4.75-4.12,5.62,5.62,0,0,1,.7,0l10.93,1.59a4.8,4.8,0,0,1,4.11,4.75,5.62,5.62,0,0,1,0,.7l-.16,1.09.35.06,0-.36,0,.36.36.05.16-1.1a7.31,7.31,0,0,0,.05-.8,5.52,5.52,0,0,0-4.72-5.46l-10.93-1.58a5.39,5.39,0,0,0-.8-.06,5.51,5.51,0,0,0-5.45,4.72l-.21,1.46,21.84,3.17.06-.35Z"/><path class="cls-19" d="M954.49,118a3,3,0,1,1-2.56-3.43A3,3,0,0,1,954.49,118Z"/><path class="cls-39" d="M978.36,136.74l-74.78-10.87a6.44,6.44,0,0,1-5.45-7.3l87.53,12.72A6.44,6.44,0,0,1,978.36,136.74Z"/><path class="cls-42" d="M1005.48,143.26l-121.81-17.7a4.57,4.57,0,0,1-3.86-5.18l130.85,19A4.57,4.57,0,0,1,1005.48,143.26Z"/><path class="cls-15" d="M843.27,459.11h-6.92V472h19a1.61,1.61,0,0,0,1.73-1.44C857.08,464.23,850.9,459.11,843.27,459.11Z"/><path class="cls-15" d="M836.35,459.11l-9.22-6.48-6.44,9.83a1.9,1.9,0,0,0,.54,2.62l9.42,6.28a3.71,3.71,0,0,0,2,.62h4.78S841.72,462.88,836.35,459.11Z"/><rect class="cls-15" x="803.92" y="195.83" width="7.75" height="11.03" rx="3.11" transform="matrix(0.99, 0.14, -0.14, 0.99, 36.76, -112.62)"/><path class="cls-15" d="M805.87,199l-9.45-7.44a2.93,2.93,0,0,0-4.7,1.89L790,205.37a2.92,2.92,0,0,0,4,3.13L805.16,204A2.91,2.91,0,0,0,805.87,199Z"/><path class="cls-15" d="M809.81,199.58,821,195.11a2.92,2.92,0,0,1,4,3.12l-1.71,11.91a2.91,2.91,0,0,1-4.69,1.88l-9.46-7.43A2.92,2.92,0,0,1,809.81,199.58Z"/></g><path class="cls-43" d="M1085.58,456.43a16.25,16.25,0,0,0-3.84.32,16.23,16.23,0,0,0-23.87-4.66,16.39,16.39,0,0,0-15.54-11.34h0A16.38,16.38,0,0,0,1026,457.08v2.53a16.22,16.22,0,0,0-19.9,12.85h95.11A16.38,16.38,0,0,0,1085.58,456.43Z"/><path class="cls-43" d="M194.9,469.69a18,18,0,0,0-6.59-24.61h0A18,18,0,0,0,168,446.69a18,18,0,0,0-28-18.46L138,421.87a18,18,0,0,0-22.39-12.16h0a18,18,0,0,0-12.17,22.39l4,13.49-9.15-5.29a18,18,0,1,0-18,31.21l1.65.95H193.3Z"/><line class="cls-44" x1="507.33" y1="227.24" x2="503.8" y2="227.24"/><path class="cls-4" d="M285.06,272a3.49,3.49,0,0,1-3.37,3.52H278.2v-.09a.92.92,0,0,1-.86-.91v-9.7a.91.91,0,0,1,.91-.91v-.06h2.46a3.28,3.28,0,0,1,3.37,3.28,3.39,3.39,0,0,1-.7,2A3.36,3.36,0,0,1,285.06,272Zm-4.35-6.34h-1.56v3h1.76a1.56,1.56,0,0,0,1.35-1.53A1.48,1.48,0,0,0,280.71,265.69Zm2.53,6.34a1.64,1.64,0,0,0-1.67-1.52h-2.42v3.23h2.54A1.7,1.7,0,0,0,283.24,272Z"/><path class="cls-4" d="M292.54,272.18H287.8a2,2,0,0,0,1.95,1.56,2.57,2.57,0,0,0,1.62-.59.93.93,0,1,1,1.29,1.33,4.31,4.31,0,0,1-2.91,1.09,3.86,3.86,0,0,1,0-7.72,3.13,3.13,0,0,1,.68.06,3.71,3.71,0,0,1,2.49,1.77,2.94,2.94,0,0,1,.49,1.51,1.32,1.32,0,0,1-.12.44A.83.83,0,0,1,292.54,272.18Zm-4.48-1.55h3.26a1.72,1.72,0,0,0-1.57-.92A2,2,0,0,0,288.06,270.63Z"/><path class="cls-4" d="M297,275.55a3.9,3.9,0,0,1-2.47-.87.92.92,0,0,1,1.24-1.36,1.9,1.9,0,0,0,1.9.23.51.51,0,0,0,.24-.43.5.5,0,0,0-.34-.43,1.72,1.72,0,0,0-.66-.07,3.57,3.57,0,0,1-1.21-.17,2.33,2.33,0,0,1-1.51-1.89,2.28,2.28,0,0,1,.69-1.91,3.26,3.26,0,0,1,2.71-.68,2.73,2.73,0,0,1,1.46.68.92.92,0,0,1,.06,1.29,1,1,0,0,1-.78.29.84.84,0,0,1-.4-.14,1.39,1.39,0,0,0-.65-.3c-.46-.08-1.32-.05-1.26.61a.57.57,0,0,0,.28.32,2.29,2.29,0,0,0,.63,0,3.63,3.63,0,0,1,1.41.25,2.33,2.33,0,0,1,1.4,2.1,2.37,2.37,0,0,1-1.06,2A3,3,0,0,1,297,275.55Z"/><path class="cls-4" d="M304.94,274.55a.92.92,0,0,1-.93.93,2.75,2.75,0,0,1-.4,0,2.07,2.07,0,0,1-1.87-2.07v-3.88h-.66a.93.93,0,1,1,0-1.85h.66v-2.93a.92.92,0,1,1,1.84,0v2.93h.51a.93.93,0,0,1,0,1.85h-.51v3.66c0,.12,0,.31.11.4s.22.06.32.06A.93.93,0,0,1,304.94,274.55Z"/><path class="cls-4" d="M280.25,282.37a3.48,3.48,0,0,1-3.5,3.36h-2.44v3.87a.91.91,0,0,1-1.81,0v-9.77a.92.92,0,0,1,.86-.91v-.09h3.51A3.5,3.5,0,0,1,280.25,282.37Zm-1.83,0a1.7,1.7,0,0,0-1.55-1.71h-2.56v3.24h2.44A1.65,1.65,0,0,0,278.42,282.37Z"/><path class="cls-4" d="M288.73,283.72v5.89a.88.88,0,0,1-.89.88.82.82,0,0,1-.82-.88v-.18a3.49,3.49,0,0,1-2.35.9,3.72,3.72,0,1,1,0-7.43,3.65,3.65,0,0,1,2.35.9v-.08a.82.82,0,0,1,.82-.88A.88.88,0,0,1,288.73,283.72Zm-2.14,2.91a1.93,1.93,0,1,0-3.86,0,1.93,1.93,0,0,0,3.86,0Z"/><path class="cls-4" d="M292.93,290.56a3.91,3.91,0,0,1-2.48-.87.9.9,0,0,1,0-1.29.91.91,0,0,1,1.29-.07,1.87,1.87,0,0,0,1.89.23.52.52,0,0,0,.25-.43.53.53,0,0,0-.34-.43,1.75,1.75,0,0,0-.66-.07,3.62,3.62,0,0,1-1.22-.17,2.32,2.32,0,0,1-1.51-1.89,2.29,2.29,0,0,1,.7-1.91,3.25,3.25,0,0,1,2.7-.68,2.76,2.76,0,0,1,1.47.68A.92.92,0,0,1,295,285a.94.94,0,0,1-.79.29.88.88,0,0,1-.4-.14,1.35,1.35,0,0,0-.64-.3c-.47-.08-1.33-.05-1.27.61a.61.61,0,0,0,.28.32,2.36,2.36,0,0,0,.63,0,3.71,3.71,0,0,1,1.42.25,2.35,2.35,0,0,1,1.4,2.1,2.37,2.37,0,0,1-1.06,2A3,3,0,0,1,292.93,290.56Z"/><path class="cls-4" d="M300.85,289.56a.91.91,0,0,1-.92.93,2.68,2.68,0,0,1-.4,0,2.21,2.21,0,0,1-1.35-.69,2.25,2.25,0,0,1-.53-1.38v-3.88H297a.93.93,0,0,1,0-1.85h.66v-2.93a.93.93,0,1,1,1.85,0v2.93H300a.93.93,0,0,1,0,1.85h-.51v3.66c0,.12,0,.31.11.4s.21.06.32.06A.92.92,0,0,1,300.85,289.56Z"/><path class="cls-4" d="M309.4,283.72v5.89a.88.88,0,0,1-.89.88.82.82,0,0,1-.81-.88v-.18a3.5,3.5,0,0,1-2.36.9,3.72,3.72,0,1,1,0-7.43,3.65,3.65,0,0,1,2.36.9v-.08a.82.82,0,0,1,.81-.88A.88.88,0,0,1,309.4,283.72Zm-2.13,2.91a1.93,1.93,0,0,0-3.86,0,1.93,1.93,0,0,0,3.86,0Z"/><path class="cls-4" d="M265.93,296.52a1,1,0,0,1-1-.94v-.08a1,1,0,0,1,1.91,0v.08A1,1,0,0,1,265.93,296.52Zm0,9a1,1,0,0,1-1-1v-5.94a1,1,0,0,1,1.91,0v5.94A1,1,0,0,1,265.93,305.54Z"/><path class="cls-4" d="M275.51,301.68v2.91a.92.92,0,1,1-1.83,0v-2.91a1.88,1.88,0,0,0-1.76-2A2.05,2.05,0,0,0,270.1,302v2.62a.93.93,0,0,1-1.85,0v-5.88a.93.93,0,0,1,.93-.92.9.9,0,0,1,.86.63,3.45,3.45,0,0,1,1.88-.55A3.71,3.71,0,0,1,275.51,301.68Z"/><path class="cls-4" d="M285,304.57a.92.92,0,0,1-.93.93,2.75,2.75,0,0,1-.4,0,2.07,2.07,0,0,1-1.87-2.07v-3.88h-.66a.93.93,0,1,1,0-1.85h.66v-2.93a.92.92,0,1,1,1.84,0v2.93h.51a.93.93,0,0,1,0,1.85h-.51v3.66c0,.12,0,.31.11.4s.22.06.32.06A.93.93,0,0,1,285,304.57Z"/><path class="cls-4" d="M289.79,305.51a3.86,3.86,0,0,1,0-7.72,3.86,3.86,0,1,1,0,7.72Zm0-5.83a2,2,0,1,0,2,2A2,2,0,0,0,289.79,299.68Z"/><path class="cls-4" d="M305.08,302.71v.1a3,3,0,0,1-3,2.81,3.16,3.16,0,0,1-2.13-.83,3.1,3.1,0,0,1-2.12.83,3,3,0,0,1-3-2.91v-3.86a.92.92,0,0,1,1.84,0v3.86a1.21,1.21,0,0,0,2.4,0v-3.86a.93.93,0,0,1,1.85,0v3.86a1.21,1.21,0,0,0,2.4,0v-3.89a.92.92,0,0,1,1.84,0Z"/><path class="cls-4" d="M313.65,301.68v2.91a.92.92,0,1,1-1.83,0v-2.91a1.88,1.88,0,0,0-1.77-2c-1.2,0-1.81,1.2-1.81,2.26v2.62a.93.93,0,0,1-1.85,0v-5.88a.92.92,0,0,1,1.79-.29,3.44,3.44,0,0,1,1.87-.55A3.71,3.71,0,0,1,313.65,301.68Z"/><path class="cls-4" d="M316,302.56a.92.92,0,0,1-.92-.92v-6.83a.92.92,0,0,1,.92-.94.93.93,0,0,1,.94.94v6.83A.93.93,0,0,1,316,302.56Zm.11,3H316a.93.93,0,0,1,0-1.86h.11a.93.93,0,1,1,0,1.86Z"/><rect class="cls-41" x="599.24" y="282" width="26.36" height="1.76"/><circle class="cls-15" cx="603.21" cy="279.59" r="1.51"/></svg>