<svg id="a46f6a77-f296-4836-8f7d-9cd9c35b0aea" data-name="Layer 1" xmlns="http://www.w3.org/2000/svg"
    xmlns:xlink="http://www.w3.org/1999/xlink" viewBox="0 0 1531.02 540.86">
    <defs>
        <linearGradient id="b7515da6-13d0-4d31-9006-aa75f4fdd5ab" x1="225.92" y1="302.52" x2="225.92" y2="-11.84"
            gradientTransform="matrix(1, 0, 0, -1, 0, 377.96)" gradientUnits="userSpaceOnUse">
            <stop offset="0" stop-color="#fff2dc" stop-opacity="0" />
            <stop offset="0.59" stop-color="#fff2dc" stop-opacity="0.7" />
            <stop offset="0.97" stop-color="#fff2dc" stop-opacity="0" />
        </linearGradient>
    </defs>
    <path
        d="M542.81,354.8a232.61,232.61,0,0,1,2,28.89,143.85,143.85,0,0,1-1.89,24.17,83.42,83.42,0,0,1-4.14,15.54,52.35,52.35,0,0,1-4.59,9.28,35.37,35.37,0,0,1-9.11,9.89,37,37,0,0,1-13.75,6,79.75,79.75,0,0,1-18,2.22,54.91,54.91,0,0,1-13.92-1.68,48.11,48.11,0,0,1-17.87-8.75,58.49,58.49,0,0,1-9.65-9.61A73.15,73.15,0,0,1,443,416.52c-.91-1.92-1.54-3.48-1.91-4.46-.18-.49-.31-.84-.36-1l0-.13-5.13,1.66,5.14-1.62h0l-5.13,1.66,5.14-1.62-12.56,4,12.58-3.9v-.05l-12.56,4,12.58-3.9-15.8,4.89,15.8-4.88h0l-15.8,4.89,15.8-4.88-17,5.27,17-5.42h0l-17,5.27,17-5.27h0l-20.1,6.21L440.74,411h0l-20.1,6.21,20.1-6.21-40.93,12.53a89,89,0,0,0,4.68,11.56A116.32,116.32,0,0,0,414.31,452,105.74,105.74,0,0,0,426.4,466.4a93.78,93.78,0,0,0,27.54,19.1,94.77,94.77,0,0,0,39.29,8.19A122.2,122.2,0,0,0,521,490.36a83,83,0,0,0,18.29-6.49A75.82,75.82,0,0,0,564,464.33a86.25,86.25,0,0,0,11.88-18.86,119.67,119.67,0,0,0,9.28-30.74,186,186,0,0,0,2.44-31,276.63,276.63,0,0,0-2.29-34.27l-42.47,5.38h0"
        style="fill:#ff9100" />
    <path d="M590.08,400.69H542.25V351.46a46.56,46.56,0,0,1,46.54-46.55h1.29v95.78" style="fill:#ffd505" />
    <path
        d="M253.88,476.41c0,20.15-13.8,29.16-30.83,29.16s-30.82-9-30.82-29.16,30.82-43.82,30.82-43.82,30.83,23.67,30.83,43.82"
        style="fill:#ff9100" />
    <path d="M223,505.57h0m.15,0h0" style="fill:#ffe566" />
    <path
        d="M242.59,473.59h-39.1a22.71,22.71,0,0,0-3.13,10.54c0,14.79,10.11,21.41,22.59,21.44h.15c12.48,0,22.59-6.65,22.59-21.44a22.71,22.71,0,0,0-3.13-10.54"
        style="fill:#ffbb03" />
    <path
        d="M160.6,515.16,170,501.44a8.22,8.22,0,0,1,6.79-3.58H329a8.23,8.23,0,0,1,6.87,3.71l8.89,13.5L354,509l-8.89-13.51a19.31,19.31,0,0,0-16.1-8.68H176.77a19.28,19.28,0,0,0-15.91,8.39l-9.37,13.72,9.12,6.24Z"
        style="fill:#1f3440" />
    <path
        d="M108.11,515.16l9.38-13.72a8.22,8.22,0,0,1,6.79-3.58H276.54a8.23,8.23,0,0,1,6.87,3.71L292.29,515l9.2-6-8.88-13.51a19.33,19.33,0,0,0-16.1-8.68H124.28a19.29,19.29,0,0,0-15.91,8.39L99,509l9.12,6.24Z"
        style="fill:#1f3440" />
    <path
        d="M577.78,15.69V30.83a9.84,9.84,0,0,0,8.55,9.93,9.55,9.55,0,0,0,10.46-8.56c0-.3.05-.61.05-.92V5.9a4.17,4.17,0,0,1,3.25-4.09Q605.33.7,610.72,0a4.22,4.22,0,0,1,4.7,3.66,4.36,4.36,0,0,1,0,.51V30.83A9.84,9.84,0,0,0,624,40.76a9.56,9.56,0,0,0,10.44-8.59c0-.3,0-.59,0-.89V4.2A4.22,4.22,0,0,1,639.21,0q5.4.66,10.63,1.78a4.17,4.17,0,0,1,3.25,4.09V30.83a9.84,9.84,0,0,0,8.56,9.93,9.55,9.55,0,0,0,10.46-8.56c0-.3,0-.61,0-.92V15.69a4.19,4.19,0,0,1,6.06-3.76,117.29,117.29,0,0,1,64.06,104.54V202a89.14,89.14,0,0,1-89.14,89.14H596.79A89.12,89.12,0,0,1,507.66,202h0V116.47A117.3,117.3,0,0,1,571.71,11.93a4.2,4.2,0,0,1,6.07,3.76Z"
        style="fill:#ff9100" />
    <path
        d="M621.18,229.35a9.5,9.5,0,0,1,0-17.53,4.84,4.84,0,0,0-3.76-8.91,19.18,19.18,0,0,0,.09,35.36,4.83,4.83,0,1,0,3.72-8.92Z"
        style="fill:#fcaa47" />
    <path d="M582.81,532.75H689.49a24.88,24.88,0,0,0,24.88-24.88h0V457.65H557.93v50.22a24.88,24.88,0,0,0,24.88,24.88Z"
        style="fill:#1f3440" />
    <path d="M389,428.34h53V398a20,20,0,0,0-20-20H389a20,20,0,0,0-20,20v10.36a20,20,0,0,0,20,20Z"
        style="fill:#ff9100" />
    <path
        d="M674.49,365l1.34-10.79L674.24,365h.21l1.34-10.79L674.24,365h.15a56.06,56.06,0,0,1,9.84,2.8,65.31,65.31,0,0,1,12.94,6.63,58.84,58.84,0,0,1,10,8.36,59.83,59.83,0,0,1,12.54,20c3.33,8.61,5.65,19.57,5.66,33.92a177.94,177.94,0,0,1-4.46,37.64,326.2,326.2,0,0,1-15.58,49.92L745.16,540a368.26,368.26,0,0,0,17.58-56.51,220.66,220.66,0,0,0,5.43-46.73,147.07,147.07,0,0,0-3.54-33,115.5,115.5,0,0,0-8.23-23.88,101.29,101.29,0,0,0-22.12-30.42,103.62,103.62,0,0,0-18.79-14,108.67,108.67,0,0,0-24.14-10.34,79.51,79.51,0,0,0-11.62-2.56Z"
        style="fill:#ff9100" />
    <path
        d="M687.68,364.11l-1.19-21.55v21.58h1.21l-1.21-21.58v12.69l-.49,8.88h.49v-8.89l-.49,8.88.13-2.23-.19,2.23H686l.13-2.23-.19,2.23h.15a13.88,13.88,0,0,1,3.09.91,22,22,0,0,1,4.31,2.44,38.22,38.22,0,0,1,9.18,9.88c3.49,5.17,7.32,12.72,10.64,23.73L770.15,384c-5-16.64-11.6-30.26-19.25-41.24a98.77,98.77,0,0,0-18.53-20.2A84.83,84.83,0,0,0,717.93,313a75.73,75.73,0,0,0-19.08-6.88,61.11,61.11,0,0,0-12.36-1.38h-2.11l3.32,59.29Z"
        style="fill:#ffd505" />
    <path d="M557.93,461.32H714.37V330.39a25.5,25.5,0,0,0-25.5-25.5H591.25a33.32,33.32,0,0,0-33.32,33.32h0V461.32"
        style="fill:#ffd505" />
    <rect x="589.83" y="284.75" width="71.27" height="20.17" style="fill:#ff9100" />
    <path
        d="M580,216.2a6.21,6.21,0,0,1-3.6-5.64v-.25h0a6.16,6.16,0,0,1,1.2-3.43,6.34,6.34,0,0,1,2.83-2.15,4.83,4.83,0,1,0-2.59-9.3,4.63,4.63,0,0,0-.81.3A15.89,15.89,0,0,0,566.69,210h0v.66A15.87,15.87,0,0,0,575.88,225a4.83,4.83,0,1,0,4.07-8.77Z"
        style="fill:#3d2407" />
    <path
        d="M580,237a6.15,6.15,0,0,1-2.6-2.27,6,6,0,0,1-1-3.37v-.25h0a6.16,6.16,0,0,1,1.2-3.43,6.28,6.28,0,0,1,2.83-2.15,4.83,4.83,0,1,0-3.4-9.05,16,16,0,0,0-7.21,5.47,15.73,15.73,0,0,0-3.08,8.77h0v.66a15.7,15.7,0,0,0,2.55,8.63,15.88,15.88,0,0,0,6.64,5.78,4.83,4.83,0,1,0,4.07-8.77Z"
        style="fill:#3d2407" />
    <path d="M649.05,150v10.43a4.84,4.84,0,0,0,9.67,0V150a4.84,4.84,0,0,0-9.67-.44,3.23,3.23,0,0,0,0,.44"
        style="fill:#3d2407" />
    <path d="M574.27,150v10.43a4.83,4.83,0,0,0,9.66,0V150a4.83,4.83,0,1,0-9.66,0v0" style="fill:#3d2407" />
    <path d="M589.61,386.38H570.28V308.74c5.58-3.83,19.33-3.83,19.33-3.83Z" style="fill:#fe4c00" />
    <rect x="661.41" y="304.91" width="19.33" height="81.47" style="fill:#fe4c00" />
    <polyline points="692.5 507.9 560.7 507.9 570.28 386.38 680.75 386.38 692.5 507.9" style="fill:#fe4c00" />
    <rect x="63.8" y="507.9" width="778.56" height="29.51" style="fill:#ffb255" />
    <rect x="63.8" y="526.87" width="778.56" height="10.54" style="fill:#f99b35" />
    <rect x="506.81" y="92.4" width="238.91" height="38.1" rx="2.51" style="fill:#fe4c00" />
    <polyline points="558.62 400.69 558.62 368.01 557.24 368.01 557.24 400.69" style="fill:#fe4c00" />
    <path d="M481.82,415.34H317.71V392.55H481.82a11.4,11.4,0,0,1,.68,22.79C482.27,415.35,482.05,415.35,481.82,415.34Z"
        style="fill:#0e2328" />
    <path
        d="M297,473.59H159.13a52.54,52.54,0,0,1-52.39-52.39v-17a35.51,35.51,0,0,1,35.41-35.41H314a35.51,35.51,0,0,1,35.4,35.41v17A52.53,52.53,0,0,1,297,473.59"
        style="fill:#112128" />
    <path d="M301.25,442.58H154.89a48.15,48.15,0,1,1-1.39-96.29H301.25a48.15,48.15,0,0,1,0,96.29"
        style="fill:#1f3440" />
    <path d="M319.41,427.54H239a13,13,0,0,1,0-26.08h80.45a13,13,0,0,1,0,26.08Z" style="fill:#112a35" />
    <path d="M293.37,427.54h-148a21.2,21.2,0,1,1,0-42.4h148a21.2,21.2,0,0,1,0,42.4" style="fill:#112a35" />
    <path
        d="M230.57,389.56v-3.81a7.21,7.21,0,0,0-7.31-7.08h-5a3.37,3.37,0,0,1-3.42-3.32h0a7.36,7.36,0,0,0-7.47-7.23H143.56A7,7,0,0,0,136.4,375v.39a3.37,3.37,0,0,1-3.42,3.32h0a7.2,7.2,0,0,0-7.32,7.08h0V393c0,11.37,9.53,20.59,21.27,20.59h83.64A11.27,11.27,0,0,0,242,402.53v-1.85a7.91,7.91,0,0,0-8-7.78,3.37,3.37,0,0,1-3.43-3.31h0"
        style="fill:#fff" />
    <path
        d="M186.94,396.48H161.55a7,7,0,0,1-6.94-6.93,18.13,18.13,0,0,1,18.07-18.07h3.13a18.12,18.12,0,0,1,18.07,18.07,7,7,0,0,1-6.94,6.93"
        style="fill:#ffd505" />
    <path
        d="M170.49,373.48a12.42,12.42,0,0,0-9.13,4.08,14.29,14.29,0,0,0-3.72,9.71h2.76a11.56,11.56,0,0,1,3-7.84,9.66,9.66,0,0,1,7.1-3.19v-2.76"
        style="fill:#fff4be" />
    <polyline points="173.62 373.48 171.58 373.48 171.58 376.24 173.62 376.24 173.62 373.48" style="fill:#fff4be" />
    <path
        d="M287.68,408.71V404.9a7.21,7.21,0,0,0-7.32-7.08h-5a3.37,3.37,0,0,1-3.43-3.31h0a7.35,7.35,0,0,0-7.46-7.24H200.66a7,7,0,0,0-7.15,6.85v.39a3.37,3.37,0,0,1-3.43,3.31h0a7.21,7.21,0,0,0-7.31,7.08v7.26c0,11.36,9.52,20.58,21.27,20.58h83.64a11.28,11.28,0,0,0,11.45-11.09V419.8a7.9,7.9,0,0,0-8-7.77,3.37,3.37,0,0,1-3.42-3.32h0"
        style="fill:#fff" />
    <path
        d="M244,415.64H218.66a7,7,0,0,1-6.94-6.94,18.12,18.12,0,0,1,18.07-18.07h3.12A18.12,18.12,0,0,1,251,408.7a7,7,0,0,1-6.94,6.94"
        style="fill:#ffd505" />
    <path
        d="M227.59,392.63a12.38,12.38,0,0,0-9.12,4.08,14.28,14.28,0,0,0-3.73,9.72h2.75a11.56,11.56,0,0,1,3-7.84,9.72,9.72,0,0,1,7.1-3.2v-2.76"
        style="fill:#fff4be" />
    <polyline points="230.72 392.63 228.69 392.63 228.69 395.4 230.72 395.4 230.72 392.63" style="fill:#fff4be" />
    <path
        d="M421.49,428.34H389.7a21.45,21.45,0,0,1-21.45-21.45h0a6.4,6.4,0,0,1,6.39-6.4H401.8a19.71,19.71,0,0,1,19.69,19.72Z"
        style="fill:#ff9100" />
    <path
        d="M428.84,379.4a34.43,34.43,0,0,0-5.6-2.88A35.46,35.46,0,0,0,410,373.77a28.33,28.33,0,0,0-12.28,2.76A32.39,32.39,0,0,0,386,386.4a6.91,6.91,0,0,0,10.69,8.77l.31-.42a18.62,18.62,0,0,1,6.69-5.77,14.31,14.31,0,0,1,6.3-1.4A21.84,21.84,0,0,1,418,389.3a26,26,0,0,1,2.5,1.19c.28.15.49.28.61.35l.11.07h0l1.71-2.64-1.75,2.62h0l1.71-2.64-1.75,2.62a6.9,6.9,0,0,0,7.66-11.49Z"
        style="fill:#ff9100" />
    <path
        d="M616,423.72a11.55,11.55,0,0,0-22.27,0,2.51,2.51,0,0,0,4.85,1.33,6.54,6.54,0,0,1,12.6,0,2.51,2.51,0,1,0,4.85-1.33Z"
        style="fill:#fff" />
    <path
        d="M647.87,423.72a11.55,11.55,0,0,0-22.28,0,2.54,2.54,0,1,0,4.9,1.31,6.54,6.54,0,0,1,12.61,0A2.52,2.52,0,0,0,648,423.7Z"
        style="fill:#fff" />
    <path
        d="M646.34,436.89a2.51,2.51,0,0,0-3.09,1.75h0a22.87,22.87,0,0,1-2.58,5.91.71.71,0,0,1-.65-.63c-1.18-10.7-12.15-8.59-14.35,1.2v.09c-1.5,4.1-2.59,9.53-6.89,10.35a23.18,23.18,0,0,1-20.21-16.92,2.51,2.51,0,0,0-4.85,1.33,28.21,28.21,0,0,0,54.4,0,2.52,2.52,0,0,0-1.78-3.09Z"
        style="fill:#fff" />
    <polyline points="708.51 402.02 700.15 377.65 698.85 378.1 707.2 402.47" style="fill:#fe4c00" />
    <path
        d="M490.79,221l-2.53,1.11a.69.69,0,0,1,.06.31,2,2,0,0,1-.17.72,4.86,4.86,0,0,1-1.21,1.63,8.69,8.69,0,0,1-5.58,2.26,3.91,3.91,0,0,1-1.81-.36c-.38-.2-.49-.35-.55-.49a.78.78,0,0,1-.06-.31,1.65,1.65,0,0,1,.17-.72,5,5,0,0,1,1.2-1.64,8.83,8.83,0,0,1,2.37-1.53,8.13,8.13,0,0,1,3.22-.72,4.11,4.11,0,0,1,1.8.35c.39.2.5.35.56.5l2.53-1.11,2.53-1.11a6.64,6.64,0,0,0-3.15-3.23,9.67,9.67,0,0,0-4.27-.93,14,14,0,0,0-10.41,4.86,10,10,0,0,0-1.51,2.45,7.44,7.44,0,0,0-.6,2.86,6.31,6.31,0,0,0,.53,2.53,6.58,6.58,0,0,0,3.15,3.22,9.4,9.4,0,0,0,4.27.93,13.59,13.59,0,0,0,5.44-1.19,13.42,13.42,0,0,0,4.94-3.63,9.87,9.87,0,0,0,1.51-2.46,7.54,7.54,0,0,0,.6-2.85,6.31,6.31,0,0,0-.53-2.53Z"
        style="fill:#fc6" />
    <path
        d="M493.32,220l-9.83-22.32,7.81-.47a2.76,2.76,0,1,0-.29-5.51h0l-11.76.7a2.76,2.76,0,0,0-2.6,2.91,2.87,2.87,0,0,0,.23,1l11.39,25.95a2.76,2.76,0,0,0,5.06-2.22Z"
        style="fill:#fc6" />
    <path
        d="M441.11,178l-2.71-.55a.88.88,0,0,1-.17.35,2.87,2.87,0,0,1-1.16.75,6.63,6.63,0,0,1-2.33.39,8.79,8.79,0,0,1-1.77-.18,7.64,7.64,0,0,1-3.48-1.68,3.64,3.64,0,0,1-.8-.95,1.34,1.34,0,0,1-.17-.59v-.13a.78.78,0,0,1,.18-.35,2.77,2.77,0,0,1,1.15-.75,6.87,6.87,0,0,1,2.33-.39,10.52,10.52,0,0,1,1.77.18,7.85,7.85,0,0,1,3.54,1.68,4,4,0,0,1,.79,1,1.38,1.38,0,0,1,.17.59v.13l2.71.55,2.71.54a6.23,6.23,0,0,0,.12-1.22,6.74,6.74,0,0,0-.83-3.19,9.85,9.85,0,0,0-3.31-3.48,13.66,13.66,0,0,0-4.8-1.93,14.45,14.45,0,0,0-2.86-.29,11.41,11.41,0,0,0-5.6,1.37,7.72,7.72,0,0,0-2.19,1.83,6.32,6.32,0,0,0-1.28,2.72,5.56,5.56,0,0,0-.13,1.22,6.83,6.83,0,0,0,.83,3.19,9.69,9.69,0,0,0,3.31,3.48,13.47,13.47,0,0,0,4.8,1.93,13.74,13.74,0,0,0,2.86.29,11.3,11.3,0,0,0,5.6-1.37,7.56,7.56,0,0,0,2.19-1.83,6.27,6.27,0,0,0,1.28-2.72Z"
        style="fill:#ffe0b3" />
    <path
        d="M443.81,178.49l4.83-23.89,6.66,4.11a2.76,2.76,0,0,0,2.9-4.7h0l-10-6.19a2.77,2.77,0,0,0-2.55-.18,2.74,2.74,0,0,0-1.6,2l-5.62,27.78a2.76,2.76,0,0,0,5.39,1.21s0-.08,0-.12Z"
        style="fill:#ffe0b3" />
    <path
        d="M482,117.74l-2.5,1.17a.83.83,0,0,1,.07.34,3.09,3.09,0,0,1-.82,1.8,8,8,0,0,1-2.83,2.15,7.79,7.79,0,0,1-3.35.8,4,4,0,0,1-1.7-.32.94.94,0,0,1-.53-.47.77.77,0,0,1-.07-.34,3.15,3.15,0,0,1,.82-1.8,8.61,8.61,0,0,1,6.18-3,4.32,4.32,0,0,1,1.7.32,1,1,0,0,1,.53.47l2.5-1.17,2.5-1.17a6.59,6.59,0,0,0-3.1-3.09,9.62,9.62,0,0,0-4.13-.89,13.72,13.72,0,0,0-5.7,1.33,13.47,13.47,0,0,0-4.79,3.7,8.51,8.51,0,0,0-2,5.25,6.39,6.39,0,0,0,.59,2.69,6.57,6.57,0,0,0,3.1,3.08,9.48,9.48,0,0,0,4.13.89,13.57,13.57,0,0,0,5.7-1.33,13.42,13.42,0,0,0,4.79-3.69,8.51,8.51,0,0,0,2-5.26,6.09,6.09,0,0,0-.59-2.68Z"
        style="fill:#ffe7c7" />
    <path
        d="M484.49,116.57,474.14,94.5l7.8-.66a2.77,2.77,0,0,0-.47-5.51l-11.75,1a2.79,2.79,0,0,0-2.16,1.37,2.76,2.76,0,0,0-.1,2.56l12,25.65a2.76,2.76,0,0,0,5-2.34Z"
        style="fill:#ffe7c7" />
    <path
        d="M676.79,403.67h0m-.69-14.8.42-.55.55.42-.62.82v13.08h0v.66H665.71v-.66h0V389.56l-.62-.82.55-.42.42.55h10m1-.69H665V404h12.12V388.18"
        style="fill:#d93d01" />
    <path
        d="M675.62,401.55l-.55.41.84,1.11.54-.41h0l-.83-1.09M674,399.36l-.55.42.83,1.1.55-.41-.83-1.11m-1.66-2.2-.55.42.83,1.1.55-.42-.83-1.1m-1.67-2.2-.55.41.83,1.1.17-.12-.39-.29.39-.51-.45-.59M669,392.75l-.55.42.83,1.1.55-.42-.83-1.1m-1.66-2.2-.55.41.83,1.1.55-.41-.83-1.1m-1.67-2.21-.55.42.62.82.21.28.56-.42-.42-.55-.42-.55"
        style="fill:#d93d01" />
    <path
        d="M666.54,401.55l-.83,1.09h0l.55.41.83-1.11-.55-.41m1.66-2.21-.83,1.11.55.41.83-1.1-.55-.42m1.66-2.2-.83,1.1.55.42.83-1.1-.55-.42m1.67-2.2-.45.59-.39.51.39.29.17.12.83-1.1-.55-.41m1.66-2.21-.83,1.1.55.42.83-1.1-.55-.42m1.66-2.2-.83,1.1.55.41.83-1.1-.55-.41m1.67-2.21-.42.55-.41.55.55.42.21-.28.62-.82-.55-.42"
        style="fill:#d93d01" />
    <path
        d="M585.66,403.67h0m-.7-14.8.42-.55.55.42-.62.82v13.08h0v.66H574.58v-.66h0V389.56l-.62-.82.55-.42.42.55h10m1-.69h-12V404H586V388.18"
        style="fill:#d93d01" />
    <path
        d="M584.49,401.55l-.55.41.83,1.11.54-.41h0l-.82-1.09m-1.66-2.21-.56.42.84,1.1.55-.41-.83-1.11m-1.67-2.2-.55.42.83,1.1.55-.42-.83-1.1M579.5,395l-.55.41.83,1.1.16-.12-.38-.29.38-.51-.44-.59m-1.66-2.21-.56.42.84,1.1.55-.42-.83-1.1m-1.67-2.2-.55.41.87,1.07.55-.41-.83-1.1m-1.72-2.2-.55.42.62.82.21.28.55-.42-.41-.55-.42-.55"
        style="fill:#d93d01" />
    <path
        d="M575.4,401.55l-.82,1.09h0l.54.41.83-1.11-.55-.41m1.66-2.21-.83,1.11.55.41.84-1.1-.56-.42m1.67-2.2-.83,1.1.55.42.83-1.1-.55-.42m1.66-2.2-.45.59-.38.51.38.29.17.12.83-1.1-.55-.41m1.66-2.21-.83,1.1.55.42.84-1.1-.56-.42m1.67-2.2-.83,1.1.55.41.83-1.1-.55-.41m1.66-2.21-.42.55-.41.55.55.42.21-.28.62-.82-.55-.42"
        style="fill:#d93d01" />
    <path
        d="M690.09,491.86c0,15.19-9.54,27.51-21.3,27.51s-21.3-12.34-21.3-27.51,9.53-27.51,21.3-27.51S690.09,476.66,690.09,491.86Z"
        style="fill:#f9b870" />
    <path d="M668.79,491.86h21.92c0,15.53-9.9,28.31-21.92,28.31s-21.92-12.77-21.92-28.3Z" style="fill:#e2841e" />
    <path
        d="M738.71,491.86c0,15.19-9.54,27.51-21.31,27.51s-21.3-12.32-21.3-27.51,9.54-27.51,21.3-27.51S738.71,476.66,738.71,491.86Z"
        style="fill:#f9b870" />
    <path
        d="M786.91,491.86c0,15.19-9.54,27.51-21.3,27.51S744.3,507,744.3,491.86s9.54-27.51,21.31-27.51S786.91,476.66,786.91,491.86Z"
        style="fill:#f9b870" />
    <rect x="642.82" y="486.03" width="147.8" height="11.65" style="fill:#e2841e" />
    <path d="M717.4,491.86h21.92c0,15.53-9.89,28.31-21.92,28.31s-21.91-12.77-21.91-28.3Z" style="fill:#e2841e" />
    <path d="M765.61,491.86h21.88c0,15.53-9.9,28.31-21.92,28.31s-21.92-12.77-21.92-28.3Z" style="fill:#e2841e" />
    <path d="M171.7,418.73h-.11a8.81,8.81,0,0,0-8.81,8.79v0h17.71a8.81,8.81,0,0,0-8.81-8.81" style="fill:#374c55" />
    <path d="M242,379.42a5.72,5.72,0,0,0-5.72,5.72h11.45a5.73,5.73,0,0,0-5.73-5.72" style="fill:#475962" />
    <path d="M255.49,381.23a3.91,3.91,0,0,0-3.91,3.91h7.82a3.91,3.91,0,0,0-3.91-3.91" style="fill:#475962" />
    <path
        d="M165.2,389.78s-41.85-62.72,25.48-108.25S267,93.06,165,75.43H278.81s-52.64,2-28.73,40.36,73.88,107.58,28.73,165,27.37,68.89,20.17,109Z"
        style="fill:url(#b7515da6-13d0-4d31-9006-aa75f4fdd5ab)" />
    <polyline points="0 540.86 1531.02 540.86 1531.02 533.95 0 533.95" style="fill:#ffd617" />
</svg>