<svg version="1.1" id="Capa_1" xmlns="http://www.w3.org/2000/svg" xmlns:xlink="http://www.w3.org/1999/xlink"
	viewBox="0 0 512 512" style="enable-background:new 0 0 512 512;" xml:space="preserve">
	<path d="M5.866,241.843c0.006-0.006,0.011-0.013,0.018-0.019l104.504-104
	c7.829-7.791,20.493-7.762,28.285,0.068c7.792,7.829,7.762,20.492-0.067,28.284L68.442,236H492c11.046,0,20,8.954,20,20
	c0,11.046-8.954,20-20,20H68.442l70.162,69.824c7.829,7.792,7.859,20.455,0.067,28.284c-7.793,7.831-20.457,7.858-28.285,0.068
	l-104.504-104c-0.006-0.006-0.011-0.013-0.018-0.019C-1.968,262.339-1.943,249.635,5.866,241.843z" />
</svg>