<svg viewBox="0 0 464 464" xmlns="http://www.w3.org/2000/svg"><path d="m123.710938 371.550781c-32.96875 8.238281-60.695313 30.460938-75.910157 60.847657l-15.800781 31.601562 88-56 32 56 48-32 32 32 32-32 48 32 32-56 88 56-15.800781-31.601562c-15.214844-30.386719-42.941407-52.609376-75.910157-60.847657zm0 0" fill="#ac3f27"/><path d="m397.664062 194.710938c-4.351562-12.660157-10.96875-24.421876-19.535156-34.710938h-292.257812c-8.566406 10.289062-15.183594 22.050781-19.535156 34.710938-17.238282-16.511719-40.574219-50.710938-66.335938-50.710938v80c0 26.507812 21.492188 48 48 48h8c0 79.527344 96.472656 128 176 128s176-48.472656 176-128h8c26.507812 0 48-21.492188 48-48v-80c-25.761719 0-49.097656 34.199219-66.335938 50.710938zm0 0" fill="#ffe4c8"/><path d="m80 104h304c4.417969 0 8 3.582031 8 8v40c0 4.417969-3.582031 8-8 8h-304c-4.417969 0-8-3.582031-8-8v-40c0-4.417969 3.582031-8 8-8zm0 0" fill="#ac3f27"/><path d="m354.191406 68.800781-58.191406-68.800781c-81.179688.00390625-158.242188 35.742188-210.679688 97.710938l-5.320312 6.289062h304zm0 0" fill="#4d5432"/><path d="m400 32c.03125-4.933594 1.210938-9.796875 3.457031-14.191406l-107.457031-17.808594 58.191406 68.800781 55.542969-13.847656c-6.226563-6.011719-9.738281-14.296875-9.734375-22.953125zm0 0" fill="#3f4529"/><path d="m256 304c0-13.253906-10.746094-24-24-24s-24 10.746094-24 24c0 13.257812 48 13.257812 48 0zm0 0" fill="#ac3f27"/><path d="m232 368c-23.148438.035156-45.570312-8.105469-63.304688-22.984375-1.695312-1.414063-2.722656-3.476563-2.832031-5.683594-.105469-2.207031.71875-4.359375 2.273438-5.933593 35.269531 35.277343 92.457031 35.277343 127.726562 0 1.554688 1.574218 2.378907 3.726562 2.273438 5.933593-.109375 2.207031-1.136719 4.269531-2.832031 5.683594-17.734376 14.878906-40.15625 23.019531-63.304688 22.984375zm0 0" fill="#ac3f27"/><g fill="#47290f"><path d="m104.367188 206.777344c-1.738282-.757813-2.945313-2.386719-3.15625-4.269532-.214844-1.886718.597656-3.742187 2.125-4.867187 18.464843-14.359375 41.277343-21.992187 64.664062-21.640625h8c3.875-.453125 7.414062 2.246094 8 6.105469-.585938 3.855469-4.125 6.554687-8 6.101562h-8c-19.214844-.289062-37.953125 6.011719-53.089844 17.855469-3.066406 2.292969-7.195312 2.574219-10.542968.714844zm0 0"/><path d="m359.632812 206.777344c-3.347656 1.863281-7.472656 1.589844-10.542968-.699219-15.136719-11.84375-33.875-18.144531-53.089844-17.855469h-8c-3.875.457032-7.414062-2.246094-8-6.101562.578125-3.867188 4.117188-6.574219 8-6.121094h8c23.382812-.359375 46.191406 7.257812 64.664062 21.601562 1.527344 1.125 2.339844 2.980469 2.125 4.863282-.210937 1.886718-1.417968 3.515625-3.15625 4.269531zm0 0"/><path d="m184 272c0 13.253906-10.746094 24-24 24s-24-10.746094-24-24 10.746094-24 24-24 24 10.746094 24 24zm0 0"/><path d="m328 272c0 13.253906-10.746094 24-24 24s-24-10.746094-24-24 10.746094-24 24-24 24 10.746094 24 24zm0 0"/></g><path d="m320 272c0 8.835938-7.164062 16-16 16s-16-7.164062-16-16 7.164062-16 16-16 16 7.164062 16 16zm0 0"/><path d="m320 264c0 4.417969-3.582031 8-8 8s-8-3.582031-8-8 3.582031-8 8-8 8 3.582031 8 8zm0 0" fill="#fff"/><path d="m176 272c0 8.835938-7.164062 16-16 16s-16-7.164062-16-16 7.164062-16 16-16 16 7.164062 16 16zm0 0"/><path d="m176 264c0 4.417969-3.582031 8-8 8s-8-3.582031-8-8 3.582031-8 8-8 8 3.582031 8 8zm0 0" fill="#fff"/><path d="m464 32c0 17.671875-14.328125 32-32 32s-32-14.328125-32-32 14.328125-32 32-32 32 14.328125 32 32zm0 0" fill="#ac3f27"/></svg>