<?xml version="1.0" encoding="UTF-8" standalone="no"?>
<svg
   xmlns:dc="http://purl.org/dc/elements/1.1/"
   xmlns:cc="http://creativecommons.org/ns#"
   xmlns:rdf="http://www.w3.org/1999/02/22-rdf-syntax-ns#"
   xmlns:svg="http://www.w3.org/2000/svg"
   xmlns="http://www.w3.org/2000/svg"
   xmlns:sodipodi="http://sodipodi.sourceforge.net/DTD/sodipodi-0.dtd"
   xmlns:inkscape="http://www.inkscape.org/namespaces/inkscape"
   id="Layer_1"
   data-name="Layer 1"
   viewBox="0 0 1246 416.00002"
   version="1.1"
   sodipodi:docname="home-hero.svg"
>
  <metadata
     id="metadata434">
    <rdf:RDF>
      <cc:Work
         rdf:about="">
        <dc:format>image/svg+xml</dc:format>
        <dc:type
           rdf:resource="http://purl.org/dc/dcmitype/StillImage" />
        <dc:title>home-hero</dc:title>
      </cc:Work>
    </rdf:RDF>
  </metadata>
  <sodipodi:namedview
     pagecolor="#ffffff"
     bordercolor="#666666"
     borderopacity="1"
     objecttolerance="10"
     gridtolerance="10"
     guidetolerance="10"
     inkscape:pageopacity="0"
     inkscape:pageshadow="2"
     inkscape:window-width="2560"
     inkscape:window-height="1406"
     id="namedview432"
     showgrid="false"
     fit-margin-top="0"
     fit-margin-left="0"
     fit-margin-right="0"
     fit-margin-bottom="0"
     inkscape:zoom="0.86228663"
     inkscape:cx="626.64002"
     inkscape:cy="203.22499"
     inkscape:window-x="0"
     inkscape:window-y="0"
     inkscape:window-maximized="1"
     inkscape:current-layer="Layer_1" />
  <defs
     id="defs7">
    <style
       id="style2">.cls-1{fill:#fff;}.cls-2,.cls-6{fill:#ffeec4;}.cls-3{fill:#ffdb94;}.cls-4{fill:#ffd57b;}.cls-5{fill:#ffc873;}.cls-6{stroke:#ffd400;stroke-width:3px;}.cls-45,.cls-6{stroke-miterlimit:10;}.cls-7{fill:#ffc990;}.cls-8{fill:#ff9300;}.cls-9{fill:#fff8dd;}.cls-10{fill:#fff6e3;}.cls-11{fill:#fffcf1;}.cls-12{font-size:14.59px;fill:#ffce7c;font-family:Somatic-Rounded, Somatic;}.cls-13{fill:#fc4c01;}.cls-14{fill:#ffd400;}.cls-15{fill:#ffd500;}.cls-16{mask:url(#mask);}.cls-17{fill:#ff7d37;}.cls-18{fill:#fff8da;}.cls-19{fill:#193441;}.cls-20{fill:#681800;}.cls-21{fill:#507591;}.cls-22{fill:#f7d999;}.cls-23{fill:#e8b75a;}.cls-24{fill:#8e1b00;}.cls-25{fill:#0a293c;}.cls-26{fill:#cacc53;}.cls-27{fill:#ffae3c;}.cls-28{fill:#ff8a00;}.cls-29{fill:#612f00;}.cls-30{fill:#ffa625;}.cls-31{fill:#ff8d00;}.cls-32{fill:#ffca4f;}.cls-33{fill:#543000;}.cls-34{fill:#33918e;}.cls-35{fill:#4c6169;}.cls-36{fill:#4eb0ac;}.cls-37{fill:#00b9e6;}.cls-38{fill:#ffe57f;}.cls-39{fill:#cab195;}.cls-40{fill:#ff6900;}.cls-41{fill:#fffae8;}.cls-42{fill:#f89e57;}.cls-43{fill:#eb5000;}.cls-44{fill:#ff8200;}.cls-45{fill:none;stroke:#eb5000;stroke-width:0.5px;}</style>
    <mask
       id="mask"
       x="799.72"
       y="74.82"
       width="255.15"
       height="394.66"
       maskUnits="userSpaceOnUse">
      <rect
         class="cls-1"
         x="818.09003"
         y="74.82"
         width="236.78"
         height="392.97"
         id="rect4" />
    </mask>
  </defs>
  <title
     id="title9">home-hero</title>
  <rect
     class="cls-2"
     x="76"
     y="276"
     width="1085"
     height="140"
     id="rect11" />
  <path
     class="cls-3"
     d="M 110.14,0 H 1126.85 A 34.15,34.15 0 0 1 1161,34.15 V 279 H 76 V 34.14 A 34.15,34.15 0 0 1 110.14,0 Z"
     id="path13" />
  <path
     class="cls-4"
     d="m 1045.51,299.88 h -30.35 a 4.75,4.75 0 0 0 0,9.49 h 30.35 a 4.75,4.75 0 0 0 0,-9.49"
     id="path15" />
  <path
     class="cls-4"
     d="m 987.43,337.98 h -30.35 a 4.75,4.75 0 0 0 0,9.49 h 30.35 a 4.75,4.75 0 0 0 0,-9.49"
     id="path17" />
  <path
     class="cls-4"
     d="m 401.72,367.3 h -30.29 a 4.75,4.75 0 0 0 0,9.49 h 30.34 a 4.75,4.75 0 1 0 0,-9.49"
     id="path19" />
  <path
     class="cls-4"
     d="m 418.68,347.47 h -30.35 a 4.75,4.75 0 0 0 0,9.49 h 30.35 a 4.75,4.75 0 0 0 0,-9.49"
     id="path21" />
  <path
     class="cls-4"
     d="m 321.3,386.3 h -30.35 a 4.75,4.75 0 0 0 0,9.49 h 30.35 a 4.75,4.75 0 0 0 0,-9.49"
     id="path23" />
  <path
     class="cls-4"
     d="m 257.05,320.37 h -30.34 a 4.75,4.75 0 1 0 0,9.49 h 30.34 a 4.75,4.75 0 1 0 0,-9.49"
     id="path25" />
  <path
     class="cls-4"
     d="m 278.43,340.6 h -30.35 a 4.75,4.75 0 0 0 0,9.49 h 30.35 a 4.75,4.75 0 0 0 0,-9.49"
     id="path27" />
  <path
     class="cls-4"
     d="m 348.9,367.3 h -30.35 a 4.75,4.75 0 0 0 0,9.49 h 30.35 a 4.75,4.75 0 0 0 0,-9.49"
     id="path29" />
  <path
     class="cls-4"
     d="m 307.69,320.37 h -30.35 a 4.75,4.75 0 0 0 0,9.49 h 30.35 a 4.75,4.75 0 0 0 0,-9.49"
     id="path31" />
  <path
     class="cls-4"
     d="m 712.98,307.63 h -30.35 a 4.75,4.75 0 0 0 0,9.49 h 30.35 a 4.75,4.75 0 0 0 0,-9.49"
     id="path33" />
  <path
     class="cls-4"
     d="m 734.35,327.86 h -30.34 a 4.75,4.75 0 1 0 0,9.49 h 30.34 a 4.75,4.75 0 1 0 0,-9.49"
     id="path35" />
  <path
     class="cls-4"
     d="m 720.31,346.3 h -30.34 a 4.75,4.75 0 1 0 0,9.49 h 30.34 a 4.75,4.75 0 1 0 0,-9.49"
     id="path37" />
  <path
     class="cls-5"
     d="m 987.43,237 h -30.35 a 4.75,4.75 0 0 0 0,9.49 h 30.35 a 4.75,4.75 0 0 0 0,-9.49"
     id="path39" />
  <path
     class="cls-5"
     d="m 1005.67,254.67 h -30.34 a 4.75,4.75 0 1 0 0,9.49 h 30.34 a 4.75,4.75 0 1 0 0,-9.49"
     id="path41" />
  <path
     class="cls-5"
     d="m 1037,237 h -30.34 a 4.75,4.75 0 1 0 0,9.49 H 1037 a 4.75,4.75 0 1 0 0,-9.49"
     id="path43" />
  <path
     class="cls-5"
     d="m 773.32,258.83 h -30.34 a 4.75,4.75 0 1 0 0,9.49 h 30.34 a 4.75,4.75 0 1 0 0,-9.49"
     id="path45" />
  <path
     class="cls-5"
     d="m 220.68,210.3 h -30.35 a 4.75,4.75 0 0 0 0,9.49 h 30.35 a 4.75,4.75 0 0 0 0,-9.49"
     id="path47" />
  <path
     class="cls-5"
     d="m 206.68,224.3 h -30.35 a 4.75,4.75 0 0 0 0,9.49 h 30.35 a 4.75,4.75 0 0 0 0,-9.49"
     id="path49" />
  <path
     class="cls-5"
     d="m 274.68,158.3 h -30.35 a 4.75,4.75 0 0 0 0,9.49 h 30.35 a 4.75,4.75 0 0 0 0,-9.49"
     id="path51" />
  <path
     class="cls-5"
     d="m 708.62,236.3 h -30.34 a 4.75,4.75 0 0 0 0,9.49 h 30.34 a 4.75,4.75 0 1 0 0,-9.49"
     id="path53" />
  <path
     class="cls-6"
     d="M 972.28,413.12 H 758.15 V 107.55 c 0,-58 43.65,-104.27 97.49,-104.27 h 19.15 c 53.84,0 97.49,48.06 97.49,104.27 z"
     id="path55" />
  <path
     class="cls-4"
     d="M 958.18,413.8 H 772.25 v -311 A 84.65,84.65 0 0 1 856.9,18.15 h 16.63 a 84.65,84.65 0 0 1 84.65,84.65 z"
     id="path57" />
  <path
     class="cls-2"
     d="M 637.51,264 H 285.85 c -14.4,0 -26.06,-10.45 -26.06,-23.34 V 21.98 h 403.78 v 218.68 c 0,12.89 -11.66,23.34 -26.06,23.34"
     id="path59" />
  <polygon
     class="cls-7"
     points="305.55,78.68 351.35,78.68 383.86,111.79 338.06,111.79 "
     id="polygon61"
     transform="translate(-46.57,-56.7)" />
  <polygon
     class="cls-8"
     points="351.35,78.68 397.16,78.68 429.67,111.79 383.86,111.79 "
     id="polygon63"
     transform="translate(-46.57,-56.7)" />
  <polygon
     class="cls-7"
     points="396.85,78.68 442.66,78.68 475.17,111.79 429.36,111.79 "
     id="polygon65"
     transform="translate(-46.57,-56.7)" />
  <polygon
     class="cls-8"
     points="442.66,78.68 488.46,78.68 520.97,111.79 475.17,111.79 "
     id="polygon67"
     transform="translate(-46.57,-56.7)" />
  <polygon
     class="cls-7"
     points="488.67,78.68 534.48,78.68 566.99,111.79 521.18,111.79 "
     id="polygon69"
     transform="translate(-46.57,-56.7)" />
  <polygon
     class="cls-8"
     points="534.48,78.68 580.28,78.68 612.79,111.79 566.99,111.79 "
     id="polygon71"
     transform="translate(-46.57,-56.7)" />
  <polygon
     class="cls-7"
     points="579.97,78.68 625.78,78.68 658.29,111.79 612.48,111.79 "
     id="polygon73"
     transform="translate(-46.57,-56.7)" />
  <polygon
     class="cls-8"
     points="625.78,78.68 671.59,78.68 704.1,111.79 658.29,111.79 "
     id="polygon75"
     transform="translate(-46.57,-56.7)" />
  <path
     class="cls-7"
     d="M 324.36,74.6 H 304.43 A 12.93,12.93 0 0 1 291.5,61.66 v -6.57 h 45.8 v 6.57 A 12.93,12.93 0 0 1 324.36,74.6 Z"
     id="path77" />
  <path
     class="cls-8"
     d="M 370.17,74.6 H 350.23 A 12.94,12.94 0 0 1 337.29,61.66 v -6.57 h 45.81 v 6.57 A 12.93,12.93 0 0 1 370.17,74.6 Z"
     id="path79" />
  <path
     class="cls-7"
     d="M 415.66,74.6 H 395.72 A 12.93,12.93 0 0 1 382.79,61.66 v -6.57 h 45.81 v 6.57 A 12.94,12.94 0 0 1 415.66,74.6 Z"
     id="path81" />
  <path
     class="cls-8"
     d="m 461.43,74.6 h -19.9 A 12.93,12.93 0 0 1 428.6,61.66 v -6.57 h 45.83 v 6.57 a 12.93,12.93 0 0 1 -13,12.94 z"
     id="path83" />
  <path
     class="cls-7"
     d="M 507.48,74.6 H 487.55 A 12.94,12.94 0 0 1 474.61,61.66 v -6.57 h 45.82 v 6.57 A 12.94,12.94 0 0 1 507.48,74.6 Z"
     id="path85" />
  <path
     class="cls-8"
     d="M 553.29,74.6 H 533.35 A 12.93,12.93 0 0 1 520.43,61.66 v -6.57 h 45.8 v 6.57 A 12.93,12.93 0 0 1 553.29,74.6 Z"
     id="path87" />
  <path
     class="cls-7"
     d="M 598.79,74.6 H 578.85 A 12.94,12.94 0 0 1 565.91,61.66 v -6.57 h 45.81 v 6.57 A 12.93,12.93 0 0 1 598.79,74.6 Z"
     id="path89" />
  <polygon
     class="cls-7"
     points="671.56,78.68 717.37,78.68 749.88,111.79 704.07,111.79 "
     id="polygon91"
     transform="translate(-46.57,-56.7)" />
  <path
     class="cls-7"
     d="M 690.37,74.6 H 670.43 A 12.93,12.93 0 0 1 657.5,61.66 v -6.57 h 45.8 v 6.57 A 12.93,12.93 0 0 1 690.37,74.6 Z"
     id="path93" />
  <path
     class="cls-8"
     d="M 644.59,74.6 H 624.66 A 12.94,12.94 0 0 1 611.72,61.66 v -6.57 h 45.81 v 6.57 A 12.94,12.94 0 0 1 644.59,74.6 Z"
     id="path95" />
  <polyline
     class="cls-9"
     points="341.03 112.13 628.51 112.13 628.51 111.45 341.03 111.45"
     id="polyline97"
     transform="translate(-46.57,-56.7)" />
  <polyline
     class="cls-9"
     points="716.39 111.45 650.83 111.45 650.83 112.13 716.39 112.13"
     id="polyline99"
     transform="translate(-46.57,-56.7)" />
  <path
     class="cls-10"
     d="m 516.01,99.37 a 4.71,4.71 0 0 0 -3.35,1.38 l -61.77,61.62 a 4.75,4.75 0 0 0 6.71,6.72 l 61.76,-61.62 a 4.74,4.74 0 0 0 -3.35,-8.1"
     id="path101" />
  <path
     class="cls-10"
     d="m 572.6,85.15 a 4.76,4.76 0 0 0 -3.35,1.39 L 435.09,220.38 a 4.7446918,4.7446918 0 1 0 6.7,6.72 L 575.96,93.3 a 4.76,4.76 0 0 0 -3.36,-8.11"
     id="path103" />
  <path
     class="cls-10"
     d="m 566.79,137.42 a 4.71,4.71 0 0 0 -3.36,1.38 l -46.8,46.69 a 4.7446918,4.7446918 0 0 0 6.7,6.72 l 46.8,-46.69 a 4.74,4.74 0 0 0 -3.35,-8.1"
     id="path105" />
  <rect
     class="cls-11"
     x="304.89999"
     y="166.71001"
     width="66.470001"
     height="68.769997"
     rx="9.3100004"
     id="rect107" />
  <text
     class="cls-12"
     id="text109"
     x="324.63"
     y="192.67999">Best</text>
  <text
     class="cls-12"
     id="text111"
     x="320.04001"
     y="206.91">Pasta</text>
  <text
     class="cls-12"
     id="text113"
     x="312.82001"
     y="221.14999">in town!</text>
  <path
     class="cls-13"
     d="m 349.03,160.41 a 12.65,12.65 0 0 0 -12.6,-12.64 v 0 a 12.62,12.62 0 0 0 -11.89,16.91 v 0 c 0,0 2.18,8.18 11.42,13.33 l 0.46,0.27 0.46,-0.27 a 24.56,24.56 0 0 0 11.47,-13.33 v 0 a 12.57,12.57 0 0 0 0.68,-4.27 z"
     id="path115" />
  <path
     class="cls-14"
     d="m 341.58,160.45 a 5.67,5.67 0 0 1 -5.49,4.18 5.7,5.7 0 0 1 -5.5,-4.18 0.62,0.62 0 0 0 -1.19,0.33 6.94,6.94 0 0 0 13.37,0 0.62,0.62 0 0 0 -1.19,-0.33 z"
     id="path117" />
  <path
     class="cls-14"
     d="m 334.57,156.78 a 2.87,2.87 0 0 0 -1,-1.49 2.74,2.74 0 0 0 -1.73,-0.59 2.79,2.79 0 0 0 -1.74,0.59 2.86,2.86 0 0 0 -1,1.49 0.62,0.62 0 0 0 0.43,0.76 0.62,0.62 0 0 0 0.76,-0.43 1.65,1.65 0 0 1 0.57,-0.84 1.58,1.58 0 0 1 2,0 1.57,1.57 0 0 1 0.56,0.84 0.62227406,0.62227406 0 0 0 1.2,-0.33 z"
     id="path119" />
  <path
     class="cls-14"
     d="m 342.71,156.78 a 2.8,2.8 0 0 0 -1,-1.49 2.85,2.85 0 0 0 -3.47,0 2.8,2.8 0 0 0 -1,1.49 0.62,0.62 0 0 0 1.19,0.33 1.63,1.63 0 0 1 1.55,-1.18 1.57,1.57 0 0 1 1,0.34 1.54,1.54 0 0 1 0.57,0.84 0.62,0.62 0 1 0 1.19,-0.33 z"
     id="path121" />
  <path
     class="cls-14"
     d="m 338.1,164.65 a 6.07,6.07 0 0 0 3.14,-2.93 1,1 0 0 0 -0.15,0.13 0.17,0.17 0 0 1 -0.3,-0.1 c -0.3,-2.63 -3,-2.11 -3.53,0.29 v 0 c -0.4,1.1 -0.67,2.58 -2,2.58 h -0.23 c 0.53,0.4 1.49,0.73 3.07,0.03 z"
     id="path123" />
  <polyline
     class="cls-15"
     points="46.57 472.51 1292.57 472.51 1292.57 468.13 46.57 468.13"
     id="polyline125"
     transform="translate(-46.57,-56.7)" />
  <g
     class="cls-16"
     mask="url(#mask)"
     id="g205"
     transform="translate(-46.57,-56.7)">
    <path
       class="cls-17"
       d="m 884.24,238.56 42.13,6.13 a 47.86,47.86 0 0 0 6.83,0.49 47.19,47.19 0 0 0 46.66,-40.41 l 7.4,-50.9 -21.46,-3.12 -7.4,50.9 a 25.39,25.39 0 0 1 -12.25,18.28 25.24,25.24 0 0 1 -12.95,3.56 24.66,24.66 0 0 1 -3.71,-0.27 l -42.13,-6.12 z"
       id="path127" />
    <path
       class="cls-18"
       d="m 883.8,241.58 42.13,6.13 a 51.1,51.1 0 0 0 7.27,0.52 50.24,50.24 0 0 0 49.68,-43 l 3.24,-22.23 -27.51,-4 -3.23,22.25 a 22.18,22.18 0 0 1 -2.61,7.72 22.48,22.48 0 0 1 -19.57,11.51 22.77,22.77 0 0 1 -3.27,-0.23 l -42.13,-6.13 -4,27.5 z"
       id="path129" />
    <polyline
       class="cls-17"
       points="820.87 322.68 803.07 458.08 818.53 460.11 836.32 324.71"
       id="polyline131" />
    <path
       class="cls-17"
       d="m 850.61,331.68 1.51,-3.64 -1.53,3.63 v 0 l 1.51,-3.64 -1.53,3.63 0.34,0.16 a 74.59,74.59 0 0 1 17.89,12.18 79.9,79.9 0 0 1 12.55,14.32 76.9,76.9 0 0 1 10,20.7 48.76,48.76 0 0 1 2.05,14.39 79.49,79.49 0 0 1 -3.81,23 144.6,144.6 0 0 1 -13.33,29.59 c -2.24,3.82 -4.25,6.91 -5.68,9 -0.72,1.06 -1.29,1.87 -1.68,2.41 l -0.43,0.59 -0.1,0.13 v 0 0 l 2.39,1.8 -2.39,-1.8 v 0 l 2.39,1.8 -2.39,-1.8 v 0 l 5.93,4.47 -5.92,-4.47 v 0 l 5.93,4.47 -5.92,-4.47 12.44,9.39 a 168.49,168.49 0 0 0 14,-23.05 149.5,149.5 0 0 0 9.62,-23.47 95,95 0 0 0 4.5,-27.61 64.18,64.18 0 0 0 -2.75,-19 92.18,92.18 0 0 0 -13.2,-26.61 96.74,96.74 0 0 0 -23.87,-23.34 74.48,74.48 0 0 0 -12.59,-7.16 l -6,14.4 z"
       id="path133" />
    <path
       class="cls-19"
       d="m 849.12,334 4.38,-9.32 -4.4,9.32 v 0 l 4.38,-9.32 -4.38,9.32 v 0 l 2,-4.32 -2.02,4.32 v 0 l 2,-4.32 -2,4.32 v 0 a 75.41,75.41 0 0 1 15.73,11.18 91.42,91.42 0 0 1 12.89,14.32 89.78,89.78 0 0 1 11.23,20.89 40.6,40.6 0 0 1 2.53,14.47 57.3,57.3 0 0 1 -1.46,12.32 93.47,93.47 0 0 1 -5.79,17.14 c -1.13,2.58 -2.29,5 -3.37,7.15 -1.08,2.15 -2.09,4.12 -3,5.88 l 18.82,9.35 c 1,-2 2.51,-4.91 4.17,-8.35 a 135.52,135.52 0 0 0 7.61,-19 83.22,83.22 0 0 0 4,-24.51 A 61.86,61.86 0 0 0 908.59,373 110.69,110.69 0 0 0 894.17,346.45 112,112 0 0 0 870.35,322.64 80.05,80.05 0 0 0 858.06,315 Z"
       id="path135" />
    <polyline
       class="cls-19"
       points="817.3 329 803.65 432.84 824.49 435.58 838.13 331.74"
       id="polyline137" />
    <path
       class="cls-19"
       d="m 832.07,469.48 -29.55,-3.89 a 1.36,1.36 0 0 1 -1.17,-1.53 l 1.41,-10.74 21.51,2.83 a 10.83,10.83 0 0 1 9.33,12.15 1.36,1.36 0 0 1 -1.53,1.18 z"
       id="path139" />
    <path
       class="cls-17"
       d="m 909.27,90.38 a 6.82,6.82 0 0 0 -7.1,5.91 l -0.58,4 -0.19,1.33 v 0.09 l -0.58,4 v 0 l -0.2,1.33 -0.58,4 -1.66,11.38 -0.78,5.38 a 5.65,5.65 0 0 1 -11.18,-1.62 l 0.79,-5.39 1.65,-11.38 0.59,-4 0.19,-1.33 v 0 l 0.58,-4.05 v -0.16 l 0.17,-1.17 0.61,-4.23 a 6.65,6.65 0 0 0 -5.62,-7.53 v 0 a 6.66,6.66 0 0 0 -7.53,5.61 l -0.61,4.24 -0.17,1.17 v 0.16 L 876.5,102 v 0.19 l -0.19,1.33 -0.56,3.88 -1.68,11.55 -0.76,5.21 a 5.76,5.76 0 0 1 -5.53,5 5.66,5.66 0 0 1 -5.67,-6.46 l 0.78,-5.38 1.66,-11.38 0.58,-4 0.2,-1.33 v 0 l 0.58,-4 v 0 l 0.19,-1.33 0.59,-4 a 6.79,6.79 0 0 0 -4.56,-7.5 6.67,6.67 0 0 0 -8.57,5.22 l -0.56,4.21 -0.18,1.18 v 0.15 l -0.56,3.88 v 0.2 L 852,100 l -0.57,3.88 -1.68,11.55 -0.75,5.21 a 5.77,5.77 0 0 1 -5.53,5 5.66,5.66 0 0 1 -5.67,-6.46 l 0.78,-5.38 1.65,-11.38 0.59,-4.05 L 841,97 v 0 l 0.58,-4 v 0 l 0.19,-1.33 0.59,-4 a 6.78,6.78 0 0 0 -4.56,-7.49 6.66,6.66 0 0 0 -8.56,5.38 l -0.62,4.23 -0.17,1.18 -0.61,4.23 -2.44,16.76 -0.79,5.41 -5.17,35.56 v 0 l -0.78,5.4 a 35.38,35.38 0 0 0 29.92,40.11 l 16.1,2.34 a 35.39,35.39 0 0 0 40.1,-29.93 l 0.78,-5.4 5.17,-35.56 0.79,-5.41 2.48,-16.88 0.61,-4.23 0.17,-1.18 0.62,-4.23 a 6.66,6.66 0 0 0 -6.13,-7.58 z"
       id="path141" />
    <rect
       class="cls-17"
       x="847.48999"
       y="184.46001"
       width="18.040001"
       height="31.68"
       transform="rotate(-81.73,856.50144,200.30687)"
       id="rect143" />
    <path
       class="cls-20"
       d="m 838.11,151.37 a 5.61,5.61 0 0 1 11.17,0.79 5.76,5.76 0 0 1 -0.06,0.82 2.37,2.37 0 1 0 4.69,0.68 9.47,9.47 0 0 0 0.11,-1.5 10.36,10.36 0 0 0 -8.86,-10.23 9.64,9.64 0 0 0 -1.5,-0.11 10.36,10.36 0 0 0 -10.24,8.86 2.3702426,2.3702426 0 0 0 4.69,0.69 z"
       id="path145" />
    <path
       class="cls-20"
       d="m 870.58,156.08 a 5.63,5.63 0 0 1 5.54,-4.8 5.76,5.76 0 0 1 0.82,0.06 5.61,5.61 0 0 1 4.8,5.54 5.76,5.76 0 0 1 -0.06,0.82 2.3744684,2.3744684 0 0 0 4.7,0.68 10.81,10.81 0 0 0 0.11,-1.5 10.35,10.35 0 0 0 -8.87,-10.23 9.47,9.47 0 0 0 -1.5,-0.11 10.38,10.38 0 0 0 -10.24,8.86 2.38,2.38 0 0 0 4.7,0.69 z"
       id="path147" />
    <path
       class="cls-20"
       d="M 837.45,166.51 A 21.21,21.21 0 0 0 876.18,172 Z"
       id="path149" />
    <path
       class="cls-13"
       d="m 854,175.4 17,2.48 a 21.18,21.18 0 0 1 -23.27,1.84 5.59,5.59 0 0 1 6.27,-4.32 z"
       id="path151" />
    <path
       class="cls-20"
       d="m 879.73,177.91 a 3.24,3.24 0 0 1 -1.57,-2.76 3.83,3.83 0 0 1 0,-0.47 v 0 a 3.2,3.2 0 0 1 2.38,-2.65 2.3721351,2.3721351 0 0 0 -1.2,-4.59 8,8 0 0 0 -3.88,2.35 7.85,7.85 0 0 0 -2,4.21 v 0 a 7.52,7.52 0 0 0 -0.09,1.15 8,8 0 0 0 3.88,6.83 2.3726831,2.3726831 0 0 0 2.44,-4.07 z"
       id="path153" />
    <path
       class="cls-20"
       d="m 856.28,199.78 a 64,64 0 0 0 12.82,1.73 21.34,21.34 0 0 0 3.38,-0.24 0.34,0.34 0 0 0 0.28,-0.39 0.33,0.33 0 0 0 -0.39,-0.28 21,21 0 0 1 -3.27,0.23 51.67,51.67 0 0 1 -8.5,-0.86 c -1.22,-0.21 -2.26,-0.42 -3,-0.58 l -0.86,-0.2 -0.3,-0.07 a 0.34077118,0.34077118 0 0 0 -0.17,0.66 z"
       id="path155" />
    <rect
       class="cls-18"
       x="799.26001"
       y="218.57001"
       width="101.69"
       height="82.580002"
       transform="rotate(-81.73,850.08518,259.86282)"
       id="rect157" />
    <polyline
       class="cls-21"
       points="880.05 212.61 865.71 320.58 874.17 321.71 888.51 213.73"
       id="polyline159" />
    <polyline
       class="cls-21"
       points="824.78 204.36 810.44 312.33 818.9 313.46 833.24 205.48"
       id="polyline161" />
    <path
       class="cls-19"
       d="m 883.57,315.7 -81.65,-11.47 -2,16 c -1.49,11.9 5.6,22.95 15.84,24.68 l 44.67,7.55 c 14.14,2.23 19.73,-6.52 21.22,-18.42 z"
       id="path163" />
    <path
       class="cls-17"
       d="M 989.23,164.12 967.6,161 a 3.47,3.47 0 0 1 -2.94,-3.94 l 0.63,-4.36 a 7.89,7.89 0 0 1 9,-6.67 l 25.76,3.74 a 3.48,3.48 0 0 1 2.94,3.94 v 0.23 a 12.07,12.07 0 0 1 -13.76,10.18 z"
       id="path165" />
    <path
       class="cls-22"
       d="M 977.72,142.13 956.28,139 a 9.06,9.06 0 0 1 10.26,-7.66 l 3.53,0.51 a 9.05,9.05 0 0 1 7.65,10.28 z"
       id="path167" />
    <path
       class="cls-23"
       d="m 976,141.87 v -0.34 l -17.57,-2.53 0.06,-0.43 a 6.29,6.29 0 0 1 6.22,-5.38 7.07,7.07 0 0 1 0.91,0.06 l 4.8,0.7 a 6.3,6.3 0 0 1 5.38,6.22 7.07,7.07 0 0 1 -0.06,0.91 v 0.08 l -0.1,0.68 0.33,0.05 v -0.34 0.34 h 0.34 l 0.11,-0.76 v 0 a 7,7 0 0 0 -5.89,-7.9 l -4.8,-0.7 a 7,7 0 0 0 -7.9,5.89 l -0.11,0.77 -0.05,0.33 18.59,2.7 v -0.33 z"
       id="path169" />
    <path
       class="cls-24"
       d="M 975,135 A 2.87,2.87 0 1 1 972.57,131.75 2.87,2.87 0 0 1 975,135 Z"
       id="path171" />
    <path
       class="cls-22"
       d="m 973.71,141.54 -13.41,-1.95 0.15,-1 a 4.48,4.48 0 0 1 5.09,-3.8 l 4.52,0.66 a 4.48,4.48 0 0 1 3.8,5.09 z"
       id="path173" />
    <path
       class="cls-23"
       d="m 973.71,141.54 v -0.33 l -13.08,-1.9 0.1,-0.7 a 4.16,4.16 0 0 1 4.11,-3.56 c 0.2,0 0.4,0 0.6,0 l 4.52,0.66 a 4.16,4.16 0 0 1 3.56,4.1 4.3,4.3 0 0 1 -0.05,0.61 l -0.15,1 h 0.34 v -0.33 0.33 l 0.34,0.05 0.15,-1 a 5.36,5.36 0 0 0 0,-0.7 4.83,4.83 0 0 0 -4.14,-4.77 l -4.52,-0.66 a 5.62,5.62 0 0 0 -0.7,0 4.84,4.84 0 0 0 -4.78,4.14 l -0.2,1.37 14.19,2.08 v -0.34 z"
       id="path175" />
    <path
       class="cls-22"
       d="m 1008.9,145.94 -37.08,-5.39 0.09,-0.6 a 12,12 0 0 1 13.6,-10.15 l 13.33,1.93 a 12,12 0 0 1 10.16,13.61 z"
       id="path177" />
    <path
       class="cls-23"
       d="m 1006.36,145.57 v -0.34 l -32.2,-4.68 -0.05,0.34 h 0.34 a 10.35,10.35 0 0 1 10.23,-8.86 10.93,10.93 0 0 1 1.5,0.11 l 11,1.61 a 10.34,10.34 0 0 1 8.86,10.23 9.64,9.64 0 0 1 -0.11,1.5 h 0.34 v -0.34 0.34 h 0.33 a 10.74,10.74 0 0 0 0.12,-1.59 11,11 0 0 0 -9.44,-10.9 l -11,-1.61 a 10.85,10.85 0 0 0 -1.6,-0.11 11,11 0 0 0 -10.9,9.44 l -0.05,0.33 32.86,4.78 0.05,-0.34 z"
       id="path179" />
    <path
       class="cls-24"
       d="m 1003.8,136.29 a 2.87,2.87 0 1 1 -2.43,-3.26 2.87,2.87 0 0 1 2.43,3.26 z"
       id="path181" />
    <path
       class="cls-22"
       d="m 1003.84,145.2 -27.16,-3.95 0.07,-0.48 a 7.85,7.85 0 0 1 8.9,-6.64 l 11.62,1.69 a 7.85,7.85 0 0 1 6.64,8.9 z"
       id="path183" />
    <path
       class="cls-23"
       d="m 1003.84,145.2 v -0.33 L 977.06,141 v -0.14 a 7.53,7.53 0 0 1 7.43,-6.44 8.11,8.11 0 0 1 1.09,0.08 l 11.63,1.69 a 7.53,7.53 0 0 1 6.43,7.43 8.11,8.11 0 0 1 -0.08,1.09 l -0.07,0.48 h 0.33 v -0.33 0.33 l 0.34,0.05 0.07,-0.48 a 8,8 0 0 0 0.09,-1.19 8.21,8.21 0 0 0 -7,-8.1 l -11.62,-1.69 a 9.64,9.64 0 0 0 -1.19,-0.08 8.19,8.19 0 0 0 -8.1,7 l -0.07,0.48 -0.05,0.34 27.84,4 v -0.33 z"
       id="path185" />
    <path
       class="cls-23"
       d="m 1000.28,144.68 0.05,-0.33 -19.71,-2.87 0.1,-0.7 a 4.56,4.56 0 0 1 4.51,-3.9 5.07,5.07 0 0 1 0.66,0 l 10.36,1.51 a 4.56,4.56 0 0 1 3.9,4.5 4.89,4.89 0 0 1 0,0.66 l -0.15,1 0.33,0.05 0.05,-0.33 -0.05,0.33 h 0.34 l 0.15,-1 a 5,5 0 0 0 0.06,-0.76 5.23,5.23 0 0 0 -4.48,-5.17 L 986,136.25 a 6.3,6.3 0 0 0 -0.75,-0.05 5.24,5.24 0 0 0 -5.18,4.48 l -0.2,1.38 20.72,3 v -0.34 z"
       id="path187" />
    <path
       class="cls-24"
       d="m 994.33,132 a 2.86,2.86 0 1 1 -2.42,-3.25 2.87,2.87 0 0 1 2.42,3.25 z"
       id="path189" />
    <path
       class="cls-18"
       d="m 1017,149.76 -70.92,-10.31 a 6.11,6.11 0 0 1 -5.17,-6.92 l 83,12.06 a 6.11,6.11 0 0 1 -6.91,5.17 z"
       id="path191" />
    <path
       class="cls-25"
       d="M 1042.69,156 927.18,139.16 a 4.33,4.33 0 0 1 -3.66,-4.91 l 124.08,18 a 4.33,4.33 0 0 1 -4.91,3.75 z"
       id="path193" />
    <path
       class="cls-19"
       d="m 888.87,455.47 h -6.56 v 12.2 h 18 a 1.52,1.52 0 0 0 1.64,-1.36 c 0.05,-5.99 -5.85,-10.84 -13.08,-10.84 z"
       id="path195" />
    <path
       class="cls-19"
       d="m 882.31,455.47 -8.75,-6.15 -6.1,9.32 a 1.79,1.79 0 0 0 0.51,2.49 l 8.93,5.95 a 3.44,3.44 0 0 0 1.94,0.59 h 4.53 c 0,0 4.02,-8.67 -1.06,-12.2 z"
       id="path197" />
    <rect
       class="cls-19"
       x="851.56"
       y="205.8"
       width="7.3499999"
       height="10.46"
       rx="3.1099999"
       transform="rotate(8.16,855.27817,211.01333)"
       id="rect199" />
    <path
       class="cls-19"
       d="m 853.2,208.66 -8.56,-6.73 a 2.93,2.93 0 0 0 -4.7,1.88 l -1.54,10.78 a 2.92,2.92 0 0 0 4,3.12 l 10.1,-4.05 a 2.91,2.91 0 0 0 0.7,-5 z"
       id="path201" />
    <path
       class="cls-19"
       d="m 857.38,209.26 10.1,-4 a 2.92,2.92 0 0 1 4,3.12 l -1.55,10.78 a 2.92,2.92 0 0 1 -4.69,1.88 l -8.56,-6.73 a 2.91,2.91 0 0 1 0.7,-5.05 z"
       id="path203" />
  </g>
  <path
     class="cls-26"
     d="m 1072.08,396.23 a 15.14,15.14 0 0 0 -3.64,0.29 15.41,15.41 0 0 0 -22.64,-4.41 15.53,15.53 0 0 0 -14.73,-10.75 v 0 a 15.53,15.53 0 0 0 -15.49,15.48 v 2.4 a 15.36,15.36 0 0 0 -18.87,12.19 h 90.19 a 15.52,15.52 0 0 0 -14.82,-15.2 z"
     id="path207" />
  <path
     class="cls-26"
     d="m 259.5,408.8 a 17.09,17.09 0 0 0 -6.25,-23.34 v 0 a 17.1,17.1 0 0 0 -19.3,1.53 17.06,17.06 0 0 0 -26.58,-17.51 l -1.79,-6 a 17.07,17.07 0 0 0 -21.23,-11.53 v 0 a 17.09,17.09 0 0 0 -11.54,21.23 l 3.79,12.79 -8.69,-5 a 17.09,17.09 0 0 0 -17.09,29.6 l 1.57,0.9 h 105.6 z"
     id="path209" />
  <path
     class="cls-27"
     d="m 405.93,327.07 h 80.92 a 6.78,6.78 0 1 0 0,-13.55 h -80.92 a 6.78,6.78 0 0 0 0,13.55"
     id="path211" />
  <path
     class="cls-27"
     d="m 409.01,323.83 v 80.22 c 0,4.07 3,7.38 6.78,7.38 3.78,0 6.78,-3.31 6.78,-7.38 v -80.22 c 0,-4.08 -3,-7.39 -6.78,-7.39 -3.78,0 -6.78,3.31 -6.78,7.39"
     id="path213" />
  <path
     class="cls-27"
     d="m 631.35,327.07 h 80.92 a 6.78,6.78 0 1 0 0,-13.55 h -80.92 a 6.78,6.78 0 1 0 0,13.55"
     id="path215" />
  <path
     class="cls-27"
     d="m 634.43,323.83 v 80.22 c 0,4.07 3,7.38 6.78,7.38 3.78,0 6.78,-3.31 6.78,-7.38 v -80.22 c 0,-4.08 -3,-7.39 -6.78,-7.39 -3.78,0 -6.78,3.31 -6.78,7.39"
     id="path217" />
  <path
     class="cls-27"
     d="m 698.36,323.83 v 80.22 c 0,4.07 3,7.38 6.78,7.38 3.78,0 6.78,-3.31 6.78,-7.38 v -80.22 c 0,-4.08 -3,-7.39 -6.78,-7.39 -3.78,0 -6.78,3.31 -6.78,7.39"
     id="path219" />
  <path
     class="cls-27"
     d="m 470.61,323.83 v 80.22 c 0,4.07 3,7.38 6.78,7.38 3.78,0 6.78,-3.31 6.78,-7.38 v -80.22 c 0,-4.08 -3,-7.39 -6.78,-7.39 -3.78,0 -6.78,3.31 -6.78,7.39"
     id="path221" />
  <rect
     class="cls-28"
     x="435.28998"
     y="217.64"
     width="29.84"
     height="18.940001"
     id="rect223" />
  <path
     class="cls-28"
     d="m 466.71,117.54 v 5.9 a 3.84,3.84 0 0 1 -3.28,3.86 3.73,3.73 0 0 1 -4.1,-3.7 v -9.9 a 1.62,1.62 0 0 0 -1.27,-1.59 c -1.36,-0.29 -2.74,-0.53 -4.14,-0.69 a 1.64,1.64 0 0 0 -1.85,1.62 v 10.38 a 3.84,3.84 0 0 1 -3.33,3.88 3.73,3.73 0 0 1 -4.1,-3.7 v -10.54 a 1.64,1.64 0 0 0 -1.85,-1.62 c -1.4,0.16 -2.78,0.4 -4.14,0.69 a 1.62,1.62 0 0 0 -1.27,1.59 v 9.72 a 3.85,3.85 0 0 1 -3.33,3.88 3.73,3.73 0 0 1 -4.1,-3.7 v -6.08 a 1.63,1.63 0 0 0 -2.37,-1.46 45.74,45.74 0 0 0 -25,40.76 v 33.35 a 34.76,34.76 0 0 0 34.76,34.76 h 22 a 34.76,34.76 0 0 0 34.76,-34.76 v -33.35 a 45.74,45.74 0 0 0 -25,-40.76 1.63,1.63 0 0 0 -2.39,1.46 z"
     id="path225" />
  <path
     class="cls-29"
     d="m 429.68,170.06 a 5.61,5.61 0 0 1 11.22,0 2.38,2.38 0 0 0 4.75,0 10.36,10.36 0 1 0 -20.71,0 2.37,2.37 0 0 0 4.74,0 z"
     id="path227" />
  <path
     class="cls-29"
     d="m 470.33,185.14 a 21.22,21.22 0 0 1 -39.13,-0.1 z"
     id="path229" />
  <path
     class="cls-30"
     d="m 428.67,194.72 a 7.94,7.94 0 0 0 3.54,-11.8 7.84,7.84 0 0 0 -3.5,-2.88 2.37,2.37 0 0 0 -1.84,4.36 3.29,3.29 0 0 1 1.41,1.17 3.19,3.19 0 0 1 0.55,1.8 3.14,3.14 0 0 1 -0.55,1.8 3.21,3.21 0 0 1 -1.43,1.17 2.3715396,2.3715396 0 0 0 1.82,4.38 z"
     id="path231" />
  <path
     class="cls-30"
     d="m 474.68,190.3 a 3.21,3.21 0 0 1 -1.43,-1.17 3.14,3.14 0 0 1 -0.55,-1.8 3.19,3.19 0 0 1 0.55,-1.8 3.29,3.29 0 0 1 1.41,-1.17 2.3727305,2.3727305 0 0 0 -1.85,-4.37 8,8 0 0 0 -4.86,7.34 8,8 0 0 0 4.9,7.35 2.3734627,2.3734627 0 1 0 1.83,-4.38 z"
     id="path233" />
  <path
     class="cls-29"
     d="m 462.49,170.06 a 5.61,5.61 0 0 1 11.22,0 2.37,2.37 0 0 0 4.74,0 10.36,10.36 0 0 0 -20.71,0 2.38,2.38 0 0 0 4.75,0 z"
     id="path235" />
  <path
     class="cls-28"
     d="m 472.19,248.61 a 31.39,31.39 0 0 0 5,0.35 43.21,43.21 0 0 0 12.75,-1.93 41,41 0 0 0 11.92,-6 42.92,42.92 0 0 0 8.59,-8.31 57.29,57.29 0 0 0 9.7,-19.75 c 2.33,-8.14 3.66,-17.89 3.66,-29.65 0,-0.54 0,-1.08 0,-1.62 l -15.58,0.16 v 1.46 c 0,12.55 -1.69,21.89 -4.15,28.75 a 38.2,38.2 0 0 1 -6.48,11.76 26.77,26.77 0 0 1 -5.49,5 25.6,25.6 0 0 1 -8.25,3.66 28,28 0 0 1 -6.66,0.82 c -0.89,0 -1.58,0 -2,-0.08 l -0.44,-0.05 h -0.05 l -0.6,3.94 0.67,-3.93 h -0.07 l -0.6,3.94 0.67,-3.93 -2.61,15.37 z"
     id="path237" />
  <path
     class="cls-14"
     d="m 471.57,252.3 a 34.59,34.59 0 0 0 5.65,0.4 47.06,47.06 0 0 0 14,-2.13 45.2,45.2 0 0 0 8.67,-3.75 44.71,44.71 0 0 0 8.73,-6.44 l -15.8,-16.77 a 21.62,21.62 0 0 1 -4.26,3.14 22.37,22.37 0 0 1 -6.25,2.36 24.23,24.23 0 0 1 -5.05,0.55 c -0.76,0 -1.34,0 -1.66,-0.07 h -0.29 v 0 l -0.84,5.87 1,-5.84 h -0.15 l -0.84,5.87 1,-5.84 z"
     id="path239" />
  <path
     class="cls-28"
     d="M 464.33,313.66 H 432.19 A 14.36,14.36 0 0 1 417.82,299.3 v -65.56 h 60.87 v 65.56 a 14.36,14.36 0 0 1 -14.36,14.36 z"
     id="path241" />
  <path
     class="cls-19"
     d="m 478.76,313.66 h -48.79 a 12.21,12.21 0 0 1 -12.21,-12.21 v -26.42 h 61 z"
     id="path243" />
  <path
     class="cls-28"
     d="m 526.75,189.3 h -18.64 v -9.83 a 9.83,9.83 0 0 1 9.83,-9.83 h 8.81 a 9.83,9.83 0 0 1 0,19.66 z"
     id="path245" />
  <path
     class="cls-28"
     d="m 514.48,178.09 a 13.42,13.42 0 0 0 1.71,-0.71 16.47,16.47 0 0 0 5.29,-4.08 13.77,13.77 0 0 0 2.35,-3.94 14.26,14.26 0 0 0 1,-5.3 17.82,17.82 0 0 0 -0.23,-2.85 3.39,3.39 0 1 0 -6.69,1.09 11.51,11.51 0 0 1 0.15,1.76 7.29,7.29 0 0 1 -2.23,5.42 9.92,9.92 0 0 1 -2.37,1.7 7.27,7.27 0 0 1 -0.81,0.38 l -0.18,0.07 v 0 0 0 a 3.39,3.39 0 1 0 2,6.46 z"
     id="path247" />
  <rect
     class="cls-14"
     x="417.75998"
     y="229.62001"
     width="61"
     height="61"
     id="rect249" />
  <path
     class="cls-28"
     d="m 398.71,238.37 a 57.66,57.66 0 0 0 -11.65,7.86 60.85,60.85 0 0 0 -10.63,12.19 29.28,29.28 0 0 0 -3.19,6.18 19.47,19.47 0 0 0 -1.2,6.57 16.28,16.28 0 0 0 0.78,5 15.6,15.6 0 0 0 1.91,3.91 18.36,18.36 0 0 0 5.12,5 24.41,24.41 0 0 0 4.6,2.37 35.94,35.94 0 0 0 7.66,2 53.43,53.43 0 0 0 8.44,0.63 77.65,77.65 0 0 0 15.15,-1.6 90.6,90.6 0 0 0 23.82,-8.42 73.82,73.82 0 0 0 21.22,-16.35 l -11.7,-10.3 a 54.43,54.43 0 0 1 -10.6,9.18 71.75,71.75 0 0 1 -19.26,9 66.88,66.88 0 0 1 -18.63,2.93 37.15,37.15 0 0 1 -6.84,-0.58 19.19,19.19 0 0 1 -3.62,-1 9,9 0 0 1 -1.64,-0.85 3.72,3.72 0 0 1 -0.6,-0.48 c -0.18,-0.19 -0.2,-0.25 -0.2,-0.26 0,-0.01 0,0 0,-0.18 a 3.92,3.92 0 0 1 0.28,-1.29 13.8,13.8 0 0 1 1.49,-2.81 44.87,44.87 0 0 1 7.93,-9.08 42.13,42.13 0 0 1 8.49,-5.73 l -7.08,-13.89 z"
     id="path251" />
  <path
     class="cls-14"
     d="m 424.43,230.05 a 34.59,34.59 0 0 0 -5.65,-0.4 46.73,46.73 0 0 0 -14,2.13 44.53,44.53 0 0 0 -17.35,10.19 l 15.81,16.77 a 21.8,21.8 0 0 1 4.26,-3.15 22.21,22.21 0 0 1 6.25,-2.35 24.17,24.17 0 0 1 5.05,-0.55 c 0.76,0 1.33,0 1.66,0.07 h 0.28 v 0 l 0.84,-5.86 -1,5.84 h 0.15 l 0.84,-5.86 -1,5.84 z"
     id="path253" />
  <path
     class="cls-13"
     d="m 452.7,191.57 h -17.21 a 21.19,21.19 0 0 0 22.76,5.16 5.58,5.58 0 0 0 -5.55,-5.16 z"
     id="path255" />
  <polyline
     class="cls-13"
     points="464.33 310.05 469.07 310.05 469.07 309.37 464.33 309.37"
     id="polyline257"
     transform="translate(-46.57,-56.7)" />
  <path
     class="cls-22"
     d="m 493.43,276.85 h -21.69 a 9.06,9.06 0 0 1 9.06,-9.06 h 3.56 a 9.06,9.06 0 0 1 9.07,9.06 z"
     id="path259" />
  <path
     class="cls-23"
     d="m 491.63,276.85 v -0.34 h -17.77 v -0.43 a 6.28,6.28 0 0 1 6.29,-6.29 H 485 a 6.28,6.28 0 0 1 6.29,6.29 v 0.77 h 0.34 v 0 h 0.34 v -0.77 a 7,7 0 0 0 -7,-7 h -4.85 a 7,7 0 0 0 -7,7 v 1.11 h 18.79 v -0.34 z"
     id="path261" />
  <path
     class="cls-24"
     d="m 489.71,270.19 a 2.87,2.87 0 1 1 -2.87,-2.87 2.88,2.88 0 0 1 2.87,2.87 z"
     id="path263" />
  <path
     class="cls-22"
     d="M 489.35,276.85 H 475.8 v -1.05 a 4.49,4.49 0 0 1 4.49,-4.49 h 4.57 a 4.49,4.49 0 0 1 4.49,4.49 z"
     id="path265" />
  <path
     class="cls-23"
     d="m 489.35,276.85 v -0.34 h -13.21 v -0.71 a 4.15,4.15 0 0 1 4.15,-4.15 h 4.57 a 4.15,4.15 0 0 1 4.15,4.15 v 1.05 h 0.34 v 0 h 0.34 v -1.05 a 4.83,4.83 0 0 0 -4.83,-4.83 h -4.57 a 4.83,4.83 0 0 0 -4.86,4.83 v 1.39 h 14.23 v -0.34 z"
     id="path267" />
  <path
     class="cls-22"
     d="m 524.81,276.13 h -37.47 v -0.6 a 12,12 0 0 1 12,-12 h 13.47 a 12,12 0 0 1 12,12 z"
     id="path269" />
  <path
     class="cls-23"
     d="m 522.24,276.13 v -0.34 h -32.53 v 0.34 h 0.34 a 10.35,10.35 0 0 1 10.38,-10.35 h 11.15 a 10.35,10.35 0 0 1 10.35,10.35 h 0.34 v 0 h 0.34 a 11,11 0 0 0 -11,-11 h -11.18 a 11,11 0 0 0 -11,11 v 0.34 h 33.21 v -0.34 z"
     id="path271" />
  <path
     class="cls-24"
     d="m 518.37,267.3 a 2.87,2.87 0 1 1 -2.87,-2.87 2.87,2.87 0 0 1 2.87,2.87 z"
     id="path273" />
  <path
     class="cls-22"
     d="m 519.7,276.13 h -27.45 v -0.49 a 7.85,7.85 0 0 1 7.85,-7.85 h 11.75 a 7.86,7.86 0 0 1 7.85,7.85 z"
     id="path275" />
  <path
     class="cls-23"
     d="m 519.7,276.13 v -0.34 h -27.11 v -0.15 a 7.51,7.51 0 0 1 7.51,-7.51 h 11.75 a 7.51,7.51 0 0 1 7.51,7.51 v 0.49 h 0.34 v 0 h 0.34 v -0.49 a 8.19,8.19 0 0 0 -8.19,-8.19 H 500.1 a 8.19,8.19 0 0 0 -8.19,8.19 v 0.83 h 28.13 v -0.34 z"
     id="path277" />
  <path
     class="cls-23"
     d="m 516.1,276.13 v -0.34 h -19.92 v -0.71 a 4.58,4.58 0 0 1 4.56,-4.56 h 10.47 a 4.56,4.56 0 0 1 4.55,4.56 v 1.05 h 0.34 v 0 h 0.33 v -1.05 a 5.23,5.23 0 0 0 -5.23,-5.23 h -10.46 a 5.23,5.23 0 0 0 -5.23,5.23 v 1.39 h 20.92 v -0.34 z"
     id="path279" />
  <path
     class="cls-24"
     d="m 508.43,264.45 a 2.87,2.87 0 1 1 -2.87,-2.87 2.87,2.87 0 0 1 2.87,2.87 z"
     id="path281" />
  <path
     class="cls-1"
     d="m 533.35,278.76 h -71.66 a 6.11,6.11 0 0 1 -6.11,-6.11 h 83.85 a 6.11,6.11 0 0 1 -6.08,6.11 z"
     id="path283" />
  <path
     class="cls-22"
     d="m 595.43,276.85 h -21.67 a 9.06,9.06 0 0 1 9,-9.06 h 3.56 a 9.06,9.06 0 0 1 9.11,9.06 z"
     id="path285" />
  <path
     class="cls-23"
     d="m 593.65,276.85 v -0.34 h -17.77 v -0.43 a 6.28,6.28 0 0 1 6.29,-6.29 h 4.85 a 6.28,6.28 0 0 1 6.29,6.29 v 0.77 h 0.34 v 0 h 0.34 v -0.77 a 7,7 0 0 0 -7,-7 h -4.85 a 7,7 0 0 0 -7,7 v 1.11 h 18.79 v -0.34 z"
     id="path287" />
  <path
     class="cls-24"
     d="m 591.73,270.19 a 2.87,2.87 0 1 1 -2.87,-2.87 2.88,2.88 0 0 1 2.87,2.87 z"
     id="path289" />
  <path
     class="cls-22"
     d="m 591.37,276.85 h -13.55 v -1.05 a 4.49,4.49 0 0 1 4.49,-4.49 h 4.57 a 4.49,4.49 0 0 1 4.49,4.49 z"
     id="path291" />
  <path
     class="cls-23"
     d="m 591.37,276.85 v -0.34 h -13.21 v -0.71 a 4.15,4.15 0 0 1 4.15,-4.15 h 4.57 a 4.15,4.15 0 0 1 4.15,4.15 v 1.05 h 0.34 v 0 h 0.34 v -1.05 a 4.83,4.83 0 0 0 -4.83,-4.83 h -4.57 a 4.83,4.83 0 0 0 -4.83,4.83 v 1.39 h 14.23 v -0.34 z"
     id="path293" />
  <path
     class="cls-22"
     d="m 626.83,276.13 h -37.47 v -0.6 a 12,12 0 0 1 12,-12 h 13.46 a 12,12 0 0 1 12,12 z"
     id="path295" />
  <path
     class="cls-23"
     d="m 624.26,276.13 v -0.34 h -32.53 v 0.34 h 0.33 a 10.36,10.36 0 0 1 10.37,-10.35 h 11.16 a 10.35,10.35 0 0 1 10.35,10.35 h 0.34 v 0 h 0.34 a 11,11 0 0 0 -11,-11 h -11.19 a 11,11 0 0 0 -11,11 v 0.34 h 33.21 v -0.34 z"
     id="path297" />
  <path
     class="cls-24"
     d="m 620.43,267.3 a 2.87,2.87 0 1 1 -2.87,-2.87 2.87,2.87 0 0 1 2.87,2.87 z"
     id="path299" />
  <path
     class="cls-22"
     d="m 621.72,276.13 h -27.45 v -0.49 a 7.85,7.85 0 0 1 7.85,-7.85 h 11.75 a 7.86,7.86 0 0 1 7.85,7.85 z"
     id="path301" />
  <path
     class="cls-23"
     d="m 621.72,276.13 v -0.34 H 594.6 v -0.15 a 7.51,7.51 0 0 1 7.52,-7.51 h 11.75 a 7.51,7.51 0 0 1 7.51,7.51 v 0.49 h 0.34 v 0 h 0.34 v -0.49 a 8.19,8.19 0 0 0 -8.19,-8.19 h -11.75 a 8.19,8.19 0 0 0 -8.19,8.19 v 0.83 h 28.13 v -0.34 z"
     id="path303" />
  <path
     class="cls-23"
     d="m 618.12,276.13 v -0.34 H 598.2 v -0.71 a 4.56,4.56 0 0 1 4.56,-4.56 h 10.47 a 4.56,4.56 0 0 1 4.55,4.56 v 1.05 h 0.34 v 0 h 0.31 v -1.05 a 5.23,5.23 0 0 0 -5.23,-5.23 h -10.44 a 5.24,5.24 0 0 0 -5.24,5.23 v 1.39 h 20.91 v -0.34 z"
     id="path305" />
  <path
     class="cls-24"
     d="m 610.43,264.45 a 2.87,2.87 0 1 1 -2.87,-2.87 2.87,2.87 0 0 1 2.87,2.87 z"
     id="path307" />
  <path
     class="cls-1"
     d="M 635.37,278.76 H 563.7 a 6.11,6.11 0 0 1 -6.1,-6.11 h 83.88 a 6.12,6.12 0 0 1 -6.11,6.11 z"
     id="path309" />
  <rect
     class="cls-27"
     x="538.35999"
     y="280.65997"
     width="25.16"
     height="127.62"
     id="rect311" />
  <rect
     class="cls-31"
     x="538.35999"
     y="285.40997"
     width="25.16"
     height="11.83"
     id="rect313" />
  <rect
     class="cls-32"
     x="645.52997"
     y="209.86"
     width="31.030001"
     height="26.719999"
     id="rect315" />
  <path
     class="cls-32"
     d="m 664.16,216.23 h -9 A 32.88,32.88 0 0 1 622.63,187.7 l -4.28,-32 c -3.86,-28.93 14.78,-56.13 41.34,-56.13 26.56,0 45.2,27.2 41.33,56.13 l -4.27,32 a 32.88,32.88 0 0 1 -32.59,28.53 z"
     id="path317" />
  <path
     class="cls-33"
     d="m 633.69,182.37 a 20.35,20.35 0 0 0 7.33,8.91 20.25,20.25 0 0 0 30,-9 2.36,2.36 0 0 0 -1.27,-3.1 2.39,2.39 0 0 0 -3.11,1.28 15.51,15.51 0 0 1 -28.59,0.07 2.3727305,2.3727305 0 0 0 -4.37,1.85 z"
     id="path319" />
  <path
     class="cls-34"
     d="m 630.37,313.74 h 48.79 a 12.22,12.22 0 0 0 12.21,-12.22 v -10.9 h -61 z"
     id="path321" />
  <rect
     class="cls-35"
     x="610.88"
     y="216.27"
     width="25"
     height="43.380001"
     rx="2.77"
     id="rect323" />
  <polygon
     class="cls-13"
     points="724.98,287.55 689.9,287.55 676.94,347.39 737.94,347.39 "
     id="polygon325"
     transform="translate(-46.57,-56.7)" />
  <polyline
     class="cls-32"
     points="694.54 368.8 694.54 458.53 710.13 458.53 710.13 368.8"
     id="polyline327"
     transform="translate(-46.57,-56.7)" />
  <polyline
     class="cls-32"
     points="665.4 368.8 665.4 458.53 680.99 458.53 680.99 368.8"
     id="polyline329"
     transform="translate(-46.57,-56.7)" />
  <path
     class="cls-34"
     d="m 647.97,365.91 h 16.27 v -61.68 a 8.14,8.14 0 1 0 -16.27,0 z"
     id="path331" />
  <path
     class="cls-34"
     d="m 618.15,365.91 h 16.28 v -61.68 a 8.14,8.14 0 1 0 -16.27,0 z"
     id="path333" />
  <path
     class="cls-19"
     d="m 632.43,411.43 h 29.81 a 1.36,1.36 0 0 0 1.36,-1.36 v -10.84 h -21.72 a 10.84,10.84 0 0 0 -10.84,10.84 1.36,1.36 0 0 0 1.39,1.36 z"
     id="path335" />
  <path
     class="cls-19"
     d="m 603.25,411.43 h 29.81 a 1.36,1.36 0 0 0 1.36,-1.36 v -10.84 h -21.7 a 10.84,10.84 0 0 0 -10.84,10.84 1.36,1.36 0 0 0 1.37,1.36 z"
     id="path337" />
  <rect
     class="cls-36"
     x="646.88"
     y="359.69998"
     width="19.219999"
     height="9.7299995"
     id="rect339" />
  <rect
     class="cls-36"
     x="616.66998"
     y="359.69998"
     width="19.219999"
     height="9.7299995"
     id="rect341" />
  <path
     class="cls-32"
     d="m 674.43,246.3 a 71.3,71.3 0 0 1 3.4,20.82 43.58,43.58 0 0 1 -0.89,9.11 25.55,25.55 0 0 1 -1.59,5 14,14 0 0 1 -1.4,2.47 6,6 0 0 1 -1.76,1.73 2.66,2.66 0 0 1 -0.58,0.25 1.84,1.84 0 0 1 -0.55,0.07 4,4 0 0 1 -1.29,-0.25 9.29,9.29 0 0 1 -1.92,-1 22.83,22.83 0 0 1 -4.87,-4.44 67.64,67.64 0 0 1 -9.12,-14.66 173.36,173.36 0 0 1 -9.53,-25.23 l -14.9,4.48 a 198.61,198.61 0 0 0 9,24.52 109,109 0 0 0 7.23,13.53 64.58,64.58 0 0 0 5.67,7.68 36.64,36.64 0 0 0 9.21,7.88 23.27,23.27 0 0 0 5.11,2.22 19.17,19.17 0 0 0 5.42,0.8 17.65,17.65 0 0 0 5.51,-0.88 18.35,18.35 0 0 0 4.3,-2.07 22.2,22.2 0 0 0 5.8,-5.67 34.21,34.21 0 0 0 5.1,-11.46 56.9,56.9 0 0 0 1.65,-14.11 86.23,86.23 0 0 0 -4.11,-25.44 z"
     id="path343" />
  <path
     class="cls-13"
     d="m 670.43,249.22 1.62,-7.44 -1.92,7.38 0.3,0.06 1.62,-7.44 -1.92,7.38 0.74,-2.83 -0.8,2.81 h 0.06 l 0.74,-2.83 -0.8,2.81 0.16,-0.57 -0.17,0.57 v 0 l 0.16,-0.57 -0.17,0.57 a 4.42,4.42 0 0 1 0.92,0.4 7.08,7.08 0 0 1 1.19,0.82 6.05,6.05 0 0 1 0.85,0.89 7.25,7.25 0 0 1 1.12,2.14 13.5,13.5 0 0 1 0.61,4.35 28.5,28.5 0 0 1 -0.68,5.86 l 22.56,4.75 a 52.15,52.15 0 0 0 1.17,-10.61 38.41,38.41 0 0 0 -0.84,-8.13 31,31 0 0 0 -4.93,-11.4 29.14,29.14 0 0 0 -5.26,-5.69 29.84,29.84 0 0 0 -7.37,-4.47 23.45,23.45 0 0 0 -4.07,-1.34 z"
     id="path345" />
  <polyline
     class="cls-13"
     points="723.52 310.3 718.77 310.3 718.77 310.98 723.52 310.98"
     id="polyline347"
     transform="translate(-46.57,-56.7)" />
  <path
     class="cls-33"
     d="m 637.8,162.45 a 1.37,1.37 0 0 1 1.35,-1.35 1.35,1.35 0 0 1 1.35,1.35 2.38,2.38 0 0 0 4.75,0 6.09,6.09 0 0 0 -1.79,-4.31 6.09,6.09 0 0 0 -10.4,4.31 2.37,2.37 0 1 0 4.74,0 z"
     id="path349" />
  <path
     class="cls-33"
     d="m 664.75,162.45 a 1.3,1.3 0 0 1 0.39,-1 1.34,1.34 0 0 1 1,-0.4 1.35,1.35 0 0 1 1.34,1.35 2.38,2.38 0 0 0 4.75,0 6.09,6.09 0 0 0 -1.79,-4.31 6.1,6.1 0 0 0 -8.61,0 6.09,6.09 0 0 0 -1.79,4.31 2.38,2.38 0 0 0 4.75,0 z"
     id="path351" />
  <rect
     class="cls-13"
     x="639.64996"
     y="219.00999"
     width="40.080002"
     height="12.73"
     rx="3.9300001"
     id="rect353" />
  <path
     class="cls-37"
     d="m 690.43,114.98 -45.85,-14.39 1.53,-4.86 a 23.22,23.22 0 0 1 29,-15.16 l 1.66,0.52 a 23.23,23.23 0 0 1 15.16,29 z"
     id="path355" />
  <path
     class="cls-37"
     d="m 666.11,99.4 -0.74,2.35 a 9.92,9.92 0 0 1 -12.43,6.49 l -22.13,-6.94 a 6.13,6.13 0 0 1 -4,-7.69 V 93.5 a 6.14,6.14 0 0 1 7.69,-4 z"
     id="path357" />
  <path
     class="cls-32"
     d="m 620.02,246.3 17.56,9.07 6.66,-12.88 a 3.14,3.14 0 0 0 -1.35,-4.24 l -14.76,-7.63 a 8.83,8.83 0 0 0 -8.11,15.68 z"
     id="path359" />
  <polyline
     class="cls-28"
     points="522.72 365.5 553.22 449.88 567.88 444.58 537.38 360.2"
     id="polyline361"
     transform="translate(-46.57,-56.7)" />
  <circle
     class="cls-38"
     cx="679.59998"
     cy="173.12001"
     r="3.04"
     id="circle363" />
  <path
     class="cls-19"
     d="m 507.6,347.96 -15.3,5.53 -18.87,-52.1 a 8.1343546,8.1343546 0 0 1 15.3,-5.53 z"
     id="path365" />
  <path
     class="cls-27"
     d="m 399.79,292.19 h 302.3 a 6.78,6.78 0 1 0 0,-13.56 h -302.3 a 6.78,6.78 0 0 0 0,13.56"
     id="path367" />
  <path
     class="cls-19"
     d="m 536.89,385.14 -28,10.13 a 1.35,1.35 0 0 1 -1.74,-0.82 l -3.72,-10.15 20.41,-7.38 a 10.83,10.83 0 0 1 13.87,6.51 1.37,1.37 0 0 1 -0.82,1.71 z"
     id="path369" />
  <rect
     class="cls-19"
     x="342.81387"
     y="509.55167"
     width="16.27"
     height="29.01"
     transform="rotate(-19.87)"
     id="rect371" />
  <rect
     class="cls-39"
     x="466.85999"
     y="254.37001"
     width="28.200001"
     height="2.6199999"
     id="rect373" />
  <path
     class="cls-40"
     d="m 457.25,254.17 -2,-0.62 2,0.68 v -0.06 l -2,-0.62 2,0.68 -0.56,-0.19 0.56,0.2 v 0 l -0.56,-0.19 0.56,0.2 v 0 a 1.58,1.58 0 0 1 0.15,-0.3 1.73,1.73 0 0 1 0.46,-0.53 1,1 0 0 1 0.25,-0.13 1.31,1.31 0 0 1 0.43,-0.06 0.72,0.72 0 0 1 0.18,0 v 0 -0.11 l -0.07,0.1 v 0 -0.11 l -0.07,0.1 v 0 0 0 0 0 a 0.4,0.4 0 0 1 0.09,0.12 2.36,2.36 0 0 1 0.2,0.51 0.92,0.92 0 0 1 0,0.18 v 0 l 0.36,-0.05 h -0.36 v 0 l 0.36,-0.05 h -0.36 l 2.21,-0.25 -2.22,0.2 v 0.05 l 2.21,-0.25 -2.22,0.2 a 3.39,3.39 0 0 0 6.75,-0.61 7.09,7.09 0 0 0 -0.19,-1.1 9,9 0 0 0 -0.52,-1.54 8.22,8.22 0 0 0 -0.8,-1.4 6.83,6.83 0 0 0 -2.24,-2 7,7 0 0 0 -3.47,-0.87 7.9,7.9 0 0 0 -3.79,0.93 7.72,7.72 0 0 0 -1.94,1.47 8.94,8.94 0 0 0 -1.54,2.18 6.69,6.69 0 0 0 -0.49,1.2 3.3908111,3.3908111 0 0 0 6.48,2 z"
     id="path375" />
  <path
     class="cls-28"
     d="m 466.5,266.01 h -14.57 a 3.39,3.39 0 0 1 -3.38,-3.37 v -7.15 a 4.72,4.72 0 0 1 4.71,-4.71 h 13.24 a 7,7 0 0 1 6.93,6.93 v 1.38 a 6.94,6.94 0 0 1 -6.93,6.92 z"
     id="path377" />
  <path
     class="cls-39"
     d="m 496.12,258.96 h -2.87 a 2.37,2.37 0 0 1 -2.36,-2.37 v -1.81 a 2.37,2.37 0 0 1 2.36,-2.37 h 2.87 z"
     id="path379" />
  <rect
     class="cls-39"
     x="494.04999"
     y="257.5"
     width="9.3100004"
     height="1.46"
     rx="0.58999997"
     id="rect381" />
  <rect
     class="cls-39"
     x="494.04999"
     y="254.96001"
     width="9.3100004"
     height="1.46"
     rx="0.58999997"
     id="rect383" />
  <rect
     class="cls-39"
     x="494.04999"
     y="252.40999"
     width="9.3100004"
     height="1.46"
     rx="0.58999997"
     id="rect385" />
  <path
     class="cls-27"
     d="m 576.89,411.43 h -51.91 a 6.29,6.29 0 0 1 6.29,-6.29 h 39.33 a 6.28,6.28 0 0 1 6.29,6.29 z"
     id="path387" />
  <path
     class="cls-22"
     d="m 496.82,265.44 v 0 a 0.7,0.7 0 0 1 -0.7,-0.7 v -10.17 a 0.7,0.7 0 1 1 1.4,0 v 10.17 a 0.7,0.7 0 0 1 -0.7,0.7 z"
     id="path389" />
  <path
     class="cls-22"
     d="m 498.11,264.62 v 0 a 0.59,0.59 0 0 1 -0.59,-0.59 v -11.27 a 0.6,0.6 0 0 1 0.59,-0.6 0.59,0.59 0 0 1 0.59,0.6 v 11.27 a 0.58,0.58 0 0 1 -0.59,0.59 z"
     id="path391" />
  <path
     class="cls-22"
     d="m 499.29,264.46 v 0 a 0.6,0.6 0 0 1 -0.59,-0.59 v -11.28 a 0.6,0.6 0 0 1 1.19,0 v 11.28 a 0.6,0.6 0 0 1 -0.6,0.59 z"
     id="path393" />
  <path
     class="cls-22"
     d="m 501.43,264.46 v 0 a 0.6,0.6 0 0 1 -0.59,-0.59 v -11.28 a 0.6,0.6 0 0 1 1.19,0 v 11.28 a 0.6,0.6 0 0 1 -0.6,0.59 z"
     id="path395" />
  <path
     class="cls-22"
     d="m 500.48,259.66 v 0 a 0.59,0.59 0 0 1 -0.59,-0.6 v -6.47 a 0.58,0.58 0 0 1 0.59,-0.59 0.59,0.59 0 0 1 0.59,0.59 v 6.47 a 0.6,0.6 0 0 1 -0.59,0.6 z"
     id="path397" />
  <path
     class="cls-41"
     d="m 545.02,254.96 v 0 a 10.41,10.41 0 0 1 -10.41,-10.41 v -19 h 20.82 v 19 a 10.41,10.41 0 0 1 -10.41,10.41 z"
     id="path399" />
  <path
     class="cls-42"
     d="m 545.43,251.84 h -0.75 a 7.25,7.25 0 0 1 -7.26,-7.25 v -1.29 h 15.27 v 1.29 a 7.25,7.25 0 0 1 -7.26,7.25 z"
     id="path401" />
  <polyline
     class="cls-1"
     points="590.91 311.66 590.91 335.24 592.26 335.24 592.26 311.66"
     id="polyline403"
     transform="translate(-46.57,-56.7)" />
  <polyline
     class="cls-1"
     points="587.75 335.32 595.43 335.32 595.43 333.96 587.75 333.96"
     id="polyline405"
     transform="translate(-46.57,-56.7)" />
  <rect
     class="cls-1"
     x="571.65997"
     y="210.27"
     width="35.400002"
     height="29.58"
     rx="10.46"
     id="rect407" />
  <path
     class="cls-13"
     d="m 581.02,220.66 a 5,5 0 0 1 1.31,-1.77 l 0.31,-0.27 v 0 a 4.94,4.94 0 0 1 1.26,-0.67 5.14,5.14 0 0 1 3.84,0.13 5,5 0 0 1 1.59,1.1 4.85,4.85 0 0 1 1.58,-1.1 5.14,5.14 0 0 1 3.84,-0.13 4.92,4.92 0 0 1 1.6,0.94 5,5 0 0 1 1.31,1.77 5.26,5.26 0 0 1 0.44,2.09 5.06,5.06 0 0 1 -0.31,1.76 5.22,5.22 0 0 1 -0.94,1.6 v 0 l -5.95,5.73 a 2.21,2.21 0 0 1 -0.72,0.46 2.17,2.17 0 0 1 -0.82,0.16 2.1,2.1 0 0 1 -0.82,-0.16 2.15,2.15 0 0 1 -0.73,-0.46 l -6,-5.73 v 0 a 5.22,5.22 0 0 1 -0.94,-1.6 5.06,5.06 0 0 1 -0.31,-1.76 5.26,5.26 0 0 1 0.46,-2.09 z"
     id="path409" />
  <path
     class="cls-1"
     d="m 587.43,236.14 v 6.36 a 6.79,6.79 0 0 0 6.78,6.79 h 3.93 a 1.7,1.7 0 1 0 0,-3.39 h -3.93 a 3.4,3.4 0 0 1 -3.39,-3.4 v -6.36 a 1.7,1.7 0 0 0 -3.39,0 z"
     id="path411" />
  <polyline
     class="cls-28"
     points="509.16 367.13 509.16 456.86 524.75 456.86 524.75 367.13"
     id="polyline413"
     transform="translate(-46.57,-56.7)" />
  <path
     class="cls-19"
     d="m 478.18,357.96 h -16.27 v -55.41 a 8.14,8.14 0 0 1 16.27,0 z"
     id="path415" />
  <path
     class="cls-19"
     d="m 493.75,402.87 h -29.81 a 1.36,1.36 0 0 1 -1.36,-1.36 v -10.84 h 21.7 a 10.84,10.84 0 0 1 10.84,10.84 1.36,1.36 0 0 1 -1.37,1.36 z"
     id="path417" />
  <rect
     class="cls-19"
     x="462.59"
     y="367.69"
     width="16.27"
     height="29.01"
     id="rect419" />
  <polyline
     class="cls-43"
     points="481.86 281.99 493.44 281.99 493.44 281.31 481.86 281.31"
     id="polyline421"
     transform="translate(-46.57,-56.7)" />
  <path
     class="cls-44"
     d="m 676.43,213.5 h -0.05 c -0.54,0.25 -5.34,2.37 -13.57,2.37 h -0.23 -9 v 0.68 h 1.13 7.86 0.23 c 8.9,0 13.88,-2.45 13.92,-2.47 l -0.3,-0.6 z"
     id="path423" />
  <line
     class="cls-45"
     x1="523.71997"
     y1="169.63"
     x2="520.38"
     y2="169.63"
     id="line425" />
  <rect
     class="cls-21"
     x="610.88"
     y="230.81001"
     width="25"
     height="1.67"
     id="rect427" />
  <circle
     class="cls-19"
     cx="614.64001"
     cy="228.53001"
     r="1.4400001"
     id="circle429" />
</svg>
