<svg id="Layer_1" data-name="Layer 1" xmlns="http://www.w3.org/2000/svg" xmlns:xlink="http://www.w3.org/1999/xlink" viewBox="0 0 1246 417.1">
 <style>
#aa{
    animation-name: sdiamondOpacity;
    animation-duration: 6s;
    animation-iteration-count: 1;
    animation-direction: alternate;
    
}
@keyframes sdiamondOpacity {
    0%   { opacity: 0; transform: translateY(10px); }
    30%   { opacity: 0; transform: translateY(10px); }
    31%  { opacity: 1;transform: translateX(0px); }
    100% { opacity: 1; }
}
#chef{ animation: ch .6s linear forwards;
transform-origin: bottom ;
transform-box: fill-box;

}
@keyframes ch{

    0%{ transform:translateX(0) ;}
    30%{ transform: translateX(50px) ;}
    70%{ transform:translateX(50px) rotateZ(15deg);}
    100%{ transform:translateX(50px) rotateZ(15deg);}

}
#sir{ animation: h 1.5s ease-in-out forwards;
    transform-origin: bottom ;
    transform-box: fill-box;
    
    }
    @keyframes h{
    
      
        0%{ transform: rotateZ(0deg);}
        50%{ transform: rotateZ(-5deg);}
        100%{ transform: rotateZ(-5deg);}
    
}
#hand{ animation: hd 1s linear forwards;
        transform-origin: 2%  82%  ;
        
        transform-box: fill-box;
        
        }
        @keyframes hd {
        
          
            0%{ transform: rotateZ(55deg);}
            50%{ transform: rotateZ(-5deg);}
            100%{ transform: rotateZ(-5deg);}
        
}
#thumb{ animation: td 1s linear forwards;
    transform-origin: 2%  82%  ;
    
    transform-box: fill-box;
    
    }
    @keyframes td {
    
      
        0%{ transform: rotateZ(55deg);}
        50%{ transform: rotateZ(-5deg);}
        100%{ transform: rotateZ(-5deg);}
    
}

#face2{ animation: h2 1.5s ease-in-out forwards;
    transform-origin: bottom ;
    transform-box: fill-box;
    
    }
    @keyframes h2 {
    
      
        0%{ transform: rotateZ(0deg);}
        50%{ transform: rotateZ(-3deg);}
        100%{ transform: rotateZ(-3deg);}
    
}

  </style>
  
  
  <defs>
    <clipPath id="clip-path">
      <path d="M687.7,427.5,611.3,134.2c-9.5-38.6,0-77.5,26.1-100.6,16.4-14.6,35-19.1,45.7-20.7Q788-12.75,892.6-38.2l44.8,147.9,49.5,190L998.7,345l-311,82.5h0L611.3,134.2c-9.5-38.6,0-77.5,26.1-100.6,16.4-14.6,35-19.1,45.7-20.7" style="fill: none"/>
    </clipPath>
  </defs>
  <rect x="76" y="276" width="1085" height="140" style="fill: #ffeec4"/>
  <path d="M110.1,0H1126.8A34.16,34.16,0,0,1,1161,34.1h0V279c-337.9,1.5-701.9,1.3-1085,0V34.1A34.14,34.14,0,0,1,110.1,0Z" style="fill: #ffdb94"/>
  <path d="M1005.7,254.7H975.4a4.76,4.76,0,1,0-.5,9.5h30.8a4.85,4.85,0,0,0,5-4.5,4.78,4.78,0,0,0-4.5-5h-.5" style="fill: #ffc873"/>
  <path d="M987.4,338H957.1a4.76,4.76,0,0,0,0,9.5h30.3a4.76,4.76,0,0,0,0-9.5" style="fill: #ffd57b"/>
  <path d="M987.4,237H957.1a4.76,4.76,0,0,0,0,9.5h30.3a4.76,4.76,0,0,0,0-9.5" style="fill: #ffc873"/>
  <path d="M972.3,413.1H758.1V107.6c0-58,43.7-104.3,97.5-104.3h19.2c53.8,0,97.5,48.1,97.5,104.3Z" style="fill: #ffeec4;stroke: #ffd400;stroke-miterlimit: 10;stroke-width: 3px"/>
    <g style="clip-path: url(#clip-path)">
  <g id="chef">
      <g id="chef-2" data-name="chef">
        <path d="M719.1,175.2l42.3-4.7a47.26,47.26,0,0,0,41.7-52.1l-5.7-51.1L776,69.7l5.7,51.1A25.5,25.5,0,0,1,759.3,149h-.1l-42.3,4.7Z" style="fill: #ff7d37"/>
        <path d="M719.5,178.2l42.3-4.7A50.38,50.38,0,0,0,806.3,118l-2.5-22.3-27.6,3.1,2.5,22.4A22.35,22.35,0,0,1,758.8,146l-42.3,4.7,3,27.5Z" style="fill: #fff8da"/>
        <polyline points="679 272.5 695.8 408.1 711.4 406.1 694.5 270.6" style="fill: #ff7d37"/>
        <path d="M710.1,273.7l.5-3.9-.5,3.9h0l.5-4-.5,4h.3a77.66,77.66,0,0,1,20.4,7.3,80.58,80.58,0,0,1,15.7,10.7,78.11,78.11,0,0,1,14.9,17.5,50.76,50.76,0,0,1,5.6,13.4,75.56,75.56,0,0,1,2.1,23.2,144.74,144.74,0,0,1-5.4,32c-1.2,4.2-2.4,7.8-3.2,10.1-.4,1.2-.8,2.2-1,2.8l-.2.7-.1.1h0l2.8,1.1-2.8-1.1h0l2.8,1.1-2.8-1.1h0l6.8,2.9-6.8-2.9h0l6.8,2.9-6.8-2.9,14.4,6a166.61,166.61,0,0,0,7.8-25.8,142.71,142.71,0,0,0,3.4-25.2,90,90,0,0,0-2.6-27.8,64.17,64.17,0,0,0-7.5-17.7,90.67,90.67,0,0,0-19.5-22.4,92.81,92.81,0,0,0-29-16.5,76.34,76.34,0,0,0-14-3.8l-2.1,15.4Z" style="fill: #ff7d37"/>
        <path d="M709.2,276.3l1.9-10.1-1.9,10.1h0l1.9-10.1-1.9,10.1h0l.9-4.7-.9,4.7h0l.9-4.7-.9,4.7h0a71.33,71.33,0,0,1,18,6.9,95.25,95.25,0,0,1,16.1,10.6,85.83,85.83,0,0,1,16.1,17.4,39.84,39.84,0,0,1,6.1,13.4,51.24,51.24,0,0,1,1.6,12.3,97.87,97.87,0,0,1-1.3,18c-.4,2.8-1,5.4-1.5,7.7s-1,4.5-1.4,6.5l20.6,4.4c.5-2.2,1.2-5.4,1.9-9.2A126.69,126.69,0,0,0,788,344a82,82,0,0,0-2.3-24.7,62.37,62.37,0,0,0-9.2-20.1,110.46,110.46,0,0,0-20.6-22,112.68,112.68,0,0,0-29-17,84.75,84.75,0,0,0-13.8-4.3Z" style="fill: #193441"/>
        <polyline points="677.2 279.5 690.1 383.5 711 380.9 698 277" style="fill: #193441"/>
        <path d="M726.8,411.8l-29.5,3.7a1.29,1.29,0,0,1-1.5-1.1h0l-1.3-10.7L716,401a10.79,10.79,0,0,1,12,9.4h0a1.31,1.31,0,0,1-1.2,1.4Z" style="fill: #193441"/>
        <g id="sir">
          <path d="M706,25.5a6.92,6.92,0,0,0-5.4,7.5l.4,4,.1,1.3v.1l.4,4h0l.1,1.3.4,4,1.2,11.5.6,5.4a5.64,5.64,0,0,1-11.2,1.3l-.6-5.4L690.9,49l-.4-4-.1-1.3h0l-.4-4-.1-.2-.1-1.2-.5-4.2a6.55,6.55,0,0,0-7.3-5.8h0a6.55,6.55,0,0,0-5.8,7.3l.5,4.2.1,1.2.1.2.4,3.8.1.2.1,1.3.4,3.9L679,62l.5,5.2a5.78,5.78,0,0,1-4.1,6.2,5.65,5.65,0,0,1-6.9-4h0a1.41,1.41,0,0,1-.1-.9l-.6-5.4-1.2-11.5-.4-4-.1-1.3h0l-.4-4h0l-.1-1.3-.4-4a6.75,6.75,0,0,0-6.3-6.1,6.58,6.58,0,0,0-7,6.4v.9l.5,4.2.1,1.2.1.2.4,3.9.1.2.1,1.4.4,3.9,1.3,11.7.5,5.2a5.78,5.78,0,0,1-4.1,6.2,5.65,5.65,0,0,1-6.9-4h0a1.41,1.41,0,0,1-.1-.9l-.6-5.4-1.2-11.5-.4-4-.2-1.4h0l-.4-4h0l-.1-1.3-.4-4a6.84,6.84,0,0,0-6.3-6.1,6.6,6.6,0,0,0-6.9,6.3,3.4,3.4,0,0,0,.1,1l.5,4.2.1,1.2.5,4.2,1.9,16.9.6,5.4,3.9,35.8h0l.6,5.4a35.49,35.49,0,0,0,39,31.3h0l16.2-1.8a35.49,35.49,0,0,0,31.3-39l-.6-5.4L718,63.4l-.6-5.4-1.8-17-.5-4.2-.1-1.2-.5-4.2a6.59,6.59,0,0,0-7.4-5.8h0Z" style="fill: #ff7d37"/>
          <rect x="666.8" y="136.19" width="31.7" height="18" transform="translate(-11.84 76.11) rotate(-6.33)" style="fill: #ff7d37"/>
          <path d="M652.5,102.4a5.63,5.63,0,0,1,11.2-1.2,2.36,2.36,0,1,0,4.7-.5v-.1a8,8,0,0,0-.3-1.5,10.39,10.39,0,0,0-11.2-7.6,8,8,0,0,0-1.5.3,10.39,10.39,0,0,0-7.6,11.2,2.37,2.37,0,0,0,2.6,2.1A2.33,2.33,0,0,0,652.5,102.4Z" style="fill: #681800"/>
          <path d="M685.1,98.8a5.64,5.64,0,0,1,11.2-1.4.35.35,0,0,0,.1.2,2.36,2.36,0,0,0,4.7-.5,8,8,0,0,0-.3-1.5A10.39,10.39,0,0,0,689.6,88a8,8,0,0,0-1.5.3,10.39,10.39,0,0,0-7.6,11.2,2.47,2.47,0,0,0,2.8,2,2.84,2.84,0,0,0,1.8-2.7Z" style="fill: #681800"/>
          <path d="M655.7,117.2a21.26,21.26,0,0,0,38.9-4.4Z" style="fill: #681800"/>
          <path d="M674,121.6l17.1-1.9a21.26,21.26,0,0,1-22.1,7.6A5.63,5.63,0,0,1,674,121.6Z" style="fill: #fc4c01"/>
          <path d="M652,121.6h0a2.38,2.38,0,0,0-1.6,2.9,2.49,2.49,0,0,0,3,1.6,8,8,0,0,0,5.5-5.6,3.59,3.59,0,0,0,.2-1.1h0a7.51,7.51,0,0,0-.9-4.6,8.46,8.46,0,0,0-3.2-3.3h0a2.35,2.35,0,1,0-2.3,4.1,3.1,3.1,0,0,1,1.7,3.1h0a.9.9,0,0,0-.1.5,3.47,3.47,0,0,1-2.3,2.4Z" style="fill: #681800"/>
          <path d="M699.5,117.6a3.16,3.16,0,0,1-2.3-2.3.9.9,0,0,1-.1-.5h0a3.1,3.1,0,0,1,1.7-3.1,2.35,2.35,0,0,0-2.3-4.1h0a8.46,8.46,0,0,0-3.2,3.3,7.37,7.37,0,0,0-.9,4.6h0a3.59,3.59,0,0,0,.2,1.1,8,8,0,0,0,5.5,5.6,2.4,2.4,0,0,0,1.4-4.6Z" style="fill: #681800"/>
          <path d="M682.2,144.7a61.43,61.43,0,0,0,12.8-1.6,30.05,30.05,0,0,0,3.2-1.1c.2-.1.2-.3.2-.5s-.3-.2-.5-.2h0a18.61,18.61,0,0,1-3.1,1,60.11,60.11,0,0,1-8.5,1.3c-1.2.1-2.3.2-3.1.2H682c-.2.1-.4.2-.3.3h0c.3.4.4.6.5.6Z" style="fill: #681800"/>
        </g>
        <rect x="650.09" y="153.5" width="82.6" height="101.7" transform="translate(-18.31 77.44) rotate(-6.33)" style="fill: #fff8da"/>
        <polyline points="708.5 151.1 721.9 259.2 730.3 258.1 717 150.1" style="fill: #507591"/>
        <polyline points="652.9 157.1 666.3 265.2 674.8 264.1 661.4 156" style="fill: #507591"/>
        <path d="M737.9,250l-82,9.5,2.1,16c1.5,11.9,11.2,20.8,21.5,19.9l45.1-4c14.2-1.4,17.4-11.3,15.9-23.1Z" style="fill: #193441"/>
        <path d="M802,76.6,780.3,79a3.4,3.4,0,0,1-3.8-3h0l-.5-4.4a7.86,7.86,0,0,1,6.9-8.7h.1L808.9,60a3.4,3.4,0,0,1,3.8,3l.1.2A12.09,12.09,0,0,1,802,76.6Z" style="fill: #ff7d37"/>
        <path d="M785.3,58.3l-21.5,2.4a9,9,0,0,1,8-10l3.5-.4a9,9,0,0,1,10,7.9v.1Z" style="fill: #f7d999"/>
        <path d="M783.6,58.5l-.1-.3-17.7,2v-.4a6.34,6.34,0,0,1,4.6-6.8,1.41,1.41,0,0,1,.9-.1l4.8-.5a6.34,6.34,0,0,1,6.8,4.6,1.41,1.41,0,0,1,.1.9V58l.1.7.5-.2h0l.3-.1-.1-.8h0a7.18,7.18,0,0,0-7.7-6.2l-4.8.5a7.18,7.18,0,0,0-6.2,7.7l.1.8.1.3L784,58.6l-.1-.3Z" style="fill: #e8b75a"/>
        <path d="M780.9,52a2.92,2.92,0,1,1-3.2-2.6h0A3.15,3.15,0,0,1,780.9,52Z" style="fill: #8e1b00"/>
        <path d="M781.3,58.8l-13.4,1.5-.1-1a4.64,4.64,0,0,1,4-5h0l4.5-.5a4.64,4.64,0,0,1,5,4h0Z" style="fill: #f7d999"/>
        <path d="M781.3,58.8l-.1-.3L768,60l-.1-.7a4.14,4.14,0,0,1,3.1-4.5l.6-.2,4.5-.5a4.06,4.06,0,0,1,4.5,3.6v.1l.1,1,.3-.1h0l.3.1v-1c-.1-.2-.1-.5-.2-.7a5,5,0,0,0-5.3-3.6l-4.5.5-.7.2a5,5,0,0,0-3.6,5.2l.2,1.4,14.3-1.5-.1-.3Z" style="fill: #e8b75a"/>
        <path d="M816.5,54.1l-37.3,4.1-.1-.6a11.94,11.94,0,0,1,10.6-13.2L803,42.9a12,12,0,0,1,13.3,10.6h0Z" style="fill: #f7d999"/>
        <path d="M813.8,54.4l-.1-.3-32.3,3.6.1.3.3-.1a10.39,10.39,0,0,1,7.6-11.2,8,8,0,0,1,1.5-.3l11-1.2A10.33,10.33,0,0,1,813,53a8,8,0,0,1,.3,1.5l.3-.1h0l.3-.1a9,9,0,0,0-.3-1.6,11,11,0,0,0-11.8-8.2l-11,1.2a9,9,0,0,0-1.6.3A11,11,0,0,0,781,57.8l.1.3,33-3.6-.1-.3Z" style="fill: #e8b75a"/>
        <path d="M809.1,46a2.92,2.92,0,0,1-5.8.6,2.81,2.81,0,0,1,2.5-3.1,3,3,0,0,1,3.3,2.5Z" style="fill: #8e1b00"/>
        <path d="M811.3,54.7l-27.3,3v-.5a7.71,7.71,0,0,1,6.9-8.6h0l11.7-1.3a7.71,7.71,0,0,1,8.6,6.9h0Z" style="fill: #f7d999"/>
        <path d="M811.3,54.7l-.1-.3-26.9,3v-.1a7.63,7.63,0,0,1,5.5-8.1,4.25,4.25,0,0,1,1.1-.2l11.7-1.3a7.63,7.63,0,0,1,8.1,5.5,4.25,4.25,0,0,1,.2,1.1v.5l.4-.1.3-.1v-.5a5,5,0,0,0-.2-1.2,8.17,8.17,0,0,0-8.8-6.1L791,48.2a5,5,0,0,0-1.2.2,8.17,8.17,0,0,0-6.1,8.8v.5l.1.3,27.9-3.1-.1-.3Z" style="fill: #e8b75a"/>
        <path d="M807.7,55.1l-.1-.3L787.8,57l-.1-.7a4.46,4.46,0,0,1,3.4-4.9l.7-.2L802.2,50a4.46,4.46,0,0,1,4.9,3.4,6.37,6.37,0,0,1,.2.7l.1,1h.3l-.1-.4.1.4.3-.2-.1-1c-.1-.3,0-.5-.1-.8a5.27,5.27,0,0,0-5.7-3.9l-10.4,1.3a2,2,0,0,1-.8.1,5.27,5.27,0,0,0-3.9,5.7l.2,1.4L808,55.4l-.1-.3Z" style="fill: #e8b75a"/>
        <path d="M798.8,44.3a2.82,2.82,0,1,1-3.1-2.5A2.87,2.87,0,0,1,798.8,44.3Z" style="fill: #8e1b00"/>
        <path d="M825.3,55.8l-71.2,7.9a6.23,6.23,0,0,1-6.8-5.4l83.4-9.2A6.21,6.21,0,0,1,825.3,55.8Z" style="fill: #fff8da"/>
        <path d="M851.7,55.3,735.6,68.2a4.29,4.29,0,0,1-4.8-3.8h0L855.4,50.5a4.15,4.15,0,0,1-3.7,4.8Z" style="fill: #0a293c"/>
        <path d="M778.2,383.9l-6.4,1.7,3.1,11.8,17.4-4.5a1.46,1.46,0,0,0,1.2-1.8C792.2,385.2,785.3,382.1,778.2,383.9Z" style="fill: #193441"/>
        <path d="M771.9,385.6l-10.1-3.7-3.6,10.5a1.91,1.91,0,0,0,1.1,2.3h0l10.1,3.6a3.42,3.42,0,0,0,2,.1l4.4-1.1C776,397.1,777.8,387.7,771.9,385.6Z" style="fill: #193441"/>
        <path d="M680.7,158.3l-.5-4.2a3,3,0,0,1,2.7-3.4l1.1-.1a3,3,0,0,1,3.4,2.7l.5,4.2a3,3,0,0,1-2.7,3.4l-1.1.1A3,3,0,0,1,680.7,158.3Z" style="fill: #193441"/>
        <path d="M681.6,154.1l-10-4.3a2.86,2.86,0,0,0-3.8,1.5,2.62,2.62,0,0,0-.2,1.5l1.3,10.8a3,3,0,0,0,3.3,2.6h0a2.51,2.51,0,0,0,1.4-.6l8.7-6.5a3,3,0,0,0,.6-4.1A4.37,4.37,0,0,0,681.6,154.1Z" style="fill: #193441"/>
        <path d="M685.7,153.6l8.8-6.4a2.9,2.9,0,0,1,4.1.6,3.51,3.51,0,0,1,.6,1.4l1.3,10.8a3.07,3.07,0,0,1-2.6,3.3,3.89,3.89,0,0,1-1.5-.2l-10-4.3a2.91,2.91,0,0,1-1.6-3.8A2.45,2.45,0,0,1,685.7,153.6Z" style="fill: #193441"/>
      </g>
    </g>
  </g>
  <path d="M1045.5,299.9h-30.4a4.76,4.76,0,0,0,0,9.5h30.4a4.76,4.76,0,0,0,0-9.5" style="fill: #ffd57b"/>
  <path d="M401.7,367.3H371.4a4.76,4.76,0,0,0,0,9.5h30.3a4.85,4.85,0,0,0,5-4.5,4.78,4.78,0,0,0-4.5-5h-.5" style="fill: #ffd57b"/>
  <path d="M418.7,347.5H388.3a4.76,4.76,0,0,0,0,9.5h30.4a4.76,4.76,0,0,0,0-9.5" style="fill: #ffd57b"/>
  <path d="M681.2.1C745.7.4,792.5.6,801,.6a33.83,33.83,0,0,1,5.9.5,40.47,40.47,0,0,1,15.8,6.5,114,114,0,0,0-29.2,19.8c-1.1,1.1-16.5,15.6-25,34.2a124.66,124.66,0,0,0-6.8,19.7c-.5,2.1-.8,3.8-1,5-2.2,44.5-2.9,78.4-3.1,100.7-.2,24.5,0,51.5.1,60.5.1,13.1.3,24.2.4,32.6q-73.65-.15-147.3-.2V244.5a312.12,312.12,0,0,0,6-38c4.7-50.4-4.2-93.3-13.9-124,1.1-15.2,5.4-40.2,22.5-63.8A112,112,0,0,1,638.5,3.6C652.8,2.5,667,1.3,681.2.1Z" style="fill: #ffdb94"/>
  <path d="M321.3,386.3H290.9a4.76,4.76,0,0,0,0,9.5h30.4a4.76,4.76,0,0,0,0-9.5" style="fill: #ffd57b"/>
  <path d="M257,320.4H226.7a4.85,4.85,0,0,0-5,4.5,4.78,4.78,0,0,0,4.5,5H257a4.85,4.85,0,0,0,5-4.5,4.78,4.78,0,0,0-4.5-5H257" style="fill: #ffd57b"/>
  <path d="M278.4,340.6H248a4.76,4.76,0,0,0,0,9.5h30.4a4.76,4.76,0,0,0,0-9.5" style="fill: #ffd57b"/>
  <path d="M348.9,367.3H318.5a4.76,4.76,0,0,0,0,9.5h30.4a4.76,4.76,0,0,0,0-9.5" style="fill: #ffd57b"/>
  <path d="M307.7,320.4H277.3a4.76,4.76,0,0,0,0,9.5h30.4a4.76,4.76,0,0,0,0-9.5" style="fill: #ffd57b"/>
  <path d="M587.4,297.2l23.5-17.1q73.65.15,147.3.2,0,32.79-.05,65.56,0,33-.13,66.09L584.6,411.5Z" style="fill: #ffeec4"/>
  <path d="M713,307.6H682.7a4.76,4.76,0,0,0,0,9.5H713a4.76,4.76,0,0,0,0-9.5" style="fill: #ffd57b"/>
  <path d="M734.3,327.9H704a4.76,4.76,0,0,0-.5,9.5h30.8a4.76,4.76,0,1,0,.5-9.5h-.5" style="fill: #ffd57b"/>
  <path d="M720.3,346.3H690a4.76,4.76,0,0,0-.5,9.5h30.8a4.76,4.76,0,1,0,.5-9.5h-.5" style="fill: #ffd57b"/>
  <path d="M1037,237h-30.3a4.85,4.85,0,0,0-5,4.5,4.78,4.78,0,0,0,4.5,5H1037a4.85,4.85,0,0,0,5-4.5,4.78,4.78,0,0,0-4.5-5h-.5" style="fill: #ffc873"/>
  <path d="M750,256.8H719.7a4.76,4.76,0,0,0-.5,9.5H750a4.76,4.76,0,1,0,.5-9.5H750" style="fill: #ffc873"/>
  <path d="M220.7,210.3H190.3a4.76,4.76,0,0,0,0,9.5h30.4a4.76,4.76,0,0,0,0-9.5" style="fill: #ffc873"/>
  <path d="M206.7,224.3H176.3a4.76,4.76,0,0,0,0,9.5h30.4a4.76,4.76,0,0,0,0-9.5" style="fill: #ffc873"/>
  <path d="M274.7,158.3H244.3a4.76,4.76,0,0,0,0,9.5h30.4a4.76,4.76,0,0,0,0-9.5" style="fill: #ffc873"/>
  <path d="M708.6,236.3H678.3a4.76,4.76,0,0,0,0,9.5h30.3a4.76,4.76,0,1,0,.5-9.5h-.5" style="fill: #ffc873"/>
  <path d="M763.1,413.1V110a140.17,140.17,0,0,1,14.2-50.8c4.4-8.8,10.3-20.2,22.4-30,5-4,13.5-8.8,15.3-9.8,6.7-3.8,9.6-5,11.3-5.6,3.4-1.2,6.4-1.8,12.4-3A95.84,95.84,0,0,1,849.5,9c2.6-.2,4.2-.2,11.5-.3,3.7,0,6.7-.1,8.5-.1" style="fill: none;stroke: #ffeec4;stroke-linecap: round;stroke-miterlimit: 10;stroke-width: 8px"/>
  <path d="M637.5,264H285.9c-14.4,0-26.1-10.4-26.1-23.3V22H663.6V240.7c0,12.9-11.7,23.3-26.1,23.3" style="fill: #ffeec4"/>
  <polygon points="337.3 55.1 291.5 55.1 259 22 304.8 22 337.3 55.1" style="fill: #ffc990"/>
  <polygon points="383.1 55.1 337.3 55.1 304.8 22 350.6 22 383.1 55.1" style="fill: #ff9300"/>
  <polygon points="428.6 55.1 382.8 55.1 350.3 22 396.1 22 428.6 55.1" style="fill: #ffc990"/>
  <polygon points="474.4 55.1 428.6 55.1 396.1 22 441.9 22 474.4 55.1" style="fill: #ff9300"/>
  <polygon points="520.4 55.1 474.6 55.1 442.1 22 487.9 22 520.4 55.1" style="fill: #ffc990"/>
  <polygon points="566.2 55.1 520.4 55.1 487.9 22 533.7 22 566.2 55.1" style="fill: #ff9300"/>
  <polygon points="611.7 55.1 565.9 55.1 533.4 22 579.2 22 611.7 55.1" style="fill: #ffc990"/>
  <polygon points="657.5 55.1 611.7 55.1 579.2 22 625 22 657.5 55.1" style="fill: #ff9300"/>
  <path d="M759.1,413.1V110a118.71,118.71,0,0,1,15.5-57.1c5.4-9.3,14.9-25.4,34.6-37.1A92.24,92.24,0,0,1,861.1,3.3" style="fill: none;stroke: #ffd400;stroke-miterlimit: 10;stroke-width: 3px"/>
  <path d="M324.4,74.6H304.5a12.93,12.93,0,0,1-12.9-12.9h0V55.1h45.8v6.6a13.08,13.08,0,0,1-13,12.9Z" style="fill: #ffc990"/>
  <path d="M370.2,74.6H350.3a12.93,12.93,0,0,1-12.9-12.9h0V55.1h45.8v6.6a13.08,13.08,0,0,1-13,12.9Z" style="fill: #ff9300"/>
  <path d="M415.7,74.6H395.8a12.93,12.93,0,0,1-12.9-12.9h0V55.1h45.8v6.6a13.08,13.08,0,0,1-13,12.9Z" style="fill: #ffc990"/>
  <path d="M461.4,74.6H441.5a12.93,12.93,0,0,1-12.9-12.9h0V55.1h45.8v6.6a12.89,12.89,0,0,1-13,12.9Z" style="fill: #ff9300"/>
  <path d="M507.5,74.6H487.6a12.93,12.93,0,0,1-12.9-12.9h0V55.1h45.8v6.6a13.08,13.08,0,0,1-13,12.9Z" style="fill: #ffc990"/>
  <path d="M553.3,74.6H533.4a12.93,12.93,0,0,1-12.9-12.9V55.1h45.8v6.6a13,13,0,0,1-13,12.9Z" style="fill: #ff9300"/>
  <path d="M598.8,74.6H578.9A12.93,12.93,0,0,1,566,61.7h0V55.1h45.8v6.6a13.08,13.08,0,0,1-13,12.9Z" style="fill: #ffc990"/>
  <polygon points="703.3 55.1 657.5 55.1 625 22 670.8 22 703.3 55.1" style="fill: #ffc990"/>
  <path d="M690.4,74.6H670.5a12.93,12.93,0,0,1-12.9-12.9h0V55.1h45.8v6.6a13.08,13.08,0,0,1-13,12.9Z" style="fill: #ffc990"/>
  <path d="M644.6,74.6H624.7a12.93,12.93,0,0,1-12.9-12.9h0V55.1h45.8v6.6a13.08,13.08,0,0,1-13,12.9Z" style="fill: #ff9300"/>
  <polyline points="294.5 55.4 581.9 55.4 581.9 54.8 294.5 54.8" style="fill: #fff8dd"/>
  <polyline points="669.8 54.8 604.3 54.8 604.3 55.4 669.8 55.4" style="fill: #fff8dd"/>
  <path d="M516,99.4a4.37,4.37,0,0,0-3.3,1.4l-61.8,61.6a4.74,4.74,0,0,0,6.7,6.7l61.8-61.6a4.65,4.65,0,0,0,0-6.7,4.76,4.76,0,0,0-3.4-1.4" style="fill: #fff6e3"/>
  <path d="M572.6,85.2a4.37,4.37,0,0,0-3.3,1.4L435.1,220.4a4.74,4.74,0,0,0,6.7,6.7h0L576,93.3a4.74,4.74,0,0,0,0-6.7,5.13,5.13,0,0,0-3.4-1.4" style="fill: #fff6e3"/>
  <path d="M566.8,137.4a4.76,4.76,0,0,0-3.4,1.4l-46.8,46.7a4.65,4.65,0,0,0,0,6.7,4.74,4.74,0,0,0,6.7,0h0l46.8-46.7a4.65,4.65,0,0,0,0-6.7,4.53,4.53,0,0,0-3.3-1.4" style="fill: #fff6e3"/>
  <path d="M314.2,166.7h47.9a9.35,9.35,0,0,1,9.3,9.3v50.2a9.35,9.35,0,0,1-9.3,9.3H314.2a9.35,9.35,0,0,1-9.3-9.3V176A9.35,9.35,0,0,1,314.2,166.7Z" style="fill: #fffcf1"/>
  <text transform="translate(312.82 221.15)" style="isolation: isolate;font-size: 14.59000015258789px;fill: #ffce7c;font-family: ArialMT, Arial">In Town!</text>
  <path d="M349,160.4a12.55,12.55,0,0,0-12.6-12.6h0a12.5,12.5,0,0,0-11.8,16.9h0A23.9,23.9,0,0,0,336,178l.5.3.5-.3a25,25,0,0,0,11.5-13.3h0A15.35,15.35,0,0,0,349,160.4Z" style="fill: #fc4c01"/>
  <path d="M341.6,160.4a5.7,5.7,0,0,1-11,0,.68.68,0,0,0-.8-.4.67.67,0,0,0-.4.7,6.84,6.84,0,0,0,8.5,4.8,7,7,0,0,0,4.8-4.8.59.59,0,0,0-.5-.7A.82.82,0,0,0,341.6,160.4Z" style="fill: #ffd400"/>
  <path d="M334.6,156.8a3.07,3.07,0,0,0-1-1.5,2.71,2.71,0,0,0-3.4,0,3.07,3.07,0,0,0-1,1.5.59.59,0,0,0,.5.7.57.57,0,0,0,.7-.4,1.56,1.56,0,0,1,.6-.8,1.52,1.52,0,0,1,2,0,1.56,1.56,0,0,1,.6.8.63.63,0,0,0,.8.4c.1,0,.3-.4.2-.7Z" style="fill: #ffd400"/>
  <path d="M342.7,156.8a3.07,3.07,0,0,0-1-1.5,2.85,2.85,0,0,0-3.5,0,3.07,3.07,0,0,0-1,1.5.59.59,0,0,0,.5.7.67.67,0,0,0,.7-.4,1.59,1.59,0,0,1,1.5-1.2,1.69,1.69,0,0,1,1,.3,1.56,1.56,0,0,1,.6.8c.1.3.4.6.7.5a.75.75,0,0,0,.5-.7Z" style="fill: #ffd400"/>
  <path d="M338.1,164.7a5.88,5.88,0,0,0,3.1-2.9l-.1.1c-.1.1-.2.1-.2,0l-.1-.1c-.3-2.6-3-2.1-3.5.3h0c-.4,1.1-.7,2.6-2,2.6H335A3.23,3.23,0,0,0,338.1,164.7Z" style="fill: #ffd400"/>
  <polyline points="0 416 1246 416 1246 411.4 0 411.4" style="fill: #ffd500"/>
  <path d="M1072.1,396.2a14.61,14.61,0,0,0-3.6.3,15.47,15.47,0,0,0-21.1-5.5,13,13,0,0,0-1.5,1,15.68,15.68,0,0,0-14.7-10.8h0a15.51,15.51,0,0,0-15.5,15.5v2.4A15.41,15.41,0,0,0,997,410.2a3.55,3.55,0,0,0-.2,1H1087A15.72,15.72,0,0,0,1072.1,396.2Z" style="fill: #cacc53"/>
  <path d="M259.5,408.8a17,17,0,0,0-6.3-23.3h0a17.25,17.25,0,0,0-19.3,1.5,17,17,0,0,0-26.5-17.5l-1.8-6A17.08,17.08,0,0,0,184.4,352h0a17.08,17.08,0,0,0-11.5,21.2l3.8,12.8-8.7-5a17.09,17.09,0,0,0-17.1,29.6l1.6.9H258Z" style="fill: #cacc53"/>
  <path d="M405.9,327.1h80.9a6.81,6.81,0,1,0,.6-13.6H406a6.81,6.81,0,0,0-.1,13.6" style="fill: #ffae3c"/>
  <path d="M409,323.8V404c0,4.1,3,7.4,6.8,7.4s6.8-3.3,6.8-7.4V323.8c0-4.1-3-7.4-6.8-7.4s-6.8,3.3-6.8,7.4" style="fill: #ffae3c"/>
  <path d="M631.3,327.1h80.9a6.81,6.81,0,1,0,.6-13.6H631.4a6.81,6.81,0,0,0-.6,13.6h.5" style="fill: #ffae3c"/>
  <path d="M634.4,323.8V404c0,4.1,3,7.4,6.8,7.4s6.8-3.3,6.8-7.4V323.8c0-4.1-3-7.4-6.8-7.4s-6.8,3.3-6.8,7.4" style="fill: #ffae3c"/>
  <path d="M698.4,323.8V404c0,4.1,3,7.4,6.8,7.4s6.8-3.3,6.8-7.4V323.8c0-4.1-3-7.4-6.8-7.4s-6.8,3.3-6.8,7.4" style="fill: #ffae3c"/>
  <path d="M470.6,323.8V404c0,4.1,3,7.4,6.8,7.4s6.8-3.3,6.8-7.4V323.8c0-4.1-3-7.4-6.8-7.4s-6.8,3.3-6.8,7.4" style="fill: #ffae3c"/>
  <rect x="435.3" y="217.6" width="29.8" height="18.9" style="fill: #ff8a00"/>
  <path d="M464.3,313.7H432.2a14.4,14.4,0,0,1-14.4-14.4h0V233.7h60.9v65.6a14.4,14.4,0,0,1-14.4,14.4Z" style="fill: #ff8a00"/>
  <path d="M478.8,313.7H430a12.25,12.25,0,0,1-12.2-12.2V275h61Z" style="fill: #193441"/>
  <g id="hand">
    <path d="M472.2,248.6a28.1,28.1,0,0,0,5,.4,46.67,46.67,0,0,0,12.8-1.9,40.39,40.39,0,0,0,11.9-6,48.29,48.29,0,0,0,8.6-8.3,56.29,56.29,0,0,0,9.7-19.8,108.48,108.48,0,0,0,3.7-29.6v-1.6l-15.6.2v1.4c0,12.6-1.7,21.9-4.2,28.8a35.91,35.91,0,0,1-6.5,11.8,26.21,26.21,0,0,1-5.5,5,27,27,0,0,1-8.3,3.7,30,30,0,0,1-6.7.8,13.4,13.4,0,0,1-2-.1h-.4l-.6,3.9.7-3.9h-.1l-.6,3.9.7-3.9-2.6,15.2Z" style="fill: #ff8a00"/>
    <path d="M471.6,252.3a36.42,36.42,0,0,0,5.7.4,47.5,47.5,0,0,0,14-2.1,43.79,43.79,0,0,0,17.4-10.2l-15.8-16.8a18.83,18.83,0,0,1-4.3,3.1,24.09,24.09,0,0,1-6.3,2.4,20.71,20.71,0,0,1-5,.5,9.7,9.7,0,0,1-1.7-.1h-.3l-.8,5.9,1-5.8h-.2l-.8,5.9,1-5.8Z" style="fill: #ffd400"/>
    <path d="M526.8,189.3H508.2v-9.8a9.82,9.82,0,0,1,9.8-9.8h8.8a9.8,9.8,0,1,1,0,19.6Z" style="fill: #ff8a00"/>
    <g id="thumb">
      <path d="M514.5,178.1a8.65,8.65,0,0,0,1.7-.7,17.57,17.57,0,0,0,5.3-4.1,12.94,12.94,0,0,0,2.3-3.9,13.86,13.86,0,0,0,1-5.3,28.25,28.25,0,0,0-.2-2.9,3.38,3.38,0,1,0-6.7.9v.1a11,11,0,0,1,.2,1.8,7.73,7.73,0,0,1-2.2,5.4,8.07,8.07,0,0,1-2.4,1.7c-.3.1-.5.3-.8.4l-.2.1h0a3.37,3.37,0,1,0,1.4,6.6h.2a1,1,0,0,0,.4-.1Z" style="fill: #ff8a00"/>
    </g>
  </g>
  <rect x="417.8" y="229.6" width="61" height="61" style="fill: #ffd400"/>
  <g id="food">
    <path d="M399.4,239.6a54,54,0,0,0-11.6,7.9,61.55,61.55,0,0,0-10.6,12.2,28,28,0,0,0-3.2,6.2,18.38,18.38,0,0,0-1.2,6.6,16.87,16.87,0,0,0,.8,5,14.4,14.4,0,0,0,2,3.9,18.66,18.66,0,0,0,5.1,5,25.1,25.1,0,0,0,4.6,2.4,39.59,39.59,0,0,0,7.7,2,59.33,59.33,0,0,0,8.4.6,75.87,75.87,0,0,0,15.1-1.6,91.15,91.15,0,0,0,23.8-8.4A75.43,75.43,0,0,0,461.6,265l-11.7-10.3a54.76,54.76,0,0,1-10.6,9.2,70.89,70.89,0,0,1-19.3,9,65.08,65.08,0,0,1-18.6,2.9,38.22,38.22,0,0,1-6.8-.6,16.15,16.15,0,0,1-3.6-1,5.07,5.07,0,0,1-1.6-.9,2.65,2.65,0,0,1-.6-.5c-.2-.2-.2-.3-.2-.3v-.2a3.08,3.08,0,0,1,.3-1.3,15.09,15.09,0,0,1,1.5-2.8,45.74,45.74,0,0,1,7.9-9.1,37.2,37.2,0,0,1,8.5-5.7l-7.4-13.8Z" style="fill: #ff8a00"/>
    <rect x="467.5" y="255.6" width="28.2" height="2.6" style="fill: #cab195"/>
    <path d="M457.9,255.4l-2-.6,2,.6h0l-2-.6,2,.6-.6-.1.6.1h0l-.6-.1.6.1h0a.35.35,0,0,0,.1-.2,1.21,1.21,0,0,1,.5-.5.37.37,0,0,1,.3-.1c.1,0,.3-.1.4-.1h.2v-.1l-.1.1h0v-.2l-.1.1h0l.1.1c.1.2.1.3.2.5v.3h0l2.2-.3-2.2.2h0l2.2-.3-2.2.2a3.41,3.41,0,0,0,6.8-.6,4.25,4.25,0,0,0-.2-1.1,8.8,8.8,0,0,0-.5-1.5,6.38,6.38,0,0,0-.8-1.4,7.15,7.15,0,0,0-5.7-2.9,8.49,8.49,0,0,0-3.8.9,7,7,0,0,0-1.9,1.5,8.55,8.55,0,0,0-1.5,2.2,6.12,6.12,0,0,0-.5,1.2,3.33,3.33,0,0,0,2.2,4.2,3.48,3.48,0,0,0,4.3-2.2Z" style="fill: #ff6900"/>
    <path d="M467.1,267.2H452.5a3.37,3.37,0,0,1-3.4-3.4v-7.1a4.69,4.69,0,0,1,4.7-4.7H467a6.91,6.91,0,0,1,6.9,6.9v1.4A6.65,6.65,0,0,1,467.1,267.2Z" style="fill: #ff8a00"/>
    <path d="M496.8,260.2h-2.9a2.43,2.43,0,0,1-2.4-2.4V256a2.43,2.43,0,0,1,2.4-2.4h2.9Z" style="fill: #cab195"/>
    <path d="M495.3,258.7h8.1a.65.65,0,0,1,.6.6v.3a.65.65,0,0,1-.6.6h-8.1a.65.65,0,0,1-.6-.6v-.3A.65.65,0,0,1,495.3,258.7Z" style="fill: #cab195"/>
    <path d="M495.3,256.2h8.1a.65.65,0,0,1,.6.6v.3a.65.65,0,0,1-.6.6h-8.1a.65.65,0,0,1-.6-.6v-.3A.65.65,0,0,1,495.3,256.2Z" style="fill: #cab195"/>
    <path d="M495.3,253.6h8.1a.65.65,0,0,1,.6.6v.3a.65.65,0,0,1-.6.6h-8.1a.65.65,0,0,1-.6-.6v-.3A.65.65,0,0,1,495.3,253.6Z" style="fill: #cab195"/>
    <path d="M497.4,266.7h0a.68.68,0,0,1-.7-.7h0V255.8a.7.7,0,0,1,1.4,0V266a.68.68,0,0,1-.7.7Z" style="fill: #f7d999"/>
    <path d="M498.4,266.5h0a.68.68,0,0,1-.7-.7h0V253.3a.68.68,0,0,1,.7-.7.67.67,0,0,1,.7.6h0v12.5a.71.71,0,0,1-.7.8Z" style="fill: #f7d999"/>
    <path d="M499.9,265.7h0a.65.65,0,0,1-.6-.6V253.8a.54.54,0,0,1,.7-.5.54.54,0,0,1,.5.5v11.3A.58.58,0,0,1,499.9,265.7Z" style="fill: #f7d999"/>
    <path d="M502.1,265.7h0a.65.65,0,0,1-.6-.6V253.8a.54.54,0,0,1,.7-.5.54.54,0,0,1,.5.5v11.3A.65.65,0,0,1,502.1,265.7Z" style="fill: #f7d999"/>
    <path d="M501.1,261h0a.68.68,0,0,1-.7-.7h0v-7.2a.75.75,0,0,1,.6-.7h0a.68.68,0,0,1,.7.7h0v7.2A.67.67,0,0,1,501.1,261Z" style="fill: #f7d999"/>
  </g>
  <path d="M424.4,230.1a36,36,0,0,0-5.6-.4,47.5,47.5,0,0,0-14,2.1A44.49,44.49,0,0,0,387.4,242l15.8,16.8a18.83,18.83,0,0,1,4.3-3.1,24.09,24.09,0,0,1,6.3-2.4,21.75,21.75,0,0,1,5-.5,9.7,9.7,0,0,1,1.7.1h.3l.8-5.9-1,5.8h.1l.8-5.9-1,5.8Z" style="fill: #ffd400"/>
  <g id="face2">
    <path d="M466.7,117.5v5.9a4,4,0,0,1-3.3,3.9,3.78,3.78,0,0,1-4.1-3.3V113.7a1.6,1.6,0,0,0-1.3-1.6c-1.4-.3-2.7-.5-4.1-.7a1.59,1.59,0,0,0-1.8,1.4h0v10.6a3.89,3.89,0,0,1-3.3,3.9,3.78,3.78,0,0,1-4.1-3.3V113.1a1.58,1.58,0,0,0-1.6-1.6h-.2c-1.4.2-2.8.4-4.1.7a1.71,1.71,0,0,0-1.3,1.6v9.7a3.89,3.89,0,0,1-3.3,3.9,3.78,3.78,0,0,1-4.1-3.3v-6.5a1.58,1.58,0,0,0-1.6-1.6,1.45,1.45,0,0,0-.7.2,45.87,45.87,0,0,0-25,40.8v33.3a34.83,34.83,0,0,0,34.8,34.8h22a34.83,34.83,0,0,0,34.8-34.8V157a45.87,45.87,0,0,0-25-40.8,1.64,1.64,0,0,0-2.2.7c-.4.1-.4.4-.5.6Z" style="fill: #ff8a00"/>
    <path d="M429.7,170.1a5.6,5.6,0,1,1,11.2,0h0a2.35,2.35,0,0,0,4.7,0,10.36,10.36,0,1,0-20.7-.7v.7a2.43,2.43,0,0,0,2.4,2.4A2.5,2.5,0,0,0,429.7,170.1Z" style="fill: #612f00"/>
    <path d="M470.3,185.1a21.28,21.28,0,0,1-27.8,11.3A21,21,0,0,1,431.2,185Z" style="fill: #612f00"/>
    <path d="M428.7,194.7a8,8,0,0,0,4.2-10.5,7.85,7.85,0,0,0-4.2-4.2,2.38,2.38,0,0,0-3,1.4,2.34,2.34,0,0,0,1.2,2.9,2.76,2.76,0,0,1,1.4,1.2,2.38,2.38,0,0,1,.5,1.8,3.74,3.74,0,0,1-.5,1.8,4.07,4.07,0,0,1-1.4,1.2,2.39,2.39,0,0,0-1.3,3.1,2.36,2.36,0,0,0,3.1,1.3Z" style="fill: #ffa625"/>
    <path d="M474.7,190.3a3.19,3.19,0,0,1-1.9-3,3.74,3.74,0,0,1,.5-1.8,3.33,3.33,0,0,1,1.4-1.2,2.38,2.38,0,0,0-1.8-4.4,8,8,0,0,0-4.2,10.5,7.85,7.85,0,0,0,4.2,4.2,2.39,2.39,0,0,0,3.1-1.3,2.51,2.51,0,0,0-1.3-3Z" style="fill: #ffa625"/>
    <path d="M462.5,170.1a5.6,5.6,0,1,1,11.2,0,2.4,2.4,0,1,0,4.8,0,10.36,10.36,0,0,0-20.7,0,2.35,2.35,0,0,0,4.7,0Z" style="fill: #612f00"/>
    <path d="M452.7,191.6H435.5a21.27,21.27,0,0,0,22.8,5.2A5.65,5.65,0,0,0,452.7,191.6Z" style="fill: #fc4c01"/>
  </g>
  <polyline points="417.8 253.4 422.5 253.4 422.5 252.7 417.8 252.7" style="fill: #fc4c01"/>
  <path d="M493.4,276.8H471.7a9.13,9.13,0,0,1,9.1-9.1h3.6a9.11,9.11,0,0,1,9,9.1Z" style="fill: #f7d999"/>
  <path d="M491.6,276.8v-.3H473.8v-.4a6.27,6.27,0,0,1,6.3-6.3H485a6.27,6.27,0,0,1,6.3,6.3v.8h.7v-.8a7,7,0,0,0-7-7h-4.8a7,7,0,0,0-7,7v1.1H492v-.3h-.4Z" style="fill: #e8b75a"/>
  <path d="M489.7,270.2a2.9,2.9,0,1,1-2.9-2.9h0A2.9,2.9,0,0,1,489.7,270.2Z" style="fill: #8e1b00"/>
  <path d="M489.3,276.8H475.8v-1a4.48,4.48,0,0,1,4.5-4.5h4.6a4.48,4.48,0,0,1,4.5,4.5v1Z" style="fill: #f7d999"/>
  <path d="M489.3,276.8v-.3H476.1v-.7a4.14,4.14,0,0,1,4.2-4.1h4.6a4.21,4.21,0,0,1,4.2,4.1h0v1h.7v-1A4.8,4.8,0,0,0,485,271h-4.6a4.89,4.89,0,0,0-4.9,4.8h0v1.4h14.2v-.3Z" style="fill: #e8b75a"/>
  <path d="M524.8,276.1H487.3v-.6a12,12,0,0,1,12-12h13.5a12,12,0,0,1,12,12Z" style="fill: #f7d999"/>
  <path d="M522.2,276.1v-.3H489.7v.3h.3a10.37,10.37,0,0,1,10.3-10.4h11.2a10.31,10.31,0,0,1,10.3,10.4h.7a11,11,0,0,0-11-11H500.3a11,11,0,0,0-11,11v.3h33.2v-.3Z" style="fill: #e8b75a"/>
  <path d="M518.4,267.3a2.9,2.9,0,1,1-2.9-2.9h0a2.9,2.9,0,0,1,2.9,2.9Z" style="fill: #8e1b00"/>
  <path d="M519.7,276.1H492.2v-.5a8,8,0,0,1,7.8-7.9h11.8a7.83,7.83,0,0,1,7.8,7.9Z" style="fill: #f7d999"/>
  <path d="M519.7,276.1v-.3H492.6v-.1a7.55,7.55,0,0,1,7.5-7.5h11.8a7.55,7.55,0,0,1,7.5,7.5h0v.5h.7v-.5a8.24,8.24,0,0,0-8.2-8.2H500.1a8.24,8.24,0,0,0-8.2,8.2h0v.8H520v-.3h-.3Z" style="fill: #e8b75a"/>
  <path d="M516.1,276.1v-.3H496.2v-.7a4.65,4.65,0,0,1,4.6-4.6h10.5a4.5,4.5,0,0,1,4.5,4.6v1h.7v-1a5.16,5.16,0,0,0-5.2-5.2H500.8a5.16,5.16,0,0,0-5.2,5.2v1.4h20.9v-.3Z" style="fill: #e8b75a"/>
  <path d="M508.4,264.4a2.9,2.9,0,1,1-2.9-2.9h0a3,3,0,0,1,2.9,2.9Z" style="fill: #8e1b00"/>
  <path d="M533.3,278.8H461.6a6.06,6.06,0,0,1-6.1-6.1h83.8A6,6,0,0,1,533.3,278.8Z" style="fill: #fff"/>
  <path d="M595.4,276.8H573.7a9.11,9.11,0,0,1,9-9.1h3.6a9.2,9.2,0,0,1,9.1,9.1Z" style="fill: #f7d999"/>
  <path d="M593.6,276.8v-.3H575.8v-.4a6.27,6.27,0,0,1,6.3-6.3H587a6.27,6.27,0,0,1,6.3,6.3v.8h.7v-.8a7,7,0,0,0-7-7h-4.8a7,7,0,0,0-7,7v1.1H594v-.3h-.4Z" style="fill: #e8b75a"/>
  <path d="M591.7,270.2a2.9,2.9,0,1,1-2.9-2.9h0A2.9,2.9,0,0,1,591.7,270.2Z" style="fill: #8e1b00"/>
  <path d="M591.4,276.8H577.9v-1a4.48,4.48,0,0,1,4.5-4.5H587a4.48,4.48,0,0,1,4.5,4.5l-.1,1Z" style="fill: #f7d999"/>
  <path d="M591.4,276.8v-.3H578.2v-.7a4.14,4.14,0,0,1,4.2-4.1H587a4.21,4.21,0,0,1,4.2,4.1h0v1h.7v-1a4.8,4.8,0,0,0-4.8-4.8h-4.6a4.8,4.8,0,0,0-4.8,4.8h0v1.4h14.2v-.3Z" style="fill: #e8b75a"/>
  <path d="M626.8,276.1H589.3v-.6a12,12,0,0,1,12-12h13.5a12,12,0,0,1,12,12Z" style="fill: #f7d999"/>
  <path d="M624.3,276.1v-.3H591.8v.3h.3a10.24,10.24,0,0,1,10.4-10.3h11.2A10.31,10.31,0,0,1,624,276.2h.7a11,11,0,0,0-11-11H602.5a11,11,0,0,0-11,11v.3h33.2v-.3Z" style="fill: #e8b75a"/>
  <path d="M620.4,267.3a2.9,2.9,0,1,1-2.9-2.9h0a2.9,2.9,0,0,1,2.9,2.9Z" style="fill: #8e1b00"/>
  <path d="M621.7,276.1H594.3v-.5a8,8,0,0,1,7.8-7.9h11.8a7.83,7.83,0,0,1,7.8,7.9v.5Z" style="fill: #f7d999"/>
  <path d="M621.7,276.1v-.3H594.6v-.1a7.55,7.55,0,0,1,7.5-7.5h11.8a7.55,7.55,0,0,1,7.5,7.5h0v.5h.7v-.5a8.24,8.24,0,0,0-8.2-8.2H602.1a8.24,8.24,0,0,0-8.2,8.2h0v.8H622v-.3h-.3Z" style="fill: #e8b75a"/>
  <path d="M618.1,276.1v-.3H598.2v-.7a4.59,4.59,0,0,1,4.6-4.6h10.5a4.5,4.5,0,0,1,4.5,4.6v1h.7v-1a5.16,5.16,0,0,0-5.2-5.2H602.9a5.16,5.16,0,0,0-5.2,5.2v1.4h20.9v-.3Z" style="fill: #e8b75a"/>
  <path d="M610.4,264.4a2.9,2.9,0,1,1-2.9-2.9h0a3,3,0,0,1,2.9,2.9Z" style="fill: #8e1b00"/>
  <path d="M635.4,278.8H563.7a6.06,6.06,0,0,1-6.1-6.1h83.9A6.26,6.26,0,0,1,635.4,278.8Z" style="fill: #fff"/>
  <rect x="538.4" y="280.7" width="25.2" height="127.6" style="fill: #ffae3c"/>
  <rect x="538.4" y="285.4" width="25.2" height="11.8" style="fill: #ff8d00"/>
  <rect x="645.5" y="209.9" width="31" height="26.7" style="fill: #ffca4f"/>
  <path d="M664.2,216.2h-9a32.79,32.79,0,0,1-32.5-28.5l-4.3-32c-3.9-28.9,14.8-56.1,41.3-56.1s45.2,27.2,41.3,56.1l-4.3,32A32.79,32.79,0,0,1,664.2,216.2Z" style="fill: #ffca4f"/>
  <path d="M633.7,182.4a20.25,20.25,0,0,0,26.5,10.8,20.47,20.47,0,0,0,8.9-7.3,23.7,23.7,0,0,0,1.9-3.5,2.35,2.35,0,0,0-1.2-3.1h0a2.39,2.39,0,0,0-3.1,1.3,15.51,15.51,0,0,1-20.3,8.3,15.67,15.67,0,0,1-8.3-8.3,2.38,2.38,0,1,0-4.4,1.8Z" style="fill: #543000"/>
  <path d="M630.4,313.7h48.8a12.25,12.25,0,0,0,12.2-12.2V290.6h-61Z" style="fill: #33918e"/>
  <path d="M613.7,216.3h19.5a2.8,2.8,0,0,1,2.8,2.8v37.8a2.8,2.8,0,0,1-2.8,2.8H613.7a2.8,2.8,0,0,1-2.8-2.8V219A2.71,2.71,0,0,1,613.7,216.3Z" style="fill: #4c6169"/>
  <polygon points="630.4 290.7 691.4 290.7 678.4 230.9 643.3 230.9 630.4 290.7" style="fill: #fc4c01"/>
  <polyline points="648 312.1 648 401.8 663.6 401.8 663.6 312.1" style="fill: #ffca4f"/>
  <polyline points="618.8 312.1 618.8 401.8 634.4 401.8 634.4 312.1" style="fill: #ffca4f"/>
  <path d="M648,365.9h16.3V304.2a8.15,8.15,0,0,0-16.3-.5h0v62.2Z" style="fill: #33918e"/>
  <path d="M618.1,365.9h16.3V304.2a8.15,8.15,0,0,0-16.3-.5h0v62.2Z" style="fill: #33918e"/>
  <path d="M632.4,411.4h29.8a1.37,1.37,0,0,0,1.4-1.4V399.2H641.9A10.82,10.82,0,0,0,631.1,410h0a1.24,1.24,0,0,0,1.3,1.4Z" style="fill: #193441"/>
  <path d="M603.3,411.4h29.8a1.37,1.37,0,0,0,1.4-1.4V399.2H612.8A10.82,10.82,0,0,0,602,410h0a1.24,1.24,0,0,0,1.3,1.4Z" style="fill: #193441"/>
  <rect x="646.9" y="359.7" width="19.2" height="9.7" style="fill: #4eb0ac"/>
  <rect x="616.7" y="359.7" width="19.2" height="9.7" style="fill: #4eb0ac"/>
  <path d="M674.4,246.3a69.69,69.69,0,0,1,3.4,20.8,46,46,0,0,1-.9,9.1,29.11,29.11,0,0,1-1.6,5,12.29,12.29,0,0,1-1.4,2.5,5.81,5.81,0,0,1-1.8,1.7l-.6.3a4.33,4.33,0,0,0-.5.1,3.08,3.08,0,0,1-1.3-.3,11.4,11.4,0,0,1-1.9-1,22.73,22.73,0,0,1-4.9-4.4,65.56,65.56,0,0,1-9.1-14.7,178.34,178.34,0,0,1-9.5-25.2l-14.9,4.5a204.59,204.59,0,0,0,9,24.5,108.86,108.86,0,0,0,7.2,13.5,61.28,61.28,0,0,0,5.7,7.7,36.7,36.7,0,0,0,9.2,7.9,23.11,23.11,0,0,0,5.1,2.2,20.17,20.17,0,0,0,5.4.8,17.8,17.8,0,0,0,9.8-3,21,21,0,0,0,5.8-5.7,34.92,34.92,0,0,0,5.1-11.5,61.1,61.1,0,0,0,1.7-14.1,87.63,87.63,0,0,0-4.1-25.4Z" style="fill: #ffca4f"/>
  <path d="M670.4,249.2l1.6-7.4-1.9,7.4h.3l1.6-7.4-1.9,7.4.7-2.8-.8,2.8h.1l.7-2.8-.8,2.8.2-.6-.2.6h0l.2-.6-.2.6a3.55,3.55,0,0,1,.9.4,8.34,8.34,0,0,1,1.2.8,6.47,6.47,0,0,1,.8.9,6.06,6.06,0,0,1,1.1,2.1,15.93,15.93,0,0,1,.6,4.3,23.79,23.79,0,0,1-.7,5.9l22.6,4.7a62.56,62.56,0,0,0,1.2-10.6,43.62,43.62,0,0,0-.8-8.1,31.33,31.33,0,0,0-4.9-11.4,31.74,31.74,0,0,0-5.3-5.7,32.51,32.51,0,0,0-7.4-4.5,19.56,19.56,0,0,0-4.1-1.3Z" style="fill: #fc4c01"/>
  <polyline points="677 253.6 672.2 253.6 672.2 254.3 677 254.3" style="fill: #fc4c01"/>
  <path d="M637.8,162.4a1.49,1.49,0,0,1,1.3-1.4,1.32,1.32,0,0,1,1.3,1.3h0a2.35,2.35,0,0,0,4.7,0,6.06,6.06,0,0,0-12.1-.5v.5a2.43,2.43,0,0,0,2.4,2.4,2.23,2.23,0,0,0,2.4-2.3Z" style="fill: #543000"/>
  <path d="M664.8,162.4a1.28,1.28,0,0,1,.4-1,1.39,1.39,0,0,1,1.9,0,1.28,1.28,0,0,1,.4,1,2.35,2.35,0,0,0,4.7,0,6.06,6.06,0,0,0-12.1,0,2.35,2.35,0,0,0,4.7,0Z" style="fill: #543000"/>
  <path d="M643.6,219h32.2a3.9,3.9,0,0,1,3.9,3.9v4.9a3.9,3.9,0,0,1-3.9,3.9H643.6a3.9,3.9,0,0,1-3.9-3.9v-4.9A3.9,3.9,0,0,1,643.6,219Z" style="fill: #fc4c01"/>
  <path d="M690.4,115l-45.8-14.4,1.5-4.9a23.29,23.29,0,0,1,29-15.2l1.7.5A23.29,23.29,0,0,1,692,110Z" style="fill: #00b9e6"/>
  <path d="M666.1,99.4l-.7,2.4a9.93,9.93,0,0,1-12.4,6.5l-22.1-6.9a6.18,6.18,0,0,1-4-7.7v-.1a6.18,6.18,0,0,1,7.7-4Z" style="fill: #00b9e6"/>
  <path d="M620,246.3l17.6,9.1,6.7-12.9a3.13,3.13,0,0,0-1.3-4.2h0l-14.8-7.6a8.88,8.88,0,0,0-11.8,4.2A8.78,8.78,0,0,0,620,246.3Z" style="fill: #ffca4f"/>
  <polyline points="476.1 308.8 506.6 393.2 521.3 387.9 490.8 303.5" style="fill: #ff8a00"/>
  <circle cx="679.6" cy="173.1" r="3" style="fill: #ffe57f"/>
  <path d="M507.6,348l-15.3,5.5-18.9-52.1a8.13,8.13,0,0,1,15.3-5.5h0Z" style="fill: #193441"/>
  <path d="M399.8,292.2H702.1a6.8,6.8,0,0,0,0-13.6H399.8a6.8,6.8,0,1,0,0,13.6" style="fill: #ffae3c"/>
  <path d="M536.9,385.1l-28,10.1a1.26,1.26,0,0,1-1.7-.8h0l-3.7-10.2,20.4-7.4a11,11,0,0,1,13.9,6.5h0A1.55,1.55,0,0,1,536.9,385.1Z" style="fill: #193441"/>
  <rect x="500.02" y="359.12" width="16.3" height="29" transform="translate(-96.73 194.96) rotate(-19.87)" style="fill: #193441"/>
  <path d="M576.9,411.4H525a6.27,6.27,0,0,1,6.3-6.3h39.3a6.27,6.27,0,0,1,6.3,6.3Z" style="fill: #ffae3c"/>
  <path d="M545,255h0a10.46,10.46,0,0,1-10.4-10.4v-19h20.8v19A10.39,10.39,0,0,1,545,255Z" style="fill: #fffae8"/>
  <path d="M545.4,251.8h-.8a7.32,7.32,0,0,1-7.3-7.2h0v-1.3h15.3v1.3a7,7,0,0,1-7.2,7.2Z" style="fill: #f89e57"/>
  <polyline points="544.3 255 544.3 278.5 545.7 278.5 545.7 255" style="fill: #fff"/>
  <polyline points="541.2 278.6 548.9 278.6 548.9 277.3 541.2 277.3" style="fill: #fff"/>
  <g id="aa">
    <g id="b">
      <path d="M582.1,210.3h14.5a10.5,10.5,0,0,1,10.5,10.5v8.7A10.5,10.5,0,0,1,596.6,240H582.1a10.5,10.5,0,0,1-10.5-10.5v-8.7A10.56,10.56,0,0,1,582.1,210.3Z" style="fill: #fff"/>
      <path d="M581,220.7a4.63,4.63,0,0,1,1.3-1.8l.3-.3h0a5.39,5.39,0,0,1,1.3-.7,5,5,0,0,1,3.8.1,5.72,5.72,0,0,1,1.6,1.1,4.57,4.57,0,0,1,1.6-1.1,5,5,0,0,1,3.8-.1,5.07,5.07,0,0,1,1.6.9,4.63,4.63,0,0,1,1.3,1.8,5.22,5.22,0,0,1,.4,2.1,5.66,5.66,0,0,1-.3,1.8,5.07,5.07,0,0,1-.9,1.6h0l-6,5.7a3,3,0,0,1-.7.5,2.21,2.21,0,0,1-1.6,0,1.79,1.79,0,0,1-.7-.5l-6-5.7h0a5.07,5.07,0,0,1-.9-1.6,5.66,5.66,0,0,1-.3-1.8A4.48,4.48,0,0,1,581,220.7Z" style="fill: #fc4c01"/>
    </g>
    <g id="a">
      <path id="as" d="M587.4,236.1v6.4a6.81,6.81,0,0,0,6.8,6.8h3.9a1.7,1.7,0,1,0,.2-3.4h-4.2a3.37,3.37,0,0,1-3.4-3.4v-6.4a1.83,1.83,0,0,0-1.8-1.6A1.92,1.92,0,0,0,587.4,236.1Z" style="fill: #fff"/>
    </g>
  </g>
  <polyline points="462.6 310.4 462.6 400.2 478.2 400.2 478.2 310.4" style="fill: #ff8a00"/>
  <path d="M478.2,358H461.9V302.6a8.11,8.11,0,0,1,16.2,0V358Z" style="fill: #193441"/>
  <path d="M493.8,402.9H464a1.37,1.37,0,0,1-1.4-1.4V390.7h21.7a10.82,10.82,0,0,1,10.8,10.8h0a1.35,1.35,0,0,1-1.3,1.4Z" style="fill: #193441"/>
  <rect x="462.6" y="367.7" width="16.3" height="29" style="fill: #193441"/>
  <polyline points="435.3 225.3 446.9 225.3 446.9 224.6 435.3 224.6" style="fill: #eb5000"/>
  <path d="M676.4,213.5h0c-.5.3-5.3,2.4-13.6,2.4h-9.2v.7h9.2c8.9,0,13.9-2.5,13.9-2.5l-.3-.6Z" style="fill: #ff8200"/>
  <line x1="523.7" y1="169.6" x2="520.4" y2="169.6" style="fill: none;stroke: #eb5000;stroke-miterlimit: 10;stroke-width: 0.5px"/>
  <rect x="610.9" y="230.8" width="25" height="1.7" style="fill: #507591"/>
  <circle cx="614.6" cy="228.5" r="1.4" style="fill: #193441"/>
  <path d="M763.7,72.4" style="fill: #681800"/>
  <text transform="translate(323.8 190.92)" style="font-size: 14.59000015258789px;fill: #ffce7c;font-family: MyriadPro-Regular, Myriad Pro">Best</text>
  <g>
    <path d="M319.48,206.05V195.61h3.94a9.22,9.22,0,0,1,1.59.1,3.11,3.11,0,0,1,1.29.49,2.54,2.54,0,0,1,.83,1,3.38,3.38,0,0,1-.53,3.68,4.07,4.07,0,0,1-3.06.92h-2.68v4.24Zm1.38-5.47h2.7a2.87,2.87,0,0,0,1.9-.5,1.78,1.78,0,0,0,.57-1.41,1.84,1.84,0,0,0-.34-1.12,1.56,1.56,0,0,0-.87-.62,6,6,0,0,0-1.29-.09h-2.67Z" style="fill: #ffce7c"/>
    <path d="M334,205.12a4.89,4.89,0,0,1-1.37.86,4.09,4.09,0,0,1-1.41.24,2.8,2.8,0,0,1-1.92-.6,2,2,0,0,1-.67-1.56,2.2,2.2,0,0,1,.25-1,2,2,0,0,1,.67-.73,2.86,2.86,0,0,1,.92-.42,9.67,9.67,0,0,1,1.14-.2,11.54,11.54,0,0,0,2.29-.44v-.33a1.44,1.44,0,0,0-.36-1.11,2.14,2.14,0,0,0-1.46-.43,2.23,2.23,0,0,0-1.34.32,1.91,1.91,0,0,0-.63,1.12l-1.26-.17a3.06,3.06,0,0,1,.57-1.3,2.45,2.45,0,0,1,1.13-.77,5.23,5.23,0,0,1,1.72-.26,4.59,4.59,0,0,1,1.57.22,2.18,2.18,0,0,1,.89.58,2.06,2.06,0,0,1,.4.87,7.68,7.68,0,0,1,.06,1.18v1.71a19.48,19.48,0,0,0,.08,2.27,3.06,3.06,0,0,0,.33.9h-1.34A2.75,2.75,0,0,1,334,205.12Zm-.1-2.86a9.42,9.42,0,0,1-2.1.48,4.75,4.75,0,0,0-1.12.26,1.07,1.07,0,0,0-.5.41,1.11,1.11,0,0,0-.18.61,1.09,1.09,0,0,0,.39.86,1.66,1.66,0,0,0,1.13.34,2.69,2.69,0,0,0,1.32-.32,2,2,0,0,0,.85-.89,3.06,3.06,0,0,0,.21-1.28Z" style="fill: #ffce7c"/>
    <path d="M336.65,203.8l1.27-.2a1.78,1.78,0,0,0,.59,1.16,2.53,2.53,0,0,0,2.68.05,1.08,1.08,0,0,0,.42-.84.79.79,0,0,0-.37-.69,5.72,5.72,0,0,0-1.32-.43,11.28,11.28,0,0,1-1.95-.62,1.89,1.89,0,0,1-.83-.72,1.94,1.94,0,0,1-.28-1,2,2,0,0,1,.23-.94,2.19,2.19,0,0,1,.63-.72,2.74,2.74,0,0,1,.82-.37,3.92,3.92,0,0,1,1.11-.15,4.4,4.4,0,0,1,1.56.25,2.1,2.1,0,0,1,1,.7,2.61,2.61,0,0,1,.45,1.17l-1.26.17a1.35,1.35,0,0,0-.49-.91,1.82,1.82,0,0,0-1.16-.33,2.12,2.12,0,0,0-1.26.29.88.88,0,0,0-.38.69.71.71,0,0,0,.16.45,1.18,1.18,0,0,0,.49.34c.13.05.5.15,1.13.33a16.38,16.38,0,0,1,1.9.59,1.88,1.88,0,0,1,.84.67,1.85,1.85,0,0,1,.31,1.1,2.15,2.15,0,0,1-.37,1.21,2.35,2.35,0,0,1-1.08.87,3.87,3.87,0,0,1-1.6.31,3.57,3.57,0,0,1-2.25-.61A2.85,2.85,0,0,1,336.65,203.8Z" style="fill: #ffce7c"/>
    <path d="M347,205l.18,1.13a5.14,5.14,0,0,1-1,.11,2.19,2.19,0,0,1-1.09-.22,1.26,1.26,0,0,1-.54-.58,4.66,4.66,0,0,1-.16-1.51v-4.35h-.94v-1h.94v-1.88l1.28-.77v2.65H347v1h-1.29V204a2,2,0,0,0,.07.7.49.49,0,0,0,.22.25.78.78,0,0,0,.44.1A4.75,4.75,0,0,0,347,205Z" style="fill: #ffce7c"/>
    <path d="M353.15,205.17a4.89,4.89,0,0,1-1.37.86,4.11,4.11,0,0,1-1.42.24,2.75,2.75,0,0,1-1.91-.6,2,2,0,0,1-.67-1.56,2.08,2.08,0,0,1,.25-1,2.12,2.12,0,0,1,.66-.73,2.92,2.92,0,0,1,.93-.42,9.67,9.67,0,0,1,1.14-.2,11.56,11.56,0,0,0,2.28-.44c0-.17,0-.29,0-.33a1.44,1.44,0,0,0-.36-1.11,2.16,2.16,0,0,0-1.46-.43,2.21,2.21,0,0,0-1.34.32,1.91,1.91,0,0,0-.64,1.12L348,200.7a3.05,3.05,0,0,1,.56-1.3,2.5,2.5,0,0,1,1.13-.77,5.32,5.32,0,0,1,1.72-.26,4.66,4.66,0,0,1,1.58.22,2.18,2.18,0,0,1,.89.58,2.06,2.06,0,0,1,.4.87,7.68,7.68,0,0,1,.06,1.18v1.71a19.48,19.48,0,0,0,.08,2.27,2.8,2.8,0,0,0,.33.9h-1.34A2.54,2.54,0,0,1,353.15,205.17Zm-.11-2.86a9.17,9.17,0,0,1-2.09.48,4.75,4.75,0,0,0-1.12.26,1.1,1.1,0,0,0-.51.41,1.19,1.19,0,0,0-.17.61,1.13,1.13,0,0,0,.38.86,1.67,1.67,0,0,0,1.14.34A2.71,2.71,0,0,0,352,205a2.08,2.08,0,0,0,.85-.89,3.25,3.25,0,0,0,.2-1.28Z" style="fill: #ffce7c"/>
  </g>
</svg>
