<?xml version="1.0" encoding="UTF-8" standalone="no"?>
<svg
   xmlns:dc="http://purl.org/dc/elements/1.1/"
   xmlns:cc="http://creativecommons.org/ns#"
   xmlns:rdf="http://www.w3.org/1999/02/22-rdf-syntax-ns#"
   xmlns:svg="http://www.w3.org/2000/svg"
   xmlns="http://www.w3.org/2000/svg"
   xmlns:sodipodi="http://sodipodi.sourceforge.net/DTD/sodipodi-0.dtd"
   xmlns:inkscape="http://www.inkscape.org/namespaces/inkscape"
   id="Layer_1"
   enable-background="new 0 0 512 512"
   viewBox="0 0 511.99951 479.966"
   version="1.1"
   sodipodi:docname="home.svg"
   inkscape:version="1.0.1 (0767f8302a, 2020-10-17)">
  <metadata
     id="metadata1323">
    <rdf:RDF>
      <cc:Work
         rdf:about="">
        <dc:format>image/svg+xml</dc:format>
        <dc:type
           rdf:resource="http://purl.org/dc/dcmitype/StillImage" />
      </cc:Work>
    </rdf:RDF>
  </metadata>
  <defs
     id="defs1321" />
  <sodipodi:namedview
     pagecolor="#ffffff"
     bordercolor="#666666"
     borderopacity="1"
     objecttolerance="10"
     gridtolerance="10"
     guidetolerance="10"
     inkscape:pageopacity="0"
     inkscape:pageshadow="2"
     inkscape:window-width="1920"
     inkscape:window-height="1015"
     id="namedview1319"
     showgrid="false"
     inkscape:zoom="1.3964844"
     inkscape:cx="255.99975"
     inkscape:cy="239.983"
     inkscape:window-x="0"
     inkscape:window-y="36"
     inkscape:window-maximized="1"
     inkscape:current-layer="Layer_1" />
  <g
     id="g1316"
     transform="translate(-2.5e-4,-16.017)">
    <path
       d="M 426,495.983 H 86 c -25.364,0 -46,-20.635 -46,-46 v -242.02 c 0,-8.836 7.163,-16 16,-16 8.837,0 16,7.164 16,16 v 242.02 c 0,7.72 6.28,14 14,14 h 340 c 7.72,0 14,-6.28 14,-14 v -242.02 c 0,-8.836 7.163,-16 16,-16 8.837,0 16,7.164 16,16 v 242.02 c 0,25.364 -20.635,46 -46,46 z"
       id="path1310" />
    <path
       d="m 496,263.958 c -4.095,0 -8.189,-1.562 -11.313,-4.687 L 285.698,60.284 c -16.375,-16.376 -43.02,-16.376 -59.396,0 L 27.314,259.272 c -6.248,6.249 -16.379,6.249 -22.627,0 -6.249,-6.248 -6.249,-16.379 0,-22.627 L 203.675,37.656 c 28.852,-28.852 75.799,-28.852 104.65,0 l 198.988,198.988 c 6.249,6.249 6.249,16.379 0,22.627 -3.123,3.125 -7.218,4.687 -11.313,4.687 z"
       id="path1312" />
    <path
       d="M 320,495.983 H 192 c -8.837,0 -16,-7.164 -16,-16 v -142 c 0,-27.57 22.43,-50 50,-50 h 60 c 27.57,0 50,22.43 50,50 v 142 c 0,8.836 -7.163,16 -16,16 z m -112,-32 h 96 v -126 c 0,-9.925 -8.075,-18 -18,-18 h -60 c -9.925,0 -18,8.075 -18,18 z"
       id="path1314" />
  </g>
</svg>
