<?xml version="1.0" encoding="utf-8"?>
<!-- Generator: Adobe Illustrator 24.0.1, SVG Export Plug-In . SVG Version: 6.00 Build 0)  -->
<svg version="1.1" id="Layer_1" xmlns="http://www.w3.org/2000/svg" xmlns:xlink="http://www.w3.org/1999/xlink" x="0px" y="0px"
	 viewBox="0 0 88 113" style="enable-background:new 0 0 88 113;" xml:space="preserve">
<style type="text/css">
	.st0{fill:#E6E6E6;}
	.st1{fill:#FE4C00;}
	.st2{fill:#FFD505;}
</style>
<ellipse class="st0" cx="43.83" cy="106.63" rx="34.75" ry="6.55"/>
<g>
	<path class="st1" d="M88,44.21c0-6.09-1.24-11.91-3.47-17.19c-3.35-7.93-8.95-14.67-16-19.43c-7.04-4.76-15.55-7.54-24.69-7.54h0
		c-6.09,0-11.91,1.24-17.19,3.47c-7.93,3.35-14.67,8.95-19.43,16c-4.76,7.05-7.55,15.56-7.54,24.7c0,5.24,0.96,10.26,2.64,14.93
		l-0.06-0.01c0,0,7.62,28.55,39.88,46.54c0.54,0.3,1.08,0.64,1.62,0.96c0.54-0.32,1.08-0.66,1.62-0.96
		c31.94-17.88,40.04-46.54,40.04-46.54l-0.03,0C87.06,54.47,88,49.45,88,44.21z"/>
</g>
<g>
	<path class="st2" d="M61.99,36.51c-1.15,4.21-3.66,7.86-7.03,10.46c-3.37,2.6-7.57,4.15-12.16,4.15c-4.59,0-8.79-1.55-12.16-4.15
		c-3.36-2.6-5.87-6.26-7.03-10.47c-0.32-1.15-1.5-1.83-2.66-1.51c-1.15,0.32-1.83,1.5-1.51,2.66c1.41,5.13,4.46,9.58,8.55,12.74
		c4.09,3.16,9.24,5.05,14.8,5.05c5.57,0,10.71-1.89,14.8-5.05c4.09-3.16,7.14-7.61,8.55-12.74c0.32-1.15-0.36-2.34-1.51-2.66
		C63.49,34.68,62.3,35.36,61.99,36.51L61.99,36.51z"/>
	<path class="st2" d="M37.49,23.69c-0.58-2.1-1.83-3.92-3.5-5.22c-1.67-1.29-3.79-2.07-6.06-2.07c-2.27,0-4.39,0.77-6.06,2.07
		c-1.67,1.29-2.92,3.11-3.5,5.22c-0.32,1.15,0.36,2.34,1.51,2.66c1.15,0.32,2.34-0.36,2.66-1.51c0.32-1.18,1.03-2.21,1.98-2.94
		c0.95-0.73,2.12-1.16,3.42-1.17c1.29,0,2.47,0.43,3.42,1.17c0.95,0.73,1.65,1.76,1.98,2.94c0.32,1.15,1.5,1.83,2.66,1.51
		C37.13,26.03,37.81,24.84,37.49,23.69L37.49,23.69z"/>
	<path class="st2" d="M65.95,23.69c-0.58-2.1-1.83-3.92-3.5-5.22c-1.67-1.29-3.79-2.07-6.06-2.07c-2.27,0-4.39,0.77-6.06,2.07
		c-1.67,1.29-2.92,3.11-3.5,5.22c-0.32,1.15,0.36,2.34,1.51,2.66c1.15,0.32,2.34-0.36,2.66-1.51c0.32-1.18,1.03-2.21,1.98-2.94
		c0.95-0.73,2.12-1.16,3.42-1.17c1.29,0,2.47,0.43,3.42,1.17c0.95,0.73,1.65,1.76,1.98,2.94c0.32,1.15,1.5,1.83,2.66,1.51
		C65.59,26.03,66.27,24.84,65.95,23.69L65.95,23.69z"/>
	<path class="st2" d="M49.83,51.17c7.03-3.12,9.95-8,10.98-10.25c-0.11,0.09-0.23,0.17-0.53,0.47c-0.37,0.37-1,0.15-1.06-0.37
		c-1.02-9.18-10.43-7.37-12.32,1.04l-0.02,0.07c-1.4,3.83-2.37,9.01-6.93,8.99c-0.27,0-0.53-0.02-0.8-0.03
		C40.97,52.47,44.32,53.62,49.83,51.17z"/>
</g>
</svg>
