<?xml version="1.0" encoding="UTF-8" standalone="no"?>
<svg xmlns:dc="http://purl.org/dc/elements/1.1/" xmlns:cc="http://creativecommons.org/ns#"
  xmlns:rdf="http://www.w3.org/1999/02/22-rdf-syntax-ns#" xmlns:svg="http://www.w3.org/2000/svg"
  xmlns="http://www.w3.org/2000/svg" xmlns:sodipodi="http://sodipodi.sourceforge.net/DTD/sodipodi-0.dtd"
  xmlns:inkscape="http://www.inkscape.org/namespaces/inkscape" version="1.1" id="svg2" xml:space="preserve"
  viewBox="0 0 47.083931 39.222" sodipodi:docname="Final_logo.ai.svg" inkscape:version="1.0.1 (3bc2e813f5, 2020-09-07)">
  <metadata id="metadata8">
    <rdf:RDF>
      <cc:Work rdf:about="">
        <dc:format>image/svg+xml</dc:format>
        <dc:type rdf:resource="http://purl.org/dc/dcmitype/StillImage" />
        <dc:title />
      </cc:Work>
    </rdf:RDF>
  </metadata>
  <defs id="defs6">
    <clipPath clipPathUnits="userSpaceOnUse" id="clipPath18">
      <path d="M 0,216 H 449 V 0 H 0 Z" id="path16" />
    </clipPath>
  </defs>
  <sodipodi:namedview pagecolor="#ffffff" bordercolor="#666666" borderopacity="1" objecttolerance="10"
    gridtolerance="10" guidetolerance="10" inkscape:pageopacity="0" inkscape:pageshadow="2" inkscape:window-width="1920"
    inkscape:window-height="1014" id="namedview4" showgrid="false" inkscape:zoom="1.9927616" inkscape:cx="-28.860947"
    inkscape:cy="-60.044002" inkscape:window-x="0" inkscape:window-y="32" inkscape:window-maximized="1"
    inkscape:current-layer="g12" inkscape:document-rotation="0" />
  <g id="g10" inkscape:groupmode="layer" inkscape:label="Final_logo"
    transform="matrix(1.3333333,0,0,-1.3333333,-328.1943,83.955998)">
    <g id="g12">
      <g id="g888">
        <path
          d="m 260.6152,57.478 c -0.436,1.585 -1.377,2.955 -2.638,3.93 -1.259,0.976 -2.853,1.559 -4.568,1.559 -1.714,0 -3.308,-0.583 -4.567,-1.559 -1.262,-0.975 -2.203,-2.346 -2.638,-3.931 -0.237,-0.868 0.272,-1.763 1.14,-2.001 0.867,-0.238 1.762,0.272 2,1.139 0.244,0.889 0.775,1.665 1.489,2.217 0.716,0.552 1.6,0.878 2.576,0.878 0.977,0 1.861,-0.326 2.576,-0.878 0.714,-0.552 1.246,-1.328 1.49,-2.217 0.238,-0.866 1.134,-1.376 2.001,-1.138 0.868,0.238 1.377,1.134 1.139,2.001"
          style="fill:#fe4c00;fill-opacity:1;fill-rule:nonzero;stroke:none" id="path202" />
        <path
          d="m 281.2456,57.4775 c -0.436,1.586 -1.376,2.956 -2.637,3.931 -1.259,0.975 -2.853,1.559 -4.568,1.558 -1.714,10e-4 -3.308,-0.583 -4.568,-1.558 -1.261,-0.976 -2.202,-2.346 -2.638,-3.931 -0.238,-0.868 0.272,-1.764 1.139,-2.001 0.867,-0.239 1.763,0.271 2.001,1.138 0.244,0.889 0.776,1.665 1.49,2.218 0.716,0.552 1.6,0.877 2.576,0.878 0.976,-0.001 1.861,-0.326 2.576,-0.878 0.714,-0.552 1.246,-1.328 1.489,-2.217 0.238,-0.867 1.134,-1.377 2.001,-1.139 0.867,0.238 1.377,1.134 1.139,2.001"
          style="fill:#fe4c00;fill-opacity:1;fill-rule:nonzero;stroke:none" id="path206" />
        <path
          d="m 280.2612,48.9565 c -0.867,0.238 -1.763,-0.272 -2.001,-1.139 -0.374,-1.364 -0.948,-2.644 -1.669,-3.824 -0.205,0.023 -0.392,0.175 -0.418,0.413 -0.767,6.917 -7.86,5.552 -9.286,-0.783 l -0.015,-0.052 c -0.968,-2.656 -1.67,-6.167 -4.454,-6.698 -2.917,0.267 -5.585,1.363 -7.779,3.059 -2.536,1.961 -4.425,4.716 -5.295,7.887 -0.238,0.867 -1.134,1.377 -2,1.139 -0.868,-0.238 -1.378,-1.133 -1.14,-2.001 1.062,-3.868 3.361,-7.217 6.443,-9.601 3.081,-2.385 6.96,-3.807 11.155,-3.806 4.195,-10e-4 8.073,1.421 11.154,3.805 3.083,2.384 5.381,5.732 6.444,9.6 0.238,0.867 -0.272,1.763 -1.139,2.001"
          style="fill:#fe4c00;fill-opacity:1;fill-rule:nonzero;stroke:none" id="path210" />
      </g>
    </g>
  </g>
</svg>