<?xml version="1.0" encoding="utf-8"?>
<!-- Generator: Adobe Illustrator 24.0.1, SVG Export Plug-In . SVG Version: 6.00 Build 0)  -->
<svg version="1.1" id="Layer_1" xmlns="http://www.w3.org/2000/svg" xmlns:xlink="http://www.w3.org/1999/xlink" x="0px" y="0px"
	 viewBox="0 0 300 300" style="enable-background:new 0 0 300 300;" xml:space="preserve">
<style type="text/css">
	.st0{fill:none;}
	.st1{fill:#FFD617;}
</style>
<g>
	<path class="st0" d="M184.11,130.05c0-4.66-0.55-9.39-1.7-14.15c-3.34-13.75-11.07-25.09-21.42-33.14
		c-10.35-8.03-23.23-12.62-36.67-12.62c-4.66,0-9.39,0.55-14.16,1.7c-13.75,3.34-25.09,11.07-33.14,21.41
		c-8.03,10.35-12.62,23.23-12.62,36.67c0,4.66,0.55,9.39,1.7,14.16l0,0.01c3.34,13.74,11.07,25.09,21.41,33.14
		c10.35,8.03,23.23,12.62,36.68,12.62c4.66,0,9.39-0.55,14.16-1.7c13.75-3.34,25.09-11.07,33.14-21.41
		C179.52,156.37,184.11,143.49,184.11,130.05z"/>
	<path class="st1" d="M255.17,225.81L203.8,180.5c9.41-14.83,14.74-32.25,14.74-50.45c0-7.36-0.87-14.83-2.67-22.26l0,0
		c-5.21-21.51-17.52-39.63-33.76-52.22c-16.24-12.61-36.5-19.85-57.79-19.86c-7.36,0-14.84,0.87-22.27,2.67
		c-21.51,5.21-39.63,17.52-52.23,33.76c-12.61,16.24-19.85,36.5-19.86,57.79c0,7.36,0.87,14.84,2.67,22.28l0-0.01
		c5.2,21.51,17.51,39.63,33.76,52.23c16.24,12.61,36.5,19.85,57.79,19.86c7.36,0,14.84-0.87,22.27-2.67
		c12.61-3.05,24.01-8.6,33.85-15.89l52.07,45.93c7.13,6.29,18.01,5.61,24.3-1.52C262.99,242.99,262.3,232.1,255.17,225.81z
		 M138.35,188.13c-4.77,1.15-9.5,1.7-14.16,1.7c-13.45,0-26.33-4.59-36.68-12.62c-10.34-8.05-18.07-19.39-21.41-33.14l0-0.01
		c-1.16-4.77-1.7-9.5-1.7-14.16c0-13.44,4.59-26.32,12.62-36.67c8.05-10.34,19.39-18.07,33.14-21.41c4.77-1.15,9.5-1.7,14.16-1.7
		c13.44,0,26.32,4.59,36.67,12.62c10.34,8.05,18.07,19.39,21.42,33.14c1.15,4.76,1.7,9.5,1.7,14.15c0,13.45-4.59,26.33-12.62,36.67
		C163.44,177.06,152.1,184.79,138.35,188.13z"/>
</g>
</svg>
