<svg id="Layer_1" data-name="Layer 1" xmlns="http://www.w3.org/2000/svg" viewBox="0 0 300 300"><defs><style>.cls-1{fill:#fe4c00;}</style></defs><title>WebIcons</title><path class="cls-1" d="M129.59,76a58.75,58.75,0,1,1-58.74,58.75A58.82,58.82,0,0,1,129.59,76m0-19a77.75,77.75,0,1,0,77.75,77.75A77.75,77.75,0,0,0,129.59,57Z"/><path class="cls-1" d="M99.47,126.86a33.87,33.87,0,0,1,32.21-23.39,8.5,8.5,0,0,0,0-17A50.91,50.91,0,0,0,83.3,121.61a8.5,8.5,0,1,0,16.17,5.25Z"/><path class="cls-1" d="M169.84,191.34l58.56,55.18a9.5,9.5,0,0,0,13-13.83l-58.56-55.18a9.5,9.5,0,1,0-13,13.83"/></svg>