<?xml version="1.0" encoding="UTF-8" standalone="no"?>
<svg
   xmlns:dc="http://purl.org/dc/elements/1.1/"
   xmlns:cc="http://creativecommons.org/ns#"
   xmlns:rdf="http://www.w3.org/1999/02/22-rdf-syntax-ns#"
   xmlns:svg="http://www.w3.org/2000/svg"
   xmlns="http://www.w3.org/2000/svg"
   xmlns:sodipodi="http://sodipodi.sourceforge.net/DTD/sodipodi-0.dtd"
   xmlns:inkscape="http://www.inkscape.org/namespaces/inkscape"
   id="Layer_1"
   data-name="Layer 1"
   viewBox="0 0 323.43439 365.43003"
   version="1.1"
   sodipodi:docname="suggest-dish-desktop.svg"
   inkscape:version="1.0.1 (0767f8302a, 2020-10-17)"
   >
  <metadata
     id="metadata148">
    <rdf:RDF>
      <cc:Work
         rdf:about="">
        <dc:format>image/svg+xml</dc:format>
        <dc:type
           rdf:resource="http://purl.org/dc/dcmitype/StillImage" />
        <dc:title></dc:title>
      </cc:Work>
    </rdf:RDF>
  </metadata>
  <defs
     id="defs146" />
  <sodipodi:namedview
     pagecolor="#ffffff"
     bordercolor="#666666"
     borderopacity="1"
     objecttolerance="10"
     gridtolerance="10"
     guidetolerance="10"
     inkscape:pageopacity="0"
     inkscape:pageshadow="2"
     inkscape:window-width="1920"
     inkscape:window-height="1014"
     id="namedview144"
     showgrid="false"
     fit-margin-top="0"
     fit-margin-left="0"
     fit-margin-right="0"
     fit-margin-bottom="0"
     inkscape:zoom="1.9567597"
     inkscape:cx="191.6"
     inkscape:cy="182.73"
     inkscape:window-x="0"
     inkscape:window-y="32"
     inkscape:window-maximized="1"
     inkscape:current-layer="Layer_1"
     inkscape:document-rotation="0" />
  <style
     id="style2">body{
    margin: 0;
    padding: 0;
  }
  #a {
    animation-name: diamondMovesBack;
    animation-duration: 3s;
    animation-iteration-count: infinite;
    animation-timing-function: linear;
    animation-direction: alternate;
    transform-origin: left 4px;
    transform-box: fill-box;
    
    
}
@keyframes diamondMovesBack {
    10%   { transform:  rotate(2deg); }
    25%   { transform:  rotate(5deg); }
    45%   { transform:  rotate(1deg); }
    55%   { transform:  rotate(3deg); }
    65%   { transform:  rotate(0deg); }
    70%   { transform:  rotate(1deg); }
    80%   { transform:  rotate(3deg); }
    90%   { transform:  rotate(0deg); }
    95%   { transform:  rotate(3deg); }
    100%   { transform:  rotate(5deg); }
}

#b {
    animation-name: bdiamondMovesBack;
    animation-duration: 4.5s;
    animation-timing-function:linear ;
    animation-iteration-count: infinite;
    transform-origin: 50% 50%;
    animation-direction: initial;
}
@keyframes bdiamondMovesBack {
    0%   { opacity: .35; transform: translate(0, 20px); }
    10%  {opacity: 1;} 
    90%  {opacity: 1;}
    100% { opacity: 0; transform: translate(0, -25px); }
}
#aa {
    animation-name: smoke1;
    animation-duration: 4.5s;
    animation-timing-function:linear ;
    animation-iteration-count: infinite;
    transform-origin: 50% 50%;
    animation-direction: initial;
}
@keyframes smoke1 {
    0%   { opacity: .35; transform: translate(0, 10px); }
    10%{opacity: 1;} 
90%{opacity: 1;}
    100% { opacity: 0; transform: translate(0px, -30px); }
}
#bb {
    animation-name: smoke2;
    animation-duration: 4.5s;
    animation-timing-function:linear ;
    animation-delay: 2s;
    animation-iteration-count: infinite;
    transform-origin: 50% 50%;
    animation-direction: initial;
}
@keyframes smoke2 {
    0%   { opacity: .35; transform: translate(0, 15px); }
    10%{opacity: 1;} 
90%{opacity: 1;}
    100% { opacity: 0; transform: translate(0px, -35px); }
}
#cc {
    animation-name: smoke3;
    animation-duration: 4.5s;
    animation-timing-function:linear ;
    animation-delay: 3s;
    animation-iteration-count: infinite;
    transform-origin: 50% 50%;
    animation-direction: initial;
}
@keyframes smoke3 {
    0%   { opacity: .35; transform: translate(0, 10px); }
    10%{opacity: 1;} 
90%{opacity: 1;}
    100% { opacity: 0; transform: translate(0px, -30px); }
}
#eye{
    animation: blink 8s 1s linear infinite ;
    transform-origin: 50% 50%;
}

@keyframes blink{
    0%{opacity: 1;}
    1.5%{opacity: 0;}
    3%{opacity: 1;}
    20%{opacity: 1;}
    21%{opacity: 0;}
    22%{opacity: 1;}
    40%{opacity: 1;}
    
    70%{opacity: 1;}
    71%{opacity: 0;}
    72%{opacity: 1;}
}</style>
  <path
     d="m 80.599996,197.73 -0.85,0.95 a 40,40 0 0 0 -2.89,3.86 v 0 A 59.26,59.26 0 0 0 73.49,208.43 v 0 c -1.12,2.2 -2.17,4.62 -3.19,7 v 0 c -1,2.42 -2,4.81 -2.91,7.14 v 0 a 47.26,47.26 0 0 0 -2,6.49 v 0 a 29.19,29.19 0 0 0 -0.66,4.84 v 0 c 0,0.38 0,0.7 0,1 0,0.3 -2.22,20 -2.22,20.09 l 1.62,-0.05 c 0,-0.08 2.22,-19.94 2.22,-20 0,-0.06 0,-0.55 0,-0.9 v 0 a 26.66,26.66 0 0 1 0.62,-4.54 v 0 a 45.57,45.57 0 0 1 1.93,-6.28 v 0 c 0.85,-2.27 1.88,-4.68 2.89,-7.08 v 0 c 1,-2.39 2.05,-4.77 3.15,-6.93 v 0 a 54.74,54.74 0 0 1 3.259996,-5.72 v 0 a 38.55,38.55 0 0 1 2.78,-3.71 v 0 c 0.32,-0.36 0.57,-0.66 0.78,-0.88 z"
     style="fill:#f9e2b2"
     id="path4" />
  <polygon
     points=""
     style="fill:#f9e2b2"
     id="polygon6"
     transform="translate(-49.99,0.03)" />
  <polygon
     points="117,229.37 117,229.38 "
     style="fill:#f9e2b2"
     id="polygon8"
     transform="translate(-49.99,0.03)" />
  <line
     x1="78.239998"
     y1="203.39"
     x2="78.250008"
     y2="203.39"
     style="fill:none"
     id="line10" />
  <polygon
     points=""
     style="fill:#f9e2b2"
     id="polygon12"
     transform="translate(-49.99,0.03)" />
  <path
     d="m 77.759996,203.03 c 0,0 0.32,0.05 0.87,0.09 0.55,0.04 1.35,0.06 2.28,0 a 41.05,41.05 0 0 0 6.35,-0.65 c 0.54,-0.09 1.05,-0.21 1.57,-0.33 a 12.14,12.14 0 0 0 1.53,-0.55 19.11,19.11 0 0 0 3.57,-2.1 c 0.34,-0.26 0.74,-0.51 1.12,-0.82 0.38,-0.31 0.83,-0.59 1.27,-0.94 0.91,-0.66 1.9,-1.44 3,-2.3 C 101.57,193.7 104.32,191.59 107.56,188.95 l -1.49,0.11 c -0.94,0.06 -2.29,0.16 -3.9,0.34 a 47.37,47.37 0 0 0 -11.570004,2.6 25.76,25.76 0 0 0 -5.6,2.93 l -0.62,0.44 -0.58,0.47 c -0.38,0.31 -0.75,0.6 -1.09,0.93 l -0.5,0.46 -0.46,0.48 c -0.32,0.31 -0.59,0.63 -0.86,0.93 a 28.84,28.84 0 0 0 -2.35,3.14 c -0.51,0.79 -0.78,1.25 -0.78,1.25 z"
     style="fill:#ffefca"
     id="path14" />
  <path
     d="m 77.759996,203.03 a 7.29,7.29 0 0 1 -0.49,-0.74 10.71,10.71 0 0 1 -0.94,-2.14 10.78,10.78 0 0 1 -0.499996,-3.45 11.29,11.29 0 0 1 1.159996,-4.59 12.69,12.69 0 0 1 1.64,-2.5 15,15 0 0 1 2.46,-2.38 17.31,17.31 0 0 1 7.23,-3.15 17.66,17.66 0 0 1 2.17,-0.29 c 0.74,-0.06 1.49,-0.06 2.27,-0.05 a 23.88,23.88 0 0 1 4.75,0.69 34.53,34.53 0 0 1 10.090004,4.56 l -1.49,0.11 c -0.94,0.06 -2.29,0.16 -3.9,0.34 a 47.37,47.37 0 0 0 -11.610004,2.56 25.76,25.76 0 0 0 -5.6,2.93 l -0.62,0.44 -0.58,0.47 c -0.38,0.31 -0.75,0.6 -1.09,0.93 l -0.5,0.46 -0.46,0.48 c -0.32,0.31 -0.59,0.63 -0.86,0.93 a 28.84,28.84 0 0 0 -2.35,3.14 c -0.51,0.79 -0.78,1.25 -0.78,1.25 z"
     style="fill:#f9e2b2"
     id="path16" />
  <path
     d="m 71.22,151.49 c -0.16,0.44 -0.44,1.17 -0.76,2.12 -0.58,1.71 -1.32,4.19 -2.29,7.16 a 208.75,208.75 0 0 0 -5.27,21.96 v 0 l -0.29,1.49 -0.24,1.5 c -0.15,1 -0.3,2 -0.46,3 -0.16,1 -0.3,2 -0.44,2.94 -0.14,0.94 -0.22,1.91 -0.34,2.86 v 0 c -0.2,1.9 -0.43,3.72 -0.6,5.43 -0.17,1.71 -0.24,3.37 -0.35,4.87 -0.06,0.76 -0.11,1.48 -0.16,2.17 -0.05,0.69 0,1.32 -0.07,1.93 v 0 c 0,1.23 -0.08,2.3 -0.1,3.17 -0.02,0.87 0.88,38.55 0.88,39 l 2.25,-0.17 c 0,-0.47 -0.88,-38.21 -0.88,-39.13 0,-0.92 0.06,-1.91 0.1,-3.12 v 0 c 0,-0.58 0,-1.23 0.07,-1.93 v 0 c 0,-0.68 0.1,-1.4 0.15,-2.14 0.11,-1.49 0.23,-3.08 0.35,-4.8 v 0 c 0.17,-1.72 0.4,-3.52 0.6,-5.38 v 0 c 0.11,-0.92 0.2,-1.87 0.34,-2.85 v 0 c 0.14,-1 0.29,-1.92 0.44,-2.9 0.15,-0.98 0.29,-2 0.44,-2.95 v 0 l 0.23,-1.5 0.29,-1.49 a 204.93,204.93 0 0 1 5.24,-21.74 v 0 c 0.93,-2.92 1.68,-5.36 2.26,-7.08 v 0 c 0.29,-0.8 0.52,-1.43 0.68,-1.89 z"
     style="fill:#f9e2b2"
     id="path18" />
  <path
     d="m 68.3,164.26 a 16.2,16.2 0 0 0 1.61,-0.58 38.59,38.59 0 0 0 4.09,-2 39.07,39.07 0 0 0 5.539996,-3.71 c 1,-0.78 1.93,-1.66 3,-2.6 a 35.58,35.58 0 0 0 3,-3.15 51.57,51.57 0 0 0 9.89,-19.49 c 0.31,-1.09 0.6,-2.2 0.88,-3.4 0.28,-1.2 0.58,-2.38 0.83,-3.65 0.25,-1.27 0.5,-2.58 0.7,-4 0.2,-1.42 0.49,-2.77 0.69,-4.24 0.2,-1.47 0.36,-3 0.56,-4.59 0.2,-1.59 0.39,-3.21 0.55,-4.92 0.08,-0.88 0.15,-1.73 0.23,-2.64 0.08,-0.91 0.180004,-1.76 0.270004,-2.69 q 0.26,-2.75 0.44,-5.74 l -1.850004,2.87 c -1.18,1.74 -2.9,4.2 -4.76,7.25 -0.48,0.76 -1,1.55 -1.49,2.36 -0.49,0.81 -1,1.67 -1.54,2.55 l -3.22,5.55 -3.22,6 -0.81,1.59 -0.77,1.57 -1.54,3.13 A 222.59,222.59 0 0 0 71.69,153.35 c -1.1,3.27 -1.93,6 -2.55,7.91 a 29,29 0 0 0 -0.84,3 z"
     style="fill:#ffefca"
     id="path20" />
  <path
     d="m 68.3,164.26 a 12,12 0 0 1 -1.17,-1 18.71,18.71 0 0 1 -2.64,-3.05 23,23 0 0 1 -4,-13.09 c -0.1,-6 1.86,-13.77 7.91,-22.66 0.75,-1.1 1.56,-2.23 2.43,-3.37 0.87,-1.14 1.87,-2.27 2.9,-3.43 1.03,-1.16 2.11,-2.32 3.259996,-3.52 1.15,-1.2 2.46,-2.32 3.78,-3.51 1.32,-1.19 2.7,-2.36 4.2,-3.52 1.5,-1.16 3.08,-2.32 4.72,-3.47 0.82,-0.58 1.66,-1.16 2.52,-1.73 0.86,-0.57 1.78,-1.12 2.69,-1.68 q 2.74,-1.68 5.690004,-3.31 l -1.820004,2.81 c -1.18,1.73 -2.9,4.2 -4.76,7.24 l -1.49,2.37 c -0.52,0.81 -1,1.66 -1.54,2.55 l -3.22,5.55 -3.22,6 -0.85,1.59 -0.77,1.57 -1.54,3.13 A 222.59,222.59 0 0 0 71.69,153.35 c -1.1,3.27 -1.93,6 -2.55,7.91 a 29,29 0 0 0 -0.84,3 z"
     style="fill:#f9e2b2"
     id="path22" />
  <path
     d="m 41.85,176.82 c 0.22,0.44 0.58,1.11 1,2 0.81,1.61 1.92,3.95 3.28,6.76 a 207.59,207.59 0 0 1 8.32,21 v 0 l 0.5,1.44 0.44,1.45 c 0.3,1 0.59,1.93 0.88,2.89 0.29,0.96 0.58,1.91 0.88,2.85 0.3,0.94 0.49,1.86 0.74,2.78 v 0 c 0.47,1.85 1,3.62 1.37,5.28 0.37,1.66 0.71,3.29 1,4.77 0.17,0.73 0.32,1.44 0.47,2.11 0.15,0.67 0.23,1.29 0.34,1.91 v 0 c 0.22,1.21 0.4,2.26 0.55,3.13 0.15,0.87 1.88,18.21 2,18.67 l -2.26,0.15 c -0.08,-0.46 -1.81,-17.88 -2,-18.78 l -0.54,-3.08 v 0 c -0.11,-0.58 -0.21,-1.22 -0.35,-1.91 v 0 l -0.44,-2.09 c -0.31,-1.46 -0.66,-3 -1,-4.71 v 0 c -0.41,-1.67 -0.88,-3.42 -1.36,-5.23 v 0 c -0.23,-0.88 -0.46,-1.82 -0.73,-2.77 v 0 l -0.85,-2.81 -0.88,-2.86 v 0 l -0.44,-1.45 -0.5,-1.43 A 208.39,208.39 0 0 0 44.01,186.1 v 0 c -1.34,-2.76 -2.43,-5.07 -3.25,-6.69 v 0 l -0.93,-1.76 z"
     style="fill:#f9e2b2"
     id="path24" />
  <path
     d="m 46.6,189.06 c 0,0 -0.62,-0.09 -1.68,-0.36 a 37.58,37.58 0 0 1 -4.33,-1.39 39.87,39.87 0 0 1 -6,-2.89 c -1.09,-0.63 -2.15,-1.36 -3.3,-2.16 a 36.84,36.84 0 0 1 -3.4,-2.69 51.41,51.41 0 0 1 -12.64,-17.84 c -0.46,-1 -0.91,-2.11 -1.34,-3.24 -0.43,-1.13 -0.92,-2.28 -1.34,-3.49 -0.42,-1.21 -0.86,-2.49 -1.26,-3.82 -0.4,-1.33 -0.88,-2.66 -1.27,-4.09 -0.39,-1.43 -0.79,-2.93 -1.21,-4.46 -0.42,-1.53 -0.84,-3.13 -1.24,-4.8 l -0.6,-2.56 C 6.78,134.41 6.55,133.54 6.34,132.63 5.9,130.84 5.49,128.97 5.08,127.01 l 2.22,2.44 c 1.41,1.55 3.46,3.75 5.74,6.51 l 1.8,2.12 c 0.63,0.74 1.27,1.5 1.89,2.31 l 4,5 4,5.51 1,1.41 1,1.45 2,2.91 a 224.8,224.8 0 0 1 12.94,22 c 1.55,3.08 2.75,5.68 3.63,7.48 a 27.77,27.77 0 0 1 1.3,2.91 z"
     style="fill:#ffefca"
     id="path26" />
  <path
     d="m 46.6,189.06 a 12.32,12.32 0 0 0 1,-1.14 18.93,18.93 0 0 0 2.2,-3.39 22.53,22.53 0 0 0 1.9,-5.65 23.11,23.11 0 0 0 0.18,-7.87 c -0.75,-5.95 -3.79,-13.36 -11,-21.31 -0.91,-1 -1.87,-2 -2.89,-3 -1.02,-1 -2.17,-2 -3.34,-3 -1.17,-1 -2.43,-2 -3.74,-3 -1.31,-1 -2.76,-2 -4.23,-2.94 -1.47,-0.94 -3,-2 -4.66,-2.89 -1.66,-0.89 -3.38,-1.86 -5.16,-2.77 -0.88,-0.44 -1.8,-0.91 -2.73,-1.36 -0.93,-0.45 -1.93,-0.88 -2.91,-1.28 -2,-0.84 -4,-1.67 -6.11,-2.48 l 2.23,2.44 c 1.41,1.56 3.46,3.75 5.73,6.51 l 1.81,2.13 c 0.63,0.73 1.27,1.5 1.89,2.3 l 4,5 4,5.5 1,1.41 1,1.45 2,2.91 a 224.8,224.8 0 0 1 12.94,22 c 1.55,3.08 2.75,5.68 3.63,7.48 a 27.77,27.77 0 0 1 1.26,2.95 z"
     style="fill:#f9e2b2"
     id="path28" />
  <path
     d="m 62.23,254.45 c -0.32,-1.12 -0.77,-2.71 -1.36,-4.63 a 55,55 0 0 0 -6,-13.5 31.5,31.5 0 0 0 -5.21,-6.08 v 0 a 32.05,32.05 0 0 0 -5.69,-4 34.68,34.68 0 0 0 -4.45,-2.09 v 0 c -0.44,-0.17 -0.8,-0.31 -1.08,-0.4 l -0.64,1.94 1,0.37 v 0 a 34,34 0 0 1 4.19,2 v 0 a 29.73,29.73 0 0 1 5.33,3.78 v 0 a 29.28,29.28 0 0 1 4.86,5.68 v 0 a 52.72,52.72 0 0 1 5.75,13 c 0.58,1.88 1,3.46 1.34,4.57 v 0 c 0.12,0.44 0.22,0.78 0.29,1.06 l 2,-0.54 -0.3,-1.07 z"
     style="fill:#f9e2b2"
     id="path30" />
  <path
     d="m 45.12,229.52 a 13.74,13.74 0 0 0 0.29,-1.42 15.85,15.85 0 0 0 0.1,-3.77 14.23,14.23 0 0 0 -0.44,-2.5 14.07,14.07 0 0 0 -1,-2.75 16.11,16.11 0 0 0 -4.21,-5.5 18.53,18.53 0 0 0 -7.74,-3.85 20.92,20.92 0 0 0 -2.49,-0.44 24.07,24.07 0 0 0 -2.68,-0.15 23.4,23.4 0 0 0 -5.65,0.72 A 28.12,28.12 0 0 0 9.67,216.04 39.69,39.69 0 0 0 0,229.13 l 1.88,-0.75 c 1.19,-0.47 2.91,-1.11 5,-1.76 a 59.62,59.62 0 0 1 15.84,-2.89 42.68,42.68 0 0 1 8.6,0.54 38.85,38.85 0 0 1 7.25,2 34.06,34.06 0 0 1 4.81,2.27 c 0.56,0.32 1,0.57 1.28,0.77 a 4.25,4.25 0 0 0 0.46,0.21 z"
     style="fill:#ffefca"
     id="path32" />
  <polyline
     points="0 255.96 483.18 255.96 483.18 253.82 0 253.82"
     style="fill:#ffd617"
     id="polyline34"
     transform="matrix(0.63264647,0,0,1,17.752257,0.03)" />
  <polyline
     points="217.81 248.92 217.81 361.99 234.13 361.99 234.13 248.92"
     style="fill:#ff9100"
     id="polyline36"
     transform="translate(-49.99,0.03)" />
  <polyline
     points="234.79 246.3 273.23 352.64 288.57 347.09 250.14 240.75"
     style="fill:#ff9100"
     id="polyline38"
     transform="translate(-49.99,0.03)" />
  <path
     d="m 185.8,308.84 h -20.5 v -71.55 a 8.52,8.52 0 0 1 8.5,-8.52 h 3.48 a 8.51,8.51 0 0 1 8.51,8.51 v 0 z"
     style="fill:#1f3440"
     id="path40" />
  <path
     d="m 222.87,296.25 -19.28,7 -24.32,-67.29 a 8.51,8.51 0 0 1 5.1,-10.89 v 0 l 3.27,-1.19 a 8.52,8.52 0 0 1 10.9,5.12 z"
     style="fill:#1f3440"
     id="path42" />
  <path
     d="m 195.78,350.05 h -9.13 V 321.1 h -20.5 v 28.95 0 13.95 a 1.44,1.44 0 0 0 1.45,1.43 h 38.14 a 1.43,1.43 0 0 0 1.42,-1.43 v -2.6 a 11.35,11.35 0 0 0 -11.34,-11.35 z"
     style="fill:#1f3440"
     id="path44" />
  <path
     d="m 260.91,341.16 -0.88,-2.44 a 11.33,11.33 0 0 0 -14.5,-6.81 l -8.62,3.11 -9.84,-27.29 -19.28,7 12.43,34.38 v 0 l 2.16,6 a 1.43,1.43 0 0 0 1.81,0.88 v 0 l 35.87,-13 a 1.44,1.44 0 0 0 0.85,-1.83 z"
     style="fill:#1f3440"
     id="path46" />
  <rect
     x="120.03999"
     y="132.78999"
     width="37.599998"
     height="23.860001"
     style="fill:#ff9100"
     id="rect48" />
  <path
     d="m 170.66,10.42 -0.67,7.4 a 4.86,4.86 0 0 1 -4.62,4.49 4.71,4.71 0 0 1 -4.77,-4.65 c 0,-0.15 0,-0.31 0,-0.46 l 1.12,-12.42 a 2.05,2.05 0 0 0 -1.41,-2.15 51.18,51.18 0 0 0 -5.12,-1.31 2.07,2.07 0 0 0 -2.46,1.58 2,2 0 0 0 0,0.24 l -1.18,13 a 4.84,4.84 0 0 1 -4.62,4.48 4.7,4.7 0 0 1 -4.75,-4.64 c 0,-0.16 0,-0.33 0,-0.49 l 1.2,-13.25 A 2.06,2.06 0 0 0 141.5,0 h -0.25 c -1.77,0.06 -3.53,0.19 -5.27,0.4 a 2.05,2.05 0 0 0 -1.76,1.86 l -1.1,12.2 a 4.84,4.84 0 0 1 -4.63,4.48 4.69,4.69 0 0 1 -4.74,-4.64 3.54,3.54 0 0 1 0,-0.46 l 0.68,-7.63 A 2.05,2.05 0 0 0 122.6,4 a 2.19,2.19 0 0 0 -1,0.13 57.64,57.64 0 0 0 -36.000004,48.33 l -3.78,41.85 A 43.8,43.8 0 0 0 121.6,141.88 l 27.6,2.5 a 43.8,43.8 0 0 0 47.55,-39.65 l 3.78,-41.85 a 57.64,57.64 0 0 0 -26.73,-54 2.07,2.07 0 0 0 -2.84,0.66 2.13,2.13 0 0 0 -0.3,0.88 z"
     style="fill:#ff9100"
     id="path50" />
  <path
     d="m 166.48,171.21 1.61,-8.59 -1.63,8.58 v 0 l 1.63,-8.58 -1.63,8.58 0.2,-1 -0.2,1 v 0 l 0.2,-1 -0.2,1 c 0,0 3,0.58 7.38,1.86 a 104.22,104.22 0 0 1 11.52,4.06 75.78,75.78 0 0 1 9.24,4.61 49.22,49.22 0 0 1 6.08,4.27 26.65,26.65 0 0 1 6.23,7.19 16.23,16.23 0 0 1 1.57,3.78 15.31,15.31 0 0 1 0.55,4.15 21.88,21.88 0 0 1 -1.54,7.75 45.9,45.9 0 0 1 -5.81,10.51 l 15,10.73 a 63.83,63.83 0 0 0 8.12,-14.8 40.26,40.26 0 0 0 2.7,-14.19 33.94,33.94 0 0 0 -2.94,-13.9 38.94,38.94 0 0 0 -6.27,-9.75 59.33,59.33 0 0 0 -14.84,-11.95 107.81,107.81 0 0 0 -22.52,-9.63 109.7,109.7 0 0 0 -11,-2.83 l -3.41,18.13 z"
     style="fill:#ff9100"
     id="path52" />
  <path
     d="m 170.6,176.53 -1.63,-9.6 1.46,9.62 h 0.17 l -1.63,-9.6 1.46,9.62 -0.51,-3.38 0.49,3.39 v 0 l -0.51,-3.38 0.49,3.38 v 0 a 20,20 0 0 1 2.45,-0.12 30.27,30.27 0 0 1 8.91,1.35 27.85,27.85 0 0 1 5.32,2.3 27.26,27.26 0 0 1 5.36,3.95 l 19.95,-21.16 a 56.52,56.52 0 0 0 -27,-14.19 59.83,59.83 0 0 0 -12.51,-1.35 46,46 0 0 0 -7.13,0.51 z"
     style="fill:#ffd505"
     id="path54" />
  <path
     d="m 159.7,253.78 h -46.64 a 15,15 0 0 1 -15.000004,-15 v 0 -85.69 H 174.77 v 85.64 a 15,15 0 0 1 -15.07,15.05 z"
     style="fill:#ff9100"
     id="path56" />
  <path
     d="M 174.82,253.78 H 110.73 A 12.77,12.77 0 0 1 97.949996,241.04 V 205.11 H 174.82 Z"
     style="fill:#1f3440"
     id="path58" />
  <rect
     x="97.950005"
     y="147.89"
     width="76.870003"
     height="76.870003"
     style="fill:#ffd505"
     id="rect60" />
  <path
     d="m 162.33,115.25 a 17.6,17.6 0 0 1 -32.33,-3 z"
     style="fill:#5b3103"
     id="path62" />
  <path
     d="m 117.7,117.27 a 9.54,9.54 0 0 0 6.63,-8.23 8.51,8.51 0 0 0 0,-0.88 9.5,9.5 0 0 0 -5.05,-8.4 2.49,2.49 0 0 0 -2.33,4.4 4.52,4.52 0 0 1 2.42,4 v 0.42 a 4.63,4.63 0 0 1 -1,2.48 4.47,4.47 0 0 1 -2.16,1.46 2.4843359,2.4843359 0 1 0 1.49,4.74 v 0 z"
     style="fill:#fcaa47"
     id="path64" />
  <path
     d="m 175.85,117.92 a 4.68,4.68 0 0 1 -1.76,-1.66 4.49,4.49 0 0 1 -0.67,-2.37 v -0.42 a 4.53,4.53 0 0 1 3.15,-3.93 2.4825894,2.4825894 0 0 0 -1.51,-4.73 9.53,9.53 0 0 0 -6.6,8.22 c 0,0.29 0,0.58 0,0.88 a 9.54,9.54 0 0 0 5.09,8.42 2.49,2.49 0 1 0 2.32,-4.4 z"
     style="fill:#fcaa47"
     id="path66" />
  <path
     d="m 147.28,119.24 -14.23,-1.29 a 17.58,17.58 0 0 0 18.43,6 4.63,4.63 0 0 0 -4.2,-4.71 z"
     style="fill:#fe4c00"
     id="path68" />
  <polyline
     points="147.94 177.69 153.91 177.69 153.91 176.99 147.94 176.99"
     style="fill:#fe4c00"
     id="polyline70"
     transform="translate(-49.99,0.03)" />
  <g
     id="eye"
     transform="translate(-49.99,0.03)">
    <path
       d="m 223.93,150.41 -0.44,4.83 a 2.49,2.49 0 0 0 4.95,0.44 l 0.44,-4.83 a 2.49,2.49 0 0 0 -4.95,-0.44"
       transform="translate(-8.41,-67.3)"
       style="fill:#3d2407"
       id="path72" />
    <path
       d="m 189.26,147.2 -0.44,4.84 a 2.48,2.48 0 1 0 4.94,0.44 l 0.44,-4.84 a 2.49,2.49 0 0 0 -4.95,-0.44"
       transform="translate(-8.41,-67.3)"
       style="fill:#3d2407"
       id="path74" />
  </g>
  <path
     d="m 210.04,209.22 h -13.25 a 3.26,3.26 0 0 1 3.27,-3.26 h 10 z"
     style="fill:#ff9100"
     id="path77" />
  <path
     d="m 191.52,223.24 -0.92,-1.51 1.17,-0.68 0.9,1.55 a 0.58,0.58 0 0 1 -0.2,0.77 v 0 l -0.19,0.12 a 0.58,0.58 0 0 1 -0.78,-0.19 z"
     style="fill:#1a1a1a"
     id="path79" />
  <polygon
     points="232.97,216.33 240.87,211.72 242.13,221.57 241.53,221.92 240.93,222.27 "
     style="fill:#ffefca"
     id="polygon81"
     transform="translate(-49.99,0.03)" />
  <g
     id="a"
     transform="translate(-49.99,0.03)">
    <path
       d="m 132.61,226.73 a 71.85,71.85 0 0 0 -14.55,9.81 76.29,76.29 0 0 0 -13.33,15.25 33,33 0 0 0 -3.86,7.66 24.8,24.8 0 0 0 -1.4,8.09 22.59,22.59 0 0 0 1.4,7.8 24.06,24.06 0 0 0 3.21,5.89 31.12,31.12 0 0 0 8.4,7.65 53.21,53.21 0 0 0 16.52,6.63 85.75,85.75 0 0 0 19.62,2.16 100.26,100.26 0 0 0 35,-6.28 84.91,84.91 0 0 0 16.7,-8.42 72,72 0 0 0 14.55,-12.54 L 201,258.24 a 53.54,53.54 0 0 1 -10.83,9.32 69.86,69.86 0 0 1 -20.1,8.84 83.12,83.12 0 0 1 -21.45,2.83 A 70,70 0 0 1 135,278 a 45.87,45.87 0 0 1 -8.2,-2.4 27,27 0 0 1 -4.48,-2.29 14.83,14.83 0 0 1 -2.27,-1.76 7.87,7.87 0 0 1 -1.7,-2.19 4,4 0 0 1 -0.4,-1.76 6.43,6.43 0 0 1 0.4,-2.13 15.24,15.24 0 0 1 1.76,-3.4 57.26,57.26 0 0 1 10.09,-11.55 52.79,52.79 0 0 1 10.8,-7.32 l -8.38,-16.43 z"
       transform="translate(-8.41,-67.3)"
       style="fill:#ff9100"
       id="path83" />
    <path
       d="m 216.58,251.06 -1.32,-1.76 1.28,1.79 v 0 l -1.32,-1.76 1.28,1.79 -0.18,-0.26 0.18,0.26 v 0 l -0.18,-0.26 0.18,0.26 a 11.6,11.6 0 0 1 2.06,-1.09 12,12 0 0 1 4.68,-1 9.42,9.42 0 0 1 3.67,0.72 12.34,12.34 0 0 1 4.09,2.85 3.5510562,3.5510562 0 0 0 5.16,-4.88 l -0.1,-0.1 a 19.54,19.54 0 0 0 -6.45,-4.44 16.75,16.75 0 0 0 -6.37,-1.26 19.4,19.4 0 0 0 -7.72,1.69 17.7,17.7 0 0 0 -3.19,1.76 3.55,3.55 0 0 0 4.19,5.71 z"
       transform="translate(-8.41,-67.3)"
       style="fill:#ff9100"
       id="path85" />
    <path
       d="m 210.54,230.8 1.32,2.26 7.89,-4.61 -1.32,-2.26 A 3.25,3.25 0 0 0 214,225 l -2.29,1.32 a 3.24,3.24 0 0 0 -1.18,4.43 z"
       transform="translate(-8.41,-67.3)"
       style="fill:#f15a24"
       id="path87" />
    <rect
       x="227.31"
       y="231.56"
       width="9.1400003"
       height="53.389999"
       transform="matrix(0.86,-0.5,0.5,0.86,-106.99,84.85)"
       style="fill:#ffd505"
       id="rect89" />
    <rect
       x="212.37"
       y="229.74001"
       width="9.1400003"
       height="5.8699999"
       transform="rotate(-30.28,88.369292,214.55862)"
       style="fill:#333333"
       id="rect91" />
    <rect
       x="212.66"
       y="232.61"
       width="9.1400003"
       height="1.16"
       transform="rotate(-30.29,88.700856,215.07551)"
       style="fill:#4d4d4d"
       id="rect93" />
    <rect
       x="230.55"
       y="231.28999"
       width="3.5699999"
       height="53.389999"
       transform="rotate(-30.28,103.77331,239.86779)"
       style="fill:#ffbc00"
       id="rect95" />
    <path
       d="M 221.05,274.29 197.64,264 203.48,250.77 A 10.3,10.3 0 0 1 217,245.44 v 0 l 14,6.17 a 10.29,10.29 0 0 1 5.28,13.57 v 0 l -1.7,3.84 a 10.29,10.29 0 0 1 -13.56,5.26 z"
       transform="translate(-8.41,-67.3)"
       style="fill:#ff9100"
       id="path97" />
  </g>
  <polygon
     points="270.19,215.58 237.28,213.32 194.69,229.43 229.54,229.43 "
     style="fill:#f9d793"
     id="polygon100"
     transform="translate(-49.99,0.03)" />
  <path
     d="m 106.35,148.41 a 44.51,44.51 0 0 0 -7.110004,-0.51 59.29,59.29 0 0 0 -17.59,2.69 A 56.21,56.21 0 0 0 59.72,163.44 l 19.939996,21.16 a 27.26,27.26 0 0 1 5.36,-4 28.07,28.07 0 0 1 7.87,-3 31,31 0 0 1 6.37,-0.69 C 100.2,176.91 100.93,176.96 101.34,177 a 2.21,2.21 0 0 1 0.36,0 v 0 l 1.06,-7.41 -1.25,7.38 h 0.19 l 1.06,-7.41 -1.25,7.38 4.86,-28.68 z"
     style="fill:#ffd505"
     id="path102" />
  <polygon
     points="194.69,221.17 237.28,207.34 237.28,215.59 194.69,229.43 "
     style="fill:#ffefca"
     id="polygon104"
     transform="translate(-49.99,0.03)" />
  <rect
     x="187.29999"
     y="207.37"
     width="32.91"
     height="8.2399998"
     style="fill:#ffe7b6"
     id="rect106" />
  <polygon
     points="237.28,209.19 205.1,219.44 237.28,209.92 "
     style="fill:#f9d793"
     id="polygon108"
     transform="translate(-49.99,0.03)" />
  <path
     d="m 150.39,223.33 29.82,-9 c 0,0 -22.03,7.58 -29.82,9 z"
     style="fill:#f9d793"
     id="path110" />
  <polygon
     points="194.69,226.7 208.5,223.3 194.69,227.5 "
     style="fill:#efc77f"
     id="polygon112"
     transform="translate(-49.99,0.03)" />
  <path
     d="m 212.96,232.58 h -16.27 a 10.75,10.75 0 0 1 -10.75,-10.75 v 0 a 2.35,2.35 0 0 1 2.37,-2.33 h 28.76 v 9 a 4.11,4.11 0 0 1 -4.11,4.08 z"
     style="fill:#ff9100"
     id="path114" />
  <polygon
     points=""
     style="fill:#eb5929"
     id="polygon116"
     transform="translate(-49.99,0.03)" />
  <polygon
     points=""
     style="fill:#eb5929"
     id="polygon118"
     transform="translate(-49.99,0.03)" />
  <g
     id="aa"
     transform="translate(-49.99,0.03)">
    <path
       d="m 326.81,291.79 a 5,5 0 0 0 -0.75,3.95 c 0.46,1.76 1.75,2.05 2.2,4.22 a 5.74,5.74 0 0 1 -0.25,3.26 7,7 0 0 1 -1.2,1.92 3.74,3.74 0 0 0 -0.25,1.87 4.47,4.47 0 0 0 1.27,2.48"
       transform="translate(-8.41,-67.3)"
       style="fill:none;stroke:#dedede;stroke-width:4px;stroke-linecap:round;stroke-linejoin:round"
       id="path122" />
  </g>
  <g
     id="cc"
     transform="translate(-49.99,0.03)">
    <path
       d="m 341.86,291.64 a 5,5 0 0 0 -0.75,3.95 c 0.46,1.76 1.75,2.05 2.2,4.21 a 5.77,5.77 0 0 1 -0.25,3.27 7,7 0 0 1 -1.2,1.92 3.74,3.74 0 0 0 -0.25,1.87 4.51,4.51 0 0 0 1.27,2.48"
       transform="translate(-8.41,-67.3)"
       style="fill:none;stroke:#dedede;stroke-width:4px;stroke-linecap:round;stroke-linejoin:round"
       id="path125" />
  </g>
  <g
     id="bb"
     transform="translate(-49.99,0.03)">
    <path
       d="m 334.06,288.33 a 5.08,5.08 0 0 0 -0.75,3.95 c 0.46,1.76 1.75,2.05 2.2,4.22 a 5.65,5.65 0 0 1 -0.25,3.26 6.29,6.29 0 0 1 -1.2,1.92 3.78,3.78 0 0 0 -0.24,1.87 4.48,4.48 0 0 0 1.26,2.49"
       transform="translate(-8.41,-67.3)"
       style="fill:none;stroke:#dedede;stroke-width:4px;stroke-linecap:round;stroke-linejoin:round"
       id="path128" />
  </g>
  <path
     d="m 298.7,228.21 a 9.49,9.49 0 0 0 -6.74,-2.8 h -1.12 v -4.68 a 1.88,1.88 0 0 0 -1.88,-1.88 h -25.53 a 1.89,1.89 0 0 0 -1.89,1.88 v 31.44 a 1.89,1.89 0 0 0 1.89,1.88 h 25.54 a 1.88,1.88 0 0 0 1.88,-1.88 v 0 -2.74 h 1.13 a 9.53,9.53 0 0 0 9.52,-9.53 v -4.94 a 9.49,9.49 0 0 0 -2.8,-6.75 z m -1.47,11.67 a 5.27,5.27 0 0 1 -5.27,5.28 h -1.12 v -15.49 h 1.12 a 5.27,5.27 0 0 1 5.27,5.27 z"
     style="fill:#ff9100"
     id="path131" />
  <path
     d="m 271,232.21 a 3.41,3.41 0 0 0 -6.59,0 0.75,0.75 0 0 0 1.44,0.4 1.92,1.92 0 0 1 3.71,0 0.75,0.75 0 0 0 1.44,-0.39 z"
     style="fill:#fffaee"
     id="path133" />
  <path
     d="m 280.44,232.21 a 3.42,3.42 0 0 0 -6.6,0 0.75,0.75 0 0 0 0.52,0.92 0.74,0.74 0 0 0 0.92,-0.52 2,2 0 0 1 0.68,-1 1.94,1.94 0 0 1 3,1 0.74244528,0.74244528 0 1 0 1.43,-0.4 z"
     style="fill:#fffaee"
     id="path135" />
  <path
     d="m 279.98,236.11 a 0.74,0.74 0 0 0 -0.91,0.52 v 0 a 7,7 0 0 1 -0.76,1.76 0.21,0.21 0 0 1 -0.19,-0.19 c -0.36,-3.16 -3.6,-2.54 -4.25,0.36 v 0 c -0.44,1.21 -0.77,2.82 -2,3.08 a 6.85,6.85 0 0 1 -6,-5 0.75,0.75 0 0 0 -0.95,-0.46 0.77,0.77 0 0 0 -0.49,0.86 8.36,8.36 0 0 0 16.1,0 0.76,0.76 0 0 0 -0.51,-0.93 z"
     style="fill:#fffaee"
     id="path137" />
  <path
     d="m 286.38,228.92 v 14.31 a 1.07,1.07 0 1 0 2.13,0 v -14.31 a 1.07,1.07 0 0 0 -2.13,0"
     style="fill:#fcc27c"
     id="path139" />
  <path
     d="m 286.38,223.73 v 1.7 a 1.07,1.07 0 1 0 2.13,0 v -1.7 a 1.07,1.07 0 0 0 -2.13,0 v 0"
     style="fill:#fcc27c"
     id="path141" />
</svg>
