<svg id="Layer_1" data-name="Layer 1" xmlns="http://www.w3.org/2000/svg" viewBox="0 0 319.3 365.43">
    <defs>
        <style>.cls-1{fill:#f9e2b2;}.cls-2,.cls-21{fill:none;}.cls-3{fill:#ffefca;}.cls-4{fill:#ffd617;}.cls-5{fill:#ff9100;}.cls-6{fill:#1f3440;}.cls-7{fill:#ffd505;}.cls-8{fill:#5b3103;}.cls-9{fill:#fcaa47;}.cls-10{fill:#fe4c00;}.cls-11{fill:#3d2407;}.cls-12{fill:#1a1a1a;}.cls-13{fill:#f15a24;}.cls-14{fill:#333;}.cls-15{fill:#4d4d4d;}.cls-16{fill:#ffbc00;}.cls-17{fill:#f9d793;}.cls-18{fill:#ffe7b6;}.cls-19{fill:#efc77f;}.cls-20{fill:#eb5929;}.cls-21{stroke:#dedede;stroke-linecap:round;stroke-linejoin:round;stroke-width:4px;}.cls-22{fill:#fffaee;}.cls-23{fill:#fcc27c;}</style>
        <style>body{
    margin: 0;
    padding: 0;
  }
  #a {
    animation-name: diamondMovesBack;
    animation-duration: 3s;
    animation-iteration-count: infinite;
    animation-timing-function: linear;
    animation-direction: alternate;
    transform-origin: left 4px;
    transform-box: fill-box;
    
    
}
@keyframes diamondMovesBack {
    10%   { transform:  rotate(2deg); }
    25%   { transform:  rotate(5deg); }
    45%   { transform:  rotate(1deg); }
    55%   { transform:  rotate(3deg); }
    65%   { transform:  rotate(0deg); }
    70%   { transform:  rotate(1deg); }
    80%   { transform:  rotate(3deg); }
    90%   { transform:  rotate(0deg); }
    95%   { transform:  rotate(3deg); }
    100%   { transform:  rotate(5deg); }
   
}

#b {
    animation-name: bdiamondMovesBack;
    animation-duration: 4.5s;
    animation-timing-function:linear ;
    animation-iteration-count: infinite;
    transform-origin: 50% 50%;
    animation-direction: initial;
}
@keyframes bdiamondMovesBack {
    0%   { opacity: .35; transform: translate(0, 20px); }
    10%{opacity: 1;} 
90%{opacity: 1;}
    100% { opacity: 0; transform: translate(0px, -25px); }
}
#aa {
    animation-name: smoke1;
    animation-duration: 4.5s;
    animation-timing-function:linear ;
    animation-iteration-count: infinite;
    transform-origin: 50% 50%;
    animation-direction: initial;
}
@keyframes smoke1 {
    0%   { opacity: .35; transform: translate(0, 10px); }
    10%{opacity: 1;} 
90%{opacity: 1;}
    100% { opacity: 0; transform: translate(0px, -30px); }
}
#bb {
    animation-name: smoke2;
    animation-duration: 4.5s;
    animation-timing-function:linear ;
    animation-delay: 2s;
    animation-iteration-count: infinite;
    transform-origin: 50% 50%;
    animation-direction: initial;
}
@keyframes smoke2 {
    0%   { opacity: .35; transform: translate(0, 15px); }
    10%{opacity: 1;} 
90%{opacity: 1;}
    100% { opacity: 0; transform: translate(0px, -35px); }
}
#cc {
    animation-name: smoke3;
    animation-duration: 4.5s;
    animation-timing-function:linear ;
    animation-delay: 3s;
    animation-iteration-count: infinite;
    transform-origin: 50% 50%;
    animation-direction: initial;
}
@keyframes smoke3 {
    0%   { opacity: .35; transform: translate(0, 10px); }
    10%{opacity: 1;} 
90%{opacity: 1;}
    100% { opacity: 0; transform: translate(0px, -30px); }
}
#eye{
    animation: blink 8s 1s linear infinite ;
    transform-origin: 50% 50%;
}

@keyframes blink{
    0%{opacity: 1;}
    1.5%{opacity: 0;}
    3%{opacity: 1;}
    20%{opacity: 1;}
    21%{opacity: 0;}
    22%{opacity: 1;}
    40%{opacity: 1;}
    
    70%{opacity: 1;}
    71%{opacity: 0;}
    72%{opacity: 1;}
}</style>
    </defs>
    <g>
    <path class="cls-1" d="M87.35,197.7l-.85,1a40,40,0,0,0-2.89,3.86h0a58.15,58.15,0,0,0-3.37,5.89h0c-1.12,2.2-2.17,4.62-3.19,7h0c-1,2.42-2,4.81-2.91,7.14h0a47.26,47.26,0,0,0-2,6.49h0a28.17,28.17,0,0,0-.66,4.84h0v1c0,.3-2.22,20-2.22,20.09l1.62-.05c0-.08,2.22-19.94,2.22-20V234h0a25.69,25.69,0,0,1,.62-4.54h0a44.24,44.24,0,0,1,1.93-6.28h0c.85-2.27,1.88-4.68,2.89-7.08h0c1-2.39,2-4.77,3.15-6.93h0A54.74,54.74,0,0,1,85,203.46h0a38.55,38.55,0,0,1,2.78-3.71h0c.32-.36.57-.66.78-.88Z" transform="translate(0 0.03)" />
    <polygon class="cls-1" points="71.09 228.81 71.09 228.81 71.09 228.81 71.09 228.81" />
    <polygon class="cls-1" points="73.76 229.41 73.76 229.41 73.76 229.4 73.76 229.41" />
    <line class="cls-2" x1="84.99" y1="203.39" x2="85" y2="203.39" />
    <polygon class="cls-1" points="75.69 223.12 75.69 223.12 75.69 223.12 75.69 223.12" />
    <path class="cls-3" d="M84.51,203s.32.05.87.09a17.08,17.08,0,0,0,2.28,0,41.05,41.05,0,0,0,6.35-.65c.54-.09,1-.21,1.57-.33a12.14,12.14,0,0,0,1.53-.55,19.11,19.11,0,0,0,3.57-2.1c.34-.26.74-.51,1.12-.82s.83-.59,1.27-.94c.91-.66,1.9-1.44,3-2.3,2.25-1.73,5-3.84,8.24-6.48l-1.49.11c-.94.06-2.29.16-3.9.34A47.31,47.31,0,0,0,97.35,192a25.76,25.76,0,0,0-5.6,2.93l-.62.44-.58.47c-.38.31-.75.6-1.09.93l-.5.46-.46.48c-.32.31-.59.63-.86.93a27.6,27.6,0,0,0-2.35,3.14C84.78,202.54,84.51,203,84.51,203Z" transform="translate(0 0.03)" />
    <path class="cls-1" d="M84.51,203a7.29,7.29,0,0,1-.49-.74,10.46,10.46,0,0,1-.94-2.14,10.92,10.92,0,0,1-.5-3.45,11.29,11.29,0,0,1,1.16-4.59,12.12,12.12,0,0,1,1.64-2.5,15,15,0,0,1,2.46-2.38,18.23,18.23,0,0,1,9.4-3.44c.74-.06,1.49-.06,2.27,0a23.88,23.88,0,0,1,4.75.69A34.8,34.8,0,0,1,114.35,189l-1.49.11c-.94.06-2.29.16-3.9.34A47.2,47.2,0,0,0,97.35,192a25.76,25.76,0,0,0-5.6,2.93l-.62.44-.58.47c-.38.31-.75.6-1.09.93l-.5.46-.46.48c-.32.31-.59.63-.86.93a27.6,27.6,0,0,0-2.35,3.14C84.78,202.54,84.51,203,84.51,203Z" transform="translate(0 0.03)" />
    <path class="cls-1" d="M78,151.46c-.16.44-.44,1.17-.76,2.12-.58,1.71-1.32,4.19-2.29,7.16a209.38,209.38,0,0,0-5.27,22h0l-.29,1.49-.24,1.5c-.15,1-.3,2-.46,3s-.3,2-.44,2.94-.22,1.91-.34,2.86h0c-.2,1.9-.43,3.72-.6,5.43s-.24,3.37-.35,4.87c-.06.76-.11,1.48-.16,2.17s0,1.32-.07,1.93h0c0,1.23-.08,2.3-.1,3.17s.88,38.55.88,39l2.25-.17c0-.47-.88-38.21-.88-39.13s.06-1.91.1-3.12h0a18.92,18.92,0,0,1,.07-1.93h0c0-.68.1-1.4.15-2.14.11-1.49.23-3.08.35-4.8h0c.17-1.72.4-3.52.6-5.38h0c.11-.92.2-1.87.34-2.85h0c.14-1,.29-1.92.44-2.9s.29-2,.44-2.95h0l.23-1.5.29-1.49A205.31,205.31,0,0,1,77.1,161h0c.93-2.92,1.68-5.36,2.26-7.08h0c.29-.8.52-1.43.68-1.89Z" transform="translate(0 0.03)" />
    <path class="cls-3" d="M75.05,164.23a16.32,16.32,0,0,0,1.61-.58,38.66,38.66,0,0,0,4.09-2,39.65,39.65,0,0,0,5.54-3.71c1-.78,1.93-1.66,3-2.6a37.21,37.21,0,0,0,3-3.15,51.66,51.66,0,0,0,9.89-19.49c.31-1.09.6-2.2.88-3.4s.58-2.38.83-3.65.5-2.58.7-4,.49-2.77.69-4.24.36-3,.56-4.59.39-3.21.55-4.92c.08-.88.15-1.73.23-2.64s.18-1.76.27-2.69c.17-1.83.32-3.75.44-5.74l-1.85,2.87c-1.18,1.74-2.9,4.2-4.76,7.25-.48.76-1,1.55-1.49,2.36s-1,1.67-1.54,2.55l-3.22,5.55-3.22,6L90.44,125l-.77,1.57-1.54,3.13a221.36,221.36,0,0,0-9.69,23.62c-1.1,3.27-1.93,6-2.55,7.91A26.19,26.19,0,0,0,75.05,164.23Z" transform="translate(0 0.03)" />
    <path class="cls-1" d="M75.05,164.23a12.35,12.35,0,0,1-1.17-1,18.71,18.71,0,0,1-2.64-3,23,23,0,0,1-4-13.09c-.1-6,1.86-13.77,7.91-22.66.75-1.1,1.56-2.23,2.43-3.37s1.87-2.27,2.9-3.43,2.11-2.32,3.26-3.52,2.46-2.32,3.78-3.51,2.7-2.36,4.2-3.52,3.08-2.32,4.72-3.47c.82-.58,1.66-1.16,2.52-1.73s1.78-1.12,2.69-1.68q2.73-1.68,5.69-3.31l-1.82,2.81c-1.18,1.73-2.9,4.2-4.76,7.24l-1.49,2.37c-.52.81-1,1.66-1.54,2.55l-3.22,5.55-3.22,6L90.44,125l-.77,1.57-1.54,3.13a221.36,221.36,0,0,0-9.69,23.62c-1.1,3.27-1.93,6-2.55,7.91A26.19,26.19,0,0,0,75.05,164.23Z" transform="translate(0 0.03)" />
    <path class="cls-1" d="M48.6,176.79c.22.44.58,1.11,1,2,.81,1.61,1.92,4,3.28,6.76a207.37,207.37,0,0,1,8.32,21h0l.5,1.44.44,1.45c.3,1,.59,1.93.88,2.89s.58,1.91.88,2.85.49,1.86.74,2.78h0c.47,1.85,1,3.62,1.37,5.28s.71,3.29,1,4.77c.17.73.32,1.44.47,2.11s.23,1.29.34,1.91h0c.22,1.21.4,2.26.55,3.13s1.88,18.21,2,18.67l-2.26.15c-.08-.46-1.81-17.88-2-18.78l-.54-3.08h0c-.11-.58-.21-1.22-.35-1.91h0l-.44-2.09c-.31-1.46-.66-3-1-4.71h0c-.41-1.67-.88-3.42-1.36-5.23h0c-.23-.88-.46-1.82-.73-2.77h0l-.85-2.81L60,209.74h0l-.44-1.45-.5-1.43a210,210,0,0,0-8.26-20.79h0c-1.34-2.76-2.43-5.07-3.25-6.69h0l-.93-1.76Z" transform="translate(0 0.03)" />
    <path class="cls-3" d="M53.35,189s-.62-.09-1.68-.36a38.29,38.29,0,0,1-4.33-1.39,39,39,0,0,1-6-2.89c-1.09-.63-2.15-1.36-3.3-2.16a36.84,36.84,0,0,1-3.4-2.69A51.28,51.28,0,0,1,22,161.7c-.46-1-.91-2.11-1.34-3.24s-.92-2.28-1.34-3.49-.86-2.49-1.26-3.82-.88-2.66-1.27-4.09-.79-2.93-1.21-4.46-.84-3.13-1.24-4.8l-.6-2.56c-.21-.86-.44-1.73-.65-2.64-.44-1.79-.85-3.66-1.26-5.62l2.22,2.44c1.41,1.55,3.46,3.75,5.74,6.51l1.8,2.12c.63.74,1.27,1.5,1.89,2.31l4,5,4,5.51,1,1.41,1,1.45,2,2.91a227.51,227.51,0,0,1,12.94,22c1.55,3.08,2.75,5.68,3.63,7.48A28,28,0,0,1,53.35,189Z" transform="translate(0 0.03)" />
    <path class="cls-1" d="M53.35,189a13.59,13.59,0,0,0,1-1.14,18.93,18.93,0,0,0,2.2-3.39,22.53,22.53,0,0,0,1.9-5.65,23.11,23.11,0,0,0,.18-7.87c-.75-5.95-3.79-13.36-11-21.31-.91-1-1.87-2-2.89-3s-2.17-2-3.34-3-2.43-2-3.74-3-2.76-2-4.23-2.94-3-2-4.66-2.89-3.38-1.86-5.16-2.77c-.88-.44-1.8-.91-2.73-1.36S19,129.83,18,129.43c-2-.84-4-1.67-6.11-2.48l2.23,2.44c1.41,1.56,3.46,3.75,5.73,6.51L21.63,138c.63.73,1.27,1.5,1.89,2.3l4,5,4,5.5,1,1.41,1,1.45,2,2.91a227.51,227.51,0,0,1,12.94,22c1.55,3.08,2.75,5.68,3.63,7.48A28.42,28.42,0,0,1,53.35,189Z" transform="translate(0 0.03)" />
    <path class="cls-1" d="M69,254.42c-.32-1.12-.77-2.71-1.36-4.63a55.15,55.15,0,0,0-6-13.5,31.5,31.5,0,0,0-5.21-6.08h0a32,32,0,0,0-5.69-4,34.68,34.68,0,0,0-4.45-2.09h0c-.44-.17-.8-.31-1.08-.4l-.64,1.94,1,.37h0a34.22,34.22,0,0,1,4.19,2h0a29.73,29.73,0,0,1,5.33,3.78h0a29.63,29.63,0,0,1,4.86,5.68h0a52.85,52.85,0,0,1,5.75,13c.58,1.88,1,3.46,1.34,4.57h0c.12.44.22.78.29,1.06l2-.54-.3-1.07Z" transform="translate(0 0.03)" />
    <path class="cls-3" d="M51.87,229.49a13.74,13.74,0,0,0,.29-1.42,16.39,16.39,0,0,0,.1-3.77,15.67,15.67,0,0,0-1.44-5.25,16.21,16.21,0,0,0-4.21-5.5,18.52,18.52,0,0,0-7.74-3.85,20.92,20.92,0,0,0-2.49-.44,24.07,24.07,0,0,0-2.68-.15,23.4,23.4,0,0,0-5.65.72A28.12,28.12,0,0,0,16.42,216,39.73,39.73,0,0,0,6.75,229.1l1.88-.75c1.19-.47,2.91-1.11,5-1.76a59.26,59.26,0,0,1,15.84-2.89,42.68,42.68,0,0,1,8.6.54,39,39,0,0,1,7.25,2,34.06,34.06,0,0,1,4.81,2.27c.56.32,1,.57,1.28.77A3.82,3.82,0,0,0,51.87,229.49Z" transform="translate(0 0.03)" />
    <polyline class="cls-4" points="0 255.99 319.3 255.99 319.3 253.85 0 253.85" />
    <polyline class="cls-5" points="174.57 248.95 174.57 362.02 190.89 362.02 190.89 248.95" />
    <polyline class="cls-5" points="191.55 246.33 229.99 352.67 245.33 347.12 206.9 240.78" />
    <path class="cls-6" d="M192.55,308.81h-20.5V237.26a8.52,8.52,0,0,1,8.5-8.52H184a8.51,8.51,0,0,1,8.51,8.51h0Z" transform="translate(0 0.03)" />
    <path class="cls-6" d="M229.62,296.22l-19.28,7L186,235.93a8.51,8.51,0,0,1,5.1-10.89h0l3.27-1.19a8.53,8.53,0,0,1,10.9,5.12Z" transform="translate(0 0.03)" />
    <path class="cls-6" d="M202.53,350H193.4V321.07H172.9V350h0v14a1.43,1.43,0,0,0,1.45,1.43h38.14a1.43,1.43,0,0,0,1.42-1.43v-2.6A11.36,11.36,0,0,0,202.57,350Z" transform="translate(0 0.03)" />
    <path class="cls-6" d="M267.66,341.13l-.88-2.44a11.34,11.34,0,0,0-14.5-6.81L243.66,335l-9.84-27.29-19.28,7L227,349.08h0l2.16,6a1.43,1.43,0,0,0,1.81.88h0l35.87-13A1.45,1.45,0,0,0,267.66,341.13Z" transform="translate(0 0.03)" />
    <rect class="cls-5" x="126.79" y="132.79" width="37.6" height="23.86" />
    <path class="cls-5" d="M177.41,10.39l-.67,7.4a4.86,4.86,0,0,1-4.62,4.49,4.71,4.71,0,0,1-4.77-4.65h0v-.46l1.12-12.42a2.06,2.06,0,0,0-1.41-2.15,52.61,52.61,0,0,0-5.12-1.31,2.07,2.07,0,0,0-2.46,1.58,1,1,0,0,0,0,.24l-1.18,13a4.84,4.84,0,0,1-4.62,4.48A4.7,4.7,0,0,1,148.93,16v-.49l1.2-13.25A2.06,2.06,0,0,0,148.26,0H148c-1.77.06-3.53.19-5.27.4A2,2,0,0,0,141,2.23l-1.1,12.2a4.84,4.84,0,0,1-4.63,4.48,4.69,4.69,0,0,1-4.74-4.64h0a3.53,3.53,0,0,1,0-.46l.68-7.63A2.06,2.06,0,0,0,129.35,4a2.13,2.13,0,0,0-1,.13,57.63,57.63,0,0,0-36,48.33L88.57,94.28a43.79,43.79,0,0,0,39.68,47.56h.1l27.6,2.5A43.8,43.8,0,0,0,203.5,104.7l3.78-41.85a57.65,57.65,0,0,0-26.73-54,2.07,2.07,0,0,0-2.84.66A2,2,0,0,0,177.41,10.39Z" transform="translate(0 0.03)" />
    <path class="cls-5" d="M173.23,171.18l1.61-8.59-1.63,8.58h0l1.63-8.58-1.63,8.58.2-1-.2,1h0l.2-1-.2,1s3,.58,7.38,1.86a105,105,0,0,1,11.52,4.06,75.78,75.78,0,0,1,9.24,4.61,50.31,50.31,0,0,1,6.08,4.27,26.65,26.65,0,0,1,6.23,7.19,16.23,16.23,0,0,1,1.57,3.78,15.31,15.31,0,0,1,.55,4.15,21.88,21.88,0,0,1-1.54,7.75,45.9,45.9,0,0,1-5.81,10.51l15,10.73a63.83,63.83,0,0,0,8.12-14.8,40.3,40.3,0,0,0,2.7-14.19,33.94,33.94,0,0,0-2.94-13.9,39.12,39.12,0,0,0-6.27-9.75,59.26,59.26,0,0,0-14.84-11.95,107.37,107.37,0,0,0-22.52-9.63,110.21,110.21,0,0,0-11-2.83l-3.41,18.13Z" transform="translate(0 0.03)" />
    <path class="cls-7" d="M177.35,176.5l-1.63-9.6,1.46,9.62h.17l-1.63-9.6,1.46,9.62-.51-3.38.49,3.39h0l-.51-3.38.49,3.38h0a20,20,0,0,1,2.45-.12,30.27,30.27,0,0,1,8.91,1.35,27.85,27.85,0,0,1,5.32,2.3,27.26,27.26,0,0,1,5.36,3.95l19.95-21.16a56.51,56.51,0,0,0-27-14.19,59.83,59.83,0,0,0-12.51-1.35,46,46,0,0,0-7.13.51Z" transform="translate(0 0.03)" />
    <path class="cls-5" d="M166.45,253.75H119.81a15,15,0,0,1-15-15h0V153.06h76.71V238.7a15,15,0,0,1-15,15.05Z" transform="translate(0 0.03)" />
    <path class="cls-6" d="M181.57,253.75H117.48A12.76,12.76,0,0,1,104.7,241V205.08h76.87Z" transform="translate(0 0.03)" />
    <rect class="cls-7" x="104.7" y="147.89" width="76.87" height="76.87" />
    <path class="cls-8" d="M169.08,115.22a17.6,17.6,0,0,1-32.33-3Z" transform="translate(0 0.03)" />
    <path class="cls-9" d="M124.45,117.24a9.55,9.55,0,0,0,6.63-8.23c0-.29,0-.59,0-.88a9.5,9.5,0,0,0-5.05-8.4,2.49,2.49,0,0,0-2.33,4.4,4.51,4.51,0,0,1,2.42,4v.42a4.6,4.6,0,0,1-1,2.48,4.47,4.47,0,0,1-2.16,1.46,2.48,2.48,0,1,0,1.49,4.74h0Z" transform="translate(0 0.03)" />
    <path class="cls-9" d="M182.6,117.89a4.68,4.68,0,0,1-1.76-1.66,4.49,4.49,0,0,1-.67-2.37v-.42a4.53,4.53,0,0,1,3.15-3.93,2.48,2.48,0,0,0-1.51-4.73,9.51,9.51,0,0,0-6.6,8.22v.88a9.52,9.52,0,0,0,5.09,8.42,2.49,2.49,0,1,0,2.53-4.29l-.21-.11Z" transform="translate(0 0.03)" />
    <path class="cls-10" d="M154,119.21l-14.23-1.29a17.59,17.59,0,0,0,18.43,6A4.63,4.63,0,0,0,154,119.21Z" transform="translate(0 0.03)" />
    <polyline class="cls-10" points="104.7 177.72 110.67 177.72 110.67 177.02 104.7 177.02" />
    <g id="eye">
        <path class="cls-11" d="M172.28,83.11l-.44,4.83a2.49,2.49,0,0,0,4.95.44l.44-4.83a2.49,2.49,0,0,0-4.95-.44" transform="translate(0 0.03)" />
        <path class="cls-11" d="M137.61,79.9l-.44,4.84a2.48,2.48,0,1,0,4.93.51v-.07l.44-4.84a2.49,2.49,0,0,0-5-.44" transform="translate(0 0.03)" />
    </g>
    <path class="cls-5" d="M216.79,209.19H203.54a3.26,3.26,0,0,1,3.26-3.26h10Z" transform="translate(0 0.03)" />
    <path class="cls-12" d="M198.27,223.21l-.92-1.51,1.17-.68.9,1.55a.58.58,0,0,1-.2.77h0l-.19.12a.58.58,0,0,1-.78-.19Z" transform="translate(0 0.03)" />
    <polygon class="cls-3" points="197.69 222.3 189.73 216.36 197.63 211.75 198.89 221.6 198.29 221.95 197.69 222.3" />
    <g id="a">
        <path class="cls-5" d="M81,159.43a71.85,71.85,0,0,0-14.55,9.81,76.29,76.29,0,0,0-13.33,15.25,32.78,32.78,0,0,0-3.86,7.66,24.75,24.75,0,0,0-1.4,8.09,22.59,22.59,0,0,0,1.4,7.8,24.06,24.06,0,0,0,3.21,5.89,31,31,0,0,0,8.4,7.65,53.29,53.29,0,0,0,16.52,6.63A85.75,85.75,0,0,0,97,230.37a100.27,100.27,0,0,0,35-6.28,84.91,84.91,0,0,0,16.7-8.42,72,72,0,0,0,14.55-12.54l-13.87-12.19a53.54,53.54,0,0,1-10.83,9.32,69.86,69.86,0,0,1-20.1,8.84A83.12,83.12,0,0,1,97,211.93a69.93,69.93,0,0,1-13.62-1.23,45.87,45.87,0,0,1-8.2-2.4A27,27,0,0,1,70.67,206a14.83,14.83,0,0,1-2.27-1.76,7.87,7.87,0,0,1-1.7-2.19,4,4,0,0,1-.4-1.76,6.43,6.43,0,0,1,.4-2.13,15,15,0,0,1,1.76-3.4,57,57,0,0,1,10.09-11.55,52.39,52.39,0,0,1,10.8-7.32L81,159.47Z" transform="translate(0 0.03)" />
        <path class="cls-5" d="M164.93,183.76,163.61,182l1.28,1.79h0L163.57,182l1.28,1.79-.18-.26.18.26h0l-.18-.26.18.26a11.6,11.6,0,0,1,2.06-1.09,12.17,12.17,0,0,1,4.68-1,9.42,9.42,0,0,1,3.67.72,12.37,12.37,0,0,1,4.09,2.85,3.55,3.55,0,0,0,5.16-4.88l-.1-.1a19.54,19.54,0,0,0-6.45-4.44,16.79,16.79,0,0,0-6.37-1.26,19.4,19.4,0,0,0-7.72,1.69,18.34,18.34,0,0,0-3.19,1.76,3.55,3.55,0,0,0,4.19,5.71Z" transform="translate(0 0.03)" />
        <path class="cls-13" d="M158.89,163.5l1.32,2.26,7.89-4.61-1.32-2.26a3.25,3.25,0,0,0-4.43-1.19L160.06,159a3.24,3.24,0,0,0-1.18,4.43h0Z" transform="translate(0 0.03)" />
        <rect class="cls-7" x="173.77" y="164.45" width="9.09" height="53.11" transform="translate(-71.85 115.53) rotate(-30.17)" />
        <rect class="cls-14" x="160.72" y="162.44" width="9.14" height="5.87" transform="translate(-60.84 105.94) rotate(-30.28)" />
        <rect class="cls-15" x="161.01" y="165.31" width="9.14" height="1.16" transform="translate(-61.07 106.19) rotate(-30.29)" />
        <rect class="cls-16" x="178.9" y="163.99" width="3.57" height="53.39" transform="translate(-71.5 117.15) rotate(-30.28)" />
        <path class="cls-5" d="M169.4,207,146,196.7l5.84-13.23a10.29,10.29,0,0,1,13.52-5.33h0l14,6.17a10.29,10.29,0,0,1,5.28,13.56h0l-1.7,3.84A10.29,10.29,0,0,1,169.37,207Z" transform="translate(0 0.03)" />
    </g>
    <polygon class="cls-17" points="151.45 229.46 186.3 229.46 226.95 215.61 194.04 213.35 151.45 229.46" />
    <path class="cls-7" d="M113.1,148.38a44.51,44.51,0,0,0-7.11-.51,59.24,59.24,0,0,0-17.59,2.69,56.14,56.14,0,0,0-21.93,12.85l19.94,21.16a26.92,26.92,0,0,1,5.36-4,28.14,28.14,0,0,1,7.87-3,31,31,0,0,1,6.37-.69c.94,0,1.67.05,2.08.09h.36l1.06-7.41-1.25,7.38h.19l1.06-7.41-1.25,7.38,4.86-28.68Z" transform="translate(0 0.03)" />
    <polygon class="cls-3" points="194.04 215.62 151.45 229.46 151.45 221.2 194.04 207.37 194.04 215.62" />
    <rect class="cls-18" x="194.05" y="207.37" width="32.91" height="8.24" />
    <polygon class="cls-17" points="194.04 209.22 161.86 219.47 194.04 209.95 194.04 209.22" />
    <path class="cls-17" d="M157.14,223.3l29.82-9S164.93,221.88,157.14,223.3Z" transform="translate(0 0.03)" />
    <polygon class="cls-19" points="151.45 226.73 165.26 223.33 151.45 227.53 151.45 226.73" />
    <path class="cls-5" d="M219.71,232.55H203.44a10.75,10.75,0,0,1-10.75-10.75h0a2.35,2.35,0,0,1,2.37-2.33h28.76v9A4.11,4.11,0,0,1,219.71,232.55Z" transform="translate(0 0.03)" />
    <polygon class="cls-20" points="62.85 227.17 62.85 227.17 62.85 227.17 62.85 227.17" />
    <polygon class="cls-20" points="60.54 229.75 60.54 229.75 60.54 229.75 60.54 229.75" />
    </g>
    <g id="aa">
        <path class="cls-21" d="M275.16,224.49a5,5,0,0,0-.75,3.95c.46,1.76,1.75,2.05,2.2,4.22a5.76,5.76,0,0,1-.25,3.26,7.21,7.21,0,0,1-1.2,1.92,3.74,3.74,0,0,0-.25,1.87,4.46,4.46,0,0,0,1.27,2.48" transform="translate(0 0.03)" />
    </g>
    <g id="cc">
        <path class="cls-21" d="M290.21,224.34a5,5,0,0,0-.75,3.95c.46,1.76,1.75,2.05,2.2,4.21a5.79,5.79,0,0,1-.25,3.27,7.21,7.21,0,0,1-1.2,1.92,3.74,3.74,0,0,0-.25,1.87,4.46,4.46,0,0,0,1.27,2.48" transform="translate(0 0.03)" />
    </g>
    <g id="bb">
        <path class="cls-21" d="M282.41,221a5.07,5.07,0,0,0-.75,3.95c.46,1.76,1.75,2.05,2.2,4.22a5.67,5.67,0,0,1-.25,3.26,6.28,6.28,0,0,1-1.2,1.92,3.73,3.73,0,0,0-.24,1.87,4.41,4.41,0,0,0,1.26,2.49" transform="translate(0 0.03)" />
    </g>
    <path class="cls-5" d="M305.45,228.18a9.53,9.53,0,0,0-6.74-2.8h-1.12V220.7a1.88,1.88,0,0,0-1.88-1.88H270.18a1.89,1.89,0,0,0-1.89,1.88v31.44a1.89,1.89,0,0,0,1.89,1.88h25.54a1.88,1.88,0,0,0,1.88-1.88h0V249.4h1.13a9.53,9.53,0,0,0,9.52-9.53v-4.94A9.55,9.55,0,0,0,305.45,228.18ZM304,239.85a5.28,5.28,0,0,1-5.26,5.28h-1.13V229.64h1.12a5.27,5.27,0,0,1,5.27,5.27Z" transform="translate(0 0.03)" />
    <path class="cls-22" d="M277.75,232.18a3.41,3.41,0,0,0-6.59,0,.75.75,0,0,0,.6.88.76.76,0,0,0,.84-.48,1.92,1.92,0,0,1,2.35-1.36,1.94,1.94,0,0,1,1.36,1.36.75.75,0,0,0,1,.43.76.76,0,0,0,.47-.82Z" transform="translate(0 0.03)" />
    <path class="cls-22" d="M287.19,232.18a3.42,3.42,0,0,0-6.6,0,.74.74,0,0,0,.52.92.73.73,0,0,0,.91-.51h0a2,2,0,0,1,.68-1,2,2,0,0,1,2.71.42,2.1,2.1,0,0,1,.29.58.74.74,0,1,0,1.43-.4h.05Z" transform="translate(0 0.03)" />
    <path class="cls-22" d="M286.73,236.08a.73.73,0,0,0-.91.52h0a7,7,0,0,1-.76,1.76.21.21,0,0,1-.19-.19c-.36-3.16-3.6-2.54-4.25.36h0c-.44,1.21-.77,2.82-2,3.08a6.84,6.84,0,0,1-6-5,.75.75,0,0,0-.95-.46.77.77,0,0,0-.49.86,8.36,8.36,0,0,0,16.1,0,.76.76,0,0,0-.51-.93Z" transform="translate(0 0.03)" />
    <path class="cls-23" d="M293.13,228.89V243.2a1.07,1.07,0,0,0,2.13.21V228.89a1.07,1.07,0,0,0-2.13,0" transform="translate(0 0.03)" />
    <path class="cls-23" d="M293.13,223.7v1.7a1.07,1.07,0,0,0,2.13.21V223.7a1.07,1.07,0,0,0-2.13,0h0" transform="translate(0 0.03)" />
</svg>