<?xml version="1.0" encoding="utf-8"?>
<!-- Generator: Adobe Illustrator 24.0.1, SVG Export Plug-In . SVG Version: 6.00 Build 0)  -->
<svg version="1.1" id="Layer_1" xmlns="http://www.w3.org/2000/svg" xmlns:xlink="http://www.w3.org/1999/xlink" x="0px" y="0px"
	 viewBox="0 0 500 346" style="enable-background:new 0 0 500 346;" xml:space="preserve">
<style type="text/css">
	.st0{fill:#FFF6CF;}
	.st1{fill:#FFE266;}
	.st2{fill:#FFC200;}
	.st3{fill:#130B57;}
	.st4{fill:none;stroke:#FFFFFF;stroke-width:0;stroke-linecap:round;stroke-linejoin:round;}
</style>
<g>
	<g>
		<path class="st0" d="M360.21,173.75l-16.36,1.01c-0.3-0.08-0.58-0.17-0.89-0.25c-0.05-0.03-0.17-0.1-0.34-0.22
			c-0.17-0.23-0.28-0.37-0.29-0.39c-0.38-0.48-0.87-0.82-1.4-1.02c-0.26-0.23-0.53-0.47-0.81-0.73c-1.33-1.22-2.81-2.64-4.28-3.85
			c-0.74-0.6-1.48-1.16-2.29-1.62c-0.41-0.23-0.84-0.45-1.33-0.63c-0.5-0.17-1.07-0.32-1.78-0.32c-0.62,0-1.14,0.13-1.58,0.28
			c-0.82,0.3-1.4,0.68-1.96,1.09c-0.08,0.06-0.14,0.13-0.22,0.19c-0.4,0.22-0.75,0.51-1.02,0.86c-0.49,0.45-0.97,0.93-1.45,1.43
			c-1.28,1.35-2.56,2.82-3.6,3.92c-0.52,0.55-0.99,1-1.29,1.25c-0.07,0.06-0.13,0.1-0.18,0.14c-1.99,0.43-3.88,1.02-5.67,1.76
			L59.01,192.43c-2.26,0.14-4.28,1.16-5.71,2.69c-1.43,1.53-2.31,3.6-2.31,5.83c0,0.23,0.01,0.47,0.03,0.7l0.72,8.82
			c0.18,2.23,1.22,4.21,2.74,5.6c1.52,1.4,3.56,2.24,5.76,2.24c0.29,0,0.58-0.02,0.88-0.04l233.01-23.75
			c-0.8,1.37-1.55,2.76-2.25,4.17L71.91,249.82c-1.94,0.45-3.58,1.55-4.72,3.01c-1.14,1.45-1.79,3.27-1.79,5.19
			c0,0.69,0.09,1.38,0.26,2.07l2.12,8.38c0.48,1.9,1.59,3.51,3.04,4.61c1.44,1.11,3.24,1.74,5.12,1.74c0.74,0,1.49-0.1,2.23-0.3
			l207.15-56.89c-0.58,2.47-1.04,4.8-1.4,6.88c-0.98,5.75-1.23,9.73-1.26,10.18c-0.14,1.04-0.21,2.05-0.21,3.04
			c-0.01,3.86,1.08,7.32,2.9,10.13c1.36,2.12,3.11,3.88,5.05,5.32c2.92,2.17,6.29,3.65,9.7,4.61c3.41,0.96,6.88,1.4,10.06,1.4h43.97
			c2.93,0,6.03-0.54,9.1-1.52c4.6-1.49,9.15-4,12.69-7.57c1.77-1.79,3.28-3.85,4.36-6.19c1.08-2.34,1.71-4.95,1.7-7.73
			c0-1.16-0.12-2.36-0.34-3.56l0,0c-0.03-0.17-1.39-12.44-6.79-25.85c-1.62-4.01-3.61-8.12-6.06-12.05l5.39-1.48l-1.69-6.68
			l1.26-0.13l-1.1-13.43l-1.92,0.12"/>
	</g>
	<g>
		<path class="st1" d="M368.82,177.02l0.58,7.1L59.94,215.66c-2.95,0.3-5.58-1.88-5.82-4.84L53.39,202
			c-0.24-2.96,1.99-5.54,4.96-5.73L368.82,177.02z"/>
	</g>
	<path class="st0" d="M354.55,255.32h-43.97c-10.95,0-26.45-5.83-24.27-21.04c0,0,2.66-50.36,34.26-56.94c2.17-0.45,7.81-9,10.27-9
		c2.7,0,9.25,8.11,11.6,8.65c30.99,7.12,36.4,55.34,36.4,55.34C381.65,246.48,365.5,255.32,354.55,255.32z"/>
	<g>
		<path class="st1" d="M367.7,184.8l1.71,6.74L76.45,272c-2.8,0.77-5.68-0.91-6.39-3.72l-2.12-8.38c-0.71-2.81,1.02-5.66,3.85-6.32
			L367.7,184.8z"/>
	</g>
	<polygon class="st2" points="137.26,237.31 142.09,254.98 198.72,239.22 193.86,224.47 	"/>
	<polygon class="st2" points="127.26,190.15 128.95,208.4 187.46,202.73 185.23,187.36 	"/>
	<g>
		<path class="st3" d="M321.57,56.07c0.59,1.46,1.09,2.6,1.4,3.54c0.31,0.95,0.46,1.66,0.46,2.52c0,0.8-0.14,1.77-0.56,3.15
			c-0.42,1.36-1.13,3.08-2.23,5.28c-0.21,0.37-0.7,1.31-1.19,2.74c-0.59,1.72-1.17,4.14-1.18,7.05c-0.01,3.23,0.74,7.07,2.94,11.02
			c2.45,4.4,3.7,8.51,3.69,12.04c0,1.85-0.33,3.56-1,5.18c-0.68,1.62-1.71,3.18-3.22,4.7c-1.26,1.26-1.26,3.32,0,4.58
			c1.26,1.26,3.32,1.26,4.58,0c2.05-2.05,3.61-4.34,4.62-6.79c1.02-2.45,1.5-5.05,1.5-7.67c-0.01-5.04-1.7-10.13-4.51-15.19
			c-1.64-2.96-2.12-5.61-2.13-7.88c0-2.04,0.41-3.76,0.82-4.94c0.2-0.59,0.4-1.05,0.54-1.34c0.07-0.14,0.12-0.25,0.15-0.3l0.03-0.05
			l0.05-0.09l0.06-0.11c1.21-2.43,2.07-4.47,2.65-6.31c0.57-1.84,0.85-3.5,0.85-5.07c0-1.69-0.34-3.22-0.79-4.57
			c-0.45-1.36-1-2.57-1.53-3.9c-0.81-2.01-1.72-3.53-2.3-4.82c-0.59-1.3-0.89-2.28-0.9-3.58c0-1.45,0.43-3.5,2.01-6.68
			c0.8-1.6,0.15-3.55-1.45-4.34c-1.6-0.8-3.55-0.15-4.34,1.45v0c-1.87,3.73-2.7,6.8-2.7,9.57c-0.01,2.5,0.71,4.6,1.49,6.28
			C320.19,53.25,321,54.62,321.57,56.07z"/>
		<path class="st3" d="M295.64,124.97c0,1.85-0.33,3.56-1,5.18c-0.68,1.62-1.71,3.18-3.22,4.7c-1.26,1.26-1.26,3.32,0,4.58
			c1.26,1.26,3.32,1.26,4.58,0c2.05-2.05,3.61-4.34,4.63-6.79c1.02-2.45,1.5-5.05,1.5-7.67c-0.01-5.04-1.7-10.13-4.51-15.19
			c-1.64-2.96-2.12-5.61-2.13-7.88c0-2.04,0.41-3.76,0.82-4.94c0.2-0.59,0.4-1.05,0.54-1.34c0.07-0.14,0.12-0.25,0.15-0.3l0.03-0.05
			l0,0c0.9-1.53,0.41-3.51-1.12-4.42c-1.53-0.92-3.52-0.42-4.44,1.11v0c-0.09,0.15-0.69,1.18-1.28,2.9
			c-0.59,1.72-1.17,4.14-1.18,7.05c-0.01,3.23,0.74,7.07,2.94,11.02C294.4,117.34,295.64,121.44,295.64,124.97z"/>
		<path class="st3" d="M364.11,140.49c-0.01-5.04-1.7-10.13-4.51-15.19c-1.64-2.96-2.12-5.61-2.13-7.88c0-2.04,0.41-3.76,0.82-4.94
			c0.2-0.59,0.4-1.05,0.54-1.34c0.07-0.14,0.12-0.25,0.15-0.3l0.03-0.05l0,0c0.9-1.53,0.41-3.51-1.12-4.42
			c-1.53-0.92-3.52-0.42-4.44,1.11v0c-0.09,0.15-0.69,1.18-1.28,2.9c-0.59,1.72-1.17,4.14-1.18,7.05
			c-0.01,3.23,0.74,7.07,2.94,11.02c2.45,4.4,3.7,8.51,3.69,12.04c0,1.85-0.33,3.56-1,5.18c-0.68,1.62-1.71,3.18-3.22,4.7
			c-1.26,1.26-1.26,3.32,0,4.58c1.26,1.26,3.32,1.26,4.58,0c2.05-2.05,3.61-4.34,4.63-6.79
			C363.64,145.71,364.11,143.12,364.11,140.49z"/>
		<path class="st3" d="M381.65,232.6L381.65,232.6c-0.02-0.17-1.39-12.44-6.79-25.85c-1.62-4.01-3.62-8.12-6.06-12.05l5.39-1.48
			l-1.69-6.68l1.26-0.13l-1.1-13.43l-1.92,0.12l-1.25,0.08l-9.28,0.58l-16.36,1.01c-0.3-0.08-0.59-0.18-0.89-0.25
			c-0.05-0.03-0.17-0.1-0.34-0.22c-0.17-0.23-0.28-0.37-0.3-0.39c-0.38-0.48-0.87-0.82-1.4-1.02c-0.26-0.23-0.53-0.48-0.81-0.73
			c-1.33-1.22-2.81-2.64-4.28-3.85c-0.74-0.6-1.48-1.16-2.29-1.63c-0.41-0.23-0.84-0.45-1.33-0.63c-0.5-0.17-1.07-0.32-1.78-0.32
			c-0.62,0-1.14,0.13-1.58,0.28c-0.81,0.3-1.4,0.68-1.96,1.09c-0.08,0.06-0.14,0.13-0.22,0.19c-0.4,0.22-0.75,0.51-1.02,0.86
			c-0.49,0.45-0.97,0.93-1.45,1.42c-1.28,1.35-2.56,2.82-3.6,3.92c-0.52,0.55-0.99,1-1.29,1.25c-0.07,0.06-0.13,0.11-0.18,0.14
			c-1.99,0.43-3.88,1.02-5.67,1.76L59.01,192.43c-2.26,0.14-4.28,1.16-5.71,2.69c-1.43,1.53-2.31,3.6-2.3,5.83
			c0,0.23,0.01,0.47,0.03,0.7l0.72,8.82c0.18,2.22,1.22,4.21,2.74,5.6c1.52,1.4,3.56,2.24,5.76,2.24c0.29,0,0.58-0.01,0.88-0.04
			l233.01-23.75c-0.8,1.37-1.55,2.76-2.25,4.16L71.91,249.82c-1.94,0.45-3.58,1.55-4.72,3c-1.14,1.45-1.79,3.27-1.79,5.19
			c0,0.69,0.08,1.38,0.26,2.07l2.12,8.38c0.48,1.9,1.59,3.51,3.04,4.61c1.44,1.11,3.24,1.74,5.12,1.74c0.74,0,1.49-0.1,2.23-0.3
			l207.15-56.89c-0.58,2.47-1.04,4.8-1.4,6.88c-0.97,5.69-1.23,9.66-1.26,10.17c-0.14,1.04-0.22,2.06-0.22,3.05
			c-0.01,3.86,1.08,7.32,2.9,10.13c1.36,2.12,3.11,3.88,5.05,5.33c2.92,2.17,6.29,3.65,9.7,4.61c3.41,0.96,6.88,1.4,10.06,1.4h43.97
			c2.93,0,6.03-0.54,9.1-1.52c4.6-1.49,9.15-4,12.69-7.57c1.77-1.79,3.28-3.85,4.36-6.19c1.08-2.34,1.71-4.95,1.7-7.73
			C381.99,235,381.87,233.81,381.65,232.6z M364.94,250.01c-3.6,1.77-7.62,2.71-10.81,2.7h-43.97c-2.29,0-4.86-0.29-7.37-0.91
			c-3.77-0.92-7.37-2.6-9.86-4.92c-1.25-1.16-2.24-2.47-2.92-3.95c-0.68-1.49-1.08-3.18-1.08-5.2c0-0.74,0.06-1.52,0.17-2.36
			l0.02-0.14l0.01-0.14l0-0.02c0.02-0.49,0.58-9.17,3.37-19.41l34.56-9.49c-0.18,0.71-0.37,1.42-0.59,2.11
			c-1.5,4.72-3.89,9.02-7.6,12.54c-1.3,1.23-1.36,3.28-0.13,4.58c1.23,1.3,3.28,1.36,4.58,0.13c4.64-4.39,7.58-9.75,9.33-15.29
			c0.63-1.98,1.1-3.99,1.46-6l14.31-3.93c0.73,2.82,1.18,5.69,1.17,8.46c0,3.03-0.51,5.94-1.7,8.66c-1.19,2.72-3.06,5.28-5.95,7.65
			c-1.39,1.13-1.59,3.17-0.46,4.56c1.13,1.39,3.17,1.59,4.56,0.46c3.64-2.96,6.2-6.42,7.8-10.08c1.6-3.66,2.24-7.5,2.24-11.26
			c-0.01-3.48-0.55-6.91-1.4-10.18l7.57-2.08c4.61,6.88,7.77,14.91,9.75,21.73c1.25,4.29,2.07,8.1,2.57,10.81
			c0.25,1.36,0.42,2.44,0.52,3.18c0.05,0.37,0.09,0.65,0.11,0.84l0.03,0.21l0.01,0.05l0.02,0.14l0.03,0.13
			c0.18,0.9,0.26,1.75,0.26,2.57c-0.01,2.42-0.7,4.56-1.93,6.55C371.73,245.68,368.55,248.25,364.94,250.01z M74.76,267.93
			c-0.34-0.26-0.58-0.61-0.7-1.06l-2.12-8.38c-0.04-0.17-0.06-0.33-0.06-0.48c0-0.43,0.15-0.86,0.42-1.2
			c0.27-0.34,0.63-0.58,1.09-0.69l62.4-14.5l2.45,9.68l-61.78,16.97c-0.18,0.05-0.35,0.07-0.52,0.07
			C75.52,268.34,75.1,268.19,74.76,267.93z M196.57,238.64L196.57,238.64L196.57,238.64z M142.15,253.58L142.15,253.58
			L142.15,253.58z M142.09,240.16l48.66-11.31l1.9,7.51l-48.17,13.23L142.09,240.16z M197.06,227.38l169.14-39.31l0.15,0.59
			L198.9,234.64L197.06,227.38z M60.26,211.84c-0.53,0-1.01-0.2-1.39-0.54c-0.37-0.35-0.61-0.8-0.66-1.35l-0.72-8.82l-0.01-0.17
			c0-0.54,0.21-1.03,0.56-1.41c0.36-0.38,0.82-0.61,1.38-0.65l65.55-4.06l0.85,10.34l-65.33,6.66L60.26,211.84z M131.43,194.43
			l51.2-3.17l0.66,8.06l-51.04,5.2L131.43,194.43z M189.1,190.85l113.42-7.03c-1.24,1.17-2.41,2.4-3.49,3.69l-109.3,11.14
			L189.1,190.85z M326.31,177.94c0-0.4-0.01-0.74-0.02-1.04c0.09-0.1,0.18-0.2,0.27-0.29c0.76,3.46,1.59,8.29,1.86,13.6l-4.58,1.06
			c0.6-1.47,1.05-2.92,1.4-4.32C326.14,183.29,326.31,180.03,326.31,177.94z M349.44,185.31c-0.09-0.18-0.18-0.38-0.28-0.55
			c-0.24-0.45-0.48-0.89-0.71-1.32c0.88,0.46,1.73,0.97,2.55,1.51L349.44,185.31z M336.81,177.91c0.38,0.33,0.75,0.65,1.12,0.95
			c1.01,1.4,2.97,4.26,4.99,7.97l-8.09,1.88c-0.38-5.91-1.36-11.07-2.19-14.61c0.05,0.04,0.1,0.08,0.15,0.13
			C334.06,175.35,335.48,176.72,336.81,177.91z M366.72,179.84l0.06,0.77l-9.42,0.96c-0.46-0.36-0.93-0.72-1.41-1.06L366.72,179.84z
			 M319.64,181.45c-0.23,2.08-0.69,4.54-1.62,6.93c-0.66,1.72-1.55,3.37-2.71,4.87l-14.91,3.47c1.15-1.85,2.39-3.62,3.77-5.24
			C308.24,186.67,313.25,183.07,319.64,181.45z M129.29,208.07L129.29,208.07L129.29,208.07z M186.78,202.21L186.78,202.21
			L186.78,202.21z"/>
	</g>
	<ellipse class="st0" cx="333.88" cy="293.77" rx="44.87" ry="8.92"/>
</g>
</svg>
