<svg id="a9b87356-acc1-4bbc-83d0-8b17005b3328" data-name="Layer 8" xmlns="http://www.w3.org/2000/svg" viewBox="0 0 338.03 312.62"><path d="M242.14,87.42A148.46,148.46,0,0,0,171,105.48L171.7,129l2-1.59a15.76,15.76,0,0,1,2.1-7.76,14,14,0,0,1,5.7-5.47,12.45,12.45,0,0,1,5.25-1.41l.14,3.59-.14-3.59,5.89-.25a15.53,15.53,0,0,1,8.93-2.86,13.82,13.82,0,0,1,5.74,1.21,12.82,12.82,0,0,1,4.66,3.59,127.41,127.41,0,0,1,30.13-3.59c2.44,0,4.86.08,7.27.22l7.68-.33v1A127.21,127.21,0,0,1,358.15,186,54,54,0,0,1,387,213.65c.89.09,1.76.23,2.62.4A149.21,149.21,0,0,0,242.14,87.42Z" transform="translate(-77.01 -80.23)" style="fill:#fff"/><polygon points="96.04 95.39 98.56 93.41 98.07 81.52 95.69 83.39 96.04 95.39" style="fill:#fff"/><polygon points="125.38 67.04 125.59 72.15 127.92 70.32 125.38 67.04" style="fill:#fff"/><path d="M257.38,119l1.14,27.83L295.11,182H337.8a54.58,54.58,0,0,1,11,1.14A120.09,120.09,0,0,0,257.38,119Z" transform="translate(-77.01 -80.23)" style="fill:#fff"/><path d="M227.56,134.25a15.54,15.54,0,0,1,2.53-.51l-.28-6.94v-.68a15.7,15.7,0,0,1,1.95-7.64,119.59,119.59,0,0,0-14.71,2.15Z" transform="translate(-77.01 -80.23)" style="fill:#fff"/><path d="M144,137.18l-.36-12.63q-2.64,2.31-5.14,4.73Z" transform="translate(-77.01 -80.23)" style="fill:#fff"/><path d="M337.09,322.4c-1.65,1.85-3.34,3.65-5.09,5.41a127.09,127.09,0,0,1-179.73,0c-1.75-1.75-3.45-3.56-5.09-5.41H122.92c-.94,0-1.88,0-2.82-.12A151.23,151.23,0,0,0,136.7,342a149.17,149.17,0,0,0,210.91,0A151.56,151.56,0,0,0,364.1,322.4Z" transform="translate(-77.01 -80.23)" style="fill:#fff"/><polygon points="152.3 101.78 144.99 92.35 133 101.78 152.3 101.78" style="fill:#fff"/><path d="M242.14,357.86a119.57,119.57,0,0,0,84.79-35.15l.32-.34H157l.32.34A119.6,119.6,0,0,0,242.14,357.86Z" transform="translate(-77.01 -80.23)" style="fill:#fff"/><path d="M103.7,182.41l1.78-1.44-1.48-.72c-.4,1-.78,1.93-1.15,2.91A8.6,8.6,0,0,1,103.7,182.41Z" transform="translate(-77.01 -80.23)" style="fill:#fff"/><path d="M126.06,160.14l-6.23-8.94c-1,1.44-2,2.89-2.93,4.35Z" transform="translate(-77.01 -80.23)" style="fill:#fff"/><path d="M100.05,214.63a54.15,54.15,0,0,1,9-14.18l-4.11-2.31a9.42,9.42,0,0,1-3.58-3.59,9.53,9.53,0,0,1-1.2-3.71,148,148,0,0,0-5.85,26A31.31,31.31,0,0,1,100.05,214.63Z" transform="translate(-77.01 -80.23)" style="fill:#fff"/><path d="M257.07,111.73l.29,7.26a120.06,120.06,0,0,1,91.44,64.15,53.51,53.51,0,0,1,9.33,2.87A127.21,127.21,0,0,0,257.07,111.73Z" transform="translate(-77.01 -80.23)" style="fill:#ffd617"/><path d="M212,114.46l.1.11-2.82,2.22,2.82-2.22L215,118.2l.11-.08,2,2.54a123.71,123.71,0,0,1,14.72-2.15l.15-.29a14.07,14.07,0,0,1,5.69-5.47,12.94,12.94,0,0,1,5.28-1.38h0l6.54-.27c-2.41-.13-4.83-.21-7.27-.21A127,127,0,0,0,212,114.46Z" transform="translate(-77.01 -80.23)" style="fill:#ffd617"/><path d="M242.14,365A126.75,126.75,0,0,0,332,327.81c1.75-1.75,3.45-3.56,5.09-5.41h-9.84l-.32.34a119.92,119.92,0,0,1-169.59,0l-.32-.34h-9.84c1.65,1.85,3.34,3.65,5.09,5.41A126.71,126.71,0,0,0,242.14,365Z" transform="translate(-77.01 -80.23)" style="fill:#ffd617"/><path d="M95.23,163.35a7,7,0,0,0,1.15,3.75,8.72,8.72,0,0,0,3.43,3l11.9,6,11.75-9.24L99,154.57l-3.15,6.27-3.2-1.6,3.2,1.6A5.47,5.47,0,0,0,95.23,163.35Z" transform="translate(-77.01 -80.23)" style="fill:#fff"/><path d="M126.41,136.71a5.62,5.62,0,0,0-1.84,2.15,7,7,0,0,0-.66,3,8.59,8.59,0,0,0,1.59,4.89l8.31,12,10.63-8.34v-.09l-12.26-17.61-5.74,4-2.08-3Z" transform="translate(-77.01 -80.23)" style="fill:#fff"/><path d="M154.19,96.48a6.62,6.62,0,0,0-2,1.57,8.37,8.37,0,0,0-2,5.5v.27l1.2,41.05,13.23-10.4-1.14-38.78-7,.2-.1-3.58.1,3.58A5.65,5.65,0,0,0,154.19,96.48Z" transform="translate(-77.01 -80.23)" style="fill:#fff"/><polygon points="75.52 101.78 87.91 101.78 89.02 100.9 88.67 88.91 75.44 99.31 75.52 101.78" style="fill:#fff"/><path d="M204.39,117.38a6.87,6.87,0,0,0-2.79-.58h-.45l.49,12.2a13.16,13.16,0,0,1,2.2-2.15h0l5.45-4.23L206.47,119h0A5.5,5.5,0,0,0,204.39,117.38Z" transform="translate(-77.01 -80.23)" style="fill:#fff"/><path d="M108.14,188.05a2.13,2.13,0,0,0-.67.82,2.27,2.27,0,0,0-.22,1,2.32,2.32,0,0,0,.3,1.15,2.23,2.23,0,0,0,.88.87l5.88,3.31A54.09,54.09,0,0,1,135.16,184l39.55-31.08L174,136.23Z" transform="translate(-77.01 -80.23)" style="fill:#fff"/><polygon points="154.7 93.16 154.37 84.99 150.64 87.92 154.7 93.16" style="fill:#fff"/><path d="M208.24,132.49a5.56,5.56,0,0,0-1.66,2.1,6.63,6.63,0,0,0-.59,2.81,8.58,8.58,0,0,0,1.85,5.19l2.73,3.53,10.63-8.36-7.41-9.57-5.55,4.3-2.2-2.87Z" transform="translate(-77.01 -80.23)" style="fill:#fff"/><path d="M203,161.22l.71,16.67,27.38-21.52-.63-15.43a8.73,8.73,0,0,0-3.85,1.75Z" transform="translate(-77.01 -80.23)" style="fill:#fff"/><path d="M182.8,122.11a8.28,8.28,0,0,0-1.92,5.44v.38l2.2,54.07h13.54l-2.54-62.36-7,.28h0a5.69,5.69,0,0,0-2.29.61A6.31,6.31,0,0,0,182.8,122.11Z" transform="translate(-77.01 -80.23)" style="fill:#fff"/><path d="M243.16,118.5a5.43,5.43,0,0,0-2.3.61,6.39,6.39,0,0,0-2,1.57,8.37,8.37,0,0,0-1.91,5.44v.38l1,23.24A11.89,11.89,0,0,1,239.3,148h0l9.88-10.26,1.9,1.84-.87-21.42-7,.29-.15-3.59Z" transform="translate(-77.01 -80.23)" style="fill:#fff"/><path d="M252.69,179.89l-12.12-11.67a16.77,16.77,0,0,1-2-2.31l.66,16.09h13.51Z" transform="translate(-77.01 -80.23)" style="fill:#fff"/><path d="M244.46,153a5.62,5.62,0,0,0-1.18,1.85,6.54,6.54,0,0,0-.4,2.27,8.36,8.36,0,0,0,2.65,5.93L265.24,182h19.51l-35.42-34.07L244.46,153l-2.58-2.49Z" transform="translate(-77.01 -80.23)" style="fill:#fff"/><path d="M167.25,213.08h3.06a31.33,31.33,0,0,1,4.74.37H262.4a30.16,30.16,0,0,1,17-5.22h.38l6,.08a30.16,30.16,0,0,1,16.5,5.14h76.57a46.92,46.92,0,0,0-41.07-24.26H149.69a47,47,0,0,0-41.08,24.25h53.9A31.32,31.32,0,0,1,167.25,213.08Z" transform="translate(-77.01 -80.23)" style="fill:#fff"/><path d="M405.75,222.71a31.93,31.93,0,0,0-8.56-6.11A156.37,156.37,0,0,0,170.77,97.46l-.27-9.16-14.19.42h0A12.82,12.82,0,0,0,151,90.07a13.94,13.94,0,0,0-5.74,5.47,15.77,15.77,0,0,0-2.15,8V104l.33,11.34q-4.68,3.8-9,7.94l-.43-.63-11.66,8.13h0a12.79,12.79,0,0,0-4.19,4.92,14,14,0,0,0-1.38,6.14,8.93,8.93,0,0,0,.06,1.27q-3.35,4.46-6.35,9.16l-14.68-7.38L89.4,157.61h0a12.88,12.88,0,0,0-1.35,5.74A14.19,14.19,0,0,0,90.36,171a15.91,15.91,0,0,0,6.24,5.55l1,.49a155.23,155.23,0,0,0-11.12,45.53l-.16.15A31.47,31.47,0,0,0,77,245v4.75A31.49,31.49,0,0,0,86.28,272c.72.72,1.47,1.4,2.25,2.05a20.34,20.34,0,0,0-1.65,8.1v4.21a36,36,0,0,0,23,33.58,156.38,156.38,0,0,0,263.6,1.29,36,36,0,0,0,27.06-34.89v-4.2a20.46,20.46,0,0,0-.72-5.5,32,32,0,0,0,5.92-4.65A31.48,31.48,0,0,0,415,249.73V245A31.44,31.44,0,0,0,405.75,222.71Zm-12.34,59.47v4.21a28.83,28.83,0,0,1-28.83,28.83H122.92a28.83,28.83,0,0,1-28.83-28.83h0v-4.21a13.44,13.44,0,0,1,13.41-13.44H380a13.44,13.44,0,0,1,13.44,13.44ZM242.14,385.71A148.68,148.68,0,0,1,136.69,342a151.53,151.53,0,0,1-16.64-19.75c.94.07,1.88.12,2.82.12H364.11A150.84,150.84,0,0,1,347.61,342,148.71,148.71,0,0,1,242.14,385.71ZM174,136.23l.72,16.68L135.17,184a54.13,54.13,0,0,0-20.86,11.2l-5.89-3.31a2.26,2.26,0,0,1-.89-.87,2.43,2.43,0,0,1-.3-1.15,2.28,2.28,0,0,1,.23-1,2.2,2.2,0,0,1,.66-.82Zm35.25-13.63-5.45,4.23h0a13.16,13.16,0,0,0-2.2,2.15l-.49-12.2h.45a6.71,6.71,0,0,1,2.79.58,5.42,5.42,0,0,1,2.08,1.63h0Zm107.61,139a30.15,30.15,0,0,1-8.93-13l-5.59-16a18,18,0,0,0-16.75-12l-6-.08h-.27a18,18,0,0,0-17,12.15l-4.92,14.35a30.2,30.2,0,0,1-10.87,14.67h-46c-.38-.27-.72-.56-1.13-.86a30.09,30.09,0,0,1-10.58-16.87l-1.07-4.64a17.93,17.93,0,0,0-17.54-13.94h-3.06a18,18,0,0,0-16.67,11.27l-10.05,25H127.37L139.26,232a30.19,30.19,0,0,1,23.25-18.55h-53.9a47,47,0,0,1,41.08-24.26H337.78a46.92,46.92,0,0,1,41.07,24.26H302.26l.77.53a30.24,30.24,0,0,1,10.87,14.55l5.58,16a17.94,17.94,0,0,0,16.57,12h.4A18,18,0,0,0,352.33,247l12.77-25.41a6.1,6.1,0,0,1,11,5.33c0,.05-.05.1-.07.14l-12.85,25.57v.06a30,30,0,0,1-7.17,8.87ZM187.08,119.92l7-.29L196.64,182H183.09l-2.21-54.07v-.38a8.29,8.29,0,0,1,1.93-5.44,6.24,6.24,0,0,1,2-1.57,5.54,5.54,0,0,1,2.29-.61Zm21.17,12.56,5.55-4.31,7.4,9.59-10.64,8.36-2.72-3.52a8.53,8.53,0,0,1-1.86-5.19,7,7,0,0,1,.59-2.82,5.65,5.65,0,0,1,1.66-2.09l-2.2-2.87Zm22.15,8.45.63,15.44-27.38,21.52-.71-16.67,23.58-18.54a8.64,8.64,0,0,1,3.86-1.74ZM244.48,153l4.87-5.07L284.76,182H265.25l-19.7-18.95a8.38,8.38,0,0,1-2.66-5.94,6.68,6.68,0,0,1,.4-2.26,5.43,5.43,0,0,1,1.19-1.86l-2.58-2.49ZM165.7,169.13l.35,12-1.12.88h-12.4l-.07-2.47Zm9.87,4.5-2.52,2-.35-12,2.38-1.87Zm26.82-26.37,2.54,3.28-2.33,1.84Zm29.32,26.12-4.05-5.23,3.73-2.93Zm-2.4,8.61H210l12-9.43Zm9.27-16.09a16.12,16.12,0,0,0,2,2.3l12.13,11.67.09,2.16H239.24Zm4.58-47.4,7-.29.88,21.42-1.87-1.87L239.33,148h0a11.8,11.8,0,0,0-1.37,1.71l-1-23.21v-.38a8.43,8.43,0,0,1,1.92-5.44,6.47,6.47,0,0,1,2-1.57,5.43,5.43,0,0,1,2.3-.61l-.15-3.59ZM387,213.65A54,54,0,0,0,337.78,182H295.09L258.5,146.82,257.36,119l-.29-7.26v-1l-7.64.32-6.55.26h0a12.71,12.71,0,0,0-5.27,1.39,13.94,13.94,0,0,0-5.69,5.47,2.69,2.69,0,0,0-.16.29,15.7,15.7,0,0,0-1.95,7.64v.68l.28,6.94a15.54,15.54,0,0,0-2.53.51L217,120.66l-2-2.54-.11.08-2.87-3.63-2.82,2.22,2.82-2.22-.1-.11a12.82,12.82,0,0,0-4.66-3.59,13.83,13.83,0,0,0-5.74-1.22,15.61,15.61,0,0,0-8.93,2.87l-5.89.25.14,3.58-.14-3.58a12.63,12.63,0,0,0-5.28,1.38,14,14,0,0,0-5.69,5.47,15.76,15.76,0,0,0-2.1,7.76l-2,1.58L171,105.48a149.21,149.21,0,0,1,218.6,108.57C388.73,213.88,387.86,213.74,387,213.65ZM144,137.18l-5.5-7.89q2.52-2.41,5.14-4.72Zm-24.21,14,6.23,8.94-9.16-4.59C117.86,154.08,118.83,152.63,119.83,151.2ZM105.48,181l-1.78,1.43a8.51,8.51,0,0,0-.86.73c.37-1,.71-1.95,1.14-2.91Zm-5.34,9.83a9.4,9.4,0,0,0,4.75,7.28l4.11,2.31a53.63,53.63,0,0,0-9,14.18,30.21,30.21,0,0,0-5.74,2.27A147,147,0,0,1,100.14,190.84Zm56.38-94.95,7-.2,1.13,38.78-13.23,10.4-1.19-41.05v-.27a8.42,8.42,0,0,1,1.95-5.5,6.79,6.79,0,0,1,2-1.57,5.65,5.65,0,0,1,2.32-.59l-.1-3.58Zm-30.13,40.82,5.74-4,12.31,17.61v.09l-10.61,8.34-8.33-11.95a8.62,8.62,0,0,1-1.59-4.9,7,7,0,0,1,.66-3,5.62,5.62,0,0,1,1.84-2.15l-2-3ZM95.81,160.84,99,154.57l24.51,12.3-11.75,9.24-11.9-6a8.75,8.75,0,0,1-3.44-3,6.94,6.94,0,0,1-1.16-3.75,5.36,5.36,0,0,1,.59-2.51l-3.21-1.6Z" transform="translate(-77.01 -80.23)" style="fill:#fe4c00"/><path d="M175.05,213.44a30.13,30.13,0,0,1,24.67,23.06l1.06,4.64a18,18,0,0,0,17.55,14h10.6a18,18,0,0,0,17-12.16l4.91-14.34a30.13,30.13,0,0,1,11-14.78l.57-.39Z" transform="translate(-77.01 -80.23)" style="fill:#fe4c00"/><path d="M363.11,252.69v-.05L376,227.07a6.09,6.09,0,1,0-10.82-5.61.61.61,0,0,0-.07.14L352.32,247a18,18,0,0,1-15.88,9.56H336a17.91,17.91,0,0,1-16.56-12l-5.59-16A30.18,30.18,0,0,0,303,214l-.76-.53a30.05,30.05,0,0,0-16.5-5.14l-6-.08h-.38a30.16,30.16,0,0,0-16.95,5.22c-.19.14-.39.26-.57.39a30.1,30.1,0,0,0-11,14.78L245.9,243a18,18,0,0,1-17,12.15H218.33a18,18,0,0,1-17.52-14l-1.07-4.64a30.13,30.13,0,0,0-29.41-23.43h-3.08a31.33,31.33,0,0,0-4.74.37A30.19,30.19,0,0,0,139.26,232l-11.89,29.57h13.14l10-25a18,18,0,0,1,16.7-11.25h3.06a17.92,17.92,0,0,1,17.52,14l1.07,4.64a30.16,30.16,0,0,0,10.6,16.85c.37.29.72.58,1.13.85h46a30.15,30.15,0,0,0,10.87-14.67l4.91-14.35a18,18,0,0,1,17-12.15h.26l6,.08a18,18,0,0,1,16.75,12l5.59,16a30.11,30.11,0,0,0,8.92,13H356A29.94,29.94,0,0,0,363.11,252.69Z" transform="translate(-77.01 -80.23)" style="fill:#ffd617"/><path d="M389.47,272.68a13.36,13.36,0,0,0-9.5-3.94H107.5a13.44,13.44,0,0,0-13.44,13.44h0v4.21a28.84,28.84,0,0,0,28.83,28.84H364.6a28.83,28.83,0,0,0,28.84-28.82h0v-4.21A13.36,13.36,0,0,0,389.47,272.68Z" transform="translate(-77.01 -80.23)" style="fill:#fff"/><polyline points="87.47 165.77 87.47 165.77 93.99 161.72" style="fill:#fff;stroke:#fff;stroke-miterlimit:10;stroke-width:10px"/><polygon points="47.29 149.7 41.65 154.14 49.38 163.94 52.19 161.72 55.01 159.5 47.29 149.7" style="fill:#fff"/><polygon points="112.66 151.32 115.01 154.04 117.35 156.75 130.29 145.57 125.59 140.15 112.66 151.32" style="fill:#fff"/><polygon points="179.07 163.1 174.28 168.44 183 176.25 185.39 173.58 187.78 170.91 179.07 163.1" style="fill:#fff"/><polygon points="207.92 148.5 201.18 150.62 203.34 157.47 210.08 155.34 208.99 151.92 207.92 148.5" style="fill:#fff"/><polygon points="149.33 154.63 152.17 156.82 155.01 159.01 158.79 154.11 153.1 149.73 149.33 154.63" style="fill:#fff"/><polygon points="232.96 163.75 231.19 160.63 224.32 164.54 227.87 170.78 234.74 166.86 232.96 163.75" style="fill:#fff"/></svg>