<?xml version="1.0" encoding="UTF-8" standalone="no"?>
<svg xmlns:dc="http://purl.org/dc/elements/1.1/" xmlns:cc="http://creativecommons.org/ns#"
   xmlns:rdf="http://www.w3.org/1999/02/22-rdf-syntax-ns#" xmlns:svg="http://www.w3.org/2000/svg"
   xmlns="http://www.w3.org/2000/svg" xmlns:sodipodi="http://sodipodi.sourceforge.net/DTD/sodipodi-0.dtd"
   xmlns:inkscape="http://www.inkscape.org/namespaces/inkscape" version="1.1" id="Layer_1" x="0px" y="0px"
   viewBox="0 0 478.95001 478.95001" xml:space="preserve" sodipodi:docname="chinese.svg"
   inkscape:version="1.0.1 (3bc2e813f5, 2020-09-07)">
   <metadata id="metadata51">
      <rdf:RDF>
         <cc:Work rdf:about="">
            <dc:format>image/svg+xml</dc:format>
            <dc:type rdf:resource="http://purl.org/dc/dcmitype/StillImage" />
            <dc:title></dc:title>
         </cc:Work>
      </rdf:RDF>
   </metadata>
   <defs id="defs49" />
   <sodipodi:namedview pagecolor="#ffffff" bordercolor="#666666" borderopacity="1" objecttolerance="10"
      gridtolerance="10" guidetolerance="10" inkscape:pageopacity="0" inkscape:pageshadow="2"
      inkscape:window-width="1920" inkscape:window-height="1014" id="namedview47" showgrid="false"
      inkscape:zoom="1.3966336" inkscape:cx="235.08356" inkscape:cy="275.52673" inkscape:window-x="0"
      inkscape:window-y="32" inkscape:window-maximized="1" inkscape:current-layer="layer1" />
   <style type="text/css" id="style2">
      .st0 {
         fill: #FFFFFF;
      }

      .st1 {
         fill: #FE4C00;
      }

      .st2 {
         fill: #FFD617;
      }
   </style>
   <g id="g44" transform="matrix(0.98976132,0,0,0.98976132,17.366982,56.459898)">
      <path class="st0"
         d="M 328.26,79.11 C 301.27,52.13 264.04,35.46 222.87,35.45 c -41.18,0 -78.4,16.67 -105.39,43.66 -0.94,0.94 -1.83,1.92 -2.75,2.88 l 69.43,-13.83 c 12.2,-4.66 25.35,-7.37 39.09,-7.79 l 46.38,-9.24 3.67,18.41 c 43.34,18.14 73.8,60.94 73.8,110.86 0,33.01 -13.32,62.9 -34.87,84.61 l 0.92,4.62 -7.48,1.49 c -15.54,13.5 -34.57,23.07 -55.58,27.17 -12.33,6.91 -26.3,10.85 -41.1,10.85 -14.66,0 -28.5,-3.86 -40.75,-10.65 l -32.95,6.56 c 24.59,17.9 54.83,28.48 87.59,28.48 41.18,0 78.4,-16.67 105.39,-43.66 26.98,-26.99 43.65,-64.22 43.66,-105.39 -0.02,-41.16 -16.69,-78.38 -43.67,-105.37 z"
         id="path4" />
      <path class="st1"
         d="M 337.06,70.3 C 307.86,41.09 267.44,23 222.86,23 c -44.58,0 -84.99,18.09 -114.2,47.3 -4.9,4.9 -9.48,10.13 -13.73,15.62 l -43.83,8.73 12.52,62.84 c -1.48,8.78 -2.26,17.8 -2.26,27 0,31.57 9.08,61.05 24.75,85.94 l 8.51,42.72 24.51,-4.88 c 28.06,23.54 64.26,37.73 103.73,37.73 44.58,0 84.99,-18.09 114.2,-47.3 29.22,-29.21 47.31,-69.62 47.3,-114.2 0.01,-44.58 -18.08,-84.99 -47.3,-114.2 z M 127.25,296.46 v 0 l -7.85,1.57 -0.13,-0.66 -16.26,3.24 -39.35,-197.57 197.58,-39.35 2.12,10.65 c -4.93,-0.92 -9.99,-1.42 -15.16,-1.41 -21.1,-0.01 -40.5,7.98 -55.88,21.21 -3.09,2.66 -6.03,5.51 -8.77,8.57 -3.14,3.5 -6.05,7.26 -8.7,11.23 -0.2,0.3 -0.38,0.61 -0.58,0.91 -11.33,5.17 -21.51,12.76 -29.95,22.18 -16.43,18.31 -26.5,43.47 -26.5,71.18 0,0.17 0.01,0.33 0.01,0.5 0.07,14.9 3.05,29.05 8.37,41.79 4.49,10.78 10.64,20.55 18.12,28.89 3.51,3.92 7.33,7.5 11.4,10.74 l -20.75,4.13 0.13,0.64 z m 164.89,-46.97 c 5.11,-12.62 7.97,-26.59 7.97,-41.29 0,-27.7 -10.07,-52.87 -26.5,-71.18 -3.18,-3.54 -6.6,-6.82 -10.23,-9.82 0.15,-0.09 0.29,-0.18 0.46,-0.26 1.02,-0.5 2.41,-0.86 3.97,-0.85 2.07,-0.01 3.86,0.64 4.85,1.38 0.5,0.36 0.8,0.72 0.94,0.97 0.14,0.25 0.15,0.36 0.16,0.49 h 10.67 c 0,-2.13 -0.62,-4.17 -1.62,-5.87 -1.51,-2.57 -3.78,-4.43 -6.35,-5.7 -2.59,-1.26 -5.53,-1.94 -8.65,-1.94 -4.16,0.01 -8.02,1.19 -11.11,3.41 -0.79,0.57 -1.52,1.22 -2.19,1.94 -13.38,-8.56 -28.93,-13.52 -45.54,-13.52 -5.7,0 -11.26,0.61 -16.66,1.71 14.58,-15.78 34.23,-25.36 55.89,-25.37 22.06,0.01 42.05,9.93 56.71,26.23 14.63,16.3 23.77,38.94 23.77,64.05 0,25.1 -9.14,47.75 -23.77,64.05 -3.9,4.34 -8.18,8.2 -12.77,11.57 z m 8.45,11.77 -10.03,2 c 3.18,-1.85 6.26,-3.89 9.2,-6.13 z M 289.45,208.2 c 0,25.1 -9.14,47.75 -23.77,64.05 -14.65,16.3 -34.65,26.23 -56.71,26.23 -22.06,-0.01 -42.05,-9.93 -56.71,-26.23 -14.63,-16.3 -23.77,-38.94 -23.77,-64.05 0,-25.1 9.14,-47.75 23.77,-64.05 14.65,-16.3 34.65,-26.23 56.71,-26.23 22.06,0.01 42.05,9.93 56.71,26.23 14.63,16.3 23.77,38.95 23.77,64.05 z m 38.81,81.69 c -26.99,26.98 -64.22,43.65 -105.39,43.66 -32.76,0 -63,-10.58 -87.59,-28.48 l 32.95,-6.56 c 12.25,6.79 26.08,10.65 40.75,10.65 14.8,0 28.77,-3.94 41.1,-10.85 8.77,-4.92 16.73,-11.32 23.54,-18.93 0.66,-0.73 1.28,-1.49 1.92,-2.24 l 30.12,-6 7.48,-1.49 -0.92,-4.62 -0.12,-0.62 -3.06,-15.37 c 1.3,-1.3 2.58,-2.62 3.81,-3.99 16.43,-18.31 26.5,-43.47 26.5,-71.17 0,-27.7 -10.07,-52.87 -26.5,-71.18 -10.4,-11.6 -23.42,-20.45 -38.02,-25.38 l -1.55,-7.77 -3.67,-18.41 -46.38,9.24 -39.09,7.79 L 114.71,82 c 0.91,-0.96 1.81,-1.94 2.75,-2.88 26.99,-26.98 64.22,-43.65 105.39,-43.66 41.18,0 78.4,16.67 105.39,43.66 26.98,26.99 43.65,64.22 43.66,105.39 0.01,41.17 -16.66,78.39 -43.64,105.38 z"
         id="path6" />
      <path class="st2"
         d="m 273.28,69.55 1.55,7.77 c 14.59,4.93 27.61,13.78 38.02,25.38 16.43,18.31 26.5,43.47 26.5,71.18 0,27.7 -10.07,52.87 -26.5,71.17 -1.23,1.37 -2.51,2.7 -3.81,3.99 l 3.06,15.37 0.12,0.62 c 21.55,-21.71 34.87,-51.61 34.87,-84.61 0,-49.93 -30.46,-92.73 -73.81,-110.87 z"
         id="path8" />
      <path class="st2" d="m 223.24,60.37 c -13.74,0.42 -26.89,3.13 -39.09,7.79 z" id="path10" />
      <path class="st2"
         d="m 275.54,277.13 c -0.63,0.75 -1.26,1.51 -1.92,2.24 -6.82,7.61 -14.77,14.01 -23.54,18.93 21,-4.1 40.03,-13.67 55.58,-27.17 z"
         id="path12" />
      <path class="st0"
         d="M 192.32,94.13 C 207.7,80.9 227.1,72.92 248.2,72.92 c 5.17,0 10.23,0.5 15.16,1.41 l -2.12,-10.65 -197.58,39.36 39.35,197.58 16.26,-3.24 -36.33,-181.46 z"
         id="path14" />
      <path class="st0"
         d="m 155.72,290.12 c -4.06,-3.25 -7.89,-6.83 -11.4,-10.74 -7.48,-8.34 -13.63,-18.11 -18.12,-28.89 l 8.76,43.76 z"
         id="path16" />
      <path class="st0" d="m 300.59,261.26 -0.82,-4.14 c -2.94,2.24 -6.02,4.28 -9.2,6.13 z" id="path18" />
      <path class="st0"
         d="m 117.84,208.7 c 0,-0.17 -0.01,-0.33 -0.01,-0.5 0,-27.7 10.07,-52.87 26.5,-71.18 8.44,-9.42 18.62,-17.01 29.95,-22.18 0.2,-0.3 0.38,-0.61 0.58,-0.91 l -73.08,14.55 z"
         id="path20" />
      <path class="st2"
         d="m 126.2,250.49 c -5.31,-12.74 -8.3,-26.89 -8.37,-41.79 l -16.06,-80.21 73.08,-14.55 c 2.65,-3.97 5.56,-7.73 8.7,-11.23 2.74,-3.06 5.68,-5.91 8.77,-8.57 l -109.38,21.78 36.33,181.46 0.13,0.66 7.85,-1.57 v 0 l 7.85,-1.57 -0.13,-0.64 z"
         id="path22" />
      <path class="st0"
         d="m 304.91,237.92 c 14.63,-16.3 23.77,-38.94 23.77,-64.05 0,-25.1 -9.14,-47.75 -23.77,-64.05 -14.65,-16.3 -34.65,-26.23 -56.71,-26.23 -21.66,0.01 -41.31,9.59 -55.89,25.37 5.4,-1.11 10.97,-1.72 16.66,-1.71 16.61,0 32.17,4.96 45.54,13.52 0.67,-0.72 1.4,-1.37 2.19,-1.94 3.09,-2.22 6.95,-3.4 11.11,-3.41 3.12,0 6.07,0.68 8.65,1.94 2.57,1.27 4.84,3.13 6.35,5.7 1,1.7 1.62,3.74 1.62,5.87 h -10.67 c 0,-0.13 -0.02,-0.24 -0.16,-0.49 -0.14,-0.24 -0.44,-0.6 -0.94,-0.97 -0.99,-0.74 -2.78,-1.39 -4.85,-1.38 -1.55,0 -2.95,0.35 -3.97,0.85 -0.17,0.08 -0.31,0.17 -0.46,0.26 3.63,3 7.06,6.28 10.23,9.82 16.43,18.31 26.5,43.47 26.5,71.18 0,14.7 -2.86,28.66 -7.97,41.29 4.59,-3.37 8.87,-7.23 12.77,-11.57 z m 6.68,-66.19 8.88,5.92 -6.54,9.81 -4.44,-2.96 -4.44,-2.96 z"
         id="path24" />
      <path class="st0"
         d="m 208.97,117.92 c -22.06,0.01 -42.05,9.93 -56.71,26.23 -14.63,16.3 -23.77,38.94 -23.77,64.05 0,25.1 9.14,47.75 23.77,64.05 14.65,16.3 34.65,26.23 56.71,26.23 22.06,-0.01 42.05,-9.93 56.71,-26.23 14.63,-16.3 23.77,-38.94 23.77,-64.05 0,-25.1 -9.14,-47.75 -23.77,-64.05 -14.65,-16.3 -34.65,-26.23 -56.71,-26.23 z m 17.16,28.52 9.81,4.2 -4.9,11.44 -4.9,-2.1 -4.9,-2.1 z m -70.35,35.94 c -0.14,0.25 -0.15,0.36 -0.16,0.49 h -5.34 -5.34 c 0,-2.13 0.61,-4.17 1.62,-5.87 1,-1.71 2.36,-3.11 3.9,-4.23 3.09,-2.22 6.95,-3.4 11.11,-3.41 3.12,0 6.07,0.68 8.65,1.94 2.57,1.27 4.84,3.13 6.35,5.7 1,1.7 1.62,3.74 1.62,5.87 h -5.34 -5.34 c 0,-0.13 -0.02,-0.24 -0.16,-0.49 -0.14,-0.24 -0.44,-0.6 -0.94,-0.97 -0.99,-0.74 -2.78,-1.39 -4.85,-1.38 -1.55,0 -2.95,0.35 -3.97,0.85 -1.01,0.5 -1.61,1.13 -1.81,1.5 z m 16.42,75.67 -4.44,2.96 -6.54,-9.81 8.88,-5.92 6.54,9.81 z m 5.03,-49.92 -3.27,-6.54 9.54,-4.77 3.27,6.54 -4.77,2.39 z m 33.22,54.83 h -5.34 c 0,-0.13 -0.02,-0.24 -0.16,-0.49 -0.14,-0.24 -0.44,-0.6 -0.94,-0.97 -0.99,-0.74 -2.78,-1.39 -4.85,-1.38 -1.55,0 -2.95,0.35 -3.96,0.85 -1.03,0.5 -1.62,1.13 -1.83,1.49 -0.14,0.25 -0.15,0.36 -0.16,0.49 h -5.34 -5.34 c 0,-2.13 0.61,-4.17 1.62,-5.87 1,-1.71 2.36,-3.11 3.9,-4.23 3.09,-2.22 6.95,-3.4 11.11,-3.41 3.12,0 6.07,0.68 8.65,1.94 2.57,1.27 4.84,3.13 6.35,5.7 1,1.7 1.62,3.74 1.62,5.87 h -5.33 z m 35.11,-44.19 c 0,-0.9 -0.23,-1.75 -0.77,-2.68 -0.53,-0.92 -1.4,-1.88 -2.6,-2.75 -2.4,-1.75 -6.12,-3.04 -10.34,-3.02 -3.16,0 -6.05,0.71 -8.3,1.81 -2.27,1.1 -3.85,2.59 -4.64,3.97 -0.53,0.93 -0.76,1.78 -0.77,2.68 h -5.34 -5.34 c 0,-2.91 0.83,-5.69 2.22,-8.06 1.39,-2.38 3.32,-4.39 5.56,-6.01 4.5,-3.24 10.29,-5.04 16.6,-5.05 4.73,0 9.17,1.03 12.99,2.9 3.81,1.87 7.06,4.59 9.16,8.17 1.39,2.37 2.23,5.15 2.22,8.06 h -5.34 -5.31 z m 17.7,32.43 -4.44,-2.96 -4.44,-2.96 6.54,-9.81 8.88,5.92 z"
         id="path26" />
      <path class="st1"
         d="m 166.42,181.41 c 0.5,0.36 0.8,0.72 0.94,0.97 0.14,0.25 0.15,0.36 0.16,0.49 h 5.34 5.34 c 0,-2.13 -0.61,-4.17 -1.62,-5.87 -1.51,-2.57 -3.78,-4.43 -6.35,-5.7 -2.59,-1.26 -5.53,-1.94 -8.65,-1.94 -4.16,0.01 -8.02,1.19 -11.11,3.41 -1.54,1.12 -2.9,2.52 -3.9,4.23 -1,1.7 -1.62,3.74 -1.62,5.87 h 5.34 5.34 c 0,-0.13 0.02,-0.24 0.16,-0.49 0.2,-0.37 0.8,-1 1.83,-1.49 1.02,-0.5 2.41,-0.86 3.97,-0.85 2.05,-0.02 3.84,0.63 4.83,1.37 z"
         id="path28" />
      <path class="st1"
         d="m 254.01,210.71 c -2.1,-3.58 -5.35,-6.3 -9.16,-8.17 -3.82,-1.87 -8.26,-2.89 -12.99,-2.9 -6.3,0.01 -12.1,1.81 -16.6,5.05 -2.24,1.62 -4.17,3.63 -5.56,6.01 -1.39,2.37 -2.23,5.15 -2.22,8.06 h 5.34 5.34 c 0,-0.9 0.23,-1.75 0.77,-2.68 0.79,-1.37 2.37,-2.86 4.64,-3.97 2.26,-1.11 5.14,-1.82 8.3,-1.81 4.22,-0.01 7.94,1.27 10.34,3.02 1.2,0.87 2.07,1.84 2.6,2.75 0.53,0.93 0.76,1.78 0.77,2.68 h 5.34 5.34 c -0.02,-2.88 -0.86,-5.66 -2.25,-8.04 z"
         id="path30" />
      <path class="st1"
         d="m 207.82,251.39 c -2.59,-1.26 -5.53,-1.94 -8.65,-1.94 -4.16,0.01 -8.02,1.19 -11.11,3.41 -1.54,1.12 -2.9,2.52 -3.9,4.23 -1,1.7 -1.62,3.74 -1.62,5.87 h 5.34 5.34 c 0,-0.13 0.02,-0.24 0.16,-0.49 0.2,-0.37 0.8,-1 1.83,-1.49 1.02,-0.5 2.41,-0.86 3.96,-0.85 2.07,-0.01 3.86,0.64 4.85,1.38 0.5,0.36 0.8,0.72 0.94,0.97 0.14,0.25 0.15,0.36 0.16,0.49 h 5.34 5.34 c 0,-2.13 -0.61,-4.17 -1.62,-5.87 -1.52,-2.58 -3.79,-4.45 -6.36,-5.71 z"
         id="path32" />
      <polygon class="st1" points="235.94,150.64 226.13,146.44 221.23,157.88 226.13,159.98 231.04,162.09 "
         id="polygon34" />
      <polygon class="st1" points="167.76,261.01 172.2,258.05 176.64,255.09 170.1,245.29 161.22,251.2 "
         id="polygon36" />
      <polygon class="st1" points="258.82,248.24 263.26,251.2 269.8,241.4 260.92,235.48 254.38,245.29 "
         id="polygon38" />
      <polygon class="st1" points="320.47,177.65 311.59,171.73 305.05,181.54 309.49,184.5 313.93,187.46 "
         id="polygon40" />
      <polygon class="st1" points="173.96,201.6 177.23,208.13 182,205.75 186.78,203.36 183.51,196.82 " id="polygon42" />
   </g>
   <g inkscape:groupmode="layer" id="layer1" inkscape:label="Layer 1" />
</svg>