<svg id="a0bd5008-88c2-46a4-956b-ea6378299e62" data-name="Layer 2" xmlns="http://www.w3.org/2000/svg" viewBox="0 0 359.9 319.35"><g id="a2b51fe6-f0a2-4479-9aeb-9d9650ccddf7" data-name="Layer 1"><path d="M281.83,355.61A140.48,140.48,0,0,1,254,358.87H242.34L229.1,375.1h14.16a145.54,145.54,0,0,0,101-40.54c-5.47,2.53-11.3,5-17.35,7.38A287.87,287.87,0,0,1,281.83,355.61Z" transform="translate(-67.45 -87.5)" style="fill:#fff"/><path d="M197.74,373l9.87-14.46a154.07,154.07,0,0,1-25.53-4.06,220.45,220.45,0,0,1-34-11.38,254.94,254.94,0,0,1-37.29-19.54c2.56,3,5.24,5.93,8,8.73A145.61,145.61,0,0,0,197.74,373Z" transform="translate(-67.45 -87.5)" style="fill:#fff"/><path d="M384.41,256.19q-1.76,3-3.71,5.93a82.55,82.55,0,0,1-5,7c-1.66,2-3.33,4-5,5.81a139.28,139.28,0,0,1-21.94,19.72c-21.77,15.81-49.42,27.15-80.29,32.16l-19.39,23.73H254a117.93,117.93,0,0,0,19.21-1.78,213.62,213.62,0,0,0,21.49-4.8,308.85,308.85,0,0,0,42.85-15.46,213,213,0,0,0,22.26-11.4,145.17,145.17,0,0,0,28-67.34C386.77,251.94,385.63,254.09,384.41,256.19Z" transform="translate(-67.45 -87.5)" style="fill:#fff"/><path d="M135.5,328.16A226.5,226.5,0,0,0,184,346.42a140.45,140.45,0,0,0,29.06,4.07l14.27-20.91h0c-29.25-.66-56.59-6.87-80.14-17.3l-.28-.11-.21-.08-.29-.15c-1.94-.83-3.87-1.76-5.76-2.69C114.4,296.34,93.38,278,80.63,256.13q-1.66-2.81-3.08-5.7a145,145,0,0,0,18.33,52.2A217.5,217.5,0,0,0,135.5,328.16Z" transform="translate(-67.45 -87.5)" style="fill:#fff"/><path d="M89.1,307.47l-.12-.23A1,1,0,0,0,89.1,307.47Z" transform="translate(-67.45 -87.5)" style="fill:#ffd617"/><path d="M182.1,354.52a154,154,0,0,0,25.51,4.06l5.5-8.06a140.34,140.34,0,0,1-29.05-4.06,226.33,226.33,0,0,1-48.54-18.27,219.27,219.27,0,0,1-39.59-25.46,145.65,145.65,0,0,0,14.84,20.9A255.13,255.13,0,0,0,148,343.16,222,222,0,0,0,182.1,354.52Z" transform="translate(-67.45 -87.5)" style="fill:#ffd617"/><path d="M337.53,328.5A309,309,0,0,1,294.68,344a213.62,213.62,0,0,1-21.49,4.8,118.82,118.82,0,0,1-19.2,1.78h-4.88l-6.76,8.3H254a141.12,141.12,0,0,0,27.86-3.26,287.87,287.87,0,0,0,45.06-13.67c6.05-2.37,11.88-4.85,17.35-7.38l2.29-2.23a147.8,147.8,0,0,0,13.28-15.23A214.34,214.34,0,0,1,337.53,328.5Z" transform="translate(-67.45 -87.5)" style="fill:#ffd617"/><path d="M381.27,188.44a33.16,33.16,0,0,1,.87,30.53,40.26,40.26,0,0,1,3,8.58c.33,1.38.6,2.77.83,4.15a82.37,82.37,0,0,0-.63-48.29Z" transform="translate(-67.45 -87.5)" style="fill:#fff"/><path d="M246.22,96.22a54,54,0,0,1,33.56,18.27,15.39,15.39,0,0,1,2-1.19A16.79,16.79,0,0,1,304.24,121a16.4,16.4,0,0,1,.83,2c1.25-.07,2.49-.12,3.81-.12a61,61,0,0,1,45.65,20.48l2.28-3.33a137,137,0,0,0-13-10.69C318.56,110.85,284.36,98.61,246.22,96.22Z" transform="translate(-67.45 -87.5)" style="fill:#fff"/><path d="M76.23,199.8c.36-.61.72-1.2,1.11-1.79a38.6,38.6,0,0,1,16.38-14.22,36.23,36.23,0,0,1,12.62-3,27,27,0,0,1-.52-5.31,27.79,27.79,0,0,1,27.79-27.79h0a27.72,27.72,0,0,1,6.22.7,34.15,34.15,0,0,1,56.22-31.86A54.13,54.13,0,0,1,235.33,95.8h-2.8c-32.71,0-63.09,7.24-88.15,19.55S99.56,145,87.84,165.15A87.12,87.12,0,0,0,76.23,199.8Z" transform="translate(-67.45 -87.5)" style="fill:#fff"/><polygon points="77.25 154.54 77.25 154.54 77.25 154.54 77.25 154.54" style="fill:#fff"/><path d="M277.26,316c5-1.19,10-2.54,14.7-4a211.53,211.53,0,0,0,46.15-20.64q6.18-3.94,11.74-8.3c.9-.75,2.24-1.86,3.93-3.32s3.75-3.32,5.92-5.42c1.61-1.55,3.27-3.23,4.93-5a109.79,109.79,0,0,0,9-11.62,39,39,0,0,0,4.49-9.53,20.91,20.91,0,0,0,.93-6,14.84,14.84,0,0,0-.19-2.49c-.57-3.66-1.07-7.11-1.82-10.23a29.17,29.17,0,0,0-3.18-8.3,4.13,4.13,0,0,1,0-4.2,25,25,0,0,0,1.66-21.37Zm54.2-23.19A11.08,11.08,0,1,1,334.7,285a11.08,11.08,0,0,1-3.24,7.82Zm22.87-27.35a4.15,4.15,0,0,1-5.85.49h0l-7.23-6.16a4.15,4.15,0,0,1,5.37-6.34h0l7.27,6.18a4.15,4.15,0,0,1,.44,5.84Z" transform="translate(-67.45 -87.5)" style="fill:#fff"/><path d="M327.14,183.46a4.15,4.15,0,0,1-4-6.55l5.61-7.72a4.15,4.15,0,0,1,5.79-.92h0a4.05,4.05,0,0,1,1.5,2.11l13.66-20a53,53,0,0,0-19.1-14.62,8.56,8.56,0,0,1-.36,2.13h0l-3.6,11.74a8.68,8.68,0,0,1-10.83,5.74,10.42,10.42,0,0,1-1-.37h0l-17.94-8a8.63,8.63,0,0,1-4.74-10.43h0l2.18-7.11a8.81,8.81,0,0,1,2.76-4.15,8.5,8.5,0,0,0-11-4.88,7.17,7.17,0,0,0-.69.3,8.74,8.74,0,0,0-2.92,2.34,4.14,4.14,0,0,1-6.59-.15,46.06,46.06,0,0,0-76,2.29,4.14,4.14,0,0,1-5.73,1.26,4.1,4.1,0,0,1-1-.85,25.86,25.86,0,0,0-42.91,28.32,4.15,4.15,0,0,1-6,5.34,19.49,19.49,0,0,0-28.63,24.07,4.14,4.14,0,0,1-4.15,5.81c-1-.09-1.95-.14-2.93-.14a27.92,27.92,0,0,0-11.53,2.4A29,29,0,0,0,87.91,198c-5.32,5.6-8.91,13.51-10,22.29a18.82,18.82,0,0,0-.16,2.49,34,34,0,0,0,3.09,13,79.21,79.21,0,0,0,6.64,12.12c1.54,2.35,3,4.41,4.2,6.06.67.94,1.25,1.75,1.73,2.49.2.29.37.57.55.83s.28.39.51.68l1,1.3c.83,1,1.79,2.18,2.84,3.44,2.08,2.49,4.34,5.17,5.73,6.85l1,1.22.16.2c12,12.45,27.57,25.6,44.9,33.61h.07c23,9.13,51,16.84,82.35,16.84H233l12.8-18.68a8.61,8.61,0,0,1-8.15-7.77l-1.23-12.22c0-.29,0-.58,0-.83a8.66,8.66,0,0,1,8.65-8.64h.23l19.63.46a5.36,5.36,0,0,1,.7.05ZM283,183.2a11.06,11.06,0,1,1-3.25,7.83A11,11,0,0,1,283,183.2Zm-40.43-3.94a4.15,4.15,0,1,1-4.1,7.22l-.05,0-12.12-7a4.15,4.15,0,0,1,3.85-7.36l.3.18ZM214.5,140.62a11.08,11.08,0,1,1-3.24,7.83A11.08,11.08,0,0,1,214.5,140.62Zm-24.26,19.29a4.16,4.16,0,0,1,.73,5.82l-6.54,8.41a4.15,4.15,0,0,1-6.55-5.09l6.54-8.42a4.14,4.14,0,0,1,5.82-.68Zm-39.57-10.16A8.61,8.61,0,0,1,148.5,144v-7.47a8.64,8.64,0,0,1,7.59-8.59l19.5-2.42h0a6.48,6.48,0,0,1,1.07-.07,8.65,8.65,0,0,1,8.65,8.65v12.3a8.65,8.65,0,0,1-8.64,8.66,9.42,9.42,0,0,1-1.06-.06h0L156.1,152.6A8.58,8.58,0,0,1,150.67,149.75Zm-45,70.56-7.95,6.13a4.15,4.15,0,0,1-5.08-6.57l7.93-6.2a4.19,4.19,0,1,1,5.1,6.64Zm29.19-10.64a4.16,4.16,0,0,1-2.17-5.45,23,23,0,0,1,8.22-9.92,22.52,22.52,0,0,1,23.41-1.11,22.76,22.76,0,0,1,8,7.27,4.15,4.15,0,1,1-6.87,4.65,14.81,14.81,0,0,0-5.1-4.63,14.18,14.18,0,0,0-14.78.71,14.74,14.74,0,0,0-5.25,6.31h0a4.15,4.15,0,0,1-5.45,2.13Zm46.23,73.12a4.13,4.13,0,0,1,5.79-.93h0l7.47,5.43a4.15,4.15,0,1,1-4.67,6.86l-.2-.15L182,288.58A4.15,4.15,0,0,1,181.05,282.79Zm-36-13.28a4.16,4.16,0,0,1-7.62-3.32,31.32,31.32,0,0,1,9.47-12.26A8.65,8.65,0,0,1,144.69,242h0l11-16.28h0a8.63,8.63,0,0,1,11.1-2.87h0l6.64,3.37h0a8.58,8.58,0,0,1,4.64,8.85A11.07,11.07,0,0,1,185.74,254c-.11.12-.24.22-.36.33a31.52,31.52,0,0,1,6.22,6.77,4.15,4.15,0,1,1-6.88,4.66,23,23,0,0,0-8-7.31,22.44,22.44,0,0,0-23.35,1.12,23,23,0,0,0-8.3,10Zm107-28.56a8.75,8.75,0,0,1-6.11,2.53h-.57l-12.25-.83a8.65,8.65,0,0,1-8.05-9.21,9.48,9.48,0,0,1,.14-1.07h0l3.74-19.3a8.63,8.63,0,0,1,8.51-7h.59l7.42.5a8.64,8.64,0,0,1,8.05,8.16l1.1,19.63v.48a8.62,8.62,0,0,1-2.56,6.13Z" transform="translate(-67.45 -87.5)" style="fill:#fff"/><path d="M181.63,242.46a5.25,5.25,0,0,0-3.72-1.55,5.4,5.4,0,0,0-1.83.34l-2.58,7.1a30.24,30.24,0,0,1,6.64,2.57,5.24,5.24,0,0,0,2.49-7,5.06,5.06,0,0,0-1-1.47Z" transform="translate(-67.45 -87.5)" style="fill:#fff"/><path d="M222.33,153.75a5.28,5.28,0,1,0-3.72-1.55A5.19,5.19,0,0,0,222.33,153.75Z" transform="translate(-67.45 -87.5)" style="fill:#fff"/><path d="M222.33,159.56a11.08,11.08,0,1,0-7.83-3.25A11.06,11.06,0,0,0,222.33,159.56Zm-3.72-14.79a5.28,5.28,0,1,1-1.54,3.72A5.26,5.26,0,0,1,218.61,144.77Z" transform="translate(-67.45 -87.5)" style="fill:#fe4c00"/><path d="M151.58,246.69a.31.31,0,0,0-.06.19l0,.19a.43.43,0,0,0,.14.13l3.93,2a30.54,30.54,0,0,1,9.37-1.76l4.83-13.34V234l-.06-.18-.13-.12h0L163,230.3h-.15l-.17,0-.12.11h0Z" transform="translate(-67.45 -87.5)" style="fill:#ffd617"/><polygon points="77.25 154.54 77.25 154.54 77.25 154.54 77.25 154.54" style="fill:#fe4c00"/><polygon points="88.26 138.26 88.26 138.26 88.26 138.26 88.26 138.26" style="fill:#fe4c00"/><polygon points="105.98 138.76 105.98 138.76 105.98 138.76 105.98 138.76" style="fill:#fe4c00"/><path d="M153.35,259.57a22.41,22.41,0,0,1,23.35-1.08,23,23,0,0,1,8,7.31,4.15,4.15,0,1,0,6.88-4.66,31.52,31.52,0,0,0-6.22-6.77c.12-.11.25-.21.36-.33a11.07,11.07,0,0,0-7.66-18.89,8.66,8.66,0,0,0-4.64-8.85l-6.64-3.37h0a8.66,8.66,0,0,0-11.1,2.87l-11,16.28h0A8.65,8.65,0,0,0,146.91,254a31.39,31.39,0,0,0-9.47,12.26,4.16,4.16,0,0,0,7.62,3.32h0A23,23,0,0,1,153.35,259.57Zm9.25-29.17.12-.11.17,0H163l6.64,3.37h0l.13.12.06.18v.13L165,247.39a30.66,30.66,0,0,0-9.38,1.76l-3.92-2a.29.29,0,0,1-.14-.13l0-.19a.22.22,0,0,1,.06-.19h0l11-16.29Zm17.62,20.52a30.63,30.63,0,0,0-6.64-2.57l2.57-7.1a5.49,5.49,0,0,1,1.83-.34,5.25,5.25,0,0,1,2.24,10Z" transform="translate(-67.45 -87.5)" style="fill:#fe4c00"/><path d="M140.27,207.46h0a14.83,14.83,0,0,1,5.25-6.32,14.2,14.2,0,0,1,14.78-.7,14.81,14.81,0,0,1,5.1,4.63,4.15,4.15,0,1,0,6.87-4.66h0a22.82,22.82,0,0,0-8-7.26,22.52,22.52,0,0,0-23.41,1.11,23,23,0,0,0-8.22,9.91,4.16,4.16,0,0,0,7.62,3.32Z" transform="translate(-67.45 -87.5)" style="fill:#fe4c00"/><path d="M100.53,213.67l-8,6.13a4.15,4.15,0,0,0,5.07,6.57l8-6.06a4.19,4.19,0,1,0-5.1-6.64Z" transform="translate(-67.45 -87.5)" style="fill:#fe4c00"/><path d="M224.8,173.77a4.15,4.15,0,0,0,1.52,5.67l12.12,7a4.15,4.15,0,0,0,4.2-7.16l0,0-12.12-7A4.15,4.15,0,0,0,224.8,173.77Z" transform="translate(-67.45 -87.5)" style="fill:#fe4c00"/><path d="M184.42,160.68l-6.54,8.42a4.15,4.15,0,0,0,6.55,5.09l6.58-8.41a4.15,4.15,0,0,0-6.44-5.25l-.11.15Z" transform="translate(-67.45 -87.5)" style="fill:#fe4c00"/><path d="M182,288.58l7.47,5.43a4.15,4.15,0,0,0,5.08-6.56c-.07-.05-.14-.11-.21-.15l-7.47-5.43a4.15,4.15,0,1,0-5.08,6.56A1,1,0,0,0,182,288.58Z" transform="translate(-67.45 -87.5)" style="fill:#fe4c00"/><path d="M346.58,253.46a4.15,4.15,0,0,0-5.37,6.34h0l7.27,6.16a4.15,4.15,0,1,0,5.54-6.17l-.17-.15Z" transform="translate(-67.45 -87.5)" style="fill:#fe4c00"/><path d="M290.84,196.28a5.26,5.26,0,1,0-.42,0Z" transform="translate(-67.45 -87.5)" style="fill:#fff"/><path d="M283,198.85a11.07,11.07,0,1,0-3.24-7.82A11.06,11.06,0,0,0,283,198.85Zm4.15-11.54a5.26,5.26,0,1,1-1.55,3.74A5.25,5.25,0,0,1,287.16,187.31Z" transform="translate(-67.45 -87.5)" style="fill:#fe4c00"/><path d="M323.64,279.74a5.26,5.26,0,1,0,3.72,1.55A5.25,5.25,0,0,0,323.64,279.74Z" transform="translate(-67.45 -87.5)" style="fill:#fff"/><path d="M323.64,273.93a11.08,11.08,0,1,0,7.82,3.25A11.07,11.07,0,0,0,323.64,273.93Zm3.72,14.79a5.26,5.26,0,0,1-7.45,0,5.32,5.32,0,0,1-1.54-3.71,5.26,5.26,0,1,1,10.52-.42,2.94,2.94,0,0,1,0,.42A5.21,5.21,0,0,1,327.36,288.72Z" transform="translate(-67.45 -87.5)" style="fill:#fe4c00"/><path d="M157.11,144.39l19.49,2.42h.07a.36.36,0,0,0,.24-.11.31.31,0,0,0,.1-.25V134.18a.39.39,0,0,0-.1-.25.37.37,0,0,0-.25-.1h0l-19.51,2.42a.3.3,0,0,0-.23.11.38.38,0,0,0-.08.24v7.47a.38.38,0,0,0,.08.23A.35.35,0,0,0,157.11,144.39Z" transform="translate(-67.45 -87.5)" style="fill:#ffd617"/><path d="M156.09,152.63l19.5,2.42h0a9.61,9.61,0,0,0,1.07.07,8.66,8.66,0,0,0,8.65-8.66V134.18a8.65,8.65,0,0,0-8.65-8.65,6.48,6.48,0,0,0-1.07.07h0L156.09,128a8.64,8.64,0,0,0-7.59,8.59v7.47a8.64,8.64,0,0,0,7.59,8.58Zm.71-16a.38.38,0,0,1,.08-.24.3.3,0,0,1,.23-.11l19.51-2.43h0a.34.34,0,0,1,.25.11.39.39,0,0,1,.1.25v12.24a.29.29,0,0,1-.1.25.32.32,0,0,1-.24.11h-.07l-19.49-2.41a.46.46,0,0,1-.23-.12.38.38,0,0,1-.08-.23Z" transform="translate(-67.45 -87.5)" style="fill:#fe4c00"/><path d="M246.22,235.09a.34.34,0,0,0,.11-.25h0l-1.09-19.63a.37.37,0,0,0-.1-.22.36.36,0,0,0-.24-.11l-7.42-.5h0a.35.35,0,0,0-.22.08.4.4,0,0,0-.12.21L233.41,234h0V234a.33.33,0,0,0,.1.23.24.24,0,0,0,.23.11l12.25.83h0A.28.28,0,0,0,246.22,235.09Z" transform="translate(-67.45 -87.5)" style="fill:#ffd617"/><path d="M253.52,214.73a8.64,8.64,0,0,0-8.05-8.15l-7.42-.51h-.59a8.64,8.64,0,0,0-8.49,7l-3.74,19.3h0a8.65,8.65,0,0,0,6.85,10.14,9.31,9.31,0,0,0,1.06.14l12.25.83H246a8.67,8.67,0,0,0,8.65-8.65v-.48ZM246,235.19l-12.25-.83a.28.28,0,0,1-.24-.1.36.36,0,0,1-.09-.24V234h0l3.73-19.3a.35.35,0,0,1,.12-.21.34.34,0,0,1,.22-.07h0l7.42.49a.38.38,0,0,1,.23.11.33.33,0,0,1,.1.23l1.1,19.63h0a.34.34,0,0,1-.11.24.32.32,0,0,1-.24.11h0Z" transform="translate(-67.45 -87.5)" style="fill:#fe4c00"/><path d="M245,281.48h0a.37.37,0,0,0-.24.1.35.35,0,0,0-.1.24v.05l1.23,12.22a.29.29,0,0,0,.11.22l.23.09h.09l6.07-1.38L260,281.84Z" transform="translate(-67.45 -87.5)" style="fill:#ffd617"/><path d="M322.24,135.14A.28.28,0,0,0,322,135l-19.35-3.4h-.07l-.21.07a.36.36,0,0,0-.12.18L300.1,139h0v.1l0,.19.15.13,17.95,8h.14l.22-.06a.35.35,0,0,0,.12-.19l3.6-11.73h0v-.12Z" transform="translate(-67.45 -87.5)" style="fill:#ffd617"/><polygon points="224.71 49.04 224.71 49.04 224.71 49.04 224.71 49.04" style="fill:#fe4c00"/><polygon points="133.58 295.47 149.86 273.81 246.16 144.07 239.93 139.64 133.58 295.47" style="fill:#fff"/><path d="M348.41,167l8.61,6.1,43.36-58.41h0a1.6,1.6,0,0,0,.35-1,1.71,1.71,0,0,0-.18-.83,1.65,1.65,0,0,0-.56-.64l-7.73-5.51-.31-.23a1.76,1.76,0,0,0-1-.32,1.85,1.85,0,0,0-.83.2,1.67,1.67,0,0,0-.64.57Z" transform="translate(-67.45 -87.5)" style="fill:#fff"/><polygon points="284.58 92.3 276.28 86.39 244.61 132.79 251.1 137.41 284.58 92.3" style="fill:#ffd617"/><path d="M418.65,129.45a1.67,1.67,0,0,0,.4-1.11,1.72,1.72,0,0,0-.68-1.4l-7.77-6.09h0a1.72,1.72,0,0,0-1.08-.37,1.75,1.75,0,0,0-.78.18,1.79,1.79,0,0,0-.64.52l-43.69,58.17,8.3,6.48Z" transform="translate(-67.45 -87.5)" style="fill:#fff"/><polygon points="259.25 154.74 253.24 150.03 137.53 304.04 259.25 154.74" style="fill:#fff"/><polygon points="291.96 98.49 258.23 143.39 264.5 148.3 299.99 104.77 291.96 98.49" style="fill:#ffd617"/><path d="M426.37,124a10,10,0,0,0-2.88-3.59l-7.77-6.09a10.11,10.11,0,0,0-6.2-2.14h-.65a10,10,0,0,0-4.11-6.74l-8-5.73h0a10.07,10.07,0,0,0-14,2.33l-.12.16-21,30.72a157.52,157.52,0,0,0-37.25-25.12C298,95,266.47,87.5,232.51,87.5c-45.25,0-86.33,13.28-116.21,35.05C101.36,133.41,89.13,146.43,80.66,161a94.22,94.22,0,0,0-13.21,47.61c0,2.67.14,5.32.37,7.94a19,19,0,0,0-.11,2.13v10.4A153.51,153.51,0,0,0,89,307.26l.12.22a154.55,154.55,0,0,0,103.52,73.11l-8,11.71,6.13,4.37-.21.27,12.67,9.91,2.57-3.15,16.55-20.3h20.92a154.35,154.35,0,0,0,154.4-154.29V218.65a22.54,22.54,0,0,0-.26-3.28c.16-2.25.26-4.51.26-6.79a91.69,91.69,0,0,0-6.09-32.71l33.53-41.17h0A10.05,10.05,0,0,0,426.37,124ZM359.79,317.1a149,149,0,0,1-13.28,15.23c-.76.75-1.52,1.49-2.3,2.23a145.45,145.45,0,0,1-101,40.54H229.09l13.24-16.23,6.77-8.3,19.37-23.76c30.87-5,58.52-16.35,80.29-32.17a138.79,138.79,0,0,0,21.95-19.71c1.66-1.82,3.32-3.75,5-5.81a78.3,78.3,0,0,0,5-7c1.3-1.94,2.55-3.92,3.72-5.93s2.37-4.26,3.44-6.43A145.22,145.22,0,0,1,359.79,317.1ZM95.92,302.69A144.81,144.81,0,0,1,77.58,250.5c1,1.93,2,3.82,3.08,5.69,12.72,21.85,33.77,40.19,60.06,53.13,1.9.93,3.82,1.82,5.76,2.69l.29.15.21.08.28.11c23.55,10.42,50.9,16.64,80.14,17.3h0l-14.27,20.91-5.52,8L197.74,373a145.56,145.56,0,0,1-78.95-40.67c-2.79-2.8-5.47-5.72-8-8.73A144.78,144.78,0,0,1,95.92,302.69Zm48.46-187.35C169.43,103,199.82,95.8,232.51,95.8h2.8A54.11,54.11,0,0,0,196,116.55a34.17,34.17,0,0,0-56.22,31.86,28.33,28.33,0,0,0-6.23-.7,27.8,27.8,0,0,0-27.8,27.78,27.09,27.09,0,0,0,.53,5.31,36,36,0,0,0-12.6,3A38.69,38.69,0,0,0,77.34,198c-.39.59-.75,1.19-1.11,1.8a87.13,87.13,0,0,1,11.62-34.65C99.54,145,119.3,127.65,144.38,115.34Zm245-8.39a1.6,1.6,0,0,1,.64-.57,1.64,1.64,0,0,1,.83-.2,1.67,1.67,0,0,1,1,.32l.31.22,7.74,5.52a1.59,1.59,0,0,1,.55.63,1.87,1.87,0,0,1,.19.83,1.72,1.72,0,0,1-.35,1h0L357,173.14l-8.57-6.1ZM205,391.54l115.7-154,6,4.7Zm172.15-187a24.74,24.74,0,0,1-3.32,12.39,4.15,4.15,0,0,0,0,4.2,29.19,29.19,0,0,1,3.19,8.3c.75,3.12,1.25,6.57,1.82,10.23a16,16,0,0,1,.19,2.49,21.26,21.26,0,0,1-.93,6,39.07,39.07,0,0,1-4.51,9.53,107.79,107.79,0,0,1-9,11.62c-1.66,1.81-3.32,3.49-4.93,5-2.17,2.09-4.21,3.93-5.92,5.42s-3,2.56-3.93,3.32q-5.55,4.37-11.74,8.3A212,212,0,0,1,292,312q-7.14,2.24-14.7,4l98.21-120.46A25,25,0,0,1,377.14,204.54ZM246.32,294.39h-.1l-.23-.09a.36.36,0,0,1-.11-.22l-1.22-12.22v-.05a.31.31,0,0,1,.1-.24.35.35,0,0,1,.24-.1h0l15,.36L252.36,293Zm18.56-20.75-19.64-.46H245a8.66,8.66,0,0,0-8.65,8.64,5.5,5.5,0,0,0,0,.83l1.23,12.22a8.62,8.62,0,0,0,8.15,7.77L233,321.34h-.52c-31.34,0-59.29-7.71-82.34-16.84h-.08c-17.3-8-32.92-21.1-44.88-33.56l-.16-.19c-.25-.34-.58-.74-1-1.22-1.4-1.66-3.66-4.37-5.74-6.86-1-1.25-2-2.49-2.84-3.44l-1-1.29c-.23-.3-.41-.55-.51-.69a10,10,0,0,0-.55-.83c-.47-.7-1.05-1.5-1.73-2.49-1.17-1.66-2.65-3.7-4.2-6.06a79.6,79.6,0,0,1-6.64-12.12,34.09,34.09,0,0,1-3.12-12.95,18.93,18.93,0,0,1,.16-2.49c1.13-8.78,4.72-16.69,10-22.29a29,29,0,0,1,9.19-6.58,28,28,0,0,1,11.54-2.4c1,0,2,.05,2.93.14a4.15,4.15,0,0,0,4.15-5.81,19.49,19.49,0,0,1,28.63-24.07,4.15,4.15,0,0,0,6-5.35,25.86,25.86,0,0,1,42.93-28.29,4.16,4.16,0,0,0,5.85.55,4.26,4.26,0,0,0,.84-1A46,46,0,0,1,275.9,123a4.15,4.15,0,0,0,5.8.9,4.31,4.31,0,0,0,.79-.75,8.5,8.5,0,0,1,14.29,1.56,5.65,5.65,0,0,1,.29.67,8.71,8.71,0,0,0-2.76,4.15l-2.18,7.1a8.66,8.66,0,0,0,4.74,10.44l17.94,8h0a8.67,8.67,0,0,0,11.44-4.39c.14-.32.26-.65.37-1l3.6-11.73h0a8.64,8.64,0,0,0,.36-2.14,53.09,53.09,0,0,1,19.1,14.62l-13.66,20a4.07,4.07,0,0,0-1.5-2.1,4.14,4.14,0,0,0-5.8.9h0L323.1,177a4.15,4.15,0,0,0,4,6.47l-61.57,90.23-.69-.05Zm57.44-138.17-3.61,11.74a.28.28,0,0,1-.12.18l-.22.07h-.14l-17.94-8-.15-.12-.06-.2V139h0l2.18-7.12a.31.31,0,0,1,.13-.17l.2-.08h.07L322,135.05a.36.36,0,0,1,.21.11l.09.23v.08Zm21.42,38.42,8.3,5.91-33.48,45.11-6.49-4.6ZM332,235.8l-6.27-4.91L359.41,186l8,6.28Zm22.58-92.52a61,61,0,0,0-45.65-20.48c-1.29,0-2.56,0-3.81.13a16.8,16.8,0,0,0-21.33-10.47,17.73,17.73,0,0,0-2,.81,16.61,16.61,0,0,0-2,1.19A54,54,0,0,0,246.22,96.2c38.14,2.38,72.34,14.62,97.66,33a135.32,135.32,0,0,1,13,10.69Zm-47.18,83.84,6.23,4.43L217.29,361.28,201,383Zm81.92-18.55A82.93,82.93,0,0,1,386,231.68c-.25-1.38-.52-2.77-.83-4.15a39.45,39.45,0,0,0-3-8.57,33.13,33.13,0,0,0-.87-30.53l4.1-5a82.22,82.22,0,0,1,3.95,25.19Zm-16.6-22.77-8.3-6.48,43.69-58.16a1.76,1.76,0,0,1,.63-.52,1.84,1.84,0,0,1,.79-.19,1.69,1.69,0,0,1,1.08.38h0l7.77,6.09a1.73,1.73,0,0,1,.68,1.39,1.77,1.77,0,0,1-.4,1.12Z" transform="translate(-67.45 -87.5)" style="fill:#fe4c00"/><polygon points="348.26 26.82 348.26 26.82 348.26 26.82 348.26 26.82" style="fill:#fe4c00"/><circle cx="55.96" cy="162.15" r="6.15" style="fill:#ffd617"/><circle cx="192.21" cy="67.63" r="7.32" style="fill:#ffd617"/><circle cx="207.48" cy="144.9" r="5.13" style="fill:#ffd617"/></g></svg>