<svg id="acd317d2-68c0-4b30-aaac-11873674daab" data-name="Layer 7" xmlns="http://www.w3.org/2000/svg" viewBox="0 0 384 304.81"><path d="M134.4,310.15c23.07,20.93,54.94,35.72,91.13,40l-7.62-9.62,16.4-13.07a30,30,0,0,1-3.79-1.72,26.2,26.2,0,0,1-4.93-3.43,38.08,38.08,0,0,1-6.28-7.53c-1.08-1.57-2.07-3-3.14-4.33a18.6,18.6,0,0,0-5.49-4.57,26.6,26.6,0,0,0-5.16-2.1,26.93,26.93,0,0,0-7.56-1.18,27.81,27.81,0,0,0-8.53,1.49c-2.81.87-5.76,2-9.2,2.85a32.23,32.23,0,0,1-7.58.93,36.58,36.58,0,0,1-16.39-4.19,25.93,25.93,0,0,1-4.93-3.44,37.74,37.74,0,0,1-6.28-7.52c-1.09-1.57-2.07-3-3.14-4.34a18.73,18.73,0,0,0-5.5-4.56,26.6,26.6,0,0,0-5.16-2.1,26.23,26.23,0,0,0-7.56-1.18,27.69,27.69,0,0,0-8.6,1.52c-1.12.34-2.25.74-3.43,1.13A128.22,128.22,0,0,0,134.4,310.15Z" transform="translate(-43.01 -79.4)" style="fill:#fff"/><path d="M359.24,328.88l-3.3-4q-2.54,2.13-5.16,4.14a151.58,151.58,0,0,1-15,10.05l-.37.33a30.18,30.18,0,0,1-9.37,8.19,24.27,24.27,0,0,1-11.77,3.14,20.27,20.27,0,0,1-2.2-.12h-.31a173.8,173.8,0,0,1-23.09,7.07,14.68,14.68,0,0,1-16.85,3.27h0l-.35-.16A186.65,186.65,0,0,1,247,362.39q-7.6,0-15.34-.61c-31.06-2.48-59.46-12.22-82.89-27-20.41-12.92-37.06-29.73-48.34-49-.68,0-1.36.07-2.06.07a34.18,34.18,0,0,1-9.79-1.5h0a34.85,34.85,0,0,1-6.61-2.69,26.28,26.28,0,0,1-4.78-3.31c.41.91.83,1.81,1.26,2.71a150.51,150.51,0,0,0,34.73,45.78c29.58,26.82,71,45.2,117.91,48.93q8.78.69,17.38.69c33.82,0,65.47-7.92,92.08-21.76a161.23,161.23,0,0,0,45.24-34.44Z" transform="translate(-43.01 -79.4)" style="fill:#fff"/><path d="M336.63,179.84l.83.78,5.14-4.57a14.7,14.7,0,0,1,20.76,1.19h0l6.78,7.6,2.25-4.22a126.26,126.26,0,0,0-14.91-19.38Z" transform="translate(-43.01 -79.4)" style="fill:#fff"/><path d="M237,112.14A171.75,171.75,0,0,0,185,120.05c.61.54,1.23,1.09,1.85,1.7a32.05,32.05,0,0,1,6.82,9.42,36.27,36.27,0,0,1,2.72,8.81c.35,1.85.61,3.59.91,5.25A32.43,32.43,0,0,0,199,151.5a23.53,23.53,0,0,0,5.76,8.41,26.47,26.47,0,0,0,4.24,3.44,19.4,19.4,0,0,0,3.83,1.87,31.86,31.86,0,0,0,7.81,1.45c1.9.19,3.92.37,6.14.78a27.12,27.12,0,0,1,9.42,3.7,33.89,33.89,0,0,1,5.09,4l2.45-7.44L264,174.36l9.59-13.86-11.77-11.34a14.73,14.73,0,0,1-.35-20.81h0l10.61-11,18.76,18.14,2.06-3A14.69,14.69,0,0,1,305,126.18a14.17,14.17,0,0,1,2.06.15,175.83,175.83,0,0,0-55.62-13.65Q244.11,112.14,237,112.14Z" transform="translate(-43.01 -79.4)" style="fill:#fff"/><path d="M399.26,244.3q-.35,4.37-1,8.64H404v3.92a60.52,60.52,0,0,1-24.86,49l9.3,11.34a135.55,135.55,0,0,0,14-19.62,120.77,120.77,0,0,0,16.37-51.67q.39-4.77.39-9.5c0-2.51-.09-5-.25-7.51l-19.41,10.91C399.47,241.27,399.38,242.78,399.26,244.3Z" transform="translate(-43.01 -79.4)" style="fill:#fff"/><path d="M325.9,137.53l-13.24,19.13,2.36,2.28,19.5-17.39a159.37,159.37,0,0,0-19.15-11.31Z" transform="translate(-43.01 -79.4)" style="fill:#fff"/><path d="M154.09,109.43a18.75,18.75,0,0,0,3.82,1.86,31.48,31.48,0,0,0,7.81,1.45c1.63.16,3.38.33,5.23.64a180.77,180.77,0,0,1,66-12.23h0q7.59,0,15.32.62c31,2.47,59.46,12.21,82.88,27q4.19,2.65,8.16,5.49a14.71,14.71,0,0,1,17.75,3.34h0L371.22,149,365.67,154a137.92,137.92,0,0,1,12.73,15.8,7,7,0,0,1,1.87-1.57,7.34,7.34,0,0,1,9.23,1.54l14,16.23-9,16.86c.47,1.52.92,3,1.32,4.58l16.3-9.15c.2-.12.42-.21.63-.32a128.32,128.32,0,0,0-6.22-15.3,150.81,150.81,0,0,0-34.75-45.81C342.29,110,300.89,91.64,254,87.91q-8.78-.7-17.38-.7c-31.48,0-61.06,6.91-86.49,19A26.11,26.11,0,0,0,154.09,109.43Z" transform="translate(-43.01 -79.4)" style="fill:#fff"/><path d="M376.06,252.93h11c.4-2.22.73-4.47,1-6.74Z" transform="translate(-43.01 -79.4)" style="fill:#fff"/><polygon points="187.45 270.63 186.75 271.18 186.75 271.18 187.45 270.63" style="fill:#fff"/><path d="M85,162.22a19.53,19.53,0,0,0,9.11-7.61L105,137.49A139.68,139.68,0,0,0,85,162.22Z" transform="translate(-43.01 -79.4)" style="fill:#fff"/><path d="M297,341.44l-1.41,3c1.1-.32,2.19-.66,3.28-1C298.22,342.8,297.6,342.12,297,341.44Z" transform="translate(-43.01 -79.4)" style="fill:#fff"/><path d="M263.52,342.48l-11.08,8.83c2.41-.07,4.81-.22,7.19-.38Z" transform="translate(-43.01 -79.4)" style="fill:#fff"/><polygon points="317.54 123.57 320.3 118.38 316.07 122.14 317.54 123.57" style="fill:#fff"/><path d="M423.49,206.57l-.43-3a7.43,7.43,0,0,0-1.17-3.05,136.5,136.5,0,0,0-8.21-21.31c-12.89-26.75-34.48-50.06-61.92-67.42S291,83,254.58,80.11q-9.09-.7-18-.71c-35.14,0-68.08,8.25-95.9,22.76a16.93,16.93,0,0,0-2.13-.14,20.52,20.52,0,0,0-17.14,9.71l-2.4,3.74c-1.38,1-2.75,2-4.09,3A151.16,151.16,0,0,0,75.8,162.15c-1.35,2.3-2.61,4.64-3.82,7a29.9,29.9,0,0,0-7.59,11.13L44.58,231.64h0A23.28,23.28,0,0,0,43,240a21.31,21.31,0,0,0,3.62,12,19.7,19.7,0,0,0,10.1,7.65h.13A26.48,26.48,0,0,1,62,261.7c.3.17.59.33.87.51a135.49,135.49,0,0,0,8.44,22.19c12.9,26.73,34.48,50,61.92,67.4s60.73,28.79,97.17,31.69q9.09.74,18,.72c46.73,0,89.59-14.59,121.66-39.1a151.78,151.78,0,0,0,39.11-43.65,128.77,128.77,0,0,0,17.41-55c.28-3.39.41-6.76.41-10.12A128.08,128.08,0,0,0,423.49,206.57Zm-4.31,29.79c0,3.14-.13,6.3-.39,9.5a120.81,120.81,0,0,1-16.37,51.67,136.1,136.1,0,0,1-14,19.62l-9.3-11.34a60.54,60.54,0,0,0,24.86-49v-3.92H376.06l12-6.73,11.48-6.45,19.41-10.9c.16,2.5.25,5,.25,7.52ZM340.5,354.62c-26.61,13.84-58.26,21.76-92.08,21.76q-8.64,0-17.38-.69c-46.93-3.73-88.33-22.12-117.91-48.9A150.42,150.42,0,0,1,78.38,281c-.43-.9-.86-1.8-1.26-2.71a25.46,25.46,0,0,0,4.78,3.31,34.11,34.11,0,0,0,6.6,2.69h0a34.23,34.23,0,0,0,9.79,1.5,20.16,20.16,0,0,0,2.07-.07,32.84,32.84,0,0,0,5.49-.86c2.08-.5,4-1.12,5.77-1.72,1.18-.39,2.35-.79,3.43-1.13a27.86,27.86,0,0,1,8.53-1.49,28.61,28.61,0,0,1,12.72,3.28,18.92,18.92,0,0,1,5.5,4.57,49.22,49.22,0,0,1,3.14,4.34,38,38,0,0,0,6.28,7.51,25.93,25.93,0,0,0,4.93,3.44,36.45,36.45,0,0,0,16.39,4.19,32.23,32.23,0,0,0,7.58-.93c3.44-.82,6.39-2,9.2-2.85a28.11,28.11,0,0,1,8.53-1.49,26.93,26.93,0,0,1,7.56,1.18,26.6,26.6,0,0,1,5.16,2.1,18.75,18.75,0,0,1,5.49,4.57,48.46,48.46,0,0,1,3.14,4.33,38.08,38.08,0,0,0,6.28,7.53,26.72,26.72,0,0,0,4.93,3.44,31.4,31.4,0,0,0,3.79,1.71l-16.29,13,7.65,9.62,1.85,2.35,2.36-1.89.7-.55-.7.55-2.36,1.89a14.73,14.73,0,0,0,20.69,2.35l4.4-3.51,11-8.85-3.87,8.42L258,354.52l13.53,6.22.34.16h0a14.74,14.74,0,0,0,19.52-7.22l4.24-9.21,1.39-3c.58.68,1.2,1.36,1.89,2,.31.29.62.59,1,.89a26.72,26.72,0,0,0,4.93,3.44,34.17,34.17,0,0,0,6.61,2.68l.34.1h.37a20.09,20.09,0,0,0,2.19.12,24.33,24.33,0,0,0,11.78-3.14,30.39,30.39,0,0,0,9.37-8.22l.37-.33c1.51-1.36,5.61-5.07,9.91-9.07,2.72-2.53,5.49-5.16,7.79-7.42a4,4,0,0,1,.29-.29l2.14,2.59,3.3,4,26.5-8.71A161.34,161.34,0,0,1,340.5,354.62ZM53.12,247.55A13.51,13.51,0,0,1,50.86,240a15.38,15.38,0,0,1,1-5.49l19.82-51.37A21.6,21.6,0,0,1,77.21,175a20.14,20.14,0,0,1,8.23-4.71,26.49,26.49,0,0,0,7-3.18l-.07-.11h0l2-1.22a27.5,27.5,0,0,0,6.39-7L128,115.92a12.68,12.68,0,0,1,10.52-6,10.1,10.1,0,0,1,6.06,2,34,34,0,0,0,5.36,4.27,27.1,27.1,0,0,0,9.42,3.69,58.12,58.12,0,0,0,6.14.79,31.83,31.83,0,0,1,7.81,1.43,18.9,18.9,0,0,1,3.83,1.88,25.88,25.88,0,0,1,4.24,3.43,23.66,23.66,0,0,1,5.76,8.41,31.62,31.62,0,0,1,1.67,6.28c.31,1.65.57,3.4.92,5.24a36.65,36.65,0,0,0,2.72,8.86,32.05,32.05,0,0,0,6.82,9.42,34,34,0,0,0,5.63,4.52,27.1,27.1,0,0,0,9.42,3.69,58.13,58.13,0,0,0,6.15.78,31.79,31.79,0,0,1,7.85,1.45,18,18,0,0,1,3.81,1.87,25.11,25.11,0,0,1,4.26,3.43,30.67,30.67,0,0,1,2.24,2.46,14.09,14.09,0,0,0-.34,3.1,14.73,14.73,0,0,0,6,11.86c.13.79.28,1.65.44,2.51a36.65,36.65,0,0,0,2.72,8.86,30.9,30.9,0,0,0,2.59,4.45l-6.33-.26L243,229.55h0v.59a14.71,14.71,0,0,0,14.12,14.7l8,.32-15,13.34,7.52,20.09a7.36,7.36,0,0,0,11.78,2.9l9.61-8.57a60.62,60.62,0,0,0,58.48,44.6h8.11l0-.06c.65,0,1.3-.06,2-.1-1.09,1.07-2.3,2.22-3.55,3.41-3.21,3.06-6.75,6.28-9.48,8.8l-3.35,3-.95.86-.35.31-.3.27-.23.32a22.75,22.75,0,0,1-7.14,6.35,16.7,16.7,0,0,1-8,2.2,6.17,6.17,0,0,1-1.05-.06,25.19,25.19,0,0,1-4.78-2,18.63,18.63,0,0,1-5.49-4.58,49.73,49.73,0,0,1-3.14-4.33,37.74,37.74,0,0,0-6.28-7.52,26.25,26.25,0,0,0-4.93-3.44,36.57,36.57,0,0,0-16.41-4.19,32.21,32.21,0,0,0-7.57.93c-3.44.79-6.38,2-9.19,2.85A27.86,27.86,0,0,1,247,322.1a28.71,28.71,0,0,1-12.73-3.27,18.91,18.91,0,0,1-5.49-4.58,51.3,51.3,0,0,1-3.14-4.33,38.08,38.08,0,0,0-6.28-7.53,26,26,0,0,0-4.94-3.43,36.59,36.59,0,0,0-16.39-4.2,32.31,32.31,0,0,0-7.58.94c-3.44.82-6.38,2-9.19,2.85a28.18,28.18,0,0,1-8.54,1.49,26.11,26.11,0,0,1-7.55-1.18,26.6,26.6,0,0,1-5.16-2.1,18.73,18.73,0,0,1-5.5-4.56q-1.66-2.1-3.14-4.34a38,38,0,0,0-6.27-7.52,26.32,26.32,0,0,0-4.94-3.44,34.46,34.46,0,0,0-6.61-2.69,33.83,33.83,0,0,0-9.79-1.5,31.69,31.69,0,0,0-7.57.92c-3.45.84-6.39,2-9.19,2.85A27.63,27.63,0,0,1,98.42,278a26.16,26.16,0,0,1-7.56-1.17h0a26.6,26.6,0,0,1-5.16-2.1,18.45,18.45,0,0,1-5.49-4.57,51.46,51.46,0,0,1-3.14-4.34,38.31,38.31,0,0,0-6.28-7.52,26.2,26.2,0,0,0-4.93-3.43,33.8,33.8,0,0,0-6.48-2.65h0A11.79,11.79,0,0,1,53.12,247.55ZM254,87.94c46.93,3.73,88.33,22.11,117.91,48.9a150.58,150.58,0,0,1,34.75,45.75,127.64,127.64,0,0,1,6.22,15.3c-.21.1-.43.2-.63.32l-16.3,9.15-5.33,3,4-7.58L403.56,186l-14-16.23a7.68,7.68,0,0,0-2.57-1.91,7.41,7.41,0,0,0-6.67.37,7,7,0,0,0-1.86,1.57,6.89,6.89,0,0,0-.93,1.33l-5.08,9.56-2.24,4.23-6.78-7.61h0a14.72,14.72,0,0,0-20.77-1.2l0,0-5.14,4.57-.83-.78,20.84-18.58,8.2-7.31,5.55-4.94-10.16-11.42h0a14.78,14.78,0,0,0-20.78-1.2l-5.76,5.12L315,159l-2.36-2.28,13.24-19.14-10.53-7.29-2-1.39h0a14.83,14.83,0,0,0-6.28-2.48,14.17,14.17,0,0,0-2.06-.14,14.69,14.69,0,0,0-12.11,6.34l-2.06,3L272.07,117.4l-10.62,11h0a14.73,14.73,0,0,0,.35,20.81l11.77,11.34L264,174.4l-20.19-6.64-2.45,7.44a33.39,33.39,0,0,0-5.09-4,27.12,27.12,0,0,0-9.42-3.7,57.64,57.64,0,0,0-6.14-.78,31.38,31.38,0,0,1-7.81-1.44,18.79,18.79,0,0,1-3.82-1.87,25.54,25.54,0,0,1-4.25-3.43,23.75,23.75,0,0,1-5.76-8.41,31.8,31.8,0,0,1-1.67-6.28c-.31-1.66-.57-3.4-.92-5.24a36.65,36.65,0,0,0-2.72-8.86,32,32,0,0,0-6.82-9.41c-.62-.62-1.24-1.17-1.85-1.7a32.64,32.64,0,0,0-3.78-2.83,26.91,26.91,0,0,0-9.41-3.68c-.32-.07-.62-.11-.93-.16-1.85-.32-3.6-.49-5.23-.65a31.47,31.47,0,0,1-7.81-1.44,18.28,18.28,0,0,1-3.82-1.87,26.18,26.18,0,0,1-4-3.21c25.43-12.11,55-19,86.49-19Q245.18,87.25,254,87.94ZM228.9,341.77l15.06-12a28.6,28.6,0,0,0,2.93.15,32.22,32.22,0,0,0,7.57-.94c3.44-.82,6.39-2,9.19-2.85a28.8,28.8,0,0,1,8.07-1.47l-.93,2-27.62,22a6.83,6.83,0,0,1-4.27,1.49,7.08,7.08,0,0,1-2.94-.61,6.86,6.86,0,0,1-2.43-1.94h0Zm55.33,8.63a6.86,6.86,0,0,1-9.1,3.37h0l-6.74-3.14,11.42-24.84a26,26,0,0,1,5.1,2.08,18.6,18.6,0,0,1,5.53,4.57c.44.52.86,1.08,1.28,1.65ZM417.56,220.58l-31.75,17.83,3.63-8.35a7.17,7.17,0,0,0,.6-2.92,7.38,7.38,0,0,0-2-5,6.88,6.88,0,0,0-.95-.84l28.26-15.88Zm-30.65,40.2a36.88,36.88,0,0,1-3,11.72,37.88,37.88,0,0,1-5.22,8.56l-26.09-20.28Zm-6.28,33.41a52.57,52.57,0,0,1-37.33,15.46h-5.82a52.76,52.76,0,0,1-52.64-48.87h.67a44.7,44.7,0,0,0,3.64,14.86,46.5,46.5,0,0,0,17.22,20.22,48.31,48.31,0,0,0,26.49,7.85h16.49v0a48,48,0,0,0,31.52-13.34,45.3,45.3,0,0,0,13.84-29.48h1.18a52.65,52.65,0,0,1-15.23,33.35Zm-22.17,21.4a60.3,60.3,0,0,0,14-5.5l4,4.91-14.53,4.72Zm-93.72-40.48-5.37-14.35,17-15.16,15.07.6,2.41,3-4.23,3.78H276.86v3.92a62,62,0,0,0,.43,7.07ZM257.46,237a6.86,6.86,0,0,1-6.59-6.85v-.28h0l.29-7.42,22.87.91a6.54,6.54,0,0,0,1.4,3.35l9.35,11.39Zm-8.72-59.33,124.33,40.87-.73.89-48.17-1.92-23.94-7.85-5.66-6.91-4.4,3.61-39.37-13a6.79,6.79,0,0,1-3.45-2.53,7,7,0,0,1-1.28-4,6.76,6.76,0,0,1,.35-2.14l-3.73-1.22,3.73,1.22Zm135.31-2.23,10,11.58-14.27,26.88a7.3,7.3,0,0,0-3.58-2.58l-9.56-3.14ZM373.18,286.68a42.3,42.3,0,0,1-3.54,2.6,40.51,40.51,0,0,1-22.22,6.55h-2.3v-31ZM296.4,272.49a36.24,36.24,0,0,1-2.95-11.71h35.32L302,281.55A37.77,37.77,0,0,1,296.4,272.49Zm-14-49.66,11.05-9.07,32.11,39.17H307.11Zm-11.11-14.44,11.66,3.8-4.22,3.46-14.91-.59Zm62.89,42.66,1.2-.67-.69,1.29Zm8.72,1.89,2.43-4.58,15.84.64-2.09,3.92Zm-5.64,11.13v31.77H332.9a40.43,40.43,0,0,1-25.25-8.74Zm-12.42-24.41-12.12-14.78,69.2,2.77-6.1,14.06Zm-2.09-45.94-1.27-.36,9.25-8.25.83.79Zm-18-25.68,3.36-4.85,1,1Zm-50.86,34.61,8.79,2.89-5.79,5.17a21.83,21.83,0,0,1-3-5.24c-.25-.64-.46-1.28-.66-1.93Zm106.64.3-1.47-1.42,4.23-3.77Zm1.9-14.91-15.36,13.7-15.7-5.16,16.42-14.64a6.86,6.86,0,0,1,7.33-1.16,6.78,6.78,0,0,1,2.35,1.72l2.93-2.61-2.93,2.61Zm-2.35-39.65-47.22,42.09-15.7-5.15,48.31-43.06a6.87,6.87,0,0,1,7.33-1.16,7,7,0,0,1,2.36,1.72l2.93-2.61-2.93,2.61ZM315,139.51l-29.12,42.07-14.12-4.64L299.36,137a6.9,6.9,0,0,1,2.5-2.21A7,7,0,0,1,305,134a6.78,6.78,0,0,1,3.92,1.21l2.23-3.22-2.27,3.25Zm-47.87-5.67,5.16-5.34,14.05,13.58L278.08,154l-10.81-10.44a6.82,6.82,0,0,1-2.09-4.94,6.75,6.75,0,0,1,1.93-4.77l-2.82-2.73Zm-173,20.77A19.53,19.53,0,0,1,85,162.22a139.68,139.68,0,0,1,20-24.73Z" transform="translate(-43.01 -79.4)" style="fill:#fe4c00"/><path d="M148.7,334.74c23.43,14.82,51.8,24.56,82.88,27q7.74.6,15.35.61a187.1,187.1,0,0,0,24.58-1.62L258,354.55l1.67-3.62c-2.36.16-4.77.31-7.18.38l-4.41,3.5a14.73,14.73,0,0,1-20.68-2.34l2.36-1.89h0l-2.36,1.89-1.85-2.36c-36.21-4.24-68.06-19-91.13-40a128.52,128.52,0,0,1-22.77-27c-1.78.6-3.68,1.22-5.76,1.72a33.12,33.12,0,0,1-5.5.86C111.63,305,128.28,321.82,148.7,334.74Z" transform="translate(-43.01 -79.4)" style="fill:#ffe87b"/><path d="M355.94,324.85l-2.14-2.6c-.1.09-.19.19-.29.29-2.29,2.26-5.07,4.9-7.79,7.43-4.3,4-8.4,7.7-9.91,9.07a151.58,151.58,0,0,0,15-10.05Q353.41,327,355.94,324.85Z" transform="translate(-43.01 -79.4)" style="fill:#ffe87b"/><path d="M311.75,350.58l-.35-.1a34.08,34.08,0,0,1-6.6-2.68,26.72,26.72,0,0,1-4.93-3.44c-.34-.3-.65-.6-1-.89-1.08.34-2.17.68-3.27,1l-4.26,9.24a14.75,14.75,0,0,1-2.66,3.92,172.74,172.74,0,0,0,23.09-7.06Z" transform="translate(-43.01 -79.4)" style="fill:#ffe87b"/><path d="M399.52,239.75,388,246.19c-.24,2.27-.57,4.52-1,6.74h11.14c.46-2.84.79-5.72,1-8.64C399.38,242.78,399.47,241.26,399.52,239.75Z" transform="translate(-43.01 -79.4)" style="fill:#ffe87b"/><path d="M390.58,210.39l5.35-3c-.4-1.57-.85-3.06-1.32-4.58Z" transform="translate(-43.01 -79.4)" style="fill:#ffe87b"/><path d="M252.29,101.77q-7.72-.61-15.32-.62h0a180.81,180.81,0,0,0-66,12.23l.93.16a27,27,0,0,1,9.42,3.69,33.32,33.32,0,0,1,3.77,2.82A171.86,171.86,0,0,1,237,112.14q7.16,0,14.46.58a175.81,175.81,0,0,1,55.62,13.64,14.83,14.83,0,0,1,6.28,2.48h0l2,1.39a157.12,157.12,0,0,1,19.13,11.32l5.76-5.13a15.13,15.13,0,0,1,3.05-2.09q-4-2.87-8.16-5.49C311.75,114,283.35,104.24,252.29,101.77Z" transform="translate(-43.01 -79.4)" style="fill:#ffe87b"/><path d="M357.47,161.26a125.71,125.71,0,0,1,14.91,19.39l5.08-9.56a7.29,7.29,0,0,1,.93-1.34A139,139,0,0,0,365.66,154Z" transform="translate(-43.01 -79.4)" style="fill:#ffe87b"/><path d="M236,349.55a7,7,0,0,0,2.94.65,6.8,6.8,0,0,0,4.27-1.49l27.62-22,.94-2a28.8,28.8,0,0,0-8.07,1.47c-2.8.87-5.75,2-9.19,2.85a32.78,32.78,0,0,1-7.58.94,28.55,28.55,0,0,1-2.92-.15L228.9,341.77l4.62,5.81h0A6.86,6.86,0,0,0,236,349.55Z" transform="translate(-43.01 -79.4)" style="fill:#fff"/><path d="M265.15,138.61a6.82,6.82,0,0,0,2.09,4.94L278.05,154l8.24-11.91L272.24,128.5l-5.17,5.34-2.81-2.73,2.81,2.73A6.78,6.78,0,0,0,265.15,138.61Z" transform="translate(-43.01 -79.4)" style="fill:#fff"/><polygon points="261.76 88.66 266.13 84.78 265.12 83.81 261.76 88.66" style="fill:#fff"/><polygon points="278.5 113.92 279.77 114.33 288.57 106.48 287.74 105.68 278.5 113.92" style="fill:#fff"/><path d="M291.73,334.16c-.42-.58-.84-1.13-1.28-1.66a18.52,18.52,0,0,0-5.54-4.57,25.67,25.67,0,0,0-5.09-2.08l-11.43,24.84,6.75,3.14h0a6.86,6.86,0,0,0,9.1-3.36Z" transform="translate(-43.01 -79.4)" style="fill:#fff"/><path d="M308.88,135.27a6.79,6.79,0,0,0-3.93-1.21,7,7,0,0,0-3.14.78,6.9,6.9,0,0,0-2.5,2.21L271.71,177l14.12,4.65L315,139.51l-6.07-4.24,2.23-3.22Z" transform="translate(-43.01 -79.4)" style="fill:#fff"/><path d="M256.91,210.72l5.79-5.17-8.79-2.89-.62.9c.2.64.41,1.29.66,1.93A22,22,0,0,0,256.91,210.72Z" transform="translate(-43.01 -79.4)" style="fill:#fff"/><path d="M65.7,254.81a25.86,25.86,0,0,1,4.92,3.44,37.74,37.74,0,0,1,6.28,7.52c1,1.5,2,3,3.14,4.34a18.79,18.79,0,0,0,5.5,4.57,26.47,26.47,0,0,0,5.22,2.09h0A26.17,26.17,0,0,0,98.32,278a27.86,27.86,0,0,0,8.53-1.49c2.81-.86,5.75-2,9.2-2.85a32.15,32.15,0,0,1,7.57-.93,34,34,0,0,1,9.76,1.52,34.85,34.85,0,0,1,6.61,2.69,26.32,26.32,0,0,1,4.94,3.44,37.74,37.74,0,0,1,6.28,7.52,53.13,53.13,0,0,0,3.14,4.34,18.88,18.88,0,0,0,5.49,4.57,26.56,26.56,0,0,0,5.16,2.09,26.17,26.17,0,0,0,7.56,1.18,27.92,27.92,0,0,0,8.54-1.49c2.8-.87,5.74-2,9.19-2.85a31.7,31.7,0,0,1,7.57-.93,36.49,36.49,0,0,1,16.4,4.19,27.24,27.24,0,0,1,4.94,3.43,38.78,38.78,0,0,1,6.28,7.53,51.19,51.19,0,0,0,3.13,4.33,18.8,18.8,0,0,0,5.5,4.58,28.78,28.78,0,0,0,12.78,3.26,28.18,28.18,0,0,0,8.54-1.49c2.81-.87,5.75-2,9.19-2.85a32.22,32.22,0,0,1,7.57-.94A36.83,36.83,0,0,1,288.6,321a27.06,27.06,0,0,1,4.93,3.44A38.38,38.38,0,0,1,299.8,332c1,1.5,2,2.94,3.14,4.33a18.67,18.67,0,0,0,5.5,4.58,26.27,26.27,0,0,0,4.78,2c.34,0,.7.05,1,.05a16.61,16.61,0,0,0,8-2.2,22.59,22.59,0,0,0,7.13-6.35l.24-.32.3-.26.34-.31,1-.86,3.34-3c2.73-2.49,6.28-5.75,9.48-8.8,1.26-1.19,2.47-2.35,3.55-3.41l-1.95.1,0,.06h-8.07A60.62,60.62,0,0,1,279,272.9l-9.62,8.57a7.34,7.34,0,0,1-10.37-.59,7.24,7.24,0,0,1-1.4-2.32l-7.5-20.06,14.95-13.34-7.94-.32A14.72,14.72,0,0,1,243,230.14v-.59h0l.61-15.27,6.33.25a29.85,29.85,0,0,1-2.59-4.45,35.75,35.75,0,0,1-2.7-8.88c-.17-.86-.31-1.69-.44-2.51a14.69,14.69,0,0,1-6-11.86,14.1,14.1,0,0,1,.35-3.1,27.44,27.44,0,0,0-2.25-2.45,25.1,25.1,0,0,0-4.25-3.44,18.28,18.28,0,0,0-3.82-1.87,31.69,31.69,0,0,0-7.85-1.44c-1.89-.19-3.92-.37-6.15-.79a27,27,0,0,1-9.42-3.69,33.54,33.54,0,0,1-5.62-4.52,32.27,32.27,0,0,1-6.83-9.42,36.49,36.49,0,0,1-2.71-8.86c-.35-1.84-.61-3.59-.92-5.24a33,33,0,0,0-1.67-6.28,23.79,23.79,0,0,0-5.76-8.41,26,26,0,0,0-4.25-3.43,18.28,18.28,0,0,0-3.82-1.87,31.93,31.93,0,0,0-7.81-1.44c-1.9-.19-3.93-.37-6.15-.78a27.2,27.2,0,0,1-9.42-3.7,35,35,0,0,1-5.36-4.26,10.08,10.08,0,0,0-6.06-2,12.68,12.68,0,0,0-10.51,6l-27.26,42.91a27.85,27.85,0,0,1-6.41,7l2-1.27,5.6,9,10.48,9-3.08,3.57-11-9.5-5.91-9.47a25.87,25.87,0,0,1-7,3.18,20.25,20.25,0,0,0-8.23,4.71,21.64,21.64,0,0,0-5.49,8.08L51.9,234.47a15.38,15.38,0,0,0-1,5.49,13.51,13.51,0,0,0,2.26,7.58,11.81,11.81,0,0,0,6.09,4.61h0A33.93,33.93,0,0,1,65.7,254.81ZM151.08,153.7h10v7.85h-10Zm-32.75,25.53,7.34-2.65,2.66,7.39L121,186.61l-1.33-3.69h0ZM156,239.78h-7.84v-9.19H156ZM226.44,278l1.57,7.68-3.85.78h0l-3.85.79-1.57-7.68Zm-14.25-75.52,5.27,5.82-6.8,6.16-2.64-2.9h0l-2.64-2.91ZM190.37,228.2l7.43-1.49,1.26,6.32L216,242.45l-2.28,4.12L193.82,235.5l-2.18.44-.37-1.85-71.06-39.42,2.28-4.12Zm-11.82-46.62,5,13.8-3.69,1.33h0l-3.7,1.35-5-13.81ZM90.29,236,89.84,232h0l-.44-3.93,12.78-1.46.9,7.8Z" transform="translate(-43.01 -79.4)" style="fill:#fff"/><polygon points="299.94 238.08 299.94 238.08 299.94 238.08 299.94 238.08" style="fill:#fff"/><polygon points="77.19 115.28 148.26 154.69 147.09 148.86 147.36 148.81 79.48 111.16 77.19 115.28" style="fill:#ffd617"/><polygon points="152.48 155.77 152.48 155.77 152.48 155.77 150.81 156.11 170.7 167.14 172.98 163.02 156.05 153.63 156.33 155 152.48 155.77" style="fill:#ffd617"/><polygon points="55.29 97.23 66.3 106.73 69.38 103.17 58.9 94.13 53.3 85.17 51.25 86.44 49.31 87.66 49.38 87.77 55.29 97.23" style="fill:#ffd617"/><polygon points="49.31 87.66 49.31 87.66 49.31 87.66 49.31 87.66" style="fill:#ffd617"/><path d="M355.2,142.83a6.91,6.91,0,0,0-2.35-1.72,7,7,0,0,0-2.77-.58,6.82,6.82,0,0,0-4.56,1.74l-48.34,43.06,15.7,5.15,47.25-42.11-4.94-5.54,2.93-2.61Z" transform="translate(-43.01 -79.4)" style="fill:#fff"/><polygon points="235.75 136.29 239.97 132.83 228.31 128.99 220.8 135.69 235.75 136.29" style="fill:#fff"/><path d="M357.51,182.48a6.7,6.7,0,0,0-2.36-1.71,6.84,6.84,0,0,0-7.33,1.16L331.4,196.57l15.7,5.15L362.47,188l-4.94-5.55,2.92-2.61Z" transform="translate(-43.01 -79.4)" style="fill:#fff"/><path d="M276.86,256.85v-3.92h12.77l4.23-3.78-2.41-3-15.07-.6-17,15.16,5.37,14.35,12.56-11.18A62,62,0,0,1,276.86,256.85Z" transform="translate(-43.01 -79.4)" style="fill:#fff"/><path d="M387.13,221.32a6.27,6.27,0,0,1,.94.84,7.37,7.37,0,0,1,1.38,7.94l-3.63,8.34,31.75-17.83-2.17-15.17Z" transform="translate(-43.01 -79.4)" style="fill:#fff"/><polygon points="291.19 171.65 291.7 172.27 292.39 170.97 291.19 171.65" style="fill:#fff"/><path d="M366.68,208.17l9.56,3.14a7.3,7.3,0,0,1,3.58,2.58L394.09,187l-10-11.58Z" transform="translate(-43.01 -79.4)" style="fill:#fff"/><polygon points="318.19 169.59 302.34 168.96 299.91 173.53 316.09 173.53 318.19 169.59" style="fill:#fff"/><path d="M242.69,183.49l3.73,1.22a6.82,6.82,0,0,0-.35,2.15,7,7,0,0,0,1.28,4,6.85,6.85,0,0,0,3.45,2.51l39.37,12.94,4.4-3.6,5.66,6.9,23.94,7.85,48.17,1.92.73-.89L248.74,177.66l-2.36,7.06Z" transform="translate(-43.01 -79.4)" style="fill:#fff"/><path d="M284.78,238.09l-9.34-11.38a6.46,6.46,0,0,1-1.4-3.34l-22.87-.92-.3,7.43h0v.27a6.87,6.87,0,0,0,6.6,6.85Z" transform="translate(-43.01 -79.4)" style="fill:#fff"/><polygon points="338.93 148.26 269.74 145.5 281.86 160.28 332.83 162.31 338.93 148.26" style="fill:#fff"/><path d="M361.9,319.72l14.56-4.79-4-4.9a59.82,59.82,0,0,1-13.95,5.49Z" transform="translate(-43.01 -79.4)" style="fill:#fff"/><polygon points="264.09 173.53 282.58 173.53 250.47 134.37 239.41 143.43 264.09 173.53" style="fill:#fff"/><polygon points="238.5 142.32 238.5 142.32 238.5 142.32 238.5 142.32" style="fill:#fff"/><path d="M381,290.26a48.12,48.12,0,0,1-31.52,13.34v0H332.94a48.48,48.48,0,0,1-26.49-7.85,46.49,46.49,0,0,1-17.23-20.23,44.33,44.33,0,0,1-3.63-14.86h-.67a52.76,52.76,0,0,0,52.64,48.88h5.81A52.78,52.78,0,0,0,396,260.71h-1.19A45.26,45.26,0,0,1,381,290.26Z" transform="translate(-43.01 -79.4)" style="fill:#ffd617"/><path d="M332.9,295.83h4.38V264.07l-29.63,23A40.43,40.43,0,0,0,332.9,295.83Zm.22-24.56c1.42.63,1.17,4.36.54,5.78a2.82,2.82,0,0,1-5.25-2,1.47,1.47,0,0,1,.1-.22C329.13,273.36,331.72,270.65,333.12,271.27Z" transform="translate(-43.01 -79.4)" style="fill:#fff"/><path d="M302,281.55l26.73-20.77H293.4a36.31,36.31,0,0,0,3,11.71A37.59,37.59,0,0,0,302,281.55Zm18.74-18.28c.54,1.46-2.32,3.87-3.77,4.41a2.81,2.81,0,0,1-2-5.25C316.45,261.86,320.19,261.81,320.73,263.27Z" transform="translate(-43.01 -79.4)" style="fill:#fff"/><path d="M352.65,260.78l26.09,20.28A37.88,37.88,0,0,0,384,272.5a36.88,36.88,0,0,0,3-11.72Zm13.6,1.28a2.81,2.81,0,1,1-1.37,5.46l-.15,0c-1.49-.42-4.54-2.58-4.12-4.08S364.77,261.64,366.25,262.06Z" transform="translate(-43.01 -79.4)" style="fill:#fff"/><path d="M345.13,264.87v31h2.29a40.5,40.5,0,0,0,22.2-6.55,39.25,39.25,0,0,0,3.54-2.6Zm3.56,6.71c1.38-.72,4.11,1.83,4.82,3.22a2.82,2.82,0,0,1-5,2.58C347.79,276,347.3,272.29,348.69,271.58Z" transform="translate(-43.01 -79.4)" style="fill:#fff"/><path d="M348.5,277.38a2.82,2.82,0,0,0,5-2.58c-.71-1.39-3.44-3.93-4.82-3.22S347.79,276,348.5,277.38Z" transform="translate(-43.01 -79.4)" style="fill:#ffd617"/><path d="M360.62,263.4c-.42,1.5,2.63,3.66,4.12,4.08a2.82,2.82,0,1,0,1.67-5.38l-.15,0C364.77,261.64,361,261.9,360.62,263.4Z" transform="translate(-43.01 -79.4)" style="fill:#ffd617"/><path d="M328.51,274.79a2.82,2.82,0,0,0,5.06,2.48,2,2,0,0,0,.09-.22c.63-1.42.88-5.15-.54-5.78S329.13,273.36,328.51,274.79Z" transform="translate(-43.01 -79.4)" style="fill:#ffd617"/><path d="M313.34,266a2.82,2.82,0,0,0,3.63,1.65h0c1.45-.54,4.31-2.95,3.77-4.41s-4.29-1.41-5.74-.87a2.83,2.83,0,0,0-1.66,3.63Z" transform="translate(-43.01 -79.4)" style="fill:#ffd617"/><polygon points="133.15 118.62 136.85 117.29 140.53 115.94 135.54 102.15 128.16 104.81 133.15 118.62" style="fill:#fe4c00"/><polygon points="85.32 104.53 82.66 97.15 75.32 99.79 76.64 103.48 77.98 107.18 85.32 104.53" style="fill:#fe4c00"/><polygon points="46.39 148.76 46.83 152.65 47.27 156.55 60.06 155.09 59.17 147.29 46.39 148.76" style="fill:#fe4c00"/><rect x="105.17" y="151.19" width="7.85" height="9.16" style="fill:#fe4c00"/><polygon points="167.67 135.02 174.47 128.85 169.21 123.03 162.39 129.2 165.03 132.11 167.67 135.02" style="fill:#fe4c00"/><polygon points="148.26 154.69 148.63 156.54 150.81 156.11 152.48 155.77 156.33 155 156.05 153.63 154.79 147.32 147.36 148.81 147.09 148.86 148.26 154.69" style="fill:#fe4c00"/><polygon points="181.15 207.01 185 206.23 183.45 198.55 175.76 200.1 177.3 207.78 181.15 207.01" style="fill:#fe4c00"/><rect x="108.06" y="74.31" width="9.98" height="7.85" style="fill:#fe4c00"/></svg>