<?xml version="1.0" encoding="UTF-8" standalone="no"?>
<svg
   xmlns:dc="http://purl.org/dc/elements/1.1/"
   xmlns:cc="http://creativecommons.org/ns#"
   xmlns:rdf="http://www.w3.org/1999/02/22-rdf-syntax-ns#"
   xmlns:svg="http://www.w3.org/2000/svg"
   xmlns="http://www.w3.org/2000/svg"
   xmlns:sodipodi="http://sodipodi.sourceforge.net/DTD/sodipodi-0.dtd"
   xmlns:inkscape="http://www.inkscape.org/namespaces/inkscape"
   version="1.1"
   id="Layer_1"
   x="0px"
   y="0px"
   viewBox="0 0 478.95002 478.95002"
   xml:space="preserve"
   sodipodi:docname="french.svg"
   width="478.95001"
   height="478.95001"
   inkscape:version="1.0.1 (3bc2e813f5, 2020-09-07)"><metadata
   id="metadata155"><rdf:RDF><cc:Work
       rdf:about=""><dc:format>image/svg+xml</dc:format><dc:type
         rdf:resource="http://purl.org/dc/dcmitype/StillImage" /><dc:title></dc:title></cc:Work></rdf:RDF></metadata><defs
   id="defs153" /><sodipodi:namedview
   pagecolor="#ffffff"
   bordercolor="#666666"
   borderopacity="1"
   objecttolerance="10"
   gridtolerance="10"
   guidetolerance="10"
   inkscape:pageopacity="0"
   inkscape:pageshadow="2"
   inkscape:window-width="952"
   inkscape:window-height="1008"
   id="namedview151"
   showgrid="false"
   inkscape:zoom="0.98756906"
   inkscape:cx="95.105983"
   inkscape:cy="319.95855"
   inkscape:window-x="0"
   inkscape:window-y="32"
   inkscape:window-maximized="0"
   inkscape:current-layer="Layer_1" />
<style
   type="text/css"
   id="style2">
	.st0{fill:#FFFFFF;}
	.st1{fill:#FE4C00;}
	.st2{fill:#FFD617;}
</style>
<g
   id="g450"
   transform="translate(21.070522,-9.0423929)"><g
     id="g374"><g
       id="g148"
       transform="translate(-6.2205156,67.637399)">
	<circle
   class="st0"
   cx="222.89"
   cy="180.88"
   r="154.34"
   id="circle4" />
	<path
   class="st1"
   d="m 377.24,180.88 h -5.31 c 0,41.17 -16.67,78.4 -43.65,105.38 -26.99,26.98 -64.21,43.65 -105.38,43.65 -41.17,0 -78.4,-16.67 -105.38,-43.65 -26.98,-26.99 -43.65,-64.21 -43.65,-105.38 0,-41.17 16.67,-78.4 43.65,-105.38 26.99,-26.98 64.21,-43.65 105.38,-43.65 41.17,0 78.4,16.67 105.38,43.65 26.98,26.99 43.65,64.21 43.65,105.38 h 5.31 5.31 C 382.55,136.81 364.67,96.87 335.79,67.99 306.92,39.11 266.97,21.23 222.9,21.23 c -44.07,0 -84.01,17.88 -112.89,46.76 -28.88,28.87 -46.76,68.82 -46.76,112.89 0,44.07 17.88,84.01 46.76,112.89 28.87,28.88 68.82,46.76 112.89,46.76 44.07,0 84.01,-17.88 112.89,-46.76 28.88,-28.87 46.76,-68.82 46.76,-112.89 z"
   id="path6" />
	<circle
   class="st2"
   cx="220.46001"
   cy="186.56"
   r="132.41"
   id="circle8" />
	<circle
   class="st0"
   cx="222.89"
   cy="180.88"
   r="125.1"
   id="circle10" />
	<path
   class="st1"
   d="m 347.99,180.88 h -4.55 c 0,33.3 -13.49,63.41 -35.31,85.24 -21.83,21.82 -51.94,35.31 -85.24,35.31 -33.3,0 -63.41,-13.49 -85.24,-35.31 -21.82,-21.83 -35.31,-51.94 -35.31,-85.24 0,-33.3 13.49,-63.41 35.31,-85.24 21.83,-21.82 51.94,-35.31 85.24,-35.31 33.3,0 63.41,13.49 85.24,35.31 21.82,21.83 35.31,51.94 35.31,85.24 h 4.55 4.55 c 0,-35.79 -14.52,-68.23 -37.97,-91.67 -23.45,-23.45 -55.89,-37.98 -91.67,-37.97 -35.79,0 -68.23,14.52 -91.67,37.97 -23.45,23.45 -37.98,55.89 -37.97,91.67 0,35.79 14.52,68.23 37.97,91.67 23.45,23.45 55.89,37.97 91.67,37.97 35.79,0 68.23,-14.52 91.67,-37.97 23.45,-23.45 37.97,-55.89 37.97,-91.67 z"
   id="path12" />
	<path
   class="st1"
   d="M 78.74,119.57 H 56.59 c -3.41,0 -6.69,0.88 -9.56,2.39 -4.32,2.28 -7.74,5.93 -10.1,10.28 -2.36,4.36 -3.68,9.49 -3.68,14.94 v 59.25 c 0.01,7.27 2.33,13.95 6.39,19.03 2.03,2.54 4.52,4.67 7.39,6.19 2.87,1.52 6.14,2.4 9.56,2.39 H 78.24 V 221.91 H 56.59 c -1.36,0 -2.63,-0.33 -3.9,-0.99 -1.89,-0.99 -3.74,-2.81 -5.1,-5.33 -1.36,-2.51 -2.22,-5.68 -2.22,-9.16 v -59.25 c -0.01,-4.64 1.53,-8.73 3.73,-11.45 1.09,-1.36 2.33,-2.39 3.59,-3.05 1.27,-0.66 2.54,-0.99 3.9,-0.99 h 22.15 z"
   id="path14" />
	<path
   class="st1"
   d="m 369.11,131.7 h 22.93 c 1.48,0 2.86,0.35 4.21,1.03 2.01,1.02 3.93,2.86 5.33,5.37 1.41,2.51 2.28,5.64 2.28,9.08 v 59.25 c 0.01,4.59 -1.56,8.64 -3.84,11.37 -1.14,1.37 -2.43,2.41 -3.77,3.09 -1.35,0.68 -2.73,1.03 -4.21,1.03 h -22.42 v 12.13 h 22.42 c 3.46,0 6.78,-0.86 9.72,-2.35 4.41,-2.25 7.96,-5.88 10.41,-10.25 2.45,-4.37 3.83,-9.53 3.83,-15.02 v -59.25 c -0.01,-7.31 -2.44,-14.04 -6.64,-19.11 -2.1,-2.53 -4.66,-4.65 -7.6,-6.15 -2.93,-1.5 -6.26,-2.36 -9.72,-2.35 h -22.93 z"
   id="path16" />
	<path
   class="st0"
   d="m 190.02,218.74 23.31,-11.04 c 3.61,-1.71 7.9,0.1 9.2,3.87 1.32,3.83 -1.03,7.95 -5,8.75 l -25.09,5.09 z"
   id="path18" />
	<path
   class="st1"
   d="m 190.02,218.74 1.46,3.08 23.31,-11.04 c 0.47,-0.22 0.94,-0.32 1.4,-0.32 0.67,0 1.34,0.21 1.89,0.6 0.55,0.39 0.98,0.92 1.22,1.62 0.13,0.37 0.18,0.72 0.18,1.07 0,0.75 -0.26,1.48 -0.73,2.06 -0.47,0.58 -1.1,0.99 -1.91,1.16 l -22.21,4.5 -1.42,-3.91 -3.19,1.18 1.46,3.08 -1.46,-3.08 -3.21,1.16 3.42,9.44 27.97,-5.67 c 2.41,-0.49 4.46,-1.81 5.88,-3.58 1.42,-1.77 2.23,-3.99 2.23,-6.33 0,-1.09 -0.18,-2.21 -0.56,-3.3 -0.72,-2.1 -2.09,-3.83 -3.77,-5 -1.69,-1.17 -3.7,-1.82 -5.79,-1.82 -1.45,0 -2.93,0.32 -4.32,0.97 l -26.12,12.36 1.06,2.92 z"
   id="path20" />
	<path
   class="st0"
   d="m 191.49,216.49 18.59,-17.88 c 2.88,-2.77 7.52,-2.42 9.95,0.74 2.47,3.21 1.55,7.86 -1.96,9.89 l -22.17,12.8 z"
   id="path22" />
	<path
   class="st1"
   d="m 191.49,216.49 2.36,2.46 18.59,-17.88 c 0.65,-0.63 1.45,-0.91 2.27,-0.92 1,0.01 1.95,0.43 2.61,1.28 0.47,0.62 0.68,1.29 0.68,2 0,0.57 -0.15,1.14 -0.42,1.63 -0.28,0.49 -0.67,0.91 -1.22,1.23 l -19.62,11.33 -2.58,-3.25 -2.67,2.12 2.36,2.46 -2.36,-2.46 -2.67,2.12 6.24,7.86 24.72,-14.27 c 1.62,-0.94 2.9,-2.27 3.76,-3.8 0.86,-1.52 1.3,-3.23 1.3,-4.97 0,-2.13 -0.69,-4.32 -2.1,-6.16 -2,-2.6 -5.02,-3.95 -8.02,-3.95 -2.5,0 -5.05,0.94 -7,2.82 l -20.83,20.03 1.93,2.43 z"
   id="path24" />
	<path
   class="st2"
   d="m 187.74,174.21 c -4.42,-5.52 -17.46,-1.07 -32.22,13.68 l -14.03,13.23 c -10.24,9.65 -11.14,25.63 -2.05,36.37 8.1,9.57 22.1,11.52 32.5,4.51 l 20.58,-13.86 c 3.51,-2.36 4.45,-7.12 2.1,-10.64 -0.75,-1.13 -2.19,-1.57 -3.44,-1.05 l -22.01,9.06 c -1.95,1.14 -4.46,0.52 -5.66,-1.4 -1.49,-2.39 -1.42,-5.43 0.19,-7.74 l 26.87,-38.62 z"
   id="path26" />
	<path
   class="st0"
   d="m 163.82,216.49 c -18.45,5.53 -28.8,-5.8 -28.8,-5.8 l 4.4,-5.4 z"
   id="path28" />
	<path
   class="st0"
   d="m 163.82,223.87 c -9.22,15.68 -23.98,13.84 -23.98,13.84 l -3.3,-5.87 z"
   id="path30" />
	<path
   class="st0"
   d="m 168.79,209.06 c -16.25,-0.05 -19.59,-15.2 -19.59,-15.2 l 6.32,-5.96 17.17,15.08 z"
   id="path32" />
	<path
   class="st1"
   d="m 187.74,174.21 2.66,-2.13 c -0.97,-1.21 -2.25,-2.15 -3.66,-2.73 -1.41,-0.59 -2.93,-0.83 -4.48,-0.83 -2.05,0 -4.17,0.42 -6.41,1.17 -3.35,1.13 -6.95,3.02 -10.77,5.65 -3.82,2.63 -7.85,6.01 -11.98,10.15 l 2.41,2.41 -2.34,-2.48 -14.03,13.23 c -6.21,5.86 -9.39,13.8 -9.39,21.76 0,6.83 2.34,13.71 7.07,19.3 5.5,6.5 13.41,9.92 21.39,9.91 5.4,0 10.86,-1.56 15.63,-4.78 l 20.58,-13.86 c 3.18,-2.14 4.9,-5.65 4.9,-9.21 0,-2.11 -0.61,-4.27 -1.86,-6.15 -1.19,-1.78 -3.17,-2.79 -5.2,-2.78 -0.8,0 -1.61,0.15 -2.38,0.47 l -22.23,9.15 -0.2,0.12 -0.39,0.11 c -0.27,0 -0.51,-0.13 -0.66,-0.37 -0.37,-0.59 -0.55,-1.25 -0.55,-1.92 0,-0.73 0.22,-1.45 0.65,-2.07 l 28.32,-40.71 -4.42,-5.53 -2.66,2.12 -2.66,2.13 1.24,1.55 -25.41,36.53 c -1.24,1.79 -1.87,3.88 -1.87,5.97 0,1.92 0.53,3.84 1.59,5.53 1.44,2.3 3.92,3.58 6.45,3.57 1.3,0 2.63,-0.34 3.83,-1.04 l -1.72,-2.95 1.3,3.15 22.01,-9.06 -0.22,-0.53 v 0.57 l 0.22,-0.04 -0.22,-0.53 v 0.57 -0.57 l -0.47,0.32 c 0.11,0.16 0.29,0.26 0.47,0.25 v -0.57 l -0.47,0.32 c 0.49,0.74 0.72,1.54 0.72,2.36 0,1.39 -0.66,2.72 -1.89,3.55 l -20.58,13.86 c -3.62,2.44 -7.73,3.61 -11.81,3.61 -6.05,0 -12.01,-2.58 -16.18,-7.5 -3.66,-4.33 -5.46,-9.61 -5.46,-14.89 0,-6.16 2.44,-12.26 7.24,-16.79 l 14.06,-13.26 0.04,-0.04 c 5.17,-5.18 10.09,-8.99 14.34,-11.46 2.12,-1.23 4.07,-2.13 5.77,-2.7 1.7,-0.57 3.14,-0.82 4.23,-0.81 0.83,0 1.44,0.13 1.87,0.31 0.43,0.18 0.69,0.39 0.95,0.7 z"
   id="path34" />
	<path
   class="st1"
   d="m 147.34,193.41 c 0.07,0.28 0.99,4.48 4.31,8.9 1.66,2.2 3.96,4.46 7.05,6.16 3.09,1.7 6.96,2.81 11.55,2.82 l 0.02,-6.82 c -3.53,-0.02 -6.17,-0.82 -8.28,-1.98 -3.15,-1.72 -5.17,-4.36 -6.41,-6.64 -0.62,-1.13 -1.03,-2.16 -1.27,-2.88 -0.12,-0.36 -0.21,-0.64 -0.26,-0.82 l -0.05,-0.19 -0.01,-0.03 -1.32,0.31 1.32,-0.29 v -0.02 l -1.32,0.31 1.32,-0.29 z"
   id="path36" />
	<path
   class="st1"
   d="m 131.52,213.61 c 0.17,0.19 2.09,2.26 5.69,4.32 3.6,2.06 8.93,4.12 15.72,4.11 3.31,0 6.96,-0.49 10.89,-1.67 l -1.96,-6.53 c -3.31,0.99 -6.28,1.38 -8.93,1.38 -5.41,0 -9.53,-1.61 -12.33,-3.21 -1.4,-0.8 -2.45,-1.6 -3.14,-2.17 -0.34,-0.29 -0.59,-0.52 -0.74,-0.67 l -0.16,-0.16 -0.02,-0.02 -1.04,0.98 1.05,-0.96 -0.01,-0.02 -1.04,0.98 1.05,-0.96 z"
   id="path38" />
	<path
   class="st1"
   d="m 140.72,241.97 c 0.12,0.01 0.79,0.09 1.89,0.09 2.32,0 6.56,-0.35 11.34,-2.49 4.77,-2.13 10.04,-6.14 14.12,-13.09 l -5.88,-3.46 c -3.39,5.74 -7.41,8.68 -11.03,10.33 -3.62,1.63 -6.91,1.89 -8.54,1.89 -0.38,0 -0.67,-0.01 -0.85,-0.03 l -0.18,-0.01 v 0 z"
   id="path40" />
	<path
   class="st0"
   d="m 168.43,225.71 c 0,0 5.64,11.81 -1.33,18.82"
   id="path42" />
	<path
   class="st1"
   d="m 165.36,227.19 1.21,-0.58 -1.21,0.58 v 0 l 1.21,-0.58 -1.21,0.58 c 0.01,0.01 0.48,1.03 0.94,2.56 0.46,1.53 0.89,3.57 0.89,5.58 0,1.28 -0.17,2.54 -0.56,3.67 -0.39,1.14 -0.99,2.17 -1.93,3.12 l 4.84,4.81 c 1.72,-1.72 2.87,-3.72 3.55,-5.72 0.69,-2.01 0.93,-4.01 0.93,-5.89 0,-3.03 -0.62,-5.73 -1.23,-7.72 -0.61,-1.98 -1.21,-3.25 -1.26,-3.37 z"
   id="path44" />
	<path
   class="st0"
   d="m 180.61,220.81 c 0,0 7.29,9.97 3.55,12.97"
   id="path46" />
	<path
   class="st1"
   d="m 177.86,222.82 0.89,-0.65 -0.89,0.65 v 0 l 0.89,-0.65 -0.89,0.65 c 0.02,0.02 1.1,1.52 2.12,3.39 0.51,0.93 1,1.95 1.34,2.88 0.34,0.92 0.5,1.74 0.49,2.12 l -0.01,0.2 v 0.02 l 0.19,0.05 -0.18,-0.07 -0.01,0.03 0.19,0.05 -0.18,-0.07 0.65,0.26 -0.44,-0.55 -0.21,0.28 0.65,0.26 -0.44,-0.55 4.28,5.32 c 0.85,-0.68 1.49,-1.6 1.85,-2.52 0.37,-0.93 0.48,-1.85 0.49,-2.7 -0.01,-1.66 -0.42,-3.14 -0.93,-4.54 -0.78,-2.09 -1.84,-3.99 -2.72,-5.44 -0.88,-1.44 -1.58,-2.39 -1.62,-2.45 z"
   id="path48" />
	<line
   class="st0"
   x1="167.50999"
   y1="188.82001"
   x2="170.28"
   y2="186.05"
   id="line50" />
	<polyline
   class="st1"
   points="169.92,191.23 172.69,188.46 167.87,183.64 165.1,186.41  "
   id="polyline52" />
	<path
   class="st0"
   d="m 291.5,105.2 c 0,0 -14.15,4.58 -15.87,22.69"
   id="path54" />
	<line
   class="st0"
   x1="287.12"
   y1="161.21001"
   x2="285.79001"
   y2="164.89"
   id="line56" />
	<path
   class="st0"
   d="m 205.82,156.04 v 0 c -7.54,4.47 -17.22,2.76 -22.77,-4.02 L 160.78,124.8 c -8.93,-10.92 -6.05,-27.23 6.08,-34.43 12.13,-7.2 27.83,-1.91 33.13,11.17 l 13.22,32.6 c 3.29,8.11 0.15,17.42 -7.39,21.9 z"
   id="path58" />
	<path
   class="st1"
   d="m 205.82,156.04 -1.74,-2.93 c -2.29,1.35 -4.8,2 -7.3,2 -4.18,0 -8.28,-1.82 -11.09,-5.25 l -22.27,-27.22 c -3.02,-3.69 -4.44,-8.05 -4.44,-12.41 0,-3.33 0.84,-6.64 2.47,-9.57 1.63,-2.93 4.02,-5.49 7.16,-7.35 3.18,-1.88 6.6,-2.76 9.99,-2.76 3.84,0 7.63,1.14 10.83,3.24 3.21,2.1 5.83,5.15 7.4,9.03 l 13.22,32.6 c 0.71,1.76 1.05,3.58 1.05,5.37 0,4.93 -2.55,9.68 -7.02,12.32 l 1.74,2.93 1.74,2.93 c 6.59,-3.91 10.36,-10.91 10.36,-18.19 0,-2.66 -0.5,-5.35 -1.55,-7.94 l -13.22,-32.6 c -2.1,-5.19 -5.67,-9.35 -9.98,-12.17 -4.32,-2.83 -9.39,-4.35 -14.57,-4.36 -4.57,0 -9.23,1.19 -13.47,3.71 -4.2,2.49 -7.46,5.96 -9.64,9.91 -2.19,3.96 -3.32,8.4 -3.32,12.88 0,5.85 1.94,11.79 5.98,16.73 l 22.27,27.22 c 4.14,5.06 10.22,7.76 16.37,7.76 3.69,0 7.42,-0.97 10.78,-2.96 z"
   id="path60" />
	<path
   class="st0"
   d="m 199.15,124.1 c 5.04,8.49 5.05,17.78 0.04,20.76 -5.02,2.98 -13.17,-1.49 -18.2,-9.98 -5.04,-8.49 -5.05,-17.78 -0.04,-20.76 5.02,-2.98 13.17,1.49 18.2,9.98 z"
   id="path62" />
	<path
   class="st2"
   d="m 180.95,114.12 c 0,0 -8.7,6.56 2.3,23.65 11,17.09 18.52,6.68 18.52,6.68 0,0 6.46,-12.3 -2.43,-22.77 -8.89,-10.47 -18.39,-7.56 -18.39,-7.56 z"
   id="path64" />
	<path
   class="st1"
   d="m 199.15,124.1 -2.93,1.74 c 2.25,3.78 3.32,7.73 3.31,10.73 0,1.49 -0.26,2.74 -0.65,3.61 -0.4,0.89 -0.86,1.39 -1.43,1.74 -0.49,0.28 -1.03,0.44 -1.78,0.44 -1.38,0.02 -3.47,-0.68 -5.63,-2.28 -2.16,-1.58 -4.36,-3.97 -6.12,-6.96 -2.25,-3.78 -3.32,-7.73 -3.31,-10.73 0,-1.49 0.26,-2.74 0.65,-3.61 0.4,-0.89 0.86,-1.39 1.43,-1.74 0.49,-0.28 1.03,-0.44 1.78,-0.44 1.38,-0.02 3.47,0.68 5.63,2.28 2.16,1.58 4.36,3.97 6.12,6.96 l 2.93,-1.74 2.93,-1.74 c -2.21,-3.72 -4.96,-6.78 -7.96,-8.98 -3,-2.18 -6.26,-3.58 -9.66,-3.6 -1.8,0 -3.64,0.43 -5.26,1.4 -1.93,1.14 -3.34,2.9 -4.19,4.85 -0.86,1.96 -1.23,4.12 -1.23,6.37 0.01,4.52 1.47,9.48 4.26,14.22 2.21,3.72 4.96,6.78 7.96,8.98 3,2.18 6.26,3.58 9.66,3.6 1.8,0 3.64,-0.43 5.26,-1.4 1.93,-1.14 3.34,-2.9 4.19,-4.85 0.86,-1.96 1.23,-4.12 1.23,-6.37 -0.01,-4.52 -1.47,-9.48 -4.26,-14.21 z"
   id="path66" />
	<path
   class="st0"
   d="m 246.47,205.71 v 0 c 7.54,-4.47 17.22,-2.76 22.77,4.02 l 22.27,27.22 c 8.93,10.92 6.05,27.23 -6.08,34.43 -12.13,7.2 -27.83,1.91 -33.13,-11.17 l -13.22,-32.6 c -3.29,-8.11 -0.15,-17.42 7.39,-21.9 z"
   id="path68" />
	<path
   class="st1"
   d="m 246.47,205.71 1.74,2.93 c 2.29,-1.35 4.8,-2 7.3,-2 4.18,0 8.28,1.82 11.09,5.25 l 22.27,27.22 c 3.02,3.69 4.44,8.05 4.44,12.41 0,3.33 -0.84,6.64 -2.47,9.57 -1.63,2.93 -4.02,5.49 -7.16,7.35 -3.18,1.88 -6.6,2.76 -9.99,2.76 -3.84,0 -7.63,-1.14 -10.83,-3.24 -3.21,-2.1 -5.83,-5.15 -7.4,-9.03 l -13.22,-32.6 c -0.71,-1.76 -1.05,-3.58 -1.05,-5.37 0,-4.93 2.55,-9.68 7.02,-12.32 l -1.74,-2.93 -1.74,-2.93 c -6.59,3.91 -10.36,10.91 -10.36,18.19 0,2.66 0.5,5.35 1.55,7.94 l 13.22,32.6 c 2.1,5.19 5.67,9.35 9.98,12.17 4.32,2.83 9.39,4.35 14.57,4.36 4.57,0 9.23,-1.19 13.47,-3.71 4.2,-2.49 7.46,-5.96 9.64,-9.91 2.19,-3.96 3.32,-8.4 3.32,-12.88 0,-5.85 -1.94,-11.79 -5.98,-16.73 l -22.27,-27.22 c -4.14,-5.06 -10.22,-7.76 -16.37,-7.76 -3.69,0 -7.42,0.97 -10.78,2.96 z"
   id="path70" />
	<path
   class="st0"
   d="m 253.13,237.65 c -5.04,-8.49 -5.05,-17.78 -0.04,-20.76 5.02,-2.98 13.16,1.49 18.2,9.98 5.04,8.49 5.05,17.78 0.04,20.76 -5.01,2.98 -13.16,-1.49 -18.2,-9.98 z"
   id="path72" />
	<path
   class="st2"
   d="m 253.45,217.23 c 0,0 -8.7,6.56 2.3,23.65 11,17.09 18.52,6.68 18.52,6.68 0,0 6.46,-12.3 -2.43,-22.77 -8.89,-10.47 -18.39,-7.56 -18.39,-7.56 z"
   id="path74" />
	<path
   class="st1"
   d="m 253.13,237.65 2.93,-1.74 c -2.25,-3.78 -3.32,-7.73 -3.31,-10.73 0,-1.49 0.26,-2.74 0.65,-3.61 0.4,-0.89 0.86,-1.39 1.43,-1.74 0.49,-0.28 1.03,-0.44 1.78,-0.44 1.38,-0.02 3.47,0.68 5.63,2.28 2.16,1.58 4.36,3.97 6.12,6.96 2.25,3.78 3.32,7.73 3.31,10.73 0,1.49 -0.26,2.74 -0.65,3.61 -0.4,0.89 -0.86,1.39 -1.43,1.74 -0.49,0.28 -1.03,0.44 -1.78,0.44 -1.38,0.02 -3.47,-0.68 -5.63,-2.28 -2.16,-1.58 -4.36,-3.97 -6.12,-6.96 l -2.93,1.74 -2.93,1.74 c 2.21,3.72 4.96,6.78 7.96,8.98 3,2.18 6.26,3.58 9.66,3.6 1.8,0 3.64,-0.43 5.26,-1.4 1.93,-1.14 3.34,-2.9 4.19,-4.85 0.86,-1.96 1.23,-4.12 1.23,-6.37 -0.01,-4.52 -1.47,-9.48 -4.26,-14.22 -2.21,-3.72 -4.96,-6.78 -7.96,-8.98 -3,-2.18 -6.26,-3.58 -9.66,-3.6 -1.8,0 -3.64,0.43 -5.26,1.4 -1.93,1.14 -3.34,2.9 -4.19,4.85 -0.86,1.96 -1.23,4.12 -1.23,6.37 0.01,4.52 1.47,9.48 4.26,14.22 z"
   id="path76" />
	<path
   class="st0"
   d="m 163.59,168.53 c -3.49,0 -6.34,-2.84 -6.34,-6.34 0,-3.5 2.84,-6.34 6.34,-6.34 3.5,0 6.34,2.84 6.34,6.34 0,3.5 -2.84,6.34 -6.34,6.34 z"
   id="path78" />
	<path
   class="st1"
   d="m 163.59,158.13 c 2.24,0 4.06,1.82 4.06,4.06 0,2.24 -1.82,4.06 -4.06,4.06 -2.24,0 -4.06,-1.82 -4.06,-4.06 0,-2.24 1.82,-4.06 4.06,-4.06 m 0,-4.55 c -4.75,0 -8.61,3.86 -8.61,8.61 0,4.75 3.86,8.61 8.61,8.61 4.75,0 8.61,-3.86 8.61,-8.61 0,-4.75 -3.86,-8.61 -8.61,-8.61 z"
   id="path80" />
	<circle
   class="st0"
   cx="287.88"
   cy="208.49001"
   r="7.1500001"
   id="circle82" />
	<path
   class="st1"
   d="m 287.88,203.62 c 2.69,0 4.87,2.18 4.87,4.87 0,2.69 -2.18,4.87 -4.87,4.87 -2.69,0 -4.87,-2.18 -4.87,-4.87 0,-2.69 2.18,-4.87 4.87,-4.87 m 0,-4.55 c -5.2,0 -9.42,4.23 -9.42,9.42 0,5.19 4.23,9.42 9.42,9.42 5.2,0 9.42,-4.23 9.42,-9.42 0,-5.19 -4.22,-9.42 -9.42,-9.42 z"
   id="path84" />
	<path
   class="st0"
   d="m 199.34,280.63 c -3.49,0 -6.34,-2.84 -6.34,-6.34 0,-3.5 2.84,-6.34 6.34,-6.34 3.5,0 6.34,2.84 6.34,6.34 0,3.5 -2.85,6.34 -6.34,6.34 z"
   id="path86" />
	<path
   class="st1"
   d="m 199.34,270.23 c 2.24,0 4.06,1.82 4.06,4.06 0,2.24 -1.82,4.06 -4.06,4.06 -2.24,0 -4.06,-1.82 -4.06,-4.06 -0.01,-2.24 1.81,-4.06 4.06,-4.06 m 0,-4.55 c -4.75,0 -8.61,3.86 -8.61,8.61 0,4.75 3.86,8.61 8.61,8.61 4.75,0 8.61,-3.86 8.61,-8.61 0,-4.74 -3.87,-8.61 -8.61,-8.61 z"
   id="path88" />
	<g
   id="g130">
		<path
   class="st0"
   d="m 259.18,137.64 -23.31,11.04 c -3.61,1.71 -7.9,-0.1 -9.2,-3.87 -1.32,-3.83 1.03,-7.95 5,-8.75 l 25.09,-5.09 z"
   id="path90" />
		<path
   class="st1"
   d="m 259.18,137.64 -1.46,-3.08 -23.31,11.04 c -0.47,0.22 -0.94,0.32 -1.4,0.32 -0.67,0 -1.34,-0.21 -1.89,-0.6 -0.55,-0.39 -0.98,-0.92 -1.22,-1.62 -0.13,-0.37 -0.18,-0.72 -0.18,-1.07 0,-0.75 0.26,-1.48 0.73,-2.06 0.47,-0.58 1.1,-0.99 1.91,-1.16 l 22.21,-4.5 1.42,3.91 3.19,-1.18 -1.46,-3.08 1.46,3.08 3.21,-1.16 -3.42,-9.44 -27.97,5.67 c -2.41,0.49 -4.46,1.81 -5.88,3.58 -1.42,1.77 -2.23,3.99 -2.23,6.33 0,1.09 0.18,2.21 0.56,3.3 0.72,2.1 2.09,3.83 3.77,5 1.69,1.17 3.7,1.82 5.79,1.82 1.45,0 2.93,-0.32 4.32,-0.97 l 26.12,-12.36 -1.06,-2.92 z"
   id="path92" />
		<path
   class="st0"
   d="m 257.7,139.89 -18.59,17.88 c -2.88,2.77 -7.52,2.42 -9.95,-0.74 -2.47,-3.21 -1.55,-7.86 1.96,-9.89 l 22.17,-12.8 z"
   id="path94" />
		<path
   class="st1"
   d="m 257.7,139.89 -2.36,-2.46 -18.59,17.88 c -0.65,0.63 -1.45,0.91 -2.27,0.92 -1,-0.01 -1.95,-0.43 -2.61,-1.28 -0.47,-0.62 -0.68,-1.29 -0.68,-2 0,-0.57 0.15,-1.14 0.42,-1.63 0.28,-0.49 0.67,-0.91 1.22,-1.23 l 19.62,-11.33 2.58,3.25 2.67,-2.12 -2.36,-2.46 2.36,2.46 2.67,-2.12 -6.24,-7.86 -24.72,14.27 c -1.62,0.94 -2.9,2.27 -3.76,3.8 -0.86,1.52 -1.3,3.23 -1.3,4.97 0,2.13 0.69,4.32 2.1,6.16 2,2.6 5.02,3.95 8.02,3.95 2.5,0 5.05,-0.94 7,-2.82 l 20.83,-20.03 -1.93,-2.43 z"
   id="path96" />
		<path
   class="st2"
   d="m 261.46,182.17 c 4.42,5.52 17.46,1.07 32.22,-13.68 l 14.03,-13.23 c 10.24,-9.65 11.14,-25.63 2.05,-36.37 -8.1,-9.57 -22.1,-11.52 -32.5,-4.51 l -20.58,13.86 c -3.51,2.36 -4.45,7.12 -2.1,10.64 0.75,1.13 2.19,1.57 3.44,1.05 l 22.01,-9.06 c 1.95,-1.14 4.46,-0.52 5.66,1.4 1.49,2.39 1.42,5.43 -0.19,7.74 l -26.87,38.62 z"
   id="path98" />
		<path
   class="st0"
   d="m 285.38,139.89 c 18.45,-5.53 28.8,5.8 28.8,5.8 l -4.4,5.4 z"
   id="path100" />
		<path
   class="st0"
   d="m 285.38,132.51 c 9.22,-15.68 23.98,-13.84 23.98,-13.84 l 3.3,5.87 z"
   id="path102" />
		<path
   class="st0"
   d="m 280.41,147.32 c 16.25,0.05 19.59,15.2 19.59,15.2 l -6.33,5.96 -17.17,-15.08 z"
   id="path104" />
		<path
   class="st1"
   d="m 261.46,182.17 -2.66,2.13 c 0.97,1.21 2.25,2.15 3.66,2.73 1.41,0.59 2.93,0.83 4.48,0.83 2.05,0 4.17,-0.42 6.41,-1.17 3.35,-1.13 6.95,-3.02 10.77,-5.65 3.82,-2.63 7.85,-6.01 11.98,-10.15 l -2.41,-2.41 2.34,2.48 14.03,-13.23 c 6.21,-5.86 9.39,-13.8 9.39,-21.76 0,-6.83 -2.34,-13.71 -7.07,-19.3 -5.5,-6.5 -13.41,-9.92 -21.39,-9.91 -5.4,0 -10.86,1.56 -15.63,4.78 l -20.58,13.86 c -3.18,2.14 -4.9,5.65 -4.9,9.21 0,2.11 0.61,4.27 1.86,6.15 1.19,1.78 3.17,2.79 5.2,2.78 0.8,0 1.61,-0.15 2.38,-0.47 l 22.23,-9.15 0.2,-0.12 0.39,-0.11 c 0.27,0 0.51,0.13 0.66,0.37 0.37,0.59 0.55,1.25 0.55,1.92 0,0.73 -0.22,1.45 -0.65,2.07 l -28.32,40.71 4.42,5.53 2.66,-2.12 2.66,-2.13 -1.24,-1.55 25.41,-36.53 c 1.24,-1.79 1.87,-3.88 1.87,-5.97 0,-1.92 -0.53,-3.84 -1.59,-5.53 -1.44,-2.3 -3.92,-3.58 -6.45,-3.57 -1.3,0 -2.63,0.34 -3.83,1.04 l 1.72,2.95 -1.3,-3.15 -22.01,9.06 0.22,0.53 v -0.57 l -0.22,0.04 0.22,0.53 v -0.57 0.57 l 0.47,-0.32 c -0.11,-0.16 -0.29,-0.26 -0.47,-0.25 v 0.57 l 0.47,-0.32 c -0.49,-0.74 -0.72,-1.54 -0.72,-2.36 0,-1.39 0.66,-2.72 1.89,-3.55 l 20.58,-13.86 c 3.62,-2.44 7.73,-3.61 11.81,-3.61 6.05,0 12.01,2.58 16.18,7.5 3.66,4.33 5.46,9.61 5.46,14.89 0,6.16 -2.44,12.26 -7.24,16.79 l -14.06,13.26 -0.04,0.04 c -5.17,5.18 -10.09,8.99 -14.34,11.46 -2.12,1.23 -4.07,2.13 -5.77,2.7 -1.7,0.57 -3.14,0.82 -4.23,0.81 -0.83,0 -1.44,-0.13 -1.87,-0.31 -0.43,-0.18 -0.69,-0.39 -0.95,-0.7 z"
   id="path106" />
		<path
   class="st1"
   d="m 301.86,162.97 c -0.07,-0.28 -0.99,-4.48 -4.31,-8.9 -1.66,-2.2 -3.96,-4.46 -7.05,-6.16 -3.09,-1.7 -6.96,-2.81 -11.55,-2.82 l -0.02,6.82 c 3.53,0.02 6.17,0.82 8.28,1.98 3.15,1.72 5.17,4.36 6.41,6.64 0.62,1.13 1.03,2.16 1.27,2.88 0.12,0.36 0.21,0.64 0.26,0.82 l 0.05,0.19 0.01,0.03 1.32,-0.31 -1.32,0.29 v 0.02 l 1.32,-0.31 -1.32,0.29 z"
   id="path108" />
		<path
   class="st1"
   d="m 317.68,142.77 c -0.17,-0.19 -2.09,-2.26 -5.69,-4.32 -3.6,-2.06 -8.93,-4.12 -15.72,-4.11 -3.31,0 -6.96,0.49 -10.89,1.67 l 1.96,6.53 c 3.31,-0.99 6.28,-1.38 8.93,-1.38 5.41,0 9.53,1.61 12.33,3.21 1.4,0.8 2.45,1.6 3.14,2.17 0.34,0.29 0.59,0.52 0.74,0.67 l 0.16,0.16 0.02,0.02 1.04,-0.98 -1.05,0.96 0.01,0.02 1.04,-0.98 -1.05,0.96 z"
   id="path110" />
		<path
   class="st1"
   d="m 308.48,114.41 c -0.12,-0.01 -0.79,-0.09 -1.89,-0.09 -2.32,0 -6.56,0.35 -11.34,2.49 -4.77,2.13 -10.04,6.14 -14.12,13.09 l 5.88,3.46 c 3.39,-5.74 7.41,-8.68 11.03,-10.33 3.62,-1.63 6.91,-1.89 8.54,-1.89 0.38,0 0.67,0.01 0.85,0.03 l 0.18,0.01 v 0 z"
   id="path112" />
		<path
   class="st0"
   d="m 280.76,130.66 c 0,0 -5.64,-11.81 1.33,-18.82"
   id="path114" />
		<path
   class="st1"
   d="m 283.84,129.19 -1.21,0.58 1.21,-0.58 v 0 l -1.21,0.58 1.21,-0.58 c -0.01,-0.01 -0.48,-1.03 -0.94,-2.56 -0.46,-1.53 -0.89,-3.57 -0.89,-5.58 0,-1.28 0.17,-2.54 0.56,-3.67 0.39,-1.14 0.99,-2.17 1.93,-3.12 l -4.84,-4.81 c -1.72,1.72 -2.87,3.72 -3.55,5.72 -0.69,2.01 -0.93,4.01 -0.93,5.89 0,3.03 0.62,5.73 1.23,7.72 0.61,1.98 1.21,3.25 1.26,3.37 z"
   id="path116" />
		<path
   class="st0"
   d="m 268.59,135.57 c 0,0 -7.29,-9.97 -3.55,-12.97"
   id="path118" />
		<path
   class="st1"
   d="m 271.34,133.56 -0.89,0.65 0.89,-0.65 v 0 l -0.89,0.65 0.89,-0.65 c -0.02,-0.02 -1.1,-1.52 -2.12,-3.39 -0.51,-0.93 -1,-1.95 -1.34,-2.88 -0.34,-0.92 -0.5,-1.74 -0.49,-2.12 l 0.01,-0.2 v -0.02 l -0.19,-0.05 0.18,0.07 0.01,-0.03 -0.19,-0.05 0.18,0.07 -0.65,-0.26 0.44,0.55 0.21,-0.28 -0.65,-0.26 0.44,0.55 -4.28,-5.32 c -0.85,0.68 -1.49,1.6 -1.85,2.52 -0.37,0.93 -0.48,1.85 -0.49,2.7 0.01,1.66 0.42,3.14 0.93,4.54 0.78,2.09 1.84,3.99 2.72,5.44 0.88,1.44 1.58,2.39 1.62,2.45 z"
   id="path120" />
		<line
   class="st0"
   x1="281.69"
   y1="167.56"
   x2="278.92001"
   y2="170.33"
   id="line122" />
		<polyline
   class="st1"
   points="279.27,165.15 276.51,167.92 281.33,172.74 284.1,169.97   "
   id="polyline124" />
		<path
   class="st0"
   d="m 249.86,75.75 c 3.49,0 6.34,2.84 6.34,6.34 0,3.5 -2.84,6.34 -6.34,6.34 -3.5,0 -6.34,-2.84 -6.34,-6.34 0,-3.5 2.85,-6.34 6.34,-6.34 z"
   id="path126" />
		<path
   class="st1"
   d="m 249.86,86.15 c -2.24,0 -4.06,-1.82 -4.06,-4.06 0,-2.24 1.82,-4.06 4.06,-4.06 2.24,0 4.06,1.82 4.06,4.06 0,2.24 -1.81,4.06 -4.06,4.06 m 0,4.54 c 4.75,0 8.61,-3.86 8.61,-8.61 0,-4.75 -3.86,-8.61 -8.61,-8.61 -4.75,0 -8.61,3.86 -8.61,8.61 0,4.75 3.87,8.61 8.61,8.61 z"
   id="path128" />
	</g>
	<line
   class="st0"
   x1="228.58"
   y1="92.330002"
   x2="233.45"
   y2="97.209999"
   id="line132" />
	<polyline
   class="st1"
   points="225.9,95.01 230.77,99.89 236.13,94.53 231.26,89.65  "
   id="polyline134" />
	<line
   class="st0"
   x1="132.73"
   y1="152.44"
   x2="124.6"
   y2="160.57001"
   id="line136" />
	<polyline
   class="st1"
   points="130.05,149.76 121.92,157.89 127.28,163.25 135.41,155.12  "
   id="polyline138" />
	<line
   class="st0"
   x1="317.94"
   y1="196.31"
   x2="321.19"
   y2="207.67999"
   id="line140" />
	<polyline
   class="st1"
   points="314.29,197.35 317.54,208.72 324.83,206.64 321.58,195.27  "
   id="polyline142" />
	<line
   class="st0"
   x1="213.96001"
   y1="251.55"
   x2="222.08"
   y2="254.8"
   id="line144" />
	<polyline
   class="st1"
   points="212.55,255.07 220.67,258.32 223.49,251.28 215.37,248.03  "
   id="polyline146" />
</g></g></g>
</svg>
