<?xml version="1.0" encoding="UTF-8" standalone="no"?>
<svg xmlns:dc="http://purl.org/dc/elements/1.1/" xmlns:cc="http://creativecommons.org/ns#"
   xmlns:rdf="http://www.w3.org/1999/02/22-rdf-syntax-ns#" xmlns:svg="http://www.w3.org/2000/svg"
   xmlns="http://www.w3.org/2000/svg" xmlns:sodipodi="http://sodipodi.sourceforge.net/DTD/sodipodi-0.dtd"
   xmlns:inkscape="http://www.inkscape.org/namespaces/inkscape" version="1.1" id="Layer_1" x="0px" y="0px"
   viewBox="0 0 478.95001 478.95001" xml:space="preserve" sodipodi:docname="japanese.svg"
   inkscape:version="1.0.1 (3bc2e813f5, 2020-09-07)">
   <metadata id="metadata79">
      <rdf:RDF>
         <cc:Work rdf:about="">
            <dc:format>image/svg+xml</dc:format>
            <dc:type rdf:resource="http://purl.org/dc/dcmitype/StillImage" />
            <dc:title></dc:title>
         </cc:Work>
      </rdf:RDF>
   </metadata>
   <defs id="defs77" />
   <sodipodi:namedview pagecolor="#ffffff" bordercolor="#666666" borderopacity="1" objecttolerance="10"
      gridtolerance="10" guidetolerance="10" inkscape:pageopacity="0" inkscape:pageshadow="2"
      inkscape:window-width="1920" inkscape:window-height="1014" id="namedview75" showgrid="false"
      inkscape:zoom="1.3966336" inkscape:cx="136.83305" inkscape:cy="194.83781" inkscape:window-x="0"
      inkscape:window-y="32" inkscape:window-maximized="1" inkscape:current-layer="layer1" />
   <style type="text/css" id="style2">
      .st0 {
         fill: #FFFFFF;
      }

      .st1 {
         fill: #FFD617;
      }

      .st2 {
         fill: #FE4C00;
      }
   </style>
   <g id="g1016" transform="matrix(1.0769778,0,0,1.0769778,9.9449848,35.024273)">
      <g id="g72">
         <path class="st0"
            d="m 327.62,259.82 c -5.71,11.38 -13.27,22.06 -22.77,31.55 -47.59,47.59 -124.75,47.59 -172.34,0 -4.5,-4.5 -8.57,-9.26 -12.21,-14.23 -19.27,-22.45 -28.95,-50.34 -28.94,-78.21 -0.01,-30.76 11.75,-61.58 35.23,-85.05 6.07,-6.08 12.65,-11.35 19.57,-15.85 l 0.17,-18.42 c -11.07,6.07 -21.49,13.76 -30.88,23.14 -26.57,26.58 -39.84,61.35 -39.84,96.19 0.01,34.83 13.27,69.61 39.84,96.19 26.58,26.57 61.35,39.84 96.19,39.84 34.83,-0.01 69.61,-13.27 96.19,-39.84 9.18,-9.18 16.73,-19.35 22.73,-30.15 z"
            id="path4" />
         <path class="st0"
            d="m 205.77,63.04 -0.14,15.76 c 2,-0.1 4,-0.15 6,-0.15 4.44,0 8.87,0.27 13.28,0.76 l -9.34,-16.42 c -1.31,-0.04 -2.62,-0.09 -3.94,-0.09 -1.95,0 -3.9,0.06 -5.86,0.14 z"
            id="path6" />
         <path class="st0"
            d="M 307.82,102.74 C 291.15,86.07 271.25,74.65 250.14,68.44 l 16.01,23.27 c 4.45,2.26 8.79,4.82 12.99,7.68 9.19,5.26 17.86,11.79 25.71,19.64 22.38,22.38 34.23,51.31 35.56,80.62 l 6.8,9.88 c 0.27,-3.53 0.45,-7.06 0.45,-10.6 -0.01,-34.83 -13.27,-69.61 -39.84,-96.19 l 4.26,-4.26 z"
            id="path8" />
         <path class="st1"
            d="m 304.85,291.37 c 9.49,-9.49 17.06,-20.18 22.77,-31.55 l -6.41,-11.27 c -5.81,12.84 -13.97,24.88 -24.52,35.42 -23.47,23.48 -54.28,35.23 -85.05,35.23 -30.76,0.01 -61.58,-11.75 -85.05,-35.23 -2.21,-2.21 -4.28,-4.5 -6.29,-6.84 3.65,4.97 7.72,9.74 12.21,14.23 47.59,47.6 124.75,47.6 172.34,0.01 z"
            id="path10" />
         <path class="st1"
            d="m 279.14,99.39 c 6.18,4.2 12.07,9.01 17.54,14.49 20.26,20.26 31.77,45.98 34.55,72.42 l 9.18,13.35 C 339.08,170.34 327.23,141.41 304.85,119.03 297,111.18 288.34,104.65 279.14,99.39 Z"
            id="path12" />
         <path class="st0"
            d="m 135.21,277.94 c -0.75,-1.79 -1.14,-3.71 -1.14,-5.61 0,-1.27 0.18,-2.55 0.52,-3.79 -0.24,-0.53 -0.46,-1.08 -0.67,-1.62 -1.97,-1.08 -3.67,-2.58 -4.96,-4.41 -1.64,-2.34 -2.6,-5.21 -2.6,-8.27 0,-3.17 1.03,-6.13 2.78,-8.51 1.37,-1.88 3.2,-3.39 5.31,-4.43 l 0.15,-0.35 c -0.58,-1.6 -0.89,-3.28 -0.89,-4.96 0,-1.9 0.38,-3.8 1.13,-5.59 -1.79,-0.67 -3.56,-1.46 -5.3,-2.38 -6.03,-3.2 -11.72,-7.86 -16.49,-13.83 -6.1,-7.64 -9.75,-16.26 -10.94,-24.65 -0.27,3.12 -0.42,6.26 -0.42,9.39 0.01,28.16 10.73,56.27 32.21,77.75 0.42,0.43 0.87,0.83 1.31,1.26 z"
            id="path14" />
         <path class="st0"
            d="m 289.38,121.18 c -2.53,-2.53 -5.16,-4.9 -7.86,-7.13 l 34.38,49.97 c -5.23,-15.66 -14.05,-30.37 -26.52,-42.84 l 3.65,-3.65 z"
            id="path16" />
         <path class="st0"
            d="m 259.66,240.83 c -1.45,0 -2.72,0.58 -3.68,1.52 -0.95,0.95 -1.52,2.23 -1.52,3.68 0,1.45 0.58,2.72 1.52,3.68 0.95,0.95 2.23,1.52 3.68,1.52 1.45,0 2.72,-0.58 3.68,-1.52 0.95,-0.95 1.52,-2.23 1.52,-3.68 0,-1.45 -0.58,-2.72 -1.52,-3.68 -0.96,-0.94 -2.23,-1.52 -3.68,-1.52 z"
            id="path18" />
         <path class="st0"
            d="m 245.21,141.84 c 0.57,-0.57 0.91,-1.33 0.91,-2.2 0,-0.87 -0.34,-1.62 -0.91,-2.2 -0.57,-0.57 -1.33,-0.91 -2.2,-0.91 -0.87,0 -1.62,0.34 -2.2,0.91 -0.57,0.57 -0.91,1.33 -0.91,2.2 0,0.87 0.34,1.62 0.91,2.2 0.57,0.57 1.33,0.91 2.2,0.91 0.87,-0.01 1.63,-0.35 2.2,-0.91 z"
            id="path20" />
         <path class="st0"
            d="m 196.66,294.27 c 1.06,0 1.99,-0.42 2.69,-1.11 0.69,-0.7 1.11,-1.63 1.11,-2.69 0,-1.06 -0.42,-1.99 -1.11,-2.69 -0.7,-0.69 -1.63,-1.11 -2.69,-1.11 -1.06,0 -1.99,0.42 -2.69,1.11 -0.69,0.7 -1.11,1.63 -1.11,2.69 0,1.06 0.42,1.99 1.11,2.69 0.7,0.69 1.62,1.11 2.69,1.11 z"
            id="path22" />
         <path class="st0"
            d="m 156.24,124.84 c 1.38,-0.59 2.98,-1.35 4.96,-2.03 1.5,-0.5 2.88,-1.02 4.39,-1.46 1.5,-0.43 3.16,-0.77 4.98,-0.76 1.98,0 4.07,0.39 6.36,1.2 2.3,0.81 4.82,2.03 7.86,3.77 l 0.13,0.07 0.1,0.07 0.07,0.04 c 0.08,0.05 0.22,0.13 0.41,0.23 0.39,0.21 0.99,0.51 1.78,0.81 1.57,0.61 3.85,1.23 6.56,1.23 0.33,0 0.67,-0.01 1,-0.03 l 0.66,-72.92 -38.65,-0.35 z"
            id="path24" />
         <path class="st0"
            d="m 170.58,128.33 c -0.91,0 -1.75,0.15 -2.85,0.46 -1.09,0.31 -2.41,0.8 -4.06,1.36 -1.68,0.56 -3.28,1.37 -5.22,2.16 -1.93,0.78 -4.26,1.52 -7.01,1.51 -1.75,0 -3.64,-0.29 -5.64,-0.93 -2.01,-0.64 -4.14,-1.6 -6.52,-2.96 -1.86,-1.06 -2.5,-3.43 -1.44,-5.28 1.06,-1.86 3.43,-2.5 5.28,-1.44 1.02,0.58 1.95,1.06 2.79,1.44 l 0.13,-13.97 c -4.24,3.16 -8.31,6.65 -12.16,10.5 -12.96,12.96 -21.97,28.34 -27.11,44.68 1.48,-2.2 3.25,-4.22 5.39,-5.93 5.04,-4.03 11.25,-5.92 17.61,-5.91 6.2,0 12.59,1.74 18.62,4.93 6.03,3.2 11.72,7.86 16.49,13.84 l -3.02,2.42 3.02,-2.42 c 1.16,1.46 2.21,2.96 3.2,4.49 1.32,-0.27 2.8,-0.45 4.44,-0.45 3.44,-0.01 7.5,0.79 11.86,2.98 3.79,1.9 6.25,2.41 7.98,2.41 1.56,-0.01 2.73,-0.38 4.28,-1.08 1.53,-0.69 3.36,-1.78 5.76,-2.75 1.59,-0.63 3.04,-1.28 4.66,-1.82 1.61,-0.54 3.44,-0.95 5.46,-0.95 1.88,0 3.87,0.34 6.06,1.02 2.2,0.69 4.64,1.71 7.54,3.17 l 0.13,0.07 0.11,0.06 0.06,0.03 c 0.07,0.04 0.19,0.1 0.36,0.18 0.34,0.17 0.89,0.41 1.6,0.65 1.41,0.49 3.47,0.98 5.9,0.98 2.71,-0.01 5.88,-0.59 9.42,-2.54 6.04,-3.35 12.14,-5.38 18.16,-5.39 3.14,0 6.24,0.57 9.17,1.79 2.93,1.22 5.67,3.07 8.12,5.53 1.51,1.51 1.51,3.96 0,5.47 -1.51,1.51 -3.96,1.51 -5.47,0 -1.81,-1.81 -3.68,-3.04 -5.62,-3.85 -1.94,-0.81 -3.98,-1.19 -6.19,-1.2 -4.22,-0.01 -9.13,1.48 -14.4,4.41 -4.72,2.63 -9.32,3.52 -13.18,3.52 -3.48,0 -6.37,-0.7 -8.42,-1.41 -1.71,-0.59 -2.83,-1.18 -3.27,-1.42 -2.62,-1.31 -4.69,-2.16 -6.31,-2.67 -1.64,-0.51 -2.81,-0.67 -3.76,-0.67 -1.03,0 -1.88,0.18 -3.01,0.55 -1.12,0.37 -2.49,0.97 -4.23,1.67 -1.73,0.68 -3.37,1.65 -5.41,2.59 -2.02,0.93 -4.53,1.79 -7.51,1.78 -3.32,0 -6.99,-1 -11.44,-3.22 -3.34,-1.67 -6.13,-2.16 -8.4,-2.16 l -0.45,0.02 c 2.76,6.17 4.2,12.55 4.2,18.65 0,4.49 -0.79,8.82 -2.4,12.78 0.64,0.4 1.25,0.84 1.82,1.33 1.53,1.32 2.77,2.96 3.63,4.82 1.67,-0.64 3.42,-0.99 5.17,-0.99 3.68,0 7.4,1.42 10.22,4.23 2.81,2.81 4.23,6.53 4.23,10.21 0,1.66 -0.31,3.31 -0.88,4.9 1.92,0.85 3.62,2.1 4.98,3.65 2.25,2.54 3.62,5.91 3.62,9.56 0,3.46 -1.23,6.66 -3.26,9.14 -1.36,1.66 -3.09,3.01 -5.07,3.94 0.64,1.66 0.99,3.41 0.99,5.16 0,2.41 -0.62,4.83 -1.83,7.01 5.99,0.43 10.71,5.41 10.71,11.5 0,6.38 -5.17,11.54 -11.55,11.55 -6.38,0 -11.54,-5.17 -11.55,-11.55 0,-1.45 0.28,-2.83 0.77,-4.1 -0.34,0.02 -0.68,0.05 -1.02,0.05 -1.59,0 -3.18,-0.28 -4.7,-0.8 l -0.29,0.13 c -1.02,2.19 -2.54,4.08 -4.44,5.51 -2.41,1.8 -5.43,2.88 -8.66,2.87 -3.01,0 -5.84,-0.93 -8.16,-2.52 -1.81,-1.24 -3.3,-2.88 -4.39,-4.79 -0.55,-0.2 -1.09,-0.41 -1.62,-0.63 -1.33,0.39 -2.71,0.6 -4.08,0.6 -1.2,0 -2.41,-0.16 -3.59,-0.47 19.64,15.03 43.15,22.57 66.71,22.57 28.16,-0.01 56.27,-10.72 77.75,-32.21 11.58,-11.58 20.01,-25.1 25.34,-39.51 L 287.65,189.6 c -0.73,-0.31 -1.37,-0.84 -1.8,-1.57 -0.46,-0.78 -0.61,-1.65 -0.5,-2.48 L 275.1,167.54 c -0.52,-0.19 -1,-0.48 -1.42,-0.89 -1.81,-1.81 -3.68,-3.05 -5.62,-3.85 -1.94,-0.81 -3.98,-1.19 -6.19,-1.2 -4.22,-0.01 -9.13,1.48 -14.4,4.41 -4.72,2.63 -9.32,3.52 -13.18,3.52 -3.48,0 -6.37,-0.7 -8.42,-1.4 -1.71,-0.59 -2.83,-1.18 -3.27,-1.42 -2.62,-1.31 -4.69,-2.16 -6.31,-2.67 -1.64,-0.51 -2.81,-0.67 -3.76,-0.67 -1.03,0.01 -1.88,0.18 -3.01,0.55 -1.12,0.37 -2.49,0.97 -4.23,1.67 -1.73,0.69 -3.37,1.65 -5.41,2.59 -2.02,0.93 -4.53,1.79 -7.51,1.78 -3.32,0 -6.99,-1 -11.44,-3.23 -3.34,-1.67 -6.13,-2.15 -8.4,-2.16 -3.18,0 -5.43,1.01 -6.38,1.54 -0.31,0.17 -0.47,0.29 -0.47,0.29 v 0 c -1.71,1.25 -4.1,0.9 -5.38,-0.8 -1.28,-1.71 -0.94,-4.14 0.77,-5.42 0.21,-0.15 1.33,-0.97 3.28,-1.77 1.95,-0.8 4.73,-1.57 8.17,-1.57 3.44,-0.01 7.5,0.79 11.86,2.98 3.79,1.9 6.25,2.41 7.98,2.41 1.56,-0.01 2.73,-0.38 4.28,-1.08 1.53,-0.69 3.36,-1.78 5.76,-2.75 1.59,-0.63 3.04,-1.28 4.66,-1.83 1.61,-0.54 3.44,-0.95 5.46,-0.95 1.88,0 3.87,0.34 6.06,1.02 2.2,0.69 4.64,1.71 7.54,3.17 l 0.13,0.07 0.11,0.06 0.06,0.03 c 0.07,0.04 0.19,0.1 0.36,0.18 0.34,0.17 0.89,0.41 1.6,0.65 1.42,0.49 3.47,0.98 5.9,0.98 2.71,-0.01 5.88,-0.59 9.42,-2.54 6.04,-3.35 12.14,-5.38 18.16,-5.39 1.98,0 3.94,0.26 5.86,0.73 L 231.39,90.77 c -6.53,-1.19 -13.14,-1.8 -19.75,-1.8 -2.03,0 -4.07,0.07 -6.1,0.19 l -0.32,35.56 c 4.75,-1.98 9.47,-3.14 14.09,-3.14 3.4,0 6.75,0.64 9.87,2.02 3.12,1.38 5.99,3.5 8.49,6.29 l 0.16,0.22 c 1.54,-0.84 3.31,-1.32 5.19,-1.32 5.99,0 10.84,4.86 10.85,10.85 0,5.99 -4.86,10.85 -10.85,10.85 -5.99,0 -10.85,-4.85 -10.85,-10.85 0,-1.35 0.26,-2.63 0.7,-3.82 -0.35,-0.2 -0.69,-0.45 -0.98,-0.77 -1.84,-2.06 -3.79,-3.46 -5.85,-4.37 -2.07,-0.91 -4.28,-1.36 -6.74,-1.36 -3.97,-0.01 -8.58,1.22 -13.55,3.63 -4.27,2.07 -8.36,2.82 -11.91,2.81 -3.88,0 -7.1,-0.87 -9.36,-1.75 -1.91,-0.74 -3.14,-1.48 -3.6,-1.77 -2.75,-1.57 -4.88,-2.57 -6.53,-3.15 -1.65,-0.59 -2.79,-0.76 -3.77,-0.76 z m 21.78,82.55 c -3.32,0 -6.99,-1 -11.44,-3.23 -1.91,-0.96 -2.69,-3.28 -1.73,-5.19 0.96,-1.91 3.28,-2.69 5.19,-1.73 3.79,1.9 6.25,2.41 7.98,2.41 1.56,-0.01 2.73,-0.38 4.28,-1.08 1.53,-0.69 3.36,-1.78 5.76,-2.75 1.59,-0.63 3.04,-1.28 4.66,-1.83 1.61,-0.54 3.44,-0.95 5.46,-0.95 1.88,0 3.87,0.34 6.06,1.02 2.2,0.69 4.64,1.71 7.54,3.17 l 0.13,0.07 0.11,0.06 0.06,0.03 c 0.07,0.04 0.19,0.1 0.36,0.18 0.34,0.17 0.89,0.41 1.6,0.65 1.42,0.49 3.47,0.98 5.9,0.98 2.71,-0.01 5.88,-0.59 9.42,-2.54 6.04,-3.35 12.14,-5.38 18.15,-5.39 3.14,0 6.24,0.57 9.17,1.79 2.93,1.22 5.67,3.07 8.12,5.53 1.51,1.51 1.51,3.96 0,5.47 -1.51,1.51 -3.96,1.51 -5.47,0 -1.81,-1.81 -3.68,-3.05 -5.62,-3.85 -1.94,-0.81 -3.98,-1.19 -6.2,-1.2 -4.22,-0.01 -9.13,1.48 -14.39,4.41 -4.72,2.63 -9.32,3.52 -13.18,3.52 -3.48,0 -6.37,-0.7 -8.42,-1.4 -1.71,-0.59 -2.83,-1.18 -3.27,-1.42 -2.62,-1.31 -4.69,-2.16 -6.31,-2.67 -1.64,-0.51 -2.81,-0.67 -3.76,-0.67 -1.03,0.01 -1.88,0.18 -3.01,0.55 -1.12,0.37 -2.49,0.97 -4.23,1.67 -1.73,0.69 -3.37,1.65 -5.41,2.59 -2.02,0.95 -4.53,1.81 -7.51,1.8 z m 5.79,6.05 4.43,-7.38 6.98,4.19 -2.21,3.69 -2.21,3.69 z m 16.41,35.63 -6.08,-6.08 6.98,-6.98 6.08,6.08 z m 74.92,-32.13 c 3.14,0 6.24,0.57 9.17,1.79 2.93,1.22 5.67,3.07 8.12,5.53 1.51,1.51 1.51,3.96 0,5.47 -1.51,1.51 -3.96,1.51 -5.47,0 -1.81,-1.81 -3.68,-3.04 -5.62,-3.85 -1.94,-0.81 -3.98,-1.19 -6.19,-1.2 -4.22,-0.01 -9.13,1.48 -14.4,4.41 -2.7,1.51 -5.36,2.43 -7.87,2.95 3.25,2.35 5.38,6.17 5.38,10.49 0,7.15 -5.79,12.94 -12.94,12.94 -7.15,0 -12.94,-5.79 -12.94,-12.94 0,-4.89 2.72,-9.14 6.72,-11.34 -1.68,-0.58 -2.78,-1.16 -3.22,-1.41 -2.62,-1.31 -4.69,-2.16 -6.31,-2.67 -1.64,-0.51 -2.81,-0.67 -3.76,-0.67 -1.03,0.01 -1.88,0.18 -3.01,0.55 -1.12,0.37 -2.49,0.97 -4.23,1.67 -1.73,0.69 -3.37,1.65 -5.41,2.59 -2.02,0.93 -4.53,1.79 -7.51,1.78 -3.32,0 -6.99,-1 -11.44,-3.23 -1.91,-0.96 -2.69,-3.28 -1.73,-5.19 0.96,-1.91 3.28,-2.69 5.19,-1.73 3.79,1.9 6.25,2.41 7.98,2.41 1.56,-0.01 2.73,-0.38 4.28,-1.08 1.53,-0.69 3.36,-1.78 5.76,-2.75 1.59,-0.63 3.04,-1.28 4.66,-1.83 1.61,-0.54 3.44,-0.95 5.46,-0.95 1.88,0 3.86,0.34 6.06,1.02 2.2,0.69 4.64,1.71 7.54,3.17 l 0.13,0.07 0.11,0.06 0.06,0.03 c 0.07,0.04 0.19,0.1 0.36,0.18 0.34,0.17 0.89,0.41 1.6,0.65 1.42,0.49 3.47,0.98 5.91,0.98 2.71,-0.01 5.88,-0.59 9.42,-2.54 6.03,-3.32 12.12,-5.35 18.14,-5.36 z m -93.83,-82.2 1.92,3.85 1.92,3.85 -8.37,4.19 -3.85,-7.69 z"
            id="path26" />
         <path class="st2" d="m 155.84,44.39 h 0.02 z" id="path28" />
         <circle class="st1" cx="259" cy="246.72" r="7.7399998" id="circle30" />
         <circle class="st1" cx="243.50999" cy="138.33" r="7.7399998" id="circle32" />
         <path class="st2"
            d="m 261.91,228.36 c -2.43,0 -4.49,-0.49 -5.91,-0.98 -0.71,-0.24 -1.25,-0.48 -1.6,-0.65 -0.17,-0.08 -0.3,-0.15 -0.36,-0.18 l -0.06,-0.03 -0.11,-0.06 -0.13,-0.07 c -2.9,-1.45 -5.34,-2.48 -7.54,-3.17 -2.2,-0.68 -4.19,-1.02 -6.06,-1.02 -2.02,0 -3.85,0.4 -5.46,0.95 -1.62,0.54 -3.07,1.19 -4.66,1.83 -2.4,0.97 -4.23,2.05 -5.76,2.75 -1.55,0.7 -2.72,1.07 -4.28,1.08 -1.73,0 -4.19,-0.51 -7.98,-2.41 -1.91,-0.96 -4.24,-0.18 -5.19,1.73 -0.96,1.91 -0.18,4.24 1.73,5.19 4.46,2.23 8.12,3.22 11.44,3.23 2.99,0.01 5.49,-0.85 7.51,-1.78 2.04,-0.94 3.68,-1.91 5.41,-2.59 1.74,-0.7 3.11,-1.3 4.23,-1.67 1.13,-0.37 1.98,-0.54 3.01,-0.55 0.95,0 2.12,0.16 3.76,0.67 1.62,0.5 3.69,1.36 6.31,2.67 0.44,0.24 1.54,0.82 3.22,1.41 -4,2.2 -6.72,6.45 -6.72,11.34 0,7.15 5.79,12.94 12.94,12.94 7.15,0 12.94,-5.79 12.94,-12.94 0,-4.32 -2.13,-8.14 -5.38,-10.49 2.51,-0.52 5.16,-1.45 7.87,-2.95 5.27,-2.93 10.17,-4.42 14.4,-4.41 2.21,0 4.25,0.39 6.19,1.2 1.94,0.81 3.81,2.04 5.62,3.85 1.51,1.51 3.96,1.51 5.47,0 1.51,-1.51 1.51,-3.96 0,-5.47 -2.45,-2.46 -5.19,-4.31 -8.12,-5.53 -2.93,-1.22 -6.03,-1.79 -9.17,-1.79 -6.02,0.01 -12.11,2.03 -18.16,5.39 -3.52,1.93 -6.69,2.51 -9.4,2.51 z m 1.43,21.34 c -0.95,0.95 -2.23,1.52 -3.68,1.52 -1.45,0 -2.72,-0.58 -3.68,-1.52 -0.95,-0.95 -1.52,-2.23 -1.52,-3.68 0,-1.45 0.58,-2.72 1.52,-3.68 0.95,-0.95 2.23,-1.52 3.68,-1.52 1.45,0 2.72,0.58 3.68,1.52 0.95,0.95 1.52,2.23 1.52,3.68 0,1.46 -0.58,2.73 -1.52,3.68 z"
            id="path34" />
         <path class="st2"
            d="m 205.28,206.5 c 1.74,-0.7 3.11,-1.3 4.23,-1.67 1.13,-0.37 1.98,-0.54 3.01,-0.55 0.95,0 2.12,0.16 3.76,0.67 1.62,0.5 3.69,1.36 6.31,2.67 0.44,0.25 1.56,0.84 3.27,1.42 2.05,0.71 4.94,1.4 8.42,1.4 3.86,0.01 8.45,-0.89 13.18,-3.52 5.26,-2.93 10.17,-4.42 14.39,-4.41 2.21,0 4.25,0.39 6.2,1.2 1.94,0.81 3.81,2.04 5.62,3.85 1.51,1.51 3.96,1.51 5.47,0 1.51,-1.51 1.51,-3.96 0,-5.47 -2.45,-2.46 -5.19,-4.31 -8.12,-5.53 -2.93,-1.22 -6.03,-1.79 -9.17,-1.79 -6.02,0.01 -12.11,2.03 -18.15,5.39 -3.53,1.96 -6.71,2.54 -9.42,2.54 -2.43,0 -4.49,-0.49 -5.9,-0.98 -0.71,-0.24 -1.25,-0.48 -1.6,-0.65 -0.17,-0.08 -0.3,-0.15 -0.36,-0.18 l -0.06,-0.03 -0.11,-0.06 -0.13,-0.07 c -2.9,-1.45 -5.34,-2.48 -7.54,-3.17 -2.2,-0.68 -4.19,-1.02 -6.06,-1.02 -2.02,0 -3.84,0.4 -5.46,0.95 -1.62,0.54 -3.07,1.19 -4.66,1.83 -2.4,0.97 -4.23,2.05 -5.76,2.75 -1.55,0.7 -2.72,1.07 -4.28,1.08 -1.73,0 -4.19,-0.51 -7.98,-2.41 -1.91,-0.96 -4.24,-0.18 -5.19,1.73 -0.96,1.91 -0.18,4.24 1.73,5.19 4.46,2.23 8.12,3.22 11.44,3.23 2.98,0.01 5.49,-0.85 7.51,-1.78 2.04,-0.96 3.68,-1.92 5.41,-2.61 z"
            id="path36" />
         <path class="st0"
            d="m 172.87,227.24 c -0.25,-1.6 -1.07,-3.02 -2.25,-4.05 -0.2,-0.17 -0.42,-0.32 -0.64,-0.46 -1.23,1.57 -2.63,3.03 -4.23,4.31 -5.04,4.03 -11.25,5.92 -17.61,5.91 -1.88,0 -3.78,-0.18 -5.69,-0.49 -0.67,1.08 -1.01,2.29 -1.02,3.53 0,1.1 0.27,2.21 0.8,3.2 l 0.04,3.6 c -0.47,0.91 -0.88,1.83 -1.23,2.77 l -2.39,2.31 c -1.32,0.45 -2.47,1.3 -3.28,2.41 -0.81,1.11 -1.28,2.46 -1.29,3.95 0,1.44 0.44,2.74 1.2,3.83 0.76,1.09 1.85,1.95 3.1,2.43 l 0.78,0.82 c -0.07,-0.95 -0.12,-1.91 -0.12,-2.87 0,-15.03 12.18,-27.2 27.21,-27.21 11.29,0 20.44,9.15 20.44,20.44 0,8.64 -7,15.63 -15.63,15.63 -6.75,0 -12.22,-5.47 -12.22,-12.22 0,-5.42 4.39,-9.8 9.8,-9.8 4.46,0 8.08,3.62 8.08,8.08 0,2.42 -1.26,4.54 -3.15,5.76 1.16,-0.39 2.22,-1.01 3.07,-1.87 1.43,-1.44 2.31,-3.39 2.31,-5.58 0,-3.52 -1.41,-6.67 -3.72,-8.98 -2.31,-2.3 -5.46,-3.72 -8.98,-3.72 -5.39,0 -10.23,2.17 -13.76,5.7 -3.53,3.53 -5.7,8.38 -5.7,13.76 0,8.01 3.24,15.21 8.48,20.46 0.91,0.39 1.84,0.76 2.81,1.05 l 2.46,2.24 c 0.5,1.22 1.36,2.28 2.44,3.01 1.08,0.74 2.36,1.17 3.78,1.17 1.52,0 2.89,-0.49 4.02,-1.33 1.13,-0.84 1.98,-2.03 2.4,-3.39 l 2.26,-2.44 c 0.95,-0.38 1.85,-0.8 2.72,-1.26 l 3.61,-0.03 c 0.96,0.5 2.02,0.75 3.08,0.75 1.73,0 3.43,-0.65 4.75,-1.97 1.32,-1.32 1.96,-3.02 1.97,-4.75 0,-1.3 -0.37,-2.59 -1.11,-3.71 l -0.36,-3.59 c 0.24,-0.59 0.46,-1.18 0.65,-1.78 l 2.87,-2.6 c 1.51,-0.33 2.83,-1.16 3.78,-2.32 0.95,-1.17 1.51,-2.62 1.51,-4.24 0,-1.72 -0.63,-3.24 -1.68,-4.43 -1.05,-1.19 -2.5,-2 -4.14,-2.22 l -3.06,-2.35 c -0.16,-0.4 -0.34,-0.79 -0.52,-1.17 l 0.38,-3.95 c 0.87,-1.18 1.3,-2.57 1.3,-3.98 -0.01,-1.73 -0.65,-3.42 -1.96,-4.74 -1.32,-1.32 -3.01,-1.96 -4.74,-1.96 -1.45,0 -2.89,0.46 -4.09,1.38 l -3.94,0.46 c -0.39,-0.17 -0.78,-0.34 -1.18,-0.5 z"
            id="path38" />
         <path class="st0"
            d="m 144.46,277.64 c -1.01,-1.65 -1.9,-3.4 -2.64,-5.21 0.03,1.7 0.67,3.35 1.96,4.65 0.21,0.21 0.45,0.38 0.68,0.56 z"
            id="path40" />

         <rect x="210.08" y="241.73" transform="matrix(0.7071,-0.7071,0.7071,0.7071,-110.9931,224.0959)" class="st2"
            width="9.8699999" height="8.6000004" id="rect42" />
         <polygon class="st2" points="205.12,221.11 207.34,217.42 209.55,213.74 202.57,209.55 198.15,216.93 "
            id="polygon44" />
         <polygon class="st2" points="187.27,142.41 191.12,150.11 199.49,145.92 197.57,142.07 195.65,138.23 "
            id="polygon46" />
         <polygon class="st0" points="216.89,33.77 226.81,49.69 304.47,172.75 310,169.11 " id="polygon48" />
         <path class="st0"
            d="m 347.34,223.37 -7.71,5.08 34.94,55.36 c 0.28,0.45 0.74,0.68 1.24,0.68 0.28,0 0.54,-0.07 0.8,-0.24 l 7.43,-4.9 c 0.44,-0.29 0.66,-0.74 0.66,-1.23 0,-0.29 -0.08,-0.56 -0.26,-0.82 z"
            id="path50" />
         <polygon class="st1" points="314.39,175.49 308.61,179.3 335.49,221.9 342.95,216.99 " id="polygon52" />
         <polygon class="st1" points="318.35,235.54 332.12,226.94 301.15,180.48 290.83,185.65 " id="polygon54" />
         <path class="st2"
            d="m 390.82,272.91 -33.35,-48.48 c 1.47,-8.44 2.24,-16.97 2.24,-25.5 0.01,-37.87 -14.47,-75.8 -43.37,-104.7 C 294.67,72.55 267.91,58.99 239.91,53.57 L 211.31,12 l -5.66,3.73 -0.16,-0.25 -12.67,7.55 1.88,3.3 14.01,24.6 c -1.09,0.02 -2.18,0.03 -3.27,0.08 -0.47,-1.45 -1.31,-2.73 -2.36,-3.72 -1.66,-1.57 -3.91,-2.5 -6.32,-2.52 L 155.88,44.4 h -0.11 c -2.41,0 -4.66,0.91 -6.34,2.46 -1.68,1.54 -2.83,3.84 -2.85,6.38 v 0 l -0.11,12.75 c -14.27,7 -27.66,16.38 -39.52,28.24 -28.9,28.9 -43.38,66.83 -43.37,104.7 -0.01,37.87 14.47,75.8 43.37,104.7 28.9,28.9 66.83,43.38 104.7,43.37 37.87,0.01 75.8,-14.47 104.7,-43.37 8.2,-8.2 15.2,-17.15 21.08,-26.6 l 12.08,21.22 c 0.84,1.48 2.06,2.66 3.45,3.45 1.39,0.79 2.96,1.2 4.56,1.2 1.6,0 3.24,-0.42 4.71,-1.3 l 7.65,-4.56 c 1.44,-0.85 2.57,-2.06 3.33,-3.43 0.28,-0.51 0.5,-1.05 0.68,-1.6 0.64,0.14 1.28,0.22 1.93,0.22 1.73,0 3.51,-0.5 5.06,-1.52 l 7.43,-4.9 c 2.68,-1.77 4.15,-4.72 4.14,-7.69 -0.01,-1.79 -0.54,-3.63 -1.63,-5.21 z m -6.78,6.44 -7.43,4.9 c -0.26,0.17 -0.52,0.24 -0.8,0.24 -0.5,-0.01 -0.96,-0.24 -1.24,-0.68 l -34.94,-55.36 7.71,-5.08 37.1,53.93 c 0.18,0.27 0.26,0.53 0.26,0.82 -0.01,0.49 -0.23,0.94 -0.66,1.23 z m -17.62,10.5 c -0.12,0.22 -0.29,0.4 -0.53,0.54 l -7.65,4.56 c -0.25,0.15 -0.49,0.21 -0.74,0.21 -0.25,0 -0.51,-0.07 -0.73,-0.19 -0.22,-0.13 -0.4,-0.3 -0.54,-0.55 l -32.38,-56.89 7.93,-4.73 34.61,55.56 c 0.16,0.25 0.22,0.5 0.22,0.77 0,0.25 -0.07,0.51 -0.19,0.72 z M 211.63,334.96 C 176.8,334.95 142.02,321.69 115.44,295.12 88.87,268.54 75.6,233.77 75.6,198.93 c 0.01,-34.83 13.27,-69.61 39.84,-96.19 9.39,-9.38 19.81,-17.07 30.88,-23.14 l -0.17,18.42 c -6.93,4.5 -13.5,9.78 -19.57,15.85 -23.48,23.47 -35.24,54.28 -35.23,85.05 -0.01,27.87 9.68,55.76 28.94,78.21 2,2.33 4.07,4.63 6.29,6.84 23.47,23.48 54.28,35.23 85.05,35.23 30.76,0.01 61.58,-11.75 85.05,-35.23 10.55,-10.55 18.71,-22.58 24.52,-35.42 l 6.41,11.27 2.93,5.15 c -6,10.8 -13.56,20.97 -22.73,30.15 -26.57,26.57 -61.34,39.83 -96.18,39.84 z M 156.89,53.33 Z m -0.02,1.39 38.65,0.35 -0.66,72.92 c -0.34,0.02 -0.68,0.03 -1,0.03 -2.71,0 -4.99,-0.61 -6.56,-1.23 -0.78,-0.3 -1.39,-0.6 -1.78,-0.81 -0.19,-0.11 -0.33,-0.19 -0.41,-0.23 l -0.07,-0.04 -0.1,-0.07 -0.13,-0.07 c -3.04,-1.74 -5.57,-2.96 -7.86,-3.77 -2.29,-0.81 -4.39,-1.2 -6.36,-1.2 -1.83,0 -3.48,0.33 -4.98,0.76 -1.51,0.44 -2.89,0.96 -4.39,1.46 -1.99,0.67 -3.59,1.44 -4.96,2.03 z m 186.08,162.27 -7.45,4.91 -26.89,-42.6 5.78,-3.81 z m -22.94,13.81 -24.92,-43.78 5.95,-3.55 26.64,42.76 z M 208.63,35.14 l 88.32,141.76 -5.69,3.39 z m -27.74,97.1 c 0.46,0.29 1.7,1.03 3.6,1.77 2.26,0.88 5.48,1.75 9.36,1.75 3.54,0 7.64,-0.74 11.91,-2.81 4.97,-2.41 9.57,-3.63 13.55,-3.63 2.45,0 4.67,0.45 6.74,1.36 2.06,0.92 4,2.31 5.85,4.37 0.29,0.32 0.62,0.57 0.98,0.77 -0.45,1.19 -0.7,2.47 -0.7,3.82 0,5.99 4.86,10.85 10.85,10.85 5.99,0 10.84,-4.86 10.85,-10.85 0,-5.99 -4.86,-10.85 -10.85,-10.85 -1.88,0 -3.65,0.48 -5.19,1.32 l -0.16,-0.22 c -2.49,-2.8 -5.36,-4.91 -8.49,-6.29 -3.12,-1.39 -6.47,-2.03 -9.87,-2.02 -4.63,0.01 -9.34,1.16 -14.09,3.14 l 0.32,-35.56 c 2.03,-0.11 4.06,-0.18 6.1,-0.19 6.62,0 13.23,0.62 19.75,1.8 l 36.33,63.81 c -1.92,-0.47 -3.88,-0.73 -5.86,-0.73 -6.02,0.01 -12.11,2.04 -18.16,5.39 -3.53,1.96 -6.71,2.54 -9.42,2.54 -2.43,0 -4.49,-0.49 -5.9,-0.98 -0.71,-0.24 -1.25,-0.48 -1.6,-0.65 -0.17,-0.08 -0.3,-0.15 -0.36,-0.18 l -0.06,-0.03 -0.11,-0.06 -0.13,-0.07 c -2.9,-1.45 -5.34,-2.48 -7.54,-3.17 -2.2,-0.68 -4.19,-1.02 -6.06,-1.02 -2.02,0 -3.84,0.4 -5.46,0.95 -1.62,0.54 -3.07,1.19 -4.66,1.83 -2.4,0.97 -4.23,2.05 -5.76,2.75 -1.55,0.7 -2.72,1.07 -4.28,1.08 -1.73,0 -4.19,-0.51 -7.98,-2.41 -4.36,-2.19 -8.43,-2.98 -11.86,-2.98 -3.44,0 -6.23,0.78 -8.17,1.57 -1.95,0.8 -3.08,1.62 -3.28,1.77 -1.71,1.28 -2.06,3.71 -0.77,5.42 1.27,1.7 3.67,2.05 5.38,0.8 v 0 c 0,0 0.16,-0.11 0.47,-0.29 0.95,-0.53 3.2,-1.54 6.38,-1.54 2.27,0.01 5.06,0.49 8.4,2.16 4.46,2.23 8.12,3.22 11.44,3.23 2.98,0.01 5.49,-0.85 7.51,-1.78 2.04,-0.94 3.68,-1.91 5.41,-2.59 1.74,-0.7 3.11,-1.3 4.23,-1.67 1.13,-0.37 1.98,-0.54 3.01,-0.55 0.95,0 2.12,0.16 3.76,0.67 1.62,0.5 3.69,1.36 6.31,2.67 0.44,0.25 1.56,0.84 3.27,1.42 2.05,0.71 4.94,1.4 8.42,1.4 3.86,0.01 8.45,-0.89 13.18,-3.52 5.26,-2.93 10.17,-4.42 14.4,-4.41 2.21,0 4.25,0.39 6.19,1.2 1.94,0.81 3.81,2.04 5.62,3.85 0.41,0.41 0.9,0.7 1.42,0.89 l 10.25,18.01 c -0.11,0.83 0.03,1.7 0.5,2.48 0.44,0.73 1.08,1.26 1.8,1.57 l 27.08,47.57 c -5.33,14.41 -13.76,27.93 -25.34,39.51 -21.48,21.48 -49.59,32.2 -77.75,32.21 -23.56,-0.01 -47.07,-7.54 -66.71,-22.57 1.18,0.3 2.39,0.47 3.59,0.47 1.38,0 2.75,-0.21 4.08,-0.6 0.53,0.22 1.08,0.43 1.62,0.63 1.09,1.91 2.58,3.55 4.39,4.79 2.32,1.59 5.15,2.52 8.16,2.52 3.23,0 6.25,-1.07 8.66,-2.87 1.91,-1.43 3.43,-3.32 4.44,-5.51 l 0.29,-0.13 c 1.52,0.52 3.11,0.8 4.7,0.8 0.34,0 0.68,-0.02 1.02,-0.05 -0.49,1.28 -0.77,2.66 -0.77,4.1 0,6.38 5.17,11.54 11.55,11.55 6.38,0 11.54,-5.17 11.55,-11.55 0,-6.1 -4.72,-11.07 -10.71,-11.5 1.21,-2.18 1.83,-4.6 1.83,-7.01 0,-1.75 -0.35,-3.5 -0.99,-5.16 1.97,-0.93 3.71,-2.27 5.07,-3.94 2.03,-2.48 3.26,-5.69 3.26,-9.14 0,-3.65 -1.37,-7.02 -3.62,-9.56 -1.37,-1.55 -3.07,-2.79 -4.98,-3.65 0.57,-1.58 0.88,-3.24 0.88,-4.9 0.01,-3.68 -1.42,-7.4 -4.23,-10.21 -2.81,-2.81 -6.53,-4.24 -10.22,-4.23 -1.75,0 -3.5,0.36 -5.17,0.99 -0.87,-1.85 -2.11,-3.5 -3.63,-4.82 -0.57,-0.49 -1.18,-0.93 -1.82,-1.33 1.61,-3.96 2.4,-8.29 2.4,-12.78 -0.01,-6.1 -1.44,-12.48 -4.2,-18.65 l 0.45,-0.02 c 2.27,0.01 5.06,0.49 8.4,2.16 4.46,2.23 8.12,3.22 11.44,3.22 2.98,0.01 5.49,-0.85 7.51,-1.78 2.04,-0.94 3.68,-1.91 5.41,-2.59 1.74,-0.7 3.11,-1.3 4.23,-1.67 1.13,-0.37 1.98,-0.54 3.01,-0.55 0.95,0 2.12,0.16 3.76,0.67 1.62,0.5 3.69,1.36 6.31,2.67 0.44,0.25 1.56,0.84 3.27,1.42 2.05,0.71 4.94,1.4 8.42,1.41 3.86,0.01 8.45,-0.89 13.18,-3.52 5.26,-2.93 10.17,-4.42 14.4,-4.41 2.21,0 4.25,0.39 6.19,1.2 1.94,0.81 3.81,2.04 5.62,3.85 1.51,1.51 3.96,1.51 5.47,0 1.51,-1.51 1.51,-3.96 0,-5.47 -2.45,-2.46 -5.19,-4.31 -8.12,-5.53 -2.93,-1.22 -6.03,-1.79 -9.17,-1.79 -6.02,0.01 -12.11,2.04 -18.16,5.39 -3.53,1.96 -6.71,2.54 -9.42,2.54 -2.43,0 -4.49,-0.49 -5.9,-0.98 -0.71,-0.24 -1.25,-0.48 -1.6,-0.65 -0.17,-0.08 -0.3,-0.15 -0.36,-0.18 l -0.06,-0.03 -0.11,-0.06 -0.13,-0.07 c -2.9,-1.45 -5.34,-2.48 -7.54,-3.17 -2.2,-0.68 -4.19,-1.02 -6.06,-1.02 -2.02,0 -3.84,0.4 -5.46,0.95 -1.62,0.54 -3.07,1.19 -4.66,1.82 -2.4,0.97 -4.23,2.05 -5.76,2.75 -1.55,0.7 -2.72,1.07 -4.28,1.08 -1.73,0 -4.19,-0.51 -7.98,-2.41 -4.36,-2.19 -8.43,-2.98 -11.86,-2.98 -1.64,0 -3.11,0.18 -4.44,0.45 -0.99,-1.52 -2.03,-3.03 -3.2,-4.49 l -3.02,2.42 3.02,-2.42 c -4.77,-5.97 -10.45,-10.64 -16.49,-13.84 -6.03,-3.19 -12.42,-4.93 -18.62,-4.93 -6.36,-0.01 -12.57,1.87 -17.61,5.91 -2.13,1.7 -3.9,3.72 -5.39,5.93 5.13,-16.34 14.15,-31.72 27.11,-44.68 3.85,-3.85 7.92,-7.34 12.16,-10.5 l -0.13,13.97 c -0.84,-0.38 -1.77,-0.85 -2.79,-1.44 -1.85,-1.06 -4.22,-0.42 -5.28,1.44 -1.06,1.85 -0.42,4.22 1.44,5.28 2.37,1.36 4.51,2.32 6.52,2.96 2,0.64 3.88,0.93 5.64,0.93 2.75,0.01 5.08,-0.73 7.01,-1.51 1.94,-0.79 3.55,-1.6 5.22,-2.16 1.65,-0.56 2.97,-1.05 4.06,-1.36 1.1,-0.31 1.94,-0.46 2.85,-0.46 0.98,0 2.12,0.17 3.79,0.76 1.63,0.58 3.77,1.58 6.51,3.15 z m 59.02,7.4 c 0,-0.87 0.34,-1.62 0.91,-2.2 0.57,-0.57 1.33,-0.91 2.2,-0.91 0.87,0 1.62,0.34 2.2,0.91 0.57,0.57 0.91,1.33 0.91,2.2 0,0.87 -0.34,1.62 -0.91,2.2 -0.57,0.57 -1.33,0.91 -2.2,0.91 -0.87,0 -1.62,-0.34 -2.2,-0.91 -0.57,-0.58 -0.91,-1.33 -0.91,-2.2 z m -63.45,91.11 3.94,-0.46 c 1.2,-0.92 2.64,-1.38 4.09,-1.38 1.73,0.01 3.42,0.65 4.74,1.96 1.32,1.32 1.96,3.01 1.96,4.74 0,1.41 -0.44,2.8 -1.3,3.98 l -0.38,3.95 c 0.18,0.39 0.35,0.78 0.52,1.17 l 3.06,2.35 c 1.64,0.22 3.09,1.03 4.14,2.22 1.05,1.19 1.68,2.72 1.68,4.43 0,1.62 -0.56,3.08 -1.51,4.24 -0.95,1.16 -2.28,2 -3.78,2.32 l -2.87,2.6 c -0.19,0.6 -0.41,1.19 -0.65,1.78 l 0.36,3.59 c 0.74,1.11 1.11,2.41 1.11,3.71 -0.01,1.73 -0.65,3.43 -1.97,4.75 -1.32,1.32 -3.02,1.96 -4.75,1.97 -1.06,0 -2.13,-0.25 -3.08,-0.75 l -3.61,0.03 c -0.87,0.47 -1.77,0.88 -2.72,1.26 l -2.26,2.44 c -0.42,1.36 -1.28,2.55 -2.4,3.39 -1.13,0.84 -2.5,1.33 -4.02,1.33 -1.42,0 -2.7,-0.43 -3.78,-1.17 -1.08,-0.74 -1.94,-1.79 -2.44,-3.01 l -2.46,-2.24 c -0.97,-0.29 -1.9,-0.65 -2.81,-1.05 -5.24,-5.26 -8.48,-12.46 -8.48,-20.46 0,-5.39 2.17,-10.23 5.7,-13.76 3.53,-3.53 8.38,-5.7 13.76,-5.7 3.52,0 6.67,1.41 8.98,3.72 2.3,2.31 3.72,5.46 3.72,8.98 0,2.19 -0.88,4.14 -2.31,5.58 -0.86,0.85 -1.91,1.48 -3.07,1.87 1.89,-1.22 3.15,-3.34 3.15,-5.76 0,-4.46 -3.62,-8.08 -8.08,-8.08 -5.41,0 -9.8,4.38 -9.8,9.8 0,6.75 5.47,12.22 12.22,12.22 8.64,0 15.63,-7 15.63,-15.63 0,-11.29 -9.15,-20.44 -20.44,-20.44 -15.03,0 -27.2,12.18 -27.21,27.21 0,0.97 0.05,1.92 0.12,2.87 l -0.78,-0.82 c -1.25,-0.48 -2.34,-1.34 -3.1,-2.43 -0.76,-1.09 -1.2,-2.39 -1.2,-3.83 0,-1.49 0.47,-2.83 1.29,-3.95 0.81,-1.11 1.96,-1.97 3.28,-2.41 l 2.39,-2.31 c 0.35,-0.94 0.76,-1.86 1.23,-2.77 l -0.04,-3.6 c -0.53,-0.99 -0.8,-2.09 -0.8,-3.2 0,-1.24 0.35,-2.45 1.02,-3.53 1.9,0.31 3.8,0.49 5.69,0.49 6.36,0.01 12.57,-1.87 17.61,-5.91 1.6,-1.28 2.99,-2.74 4.23,-4.31 0.22,0.15 0.44,0.29 0.64,0.46 1.18,1.02 2,2.44 2.25,4.05 l 2.41,3.01 c 0.4,0.15 0.79,0.31 1.18,0.49 z m -32,46.89 c -0.23,-0.18 -0.47,-0.35 -0.69,-0.56 -1.29,-1.3 -1.93,-2.95 -1.96,-4.65 0.75,1.81 1.64,3.55 2.65,5.21 z m 49.51,10.14 c 0.7,-0.69 1.63,-1.11 2.69,-1.11 1.06,0 1.99,0.42 2.69,1.11 0.69,0.7 1.11,1.63 1.11,2.69 0,1.06 -0.42,1.99 -1.11,2.69 -0.7,0.69 -1.63,1.11 -2.69,1.11 -1.06,0 -1.99,-0.42 -2.69,-1.11 -0.69,-0.7 -1.11,-1.63 -1.11,-2.69 -0.01,-1.07 0.41,-1.99 1.11,-2.69 z m -25.44,-84.55 c 0,3.74 -0.67,7.21 -1.95,10.21 -1.28,3 -3.16,5.55 -5.66,7.55 -3.55,2.83 -7.89,4.21 -12.78,4.22 -4.74,0 -9.94,-1.35 -14.99,-4.03 -5.05,-2.67 -9.94,-6.66 -14.06,-11.82 -6.51,-8.13 -9.71,-17.49 -9.7,-25.61 0,-3.74 0.67,-7.21 1.95,-10.21 1.28,-3 3.16,-5.55 5.66,-7.55 3.55,-2.83 7.89,-4.21 12.78,-4.22 4.74,0 9.94,1.35 14.99,4.03 5.05,2.67 9.94,6.66 14.06,11.82 v 0 c 6.5,8.13 9.71,17.49 9.7,25.61 z M 102.1,189.54 c 1.18,8.39 4.84,17.01 10.94,24.65 4.77,5.97 10.45,10.64 16.49,13.83 1.74,0.92 3.51,1.71 5.3,2.38 -0.75,1.79 -1.13,3.69 -1.13,5.59 0,1.68 0.31,3.36 0.89,4.96 l -0.15,0.35 c -2.11,1.04 -3.93,2.55 -5.31,4.43 -1.74,2.38 -2.78,5.34 -2.78,8.51 0,3.06 0.97,5.93 2.6,8.27 1.28,1.83 2.98,3.33 4.96,4.41 0.21,0.55 0.43,1.09 0.67,1.62 -0.34,1.24 -0.52,2.51 -0.52,3.79 0,1.91 0.38,3.82 1.14,5.61 -0.44,-0.42 -0.89,-0.82 -1.32,-1.26 -21.48,-21.48 -32.2,-49.59 -32.21,-77.75 0.01,-3.14 0.16,-6.27 0.43,-9.39 z m 213.8,-25.52 -34.38,-49.97 c 2.7,2.23 5.33,4.6 7.86,7.13 l 3.65,-3.65 -3.65,3.65 c 12.47,12.47 21.29,27.18 26.52,42.84 z m -5.9,5.09 -5.53,3.64 -77.66,-123.06 -9.92,-15.92 z m -85.08,-89.7 c -4.42,-0.49 -8.85,-0.76 -13.28,-0.76 -2,0 -4,0.05 -6,0.15 l 0.14,-15.76 c 1.95,-0.08 3.9,-0.14 5.86,-0.14 1.31,0 2.63,0.06 3.94,0.09 z m 122.74,119.52 c 0,3.54 -0.17,7.07 -0.45,10.6 l -6.8,-9.88 -9.18,-13.35 c -2.78,-26.44 -14.29,-52.17 -34.55,-72.42 -5.47,-5.48 -11.36,-10.29 -17.54,-14.49 -4.2,-2.85 -8.53,-5.41 -12.99,-7.68 L 250.14,68.44 c 21.11,6.21 41.01,17.63 57.68,34.3 l 4.26,-4.26 -4.26,4.26 c 26.57,26.58 39.83,61.36 39.84,96.19 z"
            id="path56" />
         <path class="st0"
            d="m 331.77,232.81 -7.93,4.73 32.38,56.89 c 0.14,0.25 0.32,0.42 0.54,0.55 0.22,0.13 0.48,0.19 0.73,0.19 0.26,0 0.5,-0.06 0.74,-0.21 l 7.65,-4.56 c 0.24,-0.15 0.4,-0.32 0.53,-0.54 0.12,-0.22 0.19,-0.47 0.19,-0.72 0,-0.27 -0.07,-0.51 -0.22,-0.77 z"
            id="path58" />
         <polygon class="st0" points="208.63,35.14 291.26,180.29 296.94,176.9 " id="polygon60" />
         <polygon class="st1" points="301.04,183.48 295.09,187.02 320.01,230.8 327.68,226.24 " id="polygon62" />
         <path class="st0"
            d="m 144.77,165.8 c -5.05,-2.68 -10.26,-4.03 -14.99,-4.03 -4.89,0.01 -9.24,1.39 -12.78,4.22 -2.51,2 -4.38,4.55 -5.66,7.55 -1.28,3 -1.95,6.47 -1.95,10.21 -0.01,8.12 3.2,17.48 9.7,25.61 4.12,5.16 9.01,9.15 14.06,11.82 5.05,2.68 10.26,4.03 14.99,4.03 4.89,-0.01 9.23,-1.39 12.78,-4.22 2.51,-2 4.38,-4.55 5.66,-7.55 1.28,-3 1.95,-6.47 1.95,-10.21 0.01,-8.12 -3.2,-17.48 -9.7,-25.61 v 0 c -4.12,-5.16 -9.01,-9.15 -14.06,-11.82 z m 15.95,21.91 v 0 c 3.13,3.92 4.66,8.63 4.66,13.29 0.01,6.24 -2.75,12.46 -8.01,16.67 -3.92,3.13 -8.63,4.66 -13.29,4.66 -6.24,0.01 -12.46,-2.75 -16.66,-8.01 -3.13,-3.92 -4.66,-8.63 -4.66,-13.29 -0.01,-6.24 2.75,-12.46 8.01,-16.67 3.92,-3.13 8.63,-4.66 13.29,-4.66 6.24,-0.01 12.46,2.75 16.66,8.01 z"
            id="path64" />
         <path class="st0"
            d="m 154.67,192.54 c -2.69,-3.36 -6.61,-5.1 -10.61,-5.1 -2.98,0 -5.94,0.96 -8.46,2.97 -3.36,2.69 -5.1,6.62 -5.1,10.62 0,2.98 0.96,5.94 2.97,8.46 2.69,3.36 6.62,5.1 10.62,5.1 2.98,0 5.94,-0.96 8.46,-2.97 3.36,-2.69 5.1,-6.62 5.1,-10.62 -0.01,-2.98 -0.97,-5.94 -2.98,-8.46 l 3.03,-2.42 z"
            id="path66" />
         <circle class="st1" cx="144.59" cy="201.13" r="18.92" id="circle68" />
         <path class="st2"
            d="m 130.77,184.36 c -5.26,4.2 -8.02,10.42 -8.01,16.67 0,4.65 1.53,9.37 4.66,13.29 4.2,5.26 10.42,8.02 16.66,8.01 4.66,0 9.37,-1.53 13.29,-4.66 5.26,-4.2 8.02,-10.42 8.01,-16.67 0,-4.65 -1.53,-9.37 -4.66,-13.29 -4.2,-5.26 -10.42,-8.02 -16.66,-8.01 -4.65,-0.01 -9.37,1.53 -13.29,4.66 z M 157.64,201 c -0.01,4 -1.74,7.93 -5.1,10.62 -2.51,2 -5.48,2.96 -8.46,2.97 -4,-0.01 -7.93,-1.74 -10.62,-5.1 -2,-2.51 -2.96,-5.48 -2.97,-8.46 0.01,-4 1.74,-7.93 5.1,-10.62 2.51,-2 5.48,-2.96 8.46,-2.97 4,0.01 7.93,1.74 10.61,5.1 l 3.03,-2.42 -3.02,2.42 c 2.01,2.52 2.97,5.48 2.97,8.46 z"
            id="path70" />
      </g>
   </g>
   <g inkscape:groupmode="layer" id="layer1" inkscape:label="Layer 1" />
</svg>