<svg id="b2d6bf8c-a5b5-4c20-b9d7-345f7ef345c7" data-name="Layer 9" xmlns="http://www.w3.org/2000/svg" viewBox="0 0 346.71 203.17"><path d="M154.94,169.15l.21-.45a36.44,36.44,0,0,1,3.41-6.1,14.17,14.17,0,0,1,3.93-3.67h0a12.91,12.91,0,0,1,4.57-1.63,27.09,27.09,0,0,1,4.41-.3c1.41,0,2.83.05,4.13.05a21.23,21.23,0,0,0,4.21-.33,41.31,41.31,0,0,0,7.67-2.62l2.2-7.28,6.78,2.06-.54,1.79c.36-.13.7-.26,1.08-.38a34.5,34.5,0,0,1,7-1.58,26,26,0,0,1,2.92-.14,33.89,33.89,0,0,1,3.77.21l15.82-14.7,4.83,5.18-11.83,11a52.7,52.7,0,0,0,9.92,1.33h.07a39.6,39.6,0,0,0,4.87-.36c.75-.83,1.51-1.65,2.31-2.43.63-.63,1.28-1.25,1.93-1.85l-3.12-1.09,2.31-6.72,7.28,2.53a64.3,64.3,0,0,1,36.64-11.8,123.44,123.44,0,0,0-42.7-7.53,120.47,120.47,0,0,0-55.31,13.31c-17.06,8.72-32.5,21.59-45.53,38.2-1.41,1.78-2.75,3.6-4.08,5.46a19.41,19.41,0,0,0,3.69-.87,17.35,17.35,0,0,0,3-1.37c.64-.35,1.36-.76,2.22-1.15.31-.13.64-.27,1-.39l-.16-6.12Z" transform="translate(-68.52 -115.31)" style="fill:#fff"/><path d="M407.67,220.05a11.79,11.79,0,0,0,.5-3.18,6.58,6.58,0,0,0-.08-1.09,7.53,7.53,0,0,0-.66-2.13,14.76,14.76,0,0,0-1.42-2.31c-1.18-1.62-2.83-3.38-4.49-5.33a42.66,42.66,0,0,1-3.33-4.25,61.52,61.52,0,0,1-3.88-7.08,34.76,34.76,0,0,0-3.33-5.76,9,9,0,0,0-4.83-3.41,19.28,19.28,0,0,0-3-.63c-2.19-.31-4.72-.38-7.37-.62a31.09,31.09,0,0,1-5.42-.88,39.63,39.63,0,0,1-7.56-3.13,59.26,59.26,0,0,0-6.34-3,12.65,12.65,0,0,0-3.54-.81h-.67a20.15,20.15,0,0,0-6.09,1.16c-.43.13-.88.29-1.32.45a65.05,65.05,0,0,1,.59,30.36,153.54,153.54,0,0,1,11.26,12.66l31.1-17.85,3.54,6.14L361,226.78a150.47,150.47,0,0,1,9.21,14.38l17.24,9.17-1.66,3.13h0l-1.67,3.12-8.29-4.41a148.66,148.66,0,0,1,7.92,21.51c0-.2.09-.42.15-.65a23.57,23.57,0,0,1,1-3.45,28.46,28.46,0,0,1,3.39-6.13,20.58,20.58,0,0,1,2.58-2.93c.92-.88,1.88-1.69,2.84-2.47a54.2,54.2,0,0,0,5.14-4.56,13.46,13.46,0,0,0,2.23-3.12,9.83,9.83,0,0,0,.78-2.37,19.47,19.47,0,0,0,.37-3c.14-2.12.08-4.6.19-7.18a29.72,29.72,0,0,1,.63-5.31,39.2,39.2,0,0,1,2.38-6.75A51.26,51.26,0,0,0,407.67,220.05Z" transform="translate(-68.52 -115.31)" style="fill:#fff"/><polygon points="284.8 54.09 284.8 54.09 284.8 54.09 284.8 54.09" style="fill:#fe4c00"/><path d="M415.1,214.74a15.18,15.18,0,0,0-1.9-5.3,38.82,38.82,0,0,0-4.7-6.19,53.33,53.33,0,0,1-4.42-5.42,95.23,95.23,0,0,1-4.6-8.59,33.24,33.24,0,0,0-2.88-4.61,17.07,17.07,0,0,0-4.25-4,17.65,17.65,0,0,0-5.48-2.26,48,48,0,0,0-8-1,36.67,36.67,0,0,1-6.68-.85,25.21,25.21,0,0,1-4-1.54c-2.12-1-4.35-2.26-6.78-3.38a32.24,32.24,0,0,0-3.83-1.48,18,18,0,0,0-4.25-.78c-.36,0-.7,0-1.08,0a23.27,23.27,0,0,0-5.63.75c-.4-.52-.79-1.05-1.2-1.56A155.05,155.05,0,0,0,334,155.68a64.71,64.71,0,0,0-24.37-19.76,130.18,130.18,0,0,0-129.14-6.55c-21.15,10.82-39.82,27.62-54.69,49.48a44.7,44.7,0,0,0-7.21-.71,20.12,20.12,0,0,0-5.12.63h0a18.31,18.31,0,0,0-5.08,2.34,56,56,0,0,0-6,4.74,32,32,0,0,1-5.14,3.82,27.65,27.65,0,0,1-3.81,1.6c-2.12.75-4.62,1.41-7.08,2.48a24.22,24.22,0,0,0-3.68,1.91,15.51,15.51,0,0,0-3.34,2.92,15.24,15.24,0,0,0-2.73,5A37.38,37.38,0,0,0,75,211.15a55.51,55.51,0,0,1-1.16,6.9,74.68,74.68,0,0,1-3.07,8.19,40.85,40.85,0,0,0-1.57,4.6,20.2,20.2,0,0,0-.71,5.07,16.3,16.3,0,0,0,.15,2.21h0a18,18,0,0,0,1.93,5.61,48.65,48.65,0,0,0,4.55,6.66A36.84,36.84,0,0,1,78.91,256h0a23.91,23.91,0,0,1,1.48,4c.65,2.24,1.17,4.76,1.94,7.32A22.57,22.57,0,0,0,86,274.89l.71.93-.71-.93a22,22,0,0,0,4.4,4.17l.32.23a308.76,308.76,0,0,0-2,34v1.65h0v3.47H91.5a2.94,2.94,0,0,0,1.32,0l296.59-.61v-3.54a319.87,319.87,0,0,0-1.6-32.16,15.85,15.85,0,0,0,1.41-2.38,16,16,0,0,0,1.18-3.3c.18-.71.31-1.42.46-2a16.41,16.41,0,0,1,.92-2.83,23.64,23.64,0,0,1,2.35-4,15.74,15.74,0,0,1,2.44-2.59c1.56-1.41,3.54-2.9,5.54-4.71a29.16,29.16,0,0,0,2.88-3,19.36,19.36,0,0,0,2.45-3.75,17.93,17.93,0,0,0,1.6-5.36,55.86,55.86,0,0,0,.4-7.65,31.62,31.62,0,0,1,.53-6.37,22.9,22.9,0,0,1,1.16-3.54c.76-1.92,1.74-4,2.57-6.25a21.59,21.59,0,0,0,1.54-7.44A15.38,15.38,0,0,0,415.1,214.74Zm-12.66,23.12c-.11,2.58,0,5-.18,7.18a22.37,22.37,0,0,1-.37,3,10.32,10.32,0,0,1-.79,2.37,13.17,13.17,0,0,1-2.23,3.12,53,53,0,0,1-5.14,4.56c-.94.78-1.9,1.59-2.83,2.47a19.41,19.41,0,0,0-2.58,2.93,28.07,28.07,0,0,0-3.4,6.13,24.86,24.86,0,0,0-1,3.45c-.05.23-.1.45-.14.65a150.11,150.11,0,0,0-7.95-21.52l8.29,4.41,1.66-3.13,1.66-3.13-17.23-9.16A149.92,149.92,0,0,0,361,226.77l30.31-17.41-3.54-6.14-31.1,17.86a152.18,152.18,0,0,0-11.27-12.67,64.92,64.92,0,0,0-.59-30.36l1.33-.45a20.41,20.41,0,0,1,6.09-1.16h.67a12.75,12.75,0,0,1,3.54.82,60.11,60.11,0,0,1,6.34,3,40.23,40.23,0,0,0,7.55,3.14,32.18,32.18,0,0,0,5.43.88c2.65.23,5.18.31,7.36.61a19.4,19.4,0,0,1,3,.63,9,9,0,0,1,4.83,3.42,35,35,0,0,1,3.33,5.75,60.16,60.16,0,0,0,3.88,7.09,43.84,43.84,0,0,0,3.33,4.25c1.68,1.94,3.31,3.7,4.49,5.32a14.8,14.8,0,0,1,1.41,2.32,7.49,7.49,0,0,1,.67,2.12,8,8,0,0,1,.08,1.09,12.21,12.21,0,0,1-.51,3.18,51.26,51.26,0,0,1-2.21,5.75,39.8,39.8,0,0,0-2.38,6.75A29.53,29.53,0,0,0,402.44,237.86ZM91.52,270.54h0a12.51,12.51,0,0,1-1.7-3.21,62.67,62.67,0,0,1-1.93-6.75,38,38,0,0,0-2.62-7.75L85,252.3l.26.53a32.13,32.13,0,0,0-2.91-4.66c-1.57-2.12-3.18-4.09-4.4-5.94a18.33,18.33,0,0,1-1.52-2.7,9.28,9.28,0,0,1-.78-2.46,10,10,0,0,1-.1-1.22,12.86,12.86,0,0,1,.49-3.26,48,48,0,0,1,2.13-5.88,54.13,54.13,0,0,0,2.48-6.91,43.6,43.6,0,0,0,1-5.31c.35-2.56.59-5,1-6.89a14.68,14.68,0,0,1,.81-2.59,7.38,7.38,0,0,1,1.14-1.88,9,9,0,0,1,2.59-2,34.72,34.72,0,0,1,6.11-2.39,42.57,42.57,0,0,0,7.25-2.83,30.72,30.72,0,0,0,4.42-3.09c2-1.62,3.81-3.29,5.51-4.6a22,22,0,0,1,2.48-1.67,9.84,9.84,0,0,1,2.3-.94h0a12,12,0,0,1,3.27-.39,38.1,38.1,0,0,1,6.21.71,44.94,44.94,0,0,0,6.94.77q.91,0,1.83-.09h0a29.47,29.47,0,0,0,6.63-1.42l.3-.12-.15.3a15.13,15.13,0,0,0-1.09,3.72,22,22,0,0,0-.26,3.54c0,1.46.11,2.83.2,4.11v.43l6.37-14,4,1.84c.91-.76,2-1.55,3.11-2.41a29,29,0,0,0,5.29-4.79,16.77,16.77,0,0,0,1.15-1.61l-15.23.41v-1c-.34.13-.7.26-1,.39-.87.39-1.58.8-2.23,1.15a18.19,18.19,0,0,1-3,1.38,20.18,20.18,0,0,1-3.69.86q2-2.79,4.08-5.46c13-16.61,28.48-29.48,45.53-38.2A120.59,120.59,0,0,1,239,122.39a123.17,123.17,0,0,1,42.78,7.51,64.29,64.29,0,0,0-36.59,11.8l8.5,3a57.45,57.45,0,0,1,85.58,57.9q-4.65-4.19-9.65-8a6.11,6.11,0,0,0,2.79-1.62,6.21,6.21,0,0,0,1.8-4.38,2.94,2.94,0,0,0,0-.42,47.18,47.18,0,0,0-46.85-43.86h0a6,6,0,0,0-5.46,3.37l6.46,4.1v-.37a40.1,40.1,0,0,1,38.74,36.32h-7.23c-2.38-1.54-4.81-3-7.29-4.4-2.22-1.26-4.48-2.46-6.77-3.62a150.77,150.77,0,0,0-16.44-7l-.6-12.22-7.33-4.65.71,14.48a148,148,0,0,0-17.74-4.21l-5.49-8.62a6.23,6.23,0,0,0-8.6-1.9l-.34.23a47.15,47.15,0,0,0-8.5,8.14H239c-1.81,0-3.6,0-5.4.11a57,57,0,0,1,12.75-14.36L238.66,147c-.66.6-1.3,1.22-1.93,1.85-.8.78-1.56,1.6-2.31,2.43a39.74,39.74,0,0,1-4.87.36h-.08a52.49,52.49,0,0,1-9.91-1.33l-6.44,6c1.42.24,2.9.53,4.4.83a67.32,67.32,0,0,0,11.12,1.54,64.75,64.75,0,0,0-3.5,5.89,151.1,151.1,0,0,0-89.88,41.29l-1.1,1.07-3-12.62-6.89,1.62,4,17a152.75,152.75,0,0,0-12.49,15.54L91,220l-2.3,6.7,23.13,7.88a150.18,150.18,0,0,0-17.37,38.68,15.09,15.09,0,0,1-2.88-2.71Zm4.25,40.82a143.29,143.29,0,0,1,286.49-.64Zm157.66-149.3,1.72,2.71c-1.48-.16-3-.3-4.46-.42C251.59,163.55,252.5,162.79,253.43,162.06Z" transform="translate(-68.52 -115.31)" style="fill:#fe4c00"/><path d="M94.4,273.26a149.93,149.93,0,0,1,17.38-38.69l-23.13-7.88L91,220l24.87,8.5a152.87,152.87,0,0,1,12.49-15.55l-4-17,6.89-1.62,3,12.62,1.1-1.07,4-8.71v-.43c-.09-1.27-.19-2.65-.2-4.11a22,22,0,0,1,.27-3.54,14.52,14.52,0,0,1,1.09-3.71h0c0-.11.1-.2.15-.31l-.31.12a29.47,29.47,0,0,1-6.63,1.42h0c-.6.06-1.21.09-1.82.09a43.74,43.74,0,0,1-6.94-.77,38.23,38.23,0,0,0-6.21-.71,12.07,12.07,0,0,0-3.28.39h0a10.11,10.11,0,0,0-2.3,1,21.82,21.82,0,0,0-2.47,1.67c-1.71,1.31-3.51,3-5.52,4.6a30.24,30.24,0,0,1-4.41,3,42.89,42.89,0,0,1-7.25,2.83A35.61,35.61,0,0,0,87.33,201a9.14,9.14,0,0,0-2.59,2A7.16,7.16,0,0,0,83.6,205a14.29,14.29,0,0,0-.86,2.64c-.45,2-.71,4.33-1,6.89a43.6,43.6,0,0,1-1,5.31,54.13,54.13,0,0,1-2.48,6.91,48,48,0,0,0-2.13,5.88,12.86,12.86,0,0,0-.49,3.26,8.35,8.35,0,0,0,.09,1.22,9.62,9.62,0,0,0,.76,2.46,17.91,17.91,0,0,0,1.5,2.67c1.21,1.85,2.84,3.81,4.39,5.94a30.93,30.93,0,0,1,2.92,4.67l-.26-.54.26.54a38,38,0,0,1,2.62,7.74,61,61,0,0,0,1.95,6.78,12.64,12.64,0,0,0,1.74,3.21h0A14.94,14.94,0,0,0,94.4,273.26Z" transform="translate(-68.52 -115.31)" style="fill:#fff"/><polygon points="0.24 123.41 0.15 122.82 0.15 122.82 0.24 123.41" style="fill:#fe4c00"/><polygon points="65.28 71.22 65.05 71.24 65.05 71.24 65.28 71.22" style="fill:#fe4c00"/><path d="M148.05,194.87a149.63,149.63,0,0,1,77.09-30.33,64.75,64.75,0,0,1,3.5-5.89,67.06,67.06,0,0,1-11.12-1.56c-1.51-.31-3-.6-4.41-.84l-12,11.2-4.82-5.19,6.68-6.22a38,38,0,0,0-6.57,2c-1,.4-2,.83-3.06,1.27l-1.61,5.27-6.55-2a32.93,32.93,0,0,1-3.92,1.08h0a27.78,27.78,0,0,1-5.61.46c-1.49,0-2.88,0-4.14,0a20.48,20.48,0,0,0-3.22.2,5.85,5.85,0,0,0-2.07.71h0a6.33,6.33,0,0,0-1.46,1.27,12.55,12.55,0,0,0-1.42,2c-.13.22-.25.46-.37.71l16.18-.44.2,7.08-20.12.55a16.77,16.77,0,0,1-1.15,1.61,29.26,29.26,0,0,1-5.28,4.79c-1.14.86-2.21,1.65-3.12,2.41l2.42,1.1Z" transform="translate(-68.52 -115.31)" style="fill:#fe4c00"/><polygon points="93.97 43.63 93.97 43.63 93.97 43.63 93.97 43.63" style="fill:#fe4c00"/><path d="M210.75,148.78a33.89,33.89,0,0,0-3.77-.21,26.12,26.12,0,0,0-2.93.14,34.8,34.8,0,0,0-7,1.58l-1.08.38-2.63,8.65c1-.44,2-.87,3.06-1.27a37.5,37.5,0,0,1,6.57-2Z" transform="translate(-68.52 -115.31)" style="fill:#fe4c00"/><polygon points="71.84 70.02 71.84 70.02 71.84 70.02 71.84 70.02" style="fill:#fe4c00"/><path d="M187.48,154.1a41.31,41.31,0,0,1-7.67,2.62,21.23,21.23,0,0,1-4.21.33c-1.31,0-2.69-.05-4.13-.05a27.09,27.09,0,0,0-4.41.3,12.91,12.91,0,0,0-4.57,1.63,14.17,14.17,0,0,0-3.93,3.67,36.44,36.44,0,0,0-3.41,6.1l-.21.45,8-.22c.13-.24.25-.48.38-.71a12.55,12.55,0,0,1,1.42-2,6.33,6.33,0,0,1,1.46-1.27h0a5.66,5.66,0,0,1,2.07-.71,20.41,20.41,0,0,1,3.22-.2c1.26,0,2.65.05,4.14.05a27.79,27.79,0,0,0,5.61-.47h0a31.1,31.1,0,0,0,3.92-1.07l-.22-.07Z" transform="translate(-68.52 -115.31)" style="fill:#fe4c00"/><path d="M148.05,194.87l4-8.84-2.42-1.1-4-1.84-6.37,14-4,8.71A151.08,151.08,0,0,1,148.05,194.87Z" transform="translate(-68.52 -115.31)" style="fill:#ffd617"/><path d="M263.05,155.45l-16.66-5.81A56.56,56.56,0,0,0,233.64,164c1.79-.07,3.59-.11,5.39-.11h2.43a46.5,46.5,0,0,1,8.5-8.14,6.34,6.34,0,0,1,3.69-1.21,6.23,6.23,0,0,1,5.24,2.88l5.49,8.63a147.49,147.49,0,0,1,17.74,4.2l-.7-14.48-13.76-8.72,3.8-6,10.39,6.61a6.07,6.07,0,0,1,5.46-3.37h0a47.19,47.19,0,0,1,46.86,43.86v.42a6.29,6.29,0,0,1-1.8,4.38,6.16,6.16,0,0,1-2.79,1.62q5,3.79,9.64,8a56.55,56.55,0,0,0,.58-8.12,57.47,57.47,0,0,0-86.16-49.78l11.74,4.09Z" transform="translate(-68.52 -115.31)" style="fill:#fff"/><path d="M289.77,161.1l-1-.65.6,12.22a150.77,150.77,0,0,1,16.44,7,10.13,10.13,0,0,1,3.36-1.81,3.36,3.36,0,0,1,3.39,5.43c2.47,1.42,4.9,2.84,7.28,4.4h7.26a40.1,40.1,0,0,0-38.75-36.32v.37l5.25,3.34Zm12.43,8.82a3.39,3.39,0,1,1,5,4.56l-.14.15c-1.29,1.34-5.32,3.34-6.67,2s.47-5.4,1.79-6.75Zm-6.6-6.33a3.41,3.41,0,0,1,2.84,3.88h0c-.29,1.84-2.45,5.78-4.29,5.49s-2.69-4.7-2.4-6.56A3.39,3.39,0,0,1,295.6,163.59Z" transform="translate(-68.52 -115.31)" style="fill:#fff"/><path d="M291.73,166.41c-.29,1.86.54,6.27,2.39,6.56s4-3.65,4.3-5.49a3.39,3.39,0,0,0-6.69-1.07Z" transform="translate(-68.52 -115.31)" style="fill:#ffd617"/><path d="M307.08,174.63a3.39,3.39,0,1,0-4.74-4.86l-.14.15c-1.29,1.35-3.14,5.45-1.79,6.75S305.79,176,307.08,174.63Z" transform="translate(-68.52 -115.31)" style="fill:#ffd617"/><path d="M313.24,180.39a3.39,3.39,0,0,0-4.09-2.49,10.13,10.13,0,0,0-3.36,1.81c2.29,1.16,4.55,2.36,6.77,3.62A3.35,3.35,0,0,0,313.24,180.39Z" transform="translate(-68.52 -115.31)" style="fill:#ffd617"/><path d="M255.18,164.77l-1.75-2.71a35.34,35.34,0,0,0-2.74,2.29C252.21,164.46,253.7,164.61,255.18,164.77Z" transform="translate(-68.52 -115.31)" style="fill:#fff"/><path d="M340.13,213.14A143.28,143.28,0,0,0,95.77,311.36l286.49-.64A143,143,0,0,0,340.13,213.14ZM164.19,295l-1.59,3.17h0L161,301.29l-5.59-2.79,3.18-6.33Zm-4.46-34.18a17.87,17.87,0,0,0-6.27-1.17,16.8,16.8,0,0,0-5,.77,19.54,19.54,0,0,0-4,1.74,18.9,18.9,0,0,0-3.62,2.67l-1.05-1-4-3.89a22.16,22.16,0,0,1,2.88-2.41,27.08,27.08,0,0,1,7.53-3.8,23.9,23.9,0,0,1,7.31-1.14,24.9,24.9,0,0,1,8.75,1.62,33.81,33.81,0,0,1,9.46,5.58l-4.49,5.48A26.63,26.63,0,0,0,159.73,260.78ZM173,237.52h0l-1.59,3.17-3.59-1.8,3.18-6.33,3.59,1.8L173,237.52Zm128-5.66h0l-1.56-3.18,4.25-2.09,3.13,6.38-4.25,2.09L301,231.88Zm-45.48,31.53,4.1-3.54,4.64,5.35-4.1,3.54-2.33-2.67h0Zm54.37,26.68a26.71,26.71,0,0,0-7.79-1.19A25.84,25.84,0,0,0,291,291.4a21.91,21.91,0,0,0-4.3,2.67l-.9-1L282,288.78a27.77,27.77,0,0,1,5.59-3.57,32.51,32.51,0,0,1,14.51-3.42,34.22,34.22,0,0,1,9.85,1.48,42.65,42.65,0,0,1,10.91,5.17L319,294.37a35.64,35.64,0,0,0-9.08-4.35Zm-43.32-92.32-2.34-2.65h0l-2.35-2.66,3.32-2.93,4.69,5.3Zm-36.83,6.75a25.81,25.81,0,0,1,7.76,1.19,27.63,27.63,0,0,1,8.14,4.16l-4.2,5.67a20.54,20.54,0,0,0-6-3.12,18.85,18.85,0,0,0-5.63-.86,23.43,23.43,0,0,0-9.24,2.06,22.11,22.11,0,0,0-4,2.18h0L215.23,214l-2.83-3.83a29.84,29.84,0,0,1,5-2.84,30.48,30.48,0,0,1,12.31-2.79Zm126,95.62,2.21-6.76,6.78,2.19-1.09,3.37h0l-1.09,3.37Z" transform="translate(-68.52 -115.31)" style="fill:#fff"/><path d="M171.67,259.72a33.58,33.58,0,0,0-9.46-5.58,24.68,24.68,0,0,0-8.75-1.63,24.22,24.22,0,0,0-7.31,1.15,26.81,26.81,0,0,0-7.53,3.8,21.39,21.39,0,0,0-2.88,2.41l4,3.88,1.05,1a18.9,18.9,0,0,1,3.62-2.67,20.1,20.1,0,0,1,4-1.74,17.12,17.12,0,0,1,5-.76,17.65,17.65,0,0,1,6.27,1.17,26.39,26.39,0,0,1,7.45,4.43Z" transform="translate(-68.52 -115.31)" style="fill:#fe4c00"/><path d="M212.35,210.13l2.83,3.83,1.35,1.82h0a22.11,22.11,0,0,1,4-2.18,23.43,23.43,0,0,1,9.24-2.06,18.85,18.85,0,0,1,5.63.86,20.54,20.54,0,0,1,6,3.12l4.21-5.67a27.53,27.53,0,0,0-8.1-4.16,25.2,25.2,0,0,0-7.76-1.19,30.62,30.62,0,0,0-12.38,2.77A29.5,29.5,0,0,0,212.35,210.13Z" transform="translate(-68.52 -115.31)" style="fill:#fe4c00"/><path d="M322.83,288.44a42.44,42.44,0,0,0-10.92-5.19,33.87,33.87,0,0,0-9.84-1.49,32.75,32.75,0,0,0-14.51,3.42,26.85,26.85,0,0,0-5.59,3.58l3.78,4.25.9,1a21.28,21.28,0,0,1,4.31-2.68,25.59,25.59,0,0,1,11.11-2.56,26.76,26.76,0,0,1,7.79,1.19,35.41,35.41,0,0,1,9.1,4.34Z" transform="translate(-68.52 -115.31)" style="fill:#fe4c00"/><polygon points="195.72 149.83 191.08 144.47 186.98 148.04 189.3 150.72 191.62 153.38 195.72 149.83" style="fill:#fe4c00"/><polygon points="115.18 32.4 110.54 27.05 106.44 30.62 108.76 33.3 111.07 35.97 115.18 32.4" style="fill:#fe4c00"/><polygon points="102.49 117.24 99.31 123.57 102.9 125.37 104.49 122.2 106.07 119.03 102.49 117.24" style="fill:#fe4c00"/><polygon points="234.03 119.69 238.28 117.6 235.15 111.25 230.91 113.33 232.47 116.51 234.03 119.69" style="fill:#fe4c00"/><polygon points="90.09 176.86 86.92 183.19 92.5 185.99 94.08 182.82 95.67 179.65 90.09 176.86" style="fill:#fe4c00"/><polygon points="193.35 77.13 195.69 79.78 198.04 82.43 201.35 79.5 196.66 74.2 193.35 77.13" style="fill:#fe4c00"/><polygon points="175.12 13.76 172.15 15.69 169.18 17.61 171.59 21.33 177.53 17.48 175.12 13.76" style="fill:#fe4c00"/><polygon points="295.13 183.61 296.22 180.25 289.44 178.05 287.26 184.79 294.04 186.98 295.13 183.61" style="fill:#fe4c00"/><polygon points="158.04 18.77 142.22 33.47 134.41 40.74 127.72 46.95 132.54 52.14 144.58 40.94 151.03 34.96 162.87 23.95 158.04 18.77" style="fill:#ffd617"/><polygon points="127.41 35.36 127.95 33.58 121.17 31.51 118.96 38.79 116.39 47.22 116.61 47.28 123.16 49.28 124.77 44.01 127.41 35.36" style="fill:#ffd617"/><polygon points="110.61 53.18 94.43 53.62 86.41 53.84 75.28 54.14 75.44 60.25 75.47 61.22 90.7 60.81 110.81 60.27 110.61 53.18" style="fill:#ffd617"/><polygon points="167 30.55 170.13 31.64 177.86 34.34 194.53 40.14 196.86 33.46 185.12 29.36 176.61 26.4 169.33 23.87 167 30.55" style="fill:#ffd617"/><polygon points="199.14 31.74 212.9 40.49 220.22 45.14 221.24 45.8 225.04 39.82 219.79 36.48 213.32 32.37 202.94 25.77 199.14 31.74" style="fill:#ffd617"/></svg>