<svg id="f5200473-a26d-409e-9ec1-c881d3cb1645" data-name="Layer 11" xmlns="http://www.w3.org/2000/svg"
    viewBox="0 0 328.41 331.47">
    <path
        d="M344.54,111.68a55.72,55.72,0,0,1,7.16,8.1,15.12,15.12,0,0,1,1.67-1l-7.76-8.21A10.74,10.74,0,0,1,344.54,111.68Z"
        transform="translate(-70.37 -60.75)" style="fill:#fff" />
    <path
        d="M391.27,173.24a8.93,8.93,0,0,0-1.5-5,9,9,0,0,0-3.89-3.26l-3.82-1.69,2.08-3.62a11.53,11.53,0,0,0,1.5-5.43v-.36a11.62,11.62,0,0,0-10.07-11.51l-4.3-.58,1.24-4.18a10.79,10.79,0,0,0,.43-2.64v-.33A10.73,10.73,0,0,0,362.53,124h-.33a10.64,10.64,0,0,0-6.48,2.21,55.78,55.78,0,0,1,6.76,26.57c0,.75,0,1.5-.05,2.25a16.73,16.73,0,0,1,8.09,13.78,9.91,9.91,0,0,1,1.09,0,10.8,10.8,0,0,1,10.46,11.11,11.49,11.49,0,0,1-.35,2.4h.6a9,9,0,0,0,9-8.72Z"
        transform="translate(-70.37 -60.75)" style="fill:#fff" />
    <polygon points="292.38 55.7 292.39 55.71 292.39 55.71 292.38 55.7" style="fill:#fe4c00" />
    <path
        d="M396,164.13a16.52,16.52,0,0,0-3.84-4.07,19.07,19.07,0,0,0,1-5.56v-.58a19.14,19.14,0,0,0-12.78-18,3.49,3.49,0,0,1,0-.64,2.61,2.61,0,0,0,0-.56,18.26,18.26,0,0,0-17.7-18.24h-1.21l-12-12.77a19.53,19.53,0,0,0,1-5.67V97.4a19.69,19.69,0,0,0-2.36-9.35,19.17,19.17,0,0,0,.75-4.93v-.6a19.85,19.85,0,0,0-19.25-19.83h-.6a19.62,19.62,0,0,0-8.42,1.89,15.87,15.87,0,0,0-3.08-2,16.31,16.31,0,0,0-6.95-1.78h-.5a16.37,16.37,0,0,0-15,9.81h-.88a14,14,0,0,0-14,13.59v.14a8,8,0,0,0,.25,1.95,13.59,13.59,0,0,0,.48,1.57,45.25,45.25,0,0,0-3.63,3L186.78,176l-.17-.18-33.07,31.38-49.6,46.6.19.19L93.2,264.32q-1.53,1.44-2.91,3l-9,8.54h0A35,35,0,0,0,80,325.34h0l53.18,56,2-1.92h0l-2,1.92a35,35,0,0,0,49.46,1.28h0l40-38L377.84,198.47a44.26,44.26,0,0,0,7.34-9,16.46,16.46,0,0,0,13.6-15.73v-.51A16.47,16.47,0,0,0,396,164.13Zm-7.52,15.57a9,9,0,0,1-6.25,2.53h-.59a10.77,10.77,0,0,0-10.11-13.51,9.73,9.73,0,0,0-1.08,0,16.75,16.75,0,0,0-8.09-13.79c0-.75.05-1.5.05-2.25a55.81,55.81,0,0,0-6.76-26.58,10.63,10.63,0,0,1,6.48-2.2h.33a10.73,10.73,0,0,1,10.41,10.73V135a10.71,10.71,0,0,1-.43,2.63l-1.19,4.18,4.31.58a11.64,11.64,0,0,1,10.07,11.51v.36a11.66,11.66,0,0,1-1.51,5.43l-2.08,3.62,3.83,1.69a9,9,0,0,1,3.88,3.26,8.85,8.85,0,0,1,1.5,5v.28a9,9,0,0,1-2.75,6.27ZM138.66,376.13h0l-53.18-56a27.47,27.47,0,0,1,1-38.84l0,0h0l5.17-4.92,163.07,27.4-77.2,73.35a27.48,27.48,0,0,1-38.84-1ZM294.28,78h.23a6.42,6.42,0,0,1,2,.37l4.15,1.5.81-4.33a8.9,8.9,0,0,1,8.74-7.3h.28a8.8,8.8,0,0,1,3.76,1,9,9,0,0,1,2.92,2.38l2.18,2.72,2.87-2a12.26,12.26,0,0,1,6.94-2.14h.37a12.34,12.34,0,0,1,12,12.31v.38a12.49,12.49,0,0,1-.87,4.19l-.76,1.84L341,90.58a12.3,12.3,0,0,1,2.09,6.85v.39a12.19,12.19,0,0,1-3.76,8.47c-.21.21-.44.41-.67.6a54.59,54.59,0,0,0-6.3-3.84,56.55,56.55,0,0,0-14.89-5.26l4-20.5-5.17-1-4,20.71a55.16,55.16,0,0,0-16.07.61A68.22,68.22,0,0,0,288.81,87c-.19-.42-.36-.82-.49-1.16a10.39,10.39,0,0,1-.45-1.29c0-.15-.06-.27-.07-.33A6.5,6.5,0,0,1,294.28,78ZM285,94.24a64.39,64.39,0,0,1,9.92,19,83.55,83.55,0,0,1,4,26.3,118.35,118.35,0,0,1-3.54,27.85,174.27,174.27,0,0,0-33.07,11.11,17.54,17.54,0,0,0-16.64-14.33h-.53a17.52,17.52,0,0,0-17.46,16.57l5.26.26h0a12.28,12.28,0,0,1,12.19-11.62h.36a12.26,12.26,0,0,1,11.79,11.4,221.53,221.53,0,0,0-41.19,26l-24-25.34,90.55-85.13h0C283.33,95.56,284.13,94.89,285,94.24Zm25.8,62,1.66-7.33,25.22,5.69,5.66-.83v1.12a32.89,32.89,0,0,1-1.75,10.59A103.62,103.62,0,0,0,325,164a5.7,5.7,0,0,0,.48-2.15,5.9,5.9,0,0,0-.46-2.45Zm63.13,31.64c-.7.8-1.43,1.57-2.21,2.32h0l-89.63,86.1-23.41-24.65a17.41,17.41,0,0,0,1.9-7.88,17.1,17.1,0,0,0-.45-3.9,17.32,17.32,0,0,0-6.24-9.77,17.36,17.36,0,0,0-14.4-3.38l1.1,5.14h0A12.26,12.26,0,0,1,255,241a11.45,11.45,0,0,1,.32,2.73,12.11,12.11,0,0,1-.59,3.72l-33.46-35.22a212.48,212.48,0,0,1,43.14-26.5c20.68-9.39,41.25-14.22,59.76-14.22a88,88,0,0,1,29.08,4.64,65.32,65.32,0,0,1,20.69,11.69Zm-67-23.15,0,.53c-1.17.16-2.35.34-3.52.54.21-1,.42-2,.62-3A10.7,10.7,0,0,0,306.89,164.7Zm48.05-12A49.37,49.37,0,0,1,352.48,168c-1.17-.36-2.34-.68-3.52-1a40.22,40.22,0,0,0,1.88-12.17c0-1.11,0-2.22-.13-3.34h0a6,6,0,0,0-6-5.49,6.65,6.65,0,0,0-.89.06h0l-23.38,3.45a10.53,10.53,0,0,0-2.81-3.06l10.37-7h-1.13l.25-8.43-10.39,7,1,4.83-4.32.88.69,1a10.81,10.81,0,0,0-2-.33,3.78,3.78,0,0,0,.1-.46l-8.32,1.7-1.51-7.36,9.11-1.86a12.85,12.85,0,0,0,3-7.86,10.75,10.75,0,0,0-.05-1.5,12.8,12.8,0,0,0-.43-2.46,13,13,0,0,0-5.1-7.12l-4,4.95a84.07,84.07,0,0,0-2.18-9.29l4.78-6a41.28,41.28,0,0,0-6.56.63c-.41-1.07-.85-2.14-1.3-3.19a48.48,48.48,0,0,1,29.2,5,48.65,48.65,0,0,1,26.08,43Zm-168.6,33.71,7.06,7.43-.89,91.83-94-15.78Zm14.5,15.26,76.53,80.57-15.83,15L200,287ZM351.7,119.78a55.72,55.72,0,0,0-7.16-8.1,15,15,0,0,0,1.09-1.16l7.74,8.21A15.12,15.12,0,0,0,351.7,119.78Z"
        transform="translate(-70.37 -60.75)" style="fill:#fe4c00" />
    <path
        d="M287.8,84.29c0,.06,0,.17.07.32a10.53,10.53,0,0,0,.45,1.3c.13.34.3.75.49,1.15a68.7,68.7,0,0,1,7.35,10.58,55.16,55.16,0,0,1,16.07-.6l4-20.72,5.17,1-4,20.49a55.85,55.85,0,0,1,14.89,5.26,53.15,53.15,0,0,1,6.3,3.83c.23-.19.46-.38.67-.59a12.23,12.23,0,0,0,3.76-8.48v-.38A12.31,12.31,0,0,0,341,90.6L339.85,89l.76-1.84a12.6,12.6,0,0,0,.87-4.2v-.38a12.34,12.34,0,0,0-12-12.31h-.37a12.26,12.26,0,0,0-6.94,2.14l-2.89,1.94-2.18-2.71a8.85,8.85,0,0,0-6.68-3.35h-.28a8.92,8.92,0,0,0-8.75,7.3l-.8,4.34-4.16-1.51a6.6,6.6,0,0,0-2-.37h-.21a6.5,6.5,0,0,0-6.47,6.24Z"
        transform="translate(-70.37 -60.75)" style="fill:#fff" />
    <polygon points="209.91 23.35 209.91 23.35 209.91 23.35 209.91 23.35" style="fill:#fe4c00" />
    <polygon points="224.33 9.77 224.34 9.77 224.34 9.77 224.33 9.77" style="fill:#fe4c00" />
    <path
        d="M303.41,165.77c1.17-.19,2.35-.37,3.52-.53l0-.53a10.94,10.94,0,0,1-2.86-1.94C303.83,163.77,303.62,164.77,303.41,165.77Z"
        transform="translate(-70.37 -60.75)" style="fill:#fff" />
    <path
        d="M346.69,125.7a48.51,48.51,0,0,0-40.38-21.5,47.63,47.63,0,0,0-6.65.46c.45,1.06.88,2.12,1.29,3.2a40.17,40.17,0,0,1,6.57-.64l.88-1.14,1.42,1.15a41.62,41.62,0,0,1,16.36,4,40.54,40.54,0,0,1,14.64,11.82,6.09,6.09,0,0,1-1.4,8.75h0l-4.9,3.29-.14,4.57-6.38-.19-10.37,7a10.65,10.65,0,0,1,2.81,3.06l23.38-3.45h0a6.8,6.8,0,0,1,.9-.06,6,6,0,0,1,6,5.5h0c.09,1.11.13,2.23.13,3.33A40.28,40.28,0,0,1,349,167c1.18.31,2.36.63,3.52,1A49.26,49.26,0,0,0,355,152.71,48.4,48.4,0,0,0,346.69,125.7Z"
        transform="translate(-70.37 -60.75)" style="fill:#fff" />
    <path d="M312.12,144.41a11.1,11.1,0,0,1,2,.33l-.7-1-1.18.24C312.18,144.11,312.16,144.27,312.12,144.41Z"
        transform="translate(-70.37 -60.75)" style="fill:#fff" />
    <path
        d="M328.33,121.29a33.41,33.41,0,0,0-5.38-3.24,34.1,34.1,0,0,0-11.91-3.2l-2.15,2.68a13,13,0,0,1,5.1,7.12,2.92,2.92,0,0,1,.49,2.2,1.22,1.22,0,0,1-.06.26,10.75,10.75,0,0,1,.05,1.5,12.85,12.85,0,0,1-3,7.86l4.72-1,.52,2.53,10.39-7,.29-9.77Zm-6.52,10.83c-1.08,1.18-4.51,3-5.67,1.9s.3-4.64,1.39-5.83a2.91,2.91,0,1,1,4.41,3.79.86.86,0,0,1-.13.14Z"
        transform="translate(-70.37 -60.75)" style="fill:#fff" />
    <path
        d="M314.27,110.81l-3.24,4a34,34,0,0,1,11.91,3.2,33.41,33.41,0,0,1,5.38,3.24l6.61.2-.41,13.62,4.9-3.29h0a6.09,6.09,0,0,0,1.4-8.75,40.54,40.54,0,0,0-14.64-11.82,41.62,41.62,0,0,0-16.36-4Z"
        transform="translate(-70.37 -60.75)" style="fill:#fe4c00" />
    <path d="M314,124.65a13,13,0,0,1,.44,2.46l.06-.26A3,3,0,0,0,314,124.65Z" transform="translate(-70.37 -60.75)"
        style="fill:#ffd617" />
    <path d="M317.52,128.19c-1.09,1.19-2.58,4.74-1.39,5.83s4.59-.72,5.67-1.9a2.91,2.91,0,0,0-4.15-4.07l-.13.14Z"
        transform="translate(-70.37 -60.75)" style="fill:#ffd617" />
    <path
        d="M340.55,162.93l-7-1.57a2.9,2.9,0,0,1-2.65,1.32c-1.5-.11-4.75-1.5-5-3l-1-.22a5.9,5.9,0,0,1,.46,2.45,5.7,5.7,0,0,1-.48,2.15,104.16,104.16,0,0,1,16.63,1.4,33.2,33.2,0,0,0,1.78-10.59v-1.12l-5.66.83,4.56,1Z"
        transform="translate(-70.37 -60.75)" style="fill:#fff" />
    <path d="M314.27,110.81l-4.45-3.56-1.42-1.17-.88,1.12-4.79,6a86.44,86.44,0,0,1,2.19,9.29l4-4.95,2.15-2.69Z"
        transform="translate(-70.37 -60.75)" style="fill:#ffd617" />
    <path
        d="M282.54,96.31,192,181.44l24,25.34a221.68,221.68,0,0,1,41.21-26,12.27,12.27,0,0,0-11.79-11.39h-.37A12.27,12.27,0,0,0,232.89,181h0l-5.26-.26a17.53,17.53,0,0,1,17.44-16.62h.52a17.57,17.57,0,0,1,16.65,14.34,172.87,172.87,0,0,1,33.07-11.11,118.34,118.34,0,0,0,3.53-27.85,83.64,83.64,0,0,0-4-26.27,64.75,64.75,0,0,0-9.92-19c-.83.66-1.64,1.35-2.42,2.08Zm-22.31,40.17,3.57-8.27,4.83,2.09-3.56,8.26-2.42-1h0Z"
        transform="translate(-70.37 -60.75)" style="fill:#fff" />
    <path
        d="M353.21,176.15a87.69,87.69,0,0,0-29.08-4.63c-18.51,0-39.08,4.82-59.76,14.21a212.57,212.57,0,0,0-43.14,26.52l33.45,35.21a12,12,0,0,0,.59-3.72A11.88,11.88,0,0,0,255,241a12.28,12.28,0,0,0-14.42-9.18h0l-1.09-5.14a17.3,17.3,0,0,1,3.59-.38,17.53,17.53,0,0,1,17,13.52,17.27,17.27,0,0,1-1.45,11.79L282,276.28l89.66-86.11h0c.75-.75,1.5-1.5,2.2-2.32A65.24,65.24,0,0,0,353.21,176.15ZM324.4,192.36l1.3-5.09,9.83,2.51-.65,2.55h0l-.65,2.54Zm-28.07,35.09h0l-.07,2.63-5.13-.15.16-5.26,5.13.15Z"
        transform="translate(-70.37 -60.75)" style="fill:#fff" />
    <polygon points="175.24 103.38 175.24 103.38 175.25 103.38 175.24 103.38" style="fill:#fe4c00" />
    <polygon points="264.51 131.58 265.16 129.03 255.33 126.52 254.03 131.62 263.86 134.13 264.51 131.58"
        style="fill:#fe4c00" />
    <polygon points="198.26 69.53 193.43 67.45 189.86 75.74 192.28 76.78 194.69 77.83 198.26 69.53"
        style="fill:#fe4c00" />
    <polygon points="220.92 163.92 220.76 169.19 225.89 169.34 225.96 166.71 226.04 164.07 220.92 163.92"
        style="fill:#fe4c00" />
    <path
        d="M326,159.64c.23,1.51,3.47,2.93,5,3a2.9,2.9,0,0,0,2.65-1.32l6.94,1.57,1.66-7.33-4.57-1-25.22-5.62-1.66,7.33L325,159.44Z"
        transform="translate(-70.37 -60.75)" style="fill:#ffd617" />
    <polygon
        points="264.15 74.37 264.56 60.74 257.95 60.55 257.04 60.52 256.75 70.28 256.5 78.71 257.63 78.74 264.01 78.94 264.15 74.37"
        style="fill:#ffd617" />
    <polygon
        points="241.12 75.69 232.01 77.55 233.51 84.91 241.84 83.21 243.02 82.97 247.34 82.09 246.36 77.26 245.84 74.73 241.12 75.69"
        style="fill:#ffd617" />
    <polygon points="123.03 133.11 115.97 125.68 28.09 209.16 122.14 224.96 123.03 133.11" style="fill:#fff" />
    <path
        d="M158.59,384.69a27.47,27.47,0,0,0,18.93-7.56l77.2-73.35L91.65,276.38l-5.17,4.92h0a27.48,27.48,0,0,0-1,38.85h0l53.18,56h0a27.44,27.44,0,0,0,19.93,8.56Z"
        transform="translate(-70.37 -60.75)" style="fill:#fff" />
    <polygon points="191.17 236.56 207 221.51 130.47 140.94 129.64 226.22 191.17 236.56" style="fill:#fff" /></svg>