<svg id="a3b7cac9-17c3-44ea-a62d-b141b2073d37" data-name="Layer 6" xmlns="http://www.w3.org/2000/svg" viewBox="0 0 355.64 326.77"><circle cx="179.42" cy="167.21" r="158.37" style="fill:#fff"/><path d="M345.47,86a11,11,0,0,0-4.64,2.23l-15.29,12.64a164,164,0,0,1,63,72.49l13.32-11a10.92,10.92,0,0,0,3.08-4.13,13.9,13.9,0,0,0,1.1-5.51,19.82,19.82,0,0,0-4.72-12.5L362.46,93a20.52,20.52,0,0,0-8.35-6.17A14.94,14.94,0,0,0,345.47,86Z" transform="translate(-60.09 -76.06)" style="fill:none"/><path d="M86.58,297.61l-13,10.73a10,10,0,0,0-2.86,3.91,13.49,13.49,0,0,0-1,5.36,20.48,20.48,0,0,0,4.9,12.48l38.88,47.2a21.36,21.36,0,0,0,8.35,6.27,14.78,14.78,0,0,0,8.41,1,10,10,0,0,0,4.39-2.07l11-9.09A164,164,0,0,1,86.58,297.61Z" transform="translate(-60.09 -76.06)" style="fill:none"/><path d="M254.21,84.93a155.32,155.32,0,1,0,104.92,55.85A155.31,155.31,0,0,0,254.21,84.93Zm73.72,266.21a136.67,136.67,0,0,1-216.47-149,133.15,133.15,0,0,1,215.15-63.13,136.8,136.8,0,0,1,1.32,212.09Z" transform="translate(-60.09 -76.06)" style="fill:#fff"/><path d="M326.61,139.05a133.14,133.14,0,1,1-219.89,87.64,133,133,0,0,1,4.72-24.53,136.69,136.69,0,1,0,235.1-43.43A138.34,138.34,0,0,0,326.61,139.05Z" transform="translate(-60.09 -76.06)" style="fill:#ffd617"/><path d="M136.49,324.15A133.13,133.13,0,0,0,342,154.87h0a133.15,133.15,0,0,0-230.56,47.28,134.54,134.54,0,0,0-4.72,24.53A132.79,132.79,0,0,0,136.49,324.15ZM159.7,142.93a125.12,125.12,0,1,1-45,84.54A125.12,125.12,0,0,1,159.7,142.93Z" transform="translate(-60.09 -76.06)" style="fill:#fe4c00"/><line x1="262.47" y1="27.2" x2="262.47" y2="27.2" style="fill:none"/><path d="M352.9,76.51a23.43,23.43,0,0,0-9.51.08,20.51,20.51,0,0,0-8.67,4.2L316.65,95.65A163.38,163.38,0,0,0,83.24,287.89l-15.8,13a19.82,19.82,0,0,0-5.62,7.62,24.22,24.22,0,0,0-1.21,14,30.92,30.92,0,0,0,6.57,13.7l38.87,47.2a30.07,30.07,0,0,0,16.77,10.47,23.05,23.05,0,0,0,9.36.08,19.7,19.7,0,0,0,8.55-4.06l13.38-11a163.38,163.38,0,0,0,238.3-196.25L408,169.78a20.62,20.62,0,0,0,5.78-7.71,24.52,24.52,0,0,0,1.49-14.13,30.23,30.23,0,0,0-6.5-13.8L369.92,86.93A29.48,29.48,0,0,0,352.9,76.51ZM338,359.4a155.29,155.29,0,1,1,55.85-104.93A155.3,155.3,0,0,1,338,359.4ZM134.61,382.47a9.92,9.92,0,0,1-4.38,2.07,14.78,14.78,0,0,1-8.41-1,21.36,21.36,0,0,1-8.35-6.27l-38.86-47.2a20.48,20.48,0,0,1-4.88-12.48,13.49,13.49,0,0,1,1-5.36,10,10,0,0,1,2.87-3.91l13-10.73a164.12,164.12,0,0,0,59.07,75.77ZM401.35,140.2a19.82,19.82,0,0,1,4.72,12.5,14,14,0,0,1-1.1,5.52,10.88,10.88,0,0,1-3.08,4.12l-13.32,11a164,164,0,0,0-63-72.49l15.29-12.64a11,11,0,0,1,4.64-2.23,14.94,14.94,0,0,1,8.64.88A20.56,20.56,0,0,1,362.48,93Z" transform="translate(-60.09 -76.06)" style="fill:#fe4c00"/><path d="M258.41,270.08a3,3,0,0,0-.67-1.82,2.17,2.17,0,0,0-.41-.39l-3.18,8.52,3.6-4.46A2.91,2.91,0,0,0,258.41,270.08Z" transform="translate(-60.09 -76.06)" style="fill:#fff"/><path d="M242.22,283.51c.21.06.42.14.63.22l7.43-19.86a2.81,2.81,0,0,0,.14-1.49,2.91,2.91,0,0,0-2.23-2.33,2.86,2.86,0,0,0-2.5.59,2.92,2.92,0,0,0-.7.83,3,3,0,0,0-.34,1.08Z" transform="translate(-60.09 -76.06)" style="fill:#fff"/><path d="M242.32,294a3.88,3.88,0,0,0-1.92-2.61l-2.87,5.36c.79.31,1.61.67,2.45,1.07.49.24,1,.51,1.48.79l.8-2.69A3.91,3.91,0,0,0,242.32,294Z" transform="translate(-60.09 -76.06)" style="fill:#fff"/><line x1="140.25" y1="206.12" x2="140.25" y2="206.12" style="fill:none"/><path d="M214.08,302s-10.68,11.89-22.43,7.58c0,0-7,5.66-2.3,8.73s23-5,25.28-9.78S214.08,302,214.08,302Z" transform="translate(-60.09 -76.06)" style="fill:#ffd617"/><path d="M215.63,291.32s-14.52,6.83-21.47-1.62,2.15-29.78,8.85-31.22,9.76,1.27,9.76,1.27Z" transform="translate(-60.09 -76.06)" style="fill:#ffd617"/><path d="M215.66,311.8s-4,17.24-16.72,20.71l12.75,8.5,8.18-14.63.07-14.06Z" transform="translate(-60.09 -76.06)" style="fill:#ffd617"/><path d="M223,312.74s6.91,16,3,23.05,12-13.06,12-13.06l-12.41-12.14Z" transform="translate(-60.09 -76.06)" style="fill:#ffd617"/><path d="M226.81,304.92s11,4.65,13.11,9.36,3.28-12.88,3.28-12.88l-10.32-4.5Z" transform="translate(-60.09 -76.06)" style="fill:#ffd617"/><path d="M190.61,332.42a31.29,31.29,0,0,0,18.59,10.91,29.39,29.39,0,0,0,33.41-20.57l7.31-24.53a12,12,0,0,0,.44-4.46L264,277h0a10.92,10.92,0,0,0-6.05-17.52,10.93,10.93,0,0,0-13-7.23,11.12,11.12,0,0,0-4.34,2.18,11,11,0,0,0-3.9,7.16l-3,25.28-11.68,21.82-.1.26-.1.14-.14.06h-.16a3.25,3.25,0,0,1-2.23-2.82L215.13,255l-7.46-1.6h0a10,10,0,0,0-4.94.23,12.6,12.6,0,0,0-4.29,2.36A21.41,21.41,0,0,0,194,261.2a46,46,0,0,0-4.89,11.69,91,91,0,0,0-2.9,15.95l-2.49,19.71a31.26,31.26,0,0,0,6.9,23.86Zm54.39-71a3,3,0,0,1,.7-.84,2.88,2.88,0,0,1,2.51-.59,2.93,2.93,0,0,1,2.23,2.33,2.8,2.8,0,0,1-.14,1.49l-7.44,19.86-.63-.22,2.43-20.93a3.05,3.05,0,0,1,.34-1.11ZM233.73,303.9l.9.35a23.15,23.15,0,0,1,2.89,1.37,8.08,8.08,0,0,1,1.49,1.1l-2.44,8.18-.19-.25a27.75,27.75,0,0,0-5.69-5.13Zm-38.79,20.83.82-.13a33,33,0,0,0,15.45-7.14,37.53,37.53,0,0,0,3.55-3.36,11,11,0,0,0,2,1.55,26.76,26.76,0,0,1-.22,6.26,22,22,0,0,1-3.47,8.92,21.22,21.22,0,0,1-3.81,4.33,23.22,23.22,0,0,1-12.44-7.8,24.14,24.14,0,0,1-1.86-2.64Zm24.87,10.4a28.33,28.33,0,0,0,1.84-3.21,30.33,30.33,0,0,0,2.77-8.71,33.62,33.62,0,0,0,.39-6.65,6.94,6.94,0,0,0,1.13-.55h0a20.09,20.09,0,0,1,4.25,3.77,10.7,10.7,0,0,1,1.89,3.16,7.74,7.74,0,0,1,.52,2.73A21.36,21.36,0,0,1,220,335.08Zm34.34-58.72,3.18-8.52a2.54,2.54,0,0,1,.41.39,3,3,0,0,1,.67,1.82,2.86,2.86,0,0,1-.66,1.86Zm-62.5,33.17.64-5.05a25.19,25.19,0,0,0,8.38,1.87,22.71,22.71,0,0,0,8-1.07,24.28,24.28,0,0,0,2.49-1l.12,1.42a31,31,0,0,1-5.2,5.53,24.91,24.91,0,0,1-11.71,5.43,21.18,21.18,0,0,1-2.51.28,23.58,23.58,0,0,1-.23-7.45Zm16-48.05,2.77,34a16.14,16.14,0,0,1-6.05,2.56,15,15,0,0,1-5,.09,18.62,18.62,0,0,1-5.81-1.9,1.3,1.3,0,0,1-.26-.14l.81-6.42v-.06A74.3,74.3,0,0,1,198,271.29a32.32,32.32,0,0,1,2.78-5.85,13.59,13.59,0,0,1,2.73-3.31,4.61,4.61,0,0,1,1.49-.89,2,2,0,0,1,1-.06l.82-3.91-.82,3.91Z" transform="translate(-60.09 -76.06)" style="fill:#fe4c00"/><polygon points="137.46 205.85 140.25 206.12 143.04 206.39 143.43 202.37 137.85 201.83 137.46 205.85" style="fill:#fe4c00"/><path d="M267.27,169.75s10.68-11.89,22.43-7.57c0,0,7-5.66,2.3-8.74s-23,5-25.28,9.79S267.27,169.75,267.27,169.75Z" transform="translate(-60.09 -76.06)" style="fill:#ffd617"/><path d="M265.72,180.41s14.53-6.83,21.47,1.62-2.14,29.78-8.85,31.22-9.76-1.25-9.76-1.25Z" transform="translate(-60.09 -76.06)" style="fill:#ffd617"/><path d="M265.69,160s4-17.24,16.72-20.72l-12.75-8.49-8.18,14.63-.07,14.05Z" transform="translate(-60.09 -76.06)" style="fill:#ffd617"/><path d="M258.41,159s-6.92-16-3-23.05S243.35,149,243.35,149l12.41,12.14Z" transform="translate(-60.09 -76.06)" style="fill:#ffd617"/><path d="M254.54,166.84s-11-4.66-13.11-9.36-3.28,12.89-3.28,12.89l10.33,4.46Z" transform="translate(-60.09 -76.06)" style="fill:#ffd617"/><path d="M290.74,139.32a31.35,31.35,0,0,0-18.58-10.91A29.39,29.39,0,0,0,238.75,149l-7.31,24.53a12.18,12.18,0,0,0-.44,4.46l-13.61,16.77h0A10.91,10.91,0,0,0,219,210.06a12.7,12.7,0,0,0,1.19.84,10.67,10.67,0,0,0,3.26,1.33,10.92,10.92,0,0,0,21.22-2.12l3-25.28L259.3,163l.1-.26.1-.13.15-.07h.15a3.2,3.2,0,0,1,1.49,1,3.37,3.37,0,0,1,.74,1.81l4.18,51.38,7.5,1.58h0a10,10,0,0,0,5-.23,12.76,12.76,0,0,0,4.28-2.37,21.37,21.37,0,0,0,4.46-5.25,46.12,46.12,0,0,0,4.92-11.7,88.88,88.88,0,0,0,2.9-15.94l2.4-19.65a31.4,31.4,0,0,0-6.88-23.86Zm-54.39,71a3,3,0,0,1-.7.84,2.86,2.86,0,0,1-2.5.59,2.8,2.8,0,0,1-1.59-1,2.85,2.85,0,0,1-.63-1.35,3,3,0,0,1,.14-1.53L238.51,188a5.83,5.83,0,0,0,.63.22l-2.48,21A3,3,0,0,1,236.35,210.29Zm11.28-42.45-.91-.35a20.63,20.63,0,0,1-2.89-1.37,8.08,8.08,0,0,1-1.49-1.1l2.44-8.18.19.25a27.27,27.27,0,0,0,5.7,5.13ZM286.41,147l-.81.13a33,33,0,0,0-15.49,7.14,36.25,36.25,0,0,0-3.54,3.36,11.44,11.44,0,0,0-2-1.55,26.76,26.76,0,0,1,.23-6.26,22.17,22.17,0,0,1,3.46-8.92,21.26,21.26,0,0,1,3.81-4.33,23.24,23.24,0,0,1,12.45,7.8A24.59,24.59,0,0,1,286.41,147Zm-24.86-10.4a26.19,26.19,0,0,0-1.85,3.21,30.39,30.39,0,0,0-2.77,8.72,33.42,33.42,0,0,0-.38,6.63,9.07,9.07,0,0,0-1.13.55h0a19.83,19.83,0,0,1-4.26-3.76,11.15,11.15,0,0,1-1.89-3.16,7.73,7.73,0,0,1-.51-2.73,21.34,21.34,0,0,1,12.63-9.41Zm-34.34,58.72L224,203.87a2.78,2.78,0,0,1-1.08-2.21,3,3,0,0,1,.66-1.87Zm62.49-33.14-.64,5.05a25.14,25.14,0,0,0-8.38-1.87,22.75,22.75,0,0,0-8,1.09,20.36,20.36,0,0,0-2.49,1l-.12-1.42a31.43,31.43,0,0,1,5.21-5.54A24.9,24.9,0,0,1,287,155.05a20.3,20.3,0,0,1,2.47-.29A23.46,23.46,0,0,1,289.7,162.19Zm-16.05,48-2.79-34.05a16,16,0,0,1,6-2.56,15,15,0,0,1,5-.09,18.76,18.76,0,0,1,5.82,1.9l.26.14-.77,6.42V182a74.82,74.82,0,0,1-3.87,18.42,32.32,32.32,0,0,1-2.78,5.85,13.58,13.58,0,0,1-2.74,3.3,4.6,4.6,0,0,1-1.48.9,1.88,1.88,0,0,1-1,.05l-.83,3.91.83-3.91Z" transform="translate(-60.09 -76.06)" style="fill:#fe4c00"/><polygon points="223.72 113.76 220.93 113.5 218.13 113.22 217.75 117.24 223.32 117.78 223.72 113.76" style="fill:#fe4c00"/><path d="M206.18,222.19a14.28,14.28,0,0,0-7.26-10.05L167,194.84a19.62,19.62,0,0,0-11.54-2.28,19.81,19.81,0,0,0-13.14,32.33,19.61,19.61,0,0,0,11.39,6.81l35.64,7.06a14.3,14.3,0,0,0,16.79-11.27A14.1,14.1,0,0,0,206.18,222.19Zm-5.08,2.05a10.64,10.64,0,0,1-.62,3.49,11,11,0,0,1-3.42,4.77,15,15,0,0,1-4.78,2.57,21.46,21.46,0,0,1-5.56,1,31.72,31.72,0,0,1-12.43-2,34.3,34.3,0,0,1-7.35-3.72,25.94,25.94,0,0,1-5.58-5,18.23,18.23,0,0,1-2.73-4.46,12.65,12.65,0,0,1-1-5,10.4,10.4,0,0,1,.63-3.49h0a11,11,0,0,1,3.42-4.77,14.71,14.71,0,0,1,4.77-2.57,21.46,21.46,0,0,1,5.56-1A31.67,31.67,0,0,1,184.41,206a33.62,33.62,0,0,1,7.35,3.72,26,26,0,0,1,5.59,5,17.9,17.9,0,0,1,2.72,4.46,12.34,12.34,0,0,1,1.05,5Z" transform="translate(-60.09 -76.06)" style="fill:#fff"/><path d="M187.79,246.59a22.3,22.3,0,0,0,25.32-14.31l-3.77-1.36,3.77,1.36a22.29,22.29,0,0,0-10.35-27.18l-31.92-17.3a27.8,27.8,0,1,0-18.66,51.7Zm17.79-17a14.3,14.3,0,0,1-16.23,9.2l-35.62-7.08a19.59,19.59,0,0,1-11.39-6.8,19.85,19.85,0,0,1,13.14-32.34A19.62,19.62,0,0,1,167,194.83l31.92,17.29a14.3,14.3,0,0,1,6.64,17.43Z" transform="translate(-60.09 -76.06)" style="fill:#fe4c00"/><path d="M193.12,224.13A3.73,3.73,0,0,0,193,223a8.67,8.67,0,0,0-1.76-3.13,18,18,0,0,0-3.87-3.42,25.76,25.76,0,0,0-5.6-2.81,25.32,25.32,0,0,0-7.14-1.49,15.23,15.23,0,0,0-5.61.63,7,7,0,0,0-2.23,1.14,3,3,0,0,0-1,1.31h0a2.91,2.91,0,0,0-.16.88,4.57,4.57,0,0,0,.17,1.15,8.93,8.93,0,0,0,1.76,3.12,18.6,18.6,0,0,0,3.87,3.43A26.06,26.06,0,0,0,177,226.6a25.59,25.59,0,0,0,7.13,1.48,15.42,15.42,0,0,0,5.61-.62,6.76,6.76,0,0,0,2.23-1.15,2.9,2.9,0,0,0,1-1.3A2.42,2.42,0,0,0,193.12,224.13Z" transform="translate(-60.09 -76.06)" style="fill:#ffd617"/><path d="M191.79,209.77a33.26,33.26,0,0,0-7.36-3.72A31.57,31.57,0,0,0,172,204.13a22.33,22.33,0,0,0-5.56,1,14.73,14.73,0,0,0-4.77,2.58,11,11,0,0,0-3.42,4.77h0a10.34,10.34,0,0,0-.63,3.48,12.62,12.62,0,0,0,1,5,17.87,17.87,0,0,0,2.73,4.46,25.68,25.68,0,0,0,5.58,5,33.41,33.41,0,0,0,7.35,3.72,31.73,31.73,0,0,0,12.43,2,22.33,22.33,0,0,0,5.56-1,14.78,14.78,0,0,0,4.78-2.58,11,11,0,0,0,3.42-4.77,10.64,10.64,0,0,0,.62-3.49,12.52,12.52,0,0,0-1-5,17.9,17.9,0,0,0-2.72-4.46A26.52,26.52,0,0,0,191.79,209.77Zm-2,17.68a15.45,15.45,0,0,1-5.61.63,25.6,25.6,0,0,1-7.13-1.49,26.06,26.06,0,0,1-5.61-2.81,18.32,18.32,0,0,1-3.87-3.43,8.93,8.93,0,0,1-1.76-3.12,4.44,4.44,0,0,1-.17-1.15,2.91,2.91,0,0,1,.16-.88h0a3,3,0,0,1,1-1.31,6.93,6.93,0,0,1,2.23-1.14,15.45,15.45,0,0,1,5.61-.63,25.32,25.32,0,0,1,7.14,1.49,26.22,26.22,0,0,1,5.6,2.81,17.81,17.81,0,0,1,3.87,3.43A8.59,8.59,0,0,1,193,223a4,4,0,0,1,.17,1.14,2.5,2.5,0,0,1-.16.89,3,3,0,0,1-1,1.3,7,7,0,0,1-2.24,1.16Z" transform="translate(-60.09 -76.06)" style="fill:#fe4c00"/><path d="M277.47,252.56a14.25,14.25,0,0,0,7.27,10.05l31.91,17.3a19.6,19.6,0,0,0,11.55,2.29,20.15,20.15,0,0,0,10.5-4.42,19.79,19.79,0,0,0,2.65-27.87,19.65,19.65,0,0,0-11.4-6.8L294.33,236a14.29,14.29,0,0,0-16.23,9.17l-3.76-1.37,3.76,1.37A14.28,14.28,0,0,0,277.47,252.56Zm5.09-2a10.46,10.46,0,0,1,.63-3.5,11.13,11.13,0,0,1,3.41-4.77,14.73,14.73,0,0,1,4.78-2.56,21.06,21.06,0,0,1,5.56-1,31.68,31.68,0,0,1,12.42,2,33,33,0,0,1,7.35,3.72,25.76,25.76,0,0,1,5.59,5,17.54,17.54,0,0,1,2.72,4.46,12.49,12.49,0,0,1,1,5,10.65,10.65,0,0,1-.63,3.49,11,11,0,0,1-3.42,4.77,14.62,14.62,0,0,1-4.77,2.57,21.9,21.9,0,0,1-5.56,1,31.83,31.83,0,0,1-12.42-2l1.36-3.77-1.36,3.77a33.66,33.66,0,0,1-7.36-3.71,25.94,25.94,0,0,1-5.58-5,17.87,17.87,0,0,1-2.73-4.46A12.66,12.66,0,0,1,282.56,250.52Z" transform="translate(-60.09 -76.06)" style="fill:#fff"/><path d="M295.89,228.16a22.3,22.3,0,0,0-25.32,14.31h0a22.3,22.3,0,0,0,10.35,27.18L312.84,287a27.81,27.81,0,0,0,31-3,27.79,27.79,0,0,0-12.27-48.69Zm-17.79,17A14.3,14.3,0,0,1,294.33,236L330,243.1a19.66,19.66,0,0,1,11.4,6.81,19.81,19.81,0,0,1-13.15,32.3,19.75,19.75,0,0,1-11.55-2.29l-31.91-17.3a14.29,14.29,0,0,1-6.64-17.42l-3.76-1.37Z" transform="translate(-60.09 -76.06)" style="fill:#fe4c00"/><path d="M309.1,262.63a15.44,15.44,0,0,0,5.61-.62,7.25,7.25,0,0,0,2.23-1.14,3.1,3.1,0,0,0,1-1.32,2.92,2.92,0,0,0,.16-.89,4.43,4.43,0,0,0-.17-1.14,8.93,8.93,0,0,0-1.76-3.12,18.07,18.07,0,0,0-3.87-3.43,26.06,26.06,0,0,0-5.61-2.81,25.18,25.18,0,0,0-7.13-1.49,15.44,15.44,0,0,0-5.61.62,6.76,6.76,0,0,0-2.23,1.15,3.07,3.07,0,0,0-1,1.31,3,3,0,0,0-.16.89,4,4,0,0,0,.17,1.14,9,9,0,0,0,1.76,3.13,18,18,0,0,0,3.87,3.42,25.32,25.32,0,0,0,5.6,2.81h0A24.91,24.91,0,0,0,309.1,262.63Z" transform="translate(-60.09 -76.06)" style="fill:#ffd617"/><path d="M286.31,260a26.16,26.16,0,0,0,5.58,5,34.14,34.14,0,0,0,7.36,3.72l1.36-3.77-1.36,3.77a31.83,31.83,0,0,0,12.42,1.95,21.06,21.06,0,0,0,5.56-1,14.78,14.78,0,0,0,4.77-2.56,11,11,0,0,0,3.42-4.77,10.76,10.76,0,0,0,.63-3.5,12.65,12.65,0,0,0-1-5,18,18,0,0,0-2.73-4.46,25.76,25.76,0,0,0-5.59-5,33.4,33.4,0,0,0-7.35-3.72,31.86,31.86,0,0,0-12.42-2,21.47,21.47,0,0,0-5.56,1,14.73,14.73,0,0,0-4.78,2.56,11.1,11.1,0,0,0-3.41,4.78,10.4,10.4,0,0,0-.63,3.49,12.65,12.65,0,0,0,1,5A18.17,18.17,0,0,0,286.31,260Zm10.05-1.68a18,18,0,0,1-3.87-3.42,9,9,0,0,1-1.76-3.13,4,4,0,0,1-.17-1.14,2.87,2.87,0,0,1,1.11-2.21,6.76,6.76,0,0,1,2.23-1.15,15.42,15.42,0,0,1,5.61-.62,24.91,24.91,0,0,1,7.13,1.49,25.61,25.61,0,0,1,5.61,2.81,17.81,17.81,0,0,1,3.87,3.43,8.93,8.93,0,0,1,1.76,3.12,4,4,0,0,1,.16,1.14,2.73,2.73,0,0,1-.15.89,3,3,0,0,1-1,1.31,7.05,7.05,0,0,1-2.23,1.15,15.36,15.36,0,0,1-5.6.62,25.23,25.23,0,0,1-7.14-1.48h0A25.84,25.84,0,0,1,296.36,258.32Z" transform="translate(-60.09 -76.06)" style="fill:#fe4c00"/><path d="M177.08,260.32a4.19,4.19,0,1,0,5.9.57h0A4.19,4.19,0,0,0,177.08,260.32Z" transform="translate(-60.09 -76.06)" style="fill:#fff"/><path d="M172.8,269.24a9,9,0,1,0,1.25-12.66l0,0A9,9,0,0,0,172.8,269.24Zm9.6-2.47a4.19,4.19,0,1,1,.56-5.9,4.19,4.19,0,0,1-.56,5.9Z" transform="translate(-60.09 -76.06)" style="fill:#fe4c00"/><path d="M312.35,222.75a5,5,0,1,0-7.08-.69h0a5,5,0,0,0,7.08.69Z" transform="translate(-60.09 -76.06)" style="fill:#ffd617"/><path d="M316.74,212.61a9.83,9.83,0,1,0-1.33,13.85A9.83,9.83,0,0,0,316.74,212.61ZM306,215a5,5,0,1,1-.69,7.08A5,5,0,0,1,306,215Z" transform="translate(-60.09 -76.06)" style="fill:#fe4c00"/><path d="M279.12,326.16a4.19,4.19,0,1,0,5.9.58h0A4.2,4.2,0,0,0,279.12,326.16Z" transform="translate(-60.09 -76.06)" style="fill:#fff"/><path d="M276.06,322.45a9,9,0,1,0,12.67,1.27l0,0A9,9,0,0,0,276.06,322.45Zm8.39,10.19a4.19,4.19,0,1,1,.56-5.91,4.2,4.2,0,0,1-.56,5.91Z" transform="translate(-60.09 -76.06)" style="fill:#fe4c00"/><line x1="132.67" y1="89.86" x2="132.67" y2="89.86" style="fill:none"/><polygon points="132.67 89.86 133.06 85.87 125.97 85.19 125.21 93.16 132.28 93.84 132.67 89.86" style="fill:#fe4c00"/><line x1="87.52" y1="211.77" x2="87.52" y2="211.77" style="fill:none"/><polygon points="87.53 211.77 91.5 212.15 92.65 200.35 84.68 199.58 83.53 211.39 87.53 211.77" style="fill:#fe4c00"/><polygon points="275.07 120.3 277.34 117.01 267.29 110.08 262.74 116.68 272.79 123.6 275.07 120.3" style="fill:#fe4c00"/><polygon points="219.64 229.44 228.24 226.69 227.03 222.88 225.81 219.07 217.21 221.81 219.64 229.44" style="fill:#fe4c00"/></svg>