<svg id="Layer_1" data-name="Layer 1" xmlns="http://www.w3.org/2000/svg" viewBox="0 0 817 656"><defs><style>.cls-1{fill:#fcf2db;}.cls-2{fill:#f9ebcf;}.cls-10,.cls-13,.cls-18,.cls-21,.cls-23,.cls-26,.cls-3,.cls-31,.cls-34,.cls-38,.cls-39,.cls-41,.cls-43,.cls-44,.cls-7{fill:none;}.cls-3{stroke:#f9daa7;}.cls-10,.cls-13,.cls-18,.cls-20,.cls-21,.cls-23,.cls-26,.cls-3,.cls-31,.cls-34,.cls-38,.cls-39,.cls-41,.cls-43,.cls-44,.cls-7{stroke-miterlimit:10;}.cls-3,.cls-41,.cls-44{stroke-width:4px;}.cls-4{fill:#ffeec4;}.cls-5{fill:#fcbd4d;}.cls-6{fill:#ffe1a6;}.cls-7{stroke:#f9bc50;stroke-width:23px;}.cls-8{fill:#fc6;}.cls-9{fill:#fe4c00;}.cls-10,.cls-21{stroke:#fe4c00;}.cls-11{fill:#fce68d;}.cls-12{fill:#4e908e;}.cls-13{stroke:#4f3102;stroke-width:7px;}.cls-13,.cls-23,.cls-31,.cls-38,.cls-39,.cls-41,.cls-44{stroke-linecap:round;}.cls-14{fill:#f2af41;}.cls-15{fill:#4f3102;}.cls-16{fill:#966502;}.cls-17{fill:#d08e00;}.cls-18,.cls-20{stroke:#966502;}.cls-19{fill:#ffe499;}.cls-20{fill:#4c3204;}.cls-21{stroke-width:34px;}.cls-22{fill:#f9bc50;}.cls-23{stroke:#eaa434;}.cls-24{fill:#edb84f;}.cls-25{fill:#e0a844;}.cls-26{stroke:#c68926;}.cls-27{fill:#c68926;}.cls-28{fill:#ff9100;}.cls-29{fill:#dd7003;}.cls-30{fill:#97ca67;}.cls-31{stroke:#fcaa47;stroke-width:8px;}.cls-32{fill:#5b3103;}.cls-33{fill:#ffd505;}.cls-34{stroke:#ff9100;stroke-width:24px;}.cls-35{fill:#101d23;}.cls-36{fill:#ef8818;}.cls-37{fill:#ffab50;}.cls-38{stroke:#1f3440;stroke-width:9px;}.cls-39{stroke:#824610;stroke-width:13px;}.cls-40{opacity:0.31;}.cls-41{stroke:#fff;}.cls-42{opacity:0.34;}.cls-43{stroke:#e87105;}.cls-44{stroke:#ffd505;}</style></defs><title>looking</title><path class="cls-1" d="M291.61,105.17,268,146V97a51.19,51.19,0,0,1-16.58-17.9,65.71,65.71,0,0,1-48.6,22.9V214.23l-41.61-96.34a65.52,65.52,0,0,1-16.1,7.49L202.86,259V619.8H268V181.5l45.84-79.39A50.64,50.64,0,0,1,296,105.36C294.5,105.36,293.05,105.29,291.61,105.17Z"/><rect class="cls-2" x="216.16" y="456.19" width="3.1" height="129.03"/><rect class="cls-2" x="233.32" y="383.81" width="3.1" height="87.77"/><rect class="cls-2" x="241.38" y="432.69" width="3.1" height="54.59"/><rect class="cls-2" x="246.54" y="119.44" width="3.1" height="129.03"/><path class="cls-3" d="M345.25,67.14a50.87,50.87,0,0,1-93.79,12,65.81,65.81,0,0,1-70.75,19.56A65.85,65.85,0,0,1,61.21,75.73H37.48"/><path class="cls-4" d="M538.15,113.73l42.72,99.13V94.65a60.63,60.63,0,0,0,6.35,1.13,89.9,89.9,0,0,0,61.1,41V617.62H580.87V263L518.75,118.91A60.13,60.13,0,0,0,538.15,113.73Z"/><path class="cls-5" d="M548.16,110.2a62.39,62.39,0,0,1-93.69-30.08l1.71-.63.47,1.76a57.23,57.23,0,0,1-14.79,2,56.82,56.82,0,0,1-26.74-6.64l1.71-3.21a53.26,53.26,0,0,0,25,6.21,53.62,53.62,0,0,0,13.85-1.82l1.61-.43.57,1.56a58.76,58.76,0,0,0,88.22,28.33l2,3Z"/><path class="cls-5" d="M793.27,93a63.93,63.93,0,0,1-79,30.59l.64-1.7,1,1.49A91.67,91.67,0,0,1,585.68,96.74l1.54-1L587,97.59a63.2,63.2,0,0,1-22.35-7.12l1.73-3.2A59.65,59.65,0,0,0,587.44,94l.87.1.45.74a88,88,0,0,0,125.14,25.6l.78-.55.9.33A60.3,60.3,0,0,0,790,91.35L793.27,93Z"/><path class="cls-5" d="M653.23,44A14.44,14.44,0,0,0,672,51.43l1.85-.77.59,1.92a18.55,18.55,0,0,0,36.28-5.44V45.33h21.51V49H712.52V47.14h1.81a22.18,22.18,0,0,1-43.39,6.5l1.74-.53.7,1.68a18.08,18.08,0,0,1-23.48-9.37L653.23,44Z"/><path class="cls-6" d="M597.62,299.64a8.7,8.7,0,0,1,3.94-4.29A11.67,11.67,0,0,1,607.1,294a13.22,13.22,0,0,1,8.28,2.86,19.67,19.67,0,0,1,5.45,7.68,49.42,49.42,0,0,1,2.57,8.81,141.88,141.88,0,0,1,3.44,29.26c0,11.07-1.79,22.06-6.49,32.2-1.44,3.09-3.26,6.33-6.28,8.64a11.88,11.88,0,0,1-7,2.45,9.11,9.11,0,0,1-4.2-1,10.58,10.58,0,0,1-3.66-3.35,20.73,20.73,0,0,1-2.13-4,37.49,37.49,0,0,1-2.59-10.68q-.68-6.83-.67-13.69a138.91,138.91,0,0,1,1.28-18.9c.72-5.28,1.84-10.84,4.45-15.71a7.45,7.45,0,0,1,6.59-3.94,7.35,7.35,0,0,1,5.87,2.89c2.85,3.74,4.13,8.73,4.62,13.21a83.53,83.53,0,0,1,.48,8.94,84.48,84.48,0,0,1-3,22.14,5.58,5.58,0,0,1-1.36,2.4,5,5,0,0,1-2.5,1.44,5,5,0,0,1-1.08.12,4.24,4.24,0,0,1-2.27-.64,5.8,5.8,0,0,1-2-2.29,11.06,11.06,0,0,1-.91-2.53,40,40,0,0,1-1.07-9.24,40.36,40.36,0,0,1,.33-5.15l3.61.46a35.18,35.18,0,0,0-.31,4.69,36.53,36.53,0,0,0,1,8.4,6.26,6.26,0,0,0,.85,2.1,1.62,1.62,0,0,0,.45.46l.35.1.27,0a1.43,1.43,0,0,0,.69-.41,2,2,0,0,0,.47-.84A81.09,81.09,0,0,0,613,331.11c-.42-4.06-1.68-8.54-3.89-11.38a3.68,3.68,0,0,0-3-1.47,3.78,3.78,0,0,0-3.38,2c-2.28,4.22-3.37,9.37-4.06,14.48a136.54,136.54,0,0,0-1.25,18.41q0,6.68.66,13.33a34.21,34.21,0,0,0,2.33,9.66,17.25,17.25,0,0,0,1.75,3.33,6.9,6.9,0,0,0,2.37,2.22,5.42,5.42,0,0,0,2.51.58,8.24,8.24,0,0,0,4.83-1.71c2.24-1.69,3.84-4.37,5.18-7.27,4.43-9.54,6.15-20,6.15-30.67a137.37,137.37,0,0,0-3.36-28.5,45.77,45.77,0,0,0-2.36-8.15,16,16,0,0,0-4.42-6.29,9.48,9.48,0,0,0-6-2,8.14,8.14,0,0,0-3.81.88,5,5,0,0,0-2.31,2.5l-3.36-1.41Z"/><path class="cls-6" d="M635.63,334.61v-23.3a26.38,26.38,0,0,0-10.54-21.08,30,30,0,0,1-12-24V197.37h3.63v68.88a26.34,26.34,0,0,0,10.54,21.07,30,30,0,0,1,12,24v23.3Z"/><path class="cls-6" d="M639.27,356.14v23.3a30,30,0,0,1-12,24,26.38,26.38,0,0,0-10.54,21.08v21H613.1v-21a30,30,0,0,1,12-24,26.34,26.34,0,0,0,10.54-21.07v-23.3Z"/><path class="cls-6" d="M583.4,334.61V308.15a32.38,32.38,0,0,1,7.32-20.52,28.81,28.81,0,0,0,6.5-18.22V218.88h3.64v50.53a32.44,32.44,0,0,1-7.32,20.52A28.76,28.76,0,0,0,587,308.15v26.46Z"/><polyline class="cls-6" points="616.73 461.09 616.73 555.31 613.1 555.31 613.1 461.09"/><polyline class="cls-6" points="634.14 532.27 634.14 573.09 630.51 573.09 630.51 532.27"/><polyline class="cls-6" points="590.62 420.64 590.62 470.63 586.98 470.63 586.98 420.64"/><polyline class="cls-6" points="634.66 155.38 634.66 222.47 631.02 222.47 631.02 155.38"/><path class="cls-7" d="M289.87,438.41s-49.6-38.87-39.53-112.85"/><rect class="cls-8" x="312.1" y="396.78" width="42.77" height="36.84" transform="translate(-64.62 61.48) rotate(-9.61)"/><path class="cls-8" d="M336.12,405,324,407a45.32,45.32,0,0,1-50.85-31.27l-13.19-42.57c-11.9-38.43,7.18-79.69,43.28-85.8h0c36.1-6.11,67.69,26.57,69.1,66.78l1.56,44.54A45.33,45.33,0,0,1,336.12,405Z"/><polygon class="cls-9" points="307.31 513.97 390.23 499.93 356.96 421.89 311.16 429.64 307.31 513.97"/><line class="cls-10" x1="362.18" y1="453.3" x2="355.73" y2="454.39"/><rect class="cls-9" x="304.52" y="409.67" width="55.25" height="17.55" rx="8.77" transform="translate(-65.18 61.3) rotate(-9.61)"/><circle class="cls-11" cx="347.18" cy="342.83" r="4.19"/><path class="cls-12" d="M327.54,506.38H377.1a16.42,16.42,0,0,1,16.42,16.42v15.42a0,0,0,0,1,0,0h-84a0,0,0,0,1,0,0V524.4A18,18,0,0,1,327.54,506.38Z" transform="translate(788.94 975.08) rotate(169.93)"/><line class="cls-13" x1="282.05" y1="332.63" x2="283.16" y2="337.54"/><line class="cls-13" x1="316.62" y1="325.86" x2="317.73" y2="330.76"/><path class="cls-14" d="M257.7,295.93a75.73,75.73,0,0,0-1.3,14.36L370,298a77.58,77.58,0,0,0-4.79-13.7Z"/><rect class="cls-15" x="300.9" y="356.78" width="13.94" height="21.5" rx="6.97" transform="translate(-79.55 85.1) rotate(-13.96)"/><path class="cls-16" d="M305.93,232.77l-6.39.65a4.14,4.14,0,0,1-4.66-3.35h0a3.94,3.94,0,0,1,3.72-4.21l6.39-.65a4.15,4.15,0,0,1,4.65,3.36h0A3.92,3.92,0,0,1,305.93,232.77Z"/><path class="cls-17" d="M365.45,280.47l-108.58,11-1.62-13.06c-3-24.52,16.69-46.84,43.85-49.59l9.81-1c27.16-2.74,51.87,15.07,54.92,39.6Z"/><path class="cls-18" d="M299.22,228.28s-21.91,15-19.08,51.51"/><path class="cls-18" d="M304.75,227.77s25,10.27,31.22,46.42"/><rect class="cls-19" x="255.68" y="272.93" width="110.6" height="20.8" transform="translate(-28.78 35.25) rotate(-6.2)"/><rect class="cls-17" x="229.64" y="284.37" width="162.81" height="14.14" rx="6.43" transform="translate(-29.62 35.24) rotate(-6.19)"/><circle class="cls-20" cx="330.39" cy="266.98" r="1.27"/><circle class="cls-20" cx="324.63" cy="267.7" r="1.27"/><path class="cls-21" d="M354.07,438.12s29.63.87,41.25,29.05"/><path class="cls-21" d="M324.82,442.86s-33.31,10.08-48.8-20.52"/><path class="cls-22" d="M256.34,306.27h18.24a9.09,9.09,0,0,1,9.09,9.09v0A14.72,14.72,0,0,1,269,330.07H237.75a0,0,0,0,1,0,0v-5.21a18.6,18.6,0,0,1,18.6-18.6Z" transform="translate(-48.57 46.98) rotate(-9.42)"/><path class="cls-23" d="M272.45,304.15a9.09,9.09,0,0,1,10.45,7.48h0a14.72,14.72,0,0,1-12.11,16.93l-11.05,1.84"/><path class="cls-24" d="M383.76,471.49s-21-8.25-26.6-50.21l-22.87,34.51-27.9-29.08s-1.33,54.76-.88,71.38,2.43,22.62,2.43,22.62l37.91-7.32,45.45-8.65Z"/><path class="cls-25" d="M305.51,498.09c.44,16.63,2.43,22.62,2.43,22.62l37.91-7.32,45.45-8.65-7.54-33.25s-10.33-4.07-18.43-20.95a41.76,41.76,0,0,0-8.7,14.53,41.54,41.54,0,0,0-51.19,17.49C305.4,488.93,305.41,494.43,305.51,498.09Z"/><polyline class="cls-26" points="306.61 427.82 311.71 451.54 322.8 447.33 321.13 456.42 334.41 456.5 347.6 454.37 345.02 445.14 356.91 444.39 357.16 421.28"/><line class="cls-26" x1="334.41" y1="456.5" x2="345.85" y2="513.39"/><path class="cls-26" d="M308.84,463.31h23.5a0,0,0,0,1,0,0v26.54a2.43,2.43,0,0,1-2.43,2.43H311.28a2.43,2.43,0,0,1-2.43-2.43V463.31A0,0,0,0,1,308.84,463.31Z" transform="translate(-75.34 60.3) rotate(-9.62)"/><polyline class="cls-26" points="324.71 466.76 328.84 491.1 316.96 493.11 312.83 468.77"/><path class="cls-26" d="M318.61,471.93l-11.2-6a.32.32,0,0,1,.1-.6l21.28-3.61a.32.32,0,0,1,.28.54l-8.75,9.39A1.43,1.43,0,0,1,318.61,471.93Z"/><ellipse class="cls-27" cx="318.74" cy="468.47" rx="1.22" ry="1.5" transform="matrix(0.99, -0.14, 0.14, 0.99, -60.55, 47.52)"/><path class="cls-26" d="M344.42,456.66h23.5a0,0,0,0,1,0,0V483.2a2.43,2.43,0,0,1-2.43,2.43H346.86a2.43,2.43,0,0,1-2.43-2.43V456.66A0,0,0,0,1,344.42,456.66Z" transform="translate(-73.73 66.15) rotate(-9.62)"/><polyline class="cls-26" points="360.29 460.11 364.42 484.45 352.54 486.46 348.42 462.12"/><path class="cls-26" d="M354.19,465.28l-11.2-6a.32.32,0,0,1,.1-.6l21.28-3.61a.32.32,0,0,1,.28.54L355.9,465A1.43,1.43,0,0,1,354.19,465.28Z"/><ellipse class="cls-27" cx="354.32" cy="461.82" rx="1.22" ry="1.5" transform="translate(-59.32 52.28) rotate(-7.79)"/><rect class="cls-28" x="502.03" y="422.01" width="39.43" height="25.03"/><path class="cls-28" d="M542.85,290.78l.11,7.8a5.07,5.07,0,0,1-4.33,5.18,4.93,4.93,0,0,1-5.49-4.81L533,285.87a2.14,2.14,0,0,0-1.7-2.08q-2.71-.54-5.49-.84a2.17,2.17,0,0,0-2.41,2.18l.2,13.73a5.07,5.07,0,0,1-4.33,5.18,4.92,4.92,0,0,1-5.49-4.81l-.2-14a2.18,2.18,0,0,0-2.47-2.11c-1.85.25-3.67.59-5.46,1a2.15,2.15,0,0,0-1.65,2.13l.19,12.85a5.08,5.08,0,0,1-4.34,5.18,4.92,4.92,0,0,1-5.48-4.81l-.12-8a2.15,2.15,0,0,0-3.15-1.89,60.42,60.42,0,0,0-32.23,54.34l.63,44.07a46,46,0,0,0,46.6,45.27l29.05-.42a46,46,0,0,0,45.27-46.6l-.64-44.07A60.46,60.46,0,0,0,546,288.79,2.17,2.17,0,0,0,542.85,290.78Z"/><path class="cls-28" d="M546,288.79a2.17,2.17,0,0,0-3.1,2l.11,7.8a5.07,5.07,0,0,1-4.33,5.18,4.93,4.93,0,0,1-5.49-4.81L533,285.87a2.14,2.14,0,0,0-1.7-2.08q-2.71-.54-5.49-.84a2.17,2.17,0,0,0-2.41,2.18l.2,13.73a5.07,5.07,0,0,1-4.33,5.18,4.92,4.92,0,0,1-5.49-4.81l-.2-14a2.18,2.18,0,0,0-2.47-2.11c-1.85.25-3.67.59-5.46,1a2.15,2.15,0,0,0-1.65,2.13l.19,12.85a5.08,5.08,0,0,1-4.34,5.18,4.92,4.92,0,0,1-5.48-4.81l-.12-8a2.15,2.15,0,0,0-3.15-1.89A60.74,60.74,0,0,0,468,311l101.84-1.05A60.81,60.81,0,0,0,546,288.79Z"/><path class="cls-29" d="M468,311a60,60,0,0,0-6.92,15.56l116-1.2a60.42,60.42,0,0,0-7.24-15.41Z"/><circle class="cls-30" cx="400.35" cy="489.3" r="41.52"/><circle class="cls-30" cx="345.7" cy="514.27" r="41.52"/><circle class="cls-30" cx="454.32" cy="516.94" r="66.45"/><path class="cls-31" d="M504.11,404.31a7.39,7.39,0,0,0-.16-13.63"/><path class="cls-31" d="M534,404.63a7.4,7.4,0,0,1-.23-13.63"/><rect class="cls-32" x="512.09" y="390.15" width="13.64" height="20.54" rx="6.82"/><path class="cls-33" d="M545.49,541.56H451.94l16.4-71.9c3.63-15.93,19.49-28.85,35.42-28.85h35.86c15.93,0,25.9,12.92,22.27,28.85Z"/><circle class="cls-30" cx="573.28" cy="554.26" r="39.52"/><circle class="cls-30" cx="324.9" cy="569.27" r="46.6"/><path class="cls-30" d="M280,617.23l-42.28.08v-.08a42.28,42.28,0,0,1,84.56,0Z"/><path class="cls-16" d="M518.09,247.72l-7,0a4.55,4.55,0,0,1-4.72-4.16h0a4.31,4.31,0,0,1,4.5-4.19l7,0a4.55,4.55,0,0,1,4.72,4.15h0A4.3,4.3,0,0,1,518.09,247.72Z"/><path class="cls-17" d="M577.89,306.1l-119.57.37L458,292.06c-.7-27.07,23.2-49.3,53.11-49.39l10.81,0c29.91-.09,55,22,55.65,49.06Z"/><path class="cls-18" d="M511.25,242.11s-25.5,14-26.32,54.12"/><path class="cls-18" d="M517.33,242.14s26.22,13.88,29.09,54"/><rect class="cls-19" x="457.59" y="291.99" width="121.18" height="22.79" transform="translate(-3.15 5.44) rotate(-0.6)"/><rect class="cls-17" x="428.2" y="304.5" width="178.39" height="15.49" rx="7.74" transform="translate(-3.19 5.34) rotate(-0.59)"/><circle class="cls-20" cx="541.11" cy="287.64" r="1.4"/><circle class="cls-20" cx="534.74" cy="287.81" r="1.4"/><path class="cls-28" d="M603.15,333.92s-8.39-17.39-27-17.09-17.69,15.59-17.69,15.59l36.95,20.11Z"/><path class="cls-34" d="M572.87,452.06s47.68-18,55.17-50.08-14.65-54.83-34.74-61.12"/><path class="cls-28" d="M433.64,333.92s8.39-17.39,27-17.09,17.69,15.59,17.69,15.59l-36.95,20.11Z"/><path class="cls-34" d="M463.92,452.06s-47.67-18-55.17-50.08,18.14-55.49,38.23-61.79"/><rect class="cls-30" x="305.3" y="568.62" width="97.45" height="48.57"/><rect class="cls-29" x="512" y="331.73" width="11.36" height="20.24" rx="5.67"/><rect class="cls-29" x="502.6" y="335.85" width="13.94" height="15.62" transform="translate(-87.65 198.46) rotate(-20.33)"/><rect class="cls-29" x="518.23" y="335.58" width="15.46" height="15.62" transform="translate(899.84 848.13) rotate(-159.67)"/><rect class="cls-35" x="512" y="326.91" width="11.36" height="20.24" rx="5.67"/><rect class="cls-35" x="502.6" y="331.02" width="13.94" height="15.62" transform="translate(-85.98 198.16) rotate(-20.33)"/><rect class="cls-35" x="518.23" y="330.76" width="15.46" height="15.62" transform="translate(901.51 838.79) rotate(-159.67)"/><circle class="cls-36" cx="562.34" cy="357.6" r="33.09"/><ellipse class="cls-37" cx="565.82" cy="357.43" rx="24.96" ry="31.81"/><circle class="cls-38" cx="562.34" cy="357.6" r="33.09"/><line class="cls-39" x1="558.92" y1="354.13" x2="558.92" y2="362.42"/><circle class="cls-36" cx="473.36" cy="357.6" r="33.09"/><ellipse class="cls-37" cx="480.58" cy="357.43" rx="29.87" ry="31.81"/><circle class="cls-38" cx="473.36" cy="357.6" r="33.09"/><line class="cls-39" x1="477.37" y1="354.13" x2="477.37" y2="362.42"/><g class="cls-40"><line class="cls-41" x1="459.01" y1="362.86" x2="479.55" y2="343.52"/><line class="cls-41" x1="459.61" y1="373.8" x2="491.54" y2="343.67"/></g><g class="cls-42"><line class="cls-41" x1="543.86" y1="363.76" x2="564.4" y2="344.42"/><line class="cls-41" x1="552.71" y1="367.05" x2="576.39" y2="344.57"/></g><rect class="cls-33" x="532.44" y="439.46" width="56.43" height="41.41" transform="translate(-162.39 402.74) rotate(-34.84)"/><rect class="cls-33" x="446.15" y="435.14" width="56.43" height="41.41" transform="translate(657.26 1087.8) rotate(-150)"/><line class="cls-43" x1="502.04" y1="433.62" x2="518.22" y2="433.62"/><polygon class="cls-24" points="503.76 440.81 522.54 478.81 542.5 440.68 551.81 441.56 558.01 487.23 549.59 533.34 453.38 533.34 465.79 478.36 490.51 441.06 503.76 440.81"/><path class="cls-25" d="M453,537.22l-1.88,8.22h93.55l1.88-8.22h2.23l6.81-37.33a45,45,0,0,0-81.37,0c-1.05-.07-2.11-.12-3.17-.12a44.81,44.81,0,0,0-10.3,1.2l-8.19,36.28Z"/><polyline class="cls-26" points="498.49 441.56 496.33 468.17 510.63 467.5 504.98 476.48 522.54 481.8 538.73 475.04 533.52 465.73 544.94 466.61 545.93 441.89"/><line class="cls-26" x1="522.54" y1="481.8" x2="511.46" y2="534.01"/><path class="cls-26" d="M475.83,478.52H503a0,0,0,0,1,0,0v31.05a2.43,2.43,0,0,1-2.43,2.43H478.27a2.43,2.43,0,0,1-2.43-2.43V478.52a0,0,0,0,1,0,0Z" transform="translate(110.9 -89.15) rotate(11.73)"/><polyline class="cls-26" points="498.49 485.12 492.69 513.05 479.06 510.22 484.86 482.29"/><path class="cls-26" d="M489.75,488.11l-9.53-11.18a.37.37,0,0,1,.36-.6L505,481.4a.37.37,0,0,1,.07.7l-13.36,6.43A1.64,1.64,0,0,1,489.75,488.11Z"/><ellipse class="cls-27" cx="491.34" cy="484.45" rx="1.73" ry="1.41" transform="translate(-94.81 848.5) rotate(-76.44)"/><path class="cls-26" d="M523.61,488.83h27.16a0,0,0,0,1,0,0v31.05a2.43,2.43,0,0,1-2.43,2.43H526a2.43,2.43,0,0,1-2.43-2.43V488.83A0,0,0,0,1,523.61,488.83Z" transform="translate(114 -98.65) rotate(11.73)"/><polyline class="cls-26" points="546.26 495.43 540.47 523.36 526.83 520.53 532.63 492.6"/><path class="cls-26" d="M537.52,498.42,528,487.24a.37.37,0,0,1,.35-.6l24.42,5.07a.37.37,0,0,1,.08.7l-13.37,6.42A1.63,1.63,0,0,1,537.52,498.42Z"/><ellipse class="cls-27" cx="539.12" cy="494.75" rx="1.73" ry="1.41" transform="translate(-68.26 902.83) rotate(-76.44)"/><line class="cls-44" x1="182.67" y1="618.47" x2="684.04" y2="618.47"/><line class="cls-44" x1="153.91" y1="618.47" x2="67.18" y2="618.47"/><circle class="cls-30" cx="399" cy="550.67" r="66.45"/><circle class="cls-30" cx="471.86" cy="552.82" r="45"/><circle class="cls-30" cx="515.71" cy="527.19" r="45"/><circle class="cls-30" cx="524.71" cy="573.06" r="45"/><path class="cls-30" d="M463.05,618.12l-60.58-1a60.59,60.59,0,0,1,121.18,1Z"/><path class="cls-30" d="M585.13,617.75l-72.23.14v-.14c0-39.62,32.61-72.23,72.23-72.23s72.24,32.61,72.24,72.23Z"/></svg>