<svg id="Layer_1" data-name="Layer 1" xmlns="http://www.w3.org/2000/svg" xmlns:xlink="http://www.w3.org/1999/xlink" viewBox="0 0 1404.68 691.31"><defs><style>.cls-1{fill:#fff;}.cls-2{fill:#fff1d3;}.cls-3{mask:url(#mask);}.cls-4{fill:#ff9100;}.cls-10,.cls-11,.cls-18,.cls-20,.cls-24,.cls-5,.cls-6,.cls-8{fill:none;stroke-miterlimit:10;}.cls-5{stroke:#ff9100;stroke-width:39px;}.cls-11,.cls-6{stroke:#ffd505;}.cls-6{stroke-width:58px;}.cls-7{fill:#ffd505;}.cls-8{stroke:#fcaa47;}.cls-10,.cls-18,.cls-20,.cls-24,.cls-8{stroke-linecap:round;}.cls-10,.cls-8{stroke-width:13px;}.cls-9{fill:#5b3103;}.cls-10{stroke:#3d2407;}.cls-11{stroke-width:71px;}.cls-12{fill:#ffdb94;}.cls-13{fill:#ffb200;}.cls-14{fill:#005d80;}.cls-15{fill:#00d8b4;}.cls-16{fill:#04ad8c;}.cls-17{opacity:0.17;}.cls-18{stroke:#fff;stroke-width:5px;}.cls-19{fill:#ff9e29;}.cls-20{stroke:#fe4c00;stroke-width:1.5px;}.cls-21{fill:#f47603;}.cls-22{fill:#ffc200;}.cls-23{fill:#eb5929;}.cls-24{stroke:#fc6;stroke-width:4px;}</style><mask id="mask" x="815.1" y="3.95" width="574.37" height="682.37" maskUnits="userSpaceOnUse"><rect class="cls-1" x="938.54" y="3.95" width="450.93" height="682.37" transform="translate(2328.02 690.28) rotate(180)"/></mask></defs><title>Nosavedplaces</title><path class="cls-2" d="M1172,362.43c0-137.13-100.24-250.82-231.45-271.84V634.28C1071.75,613.26,1172,499.56,1172,362.43Z"/><g class="cls-3"><path class="cls-4" d="M1204.47,277.52h59.86a0,0,0,0,1,0,0v22.32a20.25,20.25,0,0,1-20.25,20.25h-19.36a20.25,20.25,0,0,1-20.25-20.25V277.52A0,0,0,0,1,1204.47,277.52Z" transform="translate(231.43 -480.35) rotate(24.23)"/><rect class="cls-4" x="961.49" y="345.84" width="76.33" height="48.44" transform="translate(470.04 -555.01) rotate(39.89)"/><path class="cls-4" d="M1195.47,167.59l-8.4,12.55a9.83,9.83,0,0,1-12.61,3.48,9.53,9.53,0,0,1-3.44-13.69l14.08-21a4.16,4.16,0,0,0-.42-5.2q-3.72-3.84-7.83-7.37a4.2,4.2,0,0,0-6.23.83l-14.78,22.07a9.81,9.81,0,0,1-12.6,3.48,9.53,9.53,0,0,1-3.45-13.69l15-22.44a4.21,4.21,0,0,0-1.6-6.08q-4.83-2.46-9.8-4.42a4.14,4.14,0,0,0-5,1.58l-13.84,20.66a9.82,9.82,0,0,1-12.6,3.48,9.52,9.52,0,0,1-3.45-13.69l8.65-12.92a4.18,4.18,0,0,0-2.94-6.48,117,117,0,0,0-111.11,51.08l-47.46,70.88A88.91,88.91,0,0,0,980.11,354l46.72,31.29a88.91,88.91,0,0,0,123.35-24.4L1197.65,290a117,117,0,0,0,4.93-122.18A4.18,4.18,0,0,0,1195.47,167.59Z"/><path class="cls-5" d="M1020.35,446.23s85.13,56.53,208.17-135.68"/><path class="cls-6" d="M1025.34,438.25s27.26,29.6,69.5,6.65"/><path class="cls-7" d="M855.32,350.6H1001.4a10,10,0,0,1,10,10V532.62a0,0,0,0,1,0,0h-156a0,0,0,0,1,0,0v-182A0,0,0,0,1,855.32,350.6Z" transform="translate(500.49 -495.82) rotate(39.89)"/><path class="cls-8" d="M1004.93,293a14.31,14.31,0,0,0,15-21.67"/><path class="cls-8" d="M1084.86,349.18a14.3,14.3,0,0,1,14.92-21.75"/><rect class="cls-9" x="1033.34" y="301.76" width="24.51" height="37.7" rx="12.25" transform="translate(331.77 -507.95) rotate(32.21)"/><line class="cls-10" x1="1132.4" y1="275.2" x2="1128.09" y2="282.31"/><line class="cls-10" x1="1061.6" y1="234.25" x2="1056.71" y2="240.97"/><path class="cls-11" d="M925,363.05s-40.27-23.84-26.48-86.69"/><path class="cls-12" d="M1018.64,68.54a15.1,15.1,0,0,1-7.51,16.94l1,4.2a4.08,4.08,0,1,1-7.92,2L1002.34,84a4.12,4.12,0,0,1,2.93-5l.2,0,.2,0a6.93,6.93,0,1,0-3.36-13.45,7.08,7.08,0,0,0-4.64,3.78,4.05,4.05,0,1,1-7.36-3.4,15.09,15.09,0,0,1,28.33,2.69Zm-3.13,33.67a4,4,0,0,1-2.93,5l-.47.12a4.08,4.08,0,0,1-2-7.92l.47-.12A4.05,4.05,0,0,1,1015.51,102.21Z"/><path class="cls-12" d="M1048.93,61a15.08,15.08,0,0,1-7.52,16.93l1,4.2a4.09,4.09,0,1,1-7.93,2l-1.91-7.66a4.14,4.14,0,0,1,2.94-5l.2,0,.19,0a6.93,6.93,0,0,0-3.35-13.45,7,7,0,0,0-4.64,3.77,4.05,4.05,0,1,1-7.36-3.4,15.09,15.09,0,0,1,28.33,2.7Zm-3.13,33.66a4,4,0,0,1-2.93,5l-.47.11a4.08,4.08,0,0,1-2-7.92l.47-.12A4.07,4.07,0,0,1,1045.8,94.65Z"/><path class="cls-12" d="M1079.21,53.43a15.1,15.1,0,0,1-7.52,16.94l1,4.19a4.08,4.08,0,1,1-7.92,2l-1.91-7.66a4.11,4.11,0,0,1,2.93-5l.2,0,.2,0a6.93,6.93,0,1,0-3.36-13.45,7.05,7.05,0,0,0-4.64,3.78,4.05,4.05,0,1,1-7.36-3.4,15.09,15.09,0,0,1,28.33,2.69Zm-3.13,33.66a4,4,0,0,1-2.93,5l-.47.12a4.09,4.09,0,0,1-2-7.93l.46-.11A4,4,0,0,1,1076.08,87.09Z"/><path class="cls-7" d="M1158.17,285c0-9.53-4.58-17.76-11.21-21.63V261h-9.64v0c-10.42.67-18.71,11.14-18.71,23.95s8.29,23.28,18.71,24v.17H1147v-2.5C1153.59,302.78,1158.17,294.55,1158.17,285Z"/><ellipse class="cls-13" cx="1145.68" cy="285.02" rx="19.78" ry="23.99"/><path class="cls-14" d="M1288.64,310.09l-136.79-4.34c-7.76-.24-14.84-3.84-18-9.52-4-7-3.81-14.38.58-22,3.24-5.58,10.24-9.09,17.9-9.34l136.35-4.32Z"/><path class="cls-7" d="M1231.8,285c0-11.32-5.44-21.09-13.32-25.69v-2.81H1207v.05c-12.39.8-22.22,13.23-22.22,28.45s9.84,27.86,22.22,28.67h11.44v-3C1226.36,306.1,1231.8,296.33,1231.8,285Z"/><ellipse class="cls-13" cx="1216.96" cy="285.1" rx="23.49" ry="28.59"/><path class="cls-14" d="M1330.86,325.72l-112.94-13.93c-5-.62-11.57-6.49-14.58-13.4-3.9-9-3.5-18.52.36-27.7,2.84-6.74,9.54-11.19,14.51-11.8L1330.86,245Z"/><path class="cls-13" d="M1362.07,285.38c0-16-7.7-29.87-18.86-36.39v-4H1327v.06c-17.54,1.14-31.47,18.74-31.47,40.3S1309.46,324.83,1327,326h16.21v-4.2C1354.37,315.24,1362.07,301.4,1362.07,285.38Z"/><ellipse class="cls-7" cx="1343.8" cy="285.49" rx="33.36" ry="40.47"/><ellipse class="cls-15" cx="1344.52" cy="285.68" rx="26.75" ry="34.68"/><ellipse class="cls-16" cx="1335.01" cy="285.68" rx="17.24" ry="32.41"/><g class="cls-17"><line class="cls-18" x1="1218.63" y1="302.84" x2="1267.76" y2="306.5"/><line class="cls-18" x1="1275.88" y1="306.73" x2="1285.55" y2="307.55"/></g><path class="cls-19" d="M1250.06,231.71h0a13.74,13.74,0,0,1,13.74,13.74V285.8a13.74,13.74,0,0,1-13.74,13.74h0A25.57,25.57,0,0,1,1224.49,274V257.28a25.57,25.57,0,0,1,25.57-25.57Z" transform="translate(978.52 1509.77) rotate(-90)"/><path class="cls-20" d="M1013.7,466.18l2.1-2.79a19.73,19.73,0,0,1,12.94-7.7l3.25-.48"/><path class="cls-21" d="M952.92,235.13a88.94,88.94,0,0,0,1.36,92.29V235.13Z"/><polygon class="cls-22" points="929.45 324.61 929.45 556.99 934.82 561.48 954.28 538.19 954.28 340.5 931.85 321.74 929.45 324.61"/></g><polygon class="cls-23" points="297.87 498.05 297.87 498.05 297.87 498.05 297.87 498.05"/><polygon class="cls-23" points="255.94 513.92 255.94 513.92 255.95 513.92 255.94 513.92"/><line class="cls-24" x1="939.54" y1="69.8" x2="939.54" y2="638.44"/><path class="cls-4" d="M940.86,154.93h0a14.64,14.64,0,0,1,14.64,14.64v38.55a14.64,14.64,0,0,1-14.64,14.64h0a27.26,27.26,0,0,1-27.26-27.26V182.18a27.26,27.26,0,0,1,27.26-27.26Z"/><rect class="cls-2" x="771.11" y="82.17" width="68.83" height="31.72" rx="8.2"/><rect class="cls-2" x="737.92" y="120.61" width="68.83" height="31.72" rx="8.2"/><rect class="cls-2" x="812.39" y="120.61" width="68.83" height="31.72" rx="8.2"/><rect class="cls-2" x="79.26" y="500.33" width="68.83" height="31.72" rx="8.2"/><rect class="cls-2" x="120.54" y="538.78" width="68.83" height="31.72" rx="8.2"/><rect class="cls-2" x="40.03" y="538.78" width="68.83" height="31.72" rx="8.2"/><rect class="cls-2" x="860.54" y="537.18" width="68.83" height="31.72" rx="8.2"/><path class="cls-2" d="M904,498.34h33.64a0,0,0,0,1,0,0v31.72a0,0,0,0,1,0,0H904a8.2,8.2,0,0,1-8.2-8.2V506.54A8.2,8.2,0,0,1,904,498.34Z"/></svg>