<?xml version="1.0" encoding="UTF-8" standalone="no"?>
<svg
   xmlns:dc="http://purl.org/dc/elements/1.1/"
   xmlns:cc="http://creativecommons.org/ns#"
   xmlns:rdf="http://www.w3.org/1999/02/22-rdf-syntax-ns#"
   xmlns:svg="http://www.w3.org/2000/svg"
   xmlns="http://www.w3.org/2000/svg"
   xmlns:sodipodi="http://sodipodi.sourceforge.net/DTD/sodipodi-0.dtd"
   xmlns:inkscape="http://www.inkscape.org/namespaces/inkscape"
   id="Layer_1"
   data-name="Layer 1"
   viewBox="0 0 1804.68 691.31"
   version="1.1"
   sodipodi:docname="favourites-none.svg"
   inkscape:version="1.0.1 (0767f8302a, 2020-10-17)">
  <metadata
     id="metadata106">
    <rdf:RDF>
      <cc:Work
         rdf:about="">
        <dc:format>image/svg+xml</dc:format>
        <dc:type
           rdf:resource="http://purl.org/dc/dcmitype/StillImage" />
        <dc:title>Nosavedplaces</dc:title>
      </cc:Work>
    </rdf:RDF>
  </metadata>
  <sodipodi:namedview
     pagecolor="#ffffff"
     bordercolor="#666666"
     borderopacity="1"
     objecttolerance="10"
     gridtolerance="10"
     guidetolerance="10"
     inkscape:pageopacity="0"
     inkscape:pageshadow="2"
     inkscape:window-width="1920"
     inkscape:window-height="1014"
     id="namedview104"
     showgrid="false"
     inkscape:zoom="0.44600904"
     inkscape:cx="1125.9564"
     inkscape:cy="491.67382"
     inkscape:window-x="0"
     inkscape:window-y="34"
     inkscape:window-maximized="0"
     inkscape:current-layer="Layer_1" />
  <defs
     id="defs7">
    <style
       id="style2">.cls-1{fill:#fff;}.cls-2{fill:#fff1d3;}.cls-3{mask:url(#mask);}.cls-4{fill:#ff9100;}.cls-10,.cls-11,.cls-18,.cls-20,.cls-24,.cls-5,.cls-6,.cls-8{fill:none;stroke-miterlimit:10;}.cls-5{stroke:#ff9100;stroke-width:39px;}.cls-11,.cls-6{stroke:#ffd505;}.cls-6{stroke-width:58px;}.cls-7{fill:#ffd505;}.cls-8{stroke:#fcaa47;}.cls-10,.cls-18,.cls-20,.cls-24,.cls-8{stroke-linecap:round;}.cls-10,.cls-8{stroke-width:13px;}.cls-9{fill:#5b3103;}.cls-10{stroke:#3d2407;}.cls-11{stroke-width:71px;}.cls-12{fill:#ffdb94;}.cls-13{fill:#ffb200;}.cls-14{fill:#005d80;}.cls-15{fill:#00d8b4;}.cls-16{fill:#04ad8c;}.cls-17{opacity:0.17;}.cls-18{stroke:#fff;stroke-width:5px;}.cls-19{fill:#ff9e29;}.cls-20{stroke:#fe4c00;stroke-width:1.5px;}.cls-21{fill:#f47603;}.cls-22{fill:#ffc200;}.cls-23{fill:#eb5929;}.cls-24{stroke:#fc6;stroke-width:4px;}</style>
    <mask
       id="mask"
       x="815.1"
       y="3.95"
       width="574.37"
       height="682.37"
       maskUnits="userSpaceOnUse">
      <rect
         class="cls-1"
         x="938.53998"
         y="3.95"
         width="450.92999"
         height="682.37"
         transform="rotate(180,1164.01,345.14)"
         id="rect4" />
    </mask>
  </defs>
  <title
     id="title9">Nosavedplaces</title>
  <path
     class="cls-2"
     d="m 628.63171,371.50256 c 0,-137.13 -100.24,-250.82 -231.45,-271.840002 V 643.35256 c 131.2,-21.02 231.45,-134.72 231.45,-271.85 z"
     id="path11" />
  <g
     class="cls-3"
     mask="url(#mask)"
     id="g77"
     transform="translate(-543.36829,9.0725577)">
    <path
       class="cls-4"
       d="m 1204.47,277.52 h 59.86 v 22.32 a 20.25,20.25 0 0 1 -20.25,20.25 h -19.36 a 20.25,20.25 0 0 1 -20.25,-20.25 z"
       transform="rotate(24.23,1234.602,298.89865)"
       id="path13" />
    <rect
       class="cls-4"
       x="961.48999"
       y="345.84"
       width="76.330002"
       height="48.439999"
       transform="rotate(39.89,999.74198,370.14084)"
       id="rect15" />
    <path
       class="cls-4"
       d="m 1195.47,167.59 -8.4,12.55 a 9.83,9.83 0 0 1 -12.61,3.48 9.53,9.53 0 0 1 -3.44,-13.69 l 14.08,-21 a 4.16,4.16 0 0 0 -0.42,-5.2 q -3.72,-3.84 -7.83,-7.37 a 4.2,4.2 0 0 0 -6.23,0.83 l -14.78,22.07 a 9.81,9.81 0 0 1 -12.6,3.48 9.53,9.53 0 0 1 -3.45,-13.69 l 15,-22.44 a 4.21,4.21 0 0 0 -1.6,-6.08 q -4.83,-2.46 -9.8,-4.42 a 4.14,4.14 0 0 0 -5,1.58 l -13.84,20.66 a 9.82,9.82 0 0 1 -12.6,3.48 9.52,9.52 0 0 1 -3.45,-13.69 l 8.65,-12.92 a 4.18,4.18 0 0 0 -2.94,-6.48 117,117 0 0 0 -111.11,51.08 L 955.64,230.7 A 88.91,88.91 0 0 0 980.11,354 l 46.72,31.29 a 88.91,88.91 0 0 0 123.35,-24.4 L 1197.65,290 a 117,117 0 0 0 4.93,-122.18 4.18,4.18 0 0 0 -7.11,-0.23 z"
       id="path17" />
    <path
       class="cls-5"
       d="m 1020.35,446.23 c 0,0 85.13,56.53 208.17,-135.68"
       id="path19" />
    <path
       class="cls-6"
       d="m 1025.34,438.25 c 0,0 27.26,29.6 69.5,6.65"
       id="path21" />
    <path
       class="cls-7"
       d="m 855.32,350.6 h 146.08 a 10,10 0 0 1 10,10 v 172.02 h -156 v -182 z"
       transform="rotate(39.89,933.41188,441.69145)"
       id="path23" />
    <path
       class="cls-8"
       d="m 1004.93,293 a 14.31,14.31 0 0 0 15,-21.67"
       id="path25" />
    <path
       class="cls-8"
       d="m 1084.86,349.18 a 14.3,14.3 0 0 1 14.92,-21.75"
       id="path27" />
    <rect
       class="cls-9"
       x="1033.34"
       y="301.76001"
       width="24.51"
       height="37.700001"
       rx="12.25"
       transform="rotate(32.21,1045.5139,320.55888)"
       id="rect29" />
    <line
       class="cls-10"
       x1="1132.4"
       y1="275.20001"
       x2="1128.09"
       y2="282.31"
       id="line31" />
    <line
       class="cls-10"
       x1="1061.6"
       y1="234.25"
       x2="1056.71"
       y2="240.97"
       id="line33" />
    <path
       class="cls-11"
       d="m 925,363.05 c 0,0 -40.27,-23.84 -26.48,-86.69"
       id="path35" />
    <path
       class="cls-12"
       d="m 1018.64,68.54 a 15.1,15.1 0 0 1 -7.51,16.94 l 1,4.2 a 4.0843114,4.0843114 0 1 1 -7.92,2 L 1002.34,84 a 4.12,4.12 0 0 1 2.93,-5 h 0.2 0.2 a 6.9316683,6.9316683 0 1 0 -3.36,-13.45 7.08,7.08 0 0 0 -4.64,3.78 4.0536897,4.0536897 0 1 1 -7.36,-3.4 15.09,15.09 0 0 1 28.33,2.69 z m -3.13,33.67 a 4,4 0 0 1 -2.93,5 l -0.47,0.12 a 4.0843114,4.0843114 0 0 1 -2,-7.92 l 0.47,-0.12 a 4.05,4.05 0 0 1 4.93,2.92 z"
       id="path37" />
    <path
       class="cls-12"
       d="m 1048.93,61 a 15.08,15.08 0 0 1 -7.52,16.93 l 1,4.2 a 4.09,4.09 0 1 1 -7.93,2 l -1.91,-7.66 a 4.14,4.14 0 0 1 2.94,-5 h 0.2 0.19 a 6.9304581,6.9304581 0 0 0 -3.35,-13.45 7,7 0 0 0 -4.64,3.77 4.0536897,4.0536897 0 1 1 -7.36,-3.4 15.09,15.09 0 0 1 28.33,2.7 z m -3.13,33.66 a 4,4 0 0 1 -2.93,5 l -0.47,0.11 a 4.0843114,4.0843114 0 0 1 -2,-7.92 l 0.47,-0.12 a 4.07,4.07 0 0 1 4.93,2.92 z"
       id="path39" />
    <path
       class="cls-12"
       d="m 1079.21,53.43 a 15.1,15.1 0 0 1 -7.52,16.94 l 1,4.19 a 4.0843114,4.0843114 0 1 1 -7.92,2 l -1.91,-7.66 a 4.11,4.11 0 0 1 2.93,-5 h 0.2 0.2 a 6.9316683,6.9316683 0 1 0 -3.36,-13.45 7.05,7.05 0 0 0 -4.64,3.78 4.0536897,4.0536897 0 1 1 -7.36,-3.4 15.09,15.09 0 0 1 28.33,2.69 z m -3.13,33.66 a 4,4 0 0 1 -2.93,5 l -0.47,0.12 a 4.09,4.09 0 0 1 -2,-7.93 l 0.46,-0.11 a 4,4 0 0 1 4.94,2.92 z"
       id="path41" />
    <path
       class="cls-7"
       d="m 1158.17,285 c 0,-9.53 -4.58,-17.76 -11.21,-21.63 V 261 h -9.64 v 0 c -10.42,0.67 -18.71,11.14 -18.71,23.95 0,12.81 8.29,23.28 18.71,24 v 0.17 h 9.68 v -2.5 c 6.59,-3.84 11.17,-12.07 11.17,-21.62 z"
       id="path43" />
    <ellipse
       class="cls-13"
       cx="1145.6801"
       cy="285.01999"
       rx="19.780001"
       ry="23.99"
       id="ellipse45" />
    <path
       class="cls-14"
       d="m 1288.64,310.09 -136.79,-4.34 c -7.76,-0.24 -14.84,-3.84 -18,-9.52 -4,-7 -3.81,-14.38 0.58,-22 3.24,-5.58 10.24,-9.09 17.9,-9.34 l 136.35,-4.32 z"
       id="path47" />
    <path
       class="cls-7"
       d="m 1231.8,285 c 0,-11.32 -5.44,-21.09 -13.32,-25.69 V 256.5 H 1207 v 0.05 c -12.39,0.8 -22.22,13.23 -22.22,28.45 0,15.22 9.84,27.86 22.22,28.67 h 11.44 v -3 c 7.92,-4.57 13.36,-14.34 13.36,-25.67 z"
       id="path49" />
    <ellipse
       class="cls-13"
       cx="1216.96"
       cy="285.10001"
       rx="23.49"
       ry="28.59"
       id="ellipse51" />
    <path
       class="cls-14"
       d="m 1330.86,325.72 -112.94,-13.93 c -5,-0.62 -11.57,-6.49 -14.58,-13.4 -3.9,-9 -3.5,-18.52 0.36,-27.7 2.84,-6.74 9.54,-11.19 14.51,-11.8 L 1330.86,245 Z"
       id="path53" />
    <path
       class="cls-13"
       d="m 1362.07,285.38 c 0,-16 -7.7,-29.87 -18.86,-36.39 v -4 H 1327 v 0.06 c -17.54,1.14 -31.47,18.74 -31.47,40.3 0,21.56 13.93,39.48 31.47,40.65 h 16.21 v -4.2 c 11.16,-6.56 18.86,-20.4 18.86,-36.42 z"
       id="path55" />
    <ellipse
       class="cls-7"
       cx="1343.8"
       cy="285.48999"
       rx="33.360001"
       ry="40.470001"
       id="ellipse57" />
    <ellipse
       class="cls-15"
       cx="1344.52"
       cy="285.67999"
       rx="26.75"
       ry="34.68"
       id="ellipse59" />
    <ellipse
       class="cls-16"
       cx="1335.01"
       cy="285.67999"
       rx="17.24"
       ry="32.41"
       id="ellipse61" />
    <g
       class="cls-17"
       id="g67">
      <line
         class="cls-18"
         x1="1218.63"
         y1="302.84"
         x2="1267.76"
         y2="306.5"
         id="line63" />
      <line
         class="cls-18"
         x1="1275.88"
         y1="306.73001"
         x2="1285.55"
         y2="307.54999"
         id="line65" />
    </g>
    <path
       class="cls-19"
       d="m 1250.06,231.71 v 0 a 13.74,13.74 0 0 1 13.74,13.74 v 40.35 a 13.74,13.74 0 0 1 -13.74,13.74 v 0 A 25.57,25.57 0 0 1 1224.49,274 v -16.72 a 25.57,25.57 0 0 1 25.57,-25.57 z"
       transform="rotate(-90,1244.145,265.625)"
       id="path69" />
    <path
       class="cls-20"
       d="m 1013.7,466.18 2.1,-2.79 a 19.73,19.73 0 0 1 12.94,-7.7 l 3.25,-0.48"
       id="path71" />
    <path
       class="cls-21"
       d="m 952.92,235.13 a 88.94,88.94 0 0 0 1.36,92.29 v -92.29 z"
       id="path73" />
    <polygon
       class="cls-22"
       points="954.28,538.19 954.28,340.5 931.85,321.74 929.45,324.61 929.45,556.99 934.82,561.48 "
       id="polygon75" />
  </g>
  <polygon
     class="cls-23"
     points=""
     id="polygon79"
     transform="translate(-543.36829,9.0725577)" />
  <polygon
     class="cls-23"
     points="255.95,513.92 255.94,513.92 "
     id="polygon81"
     transform="translate(-4.6122888,-79.495628)"
     style="fill:#facba9;fill-opacity:0.200087" />
  <line
     class="cls-24"
     x1="396.17169"
     y1="78.872559"
     x2="396.17169"
     y2="647.51257"
     id="line83" />
  <path
     class="cls-4"
     d="m 397.49171,164.00256 v 0 a 14.64,14.64 0 0 1 14.64,14.64 v 38.55 a 14.64,14.64 0 0 1 -14.64,14.64 v 0 a 27.26,27.26 0 0 1 -27.26,-27.26 v -13.32 a 27.26,27.26 0 0 1 27.26,-27.26 z"
     id="path85" />
  <rect
     class="cls-2"
     x="227.7417"
     y="91.242554"
     width="68.830002"
     height="31.719999"
     rx="8.1999998"
     id="rect87" />
  <rect
     class="cls-2"
     x="194.5517"
     y="129.68256"
     width="68.830002"
     height="31.719999"
     rx="8.1999998"
     id="rect89" />
  <rect
     class="cls-2"
     x="269.02173"
     y="129.68256"
     width="68.830002"
     height="31.719999"
     rx="8.1999998"
     id="rect91" />
  <rect
     class="cls-2"
     x="74.647705"
     y="420.83438"
     width="68.830002"
     height="31.719999"
     rx="8.1999998"
     id="rect93"
     style="fill:#facba9;fill-opacity:0.200087" />
  <rect
     class="cls-2"
     x="115.92773"
     y="459.28442"
     width="68.830002"
     height="31.719999"
     rx="8.1999998"
     id="rect95"
     style="fill:#facba9;fill-opacity:0.200087" />
  <rect
     class="cls-2"
     x="35.417721"
     y="459.28442"
     width="68.830002"
     height="31.719999"
     rx="8.1999998"
     id="rect97"
     style="fill:#facba9;fill-opacity:0.200087" />
  <rect
     class="cls-2"
     x="317.17169"
     y="546.25256"
     width="68.830002"
     height="31.719999"
     rx="8.1999998"
     id="rect99" />
  <path
     class="cls-2"
     d="m 360.63171,507.41256 h 33.64 v 31.72 h -33.64 a 8.2,8.2 0 0 1 -8.2,-8.2 v -15.32 a 8.2,8.2 0 0 1 8.2,-8.2 z"
     id="path101" />
</svg>
