<?xml version="1.0" encoding="UTF-8" standalone="no"?>
<svg
   id="Layer_1"
   data-name="Layer 1"
   viewBox="0 0 251.09326 95.528949"
   version="1.1"
   sodipodi:docname="bendy-arrow.svg"
   inkscape:version="1.1 (c68e22c387, 2021-05-23)"
   xmlns:inkscape="http://www.inkscape.org/namespaces/inkscape"
   xmlns:sodipodi="http://sodipodi.sourceforge.net/DTD/sodipodi-0.dtd"
   xmlns="http://www.w3.org/2000/svg"
   xmlns:svg="http://www.w3.org/2000/svg"
   xmlns:rdf="http://www.w3.org/1999/02/22-rdf-syntax-ns#"
   xmlns:cc="http://creativecommons.org/ns#"
   xmlns:dc="http://purl.org/dc/elements/1.1/">
  <sodipodi:namedview
     id="namedview73"
     pagecolor="#ffffff"
     bordercolor="#666666"
     borderopacity="1.0"
     inkscape:pageshadow="2"
     inkscape:pageopacity="0.0"
     inkscape:pagecheckerboard="0"
     showgrid="false"
     inkscape:zoom="1.5634159"
     inkscape:cx="146.79395"
     inkscape:cy="90.506947"
     inkscape:window-width="1920"
     inkscape:window-height="1020"
     inkscape:window-x="0"
     inkscape:window-y="0"
     inkscape:window-maximized="1"
     inkscape:current-layer="Layer_1" />
  <defs
     id="defs4">
    <style
       id="style2">.cls-1{fill:#fe4c00;}.cls-2{fill:#101d23;}.cls-3{fill:#fff;}.cls-4{fill:#ffd600;}</style>
  </defs>
  <title
     id="title6">How_Button</title>
  <g
     id="g1118"
     transform="matrix(-1.5178905,1.2078707,-1.183283,-1.6396857,254.19366,89.106953)"
     style="fill:#ffffff">
    <path
       class="cls-4"
       d="m 0.06,3.7874643 c 0,0.08 -0.06,1 -0.06,2.54 a 94.82,94.82 0 0 0 2,18.5899997 90.2,90.2 0 0 0 6.79,20.54 73.26,73.26 0 0 0 26.07,30.2 c 12.83,8.42 30.2,14.13 53.37,14.63 a 4.0010124,4.0010124 0 0 0 0.18,-8 c -19.54,-0.44 -34.14,-4.7 -45.17,-10.89 a 64.55,64.55 0 0 1 -19.4,-16.61 74.87,74.87 0 0 1 -13.39,-28.6 A 87.6,87.6 0 0 1 8,6.2874643 c 0,-0.69 0,-1.22 0,-1.56 0,-0.18 0,-0.3 0,-0.38 v -0.09 0 l -1.3,-0.08 1.3,0.08 v 0 l -1.3,-0.08 1.3,0.08 a 4.0078049,4.0078049 0 0 0 -8,-0.5 z"
       id="path68"
       style="fill:#ffffff" />
    <path
       class="cls-4"
       d="m 74.11,67.657464 14.58,18.88 -17.85,13.599996 a 4.0140908,4.0140908 0 1 0 4.86,6.39 L 96.77,90.467464 a 4,4 0 0 0 1.55,-2.67 4,4 0 0 0 -0.81,-3 l -17.05,-22.01 a 4.0134337,4.0134337 0 1 0 -6.35,4.91 z"
       id="path70"
       style="fill:#ffffff" />
  </g>
  <metadata
     id="metadata890">
    <rdf:RDF>
      <cc:Work
         rdf:about="">
        <dc:title>How_Button</dc:title>
      </cc:Work>
    </rdf:RDF>
  </metadata>
</svg>
