<?xml version="1.0" encoding="UTF-8" standalone="no"?>
<svg
   id="Layer_1"
   data-name="Layer 1"
   viewBox="0 0 249.69814 238.26001"
   version="1.1"
   sodipodi:docname="Tastiest_award.svg"
   inkscape:version="1.1 (ce6663b3b7, 2021-05-25)"
   xmlns:inkscape="http://www.inkscape.org/namespaces/inkscape"
   xmlns:sodipodi="http://sodipodi.sourceforge.net/DTD/sodipodi-0.dtd"
   xmlns="http://www.w3.org/2000/svg"
   xmlns:svg="http://www.w3.org/2000/svg"
   xmlns:rdf="http://www.w3.org/1999/02/22-rdf-syntax-ns#"
   xmlns:cc="http://creativecommons.org/ns#"
   xmlns:dc="http://purl.org/dc/elements/1.1/">
  <sodipodi:namedview
     id="namedview39"
     pagecolor="#ffffff"
     bordercolor="#666666"
     borderopacity="1.0"
     inkscape:pageshadow="2"
     inkscape:pageopacity="0.0"
     inkscape:pagecheckerboard="0"
     showgrid="false"
     inkscape:zoom="2.3658537"
     inkscape:cx="127.2268"
     inkscape:cy="115.39175"
     inkscape:window-width="1920"
     inkscape:window-height="1015"
     inkscape:window-x="0"
     inkscape:window-y="0"
     inkscape:window-maximized="1"
     inkscape:current-layer="Layer_1" />
  <defs
     id="defs4">
    <style
       id="style2">.cls-1{fill:#fff1d0;}.cls-2{fill:#fb8d02;}.cls-3{fill:#f17400;}.cls-4{fill:#fff;}.cls-5{fill:#ffd600;}.cls-6{fill:#ffcc94;}</style>
  </defs>
  <title
     id="title6">Illusts</title>
  <circle
     class="cls-1"
     cx="125.32012"
     cy="106.04"
     r="106.04"
     id="circle8" />
  <path
     class="cls-2"
     d="m 116.37012,163.92 h 14.85 c -5.19,0.25 4.76,56.9 9.95,56.66 h -34.7 c 5.19,0.24 15.1,-56.41 9.9,-56.66 z"
     id="path10" />
  <path
     class="cls-3"
     d="m 131.22012,163.92 h -14.85 c 2.24,0.11 1.67,10.69 -0.11,22.67 a 45.6,45.6 0 0 0 15.1,0.08 c -1.81,-12.02 -2.39,-22.64 -0.14,-22.75 z"
     id="path12" />
  <path
     class="cls-2"
     d="M 166.00012,235.12 H 82.590116 v -1.69 a 13.51,13.51 0 0 1 13.5,-13.5 h 56.410004 a 13.5,13.5 0 0 1 13.5,13.5 z"
     id="path14" />
  <path
     class="cls-2"
     d="m 124.09012,181.26 v 0 a 49.61,49.61 0 0 0 49.38,-44.83 l 6.87,-70.999998 a 10.42,10.42 0 0 0 -10.37,-11.43 H 78.220116 a 10.42,10.42 0 0 0 -10.37,11.43 l 6.87,70.999998 a 49.6,49.6 0 0 0 49.370004,44.83 z"
     id="path16" />
  <path
     class="cls-2"
     d="m 86.770116,79.310002 h -26.4 a 16.83,16.83 0 0 0 -16.67,19.48 v 0 l 2.72,17.469998 a 31.87,31.87 0 0 0 31.49,27 h 12.51 v -7.68 h -12.51 a 24.19,24.19 0 0 1 -23.9,-20.47 l -2.72,-17.459998 v 0 a 8.9,8.9 0 0 1 -0.07,-1.49 9.2,9.2 0 0 1 9.19,-9.17 h 26.4 z"
     id="path18" />
  <path
     class="cls-2"
     d="m 164.80012,79.310002 h 26.42 a 16.83,16.83 0 0 1 16.67,19.48 v 0 l -2.74,17.469998 a 31.87,31.87 0 0 1 -31.49,27 h -12.51 v -7.68 h 12.51 a 24.19,24.19 0 0 0 23.9,-20.47 l 2.72,-17.459998 a 8.9,8.9 0 0 0 0.11,-1.44 9.18,9.18 0 0 0 -9.19,-9.17 h -26.4 z"
     id="path20" />
  <path
     class="cls-4"
     d="m 149.83012,112.15 a 2.63,2.63 0 0 0 -3.23,1.84 24,24 0 0 1 -2.72,6.14 0.72,0.72 0 0 1 -0.64,-0.64 c -1.24,-11.16 -12.68,-9 -15,1.26 v 0.08 c -1.55,4.24 -2.7,9.79 -7.07,10.74 a 24,24 0 0 1 -21.200004,-17.59 2.63,2.63 0 0 0 -5.07,1.39 29.44,29.44 0 0 0 56.770004,0 2.63,2.63 0 0 0 -1.84,-3.22 z"
     id="path22" />
  <path
     class="cls-4"
     d="m 98.650116,99.800002 a 6.81,6.81 0 0 1 13.120004,0 2.6237235,2.6237235 0 0 0 5.06,-1.39 12.05,12.05 0 0 0 -23.240004,0 2.6237235,2.6237235 0 0 0 5.06,1.39 z"
     id="path24" />
  <path
     class="cls-4"
     d="m 130.01012,101.63 a 2.62,2.62 0 0 0 3.23,-1.829998 6.8,6.8 0 0 1 6.56,-5 6.74,6.74 0 0 1 4.15,1.42 6.81,6.81 0 0 1 2.41,3.57 2.6224035,2.6224035 0 1 0 5.06,-1.38 12.05,12.05 0 0 0 -23.24,0 2.61,2.61 0 0 0 1.83,3.219998 z"
     id="path26" />
  <path
     class="cls-5"
     d="m 83.440116,186.26 c -2.3,-0.37 -6.42,-1.08 -9,-1.69 1.95,-4.76 5.53,-18 -11.79,-24.14 0,0 -6.22,13.06 3.27,21.51 a 70.7,70.7 0 0 1 -13.85,-7 c -1.3,-0.85 -2.55,-1.74 -3.78,-2.65 3.7,-4.44 9.68,-14.9 -3.49,-25.84 0,0 -8,7.8 -5.87,17.29 a 65,65 0 0 1 -8.46,-11.81 c 5,-2.82 14.4,-10.47 6,-25.41 0,0 -9.51,4.14 -11.45,13 a 88.25,88.25 0 0 1 -3.52,-14.07 c 4.86,-0.9 18.36,-5.07 13.86,-23.18 0,0 -11.47,1.6 -15.19,10.94 a 110.47,110.47 0 0 1 0.15,-14.619998 c 5.31,0.89 18.47,1.21 20.8,-16.62 0,0 -12.79,-3.05 -19.43,6.23 a 94.12,94.12 0 0 1 4.05,-14.9 c 5.36,2.25 17,4.84 23.65,-10.82 0,0 -10.11,-5.6 -18.69,-0.4 a 89.08,89.08 0 0 1 6.23,-10.15 c 3.94,2.69 16.7,9.53 26.27,-6.77 0,0 -9.25,-6.82 -18.41,-2.85 a 94.28,94.28 0 0 1 8.06,-7.61 c 18.47,2.63 20.76,-16.43 20.76,-16.43 -17,-3.87 -21.51,7.71 -22.7,13.24 a 95.83,95.83 0 0 0 -8.22,7.68 c 1.06,-9.34 -7.15,-16.3 -7.15,-16.3 -12.81,12.37 -5.18,22.67 -1.27,26.56 a 95,95 0 0 0 -6,9.53 c -0.38,-9.19 -9.18,-14.88 -9.18,-14.88 -12.4399996,15.43 0.13,25.16 3.47,27.32 a 96.72,96.72 0 0 0 -3.41,11.19 c -3.46,-7.5 -12.1899996,-10.22 -12.1899996,-10.22 -7.31999999,17 4.9999996,23.32 9.7799996,25.08 a 113.85,113.85 0 0 0 -0.3,14.899998 c -5.8,-7.31 -16.41999959,-6.54 -16.41999959,-6.54 -0.6,17.93 12.37999959,19.78 17.77999959,19.78 a 91,91 0 0 0 4.3,16.65 c -7.64,-6.83 -18.7699996,-2.87 -18.7699996,-2.87 4.65,19.22 19.9999996,15.21 23.7599996,13.9 a 71.15,71.15 0 0 0 8.93,12.67 c -9.2,-2.89 -17.61,4.3 -17.61,4.3 11.13,16.21 23.94,7.2 27.1,4.57 1.6,1.24 3.19,2.36 4.74,3.37 a 75,75 0 0 0 7.32,4.17 c -7.4,2.23 -11.49,9.51 -11.49,9.51 14.66,10.4 23.36,0.53 26.32,-4 3.17,0.82 7.83,1.63 10.44,2.05 a 1.8445596,1.8445596 0 0 0 0.6,-3.64 z"
     id="path28" />
  <path
     class="cls-5"
     d="m 165.75012,185.26 c 2.59,-0.31 7.38,-0.92 10,-1.56 -2,-4.75 -5.65,-18 11.63,-24.22 0,0 6.31,13 -3.12,21.54 a 71.55,71.55 0 0 0 13.8,-7.07 c 1.29,-0.85 2.54,-1.75 3.76,-2.67 -3.72,-4.42 -9.78,-14.84 3.32,-25.87 0,0 8,7.75 6,17.26 a 65.7,65.7 0 0 0 8.37,-11.87 c -5,-2.79 -14.47,-10.37 -6.12,-25.37 0,0 9.54,4.07 11.54,13 a 90,90 0 0 0 3.42,-14.1 c -4.87,-0.87 -18.39,-4.94 -14,-23.09 0,0 11.48,1.53 15.26,10.84 a 108.08,108.08 0 0 0 -0.25,-14.609998 c -5.3,0.92 -18.45,1.33 -20.9,-16.49 0,0 12.76,-3.13 19.47,6.11 a 94.52,94.52 0 0 0 -4.15,-14.88 c -5.35,2.28 -17,5 -23.72,-10.67 0,0 10.07,-5.66 18.69,-0.52 a 90.81,90.81 0 0 0 -6.3,-10.11 c -3.92,2.72 -16.63,9.65 -26.32,-6.59 0,0 9.21,-6.88 18.39,-3 a 93.22,93.22 0 0 0 -8.11,-7.56 c -18.45,2.75 -20.86,-16.3 -20.86,-16.3 17,-4 21.56,7.57 22.78,13.1 a 94.73,94.73 0 0 1 8.27,7.63 c -1.11,-9.34 7,-16.35 7,-16.35 12.9,12.16 5.33,22.51 1.45,26.43 a 93.22,93.22 0 0 1 6.07,9.49 c 0.33,-9.2 9.09,-14.94 9.09,-14.94 12.53,15.35 0,25.14 -3.31,27.34 a 96.3,96.3 0 0 1 3.48,11.1 c 3.41,-7.52 12.12,-10.31 12.12,-10.31 7.43,16.94 -4.87,23.36 -9.61,25.15 A 111.59,111.59 0 0 1 233.28012,111 c 5.76,-7.34 16.39,-6.65 16.39,-6.65 0.71,17.93 -12.26,19.86 -17.66,19.9 a 91.71,91.71 0 0 1 -4.18,16.64 c 7.58,-6.89 18.74,-3 18.74,-3 -4.53,19.24 -19.87,15.33 -23.67,14 a 70.57,70.57 0 0 1 -8.85,12.74 c 9.19,-2.91 17.65,4.2 17.65,4.2 -11,16.29 -23.89,7.36 -27.07,4.75 -1.6,1.25 -3.18,2.38 -4.72,3.4 a 75.31,75.31 0 0 1 -7.29,4.28 c 7.41,2.19 11.55,9.44 11.55,9.44 -14.6,10.5 -23.36,0.68 -26.35,-3.79 a 102.68,102.68 0 0 1 -11.6,1.95 1.8320753,1.8320753 0 0 1 -0.42,-3.64 z"
     id="path30" />
  <path
     class="cls-6"
     d="m 161.79012,151.13 c 0.45,-0.9 0.86,-1.82 1.26,-2.77 a 3.1904114,3.1904114 0 0 0 -5.9,-2.43 c -0.34,0.82 -0.69,1.6 -1.06,2.34 a 3.19,3.19 0 0 0 5.7,2.86 z"
     id="path32" />
  <path
     class="cls-6"
     d="m 130.22012,173.11 a 40.25,40.25 0 0 0 9.16,-2.32 41.75,41.75 0 0 0 17.1,-11.65 3.19,3.19 0 0 0 -4.83,-4.16 35.4,35.4 0 0 1 -14.5,9.84 38.78,38.78 0 0 1 -5.51,1.6 c -0.68,0.14 -1.21,0.23 -1.57,0.28 l -0.38,0.05 h -0.09 a 3.190098,3.190098 0 0 0 0.62,6.35 z"
     id="path34" />
  <path
     class="cls-5"
     d="M 21.360116,238.26 H 230.54012 a 1.51,1.51 0 0 0 0,-3 H 21.360116 a 1.51,1.51 0 0 0 0,3"
     id="path36" />
  <metadata
     id="metadata856">
    <rdf:RDF>
      <cc:Work
         rdf:about="">
        <dc:title>Illusts</dc:title>
      </cc:Work>
    </rdf:RDF>
  </metadata>
</svg>
