<svg id="Layer_1" data-name="Layer 1" xmlns="http://www.w3.org/2000/svg" viewBox="0 0 500 500"><defs><style>.cls-1{fill:none;}.cls-2{fill:#fff;}.cls-3{fill:#ffd617;}.cls-4{fill:#fe4c00;}</style></defs><title>food</title><path class="cls-1" d="M367,167.2l3.54,3.53L366.29,175l.38.62a12.24,12.24,0,0,1,2.2,1.78c.1.1.19.21.28.31l3.35-9c-.64.69-1.27,1.38-1.94,2Z"/><path class="cls-2" d="M253.36,75.59a80.83,80.83,0,0,1,8.34,5.07,35.88,35.88,0,0,1,9.84,10,34.76,34.76,0,0,1,3.83,8.55,65.21,65.21,0,0,1,2,9c.08.5.14,1,.21,1.48l5.77-2.14a10.29,10.29,0,0,1,3.51-.63,10,10,0,0,1,8.71,5l12.27-12.28L280.45,55.52a14.12,14.12,0,0,0-5-4.92,11.55,11.55,0,0,0-5.8-1.57,11.39,11.39,0,0,0-4.89,1.11,13.51,13.51,0,0,0-4.51,3.53l-14.87,17.6C247.81,72.66,250.53,74.06,253.36,75.59Z"/><path class="cls-2" d="M104.66,179.25c.31,3,.41,6.07.46,9.07.1,6,0,11.92.87,17.19a30.77,30.77,0,0,0,2.94,9.6,24.2,24.2,0,0,0,3.92,5.37,50.7,50.7,0,0,0,5.71,5.07c1.4,1.08,2.88,2.17,4.41,3.26a9.36,9.36,0,0,1,2.71-.41,9.14,9.14,0,0,1,2.2.27l.12,0c.25.06.5.14.76.22l51.77,17.38-8.88-24.22,18.66-17.2a10.27,10.27,0,0,1,3.25-2,9.89,9.89,0,0,1,3.58-.65,10.14,10.14,0,0,1,5.65,1.71,10,10,0,0,1,3.83,4.9L226,261.54l27.65,9.28,2.6-68A81.06,81.06,0,0,1,237.67,189l-9.6-9.59,30.2-30.19,1.25-32.84,8.43-3.13a82.08,82.08,0,0,0-1.5-8.76A27.56,27.56,0,0,0,263.11,96a22.91,22.91,0,0,0-4.31-4.92A42.48,42.48,0,0,0,253,86.91c-4.25-2.62-9.11-4.89-13.67-7.6a37.25,37.25,0,0,1-8.43-6.53,20.58,20.58,0,0,1-3.56-5.31A91.94,91.94,0,0,1,222,50.54c-1.27-5.38-2.4-10.34-4-14.29a21.37,21.37,0,0,0-4-6.52,15.19,15.19,0,0,0-3.19-2.61A19.09,19.09,0,0,0,205.61,25a36.38,36.38,0,0,0-9-1c-1.27,0-2.63.05-4.07.14a39.33,39.33,0,0,0-11,2.68,95,95,0,0,0-11.84,5.58A160.69,160.69,0,0,0,153.24,43l0,0a2.82,2.82,0,0,0-.3.5,11.6,11.6,0,0,0-.82,2.38,42,42,0,0,0-1,7.33,9.83,9.83,0,0,1-2.78,6.41,9,9,0,0,1-6.4,2.66,9.66,9.66,0,0,1-5.07-1.46,34.75,34.75,0,0,0-5.29-2.66,1.5,1.5,0,0,0-.35-.08,6.55,6.55,0,0,0-1-.06,26.31,26.31,0,0,0-5.76.85,80.35,80.35,0,0,0-7.88,2.38,165.31,165.31,0,0,0-16.38,6.91c-3.19,1.55-5.89,3-7.52,4A5.86,5.86,0,0,0,90.75,74a11.48,11.48,0,0,0-1.39,3.07,26.28,26.28,0,0,0-1,7.24c0,1.63.13,2.75.13,2.78l0,.32v.34A45.44,45.44,0,0,1,87.3,98.26a35.56,35.56,0,0,1-2.74,7.29c-.66,1.33-1.31,2.49-1.87,3.56a28.47,28.47,0,0,0-1.85,4.07,21.74,21.74,0,0,0-1.06,7.23,54.89,54.89,0,0,0,.94,9.38,22.54,22.54,0,0,0,2,5.87,61.81,61.81,0,0,0,3.92,6.74c3.1,4.75,7,9.9,10.4,15.59a60.88,60.88,0,0,1,5.79,12.27A43.84,43.84,0,0,1,104.66,179.25ZM156,206.39h0l-1.62,4.73L142.29,207l3.25-9.46,12.13,4.17L156,206.39Zm35.68-22-3.9-3.12h0l-3.91-3.12,4.62-5.78,7.81,6.24Zm38.09,25.71,7.82,6.24-8.44,10.55-3.9-3.12h0l-3.91-3.12ZM227.42,172l-4.92-.9h0l-4.92-.9,2.31-12.62,9.84,1.8Zm-.68-46.05-3.91-3.13h0l-3.9-3.12,8.63-10.8,7.82,6.24ZM191.65,77.52l9.59,2.8-3.83,13.11L192.61,92h0l-4.8-1.4Zm-39.24-2,40.47,86.57-4.53,2.12L147.88,77.62ZM147,141.79l9.68,2.52-2,7.84-4.84-1.26h0L145,149.63ZM109.45,97.42l7.74,6.19-3.12,3.91h0l-3.12,3.9-7.74-6.18Z"/><path class="cls-2" d="M295.08,234.55a44.65,44.65,0,0,1-2.43-5.45L292,245.46Z"/><rect class="cls-3" x="167.88" y="72.06" width="5" height="95.56" transform="translate(-34.72 83.43) rotate(-25.06)"/><polygon class="cls-4" points="197.41 93.43 201.24 80.33 191.65 77.52 187.81 90.62 192.61 92.02 197.41 93.43"/><polygon class="cls-4" points="114.07 107.52 117.19 103.61 109.45 97.42 103.21 105.23 110.95 111.42 114.07 107.52"/><polygon class="cls-4" points="154.63 152.15 156.67 144.31 146.99 141.79 144.95 149.63 149.79 150.89 154.63 152.15"/><polygon class="cls-4" points="217.58 170.19 222.5 171.09 227.42 171.99 229.73 159.37 219.89 157.57 217.58 170.19"/><polygon class="cls-4" points="145.54 197.49 142.29 206.95 154.41 211.12 156.04 206.39 157.67 201.66 145.54 197.49"/><polygon class="cls-4" points="183.91 178.17 187.82 181.29 191.72 184.41 196.34 178.63 188.53 172.39 183.91 178.17"/><polygon class="cls-4" points="218.93 119.69 222.83 122.81 226.74 125.94 235.38 115.13 227.56 108.89 218.93 119.69"/><polygon class="cls-4" points="221.38 220.67 225.29 223.79 229.19 226.91 237.63 216.36 229.81 210.12 221.38 220.67"/><polygon class="cls-2" points="286.78 120.69 286.92 117.01 286.92 116.98 286.92 116.96 286.91 116.95 286.85 116.9 286.83 116.9 286.8 116.91 269.26 123.41 268.67 138.79 286.78 120.69"/><path class="cls-2" d="M263.51,274.14l.64.22,17-6.91,2.13-55.56a80.72,80.72,0,0,1-17.25-4.5Z"/><polygon class="cls-2" points="213.82 257.46 197.24 212.26 197.22 212.22 197.22 212.22 197.14 212.19 197.12 212.2 197.12 212.2 197.09 212.22 183.34 224.9 192.68 250.37 213.82 257.46"/><path class="cls-2" d="M361,60.64l-2.58,2.58a65.89,65.89,0,0,1,12,19.31,67.71,67.71,0,0,1,4.83,25.22,70.53,70.53,0,0,1-14,42l-6.3,22.43,8.55-8.55a70.45,70.45,0,0,0,20.81-49.94,72.16,72.16,0,0,0-5.18-26.92,70.71,70.71,0,0,0-15.63-23.64Z"/><path class="cls-2" d="M362.89,124.18A59.5,59.5,0,0,0,365,112.41l-15.28,1.91Z"/><path class="cls-2" d="M294.41,183.91a60.17,60.17,0,0,0,15.95-3.78l10.07-35.86-18.71-18.71Zm11-47.11c1.86-.72,5,2.88,5.72,4.74a3.61,3.61,0,1,1-6.72,2.62C303.68,142.31,303.54,137.53,305.4,136.8Z"/><path class="cls-2" d="M312.73,108.88,365,102.34a57.24,57.24,0,0,0-3.86-16.08,55.74,55.74,0,0,0-9.8-16Zm15.65-11.2a3.61,3.61,0,1,1,3.53,6.29c-1.73,1-6.45,1.77-7.42,0S326.64,98.66,328.38,97.68Z"/><path class="cls-2" d="M309.65,119.34l13.88,13.89,1.46-5.18a3.94,3.94,0,0,1-.47-.1c-1.89-.61-5.69-3.52-5.08-5.42s5.39-2.06,7.28-1.45a1.76,1.76,0,0,1,.2.09l1.16-4.14Z"/><path class="cls-2" d="M294.89,202.73a72.27,72.27,0,0,0,9.3-.62l2.92-10.41a69.66,69.66,0,0,1-18.32,2.48,67.73,67.73,0,0,1-25.23-4.84,65.51,65.51,0,0,1-19.3-12l-2,2,2.52,2.52A70.75,70.75,0,0,0,294.89,202.73Z"/><path class="cls-2" d="M251.35,170.26a55.7,55.7,0,0,0,15.94,9.8,57.2,57.2,0,0,0,17,3.93l6.69-53.4Zm27.85-24.14c.83-1.82,4.17-5.24,6-4.41s1.41,5.59.58,7.4a3.6,3.6,0,0,1-6.56-3Z"/><path class="cls-3" d="M319.44,122.53c-.61,1.9,3.19,4.81,5.08,5.42a3.94,3.94,0,0,0,.47.1l1.93-6.88a1.76,1.76,0,0,0-.2-.09C324.83,120.47,320.05,120.64,319.44,122.53Z"/><path class="cls-3" d="M331.91,104a3.61,3.61,0,1,0-3.53-6.29c-1.74,1-4.87,4.59-3.89,6.33S330.18,105,331.91,104Z"/><path class="cls-3" d="M309.08,146.21a3.61,3.61,0,0,0,2-4.67c-.72-1.86-3.86-5.46-5.72-4.74s-1.72,5.51-1,7.36A3.62,3.62,0,0,0,309.08,146.21Z"/><path class="cls-3" d="M281,150.89a3.6,3.6,0,0,0,4.78-1.78c.83-1.81,1.23-6.57-.58-7.4s-5.15,2.59-6,4.41A3.59,3.59,0,0,0,281,150.89Z"/><polygon class="cls-2" points="355.98 131.5 338.16 118.14 298.17 260.57 311.72 255.07 337.46 175.33 343.82 174.82 355.98 131.5"/><path class="cls-2" d="M360.85,183.79a2.72,2.72,0,0,0-1.09-.22h-.25l-14.58,1.18-21.12,65.41,21-8.53,17.56-54.4a2.9,2.9,0,0,0,.15-.88,2.74,2.74,0,0,0-.48-1.53A2.82,2.82,0,0,0,360.85,183.79Z"/><path class="cls-2" d="M385.32,162.9l-27.26,73.39,21.86-8.86,24.48-65.92-18.09.67A1.11,1.11,0,0,0,385.32,162.9Z"/><path class="cls-4" d="M414.59,162.78a8.35,8.35,0,0,0,.54-2.94,8.47,8.47,0,0,0-2.41-5.88,8.38,8.38,0,0,0-6-2.54h-.33l-20.44.77a10.18,10.18,0,0,0-1.58.18,80.12,80.12,0,0,0,9.95-38.65,82.13,82.13,0,0,0-5.9-30.65,80.49,80.49,0,0,0-17.84-27L361,46.5l-45.9,45.89L289,50.25a24.18,24.18,0,0,0-8.49-8.32A21.66,21.66,0,0,0,269.68,39a21.42,21.42,0,0,0-9.17,2.07,23.4,23.4,0,0,0-7.87,6.12L237.53,65.11a9.55,9.55,0,0,1-1.07-1.78,81.51,81.51,0,0,1-4.69-15c-.94-4-1.84-8-3.08-11.86A43.35,43.35,0,0,0,225,27.94a27.76,27.76,0,0,0-4.35-5.71,26,26,0,0,0-10-6.14A42.91,42.91,0,0,0,196.59,14c-1.51,0-3.08.05-4.72.16A49.06,49.06,0,0,0,178,17.47a117,117,0,0,0-19,9.57c-5.47,3.35-9.78,6.43-11.79,7.9A11,11,0,0,0,144,39a24.92,24.92,0,0,0-2.09,6.75,56,56,0,0,0-.73,6,44,44,0,0,0-5.91-2.9,13.42,13.42,0,0,0-5.07-.85,29.82,29.82,0,0,0-5.29.53,73.87,73.87,0,0,0-10.16,2.75,160.81,160.81,0,0,0-15.61,6.3c-2.42,1.11-4.66,2.2-6.63,3.22s-3.67,1.94-5,2.76a16,16,0,0,0-5,4.89A23.48,23.48,0,0,0,79.09,77a39.28,39.28,0,0,0-.68,7.32c0,1.67.1,2.93.16,3.54a32.79,32.79,0,0,1-1.27,9,27.22,27.22,0,0,1-1.88,4.55c-.54,1.07-1.15,2.16-1.78,3.37A33.5,33.5,0,0,0,71,111.32a32.54,32.54,0,0,0-1.17,9.09,66,66,0,0,0,1.08,11.09,36,36,0,0,0,4.26,11.18c2.94,5.27,6.7,10.29,10.11,15.37s6.45,10.18,8.11,15.31a38.52,38.52,0,0,1,1.58,9.54c.34,5.38.13,11.48.52,17.77a63.45,63.45,0,0,0,1.26,9.56,38.18,38.18,0,0,0,3.36,9.49,36.17,36.17,0,0,0,7.71,9.79,88.7,88.7,0,0,0,8.54,6.83,9.42,9.42,0,0,0-.14,1.6,9.55,9.55,0,0,0,1.15,4.52l40.29,75.09h0l2.63,4.9h0l93.94,175.07,4.48-7.8L360.3,312.94h0l43.72-76a10,10,0,0,0,1.35-5,9.73,9.73,0,0,0-.8-3.86A10.12,10.12,0,0,0,401,223.7a9.92,9.92,0,0,0-5.62-1.77h0l-1.73-2.8ZM86.66,142.4a61.81,61.81,0,0,1-3.92-6.74,22.54,22.54,0,0,1-2-5.87,54.89,54.89,0,0,1-.94-9.38,21.74,21.74,0,0,1,1.06-7.23,28.47,28.47,0,0,1,1.85-4.07c.56-1.07,1.21-2.23,1.87-3.56a35.56,35.56,0,0,0,2.74-7.29,45.44,45.44,0,0,0,1.28-10.49v-.34l0-.32s-.13-1.15-.13-2.78a26.28,26.28,0,0,1,1-7.24A11.48,11.48,0,0,1,90.75,74a5.86,5.86,0,0,1,1.9-1.88c1.63-1,4.33-2.43,7.52-4a165.31,165.31,0,0,1,16.38-6.91,80.35,80.35,0,0,1,7.88-2.38,26.31,26.31,0,0,1,5.76-.85,6.55,6.55,0,0,1,1,.06,1.5,1.5,0,0,1,.35.08,34.75,34.75,0,0,1,5.29,2.66,9.66,9.66,0,0,0,5.07,1.46,9,9,0,0,0,6.4-2.66,9.83,9.83,0,0,0,2.78-6.41,42,42,0,0,1,1-7.33,11.6,11.6,0,0,1,.82-2.38,2.82,2.82,0,0,1,.3-.5l0,0A160.69,160.69,0,0,1,169.73,32.4a95,95,0,0,1,11.84-5.58,39.33,39.33,0,0,1,11-2.68c1.44-.09,2.8-.14,4.07-.14a36.38,36.38,0,0,1,9,1,19.09,19.09,0,0,1,5.22,2.13A15.19,15.19,0,0,1,214,29.73a21.37,21.37,0,0,1,4,6.52c1.63,4,2.76,8.91,4,14.29a91.94,91.94,0,0,0,5.33,16.93,20.58,20.58,0,0,0,3.56,5.31,37.25,37.25,0,0,0,8.43,6.53c4.56,2.71,9.42,5,13.67,7.6a42.48,42.48,0,0,1,5.79,4.16A22.91,22.91,0,0,1,263.11,96a27.56,27.56,0,0,1,3.34,8.48,82.08,82.08,0,0,1,1.5,8.76l-8.43,3.13-1.25,32.84-30.2,30.19,9.6,9.59a81.06,81.06,0,0,0,18.55,13.88l-2.6,68L226,261.54l-19.35-52.73a10,10,0,0,0-3.83-4.9,10.14,10.14,0,0,0-5.65-1.71,9.89,9.89,0,0,0-3.58.65,10.27,10.27,0,0,0-3.25,2l-18.66,17.2,8.88,24.22-51.77-17.38c-.26-.08-.51-.16-.76-.22l-.12,0a9.14,9.14,0,0,0-2.2-.27,9.36,9.36,0,0,0-2.71.41c-1.53-1.09-3-2.18-4.41-3.26a50.7,50.7,0,0,1-5.71-5.07,24.2,24.2,0,0,1-3.92-5.37,30.77,30.77,0,0,1-2.94-9.6c-.82-5.27-.77-11.18-.87-17.19-.05-3-.15-6-.46-9.07a43.84,43.84,0,0,0-1.81-9A60.88,60.88,0,0,0,97.06,158C93.64,152.3,89.76,147.15,86.66,142.4ZM264.79,50.14A11.39,11.39,0,0,1,269.68,49a11.55,11.55,0,0,1,5.8,1.57,14.12,14.12,0,0,1,5,4.92l27.36,44.13-12.27,12.28a10,10,0,0,0-8.71-5,10.29,10.29,0,0,0-3.51.63l-5.77,2.14c-.07-.49-.13-1-.21-1.48a65.21,65.21,0,0,0-2-9,34.76,34.76,0,0,0-3.83-8.55,35.88,35.88,0,0,0-9.84-10,80.83,80.83,0,0,0-8.34-5.07c-2.83-1.53-5.55-2.93-8-4.32l14.87-17.6A13.51,13.51,0,0,1,264.79,50.14ZM384.3,113.72a70.45,70.45,0,0,1-20.81,49.94l-8.55,8.55,6.3-22.43a70.53,70.53,0,0,0,14-42,67.71,67.71,0,0,0-4.83-25.22,65.89,65.89,0,0,0-12-19.31L361,60.64l2.52,2.52A70.71,70.71,0,0,1,379.12,86.8,72.16,72.16,0,0,1,384.3,113.72Zm20.1,47.79-24.48,65.92-21.86,8.86,27.26-73.39a1.11,1.11,0,0,1,1-.72ZM126.69,238.77l141.19,47.39h0l80.71,27.09-48.3,84-14.53,25.28-7.91,13.75-6.86,12L261.91,464l-7.43,12.92-3.87-7.21-4.73-8.82-3.94-7.34-4.74-8.82-3.91-7.29-4.73-8.82-2.77-5.17-4.73-8.82-8.48-15.8L207.85,390l-4.61-8.58-4.73-8.82L195,366l-4.73-8.82-3.7-6.88-4.73-8.82-4.18-7.79-4.74-8.82-6.45-12L161.68,304Zm242,39.56-5,8.7h0l-1.56,2.72h0l-5,8.7h0l-3.43,5.95-75-25.16L395.32,232,375,267.35h0l-5,8.7h0l-1.31,2.28ZM183.34,224.9l13.75-12.68,0,0h0l.08,0h0l0,0,16.58,45.2-21.14-7.09Zm85.92-101.49,17.54-6.5h.05l.06,0h0V117l-.14,3.68-18.11,18.1Zm74.56,51.41-6.35.51-25.75,79.74-13.55,5.5,40-142.43L356,131.5ZM292.65,229.1a44.65,44.65,0,0,0,2.43,5.45L292,245.46Zm69.76-41.86-17.56,54.4-21,8.53,21.12-65.41,14.58-1.18h.25a2.72,2.72,0,0,1,1.09.22,2.82,2.82,0,0,1,1.23,1,2.74,2.74,0,0,1,.48,1.53A2.9,2.9,0,0,1,362.41,187.24Zm-52.05-7.11a60.17,60.17,0,0,1-15.95,3.78l7.31-58.35,18.71,18.71ZM291,130.59,284.32,184a57.2,57.2,0,0,1-17-3.93,55.7,55.7,0,0,1-15.94-9.8Zm-46.75,46.76a65.51,65.51,0,0,0,19.3,12,67.73,67.73,0,0,0,25.23,4.84,69.66,69.66,0,0,0,18.32-2.48l-2.92,10.41a72.27,72.27,0,0,1-9.3.62,70.75,70.75,0,0,1-50.15-20.82l-2.52-2.52Zm39,34.54-2.13,55.56-17,6.91-.64-.22,2.54-66.75A80.72,80.72,0,0,0,283.3,211.89Zm79.59-87.71-13.16-9.86L365,112.41A59.5,59.5,0,0,1,362.89,124.18Zm-36-3L325,128.05l-1.46,5.18-13.88-13.89L328.08,117ZM351.3,70.31a55.74,55.74,0,0,1,9.8,16A57.24,57.24,0,0,1,365,102.34l-52.23,6.54Zm17.85,107.4c-.09-.1-.18-.21-.28-.31a12.24,12.24,0,0,0-2.2-1.78l-.38-.62,4.27-4.27L367,167.2l3.54,3.53c.67-.66,1.3-1.35,1.94-2Z"/><polygon class="cls-2" points="344.63 264.27 348.85 255.2 374.98 267.35 395.32 231.97 278.71 279.24 353.68 304.4 357.1 298.45 333.57 287.51 337.79 278.44 362.1 289.75 363.66 287.03 338.72 275.43 342.93 266.36 368.67 278.33 369.98 276.05 344.63 264.27"/><polygon class="cls-2" points="214.41 279.65 218.6 288.73 166.42 312.82 172.87 324.85 222.42 301.01 226.75 310.02 177.61 333.67 181.79 341.46 231.45 317.56 235.79 326.57 186.52 350.28 190.22 357.16 239.69 333.36 244.03 342.37 194.95 365.98 198.51 372.62 249.35 348.16 253.68 357.17 203.24 381.44 207.84 390.02 258.38 365.7 262.72 374.72 212.58 398.84 221.06 414.64 268.91 391.62 273.25 400.63 225.79 423.46 228.56 428.63 276.27 405.67 280.61 414.69 233.29 437.45 237.2 444.74 285.31 421.59 285.76 422.52 300.3 397.25 244.15 297.06 267.88 286.16 126.69 238.77 161.68 303.99 214.41 279.65"/><polygon class="cls-2" points="245.88 460.9 270.99 448.22 277.85 436.27 241.94 453.56 245.88 460.9"/><polygon class="cls-2" points="254.48 476.93 261.91 464.01 250.61 469.72 254.48 476.93"/><polygon class="cls-3" points="348.85 255.2 344.63 264.27 369.98 276.05 369.98 276.05 374.98 267.35 374.98 267.35 348.85 255.2"/><polygon class="cls-3" points="342.93 266.36 338.72 275.43 363.66 287.03 363.66 287.03 368.67 278.33 368.67 278.33 342.93 266.36"/><polygon class="cls-3" points="337.79 278.44 333.57 287.51 357.1 298.45 357.1 298.45 362.1 289.75 362.1 289.75 337.79 278.44"/><polygon class="cls-3" points="218.6 288.73 214.41 279.65 161.68 303.99 166.42 312.82 218.6 288.73"/><polygon class="cls-3" points="226.75 310.02 222.42 301.01 172.87 324.85 177.61 333.67 226.75 310.02"/><polygon class="cls-3" points="235.79 326.57 231.45 317.56 181.79 341.46 186.52 350.28 235.79 326.57"/><polygon class="cls-3" points="244.03 342.37 239.69 333.36 190.22 357.16 194.95 365.98 244.03 342.37"/><polygon class="cls-3" points="253.68 357.17 249.35 348.16 198.51 372.62 203.24 381.44 253.68 357.17"/><polygon class="cls-3" points="262.72 374.72 258.38 365.7 207.84 390.02 212.58 398.84 262.72 374.72"/><polygon class="cls-3" points="268.91 391.62 221.06 414.64 225.79 423.46 273.25 400.63 268.91 391.62"/><polygon class="cls-3" points="276.27 405.67 228.56 428.63 233.29 437.45 280.61 414.69 276.27 405.67"/><polygon class="cls-3" points="237.2 444.74 241.94 453.56 277.85 436.27 285.76 422.52 285.31 421.59 237.2 444.74"/><polygon class="cls-3" points="250.61 469.72 261.91 464.01 270.99 448.22 245.88 460.9 250.61 469.72"/><polygon class="cls-3" points="244.15 297.06 300.3 397.25 348.59 313.25 267.88 286.16 267.88 286.16 244.15 297.06"/><path class="cls-3" d="M384.3,113.72a70.45,70.45,0,0,1-20.81,49.94l-8.55,8.55,6.3-22.43a70.53,70.53,0,0,0,14-42,67.71,67.71,0,0,0-4.83-25.22,65.89,65.89,0,0,0-12-19.31L361,60.64l2.52,2.52A70.71,70.71,0,0,1,379.12,86.8,72.16,72.16,0,0,1,384.3,113.72Z"/><path class="cls-3" d="M244.26,177.35a65.51,65.51,0,0,0,19.3,12,67.73,67.73,0,0,0,25.23,4.84,69.66,69.66,0,0,0,18.32-2.48l-2.92,10.41a72.27,72.27,0,0,1-9.3.62,70.75,70.75,0,0,1-50.15-20.82l-2.52-2.52Z"/></svg>