<svg xmlns="http://www.w3.org/2000/svg" viewBox="0 0 500 500"><defs><style>.cls-1,.cls-2,.cls-8{fill:#fff;}.cls-1,.cls-3,.cls-4,.cls-6,.cls-7{stroke:#fe4c00;}.cls-1,.cls-2,.cls-3,.cls-4,.cls-6,.cls-7{stroke-miterlimit:10;}.cls-1,.cls-3,.cls-4,.cls-7{stroke-width:10px;}.cls-2{stroke:#ffd617;stroke-width:11px;}.cls-3,.cls-5{fill:#ffd617;}.cls-4,.cls-6,.cls-7{fill:none;}.cls-6,.cls-7{stroke-linecap:round;}.cls-6{stroke-width:16px;}</style></defs><title>food</title><g id="Layer_1" data-name="Layer 1"><circle class="cls-1" cx="246.93" cy="243.5" r="223.56"/><circle class="cls-2" cx="244.71" cy="240.95" r="177.08"/><path class="cls-3" d="M299.24,61.9H438.67a0,0,0,0,1,0,0v8.75a57.57,57.57,0,0,1-57.57,57.57H356.8a57.57,57.57,0,0,1-57.57-57.57V61.9A0,0,0,0,1,299.24,61.9Z" transform="translate(145.09 -213.24) rotate(39.57)"/><path class="cls-1" d="M434.07,109.06c-16.78,20.3-47.95,22.24-69.63,4.32l-13.1-10.82c-21.67-17.91-25.64-48.89-8.87-69.19"/><line class="cls-4" x1="389.84" y1="69.31" x2="332.67" y2="67.6"/><line class="cls-4" x1="390.79" y1="70.08" x2="403.23" y2="125.91"/><line class="cls-4" x1="390.16" y1="70.84" x2="359.43" y2="108.03"/><path class="cls-5" d="M388.51,95.42A3.29,3.29,0,1,1,382.08,94c.39-1.78,2.7-5.48,4.48-5.09S388.9,93.64,388.51,95.42Z"/><path class="cls-5" d="M409.49,93.43a3.29,3.29,0,1,1-5.41,3.76c-1-1.5-2.17-5.71-.67-6.75S408.46,91.94,409.49,93.43Z"/><path class="cls-5" d="M369,82.67a3.29,3.29,0,0,1-3-5.88c1.63-.82,6-1.35,6.78.27S370.57,81.85,369,82.67Z"/><path class="cls-5" d="M360.87,61.79A3.29,3.29,0,0,1,363,55.57c1.72.6,5.12,3.33,4.52,5S362.59,62.39,360.87,61.79Z"/><circle class="cls-1" cx="272.54" cy="170.33" r="95.75"/><line class="cls-1" x1="204.66" y1="134.69" x2="207.01" y2="138.57"/><line class="cls-1" x1="223.86" y1="159.46" x2="216.69" y2="166.45"/><line class="cls-1" x1="269.75" y1="203.97" x2="272.7" y2="208.63"/><line class="cls-1" x1="226.24" y1="203.11" x2="215.69" y2="206.91"/><line class="cls-1" x1="316.75" y1="121.94" x2="322.66" y2="127.18"/><line class="cls-1" x1="270.52" y1="103.27" x2="266.52" y2="112"/><line class="cls-1" x1="330.94" y1="162.73" x2="341.31" y2="170.29"/><path class="cls-6" d="M305.67,198.87s18.62-1.11,15.74,16.85"/><path class="cls-6" d="M222.44,92.76s11.86,14.41-4.36,22.64"/><path class="cls-6" d="M241.22,172.73s6,17.67-12.12,19.61"/><path class="cls-6" d="M308.58,88.4s-10,15.78-22.87,3"/><path class="cls-6" d="M297.76,164.56s-18.13,4.39-18.48-13.8"/><path class="cls-1" d="M358.07,240.93l20.84-43.76s-10.53-13.9-8.19-24.33,12.41-19.4,22.07-14.17,12.81,17.1,17.44,16.85,16.11-10.33,25-8.67,25,23.67,5.61,36.61c-13.49,9-22.1,8.41-26.09,7.22a3.14,3.14,0,0,0-3.83,1.83L388.11,269Z"/><path class="cls-1" d="M338.87,272.63s-15.65,15.9-28.45,18.74-34.1-2.67-43-7.65S263,248,252.35,237.57s-65.27-35.86-123.77-12.88S95.83,310.55,109.93,338.2s15.08,44.05,22.74,54.92,93.47,63.19,161.49,21.63,74.49-100.29,80.29-111.7,10.14-20.48,14.5-27.46-24.26-35.14-36.26-36.93S345.54,265,338.87,272.63Z"/><rect class="cls-3" x="160.14" y="150.03" width="35.25" height="33.59" rx="6.72" transform="translate(232.25 -70.8) rotate(59.73)"/><path class="cls-4" d="M92.05,279.09s6.83,70.21,62.85,97.24,29,19.68,55.34,29.14,63.83,25.95,127.47-28"/><path class="cls-7" d="M173.4,240.63s3.54,74.21,34,137.59"/><path class="cls-7" d="M232.6,252.14s3.54,74.21,34,137.59"/><ellipse class="cls-8" cx="167.12" cy="62.37" rx="61.19" ry="33.92" transform="translate(-6.05 105.15) rotate(-34.34)"/><ellipse class="cls-5" cx="166.4" cy="55.79" rx="61.19" ry="26.52" transform="translate(-2.46 103.6) rotate(-34.34)"/><ellipse class="cls-4" cx="167.12" cy="62.37" rx="61.19" ry="33.92" transform="translate(-6.05 105.15) rotate(-34.34)"/><ellipse class="cls-8" cx="183.04" cy="51.49" rx="61.19" ry="33.92" transform="translate(2.86 112.24) rotate(-34.34)"/><ellipse class="cls-5" cx="178.87" cy="45.38" rx="61.19" ry="26.52" transform="translate(5.58 108.82) rotate(-34.34)"/><ellipse class="cls-4" cx="183.04" cy="51.49" rx="61.19" ry="33.92" transform="translate(2.86 112.24) rotate(-34.34)"/><line class="cls-1" x1="180.32" y1="37" x2="176.84" y2="47.53"/><line class="cls-1" x1="182.15" y1="55.75" x2="194.42" y2="56.1"/><line class="cls-1" x1="175.32" y1="54.39" x2="164.17" y2="62.78"/><ellipse class="cls-8" cx="120.23" cy="109.9" rx="61.19" ry="33.92" transform="translate(-34.54 160.69) rotate(-60.6)"/><ellipse class="cls-5" cx="116.67" cy="104.31" rx="61.19" ry="26.52" transform="translate(-31.48 154.75) rotate(-60.6)"/><ellipse class="cls-4" cx="120.23" cy="109.9" rx="61.19" ry="33.92" transform="translate(-34.54 160.69) rotate(-60.6)"/><ellipse class="cls-8" cx="129.69" cy="93.1" rx="61.19" ry="33.92" transform="translate(-15.09 160.38) rotate(-60.6)"/><ellipse class="cls-5" cx="123.25" cy="89.47" rx="61.19" ry="26.52" transform="translate(-15.2 152.92) rotate(-60.6)"/><ellipse class="cls-4" cx="129.69" cy="93.1" rx="61.19" ry="33.92" transform="translate(-15.09 160.38) rotate(-60.6)"/><line class="cls-1" x1="120.84" y1="81.31" x2="122.38" y2="92.29"/><line class="cls-1" x1="130.78" y1="97.32" x2="141.94" y2="92.21"/><line class="cls-1" x1="124.05" y1="99.11" x2="117.77" y2="111.57"/><ellipse class="cls-8" cx="79.97" cy="157.36" rx="33.92" ry="61.19" transform="translate(-1.16 0.59) rotate(-0.42)"/><ellipse class="cls-5" cx="74.11" cy="154.28" rx="26.52" ry="61.19" transform="translate(-1.14 0.55) rotate(-0.42)"/><ellipse class="cls-4" cx="79.97" cy="157.36" rx="33.92" ry="61.19" transform="translate(-1.16 0.59) rotate(-0.42)"/><ellipse class="cls-8" cx="79.83" cy="138.07" rx="33.92" ry="61.19" transform="translate(-1.02 0.59) rotate(-0.42)"/><ellipse class="cls-5" cx="72.43" cy="138.12" rx="26.52" ry="61.19" transform="translate(-1.02 0.54) rotate(-0.42)"/><ellipse class="cls-4" cx="79.83" cy="138.07" rx="33.92" ry="61.19" transform="translate(-1.02 0.59) rotate(-0.42)"/><line class="cls-1" x1="66.29" y1="132.25" x2="73.08" y2="141.01"/><line class="cls-1" x1="82.87" y1="141.19" x2="90.01" y2="131.21"/><line class="cls-1" x1="77.93" y1="146.1" x2="78.67" y2="160.03"/><path class="cls-7" d="M286.46,307s15.8,55.82,32.35,60.84"/><rect class="cls-3" x="126.58" y="156.5" width="35.25" height="33.59" rx="6.72" transform="translate(60.51 -36.04) rotate(17.97)"/><rect class="cls-3" x="107.1" y="179.9" width="35.25" height="33.59" rx="6.72" transform="matrix(0.5, 0.86, -0.86, 0.5, 231.74, -10.17)"/><path class="cls-1" d="M159.22,128.64l7.83,2.63a6.06,6.06,0,0,1,3.09,9.14L158.2,158.08a6.08,6.08,0,0,1-7.49,2.14l-3.46-1.54a6.07,6.07,0,0,1-3.15-7.81l7.57-18.75A6.06,6.06,0,0,1,159.22,128.64Z"/><path class="cls-1" d="M160,114.33l5.84-5.85a6.07,6.07,0,0,1,9.57,1.3l10.49,18.56a6.07,6.07,0,0,1-1.41,7.66l-2.92,2.41a6.06,6.06,0,0,1-8.39-.65l-13.43-15.12A6.06,6.06,0,0,1,160,114.33Z"/><path class="cls-1" d="M189,203.19l3.1-10.8a4.65,4.65,0,0,0-4.63-5.93l-20,.69a4.67,4.67,0,0,0-4.4,3.73l-1.25,6.3a4.63,4.63,0,0,0,3.6,5.45l18.14,3.82A4.64,4.64,0,0,0,189,203.19Z"/></g></svg>