<svg id="Layer_4" data-name="Layer 4" xmlns="http://www.w3.org/2000/svg" viewBox="0 0 333.29 333.29">
	<path
		d="M347.06,131.65a159.35,159.35,0,1,0,46.67,112.69A159.37,159.37,0,0,0,347.06,131.65Zm25.07,96-7.15,5c.28,3.45.41,6.94.41,10.46a133.12,133.12,0,1,1-143.5-132.71l3.36-7.76,2.31-.08c1.74,0,3.48-.09,5.23-.09a146.92,146.92,0,0,1,16.77,1,19.32,19.32,0,0,1,7.44-6.8l2-1,1.82,1.38a20,20,0,0,1,6.87,9.72q4.88,1.18,9.66,2.73a19,19,0,0,1,7.63,1.75l2.07,1v.79a145.84,145.84,0,0,1,31.28,17.25,20.42,20.42,0,0,1,14.09-5.83,18.68,18.68,0,0,1,4.59.57l2.18.55.47,2.23a19.57,19.57,0,0,1,.41,4,20.47,20.47,0,0,1-3.87,11.9,19.75,19.75,0,0,1,12.33,10.73l.92,2.09L348,158.06l-.24.27A145.72,145.72,0,0,1,376.53,222l.43,2.31-4.79,3.32Z"
		transform="translate(-67.75 -77.7)" style="fill:#fff" />
	<path
		d="M352.22,126.5A166.65,166.65,0,1,0,401,244.34,166.64,166.64,0,0,0,352.22,126.5ZM234.38,403.71A159.38,159.38,0,1,1,347.06,357,159.37,159.37,0,0,1,234.38,403.71Z"
		transform="translate(-67.75 -77.7)" style="fill:#fe4c00" />
	<path
		d="M107.12,243.07A124.52,124.52,0,0,0,133,319.19a20.19,20.19,0,0,1,1.46-5.11l4-9.37-14.71-14.64a17.37,17.37,0,0,1-3.33-20h0a17.37,17.37,0,0,1,24.5-7.24l9.17,5.48,13.34-31.08a38.91,38.91,0,0,1,25.84-68c1.1,0,2.18.06,3.31.16l21.73-50.59A125.1,125.1,0,0,0,107.12,243.07Z"
		transform="translate(-67.75 -77.7)" style="fill:#fff" />
	<path
		d="M248.25,324.61A16.13,16.13,0,0,0,270.34,319c.22-.37.42-.75.61-1.14a16.27,16.27,0,0,0-.35-14.73,15.19,15.19,0,0,0-2.42-3.32l-28.44,19.72Z"
		transform="translate(-67.75 -77.7)" style="fill:#fff" />
	<path
		d="M138.16,274.09a4.25,4.25,0,0,0-4.42,0,4.16,4.16,0,0,0-1.6,1.75h0a4.23,4.23,0,0,0,.82,4.89l11,11,4.84-11.26Z"
		transform="translate(-67.75 -77.7)" style="fill:#fff" />
	<path
		d="M179.09,186.59a25.55,25.55,0,0,0-9.7,11.67,25.16,25.16,0,0,0-1.64,5.83l1.1-.45,2.75,6.75L167.7,212a25.83,25.83,0,0,0,2.92,8.75,25,25,0,0,0,2.35,3.51l17.91-41.7A25.9,25.9,0,0,0,179.09,186.59Z"
		transform="translate(-67.75 -77.7)" style="fill:#fff" />
	<path
		d="M285.67,310.84a29.17,29.17,0,0,1-44.15,25l-13.6-8.13-37.32,25.9a27.35,27.35,0,0,1-8.67,4A125.13,125.13,0,0,0,357.37,243.07c0-1.71-.05-3.4-.12-5.1L279,292.27a28.7,28.7,0,0,1,3.11,4.59A29.4,29.4,0,0,1,285.67,310.84Zm8.75-17.38,1.29,8.21-3.61.57h0l-3.6.56-1.27-8.21Z"
		transform="translate(-67.75 -77.7)" style="fill:#fff" />
	<path
		d="M357.23,238c.06,1.69.11,3.38.11,5.11A125.14,125.14,0,0,1,181.93,357.63a27.56,27.56,0,0,1-25.19-5.73l-14.06-12.08h0l-2.86-2.46a20.19,20.19,0,0,1-7-15.31,19.32,19.32,0,0,1,.21-2.85,125.1,125.1,0,0,1,85.29-200.42l3.65-8.4a133.13,133.13,0,1,0,143.5,132.71c0-3.53-.14-7-.41-10.46Z"
		transform="translate(-67.75 -77.7)" style="fill:#ffd617;opacity:0.3700000047683716;isolation:isolate" />
	<path d="M239.58,123.56a35.72,35.72,0,0,1,7.29-3.64,21.08,21.08,0,0,1-.24-9.48q-6.66-.68-13.36-.73Z"
		transform="translate(-67.75 -77.7)" style="fill:#fff" />
	<path
		d="M283.65,125.77a30.47,30.47,0,0,1,7.56,9.11l.41.19a30.91,30.91,0,0,1,9.86-1.61,35.2,35.2,0,0,1,12.06,2.19,137.73,137.73,0,0,0-27.35-15.26A20.56,20.56,0,0,1,283.65,125.77Z"
		transform="translate(-67.75 -77.7)" style="fill:#fff" />
	<path
		d="M368,216.94a138.15,138.15,0,0,0-26-54.08,21,21,0,0,1-4.07,1.59,32.93,32.93,0,0,1,.45,5.25,29.94,29.94,0,0,1-.32,4.33,115.67,115.67,0,0,1,17.39,38.22Z"
		transform="translate(-67.75 -77.7)" style="fill:#fff" />
	<path
		d="M376.91,224.33l-.43-2.31a145.77,145.77,0,0,0-28.73-63.66c.07-.09.16-.18.24-.27l1.46-1.74-.93-2.08a19.74,19.74,0,0,0-12.32-10.7,20.52,20.52,0,0,0,3.87-11.9,19.5,19.5,0,0,0-.41-4l-.47-2.23-2.18-.56a19.16,19.16,0,0,0-4.59-.56,20.42,20.42,0,0,0-14.09,5.83,145.41,145.41,0,0,0-31.28-17.25v-.79l-2.07-1a19.21,19.21,0,0,0-7.63-1.75q-4.8-1.53-9.66-2.72a20,20,0,0,0-6.9-9.82L259,95.52l-2,1a19.42,19.42,0,0,0-7.45,6.8,146.79,146.79,0,0,0-16.77-1c-1.74,0-3.48,0-5.23.1l-2.31.08-3.29,7.76-3.64,8.4L196.5,169.39a38.28,38.28,0,0,1,7.59,1.46l23.64-55.61,14.84,32.54a71.37,71.37,0,0,1,4.61,45.74l6.62,3.64c.07-.25.14-.5.2-.73a18,18,0,0,0,6.08,1.08,18.85,18.85,0,0,0,7.68-1.7l.17-.09a20.48,20.48,0,0,0,1.68,3.3,17.7,17.7,0,0,0,7.58,6.73c-1.65.49-3.31,1-4.94,1.6l8.84,4.87a97.89,97.89,0,0,1,60.43,2.68l23.55,8.81-91.49,63.5a29.66,29.66,0,0,1,5.45,5.11L357.23,238l7.72-5.37,7.15-5h0Zm-99.06-26.85a10.64,10.64,0,0,1-2-2.4,16,16,0,0,1-2-5,28.32,28.32,0,0,1-.66-6.56,62.81,62.81,0,0,1,4-20.36,66.78,66.78,0,0,1,4-9.08,36,36,0,0,1,4.29-6.45,19.28,19.28,0,0,1,7.13-5.1,22.85,22.85,0,0,1,8.9-1.75A28,28,0,0,1,312,142.89c-.08.7-.12,1.41-.13,2.12a19.57,19.57,0,0,0,.41,4l.47,2.23.25.06-.12.16.92,2.08a20.06,20.06,0,0,0,16.84,11.59,23.85,23.85,0,0,1,.45,4.61A21.86,21.86,0,0,1,329.9,177a19.17,19.17,0,0,1-3.65,6.25h0a37.85,37.85,0,0,1-6.72,5.79,73.93,73.93,0,0,1-15.37,8.08A47.65,47.65,0,0,1,288,200.55a20.26,20.26,0,0,1-5.84-.78A11.45,11.45,0,0,1,277.85,197.48Zm-21.5-20a78.78,78.78,0,0,0-7.11-32.69l-6.57-14.44c.69-.5,1.4-1,2.13-1.39a28.42,28.42,0,0,1,5.15-2.33,19.45,19.45,0,0,0,4.22,4.37l1.81,1.38.24-.12v.2l2.06,1a19,19,0,0,0,8.06,1.76,20.64,20.64,0,0,0,12.25-4.1,9.77,9.77,0,0,1,.86.73,23,23,0,0,1,5.42,6.72,26.14,26.14,0,0,0-4.91,4.37,43.26,43.26,0,0,0-5.22,7.79,78.09,78.09,0,0,0-6.24,15.63c-.38,1.34-.72,2.7-1,4.06-.4,1.79-.73,3.59-1,5.38a57,57,0,0,0-.6,7.83,41.91,41.91,0,0,0,.29,4.88,12.22,12.22,0,0,1-6.05,1.76,11.53,11.53,0,0,1-4.66-1,78.92,78.92,0,0,0,.89-11.69Zm1.83-73a13.66,13.66,0,0,1,2.75,12.46,20.35,20.35,0,0,0-3.45,5.88c-.24.23-.48.45-.73.65a13.38,13.38,0,0,1-3.24-8.82A13.18,13.18,0,0,1,258.18,104.44Zm74.25,27.18h.38a13.33,13.33,0,0,1-3.36,8.75,13.72,13.72,0,0,1-2.85,2.47,20.83,20.83,0,0,0-6.43,2.14h-1a13.4,13.4,0,0,1,3.36-8.75A13.21,13.21,0,0,1,332.43,131.62Zm0,26.25h-.72a13.17,13.17,0,0,1-10-5.21,13.32,13.32,0,0,1,8.23-2.78h.73a13.12,13.12,0,0,1,10,5.21,13.32,13.32,0,0,1-8.23,2.8Zm-30.92-24.43a30.91,30.91,0,0,0-9.91,1.63l-.41-.19a30.35,30.35,0,0,0-7.57-9.11,20.07,20.07,0,0,0,2.55-5.37,138.56,138.56,0,0,1,27.35,15.27,34.87,34.87,0,0,0-12-2.21Zm-21.95-16.51a13.6,13.6,0,0,1-13.19,10.93,12.43,12.43,0,0,1-2.65-.28,13.64,13.64,0,0,1,13.2-10.94,12.09,12.09,0,0,1,2.61.31Zm-33.31-2.3a20.79,20.79,0,0,0,.67,5.26,36,36,0,0,0-7.29,3.65l-6.3-13.85a124.72,124.72,0,0,1,13.36.72,20.94,20.94,0,0,0-.47,4.24Zm72.25,83.63a70.7,70.7,0,0,0,7.49-5,41,41,0,0,0,5.72-5.21l-2.75-2.4,2.75,2.4a27,27,0,0,0,3.48-5.11A108.48,108.48,0,0,1,347,209.09L344.1,208a105,105,0,0,0-31.71-6.57C314.51,200.44,316.56,199.38,318.5,198.26ZM338.06,174a29.94,29.94,0,0,0,.32-4.33,32.93,32.93,0,0,0-.45-5.25,21,21,0,0,0,4.07-1.59,138.15,138.15,0,0,1,26,54.08l-12.52-4.69A115.67,115.67,0,0,0,338.06,174Z"
		transform="translate(-67.75 -77.7)" style="fill:#fe4c00" />
	<path
		d="M347,209.09a108.45,108.45,0,0,0-11.82-26.15,26.54,26.54,0,0,1-3.49,5.11l-2.75-2.4,2.75,2.4A40.7,40.7,0,0,1,326,193.3a69.23,69.23,0,0,1-7.48,5c-1.94,1.12-4,2.18-6.1,3.2A105,105,0,0,1,344.11,208Z"
		transform="translate(-67.75 -77.7)" style="fill:#fe4c00" />
	<path d="M240.81,224.91A105,105,0,0,1,257.2,214l-7.76-4.28a79.67,79.67,0,0,1-5,9.44Z"
		transform="translate(-67.75 -77.7)" style="fill:#fe4c00" />
	<path
		d="M277.23,205.69a17.64,17.64,0,0,1-7.58-6.73,20.48,20.48,0,0,1-1.68-3.3l-.18.09a18.8,18.8,0,0,1-7.67,1.7,18.33,18.33,0,0,1-6.09-1.07c-.05.25-.13.5-.19.72l18.45,10.16C273.92,206.71,275.56,206.18,277.23,205.69Z"
		transform="translate(-67.75 -77.7)" style="fill:#fe4c00" />
	<path
		d="M266.17,188.41a42.21,42.21,0,0,1-.29-4.89,56.83,56.83,0,0,1,.6-7.82,5.14,5.14,0,0,1-1.41-3.47,2,2,0,0,1,2.05-2h0l.35,0c.31-1.36.65-2.71,1-4.06a78,78,0,0,1,6.24-15.62,43.29,43.29,0,0,1,5.19-7.79,26.2,26.2,0,0,1,4.92-4.37,23.19,23.19,0,0,0-5.42-6.72c-.28-.24-.57-.47-.86-.73a20.64,20.64,0,0,1-12.25,4.1,19.22,19.22,0,0,1-8-1.76l-2.07-1v-.21l-.24.12L254.16,131a19.71,19.71,0,0,1-4.22-4.38,28.77,28.77,0,0,0-5.15,2.34,22.63,22.63,0,0,0-2.12,1.38l6.56,14.44a78.53,78.53,0,0,1,6.23,44.38,11.48,11.48,0,0,0,4.65,1A12.32,12.32,0,0,0,266.17,188.41Zm1.46-45.17a2,2,0,0,1,2,2v0c0,1.11-1,3.59-2.09,3.57s-1.95-2.56-1.92-3.65a2,2,0,0,1,2-2Zm-14.69,4.65c-1.11,0-1.94-2.55-1.92-3.64a2,2,0,1,1,4,.1h0c-.05,1.09-1,3.59-2.12,3.54Zm5,10.85a2,2,0,0,1,2.05-2,2,2,0,0,1,2,2.06h0c0,1.1-1,3.58-2.1,3.55s-2-2.55-1.94-3.66Z"
		transform="translate(-67.75 -77.7)" style="fill:#fff" />
	<path
		d="M253.51,114.65a13.4,13.4,0,0,0,3.24,8.82c.25-.21.49-.43.73-.65a20.54,20.54,0,0,1,3.45-5.89,13.66,13.66,0,0,0-2.75-12.46A13.2,13.2,0,0,0,253.51,114.65Z"
		transform="translate(-67.75 -77.7)" style="fill:#fff" />
	<path
		d="M268.62,119.57a13.36,13.36,0,0,0-4.93,8,12.44,12.44,0,0,0,2.65.29,13.62,13.62,0,0,0,13.19-10.94,12.34,12.34,0,0,0-2.64-.29A13.42,13.42,0,0,0,268.62,119.57Z"
		transform="translate(-67.75 -77.7)" style="fill:#fff" />
	<path d="M253.05,142.28a2,2,0,0,0-2.06,1.95h0c0,1.11.81,3.65,1.92,3.65s2.07-2.45,2.09-3.56A2,2,0,0,0,253.05,142.28Z"
		transform="translate(-67.75 -77.7)" style="fill:#ffd617" />
	<path d="M267.47,148.86c1.1,0,2.06-2.46,2.09-3.57a2,2,0,0,0-4-.09h0C265.52,146.3,266.36,148.83,267.47,148.86Z"
		transform="translate(-67.75 -77.7)" style="fill:#ffd617" />
	<path d="M261.92,158.88a2,2,0,0,0-4-.1c0,1.11.81,3.65,1.91,3.65S261.89,160,261.92,158.88Z"
		transform="translate(-67.75 -77.7)" style="fill:#ffd617" />
	<path d="M265.07,172.23a5.39,5.39,0,0,0,1.41,3.47q.39-2.7,1-5.39l-.35,0a2,2,0,0,0-2.05,2Z"
		transform="translate(-67.75 -77.7)" style="fill:#ffd617" />
	<path
		d="M304.12,197.08A73.43,73.43,0,0,0,319.49,189a37.5,37.5,0,0,0,6.72-5.79h0a19,19,0,0,0,3.65-6.25,21.61,21.61,0,0,0,1.21-7.26,24.65,24.65,0,0,0-.44-4.61,20.08,20.08,0,0,1-16.85-11.59l-.92-2.08.13-.16-.26-.06-.46-2.23a19.14,19.14,0,0,1-.29-6.08,28.07,28.07,0,0,0-10.51-2.14,22.87,22.87,0,0,0-8.91,1.75,19.44,19.44,0,0,0-7.13,5.1,37.09,37.09,0,0,0-4.29,6.45,69.35,69.35,0,0,0-4,9.08,62.66,62.66,0,0,0-4,20.36,28.87,28.87,0,0,0,.66,6.56,15.75,15.75,0,0,0,2,5,10.35,10.35,0,0,0,2,2.4,11.45,11.45,0,0,0,4.26,2.29,20.21,20.21,0,0,0,5.84.78A47.64,47.64,0,0,0,304.12,197.08Zm-18.61-28.91c-1-.5-.64-3.14-.13-4.13a2,2,0,0,1,3.62,1.73l-.06.12C288.44,166.9,286.5,168.68,285.51,168.17ZM293,150a2,2,0,0,1,.63,2.77c-.59.94-2.69,2.58-3.65,2s-.35-3.19.24-4.13A2,2,0,0,1,293,150Zm3.33,39.92c-.73.81-3.1,2.05-3.92,1.31s.21-3.2,1-4a2,2,0,0,1,3,2.71Zm3.47-14.87c-.73.82-3.1,2.06-3.92,1.3s.21-3.2,1-4a2,2,0,1,1,3,2.66Zm4.34-15.46c-.73.82-3.1,2.06-3.92,1.31s.21-3.2,1-4a2,2,0,1,1,3,2.71ZM310.65,186c-1,.41-3.69.51-4.1-.52s1.58-2.79,2.61-3.2a2,2,0,0,1,1.71,3.63l-.25.09Zm3.82-16.08c-.73.82-3.1,2.06-3.92,1.3s.21-3.2,1-4a2,2,0,1,1,3,2.71Zm7.62,11.81c-1.07.28-3.72,0-4-1s1.91-2.58,3-2.86a2,2,0,1,1,1,3.88Zm-35.73-.46c-.73.82-3.1,2.06-3.92,1.31s.21-3.2,1-4a2,2,0,0,1,3,2.66Z"
		transform="translate(-67.75 -77.7)" style="fill:#fff" />
	<path
		d="M319.16,145h1a20.72,20.72,0,0,1,6.44-2.19,14.09,14.09,0,0,0,2.83-2.45,13.38,13.38,0,0,0,3.36-8.75h-.38a13.24,13.24,0,0,0-9.89,4.64A13.41,13.41,0,0,0,319.16,145Z"
		transform="translate(-67.75 -77.7)" style="fill:#fff" />
	<path
		d="M330.67,149.89h-.73a13.22,13.22,0,0,0-8.22,2.79,13.16,13.16,0,0,0,10,5.2h.73a13.29,13.29,0,0,0,8.22-2.78A13.15,13.15,0,0,0,330.67,149.89Z"
		transform="translate(-67.75 -77.7)" style="fill:#fff" />
	<path d="M290.24,150.65c-.59.94-1.17,3.54-.24,4.13s3-1.05,3.65-2a2,2,0,0,0-3.39-2.14Z"
		transform="translate(-67.75 -77.7)" style="fill:#ffd617" />
	<path d="M301.18,156.88c-.73.82-1.78,3.27-1,4s3.16-.49,3.92-1.3a2,2,0,0,0-3-2.72Z"
		transform="translate(-67.75 -77.7)" style="fill:#ffd617" />
	<path d="M288.94,165.89a2,2,0,0,0-3.5-2l-.06.12c-.51,1-.86,3.65.13,4.13S288.44,166.9,288.94,165.89Z"
		transform="translate(-67.75 -77.7)" style="fill:#ffd617" />
	<path d="M311.51,167.17c-.73.82-1.77,3.28-1,4s3.17-.49,3.92-1.31a2,2,0,0,0-3-2.71Z"
		transform="translate(-67.75 -77.7)" style="fill:#ffd617" />
	<path d="M296.84,172.36c-.73.81-1.78,3.27-1,4s3.17-.48,3.92-1.3a2,2,0,1,0-2.91-2.76Z"
		transform="translate(-67.75 -77.7)" style="fill:#ffd617" />
	<path d="M283.41,178.53c-.73.81-1.78,3.27-1,4s3.17-.49,3.92-1.3a2,2,0,0,0-2.91-2.77Z"
		transform="translate(-67.75 -77.7)" style="fill:#ffd617" />
	<path d="M293.37,187.23c-.73.82-1.78,3.27-1,4s3.17-.5,3.92-1.31a2,2,0,0,0-3-2.71Z"
		transform="translate(-67.75 -77.7)" style="fill:#ffd617" />
	<path d="M321.07,177.84c-1.08.28-3.27,1.79-3,2.86s2.92,1.3,4,1a2,2,0,0,0-1-3.88Z"
		transform="translate(-67.75 -77.7)" style="fill:#ffd617" />
	<path d="M309.16,182.21c-1,.41-3,2.19-2.61,3.21s3.07.93,4.1.52a2,2,0,1,0-1.21-3.82,1.84,1.84,0,0,0-.25.09Z"
		transform="translate(-67.75 -77.7)" style="fill:#ffd617" />
	<path d="M164,348.19a20.38,20.38,0,0,0,22.44-.54l34.6-24-30.42-18.23L178,325.63l7.75,7.71-9.27,9.31-5.6-5.59Z"
		transform="translate(-67.75 -77.7)" style="fill:#fff" />
	<path
		d="M315,230.84l-6.33,11.5L265,218.22a97.94,97.94,0,0,0-23.24,15.54l-14.53,13.07-5.46,8.75,11.86,7.19,1.46-9.55,7.21,1.12-1.94,12.52,31.35,19c.68.41,1.32.85,2,1.3l91.53-63.52-23.55-8.82a97.92,97.92,0,0,0-60.44-2.68l33.92,18.69ZM268,230.48h7.29v12.59H268Zm1.92,46.66-3.65-7.86,6.62-3.06,3.65,7.86-3.31,1.53h0Z"
		transform="translate(-67.75 -77.7)" style="fill:#fff" />
	<path d="M232.88,315.42l29-20.11-47.12-28.58-17.21,27.59ZM224,296l-7,1.65-.83-3.55h0l-.84-3.55,7-1.64Z"
		transform="translate(-67.75 -77.7)" style="fill:#fff" />
	<path
		d="M227.92,327.74,221,323.67l-34.6,24a20.36,20.36,0,0,1-22.44.54l6.92-11.1-5.3-5.28-7.21,11.52L143.79,329.2a10,10,0,0,1-2.25-11.13l-3.35-1.46,3.35,1.46,3.06-7.2-6.17-6.16-4,9.36a20.23,20.23,0,0,0-1.46,5.1,18.21,18.21,0,0,0-.2,2.85,20.21,20.21,0,0,0,7,15.32l2.87,2.46h0l14.06,12.08a27.82,27.82,0,0,0,33.85,1.74Z"
		transform="translate(-67.75 -77.7)" style="fill:#fe4c00" />
	<path d="M239.75,319.52l28.44-19.72a16.46,16.46,0,0,0-3.36-2.7l-2.92-1.79-29,20.11Z"
		transform="translate(-67.75 -77.7)" style="fill:#fe4c00" />
	<path
		d="M241.68,233.76a98.15,98.15,0,0,1,23.24-15.54L257.2,214a105.11,105.11,0,0,0-16.39,10.94l3.61-5.78a80.46,80.46,0,0,0,5-9.44L243,206.16a71.28,71.28,0,0,1-4.8,9.11L215.46,251.8l6.24,3.78,5.46-8.75Z"
		transform="translate(-67.75 -77.7)" style="fill:#fe4c00" />
	<path d="M247.22,193.49a71.37,71.37,0,0,0-4.61-45.74l-14.84-32.54L204.1,170.82a38.28,38.28,0,0,1,7.83,3.25Z"
		transform="translate(-67.75 -77.7)" style="fill:#fff" />
	<polygon
		points="123.56 212.88 140.77 185.25 124.6 175.44 116.37 179.38 114.79 176.08 114.79 176.08 114.79 176.08 113.22 172.79 117.15 170.92 106.15 164.25 93.19 194.74 123.56 212.88"
		style="fill:#fff" />
	<path
		d="M238.23,215.28a72,72,0,0,0,4.8-9.11l-28.11-15.49-3.34.8h0l-3.55.84-1.46-6.26-.9-.49A25.47,25.47,0,0,0,199,183l-19.84,46.66c.24.16.47.33.72.48l35.65,21.62Zm-27.35.37h7.64v7.29h-7.64Z"
		transform="translate(-67.75 -77.7)" style="fill:#fff" />
	<polygon points="116.61 224.03 88 206.93 82.38 220.16 104.99 242.68 116.61 224.03" style="fill:#fff" />
	<path d="M141.54,318.08l-3.35-1.46,3.35,1.46a10,10,0,0,0,2.25,11.13l14.62,14.15,7.21-11.56-21-20.93Z"
		transform="translate(-67.75 -77.7)" style="fill:#fff" />
	<path d="M160.94,272.44l13-30.49-.88-.54a37.46,37.46,0,0,1-5.62-4.16l-13.35,31.08Z"
		transform="translate(-67.75 -77.7)" style="fill:#fe4c00" />
	<polygon points="122.87 227.76 116.61 224.03 104.99 242.68 110.29 247.95 122.87 227.76" style="fill:#fe4c00" />
	<polygon points="81.08 202.8 76.25 214.06 82.38 220.16 88 206.93 81.08 202.8" style="fill:#fe4c00" />
	<path
		d="M193.23,182.35c-.77,0-1.55.05-2.31.12L173,224.18a25.65,25.65,0,0,0,6.09,5.53L199,183.05A25.65,25.65,0,0,0,193.23,182.35Z"
		transform="translate(-67.75 -77.7)" style="fill:#fe4c00" />
	<polygon points="123.56 212.88 129.81 216.62 147.01 189.03 140.77 185.25 123.56 212.88" style="fill:#fe4c00" />
	<path
		d="M171.93,175.56A38.94,38.94,0,0,0,173,241.41l.88.54,11,6.67,5.52-2.64,3.14,6.56-1.21.59,16.17,9.8,6.23,3.79,47.12,28.57,2.91,1.8a15.63,15.63,0,0,1,3.36,2.7,14.87,14.87,0,0,1,2.42,3.32,16,16,0,0,1-22.34,21.48l-8.51-5.1-6.86-4.11-35.31-21.06-6.26-3.74-30.34-18.14-6.89-4.11-9.16-5.48a17.38,17.38,0,0,0-24.5,7.24h0a17.35,17.35,0,0,0,3.32,20l14.72,14.62,6.17,6.15,21,20.93,5.3,5.28,5.6,5.58,9.27-9.3L178,325.64l-5.29-5.26-22.61-22.52-6.13-6.1-11-11a4.24,4.24,0,0,1-.81-4.89h0a4.14,4.14,0,0,1,1.59-1.75,4.33,4.33,0,0,1,2.24-.63,4.2,4.2,0,0,1,2.18.61l10.68,6.38,6.92,4.13,28.61,17.09,6.26,3.75L221,323.67l6.88,4.11,13.6,8.13A29.19,29.19,0,0,0,279,292.3a29.61,29.61,0,0,0-5.45-5.1c-.64-.45-1.28-.89-2-1.3l-31.35-19-.86,5.54-3.6-.56h0l-3.61-.56,1.32-8.51-11.85-7.19-6.24-3.78-35.61-21.64c-.25-.15-.48-.32-.73-.48a25.65,25.65,0,0,1-6.09-5.53,25.08,25.08,0,0,1-2.35-3.52,25.83,25.83,0,0,1-2.92-8.75l-5.37,2.19L161,210.73h0l-1.37-3.35,8.13-3.29a25.16,25.16,0,0,1,1.64-5.83,25.55,25.55,0,0,1,9.7-11.67,26,26,0,0,1,11.83-4.09c.76-.07,1.54-.12,2.31-.12a26,26,0,0,1,12.4,3.22l.9.49-1.28-5.4,7.08-1.69,2.79,11.67-.2.05L243,206.2l6.41,3.53,7.76,4.28,7.72,4.25,43.75,24.12,6.34-11.5h0L281.08,212.2l-8.84-4.87-18.45-10.16-6.62-3.65-35.25-19.41a39,39,0,0,0-15.42-4.68c-1.11-.1-2.19-.17-3.31-.17A39.2,39.2,0,0,0,171.93,175.56Z"
		transform="translate(-67.75 -77.7)" style="fill:#ffd617" />
	<rect x="200.22" y="152.78" width="7.29" height="12.59" style="fill:#fe4c00" />
	<rect x="143.13" y="137.95" width="7.64" height="7.29" style="fill:#fe4c00" />
	<polygon
		points="140.28 114.62 143.83 113.78 147.17 112.98 147.38 112.93 144.59 101.27 137.51 102.96 138.79 108.36 140.28 114.62"
		style="fill:#fe4c00" />
	<polygon
		points="167.28 175.53 165.8 185.08 164.49 193.59 168.09 194.14 171.7 194.71 172.55 189.17 174.49 176.64 167.28 175.53"
		style="fill:#fe4c00" />
	<polygon
		points="113.22 172.79 114.79 176.08 116.37 179.38 124.6 175.44 125.81 174.86 122.67 168.28 117.15 170.92 113.22 172.79"
		style="fill:#fe4c00" />
	<polygon points="208.75 196.38 205.12 188.51 198.5 191.58 202.14 199.44 205.44 197.91 208.75 196.38"
		style="fill:#fe4c00" />
	<polygon
		points="101.1 125.9 100 126.35 91.84 129.68 93.21 133.05 94.59 136.43 99.95 134.24 103.86 132.65 101.1 125.9"
		style="fill:#fe4c00" />
	<polygon points="224.36 224.53 227.97 223.97 226.68 215.76 219.47 216.89 220.76 225.1 224.36 224.53"
		style="fill:#fe4c00" />
	<polygon points="148.47 216.32 149.3 219.88 156.28 218.23 154.61 211.13 147.63 212.77 148.47 216.32"
		style="fill:#fe4c00" /></svg>