<svg id="ba144ea6-6349-4ee5-b090-440c0345f6cd" data-name="Layer 1" xmlns="http://www.w3.org/2000/svg" viewBox="0 0 329.85 319.69"><g id="a868c697-ee37-407e-911c-62b83a3c4fea" data-name="g44"><path id="bbc541c1-d30f-4f32-9b17-59a08231cd7c" data-name="path4" d="M342.27,134.76a147.52,147.52,0,0,0-208.63,0c-.93.93-1.81,1.9-2.72,2.85l68.72-13.69a118.55,118.55,0,0,1,38.69-7.71l45.91-9.14,3.63,18.22A118.91,118.91,0,0,1,326.4,318.76l.91,4.57-7.4,1.47a118.38,118.38,0,0,1-55,26.9,82.47,82.47,0,0,1-81,.19l-32.61,6.5a147.5,147.5,0,0,0,191-223.63Z" transform="translate(-67.94 -79.22)" style="fill:#fff"/><path id="a98901ad-b050-42c8-bea5-25959a0c1dfd" data-name="path6" d="M351,126a159.86,159.86,0,0,0-226.07,0,162.19,162.19,0,0,0-13.58,15.46l-43.39,8.64,12.4,62.2A160,160,0,0,0,102.6,324.12L111,366.4l24.26-4.83A159.84,159.84,0,0,0,351,126ZM143.31,349.88h0l-7.77,1.56-.12-.65-16.1,3.2L80.38,158.44,275.93,119.5,278,130a80.88,80.88,0,0,0-15-1.4c-20.89,0-40.09,7.9-55.31,21a92.59,92.59,0,0,0-8.68,8.48,97.66,97.66,0,0,0-8.61,11.11c-.2.3-.38.61-.58.9a90.15,90.15,0,0,0-29.64,22C144,210.21,134,235.11,134,262.54c0,.17,0,.32,0,.49a108.7,108.7,0,0,0,8.28,41.37A101.31,101.31,0,0,0,160.21,333a92,92,0,0,0,11.28,10.63L151,347.71l.12.63ZM306.52,303.4a109,109,0,0,0,7.88-40.87c0-27.42-10-52.33-26.22-70.45a94.76,94.76,0,0,0-10.13-9.72,5,5,0,0,1,.46-.26,9,9,0,0,1,3.92-.84,8.37,8.37,0,0,1,4.81,1.36,3.46,3.46,0,0,1,.93,1,1.06,1.06,0,0,1,.15.49h10.56a11.52,11.52,0,0,0-1.6-5.81,14.67,14.67,0,0,0-6.28-5.64,19.52,19.52,0,0,0-8.57-1.92,18.85,18.85,0,0,0-11,3.37,15.21,15.21,0,0,0-2.17,1.92,82.26,82.26,0,0,0-61.56-11.69c14.43-15.61,33.88-25.1,55.32-25.11,21.83,0,41.62,9.83,56.13,26s23.52,38.54,23.52,63.39-9,47.26-23.52,63.39a83.3,83.3,0,0,1-12.64,11.46ZM314.88,315,305,317a88.9,88.9,0,0,0,9.11-6.06Zm-11-52.51c0,24.84-9,47.26-23.52,63.39s-34.3,26-56.13,26-41.62-9.82-56.13-26-23.53-38.54-23.53-63.39,9.05-47.26,23.53-63.4,34.29-26,56.13-26,41.62,9.83,56.13,26S303.85,237.69,303.85,262.53Zm38.42,80.85a147.49,147.49,0,0,1-191,15l32.61-6.5a82.47,82.47,0,0,0,81-.19A91.24,91.24,0,0,0,288.19,333c.65-.72,1.26-1.48,1.9-2.22l29.81-5.94,7.4-1.47-.91-4.57-.12-.62-3-15.21c1.29-1.29,2.56-2.59,3.77-3.95,16.27-18.12,26.23-43,26.23-70.44s-10-52.33-26.23-70.45A89,89,0,0,0,289.38,133l-1.53-7.69-3.63-18.22-45.91,9.14-38.69,7.71L130.9,137.62c.9-1,1.79-1.92,2.72-2.85A147.52,147.52,0,0,1,342.27,343.38Z" transform="translate(-67.94 -79.22)" style="fill:#fe4c00"/><path id="b5b98f61-c823-49d4-8892-9dac5652fdc9" data-name="path8" d="M287.85,125.3l1.53,7.69A89.08,89.08,0,0,1,327,158.11c16.27,18.12,26.23,43,26.23,70.45S343.28,280.89,327,299c-1.21,1.36-2.48,2.67-3.77,3.95l3,15.21.12.62A118.92,118.92,0,0,0,287.85,125.3Z" transform="translate(-67.94 -79.22)" style="fill:#ffd617"/><path id="b089f21e-81b2-4225-b598-80baf12735e3" data-name="path10" d="M238.32,116.21a118.55,118.55,0,0,0-38.69,7.71Z" transform="translate(-67.94 -79.22)" style="fill:#ffd617"/><path id="aee0ad7b-6716-4765-8972-6d636e92cde1" data-name="path12" d="M290.09,330.75c-.63.74-1.25,1.5-1.9,2.22a91.41,91.41,0,0,1-23.3,18.74,118.47,118.47,0,0,0,55-26.9Z" transform="translate(-67.94 -79.22)" style="fill:#ffd617"/><path id="bdd71ae1-2f97-44ca-a715-5876cce15b30" data-name="path14" d="M207.72,149.63c15.22-13.1,34.42-21,55.31-21a82.63,82.63,0,0,1,15,1.4l-2.1-10.54-195.55,39L119.32,354l16.1-3.2-36-179.61Z" transform="translate(-67.94 -79.22)" style="fill:#fff"/><path id="a79db1ad-437b-48bb-b4ad-7b0d9a995b2a" data-name="path16" d="M171.49,343.61A94.34,94.34,0,0,1,160.21,333a101.31,101.31,0,0,1-17.94-28.59L151,347.7Z" transform="translate(-67.94 -79.22)" style="fill:#fff"/><path id="ae8589e3-8179-4932-8c54-12f940baecde" data-name="path18" d="M314.88,315l-.81-4.09A88.9,88.9,0,0,1,305,317Z" transform="translate(-67.94 -79.22)" style="fill:#fff"/><path id="ba917a41-d178-42d6-8e5c-7064eaa04592" data-name="path20" d="M134,263c0-.17,0-.32,0-.49,0-27.42,10-52.33,26.23-70.45a90.15,90.15,0,0,1,29.64-22c.2-.29.38-.6.58-.9l-72.34,14.4Z" transform="translate(-67.94 -79.22)" style="fill:#fff"/><path id="aaef26af-2d50-4570-9528-36114b149dde" data-name="path22" d="M142.27,304.39A108.89,108.89,0,0,1,134,263l-15.9-79.39,72.34-14.4A97.66,97.66,0,0,1,199,158.12a92.59,92.59,0,0,1,8.68-8.48L99.46,171.19l36,179.61.12.65,7.77-1.56h0l7.77-1.55-.12-.63Z" transform="translate(-67.94 -79.22)" style="fill:#ffd617"/><path id="a0d9911a-b382-41ed-9fff-cd9f13f1ddbb" data-name="path24" d="M319.16,291.94c14.48-16.13,23.52-38.54,23.52-63.39s-9-47.26-23.52-63.39-34.3-26-56.13-26c-21.44,0-40.89,9.5-55.32,25.11a81.71,81.71,0,0,1,16.49-1.69A83.25,83.25,0,0,1,269.27,176a15.21,15.21,0,0,1,2.17-1.92,18.85,18.85,0,0,1,11-3.37,19.49,19.49,0,0,1,8.57,1.92,14.67,14.67,0,0,1,6.28,5.64,11.52,11.52,0,0,1,1.6,5.81H288.32a1,1,0,0,0-.15-.49,3.75,3.75,0,0,0-.93-1,8.37,8.37,0,0,0-4.81-1.36,9.17,9.17,0,0,0-3.92.84,5,5,0,0,0-.46.26,93.83,93.83,0,0,1,10.13,9.72c16.26,18.12,26.22,43,26.22,70.45a109,109,0,0,1-7.88,40.87,83.3,83.3,0,0,0,12.64-11.46Zm6.61-65.51,8.79,5.86L328.08,242l-4.39-2.93-4.4-2.93Z" transform="translate(-67.94 -79.22)" style="fill:#fff"/><path id="a68848c8-3521-4feb-81eb-fb64147cc1f7" data-name="path26" d="M224.2,173.17c-21.84,0-41.62,9.83-56.13,26s-23.53,38.55-23.53,63.4,9.05,47.26,23.53,63.39,34.29,26,56.13,26,41.62-9.82,56.13-26,23.52-38.54,23.52-63.39-9-47.26-23.52-63.4S246,173.17,224.2,173.17Zm17,28.23,9.71,4.16L246,216.88l-4.85-2.08-4.85-2.08ZM171.55,237a1,1,0,0,0-.16.49H160.82a11.43,11.43,0,0,1,1.61-5.81,13.84,13.84,0,0,1,3.86-4.19,18.76,18.76,0,0,1,11-3.37,19.42,19.42,0,0,1,8.56,1.92,14.57,14.57,0,0,1,6.29,5.64,11.52,11.52,0,0,1,1.6,5.81H183.16A.9.9,0,0,0,183,237a3.58,3.58,0,0,0-.93-1,8.33,8.33,0,0,0-4.8-1.36,9.07,9.07,0,0,0-3.93.84,4.25,4.25,0,0,0-1.79,1.48Zm16.25,74.9-4.39,2.93-6.47-9.71,8.79-5.86,6.47,9.71Zm5-49.41L189.55,256l9.44-4.73,3.23,6.48-4.72,2.36Zm32.88,54.27h-5.28a.9.9,0,0,0-.16-.49,3.75,3.75,0,0,0-.93-1,8.33,8.33,0,0,0-4.8-1.36,9,9,0,0,0-3.92.84,4.28,4.28,0,0,0-1.81,1.47,1,1,0,0,0-.16.49H198a11.43,11.43,0,0,1,1.6-5.81,14,14,0,0,1,3.86-4.19,18.79,18.79,0,0,1,11-3.37,19.42,19.42,0,0,1,8.56,1.92,14.54,14.54,0,0,1,6.28,5.64,11.53,11.53,0,0,1,1.61,5.81h-5.28ZM260.41,273a5,5,0,0,0-.76-2.65,9.11,9.11,0,0,0-2.57-2.72,17.58,17.58,0,0,0-10.24-3,18.94,18.94,0,0,0-8.21,1.79,10.5,10.5,0,0,0-4.59,3.93,5.25,5.25,0,0,0-.77,2.65H222.7a15.8,15.8,0,0,1,2.2-8,19.89,19.89,0,0,1,5.5-5.95,28.17,28.17,0,0,1,16.43-5A29.27,29.27,0,0,1,259.69,257a21.06,21.06,0,0,1,9.07,8.08,15.79,15.79,0,0,1,2.19,8H260.41Zm17.52,32.1-4.39-2.93-4.4-2.93,6.48-9.71,8.78,5.86Z" transform="translate(-67.94 -79.22)" style="fill:#fff"/><path id="eaa9fb9a-fa23-48e1-bfe8-5339618cdf13" data-name="path28" d="M182.08,236a3.32,3.32,0,0,1,.93,1,1,1,0,0,1,.16.49h10.57a11.43,11.43,0,0,0-1.6-5.81,14.57,14.57,0,0,0-6.29-5.64,19.45,19.45,0,0,0-8.56-1.92,18.76,18.76,0,0,0-11,3.37,13.84,13.84,0,0,0-3.86,4.19,11.53,11.53,0,0,0-1.61,5.81H171.4a.9.9,0,0,1,.16-.49,4.14,4.14,0,0,1,1.81-1.47,8.9,8.9,0,0,1,3.93-.84,8.24,8.24,0,0,1,4.78,1.35Z" transform="translate(-67.94 -79.22)" style="fill:#fe4c00"/><path id="b0a7f846-a27c-4c4c-bf0a-cc22c0eb39ef" data-name="path30" d="M268.78,265a21.06,21.06,0,0,0-9.07-8.08,29.41,29.41,0,0,0-12.86-2.87,28.19,28.19,0,0,0-16.43,5,19.89,19.89,0,0,0-5.5,5.95,15.7,15.7,0,0,0-2.2,8h10.57a5.06,5.06,0,0,1,.77-2.65,10.63,10.63,0,0,1,4.59-3.93,18.65,18.65,0,0,1,8.21-1.79,17.65,17.65,0,0,1,10.24,3,9.23,9.23,0,0,1,2.57,2.72,5.34,5.34,0,0,1,.76,2.65H271a16.16,16.16,0,0,0-2.22-8Z" transform="translate(-67.94 -79.22)" style="fill:#fe4c00"/><path id="eee3b5d2-3002-4bd8-8687-3f50e86681c4" data-name="path32" d="M223.06,305.28a19.45,19.45,0,0,0-8.56-1.92,18.79,18.79,0,0,0-11,3.37,14,14,0,0,0-3.86,4.19,11.52,11.52,0,0,0-1.6,5.81h10.57a.9.9,0,0,1,.16-.49,4.08,4.08,0,0,1,1.81-1.47,8.85,8.85,0,0,1,3.92-.84,8.33,8.33,0,0,1,4.8,1.36,3.46,3.46,0,0,1,.93,1,1,1,0,0,1,.16.49H231a11.43,11.43,0,0,0-1.61-5.81,14.52,14.52,0,0,0-6.29-5.65Z" transform="translate(-67.94 -79.22)" style="fill:#fe4c00"/><polygon id="b4839fac-c607-49a6-bd25-79f775188323" data-name="polygon34" points="182.95 126.33 173.24 122.18 168.39 133.5 173.24 135.58 178.1 137.67 182.95 126.33" style="fill:#fe4c00"/><polygon id="a78362b7-32c8-46c4-851c-8cccedebe6bc" data-name="polygon36" points="115.47 235.57 119.86 232.64 124.25 229.71 117.78 220.01 108.99 225.86 115.47 235.57" style="fill:#fe4c00"/><polygon id="e2681958-09ef-4bd0-8de1-93d7eba102c4" data-name="polygon38" points="205.59 222.93 209.99 225.86 216.46 216.16 207.67 210.3 201.2 220.01 205.59 222.93" style="fill:#fe4c00"/><polygon id="f23f6fff-3d23-4089-bfc0-3cbbad32ccd6" data-name="polygon40" points="266.61 153.07 257.82 147.21 251.35 156.92 255.74 159.85 260.14 162.78 266.61 153.07" style="fill:#fe4c00"/><polygon id="fdc69aa0-3ebe-45d8-a76e-c450b40b047b" data-name="polygon42" points="121.6 176.77 124.84 183.24 129.56 180.88 134.29 178.51 131.05 172.04 121.6 176.77" style="fill:#fe4c00"/></g></svg>