<svg id="a0438b5b-f8ba-4828-bfc6-33b1e652bd49" data-name="Layer 10" xmlns="http://www.w3.org/2000/svg" viewBox="0 0 336.03 336.02"><circle cx="238.24" cy="243.22" r="164.69" transform="translate(-172.58 164.17) rotate(-45)" style="fill:#fff"/><path d="M368.08,344.55l-2.86-2.23a161.18,161.18,0,1,1,34.07-99,161.18,161.18,0,0,1-34.07,99l2.86,2.23,2.85,2.23a168,168,0,1,0-60.08,48.34,168,168,0,0,0,60.08-48.34Z" transform="translate(-70.37 -75.53)" style="fill:#fe4c00"/><path d="M342.75,329.25,339.9,327a134.18,134.18,0,1,1,28.4-82.43A134.19,134.19,0,0,1,339.9,327l2.85,2.23,2.86,2.23a141.1,141.1,0,1,0-50.46,40.59,141.1,141.1,0,0,0,50.46-40.59Z" transform="translate(-70.37 -75.53)" style="fill:#ffd617"/><path d="M241.22,250.89c3.38-2.47,5.53.46,8.91-2s1.24-5.41,4.63-7.89,5.53.47,8.91-2,1.24-5.41,4.63-7.89,5.53.46,8.91-2c3.53-2.59,5.4-7.9,9.28-9.72s9.23.09,13.4-1,7.95-5.31,12.22-5.56,8.5,3.51,12.81,4.08,9.27-2,13.41-.61c7.74,2.58,5.08,5.49,13.53,9.87,4.35,2.23,11.06,2,15.83,5.36,4.31,3.07,6.17,9.34,9.93,13.38s9.9,6.43,12.22,11.36.2,10.88.37,16.57,2.55,11.39.55,15.95c-2.13,4.83-8.21,7.06-11.9,10.76s-5.74,9.75-10.09,12.44c-4.77,2.94-11.28,2.07-15.63,3.87-8.39,3.51-6.09,6.52-13.68,8.46-4.55,1.3-9.74-1.45-14.35-1.14s-9.47,3.8-14.08,3.18-8.34-5.24-12.74-6.79-10.15-.29-14.18-2.73-5.5-8.1-8.95-11.33c-3.29-3.09-5.8-.44-9.09-3.53s-.82-5.75-4.12-8.83-5.8-.45-9.09-3.53-.83-5.75-4.13-8.85-5.8-.44-9.1-3.53c-.61-.57,1.52-3.63,1-4.27s-4,.61-4.4-.12,2.6-2.94,2.32-3.73-4-.68-4.12-1.5,3.4-1.95,3.39-2.79-3.53-2.26-3.35-3.2,3.92-.9,4.27-1.8-2.45-3.39-1.93-4.21,4,.62,4.63-.09S240.43,251.47,241.22,250.89Z" transform="translate(-70.37 -75.53)" style="fill:#fff"/><path d="M241.22,250.89l2.17,2.9a2,2,0,0,1,.59-.32,2.24,2.24,0,0,1,.52-.06,5.71,5.71,0,0,1,.91.06,12.49,12.49,0,0,0,1.51.08,9.4,9.4,0,0,0,2.58-.36,9.58,9.58,0,0,0,2.8-1.41h0a9.34,9.34,0,0,0,1.66-1.54,8.93,8.93,0,0,0,1.63-2.9,15.55,15.55,0,0,0,.43-1.66,5.18,5.18,0,0,1,.35-1.16,1.32,1.32,0,0,1,.16-.25,2.23,2.23,0,0,1,.4-.35,2,2,0,0,1,.59-.32,1.78,1.78,0,0,1,.51-.06,7,7,0,0,1,.92.05,12.37,12.37,0,0,0,1.51.08,8.37,8.37,0,0,0,2.58-.35,9.21,9.21,0,0,0,2.8-1.45,9,9,0,0,0,1.66-1.54,8.73,8.73,0,0,0,1.62-2.9c.17-.54.32-1.1.44-1.66a5.18,5.18,0,0,1,.35-1.16,1.25,1.25,0,0,1,.16-.24,2,2,0,0,1,.4-.36,1.88,1.88,0,0,1,.59-.32,2.24,2.24,0,0,1,.52-.06,5.71,5.71,0,0,1,.91.06,12.64,12.64,0,0,0,1.51.07,9,9,0,0,0,2.58-.35,9.21,9.21,0,0,0,2.8-1.45,17.1,17.1,0,0,0,3.05-3c1.26-1.54,2.26-3.05,3.2-4.2a12.08,12.08,0,0,1,1.32-1.45,4.69,4.69,0,0,1,1.11-.77,4.83,4.83,0,0,1,1.28-.38,11.43,11.43,0,0,1,1.85-.12c1.54,0,3.42.2,5.5.21a16.33,16.33,0,0,0,4.12-.46h0a16.69,16.69,0,0,0,3.91-1.61c1.73-1,3.22-2,4.52-2.7a12.36,12.36,0,0,1,1.76-.84,4.41,4.41,0,0,1,1.35-.3h.21a6.14,6.14,0,0,1,1.95.38,43.66,43.66,0,0,1,4.27,1.85,20.19,20.19,0,0,0,5.68,1.83h0a13.38,13.38,0,0,0,1.8.12,30,30,0,0,0,5.25-.62,26,26,0,0,1,4-.5,5.52,5.52,0,0,1,1.67.23h0a17.58,17.58,0,0,1,2,.81A7.11,7.11,0,0,1,341,221.7a15.91,15.91,0,0,1,1.11,1.21,24.58,24.58,0,0,0,2.82,3,26.54,26.54,0,0,0,5.25,3.47,21.33,21.33,0,0,0,4.39,1.59c2.17.55,4.3.93,6.2,1.45a14.85,14.85,0,0,1,4.81,2,10.05,10.05,0,0,1,2.08,2.09,49.11,49.11,0,0,1,3.18,5A34.16,34.16,0,0,0,375,247.3a28,28,0,0,0,3.62,3.18c1.84,1.39,3.63,2.59,5,3.78a15.05,15.05,0,0,1,1.81,1.76,8,8,0,0,1,1.15,1.72,7,7,0,0,1,.54,1.79,12.17,12.17,0,0,1,.18,2.26,46.58,46.58,0,0,1-.33,4.72,54.05,54.05,0,0,0-.37,5.54v.83h0a51.71,51.71,0,0,0,.76,6.43,32.37,32.37,0,0,1,.58,5.11,7,7,0,0,1-.49,2.83,7.2,7.2,0,0,1-1.51,2.12,29.92,29.92,0,0,1-4.31,3.37,35.73,35.73,0,0,0-5.32,4.18,26.21,26.21,0,0,0-2.95,3.62c-1.26,1.84-2.33,3.63-3.4,5.08a16.68,16.68,0,0,1-1.55,1.9,7.77,7.77,0,0,1-1.54,1.27A10.76,10.76,0,0,1,364,310a45.8,45.8,0,0,1-5.72,1c-1,.14-2.12.29-3.21.51a18.23,18.23,0,0,0-3.31,1,24.93,24.93,0,0,0-5.38,3,21.35,21.35,0,0,0-2.38,2.08l-1.14,1.14a6.88,6.88,0,0,1-1.45,1.07,12.57,12.57,0,0,1-2.84,1h-.11a6.29,6.29,0,0,1-1.68.21,25.12,25.12,0,0,1-4.72-.69,31,31,0,0,0-6.14-.83,9.39,9.39,0,0,0-1.07,0h0a19.61,19.61,0,0,0-4,.78c-1.84.54-3.5,1.22-5,1.7a12.32,12.32,0,0,1-3.7.76,3.82,3.82,0,0,1-.67,0h0a6.94,6.94,0,0,1-2.17-.72,40.72,40.72,0,0,1-4.25-2.77,23.68,23.68,0,0,0-5.61-3.11,19.05,19.05,0,0,0-4.3-.92c-2-.23-4-.27-5.56-.47a13.87,13.87,0,0,1-2.12-.39,5.89,5.89,0,0,1-1.51-.63,6.54,6.54,0,0,1-1.66-1.53,39.61,39.61,0,0,1-2.79-4.23,24.3,24.3,0,0,0-3.91-5.12,10.84,10.84,0,0,0-1.84-1.39,9.22,9.22,0,0,0-3.21-1.15,17.55,17.55,0,0,0-1.76-.2,5.49,5.49,0,0,1-1.34-.19,1.84,1.84,0,0,1-.38-.17,3.33,3.33,0,0,1-.56-.43,2.93,2.93,0,0,1-.47-.53,2,2,0,0,1-.31-.73c-.06-.25-.11-.6-.18-1.09a13,13,0,0,0-.73-3,9,9,0,0,0-1-1.81,11.14,11.14,0,0,0-3.34-3.11,9.4,9.4,0,0,0-3.2-1.16c-.73-.11-1.31-.15-1.77-.19a5.92,5.92,0,0,1-1.33-.18,2.32,2.32,0,0,1-.39-.18,3.77,3.77,0,0,1-1-1,2.13,2.13,0,0,1-.3-.73,9.4,9.4,0,0,1-.19-1.08,11.91,11.91,0,0,0-.73-2.95,9,9,0,0,0-1-1.82,10.51,10.51,0,0,0-1.48-1.71,10.84,10.84,0,0,0-1.85-1.4,9.22,9.22,0,0,0-3.21-1.15,17.11,17.11,0,0,0-1.77-.19,6.66,6.66,0,0,1-1.33-.19,2.64,2.64,0,0,1-.38-.18,3.33,3.33,0,0,1-.56-.43l-.07-.07.07.08-2.26,2.39,3.14-1a3.27,3.27,0,0,0-.88-1.37l-2.26,2.39,3.14-1-2.86.94h3a3,3,0,0,0-.15-.94l-2.86.94h1.09l2,.47a1.88,1.88,0,0,0,.05-.47h-2l2,.47-.51-.12.51.13h0l-.51-.12.51.14h0a3.3,3.3,0,0,1,.19-.49c.15-.37.36-.82.56-1.34q.17-.45.3-.9a5.56,5.56,0,0,0,.19-1.4,3.94,3.94,0,0,0-2-3.53,4.38,4.38,0,0,0-1.45-.5,5.82,5.82,0,0,0-.93-.07,10.52,10.52,0,0,0-1.12.07l-1.27.18-.42.06H237v2l.56-1.91a1.78,1.78,0,0,0-.56-.1v2l.56-1.91-.86,2.93,1.72-2.53a2.7,2.7,0,0,0-.86-.4l-.86,2.93,1.72-2.53-1.87,2.74,2.9-1.57a3.28,3.28,0,0,0-1.05-1.17l-1.86,2.74,2.9-1.57h0l-2.9,1.56h3.31a3.38,3.38,0,0,0-.4-1.56l-2.9,1.56h.27l2.89.88a2.93,2.93,0,0,0,.13-.88h-3l2.89.88-2-.61,1.8,1.13a2,2,0,0,0,.23-.52l-2-.61,1.8,1.13-.42-.26.42.28h0l-.42-.27.41.28h0l.4-.48c.3-.34.69-.73,1.1-1.27a7.35,7.35,0,0,0,.65-1,4.41,4.41,0,0,0,.35-.8,4.5,4.5,0,0,0,.22-1.31,4,4,0,0,0-.22-1.29,4.09,4.09,0,0,0-.94-1.51,4.3,4.3,0,0,0-.87-.67,5.57,5.57,0,0,0-1.17-.52,12.19,12.19,0,0,0-1.45-.34l-.83-.15-.42-.09h-.09l-.57,1.78,1-1.53a1.72,1.72,0,0,0-.46-.25l-.57,1.78,1-1.53L235,267.38l2.38-1.87a2.63,2.63,0,0,0-.69-.64L235,267.38l2.38-1.87-2.6,2L238,267a3.29,3.29,0,0,0-.65-1.45l-2.6,2L238,267l-3.29.57H238a2.75,2.75,0,0,0,0-.57l-3.29.57h.08l2.95,1.39a3.2,3.2,0,0,0,.31-1.39h-3.26l2.95,1.39-2.62-1.24,2.24,1.85a3,3,0,0,0,.38-.61l-2.62-1.24,2.24,1.85L236,268.5l1,1.37a2.47,2.47,0,0,0,.28-.28L236,268.5l1,1.37.47-.3.73-.41.65-.39a6.57,6.57,0,0,0,1.18-.92,4.27,4.27,0,0,0,.77-1,4.36,4.36,0,0,0,.39-.85,4.75,4.75,0,0,0,.18-1.18h0a4.17,4.17,0,0,0-.31-1.52,4.72,4.72,0,0,0-1-1.5,5.8,5.8,0,0,0-.73-.67,11.66,11.66,0,0,0-1.08-.76c-.33-.22-.46-.3-.63-.43l-.31-.21-.06,0h0l-1.1,1.25,1.37-.93a2.08,2.08,0,0,0-.27-.32l-1.1,1.25,1.37-.93-2.32,1.59,2.63-1a2.85,2.85,0,0,0-.31-.6l-2.32,1.59,2.63-1L235,261.75h3.15a3.25,3.25,0,0,0-.2-1.11L235,261.75h-.12l3.21.64a3.47,3.47,0,0,0,.06-.64h-3.27l3.21.64v-.05l-3.14-.58,2.62,1.8a3.41,3.41,0,0,0,.54-1.29l-3.15-.57,2.61,1.86-2.4-1.72,1.82,2.32a3.3,3.3,0,0,0,.58-.6l-2.4-1.72,1.82,2.32-1.23-1.56.76,1.85a1.75,1.75,0,0,0,.47-.29l-1.23-1.56.76,1.85-.13-.31.11.31h0l-.13-.31.12.31.56-.14.82-.18a11.7,11.7,0,0,0,1.66-.48,5.51,5.51,0,0,0,1.19-.65,4.52,4.52,0,0,0,.73-.72,3.81,3.81,0,0,0,.72-1.17h0a4.2,4.2,0,0,0,.28-1.45,4.67,4.67,0,0,0-.34-1.69,4.74,4.74,0,0,0-.42-.88c-.21-.37-.44-.73-.68-1.08s-.61-.84-.73-1l-.05-.1h0l-1.23.63,1.31-.42a1.8,1.8,0,0,0-.08-.21l-1.23.63,1.31-.42-2.54.8h2.66a2.72,2.72,0,0,0-.12-.8l-2.54.8h-.45l3,.78a2.88,2.88,0,0,0,.11-.78h-3.11l3,.78-3.13-.81,2.73,1.74a3.08,3.08,0,0,0,.4-.93l-3.13-.81,2.73,1.74v0h0l-2.72-1.71,1.82,2.64a3.24,3.24,0,0,0,.92-1l-2.72-1.71,1.8,2.67-1.6-2.38.56,2.82a2.66,2.66,0,0,0,1-.44l-1.6-2.38.56,2.82-.33-1.66V259a1.24,1.24,0,0,0,.33,0l-.33-1.66V259h0l.37,0,1.13.18a10.84,10.84,0,0,0,1.62.15,5.06,5.06,0,0,0,1.34-.15,4.57,4.57,0,0,0,1-.37,4.33,4.33,0,0,0,1.09-.82h0a4.24,4.24,0,0,0,.67-1,4.3,4.3,0,0,0,.4-1.21,5.22,5.22,0,0,0,.07-.88,7.47,7.47,0,0,0-.16-1.49c-.12-.6-.25-1.12-.34-1.51a3.18,3.18,0,0,1-.09-.45v-.08l-.82.08h.82v-.08l-.82.08h-1.58l2.28.73a2.61,2.61,0,0,0,.13-.73h-2.41l2.28.73-2.9-.95,2.54,1.7a3,3,0,0,0,.37-.73l-2.9-1,2.54,1.7-2.68-1.79,1.89,2.61a3.41,3.41,0,0,0,.79-.82l-2.68-1.79,1.89,2.61h0l-2.17-2.9L239.1,248a4,4,0,0,0-1,1,4.27,4.27,0,0,0-.63,1.45,5.19,5.19,0,0,0-.1,1,7.29,7.29,0,0,0,.16,1.48c.12.62.26,1.13.35,1.53l.09.45v.07l.87-.09H238v.09l.87-.09h1.45l-2.26-.59a3,3,0,0,0-.08.59h2.34l-2.26-.59,2.9.73-2.64-1.34a3.28,3.28,0,0,0-.23.59l2.9.73-2.64-1.34,2.83,1.45L238.83,253a3,3,0,0,0-.5.72l2.83,1.45L238.83,253h0l2.3,2.17-1.45-2.78a2.9,2.9,0,0,0-.84.63l2.29,2.17-1.45-2.78,1.26,2.41-.45-2.69a2.6,2.6,0,0,0-.81.28l1.26,2.41-.45-2.69.26,1.53v-1.6h-.26l.26,1.53V252.1h0a2.22,2.22,0,0,1-.37,0l-1.13-.18a9.88,9.88,0,0,0-1.62-.16,5.43,5.43,0,0,0-1.55.22,4.7,4.7,0,0,0-1.13.54,4,4,0,0,0-1.16,1.2h0a4.51,4.51,0,0,0-.5,1.15,4.06,4.06,0,0,0-.13,1,4.51,4.51,0,0,0,.33,1.7,7,7,0,0,0,.42.87,7.49,7.49,0,0,0,.72,1.08c.32.45.6.84.73,1.05l0,.1h0l1.24-.63-1.32.42a1.8,1.8,0,0,0,.08.21l1.24-.63-1.32.42,2.55-.8h-2.66a2.42,2.42,0,0,0,.11.8l2.55-.8h.47l-2.9-1.13a3.1,3.1,0,0,0-.21,1.13h3.13l-2.9-1.13h0l2.9,1.14-2.27-2.18a3,3,0,0,0-.74,1l2.89,1.14L236,257.44l2,1.9-1.49-2.3a2.38,2.38,0,0,0-.49.4l2,1.9-1.49-2.3,1.08,1.66-.84-1.8a1,1,0,0,0-.24.14l1.08,1.66-.84-1.8.34.73-.28-.73h-.06l.34.73-.28-.73c-.19.06-.39.11-.58.15l-.88.19-.81.21a6.83,6.83,0,0,0-1.56.64,4.43,4.43,0,0,0-1.11.91,3.6,3.6,0,0,0-.57.83,3.89,3.89,0,0,0-.39,1.13l3.56.65-3.55-.72a3.94,3.94,0,0,0-.08.77,4.07,4.07,0,0,0,.31,1.54,4.72,4.72,0,0,0,1,1.5,9.07,9.07,0,0,0,.72.67,7,7,0,0,0,1.08.72,2.91,2.91,0,0,1,.63.42l.31.21.05,0h0l1.09-1.24-1.36.93a1.31,1.31,0,0,0,.27.31l1.09-1.24-1.36.93,2.31-1.58-2.61,1a3.36,3.36,0,0,0,.3.6l2.31-1.58-2.61,1,2.93-1.11h-3.13a3.1,3.1,0,0,0,.2,1.09l2.93-1.11h.12l-2.95-1.37a3.25,3.25,0,0,0-.3,1.37h3.25l-2.95-1.37,2.62,1.22-2.15-1.74a3.51,3.51,0,0,0-.39.61l2.63,1.22-2.24-1.83,1.33,1.08-1.06-1.36a1.79,1.79,0,0,0-.27.28l1.33,1.08-1.06-1.36h0l-.59.35-.72.42c-.2.1-.4.24-.63.37a8.19,8.19,0,0,0-1.13.91,4.35,4.35,0,0,0-.72,1,3.51,3.51,0,0,0-.37.87,3.66,3.66,0,0,0-.17,1.14,3.79,3.79,0,0,0,.84,2.42,5.05,5.05,0,0,0,.92.87,5.27,5.27,0,0,0,1.26.62,10.49,10.49,0,0,0,1.49.38l.87.16.45.09.17,0h0l.55-1.7-.94,1.5a2.87,2.87,0,0,0,.39.2l.55-1.7-.94,1.5,1.57-2.5-2.18,2a3.07,3.07,0,0,0,.59.49l1.56-2.5-2.17,2,2.39-2.23-3.09,1.07a3.35,3.35,0,0,0,.73,1.16l2.39-2.23-3.09,1.07,3.11-1.08H235a3.31,3.31,0,0,0,.18,1.08l3.11-1.08H238l-2.9-.88a3.28,3.28,0,0,0-.12.88h3.05l-2.9-.88,2,.62-1.81-1.14a2,2,0,0,0-.23.52l2,.62-1.81-1.14.42.26-.41-.28h0l.42.27-.4-.28h0c-.06.08-.22.26-.42.48s-.67.72-1.08,1.27a6.56,6.56,0,0,0-.66,1,4.73,4.73,0,0,0-.35.8,4.13,4.13,0,0,0-.21,1.31,4,4,0,0,0,.47,1.87h0a3.94,3.94,0,0,0,1.25,1.38,4.28,4.28,0,0,0,1.63.66,5.89,5.89,0,0,0,1,.09,10.34,10.34,0,0,0,1.11-.07c.5-.06.92-.13,1.27-.18l.43-.05H240v-1.91l-.48,1.83a2.67,2.67,0,0,0,.48.08v-1.91l-.48,1.83.72-2.9L238.83,276a2.85,2.85,0,0,0,.73.29l.72-2.9L238.83,276l1.61-2.85-2.67,2a3.27,3.27,0,0,0,1,.86l1.6-2.85-2.59,2,2.6-2-3.17.84a3.17,3.17,0,0,0,.58,1.16l2.59-2-3.17.84,2.9-.77h-3a2.86,2.86,0,0,0,.1.77l2.9-.77h-.94l-2-.47a2.42,2.42,0,0,0-.05.47h2.06l-2-.47.53.12-.52-.14h0l.53.12-.52-.13h0a3,3,0,0,1-.2.5c-.15.35-.35.8-.56,1.33-.11.3-.21.6-.29.91a5,5,0,0,0-.2,1.39,4.17,4.17,0,0,0,.2,1.31,4.09,4.09,0,0,0,1,1.66h0a10.78,10.78,0,0,0,1.85,1.39,9.45,9.45,0,0,0,3.21,1.16c.72.12,1.3.15,1.77.19a6.66,6.66,0,0,1,1.33.19,1.46,1.46,0,0,1,.38.18,2.61,2.61,0,0,1,.56.43,2.93,2.93,0,0,1,.47.53,2,2,0,0,1,.31.73c.06.25.12.6.19,1.09a12.47,12.47,0,0,0,.72,3,9,9,0,0,0,1,1.81,10.7,10.7,0,0,0,1.5,1.72,10.34,10.34,0,0,0,1.84,1.39,9.45,9.45,0,0,0,3.21,1.16c.72.11,1.3.15,1.76.19a5.92,5.92,0,0,1,1.33.18,2.32,2.32,0,0,1,.39.18,3.33,3.33,0,0,1,.56.43,4,4,0,0,1,.47.53,2.15,2.15,0,0,1,.31.73,9.87,9.87,0,0,1,.18,1.08,12.49,12.49,0,0,0,.73,2.95,9,9,0,0,0,1,1.82,11.24,11.24,0,0,0,3.33,3.11,9.43,9.43,0,0,0,3.21,1.15,17.11,17.11,0,0,0,1.77.19,6.66,6.66,0,0,1,1.33.19,1.46,1.46,0,0,1,.38.18,2.93,2.93,0,0,1,.56.42,12.79,12.79,0,0,1,1.77,2.18c.91,1.35,1.83,3,3,4.75a21,21,0,0,0,2,2.57,13.15,13.15,0,0,0,2.76,2.28,14.06,14.06,0,0,0,4.42,1.69,43.59,43.59,0,0,0,6,.65,17.76,17.76,0,0,1,4.4.73,12.45,12.45,0,0,1,2.46,1.27c1.37.87,2.9,2.05,4.65,3.16a21.84,21.84,0,0,0,2.9,1.55,13,13,0,0,0,3.47,1h0a12.32,12.32,0,0,0,1.61.11,16.4,16.4,0,0,0,4.12-.59c1.91-.5,3.62-1.17,5.14-1.7a15.78,15.78,0,0,1,3.94-1H326a23.91,23.91,0,0,1,4.68.68,30.73,30.73,0,0,0,6.19.83,13,13,0,0,0,3.67-.49l-1-3.48.9,3.51a21.73,21.73,0,0,0,2.9-.93,14.15,14.15,0,0,0,3.62-2.12,22.37,22.37,0,0,0,1.75-1.62,16.29,16.29,0,0,1,2.09-1.89,17.75,17.75,0,0,1,3.81-2.06,12.34,12.34,0,0,1,2.81-.72c1.73-.3,3.87-.48,6.16-.89A20,20,0,0,0,370.7,315a16,16,0,0,0,3.74-3.27,48.81,48.81,0,0,0,3.82-5.41,26.28,26.28,0,0,1,3.21-4.28,20.47,20.47,0,0,1,2.65-2.18c1.57-1.13,3.43-2.31,5.24-3.79a21,21,0,0,0,2.62-2.54,13.26,13.26,0,0,0,3.23-9.11,38.92,38.92,0,0,0-.68-6.27,46.2,46.2,0,0,1-.66-5.49h0v-.6c0-1.45.15-3.1.32-4.82a51.94,51.94,0,0,0,.37-5.44,19.74,19.74,0,0,0-.28-3.52,14.54,14.54,0,0,0-1.12-3.63,15.85,15.85,0,0,0-3.06-4.29,42.3,42.3,0,0,0-5.43-4.38,29.78,29.78,0,0,1-4.35-3.58,20.5,20.5,0,0,1-2.14-2.84c-1.06-1.66-2.1-3.63-3.37-5.54a26.58,26.58,0,0,0-2.17-2.89,16.27,16.27,0,0,0-2.83-2.61,19.41,19.41,0,0,0-4.76-2.42,56.35,56.35,0,0,0-6.73-1.74c-1-.23-1.94-.45-2.75-.69a10.83,10.83,0,0,1-2.07-.73,19.9,19.9,0,0,1-3.88-2.53,16.84,16.84,0,0,1-1.55-1.61c-.37-.42-.73-.9-1.23-1.45a13.94,13.94,0,0,0-2.86-2.45,20.1,20.1,0,0,0-4.52-2.08h0a12.82,12.82,0,0,0-4-.61,31.31,31.31,0,0,0-5.28.62,24.45,24.45,0,0,1-4,.5,7.92,7.92,0,0,1-.85-.05h0a10.27,10.27,0,0,1-2.24-.65c-1.31-.52-2.84-1.31-4.56-2a21.42,21.42,0,0,0-2.79-1,12.4,12.4,0,0,0-3.26-.46h-.64a12.65,12.65,0,0,0-4.39,1.13,40.73,40.73,0,0,0-4.94,2.8,14.4,14.4,0,0,1-3.57,1.74h0a9.68,9.68,0,0,1-2.34.23c-1.53,0-3.42-.2-5.5-.21a17.86,17.86,0,0,0-3,.22,11.67,11.67,0,0,0-3.21,1,12.5,12.5,0,0,0-3.62,2.67,42.94,42.94,0,0,0-3.54,4.43,19.1,19.1,0,0,1-1.45,1.78,9,9,0,0,1-1.27,1.19,2.22,2.22,0,0,1-.59.31,1.54,1.54,0,0,1-.52.06,7.05,7.05,0,0,1-.92-.05,12.31,12.31,0,0,0-1.5-.08,8.6,8.6,0,0,0-2.58.36,10.13,10.13,0,0,0-4.47,3,8.82,8.82,0,0,0-1.62,2.9,16.24,16.24,0,0,0-.44,1.66,5.18,5.18,0,0,1-.35,1.16,1,1,0,0,1-.16.25,3.33,3.33,0,0,1-.39.36,1.76,1.76,0,0,1-.59.31,1.54,1.54,0,0,1-.52.06,7.05,7.05,0,0,1-.92,0,12.37,12.37,0,0,0-1.51-.08,8.78,8.78,0,0,0-5.38,1.78,9.25,9.25,0,0,0-1.66,1.53,8.82,8.82,0,0,0-1.62,2.9c-.22.67-.34,1.23-.44,1.66a4.71,4.71,0,0,1-.35,1.16,1,1,0,0,1-.16.25,2.17,2.17,0,0,1-.39.35h0a2,2,0,0,1-.59.32,1.51,1.51,0,0,1-.52.06,7.05,7.05,0,0,1-.92,0,12.31,12.31,0,0,0-1.5-.08,8.93,8.93,0,0,0-2.58.35A9.27,9.27,0,0,0,239,248h0Z" transform="translate(-70.37 -75.53)" style="fill:#fe4c00"/><line x1="149.56" y1="190.33" x2="308.51" y2="196.72" style="fill:none"/><polyline points="149.41 193.95 308.36 200.34 308.65 193.1 149.7 186.71" style="fill:#fe4c00"/><line x1="275.48" y1="161.68" x2="249.58" y2="194.35" style="fill:none"/><polyline points="272.64 159.43 246.75 192.1 252.43 196.6 278.32 163.93" style="fill:#fe4c00"/><line x1="264.7" y1="194.96" x2="284.3" y2="229.11" style="fill:none"/><polyline points="261.57 196.76 281.15 230.92 287.44 227.31 267.85 193.15" style="fill:#fe4c00"/><line x1="209.73" y1="191.2" x2="234.01" y2="156.35" style="fill:none"/><polyline points="212.71 193.27 236.98 158.43 231.04 154.28 206.76 189.12" style="fill:#fe4c00"/><path d="M191.31,229.76c-2.06-3.62,1.1-5.43-1-9.09s-5.22-1.86-7.25-5.51,1.1-5.44-.95-9.09-5.23-1.86-7.3-5.52,1.11-5.44-.95-9.09c-2.18-3.8-7.21-6.29-8.57-10.35s1.17-9.15.61-13.41-4.35-8.48-4.1-12.8,4.49-8,5.56-12.22-.89-9.43,1-13.39c3.48-7.39,6-4.35,11.4-12.27,2.67-4,3.2-10.75,7.15-15.1,3.55-3.92,10-5,14.49-8.29s7.55-9.07,12.72-10.8,10.82,1.08,16.51,1.58,11.59-1.18,15.9,1.35c4.54,2.67,6,9,9.29,13s9,6.85,11.18,11.49c2.36,5.07.72,11.45,2,15.95,2.5,8.74,5.75,6.81,6.79,14.58.72,4.66-2.6,9.49-2.81,14.11s2.62,9.9,1.5,14.4-6.19,7.66-8.25,11.85-1.45,10-4.35,13.77-8.7,4.51-12.32,7.55c-3.46,2.9-1.12,5.69-4.58,8.61s-5.8.14-9.26,3.06-1.12,5.69-4.57,8.61-5.8.14-9.27,3.06-1.12,5.69-4.59,8.61c-.63.54-3.41-1.92-4.12-1.5s.15,4-.62,4.34-2.62-2.89-3.43-2.74-1.15,3.88-2,3.92-1.55-3.63-2.38-3.69-2.66,3.23-3.57,2.95-.44-4-1.28-4.45-3.63,2-4.41,1.45,1.08-3.87.45-4.61S191.79,230.61,191.31,229.76Z" transform="translate(-70.37 -75.53)" style="fill:#fff"/><path d="M191.31,229.76l3.15-1.78a2,2,0,0,1-.22-.52,1.12,1.12,0,0,1,0-.32,6.81,6.81,0,0,1,.18-1.2,13.06,13.06,0,0,0,.33-2.64,8.41,8.41,0,0,0-.28-2.18,9.77,9.77,0,0,0-2.25-4.08,8.65,8.65,0,0,0-2.72-1.95,15.45,15.45,0,0,0-1.59-.63,5.48,5.48,0,0,1-1.11-.48,1.06,1.06,0,0,1-.23-.19,2.52,2.52,0,0,1-.53-1,1.12,1.12,0,0,1,0-.32,6.1,6.1,0,0,1,.18-1.2,13.06,13.06,0,0,0,.33-2.64,8.85,8.85,0,0,0-.28-2.17,9.28,9.28,0,0,0-.93-2.26,9.5,9.5,0,0,0-1.32-1.82,8.88,8.88,0,0,0-2.72-1.95,14.76,14.76,0,0,0-1.6-.63,5.73,5.73,0,0,1-1.11-.48,1.1,1.1,0,0,1-.23-.2,1.84,1.84,0,0,1-.3-.43,1.94,1.94,0,0,1-.23-.53,1.12,1.12,0,0,1,0-.32,8.28,8.28,0,0,1,.18-1.2,13,13,0,0,0,.33-2.64,8.39,8.39,0,0,0-.28-2.17,9.05,9.05,0,0,0-.93-2.25,16.63,16.63,0,0,0-2.58-3.38c-1.38-1.45-2.76-2.6-3.79-3.67a11.67,11.67,0,0,1-1.27-1.45,4.59,4.59,0,0,1-.63-1.2,5.21,5.21,0,0,1-.24-1.66,24.71,24.71,0,0,1,.51-4,30.93,30.93,0,0,0,.6-5.26,15.57,15.57,0,0,0-.11-1.81,17.44,17.44,0,0,0-1.1-4c-.73-1.78-1.54-3.33-2.11-4.69a14.93,14.93,0,0,1-.66-1.84,5.58,5.58,0,0,1-.21-1.4v-.21a5.4,5.4,0,0,1,.53-1.88,37.43,37.43,0,0,1,2.34-4.08,20.55,20.55,0,0,0,2.59-5.58,17,17,0,0,0,.44-4.08c0-2.09-.22-4-.21-5.54a11.38,11.38,0,0,1,.12-1.84,4.49,4.49,0,0,1,.38-1.28h0a15.75,15.75,0,0,1,1-1.89,6.77,6.77,0,0,1,1.45-1.66,14.27,14.27,0,0,1,1.34-1,24.19,24.19,0,0,0,3.25-2.44,26.8,26.8,0,0,0,4.07-4.82,20.78,20.78,0,0,0,2.09-4.16c.81-2.09,1.45-4.16,2.18-6a14.84,14.84,0,0,1,2.6-4.53,10.25,10.25,0,0,1,2.32-1.82,50.38,50.38,0,0,1,5.34-2.57,34.17,34.17,0,0,0,6.26-3.4,29.66,29.66,0,0,0,3.55-3.17c1.58-1.66,3-3.29,4.35-4.55a14.87,14.87,0,0,1,1.95-1.59,7.68,7.68,0,0,1,1.85-.94,7.56,7.56,0,0,1,2.41-.35,27.73,27.73,0,0,1,5.59.82,54.42,54.42,0,0,0,7,1.28c.95.08,1.87.11,2.76.11,2.45,0,4.71-.2,6.62-.2a17,17,0,0,1,2.94.2,6.27,6.27,0,0,1,2.05.72h0a7.19,7.19,0,0,1,1.93,1.76,29.09,29.09,0,0,1,2.83,4.66,37.31,37.31,0,0,0,3.54,5.8,24.66,24.66,0,0,0,3.27,3.35c1.68,1.45,3.34,2.75,4.66,4a15.86,15.86,0,0,1,1.71,1.77,7.77,7.77,0,0,1,1.08,1.68,10.66,10.66,0,0,1,.83,3,45,45,0,0,1,.26,5.8c0,1,.05,2.18.14,3.25a17.27,17.27,0,0,0,.59,3.41,24.35,24.35,0,0,0,2.3,5.68,21.15,21.15,0,0,0,1.79,2.61c.4.51.73.92,1,1.27a6.53,6.53,0,0,1,.9,1.56,12.51,12.51,0,0,1,.72,2.94v.11a5.69,5.69,0,0,1,.06.83,10.15,10.15,0,0,1-.33,2.32c-.32,1.33-.87,2.85-1.41,4.54a21.52,21.52,0,0,0-1.17,5.66v.68a29.33,29.33,0,0,0,1,6.58,23.58,23.58,0,0,1,.8,4.94,6,6,0,0,1-.16,1.45h0a6.94,6.94,0,0,1-1,2.05,38.71,38.71,0,0,1-3.25,3.89,24,24,0,0,0-3.75,5.2,19.37,19.37,0,0,0-1.45,4.16c-.46,2-.73,3.91-1.11,5.48a13.88,13.88,0,0,1-.64,2.05,6.22,6.22,0,0,1-.8,1.45,7.2,7.2,0,0,1-1.71,1.45,40.83,40.83,0,0,1-4.54,2.26,24.37,24.37,0,0,0-5.54,3.28,11,11,0,0,0-1.6,1.67,9.39,9.39,0,0,0-1.52,3.05c-.2.69-.31,1.28-.4,1.73a6.55,6.55,0,0,1-.34,1.3,1.65,1.65,0,0,1-.22.36,3.86,3.86,0,0,1-.49.5,3.45,3.45,0,0,1-.59.41,2.07,2.07,0,0,1-.77.22c-.25,0-.61,0-1.1.05a12.71,12.71,0,0,0-3,.36,9.24,9.24,0,0,0-1.92.72,11.09,11.09,0,0,0-3.48,2.95,9.39,9.39,0,0,0-1.52,3.05c-.16.57-.29,1.14-.4,1.72a5.87,5.87,0,0,1-.34,1.31,2.16,2.16,0,0,1-.22.36,3.38,3.38,0,0,1-.5.5,3,3,0,0,1-.58.41,2.06,2.06,0,0,1-.76.21c-.26,0-.62,0-1.11.06a12.77,12.77,0,0,0-3,.36,8.63,8.63,0,0,0-1.91.72,10.13,10.13,0,0,0-1.89,1.28,10.47,10.47,0,0,0-1.6,1.66,9.24,9.24,0,0,0-1.52,3.06,14.31,14.31,0,0,0-.4,1.72,5.89,5.89,0,0,1-.35,1.31,1.34,1.34,0,0,1-.22.36,3.31,3.31,0,0,1-.49.5h0l2.13,2.54-1-3.18a3.26,3.26,0,0,0-1.17.64l2.13,2.54-1-3.18.91,3v-3.15a3.14,3.14,0,0,0-.91.14l.91,3v-.73l.76-2.33a2.41,2.41,0,0,0-.76-.11v2.44l.76-2.33-.25.78.31-.72h-.06l-.25.78.31-.72-.41-.21c-.34-.2-.82-.48-1.37-.77a9.57,9.57,0,0,0-1-.45,4.68,4.68,0,0,0-.73-.21,4.15,4.15,0,0,0-2,0,4.07,4.07,0,0,0-1.16.48l1.9,3.09-1.85-3.12a3.9,3.9,0,0,0-1,.88,4.45,4.45,0,0,0-.72,1.36,5.42,5.42,0,0,0-.26,1.32c0,.31,0,.63,0,.94v1.83h0l1.88.2-1.73-.73a1.63,1.63,0,0,0-.15.52l1.88.19-1.73-.72,2.81,1.15-2.32-2a2.78,2.78,0,0,0-.49.81l2.81,1.15-2.32-2,2.52,2.13-1.22-3.06a3.28,3.28,0,0,0-1.3.93l2.52,2.13-1.22-3.06,1.34,3.36-1.3-3.38,1.19,3.1v-3.32a3.44,3.44,0,0,0-1.19.22l1.19,3.1v-.18l1.07-3a3.25,3.25,0,0,0-1.07-.18v3.14l1.07-3-.79,2.17,1.45-1.86a2.69,2.69,0,0,0-.65-.34l-.79,2.17,1.45-1.86-.5.65.52-.63h0l-.5.65.52-.62h0l-.39-.41-.52-.59a14.27,14.27,0,0,0-1.09-1.11,5.75,5.75,0,0,0-.95-.66,4.3,4.3,0,0,0-2-.55,4.15,4.15,0,0,0-1,.13l.93,3.5-.77-3.54a4.12,4.12,0,0,0-1.61.76,4.37,4.37,0,0,0-.77.78,5.57,5.57,0,0,0-.65,1.11,12.73,12.73,0,0,0-.5,1.39l-.26.8c0,.18-.1.32-.13.41v.08h0l1.69.78-1.4-1.21a1.71,1.71,0,0,0-.29.43l1.69.78-1.4-1.21,2.3,2-1.61-2.55a2.81,2.81,0,0,0-.72.61l2.29,2-1.57-2.58,1.71,2.82-.16-3.29a3.27,3.27,0,0,0-1.55.47l1.71,2.82-.16-3.29.18,3.62v-3.62h0v3.29l1.53-2.9a3.35,3.35,0,0,0-1.53-.37v3.3l1.53-2.9-1.4,2.66,2.09-2.18a3,3,0,0,0-.72-.49l-1.4,2.66,2.09-2.18-1.35,1.4,1.66-1a1.48,1.48,0,0,0-.31-.39l-1.35,1.4,1.66-1h0s-.13-.26-.25-.55-.2-.49-.33-.77l-.31-.73a7.08,7.08,0,0,0-.77-1.26,4.94,4.94,0,0,0-.89-.88,4.25,4.25,0,0,0-.8-.46,4.17,4.17,0,0,0-1.15-.31h-.46a4.85,4.85,0,0,0-1.36.23,4.67,4.67,0,0,0-1.45.8,8.72,8.72,0,0,0-1.23,1.2c-.23.26-.43.52-.61.72a6.91,6.91,0,0,1-.51.57l.17.18-.16-.18h0l.16.18-.16-.19,1.2,1.41-.85-1.64a2.64,2.64,0,0,0-.35.23l1.2,1.41-.85-1.64,1.29,2.48-.77-2.68a3.28,3.28,0,0,0-.52.2l1.29,2.48-.77-2.68.86,3V234.1a3.13,3.13,0,0,0-.86.12l.86,3v.11l.91-3.08a3.09,3.09,0,0,0-.91-.14v3.22l.91-3.08-1,3.47,1.07-3.47-.9,3.06,2.17-2.37a3.2,3.2,0,0,0-1.2-.69l-1,3.06,2.17-2.37-2,2.18,2.52-1.55a3.28,3.28,0,0,0-.54-.64l-2,2.18,2.52-1.54-1.7,1,1.93-.54a1.75,1.75,0,0,0-.23-.5l-1.7,1,1.93-.54-.32.09.32-.07h0l-.32.08.32-.07s0-.25-.07-.56,0-.53-.09-.85a9.84,9.84,0,0,0-.28-1.71,5.35,5.35,0,0,0-.5-1.25,4.87,4.87,0,0,0-.6-.83,4.38,4.38,0,0,0-1.08-.83,4.09,4.09,0,0,0-2-.48,5.09,5.09,0,0,0-1.45.21,9.63,9.63,0,0,0-1.45.6c-.59.31-1.08.59-1.39.73l-.19.09h-.06l.16.39-.13-.4h0l.15.39-.13-.4.66,2.07v-2.18a2.07,2.07,0,0,0-.66.1l.66,2.06v.84l.84-2.9a3,3,0,0,0-.84-.12v3l.84-2.9-.9,3.09,2-2.51a3.37,3.37,0,0,0-1.11-.58l-.9,3.09,2-2.51-.06-.05.07.06-2,2.51,2.71-1.75a3.32,3.32,0,0,0-.68-.72l-2,2.5,2.71-1.74-2.55,1.64,3-.64a3,3,0,0,0-.42-1l-2.55,1.64,3-.64-2.4.52h2.46a2.24,2.24,0,0,0-.06-.52l-2.4.52h.92l1.53.14a.33.33,0,0,0,0-.14h-1.56l1.54.14-.5-.05.5.08h0l-.5-.05.5.08a1.72,1.72,0,0,1,.1-.39c.08-.33.22-.78.37-1.31.06-.27.13-.55.19-.88a5.74,5.74,0,0,0,.12-1.17,5,5,0,0,0-.15-1.21,4.29,4.29,0,0,0-.85-1.64h0a4,4,0,0,0-1.21-1,4.76,4.76,0,0,0-1.45-.48,6.63,6.63,0,0,0-1-.07,6.12,6.12,0,0,0-1,0,10.2,10.2,0,0,0-1.16.13l-.63.06h0v.92l.13-.92h-.11v.92l.13-.91-.33,2.44,1.06-2.18a2.31,2.31,0,0,0-.72-.22l-.33,2.43,1.06-2.17-1.32,2.76,2-2.31a3.34,3.34,0,0,0-.68-.45l-1.32,2.76,2-2.31-2.1,2.43L194.5,228a2.81,2.81,0,0,0-.72-.85l-2.1,2.43,2.8-1.58h0l-3.16,1.78-3.15,1.78a4,4,0,0,0,1.28,1.37,4.5,4.5,0,0,0,1.7.68,7.06,7.06,0,0,0,1.12.1,16.12,16.12,0,0,0,1.83-.15l.64-.07h.32l.08-1.83-.53,1.74a1.44,1.44,0,0,0,.45.09l.08-1.83-.53,1.74.82-2.72L194,233.14a2.73,2.73,0,0,0,.61.26l.82-2.72L194,233.14l1.59-2.73-2.38,2a3,3,0,0,0,.82.72l1.59-2.73-2.41,2h0l2.36-2-3,.79a3.24,3.24,0,0,0,.65,1.23l2.36-2-3,.79,2.43-.64h-2.52a3.4,3.4,0,0,0,.09.64l2.43-.64h-1l-1.52-.13v.13H194l-1.53-.13.48,0-.47-.07h0l.48,0-.47-.07s0,.17-.1.39-.23.78-.37,1.31c-.07.26-.13.55-.2.87a7.74,7.74,0,0,0-.12,1.18,4.78,4.78,0,0,0,.23,1.45,3.86,3.86,0,0,0,.46,1,3.65,3.65,0,0,0,.85.95h0a3.93,3.93,0,0,0,1.39.72,4,4,0,0,0,1.19.17,4.48,4.48,0,0,0,1.45-.22,7.64,7.64,0,0,0,1.45-.6c.59-.29,1.07-.58,1.39-.72l.18-.09h.06l-.14-.39.12.4h0l-.14-.39.12.39-.65-2.06v2.17a2,2,0,0,0,.65-.08l-.65-2.07v-.93l-1.45,2.71a2.92,2.92,0,0,0,1.45.37v-3.08l-1.45,2.71,1.45-2.76-2.42,2a3,3,0,0,0,.94.76l1.45-2.76-2.41,2,2.11-1.74-2.46,1.21a3.24,3.24,0,0,0,.35.53l2.11-1.74-2.46,1.21,1.79-.88-1.9.62c0,.09.07.17.11.26l1.79-.88-1.9.62.77-.25-.78.19v.06l.76-.25-.77.19s0,.26.07.59.06.56.09.9.06.52.11.82a6.5,6.5,0,0,0,.15.72,5.11,5.11,0,0,0,.6,1.45,4.12,4.12,0,0,0,.87,1,3.93,3.93,0,0,0,1.5.85h0a4,4,0,0,0,1.14.17,4.6,4.6,0,0,0,1.38-.24,5.12,5.12,0,0,0,1.45-.79,10.55,10.55,0,0,0,1.21-1.2l.61-.72a6.34,6.34,0,0,1,.51-.57l-.19-.2.18.21h0l-.19-.21.18.21-1.19-1.4.84,1.63a1.63,1.63,0,0,0,.35-.23l-1.19-1.4.84,1.63-1.26-2.47.72,2.67a5.38,5.38,0,0,0,.51-.2l-1.27-2.47.72,2.67-.76-3v3.08a2.76,2.76,0,0,0,.85-.11l-.85-3v-.13l-.37,3.2h.37v-3.21l-.37,3.2h0l.36-3.24L203,237.88a3.4,3.4,0,0,0,1.35.47l.36-3.24L203,237.88l1.52-2.46-2.07,2a3,3,0,0,0,.56.46l1.52-2.46-2.08,2,1.21-1.16-1.45.86a1.76,1.76,0,0,0,.24.3l1.21-1.16-1.45.86s.12.22.25.52.2.49.33.78.2.46.32.73a7.47,7.47,0,0,0,.82,1.32,4.17,4.17,0,0,0,1,.92,3.87,3.87,0,0,0,2.21.68h.2a3.9,3.9,0,0,0,1.85-.57,3.79,3.79,0,0,0,1-.82,4.84,4.84,0,0,0,.77-1.17,9.4,9.4,0,0,0,.55-1.45c.1-.31.19-.6.26-.84l.15-.45a.34.34,0,0,1,0-.15h0l-1.61-.73,1.37,1.11a1.31,1.31,0,0,0,.24-.37L210.3,236l1.37,1.11-2.29-1.85,1.74,2.37a3,3,0,0,0,.55-.52l-2.29-1.85,1.74,2.37L209.18,235l.73,3.19a3.39,3.39,0,0,0,1.24-.56L209.21,235l.73,3.19h.16l-.87-3.26v3.31a3.58,3.58,0,0,0,.87-.12l-.87-3.25V235l-1.07,3a3.54,3.54,0,0,0,1.07.19V235l-1.07,3,.8-2.17-1.45,1.85a2.19,2.19,0,0,0,.64.34l.8-2.17-1.45,1.85.5-.64-.53.62h0l.5-.64-.53.62v0h0v0a5,5,0,0,1,.39.41l.53.59a11.32,11.32,0,0,0,1.09,1.1,4.75,4.75,0,0,0,1.75,1,4.06,4.06,0,0,0,2.69-.06h0a4,4,0,0,0,1.28-.83,4.11,4.11,0,0,0,1-1.51,5.26,5.26,0,0,0,.33-1.45c0-.38,0-.73,0-1,0-.64,0-1.2,0-1.56V234l-.84-.08.83.16V234l-.84-.08.82.16-2.39-.46,2.17,1.07a2.23,2.23,0,0,0,.22-.61l-2.39-.46,2.17,1.07-2.76-1.37,2.37,2a3.08,3.08,0,0,0,.39-.62l-2.76-1.37,2.37,2-2.53-2.11,1.69,2.82a3.25,3.25,0,0,0,.84-.73l-2.53-2.11,1.69,2.82h0l-1.74-2.81.77,3.22a3.12,3.12,0,0,0,.92-.44l-1.74-2.81.77,3.22-.73-3v3.13a2.56,2.56,0,0,0,.73-.08l-.73-3v.68l-.77,2.34a2.25,2.25,0,0,0,.77.11v-2.45l-.77,2.34.26-.79-.31.77h.05l.26-.79-.31.78.4.21c.35.2.82.48,1.38.78.32.16.65.31,1,.44a5.48,5.48,0,0,0,.72.22,5.07,5.07,0,0,0,1,.11,4.39,4.39,0,0,0,1.19-.17,3.87,3.87,0,0,0,1.39-.73h0a10.47,10.47,0,0,0,1.6-1.66,9.46,9.46,0,0,0,1.53-3.06c.2-.68.3-1.27.39-1.72a6.47,6.47,0,0,1,.34-1.31,2.21,2.21,0,0,1,.23-.36,2.9,2.9,0,0,1,.49-.5,2.85,2.85,0,0,1,.58-.4,2.08,2.08,0,0,1,.77-.23c.25,0,.62,0,1.1,0a12.79,12.79,0,0,0,3-.36,9.4,9.4,0,0,0,1.91-.73,11,11,0,0,0,3.49-3,9.34,9.34,0,0,0,1.52-3c.2-.69.3-1.28.4-1.73a5.79,5.79,0,0,1,.34-1.3,1.65,1.65,0,0,1,.22-.36,3.64,3.64,0,0,1,1.08-.91,2.07,2.07,0,0,1,.76-.22c.26,0,.61-.05,1.1-.06a12.28,12.28,0,0,0,3-.35,8.85,8.85,0,0,0,1.91-.73,10.34,10.34,0,0,0,1.88-1.27,11,11,0,0,0,1.6-1.67,9.41,9.41,0,0,0,1.53-3.05c.2-.69.3-1.28.4-1.72a5.38,5.38,0,0,1,.34-1.31,1.65,1.65,0,0,1,.22-.36,2.9,2.9,0,0,1,.49-.5,12.17,12.17,0,0,1,2.37-1.5c1.45-.73,3.22-1.45,5.07-2.42a21.24,21.24,0,0,0,2.78-1.69,13,13,0,0,0,2.6-2.48,13.81,13.81,0,0,0,2.17-4.19,46,46,0,0,0,1.37-5.91,16.86,16.86,0,0,1,1.21-4.28,12.7,12.7,0,0,1,1.55-2.3c1-1.25,2.37-2.62,3.69-4.24a20.72,20.72,0,0,0,1.87-2.68,13.37,13.37,0,0,0,1.4-3.33h0a13.53,13.53,0,0,0,.39-3.23,29.84,29.84,0,0,0-1-6.57,23.56,23.56,0,0,1-.8-5v-.34a11.2,11.2,0,0,1,.41-2.37c.36-1.35.94-2.9,1.45-4.65a20,20,0,0,0,1-5.84,13.33,13.33,0,0,0-.15-2l-3.58.58,3.62-.48a23.4,23.4,0,0,0-.58-3,14.53,14.53,0,0,0-1.68-3.88,22.24,22.24,0,0,0-1.39-2,16.78,16.78,0,0,1-1.63-2.3,17.29,17.29,0,0,1-1.6-4,12.9,12.9,0,0,1-.39-2.9c-.09-1.76,0-3.9-.16-6.23a20.09,20.09,0,0,0-1.66-7.4,16.21,16.21,0,0,0-2.82-4.09,47.08,47.08,0,0,0-4.93-4.43,26.49,26.49,0,0,1-3.87-3.69,20.36,20.36,0,0,1-1.85-2.9C255.85,92,254.9,90,253.64,88a20.07,20.07,0,0,0-2.22-2.9,13.73,13.73,0,0,0-3.08-2.5h0a13.67,13.67,0,0,0-4.41-1.6,23.54,23.54,0,0,0-4.28-.34c-2.34,0-4.58.2-6.61.2a18.52,18.52,0,0,1-2.13-.08,51.06,51.06,0,0,1-6.12-1.13,33.06,33.06,0,0,0-7.14-1,14.77,14.77,0,0,0-4.71.73A15.59,15.59,0,0,0,208.33,82a42.08,42.08,0,0,0-5,4.87,30.62,30.62,0,0,1-4.06,3.91,21.73,21.73,0,0,1-3.08,1.74c-1.77.85-3.82,1.66-5.9,2.69a20.26,20.26,0,0,0-6,4.3,19,19,0,0,0-3,4.45,56.65,56.65,0,0,0-2.53,6.47c-.34,1-.67,1.87-1,2.65a12.92,12.92,0,0,1-1,1.91,18.66,18.66,0,0,1-3,3.54,15.52,15.52,0,0,1-1.78,1.36c-.47.31-1,.64-1.56,1a14,14,0,0,0-2.76,2.56,19.41,19.41,0,0,0-2.61,4.26h0a12.21,12.21,0,0,0-1,3.22,17.75,17.75,0,0,0-.22,3c0,2.11.22,4,.22,5.54a9.78,9.78,0,0,1-.23,2.29,10,10,0,0,1-1,2.23c-.72,1.29-1.71,2.77-2.67,4.48a20,20,0,0,0-1.31,2.82,11.81,11.81,0,0,0-.73,3.38h0v.64a13.7,13.7,0,0,0,.73,4.25,50.14,50.14,0,0,0,2.17,5,13.26,13.26,0,0,1,1.24,3.62,5,5,0,0,1,.05.86,23.51,23.51,0,0,1-.49,4,30.19,30.19,0,0,0-.61,5.28,12.68,12.68,0,0,0,.6,4,12.87,12.87,0,0,0,2.24,3.92,43.25,43.25,0,0,0,4,4,13.84,13.84,0,0,1,2.61,3,1.87,1.87,0,0,1,.23.52,1.19,1.19,0,0,1,0,.33,8,8,0,0,1-.18,1.19,13.06,13.06,0,0,0-.33,2.64,8.39,8.39,0,0,0,.28,2.17,9.05,9.05,0,0,0,.93,2.25,9.16,9.16,0,0,0,1.32,1.83,8.76,8.76,0,0,0,2.72,1.95c.52.24,1,.45,1.59.64a5,5,0,0,1,1.12.47,1.43,1.43,0,0,1,.23.2,2.08,2.08,0,0,1,.3.43,1.75,1.75,0,0,1,.22.53,1.12,1.12,0,0,1,.05.31,8.21,8.21,0,0,1-.18,1.21,12.31,12.31,0,0,0-.33,2.64,8.39,8.39,0,0,0,.28,2.17,9.6,9.6,0,0,0,2.25,4.08,8.49,8.49,0,0,0,2.72,1.95,15.45,15.45,0,0,0,1.59.63,5.48,5.48,0,0,1,1.11.48,1.37,1.37,0,0,1,.23.19,2.32,2.32,0,0,1,.31.44,2.39,2.39,0,0,1,.22.52.86.86,0,0,1,0,.32,6,6,0,0,1-.18,1.2,12.38,12.38,0,0,0-.32,2.64,8.4,8.4,0,0,0,.27,2.18,9.14,9.14,0,0,0,.93,2.24h0Z" transform="translate(-70.37 -75.53)" style="fill:#fe4c00"/><line x1="133.3" y1="177.13" x2="158.31" y2="20.09" style="fill:none"/><polyline points="136.87 177.7 161.9 20.66 154.73 19.52 129.72 176.56" style="fill:#fe4c00"/><line x1="114.26" y1="45.67" x2="149.04" y2="78.3" style="fill:none"/><polyline points="111.78 48.31 146.56 80.94 151.52 75.66 116.74 43.03" style="fill:#fe4c00"/><line x1="151.42" y1="63.36" x2="187.65" y2="47.93" style="fill:none"/><polyline points="152.84 66.7 189.07 51.27 186.23 44.59 150 60.02" style="fill:#fe4c00"/><line x1="141.23" y1="117.49" x2="109.47" y2="89.29" style="fill:none"/><polyline points="143.64 114.78 111.88 86.58 107.06 92 138.82 120.21" style="fill:#fe4c00"/><polyline points="75.13 149.88 76.09 158.97 84.75 158.06 83.78 148.97" style="fill:#fe4c00"/><path d="M217.74,258.92,192.48,383.41A127,127,0,0,1,102.76,204.9Z" transform="translate(-70.37 -75.53)" style="fill:#fff"/><path d="M217.74,258.92l-3.56-.72L189,382.68l3.55.73.72-3.56A123.37,123.37,0,0,1,106,206.45l-3.28-1.55-1.54,3.29,115,54,1.55-3.28-3.56-.72,3.56.72,1.54-3.28L101,200.08l-1.54,3.31A130.59,130.59,0,0,0,191.76,387l3.56.72,26.53-130.82-2.57-1.21Z" transform="translate(-70.37 -75.53)" style="fill:#fe4c00"/><polyline points="54.53 178.18 62.78 172.99 58.16 165.62 49.9 170.81" style="fill:#fe4c00"/><polyline points="82.34 281.91 89.08 287.44 94.59 280.72 87.86 275.19" style="fill:#fe4c00"/><polyline points="105.16 242.29 110.51 249.99 117.65 245.01 112.3 237.32" style="fill:#fe4c00"/><polyline points="107.42 200.07 115.05 192.96 109.12 186.59 101.5 193.7" style="fill:#fe4c00"/><path d="M221,241.93,145.77,344.24a127,127,0,0,1-6.32-199.68Z" transform="translate(-70.37 -75.53)" style="fill:#fff"/><path d="M221,241.93l-2.9-2.17L142.85,342.1l2.9,2.17,2.18-2.9a123.38,123.38,0,0,1-6.14-194l-2.33-2.78-2.78,2.25,81.58,97.4,2.78-2.33-2.9-2.17,2.9,2.17,2.78-2.32L139.91,139.46l-2.78,2.32a130.61,130.61,0,0,0,6.52,205.38l2.9,2.18,79.1-107.53-1.83-2.17Z" transform="translate(-70.37 -75.53)" style="fill:#fe4c00"/><polyline points="68.64 122.62 78.32 121.39 77.22 112.75 67.54 113.99" style="fill:#fe4c00"/><polyline points="44.71 170.85 48.5 178.7 56.33 174.93 52.55 167.07" style="fill:#fe4c00"/><polyline points="82.94 197.07 84.56 206.29 93.13 204.79 91.51 195.57" style="fill:#fe4c00"/><polyline points="107.42 164.73 117.33 161.48 114.63 153.22 104.72 156.46" style="fill:#fe4c00"/><path d="M187.11,270.31l.13.08h0a49.07,49.07,0,0,0,26.49,7.73,50,50,0,0,0,23.44-5.87,49,49,0,0,0,26.1-43.36,50.23,50.23,0,0,0-5.84-23.46,49,49,0,0,0-16.89-18.31L230.39,203a30.14,30.14,0,0,1,10.37,11.28,31.26,31.26,0,0,1,3.62,14.61,30.16,30.16,0,0,1-16.06,26.72,31.15,31.15,0,0,1-14.61,3.63,30.32,30.32,0,0,1-16.34-4.76h0l-.13-.08-10.15,15.88Z" transform="translate(-70.37 -75.53)" style="fill:#ffd617"/><path d="M263.54,193.31c-3,3.86-8.16,5.35-12,8-4,2.69-7.35,6.88-11.88,8.17s-9.65-.47-14.41-.63-9.89,1.3-14.42-.35c-4.35-1.59-7.41-6-11.28-9s-8.86-4.9-11.46-8.75-2.54-9.36-3.85-13.89S180,167.78,180.12,163s3.4-9,5.07-13.5c1.59-4.35,1.79-9.73,4.81-13.59s8.16-5.36,12-8c4-2.7,7.35-6.87,11.88-8.17s9.65.47,14.41.63,9.89-1.3,14.42.35c4.35,1.58,7.41,6,11.28,9s8.86,4.9,11.46,8.75,2.54,9.36,3.85,13.9,4.27,9,4.11,13.81-3.4,9-5.08,13.51C266.76,184.09,266.56,189.44,263.54,193.31Z" transform="translate(-70.37 -75.53)" style="fill:#fff"/><path d="M263.54,193.31l-2.82-2.24a9.57,9.57,0,0,1-1.92,1.84,30.71,30.71,0,0,1-4.21,2.5,49.45,49.45,0,0,0-5.07,2.85c-2.32,1.58-4.22,3.37-6,4.8A23,23,0,0,1,241,204.9a9.34,9.34,0,0,1-2.32,1,9.76,9.76,0,0,1-2.74.34,33.63,33.63,0,0,1-4.81-.47,50.36,50.36,0,0,0-5.74-.63h-.88c-1.58,0-3.08.12-4.5.23s-2.74.22-3.95.22a11.47,11.47,0,0,1-4-.58,9.55,9.55,0,0,1-2.17-1.19,34.26,34.26,0,0,1-3.68-3.24,54.21,54.21,0,0,0-4.41-4c-2.24-1.73-4.55-3-6.46-4.24a23,23,0,0,1-2.53-1.84,9.25,9.25,0,0,1-1.69-1.84,9.09,9.09,0,0,1-1.13-2.35,31.16,31.16,0,0,1-1.07-4.78,50.59,50.59,0,0,0-1.17-5.73,69.28,69.28,0,0,0-2.65-7,26.71,26.71,0,0,1-1-2.9,10.37,10.37,0,0,1-.35-2.54v-.24h0a9.69,9.69,0,0,1,.47-2.5,31.91,31.91,0,0,1,1.93-4.5,56.49,56.49,0,0,0,2.44-5.38c.93-2.59,1.38-5.08,2-7.3a26.22,26.22,0,0,1,1-3,10.79,10.79,0,0,1,1.32-2.31,10.39,10.39,0,0,1,1.92-1.83,30.14,30.14,0,0,1,4.17-2.54A51.56,51.56,0,0,0,204,131c2.32-1.58,4.21-3.37,6-4.81a22.58,22.58,0,0,1,2.53-1.83,8.76,8.76,0,0,1,5.07-1.4,32.39,32.39,0,0,1,4.82.48,52.28,52.28,0,0,0,5.73.63h.87c1.58,0,3.08-.13,4.5-.24s2.74-.21,3.95-.21a11.14,11.14,0,0,1,4,.57h0a9.45,9.45,0,0,1,2.18,1.2,32.13,32.13,0,0,1,3.67,3.23,52.41,52.41,0,0,0,4.42,4c2.24,1.74,4.55,3,6.46,4.25a21.58,21.58,0,0,1,2.52,1.83,9.06,9.06,0,0,1,1.7,1.85,9.72,9.72,0,0,1,1.13,2.34,31.43,31.43,0,0,1,1.07,4.78,50.79,50.79,0,0,0,1.18,5.74,70.66,70.66,0,0,0,2.64,7,25.42,25.42,0,0,1,1,2.9,10.37,10.37,0,0,1,.35,2.54v.26h0a9.36,9.36,0,0,1-.47,2.51,32.3,32.3,0,0,1-1.93,4.49,55.55,55.55,0,0,0-2.44,5.39c-.92,2.58-1.37,5.07-2,7.3a24.1,24.1,0,0,1-1,3,9.89,9.89,0,0,1-1.29,2.34l2.86,2.24,2.86,2.22a17.76,17.76,0,0,0,2.29-4,38.34,38.34,0,0,0,1.76-5.8,46.93,46.93,0,0,1,1.3-4.82c.68-1.89,1.85-4,3-6.38a30.68,30.68,0,0,0,1.52-3.82,16.61,16.61,0,0,0,.78-4.42h0v-.48a17.25,17.25,0,0,0-.57-4.35,41.57,41.57,0,0,0-2-5.52,44.08,44.08,0,0,1-1.74-4.61c-.54-1.86-.83-4.24-1.32-6.83a29.05,29.05,0,0,0-1-4,17.14,17.14,0,0,0-2-4.08,16.45,16.45,0,0,0-3-3.3,39.09,39.09,0,0,0-4.93-3.43,47.83,47.83,0,0,1-4.35-2.85c-1.63-1.26-3.3-3-5.2-4.82a30.38,30.38,0,0,0-3.15-2.62,16.63,16.63,0,0,0-3.92-2.1h0a18.85,18.85,0,0,0-6.45-1c-1.6,0-3.12.12-4.54.24s-2.73.22-3.91.22h-.64a45.37,45.37,0,0,1-4.93-.57,42.71,42.71,0,0,0-5.86-.55,17.25,17.25,0,0,0-4.74.63,16.51,16.51,0,0,0-4.09,1.83,37.81,37.81,0,0,0-4.81,3.62,47.12,47.12,0,0,1-4,3.19c-1.57,1.08-3.73,2.08-6,3.34a30.14,30.14,0,0,0-3.48,2.22,16.48,16.48,0,0,0-5.58,7.15,36.63,36.63,0,0,0-1.77,5.8,46.56,46.56,0,0,1-1.3,4.8c-.68,1.9-1.85,4-3,6.39a32.26,32.26,0,0,0-1.51,3.82,16.54,16.54,0,0,0-.78,4.41h0v.5a17.72,17.72,0,0,0,.57,4.35,40.25,40.25,0,0,0,2,5.52,46.37,46.37,0,0,1,1.73,4.61c.54,1.87.83,4.25,1.32,6.83a29.05,29.05,0,0,0,1,4,17.21,17.21,0,0,0,2,4.09,16.4,16.4,0,0,0,3,3.29A39.17,39.17,0,0,0,193,199.5a47.84,47.84,0,0,1,4.31,2.84c1.63,1.27,3.3,3,5.21,4.83a31.26,31.26,0,0,0,3.14,2.61,16,16,0,0,0,3.93,2.1,18.82,18.82,0,0,0,6.45,1c1.6,0,3.11-.13,4.53-.24s2.74-.22,3.92-.22h.63a45.37,45.37,0,0,1,4.93.57,41.2,41.2,0,0,0,5.86.55,17.17,17.17,0,0,0,4.73-.62,16.58,16.58,0,0,0,4.1-1.83,37.88,37.88,0,0,0,4.81-3.63,49.19,49.19,0,0,1,4-3.19c1.57-1.07,3.73-2.08,6-3.34a30.51,30.51,0,0,0,3.51-2.22,17.1,17.1,0,0,0,3.29-3.18Z" transform="translate(-70.37 -75.53)" style="fill:#fe4c00"/><path d="M223.81,145.69l-.16-1.5.14,1.51h0l-.15-1.5.14,1.51a6.63,6.63,0,0,1,.89,0,14.45,14.45,0,0,1,2.18.17,8.69,8.69,0,0,1,1.73.47,4.9,4.9,0,0,1,1,.52,2.94,2.94,0,0,1,.92,1,4,4,0,0,1,.4,1.93,9.83,9.83,0,0,1-.17,1.72l7.12,1.34a17.43,17.43,0,0,0,.3-3.06,12,12,0,0,0-.44-3.32,10,10,0,0,0-2.7-4.5,11.08,11.08,0,0,0-2.84-2,15.57,15.57,0,0,0-4.21-1.3,21.61,21.61,0,0,0-3.31-.26c-.55,0-1.09,0-1.64.07l.73,7.21Z" transform="translate(-70.37 -75.53)" style="fill:#fe4c00"/><path d="M233,183.25l-1.9-1.35,1.89,1.37h0L231,181.93l1.89,1.37-.09-.07.09.07h0l-.09-.07.09.07a7.66,7.66,0,0,1,1.45-1.45,5.6,5.6,0,0,1,1.31-.78,3.4,3.4,0,0,1,1.29-.28,3.29,3.29,0,0,1,1.51.39,8.24,8.24,0,0,1,2.37,1.86l5.3-4.95a15.64,15.64,0,0,0-4.49-3.43,10.45,10.45,0,0,0-9-.19,13.94,13.94,0,0,0-4.09,2.83,13.5,13.5,0,0,0-1.53,1.76l5.92,4.18Z" transform="translate(-70.37 -75.53)" style="fill:#fe4c00"/><path d="M195.77,157.08l.45-1.83-.51,1.81h.06l.45-1.82-.51,1.81h0a3.07,3.07,0,0,1,.5.2,3.18,3.18,0,0,1,1.12.84,1.86,1.86,0,0,1,.33.58,2.67,2.67,0,0,1,.16,1,8.17,8.17,0,0,1-.91,3.35l6.59,3a15.34,15.34,0,0,0,1.57-6.37,9.89,9.89,0,0,0-1.22-4.82,9.65,9.65,0,0,0-1.95-2.41,11.15,11.15,0,0,0-2.89-1.86,10.65,10.65,0,0,0-1.56-.54l-1.68,7.05Z" transform="translate(-70.37 -75.53)" style="fill:#fe4c00"/><path d="M298.05,335.31l0-.15a30.13,30.13,0,0,1-.86-7.14A31,31,0,0,1,311,302.36a30.09,30.09,0,0,1,16.63-5A31,31,0,0,1,353.3,311.2a30.45,30.45,0,0,1,4.14,9.47l18.3-4.46A49.07,49.07,0,0,0,369,300.8a49.82,49.82,0,0,0-41.4-22.28,48.9,48.9,0,0,0-27,8.08A49.8,49.8,0,0,0,278.29,328a48.77,48.77,0,0,0,1.4,11.6l0,.14Z" transform="translate(-70.37 -75.53)" style="fill:#ffd617"/><path d="M320.62,237c-3,3.86-8.16,5.35-12,8-4,2.7-7.35,6.88-11.88,8.18s-9.64-.48-14.41-.63-9.89,1.29-14.42-.35c-4.35-1.6-7.41-6-11.28-9s-8.86-4.89-11.46-8.75-2.54-9.35-3.84-13.89-4.28-9.06-4.12-13.82,3.4-9,5.08-13.51c1.59-4.35,1.79-9.72,4.8-13.59s8.17-5.35,12-8,7.33-6.88,11.87-8.18,9.65.47,14.41.63,9.89-1.29,14.42.35c4.35,1.59,7.41,6,11.28,9s8.86,4.9,11.46,8.76,2.54,9.35,3.84,13.89,4.28,9,4.12,13.82-3.4,9-5.07,13.51C323.84,227.81,323.65,233.16,320.62,237Z" transform="translate(-70.37 -75.53)" style="fill:#fff"/><path d="M320.62,237l-2.85-2.24a10.19,10.19,0,0,1-1.92,1.85,33,33,0,0,1-4.21,2.49,51.56,51.56,0,0,0-5.08,2.85c-2.32,1.58-4.22,3.37-6,4.8a25.22,25.22,0,0,1-2.54,1.84A8.8,8.8,0,0,1,293,250a33.78,33.78,0,0,1-4.82-.48,50.19,50.19,0,0,0-5.73-.63h-.88c-1.57,0-3.08.12-4.5.24s-2.74.21-3.95.21a11.65,11.65,0,0,1-4-.57,9.45,9.45,0,0,1-2.18-1.2,32.13,32.13,0,0,1-3.67-3.23,53.88,53.88,0,0,0-4.41-4c-2.25-1.74-4.56-3-6.47-4.25a25.43,25.43,0,0,1-2.53-1.83,9.58,9.58,0,0,1-1.69-1.85,9.79,9.79,0,0,1-1.13-2.35,31.16,31.16,0,0,1-1.07-4.78,51,51,0,0,0-1.17-5.73,71.87,71.87,0,0,0-2.64-7,24.15,24.15,0,0,1-1-2.9,10.22,10.22,0,0,1-.34-2.53v-.24h0a9.67,9.67,0,0,1,.46-2.51,33.12,33.12,0,0,1,1.93-4.5,53.08,53.08,0,0,0,2.44-5.38c.93-2.59,1.38-5.08,2-7.3a23.75,23.75,0,0,1,1-3,9.1,9.1,0,0,1,3.24-4.15,30.83,30.83,0,0,1,4.21-2.49,51.65,51.65,0,0,0,5.08-2.86c2.32-1.58,4.22-3.37,6-4.8a24,24,0,0,1,2.53-1.84,8.69,8.69,0,0,1,5.08-1.39,33.77,33.77,0,0,1,4.81.47,52.57,52.57,0,0,0,5.73.64h.88c1.57,0,3.07-.13,4.49-.24s2.74-.22,4-.22a11.7,11.7,0,0,1,4,.57,9.51,9.51,0,0,1,2.21,1.21,32.06,32.06,0,0,1,3.66,3.22,54.3,54.3,0,0,0,4.42,4c2.24,1.74,4.55,3,6.46,4.25a23.83,23.83,0,0,1,2.53,1.82,9.64,9.64,0,0,1,1.7,1.85,9.76,9.76,0,0,1,1.12,2.35,31.16,31.16,0,0,1,1.07,4.78,53.52,53.52,0,0,0,1.16,5.74,70.48,70.48,0,0,0,2.66,7,26,26,0,0,1,1,2.9,10.22,10.22,0,0,1,.35,2.53v.26h0a9.67,9.67,0,0,1-.46,2.5,32,32,0,0,1-1.94,4.5,54,54,0,0,0-2.43,5.38c-.93,2.59-1.38,5.11-2,7.3a22.19,22.19,0,0,1-1,3,10,10,0,0,1-1.32,2.31l2.86,2.23,2.86,2.24a17.47,17.47,0,0,0,2.28-4,36.83,36.83,0,0,0,1.77-5.79,44.33,44.33,0,0,1,1.3-4.81c.68-1.9,1.85-4,3-6.39a29.21,29.21,0,0,0,1.52-3.82,16.54,16.54,0,0,0,.78-4.42h0v-.48a17.49,17.49,0,0,0-.58-4.32,40.07,40.07,0,0,0-1.95-5.51,47.57,47.57,0,0,1-1.74-4.62c-.54-1.86-.83-4.25-1.32-6.83a29.05,29.05,0,0,0-1-4,16.93,16.93,0,0,0-2-4.09,16.4,16.4,0,0,0-3-3.29,39.17,39.17,0,0,0-4.93-3.44,47.83,47.83,0,0,1-4.35-2.85c-1.63-1.26-3.3-3-5.2-4.82a29.83,29.83,0,0,0-3.11-2.63,16.86,16.86,0,0,0-3.92-2.11,18.64,18.64,0,0,0-6.45-1c-1.61,0-3.12.12-4.54.24s-2.73.21-3.91.21h-.64a45.32,45.32,0,0,1-4.93-.55,38.49,38.49,0,0,0-5.87-.55A17.21,17.21,0,0,0,270,160a16.89,16.89,0,0,0-4.09,1.83,39.72,39.72,0,0,0-4.82,3.63,47.38,47.38,0,0,1-4,3.19c-1.57,1.07-3.74,2.07-6,3.34a28.55,28.55,0,0,0-3.52,2.22,16.23,16.23,0,0,0-5.57,7.14,36.63,36.63,0,0,0-1.77,5.8,42.2,42.2,0,0,1-1.31,4.81c-.68,1.9-1.84,4-3,6.39a29.65,29.65,0,0,0-1.52,3.81,16.63,16.63,0,0,0-.79,4.42h0v.51a17.48,17.48,0,0,0,.58,4.31,39.61,39.61,0,0,0,1.95,5.51,45.76,45.76,0,0,1,1.73,4.61c.55,1.87.84,4.26,1.32,6.84a30.59,30.59,0,0,0,1,4,17.36,17.36,0,0,0,2,4.09,17,17,0,0,0,3,3.29,38.08,38.08,0,0,0,4.93,3.43,46,46,0,0,1,4.31,2.86c1.63,1.26,3.3,3,5.2,4.82a32.54,32.54,0,0,0,3.15,2.61,16.86,16.86,0,0,0,3.92,2.11,18.66,18.66,0,0,0,6.46,1c1.59,0,3.12-.13,4.53-.24s2.74-.21,3.91-.21h.63a47.66,47.66,0,0,1,4.93.56,38.61,38.61,0,0,0,5.87.55,17.23,17.23,0,0,0,4.74-.61,16.85,16.85,0,0,0,4.08-1.84,37.91,37.91,0,0,0,4.82-3.62,47.12,47.12,0,0,1,4-3.19c1.57-1.07,3.73-2.07,6-3.34a30.51,30.51,0,0,0,3.51-2.22,17.39,17.39,0,0,0,3.3-3.17Z" transform="translate(-70.37 -75.53)" style="fill:#fe4c00"/><path d="M280.9,189.41l-.17-1.5.14,1.51h0l-.16-1.51.14,1.52s.37,0,.89,0a13.27,13.27,0,0,1,2.18.18,8,8,0,0,1,1.73.46,4.94,4.94,0,0,1,1,.53,2.73,2.73,0,0,1,.92,1,4.05,4.05,0,0,1,.4,1.94,8.93,8.93,0,0,1-.17,1.71l7.12,1.34a15.69,15.69,0,0,0,.3-3,12,12,0,0,0-.44-3.33,9.93,9.93,0,0,0-2.7-4.5,11.08,11.08,0,0,0-2.84-2,15.47,15.47,0,0,0-4.21-1.3,21.52,21.52,0,0,0-3.31-.26,15.2,15.2,0,0,0-1.63.08l.76,7.21Z" transform="translate(-70.37 -75.53)" style="fill:#fe4c00"/><path d="M290,227l-1.92-1.36L290,227h0l-1.93-1.37L290,227l-.1-.08.1.08h0l-.1-.08.1.08a8.85,8.85,0,0,1,1.45-1.42,5.93,5.93,0,0,1,1.31-.77,3.4,3.4,0,0,1,1.29-.28,3.29,3.29,0,0,1,1.51.39,8.24,8.24,0,0,1,2.37,1.86l5.3-5a15.64,15.64,0,0,0-4.49-3.43,10.42,10.42,0,0,0-9-.19,13.94,13.94,0,0,0-4.09,2.83,14.1,14.1,0,0,0-1.53,1.75l5.92,4.19Z" transform="translate(-70.37 -75.53)" style="fill:#fe4c00"/><path d="M252.85,200.8l.45-1.83-.51,1.82h.06l.45-1.83-.51,1.81h0a3,3,0,0,1,.49.2,3.18,3.18,0,0,1,1.12.84,1.88,1.88,0,0,1,.34.58,2.86,2.86,0,0,1,.19,1,8.32,8.32,0,0,1-.9,3.35l6.58,3a15.3,15.3,0,0,0,1.56-6.38,9.74,9.74,0,0,0-1.21-4.81,9.47,9.47,0,0,0-2-2.43,10.9,10.9,0,0,0-2.89-1.86,10.53,10.53,0,0,0-1.55-.54l-1.69,7.05Z" transform="translate(-70.37 -75.53)" style="fill:#fe4c00"/><path d="M289.15,302.21c-4.4-2.17-6.93-6.88-10.28-10.11s-8.24-5.76-10.45-9.93-1.53-9.54-2.36-14.23-3.31-9.42-2.64-14.18c.65-4.61,4.31-8.48,6.46-12.89s3-9.69,6.2-13.05,8.63-4.42,12.8-6.63,8-6.06,12.67-6.89,9.48,1.45,14.25,2.18c4.61.65,9.89-.26,14.29,1.89s6.94,6.88,10.28,10.11,8.24,5.8,10.45,9.94,1.53,9.53,2.36,14.23,3.32,9.42,2.64,14.17-4.31,8.49-6.46,12.89-3,9.69-6.19,13.05-8.64,4.42-12.8,6.62-8,6.06-12.67,6.89-9.48-1.45-14.26-2.18C298.84,303.46,293.55,304.36,289.15,302.21Z" transform="translate(-70.37 -75.53)" style="fill:#fff"/><path d="M289.15,302.21l1.59-3.25a9.88,9.88,0,0,1-2.17-1.5,31.69,31.69,0,0,1-3.32-3.63,49.35,49.35,0,0,0-3.84-4.35c-2-1.94-4.17-3.43-5.94-4.86a25.44,25.44,0,0,1-2.31-2.1,8.62,8.62,0,0,1-2.37-4.49,30.67,30.67,0,0,1-.57-4.87,52.35,52.35,0,0,0-.57-5.86,62.47,62.47,0,0,0-1.74-6.58,19.89,19.89,0,0,1-1-5.3,7.54,7.54,0,0,1,.08-1.16h0a8.77,8.77,0,0,1,.73-2.4,30,30,0,0,1,2.39-4.25,56.28,56.28,0,0,0,3-5.15c1.24-2.55,2-5.07,2.82-7.2a22.69,22.69,0,0,1,1.27-2.85,9.45,9.45,0,0,1,1.45-2,9.67,9.67,0,0,1,2.07-1.59,30.74,30.74,0,0,1,4.45-2,51.2,51.2,0,0,0,5.37-2.33c2.47-1.32,4.53-2.9,6.44-4.14a23.62,23.62,0,0,1,2.72-1.56,9.68,9.68,0,0,1,2.45-.82,8.78,8.78,0,0,1,1.45-.12,21.72,21.72,0,0,1,5.18.84c2.13.59,4.3,1.07,6.48,1.45,2.73.37,5.29.29,7.55.41a22.92,22.92,0,0,1,3.1.31,10.31,10.31,0,0,1,2.54.81,10.76,10.76,0,0,1,2.17,1.5,30,30,0,0,1,3.31,3.63,52.83,52.83,0,0,0,3.84,4.35c2,1.94,4.17,3.42,5.93,4.86a23.14,23.14,0,0,1,2.32,2.1,9.3,9.3,0,0,1,1.52,2.06,10,10,0,0,1,.86,2.44,33,33,0,0,1,.57,4.86,54.8,54.8,0,0,0,.56,5.86,67.76,67.76,0,0,0,1.74,6.58,19.57,19.57,0,0,1,1,5.3,7.45,7.45,0,0,1-.08,1.16,9.11,9.11,0,0,1-.72,2.4,33.44,33.44,0,0,1-2.33,4.28,57.49,57.49,0,0,0-3,5.14c-1.24,2.56-2,5.08-2.82,7.21a22.69,22.69,0,0,1-1.27,2.85,9.45,9.45,0,0,1-1.45,2,9.67,9.67,0,0,1-2.07,1.59,33.1,33.1,0,0,1-4.45,2,51.13,51.13,0,0,0-5.37,2.32c-2.47,1.31-4.53,2.9-6.44,4.13a22.3,22.3,0,0,1-2.72,1.57,9.68,9.68,0,0,1-2.45.82,7.81,7.81,0,0,1-1.45.11,22.22,22.22,0,0,1-5.19-.83,61.92,61.92,0,0,0-6.48-1.45c-2.72-.38-5.27-.29-7.54-.41a22,22,0,0,1-3.13-.34,9.35,9.35,0,0,1-2.53-.81l-1.59,3.26-1.6,3.26a17.7,17.7,0,0,0,4.35,1.41,36.07,36.07,0,0,0,6.05.52,45.86,45.86,0,0,1,5,.29c1.7.24,3.62.77,5.74,1.3a28.16,28.16,0,0,0,6.94,1.05,15.52,15.52,0,0,0,2.72-.22,16.67,16.67,0,0,0,4.28-1.41,36.53,36.53,0,0,0,5.17-3.11,49.27,49.27,0,0,1,4.28-2.74c1.72-.91,4-1.69,6.42-2.7a29.68,29.68,0,0,0,3.71-1.83,16.94,16.94,0,0,0,3.58-2.78,16.58,16.58,0,0,0,2.61-3.62,40.14,40.14,0,0,0,2.34-5.54,46.2,46.2,0,0,1,1.9-4.81c.9-1.85,2.28-3.85,3.62-6.09a30.46,30.46,0,0,0,1.91-3.62,16.73,16.73,0,0,0,1.24-4.27,14.41,14.41,0,0,0,.16-2.17,27,27,0,0,0-1.25-7.3c-.63-2.17-1.27-4.15-1.57-5.84-.34-1.95-.39-4.35-.6-7a32.86,32.86,0,0,0-.59-4.08,16.08,16.08,0,0,0-4.18-7.84,38.9,38.9,0,0,0-4.56-4q-2.06-1.53-3.95-3.26c-1.37-1.32-2.79-3.22-4.5-5.23a31.28,31.28,0,0,0-2.9-3,16.45,16.45,0,0,0-8.15-4,37.26,37.26,0,0,0-6.05-.53,46.18,46.18,0,0,1-5-.28c-1.69-.24-3.62-.77-5.73-1.3a28.57,28.57,0,0,0-6.94-1.05,14.44,14.44,0,0,0-2.71.23,16.59,16.59,0,0,0-4.29,1.4,38.21,38.21,0,0,0-5.18,3.11,45.51,45.51,0,0,1-4.27,2.74c-1.72.92-4,1.69-6.41,2.7a29.14,29.14,0,0,0-3.72,1.83,15.8,15.8,0,0,0-6.19,6.39,39.13,39.13,0,0,0-2.34,5.54,46,46,0,0,1-1.9,4.8c-.89,1.87-2.28,3.86-3.62,6.1a29.07,29.07,0,0,0-1.91,3.62,16.8,16.8,0,0,0-1.24,4.28h0a13.2,13.2,0,0,0-.15,2.17,26.6,26.6,0,0,0,1.24,7.3c.63,2.17,1.27,4.15,1.57,5.84.35,1.95.39,4.35.61,7a29.47,29.47,0,0,0,.58,4.08,15.87,15.87,0,0,0,4.16,7.81,38.09,38.09,0,0,0,4.55,4,47.32,47.32,0,0,1,3.94,3.26c1.38,1.32,2.81,3.22,4.52,5.22a28.13,28.13,0,0,0,2.9,3,17.45,17.45,0,0,0,3.79,2.57Z" transform="translate(-70.37 -75.53)" style="fill:#fe4c00"/><path d="M327.51,253.49l1.3-.42-1.3.4h0l1.3-.42-1.3.41a11.2,11.2,0,0,1,.26,1.11,11.84,11.84,0,0,1,.24,2.37,7.15,7.15,0,0,1-.21,1.85,4.1,4.1,0,0,1-.41,1,2.66,2.66,0,0,1-1.11,1,6.86,6.86,0,0,1-3,.62l.18,7.25a14.52,14.52,0,0,0,5.58-1.16,10.19,10.19,0,0,0,3.11-2.17,10.39,10.39,0,0,0,2.52-4.31,14.27,14.27,0,0,0,.58-4.16,20.22,20.22,0,0,0-.41-4c-.21-1-.41-1.65-.44-1.74l-6.9,2.22Z" transform="translate(-70.37 -75.53)" style="fill:#fe4c00"/><path d="M292.66,270.22l.88-2.05-.92,2h0l.88-2.05-.88,2.05.16-.35-.16.35h0l.16-.35-.16.35a8.69,8.69,0,0,1,1.92,1.31,5.28,5.28,0,0,1,1,1.29,3.09,3.09,0,0,1,.37,1.45,4.45,4.45,0,0,1-.28,1.45,9.76,9.76,0,0,1-1.18,2.18L300.4,282a16.72,16.72,0,0,0,2.09-3.94,12.07,12.07,0,0,0,.69-3.86,10.35,10.35,0,0,0-1.31-5,13.18,13.18,0,0,0-4-4.29,13,13,0,0,0-2.37-1.37l-2.87,6.66Z" transform="translate(-70.37 -75.53)" style="fill:#fe4c00"/><path d="M310.58,228.42l1.69,0-1.69-.11v.07l1.69,0-1.69-.11v.17a5.38,5.38,0,0,1-.2.79,4,4,0,0,1-.33.65,1.87,1.87,0,0,1-.73.72,3.83,3.83,0,0,1-1.91.4,11.82,11.82,0,0,1-2.36-.3l-1.58,7.07a18,18,0,0,0,3.94.47,12.17,12.17,0,0,0,3.12-.38,9.64,9.64,0,0,0,4.19-2.29,9.31,9.31,0,0,0,1.82-2.36,10.75,10.75,0,0,0,1.08-3.08,8.23,8.23,0,0,0,.2-1.56l-7.25-.2Z" transform="translate(-70.37 -75.53)" style="fill:#fe4c00"/><path d="M295,207.13h.16a48.88,48.88,0,0,0,19-4.13,50,50,0,0,0,21.38-17.94,49,49,0,0,0,8.32-27.33V157h0a48.75,48.75,0,0,0-4.12-19,50,50,0,0,0-18-21.38,49.08,49.08,0,0,0-27.33-8.32h-.78l.37,18.85h.41a29.91,29.91,0,0,1,11.69,2.35,31.19,31.19,0,0,1,13.48,11,30.19,30.19,0,0,1,5.41,16.8h0v.46a30.07,30.07,0,0,1-2.36,11.69,31.16,31.16,0,0,1-11,13.47,30.19,30.19,0,0,1-16.8,5.41h-.14l.26,18.84Z" transform="translate(-70.37 -75.53)" style="fill:#ffd617"/><path d="M380.14,208.4c-1.86-28.13-24.86-48.56-53.18-50.32a3.49,3.49,0,0,0-3.7,3.26v.41l.09,1.53,1.88,33.66,14.6,15.15H376.7a3.48,3.48,0,0,0,3.45-3.51C380.15,208.52,380.14,208.46,380.14,208.4Z" transform="translate(-70.37 -75.53)" style="fill:#fff"/><path d="M380.14,208.4l3.62-.24a56,56,0,0,0-5.46-20.82,57,57,0,0,0-20.59-23,63.57,63.57,0,0,0-30.53-9.84h-.44a7.1,7.1,0,0,0-7.1,7.1V162h0l.09,1.54,2,35,16.59,17.22H376.7a7.1,7.1,0,0,0,7.1-7.08h0v-.47h0l-3.62.24-3.63.24h.15l-.12-.12,0,.12h.16l-.12-.12.1.11v-.16l-.1,0,.1.11v-.15h-35.3l-12.59-13.05L327,163.11l-.08-1.54h-.16l.11.11.05-.11h-.16l.11.11-.1-.1v.14l.1,0-.1-.1v.09h0v0h0A55.1,55.1,0,0,1,361,176a48.47,48.47,0,0,1,15.52,32.61h0Z" transform="translate(-70.37 -75.53)" style="fill:#fe4c00"/><path d="M329.79,197.76l-.93-23.85v0l-1.09.06h1.09v-.06l-1.09.06h0l.81.79a1.15,1.15,0,0,0,.32-.79h-1.13l.81.79-.86-.83.48,1.09a1.22,1.22,0,0,0,.38-.26l-.86-.83.48,1.09-.49-1.13v1.23a1.16,1.16,0,0,0,.49-.1l-.49-1.13v1.23h0a37.26,37.26,0,0,1,37,34.58h0l1-.07h-1v.07l1-.07h.09l-.78-.77a1.16,1.16,0,0,0-.32.77h1.1l-.78-.77.8.79v-1.14a1.1,1.1,0,0,0-.8.34l.8.79v-1.13H341v7.25h24.72a6.13,6.13,0,0,0,6.12-6.13h0v-.41h0a44.47,44.47,0,0,0-44.17-41.31h0a6,6,0,0,0-5.07,2.72,6.11,6.11,0,0,0-1,3.37,2.67,2.67,0,0,0,0,.4l3.63-.23-3.63.14.92,23.8,7.25-.28Z" transform="translate(-70.37 -75.53)" style="fill:#fe4c00"/><path d="M338.09,189.83a3.18,3.18,0,0,0-6.25-1.17,1.1,1.1,0,0,0,0,.18c-.28,1.73.5,5.86,2.24,6.13S337.81,191.56,338.09,189.83Z" transform="translate(-70.37 -75.53)" style="fill:#ffd617"/><path d="M346.19,196.52a3.17,3.17,0,1,0-4.57-4.4h0c-1.22,1.26-2.94,5.07-1.68,6.32S345,197.78,346.19,196.52Z" transform="translate(-70.37 -75.53)" style="fill:#ffd617"/><path d="M349.62,205.76a3.17,3.17,0,1,0-1.37-6.2l-.13,0c-1.7.41-5.21,2.72-4.79,4.43S347.92,206.17,349.62,205.76Z" transform="translate(-70.37 -75.53)" style="fill:#ffd617"/><path d="M307,347.41a46.48,46.48,0,1,1-46.48-46.48h0A46.48,46.48,0,0,1,307,347.4Z" transform="translate(-70.37 -75.53)" style="fill:#fff"/><path d="M307,347.41h-3.63a42.85,42.85,0,1,1-12.55-30.3,42.85,42.85,0,0,1,12.55,30.3h7.25a50.09,50.09,0,1,0-14.67,35.42,50.09,50.09,0,0,0,14.67-35.42Z" transform="translate(-70.37 -75.53)" style="fill:#fe4c00"/><path d="M296.34,348.55a35.84,35.84,0,1,1-35.85-35.84h0A35.84,35.84,0,0,1,296.34,348.55Z" transform="translate(-70.37 -75.53)" style="fill:#ffd617"/><polyline points="169.19 262 170.96 269.06 179.39 266.95 177.62 259.89" style="fill:#fe4c00"/><polyline points="199.39 265.78 199.84 269.39 208.47 268.32 208.02 264.71" style="fill:#fe4c00"/><polyline points="188.59 286.29 184.82 288.39 189.06 295.99 192.83 293.89" style="fill:#fe4c00"/><polyline points="164.61 275.6 160.84 277.7 162.97 281.5 166.73 279.4" style="fill:#fe4c00"/></svg>