<svg id="Layer_1" data-name="Layer 1" xmlns="http://www.w3.org/2000/svg" viewBox="0 0 500 500"><defs><style>.cls-1{fill:#fff;}.cls-2{fill:#fe4c00;}.cls-3,.cls-5{fill:none;}.cls-3{stroke:#000;stroke-linecap:round;stroke-linejoin:round;stroke-width:0;}.cls-4{fill:#ffd617;}</style></defs><title>food</title><path class="cls-1" d="M78.19,332.2c5,9.77,12.51,19.75,22,29.28,19,19.06,46.23,36.26,78.17,46.91a219.09,219.09,0,0,0,69.22,11.31,225.18,225.18,0,0,0,88.64-18.17c26.09-11.22,48-26.72,63.36-43.63,10.28-11.27,17.66-23.15,21.63-34.69a60.9,60.9,0,0,0,3.33-16.46c0-7.11,0-14.34-.05-20.76q-2.2,4.72-4.83,9.29c-9.62,16.63-23.44,31.48-40.4,43.89-33.93,24.82-80.42,40-131.68,40-38.45,0-74.22-8.55-104-23.28-19.22-9.5-35.94-21.6-49.29-35.68h-.64v-.69a133.07,133.07,0,0,1-18.15-24.24q-2.72-4.69-5-9.59v13.53h0v5C70.55,312.89,73.15,322.43,78.19,332.2Z"/><path class="cls-1" d="M424.66,340.12q-1.76,3.24-3.78,6.45a135.7,135.7,0,0,1-18.77,23.19C381.83,390,353.4,407.5,320,418.3a235.85,235.85,0,0,1-72.4,11.4A229.82,229.82,0,0,1,155,410.07C127.75,398,104.77,381.5,88.25,363.43A134.77,134.77,0,0,1,74,344.91c-1.22-1.93-2.35-3.86-3.42-5.8v4.31a47.78,47.78,0,0,0,.75,8.3,69.3,69.3,0,0,0,6.89,19.69c1.47,2.84,3.15,5.71,5,8.58a131.32,131.32,0,0,0,17,20.69c19,19.06,46.23,36.27,78.17,46.91a218.81,218.81,0,0,0,69.22,11.32,225,225,0,0,0,88.64-18.18c26.09-11.21,48-26.72,63.36-43.62a121.5,121.5,0,0,0,12-15.45,87.88,87.88,0,0,0,9.6-19.24,67.36,67.36,0,0,0,2.5-9.47,54.74,54.74,0,0,0,.92-9.85Z"/><path class="cls-2" d="M434.61,303.9c0-5.5,0-11.54,0-17.57-.05-19.36-.1-38.47-.1-38.47v-.73c.12-2.06.19-4.14.19-6.22a108,108,0,0,0-15-54.37c-14.43-24.95-38.29-45.88-68.08-60.61a216.2,216.2,0,0,0-36.57-14c0,.23,0,.46,0,.7a10.4,10.4,0,0,0,.31,2.54,12.48,12.48,0,0,0,.83,2.3c.13.27.27.55.43.84,1,1.75,1.87,3.54,2.66,5.35a190.4,190.4,0,0,1,54.15,27.09c16,11.7,28.82,25.57,37.64,40.83a98,98,0,0,1,13.63,49.37c0,.65,0,1.31,0,2,0,1.67-.11,3.34-.23,5s-.3,3.34-.51,5c-.29,2.29-.67,4.57-1.13,6.82q-.51,2.52-1.16,5c-.12.49-.25,1-.38,1.45l-.92-1.45q-1.62-2.51-3.41-5-2.47-3.44-5.26-6.82-2.08-2.52-4.33-5c-1.52-1.69-3.11-3.35-4.74-5-1-1-2-2-3-3a184.57,184.57,0,0,0-27.34-21.42,77.45,77.45,0,0,0-6.32-11.93,54.79,54.79,0,0,0-12.2-13.45A43.49,43.49,0,0,0,336,184.88l-.46-.3-.33-.23h0c-.55-.41-1.25-1-2-1.58-1.41-1.14-3-2.48-4.64-3.65a20.13,20.13,0,0,0-2.63-1.63,9.64,9.64,0,0,0-1.61-.65,7.14,7.14,0,0,0-2.2-.35,6.82,6.82,0,0,0-2,.31,10.08,10.08,0,0,0-2.44,1.2,24.3,24.3,0,0,0-3.1,2.52c-1.43,1.32-2.8,2.72-3.89,3.72-.49.45-.91.81-1.17,1a41.4,41.4,0,0,0-9.54,3.14,235.66,235.66,0,0,0-52.31-5.9,227.68,227.68,0,0,0-30.83,2.11,52.26,52.26,0,0,0-9.53-9.69,43.53,43.53,0,0,0-17.69-8.21l-.46-.3-.32-.23,0,0c-.55-.4-1.25-.95-2-1.57-1.4-1.14-3-2.48-4.63-3.65a20.82,20.82,0,0,0-2.63-1.63,9.64,9.64,0,0,0-1.61-.65,7.2,7.2,0,0,0-2.21-.35,6.75,6.75,0,0,0-2,.31,10,10,0,0,0-2.45,1.2,25,25,0,0,0-3.1,2.52c-1.43,1.32-2.8,2.72-3.88,3.72-.49.45-.91.81-1.17,1a41.09,41.09,0,0,0-12.3,4.56,46.41,46.41,0,0,0-15.55,15c-5.72,8.72-8.77,18.36-10.48,25.87-.58,2.53-1,4.82-1.29,6.75a190.54,190.54,0,0,0-28.68,22.81l-.83.82q-2.5,2.48-4.85,5t-4.44,5q-2.87,3.38-5.43,6.82-1.84,2.49-3.53,5c-.5.74-1,1.48-1.45,2.22q-.31-1.11-.6-2.22-.64-2.47-1.16-5c-.46-2.25-.84-4.53-1.13-6.82-.21-1.66-.38-3.33-.51-5s-.19-3.33-.23-5c0-.65,0-1.31,0-2a98,98,0,0,1,13.63-49.37C97.4,168.65,119.7,148.89,148,134.89a200.14,200.14,0,0,1,20.9-8.86,16,16,0,0,0-.78-4.51c0-.16-.11-.32-.16-.48a32.46,32.46,0,0,0-2-4.61,198.19,198.19,0,0,0-50.11,26.21c-17,12.42-30.79,27.27-40.4,43.9a108,108,0,0,0-15,54.37c0,.65,0,1.31,0,2h0V348.42h.24a67.48,67.48,0,0,0,3.76,16.67c4.54,12.73,12.69,25.49,23.7,37.54,16.52,18.07,39.5,34.58,66.78,46.64a229.65,229.65,0,0,0,92.58,19.64A235.55,235.55,0,0,0,320,457.5c33.39-10.8,61.82-28.27,82.1-48.53a126.83,126.83,0,0,0,23.83-32.1c5.6-11.12,8.72-22.54,8.72-33.77,0-.53,0-6.45,0-14.83,0-.66,0-1.33,0-2s0-9,0-20.06c0-.78,0-1.55,0-2.32Zm-13.37,58.52a87.88,87.88,0,0,1-9.6,19.24,121.5,121.5,0,0,1-12,15.45c-15.4,16.9-37.27,32.41-63.36,43.62a225,225,0,0,1-88.64,18.18,218.81,218.81,0,0,1-69.22-11.32c-31.94-10.64-59.14-27.85-78.17-46.91a131.32,131.32,0,0,1-17-20.69c-1.87-2.87-3.55-5.74-5-8.58a69.3,69.3,0,0,1-6.89-19.69,47.78,47.78,0,0,1-.75-8.3v-4.31c1.07,1.94,2.2,3.87,3.42,5.8a134.77,134.77,0,0,0,14.28,18.52C104.77,381.5,127.75,398,155,410.07a229.82,229.82,0,0,0,92.58,19.63A235.85,235.85,0,0,0,320,418.3c33.39-10.8,61.82-28.28,82.1-48.54a135.7,135.7,0,0,0,18.77-23.19q2-3.21,3.78-6.45v3a54.74,54.74,0,0,1-.92,9.85A67.36,67.36,0,0,1,421.24,362.42ZM144.16,269.69V249.83a46.91,46.91,0,0,0,9.66,1h19.93V357.48A200.69,200.69,0,0,1,144.16,345ZM142.36,194a40.35,40.35,0,0,1,9.39-11,30.19,30.19,0,0,1,10.4-5.41,19.36,19.36,0,0,1-2.53,6.33,14.57,14.57,0,0,1-2.93,3.34,15.4,15.4,0,0,1-4.49,2.61,5,5,0,0,0,3.61,9.33,24.91,24.91,0,0,0,13.39-11.88c.37-.71.7-1.41,1-2.11a30.38,30.38,0,0,0,1.51-4.56,59.08,59.08,0,0,1,.39,6.63,45.52,45.52,0,0,1-.74,8.39,33.8,33.8,0,0,1-1.35,5.12,27.48,27.48,0,0,1-3.07,6.19c-.33.5-.68,1-1.05,1.45a24.46,24.46,0,0,1-3.53,3.69,5,5,0,0,0,6.48,7.62,34.94,34.94,0,0,0,4.92-5.14,36.89,36.89,0,0,0,5.68-10.48l.23-.71c.25-.75.47-1.5.68-2.26a49.62,49.62,0,0,0,1.54-8.92c.14-1.67.21-3.33.21-4.95a76.4,76.4,0,0,0-1.56-14.84l1.39,1.11.35.26a67.8,67.8,0,0,1,4.33,5.93c.83,1.26,1.69,2.67,2.54,4.18a60.91,60.91,0,0,1,2.72,5.55c.46,1.09.89,2.19,1.27,3.3a32.73,32.73,0,0,1,1.48,6.33,23.73,23.73,0,0,1,.19,2.88,17,17,0,0,1-1.62,7.46,16.74,16.74,0,0,1-3.47,4.7,21.87,21.87,0,0,1-2.4,2,5,5,0,1,0,5.91,8.07,28.35,28.35,0,0,0,8.95-10.44,26.82,26.82,0,0,0,2.63-11.83,35.94,35.94,0,0,0-.4-5.11,44,44,0,0,0-2.09-8.14c-.18-.52-.38-1-.58-1.52a61.89,61.89,0,0,0-2.61-5.8,37.82,37.82,0,0,1,6.11,5.11,46.91,46.91,0,0,1,4.44,5.29c.86,1.19,1.64,2.42,2.4,3.66A78.08,78.08,0,0,1,220,213.65c.55,1.86,1,3.56,1.34,5,.26,1.12.47,2.12.64,3s.32,1.75.4,2.26l.09.58,0,.13v0h0l0,.23.05.23a8.68,8.68,0,0,1,.23,1.95,8,8,0,0,1-.43,2.53,9.07,9.07,0,0,1-1,2.07,12.7,12.7,0,0,1-1.78,2.14A24.36,24.36,0,0,1,211,239a28.83,28.83,0,0,1-9.79,1.9H153.82a36.44,36.44,0,0,1-7.72-.84c-.66-.14-1.3-.3-1.94-.48a29,29,0,0,1-3.68-1.28,16.32,16.32,0,0,1-6-4.16c-.11-.13-.2-.26-.3-.39a8.21,8.21,0,0,1-1.19-2.11,8.5,8.5,0,0,1-.54-3,11.5,11.5,0,0,1,.16-1.86l0-.25,0-.26h0s0-.39.09-1c.11-1.21.37-3.43.88-6.28.35-2,.83-4.28,1.47-6.75A69.7,69.7,0,0,1,142.36,194ZM307,200.43c-.11.23-.23.46-.35.68s-.37.65-.57,1l-.3.43a14.36,14.36,0,0,1-2.63,2.91,15.53,15.53,0,0,1-4.49,2.61,5,5,0,1,0,3.61,9.33,27.06,27.06,0,0,0,3.51-1.66,24.5,24.5,0,0,0,5.69-4.39,24.88,24.88,0,0,0,4.18-5.83c.05-.08.09-.17.13-.25q.48-.93.87-1.86l0-.07a31.77,31.77,0,0,0,1.48-4.49c.18,1.64.3,3.34.35,5.09,0,.51,0,1,0,1.55A41,41,0,0,1,316.42,219c-.2.58-.43,1.16-.67,1.72a26.73,26.73,0,0,1-2.4,4.47,24.66,24.66,0,0,1-4.57,5.13,5,5,0,1,0,6.47,7.62c.18-.14.33-.3.5-.45a35.9,35.9,0,0,0,10.11-15.17,49.66,49.66,0,0,0,2.62-14.8c0-.69,0-1.36,0-2a71.78,71.78,0,0,0-.57-8.84c-.27-2.17-.62-4.19-1-6,.46.37.92.75,1.39,1.11l.35.26a69.63,69.63,0,0,1,4.33,5.94l.53.82c.66,1,1.33,2.16,2,3.35a53.46,53.46,0,0,1,4,8.85c.15.45.29.9.43,1.36a28.3,28.3,0,0,1,1.24,7.85,16.7,16.7,0,0,1-1.62,7.46,16.87,16.87,0,0,1-3.46,4.71,24.24,24.24,0,0,1-2.41,2,5,5,0,0,0,5.13,8.53,5.14,5.14,0,0,0,.78-.46,28.29,28.29,0,0,0,9-10.44,27,27,0,0,0,2.62-11.83c0-.81,0-1.61-.1-2.41a41.79,41.79,0,0,0-2.38-10.84c-.23-.64-.48-1.27-.72-1.89-.76-1.91-1.6-3.72-2.47-5.43a40.7,40.7,0,0,1,9.4,8.89c.39.5.77,1,1.14,1.52a57.4,57.4,0,0,1,4.48,7.34q1.2,2.28,2.19,4.58c.49,1.11.93,2.2,1.35,3.28.9,2.34,1.66,4.6,2.27,6.67,1,3.26,1.59,6.06,2,8,.19,1,.32,1.75.41,2.26,0,.26.07.45.08.58l0,.13v0h0l0,.22.06.23a9.25,9.25,0,0,1,.22,2,7.67,7.67,0,0,1-.42,2.53l0,.07a11.1,11.1,0,0,1-2.78,4.14c-.29.29-.61.58-.94.86a20.89,20.89,0,0,1-2.24,1.64,27.69,27.69,0,0,1-5.34,2.65,31.88,31.88,0,0,1-4.66,1.33,25.49,25.49,0,0,1-5.13.56H300.24a36.47,36.47,0,0,1-7.72-.83,31.16,31.16,0,0,1-5.61-1.77,17.29,17.29,0,0,1-5.51-3.58c-.18-.19-.35-.38-.52-.58a8.72,8.72,0,0,1-1.49-2.5,8.06,8.06,0,0,1-.46-1.92,9.9,9.9,0,0,1-.07-1.12,11.5,11.5,0,0,1,.16-1.86l0-.25v-.26s0-.57.14-1.51c.13-1.28.39-3.3.83-5.8,1.16-6.57,3.72-16.45,8.75-24.86a40.14,40.14,0,0,1,9.38-11.05,30.66,30.66,0,0,1,3.16-2.2,30.1,30.1,0,0,1,7.24-3.21A20.75,20.75,0,0,1,307,200.43ZM70.55,299.22V285.69q2.25,4.89,5,9.59a133.07,133.07,0,0,0,18.15,24.24v.69h.64c13.35,14.08,30.07,26.18,49.29,35.68,29.79,14.73,65.56,23.28,104,23.28,51.26,0,97.75-15.18,131.68-40,17-12.41,30.78-27.26,40.4-43.89q2.63-4.56,4.83-9.29c0,6.42,0,13.65.05,20.76a60.9,60.9,0,0,1-3.33,16.46c-4,11.54-11.35,23.42-21.63,34.69-15.4,16.91-37.27,32.41-63.36,43.63a225.18,225.18,0,0,1-88.64,18.17,219.09,219.09,0,0,1-69.22-11.31c-31.94-10.65-59.14-27.85-78.17-46.91-9.52-9.53-17-19.51-22-29.28s-7.64-19.31-7.64-28v-5Zm177.06,69.95q-8.27,0-16.32-.55V349.23h28.22a35.18,35.18,0,0,0,5.26-.43v19.75C259.12,368.94,253.4,369.17,247.61,369.17Zm27.16-66.78a85,85,0,0,1,3.48,9.64c1,3.25,1.59,6.05,2,8,.2,1,.33,1.75.41,2.27l.09.57,0,.13v0h0l0,.24.05.23a8.61,8.61,0,0,1,.22,1.94,7.59,7.59,0,0,1-.42,2.53,11,11,0,0,1-2.81,4.22,18.4,18.4,0,0,1-3,2.4,27.51,27.51,0,0,1-5.48,2.74,30,30,0,0,1-4.52,1.3,25.56,25.56,0,0,1-5.26.6H212.12a37.27,37.27,0,0,1-7.73-.84,30.87,30.87,0,0,1-5.61-1.77,16.11,16.11,0,0,1-6-4.15,8.2,8.2,0,0,1-2-5.54,11.61,11.61,0,0,1,.16-1.87l0-.25,0-.25h0a68.37,68.37,0,0,1,1-7.32c1.16-6.57,3.71-16.44,8.74-24.86a40.31,40.31,0,0,1,9.39-11,30.43,30.43,0,0,1,10.39-5.42,19.12,19.12,0,0,1-2.52,6.33A14.61,14.61,0,0,1,215,285.6a16,16,0,0,1-4.49,2.61,5,5,0,1,0,3.61,9.32,24.81,24.81,0,0,0,13.39-11.88c.37-.7.69-1.41,1-2.11A30,30,0,0,0,230,279a59.12,59.12,0,0,1,.39,6.64,40.91,40.91,0,0,1-2.09,13.51,27.91,27.91,0,0,1-3.07,6.19,25.08,25.08,0,0,1-3.94,4.56l-.64.58a5,5,0,0,0,6.48,7.62,35.2,35.2,0,0,0,4.16-4.22,36.59,36.59,0,0,0,6.44-11.41,51,51,0,0,0,2.66-16.83,76.51,76.51,0,0,0-1.56-14.85c.46.38.93.75,1.39,1.11l.35.26a71.39,71.39,0,0,1,4.33,5.94c.82,1.26,1.69,2.66,2.53,4.17a52.42,52.42,0,0,1,4,8.86,29.47,29.47,0,0,1,1.67,9.21A16.09,16.09,0,0,1,248,312.48a23,23,0,0,1-2.4,2,5,5,0,1,0,5.91,8.06,28.4,28.4,0,0,0,9-10.43,26.85,26.85,0,0,0,2.63-11.83,40.12,40.12,0,0,0-2.49-13.25,61.5,61.5,0,0,0-3.19-7.33,39,39,0,0,1,7.35,6.45,49,49,0,0,1,3.2,4A63.84,63.84,0,0,1,274.77,302.39Zm-91,34.69a20.4,20.4,0,0,0,3.24,3.79,26.9,26.9,0,0,0,5.74,3.95,39,39,0,0,0,9.7,3.38,47.22,47.22,0,0,0,9.69,1h9.17v18.52a230.7,230.7,0,0,1-37.54-7.21Zm169,7q-2.75,1.48-5.58,2.89a205.45,205.45,0,0,1-31.43,12.35V269.05h31.88a34.61,34.61,0,0,0,5.13-.4V344Zm16.1-101.18Zm-94.09,21.83v-4.33c.12.11.23.23.35.33a26,26,0,0,0,5.74,3.95l.11.05a39,39,0,0,0,9.59,3.33,46.44,46.44,0,0,0,9.68,1h5.51v93a231.46,231.46,0,0,1-31,5.6V345.89c.79-.34,1.57-.7,2.34-1.1a29.57,29.57,0,0,0,9.56-7.51,20.3,20.3,0,0,0,3.17-5.39,17.73,17.73,0,0,0,1.2-6.45,18.67,18.67,0,0,0-.4-3.83c-.1-.68-.52-3.53-1.52-7.65a89,89,0,0,0-11.38-27.24c-.92-1.4-1.91-2.79-3-4.15V264.69Zm-26.89.6.08-.18Zm-26.59-12.42v12.55a40.75,40.75,0,0,0-11.74,4.27L209,270a46.29,46.29,0,0,0-15.55,15,77.17,77.17,0,0,0-9.74,22.84v-57h17.46a37.52,37.52,0,0,0,10.1-1.48,42.47,42.47,0,0,0,4.32-1.5c1.08-.44,2.14-.92,3.18-1.45.84-.44,1.67-.91,2.48-1.41v7.86Zm208.18-5h0Zm-21.3,16.82c1.22,1.67,2.37,3.33,3.46,5a99.94,99.94,0,0,1,5.21,9A108.4,108.4,0,0,1,411,290.28,119.68,119.68,0,0,1,399.28,307V253.91q2.63,2.86,5,5.78C405.64,261.35,406.94,263,408.17,264.69ZM388,242.87c.87.77,1.72,1.56,2.57,2.34h-1.27v72.54a158.46,158.46,0,0,1-26.52,20.51V265.77c.79-.33,1.56-.69,2.32-1.08l.16-.07a32.23,32.23,0,0,0,7.12-4.93,24.81,24.81,0,0,0,2.44-2.58,21,21,0,0,0,2.66-4.24c.17-.38.35-.76.5-1.16a18.06,18.06,0,0,0,1-3.84,17.21,17.21,0,0,0,.21-2.6,19.48,19.48,0,0,0-.16-2.4c-.07-.48-.15-1-.25-1.43-.09-.66-.48-3.32-1.4-7.18Q383,238.45,388,242.87ZM281.62,204.82a70,70,0,0,0-6.85,13.65V194.12q7.05.85,13.89,2.12A50.73,50.73,0,0,0,281.62,204.82Zm-16.85-11.69V272.7a44.71,44.71,0,0,0-4.62-3,43.19,43.19,0,0,0-12.29-4.63l-.46-.3-.09-.07-.24-.17h0c-.56-.4-1.26-.95-2-1.58-1.25-1-2.64-2.17-4.08-3.24l-.55-.41a19.68,19.68,0,0,0-2.63-1.62,11,11,0,0,0-1.61-.66,7.2,7.2,0,0,0-2.21-.35,6.8,6.8,0,0,0-2,.32,5.32,5.32,0,0,0-.64.24V234.09c.08-.2.17-.38.25-.58a17.85,17.85,0,0,0,1.21-6.44,18.62,18.62,0,0,0-.41-3.83c-.08-.57-.38-2.63-1.05-5.67V193.09q8.06-.61,16.32-.62C253.4,192.47,259.12,192.7,264.77,193.13Zm-142,38.68a17.55,17.55,0,0,0,.65,2.64,19.06,19.06,0,0,0,5.32,8l.44.38a26.89,26.89,0,0,0,5,3.42v93q-6.43-3.9-12.34-8.22a150.85,150.85,0,0,1-18.15-15.58V247.36q2.4-2.27,5-4.49Q115.2,237.16,122.72,231.81ZM92,259.69l1.72-2v46.55a119.29,119.29,0,0,1-9.49-14,107.64,107.64,0,0,1-5.58-11.1,102.46,102.46,0,0,1,5.74-9.49q1.71-2.49,3.6-5C89.21,263,90.55,261.36,92,259.69Z"/><path class="cls-1" d="M379,242.87a19.48,19.48,0,0,1,.16,2.4,17.21,17.21,0,0,1-.21,2.6,18.06,18.06,0,0,1-1,3.84c-.15.4-.33.78-.5,1.16a21,21,0,0,1-2.66,4.24,24.81,24.81,0,0,1-2.44,2.58,32.23,32.23,0,0,1-7.12,4.93l-.16.07c-.76.39-1.53.75-2.32,1.08v72.49a158.46,158.46,0,0,0,26.52-20.51V245.21h1.27c-.85-.78-1.7-1.57-2.57-2.34q-5-4.43-10.62-8.61c.92,3.86,1.31,6.52,1.4,7.18C378.86,241.92,378.94,242.39,379,242.87Z"/><path class="cls-1" d="M231.29,217.57c.67,3,1,5.1,1.05,5.67a18.62,18.62,0,0,1,.41,3.83,17.85,17.85,0,0,1-1.21,6.44c-.08.2-.17.38-.25.58v23.12a5.32,5.32,0,0,1,.64-.24,6.8,6.8,0,0,1,2-.32,7.2,7.2,0,0,1,2.21.35,11,11,0,0,1,1.61.66,19.68,19.68,0,0,1,2.63,1.62l.55.41c1.44,1.07,2.83,2.23,4.08,3.24.76.63,1.46,1.18,2,1.58h0l.24.17.09.07.46.3a43.19,43.19,0,0,1,12.29,4.63,44.71,44.71,0,0,1,4.62,3V193.13c-5.65-.43-11.37-.66-17.16-.66q-8.27,0-16.32.62Z"/><path class="cls-1" d="M274.77,218.47a70,70,0,0,1,6.85-13.65,50.73,50.73,0,0,1,7-8.58q-6.84-1.26-13.89-2.12Z"/><path class="cls-1" d="M399.28,259.69V307A119.68,119.68,0,0,0,411,290.28a108.4,108.4,0,0,0,5.81-11.61,99.94,99.94,0,0,0-5.21-9c-1.09-1.67-2.24-3.33-3.46-5s-2.53-3.34-3.88-5q-2.39-2.91-5-5.78Z"/><path class="cls-1" d="M103.67,247.87v67.65a150.85,150.85,0,0,0,18.15,15.58q5.9,4.32,12.34,8.22v-93a26.89,26.89,0,0,1-5-3.42l-.44-.38a19.06,19.06,0,0,1-5.32-8,17.55,17.55,0,0,1-.65-2.64q-7.52,5.34-14.09,11.06-2.56,2.22-5,4.49Z"/><path class="cls-1" d="M277.74,286.72A89,89,0,0,1,289.12,314c1,4.12,1.42,7,1.52,7.65a18.67,18.67,0,0,1,.4,3.83,17.73,17.73,0,0,1-1.2,6.45,20.3,20.3,0,0,1-3.17,5.39,29.57,29.57,0,0,1-9.56,7.51c-.77.4-1.55.76-2.34,1.1v21.77a231.46,231.46,0,0,0,31-5.6v-93h-5.51a46.44,46.44,0,0,1-9.68-1,39,39,0,0,1-9.59-3.33l-.11-.05a26,26,0,0,1-5.74-3.95c-.12-.1-.23-.22-.35-.33v22.21C275.83,283.93,276.82,285.32,277.74,286.72Z"/><path class="cls-1" d="M259.51,349.23H231.29v19.39q8.06.54,16.32.55c5.79,0,11.51-.23,17.16-.62V348.8A35.18,35.18,0,0,1,259.51,349.23Z"/><path class="cls-1" d="M78.6,279.18a107.64,107.64,0,0,0,5.58,11.1,119.29,119.29,0,0,0,9.49,14V257.69l-1.72,2c-1.4,1.67-2.74,3.33-4,5s-2.46,3.34-3.6,5A102.46,102.46,0,0,0,78.6,279.18Z"/><path class="cls-1" d="M173.75,269.69V250.85H153.82a46.91,46.91,0,0,1-9.66-1V345a200.69,200.69,0,0,0,29.59,12.53Z"/><path class="cls-1" d="M347.63,269.05H315.75v90.23a205.45,205.45,0,0,0,31.43-12.35q2.83-1.41,5.58-2.89V268.65A34.61,34.61,0,0,1,347.63,269.05Z"/><path class="cls-2" d="M192.06,114.21a44.94,44.94,0,0,1,1.16,4.64,232,232,0,0,1,31.07-5.07,12.46,12.46,0,0,1,1.42-5.17,12.32,12.32,0,0,1,2.21-3,10.76,10.76,0,0,0,1.8-2.35,245.53,245.53,0,0,0-39.47,6c.65,1.56,1.24,3.13,1.74,4.73C192,114.06,192,114.13,192.06,114.21Z"/><path class="cls-2" d="M253.17,112.12c-.08.2-.17.39-.26.59a239.07,239.07,0,0,1,37.31,3.7,36.34,36.34,0,0,1-.21-3.82q0-.66,0-1.29a36.4,36.4,0,0,1,.53-5,249.59,249.59,0,0,0-35.06-3.54,34.43,34.43,0,0,1-.88,5A31.88,31.88,0,0,1,253.17,112.12Z"/><path class="cls-1" d="M310,121.91a50.34,50.34,0,0,1,4.18,9.63,33.13,33.13,0,0,1,1.54,9.71,25.69,25.69,0,0,1-1.93,9.91,27.19,27.19,0,0,1-6,8.75,5,5,0,0,1-7.07-7.07,17,17,0,0,0,3.79-5.52,15.49,15.49,0,0,0,1.17-6.07,23.5,23.5,0,0,0-1.1-6.79,41,41,0,0,0-3.36-7.7A29.71,29.71,0,0,1,298,118q-3.87-.84-7.82-1.54a239.07,239.07,0,0,0-37.31-3.7c-1.76,0-3.53-.06-5.3-.06-1.05,0-2.08,0-3.12,0a28.25,28.25,0,0,1-4.2,5.31,5,5,0,0,1-8.34-4.84c-2.57.17-5.12.37-7.66.62a232,232,0,0,0-31.07,5.07c-2.46.57-4.89,1.19-7.3,1.84a31.16,31.16,0,0,1,.51,5.42A25.69,25.69,0,0,1,184.5,136a27.19,27.19,0,0,1-6,8.75,5,5,0,1,1-7.07-7.07,17,17,0,0,0,3.79-5.52,15.49,15.49,0,0,0,1.17-6.07,19.51,19.51,0,0,0-.19-2.59c-2.47.79-4.9,1.64-7.31,2.51a200.14,200.14,0,0,0-20.9,8.86c-28.33,14-50.63,33.76-63.85,56.65a98,98,0,0,0-13.63,49.37c0,.65,0,1.31,0,2,0,1.67.11,3.34.23,5s.3,3.34.51,5c.29,2.29.67,4.57,1.13,6.82q.51,2.52,1.16,5,.28,1.11.6,2.22c.47-.74,1-1.48,1.45-2.22q1.68-2.51,3.53-5,2.57-3.44,5.43-6.82,2.14-2.52,4.44-5t4.85-5l.83-.82a190.54,190.54,0,0,1,28.68-22.81c.3-1.93.71-4.22,1.29-6.75,1.71-7.51,4.76-17.15,10.48-25.87a46.41,46.41,0,0,1,15.55-15A41.09,41.09,0,0,1,163,167c.26-.19.68-.55,1.17-1,1.08-1,2.45-2.4,3.88-3.72a25,25,0,0,1,3.1-2.52,10,10,0,0,1,2.45-1.2,6.75,6.75,0,0,1,2-.31,7.2,7.2,0,0,1,2.21.35,9.64,9.64,0,0,1,1.61.65,20.82,20.82,0,0,1,2.63,1.63c1.64,1.17,3.23,2.51,4.63,3.65.76.62,1.46,1.17,2,1.57l0,0,.32.23.46.3a43.53,43.53,0,0,1,17.69,8.21,52.26,52.26,0,0,1,9.53,9.69,227.68,227.68,0,0,1,30.83-2.11,235.66,235.66,0,0,1,52.31,5.9,41.4,41.4,0,0,1,9.54-3.14c.26-.19.68-.55,1.17-1,1.09-1,2.46-2.4,3.89-3.72a24.3,24.3,0,0,1,3.1-2.52,10.08,10.08,0,0,1,2.44-1.2,6.82,6.82,0,0,1,2-.31,7.14,7.14,0,0,1,2.2.35,9.64,9.64,0,0,1,1.61.65,20.13,20.13,0,0,1,2.63,1.63c1.64,1.17,3.23,2.51,4.64,3.65.76.62,1.46,1.17,2,1.58h0l.33.23.46.3a43.49,43.49,0,0,1,17.68,8.21,54.79,54.79,0,0,1,12.2,13.45,77.45,77.45,0,0,1,6.32,11.93,184.57,184.57,0,0,1,27.34,21.42c1,1,2,2,3,3,1.63,1.65,3.22,3.31,4.74,5s2.94,3.32,4.33,5q2.78,3.38,5.26,6.82,1.78,2.49,3.41,5l.92,1.45c.13-.48.26-1,.38-1.45q.64-2.47,1.16-5c.46-2.25.84-4.53,1.13-6.82.21-1.66.38-3.33.51-5s.19-3.33.23-5c0-.65,0-1.31,0-2A98,98,0,0,0,411,191.54c-8.82-15.26-21.66-29.13-37.64-40.83a190.4,190.4,0,0,0-54.15-27.09q-4.83-1.56-9.83-2.91C309.6,121.1,309.8,121.5,310,121.91Z"/><path class="cls-2" d="M175.33,119.32a25.84,25.84,0,0,1,.91,4.2,19.51,19.51,0,0,1,.19,2.59,15.49,15.49,0,0,1-1.17,6.07,17,17,0,0,1-3.79,5.52,5,5,0,1,0,7.07,7.07,27.19,27.19,0,0,0,6-8.75,25.69,25.69,0,0,0,1.93-9.91,31.16,31.16,0,0,0-.51-5.42,37.1,37.1,0,0,0-1-4.29c-.06-.19-.13-.39-.2-.58a44.24,44.24,0,0,0-1.8-4.69c-.65-1.46-1.37-2.91-2.18-4.36a19,19,0,0,1-2.52-9.32,18,18,0,0,1,1-5.82,13.92,13.92,0,0,1,.63-1.55l.17-.34h0l.1-.16.08-.18a52.79,52.79,0,0,0,3.35-8,22,22,0,0,0,1.11-6.59,18.78,18.78,0,0,0-1-6c-.59-1.75-1.27-3.27-1.92-4.9-1-2.58-2.19-4.5-2.87-6a12.67,12.67,0,0,1-.78-2.07,7.83,7.83,0,0,1-.26-2,11.36,11.36,0,0,1,.48-3.08A27.46,27.46,0,0,1,180.14,46a5,5,0,1,0-8.94-4.47h0a37.32,37.32,0,0,0-2.61,6.56,21.39,21.39,0,0,0-.85,5.77,17.86,17.86,0,0,0,.59,4.53,26.18,26.18,0,0,0,2.11,5.23c.74,1.48,1.41,2.74,1.92,4,.74,1.83,1.35,3.24,1.72,4.34a8.83,8.83,0,0,1,.52,2.83,12.11,12.11,0,0,1-.66,3.62,44.92,44.92,0,0,1-2.69,6.38,21.57,21.57,0,0,0-1.55,3.55,27.94,27.94,0,0,0-1.51,9.07A28.93,28.93,0,0,0,172,111.62c.44.81.85,1.6,1.23,2.38a39.66,39.66,0,0,1,1.9,4.65C175.17,118.87,175.26,119.1,175.33,119.32Z"/><path class="cls-2" d="M235.65,107.94a18.44,18.44,0,0,1-2.43,3,5,5,0,0,0,7.07,7.07,28.25,28.25,0,0,0,4.2-5.31,24.91,24.91,0,0,0,1.76-3.45c.22-.52.41-1,.59-1.58a25.58,25.58,0,0,0,1.14-5,28.14,28.14,0,0,0,.2-3.31,33,33,0,0,0-1.54-9.71A49.46,49.46,0,0,0,242.46,80a18.9,18.9,0,0,1-2.52-9.31,18,18,0,0,1,1-5.82,14.26,14.26,0,0,1,.63-1.56l.17-.33h0l.1-.17.09-.17a53.75,53.75,0,0,0,3.34-8,21.87,21.87,0,0,0,1.11-6.59,18.6,18.6,0,0,0-1-6c-.59-1.75-1.27-3.26-1.92-4.9-1-2.57-2.18-4.5-2.87-6a13.19,13.19,0,0,1-.78-2.06,7.84,7.84,0,0,1-.25-2A11.28,11.28,0,0,1,240,24a27.63,27.63,0,0,1,1.93-4.78,5,5,0,1,0-9-4.47h0a37,37,0,0,0-2.61,6.56,20.92,20.92,0,0,0-.84,5.77,17,17,0,0,0,.59,4.53,26.44,26.44,0,0,0,2.1,5.23c.74,1.48,1.41,2.74,1.93,4,.73,1.83,1.35,3.24,1.71,4.34a8.55,8.55,0,0,1,.52,2.82,12.25,12.25,0,0,1-.65,3.62,44.06,44.06,0,0,1-2.7,6.39,21.75,21.75,0,0,0-1.55,3.54,28.06,28.06,0,0,0-1.51,9.08,28.93,28.93,0,0,0,3.78,14.17,40.07,40.07,0,0,1,3.36,7.7,23.4,23.4,0,0,1,1.1,6.79,16.61,16.61,0,0,1-.37,3.5,16.14,16.14,0,0,1-.79,2.56A15.33,15.33,0,0,1,235.65,107.94Z"/><path class="cls-2" d="M297.51,112.72A27.36,27.36,0,0,0,298,118a29.71,29.71,0,0,0,3.25,8.81,41,41,0,0,1,3.36,7.7,23.5,23.5,0,0,1,1.1,6.79,15.49,15.49,0,0,1-1.17,6.07,17,17,0,0,1-3.79,5.52,5,5,0,0,0,7.07,7.07,27.19,27.19,0,0,0,6-8.75,25.69,25.69,0,0,0,1.93-9.91,33.13,33.13,0,0,0-1.54-9.71,50.34,50.34,0,0,0-4.18-9.63c-.23-.41-.43-.81-.62-1.2a19.2,19.2,0,0,1-1.72-5.62,18.39,18.39,0,0,1-.18-2.5,17,17,0,0,1,.2-2.65,17.33,17.33,0,0,1,.77-3.17,14.8,14.8,0,0,1,.63-1.55l.17-.34h0l.1-.16.08-.18a52.79,52.79,0,0,0,3.35-8A22.24,22.24,0,0,0,313.92,90a18.5,18.5,0,0,0-1-6c-.58-1.75-1.26-3.27-1.91-4.9-1-2.58-2.19-4.5-2.88-6a13.15,13.15,0,0,1-.77-2.07,7.35,7.35,0,0,1-.26-2,11.25,11.25,0,0,1,.48-3.07,27.21,27.21,0,0,1,1.92-4.79,5,5,0,0,0-8.94-4.47h0a36.85,36.85,0,0,0-2.61,6.56,21.44,21.44,0,0,0-.85,5.77,17.86,17.86,0,0,0,.59,4.53,27.18,27.18,0,0,0,2.1,5.24c.75,1.47,1.42,2.74,1.93,4,.74,1.83,1.35,3.24,1.72,4.35a8.73,8.73,0,0,1,.52,2.82,12.45,12.45,0,0,1-.66,3.62,44.53,44.53,0,0,1-2.7,6.39,22.54,22.54,0,0,0-1.54,3.54,28.25,28.25,0,0,0-1.08,4.2,27.74,27.74,0,0,0-.43,4.87Z"/><path class="cls-1" d="M257.42,279.74a61.5,61.5,0,0,1,3.19,7.33,40.12,40.12,0,0,1,2.49,13.25,26.85,26.85,0,0,1-2.63,11.83,28.4,28.4,0,0,1-9,10.43,5,5,0,1,1-5.91-8.06,23,23,0,0,0,2.4-2,16.09,16.09,0,0,0,5.09-12.16,29.47,29.47,0,0,0-1.67-9.21,52.42,52.42,0,0,0-4-8.86c-.84-1.51-1.71-2.91-2.53-4.17a71.39,71.39,0,0,0-4.33-5.94l-.35-.26c-.46-.36-.93-.73-1.39-1.11a76.51,76.51,0,0,1,1.56,14.85,51,51,0,0,1-2.66,16.83,36.59,36.59,0,0,1-6.44,11.41,35.2,35.2,0,0,1-4.16,4.22,5,5,0,1,1-6.48-7.62l.64-.58a25.08,25.08,0,0,0,3.94-4.56,27.91,27.91,0,0,0,3.07-6.19,40.91,40.91,0,0,0,2.09-13.51A59.12,59.12,0,0,0,230,279a30,30,0,0,1-1.51,4.56c-.3.7-.62,1.41-1,2.11a25.75,25.75,0,0,1-4.18,5.84,25,25,0,0,1-9.21,6,5,5,0,1,1-3.61-9.32A16,16,0,0,0,215,285.6a14.61,14.61,0,0,0,2.93-3.35,19.12,19.12,0,0,0,2.52-6.33,30.43,30.43,0,0,0-10.39,5.42,40.31,40.31,0,0,0-9.39,11c-5,8.42-7.58,18.29-8.74,24.86a68.37,68.37,0,0,0-1,7.32l0,.25,0,.25a11.61,11.61,0,0,0-.16,1.87,8.2,8.2,0,0,0,2,5.54,16.11,16.11,0,0,0,6,4.15,30.87,30.87,0,0,0,5.61,1.77,37.27,37.27,0,0,0,7.73.84h47.39a25.56,25.56,0,0,0,5.26-.6,30,30,0,0,0,4.52-1.3,27.51,27.51,0,0,0,5.48-2.74,18.4,18.4,0,0,0,3-2.4,11,11,0,0,0,2.81-4.22,7.59,7.59,0,0,0,.42-2.53,8.61,8.61,0,0,0-.22-1.94l-.05-.23,0-.24h0v0l0-.13-.09-.57c-.08-.52-.21-1.29-.41-2.27-.38-2-1-4.76-2-8a85,85,0,0,0-3.48-9.64,63.84,63.84,0,0,0-6.8-12.24,49,49,0,0,0-3.2-4A39,39,0,0,0,257.42,279.74Z"/><line class="cls-3" x1="247.96" y1="265.11" x2="247.88" y2="265.29"/><line class="cls-3" x1="190.95" y1="324.56" x2="190.95" y2="324.56"/><path class="cls-1" d="M298.17,201.16a40.14,40.14,0,0,0-9.38,11.05c-5,8.41-7.59,18.29-8.75,24.86-.44,2.5-.7,4.52-.83,5.8-.1.94-.14,1.48-.14,1.51v.26l0,.25a11.5,11.5,0,0,0-.16,1.86,9.9,9.9,0,0,0,.07,1.12,8.06,8.06,0,0,0,.46,1.92,8.72,8.72,0,0,0,1.49,2.5c.17.2.34.39.52.58a17.29,17.29,0,0,0,5.51,3.58,31.16,31.16,0,0,0,5.61,1.77,36.47,36.47,0,0,0,7.72.83h47.39a25.49,25.49,0,0,0,5.13-.56,31.88,31.88,0,0,0,4.66-1.33,27.69,27.69,0,0,0,5.34-2.65,20.89,20.89,0,0,0,2.24-1.64c.33-.28.65-.57.94-.86a11.1,11.1,0,0,0,2.78-4.14l0-.07a7.67,7.67,0,0,0,.42-2.53,9.25,9.25,0,0,0-.22-2l-.06-.23,0-.22h0v0l0-.13c0-.13,0-.32-.08-.58-.09-.51-.22-1.28-.41-2.26-.38-2-1-4.76-2-8-.61-2.07-1.37-4.33-2.27-6.67-.42-1.08-.86-2.17-1.35-3.28q-1-2.29-2.19-4.58a57.4,57.4,0,0,0-4.48-7.34c-.37-.52-.75-1-1.14-1.52a40.7,40.7,0,0,0-9.4-8.89c.87,1.71,1.71,3.52,2.47,5.43.24.62.49,1.25.72,1.89a41.79,41.79,0,0,1,2.38,10.84c.06.8.1,1.6.1,2.41A27,27,0,0,1,348.6,232a28.29,28.29,0,0,1-9,10.44,5.14,5.14,0,0,1-.78.46,5,5,0,0,1-4.31,0,5,5,0,0,1-.82-8.53,24.24,24.24,0,0,0,2.41-2,16.87,16.87,0,0,0,3.46-4.71,16.7,16.7,0,0,0,1.62-7.46,28.3,28.3,0,0,0-1.24-7.85c-.14-.46-.28-.91-.43-1.36a53.46,53.46,0,0,0-4-8.85c-.67-1.19-1.34-2.31-2-3.35l-.53-.82A69.63,69.63,0,0,0,328.7,192l-.35-.26c-.47-.36-.93-.74-1.39-1.11.36,1.82.71,3.84,1,6a71.78,71.78,0,0,1,.57,8.84c0,.67,0,1.34,0,2a49.66,49.66,0,0,1-2.62,14.8,35.9,35.9,0,0,1-10.11,15.17c-.17.15-.32.31-.5.45a5,5,0,1,1-6.47-7.62,24.66,24.66,0,0,0,4.57-5.13,26.73,26.73,0,0,0,2.4-4.47c.24-.56.47-1.14.67-1.72a41,41,0,0,0,2.09-13.51c0-.52,0-1,0-1.55-.05-1.75-.17-3.45-.35-5.09a31.77,31.77,0,0,1-1.48,4.49l0,.07q-.39.93-.87,1.86c0,.08-.08.17-.13.25a24.88,24.88,0,0,1-4.18,5.83,24.5,24.5,0,0,1-5.69,4.39,27.06,27.06,0,0,1-3.51,1.66,5,5,0,1,1-3.61-9.33,15.53,15.53,0,0,0,4.49-2.61,14.36,14.36,0,0,0,2.63-2.91l.3-.43c.2-.32.39-.64.57-1s.24-.45.35-.68a20.75,20.75,0,0,0,1.6-4.68,30.1,30.1,0,0,0-7.24,3.21A30.66,30.66,0,0,0,298.17,201.16Z"/><polyline class="cls-3" points="368.87 242.86 368.87 242.86 368.86 242.86"/><path class="cls-1" d="M132.74,225.15c-.07.64-.09,1-.09,1l0,.26,0,.25a11.5,11.5,0,0,0-.16,1.86,8.5,8.5,0,0,0,.54,3,8.21,8.21,0,0,0,1.19,2.11c.1.13.19.26.3.39a16.32,16.32,0,0,0,6,4.16,29,29,0,0,0,3.68,1.28c.64.18,1.28.34,1.94.48a36.44,36.44,0,0,0,7.72.84h47.39A28.83,28.83,0,0,0,211,239a24.36,24.36,0,0,0,8.51-5.14,12.7,12.7,0,0,0,1.78-2.14,9.07,9.07,0,0,0,1-2.07,8,8,0,0,0,.43-2.53,8.68,8.68,0,0,0-.23-1.95l-.05-.23,0-.23h0v0l0-.13-.09-.58c-.08-.51-.21-1.28-.4-2.26s-.38-1.85-.64-3c-.35-1.49-.79-3.19-1.34-5a78.08,78.08,0,0,0-7.88-18.22c-.76-1.24-1.54-2.47-2.4-3.66a46.91,46.91,0,0,0-4.44-5.29,37.82,37.82,0,0,0-6.11-5.11,61.89,61.89,0,0,1,2.61,5.8c.2.5.4,1,.58,1.52a44,44,0,0,1,2.09,8.14,35.94,35.94,0,0,1,.4,5.11,26.82,26.82,0,0,1-2.63,11.83,28.35,28.35,0,0,1-8.95,10.44,5,5,0,1,1-5.91-8.07,21.87,21.87,0,0,0,2.4-2,16.74,16.74,0,0,0,3.47-4.7,17,17,0,0,0,1.62-7.46,23.73,23.73,0,0,0-.19-2.88,32.73,32.73,0,0,0-1.48-6.33c-.38-1.11-.81-2.21-1.27-3.3a60.91,60.91,0,0,0-2.72-5.55c-.85-1.51-1.71-2.92-2.54-4.18a67.8,67.8,0,0,0-4.33-5.93l-.35-.26-1.39-1.11a76.4,76.4,0,0,1,1.56,14.84c0,1.62-.07,3.28-.21,4.95a49.62,49.62,0,0,1-1.54,8.92c-.21.76-.43,1.51-.68,2.26l-.23.71a36.89,36.89,0,0,1-5.68,10.48,34.94,34.94,0,0,1-4.92,5.14,5,5,0,0,1-6.48-7.62,24.46,24.46,0,0,0,3.53-3.69c.37-.47.72-.95,1.05-1.45a27.48,27.48,0,0,0,3.07-6.19,33.8,33.8,0,0,0,1.35-5.12,45.52,45.52,0,0,0,.74-8.39,59.08,59.08,0,0,0-.39-6.63,30.38,30.38,0,0,1-1.51,4.56c-.29.7-.62,1.4-1,2.11a24.91,24.91,0,0,1-13.39,11.88,5,5,0,0,1-3.61-9.33,15.4,15.4,0,0,0,4.49-2.61,14.57,14.57,0,0,0,2.93-3.34,19.36,19.36,0,0,0,2.53-6.33,30.19,30.19,0,0,0-10.4,5.41,40.35,40.35,0,0,0-9.39,11,69.7,69.7,0,0,0-7.27,18.11c-.64,2.47-1.12,4.76-1.47,6.75C133.11,221.72,132.85,223.94,132.74,225.15Z"/><line class="cls-3" x1="132.65" y1="226.18" x2="132.65" y2="226.19"/><polyline class="cls-3" points="222.44 224.66 222.44 224.66 222.44 224.66"/><line class="cls-3" x1="222.44" y1="224.66" x2="222.44" y2="224.66"/><path class="cls-4" d="M108.63,242.87q-2.56,2.22-5,4.49v68.16a149.77,149.77,0,0,0,15.24,13.37v-94.3Q113.51,238.63,108.63,242.87Z"/><path class="cls-4" d="M159,250.85h-5.13a46.91,46.91,0,0,1-9.66-1V345q6.71,3.53,13.89,6.58h.9Z"/><path class="cls-1" d="M218.81,246.42c-1,.53-2.1,1-3.18,1.45a42.47,42.47,0,0,1-4.32,1.5,37.52,37.52,0,0,1-10.1,1.48h-1.89v26.8A42.81,42.81,0,0,1,209,270l.51-.28a40.75,40.75,0,0,1,11.74-4.27V245C220.48,245.51,219.65,246,218.81,246.42Z"/><path class="cls-4" d="M183.75,250.85v57A77.17,77.17,0,0,1,193.49,285a52.89,52.89,0,0,1,5.83-7.34v-26.8Z"/><path class="cls-4" d="M187,340.87a20.4,20.4,0,0,1-3.24-3.79v23.46q7.62,2.15,15.57,3.77V347.4a37.07,37.07,0,0,1-6.59-2.58A26.9,26.9,0,0,1,187,340.87Z"/><path class="cls-4" d="M231.29,193.09v24.48c.67,3,1,5.1,1.05,5.67a18.62,18.62,0,0,1,.41,3.83,17.85,17.85,0,0,1-1.21,6.44c-.08.2-.17.38-.25.58v23.12a5.32,5.32,0,0,1,.64-.24,6.8,6.8,0,0,1,2-.32,7.2,7.2,0,0,1,2.21.35,11,11,0,0,1,1.61.66,19.68,19.68,0,0,1,2.63,1.62l.55.41c1.23.92,2.41,1.89,3.52,2.78v-70Q237.82,192.59,231.29,193.09Z"/><path class="cls-4" d="M231.29,368.62q6.53.44,13.19.52V349.23H231.29Z"/><path class="cls-5" d="M289.84,331.89a17.73,17.73,0,0,0,1.2-6.45,18.67,18.67,0,0,0-.4-3.83c-.08-.55-.37-2.53-1-5.44v16.18Z"/><path class="cls-4" d="M280.86,264.64a26,26,0,0,1-5.74-3.95c-.12-.1-.23-.22-.35-.33v22.21c1.06,1.36,2.05,2.75,3,4.15A89,89,0,0,1,289.12,314c.2.79.36,1.52.51,2.21V267.8a38,38,0,0,1-8.66-3.11Z"/><path class="cls-4" d="M286.67,337.28a29.57,29.57,0,0,1-9.56,7.51c-.77.4-1.55.76-2.34,1.1v21.77q7.55-.84,14.86-2.15V332.35A20.37,20.37,0,0,1,286.67,337.28Z"/><path class="cls-4" d="M315.75,269.05v90.23q7.1-2.16,13.86-4.73v-85.5Z"/><path class="cls-5" d="M377.46,252.87c.17-.38.35-.76.5-1.16a18.06,18.06,0,0,0,1-3.84,17.21,17.21,0,0,0,.21-2.6,19.48,19.48,0,0,0-.16-2.4c-.07-.48-.15-1-.25-1.43-.08-.64-.46-3.15-1.31-6.8v18.24Z"/><path class="cls-1" d="M377.45,234.64v-.31l-.09-.07Z"/><path class="cls-4" d="M374.8,257.11a24.81,24.81,0,0,1-2.44,2.58,32.23,32.23,0,0,1-7.12,4.93l-.16.07c-.76.39-1.53.75-2.32,1.08v72.49A163.06,163.06,0,0,0,377.45,328V252.88A20.64,20.64,0,0,1,374.8,257.11Z"/><path class="cls-4" d="M404.29,259.69q-2.39-2.91-5-5.78V307a123.17,123.17,0,0,0,8.58-11.62V264.29C406.73,262.75,405.53,261.22,404.29,259.69Z"/><path class="cls-5" d="M182.11,160.91a20.82,20.82,0,0,0-2.63-1.63,9.64,9.64,0,0,0-1.61-.65,7.2,7.2,0,0,0-2.21-.35,6.75,6.75,0,0,0-2,.31,10,10,0,0,0-2.45,1.2,25,25,0,0,0-3.1,2.52c-1.43,1.32-2.8,2.72-3.88,3.72-.49.45-.91.81-1.17,1a41.09,41.09,0,0,0-12.3,4.56,45.48,45.48,0,0,0-14.48,13.48,220.23,220.23,0,0,1,51.31-19.84l-.83-.67C185.34,163.42,183.75,162.08,182.11,160.91Z"/><path class="cls-4" d="M250.13,157.57a255.2,255.2,0,0,0-62.56,7.66c.43.34.84.65,1.18.9l0,0,.32.23.46.3a43.53,43.53,0,0,1,17.69,8.21,52.26,52.26,0,0,1,9.53,9.69,227.68,227.68,0,0,1,30.83-2.11,235.66,235.66,0,0,1,52.31,5.9,41.4,41.4,0,0,1,9.54-3.14c.26-.19.68-.55,1.17-1,1.09-1,2.46-2.4,3.89-3.72a24.3,24.3,0,0,1,3.1-2.52,10.08,10.08,0,0,1,2.44-1.2,6.82,6.82,0,0,1,2-.31,7.14,7.14,0,0,1,2.2.35,9.64,9.64,0,0,1,1.61.65,20.13,20.13,0,0,1,2.63,1.63c1.64,1.17,3.23,2.51,4.64,3.65.76.62,1.46,1.17,2,1.58h0l.33.23.46.3a43.49,43.49,0,0,1,17.68,8.21,54.79,54.79,0,0,1,12.2,13.45,77.45,77.45,0,0,1,6.32,11.93,184.57,184.57,0,0,1,27.34,21.42c1,1,2,2,3,3,1.63,1.65,3.22,3.31,4.74,5s2.94,3.32,4.33,5q2.78,3.38,5.26,6.82,1.78,2.49,3.41,5l.92,1.45c.13-.48.26-1,.38-1.45q.64-2.47,1.16-5c.46-2.25.84-4.53,1.13-6.82.21-1.66.38-3.33.51-5s.19-3.33.23-5c0-.58,0-1.16,0-1.73C395.8,192,328.52,157.57,250.13,157.57Z"/><path class="cls-4" d="M72.45,259.69q.51,2.52,1.16,5,.28,1.11.6,2.22c.47-.74,1-1.48,1.45-2.22q1.68-2.51,3.53-5,2.57-3.44,5.43-6.82,2.14-2.52,4.44-5t4.85-5l.83-.82a190.54,190.54,0,0,1,28.68-22.81c.3-1.93.71-4.22,1.29-6.75,1.71-7.51,4.76-17.15,10.48-25.87.35-.52.71-1,1.07-1.55C106.44,201.32,83.45,223.78,71,249.81c.1,1,.21,2,.34,3.06C71.61,255.16,72,257.44,72.45,259.69Z"/></svg>