<svg data-name="Layer 1" xmlns="http://www.w3.org/2000/svg" viewBox="0 0 1531.02 540.86"><defs><linearGradient id="prefix__a" x1="225.92" y1="302.52" x2="225.92" y2="-11.84" gradientTransform="matrix(1 0 0 -1 0 377.96)" gradientUnits="userSpaceOnUse"><stop offset="0" stop-color="#fff2dc" stop-opacity="0"/><stop offset=".59" stop-color="#fff2dc" stop-opacity=".7"/><stop offset=".97" stop-color="#fff2dc" stop-opacity="0"/></linearGradient></defs><path d="M542.81 354.8a232.61 232.61 0 012 28.89 143.85 143.85 0 01-1.89 24.17 83.42 83.42 0 01-4.14 15.54 52.35 52.35 0 01-4.59 9.28 35.37 35.37 0 01-9.11 9.89 37 37 0 01-13.75 6 79.75 79.75 0 01-18 2.22 54.91 54.91 0 01-13.92-1.68 48.11 48.11 0 01-17.87-8.75 58.49 58.49 0 01-9.65-9.61 73.15 73.15 0 01-8.89-14.23c-.91-1.92-1.54-3.48-1.91-4.46-.18-.49-.31-.84-.36-1v-.13l-5.13 1.66 5.14-1.62-5.13 1.66 5.14-1.62-12.56 4 12.58-3.9v-.05l-12.56 4 12.58-3.9-15.8 4.89 15.8-4.88-15.8 4.89 15.8-4.88-17 5.27 17-5.42-17 5.27 17-5.27-20.1 6.21 20.05-6.24-20.1 6.21 20.1-6.21-40.93 12.53a89 89 0 004.68 11.56 116.32 116.32 0 009.82 16.91 105.74 105.74 0 0012.09 14.4 93.78 93.78 0 0027.54 19.1 94.77 94.77 0 0039.29 8.19 122.2 122.2 0 0027.77-3.33 83 83 0 0018.29-6.49A75.82 75.82 0 00564 464.33a86.25 86.25 0 0011.88-18.86 119.67 119.67 0 009.28-30.74 186 186 0 002.44-31 276.63 276.63 0 00-2.29-34.27l-42.47 5.38" fill="#ff9100"/><path d="M590.08 400.69h-47.83v-49.23a46.56 46.56 0 0146.54-46.55h1.29v95.78" fill="#ffd505"/><path d="M253.88 476.41c0 20.15-13.8 29.16-30.83 29.16s-30.82-9-30.82-29.16 30.82-43.82 30.82-43.82 30.83 23.67 30.83 43.82" fill="#ff9100"/><path d="M223.15 505.57" fill="#ffe566"/><path d="M242.59 473.59h-39.1a22.71 22.71 0 00-3.13 10.54c0 14.79 10.11 21.41 22.59 21.44h.15c12.48 0 22.59-6.65 22.59-21.44a22.71 22.71 0 00-3.13-10.54" fill="#ffbb03"/><path d="M160.6 515.16l9.4-13.72a8.22 8.22 0 016.79-3.58H329a8.23 8.23 0 016.87 3.71l8.89 13.5L354 509l-8.89-13.51a19.31 19.31 0 00-16.1-8.68H176.77a19.28 19.28 0 00-15.91 8.39l-9.37 13.72 9.12 6.24z" fill="#1f3440"/><path d="M108.11 515.16l9.38-13.72a8.22 8.22 0 016.79-3.58h152.26a8.23 8.23 0 016.87 3.71l8.88 13.43 9.2-6-8.88-13.51a19.33 19.33 0 00-16.1-8.68H124.28a19.29 19.29 0 00-15.91 8.39L99 509l9.12 6.24z" fill="#1f3440"/><path d="M577.78 15.69v15.14a9.84 9.84 0 008.55 9.93 9.55 9.55 0 0010.46-8.56c0-.3.05-.61.05-.92V5.9a4.17 4.17 0 013.25-4.09Q605.33.7 610.72 0a4.22 4.22 0 014.7 3.66 4.36 4.36 0 010 .51v26.66a9.84 9.84 0 008.58 9.93 9.56 9.56 0 0010.44-8.59V4.2a4.22 4.22 0 014.77-4.2q5.4.66 10.63 1.78a4.17 4.17 0 013.25 4.09v24.96a9.84 9.84 0 008.56 9.93 9.55 9.55 0 0010.46-8.56V15.69a4.19 4.19 0 016.06-3.76 117.29 117.29 0 0164.06 104.54V202a89.14 89.14 0 01-89.14 89.14h-56.3A89.12 89.12 0 01507.66 202v-85.53a117.3 117.3 0 0164.05-104.54 4.2 4.2 0 016.07 3.76z" fill="#ff9100"/><path d="M621.18 229.35a9.5 9.5 0 010-17.53 4.84 4.84 0 00-3.76-8.91 19.18 19.18 0 00.09 35.36 4.83 4.83 0 103.72-8.92z" fill="#fcaa47"/><path d="M582.81 532.75h106.68a24.88 24.88 0 0024.88-24.88v-50.22H557.93v50.22a24.88 24.88 0 0024.88 24.88z" fill="#1f3440"/><path d="M389 428.34h53V398a20 20 0 00-20-20h-33a20 20 0 00-20 20v10.36a20 20 0 0020 20zM674.49 365l1.34-10.79-1.59 10.79h.21l1.34-10.79-1.55 10.79h.15a56.06 56.06 0 019.84 2.8 65.31 65.31 0 0112.94 6.63 58.84 58.84 0 0110 8.36 59.83 59.83 0 0112.54 20c3.33 8.61 5.65 19.57 5.66 33.92a177.94 177.94 0 01-4.46 37.64 326.2 326.2 0 01-15.58 49.92L745.16 540a368.26 368.26 0 0017.58-56.51 220.66 220.66 0 005.43-46.73 147.07 147.07 0 00-3.54-33 115.5 115.5 0 00-8.23-23.88 101.29 101.29 0 00-22.12-30.42 103.62 103.62 0 00-18.79-14 108.67 108.67 0 00-24.14-10.34 79.51 79.51 0 00-11.62-2.56z" fill="#ff9100"/><path d="M687.68 364.11l-1.19-21.55v21.58h1.21l-1.21-21.58v12.69l-.49 8.88h.49v-8.89l-.49 8.88.13-2.23-.19 2.23h.06l.13-2.23-.19 2.23h.15a13.88 13.88 0 013.09.91 22 22 0 014.31 2.44 38.22 38.22 0 019.18 9.88c3.49 5.17 7.32 12.72 10.64 23.73L770.15 384c-5-16.64-11.6-30.26-19.25-41.24a98.77 98.77 0 00-18.53-20.2 84.83 84.83 0 00-14.44-9.56 75.73 75.73 0 00-19.08-6.88 61.11 61.11 0 00-12.36-1.38h-2.11l3.32 59.29z" fill="#ffd505"/><path d="M557.93 461.32h156.44V330.39a25.5 25.5 0 00-25.5-25.5h-97.62a33.32 33.32 0 00-33.32 33.32v123.11" fill="#ffd505"/><path fill="#ff9100" d="M589.83 284.75h71.27v20.17h-71.27z"/><path d="M580 216.2a6.21 6.21 0 01-3.6-5.64v-.25a6.16 6.16 0 011.2-3.43 6.34 6.34 0 012.83-2.15 4.83 4.83 0 10-2.59-9.3 4.63 4.63 0 00-.81.3A15.89 15.89 0 00566.69 210v.66a15.87 15.87 0 009.19 14.34 4.83 4.83 0 104.07-8.77z" fill="#3d2407"/><path d="M580 237a6.15 6.15 0 01-2.6-2.27 6 6 0 01-1-3.37v-.25a6.16 6.16 0 011.2-3.43 6.28 6.28 0 012.83-2.15 4.83 4.83 0 10-3.4-9.05 16 16 0 00-7.21 5.47 15.73 15.73 0 00-3.08 8.77v.66a15.7 15.7 0 002.55 8.63 15.88 15.88 0 006.64 5.78 4.83 4.83 0 104.07-8.77zM649.05 150v10.43a4.84 4.84 0 009.67 0V150a4.84 4.84 0 00-9.67-.44 3.23 3.23 0 000 .44M574.27 150v10.43a4.83 4.83 0 009.66 0V150a4.83 4.83 0 10-9.66 0" fill="#3d2407"/><path d="M589.61 386.38h-19.33v-77.64c5.58-3.83 19.33-3.83 19.33-3.83zM661.41 304.91h19.33v81.47h-19.33zM692.5 507.9H560.7l9.58-121.52h110.47L692.5 507.9" fill="#fe4c00"/><path fill="#ffb255" d="M63.8 507.9h778.56v29.51H63.8z"/><path fill="#f99b35" d="M63.8 526.87h778.56v10.54H63.8z"/><rect x="506.81" y="92.4" width="238.91" height="38.1" rx="2.51" fill="#fe4c00"/><path fill="#fe4c00" d="M558.62 400.69v-32.68h-1.38v32.68"/><path d="M481.82 415.34H317.71v-22.79h164.11a11.4 11.4 0 01.68 22.79c-.23.01-.45.01-.68 0z" fill="#0e2328"/><path d="M297 473.59H159.13a52.54 52.54 0 01-52.39-52.39v-17a35.51 35.51 0 0135.41-35.41H314a35.51 35.51 0 0135.4 35.41v17a52.53 52.53 0 01-52.4 52.39" fill="#112128"/><path d="M301.25 442.58H154.89a48.15 48.15 0 11-1.39-96.29h147.75a48.15 48.15 0 010 96.29" fill="#1f3440"/><path d="M319.41 427.54H239a13 13 0 010-26.08h80.45a13 13 0 010 26.08z" fill="#112a35"/><path d="M293.37 427.54h-148a21.2 21.2 0 110-42.4h148a21.2 21.2 0 010 42.4" fill="#112a35"/><path d="M230.57 389.56v-3.81a7.21 7.21 0 00-7.31-7.08h-5a3.37 3.37 0 01-3.42-3.32 7.36 7.36 0 00-7.47-7.23h-63.81a7 7 0 00-7.16 6.88v.39a3.37 3.37 0 01-3.42 3.32 7.2 7.2 0 00-7.32 7.08V393c0 11.37 9.53 20.59 21.27 20.59h83.64A11.27 11.27 0 00242 402.53v-1.85a7.91 7.91 0 00-8-7.78 3.37 3.37 0 01-3.43-3.31" fill="#fff"/><path d="M186.94 396.48h-25.39a7 7 0 01-6.94-6.93 18.13 18.13 0 0118.07-18.07h3.13a18.12 18.12 0 0118.07 18.07 7 7 0 01-6.94 6.93" fill="#ffd505"/><path d="M170.49 373.48a12.42 12.42 0 00-9.13 4.08 14.29 14.29 0 00-3.72 9.71h2.76a11.56 11.56 0 013-7.84 9.66 9.66 0 017.1-3.19v-2.76M173.62 373.48h-2.04v2.76h2.04v-2.76" fill="#fff4be"/><path d="M287.68 408.71v-3.81a7.21 7.21 0 00-7.32-7.08h-5a3.37 3.37 0 01-3.43-3.31 7.35 7.35 0 00-7.46-7.24h-63.81a7 7 0 00-7.15 6.85v.39a3.37 3.37 0 01-3.43 3.31 7.21 7.21 0 00-7.31 7.08v7.26c0 11.36 9.52 20.58 21.27 20.58h83.64a11.28 11.28 0 0011.45-11.09v-1.85a7.9 7.9 0 00-8-7.77 3.37 3.37 0 01-3.42-3.32" fill="#fff"/><path d="M244 415.64h-25.34a7 7 0 01-6.94-6.94 18.12 18.12 0 0118.07-18.07h3.12A18.12 18.12 0 01251 408.7a7 7 0 01-6.94 6.94" fill="#ffd505"/><path d="M227.59 392.63a12.38 12.38 0 00-9.12 4.08 14.28 14.28 0 00-3.73 9.72h2.75a11.56 11.56 0 013-7.84 9.72 9.72 0 017.1-3.2v-2.76M230.72 392.63h-2.03v2.77h2.03v-2.77" fill="#fff4be"/><path d="M421.49 428.34H389.7a21.45 21.45 0 01-21.45-21.45 6.4 6.4 0 016.39-6.4h27.16a19.71 19.71 0 0119.69 19.72zM428.84 379.4a34.43 34.43 0 00-5.6-2.88 35.46 35.46 0 00-13.24-2.75 28.33 28.33 0 00-12.28 2.76A32.39 32.39 0 00386 386.4a6.91 6.91 0 0010.69 8.77l.31-.42a18.62 18.62 0 016.69-5.77 14.31 14.31 0 016.3-1.4 21.84 21.84 0 018.01 1.72 26 26 0 012.5 1.19c.28.15.49.28.61.35l.11.07 1.71-2.64-1.75 2.62 1.71-2.64-1.75 2.62a6.9 6.9 0 007.66-11.49z" fill="#ff9100"/><path d="M616 423.72a11.55 11.55 0 00-22.27 0 2.51 2.51 0 004.85 1.33 6.54 6.54 0 0112.6 0 2.51 2.51 0 104.85-1.33zM647.87 423.72a11.55 11.55 0 00-22.28 0 2.54 2.54 0 104.9 1.31 6.54 6.54 0 0112.61 0 2.52 2.52 0 004.9-1.33zM646.34 436.89a2.51 2.51 0 00-3.09 1.75 22.87 22.87 0 01-2.58 5.91.71.71 0 01-.65-.63c-1.18-10.7-12.15-8.59-14.35 1.2v.09c-1.5 4.1-2.59 9.53-6.89 10.35a23.18 23.18 0 01-20.21-16.92 2.51 2.51 0 00-4.85 1.33 28.21 28.21 0 0054.4 0 2.52 2.52 0 00-1.78-3.09z" fill="#fff"/><path fill="#fe4c00" d="M708.51 402.02l-8.36-24.37-1.3.45 8.35 24.37"/><path d="M490.79 221l-2.53 1.11a.69.69 0 01.06.31 2 2 0 01-.17.72 4.86 4.86 0 01-1.21 1.63 8.69 8.69 0 01-5.58 2.26 3.91 3.91 0 01-1.81-.36c-.38-.2-.49-.35-.55-.49a.78.78 0 01-.06-.31 1.65 1.65 0 01.17-.72 5 5 0 011.2-1.64 8.83 8.83 0 012.37-1.53 8.13 8.13 0 013.22-.72 4.11 4.11 0 011.8.35c.39.2.5.35.56.5l2.53-1.11 2.53-1.11a6.64 6.64 0 00-3.15-3.23 9.67 9.67 0 00-4.27-.93 14 14 0 00-10.41 4.86 10 10 0 00-1.51 2.45 7.44 7.44 0 00-.6 2.86 6.31 6.31 0 00.53 2.53 6.58 6.58 0 003.15 3.22 9.4 9.4 0 004.27.93 13.59 13.59 0 005.44-1.19 13.42 13.42 0 004.94-3.63 9.87 9.87 0 001.51-2.46 7.54 7.54 0 00.6-2.85 6.31 6.31 0 00-.53-2.53z" fill="#fc6"/><path d="M493.32 220l-9.83-22.32 7.81-.47a2.76 2.76 0 10-.29-5.51l-11.76.7a2.76 2.76 0 00-2.6 2.91 2.87 2.87 0 00.23 1l11.39 25.95a2.76 2.76 0 005.06-2.22z" fill="#fc6"/><path d="M441.11 178l-2.71-.55a.88.88 0 01-.17.35 2.87 2.87 0 01-1.16.75 6.63 6.63 0 01-2.33.39 8.79 8.79 0 01-1.77-.18 7.64 7.64 0 01-3.48-1.68 3.64 3.64 0 01-.8-.95 1.34 1.34 0 01-.17-.59v-.13a.78.78 0 01.18-.35 2.77 2.77 0 011.15-.75 6.87 6.87 0 012.33-.39 10.52 10.52 0 011.77.18 7.85 7.85 0 013.54 1.68 4 4 0 01.79 1 1.38 1.38 0 01.17.59v.13l2.71.55 2.71.54a6.23 6.23 0 00.12-1.22 6.74 6.74 0 00-.83-3.19 9.85 9.85 0 00-3.31-3.48 13.66 13.66 0 00-4.8-1.93 14.45 14.45 0 00-2.86-.29 11.41 11.41 0 00-5.6 1.37 7.72 7.72 0 00-2.19 1.83 6.32 6.32 0 00-1.28 2.72 5.56 5.56 0 00-.13 1.22 6.83 6.83 0 00.83 3.19 9.69 9.69 0 003.31 3.48 13.47 13.47 0 004.8 1.93 13.74 13.74 0 002.86.29 11.3 11.3 0 005.6-1.37 7.56 7.56 0 002.19-1.83 6.27 6.27 0 001.28-2.72z" fill="#ffe0b3"/><path d="M443.81 178.49l4.83-23.89 6.66 4.11a2.76 2.76 0 002.9-4.7l-10-6.19a2.77 2.77 0 00-2.55-.18 2.74 2.74 0 00-1.6 2l-5.62 27.78a2.76 2.76 0 005.39 1.21v-.12z" fill="#ffe0b3"/><path d="M482 117.74l-2.5 1.17a.83.83 0 01.07.34 3.09 3.09 0 01-.82 1.8 8 8 0 01-2.83 2.15 7.79 7.79 0 01-3.35.8 4 4 0 01-1.7-.32.94.94 0 01-.53-.47.77.77 0 01-.07-.34 3.15 3.15 0 01.82-1.8 8.61 8.61 0 016.18-3 4.32 4.32 0 011.7.32 1 1 0 01.53.47l2.5-1.17 2.5-1.17a6.59 6.59 0 00-3.1-3.09 9.62 9.62 0 00-4.13-.89 13.72 13.72 0 00-5.7 1.33 13.47 13.47 0 00-4.79 3.7 8.51 8.51 0 00-2 5.25 6.39 6.39 0 00.59 2.69 6.57 6.57 0 003.1 3.08 9.48 9.48 0 004.13.89 13.57 13.57 0 005.7-1.33 13.42 13.42 0 004.79-3.69 8.51 8.51 0 002-5.26 6.09 6.09 0 00-.59-2.68z" fill="#ffe7c7"/><path d="M484.49 116.57L474.14 94.5l7.8-.66a2.77 2.77 0 00-.47-5.51l-11.75 1a2.79 2.79 0 00-2.16 1.37 2.76 2.76 0 00-.1 2.56l12 25.65a2.76 2.76 0 005-2.34z" fill="#ffe7c7"/><path d="M676.0999999999999 388.87l.42-.55.55.42-.62.82v13.74h-10.74v-13.74l-.62-.82.55-.42.42.55h10m1-.69H665V404h12.12v-15.82" fill="#d93d01"/><path d="M675.62 401.55l-.55.41.84 1.11.54-.41-.83-1.09m-1.62-2.21l-.55.42.83 1.1.55-.41-.83-1.11m-1.66-2.2l-.55.42.83 1.1.55-.42-.83-1.1m-1.67-2.2l-.55.41.83 1.1.17-.12-.39-.29.39-.51-.45-.59m-1.67-2.21l-.55.42.83 1.1.55-.42-.83-1.1m-1.66-2.2l-.55.41.83 1.1.55-.41-.83-1.1m-1.67-2.21l-.55.42.62.82.21.28.56-.42-.42-.55-.42-.55" fill="#d93d01"/><path d="M666.54 401.55l-.83 1.09.55.41.83-1.11-.55-.41m1.66-2.21l-.83 1.11.55.41.83-1.1-.55-.42m1.66-2.2l-.83 1.1.55.42.83-1.1-.55-.42m1.67-2.2l-.45.59-.39.51.39.29.17.12.83-1.1-.55-.41m1.66-2.21l-.83 1.1.55.42.83-1.1-.55-.42m1.66-2.2l-.83 1.1.55.41.83-1.1-.55-.41m1.67-2.21l-.42.55-.41.55.55.42.21-.28.62-.82-.55-.42M584.9599999999999 388.87l.42-.55.55.42-.62.82v13.74h-10.73v-13.74l-.62-.82.55-.42.42.55h10m1-.69h-12V404H586v-15.82" fill="#d93d01"/><path d="M584.49 401.55l-.55.41.83 1.11.54-.41-.82-1.09m-1.66-2.21l-.56.42.84 1.1.55-.41-.83-1.11m-1.67-2.2l-.55.42.83 1.1.55-.42-.83-1.1M579.5 395l-.55.41.83 1.1.16-.12-.38-.29.38-.51-.44-.59m-1.66-2.21l-.56.42.84 1.1.55-.42-.83-1.1m-1.67-2.2l-.55.41.87 1.07.55-.41-.83-1.1m-1.72-2.2l-.55.42.62.82.21.28.55-.42-.41-.55-.42-.55" fill="#d93d01"/><path d="M575.4 401.55l-.82 1.09.54.41.83-1.11-.55-.41m1.66-2.21l-.83 1.11.55.41.84-1.1-.56-.42m1.67-2.2l-.83 1.1.55.42.83-1.1-.55-.42m1.66-2.2l-.45.59-.38.51.38.29.17.12.83-1.1-.55-.41m1.66-2.21l-.83 1.1.55.42.84-1.1-.56-.42m1.67-2.2l-.83 1.1.55.41.83-1.1-.55-.41m1.66-2.21l-.42.55-.41.55.55.42.21-.28.62-.82-.55-.42" fill="#d93d01"/><path d="M690.09 491.86c0 15.19-9.54 27.51-21.3 27.51s-21.3-12.34-21.3-27.51 9.53-27.51 21.3-27.51 21.3 12.31 21.3 27.51z" fill="#f9b870"/><path d="M668.79 491.86h21.92c0 15.53-9.9 28.31-21.92 28.31s-21.92-12.77-21.92-28.3z" fill="#e2841e"/><path d="M738.71 491.86c0 15.19-9.54 27.51-21.31 27.51s-21.3-12.32-21.3-27.51 9.54-27.51 21.3-27.51 21.31 12.31 21.31 27.51zM786.91 491.86c0 15.19-9.54 27.51-21.3 27.51S744.3 507 744.3 491.86s9.54-27.51 21.31-27.51 21.3 12.31 21.3 27.51z" fill="#f9b870"/><path fill="#e2841e" d="M642.82 486.03h147.8v11.65h-147.8z"/><path d="M717.4 491.86h21.92c0 15.53-9.89 28.31-21.92 28.31s-21.91-12.77-21.91-28.3zM765.61 491.86h21.88c0 15.53-9.9 28.31-21.92 28.31s-21.92-12.77-21.92-28.3z" fill="#e2841e"/><path d="M171.7 418.73h-.11a8.81 8.81 0 00-8.81 8.79h17.71a8.81 8.81 0 00-8.81-8.81" fill="#374c55"/><path d="M242 379.42a5.72 5.72 0 00-5.72 5.72h11.45a5.73 5.73 0 00-5.73-5.72M255.49 381.23a3.91 3.91 0 00-3.91 3.91h7.82a3.91 3.91 0 00-3.91-3.91" fill="#475962"/><path d="M165.2 389.78s-41.85-62.72 25.48-108.25S267 93.06 165 75.43h113.81s-52.64 2-28.73 40.36 73.88 107.58 28.73 165 27.37 68.89 20.17 109z" fill="url(#prefix__a)"/><path fill="#ffd617" d="M0 540.86h1531.02v-6.91H0"/></svg>