<svg xmlns="http://www.w3.org/2000/svg" viewBox="0 0 230.584 39.222"><path d="M95.22 3.117A2.984 2.984 0 0092.242.14H69.224a2.984 2.984 0 00-2.976 2.976c0 1.686 1.34 3.025 2.976 3.025h8.484v28.625a3.006 3.006 0 003.026 3.026c1.637 0 2.977-1.34 2.977-3.026V6.142h8.532c1.637 0 2.976-1.339 2.976-3.025" fill="#fe4c00"/><path d="M100.114 31.004c-3.554 0-6.49-2.833-6.49-6.387 0-3.553 2.936-6.437 6.49-6.437 3.502 0 6.438 2.884 6.438 6.437 0 3.554-2.936 6.387-6.438 6.387m10.61-19.056c-1.7 0-2.73 1.339-2.73 2.936v.257c-2.214-1.802-4.79-2.988-7.88-2.988-6.901 0-12.464 5.615-12.464 12.464 0 6.851 5.563 12.414 12.464 12.414 3.09 0 5.666-1.135 7.88-3.039v.617c0 1.596 1.03 2.936 2.73 2.936 1.698 0 2.988-1.34 2.988-2.936V14.884c0-1.597-1.29-2.936-2.988-2.936M130.532 22.603c-1.7-.772-3.398-.772-4.736-.824-.824 0-1.596 0-2.112-.153-.411-.156-.875-.825-.927-1.083-.205-2.214 2.677-2.317 4.223-2.058.926.154 1.44.514 2.162 1.029a3.143 3.143 0 003.964-.515c1.134-1.236 1.03-3.192-.205-4.325-1.288-1.184-2.832-1.905-4.892-2.265-2.728-.464-6.488-.104-9.063 2.265-1.184 1.133-2.574 3.141-2.316 6.385.206 2.678 2.368 5.459 5.046 6.332 1.44.516 2.832.567 4.068.567.926 0 1.75 0 2.213.257.516.207 1.133.722 1.133 1.443 0 .567-.308 1.133-.822 1.441-1.958 1.287-5.407.103-6.335-.773-1.235-1.132-3.192-1.08-4.324.207-1.185 1.237-1.081 3.193.153 4.325 1.699 1.596 4.995 2.936 8.29 2.936 1.957 0 3.862-.413 5.613-1.547 2.213-1.492 3.553-3.964 3.553-6.59 0-2.986-1.854-5.767-4.686-7.054M160.137 15.51c-1.736 0-3.127 1.34-3.127 3.027v15.882c0 1.687 1.391 3.076 3.127 3.076 1.636 0 3.027-1.389 3.027-3.076V18.537c0-1.687-1.391-3.027-3.027-3.027M173.36 21.466c1.224-1.886 3.265-3.06 5.612-3.06 2.296 0 4.182 1.123 5.202 3.06zm7.857-9.029a11.239 11.239 0 00-2.245-.204c-7.091 0-12.754 5.816-12.754 12.804 0 7.092 5.663 12.805 12.754 12.805 2.908 0 6.836-.917 9.641-3.62 1.224-1.174 1.276-3.165.05-4.338-1.173-1.224-3.11-1.224-4.335-.05-1.327 1.275-3.724 1.938-5.356 1.938-3.164 0-5.766-2.244-6.48-5.152h15.713c1.224 0 2.092-.868 2.5-1.838.204-.509.408-1.02.408-1.48.103-1.68-.816-3.57-1.632-4.998-1.837-3.06-4.796-5.203-8.264-5.867M207.601 22.61c-1.697-.772-3.396-.772-4.734-.824-.824 0-1.596 0-2.11-.154-.412-.154-.876-.824-.928-1.081-.205-2.213 2.678-2.316 4.222-2.059.926.155 1.44.515 2.161 1.03a3.138 3.138 0 003.963-.515c1.132-1.235 1.029-3.19-.206-4.324-1.286-1.184-2.83-1.904-4.889-2.264-2.728-.463-6.485-.104-9.059 2.264-1.184 1.133-2.573 3.14-2.316 6.383.206 2.676 2.368 5.456 5.044 6.33 1.44.515 2.831.566 4.066.566.926 0 1.75 0 2.213.258.516.206 1.133.72 1.133 1.44 0 .567-.309 1.134-.824 1.443-1.956 1.285-5.404.101-6.33-.773-1.236-1.134-3.191-1.08-4.323.206-1.184 1.235-1.083 3.19.153 4.323 1.699 1.596 4.992 2.935 8.287 2.935 1.956 0 3.86-.414 5.61-1.546 2.213-1.492 3.551-3.962 3.551-6.588 0-2.985-1.853-5.764-4.684-7.05M166.315 3.786a2.246 2.246 0 00-2.76 1.572 4.04 4.04 0 01-1.425 2.119 4 4 0 01-2.461.838 4.001 4.001 0 01-2.463-.838 4.04 4.04 0 01-1.425-2.12 2.247 2.247 0 00-4.333 1.19 8.52 8.52 0 002.867 4.356l.107.096.035.032a8.494 8.494 0 005.212 1.78 8.492 8.492 0 005.21-1.78 8.526 8.526 0 003.008-4.484 2.248 2.248 0 00-1.572-2.76M147.568 23.215V19.94h1.637l.078-.006h1.161a3.083 3.083 0 003.072-3.075 3.081 3.081 0 00-3.072-3.072H147.568v-1.24h-.004v-.01l.004-.042V6.695a3 3 0 00-2.992-2.99 3 3 0 00-2.992 2.99V13.787h-3.293a3.082 3.082 0 00-3.074 3.072 3.083 3.083 0 003.074 3.075h1.113l.079.006h2.101v-.25l.03.302v10.806c0 1.538.695 3.324 1.689 4.465 1.14 1.29 2.728 1.984 4.365 2.232.305.033.592.043.881.047l.04.004h1.943a2.994 2.994 0 002.984-2.986 2.993 2.993 0 00-2.984-2.985h-1.943l-.129.013c-.208-.013-.407-.057-.545-.194-.347-.298-.247-.894-.347-1.29V24.86zM224.636 23.215V19.94h1.639l.075-.006h1.161a3.083 3.083 0 003.073-3.075 3.082 3.082 0 00-3.073-3.072h-2.875v-1.24h-.004v-.01l.004-.042V6.695a3 3 0 00-2.992-2.99 3 3 0 00-2.992 2.99V13.787h-3.293a3.082 3.082 0 00-3.073 3.072 3.083 3.083 0 003.073 3.075h1.113l.079.006h2.101v-.25l.031.302v10.806c0 1.538.695 3.324 1.688 4.465 1.14 1.29 2.728 1.984 4.364 2.232.307.033.593.043.883.047l.04.004h1.941a2.994 2.994 0 002.985-2.986 2.993 2.993 0 00-2.985-2.985h-1.941l-.13.013c-.208-.013-.408-.057-.544-.194-.348-.298-.249-.894-.348-1.29V24.86zM19.293 7.319A9.97 9.97 0 009.685 0c-2.286 0-4.411.777-6.09 2.079A9.959 9.959 0 00.078 7.32a2.171 2.171 0 004.187 1.15A5.628 5.628 0 016.25 5.512a5.579 5.579 0 013.435-1.17c1.302 0 2.481.434 3.434 1.17a5.63 5.63 0 011.987 2.956 2.171 2.171 0 004.187-1.15M46.8 7.32A9.967 9.967 0 0037.193 0a9.938 9.938 0 00-6.09 2.078 9.98 9.98 0 00-3.518 5.241 2.17 2.17 0 001.519 2.668 2.17 2.17 0 002.668-1.517 5.639 5.639 0 011.986-2.957 5.587 5.587 0 013.435-1.171 5.62 5.62 0 015.42 4.127 2.17 2.17 0 004.187-1.15M45.487 18.68a2.17 2.17 0 00-2.668 1.52 19.854 19.854 0 01-2.225 5.098.62.62 0 01-.557-.55c-1.023-9.223-10.48-7.403-12.382 1.043l-.02.07c-1.29 3.541-2.226 8.222-5.938 8.93a19.871 19.871 0 01-10.372-4.078 20.006 20.006 0 01-7.06-10.516 2.17 2.17 0 10-4.187 1.149 24.352 24.352 0 008.59 12.801 24.232 24.232 0 0014.874 5.075 24.235 24.235 0 0014.872-5.073 24.35 24.35 0 008.592-12.8 2.17 2.17 0 00-1.519-2.668" fill="#fe4c00"/></svg>