<?xml version="1.0" encoding="utf-8"?>
<!-- Generator: Adobe Illustrator 24.0.1, SVG Export Plug-In . SVG Version: 6.00 Build 0)  -->
<svg version="1.1" xmlns="http://www.w3.org/2000/svg" xmlns:xlink="http://www.w3.org/1999/xlink" x="0px" y="0px"
	 viewBox="0 0 500 500" style="enable-background:new 0 0 500 500;" xml:space="preserve">
<style type="text/css">
	.st0{fill:#FFC200;}
	.st1{fill:#FFF6CF;}
	.st2{fill:#FFEA92;}
	.st3{fill:#FFE266;}
	.st4{fill:#130B57;}
</style>
<g id="Layer_1">
	<g>
		<path class="st0" d="M387.03,337.14c0,0-26.4,89.9-145.69,89.9s-146.27-89.9-146.27-89.9v-25.38l0,0
			c-7.08,11.87-10.97,24.8-10.97,38.34c0,57.59,70.4,104.27,157.24,104.27c86.84,0,157.24-46.68,157.24-104.27
			c0-13.89-4.11-27.15-11.54-39.27V337.14z"/>
	</g>
	<path class="st1" d="M392.28,254.87l0-0.55c0.1-1.66,0.16-3.34,0.16-5.02c0-15.7-4.36-30.66-12.15-44.13
		c-11.7-20.22-31-37.14-55.05-49.03c-9.63-4.76-20.04-8.7-31.04-11.74c0.1-0.47,0.21-0.89,0.33-1.22c0.13-0.37,0.24-0.63,0.3-0.75
		l0.02-0.03l0.09-0.15l0.15-0.3c1.29-2.59,2.27-4.87,2.96-7.1c0.69-2.22,1.1-4.45,1.09-6.65c0.01-2.38-0.49-4.57-1.06-6.25
		c-0.57-1.7-1.15-2.97-1.63-4.19l0,0c-1-2.46-1.99-4.12-2.39-5.05c-0.22-0.47-0.31-0.75-0.35-0.92c-0.04-0.17-0.05-0.24-0.06-0.41
		c0-0.19,0.02-0.54,0.21-1.23c0.19-0.68,0.56-1.68,1.23-3.02c2.13-4.25,0.4-9.42-3.85-11.55c-4.25-2.13-9.42-0.4-11.55,3.85l0,0
		c-1.05,2.11-1.86,4.1-2.41,6.08c-0.55,1.98-0.85,3.95-0.85,5.87c0,1.72,0.24,3.37,0.63,4.81c0.58,2.17,1.4,3.84,2.02,5.09
		c0.64,1.26,1.1,2.14,1.39,2.87l0,0c0.63,1.56,1.09,2.64,1.28,3.23c0.19,0.61,0.17,0.64,0.18,0.81c0,0.16-0.01,0.56-0.32,1.54
		c-0.29,0.95-0.88,2.41-1.86,4.38c-0.35,0.64-0.93,1.81-1.5,3.46c-0.3,0.86-0.58,1.89-0.82,3.01c-10.02-1.81-20.42-2.9-31.1-3.15
		c0.04-0.57,0.08-1.14,0.08-1.71c0-3.12-0.53-6.18-1.44-9.14c-0.91-2.96-2.18-5.82-3.73-8.62c-1.16-2.12-1.43-3.78-1.44-5.24
		c0-1.3,0.27-2.44,0.53-3.17c0.13-0.37,0.24-0.63,0.3-0.75l0.02-0.03l0.09-0.15l0.15-0.3c1.29-2.59,2.27-4.87,2.96-7.1
		c0.69-2.22,1.1-4.45,1.09-6.65c0.01-2.38-0.49-4.57-1.06-6.25c-0.57-1.7-1.15-2.96-1.63-4.19c-1-2.46-1.99-4.12-2.39-5.05
		c-0.22-0.47-0.31-0.75-0.35-0.92c-0.04-0.17-0.05-0.24-0.06-0.41c0-0.19,0.02-0.54,0.21-1.23c0.19-0.68,0.56-1.68,1.23-3.02
		c2.13-4.25,0.4-9.42-3.85-11.55c-4.25-2.13-9.42-0.4-11.55,3.85l0,0c-1.05,2.11-1.86,4.1-2.41,6.08c-0.55,1.98-0.85,3.95-0.85,5.87
		c0,1.72,0.24,3.37,0.63,4.81c0.58,2.17,1.4,3.84,2.02,5.09c0.64,1.26,1.1,2.14,1.39,2.87c0.63,1.56,1.09,2.64,1.28,3.23
		c0.19,0.61,0.17,0.64,0.18,0.81c0,0.16-0.01,0.56-0.32,1.54c-0.29,0.95-0.88,2.41-1.86,4.38c-0.35,0.64-0.93,1.81-1.5,3.46
		c-0.74,2.15-1.46,5.15-1.47,8.78c-0.01,4.02,0.95,8.84,3.61,13.6c1.07,1.92,1.84,3.71,2.32,5.29c0.49,1.59,0.69,2.96,0.68,4.1
		c0,0.76-0.09,1.43-0.25,2.05c-12.28,0.74-24.14,2.56-35.42,5.34c-0.56-1.23-1.16-2.45-1.83-3.66l0,0
		c-1.16-2.12-1.43-3.78-1.44-5.24c0-1.3,0.27-2.43,0.53-3.17c0.13-0.37,0.24-0.63,0.3-0.75l0.02-0.03l0.09-0.15l0.15-0.3
		c1.29-2.59,2.27-4.87,2.97-7.1c0.69-2.22,1.1-4.45,1.09-6.65c0.01-2.38-0.49-4.57-1.06-6.25c-0.57-1.7-1.15-2.96-1.63-4.19l0,0
		c-1-2.46-1.99-4.12-2.4-5.05c-0.22-0.47-0.31-0.75-0.35-0.92c-0.04-0.17-0.05-0.24-0.06-0.41c0-0.19,0.02-0.54,0.21-1.23
		c0.19-0.68,0.56-1.68,1.23-3.02c2.13-4.25,0.4-9.42-3.85-11.55c-4.25-2.13-9.42-0.4-11.55,3.85l0,0c-1.05,2.11-1.86,4.1-2.41,6.08
		c-0.55,1.98-0.85,3.95-0.85,5.87c0,1.72,0.24,3.37,0.63,4.81c0.58,2.17,1.4,3.84,2.02,5.09c0.64,1.26,1.1,2.14,1.39,2.87l0,0
		c0.63,1.56,1.09,2.64,1.28,3.23c0.19,0.61,0.17,0.64,0.18,0.81c0,0.16-0.01,0.55-0.32,1.54c-0.29,0.95-0.88,2.41-1.86,4.38
		c-0.35,0.64-0.93,1.81-1.5,3.46c-0.74,2.15-1.46,5.15-1.46,8.78c-0.01,4.02,0.95,8.84,3.61,13.61l0.13,0.24l-0.14-0.24
		c0.05,0.08,0.08,0.16,0.13,0.25c-15.5,5.42-29.57,12.74-41.68,21.6c-13.71,10.03-24.9,22.05-32.69,35.53
		c-7.79,13.47-12.16,28.44-12.15,44.13c0,0.19,0.01,0.37,0.01,0.56h-0.01v13.5v54.44v0.26v5.02v8.22v0.26v5.02h0.29
		c0.46,4.21,1.47,8.46,2.98,12.7c3.7,10.38,10.32,20.71,19.23,30.47c13.36,14.62,31.91,27.94,53.92,37.67
		c22.01,9.72,47.5,15.84,74.69,15.84c41.45-0.01,78.9-13.55,106.2-32.89c13.65-9.68,24.78-20.81,32.59-32.58
		c7.79-11.76,12.31-24.22,12.32-36.49c0-0.43-0.01-5.36-0.03-12.28c0.01-0.41,0.03-0.82,0.03-1.23
		C392.44,316.22,392.28,254.87,392.28,254.87z"/>
	<g>
		<path class="st2" d="M99.16,266.65v-0.26h-3.23v3.23h0h3.23v-3.23c-0.01-9.49,3.79-20.14,10.95-30.77
			c10.71-15.94,28.86-31.68,51.75-43.36c22.89-11.68,50.5-19.32,80.15-19.32c39.63-0.01,75.55,13.02,101.43,31.37
			c12.94,9.17,23.36,19.65,30.48,30.41c7.13,10.76,10.95,21.74,10.94,31.93h6.46c-0.01-11.81-4.37-23.95-12.02-35.5
			c-11.49-17.32-30.43-33.41-54.18-45.26c-23.75-11.84-52.33-19.4-83.11-19.4c-41.02,0.01-78.14,14.05-105.13,33.42
			c-13.49,9.69-24.47,20.73-32.13,32.11c-7.65,11.38-12.04,23.16-12.05,34.37h3.23v-3.23h0h-3.23v3.49H99.16L99.16,266.65z"/>
	</g>
	<path class="st3" d="M100.62,275.05c0,0,27.98,83.58,136.26,81.42s145.8-75.54,145.8-75.54s-16.75-37.65-37.7-42.97H340
		c0,0,13.78,20.48-7.77,26.81c-21.55,6.33-53.06,2.28-53.06,2.28s-16.43-3.77-17.24-10.5c-0.81-6.73,4.85-30.07,11.04-35.37
		c6.2-5.3,13.2-10.96,13.2-10.96s-57.49-9.26-68.82-3.3c0,0,17.51,34.19,0.54,43.12s-57.3,2.25-57.3,2.25s-19.6-0.38-16.56-16.51
		C144.02,235.78,111.15,256.12,100.62,275.05z"/>
	<path class="st1" d="M251.22,332.6H213.2c-9.47,0-22.88-4.44-20.99-16.03c0,0,2.3-38.37,29.63-43.38c1.88-0.34,6.76-6.86,8.88-6.86
		c2.33,0,8,6.18,10.03,6.59c26.8,5.43,31.48,42.16,31.48,42.16C274.66,325.86,260.69,332.6,251.22,332.6z"/>
	<path class="st1" d="M299.51,160.2c-0.91-2.96-2.18-5.82-3.73-8.62l0,0c-1.16-2.12-1.43-3.78-1.44-5.24c0-1.3,0.27-2.44,0.53-3.17
		c0.13-0.37,0.24-0.63,0.3-0.75l0.02-0.03l0.09-0.15l0.15-0.3c1.29-2.59,2.27-4.87,2.97-7.1c0.69-2.22,1.1-4.45,1.09-6.65
		c0.01-2.38-0.49-4.57-1.06-6.25c-0.57-1.7-1.15-2.97-1.63-4.19c-1-2.47-1.99-4.12-2.39-5.05c-0.22-0.47-0.31-0.75-0.35-0.92
		c-0.04-0.17-0.05-0.24-0.06-0.41c0-0.19,0.02-0.54,0.21-1.23c0.19-0.68,0.56-1.68,1.23-3.02c2.13-4.25,0.4-9.42-3.85-11.55
		c-4.25-2.13-9.42-0.4-11.55,3.85c-1.05,2.11-1.86,4.1-2.41,6.08c-0.55,1.98-0.85,3.95-0.85,5.87c0,1.72,0.24,3.37,0.63,4.81
		c0.58,2.17,1.4,3.84,2.02,5.09c0.64,1.26,1.1,2.14,1.39,2.87c0.63,1.56,1.09,2.64,1.28,3.23c0.19,0.61,0.17,0.64,0.18,0.81
		c0,0.16-0.01,0.56-0.32,1.54c-0.29,0.95-0.88,2.41-1.86,4.38c-0.35,0.64-0.93,1.81-1.5,3.46c-0.74,2.15-1.46,5.15-1.47,8.78
		c-0.01,4.02,0.95,8.84,3.61,13.6l0,0c1.07,1.92,1.84,3.71,2.32,5.29c0.49,1.59,0.69,2.96,0.68,4.1c0,1.2-0.2,2.17-0.58,3.1
		c-0.39,0.93-0.99,1.88-2.05,2.95c-3.36,3.36-3.36,8.81,0,12.18c3.36,3.36,8.81,3.36,12.18,0c2.5-2.49,4.48-5.38,5.77-8.51
		c1.3-3.13,1.91-6.46,1.9-9.71C300.95,166.21,300.42,163.15,299.51,160.2z"/>
	<g>
		<path class="st4" d="M392.62,254.87l0-0.55c0.1-1.66,0.16-3.34,0.16-5.02c0-15.7-4.36-30.66-12.15-44.13
			c-11.7-20.22-31-37.14-55.05-49.03c-9.63-4.76-20.04-8.7-31.04-11.74c-0.12,0.58-0.2,1.23-0.2,1.95c0.01,1.46,0.28,3.12,1.44,5.24
			c0.78,1.41,1.49,2.83,2.12,4.27c16.64,5.25,31.59,12.72,44.1,21.89c12.73,9.32,22.93,20.34,29.92,32.45
			c6.99,12.11,10.8,25.28,10.81,39.11c0,6.07-0.74,12.01-2.15,17.79c-4.41-6.7-9.89-13.2-16.31-19.34
			c-7.13-6.81-15.4-13.19-24.62-18.91c-2.33-4.83-5.44-9.81-9.68-14.05c-4.51-4.52-10.37-8.19-17.66-9.71
			c-0.05-0.02-0.21-0.11-0.45-0.27c-0.11-0.08-0.24-0.17-0.38-0.27c-0.01-0.01-0.02-0.02-0.04-0.03c-0.43-0.31-0.95-0.73-1.51-1.18
			c-1.14-0.92-2.43-2.01-3.73-2.94c-0.65-0.47-1.31-0.9-2.03-1.27c-0.36-0.18-0.75-0.35-1.19-0.49c-0.44-0.14-0.94-0.25-1.56-0.25
			c-1.1,0.02-1.81,0.35-2.42,0.65c-1.04,0.56-1.84,1.23-2.67,1.96c-1.22,1.09-2.41,2.31-3.39,3.23c-0.49,0.46-0.92,0.84-1.2,1.04
			c-0.06,0.04-0.1,0.07-0.14,0.1c-1.78,0.34-3.48,0.81-5.08,1.4c-14.17-3.44-29.23-5.38-44.87-5.38c-9,0-17.8,0.69-26.36,1.94
			c-0.89-1.08-1.82-2.13-2.83-3.14c-4.51-4.52-10.37-8.19-17.66-9.71c-0.05-0.02-0.21-0.11-0.45-0.27
			c-0.11-0.08-0.24-0.17-0.38-0.27c-0.01-0.01-0.02-0.02-0.04-0.03c-0.43-0.31-0.95-0.73-1.51-1.18c-1.14-0.92-2.43-2.01-3.73-2.94
			c-0.65-0.47-1.31-0.9-2.03-1.27c-0.36-0.18-0.75-0.35-1.19-0.49c-0.44-0.14-0.94-0.25-1.56-0.25c-1.1,0.02-1.81,0.35-2.42,0.65
			c-1.04,0.56-1.84,1.23-2.67,1.96c-1.22,1.09-2.41,2.31-3.39,3.23c-0.49,0.46-0.92,0.84-1.2,1.04c-0.06,0.04-0.1,0.07-0.14,0.1
			c-7.38,1.43-13.21,5.14-17.57,9.77c-6.66,7.08-10.14,16.17-12.08,23.48c-0.57,2.18-1,4.2-1.33,5.98
			c-9.33,5.95-17.68,12.53-24.84,19.5c-6.01,5.86-11.17,11.99-15.37,18.24c-1.52-5.98-2.32-12.14-2.32-18.44
			c0-13.83,3.81-26.99,10.81-39.11c10.48-18.16,28.22-33.89,50.8-45.05c5.62-2.78,11.54-5.28,17.72-7.46
			c0.01-0.16,0.02-0.32,0.02-0.49c0-1.15-0.2-2.52-0.68-4.1c-0.46-1.52-1.19-3.22-2.19-5.05c-15.5,5.42-29.57,12.74-41.68,21.6
			c-13.71,10.03-24.9,22.05-32.69,35.53c-7.79,13.47-12.16,28.44-12.15,44.13c0,0.19,0.01,0.37,0.01,0.56h-0.01v13.5v54.44v0.26
			v5.02v8.22v0.26v5.02h0.29c0.46,4.21,1.47,8.46,2.98,12.7c3.7,10.38,10.32,20.71,19.23,30.47c13.36,14.62,31.91,27.94,53.92,37.67
			c22.01,9.72,47.5,15.84,74.69,15.84c41.45-0.01,78.9-13.55,106.2-32.89c13.65-9.68,24.78-20.81,32.59-32.58
			c7.79-11.76,12.31-24.22,12.32-36.49c0-0.43-0.01-5.36-0.03-12.27c0.01-0.41,0.03-0.82,0.03-1.23
			C392.78,316.22,392.62,254.87,392.62,254.87z M372.09,362.23c-10.46,15.81-28.34,31.16-50.98,42.43
			c-22.64,11.29-50.01,18.54-79.43,18.54c-39.12,0.01-74.7-13.46-100.32-31.87c-12.81-9.19-23.1-19.61-30.1-30.02
			c-3.5-5.2-6.17-10.4-7.96-15.41c-1.79-5.02-2.68-9.84-2.68-14.35v-3.25c1.16,2.06,2.42,4.12,3.8,6.17
			c11.5,17.07,30.43,33.38,54.17,45.51c23.74,12.12,52.32,20.02,83.09,20.03c41.05-0.01,78.17-13.44,105.16-32.56
			c13.5-9.57,24.47-20.56,32.13-32.11c1.36-2.06,2.61-4.13,3.76-6.22c0,1.24,0,2.02,0,2.18
			C382.74,341.04,379.08,351.69,372.09,362.23z M148.64,237.6l0.01-0.17l0-0.01c0.02-0.39,0.7-9.73,4.53-19.27
			c1.91-4.77,4.59-9.57,8.24-13.36c3.34-3.46,7.42-6.11,12.67-7.4c-0.21,1.39-0.59,2.94-1.23,4.43c-0.63,1.46-1.49,2.87-2.67,4.1
			c-1.19,1.23-2.71,2.31-4.78,3.12c-1.66,0.64-2.49,2.51-1.85,4.18c0.64,1.66,2.51,2.49,4.18,1.85c2.93-1.13,5.29-2.78,7.1-4.66
			c2.73-2.83,4.21-6.14,5.01-9.08c0.57-2.09,0.81-4.01,0.91-5.56c0.59,2.95,1.11,6.62,1.1,10.47c0,3.71-0.47,7.56-1.72,11.1
			c-1.25,3.54-3.24,6.76-6.37,9.43c-1.36,1.15-1.52,3.19-0.37,4.55c1.15,1.36,3.19,1.52,4.55,0.37c4.1-3.48,6.72-7.78,8.28-12.2
			c1.56-4.43,2.08-9,2.09-13.24c-0.01-5.46-0.87-10.4-1.7-13.93c0.8,0.65,1.65,1.35,2.47,2c0.22,0.17,0.44,0.32,0.66,0.48
			c0.61,0.74,2.97,3.65,5.26,7.6c1.31,2.26,2.6,4.86,3.54,7.55c0.94,2.69,1.53,5.47,1.53,8.08c0,2.24-0.42,4.34-1.38,6.33
			c-0.97,1.98-2.5,3.89-4.95,5.7c-1.44,1.05-1.75,3.07-0.7,4.51c1.05,1.44,3.07,1.75,4.51,0.7c3.2-2.34,5.5-5.11,6.94-8.08
			c1.45-2.97,2.03-6.11,2.03-9.15c0-3.63-0.8-7.14-1.95-10.37c-1.08-3.03-2.46-5.82-3.85-8.25c2.69,1.43,5.07,3.24,7.18,5.34
			c5.77,5.75,9.45,13.64,11.58,20.11c1.07,3.23,1.77,6.09,2.19,8.12c0.21,1.02,0.36,1.83,0.45,2.38c0.04,0.27,0.08,0.48,0.1,0.62
			l0.02,0.15l0,0.03l0,0l0.02,0.15l0.03,0.15c0.14,0.61,0.2,1.19,0.2,1.73c-0.01,1.6-0.51,3.01-1.5,4.43
			c-1.48,2.11-4.16,4.05-7.26,5.37c-3.08,1.33-6.55,2.05-9.3,2.04h-38.03c-3.96,0.02-8.87-0.92-12.39-2.82
			c-1.77-0.94-3.18-2.09-4.11-3.36c-0.92-1.28-1.43-2.65-1.44-4.48c0-0.5,0.04-1.04,0.14-1.62L148.64,237.6z M166.42,256.49h14.98
			v84.91c-7.65-2.63-14.91-5.74-21.72-9.27v-76.31C161.98,256.26,164.28,256.49,166.42,256.49z M235.87,273.24
			c0.22,0.17,0.44,0.32,0.66,0.48c0.61,0.74,2.97,3.65,5.26,7.6c1.31,2.26,2.6,4.86,3.54,7.55c0.94,2.69,1.53,5.47,1.53,8.08
			c0,2.24-0.42,4.34-1.38,6.33c-0.97,1.98-2.5,3.89-4.95,5.7c-1.44,1.05-1.75,3.07-0.7,4.51c1.05,1.44,3.07,1.75,4.51,0.7
			c3.2-2.34,5.5-5.11,6.94-8.08c1.45-2.97,2.03-6.11,2.03-9.15c0-3.63-0.8-7.14-1.95-10.37c-1.08-3.03-2.46-5.82-3.85-8.25
			c2.69,1.43,5.07,3.24,7.18,5.34c5.77,5.75,9.45,13.64,11.58,20.11c1.07,3.23,1.77,6.09,2.19,8.12c0.21,1.02,0.36,1.83,0.45,2.38
			c0.04,0.27,0.08,0.48,0.1,0.62l0.02,0.15l0,0.03l0,0l0.02,0.15l0.03,0.15c0.14,0.61,0.2,1.19,0.2,1.73
			c-0.01,1.6-0.51,3.01-1.5,4.43c-1.48,2.11-4.16,4.05-7.26,5.37c-3.08,1.33-6.55,2.05-9.3,2.04H213.2
			c-3.96,0.02-8.87-0.92-12.39-2.82c-1.77-0.94-3.18-2.09-4.11-3.36c-0.92-1.28-1.43-2.65-1.44-4.48c0-0.5,0.04-1.04,0.14-1.63
			l0.03-0.16l0.01-0.17l0-0.01c0.02-0.39,0.7-9.73,4.53-19.27c1.91-4.77,4.59-9.57,8.24-13.36c3.34-3.46,7.42-6.11,12.67-7.4
			c-0.21,1.39-0.59,2.94-1.23,4.43c-0.62,1.46-1.49,2.87-2.67,4.11c-1.19,1.23-2.71,2.31-4.78,3.12c-1.66,0.64-2.49,2.51-1.85,4.18
			c0.64,1.66,2.51,2.49,4.18,1.85c2.93-1.13,5.29-2.78,7.1-4.66c2.73-2.83,4.21-6.14,5.01-9.08c0.57-2.09,0.81-4.01,0.91-5.56
			c0.59,2.95,1.11,6.62,1.1,10.47c0,3.71-0.47,7.56-1.72,11.1c-1.25,3.54-3.24,6.76-6.37,9.43c-1.36,1.15-1.52,3.19-0.37,4.55
			c1.15,1.36,3.19,1.52,4.55,0.37c4.1-3.48,6.72-7.78,8.28-12.2c1.56-4.43,2.08-9,2.09-13.24c-0.01-5.46-0.87-10.4-1.7-13.93
			C234.2,271.89,235.04,272.59,235.87,273.24z M321.93,271.1c1.01,0,2.05-0.08,3.11-0.21v60.56c-1.29,0.69-2.59,1.36-3.92,2.01
			c-7.43,3.67-15.39,6.84-23.76,9.45V271.1H321.93z M191.45,326.55c0.01,0.02,0.02,0.04,0.04,0.05c2.51,3.4,6.2,5.52,10.06,6.88
			c3.87,1.35,7.98,1.93,11.66,1.94h6.35v14.52c-9.74-1.11-19.14-2.96-28.1-5.44V326.55z M241.67,351.2c-4.08,0-8.1-0.15-12.08-0.4
			v-15.37h21.63c1.05,0,2.13-0.09,3.21-0.22v15.57C250.23,351.04,245.98,351.2,241.67,351.2z M100.62,311.93v-22.37
			c0.68,1.3,1.37,2.59,2.11,3.87c3.96,6.85,8.82,13.32,14.42,19.35v0.16h0.14c10.9,11.69,24.65,21.7,40.48,29.53
			c24.06,11.89,52.9,18.78,83.9,18.78c41.33-0.01,78.84-12.23,106.26-32.29c13.71-10.03,24.9-22.05,32.69-35.53
			c0.7-1.21,1.36-2.44,2.01-3.67c0.02,7.38,0.04,15.59,0.06,22.75c-1.79,6.36-4.85,12.85-9.1,19.26
			c-10.68,16.13-28.79,31.65-51.68,43.05c-22.88,11.41-50.51,18.73-80.23,18.73c-39.53,0.01-75.45-13.59-101.36-32.21
			c-12.96-9.3-23.4-19.85-30.54-30.47C105.47,324.48,102.39,318.08,100.62,311.93z M354.34,252.75v57.78
			c-5.69,5.45-12.15,10.49-19.25,15.04v-57.64c2.11-1.03,4.11-2.29,5.85-3.84c1.57-1.4,2.94-3.03,3.93-4.93
			c0.99-1.89,1.59-4.06,1.58-6.35c0-0.93-0.11-1.89-0.31-2.85l0,0c-0.01-0.09-0.27-2.08-0.98-5.18c3.44,2.58,6.69,5.24,9.71,7.99
			H354.34z M336.99,239.46c1.07,3.23,1.77,6.09,2.19,8.12c0.21,1.02,0.36,1.83,0.45,2.38c0.04,0.27,0.08,0.48,0.1,0.62l0.02,0.15
			l0,0.03l0,0l0.02,0.15l0.03,0.15c0.14,0.61,0.2,1.19,0.2,1.73c-0.01,1.6-0.51,3.01-1.5,4.43c-1.48,2.11-4.16,4.05-7.26,5.37
			c-3.08,1.33-6.55,2.05-9.3,2.04h-38.03c-3.96,0.02-8.87-0.92-12.39-2.82c-1.77-0.94-3.18-2.09-4.11-3.36
			c-0.92-1.28-1.43-2.65-1.44-4.48c0-0.5,0.04-1.04,0.14-1.63l0.03-0.16l0.01-0.16l0-0.01c0.02-0.39,0.7-9.73,4.53-19.27
			c1.91-4.77,4.59-9.57,8.24-13.36c3.34-3.46,7.42-6.11,12.67-7.4c-0.21,1.39-0.59,2.94-1.23,4.43c-0.62,1.46-1.49,2.87-2.67,4.1
			c-1.19,1.23-2.71,2.31-4.78,3.12c-1.66,0.64-2.49,2.51-1.85,4.18c0.64,1.66,2.51,2.49,4.18,1.85c2.93-1.13,5.29-2.78,7.1-4.66
			c2.73-2.83,4.21-6.14,5.01-9.08c0.57-2.09,0.81-4.01,0.91-5.56c0.59,2.95,1.11,6.62,1.1,10.47c0,3.71-0.47,7.56-1.72,11.1
			c-1.25,3.54-3.24,6.76-6.37,9.43c-1.36,1.15-1.52,3.19-0.37,4.55c1.15,1.36,3.19,1.52,4.55,0.37c4.1-3.48,6.72-7.78,8.28-12.2
			c1.56-4.43,2.08-9,2.09-13.24c-0.01-5.46-0.87-10.4-1.7-13.93c0.8,0.65,1.65,1.35,2.47,2c0.22,0.17,0.44,0.32,0.66,0.48
			c0.61,0.74,2.97,3.65,5.26,7.6c1.31,2.26,2.6,4.86,3.54,7.55c0.94,2.69,1.53,5.47,1.53,8.08c0,2.24-0.42,4.34-1.38,6.33
			c-0.97,1.98-2.5,3.89-4.95,5.7c-1.44,1.05-1.75,3.07-0.7,4.51c1.05,1.44,3.07,1.75,4.51,0.7c3.2-2.34,5.5-5.11,6.94-8.08
			c1.45-2.97,2.03-6.11,2.03-9.15c0-3.63-0.8-7.14-1.95-10.37c-1.08-3.03-2.46-5.82-3.85-8.25c2.69,1.43,5.07,3.24,7.18,5.34
			C331.19,225.11,334.86,233,336.99,239.46z M264.48,264.77c2.24,2,4.96,3.4,7.77,4.39c3.87,1.35,7.98,1.93,11.66,1.94h3.41v74.62
			c-7.35,1.82-14.98,3.22-22.83,4.15V332.2c2.07-1.02,4.03-2.27,5.75-3.79c1.57-1.4,2.94-3.03,3.93-4.93
			c0.99-1.89,1.59-4.06,1.58-6.35c0-0.93-0.11-1.89-0.31-2.85l0,0c-0.03-0.19-1.22-9.62-5.96-19.98c-1.35-2.94-3-5.96-5-8.86V264.77
			z M219.54,270.01c-6.74,1.6-12.13,5.12-16.21,9.46c-6.46,6.87-9.92,15.62-11.89,22.81v-45.79h13c2.54,0,5.22-0.41,7.89-1.16
			c2.48-0.71,4.94-1.71,7.2-3.04V270.01z M144.7,247.67c1.35,1.83,3.05,3.28,4.93,4.45v74.3c-2.86-1.78-5.64-3.63-8.29-5.57
			c-5.16-3.77-9.87-7.84-14.15-12.13v-53.81c4.57-4.27,9.65-8.41,15.19-12.32C142.82,244.48,143.62,246.21,144.7,247.67z
			 M117.15,297.11c-2.09-2.83-4.01-5.74-5.73-8.71c-1.57-2.72-2.98-5.5-4.22-8.33c2.59-4.83,5.92-9.72,9.95-14.56V297.11z
			 M376.34,279.64c-1.29,2.98-2.76,5.9-4.41,8.76c-2.2,3.8-4.73,7.5-7.54,11.07V262.4C369.32,268.05,373.35,273.86,376.34,279.64z
			 M274.04,215.14c-4.45,4.74-7.46,10.36-9.56,15.76v-18c3.44,0.44,6.84,0.99,10.19,1.61C274.47,214.72,274.25,214.93,274.04,215.14
			z M254.44,211.9v63.15c-3.64-2.59-7.9-4.61-12.83-5.64c-0.05-0.02-0.21-0.11-0.45-0.27c-0.11-0.08-0.24-0.17-0.38-0.27
			c-0.01-0.01-0.02-0.02-0.04-0.03c-0.43-0.31-0.95-0.73-1.51-1.18c-1.14-0.92-2.43-2.01-3.73-2.94c-0.65-0.47-1.31-0.9-2.03-1.27
			c-0.36-0.18-0.75-0.35-1.19-0.49c-0.44-0.14-0.94-0.25-1.56-0.25c-0.44,0.01-0.8,0.07-1.14,0.16v-50.99
			c3.99-0.28,8.01-0.44,12.08-0.44C245.98,211.44,250.23,211.6,254.44,211.9z"/>
		<path class="st4" d="M195.75,148.05c0.46,1.52,0.83,3.07,1.07,4.64c8.83-2.14,18.05-3.68,27.57-4.53
			c-0.09-2.31,0.73-4.65,2.49-6.41c1.06-1.07,1.66-2.01,2.05-2.95c0.14-0.34,0.25-0.69,0.34-1.05c-12.28,0.74-24.14,2.56-35.42,5.34
			C194.59,144.72,195.23,146.37,195.75,148.05z"/>
		<path class="st4" d="M244.83,145.42c-0.28,0.69-0.62,1.36-0.96,2.02c11.6,0.13,22.87,1.25,33.62,3.29
			c-0.25-1.53-0.37-3.01-0.37-4.38c0-2.18,0.27-4.09,0.64-5.77c-10.02-1.81-20.42-2.9-31.1-3.15
			C246.48,140.12,245.91,142.84,244.83,145.42z"/>
		<path class="st4" d="M185.35,157.19c0,1.85-0.33,3.55-1,5.17c-0.67,1.62-1.71,3.17-3.21,4.69c-1.26,1.26-1.26,3.31,0,4.57
			c1.26,1.26,3.31,1.26,4.57,0c2.05-2.05,3.6-4.33,4.61-6.77c1.02-2.44,1.49-5.03,1.49-7.65c-0.01-5.02-1.7-10.1-4.49-15.14
			c-1.63-2.95-2.12-5.59-2.12-7.85c0-2.03,0.41-3.74,0.82-4.93c0.2-0.59,0.4-1.04,0.54-1.33c0.07-0.14,0.12-0.25,0.15-0.3l0.03-0.05
			l0.05-0.09l0.06-0.11c1.21-2.42,2.07-4.45,2.64-6.29c0.57-1.83,0.85-3.49,0.85-5.05c0-1.69-0.34-3.21-0.79-4.55
			c-0.45-1.35-0.99-2.56-1.52-3.89c-0.81-2-1.71-3.52-2.29-4.8c-0.59-1.3-0.89-2.27-0.9-3.57c0-1.44,0.43-3.49,2.01-6.66
			c0.8-1.59,0.15-3.53-1.44-4.33c-1.59-0.8-3.53-0.15-4.33,1.44h0c-1.86,3.72-2.69,6.77-2.69,9.54c-0.01,2.49,0.71,4.58,1.49,6.26
			c0.79,1.7,1.59,3.07,2.16,4.51c0.58,1.45,1.08,2.59,1.39,3.53c0.31,0.94,0.45,1.65,0.46,2.51c0,0.8-0.14,1.77-0.56,3.14
			c-0.42,1.35-1.13,3.08-2.22,5.26c-0.21,0.37-0.7,1.3-1.19,2.73c-0.59,1.71-1.17,4.12-1.17,7.03c-0.01,3.22,0.74,7.05,2.93,10.99
			C184.11,149.57,185.36,153.66,185.35,157.19z"/>
		<path class="st4" d="M230.69,150.12c1.26,1.26,3.31,1.26,4.57,0c2.05-2.05,3.6-4.33,4.61-6.77c1.02-2.44,1.49-5.03,1.49-7.65
			c-0.01-5.02-1.7-10.1-4.49-15.14c-1.63-2.95-2.12-5.59-2.12-7.85c0-2.03,0.41-3.74,0.82-4.93c0.2-0.59,0.4-1.04,0.54-1.33
			c0.07-0.14,0.12-0.25,0.15-0.3l0.03-0.05l0.05-0.09l0.06-0.11c1.21-2.42,2.07-4.45,2.64-6.29c0.57-1.83,0.85-3.49,0.85-5.05
			c0-1.69-0.34-3.21-0.79-4.55c-0.45-1.35-0.99-2.56-1.52-3.89c-0.81-2-1.71-3.52-2.29-4.8c-0.59-1.3-0.89-2.27-0.9-3.57
			c0-1.44,0.43-3.49,2.01-6.66c0.8-1.59,0.15-3.53-1.44-4.33c-1.59-0.8-3.53-0.15-4.33,1.44h0c-1.86,3.72-2.69,6.78-2.69,9.54
			c-0.01,2.49,0.71,4.58,1.49,6.26c0.79,1.7,1.59,3.07,2.16,4.51c0.58,1.45,1.08,2.59,1.39,3.53c0.31,0.94,0.45,1.65,0.46,2.51
			c0,0.8-0.14,1.77-0.56,3.14c-0.42,1.35-1.13,3.08-2.22,5.26c-0.21,0.37-0.7,1.3-1.19,2.73c-0.59,1.71-1.17,4.12-1.17,7.03
			c-0.01,3.22,0.74,7.05,2.93,10.99c2.44,4.39,3.69,8.48,3.68,12.01c0,1.85-0.33,3.55-1,5.17c-0.67,1.62-1.71,3.17-3.21,4.69
			C229.42,146.82,229.43,148.86,230.69,150.12z"/>
		<path class="st4" d="M289.11,169.34c0,1.85-0.33,3.55-1,5.17c-0.67,1.62-1.71,3.17-3.21,4.69c-1.26,1.26-1.26,3.31,0,4.57
			c1.26,1.26,3.31,1.26,4.57,0c2.05-2.05,3.6-4.33,4.61-6.77c1.02-2.44,1.49-5.03,1.49-7.65c-0.01-5.02-1.7-10.1-4.49-15.14
			c-1.63-2.95-2.12-5.59-2.12-7.85c0-2.03,0.41-3.74,0.82-4.93c0.2-0.59,0.4-1.04,0.54-1.33c0.07-0.14,0.12-0.25,0.15-0.3l0.03-0.05
			l0.05-0.09l0.06-0.11c1.21-2.42,2.07-4.45,2.64-6.29c0.57-1.83,0.85-3.49,0.85-5.05c0-1.69-0.34-3.21-0.79-4.55
			c-0.45-1.35-0.99-2.56-1.52-3.89c-0.81-2-1.71-3.52-2.29-4.8c-0.59-1.3-0.89-2.27-0.9-3.57c0-1.44,0.43-3.49,2.01-6.66
			c0.8-1.59,0.15-3.53-1.44-4.33c-1.59-0.8-3.53-0.15-4.33,1.44h0c-1.86,3.72-2.69,6.77-2.69,9.54c-0.01,2.49,0.71,4.58,1.49,6.26
			c0.79,1.7,1.59,3.07,2.16,4.51c0.58,1.45,1.08,2.59,1.39,3.53c0.31,0.94,0.45,1.65,0.46,2.51c0,0.8-0.14,1.77-0.56,3.14
			c-0.42,1.35-1.13,3.07-2.22,5.26c-0.21,0.37-0.7,1.3-1.19,2.73c-0.59,1.71-1.17,4.12-1.17,7.03c-0.01,3.22,0.74,7.05,2.93,10.99
			C287.88,161.72,289.12,165.81,289.11,169.34z"/>
	</g>
</g>
<g id="Layer_2">
</g>
</svg>
