<?xml version="1.0" encoding="UTF-8" standalone="no"?>
<svg xmlns:dc="http://purl.org/dc/elements/1.1/" xmlns:cc="http://creativecommons.org/ns#"
  xmlns:rdf="http://www.w3.org/1999/02/22-rdf-syntax-ns#" xmlns:svg="http://www.w3.org/2000/svg"
  xmlns="http://www.w3.org/2000/svg" xmlns:sodipodi="http://sodipodi.sourceforge.net/DTD/sodipodi-0.dtd"
  xmlns:inkscape="http://www.inkscape.org/namespaces/inkscape" version="1.1" id="Layer_1" x="0px" y="0px"
  viewBox="0 0 1406.9694 400.81846" xml:space="preserve" sodipodi:docname="eating-bao.svg"
  inkscape:version="1.0.1 (3bc2e813f5, 2020-09-07)">
  <metadata id="metadata85">
    <rdf:RDF>
      <cc:Work rdf:about="">
        <dc:format>image/svg+xml</dc:format>
        <dc:type rdf:resource="http://purl.org/dc/dcmitype/StillImage" />
        <dc:title></dc:title>
      </cc:Work>
    </rdf:RDF>
  </metadata>
  <defs id="defs83" />
  <sodipodi:namedview pagecolor="#ffffff" bordercolor="#666666" borderopacity="1" objecttolerance="10"
    gridtolerance="10" guidetolerance="10" inkscape:pageopacity="0" inkscape:pageshadow="2" inkscape:window-width="1920"
    inkscape:window-height="1014" id="namedview81" showgrid="false" inkscape:zoom="0.8351243" inkscape:cx="763.01822"
    inkscape:cy="370.23576" inkscape:window-x="0" inkscape:window-y="32" inkscape:window-maximized="1"
    inkscape:current-layer="layer3" />
  <style type="text/css" id="style2">
    .st0 {
      fill: #FFA300;
    }

    .st1 {
      fill: #FF9D00;
    }

    .st2 {
      fill: none;
      stroke: #E28D05;
      stroke-width: 2;
      stroke-miterlimit: 10;
    }

    .st3 {
      fill: #FFFFFF;
    }

    .st4 {
      fill: none;
      stroke: #FFA300;
      stroke-width: 33;
      stroke-miterlimit: 10;
    }

    .st5 {
      fill: #130B57;
    }

    .st6 {
      fill: #FFF9DE;
      stroke: #FFF9DE;
      stroke-width: 4.5;
      stroke-miterlimit: 10;
    }

    .st7 {
      fill: #D8C284;
    }

    .st8 {
      fill: #FFE98D;
    }

    .st9 {
      fill: #FF9100;
    }

    .st10 {
      fill: none;
      stroke: #EF7303;
      stroke-width: 2;
      stroke-miterlimit: 10;
    }

    .st11 {
      fill: #FFD617;
    }

    .st12 {
      fill: #FFE888;
    }

    .st13 {
      fill: #F9DB5D;
    }

    .st14 {
      fill: #FFF9DE;
    }

    .st15 {
      fill: #EF7303;
    }
  </style>



  <g inkscape:groupmode="layer" id="layer2" inkscape:label="Layer 2" transform="translate(4.2299843,-140.57521)">
    <g id="g34" transform="translate(-16.675183,109.08521)">
      <path class="st8"
        d="M 238.82,284.5 70.99,359.92 C 60.33,336.2 54.82,310.5 54.82,284.5 c 0,-100.94 83.06,-184 184,-184 100.94,0 184,83.06 184,184 z"
        id="path4" />
      <g id="g24">
        <path class="st9"
          d="M 339.95,307.61 H 176.06 l -6.23,-194.17 c 0,-45.26 36.69,-81.95 81.95,-81.95 45.26,0 81.95,36.69 81.95,81.95 z"
          id="path6" />
        <g id="g16">
          <line class="st10" x1="295.01001" y1="180.78" x2="284.92001" y2="180.78" id="line8" />
          <path class="st10" d="m 295.01,154.78 c 0,0 -11.47,0.76 -15.86,-4.38" id="path10" />
          <g id="g14">
            <path class="st3"
              d="m 295.01,181.76 v 0 c -4.69,0 -8.53,-3.84 -8.53,-8.53 v -10.78 c 0,-4.69 3.84,-8.53 8.53,-8.53 v 0 c 4.69,0 8.53,3.84 8.53,8.53 v 10.78 c 0.01,4.69 -3.83,8.53 -8.53,8.53 z"
              id="path12" />
          </g>
        </g>
        <g id="g22">
          <path class="st3"
            d="m 269.28,124.26 c -1.22,-4.45 -3.87,-8.3 -7.41,-11.04 -3.54,-2.74 -8.02,-4.38 -12.83,-4.38 -4.82,0 -9.3,1.64 -12.83,4.38 -3.54,2.74 -6.19,6.59 -7.41,11.05 -0.67,2.44 0.76,4.95 3.2,5.62 2.44,0.67 4.95,-0.76 5.62,-3.2 0.68,-2.5 2.18,-4.68 4.18,-6.23 2.01,-1.55 4.49,-2.46 7.24,-2.47 2.74,0 5.23,0.92 7.24,2.47 2.01,1.55 3.5,3.73 4.19,6.23 0.67,2.44 3.19,3.87 5.62,3.2 2.43,-0.67 3.86,-3.19 3.19,-5.63 z"
            id="path18" />
          <path class="st3"
            d="m 327.25,124.26 c -1.22,-4.46 -3.87,-8.3 -7.41,-11.04 -3.54,-2.74 -8.02,-4.38 -12.83,-4.38 -4.82,0 -9.3,1.64 -12.83,4.38 -3.54,2.74 -6.19,6.59 -7.41,11.04 -0.67,2.44 0.76,4.95 3.2,5.62 2.44,0.67 4.95,-0.76 5.62,-3.2 0.68,-2.5 2.18,-4.68 4.19,-6.23 2.01,-1.55 4.5,-2.47 7.24,-2.47 2.74,0 5.23,0.92 7.24,2.47 2.01,1.55 3.5,3.73 4.18,6.23 0.67,2.44 3.19,3.87 5.62,3.2 2.42,-0.66 3.85,-3.18 3.19,-5.62 z"
            id="path20" />
        </g>
      </g>
      <g id="g32">
        <path class="st11"
          d="m 354,215.25 15.45,-15.7 c 0.97,-0.98 0.96,-2.57 -0.03,-3.54 -0.98,-0.97 -2.57,-0.96 -3.54,0.03 l -15.45,15.7 c -0.97,0.98 -0.96,2.57 0.03,3.54 0.99,0.97 2.58,0.96 3.54,-0.03"
          id="path26" />
        <path class="st11"
          d="m 345.21,208.85 1.6,-15.59 c 0.14,-1.37 -0.86,-2.6 -2.23,-2.74 -1.37,-0.14 -2.6,0.86 -2.74,2.23 l -1.6,15.59 c -0.14,1.37 0.86,2.6 2.23,2.74 1.37,0.14 2.6,-0.86 2.74,-2.23"
          id="path28" />
        <path class="st11"
          d="m 364.95,219.36 -7.61,1.61 c -1.35,0.29 -2.21,1.61 -1.93,2.96 0.29,1.35 1.61,2.21 2.96,1.93 l 7.61,-1.61 c 1.35,-0.29 2.21,-1.61 1.93,-2.96 -0.28,-1.35 -1.61,-2.21 -2.96,-1.93"
          id="path30" />
      </g>
    </g>
  </g>
  <g inkscape:groupmode="layer" id="layer1" inkscape:label="Layer 1" transform="translate(4.2299843,-140.57521)">
    <path style="fill:#ffd618;stroke:#00ff83;stroke-width:0;stroke-linecap:square;stroke-linejoin:round" id="path1140"
      sodipodi:type="arc" sodipodi:cx="700.10767" sodipodi:cy="477.35208" sodipodi:rx="700.46991"
      sodipodi:ry="144.40308" sodipodi:start="3.1415927" sodipodi:end="0" sodipodi:arc-type="slice"
      d="M -0.36224365,477.35208 A 700.46991,144.40308 0 0 1 700.10767,332.94901 700.46991,144.40308 0 0 1 1400.5776,477.35208 H 700.10767 Z" />
  </g>
  <g inkscape:groupmode="layer" id="layer3" inkscape:label="Layer 3" transform="translate(4.2299843,-140.57521)">
    <g id="g78" transform="translate(-6.665183,101.17521)">
      <g id="g44">
        <ellipse class="st11" cx="336.76001" cy="286.89999" rx="78.75" ry="38" id="ellipse38" />
        <ellipse class="st12" cx="336.32001" cy="284.5" rx="78.75" ry="38" id="ellipse40" />
        <ellipse class="st13" cx="336.32001" cy="281.20001" rx="49.080002" ry="23.68" id="ellipse42" />
      </g>
      <g id="g54">
        <path class="st14"
          d="m 372.91,276.28 v 0 c -0.02,-0.1 -0.51,-4.05 -2.51,-8.42 -1,-2.18 -2.38,-4.48 -4.33,-6.42 -1.91,-1.91 -4.39,-3.47 -7.48,-4.13 -0.08,-0.05 -0.3,-0.2 -0.55,-0.4 -0.47,-0.37 -1.08,-0.89 -1.69,-1.35 -0.31,-0.23 -0.63,-0.45 -0.98,-0.65 -0.18,-0.1 -0.37,-0.19 -0.6,-0.27 -0.23,-0.08 -0.49,-0.15 -0.84,-0.15 -0.55,0.01 -0.9,0.17 -1.18,0.31 -0.49,0.26 -0.83,0.56 -1.19,0.87 -0.52,0.47 -1.02,0.98 -1.42,1.35 -0.19,0.18 -0.36,0.33 -0.46,0.4 -3.11,0.62 -5.59,2.2 -7.42,4.16 -2.84,3.02 -4.3,6.85 -5.11,9.93 -0.81,3.08 -0.95,5.42 -0.96,5.49 v 0 c -0.05,0.34 -0.08,0.67 -0.08,1 -0.01,1.39 0.45,2.67 1.19,3.67 1.11,1.5 2.71,2.41 4.36,3 1.66,0.58 3.4,0.83 4.97,0.83 h 15.82 c 1.1,0 2.25,-0.18 3.39,-0.5 1.71,-0.49 3.4,-1.3 4.77,-2.52 0.68,-0.61 1.28,-1.32 1.72,-2.16 0.44,-0.83 0.7,-1.8 0.7,-2.82 0.01,-0.4 -0.04,-0.81 -0.12,-1.22 z"
          id="path46" />
        <path class="st7"
          d="m 353.91,255.1 c 1.62,1.14 3,2.55 4.23,4.08 1.22,1.54 2.28,3.23 3.08,5.09 0.77,1.85 1.32,3.92 1.08,6.06 -0.12,1.06 -0.5,2.12 -1.11,2.99 -0.63,0.86 -1.46,1.52 -2.37,1.89 1.28,-1.54 1.82,-3.24 1.68,-4.95 -0.1,-1.71 -0.7,-3.42 -1.39,-5.1 -0.71,-1.68 -1.57,-3.33 -2.47,-4.99 -0.89,-1.66 -1.84,-3.32 -2.73,-5.07 z"
          id="path48" />
        <path class="st7"
          d="m 353.91,255.1 c 0.86,1.5 1.33,3.16 1.65,4.84 0.29,1.68 0.4,3.42 0.2,5.15 -0.2,1.73 -0.64,3.47 -1.49,5.04 -0.87,1.55 -2.14,2.91 -3.69,3.66 0.92,-1.47 1.57,-2.88 2.03,-4.36 0.45,-1.49 0.68,-3.02 0.87,-4.58 0.18,-1.56 0.24,-3.15 0.29,-4.77 0.05,-1.63 0.06,-3.27 0.14,-4.98 z"
          id="path50" />
        <path class="st7"
          d="m 353.88,255.85 c 0.54,0.8 0.73,1.73 0.74,2.65 0,0.92 -0.21,1.87 -0.64,2.73 -0.42,0.87 -1.11,1.62 -1.93,2.13 -0.81,0.53 -1.79,0.73 -2.73,0.63 0.58,-0.79 1.12,-1.33 1.52,-1.97 0.42,-0.61 0.78,-1.19 1.09,-1.82 0.32,-0.63 0.62,-1.29 0.92,-2.01 0.31,-0.73 0.62,-1.48 1.03,-2.34 z"
          id="path52" />
      </g>
      <path class="st9"
        d="m 176.19,195.88 -36.31,18.3 c -10.4,5.24 -18.69,13.18 -24.3,22.5 -5.62,9.32 -8.62,20.03 -8.63,30.99 0,9.06 2.08,18.31 6.42,26.91 5.17,10.26 13.01,18.52 22.3,24.17 9.29,5.66 20.05,8.75 31.14,8.75 5.13,0 10.33,-0.66 15.45,-2.03 l 96.28,-25.71 -7.22,-27.05 -96.28,25.71 c -2.75,0.73 -5.51,1.08 -8.23,1.08 -5.88,0 -11.63,-1.65 -16.58,-4.66 -4.96,-3.02 -9.09,-7.37 -11.86,-12.86 -2.34,-4.64 -3.42,-9.49 -3.42,-14.31 0,-5.81 1.61,-11.57 4.6,-16.53 3,-4.97 7.33,-9.13 12.93,-11.96 l 36.31,-18.3 z"
        id="path56" />
      <path class="st9"
        d="m 280.02,272.51 -4.87,2.42 c -0.95,0.48 -2.11,0.09 -2.59,-0.86 -0.46,-0.93 -0.11,-2.06 0.81,-2.55 l 4.65,-2.97 -4.82,-9.55 -9.53,4.8 c -11.41,5.75 -16,19.67 -10.25,31.08 5.75,11.41 19.67,16 31.08,10.25 l 9.53,-4.8 z"
        id="path58" />
      <path class="st9"
        d="m 314.56,271.9 c -5.56,-7.83 -16.41,-9.68 -24.25,-4.12 -1.77,1.26 -3.57,2.2 -5.37,2.93 -0.88,0.36 -1.76,0.64 -2.64,0.89 l 0.03,0.06 -5.03,2.07 c -0.94,0.39 -2,-0.02 -2.45,-0.92 -1.27,0.05 -2.31,0.01 -2.98,-0.04 -0.4,-0.03 -0.66,-0.06 -0.77,-0.07 l -0.05,-0.01 v 0 0.01 c -9.37,-1.48 -18.23,4.82 -19.85,14.2 -1.64,9.46 4.71,18.46 14.17,20.1 0.49,0.09 1.89,0.31 4.01,0.46 3.71,0.26 9.66,0.34 16.91,-1.06 3.62,-0.7 7.56,-1.79 11.66,-3.44 4.09,-1.65 8.34,-3.87 12.49,-6.82 7.83,-5.55 9.68,-16.41 4.12,-24.24 z"
        id="path60" />
      <polygon class="st5" points="263.06,277.16 342.68,221.6 343.99,223.16 266.44,281.41 " id="polygon62" />
      <path class="st14"
        d="m 353.15,241.52 v 0 c -0.02,-0.11 -0.57,-4.5 -2.78,-9.34 -1.11,-2.42 -2.64,-4.97 -4.8,-7.12 -2.11,-2.12 -4.87,-3.85 -8.29,-4.58 -0.08,-0.05 -0.34,-0.22 -0.62,-0.44 -0.53,-0.41 -1.19,-0.99 -1.88,-1.5 -0.35,-0.26 -0.69,-0.5 -1.09,-0.72 -0.2,-0.11 -0.41,-0.21 -0.66,-0.3 -0.25,-0.08 -0.55,-0.16 -0.93,-0.16 -0.61,0.01 -1,0.19 -1.31,0.35 -0.54,0.29 -0.92,0.62 -1.32,0.96 -0.58,0.52 -1.13,1.08 -1.57,1.5 -0.21,0.2 -0.4,0.36 -0.51,0.44 -3.45,0.69 -6.2,2.44 -8.24,4.61 -3.15,3.35 -4.77,7.61 -5.67,11.01 -0.9,3.41 -1.05,6.01 -1.06,6.1 h 0.01 c -0.05,0.37 -0.09,0.74 -0.09,1.1 -0.01,1.55 0.5,2.97 1.32,4.07 1.23,1.67 3.01,2.68 4.84,3.32 1.84,0.64 3.78,0.92 5.52,0.92 h 17.55 c 1.22,0 2.49,-0.19 3.76,-0.55 1.9,-0.54 3.77,-1.45 5.29,-2.79 0.76,-0.67 1.42,-1.47 1.91,-2.39 0.49,-0.93 0.78,-2 0.78,-3.13 -0.01,-0.45 -0.06,-0.91 -0.16,-1.36 z"
        id="path64" />
      <path class="st7"
        d="m 332.07,218.01 c 1.8,1.26 3.33,2.83 4.7,4.53 1.36,1.71 2.53,3.59 3.42,5.65 0.85,2.05 1.47,4.34 1.2,6.73 -0.14,1.18 -0.56,2.35 -1.23,3.32 -0.7,0.96 -1.62,1.68 -2.63,2.1 1.42,-1.71 2.01,-3.6 1.87,-5.49 -0.12,-1.9 -0.77,-3.79 -1.54,-5.65 -0.79,-1.86 -1.74,-3.7 -2.74,-5.54 -1,-1.86 -2.06,-3.7 -3.05,-5.65 z"
        id="path66" />
      <path class="st7"
        d="m 332.07,218.01 c 0.95,1.67 1.48,3.5 1.83,5.37 0.32,1.87 0.45,3.79 0.22,5.72 -0.22,1.92 -0.7,3.85 -1.65,5.59 -0.97,1.72 -2.37,3.23 -4.1,4.06 1.02,-1.64 1.75,-3.19 2.26,-4.84 0.5,-1.65 0.76,-3.35 0.96,-5.08 0.2,-1.73 0.26,-3.5 0.32,-5.29 0.06,-1.8 0.07,-3.62 0.16,-5.53 z"
        id="path68" />
      <path class="st7"
        d="m 332.04,218.85 c 0.6,0.89 0.81,1.92 0.82,2.94 0,1.02 -0.23,2.07 -0.71,3.03 -0.46,0.96 -1.23,1.8 -2.14,2.36 -0.9,0.59 -1.99,0.81 -3.02,0.7 0.65,-0.87 1.24,-1.48 1.69,-2.19 0.46,-0.67 0.86,-1.32 1.21,-2.02 0.35,-0.7 0.68,-1.43 1.02,-2.23 0.33,-0.8 0.67,-1.64 1.13,-2.59 z"
        id="path70" />
      <polygon class="st5" points="268.12,285.71 342.54,223.36 343.99,224.8 271.86,289.64 " id="polygon72" />
      <path class="st9"
        d="m 289.84,254.89 c -1.06,-0.18 -2.11,-0.25 -3.15,-0.25 -3.36,0.01 -6.54,0.77 -9.49,1.79 -4.42,1.55 -8.37,3.73 -11.3,5.53 -2.92,1.8 -4.81,3.24 -4.91,3.32 -2.42,1.85 -2.88,5.31 -1.03,7.73 1.85,2.42 5.31,2.88 7.73,1.03 v 0 0 c 0.08,-0.06 3.03,-2.28 6.94,-4.4 1.96,-1.07 4.17,-2.1 6.3,-2.83 2.13,-0.74 4.19,-1.15 5.77,-1.14 0.49,0 0.94,0.04 1.33,0.1 3,0.5 5.85,-1.53 6.35,-4.53 0.5,-3 -1.53,-5.85 -4.54,-6.35 z"
        id="path74" />
      <polyline class="st15" points="171.96,230.94 191.2,221.8 190.48,220.27 171.23,229.4  " id="polyline76" />
    </g>
    <rect style="fill:#ffd618;stroke:#00ff83;stroke-width:0;stroke-linecap:square;stroke-linejoin:round" id="rect1508"
      width="1406.9694" height="67.65995" x="-4.2299838" y="473.7337" />
  </g>
</svg>