<svg id="Layer_1" data-name="Layer 1" xmlns="http://www.w3.org/2000/svg" viewBox="0 0 67.58 43.95"><defs><style>.cls-1{fill:#ff4900;}</style></defs><title>Email</title><polygon class="cls-1" points="65.48 41.84 65.48 39.74 4.2 39.74 4.2 4.2 63.38 4.2 63.38 41.84 65.48 41.84 65.48 39.74 65.48 41.84 67.58 41.84 67.58 0 0 0 0 43.95 67.58 43.95 67.58 41.84 65.48 41.84"/><polygon class="cls-1" points="0.94 3.85 33.6 25.38 66.62 3.86 64.33 0.34 33.62 20.36 3.26 0.35 0.94 3.85 0.94 3.85"/><polyline class="cls-1" points="3.43 43.47 29.61 22.05 26.95 18.8 0.77 40.22"/><polyline class="cls-1" points="67.18 40.22 41 18.8 38.34 22.05 64.52 43.47"/></svg>