<svg id="Layer_1" data-name="Layer 1" xmlns="http://www.w3.org/2000/svg" viewBox="0 0 300 300"><defs><style>.cls-1{}</style></defs><title>WebIcons</title><path class="cls-1" d="M116.17,80.8A41.33,41.33,0,0,1,133,84.36a40.5,40.5,0,0,1,12.66,8.82l13.61,14,13.62-14a40.5,40.5,0,0,1,12.66-8.82,41.49,41.49,0,0,1,31-1.06,40.68,40.68,0,0,1,10,5.37l1.49,1.09,1.24,1.08a40.33,40.33,0,0,1,10.52,14.23,41.49,41.49,0,0,1,1.06,31,40.52,40.52,0,0,1-7.36,12.57l-69.28,66.68a7.27,7.27,0,0,1-2.33,1.5,7.19,7.19,0,0,1-5.32,0,7.4,7.4,0,0,1-2.34-1.51L85,148.64a40.71,40.71,0,0,1-7.36-12.57,41.49,41.49,0,0,1,1.06-31A40.84,40.84,0,0,1,102,83.3a41.09,41.09,0,0,1,14.16-2.5m86.24-19A60.55,60.55,0,0,0,177.87,67a59.71,59.71,0,0,0-18.58,12.93A59.71,59.71,0,0,0,140.71,67,60.49,60.49,0,0,0,95.5,65.45,59.89,59.89,0,0,0,61.35,97.37a60.49,60.49,0,0,0-1.54,45.21,59.61,59.61,0,0,0,11,18.72l.37.44L141.12,229a26.18,26.18,0,0,0,36.35,0l69.88-67.26.38-.44a60,60,0,0,0,14.69-39.39,60.55,60.55,0,0,0-5.19-24.54A59.55,59.55,0,0,0,241.8,76.5l-3.64-3.17h-.35a59.57,59.57,0,0,0-14.73-7.88A60.32,60.32,0,0,0,202.41,61.8Z"/></svg>