<?xml version="1.0" encoding="utf-8"?>
<!-- Generator: Adobe Illustrator 24.0.1, SVG Export Plug-In . SVG Version: 6.00 Build 0)  -->
<svg version="1.1" id="Layer_1" xmlns="http://www.w3.org/2000/svg" xmlns:xlink="http://www.w3.org/1999/xlink" x="0px" y="0px"
	 viewBox="0 0 233 181" style="enable-background:new 0 0 233 181;" xml:space="preserve">
<style type="text/css">
	.st0{fill:#FFD505;}
	.st1{fill:#FFFFFF;}
	.st2{fill:#FE4C00;}
</style>
<g>
	<path class="st0" d="M233,180.62h-95.01v-63.89c0-26.24,21.27-47.51,47.5-47.51S233,90.49,233,116.73V180.62z"/>
</g>
<g>
	<path class="st1" d="M180.12,100.21c-0.74-2.68-2.32-4.99-4.45-6.64c-2.13-1.65-4.82-2.63-7.71-2.63c-2.89,0-5.59,0.98-7.71,2.63
		c-2.13,1.65-3.72,3.96-4.45,6.64c-0.4,1.46,0.46,2.98,1.92,3.38c1.46,0.4,2.98-0.46,3.38-1.92c0.41-1.5,1.31-2.81,2.51-3.74
		c1.21-0.93,2.7-1.48,4.35-1.48c1.65,0,3.14,0.55,4.35,1.48c1.21,0.93,2.1,2.24,2.52,3.74c0.4,1.46,1.91,2.32,3.38,1.92
		C179.66,103.18,180.52,101.67,180.12,100.21L180.12,100.21z"/>
	<path class="st1" d="M214.95,100.21c-0.74-2.68-2.32-4.99-4.45-6.64c-2.13-1.65-4.82-2.63-7.71-2.63c-2.89,0-5.59,0.98-7.71,2.63
		c-2.13,1.65-3.72,3.96-4.45,6.64c-0.4,1.46,0.46,2.98,1.92,3.38c1.46,0.4,2.98-0.46,3.38-1.92c0.41-1.5,1.31-2.81,2.52-3.74
		c1.21-0.93,2.7-1.48,4.35-1.48c1.65,0,3.14,0.55,4.35,1.48c1.21,0.93,2.1,2.24,2.51,3.74c0.4,1.46,1.91,2.33,3.38,1.92
		C214.49,103.18,215.35,101.67,214.95,100.21L214.95,100.21z"/>
	<path class="st1" d="M213.29,114.59c-1.46-0.4-2.98,0.46-3.38,1.92h0c-0.63,2.3-1.6,4.46-2.82,6.46c-0.35-0.04-0.66-0.3-0.71-0.7
		c-1.3-11.68-13.27-9.37-15.68,1.32l-0.03,0.09c-1.63,4.48-2.82,10.41-7.52,11.31c-4.92-0.45-9.43-2.3-13.13-5.16
		c-4.28-3.31-7.47-7.96-8.94-13.32c-0.4-1.46-1.91-2.33-3.38-1.92c-1.46,0.4-2.33,1.91-1.92,3.38c1.79,6.53,5.67,12.19,10.88,16.21
		c5.2,4.03,11.75,6.43,18.83,6.43c7.08,0,13.63-2.4,18.83-6.42c5.2-4.02,9.09-9.68,10.88-16.21
		C215.61,116.51,214.75,115,213.29,114.59z"/>
</g>
<g>
	<path class="st2" d="M86.26,67.86H33.79c-18.68,0-33.83-15.15-33.83-33.83S15.11,0.2,33.79,0.2h52.47
		c18.68,0,33.83,15.15,33.83,33.83S104.94,67.86,86.26,67.86z"/>
</g>
<g>
	<path class="st2" d="M73.89,67.8c0,21.78,17.65,39.43,39.43,39.43h1.31v-4.16l-1.31,0c-9.75,0-18.55-3.94-24.94-10.33
		c-6.39-6.39-10.33-15.2-10.33-24.94H73.89L73.89,67.8z"/>
</g>
<g>
	<path class="st0" d="M14.57,22.04v-1.58h7.88v1.58l-2.89,0.23v10.3h14.65v-10.3l-2.89-0.23v-1.58h2.89h2.11h2.89v1.58l-2.89,0.23
		v22.17l2.89,0.23v1.56h-7.88v-1.56l2.89-0.23V34.37H19.56v10.07l2.89,0.23v1.56h-7.88v-1.56l2.89-0.23V22.27L14.57,22.04z"/>
	<path class="st0" d="M50.67,46.6c-2.41,0-4.4-0.88-5.98-2.64c-1.59-1.76-2.38-4.01-2.38-6.73v-0.97c0-2.74,0.79-5.01,2.37-6.81
		c1.58-1.81,3.48-2.71,5.71-2.71c2.35,0,4.19,0.74,5.54,2.23c1.34,1.49,2.01,3.47,2.01,5.95v1.81H44.42v0.51
		c0,2.15,0.57,3.95,1.72,5.4c1.15,1.46,2.66,2.19,4.53,2.19c1.3,0,2.43-0.18,3.36-0.55c0.93-0.37,1.73-0.89,2.39-1.58l0.9,1.45
		c-0.72,0.76-1.63,1.36-2.73,1.8C53.5,46.38,52.19,46.6,50.67,46.6z M50.38,28.53c-1.55,0-2.87,0.6-3.94,1.8
		c-1.07,1.2-1.69,2.7-1.87,4.5l0.03,0.09h11.22v-0.53c0-1.66-0.49-3.06-1.47-4.18C53.39,29.09,52.06,28.53,50.38,28.53z"/>
	<path class="st0" d="M61.31,20.2v-1.58h4.99v25.82l2.88,0.23v1.56h-7.87v-1.56l2.89-0.23V20.43L61.31,20.2z"/>
	<path class="st0" d="M72.1,20.2v-1.58h4.99v25.82l2.88,0.23v1.56H72.1v-1.56l2.89-0.23V20.43L72.1,20.2z"/>
	<path class="st0" d="M82.96,36.37c0-2.82,0.77-5.13,2.32-6.94c1.55-1.81,3.59-2.71,6.14-2.71c2.56,0,4.61,0.9,6.16,2.71
		c1.54,1.81,2.32,4.12,2.32,6.94v0.58c0,2.83-0.77,5.14-2.31,6.94c-1.54,1.8-3.58,2.7-6.13,2.7c-2.57,0-4.63-0.9-6.18-2.7
		c-1.54-1.8-2.32-4.11-2.32-6.94V36.37z M85.09,36.95c0,2.22,0.56,4.08,1.68,5.59s2.68,2.27,4.69,2.27c1.97,0,3.52-0.76,4.64-2.27
		c1.12-1.51,1.68-3.37,1.68-5.59v-0.58c0-2.18-0.57-4.04-1.69-5.56c-1.13-1.52-2.68-2.28-4.66-2.28s-3.53,0.76-4.66,2.28
		c-1.12,1.52-1.68,3.37-1.68,5.56V36.95z"/>
	<path class="st0" d="M106.62,46.23h-2.42v-2.9h2.42V46.23z"/>
</g>
</svg>
