<svg id="Layer_1" data-name="Layer 1" xmlns="http://www.w3.org/2000/svg" xmlns:xlink="http://www.w3.org/1999/xlink" viewBox="0 0 1246 417.1">
     <style>
 


#aa{
    animation-name: sdiamondOpacity;
    animation-duration: 6s;
    animation-iteration-count: 1;
    animation-direction: alternate;
}
@keyframes sdiamondOpacity {
    0%   { opacity: 0; transform: translateY(10px); }
    30%   { opacity: 0; transform: translateY(10px); }
    31%  { opacity: 1;transform: translateX(0px); }
    100% { opacity: 1; }
}
#chef{ animation: ch .6s linear forwards;
transform-origin: bottom ;
transform-box: fill-box;

}
@keyframes ch{

    0%{ transform:translateX(0) ;}
    30%{ transform: translateX(50px) ;}
    70%{ transform:translateX(50px) rotateZ(15deg);}
    100%{ transform:translateX(50px) rotateZ(15deg);}

}
#sir{ animation: h 1.5s ease-in-out forwards;
    transform-origin: bottom ;
    transform-box: fill-box;
    
    }
    @keyframes h{
    
      
        0%{ transform: rotateZ(0deg);}
        50%{ transform: rotateZ(-5deg);}
        100%{ transform: rotateZ(-5deg);}
    
}
#hand{ animation: hd 1s linear forwards;
        transform-origin: 2%  82%  ;
        
        transform-box: fill-box;
        
        }
        @keyframes hd {
        
          
            0%{ transform: rotateZ(55deg);}
            50%{ transform: rotateZ(-5deg);}
            100%{ transform: rotateZ(-5deg);}
        
}
#thumb{ animation: td 1s linear forwards;
    transform-origin: 2%  82%  ;
    
    transform-box: fill-box;
    
    }
    @keyframes td {
    
      
        0%{ transform: rotateZ(55deg);}
        50%{ transform: rotateZ(-5deg);}
        100%{ transform: rotateZ(-5deg);}
    
}

#face2{ animation: h2 1.5s ease-in-out forwards;
    transform-origin: bottom ;
    transform-box: fill-box;
    
    }
    @keyframes h2 {
    
      
        0%{ transform: rotateZ(0deg);}
        50%{ transform: rotateZ(-3deg);}
        100%{ transform: rotateZ(-3deg);}
    
}

  </style>
  
  <defs>
    <clipPath id="clip-path" transform="translate(0 0)">
      <path d="M687.7,427.5,611.3,134.2c-9.5-38.6,0-77.5,26.1-100.6,16.4-14.6,35-19.1,45.7-20.7Q788-12.75,892.6-38.2l44.8,147.9,49.5,190L998.7,345l-311,82.5h0L611.3,134.2c-9.5-38.6,0-77.5,26.1-100.6,16.4-14.6,35-19.1,45.7-20.7" style="fill: none"/>
    </clipPath>
  </defs>
  <rect x="76" y="276" width="1085" height="140" style="fill: #ffeec4"/>
  <path d="M110.1,0H1126.8A34.16,34.16,0,0,1,1161,34.1h0V279c-337.9,1.5-701.9,1.3-1085,0V34.1A34.14,34.14,0,0,1,110.1,0Z" transform="translate(0 0)" style="fill: #ffdb94"/>
  <path d="M1005.7,254.7H975.4a4.76,4.76,0,0,0-.86,9.48h31.16a4.85,4.85,0,0,0,5-4.5,4.77,4.77,0,0,0-4.5-5h-.5" transform="translate(0 0)" style="fill: #ffc873"/>
  <path d="M987.4,338H957.1a4.76,4.76,0,0,0,0,9.5h30.3a4.76,4.76,0,0,0,0-9.5" transform="translate(0 0)" style="fill: #ffd57b"/>
  <path d="M987.4,237H957.1a4.76,4.76,0,0,0,0,9.5h30.3a4.76,4.76,0,0,0,0-9.5" transform="translate(0 0)" style="fill: #ffc873"/>
  <path d="M972.3,413.1H758.1V107.6c0-58,43.7-104.3,97.5-104.3h19.2c53.8,0,97.5,48.1,97.5,104.3Z" transform="translate(0 0)" style="fill: #ffeec4;stroke: #ffd400;stroke-miterlimit: 10;stroke-width: 3px"/>
    <g style="clip-path: url(#clip-path)">
  <g id="chef">
      <g id="chef-2">
        <path d="M719.1,175.2l42.3-4.7a47.26,47.26,0,0,0,41.7-52.1l-5.7-51.1L776,69.7l5.7,51.1A25.5,25.5,0,0,1,759.3,149h-.1l-42.3,4.7Z" transform="translate(0 0)" style="fill: #ff7d37"/>
        <path d="M719.5,178.2l42.3-4.7A50.38,50.38,0,0,0,806.3,118l-2.5-22.3-27.6,3.1,2.5,22.4A22.36,22.36,0,0,1,759.1,146h-.3l-42.3,4.7Z" transform="translate(0 0)" style="fill: #fff8da"/>
        <polyline points="679 272.5 695.8 408.1 711.4 406.1 694.5 270.6" style="fill: #ff7d37"/>
        <path d="M710.1,273.7l.5-3.9-.5,3.9h0l.5-4-.5,4h.3a77.92,77.92,0,0,1,20.4,7.3,80.76,80.76,0,0,1,15.7,10.7,78.47,78.47,0,0,1,14.9,17.5,50.54,50.54,0,0,1,5.6,13.4,75.51,75.51,0,0,1,2.1,23.2,144.64,144.64,0,0,1-5.4,32c-1.2,4.2-2.4,7.8-3.2,10.1-.4,1.2-.8,2.2-1,2.8l-.2.7-.1.1h0l2.8,1.1-2.8-1.1h0l2.8,1.1-2.8-1.1h0l6.8,2.9-6.8-2.9h0l6.8,2.9-6.8-2.9,14.4,6a167,167,0,0,0,7.8-25.8,142.71,142.71,0,0,0,3.4-25.2,90.07,90.07,0,0,0-2.6-27.8,64.44,64.44,0,0,0-7.5-17.7,90.4,90.4,0,0,0-19.5-22.4,92.73,92.73,0,0,0-29-16.5,76.27,76.27,0,0,0-14-3.8l-2.1,15.4Z" transform="translate(0 0)" style="fill: #ff7d37"/>
        <path d="M709.2,276.3l1.9-10.1-1.9,10.1h0l1.9-10.1-1.9,10.1h0l.9-4.7-.9,4.7h0l.9-4.7-.9,4.7h0a71.74,71.74,0,0,1,18,6.9,95.06,95.06,0,0,1,16.1,10.6,85.8,85.8,0,0,1,16.1,17.4,39.73,39.73,0,0,1,6.1,13.4,51,51,0,0,1,1.6,12.3,97.76,97.76,0,0,1-1.3,18c-.4,2.8-1,5.4-1.5,7.7s-1,4.5-1.4,6.5l20.6,4.4c.5-2.2,1.2-5.4,1.9-9.2A127.25,127.25,0,0,0,788,344a82.18,82.18,0,0,0-2.3-24.7,62.5,62.5,0,0,0-9.2-20.1,110.53,110.53,0,0,0-20.6-22,112.68,112.68,0,0,0-29-17,85.49,85.49,0,0,0-13.8-4.3Z" transform="translate(0 0)" style="fill: #193441"/>
        <polyline points="677.2 279.5 690.1 383.5 711 380.9 698 277" style="fill: #193441"/>
        <path d="M726.8,411.8l-29.5,3.7a1.29,1.29,0,0,1-1.49-1.05v-.05h0l-1.3-10.7L716,401a10.78,10.78,0,0,1,12,9.4h0A1.31,1.31,0,0,1,726.8,411.8Z" transform="translate(0 0)" style="fill: #193441"/>
        <g id="sir">
          <path d="M706,25.5a6.92,6.92,0,0,0-5.4,7.5l.4,4,.1,1.3v.1l.4,4h0l.1,1.3.4,4,1.2,11.5.6,5.4a5.64,5.64,0,0,1-11.2,1.3l-.6-5.4L690.9,49l-.4-4-.1-1.3h0l-.4-4-.1-.2-.1-1.2-.5-4.2a6.55,6.55,0,0,0-7.21-5.81H682a6.55,6.55,0,0,0-5.81,7.21v.09l.5,4.2.1,1.2.1.2.4,3.8.1.2.1,1.3.4,3.9L679,62l.5,5.2a5.78,5.78,0,0,1-4.1,6.2,5.65,5.65,0,0,1-6.9-4h0a1.4,1.4,0,0,1-.1-.9l-.6-5.4-1.2-11.5-.4-4-.1-1.3h0l-.4-4h0l-.1-1.3-.4-4a6.75,6.75,0,0,0-6.3-6.1,6.58,6.58,0,0,0-7,6.13h0V38.2l.5,4.2.1,1.2.1.2.4,3.9.1.2.1,1.4.4,3.9,1.3,11.7.5,5.2a5.78,5.78,0,0,1-4.1,6.2,5.65,5.65,0,0,1-6.9-4h0a1.4,1.4,0,0,1-.1-.9l-.6-5.4-1.2-11.5-.4-4-.2-1.4h0l-.4-4h0l-.1-1.3-.4-4a6.84,6.84,0,0,0-6.3-6.1A6.6,6.6,0,0,0,627.8,40h0a3.37,3.37,0,0,0,.1,1l.5,4.2.1,1.2.5,4.2,1.9,16.9.6,5.4,3.9,35.8h0l.6,5.4a35.49,35.49,0,0,0,39,31.3h0l16.2-1.8a35.49,35.49,0,0,0,31.3-39l-.6-5.4L718,63.4l-.6-5.4-1.8-17-.5-4.2-.1-1.2-.5-4.2a6.58,6.58,0,0,0-7.27-5.81h-.13Z" transform="translate(0 0)" style="fill: #ff7d37"/>
          <rect x="666.81" y="136.15" width="31.7" height="18" transform="translate(-11.84 76.15) rotate(-6.33)" style="fill: #ff7d37"/>
          <path d="M652.5,102.4a5.63,5.63,0,0,1,11.2-1.2,2.36,2.36,0,1,0,4.7-.5h0v-.1a7.67,7.67,0,0,0-.3-1.5,10.39,10.39,0,0,0-11.2-7.6,7.67,7.67,0,0,0-1.5.3,10.39,10.39,0,0,0-7.6,11.2,2.37,2.37,0,0,0,2.6,2.1,2.33,2.33,0,0,0,2.12-2.52A1.1,1.1,0,0,0,652.5,102.4Z" transform="translate(0 0)" style="fill: #681800"/>
          <path d="M685.1,98.8a5.64,5.64,0,0,1,11.2-1.4.35.35,0,0,0,.1.2,2.36,2.36,0,0,0,4.7-.5h0a7.67,7.67,0,0,0-.3-1.5A10.39,10.39,0,0,0,689.6,88a7.67,7.67,0,0,0-1.5.3,10.39,10.39,0,0,0-7.6,11.2,2.47,2.47,0,0,0,2.8,2A2.82,2.82,0,0,0,685.1,98.8Z" transform="translate(0 0)" style="fill: #681800"/>
          <path d="M655.7,117.2a21.26,21.26,0,0,0,38.9-4.4Z" transform="translate(0 0)" style="fill: #681800"/>
          <path d="M674,121.6l17.1-1.9a21.25,21.25,0,0,1-22.1,7.6A5.63,5.63,0,0,1,674,121.6Z" transform="translate(0 0)" style="fill: #fc4c01"/>
          <path d="M652,121.6h0a2.38,2.38,0,0,0-1.6,2.9,2.48,2.48,0,0,0,3,1.6,8,8,0,0,0,5.5-5.6,3.75,3.75,0,0,0,.2-1.1h0a7.52,7.52,0,0,0-.9-4.6,8.46,8.46,0,0,0-3.2-3.3h0a2.35,2.35,0,1,0-2.3,4.1,3.09,3.09,0,0,1,1.7,3.1h0a.87.87,0,0,0-.1.5,3.49,3.49,0,0,1-2.3,2.4Z" transform="translate(0 0)" style="fill: #681800"/>
          <path d="M699.5,117.6a3.16,3.16,0,0,1-2.3-2.3.87.87,0,0,1-.1-.5h0a3.09,3.09,0,0,1,1.7-3.1,2.35,2.35,0,0,0-2.3-4.1h0a8.46,8.46,0,0,0-3.2,3.3,7.37,7.37,0,0,0-.9,4.6h0a3.75,3.75,0,0,0,.2,1.1,8,8,0,0,0,5.5,5.6,2.4,2.4,0,0,0,1.4-4.6Z" transform="translate(0 0)" style="fill: #681800"/>
          <path d="M682.2,144.7a61.34,61.34,0,0,0,12.8-1.6,30.2,30.2,0,0,0,3.2-1.1c.2-.1.2-.3.2-.5s-.3-.2-.5-.2h0a18.68,18.68,0,0,1-3.1,1,59.56,59.56,0,0,1-8.5,1.3c-1.2.1-2.3.2-3.1.2H682c-.2.1-.4.2-.3.3h0C682,144.5,682.1,144.7,682.2,144.7Z" transform="translate(0 0)" style="fill: #681800"/>
        </g>
        <rect x="650.1" y="153.47" width="82.6" height="101.7" transform="translate(-18.31 77.48) rotate(-6.33)" style="fill: #fff8da"/>
        <polyline points="708.5 151.1 721.9 259.2 730.3 258.1 717 150.1" style="fill: #507591"/>
        <polyline points="652.9 157.1 666.3 265.2 674.8 264.1 661.4 156" style="fill: #507591"/>
        <path d="M737.9,250l-82,9.5,2.1,16c1.5,11.9,11.2,20.8,21.5,19.9l45.1-4c14.2-1.4,17.4-11.3,15.9-23.1Z" transform="translate(0 0)" style="fill: #193441"/>
        <path d="M802,76.6,780.3,79a3.41,3.41,0,0,1-3.79-3v0h0l-.5-4.4a7.86,7.86,0,0,1,6.9-8.7h.1L808.9,60a3.41,3.41,0,0,1,3.79,3v0h0l.1.2a12.09,12.09,0,0,1-10.64,13.38Z" transform="translate(0 0)" style="fill: #ff7d37"/>
        <path d="M785.3,58.3l-21.5,2.4a9,9,0,0,1,7.88-10h.12l3.5-.4a9,9,0,0,1,10,7.87h0Z" transform="translate(0 0)" style="fill: #f7d999"/>
        <path d="M783.6,58.5l-.1-.3-17.7,2v-.4a6.34,6.34,0,0,1,4.6-6.8,1.4,1.4,0,0,1,.9-.1l4.8-.5a6.34,6.34,0,0,1,6.8,4.6,1.4,1.4,0,0,1,.1.9V58l.1.7.5-.2h0l.3-.1-.1-.8h0a7.18,7.18,0,0,0-7.7-6.2l-4.8.5a7.18,7.18,0,0,0-6.2,7.7l.1.8.1.3L784,58.6l-.1-.3Z" transform="translate(0 0)" style="fill: #e8b75a"/>
        <path d="M780.9,52a2.92,2.92,0,1,1-3.21-2.6h0A3.15,3.15,0,0,1,780.9,52Z" transform="translate(0 0)" style="fill: #8e1b00"/>
        <path d="M781.3,58.8l-13.4,1.5-.1-1a4.64,4.64,0,0,1,4-5h0l4.5-.5a4.64,4.64,0,0,1,5,4h0Z" transform="translate(0 0)" style="fill: #f7d999"/>
        <path d="M781.3,58.8l-.1-.3L768,60l-.1-.7a4.14,4.14,0,0,1,3.1-4.5l.6-.2,4.5-.5a4.06,4.06,0,0,1,4.5,3.57h0v.13l.1,1,.3-.1h0l.3.1v-1c-.1-.2-.1-.5-.2-.7a5,5,0,0,0-5.3-3.6l-4.5.5-.7.2a5,5,0,0,0-3.6,5.2l.2,1.4,14.3-1.5-.1-.3Z" transform="translate(0 0)" style="fill: #e8b75a"/>
        <path d="M816.5,54.1l-37.3,4.1-.1-.6a11.94,11.94,0,0,1,10.54-13.19h.06L803,42.9a12,12,0,0,1,13.29,10.55h0Z" transform="translate(0 0)" style="fill: #f7d999"/>
        <path d="M813.8,54.4l-.1-.3-32.3,3.6.1.3.3-.1a10.39,10.39,0,0,1,7.6-11.2,7.67,7.67,0,0,1,1.5-.3l11-1.2A10.33,10.33,0,0,1,813,53a7.67,7.67,0,0,1,.3,1.5l.3-.1h0l.3-.1a8.68,8.68,0,0,0-.3-1.6,11,11,0,0,0-11.8-8.2l-11,1.2a8.68,8.68,0,0,0-1.6.3A11,11,0,0,0,781,57.8l.1.3,33-3.6-.1-.3Z" transform="translate(0 0)" style="fill: #e8b75a"/>
        <path d="M809.1,46a2.92,2.92,0,0,1-5.8.6,2.82,2.82,0,0,1,2.49-3.1h0A3,3,0,0,1,809.1,46Z" transform="translate(0 0)" style="fill: #8e1b00"/>
        <path d="M811.3,54.7l-27.3,3v-.5a7.71,7.71,0,0,1,6.73-8.58h.17l11.7-1.3A7.71,7.71,0,0,1,811.18,54v.17h0Z" transform="translate(0 0)" style="fill: #f7d999"/>
        <path d="M811.3,54.7l-.1-.3-26.9,3v-.1a7.63,7.63,0,0,1,5.5-8.1,4.63,4.63,0,0,1,1.1-.2l11.7-1.3a7.63,7.63,0,0,1,8.1,5.5,4.63,4.63,0,0,1,.2,1.1v.5l.4-.1.3-.1v-.5a4.86,4.86,0,0,0-.2-1.2,8.17,8.17,0,0,0-8.8-6.1L791,48.2a4.86,4.86,0,0,0-1.2.2,8.17,8.17,0,0,0-6.1,8.8v.5l.1.3,27.9-3.1-.1-.3Z" transform="translate(0 0)" style="fill: #e8b75a"/>
        <path d="M807.7,55.1l-.1-.3L787.8,57l-.1-.7a4.45,4.45,0,0,1,3.4-4.9l.7-.2L802.2,50a4.45,4.45,0,0,1,4.9,3.4,5.6,5.6,0,0,1,.2.7l.1,1h.3l-.1-.4.1.4.3-.2-.1-1c-.1-.3,0-.5-.1-.8a5.26,5.26,0,0,0-5.7-3.9l-10.4,1.3a2,2,0,0,1-.8.1,5.26,5.26,0,0,0-3.9,5.7l.2,1.4L808,55.4l-.1-.3Z" transform="translate(0 0)" style="fill: #e8b75a"/>
        <path d="M798.8,44.3a2.82,2.82,0,1,1-3.11-2.5h0A2.86,2.86,0,0,1,798.8,44.3Z" transform="translate(0 0)" style="fill: #8e1b00"/>
        <path d="M825.3,55.8l-71.2,7.9a6.23,6.23,0,0,1-6.8-5.4l83.4-9.2A6.21,6.21,0,0,1,825.3,55.8Z" transform="translate(0 0)" style="fill: #fff8da"/>
        <path d="M851.7,55.3,735.6,68.2a4.29,4.29,0,0,1-4.79-3.7v-.1h0L855.4,50.5a4.15,4.15,0,0,1-3.4,4.76Z" transform="translate(0 0)" style="fill: #0a293c"/>
        <path d="M778.2,383.9l-6.4,1.7,3.1,11.8,17.4-4.5a1.46,1.46,0,0,0,1.23-1.66h0v-.14C792.2,385.2,785.3,382.1,778.2,383.9Z" transform="translate(0 0)" style="fill: #193441"/>
        <path d="M771.9,385.6l-10.1-3.7-3.6,10.5a1.91,1.91,0,0,0,1.1,2.3h0l10.1,3.6a3.41,3.41,0,0,0,2,.1l4.4-1.1C776,397.1,777.8,387.7,771.9,385.6Z" transform="translate(0 0)" style="fill: #193441"/>
        <path d="M680.7,158.3l-.5-4.2a3,3,0,0,1,2.56-3.38h.14l1.1-.1a3,3,0,0,1,3.38,2.56v.14l.5,4.2a3,3,0,0,1-2.56,3.38h-.14l-1.1.1a3,3,0,0,1-3.38-2.56Z" transform="translate(0 0)" style="fill: #193441"/>
        <path d="M681.6,154.1l-10-4.3a2.87,2.87,0,0,0-3.78,1.44h0v.05a2.66,2.66,0,0,0-.2,1.5l1.3,10.8a3,3,0,0,0,3.3,2.6h0a2.49,2.49,0,0,0,1.4-.6l8.7-6.5a3,3,0,0,0,.6-4.1A4.42,4.42,0,0,0,681.6,154.1Z" transform="translate(0 0)" style="fill: #193441"/>
        <path d="M685.7,153.6l8.8-6.4a2.9,2.9,0,0,1,4.06.55v.05a3.63,3.63,0,0,1,.6,1.4l1.3,10.8a3.07,3.07,0,0,1-2.6,3.3,4,4,0,0,1-1.5-.2l-10-4.3a2.9,2.9,0,0,1-1.61-3.77v0h0A2.49,2.49,0,0,1,685.7,153.6Z" transform="translate(0 0)" style="fill: #193441"/>
      </g>
    </g>
  </g>
  <path d="M1045.5,299.9h-30.4a4.76,4.76,0,0,0,0,9.5h30.4a4.76,4.76,0,0,0,0-9.5" transform="translate(0 0)" style="fill: #ffd57b"/>
  <path d="M401.7,367.3H371.4a4.76,4.76,0,0,0,0,9.5h30.3a4.85,4.85,0,0,0,5-4.5,4.78,4.78,0,0,0-4.5-5h-.5" transform="translate(0 0)" style="fill: #ffd57b"/>
  <path d="M418.7,347.5H388.3a4.76,4.76,0,0,0,0,9.5h30.4a4.76,4.76,0,0,0,0-9.5" transform="translate(0 0)" style="fill: #ffd57b"/>
  <path d="M681.2.1C745.7.4,792.5.6,801,.6a33.33,33.33,0,0,1,5.9.5,40.42,40.42,0,0,1,15.8,6.5,113.84,113.84,0,0,0-29.2,19.8c-1.1,1.1-16.5,15.6-25,34.2a125,125,0,0,0-6.8,19.7c-.5,2.1-.8,3.8-1,5-2.2,44.5-2.9,78.4-3.1,100.7-.2,24.5,0,51.5.1,60.5.1,13.1.3,24.2.4,32.6q-73.65-.15-147.3-.2V244.5a312.55,312.55,0,0,0,6-38c4.7-50.4-4.2-93.3-13.9-124,1.1-15.2,5.4-40.2,22.5-63.8A112.07,112.07,0,0,1,638.5,3.6C652.8,2.5,667,1.3,681.2.1Z" transform="translate(0 0)" style="fill: #ffdb94"/>
  <path d="M321.3,386.3H290.9a4.76,4.76,0,0,0,0,9.5h30.4a4.76,4.76,0,0,0,0-9.5" transform="translate(0 0)" style="fill: #ffd57b"/>
  <path d="M257,320.4H226.7a4.85,4.85,0,0,0-5,4.5,4.78,4.78,0,0,0,4.5,5H257a4.85,4.85,0,0,0,5-4.5,4.77,4.77,0,0,0-4.5-5H257" transform="translate(0 0)" style="fill: #ffd57b"/>
  <path d="M278.4,340.6H248a4.76,4.76,0,0,0,0,9.5h30.4a4.76,4.76,0,0,0,0-9.5" transform="translate(0 0)" style="fill: #ffd57b"/>
  <path d="M348.9,367.3H318.5a4.76,4.76,0,0,0,0,9.5h30.4a4.76,4.76,0,0,0,0-9.5" transform="translate(0 0)" style="fill: #ffd57b"/>
  <path d="M307.7,320.4H277.3a4.76,4.76,0,0,0,0,9.5h30.4a4.76,4.76,0,0,0,0-9.5" transform="translate(0 0)" style="fill: #ffd57b"/>
  <path d="M587.4,297.2l23.5-17.1q73.65.15,147.3.2,0,32.79-.05,65.56,0,33-.13,66.09L584.6,411.5Z" transform="translate(0 0)" style="fill: #ffeec4"/>
  <path d="M713,307.6H682.7a4.76,4.76,0,0,0,0,9.5H713a4.76,4.76,0,0,0,0-9.5" transform="translate(0 0)" style="fill: #ffd57b"/>
  <path d="M734.3,327.9H704a4.76,4.76,0,0,0-.5,9.5h30.8a4.76,4.76,0,0,0,.86-9.48h-.86" transform="translate(0 0)" style="fill: #ffd57b"/>
  <path d="M720.3,346.3H690a4.76,4.76,0,0,0-.5,9.5h30.8a4.76,4.76,0,0,0,.86-9.48h-.86" transform="translate(0 0)" style="fill: #ffd57b"/>
  <path d="M1037,237h-30.3a4.85,4.85,0,0,0-5,4.5,4.78,4.78,0,0,0,4.5,5H1037a4.85,4.85,0,0,0,5-4.5,4.77,4.77,0,0,0-4.5-5h-.5" transform="translate(0 0)" style="fill: #ffc873"/>
  <path d="M750,256.8H719.7a4.76,4.76,0,0,0-.5,9.5H750a4.76,4.76,0,0,0,1-9.47h-1" transform="translate(0 0)" style="fill: #ffc873"/>
  <path d="M220.7,210.3H190.3a4.76,4.76,0,0,0,0,9.5h30.4a4.76,4.76,0,0,0,0-9.5" transform="translate(0 0)" style="fill: #ffc873"/>
  <path d="M206.7,224.3H176.3a4.76,4.76,0,0,0,0,9.5h30.4a4.76,4.76,0,0,0,0-9.5" transform="translate(0 0)" style="fill: #ffc873"/>
  <path d="M274.7,158.3H244.3a4.76,4.76,0,0,0,0,9.5h30.4a4.76,4.76,0,0,0,0-9.5" transform="translate(0 0)" style="fill: #ffc873"/>
  <path d="M708.6,236.3H678.3a4.76,4.76,0,0,0,0,9.5h30.3a4.76,4.76,0,0,0,1-9.47h-1" transform="translate(0 0)" style="fill: #ffc873"/>
  <path d="M763.1,413.1V110a140.15,140.15,0,0,1,14.2-50.8c4.4-8.8,10.3-20.2,22.4-30,5-4,13.5-8.8,15.3-9.8,6.7-3.8,9.6-5,11.3-5.6,3.4-1.2,6.4-1.8,12.4-3A93.93,93.93,0,0,1,849.5,9c2.6-.2,4.2-.2,11.5-.3,3.7,0,6.7-.1,8.5-.1" transform="translate(0 0)" style="fill: none;stroke: #ffeec4;stroke-linecap: round;stroke-miterlimit: 10;stroke-width: 8px"/>
  <path d="M637.5,264H285.9c-14.4,0-26.1-10.4-26.1-23.3V22H663.6V240.7c0,12.9-11.7,23.3-26.1,23.3" transform="translate(0 0)" style="fill: #ffeec4"/>
  <polygon points="337.3 55.1 291.5 55.1 259 22 304.8 22 337.3 55.1" style="fill: #ffc990"/>
  <polygon points="383.1 55.1 337.3 55.1 304.8 22 350.6 22 383.1 55.1" style="fill: #ff9300"/>
  <polygon points="428.6 55.1 382.8 55.1 350.3 22 396.1 22 428.6 55.1" style="fill: #ffc990"/>
  <polygon points="474.4 55.1 428.6 55.1 396.1 22 441.9 22 474.4 55.1" style="fill: #ff9300"/>
  <polygon points="520.4 55.1 474.6 55.1 442.1 22 487.9 22 520.4 55.1" style="fill: #ffc990"/>
  <polygon points="566.2 55.1 520.4 55.1 487.9 22 533.7 22 566.2 55.1" style="fill: #ff9300"/>
  <polygon points="611.7 55.1 565.9 55.1 533.4 22 579.2 22 611.7 55.1" style="fill: #ffc990"/>
  <polygon points="657.5 55.1 611.7 55.1 579.2 22 625 22 657.5 55.1" style="fill: #ff9300"/>
  <path d="M759.1,413.1V110a118.68,118.68,0,0,1,15.5-57.1c5.4-9.3,14.9-25.4,34.6-37.1A92.26,92.26,0,0,1,861.1,3.3" transform="translate(0 0)" style="fill: none;stroke: #ffd400;stroke-miterlimit: 10;stroke-width: 3px"/>
  <path d="M324.4,74.6H304.5a12.93,12.93,0,0,1-12.9-12.9h0V55.1h45.8v6.6A13.08,13.08,0,0,1,324.4,74.6Z" transform="translate(0 0)" style="fill: #ffc990"/>
  <path d="M370.2,74.6H350.3a12.93,12.93,0,0,1-12.9-12.9h0V55.1h45.8v6.6a13.08,13.08,0,0,1-13,12.9Z" transform="translate(0 0)" style="fill: #ff9300"/>
  <path d="M415.7,74.6H395.8a12.93,12.93,0,0,1-12.9-12.9h0V55.1h45.8v6.6a13.08,13.08,0,0,1-13,12.9Z" transform="translate(0 0)" style="fill: #ffc990"/>
  <path d="M461.4,74.6H441.5a12.93,12.93,0,0,1-12.9-12.9h0V55.1h45.8v6.6a12.89,12.89,0,0,1-12.88,12.9h-.12Z" transform="translate(0 0)" style="fill: #ff9300"/>
  <path d="M507.5,74.6H487.6a12.93,12.93,0,0,1-12.9-12.9h0V55.1h45.8v6.6A13.08,13.08,0,0,1,507.5,74.6Z" transform="translate(0 0)" style="fill: #ffc990"/>
  <path d="M553.3,74.6H533.4a12.93,12.93,0,0,1-12.9-12.9V55.1h45.8v6.6A13,13,0,0,1,553.3,74.6Z" transform="translate(0 0)" style="fill: #ff9300"/>
  <path d="M598.8,74.6H578.9A12.93,12.93,0,0,1,566,61.7h0V55.1h45.8v6.6A13.08,13.08,0,0,1,598.8,74.6Z" transform="translate(0 0)" style="fill: #ffc990"/>
  <polygon points="703.3 55.1 657.5 55.1 625 22 670.8 22 703.3 55.1" style="fill: #ffc990"/>
  <path d="M690.4,74.6H670.5a12.93,12.93,0,0,1-12.9-12.9h0V55.1h45.8v6.6a13.08,13.08,0,0,1-13,12.9Z" transform="translate(0 0)" style="fill: #ffc990"/>
  <path d="M644.6,74.6H624.7a12.93,12.93,0,0,1-12.9-12.9h0V55.1h45.8v6.6A13.08,13.08,0,0,1,644.6,74.6Z" transform="translate(0 0)" style="fill: #ff9300"/>
  <polyline points="294.5 55.4 581.9 55.4 581.9 54.8 294.5 54.8" style="fill: #fff8dd"/>
  <polyline points="669.8 54.8 604.3 54.8 604.3 55.4 669.8 55.4" style="fill: #fff8dd"/>
  <path d="M516,99.4a4.35,4.35,0,0,0-3.3,1.4l-61.8,61.6a4.74,4.74,0,0,0,6.7,6.7l61.8-61.6a4.65,4.65,0,0,0,.13-6.57l-.13-.13a4.75,4.75,0,0,0-3.4-1.4" transform="translate(0 0)" style="fill: #fff6e3"/>
  <path d="M572.6,85.2a4.35,4.35,0,0,0-3.3,1.4L435.1,220.4a4.74,4.74,0,0,0,6.7,6.7h0L576,93.3a4.74,4.74,0,0,0,0-6.7,5.12,5.12,0,0,0-3.4-1.4" transform="translate(0 0)" style="fill: #fff6e3"/>
  <path d="M566.8,137.4a4.75,4.75,0,0,0-3.4,1.4l-46.8,46.7a4.65,4.65,0,0,0-.13,6.57l.13.13a4.74,4.74,0,0,0,6.7,0h0l46.8-46.7a4.65,4.65,0,0,0,.13-6.57l-.13-.13a4.51,4.51,0,0,0-3.3-1.4" transform="translate(0 0)" style="fill: #fff6e3"/>
  <path d="M314.42,166.7h47.9a9.36,9.36,0,0,1,9.3,9.3v50.2a9.36,9.36,0,0,1-9.3,9.3h-47.9a9.36,9.36,0,0,1-9.3-9.3V176A9.36,9.36,0,0,1,314.42,166.7Z" transform="translate(0 0)" style="fill: #fffcf1"/>
  <g>
    <path d="M312.27,221.14a.89.89,0,0,1-.88-.89V211a.88.88,0,0,1,.79-1,.89.89,0,0,1,1,.79v9.49A.9.9,0,0,1,312.27,221.14Z" transform="translate(0 0)" style="fill: #ffce7c;stroke: #ffce7c;stroke-miterlimit: 10;stroke-width: 0.25px"/>
    <path d="M321.72,217.49v2.76a.87.87,0,0,1-1.73.19.6.6,0,0,1,0-.19v-2.76a1.78,1.78,0,0,0-1.68-1.87c-1.14,0-1.72,1.14-1.72,2.15v2.48a.89.89,0,0,1-1,.78.87.87,0,0,1-.78-.78v-5.58a.87.87,0,0,1,1.69-.27,3.18,3.18,0,0,1,1.78-.53A3.52,3.52,0,0,1,321.72,217.49Z" transform="translate(0 0)" style="fill: #ffce7c;stroke: #ffce7c;stroke-miterlimit: 10;stroke-width: 0.25px"/>
    <path d="M335.13,211a.89.89,0,0,1-.87.89h-2.51v8.42a.9.9,0,0,1-.8,1,.89.89,0,0,1-1-.79.61.61,0,0,1,0-.19v-8.42h-2.5a.88.88,0,1,1,0-1.76h6.77a.88.88,0,0,1,.89.85Z" transform="translate(0 0)" style="fill: #ffce7c;stroke: #ffce7c;stroke-miterlimit: 10;stroke-width: 0.25px"/>
    <path d="M339.6,221.12a3.66,3.66,0,1,1,3.67-3.65,3.66,3.66,0,0,1-3.67,3.65Zm0-5.53a1.87,1.87,0,1,0,1.86,1.88h0a1.87,1.87,0,0,0-1.85-1.87Z" transform="translate(0 0)" style="fill: #ffce7c;stroke: #ffce7c;stroke-miterlimit: 10;stroke-width: 0.25px"/>
    <path d="M354.1,218.47v.08a2.86,2.86,0,0,1-2.89,2.67,3,3,0,0,1-2-.78,3,3,0,0,1-2,.78,2.82,2.82,0,0,1-2.89-2.75V214.8a.88.88,0,0,1,1.75,0v3.67a1.15,1.15,0,0,0,2.28,0V214.8a.88.88,0,0,1,1.75,0v3.67a1.15,1.15,0,0,0,2.28,0v-3.69a.87.87,0,0,1,.78-1,.89.89,0,0,1,1,.78v.19Z" transform="translate(0 0)" style="fill: #ffce7c;stroke: #ffce7c;stroke-miterlimit: 10;stroke-width: 0.25px"/>
    <path d="M362.22,217.49v2.76a.87.87,0,0,1-1.73.19.6.6,0,0,1,0-.19v-2.76a1.78,1.78,0,0,0-1.68-1.87c-1.14,0-1.72,1.14-1.72,2.15v2.48a.89.89,0,0,1-1,.78.87.87,0,0,1-.78-.78v-5.58a.87.87,0,0,1,1.69-.27,3.18,3.18,0,0,1,1.78-.53A3.52,3.52,0,0,1,362.22,217.49Z" transform="translate(0 0)" style="fill: #ffce7c;stroke: #ffce7c;stroke-miterlimit: 10;stroke-width: 0.25px"/>
    <path d="M364.41,218.32a.87.87,0,0,1-.87-.87V211a.88.88,0,0,1,1.76,0v6.48A.89.89,0,0,1,364.41,218.32Zm.11,2.83h-.11a.88.88,0,1,1,0-1.76h.07a.88.88,0,0,1,0,1.76h0Z" transform="translate(0 0)" style="fill: #ffce7c;stroke: #ffce7c;stroke-miterlimit: 10;stroke-width: 0.25px"/>
  </g>
  <path d="M349,160.4a12.55,12.55,0,0,0-12.5-12.6h-.1a12.5,12.5,0,0,0-11.8,16.9h0A23.87,23.87,0,0,0,336,178l.5.3.5-.3a25,25,0,0,0,11.5-13.3h0A15.2,15.2,0,0,0,349,160.4Z" transform="translate(0 0)" style="fill: #fc4c01"/>
  <path d="M341.6,160.4a5.7,5.7,0,0,1-11,0,.68.68,0,0,0-.8-.4.67.67,0,0,0-.4.7,6.84,6.84,0,0,0,8.38,4.83h.12a7,7,0,0,0,4.8-4.8.58.58,0,0,0-.45-.69h0A.79.79,0,0,0,341.6,160.4Z" transform="translate(0 0)" style="fill: #ffd400"/>
  <path d="M334.6,156.8a3.07,3.07,0,0,0-1-1.5,2.71,2.71,0,0,0-3.4,0,3.07,3.07,0,0,0-1,1.5.58.58,0,0,0,.45.69h0a.58.58,0,0,0,.7-.4h0a1.56,1.56,0,0,1,.6-.8,1.52,1.52,0,0,1,2,0,1.56,1.56,0,0,1,.6.8.63.63,0,0,0,.8.4h0c.1,0,.3-.4.2-.7Z" transform="translate(0 0)" style="fill: #ffd400"/>
  <path d="M342.7,156.8a3.07,3.07,0,0,0-1-1.5,2.85,2.85,0,0,0-3.5,0,3.07,3.07,0,0,0-1,1.5.58.58,0,0,0,.45.69h0a.67.67,0,0,0,.7-.4,1.59,1.59,0,0,1,1.5-1.2,1.68,1.68,0,0,1,1,.3,1.56,1.56,0,0,1,.6.8c.1.3.4.6.7.5a.73.73,0,0,0,.5-.7Z" transform="translate(0 0)" style="fill: #ffd400"/>
  <path d="M338.1,164.7a5.9,5.9,0,0,0,3.1-2.9l-.1.1c-.1.1-.2.1-.2,0l-.1-.1c-.3-2.6-3-2.1-3.5.3h0c-.4,1.1-.7,2.6-2,2.6H335A3.22,3.22,0,0,0,338.1,164.7Z" transform="translate(0 0)" style="fill: #ffd400"/>
  <polyline points="0 416 1246 416 1246 411.4 0 411.4" style="fill: #ffd500"/>
  <path d="M1072.1,396.2a14.49,14.49,0,0,0-3.6.3,15.47,15.47,0,0,0-21.1-5.5,13.48,13.48,0,0,0-1.5,1,15.7,15.7,0,0,0-14.7-10.8h0a15.51,15.51,0,0,0-15.5,15.5v2.4A15.4,15.4,0,0,0,997,410.2a3.78,3.78,0,0,0-.2,1H1087A15.72,15.72,0,0,0,1072.1,396.2Z" transform="translate(0 0)" style="fill: #cacc53"/>
  <path d="M259.5,408.8a17,17,0,0,0-6.18-23.23l-.12-.07h0a17.25,17.25,0,0,0-19.3,1.5,17,17,0,0,0-26.5-17.5l-1.8-6A17.08,17.08,0,0,0,184.4,352h0a17.08,17.08,0,0,0-11.5,21.2l3.8,12.8-8.7-5a17.09,17.09,0,1,0-17.1,29.6h0l1.6.9H258Z" transform="translate(0 0)" style="fill: #cacc53"/>
  <path d="M405.9,327.1h80.9a6.81,6.81,0,0,0,1-13.58H406a6.81,6.81,0,0,0-.1,13.6" transform="translate(0 0)" style="fill: #ffae3c"/>
  <path d="M409,323.8V404c0,4.1,3,7.4,6.8,7.4s6.8-3.3,6.8-7.4V323.8c0-4.1-3-7.4-6.8-7.4s-6.8,3.3-6.8,7.4" transform="translate(0 0)" style="fill: #ffae3c"/>
  <path d="M631.3,327.1h80.9a6.81,6.81,0,0,0,1-13.58H631.4a6.81,6.81,0,0,0-.6,13.6h.5" transform="translate(0 0)" style="fill: #ffae3c"/>
  <path d="M634.4,323.8V404c0,4.1,3,7.4,6.8,7.4s6.8-3.3,6.8-7.4V323.8c0-4.1-3-7.4-6.8-7.4s-6.8,3.3-6.8,7.4" transform="translate(0 0)" style="fill: #ffae3c"/>
  <path d="M698.4,323.8V404c0,4.1,3,7.4,6.8,7.4s6.8-3.3,6.8-7.4V323.8c0-4.1-3-7.4-6.8-7.4s-6.8,3.3-6.8,7.4" transform="translate(0 0)" style="fill: #ffae3c"/>
  <path d="M470.6,323.8V404c0,4.1,3,7.4,6.8,7.4s6.8-3.3,6.8-7.4V323.8c0-4.1-3-7.4-6.8-7.4s-6.8,3.3-6.8,7.4" transform="translate(0 0)" style="fill: #ffae3c"/>
  <rect x="435.3" y="217.6" width="29.8" height="18.9" style="fill: #ff8a00"/>
  <path d="M464.3,313.7H432.2a14.4,14.4,0,0,1-14.4-14.4h0V233.7h60.9v65.6a14.4,14.4,0,0,1-14.4,14.4Z" transform="translate(0 0)" style="fill: #ff8a00"/>
  <path d="M478.8,313.7H430a12.25,12.25,0,0,1-12.2-12.2V275h61Z" transform="translate(0 0)" style="fill: #193441"/>
  <g id="hand">
    <path d="M472.2,248.6a27.88,27.88,0,0,0,5,.4,47,47,0,0,0,12.8-1.9,40.39,40.39,0,0,0,11.9-6,48.28,48.28,0,0,0,8.6-8.3,56.37,56.37,0,0,0,9.7-19.8,108.33,108.33,0,0,0,3.7-29.6v-1.6l-15.6.2v1.4c0,12.6-1.7,21.9-4.2,28.8a35.89,35.89,0,0,1-6.5,11.8,26.41,26.41,0,0,1-5.5,5,27.27,27.27,0,0,1-8.3,3.7,29.65,29.65,0,0,1-6.7.8,13.34,13.34,0,0,1-2-.1h-.4l-.6,3.9.7-3.9h-.1l-.6,3.9.7-3.9-2.6,15.2Z" transform="translate(0 0)" style="fill: #ff8a00"/>
    <path d="M471.6,252.3a36.25,36.25,0,0,0,5.7.4,47.45,47.45,0,0,0,14-2.1,43.81,43.81,0,0,0,17.4-10.2l-15.8-16.8a19.05,19.05,0,0,1-4.3,3.1,24.18,24.18,0,0,1-6.3,2.4,20.51,20.51,0,0,1-5,.5,9.65,9.65,0,0,1-1.7-.1h-.3l-.8,5.9,1-5.8h-.2l-.8,5.9,1-5.8Z" transform="translate(0 0)" style="fill: #ffd400"/>
    <path d="M526.8,189.3H508.2v-9.8a9.82,9.82,0,0,1,9.8-9.8h8.8a9.8,9.8,0,1,1,0,19.6Z" transform="translate(0 0)" style="fill: #ff8a00"/>
    <g id="thumb">
      <path d="M514.5,178.1a8.69,8.69,0,0,0,1.7-.7,17.81,17.81,0,0,0,5.3-4.1,12.79,12.79,0,0,0,2.3-3.9,13.72,13.72,0,0,0,1-5.3,28.06,28.06,0,0,0-.2-2.9,3.38,3.38,0,1,0-6.7.9h0v.1a10.9,10.9,0,0,1,.2,1.8,7.72,7.72,0,0,1-2.2,5.4,7.94,7.94,0,0,1-2.4,1.7c-.3.1-.5.3-.8.4l-.2.1h0a3.37,3.37,0,1,0,1.4,6.6h.2A1.12,1.12,0,0,0,514.5,178.1Z" transform="translate(0 0)" style="fill: #ff8a00"/>
    </g>
  </g>
  <rect x="417.8" y="229.6" width="61" height="61" style="fill: #ffd400"/>
  <g id="food">
    <path d="M399.4,239.6a54.15,54.15,0,0,0-11.6,7.9,61.68,61.68,0,0,0-10.6,12.2,28,28,0,0,0-3.2,6.2,18.4,18.4,0,0,0-1.2,6.6,16.65,16.65,0,0,0,.8,5,14.4,14.4,0,0,0,2,3.9,18.53,18.53,0,0,0,5.1,5,25.15,25.15,0,0,0,4.6,2.4,40,40,0,0,0,7.7,2,59,59,0,0,0,8.4.6,75.92,75.92,0,0,0,15.1-1.6,91.17,91.17,0,0,0,23.8-8.4A75.5,75.5,0,0,0,461.6,265l-11.7-10.3a54.72,54.72,0,0,1-10.6,9.2,71,71,0,0,1-19.3,9,65.19,65.19,0,0,1-18.6,2.9,38.72,38.72,0,0,1-6.8-.6,16.18,16.18,0,0,1-3.6-1,5.27,5.27,0,0,1-1.6-.9,2.62,2.62,0,0,1-.6-.5c-.2-.2-.2-.3-.2-.3v-.2a3.09,3.09,0,0,1,.3-1.3,15.09,15.09,0,0,1,1.5-2.8,45.74,45.74,0,0,1,7.9-9.1,37.42,37.42,0,0,1,8.5-5.7l-7.4-13.8Z" transform="translate(0 0)" style="fill: #ff8a00"/>
    <rect x="467.5" y="255.6" width="28.2" height="2.6" style="fill: #cab195"/>
    <path d="M457.9,255.4l-2-.6,2,.6h0l-2-.6,2,.6-.6-.1.6.1h0l-.6-.1.6.1h0a.35.35,0,0,0,.1-.2,1.21,1.21,0,0,1,.5-.5.37.37,0,0,1,.3-.1c.1,0,.3-.1.4-.1h.2v-.1l-.1.1h0v-.2l-.1.1h0l.1.1c.1.2.1.3.2.5v.3h0l2.2-.3-2.2.2h0l2.2-.3-2.2.2a3.41,3.41,0,0,0,6.8-.6h0a4.63,4.63,0,0,0-.2-1.1,8.8,8.8,0,0,0-.5-1.5,6.68,6.68,0,0,0-.8-1.4,7.17,7.17,0,0,0-5.7-2.9,8.5,8.5,0,0,0-3.8.9,6.74,6.74,0,0,0-1.9,1.5,8.49,8.49,0,0,0-1.5,2.2,5.74,5.74,0,0,0-.5,1.2,3.34,3.34,0,0,0,2.16,4.19h0a3.48,3.48,0,0,0,4.3-2.2Z" transform="translate(0 0)" style="fill: #ff6900"/>
    <path d="M467.1,267.2H452.5a3.37,3.37,0,0,1-3.4-3.34h0V256.7a4.69,4.69,0,0,1,4.68-4.7H467a6.91,6.91,0,0,1,6.9,6.9v1.4a6.65,6.65,0,0,1-6.39,6.9Z" transform="translate(0 0)" style="fill: #ff8a00"/>
    <path d="M496.8,260.2h-2.9a2.43,2.43,0,0,1-2.4-2.4V256a2.43,2.43,0,0,1,2.4-2.4h2.9Z" transform="translate(0 0)" style="fill: #cab195"/>
    <path d="M495.3,258.7h8.1a.65.65,0,0,1,.6.6v.3a.65.65,0,0,1-.6.6h-8.1a.65.65,0,0,1-.6-.6v-.3A.65.65,0,0,1,495.3,258.7Z" transform="translate(0 0)" style="fill: #cab195"/>
    <path d="M495.3,256.2h8.1a.65.65,0,0,1,.6.6v.3a.65.65,0,0,1-.6.6h-8.1a.65.65,0,0,1-.6-.6v-.3A.65.65,0,0,1,495.3,256.2Z" transform="translate(0 0)" style="fill: #cab195"/>
    <path d="M495.3,253.6h8.1a.65.65,0,0,1,.6.6v.3a.65.65,0,0,1-.6.6h-8.1a.65.65,0,0,1-.6-.6v-.3A.65.65,0,0,1,495.3,253.6Z" transform="translate(0 0)" style="fill: #cab195"/>
    <path d="M497.4,266.7h0a.67.67,0,0,1-.7-.64v0h0V255.8a.7.7,0,0,1,1.4,0V266a.67.67,0,0,1-.64.7h-.06Z" transform="translate(0 0)" style="fill: #f7d999"/>
    <path d="M498.4,266.5h0a.67.67,0,0,1-.7-.64v0h0V253.3a.67.67,0,0,1,.64-.7h0a.67.67,0,0,1,.7.6h0v12.5a.7.7,0,0,1-.61.79Z" transform="translate(0 0)" style="fill: #f7d999"/>
    <path d="M499.9,265.7h0a.65.65,0,0,1-.6-.6V253.8a.54.54,0,0,1,.56-.52H500a.54.54,0,0,1,.5.5v11.3a.58.58,0,0,1-.56.6h0Z" transform="translate(0 0)" style="fill: #f7d999"/>
    <path d="M502.1,265.7h0a.65.65,0,0,1-.6-.6V253.8a.54.54,0,0,1,.56-.52h.14a.54.54,0,0,1,.5.5v11.3A.64.64,0,0,1,502.1,265.7Z" transform="translate(0 0)" style="fill: #f7d999"/>
    <path d="M501.1,261h0a.67.67,0,0,1-.7-.64v0h0v-7.2a.77.77,0,0,1,.6-.7h0a.67.67,0,0,1,.7.64v0h0v7.2A.67.67,0,0,1,501.1,261Z" transform="translate(0 0)" style="fill: #f7d999"/>
  </g>
  <path d="M424.4,230.1a36.2,36.2,0,0,0-5.6-.4,47.45,47.45,0,0,0-14,2.1A44.36,44.36,0,0,0,387.4,242l15.8,16.8a19.05,19.05,0,0,1,4.3-3.1,24.18,24.18,0,0,1,6.3-2.4,21.54,21.54,0,0,1,5-.5,9.65,9.65,0,0,1,1.7.1h.3l.8-5.9-1,5.8h.1l.8-5.9-1,5.8Z" transform="translate(0 0)" style="fill: #ffd400"/>
  <g id="face2">
    <path d="M466.7,117.5v5.9a4,4,0,0,1-3.3,3.9,3.78,3.78,0,0,1-4.1-3.3V113.7a1.61,1.61,0,0,0-1.3-1.6c-1.4-.3-2.7-.5-4.1-.7a1.59,1.59,0,0,0-1.79,1.36h0v10.6a3.88,3.88,0,0,1-3.3,3.9,3.78,3.78,0,0,1-4.1-3.3V113.1a1.58,1.58,0,0,0-1.56-1.6h-.24c-1.4.2-2.8.4-4.1.7a1.73,1.73,0,0,0-1.3,1.6v9.7a3.88,3.88,0,0,1-3.3,3.9,3.78,3.78,0,0,1-4.1-3.3v-6.5a1.58,1.58,0,0,0-1.56-1.6h0a1.32,1.32,0,0,0-.7.2,45.87,45.87,0,0,0-25,40.8v33.3a34.84,34.84,0,0,0,34.8,34.8h22a34.84,34.84,0,0,0,34.8-34.8V157a45.87,45.87,0,0,0-25-40.8,1.64,1.64,0,0,0-2.2.7c-.4.1-.4.4-.5.6Z" transform="translate(0 0)" style="fill: #ff8a00"/>
    <path d="M429.7,170.1a5.6,5.6,0,1,1,11.2,0h0a2.35,2.35,0,0,0,4.7,0,10.36,10.36,0,0,0-20.68-1.28v1.28a2.43,2.43,0,0,0,2.4,2.4A2.49,2.49,0,0,0,429.7,170.1Z" transform="translate(0 0)" style="fill: #612f00"/>
    <path d="M470.3,185.1a21.28,21.28,0,0,1-27.8,11.3A21,21,0,0,1,431.2,185Z" transform="translate(0 0)" style="fill: #612f00"/>
    <path d="M428.7,194.7a8,8,0,0,0,4.2-10.5,7.85,7.85,0,0,0-4.2-4.2,2.38,2.38,0,0,0-3,1.4,2.34,2.34,0,0,0,1.2,2.9,2.79,2.79,0,0,1,1.4,1.2,2.35,2.35,0,0,1,.5,1.8,3.69,3.69,0,0,1-.5,1.8,4.15,4.15,0,0,1-1.4,1.2,2.39,2.39,0,0,0-1.3,3.1,2.35,2.35,0,0,0,3,1.32h.05Z" transform="translate(0 0)" style="fill: #ffa625"/>
    <path d="M474.7,190.3a3.2,3.2,0,0,1-1.9-3,3.69,3.69,0,0,1,.5-1.8,3.33,3.33,0,0,1,1.4-1.2,2.38,2.38,0,0,0-1.8-4.4,8,8,0,0,0-4.2,10.5,7.85,7.85,0,0,0,4.2,4.2,2.39,2.39,0,0,0,3.1-1.3,2.51,2.51,0,0,0-1.3-3Z" transform="translate(0 0)" style="fill: #ffa625"/>
    <path d="M462.5,170.1a5.6,5.6,0,1,1,11.2,0,2.4,2.4,0,1,0,4.8,0h0a10.36,10.36,0,0,0-20.7,0,2.35,2.35,0,0,0,4.7,0Z" transform="translate(0 0)" style="fill: #612f00"/>
    <path d="M452.7,191.6H435.5a21.28,21.28,0,0,0,22.8,5.2A5.66,5.66,0,0,0,452.7,191.6Z" transform="translate(0 0)" style="fill: #fc4c01"/>
  </g>
  <polyline points="417.8 253.4 422.5 253.4 422.5 252.7 417.8 252.7" style="fill: #fc4c01"/>
  <path d="M493.4,276.8H471.7a9.13,9.13,0,0,1,9.1-9.1h3.6a9.13,9.13,0,0,1,9,9.1Z" transform="translate(0 0)" style="fill: #f7d999"/>
  <path d="M491.6,276.8v-.3H473.8v-.4a6.27,6.27,0,0,1,6.24-6.3h5a6.27,6.27,0,0,1,6.3,6.24h0v.86h.7v-.8a7,7,0,0,0-7-7h-4.8a7,7,0,0,0-7,7v1.1H492v-.3h-.4Z" transform="translate(0 0)" style="fill: #e8b75a"/>
  <path d="M489.7,270.2a2.9,2.9,0,1,1-2.9-2.9h0A2.9,2.9,0,0,1,489.7,270.2Z" transform="translate(0 0)" style="fill: #8e1b00"/>
  <path d="M489.3,276.8H475.8v-1a4.49,4.49,0,0,1,4.46-4.5h4.64a4.49,4.49,0,0,1,4.5,4.46v1Z" transform="translate(0 0)" style="fill: #f7d999"/>
  <path d="M489.3,276.8v-.3H476.1v-.7a4.14,4.14,0,0,1,4.18-4.1h4.62a4.21,4.21,0,0,1,4.2,4.1h0v1h.7v-1A4.8,4.8,0,0,0,485,271h-4.6a4.89,4.89,0,0,0-4.9,4.8h0v1.4h14.2v-.3Z" transform="translate(0 0)" style="fill: #e8b75a"/>
  <path d="M524.8,276.1H487.3v-.6a12,12,0,0,1,12-12h13.5a12,12,0,0,1,12,12Z" transform="translate(0 0)" style="fill: #f7d999"/>
  <path d="M522.2,276.1v-.3H489.7v.3h.3a10.37,10.37,0,0,1,10.3-10.4h11.2A10.32,10.32,0,0,1,521.8,276v.08h.7a11,11,0,0,0-11-11H500.3a11,11,0,0,0-11,11v.3h33.2v-.3Z" transform="translate(0 0)" style="fill: #e8b75a"/>
  <path d="M518.4,267.3a2.9,2.9,0,1,1-2.9-2.9h0a2.9,2.9,0,0,1,2.9,2.9Z" transform="translate(0 0)" style="fill: #8e1b00"/>
  <path d="M519.7,276.1H492.2v-.5a8,8,0,0,1,7.8-7.9h11.8a7.84,7.84,0,0,1,7.8,7.86h0Z" transform="translate(0 0)" style="fill: #f7d999"/>
  <path d="M519.7,276.1v-.3H492.6v-.1a7.55,7.55,0,0,1,7.5-7.5h11.8a7.55,7.55,0,0,1,7.5,7.5h0v.5h.7v-.5a8.24,8.24,0,0,0-8.2-8.2H500.1a8.24,8.24,0,0,0-8.2,8.2h0v.8H520v-.3h-.3Z" transform="translate(0 0)" style="fill: #e8b75a"/>
  <path d="M516.1,276.1v-.3H496.2v-.7a4.65,4.65,0,0,1,4.6-4.6h10.5a4.49,4.49,0,0,1,4.5,4.48v1.12h.7v-1a5.16,5.16,0,0,0-5.12-5.2H500.8a5.16,5.16,0,0,0-5.2,5.12h0v1.48h20.9v-.3Z" transform="translate(0 0)" style="fill: #e8b75a"/>
  <path d="M508.4,264.4a2.9,2.9,0,1,1-2.9-2.9h0A3,3,0,0,1,508.4,264.4Z" transform="translate(0 0)" style="fill: #8e1b00"/>
  <path d="M533.3,278.8H461.6a6.06,6.06,0,0,1-6.1-6v-.08h83.8a6,6,0,0,1-5.9,6.1h0Z" transform="translate(0 0)" style="fill: #fff"/>
  <path d="M595.4,276.8H573.7a9.13,9.13,0,0,1,9-9.1h3.6a9.2,9.2,0,0,1,9.1,9.1Z" transform="translate(0 0)" style="fill: #f7d999"/>
  <path d="M593.6,276.8v-.3H575.8v-.4a6.27,6.27,0,0,1,6.24-6.3h5a6.27,6.27,0,0,1,6.3,6.24h0v.86h.7v-.8a7,7,0,0,0-7-7h-4.8a7,7,0,0,0-7,7v1.1H594v-.3h-.4Z" transform="translate(0 0)" style="fill: #e8b75a"/>
  <path d="M591.7,270.2a2.9,2.9,0,1,1-2.9-2.9h0a2.9,2.9,0,0,1,2.9,2.9Z" transform="translate(0 0)" style="fill: #8e1b00"/>
  <path d="M591.4,276.8H577.9v-1a4.49,4.49,0,0,1,4.46-4.5H587a4.49,4.49,0,0,1,4.5,4.46h0Z" transform="translate(0 0)" style="fill: #f7d999"/>
  <path d="M591.4,276.8v-.3H578.2v-.7a4.14,4.14,0,0,1,4.18-4.1H587a4.21,4.21,0,0,1,4.2,4.1h0v1h.7v-1a4.8,4.8,0,0,0-4.8-4.8h-4.6a4.8,4.8,0,0,0-4.8,4.8h0v1.4h14.2v-.3Z" transform="translate(0 0)" style="fill: #e8b75a"/>
  <path d="M626.8,276.1H589.3v-.6a12,12,0,0,1,12-12h13.5a12,12,0,0,1,12,12Z" transform="translate(0 0)" style="fill: #f7d999"/>
  <path d="M624.3,276.1v-.3H591.8v.3h.3a10.23,10.23,0,0,1,10.16-10.3H613.7A10.32,10.32,0,0,1,624,276.12v.08h.7a11,11,0,0,0-11-11H602.5a11,11,0,0,0-11,11v.3h33.2v-.3Z" transform="translate(0 0)" style="fill: #e8b75a"/>
  <path d="M620.4,267.3a2.9,2.9,0,1,1-2.9-2.9h0a2.9,2.9,0,0,1,2.9,2.9Z" transform="translate(0 0)" style="fill: #8e1b00"/>
  <path d="M621.7,276.1H594.3v-.5a8,8,0,0,1,7.8-7.9h11.8a7.84,7.84,0,0,1,7.8,7.86v.54Z" transform="translate(0 0)" style="fill: #f7d999"/>
  <path d="M621.7,276.1v-.3H594.6v-.1a7.55,7.55,0,0,1,7.5-7.5h11.8a7.55,7.55,0,0,1,7.5,7.5h0v.5h.7v-.5a8.24,8.24,0,0,0-8.2-8.2H602.1a8.24,8.24,0,0,0-8.2,8.2h0v.8H622v-.3h-.3Z" transform="translate(0 0)" style="fill: #e8b75a"/>
  <path d="M618.1,276.1v-.3H598.2v-.7a4.59,4.59,0,0,1,4.58-4.6H613.3a4.49,4.49,0,0,1,4.5,4.48v1.12h.7v-1a5.16,5.16,0,0,0-5.12-5.2H602.9a5.16,5.16,0,0,0-5.2,5.12h0v1.48h20.9v-.3Z" transform="translate(0 0)" style="fill: #e8b75a"/>
  <path d="M610.4,264.4a2.9,2.9,0,1,1-2.9-2.9h0A3,3,0,0,1,610.4,264.4Z" transform="translate(0 0)" style="fill: #8e1b00"/>
  <path d="M635.4,278.8H563.7a6.06,6.06,0,0,1-6.1-6v-.08h83.9A6.25,6.25,0,0,1,635.4,278.8Z" transform="translate(0 0)" style="fill: #fff"/>
  <rect x="538.4" y="280.7" width="25.2" height="127.6" style="fill: #ffae3c"/>
  <rect x="538.4" y="285.4" width="25.2" height="11.8" style="fill: #ff8d00"/>
  <rect x="645.5" y="209.9" width="31" height="26.7" style="fill: #ffca4f"/>
  <path d="M664.2,216.2h-9a32.78,32.78,0,0,1-32.5-28.5l-4.3-32c-3.9-28.9,14.8-56.1,41.3-56.1s45.2,27.2,41.3,56.1l-4.3,32A32.78,32.78,0,0,1,664.2,216.2Z" transform="translate(0 0)" style="fill: #ffca4f"/>
  <path d="M633.7,182.4a20.25,20.25,0,0,0,26.5,10.8,20.52,20.52,0,0,0,8.9-7.3,23.2,23.2,0,0,0,1.9-3.5,2.35,2.35,0,0,0-1.2-3.1h0a2.39,2.39,0,0,0-3.1,1.3,15.51,15.51,0,0,1-20.3,8.3,15.67,15.67,0,0,1-8.3-8.3,2.38,2.38,0,1,0-4.5,1.55v0l.09.22Z" transform="translate(0 0)" style="fill: #543000"/>
  <path d="M630.4,313.7h48.8a12.25,12.25,0,0,0,12.2-12.2V290.6h-61Z" transform="translate(0 0)" style="fill: #33918e"/>
  <path d="M613.7,216.3h19.5a2.8,2.8,0,0,1,2.8,2.8v37.8a2.8,2.8,0,0,1-2.8,2.8H613.7a2.8,2.8,0,0,1-2.8-2.8V219a2.7,2.7,0,0,1,2.7-2.7h.1Z" transform="translate(0 0)" style="fill: #4c6169"/>
  <polygon points="630.4 290.7 691.4 290.7 678.4 230.9 643.3 230.9 630.4 290.7" style="fill: #fc4c01"/>
  <polyline points="648 312.1 648 401.8 663.6 401.8 663.6 312.1" style="fill: #ffca4f"/>
  <polyline points="618.8 312.1 618.8 401.8 634.4 401.8 634.4 312.1" style="fill: #ffca4f"/>
  <path d="M648,365.9h16.3V304.2a8.15,8.15,0,0,0-16.3-.5h0v62.2Z" transform="translate(0 0)" style="fill: #33918e"/>
  <path d="M618.1,365.9h16.3V304.2a8.15,8.15,0,0,0-16.3-.5h0v62.2Z" transform="translate(0 0)" style="fill: #33918e"/>
  <path d="M632.4,411.4h29.8a1.37,1.37,0,0,0,1.4-1.34h0V399.2H641.9A10.82,10.82,0,0,0,631.1,410h0a1.24,1.24,0,0,0,1.07,1.39h.23Z" transform="translate(0 0)" style="fill: #193441"/>
  <path d="M603.3,411.4h29.8a1.37,1.37,0,0,0,1.4-1.34h0V399.2H612.8A10.82,10.82,0,0,0,602,410h0a1.24,1.24,0,0,0,1.07,1.39h.23Z" transform="translate(0 0)" style="fill: #193441"/>
  <rect x="646.9" y="359.7" width="19.2" height="9.7" style="fill: #4eb0ac"/>
  <rect x="616.7" y="359.7" width="19.2" height="9.7" style="fill: #4eb0ac"/>
  <path d="M674.4,246.3a69.63,69.63,0,0,1,3.4,20.8,46.34,46.34,0,0,1-.9,9.1,29.39,29.39,0,0,1-1.6,5,12.79,12.79,0,0,1-1.4,2.5,5.73,5.73,0,0,1-1.8,1.7l-.6.3a4,4,0,0,0-.5.1,3.09,3.09,0,0,1-1.3-.3,11.48,11.48,0,0,1-1.9-1,22.55,22.55,0,0,1-4.9-4.4,65.56,65.56,0,0,1-9.1-14.7,178.33,178.33,0,0,1-9.5-25.2l-14.9,4.5a205.3,205.3,0,0,0,9,24.5,109.85,109.85,0,0,0,7.2,13.5,61.28,61.28,0,0,0,5.7,7.7,36.61,36.61,0,0,0,9.2,7.9,23.74,23.74,0,0,0,5.1,2.2,20.16,20.16,0,0,0,5.4.8,17.81,17.81,0,0,0,9.8-3,20.84,20.84,0,0,0,5.8-5.7,35,35,0,0,0,5.1-11.5,61.45,61.45,0,0,0,1.7-14.1,87.63,87.63,0,0,0-4.1-25.4Z" transform="translate(0 0)" style="fill: #ffca4f"/>
  <path d="M670.4,249.2l1.6-7.4-1.9,7.4h.3l1.6-7.4-1.9,7.4.7-2.8-.8,2.8h.1l.7-2.8-.8,2.8.2-.6-.2.6h0l.2-.6-.2.6a3.64,3.64,0,0,1,.9.4,8.64,8.64,0,0,1,1.2.8,7.57,7.57,0,0,1,.8.9,6,6,0,0,1,1.1,2.1,15.66,15.66,0,0,1,.6,4.3,23.93,23.93,0,0,1-.7,5.9l22.6,4.7a62.91,62.91,0,0,0,1.2-10.6,43.19,43.19,0,0,0-.8-8.1,31.36,31.36,0,0,0-4.9-11.4,32.19,32.19,0,0,0-5.3-5.7,32.54,32.54,0,0,0-7.4-4.5,19.56,19.56,0,0,0-4.1-1.3Z" transform="translate(0 0)" style="fill: #fc4c01"/>
  <polyline points="677 253.6 672.2 253.6 672.2 254.3 677 254.3" style="fill: #fc4c01"/>
  <path d="M637.8,162.4a1.5,1.5,0,0,1,1.3-1.4,1.32,1.32,0,0,1,1.3,1.3h0a2.35,2.35,0,1,0,4.7,0,6.06,6.06,0,0,0-12.1-.5v.5a2.43,2.43,0,0,0,2.4,2.4,2.22,2.22,0,0,0,2.39-2,1,1,0,0,0,0-.25Z" transform="translate(0 0)" style="fill: #543000"/>
  <path d="M664.8,162.4a1.29,1.29,0,0,1,.4-1,1.39,1.39,0,0,1,1.9,0,1.29,1.29,0,0,1,.4,1,2.35,2.35,0,0,0,4.7,0,6.06,6.06,0,0,0-12.1,0,2.35,2.35,0,0,0,4.7,0Z" transform="translate(0 0)" style="fill: #543000"/>
  <path d="M643.6,219h32.2a3.92,3.92,0,0,1,3.9,3.9h0v4.9a3.92,3.92,0,0,1-3.9,3.9H643.6a3.92,3.92,0,0,1-3.9-3.9h0v-4.9A3.92,3.92,0,0,1,643.6,219Z" transform="translate(0 0)" style="fill: #fc4c01"/>
  <path d="M690.4,115l-45.8-14.4,1.5-4.9a23.29,23.29,0,0,1,29-15.2l1.7.5A23.29,23.29,0,0,1,692,110Z" transform="translate(0 0)" style="fill: #00b9e6"/>
  <path d="M666.1,99.4l-.7,2.4a9.93,9.93,0,0,1-12.4,6.5l-22.1-6.9a6.18,6.18,0,0,1-4-7.7v-.1a6.18,6.18,0,0,1,7.7-4Z" transform="translate(0 0)" style="fill: #00b9e6"/>
  <path d="M620,246.3l17.6,9.1,6.7-12.9a3.13,3.13,0,0,0-1.3-4.2h0l-14.8-7.6a8.88,8.88,0,0,0-11.8,4.2A8.78,8.78,0,0,0,620,246.3Z" transform="translate(0 0)" style="fill: #ffca4f"/>
  <polyline points="476.1 308.8 506.6 393.2 521.3 387.9 490.8 303.5" style="fill: #ff8a00"/>
  <circle cx="679.6" cy="173.1" r="3" style="fill: #ffe57f"/>
  <path d="M507.6,348l-15.3,5.5-18.9-52.1a8.13,8.13,0,0,1,15.3-5.5h0Z" transform="translate(0 0)" style="fill: #193441"/>
  <path d="M399.8,292.2H702.1a6.8,6.8,0,0,0,0-13.6H399.8a6.8,6.8,0,1,0,0,13.6" transform="translate(0 0)" style="fill: #ffae3c"/>
  <path d="M536.9,385.1l-28,10.1a1.26,1.26,0,0,1-1.65-.67.5.5,0,0,1-.05-.13h0l-3.7-10.2,20.4-7.4a11,11,0,0,1,13.9,6.5h0A1.56,1.56,0,0,1,536.9,385.1Z" transform="translate(0 0)" style="fill: #193441"/>
  <rect x="499.84" y="358.9" width="16.29" height="28.99" transform="translate(-96.72 195.05) rotate(-19.89)" style="fill: #193441"/>
  <path d="M576.9,411.4H525a6.27,6.27,0,0,1,6.24-6.3H570.6a6.27,6.27,0,0,1,6.3,6.24h0v.06Z" transform="translate(0 0)" style="fill: #ffae3c"/>
  <path d="M545,255h0a10.46,10.46,0,0,1-10.4-10.4v-19h20.8v19A10.39,10.39,0,0,1,545,255Z" transform="translate(0 0)" style="fill: #fffae8"/>
  <path d="M545.4,251.8h-.8a7.32,7.32,0,0,1-7.3-7.2h0v-1.3h15.3v1.3a7,7,0,0,1-6.79,7.2Z" transform="translate(0 0)" style="fill: #f89e57"/>
  <polyline points="544.3 255 544.3 278.5 545.7 278.5 545.7 255" style="fill: #fff"/>
  <polyline points="541.2 278.6 548.9 278.6 548.9 277.3 541.2 277.3" style="fill: #fff"/>
  <g id="aa">
    <g id="b">
      <path d="M582.1,210.3h14.5a10.5,10.5,0,0,1,10.5,10.5h0v8.7A10.5,10.5,0,0,1,596.6,240H582.1a10.5,10.5,0,0,1-10.5-10.5h0v-8.7A10.55,10.55,0,0,1,582.1,210.3Z" transform="translate(0 0)" style="fill: #fff"/>
      <path d="M581,220.7a4.66,4.66,0,0,1,1.3-1.8l.3-.3h0a5.44,5.44,0,0,1,1.3-.7,5,5,0,0,1,3.8.1,5.64,5.64,0,0,1,1.6,1.1,4.54,4.54,0,0,1,1.6-1.1,5,5,0,0,1,3.8-.1,5.27,5.27,0,0,1,1.6.9,4.66,4.66,0,0,1,1.3,1.8,5.2,5.2,0,0,1,.4,2.1,5.53,5.53,0,0,1-.3,1.8,5.27,5.27,0,0,1-.9,1.6h0l-6,5.7a2.88,2.88,0,0,1-.7.5,2.21,2.21,0,0,1-1.6,0,1.84,1.84,0,0,1-.7-.5l-6-5.7h0a5,5,0,0,1-.9-1.6,5.53,5.53,0,0,1-.3-1.8A4.45,4.45,0,0,1,581,220.7Z" transform="translate(0 0)" style="fill: #fc4c01"/>
    </g>
    <g id="a">
      <path id="as" d="M587.4,236.1v6.4a6.82,6.82,0,0,0,6.8,6.8h3.9a1.7,1.7,0,1,0,.2-3.4h-4.2a3.37,3.37,0,0,1-3.4-3.34h0V236.1a1.83,1.83,0,0,0-1.8-1.6A1.94,1.94,0,0,0,587.4,236.1Z" transform="translate(0 0)" style="fill: #fff"/>
    </g>
  </g>
  <polyline points="462.6 310.4 462.6 400.2 478.2 400.2 478.2 310.4" style="fill: #ff8a00"/>
  <path d="M478.2,358H461.9V302.6a8.11,8.11,0,0,1,16.2,0V358Z" transform="translate(0 0)" style="fill: #193441"/>
  <path d="M493.8,402.9H464a1.37,1.37,0,0,1-1.4-1.34h0V390.7h21.7a10.82,10.82,0,0,1,10.8,10.8h0a1.35,1.35,0,0,1-1.3,1.4Z" transform="translate(0 0)" style="fill: #193441"/>
  <rect x="462.6" y="367.7" width="16.3" height="29" style="fill: #193441"/>
  <polyline points="435.3 225.3 446.9 225.3 446.9 224.6 435.3 224.6" style="fill: #eb5000"/>
  <path d="M676.4,213.5h0c-.5.3-5.3,2.4-13.6,2.4h-9.2v.7h9.2c8.9,0,13.9-2.5,13.9-2.5l-.3-.6Z" transform="translate(0 0)" style="fill: #ff8200"/>
  <line x1="523.7" y1="169.6" x2="520.4" y2="169.6" style="fill: none;stroke: #eb5000;stroke-miterlimit: 10;stroke-width: 0.5px"/>
  <rect x="610.9" y="230.8" width="25" height="1.7" style="fill: #507591"/>
  <circle cx="614.6" cy="228.5" r="1.4" style="fill: #193441"/>
  <path d="M763.7,72.4" transform="translate(0 0)" style="fill: #681800"/>
  <g>
    <path d="M332.6,187.61a3.32,3.32,0,0,1-3.2,3.34h-3.31v-.09a.86.86,0,0,1-.81-.86v-9.2a.85.85,0,0,1,.84-.86h0v-.06h2.33a3.11,3.11,0,0,1,3.19,3,.22.22,0,0,1,0,.08,3.26,3.26,0,0,1-.66,1.93A3.22,3.22,0,0,1,332.6,187.61Zm-4.13-6H327v2.84h1.66a1.49,1.49,0,0,0,1.28-1.46,1.39,1.39,0,0,0-1.39-1.39h-.08Zm2.41,6a1.58,1.58,0,0,0-1.59-1.45H327v3.07h2.4A1.62,1.62,0,0,0,330.88,187.61Z" transform="translate(0 0)" style="fill: #ffce7c;stroke: #ffce7c;stroke-miterlimit: 10;stroke-width: 0.25px"/>
    <path d="M339.69,187.75H335.2a1.91,1.91,0,0,0,1.85,1.48,2.38,2.38,0,0,0,1.53-.56.88.88,0,0,1,1.24,0,.87.87,0,0,1,0,1.22l0,0a4.12,4.12,0,0,1-2.76,1,3.66,3.66,0,0,1,0-7.32,3.46,3.46,0,0,1,3,1.74,2.89,2.89,0,0,1,.47,1.43,1.45,1.45,0,0,1-.12.42A.77.77,0,0,1,339.69,187.75Zm-4.24-1.47h3.09a1.63,1.63,0,0,0-1.49-.87A1.87,1.87,0,0,0,335.45,186.28Z" transform="translate(0 0)" style="fill: #ffce7c;stroke: #ffce7c;stroke-miterlimit: 10;stroke-width: 0.25px"/>
    <path d="M343.94,191a3.65,3.65,0,0,1-2.35-.83.87.87,0,1,1,1.18-1.29,1.78,1.78,0,0,0,1.79.22.52.52,0,0,0,.24-.41.49.49,0,0,0-.32-.4,1.52,1.52,0,0,0-.63-.08,3.2,3.2,0,0,1-1.15-.16,2.16,2.16,0,0,1-.78-3.6,3.13,3.13,0,0,1,2.57-.64,2.62,2.62,0,0,1,1.39.64.88.88,0,0,1,.05,1.23h0a.9.9,0,0,1-.74.27.82.82,0,0,1-.38-.13,1.33,1.33,0,0,0-.61-.29c-.44-.07-1.26,0-1.2.58a.61.61,0,0,0,.26.31,3,3,0,0,0,.6,0,3.47,3.47,0,0,1,1.35.24,2.22,2.22,0,0,1,1.32,2,2.29,2.29,0,0,1-1,1.87A2.92,2.92,0,0,1,343.94,191Z" transform="translate(0 0)" style="fill: #ffce7c;stroke: #ffce7c;stroke-miterlimit: 10;stroke-width: 0.25px"/>
    <path d="M351.45,190a.88.88,0,0,1-.86.88h-.39a2,2,0,0,1-1.78-2v-3.67h-.6a.88.88,0,1,1-.19-1.75.6.6,0,0,1,.19,0h.63V180.7a.87.87,0,0,1,.78-1,.89.89,0,0,1,1,.78v3h.48a.88.88,0,0,1,0,1.75h-.48v3.47a.52.52,0,0,0,.1.38c.1.09.2.06.3.06A.88.88,0,0,1,351.45,190Z" transform="translate(0 0)" style="fill: #ffce7c;stroke: #ffce7c;stroke-miterlimit: 10;stroke-width: 0.25px"/>
  </g>
  <g>
    <path d="M328.23,198.25a3.32,3.32,0,0,1-3.33,3.2h-2.31v3.66a.86.86,0,1,1-1.72,0v-9.26a.87.87,0,0,1,.82-.86v-.09H325A3.33,3.33,0,0,1,328.23,198.25Zm-1.74,0a1.63,1.63,0,0,0-1.47-1.62h-2.43v3.08h2.31A1.58,1.58,0,0,0,326.49,198.25Z" transform="translate(0 0)" style="fill: #ffce7c;stroke: #ffce7c;stroke-miterlimit: 10;stroke-width: 0.25px"/>
    <path d="M336.26,199.54v5.59a.83.83,0,0,1-.83.83h0a.76.76,0,0,1-.77-.77V205a3.37,3.37,0,0,1-2.24.86,3.53,3.53,0,0,1-.38-7.05h.38a3.48,3.48,0,0,1,2.24.85v-.07a.78.78,0,0,1,.71-.83h.06A.83.83,0,0,1,336.26,199.54Zm-2,2.75a1.83,1.83,0,1,0-1.85,1.81h0a1.85,1.85,0,0,0,1.81-1.81Z" transform="translate(0 0)" style="fill: #ffce7c;stroke: #ffce7c;stroke-miterlimit: 10;stroke-width: 0.25px"/>
    <path d="M340.25,206a3.65,3.65,0,0,1-2.35-.83.87.87,0,1,1,1.18-1.29,1.79,1.79,0,0,0,1.8.22.49.49,0,0,0,.23-.41.47.47,0,0,0-.32-.4,1.5,1.5,0,0,0-.63-.08,3.2,3.2,0,0,1-1.15-.16,2.16,2.16,0,0,1-.77-3.6,3.07,3.07,0,0,1,2.56-.64,2.59,2.59,0,0,1,1.39.64.87.87,0,0,1,.06,1.22.88.88,0,0,1-.75.28.82.82,0,0,1-.38-.13,1.24,1.24,0,0,0-.61-.29c-.44-.07-1.25,0-1.2.58a.63.63,0,0,0,.27.31,3,3,0,0,0,.6,0,3.42,3.42,0,0,1,1.34.24,2.22,2.22,0,0,1,1.32,2,2.24,2.24,0,0,1-1,1.87A2.9,2.9,0,0,1,340.25,206Z" transform="translate(0 0)" style="fill: #ffce7c;stroke: #ffce7c;stroke-miterlimit: 10;stroke-width: 0.25px"/>
    <path d="M347.76,205.08a.88.88,0,0,1-.86.88h-.39a2,2,0,0,1-1.78-2V200.3h-.63a.88.88,0,0,1-.78-1,.87.87,0,0,1,.78-.78h.63v-2.79a.88.88,0,0,1,1.75-.19.61.61,0,0,1,0,.19v2.79H347a.88.88,0,0,1,.78,1,.87.87,0,0,1-.78.78h-.47v3.47a.52.52,0,0,0,.1.38c.1.09.2.06.31.06A.87.87,0,0,1,347.76,205.08Z" transform="translate(0 0)" style="fill: #ffce7c;stroke: #ffce7c;stroke-miterlimit: 10;stroke-width: 0.25px"/>
    <path d="M355.87,199.54v5.59a.83.83,0,0,1-.83.83h0a.78.78,0,0,1-.78-.78V205a3.3,3.3,0,0,1-2.23.86,3.53,3.53,0,0,1-.38-7.05H352a3.46,3.46,0,0,1,2.23.85v-.07a.78.78,0,0,1,.73-.83h0A.83.83,0,0,1,355.87,199.54Zm-2,2.75A1.84,1.84,0,1,0,352,204.1h0a1.85,1.85,0,0,0,1.81-1.81Z" transform="translate(0 0)" style="fill: #ffce7c;stroke: #ffce7c;stroke-miterlimit: 10;stroke-width: 0.25px"/>
  </g>
</svg>
