<svg id="Layer_1" data-name="Layer 1" xmlns="http://www.w3.org/2000/svg" viewBox="0 0 300 300"><defs><style>.cls-1{fill:#fe4c00;}</style></defs><title>WebIcons</title><path class="cls-1" d="M166.45,65.31l-.3,1.07A59.33,59.33,0,0,0,164.1,81.7a57.33,57.33,0,0,0,4.21,21.44,65.1,65.1,0,0,0,8.28,14.6A37.35,37.35,0,0,0,188,127.8l.08,0a73.81,73.81,0,0,1,27.51,27.2,70.58,70.58,0,0,1,9.63,35.19,61,61,0,0,1-5.57,25.85,58.41,58.41,0,0,1-10.55,15.59,63.54,63.54,0,0,1-14.59,11.48,74.22,74.22,0,0,1-55.91,6.93,67.34,67.34,0,0,1-42.08-33.94,74.15,74.15,0,0,1-5.27-55.86q.56-1.83,1.2-3.63a50,50,0,0,0,3,9.21,42.2,42.2,0,0,0,11.85,15.85,31.24,31.24,0,0,0,11.29,5.86l.06,0a28.5,28.5,0,0,0,7.44,1,29.78,29.78,0,0,0,7.52-1,35,35,0,0,0,7.57-3l.09,0a23.72,23.72,0,0,0,6-4.55l.39-.42a21.76,21.76,0,0,0,3.71-5.76l.1-.25A24.23,24.23,0,0,0,153,169a30.79,30.79,0,0,0,.63-6.37,54.55,54.55,0,0,0-2.08-13.88A114.73,114.73,0,0,0,146.69,135a58.39,58.39,0,0,1-4.46-22.42A57.58,57.58,0,0,1,146,92a55.83,55.83,0,0,1,11.13-18,83.88,83.88,0,0,1,9.32-8.69m-65.4,74.62h0m76.4-101.86a14.05,14.05,0,0,0-6.13,1.41,85.29,85.29,0,0,0-9.41,5.59,106.86,106.86,0,0,0-18.75,16.06,74.92,74.92,0,0,0-14.91,24.1,76.58,76.58,0,0,0-5,27.34,77.74,77.74,0,0,0,5.9,29.68,97.15,97.15,0,0,1,4.05,11.51,35.5,35.5,0,0,1,1.41,8.86,12.21,12.21,0,0,1-.22,2.49,5.27,5.27,0,0,1-.31,1,2.54,2.54,0,0,1-.48.77,4.9,4.9,0,0,1-1.29.93h0a16.39,16.39,0,0,1-3.46,1.39,10.86,10.86,0,0,1-2.73.36,9.11,9.11,0,0,1-2.45-.33,12.13,12.13,0,0,1-4.44-2.36,23.28,23.28,0,0,1-6.34-8.68,32.26,32.26,0,0,1-2.68-12.92,31.08,31.08,0,0,1,.51-5.68,14,14,0,0,0-25.32-10.43A93,93,0,0,0,79.71,225a86.26,86.26,0,0,0,53.83,43.4A93.14,93.14,0,0,0,204,259.63a82.44,82.44,0,0,0,19-14.93,77.27,77.27,0,0,0,14-20.64,80.44,80.44,0,0,0,7.32-33.82A89.48,89.48,0,0,0,232,145.54a92.74,92.74,0,0,0-34.7-34.29h0a18.28,18.28,0,0,1-5.56-4.94,45.18,45.18,0,0,1-5.83-10.26,38.13,38.13,0,0,1-2.84-14.36,39.74,39.74,0,0,1,1.41-10.4,53.28,53.28,0,0,1,5.15-12.36,14,14,0,0,0-12.21-20.86Z"/></svg>