<svg viewBox="0 0 47.084 39.222" fill="#FE4C00"><g><path d="M19.293 7.319A9.97 9.97 0 009.685 0c-2.286 0-4.411.777-6.09 2.079A9.959 9.959 0 00.078 7.32a2.171 2.171 0 004.187 1.15A5.628 5.628 0 016.25 5.512a5.579 5.579 0 013.435-1.17c1.302 0 2.481.434 3.434 1.17a5.63 5.63 0 011.987 2.956 2.171 2.171 0 004.187-1.15M46.8 7.32A9.967 9.967 0 0037.193 0a9.938 9.938 0 00-6.09 2.078 9.98 9.98 0 00-3.518 5.241 2.17 2.17 0 001.519 2.668 2.17 2.17 0 002.668-1.517 5.639 5.639 0 011.986-2.957 5.587 5.587 0 013.435-1.171 5.62 5.62 0 015.42 4.127 2.17 2.17 0 004.187-1.15M45.487 18.68a2.17 2.17 0 00-2.668 1.52 19.854 19.854 0 01-2.225 5.098.62.62 0 01-.557-.55c-1.023-9.223-10.48-7.403-12.382 1.043l-.02.07c-1.29 3.541-2.226 8.222-5.938 8.93a19.871 19.871 0 01-10.372-4.078 20.006 20.006 0 01-7.06-10.516 2.17 2.17 0 10-4.187 1.149 24.352 24.352 0 008.59 12.801 24.232 24.232 0 0014.874 5.075 24.235 24.235 0 0014.872-5.073 24.35 24.35 0 008.592-12.8 2.17 2.17 0 00-1.519-2.668"></path></g></svg>