<svg id="Layer_1" data-name="Layer 1" xmlns="http://www.w3.org/2000/svg" viewBox="0 0 483.18 365.4">
  <style>body{
    margin: 0;
    padding: 0;
  }
  #a {
    animation-name: diamondMovesBack;
    animation-duration: 3s;
    animation-iteration-count: infinite;
    animation-timing-function: linear;
    animation-direction: alternate;
    transform-origin: left 4px;
    transform-box: fill-box;
    
    
}
@keyframes diamondMovesBack {
    10%   { transform:  rotate(2deg); }
    25%   { transform:  rotate(5deg); }
    45%   { transform:  rotate(1deg); }
    55%   { transform:  rotate(3deg); }
    65%   { transform:  rotate(0deg); }
    70%   { transform:  rotate(1deg); }
    80%   { transform:  rotate(3deg); }
    90%   { transform:  rotate(0deg); }
    95%   { transform:  rotate(3deg); }
    100%   { transform:  rotate(5deg); }
}

#b {
    animation-name: bdiamondMovesBack;
    animation-duration: 4.5s;
    animation-timing-function:linear ;
    animation-iteration-count: infinite;
    transform-origin: 50% 50%;
    animation-direction: initial;
}
@keyframes bdiamondMovesBack {
    0%   { opacity: .35; transform: translate(0, 20px); }
    10%{opacity: 1;} 
90%{opacity: 1;}
    100% { opacity: 0; transform: translate(0px, -25px); }
}
#aa {
    animation-name: smoke1;
    animation-duration: 4.5s;
    animation-timing-function:linear ;
    animation-iteration-count: infinite;
    transform-origin: 50% 50%;
    animation-direction: initial;
}
@keyframes smoke1 {
    0%   { opacity: .35; transform: translate(0, 10px); }
    10%{opacity: 1;} 
90%{opacity: 1;}
    100% { opacity: 0; transform: translate(0px, -30px); }
}
#bb {
    animation-name: smoke2;
    animation-duration: 4.5s;
    animation-timing-function:linear ;
    animation-delay: 2s;
    animation-iteration-count: infinite;
    transform-origin: 50% 50%;
    animation-direction: initial;
}
@keyframes smoke2 {
    0%   { opacity: .35; transform: translate(0, 15px); }
    10%{opacity: 1;} 
90%{opacity: 1;}
    100% { opacity: 0; transform: translate(0px, -35px); }
}
#cc {
    animation-name: smoke3;
    animation-duration: 4.5s;
    animation-timing-function:linear ;
    animation-delay: 3s;
    animation-iteration-count: infinite;
    transform-origin: 50% 50%;
    animation-direction: initial;
}
@keyframes smoke3 {
    0%   { opacity: .35; transform: translate(0, 10px); }
    10%{opacity: 1;} 
90%{opacity: 1;}
    100% { opacity: 0; transform: translate(0px, -30px); }
}
#eye{
    animation: blink 8s 1s linear infinite ;
    transform-origin: 50% 50%;
}

@keyframes blink{
    0%{opacity: 1;}
    1.5%{opacity: 0;}
    3%{opacity: 1;}
    20%{opacity: 1;}
    21%{opacity: 0;}
    22%{opacity: 1;}
    40%{opacity: 1;}
    
    70%{opacity: 1;}
    71%{opacity: 0;}
    72%{opacity: 1;}
}</style>
  <g>
    <path d="M139,265l-.85.95a40,40,0,0,0-2.89,3.86h0a59.26,59.26,0,0,0-3.37,5.89h0c-1.12,2.2-2.17,4.62-3.19,7h0c-1,2.42-2,4.81-2.91,7.14v0a47.26,47.26,0,0,0-2,6.49h0a29.19,29.19,0,0,0-.66,4.84h0c0,.38,0,.7,0,1s-2.22,20-2.22,20.09l1.62-.05c0-.08,2.22-19.94,2.22-20s0-.55,0-.9h0a26.66,26.66,0,0,1,.62-4.54h0a45.57,45.57,0,0,1,1.93-6.28h0c.85-2.27,1.88-4.68,2.89-7.08h0c1-2.39,2.05-4.77,3.15-6.93h0a54.74,54.74,0,0,1,3.26-5.72h0a38.55,38.55,0,0,1,2.78-3.71h0c.32-.36.57-.66.78-.88Z" transform="translate(-8.41 -67.3)" style="fill: #f9e2b2"/>
    <polygon points="114.33 228.78 114.33 228.78 114.33 228.78 114.33 228.78" style="fill: #f9e2b2"/>
    <polygon points="117 229.38 117 229.38 117 229.37 117 229.38" style="fill: #f9e2b2"/>
    <line x1="128.23" y1="203.36" x2="128.24" y2="203.36" style="fill: none"/>
    <polygon points="118.93 223.09 118.93 223.09 118.93 223.09 118.93 223.09" style="fill: #f9e2b2"/>
    <path d="M136.16,270.3s.32.05.87.09,1.35.06,2.28,0a41.05,41.05,0,0,0,6.35-.65c.54-.09,1.05-.21,1.57-.33a12.14,12.14,0,0,0,1.53-.55,19.11,19.11,0,0,0,3.57-2.1c.34-.26.74-.51,1.12-.82s.83-.59,1.27-.94c.91-.66,1.9-1.44,3-2.3,2.25-1.73,5-3.84,8.24-6.48l-1.49.11c-.94.06-2.29.16-3.9.34A47.37,47.37,0,0,0,149,259.27a25.76,25.76,0,0,0-5.6,2.93l-.62.44-.58.47c-.38.31-.75.6-1.09.93l-.5.46-.46.48c-.32.31-.59.63-.86.93a28.84,28.84,0,0,0-2.35,3.14C136.43,269.84,136.16,270.3,136.16,270.3Z" transform="translate(-8.41 -67.3)" style="fill: #ffefca"/>
    <path d="M136.16,270.3a7.29,7.29,0,0,1-.49-.74,10.71,10.71,0,0,1-.94-2.14,10.78,10.78,0,0,1-.5-3.45,11.29,11.29,0,0,1,1.16-4.59,12.69,12.69,0,0,1,1.64-2.5,15,15,0,0,1,2.46-2.38,17.31,17.31,0,0,1,7.23-3.15,17.66,17.66,0,0,1,2.17-.29c.74-.06,1.49-.06,2.27-.05a23.88,23.88,0,0,1,4.75.69A34.53,34.53,0,0,1,166,256.26l-1.49.11c-.94.06-2.29.16-3.9.34A47.37,47.37,0,0,0,149,259.27a25.76,25.76,0,0,0-5.6,2.93l-.62.44-.58.47c-.38.31-.75.6-1.09.93l-.5.46-.46.48c-.32.31-.59.63-.86.93a28.84,28.84,0,0,0-2.35,3.14C136.43,269.84,136.16,270.3,136.16,270.3Z" transform="translate(-8.41 -67.3)" style="fill: #f9e2b2"/>
    <path d="M129.62,218.76c-.16.44-.44,1.17-.76,2.12-.58,1.71-1.32,4.19-2.29,7.16A208.75,208.75,0,0,0,121.3,250h0l-.29,1.49-.24,1.5c-.15,1-.3,2-.46,3s-.3,2-.44,2.94-.22,1.91-.34,2.86h0c-.2,1.9-.43,3.72-.6,5.43s-.24,3.37-.35,4.87c-.06.76-.11,1.48-.16,2.17s0,1.32-.07,1.93h0c0,1.23-.08,2.3-.1,3.17s.88,38.55.88,39l2.25-.17c0-.47-.88-38.21-.88-39.13s.06-1.91.1-3.12h0c0-.58,0-1.23.07-1.93h0c0-.68.1-1.4.15-2.14.11-1.49.23-3.08.35-4.8h0c.17-1.72.4-3.52.6-5.38h0c.11-.92.2-1.87.34-2.85h0c.14-1,.29-1.92.44-2.9s.29-2,.44-2.95h0l.23-1.5.29-1.49a204.93,204.93,0,0,1,5.24-21.74v0c.93-2.92,1.68-5.36,2.26-7.08h0c.29-.8.52-1.43.68-1.89Z" transform="translate(-8.41 -67.3)" style="fill: #f9e2b2"/>
    <path d="M126.7,231.53a16.2,16.2,0,0,0,1.61-.58,38.59,38.59,0,0,0,4.09-2,39.07,39.07,0,0,0,5.54-3.71c1-.78,1.93-1.66,3-2.6a35.58,35.58,0,0,0,3-3.15A51.57,51.57,0,0,0,153.83,200c.31-1.09.6-2.2.88-3.4s.58-2.38.83-3.65.5-2.58.7-4,.49-2.77.69-4.24.36-3,.56-4.59.39-3.21.55-4.92c.08-.88.15-1.73.23-2.64s.18-1.76.27-2.69q.26-2.75.44-5.74L157.13,167c-1.18,1.74-2.9,4.2-4.76,7.25-.48.76-1,1.55-1.49,2.36s-1,1.67-1.54,2.55l-3.22,5.55-3.22,6-.81,1.59-.77,1.57L139.78,197a222.59,222.59,0,0,0-9.69,23.62c-1.1,3.27-1.93,6-2.55,7.91A29,29,0,0,0,126.7,231.53Z" transform="translate(-8.41 -67.3)" style="fill: #ffefca"/>
    <path d="M126.7,231.53a12,12,0,0,1-1.17-1,18.71,18.71,0,0,1-2.64-3.05,23,23,0,0,1-4-13.09c-.1-6,1.86-13.77,7.91-22.66.75-1.1,1.56-2.23,2.43-3.37s1.87-2.27,2.9-3.43,2.11-2.32,3.26-3.52,2.46-2.32,3.78-3.51,2.7-2.36,4.2-3.52,3.08-2.32,4.72-3.47c.82-.58,1.66-1.16,2.52-1.73s1.78-1.12,2.69-1.68q2.74-1.68,5.69-3.31L157.17,167c-1.18,1.73-2.9,4.2-4.76,7.24l-1.49,2.37c-.52.81-1,1.66-1.54,2.55l-3.22,5.55-3.22,6-.85,1.59-.77,1.57L139.78,197a222.59,222.59,0,0,0-9.69,23.62c-1.1,3.27-1.93,6-2.55,7.91A29,29,0,0,0,126.7,231.53Z" transform="translate(-8.41 -67.3)" style="fill: #f9e2b2"/>
    <path d="M100.25,244.09c.22.44.58,1.11,1,2,.81,1.61,1.92,3.95,3.28,6.76a207.59,207.59,0,0,1,8.32,21h0l.5,1.44.44,1.45c.3,1,.59,1.93.88,2.89s.58,1.91.88,2.85.49,1.86.74,2.78h0c.47,1.85,1,3.62,1.37,5.28s.71,3.29,1,4.77c.17.73.32,1.44.47,2.11s.23,1.29.34,1.91h0c.22,1.21.4,2.26.55,3.13s1.88,18.21,2,18.67l-2.26.15c-.08-.46-1.81-17.88-2-18.78l-.54-3.08h0c-.11-.58-.21-1.22-.35-1.91h0l-.44-2.09c-.31-1.46-.66-3-1-4.71h0c-.41-1.67-.88-3.42-1.36-5.23h0c-.23-.88-.46-1.82-.73-2.77h0l-.85-2.81-.88-2.86h0l-.44-1.45-.5-1.43a208.39,208.39,0,0,0-8.26-20.79h0c-1.34-2.76-2.43-5.07-3.25-6.69h0l-.93-1.76Z" transform="translate(-8.41 -67.3)" style="fill: #f9e2b2"/>
    <path d="M105,256.33s-.62-.09-1.68-.36a37.58,37.58,0,0,1-4.33-1.39,39.87,39.87,0,0,1-6-2.89c-1.09-.63-2.15-1.36-3.3-2.16a36.84,36.84,0,0,1-3.4-2.69A51.41,51.41,0,0,1,73.65,229c-.46-1-.91-2.11-1.34-3.24s-.92-2.28-1.34-3.49-.86-2.49-1.26-3.82-.88-2.66-1.27-4.09-.79-2.93-1.21-4.46-.84-3.13-1.24-4.8l-.6-2.56c-.21-.86-.44-1.73-.65-2.64-.44-1.79-.85-3.66-1.26-5.62l2.22,2.44c1.41,1.55,3.46,3.75,5.74,6.51l1.8,2.12c.63.74,1.27,1.5,1.89,2.31l4,5,4,5.51,1,1.41,1,1.45,2,2.91a224.8,224.8,0,0,1,12.94,22c1.55,3.08,2.75,5.68,3.63,7.48A27.77,27.77,0,0,1,105,256.33Z" transform="translate(-8.41 -67.3)" style="fill: #ffefca"/>
    <path d="M105,256.33a12.32,12.32,0,0,0,1-1.14,18.93,18.93,0,0,0,2.2-3.39,22.53,22.53,0,0,0,1.9-5.65,23.11,23.11,0,0,0,.18-7.87c-.75-5.95-3.79-13.36-11-21.31-.91-1-1.87-2-2.89-3s-2.17-2-3.34-3-2.43-2-3.74-3-2.76-2-4.23-2.94-3-2-4.66-2.89-3.38-1.86-5.16-2.77c-.88-.44-1.8-.91-2.73-1.36s-1.93-.88-2.91-1.28c-2-.84-4-1.67-6.11-2.48l2.23,2.44c1.41,1.56,3.46,3.75,5.73,6.51l1.81,2.13c.63.73,1.27,1.5,1.89,2.3l4,5,4,5.5,1,1.41,1,1.45,2,2.91a224.8,224.8,0,0,1,12.94,22c1.55,3.08,2.75,5.68,3.63,7.48A27.77,27.77,0,0,1,105,256.33Z" transform="translate(-8.41 -67.3)" style="fill: #f9e2b2"/>
    <path d="M120.63,321.72c-.32-1.12-.77-2.71-1.36-4.63a55,55,0,0,0-6-13.5,31.5,31.5,0,0,0-5.21-6.08h0a32.05,32.05,0,0,0-5.69-4,34.68,34.68,0,0,0-4.45-2.09h0c-.44-.17-.8-.31-1.08-.4l-.64,1.94,1,.37h0a34,34,0,0,1,4.19,2h0a29.73,29.73,0,0,1,5.33,3.78h0a29.28,29.28,0,0,1,4.86,5.68h0a52.72,52.72,0,0,1,5.75,13c.58,1.88,1,3.46,1.34,4.57h0c.12.44.22.78.29,1.06l2-.54-.3-1.07Z" transform="translate(-8.41 -67.3)" style="fill: #f9e2b2"/>
    <path d="M103.52,296.79a13.74,13.74,0,0,0,.29-1.42,15.85,15.85,0,0,0,.1-3.77,14.23,14.23,0,0,0-.44-2.5,14.07,14.07,0,0,0-1-2.75,16.11,16.11,0,0,0-4.21-5.5A18.53,18.53,0,0,0,90.52,277a20.92,20.92,0,0,0-2.49-.44,24.07,24.07,0,0,0-2.68-.15,23.4,23.4,0,0,0-5.65.72,28.12,28.12,0,0,0-11.63,6.18A39.69,39.69,0,0,0,58.4,296.4l1.88-.75c1.19-.47,2.91-1.11,5-1.76A59.62,59.62,0,0,1,81.12,291a42.68,42.68,0,0,1,8.6.54,38.85,38.85,0,0,1,7.25,2,34.06,34.06,0,0,1,4.81,2.27c.56.32,1,.57,1.28.77A4.25,4.25,0,0,0,103.52,296.79Z" transform="translate(-8.41 -67.3)" style="fill: #ffefca"/>
    <polyline points="0 255.96 483.18 255.96 483.18 253.82 0 253.82" style="fill: #ffd617"/>
    <polyline points="217.81 248.92 217.81 361.99 234.13 361.99 234.13 248.92" style="fill: #ff9100"/>
    <polyline points="234.79 246.3 273.23 352.64 288.57 347.09 250.14 240.75" style="fill: #ff9100"/>
    <path d="M244.2,376.11H223.7V304.56a8.52,8.52,0,0,1,8.5-8.52h3.48a8.51,8.51,0,0,1,8.51,8.51h0Z" transform="translate(-8.41 -67.3)" style="fill: #1f3440"/>
    <path d="M281.27,363.52l-19.28,7-24.32-67.29a8.51,8.51,0,0,1,5.1-10.89h0l3.27-1.19a8.52,8.52,0,0,1,10.9,5.12Z" transform="translate(-8.41 -67.3)" style="fill: #1f3440"/>
    <path d="M254.18,417.32h-9.13V388.37h-20.5v28.95h0v13.95A1.44,1.44,0,0,0,226,432.7h38.14a1.43,1.43,0,0,0,1.42-1.43v-2.6a11.35,11.35,0,0,0-11.34-11.35Z" transform="translate(-8.41 -67.3)" style="fill: #1f3440"/>
    <path d="M319.31,408.43l-.88-2.44a11.33,11.33,0,0,0-14.5-6.81l-8.62,3.11L285.47,375l-19.28,7,12.43,34.38h0l2.16,6a1.43,1.43,0,0,0,1.81.88h0l35.87-13A1.44,1.44,0,0,0,319.31,408.43Z" transform="translate(-8.41 -67.3)" style="fill: #1f3440"/>
    <rect x="170.03" y="132.76" width="37.6" height="23.86" style="fill: #ff9100"/>
    <path d="M229.06,77.69l-.67,7.4a4.86,4.86,0,0,1-4.62,4.49A4.71,4.71,0,0,1,219,84.93c0-.15,0-.31,0-.46l1.12-12.42a2.05,2.05,0,0,0-1.41-2.15,51.18,51.18,0,0,0-5.12-1.31,2.07,2.07,0,0,0-2.46,1.58,2,2,0,0,0,0,.24l-1.18,13a4.84,4.84,0,0,1-4.62,4.48,4.7,4.7,0,0,1-4.75-4.64c0-.16,0-.33,0-.49l1.2-13.25a2.06,2.06,0,0,0-1.88-2.24h-.25c-1.77.06-3.53.19-5.27.4a2.05,2.05,0,0,0-1.76,1.86l-1.1,12.2a4.84,4.84,0,0,1-4.63,4.48,4.69,4.69,0,0,1-4.74-4.64,3.54,3.54,0,0,1,0-.46l.68-7.63A2.05,2.05,0,0,0,181,71.27a2.19,2.19,0,0,0-1,.13,57.64,57.64,0,0,0-36,48.33l-3.78,41.85A43.8,43.8,0,0,0,180,209.15l27.6,2.5A43.8,43.8,0,0,0,255.15,172l3.78-41.85a57.64,57.64,0,0,0-26.73-54,2.07,2.07,0,0,0-2.84.66A2.13,2.13,0,0,0,229.06,77.69Z" transform="translate(-8.41 -67.3)" style="fill: #ff9100"/>
    <path d="M224.88,238.48l1.61-8.59-1.63,8.58h0l1.63-8.58-1.63,8.58.2-1-.2,1h0l.2-1-.2,1s3,.58,7.38,1.86a104.22,104.22,0,0,1,11.52,4.06A75.78,75.78,0,0,1,253,249a49.22,49.22,0,0,1,6.08,4.27,26.65,26.65,0,0,1,6.23,7.19,16.23,16.23,0,0,1,1.57,3.78,15.31,15.31,0,0,1,.55,4.15,21.88,21.88,0,0,1-1.54,7.75,45.9,45.9,0,0,1-5.81,10.51l15,10.73a63.83,63.83,0,0,0,8.12-14.8,40.26,40.26,0,0,0,2.7-14.19,33.94,33.94,0,0,0-2.94-13.9,38.94,38.94,0,0,0-6.27-9.75,59.33,59.33,0,0,0-14.84-11.95,107.81,107.81,0,0,0-22.52-9.63,109.7,109.7,0,0,0-11-2.83l-3.41,18.13Z" transform="translate(-8.41 -67.3)" style="fill: #ff9100"/>
    <path d="M229,243.8l-1.63-9.6,1.46,9.62.17,0-1.63-9.6,1.46,9.62-.51-3.38.49,3.39h0l-.51-3.38.49,3.38h0a20,20,0,0,1,2.45-.12,30.27,30.27,0,0,1,8.91,1.35,27.85,27.85,0,0,1,5.32,2.3,27.26,27.26,0,0,1,5.36,3.95l19.95-21.16a56.52,56.52,0,0,0-27-14.19,59.83,59.83,0,0,0-12.51-1.35,46,46,0,0,0-7.13.51L229,243.8Z" transform="translate(-8.41 -67.3)" style="fill: #ffd505"/>
    <path d="M218.1,321.05H171.46a15,15,0,0,1-15-15h0V220.36h76.71V306A15,15,0,0,1,218.1,321.05Z" transform="translate(-8.41 -67.3)" style="fill: #ff9100"/>
    <path d="M233.22,321.05H169.13a12.77,12.77,0,0,1-12.78-12.74V272.38h76.87Z" transform="translate(-8.41 -67.3)" style="fill: #1f3440"/>
    <rect x="147.94" y="147.86" width="76.87" height="76.87" style="fill: #ffd505"/>
    <path d="M220.73,182.52a17.6,17.6,0,0,1-32.33-3Z" transform="translate(-8.41 -67.3)" style="fill: #5b3103"/>
    <path d="M176.1,184.54a9.54,9.54,0,0,0,6.63-8.23,8.51,8.51,0,0,0,0-.88,9.5,9.5,0,0,0-5.05-8.4,2.49,2.49,0,0,0-2.33,4.4,4.52,4.52,0,0,1,2.42,4v.42a4.63,4.63,0,0,1-1,2.48,4.47,4.47,0,0,1-2.16,1.46,2.48,2.48,0,1,0,1.49,4.74h0Z" transform="translate(-8.41 -67.3)" style="fill: #fcaa47"/>
    <path d="M234.25,185.19a4.68,4.68,0,0,1-1.76-1.66,4.49,4.49,0,0,1-.67-2.37v-.42a4.53,4.53,0,0,1,3.15-3.93,2.48,2.48,0,0,0-1.51-4.73,9.53,9.53,0,0,0-6.6,8.22c0,.29,0,.58,0,.88a9.54,9.54,0,0,0,5.09,8.42,2.49,2.49,0,1,0,2.32-4.4Z" transform="translate(-8.41 -67.3)" style="fill: #fcaa47"/>
    <path d="M205.68,186.51l-14.23-1.29a17.58,17.58,0,0,0,18.43,6A4.63,4.63,0,0,0,205.68,186.51Z" transform="translate(-8.41 -67.3)" style="fill: #fe4c00"/>
    <polyline points="147.94 177.69 153.91 177.69 153.91 176.99 147.94 176.99" style="fill: #fe4c00"/>
    <g id="eye">
      <path d="M223.93,150.41l-.44,4.83a2.49,2.49,0,0,0,4.95.44l.44-4.83a2.49,2.49,0,0,0-4.95-.44" transform="translate(-8.41 -67.3)" style="fill: #3d2407"/>
      <path d="M189.26,147.2l-.44,4.84a2.48,2.48,0,1,0,4.94.44l.44-4.84a2.49,2.49,0,0,0-4.95-.44" transform="translate(-8.41 -67.3)" style="fill: #3d2407"/>
    </g>
    <path d="M268.44,276.49H255.19a3.26,3.26,0,0,1,3.27-3.26h10Z" transform="translate(-8.41 -67.3)" style="fill: #ff9100"/>
    <path d="M249.92,290.51,249,289l1.17-.68.9,1.55a.58.58,0,0,1-.2.77h0l-.19.12a.58.58,0,0,1-.78-.19Z" transform="translate(-8.41 -67.3)" style="fill: #1a1a1a"/>
    <polygon points="240.93 222.27 232.97 216.33 240.87 211.72 242.13 221.57 241.53 221.92 240.93 222.27" style="fill: #ffefca"/>
    <g id="a">
      <path d="M132.61,226.73a71.85,71.85,0,0,0-14.55,9.81,76.29,76.29,0,0,0-13.33,15.25,33,33,0,0,0-3.86,7.66,24.8,24.8,0,0,0-1.4,8.09,22.59,22.59,0,0,0,1.4,7.8,24.06,24.06,0,0,0,3.21,5.89,31.12,31.12,0,0,0,8.4,7.65A53.21,53.21,0,0,0,129,295.51a85.75,85.75,0,0,0,19.62,2.16,100.26,100.26,0,0,0,35-6.28,84.91,84.91,0,0,0,16.7-8.42,72,72,0,0,0,14.55-12.54L201,258.24a53.54,53.54,0,0,1-10.83,9.32,69.86,69.86,0,0,1-20.1,8.84,83.12,83.12,0,0,1-21.45,2.83A70,70,0,0,1,135,278a45.87,45.87,0,0,1-8.2-2.4,27,27,0,0,1-4.48-2.29,14.83,14.83,0,0,1-2.27-1.76,7.87,7.87,0,0,1-1.7-2.19,4,4,0,0,1-.4-1.76,6.43,6.43,0,0,1,.4-2.13,15.24,15.24,0,0,1,1.76-3.4,57.26,57.26,0,0,1,10.09-11.55,52.79,52.79,0,0,1,10.8-7.32l-8.38-16.43Z" transform="translate(-8.41 -67.3)" style="fill: #ff9100"/>
      <path d="M216.58,251.06l-1.32-1.76,1.28,1.79h0l-1.32-1.76,1.28,1.79-.18-.26.18.26h0l-.18-.26.18.26a11.6,11.6,0,0,1,2.06-1.09,12,12,0,0,1,4.68-1,9.42,9.42,0,0,1,3.67.72A12.34,12.34,0,0,1,231,252.6a3.55,3.55,0,0,0,5.16-4.88l-.1-.1a19.54,19.54,0,0,0-6.45-4.44,16.75,16.75,0,0,0-6.37-1.26,19.4,19.4,0,0,0-7.72,1.69,17.7,17.7,0,0,0-3.19,1.76,3.55,3.55,0,0,0,4.19,5.71Z" transform="translate(-8.41 -67.3)" style="fill: #ff9100"/>
      <path d="M210.54,230.8l1.32,2.26,7.89-4.61-1.32-2.26A3.25,3.25,0,0,0,214,225l-2.29,1.32a3.24,3.24,0,0,0-1.18,4.43Z" transform="translate(-8.41 -67.3)" style="fill: #f15a24"/>
      <rect x="227.31" y="231.56" width="9.14" height="53.39" transform="matrix(0.86, -0.5, 0.5, 0.86, -106.99, 84.85)" style="fill: #ffd505"/>
      <rect x="212.37" y="229.74" width="9.14" height="5.87" transform="translate(-96.13 73.83) rotate(-30.28)" style="fill: #333"/>
      <rect x="212.66" y="232.61" width="9.14" height="1.16" transform="translate(-96.37 74.1) rotate(-30.29)" style="fill: #4d4d4d"/>
      <rect x="230.55" y="231.29" width="3.57" height="53.39" transform="translate(-106.79 85.05) rotate(-30.28)" style="fill: #ffbc00"/>
      <path d="M221.05,274.29,197.64,264l5.84-13.23A10.3,10.3,0,0,1,217,245.44h0l14,6.17a10.29,10.29,0,0,1,5.28,13.57h0l-1.7,3.84a10.29,10.29,0,0,1-13.56,5.26Z" transform="translate(-8.41 -67.3)" style="fill: #ff9100"/>
    </g>
    <polygon points="194.69 229.43 229.54 229.43 270.19 215.58 237.28 213.32 194.69 229.43" style="fill: #f9d793"/>
    <path d="M164.75,215.68a44.51,44.51,0,0,0-7.11-.51,59.29,59.29,0,0,0-17.59,2.69,56.21,56.21,0,0,0-21.93,12.85l19.94,21.16a27.26,27.26,0,0,1,5.36-4,28.07,28.07,0,0,1,7.87-3,31,31,0,0,1,6.37-.69c.94,0,1.67.05,2.08.09a2.21,2.21,0,0,1,.36,0h0l1.06-7.41-1.25,7.38.19,0,1.06-7.41-1.25,7.38,4.86-28.68Z" transform="translate(-8.41 -67.3)" style="fill: #ffd505"/>
    <polygon points="237.28 215.59 194.69 229.43 194.69 221.17 237.28 207.34 237.28 215.59" style="fill: #ffefca"/>
    <rect x="237.29" y="207.34" width="32.91" height="8.24" style="fill: #ffe7b6"/>
    <polygon points="237.28 209.19 205.1 219.44 237.28 209.92 237.28 209.19" style="fill: #f9d793"/>
    <path d="M208.79,290.6l29.82-9S216.58,289.18,208.79,290.6Z" transform="translate(-8.41 -67.3)" style="fill: #f9d793"/>
    <polygon points="194.69 226.7 208.5 223.3 194.69 227.5 194.69 226.7" style="fill: #efc77f"/>
    <path d="M271.36,299.85H255.09a10.75,10.75,0,0,1-10.75-10.75h0a2.35,2.35,0,0,1,2.37-2.33h28.76v9A4.11,4.11,0,0,1,271.36,299.85Z" transform="translate(-8.41 -67.3)" style="fill: #ff9100"/>
    <polygon points="106.09 227.14 106.09 227.14 106.09 227.14 106.09 227.14" style="fill: #eb5929"/>
    <polygon points="103.78 229.72 103.78 229.72 103.78 229.72 103.78 229.72" style="fill: #eb5929"/>
  </g>
  <g id="aa">
    <path d="M326.81,291.79a5,5,0,0,0-.75,3.95c.46,1.76,1.75,2.05,2.2,4.22a5.74,5.74,0,0,1-.25,3.26,7,7,0,0,1-1.2,1.92,3.74,3.74,0,0,0-.25,1.87,4.47,4.47,0,0,0,1.27,2.48" transform="translate(-8.41 -67.3)" style="fill: none;stroke: #dedede;stroke-linecap: round;stroke-linejoin: round;stroke-width: 4px"/>
  </g>
  <g id="cc">
    <path d="M341.86,291.64a5,5,0,0,0-.75,3.95c.46,1.76,1.75,2.05,2.2,4.21a5.77,5.77,0,0,1-.25,3.27,7,7,0,0,1-1.2,1.92,3.74,3.74,0,0,0-.25,1.87,4.51,4.51,0,0,0,1.27,2.48" transform="translate(-8.41 -67.3)" style="fill: none;stroke: #dedede;stroke-linecap: round;stroke-linejoin: round;stroke-width: 4px"/>
  </g>
  <g id="bb">
    <path d="M334.06,288.33a5.08,5.08,0,0,0-.75,3.95c.46,1.76,1.75,2.05,2.2,4.22a5.65,5.65,0,0,1-.25,3.26,6.29,6.29,0,0,1-1.2,1.92,3.78,3.78,0,0,0-.24,1.87,4.48,4.48,0,0,0,1.26,2.49" transform="translate(-8.41 -67.3)" style="fill: none;stroke: #dedede;stroke-linecap: round;stroke-linejoin: round;stroke-width: 4px"/>
  </g>
    <path d="M357.1,295.48a9.49,9.49,0,0,0-6.74-2.8h-1.12V288a1.88,1.88,0,0,0-1.88-1.88H321.83a1.89,1.89,0,0,0-1.89,1.88v31.44a1.89,1.89,0,0,0,1.89,1.88h25.54a1.88,1.88,0,0,0,1.88-1.88h0v-2.74h1.13a9.53,9.53,0,0,0,9.52-9.53v-4.94A9.49,9.49,0,0,0,357.1,295.48Zm-1.47,11.67a5.27,5.27,0,0,1-5.27,5.28h-1.12V296.94h1.12a5.27,5.27,0,0,1,5.27,5.27Z" transform="translate(-8.41 -67.3)" style="fill: #ff9100"/>
    <path d="M329.4,299.48a3.41,3.41,0,0,0-6.59,0,.75.75,0,0,0,1.44.4,1.92,1.92,0,0,1,3.71,0,.75.75,0,0,0,1.44-.39Z" transform="translate(-8.41 -67.3)" style="fill: #fffaee"/>
    <path d="M338.84,299.48a3.42,3.42,0,0,0-6.6,0,.75.75,0,0,0,.52.92.74.74,0,0,0,.92-.52,2,2,0,0,1,.68-1,1.94,1.94,0,0,1,3,1,.74.74,0,1,0,1.43-.4Z" transform="translate(-8.41 -67.3)" style="fill: #fffaee"/>
    <path d="M338.38,303.38a.74.74,0,0,0-.91.52h0a7,7,0,0,1-.76,1.76.21.21,0,0,1-.19-.19c-.36-3.16-3.6-2.54-4.25.36h0c-.44,1.21-.77,2.82-2,3.08a6.85,6.85,0,0,1-6-5,.75.75,0,0,0-.95-.46.77.77,0,0,0-.49.86,8.36,8.36,0,0,0,16.1,0,.76.76,0,0,0-.51-.93Z" transform="translate(-8.41 -67.3)" style="fill: #fffaee"/>
    <path d="M344.78,296.19V310.5a1.07,1.07,0,1,0,2.13,0V296.19a1.07,1.07,0,0,0-2.13,0" transform="translate(-8.41 -67.3)" style="fill: #fcc27c"/>
    <path d="M344.78,291v1.7a1.07,1.07,0,1,0,2.13,0V291a1.07,1.07,0,0,0-2.13,0h0" transform="translate(-8.41 -67.3)" style="fill: #fcc27c"/>
</svg>