<?xml version="1.0" encoding="UTF-8" standalone="no"?>
<svg xmlns:dc="http://purl.org/dc/elements/1.1/" xmlns:cc="http://creativecommons.org/ns#"
   xmlns:rdf="http://www.w3.org/1999/02/22-rdf-syntax-ns#" xmlns:svg="http://www.w3.org/2000/svg"
   xmlns="http://www.w3.org/2000/svg" xmlns:sodipodi="http://sodipodi.sourceforge.net/DTD/sodipodi-0.dtd"
   xmlns:inkscape="http://www.inkscape.org/namespaces/inkscape" version="1.1" id="svg2" xml:space="preserve"
   viewBox="0 0 164.33586 37.701599" sodipodi:docname="tastiest.svg" inkscape:version="1.0.1 (3bc2e813f5, 2020-09-07)">
   <metadata id="metadata8">
      <rdf:RDF>
         <cc:Work rdf:about="">
            <dc:format>image/svg+xml</dc:format>
            <dc:type rdf:resource="http://purl.org/dc/dcmitype/StillImage" />
            <dc:title />
         </cc:Work>
      </rdf:RDF>
   </metadata>
   <defs id="defs6">
      <clipPath clipPathUnits="userSpaceOnUse" id="clipPath18">
         <path d="M 0,216 H 449 V 0 H 0 Z" id="path16" />
      </clipPath>
   </defs>
   <sodipodi:namedview pagecolor="#ffffff" bordercolor="#666666" borderopacity="1" objecttolerance="10"
      gridtolerance="10" guidetolerance="10" inkscape:pageopacity="0" inkscape:pageshadow="2"
      inkscape:window-width="1920" inkscape:window-height="1014" id="namedview4" showgrid="false"
      inkscape:zoom="1.9927616" inkscape:cx="-95.109437" inkscape:cy="-60.184802" inkscape:window-x="0"
      inkscape:window-y="32" inkscape:window-maximized="1" inkscape:current-layer="g12"
      inkscape:document-rotation="0" />
   <g id="g10" inkscape:groupmode="layer" inkscape:label="Final_logo"
      transform="matrix(1.3333333,0,0,-1.3333333,-394.44279,83.815198)">
      <g id="g12">
         <g id="g164" transform="translate(317.5601,60.6294)">
            <path
               d="m 0,0 c 0,1.228 -1.004,2.232 -2.232,2.232 h -17.264 c -1.228,0 -2.232,-1.004 -2.232,-2.232 0,-1.265 1.004,-2.269 2.232,-2.269 h 6.363 v -21.469 c 0,-1.264 1.004,-2.269 2.269,-2.269 1.228,0 2.233,1.005 2.233,2.269 v 21.469 h 6.399 C -1.004,-2.269 0,-1.265 0,0"
               style="fill:#fe4c00;fill-opacity:1;fill-rule:nonzero;stroke:none" id="path166" />
         </g>
         <g id="g168" transform="translate(321.2314,39.7139)">
            <path
               d="m 0,0 c -2.666,0 -4.867,2.125 -4.867,4.79 0,2.665 2.201,4.828 4.867,4.828 2.626,0 4.828,-2.163 4.828,-4.828 C 4.828,2.125 2.626,0 0,0 M 7.957,14.292 C 6.682,14.292 5.91,13.288 5.91,12.09 V 11.897 C 4.249,13.249 2.317,14.138 0,14.138 c -5.176,0 -9.348,-4.211 -9.348,-9.348 0,-5.138 4.172,-9.31 9.348,-9.31 2.317,0 4.249,0.851 5.91,2.279 v -0.463 c 0,-1.197 0.772,-2.202 2.047,-2.202 1.274,0 2.241,1.005 2.241,2.202 V 12.09 c 0,1.198 -0.967,2.202 -2.241,2.202"
               style="fill:#fe4c00;fill-opacity:1;fill-rule:nonzero;stroke:none" id="path170" />
         </g>
         <g id="g172" transform="translate(344.0444,46.0146)">
            <path
               d="m 0,0 c -1.274,0.579 -2.548,0.579 -3.552,0.618 -0.618,0 -1.197,0 -1.584,0.115 -0.308,0.117 -0.656,0.619 -0.695,0.812 -0.154,1.661 2.008,1.738 3.167,1.544 C -1.969,2.973 -1.583,2.703 -1.042,2.317 -0.733,2.124 -0.386,2.008 -0.038,1.97 0.695,1.893 1.429,2.163 1.931,2.703 2.781,3.63 2.704,5.097 1.777,5.947 0.811,6.835 -0.347,7.376 -1.892,7.646 -3.938,7.994 -6.758,7.724 -8.689,5.947 -9.577,5.097 -10.62,3.591 -10.426,1.158 c 0.154,-2.008 1.776,-4.094 3.784,-4.749 1.081,-0.387 2.124,-0.425 3.051,-0.425 0.695,0 1.313,0 1.66,-0.193 0.387,-0.155 0.85,-0.541 0.85,-1.082 0,-0.425 -0.231,-0.85 -0.617,-1.081 -1.468,-0.965 -4.055,-0.077 -4.751,0.58 -0.926,0.849 -2.394,0.81 -3.243,-0.155 -0.889,-0.928 -0.811,-2.395 0.115,-3.244 1.274,-1.197 3.746,-2.202 6.218,-2.202 1.467,0 2.896,0.31 4.209,1.16 1.66,1.119 2.665,2.973 2.665,4.942 C 3.515,-3.051 2.124,-0.965 0,0"
               style="fill:#fe4c00;fill-opacity:1;fill-rule:nonzero;stroke:none" id="path174" />
         </g>
         <g id="g176" transform="translate(366.2485,51.3345)">
            <path
               d="m 0,0 c -1.302,0 -2.345,-1.005 -2.345,-2.27 v -11.912 c 0,-1.265 1.043,-2.307 2.345,-2.307 1.227,0 2.27,1.042 2.27,2.307 V -2.27 C 2.27,-1.005 1.227,0 0,0"
               style="fill:#fe4c00;fill-opacity:1;fill-rule:nonzero;stroke:none" id="path178" />
         </g>
         <g id="g180" transform="translate(376.1655,46.8672)">
            <path
               d="M 0,0 C 0.918,1.415 2.449,2.295 4.209,2.295 5.931,2.295 7.346,1.453 8.111,0 Z M 5.893,6.772 C 5.318,6.886 4.782,6.925 4.209,6.925 c -5.318,0 -9.565,-4.362 -9.565,-9.603 0,-5.319 4.247,-9.604 9.565,-9.604 2.181,0 5.127,0.688 7.231,2.716 0.918,0.88 0.957,2.373 0.038,3.253 -0.88,0.918 -2.333,0.918 -3.252,0.038 -0.995,-0.957 -2.793,-1.454 -4.017,-1.454 -2.373,0 -4.324,1.683 -4.86,3.864 h 11.785 c 0.918,0 1.569,0.651 1.875,1.378 0.153,0.382 0.306,0.765 0.306,1.11 0.077,1.261 -0.612,2.678 -1.224,3.749 -1.378,2.295 -3.597,3.902 -6.198,4.4"
               style="fill:#fe4c00;fill-opacity:1;fill-rule:nonzero;stroke:none" id="path182" />
         </g>
         <g id="g184" transform="translate(401.8467,46.0098)">
            <path
               d="m 0,0 c -1.273,0.579 -2.547,0.579 -3.551,0.618 -0.618,0 -1.197,0 -1.582,0.115 -0.309,0.116 -0.657,0.618 -0.696,0.811 -0.154,1.66 2.008,1.737 3.166,1.544 0.695,-0.116 1.08,-0.386 1.621,-0.772 C -0.733,2.123 -0.386,2.007 -0.038,1.969 0.695,1.892 1.429,2.162 1.93,2.702 2.779,3.628 2.702,5.095 1.776,5.945 0.811,6.833 -0.347,7.373 -1.891,7.643 -3.937,7.99 -6.755,7.721 -8.685,5.945 c -0.888,-0.85 -1.93,-2.355 -1.737,-4.787 0.154,-2.007 1.776,-4.092 3.783,-4.748 1.08,-0.386 2.123,-0.424 3.049,-0.424 0.695,0 1.313,0 1.66,-0.194 0.387,-0.154 0.85,-0.54 0.85,-1.08 0,-0.425 -0.232,-0.85 -0.618,-1.082 -1.467,-0.964 -4.053,-0.076 -4.748,0.58 -0.927,0.85 -2.393,0.81 -3.242,-0.155 -0.888,-0.926 -0.812,-2.393 0.115,-3.242 1.274,-1.197 3.744,-2.201 6.215,-2.201 1.467,0 2.895,0.31 4.207,1.159 1.66,1.119 2.664,2.972 2.664,4.941 C 3.513,-3.049 2.123,-0.965 0,0"
               style="fill:#fe4c00;fill-opacity:1;fill-rule:nonzero;stroke:none" id="path186" />
         </g>
         <g id="g188" transform="translate(370.8823,60.1274)">
            <path
               d="m 0,0 c -0.897,0.247 -1.825,-0.281 -2.071,-1.179 -0.175,-0.635 -0.555,-1.193 -1.068,-1.589 -0.514,-0.396 -1.145,-0.628 -1.846,-0.629 -0.702,10e-4 -1.333,0.233 -1.847,0.629 -0.513,0.396 -0.894,0.954 -1.069,1.59 -0.246,0.898 -1.173,1.426 -2.071,1.179 -0.897,-0.246 -1.425,-1.173 -1.179,-2.071 0.36,-1.31 1.129,-2.44 2.151,-3.268 l 0.08,-0.072 0.026,-0.024 c 1.077,-0.835 2.442,-1.335 3.909,-1.334 1.465,-0.001 2.83,0.499 3.907,1.334 1.079,0.834 1.884,2.006 2.257,3.363 C 1.425,-1.173 0.897,-0.247 0,0"
               style="fill:#fe4c00;fill-opacity:1;fill-rule:nonzero;stroke:none" id="path190" />
         </g>
         <g id="g192" transform="translate(356.8218,45.5557)">
            <path
               d="m 0,0 v 0.922 1.534 h 0.059 1.169 l 0.058,0.005 h 0.871 c 1.267,0 2.304,1.038 2.304,2.306 0,1.267 -1.037,2.304 -2.304,2.304 H 0.059 0 v 0.93 H -0.003 V 8.008 L 0,8.04 v 1.194 1.714 1.442 c 0,1.234 -1.01,2.243 -2.244,2.243 -1.234,0 -2.244,-1.009 -2.244,-2.243 V 10.46 9.234 8.304 8.04 7.071 h -2.47 c -1.268,0 -2.305,-1.037 -2.305,-2.304 0,-1.268 1.037,-2.306 2.305,-2.306 h 0.835 l 0.059,-0.005 h 1.576 v 0.188 l 0.023,-0.227 v -8.104 c 0,-1.154 0.521,-2.493 1.266,-3.349 0.855,-0.967 2.046,-1.488 3.274,-1.674 0.229,-0.025 0.444,-0.032 0.661,-0.035 l 0.03,-0.003 h 1.457 c 1.231,0 2.238,1.008 2.238,2.239 0,1.232 -1.007,2.239 -2.238,2.239 H 0.766 L 0.669,-6.28 C 0.513,-6.27 0.364,-6.237 0.26,-6.134 0,-5.911 0.075,-5.464 0,-5.167 v 3.934 z"
               style="fill:#fe4c00;fill-opacity:1;fill-rule:nonzero;stroke:none" id="path194" />
         </g>
         <g id="g196" transform="translate(414.623,45.5557)">
            <path
               d="m 0,0 v 0.922 1.534 h 0.059 1.17 l 0.056,0.005 h 0.871 c 1.268,0 2.305,1.038 2.305,2.306 0,1.267 -1.037,2.304 -2.305,2.304 H 0.059 0 v 0.93 H -0.003 V 8.008 L 0,8.04 v 1.194 1.714 1.442 c 0,1.234 -1.01,2.243 -2.244,2.243 -1.235,0 -2.244,-1.009 -2.244,-2.243 V 10.46 9.234 8.304 8.04 7.071 h -2.47 c -1.268,0 -2.305,-1.037 -2.305,-2.304 0,-1.268 1.037,-2.306 2.305,-2.306 h 0.835 l 0.059,-0.005 h 1.576 v 0.188 l 0.023,-0.227 v -8.104 c 0,-1.154 0.521,-2.493 1.266,-3.349 0.855,-0.967 2.046,-1.488 3.273,-1.674 0.23,-0.025 0.445,-0.032 0.662,-0.035 l 0.03,-0.003 h 1.456 c 1.232,0 2.239,1.008 2.239,2.239 0,1.232 -1.007,2.239 -2.239,2.239 H 0.766 L 0.669,-6.28 C 0.513,-6.27 0.363,-6.237 0.261,-6.134 0,-5.911 0.074,-5.464 0,-5.167 v 3.934 z"
               style="fill:#fe4c00;fill-opacity:1;fill-rule:nonzero;stroke:none" id="path198" />
         </g>



      </g>
   </g>
</svg>