<svg id="Layer_1" data-name="Layer 1" xmlns="http://www.w3.org/2000/svg" xmlns:xlink="http://www.w3.org/1999/xlink" viewBox="830 0 1000.1 355.03">
 <style>

#line2{
    animation: l2 20s  linear infinite;
    animation-direction: inherit;
    transform-origin: center;
}
@keyframes l2 {
    0%{transform: translateX(0px)}
   
    
    100%{transform: translateX(-850px)}
}
#line1{
    animation: l1 20s linear infinite;
    animation-direction: inherit;
    transform-origin: center;
}
@keyframes l1 {
    0%{transform: translateX(0px)}
    
    100%{transform: translateX(-850px)}
}
#line3{
    animation: l3 20s linear infinite;
    animation-direction: inherit;
    transform-origin: center;
}
@keyframes l3 {
    0%{transform: translateX(0px)}
    
    100%{transform: translateX(-850px)}
}
#a{
    animation: a 20s linear infinite;
    animation-direction: inherit;
    transform-origin: center;
}
@keyframes a {
    0%{opacity: 0; transform: translateX(0px)}
    17%{opacity: 0;}
    19%{opacity: 1;}
     
     
    90%{opacity: 1;}
    92%{opacity: 0;}
    100%{opacity: 0; transform: translateX(-1100px)}
}

#b{
    animation: b 20s 3.3s linear infinite;
    animation-direction: inherit;
    transform-origin: center;
}
@keyframes b {
    0%{opacity: 0; transform: translateX(0px)}
    17%{opacity: 0;}
    19%{opacity: 1;}
     
    90%{opacity: 1;}
    92%{opacity: 0;}
    100%{opacity: 0; transform: translateX(-1100px)}
}

#c{
    animation: c 20s 6.6s linear infinite;
    animation-direction: inherit;
    transform-origin: center;
}
@keyframes c {
    0%{opacity: 0; transform: translateX(0px)}
    17%{opacity: 0;}
    19%{opacity: 1;}
    
    
   90%{opacity: 1;}
   92%{opacity: 0;}
    100%{opacity: 0; transform: translateX(-1100px)}
}


#d{
    animation: d 20s 9.9s linear infinite;
    animation-direction: inherit;
    transform-origin: center;
}
@keyframes d {
    0%{opacity: 0; transform: translateX(0px)}
    17%{opacity: 0;}
    19%{opacity: 1;}
     
     
    90%{opacity: 1;}
    92%{opacity: 0;}
    100%{opacity: 0; transform: translateX(-1100px)}
}
#e{
    animation: e 20s 13.2s linear infinite;
    animation-direction: inherit;
    transform-origin: center;
}
@keyframes e {
    0%{opacity: 0; transform: translateX(0px)}
    17%{opacity: 0;}
    19%{opacity: 1;}
    
    
   90%{opacity: 1;}
   92%{opacity: 0;}
    100%{opacity: 0; transform: translateX(-1100px)}
}
#f{
    animation: f 20s 16.5s linear infinite;
    animation-direction: inherit;
    transform-origin: center;
}
@keyframes f {
    0%{opacity: 0; transform: translateX(0px)}
    17%{opacity: 0;}
    19%{opacity: 1;}
     
     
    90%{opacity: 1;}
    92%{opacity: 0;}
    100%{opacity: 0; transform: translateX(-1100px)}
}
#man1{
    animation: man1 6.5s  linear forwards;
  
    transform-origin: center;

}

@keyframes man1 {
    0%{ transform: translateY(100px)}
    60%{ transform: translateY(100px)}
   
    100%{ transform: translateY(-20px)}
}
#eye1{
    animation: e1 2s 1.5s linear infinite;
    
    transform-origin: 10% 80%;
    transform-box: fill-box}
    @keyframes e1{

        0%{transform: rotateX(0deg);}
        20%{transform: rotateX(0deg);}
        35%{transform: rotateX(0deg);}
        65%{transform: rotateX(0deg);}
        75%{transform: rotateX(80deg);}
        80%{transform: rotateX(0deg);}
        85%{transform: rotateX(80deg);}
        95%{transform: rotateX(0deg);}
}
#eye2{
    animation: e2 2s 1.5s linear infinite;
    
    transform-origin: 10% 80%;
    transform-box: fill-box}
    @keyframes e2{

        0%{transform: rotateX(0deg);}
        20%{transform: rotateX(0deg);}
        35%{transform: rotateX(0deg);}
        65%{transform: rotateX(0deg);}
        75%{transform: rotateX(80deg);}
        80%{transform: rotateX(0deg);}
        85%{transform: rotateX(80deg);}
        95%{transform: rotateX(0deg);}
}
#n{
    animation-name: sdiamondOpacity;
    animation-duration: 14s;

    animation-iteration-count: 1;
  
}
@keyframes sdiamondOpacity {
    0%   { opacity: 0; transform: translateY(10px); }
    90%   { opacity: 0; transform: translateY(10px); }
    91%  { opacity: 1;transform: translateX(0px); }
    100% { opacity: 1; }
}
#n2{
    stroke-dasharray: 2000px;
    stroke-dashoffset: 2000px;
     
     animation: s2 10s 13s linear  forwards ;
 }
   @keyframes s2{
       
       to{
           stroke-dashoffset:0;
       }
}


#pp{
    animation-name: pp;
    animation-duration: 10s;
  
    animation-iteration-count: 1;
    animation-direction: alternate;
}
@keyframes pp {
    0%   { opacity: 0; transform: translateY(10px); }
    70%   { opacity: 0; transform: translateY(10px); }
    71%  { opacity: 1;transform: translateX(0px); }
    100% { opacity: 1; }
}
 </style>
 
  <defs>
    <clipPath id="clip-path" transform="translate(791.68 -111.15)">
      <rect x="81" width="914.73" height="466.18" style="fill: none"/>
    </clipPath>
    <linearGradient id="linear-gradient" x1="1139.74" y1="287" x2="1089.33" y2="155.68" gradientTransform="matrix(1, 0, 0, -1, 0, 528)" gradientUnits="userSpaceOnUse">
      <stop offset="0.03" stop-color="#fff" stop-opacity="0"/>
      <stop offset="0.16" stop-color="#fefcf7" stop-opacity="0.05"/>
      <stop offset="0.41" stop-color="#fcf4e2" stop-opacity="0.19"/>
      <stop offset="0.73" stop-color="#f8e6c0" stop-opacity="0.4"/>
      <stop offset="1" stop-color="#f4daa2" stop-opacity="0.6"/>
    </linearGradient>
    <clipPath id="clip-path-2" transform="translate(791.68 -111.15)">
      <path d="M1154.94,246.83h-78c3.32,13.85,9.88,19,15.06,21.18,9.36,4,18.28,0,24.8,5.39,4.08,3.39,5.79,9.3,4,14-3.81,9.88-20.41,7.39-28.79,18-6.79,8.55-4.73,21.29.88,29.45,8.36,12,22.56,11.25,26.62,21.15,3.19,7.82-3,17.62-9.08,24.42h15.72c27.41-15.48,32.39-24.73,30.56-30.52-2.67-8.43-19.25-7.83-27-20.83-5.06-8.48-5.13-20.64,2.22-26.21,6.88-5.22,14.35-.16,23.47-5.39,11-6.28,14.92-22.05,8.42-29.8-2.46-2.92-5.29-3.25-7.62-7.14a16.08,16.08,0,0,1-1.24-13.68" style="fill: none"/>
    </clipPath>
    <linearGradient id="linear-gradient-2" x1="1152.18" y1="288.72" x2="1095.15" y2="140.14" gradientTransform="matrix(1, 0, 0, -1, 791.68, 416.85)" xlink:href="#linear-gradient"/>
  </defs>
  <g style="clip-path: url(#clip-path)">
    <g id="Layer_1-2" data-name="Layer 1">
      <g id="man1">
        <rect x="1579.72" y="312.44" width="45.37" height="39.07" style="fill: #ffd366"/>
        <path d="M815.28,432.9H802.19a48.06,48.06,0,0,1-47.64-41.71l-6.26-46.85c-5.64-42.3,21.61-82.07,60.44-82.07h0c38.84,0,66.09,39.77,60.45,82.07l-6.26,46.85A48.06,48.06,0,0,1,815.28,432.9Z" transform="translate(791.68 -111.15)" style="fill: #ffd366"/>
        <path d="M820.23,231.06l24.63,7.73a22.22,22.22,0,0,1,14.55,27.86l-5.71,18.2h0l-67-21h0l5.72-18.23A22.22,22.22,0,0,1,820.23,231.06Z" transform="translate(791.68 -111.15)" style="fill: #fe4c00"/>
        <path d="M761.66,250.36h0a5.72,5.72,0,0,1,7.18-3.75l49.28,15.46h0l-2.65,8.45a9.26,9.26,0,0,1-11.61,6.06h0l-34.11-10.7A12.38,12.38,0,0,1,761.66,250.36Z" transform="translate(791.68 -111.15)" style="fill: #fe4c00"/>
        <circle cx="1629.53" cy="258.72" r="4.44" style="fill: #ffe19f"/>
        <g id="eye2">
          <line x1="1604.43" y1="236.44" x2="1604.43" y2="243.12" style="fill: none;stroke: #4f3102;stroke-linecap: round;stroke-miterlimit: 10;stroke-width: 7px"/>
          <line x1="1561.57" y1="236.44" x2="1561.57" y2="243.12" style="fill: none;stroke: #4f3102;stroke-linecap: round;stroke-miterlimit: 10;stroke-width: 7px"/>
        </g>
        <path d="M786.16,376.49h0a10.1,10.1,0,0,1,10.09,10.1v10.1a10.1,10.1,0,0,1-10.09,10.1h0a10.1,10.1,0,0,1-10.1-10.1v-10.1A10.1,10.1,0,0,1,786.16,376.49Z" transform="translate(791.68 -111.15)" style="fill: #4f3102"/>
        <line x1="1581.66" y1="142.1" x2="1602.22" y2="148.55" style="fill: none;stroke: #bc3708;stroke-miterlimit: 10"/>
      </g>
      <path d="M94.25,388.84H982.9a12,12,0,0,1,11.94,11.94h0v52.28H82.31V400.78a12,12,0,0,1,11.94-11.94Z" transform="translate(791.68 -111.15)" style="fill: #fdedc8"/>
      <path d="M82.31,453.06H994.84v6.12a7,7,0,0,1-7,7H89.66a7.35,7.35,0,0,1-7.35-7.35h0v-5.75h0Z" transform="translate(791.68 -111.15)" style="fill: #f4d79d"/>
      <g id="line1" style="opacity: 0.47000000000000003">
        <polygon points="1869.88 342.05 1868.61 342.05 1868.51 277.83 1869.78 277.83 1869.88 342.05" style="fill: #e5c88f"/>
        <polygon points="1890.41 342.05 1889.14 342.05 1889.05 277.83 1890.32 277.83 1890.41 342.05" style="fill: #e5c88f"/>
        <polygon points="1910.94 342.05 1909.67 342.05 1909.58 277.83 1910.85 277.83 1910.94 342.05" style="fill: #e5c88f"/>
        <polygon points="1931.47 342.05 1930.2 342.05 1930.11 277.83 1931.38 277.83 1931.47 342.05" style="fill: #e5c88f"/>
        <polygon points="1952.02 342.05 1950.74 342.05 1950.64 277.83 1951.91 277.83 1952.02 342.05" style="fill: #e5c88f"/>
        <polygon points="1972.55 342.05 1971.28 342.05 1971.17 277.83 1972.44 277.83 1972.55 342.05" style="fill: #e5c88f"/>
        <polygon points="1993.08 342.05 1991.81 342.05 1991.7 277.83 1992.97 277.83 1993.08 342.05" style="fill: #e5c88f"/>
        <polygon points="2013.62 342.05 2012.35 342.05 2012.24 277.83 2013.52 277.83 2013.62 342.05" style="fill: #e5c88f"/>
        <polygon points="1768.08 342.05 1766.81 342.05 1766.7 277.83 1767.97 277.83 1768.08 342.05" style="fill: #e5c88f"/>
        <polygon points="1788.61 342.05 1787.34 342.05 1787.23 277.83 1788.51 277.83 1788.61 342.05" style="fill: #e5c88f"/>
        <polygon points="1809.13 342.05 1807.87 342.05 1807.77 277.83 1809.04 277.83 1809.13 342.05" style="fill: #e5c88f"/>
        <polygon points="1829.67 342.05 1828.4 342.05 1828.31 277.83 1829.58 277.83 1829.67 342.05" style="fill: #e5c88f"/>
        <polygon points="1850.2 342.05 1848.93 342.05 1848.84 277.83 1850.11 277.83 1850.2 342.05" style="fill: #e5c88f"/>
        <polygon points="2034.22 342.05 2032.95 342.05 2032.86 277.83 2034.13 277.83 2034.22 342.05" style="fill: #e5c88f"/>
        <polygon points="2054.76 342.05 2053.49 342.05 2053.39 277.83 2054.66 277.83 2054.76 342.05" style="fill: #e5c88f"/>
        <polygon points="2075.3 342.05 2074.03 342.05 2073.93 277.83 2075.2 277.83 2075.3 342.05" style="fill: #e5c88f"/>
        <polygon points="2095.82 342.05 2094.55 342.05 2094.45 277.83 2095.72 277.83 2095.82 342.05" style="fill: #e5c88f"/>
        <polygon points="2116.36 342.05 2115.09 342.05 2114.99 277.83 2116.26 277.83 2116.36 342.05" style="fill: #e5c88f"/>
        <polygon points="2136.89 342.05 2135.63 342.05 2135.53 277.83 2136.8 277.83 2136.89 342.05" style="fill: #e5c88f"/>
        <polygon points="2157.43 342.05 2156.16 342.05 2156.05 277.83 2157.32 277.83 2157.43 342.05" style="fill: #e5c88f"/>
        <polygon points="2177.95 342.05 2176.68 342.05 2176.59 277.83 2177.86 277.83 2177.95 342.05" style="fill: #e5c88f"/>
        <polygon points="2200.91 342.05 2199.64 342.05 2199.53 277.83 2200.8 277.83 2200.91 342.05" style="fill: #e5c88f"/>
        <polygon points="2221.43 342.05 2220.16 342.05 2220.07 277.83 2221.34 277.83 2221.43 342.05" style="fill: #e5c88f"/>
        <polygon points="2241.97 342.05 2240.7 342.05 2240.61 277.83 2241.88 277.83 2241.97 342.05" style="fill: #e5c88f"/>
        <polygon points="2262.51 342.05 2261.24 342.05 2261.14 277.83 2262.41 277.83 2262.51 342.05" style="fill: #e5c88f"/>
        <polygon points="2283.03 342.05 2281.76 342.05 2281.66 277.83 2282.93 277.83 2283.03 342.05" style="fill: #e5c88f"/>
        <polygon points="2303.57 342.05 2302.3 342.05 2302.2 277.83 2303.47 277.83 2303.57 342.05" style="fill: #e5c88f"/>
        <polygon points="2324.11 342.05 2322.84 342.05 2322.74 277.83 2324.01 277.83 2324.11 342.05" style="fill: #e5c88f"/>
        <polygon points="2344.64 342.05 2343.36 342.05 2343.26 277.83 2344.53 277.83 2344.64 342.05" style="fill: #e5c88f"/>
        <polygon points="2365.18 342.05 2363.91 342.05 2363.8 277.83 2365.07 277.83 2365.18 342.05" style="fill: #e5c88f"/>
        <polygon points="2385.7 342.05 2384.43 342.05 2384.34 277.83 2385.61 277.83 2385.7 342.05" style="fill: #e5c88f"/>
        <polygon points="2406.24 342.05 2404.97 342.05 2404.86 277.83 2406.14 277.83 2406.24 342.05" style="fill: #e5c88f"/>
        <polygon points="2426.78 342.05 2425.51 342.05 2425.41 277.83 2426.68 277.83 2426.78 342.05" style="fill: #e5c88f"/>
        <polygon points="2447.3 342.05 2446.03 342.05 2445.93 277.83 2447.2 277.83 2447.3 342.05" style="fill: #e5c88f"/>
        <polygon points="2467.84 342.05 2466.57 342.05 2466.47 277.83 2467.74 277.83 2467.84 342.05" style="fill: #e5c88f"/>
        <polygon points="2488.36 342.05 2487.11 342.05 2487.01 277.83 2488.28 277.83 2488.36 342.05" style="fill: #e5c88f"/>
        <polygon points="2508.91 342.05 2507.64 342.05 2507.53 277.83 2508.8 277.83 2508.91 342.05" style="fill: #e5c88f"/>
        <polygon points="2529.43 342.05 2528.16 342.05 2528.07 277.83 2529.34 277.83 2529.43 342.05" style="fill: #e5c88f"/>
        <polygon points="2549.97 342.05 2548.7 342.05 2548.61 277.83 2549.88 277.83 2549.97 342.05" style="fill: #e5c88f"/>
        <polygon points="2570.51 342.05 2569.24 342.05 2569.14 277.83 2570.41 277.83 2570.51 342.05" style="fill: #e5c88f"/>
        <polygon points="2591.03 342.05 2589.76 342.05 2589.66 277.83 2590.93 277.83 2591.03 342.05" style="fill: #e5c88f"/>
        <polygon points="2611.57 342.05 2610.3 342.05 2610.2 277.83 2611.47 277.83 2611.57 342.05" style="fill: #e5c88f"/>
        <polygon points="2632.11 342.05 2630.84 342.05 2630.74 277.83 2632.01 277.83 2632.11 342.05" style="fill: #e5c88f"/>
      </g>
      <g id="line3" style="opacity: 0.47000000000000003">
        <polygon points="103.17 342.05 101.9 342.05 101.8 277.83 103.07 277.83 103.17 342.05" style="fill: #e5c88f"/>
        <polygon points="123.71 342.05 122.44 342.05 122.34 277.83 123.61 277.83 123.71 342.05" style="fill: #e5c88f"/>
        <polygon points="144.24 342.05 142.97 342.05 142.87 277.83 144.14 277.83 144.24 342.05" style="fill: #e5c88f"/>
        <polygon points="164.77 342.05 163.5 342.05 163.4 277.83 164.67 277.83 164.77 342.05" style="fill: #e5c88f"/>
        <polygon points="185.31 342.05 184.04 342.05 183.94 277.83 185.21 277.83 185.31 342.05" style="fill: #e5c88f"/>
        <polygon points="205.84 342.05 204.57 342.05 204.47 277.83 205.74 277.83 205.84 342.05" style="fill: #e5c88f"/>
        <polygon points="226.37 342.05 225.1 342.05 225 277.83 226.27 277.83 226.37 342.05" style="fill: #e5c88f"/>
        <polygon points="246.91 342.05 245.64 342.05 245.54 277.83 246.81 277.83 246.91 342.05" style="fill: #e5c88f"/>
        <polygon points="1.37 342.05 0.1 342.05 0 277.83 1.27 277.83 1.37 342.05" style="fill: #e5c88f"/>
        <polygon points="21.9 342.05 20.63 342.05 20.53 277.83 21.8 277.83 21.9 342.05" style="fill: #e5c88f"/>
        <polygon points="42.43 342.05 41.16 342.05 41.06 277.83 42.33 277.83 42.43 342.05" style="fill: #e5c88f"/>
        <polygon points="62.97 342.05 61.7 342.05 61.6 277.83 62.87 277.83 62.97 342.05" style="fill: #e5c88f"/>
        <polygon points="83.5 342.05 82.23 342.05 82.13 277.83 83.4 277.83 83.5 342.05" style="fill: #e5c88f"/>
        <polygon points="267.52 342.05 266.25 342.05 266.15 277.83 267.42 277.83 267.52 342.05" style="fill: #e5c88f"/>
        <polygon points="288.05 342.05 286.79 342.05 286.69 277.83 287.96 277.83 288.05 342.05" style="fill: #e5c88f"/>
        <polygon points="308.59 342.05 307.32 342.05 307.22 277.83 308.49 277.83 308.59 342.05" style="fill: #e5c88f"/>
        <polygon points="329.12 342.05 327.85 342.05 327.75 277.83 329.02 277.83 329.12 342.05" style="fill: #e5c88f"/>
        <polygon points="349.65 342.05 348.38 342.05 348.29 277.83 349.55 277.83 349.65 342.05" style="fill: #e5c88f"/>
        <polygon points="370.19 342.05 368.92 342.05 368.82 277.83 370.09 277.83 370.19 342.05" style="fill: #e5c88f"/>
        <polygon points="390.72 342.05 389.45 342.05 389.35 277.83 390.62 277.83 390.72 342.05" style="fill: #e5c88f"/>
        <polygon points="411.25 342.05 409.98 342.05 409.89 277.83 411.16 277.83 411.25 342.05" style="fill: #e5c88f"/>
        <polygon points="434.2 342.05 432.93 342.05 432.83 277.83 434.1 277.83 434.2 342.05" style="fill: #e5c88f"/>
        <polygon points="454.73 342.05 453.46 342.05 453.36 277.83 454.63 277.83 454.73 342.05" style="fill: #e5c88f"/>
        <polygon points="475.27 342.05 474 342.05 473.9 277.83 475.17 277.83 475.27 342.05" style="fill: #e5c88f"/>
        <polygon points="495.8 342.05 494.53 342.05 494.43 277.83 495.7 277.83 495.8 342.05" style="fill: #e5c88f"/>
        <polygon points="516.33 342.05 515.06 342.05 514.96 277.83 516.23 277.83 516.33 342.05" style="fill: #e5c88f"/>
        <polygon points="536.87 342.05 535.6 342.05 535.5 277.83 536.77 277.83 536.87 342.05" style="fill: #e5c88f"/>
        <polygon points="557.4 342.05 556.13 342.05 556.03 277.83 557.3 277.83 557.4 342.05" style="fill: #e5c88f"/>
        <polygon points="577.93 342.05 576.66 342.05 576.56 277.83 577.83 277.83 577.93 342.05" style="fill: #e5c88f"/>
        <polygon points="598.47 342.05 597.2 342.05 597.1 277.83 598.37 277.83 598.47 342.05" style="fill: #e5c88f"/>
        <polygon points="619 342.05 617.73 342.05 617.63 277.83 618.9 277.83 619 342.05" style="fill: #e5c88f"/>
        <polygon points="639.53 342.05 638.26 342.05 638.16 277.83 639.43 277.83 639.53 342.05" style="fill: #e5c88f"/>
        <polygon points="660.07 342.05 658.8 342.05 658.7 277.83 659.97 277.83 660.07 342.05" style="fill: #e5c88f"/>
        <polygon points="680.6 342.05 679.33 342.05 679.23 277.83 680.5 277.83 680.6 342.05" style="fill: #e5c88f"/>
        <polygon points="701.13 342.05 699.86 342.05 699.76 277.83 701.03 277.83 701.13 342.05" style="fill: #e5c88f"/>
        <polygon points="721.66 342.05 720.4 342.05 720.3 277.83 721.57 277.83 721.66 342.05" style="fill: #e5c88f"/>
        <polygon points="742.2 342.05 740.93 342.05 740.83 277.83 742.1 277.83 742.2 342.05" style="fill: #e5c88f"/>
        <polygon points="762.73 342.05 761.46 342.05 761.36 277.83 762.63 277.83 762.73 342.05" style="fill: #e5c88f"/>
        <polygon points="783.27 342.05 782 342.05 781.9 277.83 783.17 277.83 783.27 342.05" style="fill: #e5c88f"/>
        <polygon points="803.8 342.05 802.53 342.05 802.43 277.83 803.7 277.83 803.8 342.05" style="fill: #e5c88f"/>
        <polygon points="824.33 342.05 823.06 342.05 822.96 277.83 824.23 277.83 824.33 342.05" style="fill: #e5c88f"/>
        <polygon points="844.87 342.05 843.59 342.05 843.5 277.83 844.77 277.83 844.87 342.05" style="fill: #e5c88f"/>
        <polygon points="865.4 342.05 864.13 342.05 864.03 277.83 865.3 277.83 865.4 342.05" style="fill: #e5c88f"/>
      </g>
      <g id="line2" style="opacity: 0.47000000000000003">
        <polygon points="984.19 341.91 982.92 341.91 982.82 277.69 984.09 277.69 984.19 341.91" style="fill: #e5c88f"/>
        <polygon points="1004.73 341.91 1003.46 341.91 1003.36 277.69 1004.63 277.69 1004.73 341.91" style="fill: #e5c88f"/>
        <polygon points="1025.26 341.91 1023.99 341.91 1023.89 277.69 1025.16 277.69 1025.26 341.91" style="fill: #e5c88f"/>
        <polygon points="1045.79 341.91 1044.52 341.91 1044.42 277.69 1045.69 277.69 1045.79 341.91" style="fill: #e5c88f"/>
        <polygon points="1066.33 341.91 1065.06 341.91 1064.96 277.69 1066.23 277.69 1066.33 341.91" style="fill: #e5c88f"/>
        <polygon points="1086.86 341.91 1085.59 341.91 1085.49 277.69 1086.76 277.69 1086.86 341.91" style="fill: #e5c88f"/>
        <polygon points="1107.39 341.91 1106.12 341.91 1106.02 277.69 1107.29 277.69 1107.39 341.91" style="fill: #e5c88f"/>
        <polygon points="1127.93 341.91 1126.66 341.91 1126.56 277.69 1127.83 277.69 1127.93 341.91" style="fill: #e5c88f"/>
        <polygon points="882.39 341.91 881.12 341.91 881.02 277.69 882.29 277.69 882.39 341.91" style="fill: #e5c88f"/>
        <polygon points="902.92 341.91 901.65 341.91 901.55 277.69 902.82 277.69 902.92 341.91" style="fill: #e5c88f"/>
        <polygon points="923.45 341.91 922.18 341.91 922.08 277.69 923.35 277.69 923.45 341.91" style="fill: #e5c88f"/>
        <polygon points="943.99 341.91 942.72 341.91 942.62 277.69 943.89 277.69 943.99 341.91" style="fill: #e5c88f"/>
        <polygon points="964.52 341.91 963.25 341.91 963.15 277.69 964.42 277.69 964.52 341.91" style="fill: #e5c88f"/>
        <polygon points="1148.54 341.91 1147.27 341.91 1147.17 277.69 1148.44 277.69 1148.54 341.91" style="fill: #e5c88f"/>
        <polygon points="1169.07 341.91 1167.81 341.91 1167.71 277.69 1168.98 277.69 1169.07 341.91" style="fill: #e5c88f"/>
        <polygon points="1189.61 341.91 1188.34 341.91 1188.24 277.69 1189.51 277.69 1189.61 341.91" style="fill: #e5c88f"/>
        <polygon points="1210.14 341.91 1208.87 341.91 1208.77 277.69 1210.04 277.69 1210.14 341.91" style="fill: #e5c88f"/>
        <polygon points="1230.67 341.91 1229.4 341.91 1229.31 277.69 1230.57 277.69 1230.67 341.91" style="fill: #e5c88f"/>
        <polygon points="1251.21 341.91 1249.94 341.91 1249.84 277.69 1251.11 277.69 1251.21 341.91" style="fill: #e5c88f"/>
        <polygon points="1271.74 341.91 1270.47 341.91 1270.37 277.69 1271.64 277.69 1271.74 341.91" style="fill: #e5c88f"/>
        <polygon points="1292.27 341.91 1291 341.91 1290.91 277.69 1292.18 277.69 1292.27 341.91" style="fill: #e5c88f"/>
        <polygon points="1315.22 341.91 1313.95 341.91 1313.85 277.69 1315.12 277.69 1315.22 341.91" style="fill: #e5c88f"/>
        <polygon points="1335.75 341.91 1334.48 341.91 1334.38 277.69 1335.65 277.69 1335.75 341.91" style="fill: #e5c88f"/>
        <polygon points="1356.29 341.91 1355.02 341.91 1354.92 277.69 1356.19 277.69 1356.29 341.91" style="fill: #e5c88f"/>
        <polygon points="1376.82 341.91 1375.55 341.91 1375.45 277.69 1376.72 277.69 1376.82 341.91" style="fill: #e5c88f"/>
        <polygon points="1397.35 341.91 1396.08 341.91 1395.98 277.69 1397.25 277.69 1397.35 341.91" style="fill: #e5c88f"/>
        <polygon points="1417.89 341.91 1416.62 341.91 1416.52 277.69 1417.79 277.69 1417.89 341.91" style="fill: #e5c88f"/>
        <polygon points="1438.42 341.91 1437.15 341.91 1437.05 277.69 1438.32 277.69 1438.42 341.91" style="fill: #e5c88f"/>
        <polygon points="1458.95 341.91 1457.68 341.91 1457.58 277.69 1458.85 277.69 1458.95 341.91" style="fill: #e5c88f"/>
        <polygon points="1479.49 341.91 1478.22 341.91 1478.12 277.69 1479.39 277.69 1479.49 341.91" style="fill: #e5c88f"/>
        <polygon points="1500.02 341.91 1498.75 341.91 1498.65 277.69 1499.92 277.69 1500.02 341.91" style="fill: #e5c88f"/>
        <polygon points="1520.55 341.91 1519.28 341.91 1519.18 277.69 1520.45 277.69 1520.55 341.91" style="fill: #e5c88f"/>
        <polygon points="1541.09 341.91 1539.82 341.91 1539.72 277.69 1540.99 277.69 1541.09 341.91" style="fill: #e5c88f"/>
        <polygon points="1561.62 341.91 1560.35 341.91 1560.25 277.69 1561.52 277.69 1561.62 341.91" style="fill: #e5c88f"/>
        <polygon points="1582.15 341.91 1580.88 341.91 1580.78 277.69 1582.05 277.69 1582.15 341.91" style="fill: #e5c88f"/>
        <polygon points="1602.68 341.91 1601.42 341.91 1601.32 277.69 1602.59 277.69 1602.68 341.91" style="fill: #e5c88f"/>
        <polygon points="1623.22 341.91 1621.95 341.91 1621.85 277.69 1623.12 277.69 1623.22 341.91" style="fill: #e5c88f"/>
        <polygon points="1643.75 341.91 1642.48 341.91 1642.38 277.69 1643.65 277.69 1643.75 341.91" style="fill: #e5c88f"/>
        <polygon points="1664.29 341.91 1663.02 341.91 1662.92 277.69 1664.19 277.69 1664.29 341.91" style="fill: #e5c88f"/>
        <polygon points="1684.82 341.91 1683.55 341.91 1683.45 277.69 1684.72 277.69 1684.82 341.91" style="fill: #e5c88f"/>
        <polygon points="1705.35 341.91 1704.08 341.91 1703.98 277.69 1705.25 277.69 1705.35 341.91" style="fill: #e5c88f"/>
        <polygon points="1725.89 341.91 1724.61 341.91 1724.52 277.69 1725.79 277.69 1725.89 341.91" style="fill: #e5c88f"/>
        <polygon points="1746.42 341.91 1745.15 341.91 1745.05 277.69 1746.32 277.69 1746.42 341.91" style="fill: #e5c88f"/>
      </g>
      <path d="M93.06,464.11a7.82,7.82,0,0,0,7.13-11.05H85.93a7.82,7.82,0,0,0,7.13,11.05Z" transform="translate(791.68 -111.15)" style="fill: #fff"/>
      <path d="M349.56,464.11a7.82,7.82,0,0,0,7.13-11.05H342.43a7.82,7.82,0,0,0,7.13,11.05Z" transform="translate(791.68 -111.15)" style="fill: #fff"/>
      <path d="M660.05,464.11a7.83,7.83,0,0,0,7.14-11.05H652.92a7.84,7.84,0,0,0,7.13,11.05Z" transform="translate(791.68 -111.15)" style="fill: #fff"/>
      <path d="M985.07,464.11a7.82,7.82,0,0,0,7.13-11.05H977.94a7.82,7.82,0,0,0,7.13,11.05Z" transform="translate(791.68 -111.15)" style="fill: #fff"/>
      <g id="n">
        <rect x="1156.03" y="46.91" width="58.93" height="49.25" rx="15.44" style="fill: #fdedc8"/>
        <path d="M407.69,175.36a8.55,8.55,0,0,0-2.19-3L405,172H405a8.51,8.51,0,0,0-8.48-.89,8.46,8.46,0,0,0-2.63,1.83,8.51,8.51,0,0,0-14.61,5.95,8.53,8.53,0,0,0,2.08,5.58l.05.06,9.91,9.53a3.7,3.7,0,0,0,2.57,1,3.79,3.79,0,0,0,1.37-.26,3.7,3.7,0,0,0,1.21-.78l9.9-9.53v-.06a8.74,8.74,0,0,0,1.37-9.11Z" transform="translate(791.68 -111.15)" style="fill: #fe4c00"/>
        <path d="M394.22,201.61v6.75a8.48,8.48,0,0,1-8.48,8.48H379.2" transform="translate(791.68 -111.15)" style="fill: none;stroke: #fdedc8;stroke-linecap: round;stroke-miterlimit: 10;stroke-width: 6px"/>
      </g>
      <g id="n2">
        <line x1="1216.93" y1="43.53" x2="1226.72" y2="33.98" style="fill: none;stroke: #ffd505;stroke-linecap: round;stroke-miterlimit: 10;stroke-width: 6px"/>
        <line x1="1221.95" y1="55.36" x2="1232.65" y2="55.36" style="fill: none;stroke: #ffd505;stroke-linecap: round;stroke-miterlimit: 10;stroke-width: 6px"/>
        <line x1="1204.83" y1="39.87" x2="1204.83" y2="30.86" style="fill: none;stroke: #ffd505;stroke-linecap: round;stroke-miterlimit: 10;stroke-width: 6px"/>
      </g>
      <rect x="250.14" y="258.92" width="27.94" height="44.02" transform="translate(728.95 374.35) rotate(-78.81)" style="fill: #ff9100"/>
      <path d="M319.37,127.07l-1.69,8.55a5.68,5.68,0,0,1-5.94,4.65,5.5,5.5,0,0,1-4.95-6c0-.18,0-.36.08-.53l2.83-14.32a2.41,2.41,0,0,0-1.38-2.67c-1.88-.82-3.82-1.55-5.8-2.19a2.42,2.42,0,0,0-3.06,1.54,2.86,2.86,0,0,0-.07.28l-3,15a5.66,5.66,0,0,1-5.94,4.65,5.51,5.51,0,0,1-5-6c0-.17.05-.35.08-.52l3-15.29a2.42,2.42,0,0,0-1.93-2.84l-.27,0q-3.12-.23-6.2-.18a2.38,2.38,0,0,0-2.29,2l-2.79,14.07a5.67,5.67,0,0,1-5.93,4.65,5.5,5.5,0,0,1-5-6,4.34,4.34,0,0,1,.07-.52l1.74-8.8a2.41,2.41,0,0,0-3-2.79A67.47,67.47,0,0,0,215.2,165.6l-9.55,48.27A51.3,51.3,0,0,0,246,274.13l31.82,6.29a51.29,51.29,0,0,0,60.3-40.3l0-.12,9.54-48.26a67.48,67.48,0,0,0-24.48-66.15,2.42,2.42,0,0,0-3.38.44A2.5,2.5,0,0,0,319.37,127.07Z" transform="translate(791.68 -111.15)" style="fill: #ff9100"/>
      <path d="M302.43,226.61a14.67,14.67,0,0,1-26.28-4.31" transform="translate(791.68 -111.15)" style="fill: none;stroke: #5b3103;stroke-linecap: round;stroke-miterlimit: 10;stroke-width: 7px"/>
      <path d="M249.9,227.67a8.24,8.24,0,0,0,3-14.91" transform="translate(791.68 -111.15)" style="fill: none;stroke: #fcaa47;stroke-linecap: round;stroke-miterlimit: 10;stroke-width: 7px"/>
      <path d="M319.09,241.38A8.25,8.25,0,0,1,322,226.44" transform="translate(791.68 -111.15)" style="fill: none;stroke: #fcaa47;stroke-linecap: round;stroke-miterlimit: 10;stroke-width: 7px"/>
      <path d="M285,388.84H193.81l21-105.5a8.25,8.25,0,0,1,9.68-6.48l67.38,13.33a13.07,13.07,0,0,1,10.29,15.35v0Z" transform="translate(791.68 -111.15)" style="fill: #ffd505"/>
      <path d="M188.27,315a75.08,75.08,0,0,0-7.51,37.69c2.49,46.63,68.57,24.32,73.57-37.16" transform="translate(791.68 -111.15)" style="fill: none;stroke: #ff9100;stroke-miterlimit: 10;stroke-width: 23px"/>
      <path d="M309.17,339a74.78,74.78,0,0,1-7.4,37.71c-20,42.17-49.2,1.88-30.42-56.88" transform="translate(791.68 -111.15)" style="fill: none;stroke: #ff9100;stroke-miterlimit: 10;stroke-width: 23px"/>
      <path d="M184.52,327.1a45.92,45.92,0,0,1,23.7-33.1s7.66-4.13,16.51,1.85" transform="translate(791.68 -111.15)" style="fill: none;stroke: #ffd505;stroke-miterlimit: 10;stroke-width: 34px"/>
      <g id="eye1">
        <line x1="1065.23" y1="85.52" x2="1063.42" y2="94.68" style="fill: none;stroke: #5b3103;stroke-linecap: round;stroke-miterlimit: 10;stroke-width: 7px"/>
        <line x1="1105.98" y1="93.58" x2="1104.17" y2="102.74" style="fill: none;stroke: #5b3103;stroke-linecap: round;stroke-miterlimit: 10;stroke-width: 7px"/>
      </g>
      <path d="M208.7,314.86s2.38-4.48,7.18-5.54" transform="translate(791.68 -111.15)" style="fill: none;stroke: #fe4c00;stroke-miterlimit: 10"/>
      <path d="M308.9,355.26c7.81-23.44-5.23-40.26-5.23-40.26s-4-6.93-14.24-7.62" transform="translate(791.68 -111.15)" style="fill: none;stroke: #ffd505;stroke-miterlimit: 10;stroke-width: 34px"/>
      <path d="M236.91,310.51l1.14-5.77a17.81,17.81,0,0,1,20.92-14l7.24,1.43a3.83,3.83,0,0,1,3,4.48l-6.68,33.76a3.81,3.81,0,0,1-4.48,3l-6.75-1.33a18.31,18.31,0,0,1-14.4-21.52Z" transform="translate(791.68 -111.15)" style="fill: #ff9100"/>
      <path d="M261.5,330.19l6.68-33.72a3.8,3.8,0,0,1,4.47-3l7.24,1.43a17.8,17.8,0,0,1,14,20.92l-1.14,5.77A18.3,18.3,0,0,1,271.24,336l-6.75-1.33a3.81,3.81,0,0,1-3-4.48Z" transform="translate(791.68 -111.15)" style="fill: #ff9100"/>
      <path d="M293.05,349.94l1.65-8a8.78,8.78,0,0,1,3.15-5.11l3.2-2.54" transform="translate(791.68 -111.15)" style="fill: none;stroke: #fe4c00;stroke-miterlimit: 10"/>
      <g id="c">
        <path d="M1086.92,383.22h99.8v8a41.84,41.84,0,0,1-41.84,41.84h-16.16a41.84,41.84,0,0,1-41.84-41.84v-8Z" transform="translate(791.68 -111.15)" style="fill: #284877"/>
        <g>
          <polyline points="1886.78 288.11 1889.6 288.11 1889.6 290.92 1883.98 290.92 1883.98 285.43 1892.28 285.43 1892.28 290.92 1900.7 290.92 1900.7 285.43 1895.08 285.43 1895.08 288.18 1897.89 288.18" style="fill: none;stroke: #fff;stroke-miterlimit: 10"/>
          <polyline points="1906.61 288.11 1909.42 288.11 1909.42 290.92 1903.81 290.92 1903.81 285.43 1912.1 285.43 1912.1 290.92 1920.53 290.92 1920.53 285.43 1914.91 285.43 1914.91 288.18 1917.72 288.18" style="fill: none;stroke: #fff;stroke-miterlimit: 10"/>
          <polyline points="1940.53 288.11 1943.34 288.11 1943.34 290.92 1937.72 290.92 1937.72 285.43 1946.01 285.43 1946.01 290.92 1954.44 290.92 1954.44 285.43 1948.82 285.43 1948.82 288.18 1951.63 288.18" style="fill: none;stroke: #fff;stroke-miterlimit: 10"/>
          <polyline points="1960.35 288.11 1963.16 288.11 1963.16 290.92 1957.55 290.92 1957.55 285.43 1965.84 285.43 1965.84 290.92 1974.27 290.92 1974.27 285.43 1968.65 285.43 1968.65 288.18 1971.45 288.18" style="fill: none;stroke: #fff;stroke-miterlimit: 10"/>
        </g>
        <path d="M1095.91,373.38h81.79a9,9,0,0,1,9,9h0a9,9,0,0,1-9,9h-81.79a9,9,0,0,1-9-9h0A9,9,0,0,1,1095.91,373.38Z" transform="translate(791.68 -111.15)" style="fill: #12243a"/>
        <path d="M1096.48,377.42h79.89a7.28,7.28,0,0,1,7.28,7.28h0a6.66,6.66,0,0,1-6.66,6.66h-81.13a6.66,6.66,0,0,1-6.66-6.66h0A7.28,7.28,0,0,1,1096.48,377.42Z" transform="translate(791.68 -111.15)" style="fill: #fc6"/>
        <path d="M1138,374.47h23.69a14.34,14.34,0,0,1,14.34,14.34h-52.34A14.35,14.35,0,0,1,1138,374.47Z" transform="translate(791.68 -111.15)" style="fill: #f4daa2"/>
        <path d="M1127,388.81v-1c0-6.16,6.14-11.16,13.71-11.16h18c7.57,0,13.71,5,13.71,11.16v1" transform="translate(791.68 -111.15)" style="fill: none;stroke: #e2b969;stroke-miterlimit: 10"/>
        <path d="M1130.55,388.81v-1.29c0-4.53,4.51-8.2,10.07-8.2h18.22c5.56,0,10.07,3.67,10.07,8.2v1.29" transform="translate(791.68 -111.15)" style="fill: #f4daa2;stroke: #e2b969;stroke-miterlimit: 10"/>
        <path d="M1135.58,388.81v-1.66c0-2.82,2.81-5.11,6.27-5.11h15.76c3.46,0,6.27,2.29,6.27,5.11v1.66" transform="translate(791.68 -111.15)" style="fill: none;stroke: #e2b969;stroke-miterlimit: 10"/>
        <polygon points="1912.59 268.68 1898.99 268.68 1889.13 255.77 1902.73 255.77 1912.59 268.68" style="fill: #1d3519"/>
        <line x1="1894.89" y1="268.68" x2="1916.16" y2="268.68" style="fill: none;stroke: #e5a128;stroke-linecap: round;stroke-miterlimit: 10;stroke-width: 0.5px"/>
        <g>
          <path d="M1117.35,384.71c1.43,4.62-3.29,9.51-10.31,11.7s-13.68.83-15.11-3.79,3.09-10.13,10.11-12.31S1115.91,380.1,1117.35,384.71Z" transform="translate(791.68 -111.15)" style="fill: #c98712"/>
          <ellipse cx="1103.31" cy="384.49" rx="13.26" ry="7.78" transform="matrix(0.95, -0.3, 0.3, 0.95, 727.11, 238.93)" style="fill: #efbf6c"/>
          <path d="M1098.22,384.48a18.91,18.91,0,0,1,7.51-.78,7.91,7.91,0,0,1,3.14.95,3,3,0,0,1,1.41,1.6,2.6,2.6,0,0,1-.57,2.36,7.86,7.86,0,0,1-3.93,2.43,11.63,11.63,0,0,1-4.73.49,4.75,4.75,0,0,1-1.94-.58,1.74,1.74,0,0,1-.83-.92,1.56,1.56,0,0,1,.34-1.36,4.86,4.86,0,0,1,2.43-1.49,7.2,7.2,0,0,1,3-.31l.11-1a8.46,8.46,0,0,0-3.35.35,5.94,5.94,0,0,0-2.92,1.84,2.5,2.5,0,0,0-.49,2.22,2.72,2.72,0,0,0,1.26,1.47,5.81,5.81,0,0,0,2.33.72,12.89,12.89,0,0,0,5.13-.53,8.64,8.64,0,0,0,4.42-2.79,3.57,3.57,0,0,0,.72-3.22,3.88,3.88,0,0,0-1.84-2.14,8.75,8.75,0,0,0-3.53-1.08,19.57,19.57,0,0,0-7.9.81,17.24,17.24,0,0,0-4.6,2.2,8.64,8.64,0,0,0-1.69,3.09l.3-.46A12.53,12.53,0,0,1,1098.22,384.48Z" transform="translate(791.68 -111.15)" style="fill: #af710e"/>
          <path d="M1132.35,386.87c0,.49-.76.75-1.13,1.19s-.3,1.15-.79,1.45-1.15-.1-1.67.09-.76.94-1.29,1.07-1.11-.4-1.64-.32-.94.77-1.47.81-1-.58-1.57-.58-1.07.61-1.57.58-1-.73-1.47-.81-1.16.44-1.65.32-.83-.89-1.28-1.07-1.27.15-1.67-.09-.5-1.1-.8-1.45-1.13-.7-1.13-1.19.77-.76,1.14-1.2.29-1.15.79-1.45,1.15.11,1.67-.09.76-.93,1.28-1.07,1.12.4,1.65.32.94-.76,1.47-.8,1,.58,1.57.58,1.07-.62,1.57-.58,1,.73,1.47.8,1.16-.44,1.64-.32.83.9,1.29,1.07,1.26-.15,1.67.09.5,1.1.79,1.45S1132.35,386.37,1132.35,386.87Z" transform="translate(791.68 -111.15)" style="fill: #fdedc8"/>
          <path d="M1132.35,386.33c0,.5-.76.76-1.13,1.2s-.3,1.15-.79,1.45-1.15-.11-1.67.09-.76.93-1.29,1.07-1.11-.4-1.64-.32-.94.76-1.47.8-1-.57-1.57-.57-1.07.61-1.57.57-1-.72-1.47-.8-1.16.44-1.65.32-.83-.89-1.28-1.07-1.27.15-1.67-.09-.5-1.1-.8-1.45-1.13-.7-1.13-1.2.77-.75,1.14-1.19.29-1.15.79-1.45,1.15.1,1.67-.09.76-.94,1.28-1.07,1.12.4,1.65.32.94-.77,1.47-.8,1,.57,1.57.57,1.07-.61,1.57-.57,1,.72,1.47.8,1.16-.44,1.64-.32.83.89,1.29,1.07,1.26-.15,1.67.09.5,1.1.79,1.45S1132.35,385.84,1132.35,386.33Z" transform="translate(791.68 -111.15)" style="fill: #fff"/>
          <polygon points="1914.26 275.71 1914.29 275.72 1914.29 275.71 1914.26 275.71" style="fill: #f96e53"/>
          <polygon points="1914.29 275.71 1914.29 275.71 1914.29 275.71 1914.29 275.71" style="fill: #f96e53"/>
          <polygon points="1914.29 275.72 1914.29 275.71 1914.29 275.71 1914.29 275.72" style="fill: #f96e53"/>
          <polygon points="1914.27 275.71 1914.29 275.71 1914.29 275.71 1914.29 275.7 1914.27 275.71" style="fill: #f96e53"/>
          <path d="M1117.86,385.34a9.11,9.11,0,0,1,4.78-1.19,8.7,8.7,0,0,1,1.14.05,9.84,9.84,0,0,1,3.69,1,3.24,3.24,0,0,1,1,.76,1.09,1.09,0,0,1,.32.74,1,1,0,0,1,0,.25,2,2,0,0,1-1.32,1,8.28,8.28,0,0,1-2.88.46h-.92a6.22,6.22,0,0,1-2.31-.6,2.28,2.28,0,0,1-.61-.46.67.67,0,0,1-.18-.4v-.12a1.25,1.25,0,0,1,.77-.58,5.26,5.26,0,0,1,1.8-.29h.58a3.69,3.69,0,0,1,1.43.37,1.19,1.19,0,0,1,.36.26.3.3,0,0,1,.08.18h0a.88.88,0,0,1-.41.29,3.06,3.06,0,0,1-1.12.18h-.35a2.43,2.43,0,0,1-.87-.22.52.52,0,0,1-.19-.14h0a.33.33,0,0,0-.28-.38.34.34,0,0,0-.37.2v.19a.75.75,0,0,0,.19.47,2.27,2.27,0,0,0,1.52.6h.41a3.88,3.88,0,0,0,1.36-.22,1.22,1.22,0,0,0,.82-.74v-.23a.9.9,0,0,0-.25-.62,3.34,3.34,0,0,0-2.25-.87h-.63a6.21,6.21,0,0,0-2,.33,1.84,1.84,0,0,0-1.18,1,1.54,1.54,0,0,0,0,.31,1.31,1.31,0,0,0,.34.84,5.23,5.23,0,0,0,3.39,1.3h1a8.75,8.75,0,0,0,3.13-.51,2.56,2.56,0,0,0,1.72-1.47,1.61,1.61,0,0,0,.06-.44,1.78,1.78,0,0,0-.48-1.18c-.89-1-2.79-1.76-5.16-2h-1.2a9.75,9.75,0,0,0-5.14,1.3,6,6,0,0,0-2.7,3.77,1,1,0,0,0,.35.44.62.62,0,0,0,.23.07A5.34,5.34,0,0,1,1117.86,385.34Z" transform="translate(791.68 -111.15)" style="fill: #f96e53"/>
          <polygon points="1914.29 275.71 1914.29 275.7 1914.29 275.7 1914.29 275.71" style="fill: #f96e53"/>
        </g>
        <rect x="1906.79" y="319.96" width="43.77" height="4.22" style="fill: #183251"/>
        <line x1="1902.55" y1="271.89" x2="1904.05" y2="271.43" style="fill: none;stroke: #39b54a;stroke-miterlimit: 10"/>
        <line x1="1908.02" y1="270.2" x2="1909.12" y2="270.49" style="fill: none;stroke: #39b54a;stroke-miterlimit: 10"/>
        <line x1="1910.81" y1="275.13" x2="1909.71" y2="275.72" style="fill: none;stroke: #39b54a;stroke-miterlimit: 10"/>
        <line x1="1916.16" y1="269.57" x2="1917.9" y2="270.49" style="fill: none;stroke: #39b54a;stroke-miterlimit: 10"/>
        <line x1="1924.85" y1="277.27" x2="1923.11" y2="278.61" style="fill: none;stroke: #39b54a;stroke-miterlimit: 10"/>
        <line x1="1930.14" y1="275.72" x2="1931.78" y2="276.45" style="fill: none;stroke: #39b54a;stroke-miterlimit: 10"/>
        <line x1="1927.26" y1="271.66" x2="1926.31" y2="272.92" style="fill: none;stroke: #39b54a;stroke-miterlimit: 10"/>
        <line x1="1897.95" y1="277.66" x2="1899.77" y2="278.13" style="fill: none;stroke: #39b54a;stroke-miterlimit: 10"/>
        <line x1="1890.84" y1="271.58" x2="1893.18" y2="272.29" style="fill: none;stroke: #39b54a;stroke-miterlimit: 10"/>
        <line x1="1896.31" y1="270.89" x2="1897.52" y2="271.59" style="fill: none;stroke: #39b54a;stroke-miterlimit: 10"/>
        <polygon points="1980.88 261.98 1980.56 264.54 1904.05 295.87 1978.03 261.35 1980.88 261.98" style="fill: #230803"/>
        <path d="M1111.31,407.06h0a1.61,1.61,0,0,0,1.06,0l76.51-33.54c.58-.26.34-1-.39-1.19l-3.47-.81a1,1,0,0,0-.69,0l-73.07,34.22C1110.38,406.15,1110.18,406.75,1111.31,407.06Z" transform="translate(791.68 -111.15)" style="fill: #3d1106"/>
        <polygon points="1980.03 258.12 1979.96 260.7 1906.79 297.73 1977.13 257.72 1980.03 258.12" style="fill: #230803"/>
        <path d="M1114.06,409h0a1.58,1.58,0,0,0,1-.12l73-39.23c.56-.3.24-1-.51-1.15L1184,368a1,1,0,0,0-.69.09l-69.45,39.64C1113.05,408.16,1112.9,408.78,1114.06,409Z" transform="translate(791.68 -111.15)" style="fill: #3d1106"/>
      </g>
      <g id="d">
        <g>
          <ellipse cx="1939.08" cy="286.79" rx="48.43" ry="15.64" style="fill: #c18946"/>
          <path d="M1147.4,404.56c-26.75,0-48.43,6.8-48.43,15.19V397.93h0v-.08c0-8.39,21.68-15.19,48.43-15.19s48.44,6.8,48.44,15.19v.08h0v21.82C1195.84,411.36,1174.15,404.56,1147.4,404.56Z" transform="translate(791.68 -111.15)" style="fill: #dba156"/>
          <path d="M1192.06,402.18a31.74,31.74,0,0,0-5.42-3.39A52.69,52.69,0,0,0,1180,396c-1.19-.42-2.46-.78-3.72-1.14-.64-.17-1.31-.33-2-.49l-1-.24-1-.2a64.11,64.11,0,0,0-8.38-1.12l2.06.32,1,.16,1,.19,2,.38,1.95.45,1,.22,1,.25c.62.17,1.26.33,1.88.51l1.83.55c.62.18,1.18.4,1.78.59,2.36.81,4.59,1.7,6.71,2.66l1.56.74,1.52.76C1190.18,401.09,1191.13,401.63,1192.06,402.18Z" transform="translate(791.68 -111.15)" style="fill: #c6883e;stroke: #c6883e;stroke-linecap: round;stroke-linejoin: round;stroke-width: 0.5px"/>
          <path d="M1102.75,400.05a35,35,0,0,1,5.33-2.59c1.92-.78,4-1.48,6.1-2.11a95.34,95.34,0,0,1,13.6-2.89c2.37-.36,4.79-.61,7.22-.83,1.22-.09,2.44-.21,3.67-.27l1.85-.11,1.85-.08c4.94-.18,9.93-.17,14.9,0a147.23,147.23,0,0,0-15-.4l-1.88.05-1.87.09c-1.25,0-2.49.15-3.73.23-2.47.22-4.94.47-7.35.82s-4.78.77-7.09,1.28-4.53,1.09-6.64,1.77a51,51,0,0,0-6,2.26q-1.41.63-2.67,1.32A18.14,18.14,0,0,0,1102.75,400.05Z" transform="translate(791.68 -111.15)" style="fill: #c6883e;stroke: #c6883e;stroke-linecap: round;stroke-linejoin: round;stroke-width: 0.5px"/>
          <path d="M1112.35,402.58a30.52,30.52,0,0,1,4.44-1.89c1.6-.56,3.3-1.06,5-1.5a83.12,83.12,0,0,1,11.19-1.94c1.94-.22,3.92-.36,5.91-.48,1,0,2-.11,3-.13h3c4,0,8.07.09,12.11.33-4-.4-8.06-.62-12.14-.64h-3.05c-1,0-2,.07-3,.1-2,.11-4,.25-6,.47s-3.92.49-5.81.83-3.73.75-5.48,1.22a47.79,47.79,0,0,0-5,1.62,23.69,23.69,0,0,0-2.22,1A15.91,15.91,0,0,0,1112.35,402.58Z" transform="translate(791.68 -111.15)" style="fill: #c6883e;stroke: #c6883e;stroke-linecap: round;stroke-linejoin: round;stroke-width: 0.5px"/>
          <path d="M1156.47,401.6h0a20.61,20.61,0,0,0-1.61-5.38,14.48,14.48,0,0,0-2.76-4.11,9.48,9.48,0,0,0-4.78-2.63l-.36-.26c-.3-.24-.68-.57-1.08-.86q-.32-.23-.63-.42a2.11,2.11,0,0,0-.38-.17,1.57,1.57,0,0,0-1.29.11,4.21,4.21,0,0,0-.76.55c-.33.3-.65.63-.9.87l-.3.25a8.84,8.84,0,0,0-4.74,2.66,14.62,14.62,0,0,0-3.27,6.35,18.17,18.17,0,0,0-.61,3.51h0a3.45,3.45,0,0,0,0,.64,3.81,3.81,0,0,0,.76,2.34,5.59,5.59,0,0,0,2.82,1.95,9.78,9.78,0,0,0,3.18.53h10.11a8,8,0,0,0,2.16-.32,7.81,7.81,0,0,0,3-1.61,5.07,5.07,0,0,0,1.1-1.38,4,4,0,0,0,.45-1.8A4.49,4.49,0,0,0,1156.47,401.6Z" transform="translate(791.68 -111.15)" style="fill: #faf6de"/>
          <path d="M1145.43,390.21a7.77,7.77,0,0,1,2.86,1.84,8.82,8.82,0,0,1,1.94,2.88,8.7,8.7,0,0,1,.64,3.42,10.9,10.9,0,0,1-.18,1.71,15.22,15.22,0,0,1-.51,1.62V400c0-.54,0-1.09-.11-1.63a11.19,11.19,0,0,0-.79-3.07A13.36,13.36,0,0,0,1145.43,390.21Z" transform="translate(791.68 -111.15)" style="fill: #f5d39a"/>
          <path d="M1144.24,390.21a4.3,4.3,0,0,1,1.5,1.92,5.63,5.63,0,0,1,.39,2.47,6.83,6.83,0,0,1-.71,2.38,9.68,9.68,0,0,1-.67,1,7.68,7.68,0,0,1-.85.86c.13-.39.28-.75.43-1.1a10.58,10.58,0,0,0,.37-1.08,12.17,12.17,0,0,0,.44-2.16A8.27,8.27,0,0,0,1144.24,390.21Z" transform="translate(791.68 -111.15)" style="fill: #f5d39a"/>
          <path d="M1143.34,390.21a4.56,4.56,0,0,1,.11,2.11,5.35,5.35,0,0,1-.83,2,5,5,0,0,1-1.6,1.46,4.59,4.59,0,0,1-2,.59c.56-.44,1.11-.79,1.58-1.23a7.09,7.09,0,0,0,1.23-1.39A11.34,11.34,0,0,0,1143.34,390.21Z" transform="translate(791.68 -111.15)" style="fill: #f5d39a"/>
          <path d="M1138.31,401.93a9.61,9.61,0,0,0-4.78-2.64l-.09-.06a18,18,0,0,0-.44,2.84h0a3.45,3.45,0,0,0,0,.64,3.81,3.81,0,0,0,.76,2.34,5.59,5.59,0,0,0,2.82,1.95,9.78,9.78,0,0,0,3.18.53h2a13.93,13.93,0,0,0-.59-1.46A14.3,14.3,0,0,0,1138.31,401.93Z" transform="translate(791.68 -111.15)" style="fill: #efdfc2"/>
          <path d="M1179.19,408.56h0a21.6,21.6,0,0,0-1.61-5.39,14.29,14.29,0,0,0-2.76-4.1,9.61,9.61,0,0,0-4.78-2.64,3.32,3.32,0,0,1-.36-.26c-.3-.23-.69-.57-1.08-.86a5.23,5.23,0,0,0-.63-.41,1.84,1.84,0,0,0-.38-.17,1.71,1.71,0,0,0-.54-.1,1.61,1.61,0,0,0-.75.2,3.82,3.82,0,0,0-.76.56c-.33.3-.65.62-.91.86l-.29.26a8.74,8.74,0,0,0-4.75,2.66,14.86,14.86,0,0,0-3.27,6.34,19.94,19.94,0,0,0-.61,3.52h0a3.36,3.36,0,0,0-.06.63,3.9,3.9,0,0,0,.76,2.35,5.67,5.67,0,0,0,2.79,1.91,9.78,9.78,0,0,0,3.18.53h10.15a8.35,8.35,0,0,0,2.16-.31,8.08,8.08,0,0,0,3-1.61,5.27,5.27,0,0,0,1.1-1.38,4.07,4.07,0,0,0,.45-1.81A4.17,4.17,0,0,0,1179.19,408.56Z" transform="translate(791.68 -111.15)" style="fill: #faf6de"/>
          <path d="M1168.16,397.16A7.71,7.71,0,0,1,1171,399a8.54,8.54,0,0,1,1.93,2.88,9.14,9.14,0,0,1,.46,5.12,11.7,11.7,0,0,1-.51,1.62V407c0-.54-.05-1.08-.11-1.62a10.83,10.83,0,0,0-.78-3.07A13.47,13.47,0,0,0,1168.16,397.16Z" transform="translate(791.68 -111.15)" style="fill: #f5d39a"/>
          <path d="M1167,397.16a4.3,4.3,0,0,1,1.5,1.92,5.82,5.82,0,0,1,.39,2.48,6.53,6.53,0,0,1-.72,2.37,9.6,9.6,0,0,1-.66,1,10,10,0,0,1-.85.87c.12-.4.28-.75.42-1.11s.27-.72.37-1.08a10.52,10.52,0,0,0,.44-2.15A8.22,8.22,0,0,0,1167,397.16Z" transform="translate(791.68 -111.15)" style="fill: #f5d39a"/>
          <path d="M1166.07,397.16a4.56,4.56,0,0,1,.1,2.11,5.17,5.17,0,0,1-.82,2,4.69,4.69,0,0,1-1.61,1.46,4.59,4.59,0,0,1-2,.59c.54-.38,1.06-.79,1.57-1.22a7.54,7.54,0,0,0,1.24-1.4A11.71,11.71,0,0,0,1166.07,397.16Z" transform="translate(791.68 -111.15)" style="fill: #f5d39a"/>
          <path d="M1147.4,413c-26.75,0-48.43-6.8-48.43-15.19v21.82h0v.08c0,8.39,21.68,15.19,48.43,15.19s48.44-6.8,48.44-15.19v-.08h0V397.81C1195.84,406.2,1174.15,413,1147.4,413Z" transform="translate(791.68 -111.15)" style="fill: #e7af5f"/>
          <path d="M1141.08,412.65h0a20.28,20.28,0,0,0-1.6-5.39,14.12,14.12,0,0,0-2.77-4.1,9.49,9.49,0,0,0-4.78-2.64,3.18,3.18,0,0,1-.35-.26c-.3-.23-.69-.57-1.08-.86l-.63-.42-.38-.17a2.54,2.54,0,0,0-.54-.09,1.61,1.61,0,0,0-.75.2,3.82,3.82,0,0,0-.76.56c-.33.29-.65.62-.91.86l-.29.26a8.78,8.78,0,0,0-4.75,2.65,14.68,14.68,0,0,0-3.27,6.35,18.17,18.17,0,0,0-.61,3.51h0a3.45,3.45,0,0,0,0,.64,3.9,3.9,0,0,0,.76,2.35,5.67,5.67,0,0,0,2.79,1.91,9.78,9.78,0,0,0,3.18.53h10.11a8,8,0,0,0,2.17-.32,7.81,7.81,0,0,0,3-1.61,5.22,5.22,0,0,0,1.1-1.37,4.07,4.07,0,0,0,.45-1.81A4.15,4.15,0,0,0,1141.08,412.65Z" transform="translate(791.68 -111.15)" style="fill: #faf6de"/>
          <path d="M1130.05,401.25a7.77,7.77,0,0,1,2.86,1.84,8.58,8.58,0,0,1,1.93,2.89,8.47,8.47,0,0,1,.64,3.41,9.83,9.83,0,0,1-.18,1.71,11.7,11.7,0,0,1-.51,1.62v-1.67c0-.54,0-1.08-.11-1.62a11.54,11.54,0,0,0-.78-3.07A13.47,13.47,0,0,0,1130.05,401.25Z" transform="translate(791.68 -111.15)" style="fill: #f5d39a"/>
          <path d="M1128.86,401.25a4.22,4.22,0,0,1,1.49,1.92,5.79,5.79,0,0,1,.4,2.47A6.45,6.45,0,0,1,1130,408a9.6,9.6,0,0,1-.66,1,10,10,0,0,1-.85.87c.12-.4.28-.75.42-1.11s.27-.72.37-1.08a12.06,12.06,0,0,0,.44-2.15A8.22,8.22,0,0,0,1128.86,401.25Z" transform="translate(791.68 -111.15)" style="fill: #f5d39a"/>
          <path d="M1128,401.25a4.43,4.43,0,0,1,.11,2.11,5.17,5.17,0,0,1-.82,2,4.9,4.9,0,0,1-1.61,1.46,4.59,4.59,0,0,1-2,.59c.54-.38,1.07-.79,1.58-1.23a6.81,6.81,0,0,0,1.23-1.39A11.34,11.34,0,0,0,1128,401.25Z" transform="translate(791.68 -111.15)" style="fill: #f5d39a"/>
          <path d="M1192.74,403.17c-6.91,5.75-24.6,9.83-45.34,9.83a143.29,143.29,0,0,1-19.31-1.25" transform="translate(791.68 -111.15)" style="fill: none;stroke: #9e6c35;stroke-miterlimit: 10"/>
          <path d="M1088.37,434v3.56a21.77,21.77,0,0,0,6.47.87,21.17,21.17,0,0,0,6.47-.9V434Z" transform="translate(791.68 -111.15)" style="fill: #fdedc8"/>
          <path d="M1147.4,413c-26.75,0-48.43-6.8-48.43-15.19v21.82h0v.08c0,8.39,21.68,15.19,48.43,15.19s48.44-6.8,48.44-15.19v-.08h0V397.81C1195.84,406.2,1174.15,413,1147.4,413Z" transform="translate(791.68 -111.15)" style="fill: #e7af5f"/>
          <path d="M1109.42,426.49c0,3.89-2.84,10.9-14.58,10.9-12,0-14.58-7-14.58-10.9s6.53-7,14.58-7S1109.42,422.61,1109.42,426.49Z" transform="translate(791.68 -111.15)" style="fill: #f2ae38"/>
          <ellipse cx="1886.52" cy="315.34" rx="14.58" ry="7.03" style="fill: #fdf8ec"/>
          <path d="M1094.84,433.3c6.44,0,11.9-1.79,13.83-4.58-1-3.27-6.79-5.78-13.83-5.78s-12.85,2.51-13.83,5.78C1082.94,431.51,1088.4,433.3,1094.84,433.3Z" transform="translate(791.68 -111.15)" style="fill: #5b4837"/>
          <path d="M1094.84,433.3c5.39,0,9.76-1.62,12-3.43-.82-2.73-6.13-5.19-12-5.19s-13,1.31-13.83,4C1082.63,431.05,1089.46,433.3,1094.84,433.3Z" transform="translate(791.68 -111.15)" style="fill: #433025"/>
          <path d="M1094.84,420.46c8.12,0,13.58,3.12,13.58,6s-5.46,6-13.58,6-13.58-3.12-13.58-6,5.46-6,13.58-6m0-1c-8,0-14.58,3.15-14.58,7s6.53,7,14.58,7,14.58-3.14,14.58-7S1102.89,419.46,1094.84,419.46Z" transform="translate(791.68 -111.15)" style="fill: #fdf8ec"/>
          <g style="opacity: 0.67">
            <path d="M1085.81,425.38s9.26,2.83,16.27-2.15" transform="translate(791.68 -111.15)" style="fill: none;stroke: #f7d38b;stroke-miterlimit: 10"/>
            <path d="M1089.53,423.78s2.26,5.08,13.12,3.77" transform="translate(791.68 -111.15)" style="fill: none;stroke: #f7d38b;stroke-miterlimit: 10"/>
            <path d="M1089.29,426.77s4.22,3.63,13.47-2.2" transform="translate(791.68 -111.15)" style="fill: none;stroke: #f7d38b;stroke-miterlimit: 10"/>
            <path d="M1103.88,426s-4.71-3-13,4.16" transform="translate(791.68 -111.15)" style="fill: none;stroke: #f7d38b;stroke-miterlimit: 10"/>
          </g>
          <path d="M1192.06,414a31.74,31.74,0,0,1-5.42,3.39,52.69,52.69,0,0,1-6.68,2.8c-1.19.42-2.46.78-3.72,1.14-.64.18-1.31.33-2,.49l-1,.24-1,.2a64.11,64.11,0,0,1-8.38,1.12l2.06-.32,1-.16c.33,0,.67-.13,1-.19l2-.38,1.95-.44,1-.23,1-.25c.62-.17,1.26-.33,1.88-.51l1.83-.55c.62-.17,1.18-.4,1.78-.59,2.36-.8,4.59-1.7,6.71-2.66l1.56-.73,1.52-.77C1190.18,415.09,1191.13,414.55,1192.06,414Z" transform="translate(791.68 -111.15)" style="fill: #c6883e;stroke: #c6883e;stroke-linecap: round;stroke-linejoin: round;stroke-width: 0.5px"/>
          <path d="M1102.75,416.12a35,35,0,0,0,5.33,2.59c1.92.78,4,1.48,6.1,2.11a95.34,95.34,0,0,0,13.6,2.89c2.37.36,4.79.61,7.22.83,1.22.09,2.44.21,3.67.27l1.85.11,1.85.08c4.94.19,9.93.18,14.9,0-4.93.37-10,.51-15,.39h-1.88l-1.87-.09c-1.25,0-2.49-.15-3.73-.23-2.47-.22-4.94-.47-7.35-.82s-4.78-.77-7.09-1.28-4.53-1.09-6.64-1.77a51,51,0,0,1-6-2.26q-1.41-.63-2.67-1.32A19.62,19.62,0,0,1,1102.75,416.12Z" transform="translate(791.68 -111.15)" style="fill: #c6883e;stroke: #c6883e;stroke-linecap: round;stroke-linejoin: round;stroke-width: 0.5px"/>
          <path d="M1112.35,413.59a30.52,30.52,0,0,0,4.44,1.89c1.6.56,3.3,1.06,5,1.5a83.12,83.12,0,0,0,11.19,1.94c1.94.22,3.92.36,5.91.48,1,0,2,.11,3,.13h3c4,0,8.07-.09,12.11-.33-4,.4-8.06.63-12.14.64h-3.05c-1,0-2-.06-3-.1-2-.11-4-.25-6-.47s-3.92-.49-5.81-.83-3.73-.75-5.48-1.22a47.79,47.79,0,0,1-5-1.62,23.69,23.69,0,0,1-2.22-1A14.6,14.6,0,0,1,1112.35,413.59Z" transform="translate(791.68 -111.15)" style="fill: #c6883e;stroke: #c6883e;stroke-linecap: round;stroke-linejoin: round;stroke-width: 0.5px"/>
          <path d="M1099,397.73" transform="translate(791.68 -111.15)" style="fill: #e7af5f"/>
        </g>
      </g>
      <g id="e">
        <path d="M1077.28,402.8H1097v17.4h-19.7a8.42,8.42,0,0,1-8.42-8.42v-.56A8.42,8.42,0,0,1,1077.28,402.8Z" transform="translate(791.68 -111.15)" style="fill: none;stroke: #1a1a1a;stroke-miterlimit: 10;stroke-width: 4px"/>
        <path d="M1198.81,420.21h-19.7v-17.4h19.7a8.42,8.42,0,0,1,8.42,8.42v.56A8.42,8.42,0,0,1,1198.81,420.21Z" transform="translate(791.68 -111.15)" style="fill: none;stroke: #1a1a1a;stroke-miterlimit: 10;stroke-width: 4px"/>
        <path d="M1172.88,434.72h-69.4a26.62,26.62,0,0,1-19.51-8.55c-2.71-2.88-4.83-6.32-4.83-10v-7.65c0-6,4.3-10.9,9.61-10.9h98.82c5.31,0,9.62,4.88,9.62,10.9v7.65c0,4-2.53,7.75-5.59,10.79A26.51,26.51,0,0,1,1172.88,434.72Z" transform="translate(791.68 -111.15)" style="fill: #1a1a1a"/>
        <path d="M1197.19,411.76c0-10.24-3.44-14.91-16.36-18.55s-73.18-3-85.33,0-16.36,8.31-16.36,18.55h0a20.74,20.74,0,0,0,.3,3.52c1.39-7.7,7.4-13.49,14.6-13.49h88.25c7.2,0,13.21,5.79,14.6,13.49a20.74,20.74,0,0,0,.3-3.52Z" transform="translate(791.68 -111.15)" style="fill: #4d4d4d"/>
        <path d="M1181.56,399.46c-14.63-3.73-72.75-4.46-86.54-.11-8.37,2.64-14.19,6.12-15.58,13.81,1.45,8.56,8.09,15,16.06,15h85.33c8,0,14.6-6.48,16.06-15C1195.5,405.47,1190.3,401.69,1181.56,399.46Z" transform="translate(791.68 -111.15)" style="fill: #f7b000"/>
        <line x1="1883.35" y1="302.35" x2="1881.32" y2="303.93" style="fill: none;stroke: #f7c977;stroke-linecap: round;stroke-miterlimit: 10"/>
        <line x1="1888.3" y1="298.98" x2="1890.48" y2="300.35" style="fill: none;stroke: #f7c977;stroke-linecap: round;stroke-miterlimit: 10"/>
        <line x1="1890.48" y1="303.93" x2="1892.66" y2="303.14" style="fill: none;stroke: #f7c977;stroke-linecap: round;stroke-miterlimit: 10"/>
        <line x1="1886.7" y1="310.91" x2="1889.39" y2="312.08" style="fill: none;stroke: #f7c977;stroke-linecap: round;stroke-miterlimit: 10"/>
        <line x1="1899.27" y1="299.67" x2="1901.54" y2="298.98" style="fill: none;stroke: #f7c977;stroke-linecap: round;stroke-miterlimit: 10"/>
        <line x1="1900.4" y1="307.57" x2="1902.7" y2="308.44" style="fill: none;stroke: #f7c977;stroke-linecap: round;stroke-miterlimit: 10"/>
        <line x1="1906.19" y1="302.78" x2="1908.52" y2="302.01" style="fill: none;stroke: #f7c977;stroke-linecap: round;stroke-miterlimit: 10"/>
        <line x1="1885.53" y1="292.55" x2="1887.86" y2="291.78" style="fill: none;stroke: #f7c977;stroke-linecap: round;stroke-miterlimit: 10"/>
        <line x1="1909.97" y1="308.44" x2="1912.16" y2="309.75" style="fill: none;stroke: #f7c977;stroke-linecap: round;stroke-miterlimit: 10"/>
        <line x1="1912.16" y1="295.06" x2="1913.76" y2="294.04" style="fill: none;stroke: #f7c977;stroke-linecap: round;stroke-miterlimit: 10"/>
        <line x1="1894.84" y1="294.55" x2="1897.61" y2="292.58" style="fill: none;stroke: #f7c977;stroke-linecap: round;stroke-miterlimit: 10"/>
        <line x1="1878.76" y1="296.66" x2="1880.73" y2="297.67" style="fill: none;stroke: #f7c977;stroke-linecap: round;stroke-miterlimit: 10"/>
        <line x1="1921.19" y1="302.78" x2="1923.5" y2="303.93" style="fill: none;stroke: #f7c977;stroke-linecap: round;stroke-miterlimit: 10"/>
        <line x1="1920.49" y1="313.53" x2="1922.35" y2="312.08" style="fill: none;stroke: #f7c977;stroke-linecap: round;stroke-miterlimit: 10"/>
        <line x1="1925.68" y1="298.4" x2="1928.01" y2="297.67" style="fill: none;stroke: #f7c977;stroke-linecap: round;stroke-miterlimit: 10"/>
        <line x1="1937.41" y1="289.38" x2="1939.74" y2="288.66" style="fill: none;stroke: #f7c977;stroke-linecap: round;stroke-miterlimit: 10"/>
        <line x1="1919.14" y1="294.55" x2="1920.49" y2="297.17" style="fill: none;stroke: #f7c977;stroke-linecap: round;stroke-miterlimit: 10"/>
        <line x1="1937.9" y1="294.55" x2="1940.38" y2="293.57" style="fill: none;stroke: #f7c977;stroke-linecap: round;stroke-miterlimit: 10"/>
        <line x1="1934.36" y1="303.14" x2="1936.89" y2="303.93" style="fill: none;stroke: #f7c977;stroke-linecap: round;stroke-miterlimit: 10"/>
        <line x1="1931.45" y1="310.91" x2="1934.36" y2="309.75" style="fill: none;stroke: #f7c977;stroke-linecap: round;stroke-miterlimit: 10"/>
        <line x1="1941.71" y1="312.08" x2="1944.45" y2="313.53" style="fill: none;stroke: #f7c977;stroke-linecap: round;stroke-miterlimit: 10"/>
        <line x1="1945.23" y1="306.83" x2="1947.55" y2="305.02" style="fill: none;stroke: #f7c977;stroke-linecap: round;stroke-miterlimit: 10"/>
        <line x1="1957.64" y1="302.78" x2="1959.58" y2="303.93" style="fill: none;stroke: #f7c977;stroke-linecap: round;stroke-miterlimit: 10"/>
        <line x1="1949.88" y1="298.04" x2="1952.02" y2="296.66" style="fill: none;stroke: #f7c977;stroke-linecap: round;stroke-miterlimit: 10"/>
        <line x1="1961.13" y1="297.67" x2="1963.63" y2="297.67" style="fill: none;stroke: #f7c977;stroke-linecap: round;stroke-miterlimit: 10"/>
        <line x1="1952.02" y1="292.58" x2="1954.54" y2="291.65" style="fill: none;stroke: #f7c977;stroke-linecap: round;stroke-miterlimit: 10"/>
        <line x1="1961.13" y1="293.57" x2="1963.55" y2="294.55" style="fill: none;stroke: #f7c977;stroke-linecap: round;stroke-miterlimit: 10"/>
        <line x1="1950.95" y1="312.8" x2="1953.28" y2="313.53" style="fill: none;stroke: #f7c977;stroke-linecap: round;stroke-miterlimit: 10"/>
        <line x1="1959.58" y1="310.91" x2="1962.38" y2="310.33" style="fill: none;stroke: #f7c977;stroke-linecap: round;stroke-miterlimit: 10"/>
        <line x1="1968.31" y1="312.08" x2="1970.64" y2="313.53" style="fill: none;stroke: #f7c977;stroke-linecap: round;stroke-miterlimit: 10"/>
        <line x1="1970.64" y1="306.44" x2="1972.77" y2="305.02" style="fill: none;stroke: #f7c977;stroke-linecap: round;stroke-miterlimit: 10"/>
        <line x1="1979.17" y1="308" x2="1982.27" y2="309.06" style="fill: none;stroke: #f7c977;stroke-linecap: round;stroke-miterlimit: 10"/>
        <line x1="1977.04" y1="299.67" x2="1979.17" y2="298.4" style="fill: none;stroke: #f7c977;stroke-linecap: round;stroke-miterlimit: 10"/>
        <line x1="1969.47" y1="294.55" x2="1971.71" y2="295.66" style="fill: none;stroke: #f7c977;stroke-linecap: round;stroke-miterlimit: 10"/>
        <line x1="1975.68" y1="294.04" x2="1978.1" y2="292.12" style="fill: none;stroke: #f7c977;stroke-linecap: round;stroke-miterlimit: 10"/>
        <line x1="1984.14" y1="300.35" x2="1982.27" y2="302.01" style="fill: none;stroke: #f7c977;stroke-linecap: round;stroke-miterlimit: 10"/>
        <line x1="1929.84" y1="292.12" x2="1931.45" y2="293.08" style="fill: none;stroke: #f7c977;stroke-linecap: round;stroke-miterlimit: 10"/>
        <line x1="1909.17" y1="289.38" x2="1910.78" y2="290.34" style="fill: none;stroke: #f7c977;stroke-linecap: round;stroke-miterlimit: 10"/>
        <line x1="1902.7" y1="293.08" x2="1906.19" y2="295.06" style="fill: none;stroke: #f7c977;stroke-linecap: round;stroke-miterlimit: 10"/>
        <ellipse cx="1907.64" cy="296.33" rx="6.67" ry="3.45" style="fill: none;stroke: #f7d3a4;stroke-linecap: round;stroke-miterlimit: 10;stroke-width: 2px"/>
        <ellipse cx="1907.64" cy="294.85" rx="6.67" ry="3.45" style="fill: none;stroke: #f9edd9;stroke-linecap: round;stroke-miterlimit: 10;stroke-width: 2px"/>
        <ellipse cx="1130.17" cy="421.19" rx="3.45" ry="6.67" transform="translate(1041.94 1134.92) rotate(-63.59)" style="fill: none;stroke: #f7d3a4;stroke-linecap: round;stroke-miterlimit: 10;stroke-width: 2px"/>
        <path d="M1124,416.89c.85-1.7,4.21-1.76,7.51-.12s5.29,4.35,4.44,6.06-4.21,1.76-7.51.12S1123.19,418.6,1124,416.89Z" transform="translate(791.68 -111.15)" style="fill: none;stroke: #f9edd9;stroke-linecap: round;stroke-miterlimit: 10;stroke-width: 2px"/>
        <path d="M1157.26,404.76c2.85-2.34,6.13-3,7.34-1.57s-.12,4.56-3,6.9-6.14,3-7.35,1.56S1154.41,407.09,1157.26,404.76Z" transform="translate(791.68 -111.15)" style="fill: none;stroke: #f7d3a4;stroke-linecap: round;stroke-miterlimit: 10;stroke-width: 2px"/>
        <path d="M1156.92,403.54c2.85-2.34,6.14-3,7.35-1.57s-.12,4.56-3,6.9-6.14,3-7.35,1.57S1154.07,405.88,1156.92,403.54Z" transform="translate(791.68 -111.15)" style="fill: none;stroke: #f9edd9;stroke-linecap: round;stroke-miterlimit: 10;stroke-width: 2px"/>
        <path d="M1106.83,419.11l1.76-1.4a4.11,4.11,0,0,1,3-.86l3.43.33a4.14,4.14,0,0,1,3.23,2.16h0a.62.62,0,0,1-.25.84.65.65,0,0,1-.36.07Z" transform="translate(791.68 -111.15)" style="fill: #ff9100"/>
        <path d="M1106.56,419l2.16-.62a4.12,4.12,0,0,1,3.06.32l3,1.61a4.1,4.1,0,0,1,2.17,3.22h0a.62.62,0,0,1-.91.6Z" transform="translate(791.68 -111.15)" style="fill: #ff9100"/>
        <path d="M1115.44,406.19a13.18,13.18,0,0,1-1.66-.19,7,7,0,0,1-.77-.15h-.5a6.83,6.83,0,0,0-1.8.22l-6,1.22c-2,.34-4.1.73-6.15,1l-.78.11-.61.1a3.14,3.14,0,0,0-.61.21,2.57,2.57,0,0,0-1,.82,2.64,2.64,0,0,0-.27,2.48,3.18,3.18,0,0,0,2.09,2c4,1.11,8.08,2.21,12.08,3.61a1.1,1.1,0,0,1,.68,1.41h0a1.11,1.11,0,0,1-1,.74c-4.23.22-8.42.14-12.61.07a8.82,8.82,0,0,1-7.57-5,9.45,9.45,0,0,1,.76-9.4,9.59,9.59,0,0,1,3.71-3.18,9.83,9.83,0,0,1,2.35-.78c.47-.09.65-.11.92-.15l.77-.11c2.06-.31,4.13-.53,6.19-.8l6.28-.61a8.1,8.1,0,0,1,4.35.87,5.52,5.52,0,0,1,.93.57c.26.2.43.35.64.54A12.87,12.87,0,0,1,1117,403a1.94,1.94,0,0,1-.3,2.72A2,2,0,0,1,1115.44,406.19Z" transform="translate(791.68 -111.15)" style="fill: #f46800"/>
        <path d="M1094.48,418.4a8.46,8.46,0,0,1-.77-.44,8.28,8.28,0,0,1-3-3.37,8.91,8.91,0,0,1,4.2-11.82" transform="translate(791.68 -111.15)" style="fill: none;stroke: #ff9a55;stroke-linecap: round;stroke-miterlimit: 10;stroke-width: 0.5px"/>
        <path d="M1106.09,419.31h-5.85" transform="translate(791.68 -111.15)" style="fill: none;stroke: #ff9a55;stroke-linecap: round;stroke-miterlimit: 10;stroke-width: 0.5px"/>
        <path d="M1117,403.05a12.87,12.87,0,0,0-1.14-1.2c-.21-.19-.38-.34-.64-.54a5.52,5.52,0,0,0-.93-.57,8.1,8.1,0,0,0-4.35-.87l-.49.05h0l-10,.72a1.55,1.55,0,0,1-.07.39c-.19,1.24-.6,5.23,1.57,6.86a3.36,3.36,0,0,0,.89.49l9.91-2.52a7.16,7.16,0,0,1,.8-.05h.5a6.89,6.89,0,0,1,.77.15,12.88,12.88,0,0,0,1.64.2,2,2,0,0,0,1.27-.42A2,2,0,0,0,1117,403.05Z" transform="translate(791.68 -111.15)" style="fill: #f46800"/>
        <circle cx="1902.94" cy="290.74" r="0.8" style="fill: #1f3440"/>
        <path d="M1115.94,403.93a8.43,8.43,0,0,0,5,3.11,5.47,5.47,0,0,1-1.56-.14,5.54,5.54,0,0,1-1.48-.57A4.17,4.17,0,0,1,1115.94,403.93Z" transform="translate(791.68 -111.15)" style="fill: #f46800"/>
        <path d="M1115.69,405.05a2,2,0,0,0,.35.85,2.66,2.66,0,0,0,.59.66,11.56,11.56,0,0,0,1.55,1.07,3.12,3.12,0,0,1-1-.2,3.71,3.71,0,0,1-.88-.52A1.76,1.76,0,0,1,1115.69,405.05Z" transform="translate(791.68 -111.15)" style="fill: #f46800"/>
        <path d="M1116.1,405.05a2.26,2.26,0,0,0,1,.57,3.49,3.49,0,0,0,1.06.2,21.68,21.68,0,0,0,2.28,0,5.53,5.53,0,0,1-1.12.4,4.82,4.82,0,0,1-1.2.08,3,3,0,0,1-1.17-.33A1.65,1.65,0,0,1,1116.1,405.05Z" transform="translate(791.68 -111.15)" style="fill: #f46800"/>
        <path d="M1114.78,405.31a5.84,5.84,0,0,0,.65,1.44,4.38,4.38,0,0,0,1.09,1.14,1.92,1.92,0,0,1-.84-.26,2.22,2.22,0,0,1-.64-.62A2.08,2.08,0,0,1,1114.78,405.31Z" transform="translate(791.68 -111.15)" style="fill: #f46800"/>
        <path d="M1094.48,411a2.16,2.16,0,0,1,.69-1.33,3.06,3.06,0,0,1,1.39-.7,3.18,3.18,0,0,1,1.53.17,5.07,5.07,0,0,1,.65.35,3.85,3.85,0,0,1,.51.56v.07h0a4.26,4.26,0,0,0-2.51-.39,3.46,3.46,0,0,0-2.15,1.31h-.06v0Z" transform="translate(791.68 -111.15)" style="fill: #f46800"/>
        <path d="M1094.83,412.55a1.67,1.67,0,0,1,.42-1.11,2.34,2.34,0,0,1,1-.63,2.25,2.25,0,0,1,1.23.13,2.37,2.37,0,0,1,.5.32,2,2,0,0,1,.35.51h0a2.63,2.63,0,0,0-1.86-.27,2.68,2.68,0,0,0-1.58,1h0Z" transform="translate(791.68 -111.15)" style="fill: #f46800"/>
        <path d="M1096,414.14a1.14,1.14,0,0,1-.09-1,1.69,1.69,0,0,1,.71-.81,1.8,1.8,0,0,1,1-.11,2.62,2.62,0,0,1,.46.19,2.11,2.11,0,0,1,.35.38h0v0h0a2.22,2.22,0,0,0-1.48.16,1.75,1.75,0,0,0-.9,1.14h0Z" transform="translate(791.68 -111.15)" style="fill: #f46800"/>
        <path d="M1098.32,415.07a.85.85,0,0,1-.41-.9,1.35,1.35,0,0,1,.65-.88,1.5,1.5,0,0,1,.91-.11l.4.16a1.61,1.61,0,0,1,.35.34h0v.05h0a2.76,2.76,0,0,0-1.3.23.92.92,0,0,0-.52,1.07h0Z" transform="translate(791.68 -111.15)" style="fill: #f46800"/>
        <path d="M1099.26,401.93s-.8,3.62,1.32,5.47" transform="translate(791.68 -111.15)" style="fill: none;stroke: #d13505;stroke-linecap: round;stroke-miterlimit: 10;stroke-width: 0.25px"/>
        <path d="M1096.25,408.18s-3.86-1-3.27-4.3" transform="translate(791.68 -111.15)" style="fill: none;stroke: #d13505;stroke-linecap: round;stroke-miterlimit: 10;stroke-width: 0.4px"/>
        <path d="M1094.83,410.4s-4.47,3.06-6.15,0" transform="translate(791.68 -111.15)" style="fill: none;stroke: #d13505;stroke-linecap: round;stroke-miterlimit: 10;stroke-width: 0.4px"/>
        <path d="M1095.88,413.69s-.59,4-3.62,4.14" transform="translate(791.68 -111.15)" style="fill: none;stroke: #d13505;stroke-linecap: round;stroke-miterlimit: 10;stroke-width: 0.4px"/>
        <path d="M1099.26,415.09s.82,3.2-1.36,4.41" transform="translate(791.68 -111.15)" style="fill: none;stroke: #d13505;stroke-linecap: round;stroke-miterlimit: 10;stroke-width: 0.4px"/>
        <path d="M1104,416.24s1.55,2.21-.63,3.39" transform="translate(791.68 -111.15)" style="fill: none;stroke: #d13505;stroke-linecap: round;stroke-miterlimit: 10;stroke-width: 0.4px"/>
        <path d="M1102,408.12a9.71,9.71,0,0,1,2.54-.61,9.12,9.12,0,0,1,2.66,0,6,6,0,0,1,2.52.93,4.06,4.06,0,0,1,1.59,2.1,5.56,5.56,0,0,0-1.87-1.64,7.7,7.7,0,0,0-2.35-.71A24.06,24.06,0,0,0,1102,408.12Z" transform="translate(791.68 -111.15)" style="fill: #f46800"/>
        <path d="M1101.78,407.56a17,17,0,0,1,3.32-.61,17.45,17.45,0,0,1,3.39,0,10.26,10.26,0,0,1,3.32.83,5,5,0,0,1,2.53,2.24,6.13,6.13,0,0,0-2.73-1.74,13.78,13.78,0,0,0-3.19-.64A47.48,47.48,0,0,0,1101.78,407.56Z" transform="translate(791.68 -111.15)" style="fill: #f46800"/>
        <path d="M1101.1,408a5.11,5.11,0,0,1,1.94-.21,4.83,4.83,0,0,1,1.93.56,3.42,3.42,0,0,1,1.72,3.42,6.06,6.06,0,0,0-.78-1.67,3.92,3.92,0,0,0-1.28-1.15A9.65,9.65,0,0,0,1101.1,408Z" transform="translate(791.68 -111.15)" style="fill: #f46800"/>
        <path d="M1128,408.76h0a4.08,4.08,0,0,1,1.73-5.17l9.5-5.36c3.1-1.76,7-.87,8.23,2h0c1.27,2.91-.71,6.34-4.1,7.42l-10.4,3.35A4.08,4.08,0,0,1,1128,408.76Z" transform="translate(791.68 -111.15)" style="fill: #373a28"/>
        <path d="M1128.51,408.65h0a3.26,3.26,0,0,1,1.38-4.14l7.62-4.31c2.49-1.4,5.59-.69,6.61,1.64h0c1,2.33-.57,5.08-3.3,6l-8.33,2.66A3.27,3.27,0,0,1,1128.51,408.65Z" transform="translate(791.68 -111.15)" style="fill: #292b1c"/>
        <path d="M1128.51,408.65h0a2.44,2.44,0,0,1,1-3.12l5.75-3.25c1.88-1.06,4.22-.53,5,1.23h0c.76,1.76-.43,3.84-2.49,4.49l-6.29,2A2.45,2.45,0,0,1,1128.51,408.65Z" transform="translate(791.68 -111.15)" style="fill: #373a28;opacity: 0.38;isolation: isolate"/>
        <g style="opacity: 0.30000000000000004">
          <path d="M1146.47,400.15h-.07a.39.39,0,0,0-.31.45v.06a6,6,0,0,1,0,.85,6.14,6.14,0,0,1-.5,2.5,4.22,4.22,0,0,1-2.35,2.23.39.39,0,0,0,.3.72h0a5,5,0,0,0,2.76-2.63,6.84,6.84,0,0,0,.57-2.82,4.77,4.77,0,0,0-.08-1,.38.38,0,0,0-.38-.32" transform="translate(791.68 -111.15)" style="fill: #eeefe4"/>
          <path d="M1142,406.75h-.11l-1.14.34a.39.39,0,0,0,.11.76h.11l1.14-.34a.39.39,0,0,0,.26-.48.38.38,0,0,0-.37-.28" transform="translate(791.68 -111.15)" style="fill: #eeefe4"/>
        </g>
        <g>
          <path d="M1154.67,430h0a4.06,4.06,0,0,1-4.6,2.91l-10.76-1.84c-3.51-.6-6-3.72-5.1-6.77h0c.86-3.06,4.56-4.47,7.88-3.16l10.15,4A4.07,4.07,0,0,1,1154.67,430Z" transform="translate(791.68 -111.15)" style="fill: #373a28"/>
          <path d="M1154.19,429.78h0a3.26,3.26,0,0,1-3.69,2.34l-8.62-1.48c-2.82-.48-4.78-3-4.1-5.44h0c.69-2.45,3.66-3.58,6.32-2.53l8.15,3.2A3.26,3.26,0,0,1,1154.19,429.78Z" transform="translate(791.68 -111.15)" style="fill: #292b1c"/>
          <path d="M1154.19,429.78h0a2.44,2.44,0,0,1-2.78,1.76l-6.51-1.11c-2.13-.36-3.6-2.25-3.09-4.1h0c.52-1.85,2.76-2.7,4.77-1.91l6.14,2.41A2.45,2.45,0,0,1,1154.19,429.78Z" transform="translate(791.68 -111.15)" style="fill: #373a28;opacity: 0.38;isolation: isolate"/>
          <g style="opacity: 0.30000000000000004">
            <path d="M1134.89,425h.06a.39.39,0,0,0,.53-.15v-.05a6.76,6.76,0,0,1,.49-.7,6.41,6.41,0,0,1,2-1.62,4.26,4.26,0,0,1,3.23-.24.39.39,0,0,0,.48-.27.38.38,0,0,0-.13-.41l-.13-.07a5,5,0,0,0-3.8.3,7.19,7.19,0,0,0-2.82,2.68.4.4,0,0,0,.09.49" transform="translate(791.68 -111.15)" style="fill: #eeefe4"/>
            <path d="M1142.52,422.72l.09.06,1.1.45a.39.39,0,0,0,.51-.21h0a.4.4,0,0,0-.12-.45l-.09-.05-1.1-.46a.39.39,0,0,0-.51.21h0a.4.4,0,0,0,.12.45" transform="translate(791.68 -111.15)" style="fill: #eeefe4"/>
          </g>
        </g>
        <path d="M1171.66,403.42l-1.77,1.39a4.15,4.15,0,0,1-3,.87l-3.43-.34a4.14,4.14,0,0,1-3.23-2.16h0a.61.61,0,0,1,.24-.83.59.59,0,0,1,.37-.07Z" transform="translate(791.68 -111.15)" style="fill: #ff9100"/>
        <path d="M1171.93,403.48l-2.16.62a4.12,4.12,0,0,1-3.06-.31l-3-1.61a4.14,4.14,0,0,1-2.17-3.22h0a.62.62,0,0,1,.53-.68.59.59,0,0,1,.37.07Z" transform="translate(791.68 -111.15)" style="fill: #ff9100"/>
        <path d="M1163,416.34a11.42,11.42,0,0,1,1.65.19,7.31,7.31,0,0,1,.76.15h.51a6.75,6.75,0,0,0,1.79-.22l6.06-1.21c2-.35,4.09-.74,6.15-1l.77-.12a2.24,2.24,0,0,0,.61-.1,2.57,2.57,0,0,0,.61-.2,2.56,2.56,0,0,0,1.28-3.3,3.21,3.21,0,0,0-2.09-2c-4-1.11-8.09-2.2-12.09-3.61a1.1,1.1,0,0,1-.68-1.4h0a1.14,1.14,0,0,1,1-.75c4.24-.22,8.42-.14,12.61-.07a8.85,8.85,0,0,1,7.58,5,9.51,9.51,0,0,1-4.48,12.59,9.18,9.18,0,0,1-2.34.77c-.47.09-.66.11-.93.15l-.77.12c-2,.3-4.12.52-6.18.79l-6.29.61a7.89,7.89,0,0,1-5.28-1.43c-.26-.21-.42-.36-.63-.55a10.87,10.87,0,0,1-1.15-1.2,1.93,1.93,0,0,1,.31-2.71A1.84,1.84,0,0,1,1163,416.34Z" transform="translate(791.68 -111.15)" style="fill: #f46800"/>
        <path d="M1184,404.12a7.15,7.15,0,0,1,.76.44,8.28,8.28,0,0,1,3,3.37,8.91,8.91,0,0,1-4.2,11.81" transform="translate(791.68 -111.15)" style="fill: none;stroke: #ff9a55;stroke-linecap: round;stroke-miterlimit: 10;stroke-width: 0.5px"/>
        <path d="M1172.4,403.21h5.84" transform="translate(791.68 -111.15)" style="fill: none;stroke: #ff9a55;stroke-linecap: round;stroke-miterlimit: 10;stroke-width: 0.5px"/>
        <path d="M1161.47,419.47a10.87,10.87,0,0,0,1.15,1.2c.21.19.37.34.63.55a7.89,7.89,0,0,0,5.28,1.43h.5l10-.72a1.67,1.67,0,0,1,.06-.38c.19-1.25.61-5.24-1.57-6.87a3.07,3.07,0,0,0-.89-.48l-9.85,2.47h-1.3a6.34,6.34,0,0,1-.76-.15,11.42,11.42,0,0,0-1.65-.19,1.85,1.85,0,0,0-1.26.42,1.94,1.94,0,0,0-.35,2.71Z" transform="translate(791.68 -111.15)" style="fill: #f46800"/>
        <circle cx="1958.9" cy="309.48" r="0.8" style="fill: #1f3440"/>
        <path d="M1162.54,418.59a8.48,8.48,0,0,0-5-3.11,6.3,6.3,0,0,1,1.56.14,6.55,6.55,0,0,1,1.49.57A4.11,4.11,0,0,1,1162.54,418.59Z" transform="translate(791.68 -111.15)" style="fill: #f46800"/>
        <path d="M1162.78,417.48a2.22,2.22,0,0,0-.34-.86,2.48,2.48,0,0,0-.59-.66,10.89,10.89,0,0,0-1.55-1.06,3.77,3.77,0,0,1,1,.19,3.65,3.65,0,0,1,.87.52A1.74,1.74,0,0,1,1162.78,417.48Z" transform="translate(791.68 -111.15)" style="fill: #f46800"/>
        <path d="M1162.38,417.48a2.19,2.19,0,0,0-.94-.58,3.5,3.5,0,0,0-1.07-.2,21.49,21.49,0,0,0-2.27,0,4.41,4.41,0,0,1,2.31-.49,3.08,3.08,0,0,1,1.18.34A1.58,1.58,0,0,1,1162.38,417.48Z" transform="translate(791.68 -111.15)" style="fill: #f46800"/>
        <path d="M1163.72,417.22a5.53,5.53,0,0,0-.64-1.45,4.72,4.72,0,0,0-1.09-1.14,1.77,1.77,0,0,1,.83.27,1.9,1.9,0,0,1,.64.62A2,2,0,0,1,1163.72,417.22Z" transform="translate(791.68 -111.15)" style="fill: #f46800"/>
        <path d="M1184,411.51a2.09,2.09,0,0,1-.69,1.33,3.14,3.14,0,0,1-1.38.71,3.45,3.45,0,0,1-1.53-.17,4,4,0,0,1-.62-.38,3,3,0,0,1-.51-.56h0v-.05h0a4.14,4.14,0,0,0,2.52.39,3.43,3.43,0,0,0,2.15-1.31h0Z" transform="translate(791.68 -111.15)" style="fill: #f46800"/>
        <path d="M1183.65,410a1.57,1.57,0,0,1-.42,1.11,2.2,2.2,0,0,1-1,.64,2.25,2.25,0,0,1-1.23-.13,2.41,2.41,0,0,1-.5-.33,2,2,0,0,1-.34-.51h0v0h0a2.7,2.7,0,0,0,1.87.27,2.9,2.9,0,0,0,1.58-1h.09Z" transform="translate(791.68 -111.15)" style="fill: #f46800"/>
        <path d="M1182.45,408.38a1.21,1.21,0,0,1,.08,1,1.75,1.75,0,0,1-.7.8,1.8,1.8,0,0,1-1,.11,2.25,2.25,0,0,1-.45-.19,1.63,1.63,0,0,1-.36-.38h0a2.26,2.26,0,0,0,1.47-.15,1.75,1.75,0,0,0,.9-1.14h0Z" transform="translate(791.68 -111.15)" style="fill: #f46800"/>
        <path d="M1180.16,407.45a.85.85,0,0,1,.42.9,1.43,1.43,0,0,1-.65.89,1.7,1.7,0,0,1-.92.1l-.4-.16a2.2,2.2,0,0,1-.35-.33h0a2.53,2.53,0,0,0,1.3-.23.94.94,0,0,0,.52-1.07h0Z" transform="translate(791.68 -111.15)" style="fill: #f46800"/>
        <path d="M1179.23,420.6s.79-3.63-1.33-5.48" transform="translate(791.68 -111.15)" style="fill: none;stroke: #d13505;stroke-linecap: round;stroke-miterlimit: 10;stroke-width: 0.25px"/>
        <path d="M1182.23,414.34s3.86,1,3.28,4.31" transform="translate(791.68 -111.15)" style="fill: none;stroke: #d13505;stroke-linecap: round;stroke-miterlimit: 10;stroke-width: 0.4px"/>
        <path d="M1183.65,412.12s4.48-3.06,6.15,0" transform="translate(791.68 -111.15)" style="fill: none;stroke: #d13505;stroke-linecap: round;stroke-miterlimit: 10;stroke-width: 0.4px"/>
        <path d="M1182.6,408.83s.59-4,3.62-4.14" transform="translate(791.68 -111.15)" style="fill: none;stroke: #d13505;stroke-linecap: round;stroke-miterlimit: 10;stroke-width: 0.4px"/>
        <path d="M1179.23,407.43s-.83-3.2,1.36-4.4" transform="translate(791.68 -111.15)" style="fill: none;stroke: #d13505;stroke-linecap: round;stroke-miterlimit: 10;stroke-width: 0.4px"/>
        <path d="M1174.54,406.29s-1.56-2.22.63-3.39" transform="translate(791.68 -111.15)" style="fill: none;stroke: #d13505;stroke-linecap: round;stroke-miterlimit: 10;stroke-width: 0.4px"/>
        <path d="M1176.54,414.4a10.22,10.22,0,0,1-2.55.62,9.8,9.8,0,0,1-2.65,0,6,6,0,0,1-2.52-.94,4.09,4.09,0,0,1-1.6-2.1,5.46,5.46,0,0,0,1.87,1.64,7.76,7.76,0,0,0,2.36.71A24.06,24.06,0,0,0,1176.54,414.4Z" transform="translate(791.68 -111.15)" style="fill: #f46800"/>
        <path d="M1176.68,415a18.52,18.52,0,0,1-6.71.61,10.32,10.32,0,0,1-3.32-.83,4.93,4.93,0,0,1-2.52-2.24,6,6,0,0,0,2.72,1.74,13.89,13.89,0,0,0,3.19.64A49.06,49.06,0,0,0,1176.68,415Z" transform="translate(791.68 -111.15)" style="fill: #f46800"/>
        <path d="M1177.38,414.49a5.11,5.11,0,0,1-1.94.21,4.62,4.62,0,0,1-1.92-.55,3.47,3.47,0,0,1-1.41-1.48,3.51,3.51,0,0,1-.32-1.94,6.52,6.52,0,0,0,.78,1.67,3.92,3.92,0,0,0,1.29,1.14A9.6,9.6,0,0,0,1177.38,414.49Z" transform="translate(791.68 -111.15)" style="fill: #f46800"/>
        <line x1="1929.33" y1="302.54" x2="1931.45" y2="303.97" style="fill: none;stroke: #39b54a;stroke-miterlimit: 10;stroke-width: 1.5px"/>
        <line x1="1925.17" y1="304.77" x2="1923.21" y2="305.61" style="fill: none;stroke: #39b54a;stroke-miterlimit: 10;stroke-width: 1.5px"/>
        <line x1="1919.98" y1="300.04" x2="1921.95" y2="299.78" style="fill: none;stroke: #39b54a;stroke-miterlimit: 10;stroke-width: 1.5px"/>
        <line x1="1942.14" y1="300.35" x2="1944.46" y2="302" style="fill: none;stroke: #39b54a;stroke-miterlimit: 10;stroke-width: 1.5px"/>
        <line x1="1912.96" y1="308.8" x2="1911.06" y2="309.45" style="fill: none;stroke: #39b54a;stroke-miterlimit: 10;stroke-width: 1.5px"/>
        <line x1="1906.04" y1="304.33" x2="1907.27" y2="305.61" style="fill: none;stroke: #39b54a;stroke-miterlimit: 10;stroke-width: 1.5px"/>
        <line x1="1908.68" y1="301.45" x2="1909.86" y2="302" style="fill: none;stroke: #39b54a;stroke-miterlimit: 10;stroke-width: 1.5px"/>
        <line x1="1945.23" y1="310.02" x2="1944.43" y2="310.88" style="fill: none;stroke: #39b54a;stroke-miterlimit: 10;stroke-width: 1.5px"/>
        <line x1="1939.51" y1="294.52" x2="1940.38" y2="295.19" style="fill: none;stroke: #39b54a;stroke-miterlimit: 10;stroke-width: 1.5px"/>
        <line x1="1924.19" y1="290.86" x2="1924.15" y2="292.73" style="fill: none;stroke: #39b54a;stroke-miterlimit: 10;stroke-width: 1.5px"/>
        <line x1="1934.99" y1="307.57" x2="1934.05" y2="308.68" style="fill: none;stroke: #39b54a;stroke-miterlimit: 10;stroke-width: 1.5px"/>
        <line x1="1949.19" y1="298.4" x2="1950.32" y2="299.33" style="fill: none;stroke: #39b54a;stroke-miterlimit: 10;stroke-width: 1.5px"/>
        <line x1="1953.67" y1="308.12" x2="1952.73" y2="308.68" style="fill: none;stroke: #39b54a;stroke-miterlimit: 10;stroke-width: 1.5px"/>
        <line x1="1936.11" y1="298.86" x2="1937.41" y2="299.93" style="fill: none;stroke: #39b54a;stroke-miterlimit: 10;stroke-width: 1.5px"/>
        <line x1="1909.27" y1="290.74" x2="1910.88" y2="291.84" style="fill: none;stroke: #39b54a;stroke-miterlimit: 10;stroke-width: 1.5px"/>
        <line x1="1918.18" y1="287.64" x2="1917.51" y2="288.66" style="fill: none;stroke: #39b54a;stroke-miterlimit: 10;stroke-width: 1.5px"/>
      </g>
      <g id="f">
        <path d="M1104.32,380.4h27.79v22.75a7.84,7.84,0,0,1-7.84,7.84h-12.11a7.84,7.84,0,0,1-7.84-7.84h0V380.4Z" transform="translate(791.68 -111.15)" style="fill: #9c6"/>
        <path d="M1131.45,403.93V401.6H1127V388.09h4.47a6,6,0,0,1,6,6v1.5a6,6,0,0,1-6,6v4.65a10.65,10.65,0,0,0,10.7-10.6V394.1a10.66,10.66,0,0,0-10.66-10.66h-9.16v22.81h9.12Z" transform="translate(791.68 -111.15)" style="fill: #9c6"/>
        <rect x="1896" y="272.29" width="27.91" height="1.59" style="fill: #ffd505"/>
        <g style="opacity: 0.62">
          <path d="M1154.94,246.83h-78c3.32,13.85,9.88,19,15.06,21.18,9.36,4,18.28,0,24.8,5.39,4.08,3.39,5.79,9.3,4,14-3.81,9.88-20.41,7.39-28.79,18-6.79,8.55-4.73,21.29.88,29.45,8.36,12,22.56,11.25,26.62,21.15,3.19,7.82-3,17.62-9.08,24.42h15.72c27.41-15.48,32.39-24.73,30.56-30.52-2.67-8.43-19.25-7.83-27-20.83-5.06-8.48-5.13-20.64,2.22-26.21,6.88-5.22,14.35-.16,23.47-5.39,11-6.28,14.92-22.05,8.42-29.8-2.46-2.92-5.29-3.25-7.62-7.14a16.08,16.08,0,0,1-1.24-13.68" transform="translate(791.68 -111.15)" style="fill: url(#linear-gradient)"/>
          <g style="clip-path: url(#clip-path-2)">
            <rect x="1868.2" y="135.28" width="94.29" height="134.28" style="fill: url(#linear-gradient-2)"/>
          </g>
        </g>
        <path d="M1098.32,414.6h100.83v4a8.46,8.46,0,0,1-8.46,8.46h-83.91a8.46,8.46,0,0,1-8.46-8.46h0v-4Z" transform="translate(791.68 -111.15)" style="fill: #ffd505"/>
        <rect x="1890" y="295.03" width="100.84" height="15.91" rx="7.95" style="fill: #c90"/>
        <path d="M1167.86,422.09h-62.23c-4.65,0-6.94-3.65-6.94-8.16h0" transform="translate(791.68 -111.15)" style="fill: none;stroke: #fdedc8;stroke-linecap: round;stroke-miterlimit: 10"/>
        <line x1="1966.09" y1="310.94" x2="1972.81" y2="310.94" style="fill: none;stroke: #fdedc8;stroke-linecap: round;stroke-miterlimit: 10"/>
        <path d="M1190.8,419.44h-83.16c0-5.89,3.29-10.72,7.44-10.94l65.29-3.42c5.7-.3,10.43,6.17,10.43,14.25Z" transform="translate(791.68 -111.15)" style="fill: #fc6"/>
        <path d="M1160,398.93c2.59,1.77,4.87,6.41,3.09,9s-6.91,2.15-9.5.38a5.68,5.68,0,1,1,6.07-9.6l.34.23Z" transform="translate(791.68 -111.15)" style="fill: #c11f1f"/>
        <path d="M1154,400.43a5.28,5.28,0,0,1,1.25,2.34,5.18,5.18,0,0,1-2.61-.45c-.8-.58-1.14-1.46-.76-2S1153.24,399.85,1154,400.43Z" transform="translate(791.68 -111.15)" style="fill: #6c9e33"/>
        <path d="M1153,402.54a5.52,5.52,0,0,1-1.17,2.39,5.14,5.14,0,0,1-1.16-2.39c0-1,.53-1.78,1.17-1.78S1153,401.56,1153,402.54Z" transform="translate(791.68 -111.15)" style="fill: #6c9e33"/>
        <path d="M1154.45,400.59a5.31,5.31,0,0,0,1.41-2.25,5.27,5.27,0,0,0-2.64.27c-.84.52-1.24,1.38-.9,1.93S1153.59,401.11,1154.45,400.59Z" transform="translate(791.68 -111.15)" style="fill: #6c9e33"/>
        <path d="M1156.39,397.92s5.1,1,4.15,9.95" transform="translate(791.68 -111.15)" style="fill: none;stroke: #5b3103;stroke-linecap: round;stroke-miterlimit: 10"/>
        <path d="M1152.35,399.36s5.81,3.83,1.57,9.22" transform="translate(791.68 -111.15)" style="fill: none;stroke: #5b3103;stroke-linecap: round;stroke-miterlimit: 10"/>
        <polygon points="1913.65 296.63 1936.56 306.96 1966.09 294.22 1913.65 296.63" style="fill: #ffdc9f"/>
        <path d="M1169.9,411.2c-2.75,1.52-7.92,1.46-9.43-1.29s1.2-7.14,4-8.65a5.68,5.68,0,1,1,5.88,9.72l-.4.22Z" transform="translate(791.68 -111.15)" style="fill: #ff2c2c"/>
        <path d="M1171.22,405.25a5.22,5.22,0,0,1-2.66.06,5.14,5.14,0,0,1,1.59-2.13c.87-.45,1.81-.36,2.11.22S1172.09,404.79,1171.22,405.25Z" transform="translate(791.68 -111.15)" style="fill: #9c6"/>
        <path d="M1169.79,403.38a5.22,5.22,0,0,1-1.6-2.12,5.18,5.18,0,0,1,2.65.05c.88.44,1.35,1.27,1.06,1.84S1170.66,403.83,1169.79,403.38Z" transform="translate(791.68 -111.15)" style="fill: #9c6"/>
        <path d="M1170.9,405.52a5.17,5.17,0,0,0,1.37,2.27,5.32,5.32,0,0,0,1-2.48c-.09-1-.68-1.72-1.32-1.66S1170.81,404.54,1170.9,405.52Z" transform="translate(791.68 -111.15)" style="fill: #9c6"/>
        <path d="M1137.45,407s9.2,3.08,2.57,4.63-11.6-.65-16.52-2.79c-3.25-1.43-5.6-.76-7.53-.59" transform="translate(791.68 -111.15)" style="fill: none;stroke: #5b3103;stroke-linecap: round;stroke-miterlimit: 10"/>
        <path d="M1144.88,406.29s13,.67,14.33,13.37" transform="translate(791.68 -111.15)" style="fill: none;stroke: #5b3103;stroke-linecap: round;stroke-miterlimit: 10"/>
        <path d="M1167.23,400.25a7.27,7.27,0,0,0-3.26,8.22c1.53,5.54,6,8.56,11.74,10.77" transform="translate(791.68 -111.15)" style="fill: none;stroke: #5b3103;stroke-linecap: round;stroke-miterlimit: 10"/>
      </g>
      <g id="b">
        <path d="M1101.14,393H1175a2.57,2.57,0,0,1,2.57,2.57h0V430.3h-79V395.53a2.57,2.57,0,0,1,2.61-2.53Z" transform="translate(791.68 -111.15)" style="fill: #a67c52"/>
        <path d="M1098.56,430.26h79v2.66a1.47,1.47,0,0,1-1.47,1.47h-76.15a1.38,1.38,0,0,1-1.38-1.38h0v-2.75Z" transform="translate(791.68 -111.15)" style="fill: #7f5732"/>
        <g style="opacity: 0.25">
          <path d="M1098.56,427.34h14.66a2.56,2.56,0,0,0,2.56-2.56h0a3.19,3.19,0,0,1,3.19-3.19h58.56" transform="translate(791.68 -111.15)" style="fill: none;stroke: #7f5732;stroke-miterlimit: 10"/>
          <path d="M1177.53,425.23h-31.32a5,5,0,0,0-5,5h0" transform="translate(791.68 -111.15)" style="fill: none;stroke: #7f5732;stroke-miterlimit: 10"/>
          <path d="M1098.56,422.66h10.69A4.72,4.72,0,0,0,1114,418h0a4.73,4.73,0,0,0-4.73-4.73h-10.69" transform="translate(791.68 -111.15)" style="fill: none;stroke: #7f5732;stroke-miterlimit: 10"/>
          <path d="M1177.53,405.31h-41.59a2.66,2.66,0,0,0-2.66,2.66h0a2.66,2.66,0,0,0,2.66,2.66H1152a2.25,2.25,0,0,1,2.25,2.25h0a4.14,4.14,0,0,0,4.14,4.14h19.1" transform="translate(791.68 -111.15)" style="fill: none;stroke: #7f5732;stroke-miterlimit: 10"/>
          <path d="M1098.56,397.16h20.58a.87.87,0,0,1,.88.88h0a3.71,3.71,0,0,0,3.71,3.71h53.77" transform="translate(791.68 -111.15)" style="fill: none;stroke: #7f5732;stroke-miterlimit: 10"/>
          <path d="M1098.56,400.81h12.58a1.56,1.56,0,0,1,1.56,1.56h0a1.57,1.57,0,0,1-1.52,1.62h-12.62" transform="translate(791.68 -111.15)" style="fill: none;stroke: #7f5732;stroke-miterlimit: 10"/>
          <path d="M1177.53,397.93h-19.06a4.82,4.82,0,0,1-4.82-4.82h0" transform="translate(791.68 -111.15)" style="fill: none;stroke: #7f5732;stroke-miterlimit: 10"/>
          <path d="M1177.53,407.58h-16.39a2.15,2.15,0,0,0-2.15,2.15h0a2.16,2.16,0,0,0,2.15,2.16h16.38" transform="translate(791.68 -111.15)" style="fill: none;stroke: #7f5732;stroke-miterlimit: 10"/>
        </g>
        <circle cx="1925.29" cy="283.65" r="1.19" style="fill: #fe4c00"/>
        <circle cx="1926.34" cy="282.07" r="1.19" style="fill: #fe4c00"/>
        <circle cx="1927.14" cy="283.74" r="1.19" style="fill: #fe4c00"/>
        <circle cx="1927.89" cy="282.07" r="1.19" style="fill: #fe4c00"/>
        <circle cx="1929.08" cy="280.43" r="1.19" style="fill: #fe4c00"/>
        <circle cx="1929.85" cy="281.8" r="1.19" style="fill: #fe4c00"/>
        <circle cx="1930.63" cy="283.65" r="1.19" style="fill: #fe4c00"/>
        <circle cx="1933.37" cy="283.41" r="1.19" style="fill: #fe4c00"/>
        <circle cx="1931.82" cy="283" r="1.19" style="fill: #fe4c00"/>
        <circle cx="1931.46" cy="281.27" r="1.19" style="fill: #fe4c00"/>
        <circle cx="1933.37" cy="281.48" r="1.19" style="fill: #fe4c00"/>
        <circle cx="1934.98" cy="283" r="1.19" style="fill: #fe4c00"/>
        <circle cx="1936.65" cy="283.26" r="1.19" style="fill: #fe4c00"/>
        <circle cx="1938.62" cy="283.15" r="1.19" style="fill: #fe4c00"/>
        <circle cx="1940.7" cy="283.26" r="1.19" style="fill: #fe4c00"/>
        <circle cx="1939.66" cy="282.07" r="1.19" style="fill: #fe4c00"/>
        <circle cx="1937.84" cy="281.95" r="1.19" style="fill: #fe4c00"/>
        <circle cx="1936.01" cy="281.63" r="1.19" style="fill: #fe4c00"/>
        <circle cx="1934.56" cy="280.88" r="1.19" style="fill: #fe4c00"/>
        <circle cx="1937.07" cy="280.08" r="1.19" style="fill: #fe4c00"/>
        <circle cx="1935.22" cy="279.84" r="1.19" style="fill: #fe4c00"/>
        <circle cx="1933.01" cy="280.08" r="1.19" style="fill: #fe4c00"/>
        <circle cx="1934.2" cy="278.88" r="1.19" style="fill: #fe4c00"/>
        <circle cx="1930.9" cy="280.08" r="1.19" style="fill: #fe4c00"/>
        <circle cx="1928.51" cy="283.41" r="1.19" style="fill: #fe4c00"/>
        <path d="M1150.25,408.8h-17.68a.9.9,0,0,1-.9-.88s0-.08,0-.12a68.13,68.13,0,0,0,0-11.95.9.9,0,0,1,.79-1h17.79a.9.9,0,0,1,.9.9s0,.07,0,.1a59.25,59.25,0,0,0,0,11.91.9.9,0,0,1-.73,1Z" transform="translate(791.68 -111.15)" style="fill: #1f3440"/>
        <path d="M1104.57,406.14H1141v6.69a4.8,4.8,0,0,1-4.8,4.8h-26.78a4.8,4.8,0,0,1-4.8-4.8v-6.69Z" transform="translate(791.68 -111.15)" style="fill: #fff"/>
        <path d="M1140.49,408.87h-35.76a1.86,1.86,0,0,1-1.86-1.86h0a1.9,1.9,0,0,1,1.21-1.77,50.9,50.9,0,0,1,37.07,0,1.9,1.9,0,0,1,1.21,1.77h0a1.86,1.86,0,0,1-1.86,1.86Z" transform="translate(791.68 -111.15)" style="fill: #fc4f4f"/>
        <g style="opacity: 0.73">
          <polygon points="1898.71 297.73 1900.05 297.73 1900.05 297.72 1898.71 297.72 1898.71 297.73" style="fill: #ffbdbd"/>
          <path d="M1110.51,406.3l6.1-1.12a3.2,3.2,0,0,0,2.15-1.49l1.13-1.86c-.54,0-1.09.07-1.63.12l-.64,1.05a1.83,1.83,0,0,1-1.25.86l-6.11,1.14a4,4,0,0,0-3.23,3.88h1.33A2.62,2.62,0,0,1,1110.51,406.3Z" transform="translate(791.68 -111.15)" style="fill: #ffbdbd"/>
          <polygon points="1904.31 299.48 1904.31 299.48 1904.31 299.48 1904.31 299.48" style="fill: #ffbdbd"/>
          <path d="M1115.63,407.75l6.47-1.09a10.17,10.17,0,0,0,6.85-4.49c-.52-.07-1-.14-1.56-.19a8.77,8.77,0,0,1-5.51,3.37l-6.47,1.09a4.38,4.38,0,0,0-3.06,2.08l-.22.35h1.61A3.19,3.19,0,0,1,1115.63,407.75Z" transform="translate(791.68 -111.15)" style="fill: #ffbdbd"/>
          <path d="M1131.73,406.93a3.14,3.14,0,0,1,.92-1.86,6.25,6.25,0,0,1,2.67-1.43l.46-.12q-1.17-.31-2.34-.57a6.68,6.68,0,0,0-1.74,1.18,4.55,4.55,0,0,0-1.3,2.62,7.42,7.42,0,0,0-.06.94,4.69,4.69,0,0,0,.13,1.18h1.41a3.41,3.41,0,0,1-.21-1.18A4.87,4.87,0,0,1,1131.73,406.93Z" transform="translate(791.68 -111.15)" style="fill: #ffbdbd"/>
          <path d="M1138.14,405.16a6.4,6.4,0,0,1,.48-.79h0l-1.33-.4a7.08,7.08,0,0,0-1.18,3.7,4.6,4.6,0,0,0,.17,1.22h1.39a3.88,3.88,0,0,1-.23-1.22A5.53,5.53,0,0,1,1138.14,405.16Z" transform="translate(791.68 -111.15)" style="fill: #ffbdbd"/>
        </g>
        <path d="M1122.61,415.85H1159v6.91a4.58,4.58,0,0,1-4.58,4.58h-27.22a4.58,4.58,0,0,1-4.58-4.58v-6.91Z" transform="translate(791.68 -111.15)" style="fill: #fff"/>
        <rect x="1912.96" y="302.06" width="39.23" height="6.51" rx="1.19" style="fill: #fc3"/>
        <path d="M1154.55,414.73h-30.13v.89h30.13a4,4,0,0,0,3.65-2.41h-1A3.07,3.07,0,0,1,1154.55,414.73Z" transform="translate(791.68 -111.15)" style="fill: #efaf11"/>
        <rect x="1925.56" y="302.06" width="12.77" height="14.13" style="fill: #1f3440"/>
        <rect x="1900.17" y="323.24" width="17.59" height="4.04" style="fill: #563418"/>
        <rect x="1943.39" y="323.24" width="17.59" height="4.04" style="fill: #563418"/>
      </g>
      <g id="pp">
        <text transform="translate(1659.5 181.42) rotate(18.62)" style="isolation: isolate;font-size: 34.96535110473633px;fill: #fdedc8;font-family: Somatic-Rounded, Somatic">!!!</text>
      </g>
      <g id="a">
        <polygon points="1867.33 307.33 1923.31 268.27 1992.12 291.01 1959.26 342.41 1954.12 352.96 1929.73 342.41 1867.33 307.33" style="fill: #fff"/>
        <path d="M1170,424.37a257.18,257.18,0,0,1-49.63,0,3.71,3.71,0,0,1-3.71-3.71v-2.58h57.05v2.58A3.71,3.71,0,0,1,1170,424.37Z" transform="translate(791.68 -111.15)" style="fill: #e7af5f"/>
        <rect x="1906.91" y="300.2" width="59.83" height="5.23" rx="2.36" style="fill: #5b3103"/>
        <rect x="1906.91" y="294.12" width="59.83" height="5.23" rx="2.36" style="fill: #5b3103"/>
        <path d="M1117.15,416.48a3.37,3.37,0,0,0-4,1.6c-1.25,2.45,1.87,2.66,3.74,1.72s5.4-.35,7.58.4,5.15,1.63,8.94-.71,6.7.9,10.28.71,5.77-2,9.35-1.12,7.56,1.79,10,.62,5-1.74,6.55-1,3.5,1.73,5,.79,1.22-2.89-1-3.12Z" transform="translate(791.68 -111.15)" style="fill: #39b54a"/>
        <polygon points="1909.53 300.2 1936.83 303.33 1964.13 300.2 1964.13 299.35 1909.53 299.35 1909.53 300.2" style="fill: #ffd505"/>
        <rect x="1910.12" y="292.65" width="21.58" height="1.47" rx="0.66" style="fill: #009245"/>
        <rect x="1914.22" y="292.65" width="21.58" height="1.47" rx="0.66" style="fill: #fe4c00"/>
        <rect x="1938.87" y="292.65" width="21.58" height="1.47" rx="0.66" style="fill: #fe4c00"/>
        <path d="M1136,383.86h18.32a19.36,19.36,0,0,1,19.36,19.36v.59h-57v-.59A19.36,19.36,0,0,1,1136,383.86Z" transform="translate(791.68 -111.15)" style="fill: #e7af5f"/>
        <path d="M1135.11,387.65c-.13.31-.43.49-.65.39a.55.55,0,0,1-.18-.74c.13-.31.78-.69.78-.69A2.43,2.43,0,0,1,1135.11,387.65Z" transform="translate(791.68 -111.15)" style="fill: #fdedc8"/>
        <path d="M1138.47,388.26a.54.54,0,0,1-.14.74c-.22.11-.52-.05-.67-.35a2.41,2.41,0,0,1,0-1A3.12,3.12,0,0,1,1138.47,388.26Z" transform="translate(791.68 -111.15)" style="fill: #fdedc8"/>
        <path d="M1153.3,388a.47.47,0,1,1-.81.39,2.41,2.41,0,0,1,0-1A2.44,2.44,0,0,1,1153.3,388Z" transform="translate(791.68 -111.15)" style="fill: #fdedc8"/>
        <path d="M1144.65,386.55a.54.54,0,0,1-.15.74c-.22.11-.52-.05-.67-.35a2.65,2.65,0,0,1,0-1.05S1144.5,386.24,1144.65,386.55Z" transform="translate(791.68 -111.15)" style="fill: #fdedc8"/>
        <path d="M1148.72,387.68a.55.55,0,0,1-.35.67.59.59,0,0,1-.54-.53,2.52,2.52,0,0,1,.3-1A2.32,2.32,0,0,1,1148.72,387.68Z" transform="translate(791.68 -111.15)" style="fill: #fdedc8"/>
        <path d="M1147.19,390.86a.56.56,0,0,1-.11.76.55.55,0,0,1-.68-.33,2.41,2.41,0,0,1,0-1A2.5,2.5,0,0,1,1147.19,390.86Z" transform="translate(791.68 -111.15)" style="fill: #fdedc8"/>
        <path d="M1156.57,386.63a.55.55,0,0,1,.1.75.56.56,0,0,1-.75-.13,2.4,2.4,0,0,1-.32-1A2.27,2.27,0,0,1,1156.57,386.63Z" transform="translate(791.68 -111.15)" style="fill: #fdedc8"/>
        <path d="M1135.83,390.5a.55.55,0,0,1-.65.39.54.54,0,0,1-.17-.74c.13-.31.78-.69.78-.69A2.28,2.28,0,0,1,1135.83,390.5Z" transform="translate(791.68 -111.15)" style="fill: #fdedc8"/>
        <path d="M1142.05,390.42c-.06.34-.31.57-.55.53a.55.55,0,0,1-.34-.68,2.53,2.53,0,0,1,.6-.85A2.36,2.36,0,0,1,1142.05,390.42Z" transform="translate(791.68 -111.15)" style="fill: #fdedc8"/>
        <path d="M1132,426.22l-27.19-2.13a1,1,0,0,1-.92-1.07v0l.07-1a1,1,0,0,1,1.06-.93h0l28.73,2.25a.49.49,0,0,1,.45.54.44.44,0,0,1-.07.22l-.91,1.47A1.33,1.33,0,0,1,1132,426.22Z" transform="translate(791.68 -111.15)" style="fill: #ffd38d"/>
        <path d="M1138.58,425.47l-27.12,2.82a1,1,0,0,1-1.11-.88v0l-.1-1a1,1,0,0,1,.89-1.1h0l28.65-3a.5.5,0,0,1,.52.68l-.63,1.61A1.33,1.33,0,0,1,1138.58,425.47Z" transform="translate(791.68 -111.15)" style="fill: #ffda8f"/>
        <path d="M1154.9,427.42l-27.12,2.82a1,1,0,0,1-1.11-.88v0l-.1-1a1,1,0,0,1,.89-1.1h0l28.65-3a.5.5,0,0,1,.52.68l-.63,1.61A1.33,1.33,0,0,1,1154.9,427.42Z" transform="translate(791.68 -111.15)" style="fill: #ffda8f"/>
        <path d="M1150.3,432.3l-27.28-.07a1,1,0,0,1-1-1v-1a1,1,0,0,1,1-1l28.81.09a.49.49,0,0,1,.51.47.54.54,0,0,1-.06.25l-.8,1.54A1.33,1.33,0,0,1,1150.3,432.3Z" transform="translate(791.68 -111.15)" style="fill: #ffda8f"/>
        <path d="M1140.05,421l26.2,7.55a1,1,0,0,1,.7,1.23v0l-.27.94a1,1,0,0,1-1.23.69h0l-27.69-8a.49.49,0,0,1-.34-.62.56.56,0,0,1,.11-.2l1.19-1.26A1.37,1.37,0,0,1,1140.05,421Z" transform="translate(791.68 -111.15)" style="fill: #ffd38d"/>
        <path d="M1136.91,430.62l26.6-6a1,1,0,0,1,1.21.74v0l.21,1a1,1,0,0,1-.75,1.2h0l-28.1,6.36a.49.49,0,0,1-.59-.38.45.45,0,0,1,0-.23l.43-1.68A1.35,1.35,0,0,1,1136.91,430.62Z" transform="translate(791.68 -111.15)" style="fill: #ffe6a6"/>
      </g>
    </g>
  </g>
</svg>
