<svg id="Layer_1" data-name="Layer 1" xmlns="http://www.w3.org/2000/svg" viewBox="0 0 924 700"><defs><style>.cls-1{fill:#ffd400;}.cls-2{fill:#f5c34f;}.cls-3{fill:#ffe5b4;}.cls-4{fill:#f2bf67;}.cls-5{fill:#f7d591;}.cls-6{fill:#1f3440;}.cls-7{fill:#fd8f04;}.cls-8{fill:#5b3103;}.cls-9{fill:#faa747;}.cls-10{fill:#fc4c01;}.cls-11{fill:#ff5800;}.cls-12{fill:#ffe38d;}.cls-13{fill:#fff0ce;}.cls-14{fill:#ffd978;}.cls-15{fill:#ffd988;}.cls-16{fill:#507591;}.cls-17{fill:#e8e1d7;}.cls-18{fill:#ffedbe;}</style></defs><title>Help_illustration</title><path class="cls-1" d="M207.88,683.31h691a2,2,0,1,0,0-4h-691a2,2,0,1,0,0,4"/><path class="cls-1" d="M165.19,679.3H21.12a2,2,0,1,0,0,4H165.19a2,2,0,0,0,0-4"/><rect class="cls-2" x="272.62" y="185.73" width="563.14" height="400" rx="30.51"/><polygon class="cls-3" points="651.44 663.07 472.59 663.07 419.15 339.2 574.49 339.2 651.44 663.07"/><path class="cls-3" d="M421.78,679H639a12.42,12.42,0,0,0,12.42-12.42v-3.69H409.36v3.69A12.42,12.42,0,0,0,421.78,679Z"/><polygon class="cls-4" points="419.15 339.2 462.89 604.26 637.47 604.26 574.49 339.2 419.15 339.2"/><rect class="cls-5" x="255.7" y="185.73" width="563.14" height="400" rx="30.51"/><path class="cls-6" d="M818.84,535.69H255.7V216.24a30.51,30.51,0,0,1,30.51-30.51H788.34a30.51,30.51,0,0,1,30.5,30.51Z"/><rect class="cls-1" x="277.46" y="207.48" width="518.43" height="303.23" rx="16.35"/><rect class="cls-7" x="530.86" y="296.58" width="76.21" height="48.37"/><path class="cls-7" d="M525.23,35.06V50.13a9.81,9.81,0,0,0,8.52,9.9,9.51,9.51,0,0,0,10.47-9.44l0-25.27a4.15,4.15,0,0,1,3.24-4.07c3.47-.75,7-1.34,10.59-1.77a4.19,4.19,0,0,1,4.7,4.15V50.16a9.8,9.8,0,0,0,8.51,9.9,9.52,9.52,0,0,0,10.47-9.44l0-27a4.19,4.19,0,0,1,4.71-4.15q5.37.66,10.59,1.78a4.15,4.15,0,0,1,3.23,4.07l0,24.83a9.81,9.81,0,0,0,8.52,9.9,9.51,9.51,0,0,0,10.47-9.44V35.12a4.18,4.18,0,0,1,6-3.74A116.85,116.85,0,0,1,689,135.53L689,220.71a88.78,88.78,0,0,1-88.84,88.72l-56.15,0a88.77,88.77,0,0,1-88.72-88.83l.06-85.18A116.82,116.82,0,0,1,519.2,31.31,4.17,4.17,0,0,1,525.23,35.06Z"/><path class="cls-8" d="M518.13,238.27a38,38,0,0,0,70.12-.14Z"/><path class="cls-9" d="M600.85,251.37a10.41,10.41,0,0,1-4.55-3.72,10.3,10.3,0,0,1,0-11.5,10.37,10.37,0,0,1,4.53-3.72A4,4,0,0,0,597.7,225a18.3,18.3,0,0,0,.06,33.74,4,4,0,0,0,3.09-7.41Z"/><path class="cls-9" d="M509.35,257.18a18.29,18.29,0,0,0,.11-33.73,4,4,0,0,0-3.13,7.39,10.28,10.28,0,0,1-.06,18.94,4,4,0,1,0,3.08,7.4Z"/><path class="cls-10" d="M522.3,511H685.15L659.68,374.21c-4.6-26-29.38-47-55.35-47H539.67c-28.25,0-47.1,22.91-42.11,51.15Z"/><path class="cls-8" d="M499.1,177.87v7.37a6,6,0,0,0,12,0v-7.37a6,6,0,1,0-12,0"/><path class="cls-7" d="M474.37,367.68l5.08,7.12-5.06-7.13h0l5.08,7.12-5.06-7.13a173.12,173.12,0,0,1-22.47,12.94,143.1,143.1,0,0,1-21.48,8.46,78.11,78.11,0,0,1-21.7,3.55,38.89,38.89,0,0,1-13.29-2.12,28.31,28.31,0,0,1-10.59-6.78A53.88,53.88,0,0,1,375.53,371a85.28,85.28,0,0,1-8.24-24.48A146.12,146.12,0,0,1,365,319.82a198.35,198.35,0,0,1,1.88-26.77c.47-3.39.93-6.08,1.27-7.88.17-.9.3-1.57.39-2l.1-.44v-.07l-6.54-1.45,6.54,1.48v0l-6.54-1.45,6.54,1.48-37.17-8.43c-.1.42-1.23,5.47-2.35,13.57a235.75,235.75,0,0,0-2.23,32c0,13.92,1.3,29.73,5.72,45.62A115.29,115.29,0,0,0,342,389a92,92,0,0,0,16,21.65,66.57,66.57,0,0,0,24.53,15.65,76.86,76.86,0,0,0,26.3,4.41,116.47,116.47,0,0,0,33-5.25,195.75,195.75,0,0,0,38.46-16.65,191.06,191.06,0,0,0,16.33-10.13l-22.15-31Z"/><path class="cls-7" d="M324,291.44H358.5a10.3,10.3,0,0,0,10.3-10.3V268.05a13.38,13.38,0,0,0-13.38-13.38H303.79a6.57,6.57,0,0,0-6.56,6.57v3.42A26.77,26.77,0,0,0,324,291.44Z"/><polyline class="cls-11" points="607.06 308.93 584.83 308.93 584.83 310.94 607.06 310.94"/><rect class="cls-10" x="459.27" y="346.92" width="74.07" height="61.81" transform="translate(-116.18 259.78) rotate(-26.37)"/><path class="cls-12" d="M637.8,184.26c0,18.88,16,34.18,35.65,34.18s35.66-15.3,35.66-34.18-16-34.18-35.66-34.18S637.8,165.38,637.8,184.26Z"/><path class="cls-13" d="M645,184.26a34.18,34.18,0,1,0,34.18-34.18A34.18,34.18,0,0,0,645,184.26Z"/><path class="cls-12" d="M660.51,185.05a20,20,0,1,0,20-20A20,20,0,0,0,660.51,185.05Z"/><path class="cls-14" d="M694.12,185.05a20,20,0,0,0-16.8-19.69,19.34,19.34,0,0,1,3.16-.28,20,20,0,0,1,0,39.95,19.34,19.34,0,0,1-3.16-.28A20,20,0,0,0,694.12,185.05Z"/><path class="cls-13" d="M667,206.78l-25.9,39.32a35.63,35.63,0,0,1-29.75,16H551.14v6h60.23a41.64,41.64,0,0,0,34.77-18.73l25.91-39.32-5-3.31Z"/><path class="cls-15" d="M544.8,272.47h18a7.67,7.67,0,1,0,0-15.34h-18a7.67,7.67,0,1,0,0,15.34Z"/><path class="cls-16" d="M349.67,541.49H458.33c7.57,0,12.31-6.14,10.59-13.7L435.15,379.11c-1.72-7.57-9.25-13.71-16.82-13.71H309.68c-7.57,0-12.32,6.14-10.6,13.71l33.78,148.68C334.58,535.35,342.11,541.49,349.67,541.49Z"/><path class="cls-17" d="M336.15,366l1.76,7.72a2.69,2.69,0,0,0,2.49,2h46.85a1.57,1.57,0,0,0,1.57-2L387.07,366a2.7,2.7,0,0,0-2.49-2h-4.8l-5.19-3.2a15.74,15.74,0,0,0-8.21-2.47h-1.81l-.65-6.07a4.74,4.74,0,0,0,2.65-5.68,8.11,8.11,0,0,0-7.47-6.08h-2.78l-.17,0-.16,0h-3.06a4.71,4.71,0,0,0-4.7,6.08,8.22,8.22,0,0,0,5.53,5.77l2.08,6h-2a10.74,10.74,0,0,0-7.1,2.47L343,364h-5.24A1.57,1.57,0,0,0,336.15,366Zm22.9-16h-1.39a4.55,4.55,0,0,1-4.18-3.41,2.64,2.64,0,0,1,2.63-3.41h1.39a4.54,4.54,0,0,1,4.19,3.41A2.65,2.65,0,0,1,359.05,350Z"/><path class="cls-7" d="M579.52,428.12h0a112.28,112.28,0,0,1-4.09,11.58,135.64,135.64,0,0,1-8.18,16.67c-5.21,9-12.16,18.07-20.35,24.58a52.84,52.84,0,0,1-13.22,7.87,47,47,0,0,1-15.75,3.4c-.91,0-1.81.06-2.69.06a52.47,52.47,0,0,1-14.41-1.95,55.14,55.14,0,0,1-20-10.66,77.88,77.88,0,0,1-11.56-11.86,102.29,102.29,0,0,1-11.1-17.5c-1.19-2.37-2.05-4.32-2.58-5.6-.26-.64-.45-1.11-.55-1.39l-.1-.26h0l-7.74,2.8,7.77-2.73,0-.07-7.74,2.8,7.77-2.73L419,455.77a107.68,107.68,0,0,0,5.24,11.92A140.71,140.71,0,0,0,435,485.61a114.49,114.49,0,0,0,30,29.7,91.41,91.41,0,0,0,22.61,10.85,90.49,90.49,0,0,0,27.59,4.23c1.45,0,2.92,0,4.41-.1a85.29,85.29,0,0,0,26.2-5.32A88.8,88.8,0,0,0,565,515a110.48,110.48,0,0,0,24.65-23.68,160.27,160.27,0,0,0,20.51-35.77,145.59,145.59,0,0,0,6.25-17.67l-36.84-9.75Z"/><path class="cls-7" d="M420.37,457.45H458l.29-.28V440.38a22.51,22.51,0,0,0-22.51-22.51H412.59a15.82,15.82,0,0,0-15.82,15.82v.16A23.61,23.61,0,0,0,420.37,457.45Z"/><path class="cls-8" d="M577.74,184.89a11.16,11.16,0,0,1,22.32,0,5,5,0,1,0,10,0,21.19,21.19,0,0,0-42.38,0,5,5,0,1,0,10,0Z"/><rect class="cls-18" x="268.72" y="125.81" width="145.1" height="90.71" rx="24.43"/><path class="cls-18" d="M363.56,213.18l68.77,41.46a1.46,1.46,0,0,0,1.78-2.3l-49.75-49Z"/><path class="cls-15" d="M368.25,192.79h-.91a7.08,7.08,0,0,1-7-7.31c0-4.12,3.09-7.55,7-7.55h.91c3.77,0,7,3.43,7,7.55A7.16,7.16,0,0,1,368.25,192.79Zm-26.29,0H341a7.07,7.07,0,0,1-7-7.31c0-4.12,3.08-7.55,7-7.55H342c3.77,0,7,3.43,7,7.55A7.15,7.15,0,0,1,342,192.79Zm-26.3,0h-.91a7.08,7.08,0,0,1-7-7.31c0-4.12,3.09-7.55,7-7.55h.91c3.77,0,7,3.43,7,7.55A7.16,7.16,0,0,1,315.66,192.79Z"/><rect class="cls-18" x="141.62" y="17.31" width="127.99" height="90.71" rx="24.43"/><path class="cls-18" d="M189.5,100.13l-79.34,72a2,2,0,0,1-2.93-2.55l52.49-77Z"/><path class="cls-15" d="M202.42,85.4h-.58a5,5,0,0,0,0,9.94h.58a5,5,0,0,0,0-9.94Zm.17-52.28A18.39,18.39,0,0,0,188.31,40,4.93,4.93,0,1,0,196,46.15a8.56,8.56,0,0,1,6.6-3.09,8.44,8.44,0,1,1,0,16.87h-.5a5,5,0,0,0-4.93,5v9.6a5,5,0,1,0,9.94,0V69.28a18.36,18.36,0,0,0-4.51-36.16Z"/></svg>