<?xml version="1.0" encoding="UTF-8" standalone="no"?>
<svg
   xmlns:dc="http://purl.org/dc/elements/1.1/"
   xmlns:cc="http://creativecommons.org/ns#"
   xmlns:rdf="http://www.w3.org/1999/02/22-rdf-syntax-ns#"
   xmlns:svg="http://www.w3.org/2000/svg"
   xmlns="http://www.w3.org/2000/svg"
   xmlns:sodipodi="http://sodipodi.sourceforge.net/DTD/sodipodi-0.dtd"
   xmlns:inkscape="http://www.inkscape.org/namespaces/inkscape"
   id="Layer_1"
   data-name="Layer 1"
   viewBox="0 0 858.81999 324.24999"
   version="1.1"
   sodipodi:docname="search_mobile.svg"
   inkscape:version="1.0.1 (0767f8302a, 2020-10-17)">
  <metadata
     id="metadata656">
    <rdf:RDF>
      <cc:Work
         rdf:about="">
        <dc:format>image/svg+xml</dc:format>
        <dc:type
           rdf:resource="http://purl.org/dc/dcmitype/StillImage" />
        <dc:title>SearchResults</dc:title>
      </cc:Work>
    </rdf:RDF>
  </metadata>
  <sodipodi:namedview
     pagecolor="#ffffff"
     bordercolor="#666666"
     borderopacity="1"
     objecttolerance="10"
     gridtolerance="10"
     guidetolerance="10"
     inkscape:pageopacity="0"
     inkscape:pageshadow="2"
     inkscape:window-width="1920"
     inkscape:window-height="1051"
     id="namedview654"
     showgrid="false"
     fit-margin-top="0"
     fit-margin-left="0"
     fit-margin-right="0"
     fit-margin-bottom="0"
     inkscape:zoom="1.1394753"
     inkscape:cx="423.54501"
     inkscape:cy="150.78501"
     inkscape:window-x="0"
     inkscape:window-y="0"
     inkscape:window-maximized="1"
     inkscape:current-layer="Layer_1" />
  <defs
     id="defs49">
    <style
       id="style2">.cls-1{fill:none;}.cls-2{fill:#fd8f04;}.cls-3{fill:#fdd307;}.cls-4{fill:#5b3103;}.cls-5{fill:#162c36;}.cls-6{fill:#1f3440;}.cls-7{fill:#ffeec4;}.cls-8{fill:#0071c1;}.cls-9{clip-path:url(#clip-path);}.cls-10{fill:#7da87a;}.cls-11{fill:#7fb5c5;}.cls-12{fill:#fc4c01;}.cls-13{fill:#ffd57b;}.cls-14{fill:#ffe8b0;}.cls-15{fill:#ffe4a7;}.cls-16{fill:#faa747;}.cls-17{fill:#0c1d24;}.cls-18{fill:#fdca66;}.cls-19{fill:#d9991d;}.cls-20{fill:#ab6900;}.cls-21{fill:#bf7e00;}.cls-22{fill:#4e8e8c;}.cls-23{fill:#69adaa;}.cls-24{fill:#fae48b;}.cls-25{fill:#4f3102;}.cls-26{fill:#cc993e;}.cls-27{fill:#ac7b4a;}.cls-28{clip-path:url(#clip-path-2);}.cls-29{clip-path:url(#clip-path-3);}.cls-30{fill:#ab6d26;}.cls-31{fill:#a96316;}.cls-32{clip-path:url(#clip-path-4);}.cls-33{clip-path:url(#clip-path-5);}.cls-34{clip-path:url(#clip-path-6);}.cls-35{fill:#663606;}.cls-36{fill:#cc9a65;}.cls-37{fill:#aa7441;}.cls-38{clip-path:url(#clip-path-7);}.cls-39{fill:#cc8936;}.cls-40{fill:#ca7d22;}.cls-41{clip-path:url(#clip-path-9);}.cls-42{fill:#aa681f;}.cls-43{fill:#a75e10;}.cls-44{clip-path:url(#clip-path-11);}.cls-45{clip-path:url(#clip-path-12);}.cls-46{clip-path:url(#clip-path-13);}.cls-47{clip-path:url(#clip-path-14);}.cls-48{clip-path:url(#clip-path-16);}.cls-49{fill:#926030;}.cls-50{clip-path:url(#clip-path-17);}.cls-51{fill:#915615;}.cls-52{fill:#8f4e07;}.cls-53{fill:#471f05;}.cls-54{fill:#7b4a1a;}.cls-55{fill:#ffd400;}.cls-56{fill:#ffb300;}.cls-57{fill:#ffca46;}.cls-58{fill:#3ee5cb;}.cls-59{clip-path:url(#clip-path-22);}.cls-60{fill:#ffca5b;}.cls-61{fill:#c0d58e;}.cls-62{fill:#ffd574;}.cls-63{fill:#76ead7;}.cls-64{fill:#cedda8;}.cls-65{fill:#84580c;}.cls-66{fill:#825817;}.cls-67{fill:#645d2c;}.cls-68{fill:#ecb358;}.cls-69{fill:#dca84b;}.cls-70{fill:#c8ca53;}.cls-71{fill:#fde6b7;}.cls-72{fill:#fcbd4d;}.cls-73{fill:#ffe1a6;}</style>
    <clipPath
       id="clip-path">
      <path
         class="cls-1"
         d="m 765.08,287.18 a 13.17,13.17 0 0 1 -0.26,1.42 h 0.4 v 0 -1.44 h -0.17"
         id="path4" />
    </clipPath>
    <clipPath
       id="clip-path-2">
      <path
         class="cls-1"
         d="m 343.6,111.33 -1.07,2 a 9.16,9.16 0 0 1 -12.38,3.79 l -18.92,-10 a 5.65,5.65 0 0 1 -2.35,-7.66 l 0.05,-0.09 A 5.66,5.66 0 0 1 316.59,97 l 27,14.33"
         id="path7" />
    </clipPath>
    <clipPath
       id="clip-path-3">
      <polyline
         class="cls-1"
         points="275.46 143.42 315.06 143.42 315.06 103.82 275.46 103.82 275.46 143.42"
         id="polyline10" />
    </clipPath>
    <clipPath
       id="clip-path-4">
      <polyline
         class="cls-1"
         points="315.06 143.42 354.65 143.42 354.65 103.82 315.06 103.82 315.06 143.42"
         id="polyline13" />
    </clipPath>
    <clipPath
       id="clip-path-5">
      <polyline
         class="cls-1"
         points="275.46 103.82 315.06 103.82 315.06 64.23 275.46 64.23 275.46 103.82"
         id="polyline16" />
    </clipPath>
    <clipPath
       id="clip-path-6">
      <polyline
         class="cls-1"
         points="315.06 103.82 354.65 103.82 354.65 64.23 315.06 64.23 315.06 103.82"
         id="polyline19" />
    </clipPath>
    <clipPath
       id="clip-path-7">
      <path
         class="cls-1"
         d="m 381.61,144.21 -58.43,-30.73 a 0.53,0.53 0 0 1 -0.22,-0.72 l 4.78,-9.09 a 28.24,28.24 0 0 1 38.14,-11.85 l 9.38,4.93 a 28.24,28.24 0 0 1 11.85,38.14 l -4.78,9.11 a 0.53,0.53 0 0 1 -0.72,0.23"
         id="path22" />
    </clipPath>
    <clipPath
       id="clip-path-9">
      <polyline
         class="cls-1"
         points="354.65 143.42 394.25 143.42 394.25 103.82 354.65 103.82 354.65 143.42"
         id="polyline25" />
    </clipPath>
    <clipPath
       id="clip-path-11">
      <polyline
         class="cls-1"
         points="354.65 103.82 394.25 103.82 394.25 64.23 354.65 64.23 354.65 103.82"
         id="polyline28" />
    </clipPath>
    <clipPath
       id="clip-path-12">
      <path
         class="cls-1"
         d="m 366.58,128.48 -1.05,2 a 9.16,9.16 0 0 0 3.89,12.36 l 19,9.9 a 5.67,5.67 0 0 0 7.65,-2.4 l 0.05,-0.1 a 5.67,5.67 0 0 0 -2.41,-7.64 l -27.12,-14.14"
         id="path31" />
    </clipPath>
    <clipPath
       id="clip-path-13">
      <polyline
         class="cls-1"
         points="354.65 183.01 394.25 183.01 394.25 143.42 354.65 143.42 354.65 183.01"
         id="polyline34" />
    </clipPath>
    <clipPath
       id="clip-path-14">
      <polyline
         class="cls-1"
         points="394.25 183.01 433.84 183.01 433.84 143.42 394.25 143.42 394.25 183.01"
         id="polyline37" />
    </clipPath>
    <clipPath
       id="clip-path-16">
      <polyline
         class="cls-1"
         points="394.25 143.42 433.84 143.42 433.84 103.82 394.25 103.82 394.25 143.42"
         id="polyline40" />
    </clipPath>
    <clipPath
       id="clip-path-17">
      <path
         class="cls-1"
         d="M 359.27,132.46 328.05,116 l 7.54,-14.33 a 20.34,20.34 0 0 1 27.48,-8.54 l 0.52,0.28 a 14.33,14.33 0 0 1 6,19.36 l -10.33,19.65"
         id="path43" />
    </clipPath>
    <clipPath
       id="clip-path-22">
      <path
         class="cls-1"
         d="m 368.55,160.93 v 0 m 0,0 v 0 m 0,0 v 0 m 0,0 v 0 m 0,0 v 0 m 0,0 v 0 m 0,0 v 0 m 0,0 v 0 0 0 m 0,0 v 0 m 0,-0.05 v 0 0 0 0 m 12.81,-7.3 v 0 m -2.76,-0.52 c -3.95,0 -8.06,3 -10,7.81 v 0 c 2,-4.77 6.09,-7.81 10,-7.81 m 0,0 v 0"
         id="path46" />
    </clipPath>
  </defs>
  <title
     id="title51">SearchResults</title>
  <path
     class="cls-2"
     d="m 680.53,227.65 2.91,-5 -2.92,5 v 0 l 2.91,-5 -2.92,5 h 0.07 c 0.37,0.22 2.3,1.36 5,3.09 2,1.3 4.37,2.93 6.82,4.75 1.83,1.36 3.69,2.83 5.43,4.34 a 43.18,43.18 0 0 1 6.37,6.58 13.19,13.19 0 0 1 1.53,2.53 4.57,4.57 0 0 1 0.27,0.78 1.21,1.21 0 0 1 0,0.33 h 0.1 -0.12 0.12 -0.12 v 0 a 7,7 0 0 1 -0.36,1.51 l -0.08,0.17 v 0 l 0.9,0.54 -0.74,-0.73 a 1.21,1.21 0 0 0 -0.16,0.19 l 0.9,0.54 -0.74,-0.73 1.62,1.61 -0.83,-2.12 a 2.4,2.4 0 0 0 -0.79,0.51 l 1.62,1.61 -0.83,-2.12 0.67,1.72 v -1.86 a 2,2 0 0 0 -0.67,0.14 l 0.67,1.72 v -1.28 -0.58 0 0.58 -0.58 0 0 0 a 2.4,2.4 0 0 1 -0.37,-0.09 10.23,10.23 0 0 1 -2,-1 36.48,36.48 0 0 1 -5.27,-4.06 96.2,96.2 0 0 1 -7.62,-7.78 c -1,-1.16 -1.85,-2.15 -2.42,-2.84 l -0.65,-0.8 -0.17,-0.21 v 0 0 l -1.89,1.49 1.89,-1.49 v 0 l -1.89,1.49 1.89,-1.49 v 0 l -4.74,3.74 4.74,-3.74 v 0 l -4.74,3.74 4.74,-3.74 -9.93,7.83 c 0,0 1,1.32 2.66,3.21 1.22,1.42 2.8,3.19 4.59,5.06 1.35,1.41 2.82,2.88 4.37,4.31 a 53.39,53.39 0 0 0 7.49,5.88 24.24,24.24 0 0 0 4.25,2.16 16,16 0 0 0 2.4,0.71 12.81,12.81 0 0 0 2.69,0.3 10.83,10.83 0 0 0 4.25,-0.86 10.2,10.2 0 0 0 2.92,-1.9 11.29,11.29 0 0 0 1.67,-1.94 13.88,13.88 0 0 0 1.63,-3.3 20.57,20.57 0 0 0 0.86,-3.6 v 0 a 12.39,12.39 0 0 0 0.15,-1.91 14.41,14.41 0 0 0 -0.56,-3.89 21.52,21.52 0 0 0 -3,-6.13 37.72,37.72 0 0 0 -3.71,-4.62 73.36,73.36 0 0 0 -7.78,-7.17 139.64,139.64 0 0 0 -11.39,-8.21 c -3.15,-2.06 -5.32,-3.31 -5.39,-3.35 l -6.33,11 z"
     id="path53" />
  <polyline
     class="cls-2"
     points="748.1 282.77 723.89 282.77 723.89 267.4 748.1 267.4 748.1 282.77"
     id="polyline55"
     transform="translate(-85.9,-66.83)" />
  <path
     class="cls-2"
     d="m 663.49,119.36 v 4.81 a 3.11,3.11 0 0 1 -2.71,3.14 3,3 0 0 1 -3.33,-3 v -8 a 1.32,1.32 0 0 0 -1,-1.29 c -1.1,-0.24 -2.22,-0.42 -3.36,-0.56 a 1.33,1.33 0 0 0 -1.49,1.32 v 8.39 a 3.11,3.11 0 0 1 -2.71,3.14 3,3 0 0 1 -3.33,-3 v -8.56 a 1.33,1.33 0 0 0 -1.49,-1.32 c -1.14,0.14 -2.26,0.32 -3.36,0.56 a 1.32,1.32 0 0 0 -1,1.29 v 7.89 a 3.11,3.11 0 0 1 -2.71,3.14 3,3 0 0 1 -3.32,-3 v -4.93 a 1.33,1.33 0 0 0 -1.98,-1.21 37.11,37.11 0 0 0 -20.27,33.08 v 27 a 28.21,28.21 0 0 0 28.2,28.21 h 17.84 a 28.21,28.21 0 0 0 28.2,-28.21 v -27 a 37.11,37.11 0 0 0 -20.27,-33.08 1.33,1.33 0 0 0 -1.91,1.19"
     id="path57" />
  <path
     class="cls-3"
     d="m 670.55,229.07 -1,-6.17 0.94,6.19 h 0.1 l -1,-6.17 0.94,6.19 -0.33,-2.17 0.31,2.17 v 0 l -0.33,-2.17 0.31,2.17 v 0 a 14.78,14.78 0 0 1 1.58,-0.08 19.39,19.39 0 0 1 5.74,0.88 17.68,17.68 0 0 1 3.43,1.48 17.48,17.48 0 0 1 3.45,2.55 l 12.83,-13.61 a 36.32,36.32 0 0 0 -17.42,-9.16 39,39 0 0 0 -8.05,-0.87 29.37,29.37 0 0 0 -4.58,0.33 l 3.12,18.43 v 0"
     id="path59" />
  <path
     class="cls-4"
     d="m 638.49,181.5 h 26.44 a 1.38,1.38 0 0 0 0,-2.75 h -26.44 a 1.38,1.38 0 0 0 0,2.75"
     id="path61" />
  <path
     class="cls-2"
     d="m 661.55,278.48 h -26.08 a 11.66,11.66 0 0 1 -11.65,-11.65 v -53.19 h 49.39 v 53.19 a 11.66,11.66 0 0 1 -11.66,11.65"
     id="path63" />
  <path
     class="cls-5"
     d="m 673.26,279.47 h -39.58 a 9.9,9.9 0 0 1 -9.91,-9.91 v -22.39 h 49.49 z"
     id="path65" />
  <polyline
     class="cls-3"
     points="759.16 326.61 709.67 326.61 709.67 277.12 759.16 277.12 759.16 326.61"
     id="polyline67"
     transform="translate(-85.9,-66.83)" />
  <polyline
     class="cls-2"
     points="730.01 307.75 730.01 380.54 742.65 380.54 742.65 307.75"
     id="polyline69"
     transform="translate(-85.9,-66.83)" />
  <path
     class="cls-6"
     d="m 656.75,279.47 h -13.19 v -44.95 a 6.6,6.6 0 1 1 13.19,0 z"
     id="path71" />
  <path
     class="cls-6"
     d="M 669.39,315.91 H 645.2 a 1.1,1.1 0 0 1 -1.1,-1.1 v -8.8 h 17.6 a 8.8,8.8 0 0 1 8.8,8.8 1.11,1.11 0 0 1 -1.11,1.1 z"
     id="path73" />
  <rect
     class="cls-6"
     x="644.10999"
     y="287.37003"
     width="13.2"
     height="23.530001"
     id="rect75" />
  <polyline
     class="cls-2"
     points="756.95 307.75 756.95 380.54 769.59 380.54 769.59 307.75"
     id="polyline77"
     transform="translate(-85.9,-66.83)" />
  <path
     class="cls-6"
     d="M 683.69,279.47 H 670.5 v -44.95 a 6.6,6.6 0 1 1 13.19,0 z"
     id="path79" />
  <path
     class="cls-6"
     d="M 696.33,315.91 H 672.1 a 1.1,1.1 0 0 1 -1.1,-1.1 v -8.8 h 17.6 a 8.79,8.79 0 0 1 8.79,8.8 1.1,1.1 0 0 1 -1.06,1.1 z"
     id="path81" />
  <rect
     class="cls-6"
     x="671.04999"
     y="287.37003"
     width="13.2"
     height="23.530001"
     id="rect83" />
  <path
     class="cls-2"
     d="m 608.31,217.4 a 46.71,46.71 0 0 0 -9.45,6.37 49.41,49.41 0 0 0 -8.65,9.89 l 10.53,7 a 36.37,36.37 0 0 1 6.43,-7.37 34.09,34.09 0 0 1 6.89,-4.65 l -5.75,-11.26 z"
     id="path85" />
  <path
     class="cls-3"
     d="m 629.18,210.64 a 29.51,29.51 0 0 0 -4.58,-0.33 38.66,38.66 0 0 0 -11.33,1.73 37.09,37.09 0 0 0 -7,3 36.28,36.28 0 0 0 -7.09,5.23 L 612,233.88 a 17.52,17.52 0 0 1 3.46,-2.55 17.87,17.87 0 0 1 5.07,-1.92 20.18,20.18 0 0 1 4.1,-0.44 12.66,12.66 0 0 1 1.34,0.06 h 0.23 v 0 l 0.68,-4.76 -0.78,4.8 h 0.13 l 0.68,-4.76 -0.81,4.76 3.13,-18.43 z"
     id="path87" />
  <path
     class="cls-7"
     d="M 662.61,234.73 H 650.9 a 16.74,16.74 0 0 1 -16.74,-16.74 v -7.7 h 45.19 v 7.7 a 16.74,16.74 0 0 1 -16.74,16.74"
     id="path89" />
  <path
     class="cls-8"
     d="m 634.16,215 a 3.26,3.26 0 0 1 1.58,0.36 5,5 0 0 1 0.87,0.63 11.53,11.53 0 0 0 1.53,1.23 5,5 0 0 0 4.73,0.12 6.39,6.39 0 0 0 1.14,-0.81 10,10 0 0 1 1.33,-1.08 3.1,3.1 0 0 1 1.73,-0.45 3.22,3.22 0 0 1 1.57,0.36 5.1,5.1 0 0 1 0.88,0.63 10.91,10.91 0 0 0 1.53,1.23 4.69,4.69 0 0 0 2.47,0.66 4.74,4.74 0 0 0 2.26,-0.54 6,6 0 0 0 1.13,-0.81 10.75,10.75 0 0 1 1.34,-1.08 3.1,3.1 0 0 1 1.73,-0.45 3.22,3.22 0 0 1 1.57,0.36 5.1,5.1 0 0 1 0.88,0.63 10.91,10.91 0 0 0 1.53,1.23 4.69,4.69 0 0 0 2.47,0.66 4.74,4.74 0 0 0 2.26,-0.54 6.39,6.39 0 0 0 1.14,-0.81 10,10 0 0 1 1.33,-1.08 3.1,3.1 0 0 1 1.73,-0.45 3.26,3.26 0 0 1 1.58,0.36 4.62,4.62 0 0 1 0.87,0.64 12.39,12.39 0 0 0 1.53,1.22 4.75,4.75 0 0 0 2.48,0.66 v -1.44 a 3.15,3.15 0 0 1 -1.58,-0.37 4.62,4.62 0 0 1 -0.88,-0.63 11,11 0 0 0 -1.53,-1.22 5,5 0 0 0 -4.73,-0.12 6.39,6.39 0 0 0 -1.14,0.81 10,10 0 0 1 -1.33,1.08 3.27,3.27 0 0 1 -1.73,0.45 3.15,3.15 0 0 1 -1.58,-0.37 4.89,4.89 0 0 1 -0.87,-0.63 12.39,12.39 0 0 0 -1.53,-1.22 5,5 0 0 0 -4.73,-0.12 6.39,6.39 0 0 0 -1.14,0.81 10,10 0 0 1 -1.33,1.08 3.27,3.27 0 0 1 -1.73,0.45 3.15,3.15 0 0 1 -1.58,-0.37 4.89,4.89 0 0 1 -0.87,-0.63 12.39,12.39 0 0 0 -1.53,-1.22 5,5 0 0 0 -4.73,-0.12 6,6 0 0 0 -1.13,0.81 10.75,10.75 0 0 1 -1.34,1.08 3.26,3.26 0 0 1 -1.72,0.45 3.12,3.12 0 0 1 -1.58,-0.37 4.62,4.62 0 0 1 -0.88,-0.63 11,11 0 0 0 -1.53,-1.22 4.6,4.6 0 0 0 -2.47,-0.66 V 215"
     id="path91" />
  <g
     class="cls-9"
     clip-path="url(#clip-path)"
     id="g95"
     transform="translate(-85.9,-66.83)">
    <rect
       class="cls-10"
       x="764.82001"
       y="287.17999"
       width="0.43000001"
       height="1.4400001"
       id="rect93" />
  </g>
  <path
     class="cls-10"
     d="m 634.16,218.17 v 0.77 0 c 0,-0.25 0,-0.51 0,-0.77"
     id="path97" />
  <path
     class="cls-11"
     d="m 672.91,217.48 v 0 a 4.69,4.69 0 0 0 -2.24,0.53 6.39,6.39 0 0 0 -1.14,0.81 10,10 0 0 1 -1.33,1.08 3.1,3.1 0 0 1 -1.73,0.45 3.26,3.26 0 0 1 -1.58,-0.36 5.45,5.45 0 0 1 -0.87,-0.63 11.53,11.53 0 0 0 -1.53,-1.23 4.64,4.64 0 0 0 -2.45,-0.65 v 0 a 4.69,4.69 0 0 0 -2.24,0.53 6.39,6.39 0 0 0 -1.14,0.81 10,10 0 0 1 -1.33,1.08 3.1,3.1 0 0 1 -1.73,0.45 3.26,3.26 0 0 1 -1.58,-0.36 5.45,5.45 0 0 1 -0.87,-0.63 11.53,11.53 0 0 0 -1.53,-1.23 4.64,4.64 0 0 0 -2.45,-0.65 v 0 a 4.69,4.69 0 0 0 -2.24,0.53 6,6 0 0 0 -1.13,0.81 10.75,10.75 0 0 1 -1.34,1.08 3.09,3.09 0 0 1 -1.72,0.45 3.24,3.24 0 0 1 -1.58,-0.36 5.1,5.1 0 0 1 -0.88,-0.63 10.36,10.36 0 0 0 -1.53,-1.23 4.61,4.61 0 0 0 -2.45,-0.65 v 0 0.69 c 0,0.26 0,0.52 0,0.77 a 3.19,3.19 0 0 1 1.55,0.37 4.56,4.56 0 0 1 0.87,0.63 11.52,11.52 0 0 0 1.38,1.23 4.58,4.58 0 0 0 2.45,0.66 v 0 a 4.63,4.63 0 0 0 2.24,-0.53 6.94,6.94 0 0 0 1.14,-0.81 9.4,9.4 0 0 1 1.33,-1.09 3.27,3.27 0 0 1 1.73,-0.45 3.22,3.22 0 0 1 1.57,0.37 4.62,4.62 0 0 1 0.88,0.63 10.9,10.9 0 0 0 1.66,1.22 4.55,4.55 0 0 0 2.45,0.66 v 0 a 4.69,4.69 0 0 0 2.24,-0.53 6.44,6.44 0 0 0 1.13,-0.81 10,10 0 0 1 1.34,-1.09 3.27,3.27 0 0 1 1.73,-0.45 3.22,3.22 0 0 1 1.57,0.37 4.62,4.62 0 0 1 0.88,0.63 10.9,10.9 0 0 0 1.53,1.22 4.55,4.55 0 0 0 2.45,0.66 v 0 a 4.69,4.69 0 0 0 2.24,-0.53 6.94,6.94 0 0 0 1.14,-0.81 9.4,9.4 0 0 1 1.33,-1.09 3.55,3.55 0 0 1 3.31,-0.08 4.56,4.56 0 0 1 0.87,0.63 11.52,11.52 0 0 0 1.53,1.22 4.55,4.55 0 0 0 2.05,0.64 13.17,13.17 0 0 0 0.26,-1.42 3.07,3.07 0 0 1 -1.41,-0.36 5.1,5.1 0 0 1 -0.88,-0.63 10.36,10.36 0 0 0 -1.53,-1.23 4.61,4.61 0 0 0 -2.45,-0.65"
     id="path99" />
  <polyline
     class="cls-12"
     points="709.67 296.38 713.52 296.38 713.52 295.83 709.67 295.83"
     id="polyline101"
     transform="translate(-85.9,-66.83)" />
  <path
     class="cls-2"
     d="m 676.44,240.91 h 15.12 v -8 a 8,8 0 0 0 -8,-8 h -7.15 a 8,8 0 0 0 0,15.94 z"
     id="path103" />
  <path
     class="cls-2"
     d="m 590.21,233.66 a 26.12,26.12 0 0 0 -4.63,14.39 20.7,20.7 0 0 0 1,6.33 17.8,17.8 0 0 0 2,4.22 15.28,15.28 0 0 0 5.07,4.88 14.08,14.08 0 0 0 7.08,1.91 15.24,15.24 0 0 0 5,-0.87 18.27,18.27 0 0 0 4.13,-2.05 26.78,26.78 0 0 0 6.43,-6.09 55.56,55.56 0 0 0 7.93,-15.1 127.83,127.83 0 0 0 5.78,-23.52 l -12.49,-2 a 120.58,120.58 0 0 1 -4.42,19 59.64,59.64 0 0 1 -3.93,9.38 23,23 0 0 1 -5.51,7.22 7.25,7.25 0 0 1 -1.89,1.14 2.79,2.79 0 0 1 -1,0.23 1.44,1.44 0 0 1 -0.64,-0.15 2.2,2.2 0 0 1 -0.52,-0.4 4.25,4.25 0 0 1 -0.89,-1.48 7.69,7.69 0 0 1 -0.44,-2.66 13.45,13.45 0 0 1 2.51,-7.37 l -10.53,-7 z"
     id="path105" />
  <path
     class="cls-13"
     d="m 659.78,181.57 c 0,2.87 -3.15,2.87 -3.15,5.74 0,2.87 3.15,2.87 3.15,5.74 0,2.87 -3.15,2.88 -3.15,5.75 0,2.87 3.15,2.87 3.15,5.74 0,2.87 -3.15,2.88 -3.15,5.75 h -14.9 c 0,-2.87 3.16,-2.87 3.16,-5.75 0,-2.88 -3.16,-2.87 -3.16,-5.74 0,-2.87 3.16,-2.87 3.16,-5.75 0,-2.88 -3.16,-2.87 -3.16,-5.74 0,-2.87 3.16,-2.87 3.16,-5.74 h 14.89"
     id="path107" />
  <path
     class="cls-7"
     d="m 652.2,181.57 a 2.52,2.52 0 0 1 -0.4,1.4 14.22,14.22 0 0 1 -1.6,1.64 4.3,4.3 0 0 0 -0.81,1.11 3.58,3.58 0 0 0 -0.35,1.59 3.54,3.54 0 0 0 0.59,2 12.38,12.38 0 0 0 1.72,1.79 3.11,3.11 0 0 1 0.61,0.83 2.43,2.43 0 0 1 0.24,1.11 2.53,2.53 0 0 1 -0.4,1.41 14.2,14.2 0 0 1 -1.6,1.63 4.36,4.36 0 0 0 -0.81,1.12 3.52,3.52 0 0 0 -0.35,1.59 3.57,3.57 0 0 0 0.59,2 12.38,12.38 0 0 0 1.72,1.79 3,3 0 0 1 0.61,0.83 2.4,2.4 0 0 1 0.24,1.11 2.53,2.53 0 0 1 -0.4,1.41 13.44,13.44 0 0 1 -1.6,1.63 4.13,4.13 0 0 0 -0.81,1.12 3.58,3.58 0 0 0 -0.35,1.59 h 1.06 a 2.4,2.4 0 0 1 0.41,-1.4 12.62,12.62 0 0 1 1.59,-1.64 3.93,3.93 0 0 0 0.81,-1.12 3.52,3.52 0 0 0 0.35,-1.59 3.57,3.57 0 0 0 -0.59,-2 12.38,12.38 0 0 0 -1.72,-1.79 3.17,3.17 0 0 1 -0.61,-0.83 2.68,2.68 0 0 1 -0.24,-1.11 2.46,2.46 0 0 1 0.41,-1.41 13.27,13.27 0 0 1 1.59,-1.63 3.93,3.93 0 0 0 0.81,-1.12 3.73,3.73 0 0 0 -0.24,-3.59 12.49,12.49 0 0 0 -1.72,-1.8 3.17,3.17 0 0 1 -0.61,-0.83 2.68,2.68 0 0 1 -0.24,-1.11 2.4,2.4 0 0 1 0.41,-1.4 13.28,13.28 0 0 1 1.59,-1.63 4,4 0 0 0 0.81,-1.11 3.58,3.58 0 0 0 0.35,-1.59 h -1.1"
     id="path109" />
  <path
     class="cls-14"
     d="m 649.1,181.57 h -1 a 2.46,2.46 0 0 1 -0.41,1.41 12.78,12.78 0 0 1 -1.6,1.64 4.21,4.21 0 0 0 -0.8,1.11 3.51,3.51 0 0 0 -0.35,1.58 3.55,3.55 0 0 0 0.58,2 12.51,12.51 0 0 0 1.73,1.8 3.41,3.41 0 0 1 0.61,0.83 2.61,2.61 0 0 1 0.24,1.12 2.47,2.47 0 0 1 -0.41,1.42 13.46,13.46 0 0 1 -1.6,1.64 4.21,4.21 0 0 0 -0.8,1.11 3.51,3.51 0 0 0 -0.35,1.58 3.58,3.58 0 0 0 0.58,2 12.51,12.51 0 0 0 1.73,1.8 3.23,3.23 0 0 1 0.61,0.83 2.61,2.61 0 0 1 0.24,1.12 2.47,2.47 0 0 1 -0.41,1.42 12.78,12.78 0 0 1 -1.6,1.64 4.21,4.21 0 0 0 -0.8,1.11 3.51,3.51 0 0 0 -0.35,1.58 H 646 a 2.49,2.49 0 0 1 0.4,-1.42 14.22,14.22 0 0 1 1.6,-1.64 4.3,4.3 0 0 0 0.81,-1.11 3.65,3.65 0 0 0 0.34,-1.58 3.58,3.58 0 0 0 -0.58,-2 13,13 0 0 0 -1.72,-1.8 3.05,3.05 0 0 1 -0.62,-0.83 2.62,2.62 0 0 1 -0.23,-1.12 2.47,2.47 0 0 1 0.4,-1.42 13.46,13.46 0 0 1 1.6,-1.64 4.3,4.3 0 0 0 0.81,-1.11 3.65,3.65 0 0 0 0.34,-1.58 3.58,3.58 0 0 0 -0.58,-2 12.4,12.4 0 0 0 -1.73,-1.79 3.46,3.46 0 0 1 -0.61,-0.84 2.56,2.56 0 0 1 -0.23,-1.12 2.49,2.49 0 0 1 0.4,-1.42 14.22,14.22 0 0 1 1.6,-1.64 4.13,4.13 0 0 0 0.81,-1.11 3.6,3.6 0 0 0 0.34,-1.57"
     id="path111" />
  <path
     class="cls-15"
     d="m 657.71,181.57 h -1.05 a 2.38,2.38 0 0 1 -0.41,1.41 11.56,11.56 0 0 1 -1.6,1.64 4.21,4.21 0 0 0 -0.8,1.11 3.65,3.65 0 0 0 -0.34,1.58 3.4,3.4 0 0 0 0.58,2 13,13 0 0 0 1.72,1.8 3.17,3.17 0 0 1 0.61,0.83 2.48,2.48 0 0 1 0.24,1.12 2.39,2.39 0 0 1 -0.41,1.42 12.12,12.12 0 0 1 -1.6,1.64 4.21,4.21 0 0 0 -0.8,1.11 3.65,3.65 0 0 0 -0.34,1.58 3.42,3.42 0 0 0 0.58,2 13,13 0 0 0 1.72,1.8 3,3 0 0 1 0.61,0.83 2.48,2.48 0 0 1 0.24,1.12 2.39,2.39 0 0 1 -0.41,1.42 11.56,11.56 0 0 1 -1.6,1.64 4.21,4.21 0 0 0 -0.8,1.11 3.65,3.65 0 0 0 -0.34,1.58 h 1.05 a 2.49,2.49 0 0 1 0.4,-1.42 13.58,13.58 0 0 1 1.61,-1.64 4.05,4.05 0 0 0 0.8,-1.11 3.65,3.65 0 0 0 0.34,-1.58 3.5,3.5 0 0 0 -0.58,-2 13,13 0 0 0 -1.72,-1.8 2.82,2.82 0 0 1 -0.61,-0.83 2.73,2.73 0 0 1 0.16,-2.54 12.89,12.89 0 0 1 1.61,-1.64 4.05,4.05 0 0 0 0.8,-1.11 3.65,3.65 0 0 0 0.34,-1.58 3.5,3.5 0 0 0 -0.58,-2 12.92,12.92 0 0 0 -1.72,-1.79 3,3 0 0 1 -0.61,-0.84 2.42,2.42 0 0 1 -0.24,-1.12 2.49,2.49 0 0 1 0.4,-1.42 13.58,13.58 0 0 1 1.61,-1.64 3.91,3.91 0 0 0 0.8,-1.11 3.6,3.6 0 0 0 0.34,-1.57"
     id="path113" />
  <path
     class="cls-7"
     d="m 653.27,181.57 h -1 a 2.45,2.45 0 0 1 -0.4,1.41 12.27,12.27 0 0 1 -1.61,1.64 4.72,4.72 0 0 0 -0.8,1.11 3.65,3.65 0 0 0 -0.34,1.58 3.47,3.47 0 0 0 0.58,2 13,13 0 0 0 1.72,1.8 3,3 0 0 1 0.61,0.83 2.73,2.73 0 0 1 -0.16,2.54 12.89,12.89 0 0 1 -1.61,1.64 4.72,4.72 0 0 0 -0.8,1.11 3.65,3.65 0 0 0 -0.34,1.58 3.5,3.5 0 0 0 0.58,2 13,13 0 0 0 1.72,1.8 2.82,2.82 0 0 1 0.61,0.83 2.73,2.73 0 0 1 -0.16,2.54 12.27,12.27 0 0 1 -1.61,1.64 4.45,4.45 0 0 0 -0.8,1.11 3.65,3.65 0 0 0 -0.34,1.58 h 1 a 2.42,2.42 0 0 1 0.41,-1.42 12.73,12.73 0 0 1 1.6,-1.64 4.05,4.05 0 0 0 0.8,-1.11 3.65,3.65 0 0 0 0.34,-1.58 3.42,3.42 0 0 0 -0.58,-2 13,13 0 0 0 -1.72,-1.8 3.23,3.23 0 0 1 -0.61,-0.83 2.48,2.48 0 0 1 -0.24,-1.12 2.39,2.39 0 0 1 0.41,-1.42 12.12,12.12 0 0 1 1.6,-1.64 4.05,4.05 0 0 0 0.8,-1.11 3.65,3.65 0 0 0 0.34,-1.58 3.42,3.42 0 0 0 -0.58,-2 12.92,12.92 0 0 0 -1.72,-1.79 3.46,3.46 0 0 1 -0.61,-0.84 2.69,2.69 0 0 1 0.17,-2.54 12.73,12.73 0 0 1 1.6,-1.64 3.91,3.91 0 0 0 0.8,-1.11 3.6,3.6 0 0 0 0.34,-1.57"
     id="path115" />
  <path
     class="cls-16"
     d="m 636.9,186.39 a 5.72,5.72 0 0 0 2.54,-8.46 5.77,5.77 0 0 0 -2.51,-2.06 1.93,1.93 0 0 0 -1.5,3.55 1.85,1.85 0 0 1 0.82,0.67 1.83,1.83 0 0 1 0,2.07 1.85,1.85 0 0 1 -0.83,0.68 1.923077,1.923077 0 0 0 1.48,3.55 z"
     id="path117" />
  <path
     class="cls-2"
     d="m 632.96,222.44 h -15.57 v -9.95 a 5.11,5.11 0 0 1 5.11,-5.12 h 14.87 a 5.11,5.11 0 0 1 5.11,5.12 v 0.43 a 9.52,9.52 0 0 1 -9.52,9.52 z"
     id="path119" />
  <polygon
     class="cls-17"
     points="712.39,277.36 711.21,275.04 753.85,256.67 754.31,257.53 "
     id="polygon121"
     transform="translate(-85.9,-66.83)" />
  <path
     class="cls-16"
     d="m 667.99,182.84 a 1.87,1.87 0 0 1 -0.82,-0.68 1.85,1.85 0 0 1 0.81,-2.74 1.93,1.93 0 1 0 -1.5,-3.55 5.8,5.8 0 0 0 -2.5,2.06 5.71,5.71 0 0 0 2.53,8.46 1.923077,1.923077 0 1 0 1.48,-3.55 z"
     id="path123" />
  <polygon
     class="cls-17"
     points="714.14,281.74 712.76,279.53 753.62,257.48 754.16,258.3 "
     id="polygon125"
     transform="translate(-85.9,-66.83)" />
  <path
     class="cls-2"
     d="m 622.1,211.95 3.3,-3.89 a 1.75,1.75 0 0 1 2.1,-0.46 v 0 l 4.15,1.92 a 2.2035483,2.2035483 0 0 0 1.85,-4 l -4.16,-1.92 v 0 a 6.16,6.16 0 0 0 -7.32,1.61 l -3.3,3.89 a 2.2,2.2 0 0 0 3.36,2.84 z"
     id="path127" />
  <path
     class="cls-4"
     d="m 625.69,157.9 v 3.8 a 1.93,1.93 0 0 0 3.85,0 v -3.8 a 1.93,1.93 0 0 0 -3.85,0"
     id="path129" />
  <path
     class="cls-4"
     d="m 652.32,157.9 v 3.8 a 1.93,1.93 0 0 0 3.85,0 v -3.8 a 1.93,1.93 0 0 0 -3.85,0"
     id="path131" />
  <path
     class="cls-18"
     d="m 237.21,127.45 c 0,0.12 -0.49,2.42 -1,6.05 a 113.47,113.47 0 0 0 -0.93,14.09 79.81,79.81 0 0 0 0.6,10.08 56.55,56.55 0 0 0 1.51,7.74 35.84,35.84 0 0 0 4.95,11 25.69,25.69 0 0 0 4.17,4.7 23.59,23.59 0 0 0 5.48,3.62 16.19,16.19 0 0 0 3.15,1.12 14.18,14.18 0 0 0 3.3,0.39 13.92,13.92 0 0 0 5.59,-1.17 17.63,17.63 0 0 0 4.26,-2.67 24.63,24.63 0 0 0 3.18,-3.28 41,41 0 0 0 4.68,-7.43 97,97 0 0 0 6,-15.55 217.4,217.4 0 0 0 5.34,-22.91 c 1.16,-6.37 1.71,-10.73 1.72,-10.81 l -12.54,-1.6 1.57,0.2 -1.57,-0.2 v 0 l 1.57,0.2 -1.57,-0.2 c 0,0 -0.47,3.65 -1.42,9 -0.7,4 -1.69,9 -2.94,14.21 -0.95,3.9 -2,7.91 -3.28,11.68 a 83.06,83.06 0 0 1 -3,7.91 44.57,44.57 0 0 1 -2.46,4.81 23.14,23.14 0 0 1 -1.83,2.67 9.34,9.34 0 0 1 -2.25,2.13 2.93,2.93 0 0 1 -0.63,0.31 1.35,1.35 0 0 1 -0.37,0 1.94,1.94 0 0 1 -0.36,0 3.69,3.69 0 0 1 -0.66,-0.24 11.17,11.17 0 0 1 -2.3,-1.48 13.9,13.9 0 0 1 -3.22,-4 29.66,29.66 0 0 1 -3.08,-9.21 63.42,63.42 0 0 1 -0.89,-11.06 99.59,99.59 0 0 1 0.83,-12.48 c 0.21,-1.62 0.41,-2.93 0.57,-3.82 0.07,-0.45 0.14,-0.79 0.18,-1 0.04,-0.21 0,-0.2 0,-0.25 v -0.05 0 l -2.78,-0.57 2.77,0.57 v 0 l -2.78,-0.57 2.77,0.57 -12.39,-2.53 z"
     id="path133" />
  <path
     class="cls-19"
     d="m 224.53,128.83 c 0,0.27 -0.29,3.32 -0.29,8 a 115.89,115.89 0 0 0 0.59,11.81 90.65,90.65 0 0 0 1.69,10.62 68.24,68.24 0 0 0 2.42,8.36 46.4,46.4 0 0 0 6.57,12.29 35.16,35.16 0 0 0 5.2,5.47 31.39,31.39 0 0 0 6.73,4.33 21.46,21.46 0 0 0 4.23,1.51 20,20 0 0 0 4.58,0.54 19.59,19.59 0 0 0 5.05,-0.67 20.92,20.92 0 0 0 4.18,-1.65 24.55,24.55 0 0 0 6,-4.53 34.83,34.83 0 0 0 3.8,-4.63 57.07,57.07 0 0 0 4.93,-8.93 114,114 0 0 0 5.27,-14.65 c 1.45,-5 2.64,-9.93 3.61,-14.47 l -23.13,-4.93 c -0.87,4.06 -1.92,8.45 -3.15,12.66 -0.92,3.15 -1.93,6.21 -3,8.92 a 54.93,54.93 0 0 1 -2.43,5.37 25.06,25.06 0 0 1 -1.71,2.8 10.42,10.42 0 0 1 -1,1.19 2.39,2.39 0 0 1 -0.36,0.33 v 0 0 l 1.29,1.88 -0.73,-2.14 a 2.19,2.19 0 0 0 -0.56,0.26 l 1.29,1.88 -0.73,-2.14 1.35,4 v -4.19 a 4.43,4.43 0 0 0 -1.35,0.22 l 1.35,4 v -0.25 l 0.91,-3.83 a 3.84,3.84 0 0 0 -0.91,-0.11 v 3.94 l 0.91,-3.83 -0.5,2.09 0.93,-2 a 1.83,1.83 0 0 0 -0.43,-0.14 l -0.5,2.09 0.93,-2 a 8,8 0 0 1 -2,-1.34 12.83,12.83 0 0 1 -1.72,-2 23.76,23.76 0 0 1 -2.8,-5.65 53.64,53.64 0 0 1 -2.58,-11.58 90.66,90.66 0 0 1 -0.64,-11 c 0,-1.87 0,-3.41 0.11,-4.45 0,-0.52 0.05,-0.91 0.06,-1.16 0.01,-0.25 0,-0.21 0,-0.26 v 0 l -0.74,-0.06 0.74,0.06 v 0 l -0.74,-0.06 0.74,0.06 -8,-0.69 8,0.71 v 0 l -8,-0.69 8,0.71 -23.55,-2.08 z"
     id="path135" />
  <rect
     class="cls-20"
     x="223.94"
     y="115.66"
     width="34.25"
     height="9.6999998"
     id="rect137" />
  <rect
     class="cls-21"
     x="207.31"
     y="197.98"
     width="48.93"
     height="45.720001"
     id="rect139" />
  <path
     class="cls-22"
     d="m 225.89,188.75 -8.45,50.51 a 14.31,14.31 0 0 1 -3,6.65 l -0.17,0.21 -23.84,34.21 12.18,8.49 23.69,-34 -6.09,-4.25 5.76,4.68 a 29.15,29.15 0 0 0 6.13,-13.54 l 8.43,-50.54 -14.64,-2.45 z"
     id="path141" />
  <path
     class="cls-19"
     d="M 262.15,243.7 H 246.57 V 122.5 h 8.08 a 7.5,7.5 0 0 1 7.5,7.5 z"
     id="path143" />
  <path
     class="cls-18"
     d="m 222.71,136.75 h 25.18 v -28.58 l -16.63,-15.15 -6.74,11.95 a 14,14 0 0 0 -1.81,6.87 z"
     id="path145" />
  <path
     class="cls-21"
     d="m 246.55,162.99 11.55,-19.63 -5.78,-4.68 8.56,-1.74 -0.92,-17.42 a 4.09,4.09 0 0 0 -4.07,-3.86 l -9.35,7 z"
     id="path147" />
  <path
     class="cls-18"
     d="m 227.46,108.17 5.72,4.47 a 26.67,26.67 0 0 0 35.08,-1.95 L 287.01,92.36 C 303.93,75.8 305.62,49.1 288.65,35.82 271.68,22.54 246.16,30.62 234.17,51.03 l -13.28,22.62 a 26.68,26.68 0 0 0 6.57,34.52"
     id="path149" />
  <path
     class="cls-22"
     d="m 247.88,199.35 h -29.51 a 9.91,9.91 0 0 1 -9.91,-9.91 v -8.84 h 49.5 v 8.67 a 10.08,10.08 0 0 1 -10.08,10.08 z"
     id="path151" />
  <polygon
     class="cls-17"
     points="304.88,198.93 333.34,198.93 343.86,247.49 294.37,247.49 "
     id="polygon153"
     transform="translate(-85.9,-66.83)" />
  <polyline
     class="cls-18"
     points="279.44 345.07 261.73 372.96 272.4 379.74 290.11 351.85"
     id="polyline155"
     transform="translate(-85.9,-66.83)" />
  <polyline
     class="cls-18"
     points="341.38 346.37 341.38 380.55 354.02 380.55 354.02 346.37"
     id="polyline157"
     transform="translate(-85.9,-66.83)" />
  <path
     class="cls-6"
     d="m 195.99,315.77 h -9.15 l -11.27,-7.15 a 1.11,1.11 0 0 1 -0.34,-1.53 l 4.72,-7.42 14.86,9.43 c 0.54,0.46 6.75,2.63 4.14,6.73 0,-0.04 -2.31,-0.08 -2.96,-0.06 z"
     id="path159" />
  <path
     class="cls-22"
     d="m 241.73,191.98 12.69,45.25 a 8,8 0 0 1 0.3,2.18 v 42 h 14.85 v -42 a 23.06,23.06 0 0 0 -0.85,-6.19 l -12.69,-45.25 -14.3,4 z"
     id="path161" />
  <path
     class="cls-6"
     d="m 280.77,315.92 h -24.19 a 1.11,1.11 0 0 1 -1.1,-1.11 v -8.79 h 17.62 a 8.79,8.79 0 0 1 8.79,8.79 1.11,1.11 0 0 1 -1.12,1.11 z"
     id="path163" />
  <rect
     class="cls-23"
     x="-138.47093"
     y="312.32635"
     width="7.8889322"
     height="15.568159"
     transform="rotate(-57.264774)"
     id="rect165"
     style="stroke-width:0.998599" />
  <rect
     class="cls-23"
     x="254.28"
     y="279.54001"
     width="15.59"
     height="7.9000001"
     id="rect167" />
  <path
     class="cls-18"
     d="m 219.73,132.17 a 54.61,54.61 0 0 0 -22.47,-4.79 56.88,56.88 0 0 0 -17,2.62 53.18,53.18 0 0 0 -11.18,4.95 41.23,41.23 0 0 0 -12.74,11.42 29.52,29.52 0 0 0 -3.83,7.34 24.81,24.81 0 0 0 -1.42,8.23 24.1,24.1 0 0 0 1.15,7.36 29.19,29.19 0 0 0 6,10.37 47.12,47.12 0 0 0 10.9,8.92 l 6.61,-10.78 a 38.92,38.92 0 0 1 -5.91,-4.36 20.92,20.92 0 0 1 -4.83,-6.13 12.13,12.13 0 0 1 -1.31,-5.38 12.34,12.34 0 0 1 0.57,-3.6 18.28,18.28 0 0 1 3.84,-6.53 29.12,29.12 0 0 1 5.25,-4.6 39.5,39.5 0 0 1 10.86,-5.21 44.4,44.4 0 0 1 13.05,-2 41.8,41.8 0 0 1 17.27,3.67 l 5.2,-11.53 z"
     id="path169" />
  <path
     class="cls-19"
     d="m 221.99,127.17 a 60,60 0 0 0 -24.73,-5.28 62.29,62.29 0 0 0 -18.68,2.87 58.67,58.67 0 0 0 -12.34,5.41 51.32,51.32 0 0 0 -7.94,5.77 40.65,40.65 0 0 0 -9,11.37 32.79,32.79 0 0 0 -2.71,7 29.78,29.78 0 0 0 0.28,16.22 32.66,32.66 0 0 0 3.77,8.12 l 19.93,-12.72 a 9,9 0 0 1 -1.06,-2.24 6.27,6.27 0 0 1 -0.27,-1.75 6.72,6.72 0 0 1 0.32,-2 10,10 0 0 1 1,-2.11 18.08,18.08 0 0 1 3.66,-4.29 31.59,31.59 0 0 1 10,-5.73 39,39 0 0 1 13.18,-2.31 36.26,36.26 0 0 1 15,3.19 z"
     id="path171" />
  <rect
     class="cls-17"
     x="220.14999"
     y="122.5"
     width="32.509998"
     height="10.33"
     rx="3.1900001"
     id="rect173" />
  <path
     class="cls-24"
     d="m 241.23,86.88 -1.64,1.84 a 2.46,2.46 0 0 0 4.11,-1.84 2.45,2.45 0 0 0 -0.77,-1.78 z"
     id="path175" />
  <path
     class="cls-25"
     d="m 277.94,86.46 -2,2.1 a 1.9241622,1.9241622 0 1 0 2.8,2.64 l 2,-2.1 a 1.93,1.93 0 0 0 -2.81,-2.64"
     id="path177" />
  <path
     class="cls-26"
     d="m 231.94,112.17 4.87,3.29 a 18.78,18.78 0 0 0 9.37,3.22 h 0.85 0.8 v -0.55 h -0.77 -0.82 A 18.17,18.17 0 0 1 237.15,115 l -4.87,-3.28 -0.31,0.45 z"
     id="path179" />
  <path
     class="cls-25"
     d="m 265.1,74.99 a 5.91,5.91 0 0 0 -0.17,-1.27 8.67,8.67 0 0 0 -2.23,-4 12.62,12.62 0 0 0 -6.71,-3.41 1.93,1.93 0 0 0 -0.79,3.77 10.15,10.15 0 0 1 3.69,1.45 5.36,5.36 0 0 1 2.09,2.47 4.43,4.43 0 0 1 0.25,0.85 c 0,0.1 0,0.17 0,0.21 v 0 h 1 -1 v 0 h 1 -1 a 1.93,1.93 0 1 0 3.85,0 z"
     id="path181" />
  <path
     class="cls-25"
     d="m 247.64,102.02 v 0 a 3.34,3.34 0 0 1 -0.22,-4.71 l 2,-2.17 a 3.3304091,3.3304091 0 1 1 4.92,4.49 l -2,2.17 a 3.33,3.33 0 0 1 -4.7,0.22 z"
     id="path183" />
  <path
     class="cls-27"
     d="m 257.7,44.5 -1.07,2 a 9.16,9.16 0 0 1 -12.38,3.79 l -18.92,-10 a 5.65,5.65 0 0 1 -2.35,-7.66 l 0.05,-0.09 a 5.66,5.66 0 0 1 7.66,-2.37 l 27,14.33"
     id="path185" />
  <g
     class="cls-28"
     clip-path="url(#clip-path-2)"
     id="g231"
     transform="translate(-85.9,-66.83)">
    <g
       class="cls-29"
       clip-path="url(#clip-path-3)"
       id="g193">
      <polyline
         class="cls-30"
         points="315.06 106.02 312.86 106.02 312.86 107.97 315.06 109.14 315.06 106.02"
         id="polyline187" />
      <path
         class="cls-30"
         d="m 312.86,103.82 h -4.37 a 5.54,5.54 0 0 0 1.3,2.2 h 3.07 v -2.2"
         id="path189" />
      <polyline
         class="cls-31"
         points="315.06 103.82 312.86 103.82 312.86 105.47 312.86 106.02 315.06 106.02 315.06 103.82"
         id="polyline191" />
    </g>
    <g
       class="cls-32"
       clip-path="url(#clip-path-4)"
       id="g209">
      <polyline
         class="cls-30"
         points="322.76 111.52 319.56 111.52 322.76 113.22 322.76 111.52"
         id="polyline195" />
      <polyline
         class="cls-30"
         points="326.5 106.02 322.76 106.02 322.76 111.52 322.76 113.22 322.76 111.52 323.61 111.52 326.5 106.02"
         id="polyline197" />
      <path
         class="cls-31"
         d="m 323.61,111.52 h -0.85 v 1.7 l 0.28,0.15 a 0.54,0.54 0 0 1 -0.14,-0.36 v 0 a 0.54,0.54 0 0 1 0.06,-0.25 l 0.65,-1.24"
         id="path199" />
      <polyline
         class="cls-30"
         points="317.26 106.02 315.06 106.02 315.06 109.14 317.26 110.3 317.26 106.02"
         id="polyline201" />
      <path
         class="cls-30"
         d="m 322.76,103.82 h -5.5 V 106 h 5.5 v -2.2 m 4.9,0 h -0.5 v 1 l 0.5,-1"
         id="path203" />
      <polyline
         class="cls-31"
         points="327.15 103.82 322.76 103.82 322.76 105.47 322.76 106.02 326.5 106.02 327.15 104.78 327.15 103.82"
         id="polyline205" />
      <polyline
         class="cls-31"
         points="317.26 103.82 315.06 103.82 315.06 106.02 317.26 106.02 317.26 103.82"
         id="polyline207" />
    </g>
    <g
       class="cls-33"
       clip-path="url(#clip-path-5)"
       id="g217">
      <path
         class="cls-30"
         d="m 312.86,101.62 h -4.63 c 0,0.16 0,0.32 0,0.48 a 5.53,5.53 0 0 0 0.27,1.72 h 4.37 v -2.2"
         id="path211" />
      <path
         class="cls-30"
         d="m 313.94,96.34 a 5.49,5.49 0 0 0 -1.08,0.1 v 5.18 h 2.2 v -5.17 a 6.16,6.16 0 0 0 -1.12,-0.11"
         id="path213" />
      <polyline
         class="cls-31"
         points="315.06 101.62 312.86 101.62 312.86 103.82 315.06 103.82 315.06 101.62"
         id="polyline215" />
    </g>
    <g
       class="cls-34"
       clip-path="url(#clip-path-6)"
       id="g229">
      <path
         class="cls-30"
         d="m 327.16,102.61 v 1.21 h 0.5 l 0.08,-0.15 c 0.1,-0.2 0.21,-0.39 0.32,-0.58 l -0.9,-0.48 m -4.4,-1 h -5.5 v 2.2 h 5.5 v -2.2"
         id="path219" />
      <polyline
         class="cls-30"
         points="322.76 100.27 322.76 101.62 322.76 103.82 322.76 101.62 325.3 101.62 322.76 100.27"
         id="polyline221" />
      <polyline
         class="cls-31"
         points="325.3 101.62 322.76 101.62 322.76 103.82 327.15 103.82 327.15 102.61 325.3 101.62"
         id="polyline223" />
      <path
         class="cls-30"
         d="m 315.06,96.45 v 5.17 h 2.2 V 97.36 L 316.59,97 a 6,6 0 0 0 -1.53,-0.55"
         id="path225" />
      <polyline
         class="cls-31"
         points="317.26 101.62 317.26 101.62 315.06 101.62 315.06 103.82 317.26 103.82 317.26 101.62"
         id="polyline227" />
    </g>
  </g>
  <path
     class="cls-35"
     d="m 281.93,32.46 4.95,2.61 c 1.25,-2.39 0.37,-5.23 -0.16,-6.53 a 2,2 0 0 0 -0.94,-1 l -4.87,-2.56 c 0,0 2.63,4.45 1,7.52"
     id="path233" />
  <path
     class="cls-36"
     d="M 295.71,77.38 237.28,46.65 a 0.53,0.53 0 0 1 -0.22,-0.72 l 4.78,-9.09 a 28.24,28.24 0 0 1 38.14,-11.85 l 9.38,4.93 a 28.24,28.24 0 0 1 11.85,38.14 l -4.78,9.11 a 0.53,0.53 0 0 1 -0.72,0.23"
     id="path235" />
  <path
     class="cls-36"
     d="M 295.71,77.38 237.28,46.65 a 0.53,0.53 0 0 1 -0.22,-0.72 l 4.78,-9.09 a 28.24,28.24 0 0 1 38.14,-11.85 l 9.38,4.93 a 28.24,28.24 0 0 1 11.85,38.14 l -4.78,9.11 a 0.53,0.53 0 0 1 -0.72,0.23"
     id="path237" />
  <path
     class="cls-37"
     d="m 276.45,59.77 -2.48,4.72 h 0.33 l 2.15,-2.62 v -2.1 m 9.9,-10.68 h -4.25 l -1.22,2.32 v 3.18 h 1.58 l 2,-2.41 a 15,15 0 0 0 1.95,-3 v -0.06 m 0,-9.9 h -1 a 14.11,14.11 0 0 1 -1.05,5.5 h 2.05 v -5.55 m -5,-9.9 h -0.09 a 14.43,14.43 0 0 1 3.34,5.5 h 1.24 l -0.09,-0.14 a 25.23,25.23 0 0 0 -4.4,-5.36"
     id="path239" />
  <g
     class="cls-38"
     clip-path="url(#clip-path-7)"
     id="g371"
     transform="translate(-85.9,-66.83)">
    <g
       class="cls-32"
       clip-path="url(#clip-path-4)"
       id="g263">
      <polyline
         class="cls-39"
         points="338.28 121.42 338.28 121.42 342.55 123.67 342.55 123.67 338.28 121.42"
         id="polyline241" />
      <polyline
         class="cls-39"
         points="330.43 111.52 327.15 111.52 327.15 115.57 327.83 115.92 328.12 115.92 330.43 111.52"
         id="polyline243" />
      <path
         class="cls-39"
         d="m 332.65,118.46 v 0 l 4.4,2.31 v 0 l -4.4,-2.31 m 0.67,-12.44 h -0.67 v 1.27 l 0.67,-1.27"
         id="path245" />
      <polyline
         class="cls-39"
         points="346.65 125.82 346.65 125.82 346.95 125.98 346.95 125.98 346.65 125.82"
         id="polyline247" />
      <polyline
         class="cls-39"
         points="352.45 128.87 352.45 128.87 354.65 130.03 354.65 130.03 352.45 128.87"
         id="polyline249" />
      <polyline
         class="cls-39"
         points="327.15 106.02 326.5 106.02 323.61 111.52 327.15 111.52 327.15 106.02"
         id="polyline251" />
      <path
         class="cls-40"
         d="m 327.16,111.52 h -3.55 l -0.65,1.24 a 0.54,0.54 0 0 0 -0.06,0.25 0.53,0.53 0 0 0 0.28,0.47 l 4,2.09 v -4"
         id="path253" />
      <polyline
         class="cls-40"
         points="342.55 123.67 342.55 123.67 346.65 125.82 346.65 125.82 342.55 123.67"
         id="polyline255" />
      <polyline
         class="cls-39"
         points="332.65 103.82 327.66 103.82 327.15 104.78 327.15 106.02 326.5 106.02 332.65 106.02 333.32 106.02 332.65 106.02 332.65 105.47 332.65 103.82"
         id="polyline257" />
      <polyline
         class="cls-40"
         points="327.15 104.78 327.15 104.78 326.5 106.02 327.15 106.02 327.15 104.78"
         id="polyline259" />
      <polyline
         class="cls-40"
         points="334.48 103.82 332.65 103.82 332.65 105.47 332.65 106.02 333.32 106.02 334.48 103.82"
         id="polyline261" />
    </g>
    <g
       class="cls-41"
       clip-path="url(#clip-path-9)"
       id="g319">
      <path
         class="cls-39"
         d="m 372.25,121.42 h -3.92 l -1.58,1.92 v 2.48 h 5.5 v -4.4 m 9.9,0 h -5.5 v 4.4 h 5.5 v -4.4 m 8.21,0 h -3.81 v 4.4 h 3.52 a 29,29 0 0 0 0.29,-4 v -0.36"
         id="path265" />
      <polyline
         class="cls-42"
         points="368.33 121.42 366.75 121.42 366.75 123.34 368.33 121.42"
         id="polyline267" />
      <path
         class="cls-39"
         d="m 382.15,111.52 h -5.5 v 4.4 h 5.5 v -4.4 m 6.29,0 h -1.89 v 4.4 h 3.2 a 29.27,29.27 0 0 0 -1.31,-4.4"
         id="path269" />
      <path
         class="cls-42"
         d="m 372.25,111.52 h -2.05 a 10.75,10.75 0 0 1 -0.6,1.29 l -1.6,3.11 h 4.28 v -4.4"
         id="path271" />
      <path
         class="cls-39"
         d="m 362.35,131.32 h -2.15 l -0.93,1.14 -2.17,-1.14 v 0 l 5.25,2.76 v -2.76 m 9.9,0 H 372 l 0.22,0.11 v -0.11 m 9.9,0 h -5.5 v 2.41 l 3.82,2 h 1.68 v -4.4 m 6.54,0 h -2.14 v 4.4 h 0.12 l 0.44,-0.83 a 29.63,29.63 0 0 0 1.58,-3.57"
         id="path273" />
      <polyline
         class="cls-42"
         points="360.2 131.32 359.87 131.32 359.27 132.46 357.1 131.32 359.27 132.46 360.2 131.32"
         id="polyline275" />
      <path
         class="cls-39"
         d="m 376.65,115.92 h -4.37 v 0.06 15.34 h 4.4 v -5.5 h -4.4 v -4.4 h 4.4 v -5.5 m 0,-9.9 h -3.16 a 15.19,15.19 0 0 1 0.16,5.5 h 3 V 106"
         id="path277" />
      <path
         class="cls-42"
         d="m 373.49,106 h -1.24 v 10 -0.06 0 -4.4 h 1.4 a 15.19,15.19 0 0 0 -0.16,-5.5"
         id="path279" />
      <path
         class="cls-39"
         d="m 385.58,106 h -3.43 v 30.6 l 3.19,1.66 1.21,-2.3 v -0.24 h -4.4 v -4.4 h 4.4 v -5.5 h -4.4 v -4.4 h 4.4 v -5.5 h -4.4 v -4.4 h 4.4 v -4 c -0.31,-0.52 -0.63,-1 -1,-1.55"
         id="path281" />
      <path
         class="cls-39"
         d="m 366.75,125.82 h -2 l -2.37,2.88 v 2.62 h 2.8 a 8.67,8.67 0 0 1 0.38,-0.82 l 1.05,-2 0.17,0.09 v -2.75"
         id="path283" />
      <path
         class="cls-42"
         d="m 364.72,125.82 h -2 l -0.41,0.78 v 2.1 l 2.37,-2.88 m 2,-7.58 -1.67,3.18 h 1.67 v -3.18"
         id="path285" />
      <path
         class="cls-40"
         d="m 376.65,111.52 h -3 a 15.3,15.3 0 0 1 -1.37,4.4 h 4.37 v -4.4"
         id="path287" />
      <path
         class="cls-43"
         d="m 373.65,111.52 h -1.4 v 4.4 0 a 15.3,15.3 0 0 0 1.37,-4.4"
         id="path289" />
      <polyline
         class="cls-40"
         points="386.55 111.52 386.55 111.52 382.15 111.52 382.15 115.92 386.55 115.92 386.55 111.52"
         id="polyline291" />
      <polyline
         class="cls-40"
         points="366.75 123.34 364.72 125.82 366.75 125.82 366.75 123.34"
         id="polyline293" />
      <polyline
         class="cls-43"
         points="366.75 121.42 366.75 121.42 365.07 121.42 362.76 125.82 364.72 125.82 366.75 123.34 366.75 121.42"
         id="polyline295" />
      <polyline
         class="cls-40"
         points="376.65 121.42 376.65 121.42 372.25 121.42 372.25 125.82 376.65 125.82 376.65 121.42"
         id="polyline297" />
      <polyline
         class="cls-40"
         points="386.55 121.42 386.55 121.42 382.15 121.42 382.15 125.82 386.55 125.82 386.55 121.42"
         id="polyline299" />
      <path
         class="cls-40"
         d="m 365.15,131.32 h -2.8 v 2.76 l 2.15,1.13 c 0,-0.16 0,-0.33 0,-0.49 a 9.22,9.22 0 0 1 0.66,-3.4"
         id="path301" />
      <polyline
         class="cls-40"
         points="376.65 131.32 376.65 131.32 372.25 131.32 372.25 131.43 376.65 133.73 376.65 131.32"
         id="polyline303" />
      <polyline
         class="cls-40"
         points="386.55 131.32 386.55 131.32 382.15 131.32 382.15 135.72 386.55 135.72 386.55 131.32"
         id="polyline305" />
      <polyline
         class="cls-39"
         points="354.65 130.03 354.65 130.03 356.85 131.19 356.85 131.19 354.65 130.03"
         id="polyline307" />
      <polyline
         class="cls-39"
         points="382.15 103.82 376.65 103.82 376.65 106.02 373.49 106.02 373.49 106.02 382.15 106.02 385.58 106.02 385.58 106.02 382.15 106.02 382.15 105.47 382.15 103.82"
         id="polyline309" />
      <path
         class="cls-42"
         d="m 372.25,103.82 h -1.19 a 13.52,13.52 0 0 1 0.19,2.2 h 1 v -2.2"
         id="path311" />
      <path
         class="cls-40"
         d="m 376.65,103.82 h -3.82 a 14.59,14.59 0 0 1 0.66,2.2 h 3.16 v -2.2"
         id="path313" />
      <path
         class="cls-43"
         d="m 372.83,103.82 h -0.58 V 106 h 1.24 a 14.59,14.59 0 0 0 -0.66,-2.2"
         id="path315" />
      <path
         class="cls-40"
         d="m 384,103.82 h -1.8 V 106 h 3.43 c -0.51,-0.75 -1.05,-1.49 -1.63,-2.2"
         id="path317" />
    </g>
    <g
       class="cls-34"
       clip-path="url(#clip-path-6)"
       id="g339">
      <path
         class="cls-39"
         d="M 347.65,91.72 H 347 V 92 l 0.7,-0.23"
         id="path321" />
      <path
         class="cls-39"
         d="m 342.55,91.72 h -2.79 a 29.62,29.62 0 0 0 -2.71,1.6 v 2.8 h 2.85 a 20.68,20.68 0 0 1 2.65,-2 v -2.4"
         id="path323" />
      <path
         class="cls-39"
         d="m 332.65,101.62 h -3.72 q -0.46,0.72 -0.87,1.47 c -0.11,0.19 -0.22,0.38 -0.32,0.58 l -0.08,0.15 h 5 v -2.2"
         id="path325" />
      <path
         class="cls-39"
         d="m 337.05,96.12 h -3.55 c -0.29,0.27 -0.57,0.55 -0.85,0.83 v 4.67 h 3 a 20.35,20.35 0 0 1 1.41,-2.29 v -3.21"
         id="path327" />
      <path
         class="cls-39"
         d="m 347,89.17 a 28.11,28.11 0 0 0 -4.4,1.3 v 3.62 0 -2.37 h 4.4 v -2.55"
         id="path329" />
      <path
         class="cls-39"
         d="m 352.76,88.57 h -0.31 v 2.29 0 h 1.16 c 0.35,0 0.69,0 1,0 v -2.23 q -0.94,-0.06 -1.89,-0.06"
         id="path331" />
      <path
         class="cls-40"
         d="m 337.05,93.32 a 28,28 0 0 0 -3.55,2.8 h 3.55 v -2.8"
         id="path333" />
      <path
         class="cls-40"
         d="m 347,91.72 h -4.4 v 2.37 0 A 20.34,20.34 0 0 1 347,92 v -0.23"
         id="path335" />
      <path
         class="cls-40"
         d="m 335.64,101.62 h -3 v 2.2 h 1.83 l 1.11,-2.11 0.05,-0.09"
         id="path337" />
    </g>
    <g
       class="cls-44"
       clip-path="url(#clip-path-11)"
       id="g369">
      <path
         class="cls-39"
         d="m 362.35,91.72 h -2.79 a 23.32,23.32 0 0 1 2.79,1.09 v -1.09"
         id="path341" />
      <path
         class="cls-39"
         d="m 366.75,92.27 v 3.39 l 0.52,0.46 h 5 v -1 l -5.05,-2.66 -0.45,-0.24"
         id="path343" />
      <path
         class="cls-42"
         d="m 366.75,95.66 v 0 l 0.43,0.42 h 0.09 l -0.52,-0.46"
         id="path345" />
      <path
         class="cls-39"
         d="m 372.25,101.62 h -0.49 c 0.17,0.3 0.34,0.6 0.49,0.9 v -0.9 m 9.69,0 h -5.29 v 2.2 h 5.5 v -2 l -0.21,-0.21"
         id="path347" />
      <path
         class="cls-42"
         d="m 371.76,101.62 h -1.24 a 14.12,14.12 0 0 1 0.54,2.2 h 1.19 v -1.3 c -0.15,-0.3 -0.32,-0.6 -0.49,-0.9"
         id="path349" />
      <path
         class="cls-39"
         d="m 372.25,95.17 v 7.35 0 -0.9 h 4.4 V 97.53 C 376.2,97.26 375.73,97 375.26,96.75 l -1.19,-0.63 h -1.82 v -1"
         id="path351" />
      <path
         class="cls-39"
         d="m 362.35,90.25 v 2.56 0 -1.09 h 3.35 a 31.83,31.83 0 0 0 -3.35,-1.47"
         id="path353" />
      <path
         class="cls-40"
         d="m 365.7,91.72 h -3.35 v 1.09 l 0.72,0.36 0.52,0.28 a 13.93,13.93 0 0 1 2.57,1.73 l 0.59,0.48 v -3.39 l -0.87,-0.45 -0.18,-0.1"
         id="path355" />
      <path
         class="cls-43"
         d="m 366.16,95.18 c 0.21,0.17 0.4,0.34 0.59,0.52 v 0 l -0.59,-0.48"
         id="path357" />
      <polyline
         class="cls-40"
         points="372.25 95.17 372.25 96.12 374.07 96.12 372.25 95.17"
         id="polyline359" />
      <path
         class="cls-40"
         d="m 376.65,101.62 h -4.4 v 0.9 c 0.21,0.43 0.41,0.86 0.58,1.3 h 3.82 v -2.2"
         id="path361" />
      <path
         class="cls-43"
         d="m 372.25,102.52 v 1.3 h 0.58 c -0.17,-0.44 -0.37,-0.87 -0.58,-1.3"
         id="path363" />
      <path
         class="cls-40"
         d="m 382.15,101.83 v 2 H 384 c -0.57,-0.69 -1.17,-1.35 -1.8,-2"
         id="path365" />
      <path
         class="cls-39"
         d="m 354.65,88.63 v 2.23 0 a 20.51,20.51 0 0 1 2.2,0.23 v -2.23 c -0.73,-0.1 -1.47,-0.18 -2.2,-0.23"
         id="path367" />
    </g>
  </g>
  <path
     class="cls-35"
     d="m 282.4,25.72 5.18,2.73 a 1.44,1.44 0 0 0 1.95,-0.61 l 1.22,-2.32 a 1.44,1.44 0 0 0 -1.33,-2.11 l -5.69,0.22 a 0.34,0.34 0 0 0 -0.33,0.18 z"
     id="path373" />
  <path
     class="cls-36"
     d="m 280.68,61.65 -1.05,2 a 9.16,9.16 0 0 0 3.89,12.36 l 19,9.9 a 5.67,5.67 0 0 0 7.65,-2.4 l 0.05,-0.1 a 5.67,5.67 0 0 0 -2.41,-7.64 L 280.69,61.63"
     id="path375" />
  <g
     class="cls-45"
     clip-path="url(#clip-path-12)"
     id="g435"
     transform="translate(-85.9,-66.83)">
    <g
       class="cls-46"
       clip-path="url(#clip-path-13)"
       id="g397">
      <path
         class="cls-39"
         d="m 392.05,151.12 h -5.5 v 0.67 l 1.86,1 a 5.63,5.63 0 0 0 2.62,0.64 5.86,5.86 0 0 0 1,-0.09 v -2.19"
         id="path377" />
      <polyline
         class="cls-39"
         points="376.65 145.62 374.71 145.62 376.65 146.63 376.65 145.62"
         id="polyline379" />
      <polyline
         class="cls-39"
         points="386.55 145.62 382.15 145.62 382.15 149.49 385.26 151.12 386.55 151.12 386.55 145.62"
         id="polyline381" />
      <polyline
         class="cls-39"
         points="394.25 145.62 392.05 145.62 392.05 151.12 392.05 153.31 392.05 153.31 392.05 151.12 394.25 151.12 394.25 145.62"
         id="polyline383" />
      <polyline
         class="cls-40"
         points="386.55 151.12 386.55 151.12 385.26 151.12 386.55 151.79 386.55 151.12"
         id="polyline385" />
      <path
         class="cls-40"
         d="m 394.25,151.12 h -2.2 v 2.19 a 5.79,5.79 0 0 0 2.2,-0.9 v -1.29"
         id="path387" />
      <path
         class="cls-39"
         d="m 372.25,143.42 h -1.76 l 1.76,0.91 v -0.91 m 19.8,0 h -5.5 v 2.2 h -4.4 v -2.2 h -5.5 v 2.2 h 15.4 v -2.2"
         id="path389" />
      <polyline
         class="cls-40"
         points="376.65 143.42 372.25 143.42 372.25 144.33 374.71 145.62 376.65 145.62 376.65 143.42"
         id="polyline391" />
      <polyline
         class="cls-40"
         points="386.55 143.42 382.15 143.42 382.15 145.07 382.15 145.62 386.55 145.62 386.55 143.42"
         id="polyline393" />
      <polyline
         class="cls-40"
         points="394.25 143.42 392.05 143.42 392.05 145.07 392.05 145.62 394.25 145.62 394.25 143.42"
         id="polyline395" />
    </g>
    <g
       class="cls-47"
       clip-path="url(#clip-path-14)"
       id="g405">
      <path
         class="cls-39"
         d="m 396.37,145.62 h -2.12 v 5.5 h 1.33 a 5.41,5.41 0 0 0 0.48,-0.76 l 0.05,-0.1 a 7.83,7.83 0 0 0 0.34,-0.79 v -3.65 c 0,-0.07 -0.05,-0.14 -0.08,-0.2"
         id="path399" />
      <path
         class="cls-40"
         d="m 395.58,151.12 h -1.33 v 1.29 a 5.8,5.8 0 0 0 1.33,-1.29"
         id="path401" />
      <path
         class="cls-40"
         d="m 394.86,143.42 h -0.61 v 2.2 h 2.12 a 5.71,5.71 0 0 0 -1.51,-2.2"
         id="path403" />
    </g>
    <g
       class="cls-41"
       clip-path="url(#clip-path-9)"
       id="g429">
      <polyline
         class="cls-39"
         points="372.03 131.32 366.75 131.32 366.75 135.72 372.25 135.72 372.25 131.43 372.03 131.32"
         id="polyline407" />
      <polyline
         class="cls-39"
         points="376.65 133.73 376.65 135.72 380.47 135.72 376.65 133.73"
         id="polyline409" />
      <path
         class="cls-39"
         d="m 372.25,141.22 h -5.07 a 9.31,9.31 0 0 0 2.24,1.64 l 1.07,0.56 h 1.76 v -2.2 m 9.9,0 h -5.5 v 2.2 h 5.5 v -2.2 m 8.86,0 h -4.46 v 2.2 h 5.5 v -1.66 l -1,-0.54"
         id="path411" />
      <polyline
         class="cls-39"
         points="372.25 131.43 372.25 135.72 372.25 141.22 372.25 143.42 372.25 141.22 376.65 141.22 376.65 135.72 372.25 135.72 372.25 131.43"
         id="polyline413" />
      <polyline
         class="cls-39"
         points="382.15 136.6 382.15 141.22 382.15 143.42 382.15 141.22 386.55 141.22 386.55 138.89 382.15 136.6"
         id="polyline415" />
      <path
         class="cls-39"
         d="m 366.75,135.72 h -2.2 a 9.17,9.17 0 0 0 2.2,5 v -5 m -0.17,-7.24 -1.05,2 a 8.67,8.67 0 0 0 -0.38,0.82 h 1.6 v -2.75 l -0.17,-0.09"
         id="path417" />
      <path
         class="cls-40"
         d="m 366.75,131.32 h -1.6 a 9.22,9.22 0 0 0 -0.66,3.4 8.39,8.39 0 0 0 0.06,1 h 2.2 v -4.4"
         id="path419" />
      <polyline
         class="cls-40"
         points="372.25 131.43 372.25 135.72 376.65 135.72 376.65 133.73 372.25 131.43"
         id="polyline421" />
      <polyline
         class="cls-40"
         points="376.65 141.22 376.65 141.22 372.25 141.22 372.25 143.42 376.65 143.42 376.65 141.22"
         id="polyline423" />
      <polyline
         class="cls-40"
         points="386.55 141.22 386.55 141.22 382.15 141.22 382.15 143.42 386.55 143.42 386.55 141.22"
         id="polyline425" />
      <path
         class="cls-40"
         d="m 392.05,141.76 v 1.66 h 2.2 v -0.48 c -0.18,-0.11 -0.36,-0.22 -0.55,-0.32 l -1.65,-0.86"
         id="path427" />
    </g>
    <g
       class="cls-48"
       clip-path="url(#clip-path-16)"
       id="g433">
      <path
         class="cls-40"
         d="m 394.25,142.94 v 0.48 h 0.61 a 7.16,7.16 0 0 0 -0.61,-0.48"
         id="path431" />
    </g>
  </g>
  <path
     class="cls-49"
     d="m 273.37,65.63 -31.22,-16.46 7.54,-14.33 a 20.34,20.34 0 0 1 27.48,-8.54 l 0.52,0.28 a 14.33,14.33 0 0 1 6,19.36 l -10.33,19.65"
     id="path437" />
  <g
     class="cls-50"
     clip-path="url(#clip-path-17)"
     id="g543"
     transform="translate(-85.9,-66.83)">
    <g
       class="cls-32"
       clip-path="url(#clip-path-4)"
       id="g469">
      <path
         class="cls-51"
         d="m 342.55,121.42 h -4.27 l 4.27,2.25 v -2.25 m 9.9,0 H 347 v 4.4 h 5.5 v -4.4"
         id="path439" />
      <path
         class="cls-51"
         d="m 342.55,111.52 h -5.5 v 4.4 h 5.5 v -4.4 m 9.9,0 H 347 v 4.4 h 5.5 v -4.4"
         id="path441" />
      <polyline
         class="cls-51"
         points="332.65 111.52 330.43 111.52 328.12 115.92 332.65 115.92 332.65 111.52"
         id="polyline443" />
      <polyline
         class="cls-51"
         points="337.05 106.02 333.32 106.02 332.65 107.29 332.65 111.52 332.65 115.92 332.65 118.46 337.05 120.78 337.05 115.92 332.65 115.92 332.65 111.52 337.05 111.52 337.05 106.02"
         id="polyline445" />
      <path
         class="cls-51"
         d="m 347,125.82 h -0.3 l 0.3,0.16 v -0.16 m 0,-19.8 h -4.4 v 15.4 h 4.4 v -5.5 h -4.4 v -4.4 H 347 V 106"
         id="path447" />
      <polyline
         class="cls-51"
         points="354.65 106.02 352.45 106.02 352.45 111.52 352.45 115.92 352.45 121.42 352.45 125.82 352.45 128.87 354.65 130.03 354.65 125.82 352.45 125.82 352.45 121.42 354.65 121.42 354.65 115.92 352.45 115.92 352.45 111.52 354.65 111.52 354.65 106.02"
         id="polyline449" />
      <polyline
         class="cls-52"
         points="337.05 111.52 337.05 111.52 332.65 111.52 332.65 115.92 337.05 115.92 337.05 111.52"
         id="polyline451" />
      <polyline
         class="cls-52"
         points="346.95 111.52 346.95 111.52 342.55 111.52 342.55 115.92 346.95 115.92 346.95 111.52"
         id="polyline453" />
      <polyline
         class="cls-52"
         points="354.65 111.52 352.45 111.52 352.45 115.92 354.65 115.92 354.65 111.52"
         id="polyline455" />
      <polyline
         class="cls-52"
         points="346.95 121.42 346.95 121.42 342.55 121.42 342.55 123.67 346.65 125.82 346.95 125.82 346.95 121.42"
         id="polyline457" />
      <polyline
         class="cls-52"
         points="354.65 121.42 352.45 121.42 352.45 125.82 354.65 125.82 354.65 121.42"
         id="polyline459" />
      <polyline
         class="cls-51"
         points="352.45 103.82 346.95 103.82 346.95 106.02 342.55 106.02 342.55 105.47 342.55 103.82 337.05 103.82 337.05 106.02 333.32 106.02 342.55 106.02 352.45 106.02 354.65 106.02 352.45 106.02 352.45 105.47 352.45 103.82"
         id="polyline461" />
      <polyline
         class="cls-52"
         points="337.05 103.82 334.48 103.82 333.32 106.02 337.05 106.02 337.05 103.82"
         id="polyline463" />
      <polyline
         class="cls-52"
         points="346.95 103.82 342.55 103.82 342.55 105.47 342.55 106.02 346.95 106.02 346.95 103.82"
         id="polyline465" />
      <polyline
         class="cls-52"
         points="354.65 103.82 352.45 103.82 352.45 105.47 352.45 106.02 354.65 106.02 354.65 103.82"
         id="polyline467" />
    </g>
    <g
       class="cls-41"
       clip-path="url(#clip-path-9)"
       id="g495">
      <polyline
         class="cls-51"
         points="362.35 121.42 356.85 121.42 356.85 125.82 362.35 125.82 362.35 121.42"
         id="polyline471" />
      <path
         class="cls-51"
         d="m 362.35,111.52 h -5.5 v 4.4 h 5.5 v -4.4 m 7.85,0 h -3.45 v 4.4 H 368 l 1.63,-3.11 a 10.75,10.75 0 0 0 0.6,-1.29"
         id="path473" />
      <polyline
         class="cls-51"
         points="359.87 131.32 357.1 131.32 359.27 132.46 359.87 131.32"
         id="polyline475" />
      <polyline
         class="cls-51"
         points="366.75 106.02 362.35 106.02 362.35 111.52 362.35 115.92 362.35 121.42 362.35 125.82 362.35 126.6 362.76 125.82 362.35 125.82 362.35 121.42 365.07 121.42 366.75 118.24 366.75 115.92 362.35 115.92 362.35 111.52 366.75 111.52 366.75 106.02"
         id="polyline477" />
      <polyline
         class="cls-52"
         points="366.75 111.52 366.75 111.52 362.35 111.52 362.35 115.92 366.75 115.92 366.75 111.52"
         id="polyline479" />
      <polyline
         class="cls-52"
         points="365.07 121.42 362.35 121.42 362.35 125.82 362.76 125.82 365.07 121.42"
         id="polyline481" />
      <path
         class="cls-51"
         d="m 356.85,125.82 h -2.2 V 130 l 2.2,1.16 v -5.37 m 0,-9.9 h -2.2 v 5.5 h 2.2 v -5.5 m 0,-9.9 h -2.2 v 5.5 h 2.2 V 106"
         id="path483" />
      <polyline
         class="cls-52"
         points="356.85 111.52 356.85 111.52 354.65 111.52 354.65 115.92 356.85 115.92 356.85 111.52"
         id="polyline485" />
      <polyline
         class="cls-52"
         points="356.85 121.42 356.85 121.42 354.65 121.42 354.65 125.82 356.85 125.82 356.85 121.42"
         id="polyline487" />
      <path
         class="cls-51"
         d="m 371.06,103.82 h -4.31 V 106 h -4.4 v -2.2 h -5.5 v 2.2 h 14.4 a 13.52,13.52 0 0 0 -0.19,-2.2 v 0"
         id="path489" />
      <polyline
         class="cls-52"
         points="366.75 103.82 362.35 103.82 362.35 105.47 362.35 106.02 366.75 106.02 366.75 103.82"
         id="polyline491" />
      <polyline
         class="cls-52"
         points="356.85 103.82 354.65 103.82 354.65 106.02 356.85 106.02 356.85 103.82"
         id="polyline493" />
    </g>
    <g
       class="cls-34"
       clip-path="url(#clip-path-6)"
       id="g519">
      <path
         class="cls-51"
         d="m 352.45,91.72 h -4.8 L 347,92 v 4.17 h 5.5 v -4.4"
         id="path497" />
      <path
         class="cls-51"
         d="m 342.55,94.09 a 20.68,20.68 0 0 0 -2.65,2 h 2.65 v -2"
         id="path499" />
      <path
         class="cls-51"
         d="m 342.55,101.62 h -5.5 v 2.2 h 5.5 v -2.2 m 9.9,0 H 347 v 2.2 h 5.5 v -2.2"
         id="path501" />
      <path
         class="cls-51"
         d="m 337.05,99.33 v 0 a 20.35,20.35 0 0 0 -1.41,2.29 h 1.41 v -2.29"
         id="path503" />
      <polyline
         class="cls-51"
         points="342.55 94.09 342.55 94.09 342.55 96.12 342.55 101.62 342.55 103.82 342.55 101.62 346.95 101.62 346.95 96.12 342.55 96.12 342.55 94.09"
         id="polyline505" />
      <path
         class="cls-51"
         d="m 353.61,90.83 h -1.16 v 10.76 h 2.2 v -5.5 h -2.2 v -4.4 h 2.2 v -0.86 0 c -0.35,0 -0.69,0 -1,0"
         id="path507" />
      <path
         class="cls-52"
         d="m 347,92 v 0 a 20.34,20.34 0 0 0 -4.4,2.14 v 2 H 347 V 92"
         id="path509" />
      <polyline
         class="cls-52"
         points="354.65 91.72 352.45 91.72 352.45 96.12 354.65 96.12 354.65 91.72"
         id="polyline511" />
      <path
         class="cls-52"
         d="m 337.05,101.62 h -1.41 l -0.05,0.09 -1.11,2.11 h 2.57 v -2.2"
         id="path513" />
      <polyline
         class="cls-52"
         points="346.95 101.62 346.95 101.62 342.55 101.62 342.55 103.82 346.95 103.82 346.95 101.62"
         id="polyline515" />
      <polyline
         class="cls-52"
         points="354.65 101.62 352.45 101.62 352.45 103.82 354.65 103.82 354.65 101.62"
         id="polyline517" />
    </g>
    <g
       class="cls-44"
       clip-path="url(#clip-path-11)"
       id="g541">
      <path
         class="cls-51"
         d="m 366.75,95.7 v 0.42 h 0.43 l -0.43,-0.42"
         id="path521" />
      <path
         class="cls-51"
         d="m 359.56,91.72 h -2.71 v 4.4 h 5.5 v -3.31 0 a 23.32,23.32 0 0 0 -2.79,-1.09 v 0"
         id="path523" />
      <path
         class="cls-51"
         d="m 362.35,101.62 h -5.5 v 2.2 h 5.5 v -2.2 m 8.17,0 h -3.77 v 2.2 h 4.31 a 14.12,14.12 0 0 0 -0.54,-2.2 v 0"
         id="path525" />
      <polyline
         class="cls-51"
         points="362.35 92.81 362.35 96.12 362.35 101.62 362.35 103.82 362.35 101.62 366.75 101.62 366.75 96.12 362.35 96.12 362.35 92.81 362.35 92.81"
         id="polyline527" />
      <path
         class="cls-52"
         d="m 362.35,92.81 v 3.31 h 4.4 V 95.7 a 14.45,14.45 0 0 0 -3.16,-2.25 l -0.52,-0.28 -0.72,-0.36"
         id="path529" />
      <polyline
         class="cls-52"
         points="366.75 101.62 366.75 101.62 362.35 101.62 362.35 103.82 366.75 103.82 366.75 101.62"
         id="polyline531" />
      <polyline
         class="cls-51"
         points="356.85 96.12 354.65 96.12 354.65 101.62 356.85 101.62 356.85 96.12"
         id="polyline533" />
      <path
         class="cls-51"
         d="m 354.65,90.86 v 0.86 h 2.2 v -0.63 a 20.51,20.51 0 0 0 -2.2,-0.23"
         id="path535" />
      <polyline
         class="cls-52"
         points="356.85 91.72 356.85 91.72 354.65 91.72 354.65 96.12 356.85 96.12 356.85 91.72"
         id="polyline537" />
      <polyline
         class="cls-52"
         points="356.85 101.62 356.85 101.62 354.65 101.62 354.65 103.82 356.85 103.82 356.85 101.62"
         id="polyline539" />
    </g>
  </g>
  <path
     class="cls-35"
     d="m 242.64,49.47 7.38,-14 a 20.13,20.13 0 0 1 27.2,-8.45 14,14 0 0 1 7.5,12.43 13.89,13.89 0 0 1 -1.62,6.52 l -10.22,19.4 1,0.52 10.22,-19.43 a 15.13,15.13 0 0 0 -6.35,-20.44 21.22,21.22 0 0 0 -28.69,8.91 l -7.37,14 1,0.52 z"
     id="path545" />
  <path
     class="cls-53"
     d="m 283.74,26.43 -3.64,-1.92 1.14,-2.17 1.95,1 a 1.93,1.93 0 0 1 0.81,2.61 z"
     id="path547" />
  <path
     class="cls-54"
     d="m 276.1,29.39 -5,-2.6 c 1.26,-2.39 4.09,-3.27 5.47,-3.57 a 2.09,2.09 0 0 1 1.39,0.18 l 4.87,2.56 c 0,0 -5.13,0.36 -6.73,3.43 z"
     id="path549" />
  <path
     class="cls-35"
     d="m 281.76,25.38 -9,-4.74 a 1.39,1.39 0 0 1 -0.58,-1.86 l 1.51,-2.87 a 2,2 0 0 1 3.29,-0.34 l 5.08,6.16 a 2.36,2.36 0 0 1 0.27,2.61 z"
     id="path551" />
  <polyline
     class="cls-35"
     points="355.78 93.58 363.34 97.55 363.85 96.58 356.29 92.6"
     id="polyline553"
     transform="translate(-85.9,-66.83)" />
  <polyline
     class="cls-35"
     points="385.43 138.08 376.38 133.31 376.18 133.68 385.24 138.44"
     id="polyline555"
     transform="translate(-85.9,-66.83)" />
  <path
     class="cls-19"
     d="m 188.57,243.7 h 32.26 l 8.66,-46.61 c 0.63,-3.25 1.51,-6.14 1.51,-9.3 v -63.25 l -9,-7.11 -16.36,5.07 v 54.79 a 91.21,91.21 0 0 1 -4.58,28.57 z"
     id="path557" />
  <polyline
     class="cls-55"
     points="369.97 181.73 367.52 180.73 371.25 171.59 373.69 172.58 369.97 181.73"
     id="polyline559"
     transform="translate(-85.9,-66.83)" />
  <polyline
     class="cls-56"
     points="368.39 181.08 367.52 180.73 371.25 171.59 372.11 171.94 368.39 181.08"
     id="polyline561"
     transform="translate(-85.9,-66.83)" />
  <path
     class="cls-21"
     d="m 231,167.89 -13,-22.09 6.5,-5.27 -9.63,-2 1,-19.61 a 4.59,4.59 0 0 1 4.58,-4.34 l 10.52,7.87 z"
     id="path563" />
  <path
     class="cls-54"
     d="m 273.1,140.81 -1.74,-0.71 a 2.06,2.06 0 0 1 -1.13,-2.7 l 10.05,-24.66 a 1.18,1.18 0 0 1 1.55,-0.65 l 3.37,1.37 a 1.2,1.2 0 0 1 0.65,1.56 l -10.05,24.66 a 2.07,2.07 0 0 1 -2.7,1.13 z"
     id="path565" />
  <path
     class="cls-18"
     d="m 284.44,134.93 -3.45,-0.52 a 3.83,3.83 0 0 1 -3.21,-4.36 l 1,-6.47 a 11.5,11.5 0 0 1 13.11,-9.65 3.84,3.84 0 0 1 3.21,4.36 l -1.52,9.88 a 8,8 0 0 1 -9.14,6.76 z"
     id="path567" />
  <rect
     class="cls-55"
     x="-24.106089"
     y="301.53052"
     width="2.05"
     height="7.1199999"
     rx="0.56"
     transform="rotate(-67.83)"
     id="rect569" />
  <path
     class="cls-26"
     d="m 278.31,133.17 a 3.35,3.35 0 0 0 0.65,0.8 4,4 0 0 0 2.11,1 l 4.06,0.65 0.09,-0.55 -1.34,-0.21 -2.72,-0.43 a 3.56,3.56 0 0 1 -1.83,-0.89 3.18,3.18 0 0 1 -0.42,-0.46 l -0.09,-0.14 v 0 0 l -0.48,0.26 z"
     id="path571" />
  <path
     class="cls-56"
     d="m 298.38,100.17 c 2.22,-5.43 1.4,-11.19 -1.65,-14.7 l 0.38,-0.93 -3.21,-1.31 c -0.26,-0.13 -0.52,-0.26 -0.79,-0.37 -5.84,-2.38 -12.95,1.51 -15.88,8.69 -2.93,7.18 -0.56,14.94 5.28,17.32 l 4,1.63 0.4,-1 c 4.64,-0.38 9.25,-3.92 11.46,-9.36"
     id="path573" />
  <path
     class="cls-57"
     d="m 301.59,101.51 c -2.93,7.18 -10,11.07 -15.88,8.69 -5.88,-2.38 -8.2,-10.13 -5.27,-17.31 2.93,-7.18 10,-11.07 15.87,-8.69 5.87,2.38 8.2,10.13 5.28,17.31"
     id="path575" />
  <path
     class="cls-58"
     d="m 299.67,100.73 c -2.43,6 -8.2,9.28 -12.87,7.38 -4.67,-1.9 -6.48,-8.3 -4.05,-14.28 2.43,-5.98 8.2,-9.28 12.88,-7.38 4.68,1.9 6.48,8.3 4,14.28"
     id="path577" />
  <g
     class="cls-59"
     clip-path="url(#clip-path-22)"
     id="g581"
     transform="translate(-85.9,-66.83)">
    <rect
       class="cls-60"
       x="368.54001"
       y="152.75"
       width="12.98"
       height="8.1899996"
       id="rect579" />
  </g>
  <path
     class="cls-61"
     d="m 282.77,93.79 v 0 0 0 m 0,-0.05 v 0 m 10.06,-7.82 v 0 c -3.95,0 -8.06,3 -10,7.81 a 14,14 0 0 1 3.56,-5.08 2.21,2.21 0 0 1 0.45,0.3 2.28,2.28 0 0 1 0.23,3.21 l -2.24,2.58 a 2.29,2.29 0 0 1 -2.56,0.62 14.65,14.65 0 0 1 0.5,-1.5 v 0 0 0 0 0 0.08 0 0 0 0 0 a 13.42,13.42 0 0 0 -0.57,8.21 l 1.89,-1.85 A 14.25,14.25 0 0 1 285,97.1 c 1.91,-4.7 5.88,-7.75 9.75,-7.92 0.63,-0.82 1.23,-1.66 1.79,-2.51 q -0.37,-0.21 -0.78,-0.39 v 0 a 7.46,7.46 0 0 0 -2.75,-0.52 v 0"
     id="path583" />
  <path
     class="cls-62"
     d="m 289.58,108.65 v 0 m -2.8,-0.55 v 0 m 0,0 v 0 m 0,0 v 0 m 12.91,-7.26 c -2,4.78 -6.1,7.82 -10.05,7.83 4,0 8.06,-3 10.05,-7.83 m 0,-0.09 v 0.08 -0.08 m 0,0 v 0 m 0,0 v 0"
     id="path585" />
  <path
     class="cls-63"
     d="m 294.96,89.35 h -0.34 a 45.44,45.44 0 0 1 -4.43,5 l -6.23,6.09 a 12.43,12.43 0 0 0 0.47,6.06 7.4,7.4 0 0 0 2.3,1.55 h 0.07 a 7.43,7.43 0 0 0 2.78,0.54 v 0 c 3.95,0 8.07,-3 10.05,-7.83 v 0 -0.08 0 0 0 0 0 a 13.23,13.23 0 0 0 0.4,-9.19 7.16,7.16 0 0 0 -2.37,-1.57 7.24,7.24 0 0 0 -2.78,-0.54"
     id="path587" />
  <path
     class="cls-64"
     d="m 294.62,89.35 c -3.87,0.17 -7.84,3.22 -9.75,7.92 a 14.25,14.25 0 0 0 -0.91,3.2 l 6.23,-6.09 a 45.44,45.44 0 0 0 4.43,-5"
     id="path589" />
  <path
     class="cls-65"
     d="m 282.77,93.78 v 0 m 0,-0.05 v 0"
     id="path591" />
  <path
     class="cls-66"
     d="m 282.75,93.83 v 0 0 0 m 0,0 v 0 m 0,-0.05 v 0"
     id="path593" />
  <path
     class="cls-67"
     d="m 286.36,88.65 a 14,14 0 0 0 -3.56,5.08 v 0 0 0 0 0 0 a 14.65,14.65 0 0 0 -0.5,1.5 2.29,2.29 0 0 0 2.56,-0.62 l 2.24,-2.58 a 2.28,2.28 0 0 0 -0.23,-3.21 2.21,2.21 0 0 0 -0.45,-0.3"
     id="path595" />
  <polygon
     class="cls-68"
     points="304.45,261.66 290.18,259.6 290.71,256.15 304.87,258.15 "
     id="polygon597"
     transform="translate(-85.9,-66.83)" />
  <path
     class="cls-18"
     d="m 168.73,192.17 -3.63,-7.81 a 3.81,3.81 0 0 1 1.83,-5 l 5.27,-2.46 a 3.6,3.6 0 0 1 4.78,1.74 l 4.94,10.53 a 4.63,4.63 0 0 1 -2.24,6.15 l -1,0.45 a 7.52,7.52 0 0 1 -9.95,-3.6 z"
     id="path599" />
  <path
     class="cls-18"
     d="m 175.1,180.75 -0.34,-0.65 0.32,0.66 v 0 l -0.34,-0.65 0.32,0.66 a 2.21,2.21 0 0 1 0.91,-0.18 2,2 0 0 1 0.74,0.13 3.1,3.1 0 0 1 1.38,1.2 10.69,10.69 0 0 1 1.51,3.87 1.65,1.65 0 0 0 3.22,-0.72 16.41,16.41 0 0 0 -1.23,-3.69 7.85,7.85 0 0 0 -2.67,-3.22 5.35,5.35 0 0 0 -2.95,-0.87 5.55,5.55 0 0 0 -1.67,0.25 4.18,4.18 0 0 0 -0.75,0.3 1.65,1.65 0 0 0 1.53,2.92 z"
     id="path601" />
  <polyline
     class="cls-69"
     points="266.25 252.44 264.44 248.58 264.19 248.7 266 252.55"
     id="polyline603"
     transform="translate(-85.9,-66.83)" />
  <path
     class="cls-70"
     d="m 678.53,301.11 a 20.23,20.23 0 0 0 0.67,-5.14 20,20 0 0 0 -20,-19.95 19.57,19.57 0 0 0 -2,0.11 33.19,33.19 0 0 0 -41.1,-25.51 33.17,33.17 0 0 0 -63.51,-8.56 20.65,20.65 0 0 0 -24.1,11.11 32.46,32.46 0 0 0 -30.64,32.31 v 5 a 32.15,32.15 0 0 0 -39.45,25.48 h 201.11 l 15.2,-0.1 h 15.2 a 15.3,15.3 0 0 0 -11.38,-14.75 z"
     id="path605" />
  <path
     class="cls-71"
     d="m 309.59,317.73 h -4.43 c -1.57,0 -2.82,1.7 -2.62,3.67 a 3,3 0 0 0 2.73,2.85 h 4.32 a 1,1 0 0 0 0.91,-1.12 v -4.28 a 1,1 0 0 0 -0.91,-1.12"
     id="path607" />
  <path
     class="cls-71"
     d="m 328.17,317.73 h -14.31 a 1.07,1.07 0 0 0 -0.94,1.16 v 4.19 a 1.07,1.07 0 0 0 0.94,1.17 h 14.43 c 1.56,0 2.82,-1.7 2.62,-3.68 a 3,3 0 0 0 -2.74,-2.84"
     id="path609" />
  <path
     class="cls-71"
     d="m 339.24,307.58 h -4.43 c -1.57,0 -2.82,1.7 -2.62,3.68 a 3,3 0 0 0 2.73,2.85 h 4.32 a 1,1 0 0 0 0.91,-1.12 v -4.29 a 1,1 0 0 0 -0.91,-1.12"
     id="path611" />
  <path
     class="cls-71"
     d="m 357.82,307.58 h -14.3 a 1.08,1.08 0 0 0 -0.95,1.17 v 4.19 a 1.08,1.08 0 0 0 0.95,1.17 h 14.42 c 1.56,0 2.82,-1.7 2.62,-3.68 a 3,3 0 0 0 -2.74,-2.85"
     id="path613" />
  <path
     class="cls-71"
     d="m 378.18,317.73 h -4.43 c -1.56,0 -2.82,1.7 -2.62,3.67 a 3,3 0 0 0 2.74,2.85 h 4.31 a 1,1 0 0 0 0.92,-1.08 v -4.28 a 1,1 0 0 0 -0.91,-1.12"
     id="path615" />
  <path
     class="cls-71"
     d="m 396.76,317.73 h -14.3 a 1.07,1.07 0 0 0 -0.95,1.16 v 4.19 a 1.08,1.08 0 0 0 0.95,1.17 h 14.42 c 1.56,0 2.82,-1.7 2.62,-3.68 a 3,3 0 0 0 -2.74,-2.84"
     id="path617" />
  <path
     class="cls-71"
     d="m 407.83,307.58 h -4.43 c -1.56,0 -2.82,1.7 -2.62,3.68 a 3,3 0 0 0 2.74,2.85 h 4.31 a 1,1 0 0 0 0.91,-1.12 v -4.29 a 1,1 0 0 0 -0.91,-1.12"
     id="path619" />
  <path
     class="cls-71"
     d="M 426.41,307.58 H 412.1 a 1.08,1.08 0 0 0 -0.95,1.17 v 4.19 a 1.08,1.08 0 0 0 0.95,1.17 h 14.42 c 1.56,0 2.82,-1.7 2.62,-3.68 a 3,3 0 0 0 -2.74,-2.85"
     id="path621" />
  <polyline
     class="cls-55"
     points="110.36 383.57 324.66 383.57 324.66 381.92 110.36 381.92"
     id="polyline623"
     transform="translate(-85.9,-66.83)" />
  <polyline
     class="cls-55"
     points="376.89 381.92 348.05 381.92 348.05 383.57 376.89 383.57"
     id="polyline625"
     transform="translate(-85.9,-66.83)" />
  <polyline
     class="cls-55"
     points="670.66 383.57 944.72 383.57 944.72 381.92 670.66 381.92"
     id="polyline627"
     transform="translate(-85.9,-66.83)" />
  <path
     class="cls-7"
     d="m 140.28,38.41 -23.49,54.5 v -65 c -1.15,0.26 -2.31,0.47 -3.5,0.62 A 49.46,49.46 0 0 1 79.7,51.08 v 264.39 h 37.09 v -195 l 34.15,-79.25 a 32.89,32.89 0 0 1 -10.66,-2.81 z"
     id="path629" />
  <path
     class="cls-72"
     d="m 134.77,36.46 a 34.29,34.29 0 0 0 51.51,-16.53 l -0.94,-0.35 -0.25,1 a 31.57,31.57 0 0 0 8.13,1.07 31.22,31.22 0 0 0 14.7,-3.65 l -0.94,-1.83 a 29.44,29.44 0 0 1 -21.38,2.42 l -0.88,-0.24 -0.31,0.86 A 32.29,32.29 0 0 1 135.9,34.78 l -1.13,1.65 z"
     id="path631" />
  <path
     class="cls-72"
     d="M 0,27.02 A 35.15,35.15 0 0 0 43.41,43.84 L 43.06,42.9 42.49,43.72 A 50.41,50.41 0 0 0 114.1,29.07 l -0.85,-0.53 0.12,1 a 34.73,34.73 0 0 0 12.29,-3.91 l -0.95,-1.76 a 32.75,32.75 0 0 1 -11.58,3.68 l -0.47,0.06 -0.26,0.41 A 48.4,48.4 0 0 1 43.6,42.09 l -0.43,-0.3 -0.49,0.18 A 33.14,33.14 0 0 1 1.78,26.1 Z"
     id="path633" />
  <path
     class="cls-72"
     d="M 77,0.04 A 7.94,7.94 0 0 1 66.69,4.17 l -1,-0.42 -0.32,1 a 10.2,10.2 0 0 1 -19.95,-3 v -1 H 33.57 v 2 H 44.4 v -1 h -1 a 12.2,12.2 0 0 0 23.86,3.58 l -1,-0.3 -0.38,0.93 A 10,10 0 0 0 78.79,0.81 L 76.96,0 Z"
     id="path635" />
  <path
     class="cls-73"
     d="m 107.57,140.63 a 4.75,4.75 0 0 0 -2.16,-2.36 6.44,6.44 0 0 0 -3.05,-0.73 7.3,7.3 0 0 0 -4.55,1.57 10.85,10.85 0 0 0 -3,4.23 27.38,27.38 0 0 0 -1.41,4.83 77.41,77.41 0 0 0 -1.89,16.09 41.71,41.71 0 0 0 3.59,17.72 12.15,12.15 0 0 0 3.45,4.74 6.49,6.49 0 0 0 3.87,1.35 4.84,4.84 0 0 0 2.3,-0.55 5.8,5.8 0 0 0 2,-1.84 11.89,11.89 0 0 0 1.17,-2.22 20.73,20.73 0 0 0 1.42,-5.87 c 0.25,-2.5 0.37,-5 0.37,-7.53 a 76.84,76.84 0 0 0 -0.7,-10.39 25.55,25.55 0 0 0 -2.45,-8.64 4.09,4.09 0 0 0 -6.85,-0.58 14.76,14.76 0 0 0 -2.54,7.27 44.73,44.73 0 0 0 -0.26,4.91 46.29,46.29 0 0 0 1.62,12.17 3.13,3.13 0 0 0 0.74,1.33 2.75,2.75 0 0 0 1.38,0.78 2.44,2.44 0 0 0 0.59,0.07 2.28,2.28 0 0 0 1.25,-0.35 3.23,3.23 0 0 0 1.11,-1.26 6.5,6.5 0 0 0 0.5,-1.39 22.23,22.23 0 0 0 0.41,-7.91 l -2,0.25 a 20.32,20.32 0 0 1 0.17,2.58 20,20 0 0 1 -0.54,4.62 3.49,3.49 0 0 1 -0.46,1.15 1,1 0 0 1 -0.25,0.26 l -0.2,0.05 h -0.15 a 0.72,0.72 0 0 1 -0.37,-0.22 1,1 0 0 1 -0.26,-0.46 44.07,44.07 0 0 1 -1.55,-11.65 43.39,43.39 0 0 1 0.25,-4.7 12.88,12.88 0 0 1 2.14,-6.26 2.05,2.05 0 0 1 1.64,-0.81 2.12,2.12 0 0 1 1.86,1.11 23.78,23.78 0 0 1 2.23,8 76.12,76.12 0 0 1 0.68,10.12 c 0,2.45 -0.12,4.9 -0.36,7.33 a 18.83,18.83 0 0 1 -1.28,5.31 9.35,9.35 0 0 1 -1,1.83 3.77,3.77 0 0 1 -1.31,1.22 2.85,2.85 0 0 1 -1.37,0.32 4.51,4.51 0 0 1 -2.66,-0.94 10.38,10.38 0 0 1 -2.85,-4 39.84,39.84 0 0 1 -3.38,-16.87 75.53,75.53 0 0 1 1.85,-15.67 24.7,24.7 0 0 1 1.3,-4.48 8.69,8.69 0 0 1 2.42,-3.46 5.31,5.31 0 0 1 3.28,-1.12 4.43,4.43 0 0 1 2.1,0.49 2.77,2.77 0 0 1 1.27,1.37 l 1.84,-0.77 z"
     id="path637" />
  <path
     class="cls-73"
     d="m 86.68,159.85 v -12.81 a 14.45,14.45 0 0 1 5.79,-11.58 16.51,16.51 0 0 0 6.63,-13.19 V 84.4 h -2 v 37.87 a 14.49,14.49 0 0 1 -5.8,11.59 16.46,16.46 0 0 0 -6.59,13.18 v 12.81 z"
     id="path639" />
  <path
     class="cls-73"
     d="m 84.68,171.69 v 12.81 a 16.48,16.48 0 0 0 6.59,13.19 14.49,14.49 0 0 1 5.8,11.59 v 11.56 h 2 v -11.56 a 16.49,16.49 0 0 0 -6.6,-13.19 14.48,14.48 0 0 1 -5.79,-11.59 v -12.81 z"
     id="path641" />
  <path
     class="cls-73"
     d="M 115.4,159.85 V 145.3 a 17.86,17.86 0 0 0 -4,-11.28 15.81,15.81 0 0 1 -3.58,-10 v -27.8 h -2 v 27.79 a 17.84,17.84 0 0 0 4,11.28 15.81,15.81 0 0 1 3.58,10 v 14.55 z"
     id="path643" />
  <polyline
     class="cls-73"
     points="182.97 296.23 182.97 348.04 184.97 348.04 184.97 296.23"
     id="polyline645"
     transform="translate(-85.9,-66.83)" />
  <polyline
     class="cls-73"
     points="173.39 335.37 173.39 357.81 175.39 357.81 175.39 335.37"
     id="polyline647"
     transform="translate(-85.9,-66.83)" />
  <polyline
     class="cls-73"
     points="197.32 273.99 197.32 301.47 199.32 301.47 199.32 273.99"
     id="polyline649"
     transform="translate(-85.9,-66.83)" />
  <polyline
     class="cls-73"
     points="173.11 128.14 173.11 165.02 175.11 165.02 175.11 128.14"
     id="polyline651"
     transform="translate(-85.9,-66.83)" />
</svg>
