<svg id="Layer_1" data-name="Layer 1" xmlns="http://www.w3.org/2000/svg" xmlns:xlink="http://www.w3.org/1999/xlink" viewBox="0 0 811.4 814.06"><defs><style>.cls-1{fill:url(#linear-gradient);}.cls-2{fill:#ff9100;}.cls-3{fill:#ffd505;}.cls-4{fill:#5b3103;}.cls-5{fill:#fcaa47;}.cls-6{fill:#fe4c00;}.cls-7{fill:#3d2407;}.cls-8{fill:#1f3440;}.cls-9{fill:#3c5669;}</style><linearGradient id="linear-gradient" x1="384.37" y1="763.3" x2="384.37" y2="54.72" gradientUnits="userSpaceOnUse"><stop offset="0" stop-color="#ffe7a3"/><stop offset="0.14" stop-color="#ffedba"/><stop offset="0.37" stop-color="#fff5d8"/><stop offset="0.59" stop-color="#fffaee"/><stop offset="0.8" stop-color="#fffefb"/><stop offset="1" stop-color="#fff"/></linearGradient></defs><title>Thankyou</title><circle class="cls-1" cx="384.37" cy="409.01" r="354.29"/><rect class="cls-2" x="293.62" y="513.45" width="99.67" height="63.26"/><path class="cls-2" d="M430.5,184.25l-1.77,19.63c-.58,6.45-5.79,11.81-12.26,11.88A12.44,12.44,0,0,1,404,202.23l3-32.92a5.44,5.44,0,0,0-3.74-5.69q-6.66-2.07-13.58-3.55a5.49,5.49,0,0,0-6.62,4.85l-3.12,34.55c-.58,6.45-5.79,11.81-12.26,11.88a12.45,12.45,0,0,1-12.53-13.53l3.18-35.13a5.49,5.49,0,0,0-5.65-6q-7.07.21-14,1.06a5.43,5.43,0,0,0-4.7,4.92L331,195.05c-.58,6.45-5.79,11.82-12.26,11.89a12.45,12.45,0,0,1-12.52-13.54L308,173.18a5.45,5.45,0,0,0-7.42-5.58,152.77,152.77,0,0,0-95.35,128.09l-10,110.94A116.11,116.11,0,0,0,300.43,532.71l73.13,6.6A116.1,116.1,0,0,0,499.64,434.13l10-110.94a152.78,152.78,0,0,0-70.85-143.11A5.46,5.46,0,0,0,430.5,184.25Z"/><path class="cls-3" d="M427.67,629.37l-4.31-25.44,3.87,25.51.44-.07-4.31-25.44,3.87,25.51-1.36-9,1.29,9h.07l-1.36-9,1.29,9v0h0v0a53.89,53.89,0,0,1,6.5-.34,80.6,80.6,0,0,1,23.63,3.61,72.19,72.19,0,0,1,28.3,16.57l52.87-56.1a149.57,149.57,0,0,0-29.2-21.53,151.49,151.49,0,0,0-42.43-16.07A157.82,157.82,0,0,0,433.66,552a119.43,119.43,0,0,0-18.87,1.34Z"/><path class="cls-4" d="M408.41,462.11a46.67,46.67,0,0,1-85.69-8Z"/><path class="cls-5" d="M290.12,467.47a25.24,25.24,0,0,0,17.58-21.82c.07-.77.1-1.54.1-2.3a25,25,0,0,0-3.67-13.09,25.35,25.35,0,0,0-9.69-9.17,6.59,6.59,0,1,0-6.2,11.62,12.05,12.05,0,0,1,6.4,10.64,10.61,10.61,0,0,1-.05,1.12,12,12,0,0,1-2.68,6.56,12.1,12.1,0,0,1-5.74,3.88,6.58,6.58,0,0,0,3.95,12.56Z"/><path class="cls-5" d="M444.25,469.19a12.1,12.1,0,0,1-4.69-4.4,12,12,0,0,1-1.77-6.28,10.24,10.24,0,0,1,0-1.1A12.09,12.09,0,0,1,446.2,447a6.58,6.58,0,0,0-4-12.53,25.24,25.24,0,0,0-17.45,21.78c-.07.77-.1,1.53-.1,2.29a25.25,25.25,0,0,0,13.48,22.33,6.58,6.58,0,0,0,6.14-11.65Z"/><path class="cls-6" d="M368.53,472.69l-37.71-3.4a46.61,46.61,0,0,0,48.84,15.82A12.29,12.29,0,0,0,368.53,472.69Z"/><path class="cls-7" d="M416.9,377l-1.18,12.82a6.58,6.58,0,1,0,13.1,1.21L430,378.22A6.58,6.58,0,0,0,416.9,377"/><path class="cls-7" d="M325,368.5l-1.19,12.82a6.58,6.58,0,1,0,13.11,1.21l1.18-12.82A6.58,6.58,0,1,0,325,368.5"/><path class="cls-3" d="M227.82,761.11H448.05V552H244.34c-9.12,0-16.52,7-16.52,15.68Z"/><path class="cls-2" d="M212.23,569.57a256.76,256.76,0,0,0-40.34,26,225.12,225.12,0,0,0-32.72,31c-10.55,12.4-20.24,27-26.65,44a69.8,69.8,0,0,0-4.74,24.55,55.91,55.91,0,0,0,4.3,21.71,57.67,57.67,0,0,0,10,15.81c7.07,8,15.62,13.75,24.76,18.23,13.75,6.67,29.14,10.68,45.85,13.32A349.13,349.13,0,0,0,246.14,768c13.38,0,27.1-.58,40.87-1.66l86.18-6.78-4-50.82L283,715.54c-12.54,1-25,1.5-36.87,1.5a312.66,312.66,0,0,1-40.31-2.36,163.25,163.25,0,0,1-24.06-4.82A78.62,78.62,0,0,1,168.89,705a37,37,0,0,1-6-3.66,17,17,0,0,1-2.46-2.22,6.67,6.67,0,0,1-1.32-2,5,5,0,0,1-.31-1.93,19.13,19.13,0,0,1,1.48-6.63c3.75-10,10-19.89,17.74-28.92,11.5-13.56,26.06-25,37.6-32.82,5.77-3.89,10.77-6.88,14.23-8.85,1.73-1,3.08-1.71,3.94-2.17l.93-.48.17-.09h0L230,605.43l4.88,9.83h0L230,605.43l4.88,9.83-9.22-18.57,9.19,18.58h0l-9.22-18.57,9.19,18.58-22.59-45.7Z"/><path class="cls-3" d="M257.29,552a118.4,118.4,0,0,0-18.87,1.34A157.09,157.09,0,0,0,193.25,567,149.33,149.33,0,0,0,140.5,609l60.29,48a72.47,72.47,0,0,1,12.57-12.39,74.46,74.46,0,0,1,19.54-10.74,80.37,80.37,0,0,1,16.43-4.19c2.5-.36,4.43-.5,5.51-.55l1,0h0V609.27l-.52,19.83h.52V609.27l-.52,19.83Z"/><path class="cls-2" d="M451.39,763.16H360.7V717.41a19.12,19.12,0,0,1,19.12-19.12h71.57Z"/><path class="cls-8" d="M329.43,768.83H603a9.42,9.42,0,0,0,9.42-9.42v-4.56H320v4.56A9.42,9.42,0,0,0,329.43,768.83Z"/><path class="cls-8" d="M439.13,768.83h281a9.59,9.59,0,0,0,9.6-9.59V565a9.59,9.59,0,0,0-9.6-9.59h-281a9.59,9.59,0,0,0-9.59,9.59V759.24a9.59,9.59,0,0,0,9.59,9.59"/><path class="cls-9" d="M613.62,644a9.07,9.07,0,0,0-8.73,6.65h0a2,2,0,0,0,1.38,2.43,1.86,1.86,0,0,0,.52.07,2,2,0,0,0,1.91-1.45,5.11,5.11,0,0,1,8-2.69,5.12,5.12,0,0,1,1.81,2.69,2,2,0,0,0,1.9,1.45,1.86,1.86,0,0,0,.52-.07,2,2,0,0,0,1.38-2.43,9,9,0,0,0-8.73-6.65"/><path class="cls-9" d="M588.62,644a9.07,9.07,0,0,0-8.73,6.65,2,2,0,0,0,1.38,2.43,1.86,1.86,0,0,0,.52.07,2,2,0,0,0,1.9-1.45A5.12,5.12,0,0,1,585.5,649a5.12,5.12,0,0,1,6.24,0,5.12,5.12,0,0,1,1.81,2.69,2,2,0,0,0,1.9,1.45,1.86,1.86,0,0,0,.52-.07,2,2,0,0,0,1.38-2.43,9,9,0,0,0-8.73-6.65"/><path class="cls-9" d="M620.45,660.87a2,2,0,0,0-1.9,1.46,18.16,18.16,0,0,1-15.84,13.26c-3.38-.64-4.23-4.9-5.4-8.12l0-.06c-.93-4.15-3.87-6.53-6.52-6.53-2.26,0-4.31,1.73-4.73,5.58a.56.56,0,0,1-.51.5,18.07,18.07,0,0,1-2-4.63,2,2,0,0,0-1.91-1.45,1.91,1.91,0,0,0-.52.07,2,2,0,0,0-1.38,2.42A22.12,22.12,0,0,0,601,679.62h0a22.1,22.1,0,0,0,21.32-16.25A2,2,0,0,0,621,661a1.88,1.88,0,0,0-.52-.08"/></svg>