<svg id="Layer_1" data-name="Layer 1" xmlns="http://www.w3.org/2000/svg" viewBox="0 0 1417.32 1098.08"><defs><style>.cls-1{fill:#fc6;}.cls-2{fill:#4f3102;}.cls-3{fill:#fe4c00;}.cls-4{fill:#277da1;}.cls-5{fill:#fce68d;}.cls-6{fill:#c63502;}.cls-7{fill:#fd8f04;}.cls-8{fill:#5b3103;}.cls-9{fill:#fdd307;}.cls-10{fill:#faa747;}.cls-11{fill:#fc4c01;}.cls-12{fill:#e87503;}.cls-13{fill:#f1732b;}.cls-14{fill:#97ca67;}.cls-15{fill:#005d80;}.cls-16{fill:#ffb200;}.cls-17{fill:#ffe499;}.cls-18{fill:#ffd505;}</style></defs><title>Thankyou</title><rect class="cls-1" x="374.12" y="744.92" width="126.43" height="108.89" transform="translate(-196.78 145.04) rotate(-15.42)"/><path class="cls-1" d="M442,768.53l-35.15,9.69a134,134,0,0,1-158.92-76.76L196.42,580.22C149.91,470.78,193.67,343.73,298,315h0c104.33-28.77,207,57.9,223.19,175.71L539.1,621.17A134,134,0,0,1,442,768.53Z"/><path class="cls-2" d="M316.13,629a5.81,5.81,0,0,0-2.44,9.85,60.61,60.61,0,0,0,98.83-27.54,5.82,5.82,0,0,0-7.18-7.18Z"/><polygon class="cls-3" points="384.89 1046.73 570.24 1046.73 629.55 1031.57 510 811.57 376 848.54 384.89 1046.73"/><polyline class="cls-3" points="532.8 901.77 514.16 906.91 514.75 909.03 533.38 903.89"/><path class="cls-3" d="M507.62,816,374.84,852.62a12.79,12.79,0,0,1-15.73-8.93l-7-25.34a12.78,12.78,0,0,1,8.92-15.72L493.83,766a12.77,12.77,0,0,1,15.72,8.93l7,25.34A12.79,12.79,0,0,1,507.62,816Z"/><path class="cls-4" d="M435.53,342.32l-195.68-6.84.6-17.2c1.88-53.81,47.45-96.3,101.26-94.42s96.3,47.45,94.42,101.26Z"/><path class="cls-4" d="M322.62,320.23l-.17,4.78a32.9,32.9,0,0,1-34,31.74l-101.7-3.56a25.23,25.23,0,1,1,1.77-50.42L310.31,307A12.76,12.76,0,0,1,322.62,320.23Z"/><path class="cls-5" d="M488.09,573.64A12.38,12.38,0,1,1,472.86,565,12.4,12.4,0,0,1,488.09,573.64Z"/><path class="cls-1" d="M673.23,1016.54c-.58-2.89-1.27-5.74-2.05-8.58a191.31,191.31,0,0,0-9.93-27.24,374.26,374.26,0,0,0-25-45.81c-13.82-22-28.72-42.09-40.24-56.88s-19.68-24.2-19.93-24.5l-45.27,39.18c.21.24,17.94,20.82,37.14,47.83a497.41,497.41,0,0,1,27.83,43.34c4.12,7.35,7.82,14.58,10.83,21.37a133.82,133.82,0,0,1,6.8,18.47c.45,1.66.82,3.23,1.12,4.69.52,2.63.88,5.13,1.17,7.58l58.13-15.86C673.63,1018.93,673.47,1017.75,673.23,1016.54Z"/><path class="cls-2" d="M265.16,541.19l4.2,15.41a7.73,7.73,0,0,0,14.91-4.07l-4.2-15.41a7.73,7.73,0,1,0-14.91,4.07"/><path class="cls-2" d="M375,511.23l4.2,15.41a7.73,7.73,0,0,0,14.91-4.07l-4.2-15.41A7.73,7.73,0,1,0,375,511.23"/><path class="cls-3" d="M493.25,872.22l4-24.51-4.92,24.35.9.16,4-24.51-4.92,24.35,1.36-6.75L492.29,872l.06,0,1.36-6.75L492.29,872l.14-.66-.14.66h0l.14-.66-.14.66c.24.06,8.92,2,21.15,9.78a122.71,122.71,0,0,1,20.66,16.69,164.91,164.91,0,0,1,23.18,29.38l69.15-43.47a244.42,244.42,0,0,0-38.3-47.28c-19.51-18.57-38.66-29.83-53.47-36.42s-25.34-8.63-28.2-9.1Z"/><path class="cls-1" d="M358.06,879.66l5.55,12-5.45-12-.1,0,5.55,12-5.45-12a152,152,0,0,1-20.06,6.9,179.7,179.7,0,0,1-47.29,6.67,131.38,131.38,0,0,1-42.69-6.76,113.62,113.62,0,0,1-31.57-16.74,130.61,130.61,0,0,1-22.66-22c-11-13.48-21.46-31.1-30.45-54.26S147,741.61,142,706.38l-54.64,7.69c6.45,45.87,17,83.46,30.87,114.29,10.38,23.12,22.63,42.43,36.29,58.28a182.48,182.48,0,0,0,32.67,29.94,169.15,169.15,0,0,0,52.86,25.1,189.9,189.9,0,0,0,50.75,6.7,235.1,235.1,0,0,0,63.51-9.1,193.41,193.41,0,0,0,27-9.56Z"/><path class="cls-3" d="M375.8,836.38,394.5,841,376,835.7s-.06.21-.18.68L394.5,841,376,835.7a48.64,48.64,0,0,1-3,7.25,61.92,61.92,0,0,1-6.58,10.56,56.62,56.62,0,0,1-7.51,8,53.49,53.49,0,0,1-16.38,9.77c-6.87,2.59-15.57,4.51-27.48,4.53-2.58,0-5.31-.09-8.2-.3l-5.95,83.67q7.21.51,14.15.51a168.37,168.37,0,0,0,37.83-4.13,144.43,144.43,0,0,0,28.46-9.66A136.76,136.76,0,0,0,419,920.17a142.07,142.07,0,0,0,18.36-21.65,146.12,146.12,0,0,0,15.06-27.83,107.65,107.65,0,0,0,4.81-14.31l-81.46-20Z"/><path class="cls-6" d="M382.28,948.61,381,888.77a1.11,1.11,0,0,0-2.21.05l1.28,59.84a1.11,1.11,0,0,0,2.21,0"/><path class="cls-1" d="M131,743.64,100.46,752A24,24,0,0,1,71,735.15l-4.79-17.57a43.76,43.76,0,0,1,30.7-53.73l11.44-3.13a24,24,0,0,1,29.45,16.82l10,36.65A24,24,0,0,1,131,743.64Z"/><path class="cls-1" d="M132.22,667.1h0a48.87,48.87,0,0,1-6.11-9,46.85,46.85,0,0,1-3.62-8.69,35.22,35.22,0,0,1-1.52-10,30.24,30.24,0,0,1,.48-5.39,11,11,0,1,0-21.71-3.95,51.3,51.3,0,0,0-.84,9.34,57.54,57.54,0,0,0,2.73,17.25,71.66,71.66,0,0,0,8.85,18.23,59.89,59.89,0,0,0,5.61,7.26,11,11,0,0,0,16.13-15.07Z"/><rect class="cls-7" x="621.04" y="747.97" width="122.19" height="77.55" transform="translate(-7.22 6.32) rotate(-0.53)"/><path class="cls-7" d="M745.58,337.5l.22,24.17c.07,7.94-5.62,15.12-13.51,16a15.26,15.26,0,0,1-16.92-15L715,322.15a6.65,6.65,0,0,0-5.25-6.48q-8.37-1.73-17-2.69a6.72,6.72,0,0,0-7.48,6.72l.39,42.53c.07,7.93-5.63,15.11-13.52,16a15.26,15.26,0,0,1-16.92-15l-.4-43.24a6.71,6.71,0,0,0-7.6-6.58q-8.61,1.13-17,3a6.65,6.65,0,0,0-5.13,6.57l.36,39.81c.08,7.94-5.62,15.11-13.51,16a15.26,15.26,0,0,1-16.92-15l-.23-24.89a6.69,6.69,0,0,0-9.74-5.91A187.29,187.29,0,0,0,484.35,500.83l1.26,136.55a142.32,142.32,0,0,0,143.63,141l90-.83a142.33,142.33,0,0,0,141-143.64L859,497.38a187.3,187.3,0,0,0-103.81-166A6.7,6.7,0,0,0,745.58,337.5Z"/><path class="cls-8" d="M593.94,516.77v-.23a25,25,0,0,1,24.73-25h.23a25,25,0,0,1,25,24.73,7.73,7.73,0,1,0,15.45-.14,40.43,40.43,0,0,0-40.41-40h-.37a40.41,40.41,0,0,0-40,40.41v.38a7.73,7.73,0,0,0,15.45-.15Z"/><path class="cls-8" d="M728.26,515.54v-.24A25,25,0,0,1,753,490.35h.24a24.94,24.94,0,0,1,24.95,24.73,7.73,7.73,0,1,0,15.45-.15,40.39,40.39,0,0,0-40.4-40h-.38a40.41,40.41,0,0,0-40,40.4v.38a7.73,7.73,0,0,0,15.45-.14Z"/><path class="cls-9" d="M801.43,1045.72,551.65,1048l-1.89-204.46a45.33,45.33,0,0,1,44.91-45.74l147.54-1.36a56.92,56.92,0,0,1,57.44,56.4Z"/><path class="cls-8" d="M762.91,577a86.86,86.86,0,0,1-160.18,1Z"/><path class="cls-10" d="M592,615.94a30.61,30.61,0,0,0,18.59-28.16v-.28a30.62,30.62,0,0,0-19-28,7.73,7.73,0,0,0-5.88,14.29,15.26,15.26,0,0,1,6.73,5.44,15.08,15.08,0,0,1,2.66,8.45v.14a15,15,0,0,1-2.57,8.44,15.2,15.2,0,0,1-6.64,5.51A7.73,7.73,0,0,0,592,615.94Z"/><path class="cls-10" d="M780.19,599.94A15.19,15.19,0,0,1,770.72,586v-.14A15.19,15.19,0,0,1,779.86,572a7.72,7.72,0,1,0-6.15-14.17,30.6,30.6,0,0,0-18.44,28.09v.29a30.65,30.65,0,0,0,19.11,28.09,7.73,7.73,0,0,0,5.81-14.32Z"/><path class="cls-11" d="M691,603.94l-70.47.65a86.74,86.74,0,0,0,93.4,20.3A22.88,22.88,0,0,0,691,603.94Z"/><path class="cls-12" d="M663,670.84a64.72,64.72,0,0,0,24.41,4.53,66.58,66.58,0,0,0,27.18-5.75,2.2,2.2,0,1,0-1.79-4A62.15,62.15,0,0,1,687.45,671a65.67,65.67,0,0,1-16.4-2.09c-2-.53-3.57-1.05-4.63-1.43l-1.2-.46-.29-.12-.07,0h0a2.21,2.21,0,1,0-1.81,4Z"/><path class="cls-7" d="M773.31,889.25c.83.07,2.37.16,4.54.16,7.23,0,21.6-1,39.33-8a139,139,0,0,0,43-27.17,181.49,181.49,0,0,0,31.55-38.55C906.45,792,919,761.55,927.92,722.44s14.18-87,14.18-146c0-60-5.46-131.58-18.35-217.38l-65.49,9.84c12.5,83.15,17.63,151.56,17.62,207.54,0,65.28-7,113.61-17,148.8-7.5,26.41-16.63,45.4-25.68,59.08a109.59,109.59,0,0,1-19.82,22.94c-9.39,8-17.73,11.83-24.12,13.85a40.71,40.71,0,0,1-11.44,2.1h-.08l-.33,15.56,1.26-15.5-.93-.06-.33,15.56,1.26-15.5-5.39,66Z"/><path class="cls-9" d="M726.6,891.38a135.91,135.91,0,0,0,13.5,2.77,187,187,0,0,0,29.2,2.3,172.33,172.33,0,0,0,38.37-4.23,149.81,149.81,0,0,0,32.92-11.67,139.5,139.5,0,0,0,24.83-15.75,144.14,144.14,0,0,0,32.45-36.48,181.52,181.52,0,0,0,21.5-50.71l-93.92-24.76a97.82,97.82,0,0,1-5.58,15.92A57,57,0,0,1,809,785.16a42.16,42.16,0,0,1-8.49,6.71,50.3,50.3,0,0,1-14.82,5.74,75.61,75.61,0,0,1-16.39,1.72,91.23,91.23,0,0,1-13.93-1.09c-1.63-.26-2.82-.5-3.42-.64l-.46-.1L746,820l6-22.32-.52-.13L746,820l6-22.32L726.6,891.38Z"/><path class="cls-7" d="M896.47,392.54h0A52.36,52.36,0,0,1,836.57,349L831,313.8a68.16,68.16,0,0,1,56.67-78,36.56,36.56,0,0,1,41.83,30.4L940,332.64A52.36,52.36,0,0,1,896.47,392.54Z"/><path class="cls-7" d="M859.92,343.17l-.8,10.2,1-10.18-.21,0-.8,10.2,1-10.18-.31,3.07.34-3.07h0l-.31,3.07.34-3.07-.29,0a30.36,30.36,0,0,1-5.83-1.6,45.07,45.07,0,0,1-16.31-10.68c-5.93-6-12-15-16.31-29.5a15.45,15.45,0,1,0-29.65,8.72,104.49,104.49,0,0,0,16.88,34.33,81.59,81.59,0,0,0,16,15.91,73.93,73.93,0,0,0,21.88,11.31,52.39,52.39,0,0,0,11,2.34,15.45,15.45,0,0,0,2.42-30.81Z"/><path class="cls-7" d="M560.44,823.74l1.71,21-.89-21-.82.06,1.71,21-.89-21,.22,5.21-.11-5.21h-.11l.22,5.21-.11-5.21h-.08c-.8,0-6.83-.13-15.19-3.42a72.75,72.75,0,0,1-22.48-14.39,116,116,0,0,1-20-24.61c-10.18-16.39-20.3-39.78-27.86-73S463.25,632,463.26,576.91c0-56,5.12-124.39,17.62-207.54l-65.49-9.84C402.5,445.33,397,516.91,397,576.91c0,70,7.4,124.22,19.49,166.87,9.07,32,20.83,57.41,34.17,77.56A175,175,0,0,0,482.63,858,134.8,134.8,0,0,0,530,884.76a105.72,105.72,0,0,0,31.29,5.14c2.17,0,3.71-.09,4.54-.16l-5.39-66Z"/><path class="cls-9" d="M587.13,798.12l6,22.32L587.65,798l-.52.13,6,22.32L587.65,798s-.48.12-1.38.29a86.57,86.57,0,0,1-16.43,1.53A75,75,0,0,1,553.19,798a51.94,51.94,0,0,1-11.52-4,42.07,42.07,0,0,1-7.57-4.79,46.93,46.93,0,0,1-10.6-12.09c-3.49-5.56-7-13.13-9.81-23.79L419.77,778.1A195.26,195.26,0,0,0,431,809.75a154.09,154.09,0,0,0,29.73,43.83,139.33,139.33,0,0,0,28.06,22.13,147,147,0,0,0,43.35,17.14,172.07,172.07,0,0,0,37.71,4.09,187.09,187.09,0,0,0,29.2-2.3,131.53,131.53,0,0,0,13.5-2.78l-25.41-93.74Z"/><path class="cls-7" d="M442.67,393h0a52.36,52.36,0,0,0,59.9-43.53l5.58-35.21a68.16,68.16,0,0,0-56.67-78,36.56,36.56,0,0,0-41.83,30.4l-10.51,66.41A52.36,52.36,0,0,0,442.67,393Z"/><path class="cls-7" d="M481.64,374.47a49.84,49.84,0,0,0,9.07-1.77A70.55,70.55,0,0,0,504,367.41a78.67,78.67,0,0,0,23.93-19.29c7.82-9.27,14.78-21.63,19.45-37.54a15.45,15.45,0,1,0-29.65-8.72c-3.18,10.81-7.41,18.55-11.79,24.29a50.6,50.6,0,0,1-9.92,9.91,42.62,42.62,0,0,1-12.68,6.59,30.58,30.58,0,0,1-3.61.92l-.7.11h0l.78,6.83-.54-6.85-.24,0,.78,6.83-.54-6.85a15.45,15.45,0,0,0,2.42,30.81Z"/><rect class="cls-7" x="621.05" y="747.97" width="122.19" height="77.55" transform="translate(-7.22 6.32) rotate(-0.53)"/><path class="cls-7" d="M745.58,337.5l.22,24.17c.07,7.94-5.62,15.12-13.51,16a15.26,15.26,0,0,1-16.92-15L715,322.15a6.66,6.66,0,0,0-5.25-6.48q-8.37-1.73-17-2.69a6.72,6.72,0,0,0-7.48,6.73l.39,42.52c.07,7.93-5.63,15.11-13.52,16a15.26,15.26,0,0,1-16.92-15l-.4-43.23a6.71,6.71,0,0,0-7.6-6.59q-8.61,1.13-17,3a6.65,6.65,0,0,0-5.13,6.57l.37,39.81c.07,7.94-5.63,15.11-13.52,16a15.26,15.26,0,0,1-16.92-15l-.23-24.89a6.69,6.69,0,0,0-9.74-5.91A187.29,187.29,0,0,0,484.35,500.83l1.26,136.55a142.33,142.33,0,0,0,143.64,141l90-.83a142.33,142.33,0,0,0,141-143.64L859,497.38a187.28,187.28,0,0,0-103.81-166A6.69,6.69,0,0,0,745.58,337.5Z"/><path class="cls-8" d="M593.94,516.77v-.23a24.94,24.94,0,0,1,24.73-24.95h.23a25,25,0,0,1,25,24.73,7.73,7.73,0,1,0,15.45-.14,40.43,40.43,0,0,0-40.41-40h-.38a40.41,40.41,0,0,0-40,40.41v.38a7.73,7.73,0,0,0,15.45-.15Z"/><path class="cls-8" d="M728.26,515.54v-.24A25,25,0,0,1,753,490.35h.24a24.94,24.94,0,0,1,24.95,24.73,7.73,7.73,0,1,0,15.45-.15,40.39,40.39,0,0,0-40.4-40h-.38a40.41,40.41,0,0,0-40,40.4v.38a7.73,7.73,0,0,0,15.45-.14Z"/><path class="cls-9" d="M801.43,1045.72,551.65,1048l-1.89-204.46a45.33,45.33,0,0,1,44.91-45.74l147.54-1.36a56.92,56.92,0,0,1,57.44,56.4Z"/><path class="cls-8" d="M762.91,577a86.86,86.86,0,0,1-160.18,1Z"/><path class="cls-10" d="M592,615.94a30.66,30.66,0,0,0,18.59-28.16v-.27h0a30.6,30.6,0,0,0-18.95-28,7.72,7.72,0,1,0-5.89,14.28,15.26,15.26,0,0,1,6.73,5.44,15.1,15.1,0,0,1,2.66,8.45v.14a15,15,0,0,1-2.57,8.44,15.2,15.2,0,0,1-6.64,5.51A7.73,7.73,0,0,0,592,615.94Z"/><path class="cls-10" d="M780.19,599.94A15.19,15.19,0,0,1,770.72,586v-.14A15.19,15.19,0,0,1,779.86,572a7.72,7.72,0,1,0-6.15-14.17,30.6,30.6,0,0,0-18.44,28.09v.28a30.65,30.65,0,0,0,19.11,28.1,7.73,7.73,0,0,0,5.81-14.32Z"/><path class="cls-11" d="M691,603.94l-70.48.65a86.74,86.74,0,0,0,93.4,20.3A22.88,22.88,0,0,0,691,603.94Z"/><path class="cls-12" d="M663,670.84a64.49,64.49,0,0,0,24.41,4.53,66.66,66.66,0,0,0,27.19-5.75,2.21,2.21,0,1,0-1.8-4A62.18,62.18,0,0,1,687.45,671a65.67,65.67,0,0,1-16.4-2.09c-2-.53-3.57-1.05-4.63-1.43-.53-.19-.93-.35-1.2-.46l-.29-.12-.07,0h0a2.21,2.21,0,1,0-1.81,4Z"/><path class="cls-7" d="M773.31,889.25c.83.07,2.37.16,4.54.16,7.23,0,21.6-1,39.33-8a138.74,138.74,0,0,0,43-27.17,181.49,181.49,0,0,0,31.55-38.55C906.45,792,919,761.55,927.93,722.44s14.17-87,14.17-146c0-60-5.46-131.58-18.35-217.38l-65.49,9.84c12.5,83.16,17.63,151.56,17.62,207.54,0,65.28-7,113.61-17,148.8-7.5,26.41-16.63,45.4-25.68,59.08a109.59,109.59,0,0,1-19.82,22.94c-9.39,8-17.73,11.83-24.12,13.85a40.71,40.71,0,0,1-11.44,2.1h-.08l-.33,15.58,1.26-15.52-.93-.06-.33,15.58,1.26-15.52Z"/><path class="cls-9" d="M726.6,891.37a131.53,131.53,0,0,0,13.5,2.78,187.09,187.09,0,0,0,29.2,2.3,171.8,171.8,0,0,0,38.37-4.24,149.06,149.06,0,0,0,32.92-11.66,140.14,140.14,0,0,0,24.84-15.75,144.11,144.11,0,0,0,32.44-36.48,181.52,181.52,0,0,0,21.5-50.71l-93.92-24.76a97.82,97.82,0,0,1-5.58,15.92A56.75,56.75,0,0,1,809,785.16a41.75,41.75,0,0,1-8.49,6.7,49.94,49.94,0,0,1-14.82,5.75,75.61,75.61,0,0,1-16.39,1.72,91.08,91.08,0,0,1-13.92-1.09c-1.64-.26-2.82-.51-3.43-.64l-.46-.1L746,820l6-22.32-.52-.13L746,820l6-22.32Z"/><path class="cls-7" d="M896.47,392.54h0A52.35,52.35,0,0,1,836.57,349L831,313.8a68.16,68.16,0,0,1,56.67-78,36.56,36.56,0,0,1,41.83,30.4L940,332.64A52.36,52.36,0,0,1,896.47,392.54Z"/><path class="cls-7" d="M859.92,343.17l-.8,10.19,1-10.17-.21,0-.8,10.19,1-10.17-.31,3.08.34-3.08h0l-.31,3.08.34-3.08-.29,0a30.36,30.36,0,0,1-5.83-1.6,45.07,45.07,0,0,1-16.31-10.68c-5.93-6-12-15-16.32-29.5a15.45,15.45,0,1,0-29.64,8.72,104.49,104.49,0,0,0,16.88,34.33,81.86,81.86,0,0,0,16,15.91,73.93,73.93,0,0,0,21.88,11.31,52.39,52.39,0,0,0,11,2.34,15.45,15.45,0,0,0,2.42-30.81Z"/><path class="cls-7" d="M560.44,823.74l1.71,21-.89-21-.82.06,1.71,21-.89-21,.22,5.24-.11-5.24h-.11l.22,5.24-.11-5.24h-.08c-.8,0-6.83-.13-15.19-3.42a72.75,72.75,0,0,1-22.48-14.39,116,116,0,0,1-20-24.61c-10.18-16.39-20.3-39.78-27.86-73S463.25,632,463.26,576.91c0-56,5.12-124.39,17.62-207.54l-65.49-9.84C402.5,445.33,397,516.91,397,576.91c0,70,7.4,124.23,19.49,166.87,9.07,32,20.83,57.41,34.17,77.56A175.33,175.33,0,0,0,482.63,858,134.92,134.92,0,0,0,530,884.76a105.72,105.72,0,0,0,31.29,5.14c2.17,0,3.71-.1,4.54-.16Z"/><path class="cls-9" d="M587.13,798.12l6,22.31L587.65,798l-.52.13,6,22.31L587.65,798s-.48.12-1.38.29a86.57,86.57,0,0,1-16.43,1.53A75,75,0,0,1,553.19,798a51.94,51.94,0,0,1-11.52-4,42.07,42.07,0,0,1-7.57-4.79,46.93,46.93,0,0,1-10.6-12.09c-3.49-5.56-7-13.13-9.81-23.79L419.77,778.1A195.26,195.26,0,0,0,431,809.75a153.89,153.89,0,0,0,29.73,43.82,138.7,138.7,0,0,0,28.06,22.13,146.81,146.81,0,0,0,43.35,17.15,172,172,0,0,0,37.71,4.09,187.09,187.09,0,0,0,29.2-2.3,131.53,131.53,0,0,0,13.5-2.78Z"/><path class="cls-7" d="M442.67,393h0a52.36,52.36,0,0,0,59.9-43.53l5.58-35.21a68.16,68.16,0,0,0-56.67-78,36.56,36.56,0,0,0-41.83,30.4l-10.51,66.41A52.36,52.36,0,0,0,442.67,393Z"/><path class="cls-7" d="M481.64,374.47a49.84,49.84,0,0,0,9.07-1.77A70.88,70.88,0,0,0,504,367.41a78.76,78.76,0,0,0,23.92-19.29c7.82-9.27,14.78-21.63,19.45-37.54a15.45,15.45,0,1,0-29.64-8.72c-3.19,10.81-7.42,18.55-11.79,24.29a50.9,50.9,0,0,1-9.93,9.91,42.62,42.62,0,0,1-12.68,6.59,30.1,30.1,0,0,1-3.61.92l-.7.11h0l.78,6.83-.53-6.85-.25,0,.78,6.83-.53-6.85a15.45,15.45,0,0,0,2.41,30.81Z"/><path class="cls-13" d="M896.73,191.53c2.88-10.54,13.34-18.56,24.06-19,5.56-.23,11.26,1.12,15.17,5.19a10.44,10.44,0,0,1,2.8,5.48,12,12,0,0,1,.21,3.31c-.11,2.09.31-.93-.15,1.09-.07.3-.79,2.44-.49,1.77a6.15,6.15,0,0,1-3.84,3.76,4,4,0,0,1-2.77,0c.31.11.9.51-.15-.13-.64-.43-.7-.46-.16-.09a9.24,9.24,0,0,1-.87-.9c.81,1-.34-.69-.38-.77-.88-1.65.19,1-.31-.83,0-.09-.45-2.18-.27-.84a9.79,9.79,0,0,1-.07-1.33c0-.11.22-2.2,0-.89a12.5,12.5,0,0,1,.51-1.91c-.46,1.24.6-1,.62-1a8.51,8.51,0,0,1,1.43-1.76c7.88-7.9,23.29-6.92,32.77-2,12.25,6.36,18.79,20.25,15.41,33.11-2.17,8.25,10.6,11.76,12.77,3.52,4.82-18.32-3.92-38.22-20.38-47.46a47.58,47.58,0,0,0-26.57-6c-9,.7-18.74,3.68-24.69,10.9-5.57,6.79-7,16.69-2,24.28,6,9,17.89,9.66,25.89,2.83C952,196.12,953.69,186,951,177.9c-2.94-9-10.83-15.26-19.87-17.53-20-5-41.8,7.8-47.21,27.64C881.71,196.24,894.49,199.76,896.73,191.53Z"/><path class="cls-9" d="M785.8,226.66c12.77,2.28,26.32-.35,36.79-8.2a7.26,7.26,0,0,0,3-4,6.82,6.82,0,0,0-.67-5.1c-1.76-2.73-6.1-4.6-9.06-2.38a41.41,41.41,0,0,1-7,4.27l-.94.42c.79-.32.84-.35.15-.07l-1.44.55a39.06,39.06,0,0,1-4,1.17c-.67.17-1.34.31-2,.44l-1,.19c-.75.11-.68.11.23,0a12.29,12.29,0,0,1-3.59.29,37.73,37.73,0,0,1-4.12-.05,10.06,10.06,0,0,1-2.06-.18c1.74.5-.4-.08-.79-.15-3.39-.61-7.3.92-8.14,4.62C780.44,221.75,782.16,226,785.8,226.66Z"/><path class="cls-3" d="M622.59,203.41c-2.69,11.24,1.09,25.11,12.31,30.27,10.65,4.9,25.72,1.14,28.73-11.47,1.54-6.45-.57-13.61-6.56-17a17.45,17.45,0,0,0-17.68.65,21.42,21.42,0,0,0-9.73,14.41c-1,6.58,1.09,12.84,5.16,18,9.42,11.94,25.67,12.64,39.29,9a6.62,6.62,0,1,0-3.52-12.77A36.86,36.86,0,0,1,657.77,236a20.05,20.05,0,0,1-5-.94c-.59-.18-1.18-.38-1.76-.6-1-.39.8.41-.15-.09a26.5,26.5,0,0,1-2.73-1.58c-.13-.08-1.18-.87-.61-.42s-.44-.39-.55-.49a27.1,27.1,0,0,1-2-2c-.14-.17-.68-1-.11-.15-.23-.34-.46-.68-.68-1s-.39-.72-.61-1.07c-.88-1.43.2.91-.32-.68a24.57,24.57,0,0,1-.64-2.38c.26,1.25,0,0,0-.39s0-.82,0-1.23c0-1-.23,1,0-.05.11-.5.26-1,.37-1.48,0-.21.46-1.18,0-.13a11.71,11.71,0,0,1,.71-1.36,13.42,13.42,0,0,1,.84-1.28c-.22.3-.69.68.14-.07.31-.28,1.92-1.6.94-.94a11.68,11.68,0,0,1,2.06-1.18c-1.36.57,2.28-.14.63-.11,0,0,1.9,0,.91-.05s.47.12.67.17c1,.21-.67-.43.25,0,.34.17,1.5.53.45.23,1,.29-.46.61,0,0,.07-.09.62,1.58.06-.09.12.35.18.75.31,1.08-.43-1.1-.08-.1,0,.51,0,.35-.22,1.18.06,0-.09.37-.2.76-.27,1.13-.21,1.1-.14.4,0,.06-.18.35-.38.67-.57,1-.78,1.5.49-.44-.18.24l-.8.78c-.69.67.85-.5,0,0a14.48,14.48,0,0,0-1.44.82c-.65.49.85-.08,0,0a8.78,8.78,0,0,0-1.34.39c-.36.08-.73.16-1.1.21.3,0,1.3-.05.08-.06-.76,0-1.51,0-2.27,0,1.25,0,.43.08.07,0-.56-.14-1.12-.25-1.66-.42-.36-.12-.73-.24-1.08-.38,1.36.55-.3-.23-.46-.33-.33-.19-.63-.41-1-.61,1.15.71-.3-.29-.5-.49s-.58-.6-.86-.9c-1.15-1.21.35.81-.48-.63-.21-.36-.44-.7-.65-1.07,0-.06-.92-1.85-.41-.67a17.13,17.13,0,0,1-.94-3c-.1-.41-.18-.82-.26-1.24.19,1,0,0,0-.44a22.5,22.5,0,0,1,0-3.18c0-.32.22-1.68,0-.45.11-.62.25-1.24.39-1.86.81-3.36-1.05-7.33-4.62-8.14C627.34,198,623.46,199.81,622.59,203.41Z"/><path class="cls-14" d="M509,223.43a7.31,7.31,0,0,1,1.83.5l-1.59-.67a8.61,8.61,0,0,1,1.63,1l-1.34-1a9.17,9.17,0,0,1,1.53,1.52c-.34-.45-.69-.89-1-1.34a8.87,8.87,0,0,1,1.16,2c-.22-.53-.44-1.05-.67-1.58a7.74,7.74,0,0,1,.56,2.07c-.08-.59-.16-1.18-.23-1.76a7.88,7.88,0,0,1,0,1.88c.07-.58.15-1.17.23-1.76l-.09.5a7,7,0,0,0,.67,5.11,4.89,4.89,0,0,0,1.7,1.85,4.94,4.94,0,0,0,2.26,1.19,6.69,6.69,0,0,0,5.1-.67,6.58,6.58,0,0,0,3-3.95,14.83,14.83,0,0,0,0-6.66,16.9,16.9,0,0,0-1.14-3,9.16,9.16,0,0,0-.84-1.5,16.67,16.67,0,0,0-4.59-4.54,15.51,15.51,0,0,0-2.91-1.38,7.19,7.19,0,0,0-1.71-.45,7.45,7.45,0,0,0-5.1.66,5.1,5.1,0,0,0-1.86,1.71,5,5,0,0,0-1.18,2.25,6.67,6.67,0,0,0,.66,5.1c.35.45.69.9,1,1.34A6.62,6.62,0,0,0,509,223.43Z"/><path class="cls-9" d="M516.1,194.23a9.11,9.11,0,0,0,1.16.6,22.46,22.46,0,0,0,2.67,1.06,9.47,9.47,0,0,0,1.28.29,24.88,24.88,0,0,0,3,.35,17.57,17.57,0,0,0,4.21-.45,17.05,17.05,0,0,0,4-1.52,5.1,5.1,0,0,0,1.86-1.71,6.86,6.86,0,0,0,.52-7.35,6.72,6.72,0,0,0-4-3.05l-1.76-.23a6.51,6.51,0,0,0-3.34.9c-.23.12-.47.23-.7.33l1.58-.67a10.54,10.54,0,0,1-2.52.67l1.76-.24a10.44,10.44,0,0,1-2.62,0l1.76.24a10.44,10.44,0,0,1-2.52-.68l1.58.67a8.9,8.9,0,0,1-1.23-.63,6.85,6.85,0,0,0-5.11-.67,6.63,6.63,0,0,0-4.62,8.15A6.94,6.94,0,0,0,516.1,194.23Z"/><path class="cls-15" d="M714.24,94.42a16.59,16.59,0,0,0,10.15,3,17.2,17.2,0,0,0,5.21-.92A18.78,18.78,0,0,0,735.54,93a6.63,6.63,0,0,0,1.94-4.68,6.62,6.62,0,0,0-6.62-6.63l-1.76.24a6.69,6.69,0,0,0-2.92,1.7l-.45.36,1.35-1a11.1,11.1,0,0,1-2.14,1.23l1.58-.67a11.46,11.46,0,0,1-2.75.76l1.76-.24a12,12,0,0,1-3,0l1.76.23a11.4,11.4,0,0,1-2.75-.73l1.58.66A10.29,10.29,0,0,1,720.93,83a6.66,6.66,0,0,0-5.11-.67,6.73,6.73,0,0,0-4,3,6.65,6.65,0,0,0-.67,5.1l.67,1.59A6.73,6.73,0,0,0,714.24,94.42Z"/><path class="cls-9" d="M1052.12,266.18a14.56,14.56,0,0,0-6.43,8.47,16.23,16.23,0,0,0,.2,9.61c2.46,6.79,8.41,11.13,15.18,13.08a6.69,6.69,0,0,0,8.15-4.62,6.76,6.76,0,0,0-4.63-8.15,24.07,24.07,0,0,1-2.43-.84l1.59.67a19,19,0,0,1-4-2.25l1.34,1a14.54,14.54,0,0,1-2.59-2.55l1,1.34a12.14,12.14,0,0,1-1.38-2.36l.66,1.58a10.92,10.92,0,0,1-.66-2.38l.24,1.76a11.33,11.33,0,0,1,0-2.73l-.24,1.77a10.24,10.24,0,0,1,.63-2.37c-.23.53-.45,1.06-.67,1.59a8.92,8.92,0,0,1,1.08-1.87c-.35.45-.69.9-1,1.34a7.74,7.74,0,0,1,1.18-1.18l-1.34,1c.26-.19.52-.37.8-.54,3-1.78,4.33-6,2.38-9.06A6.73,6.73,0,0,0,1052.12,266.18Z"/><path class="cls-9" d="M917.27,296.5c.08-.23.17-.45.26-.67-.22.53-.45,1.06-.67,1.58a15.22,15.22,0,0,1,1.91-3.26l-1,1.33a17.8,17.8,0,0,1,2.84-2.85l-1.34,1a17.67,17.67,0,0,1,3.9-2.27l-1.59.66a17.07,17.07,0,0,1,3.88-1.07l-1.75.24a15.46,15.46,0,0,1,4,0,6.57,6.57,0,0,0,4.68-1.94,6.61,6.61,0,0,0,0-9.36l-1.34-1a6.54,6.54,0,0,0-3.34-.9,21.59,21.59,0,0,0-13.58,3.18,21.84,21.84,0,0,0-5.29,4.43A23.48,23.48,0,0,0,904.5,293a6.69,6.69,0,0,0,.66,5.1,6.78,6.78,0,0,0,4,3,6.67,6.67,0,0,0,5.1-.67A7.46,7.46,0,0,0,917.27,296.5Z"/><path class="cls-9" d="M888,325.55l0,.37c.08.69.16,1.39.28,2.07a5.56,5.56,0,0,0,.19.7c.13.38.3.75.46,1.11s.29.73.46,1.08a6.82,6.82,0,0,0,.39.64c.39.55.81,1.08,1.23,1.6l.22.26.53.49c.52.42,1.05.84,1.59,1.22l.32.21a17,17,0,0,0,2.2,1,5,5,0,0,0,2.64.12,4.87,4.87,0,0,0,2.46-.79,7.32,7.32,0,0,0,3-4l.24-1.77a6.57,6.57,0,0,0-.9-3.34c-.35-.44-.69-.89-1-1.34a6.6,6.6,0,0,0-2.92-1.7l-.06,0,1.58.66a4.58,4.58,0,0,1-1-.59l1.34,1a5.46,5.46,0,0,1-.93-.93c.35.45.7.89,1,1.34a5.08,5.08,0,0,1-.63-1.08l.66,1.58a5.07,5.07,0,0,1-.34-1.27c.08.59.16,1.18.23,1.76l0-.43a6.8,6.8,0,0,0-6.62-6.63l-1.76.24a6.67,6.67,0,0,0-2.93,1.7l-1,1.34A6.69,6.69,0,0,0,888,325.55Z"/><path class="cls-15" d="M938.34,339.26c1.16-.69,2.34-1.34,3.56-1.92.24-.11,1.77-.9.27-.14a15.34,15.34,0,0,1,1.89-.72,48,48,0,0,1,7.09-1.77c.5-.08.33,0-.51.06l1-.11c.67-.06,1.34-.11,2-.14,1.18,0,2.36-.06,3.54,0,.67,0,1.34.07,2,.14.43,0,1.95,0,.25,0a17.53,17.53,0,0,1,4,.81c3.35.85,7.34-1.09,8.14-4.63a6.73,6.73,0,0,0-4.62-8.14,46.66,46.66,0,0,0-35.28,5.13c-3,1.78-4.33,6-2.38,9.06A6.74,6.74,0,0,0,938.34,339.26Z"/><path class="cls-16" d="M1077.36,209.37c-2,11.87.3,25.4,11.68,31.85,10.08,5.71,24.38,1.48,27.49-10.4,1.79-6.87-1.67-13.85-8.68-15.73a25.12,25.12,0,0,0-17.14,1.86c-10.49,5.5-11.83,20.22-7.9,30.21,4.85,12.31,17.18,20.54,30.54,19.49,3.57-.28,6.62-2.85,6.62-6.62,0-3.37-3-6.91-6.62-6.63-6.08.48-11.75-1.54-15.53-6.16a18.14,18.14,0,0,1-3.55-7.94,5.71,5.71,0,0,1-.2-1.61c0-.89,0-1.76,0-2.65a3.06,3.06,0,0,1,.12-1.24,16.54,16.54,0,0,1,.76-2.84c-.22.56.45-.85.58-1.05.32-.5.4-.65.7-.85-.2.13,1.58-.85.94-.58a11.55,11.55,0,0,1,2.52-.66,15.06,15.06,0,0,1,1.62-.11c.72,0,1.43,0,2.15,0,1.31,0,.56.05.23,0a8.52,8.52,0,0,0,1,.23c.75.06,0,.13-.11,0l-.61-.6-.16-.33c.09.07-.18,1.18,0,.54.18-.79-.45.93-.09.24s-.22.4-.23.41a5.56,5.56,0,0,1-1.89,1.81s-1,.51-.44.26-.67.22-.81.26c-.32.09-.65.18-1,.24.17,0,.84-.06.08-.05-.14,0-1.53,0-.84,0s-.49-.09-.51-.1c-.34-.08-.67-.16-1-.27-.18-.05-1.41-.62-.68-.24a10.87,10.87,0,0,1-5.3-5.68c-1.55-3.57-1.52-7.9-.91-11.55s-.92-7.13-4.62-8.15C1082.34,203.87,1078,205.82,1077.36,209.37Z"/><path class="cls-14" d="M1118.8,350.64c-.72,1.69.21-.24.4-.56s.34-.54.52-.8c.42-.59.37-.52-.17.2.11-.43,1-1.08,1.31-1.39s.47-.43.71-.63q.84-.69-.21.15c.24-.4,1.22-.8,1.62-1s2.14-1.33.59-.37c.56-.34,3.07-1.32,3.68-1-1,.12-1.08.13-.33,0l.95,0c.64,0,1.27,0,1.91,0s.63.06-.35,0c.32.06.63.12.94.2a14.27,14.27,0,0,1,1.82.58c-1.47-.57.61.43.89.58.61.42.61.41,0,0a9.45,9.45,0,0,1,.79.76c.49.56.48.54,0-.05.36.68.38.62,0-.18a7.12,7.12,0,0,1,.29,1c-.07-.83-.1-1-.07-.49a5,5,0,0,1,0,.77c.15-.91.14-1,0-.26q.57-1.18,0-.21a2.39,2.39,0,0,1,1.1-1c-.63.36-.5.34.37,0a5.31,5.31,0,0,1-.87.23,2.54,2.54,0,0,1,1.74,0c-.7-.19-.58-.12.34.23a2.56,2.56,0,0,1,1,1.08c-.36-.64-.36-.58,0,.2a7.13,7.13,0,0,1-.26-1c.1.91.12,1,.06.16,0-.37.3-2.62,0-1,.16-.73.36-1.43.57-2.15s.27-.7,0,0c.17-.34.34-.67.53-1s.39-.64.6-.95c-.48.59-.48.59,0,0a21.4,21.4,0,0,1,1.59-1.57c-1,.9.79-.47,1-.62s.68-.37,1-.54c-.7.27-.68.27,0,0s1.5-.41,2.25-.63.76-.15,0-.05c.39,0,.78-.08,1.16-.1a22.8,22.8,0,0,1,2.34,0,6.65,6.65,0,0,0,6.62-6.62,6.77,6.77,0,0,0-6.62-6.62c-8.48-.5-17.11,3.53-21.45,11s-4.45,20.47,5.75,22.91a11.82,11.82,0,0,0,12.62-5.25,13.68,13.68,0,0,0,0-13.54c-4.2-7.47-13.38-9.85-21.32-8.64-8.38,1.27-15,7.17-18.18,14.8-1.35,3.2,1.44,7.42,4.62,8.14C1114.53,356.14,1117.35,354.07,1118.8,350.64Z"/><path class="cls-3" d="M1091.35,433.4c.23-.23,1.11-.79,1.21-1.09,0,.11-1.32.95-.57.45l.68-.45q.61-.39,1.26-.72l.73-.35c.71-.34-1.56.58-.54.24a22.58,22.58,0,0,1,3-.82c.51-.09,1.43-.11-.63.06.22,0,.43-.05.65-.06.54-.05,1.08-.08,1.63-.08s1,0,1.46.06a5.84,5.84,0,0,0,.81.08c-.11,0-1.69-.27-.79-.09a20.44,20.44,0,0,1,3,.79c1,.38-.24-.19-.53-.24a3,3,0,0,1,.73.34c.43.22.86.45,1.27.7s1.8,1.51.25.09c.4.36.82.7,1.21,1.09,2.47,2.43,6.93,2.65,9.36,0a6.73,6.73,0,0,0,0-9.37c-9-8.85-24.49-8.85-33.51,0a6.63,6.63,0,0,0,9.37,9.37Z"/><path class="cls-9" d="M987.59,420.64a7.11,7.11,0,0,1,.81-.74l-1.34,1a7,7,0,0,1,1.35-.78l-1.58.66a7.66,7.66,0,0,1,1.82-.49l-1.76.24a7.15,7.15,0,0,1,1.73,0l-1.76-.24a6.65,6.65,0,0,1,1.51.42l-1.58-.67a6.58,6.58,0,0,1,1.35.8l-1.34-1a6.92,6.92,0,0,1,1.11,1.12l-1-1.34a7.61,7.61,0,0,1,.88,1.48c-.22-.52-.44-1.05-.67-1.58a7,7,0,0,1,.47,1.66l-.24-1.76a6.35,6.35,0,0,1,0,1.57,5,5,0,0,0,.58,2.55,4.93,4.93,0,0,0,1.36,2.13,6.63,6.63,0,0,0,9.37,0l1-1.34a6.62,6.62,0,0,0,.91-3.34,12.56,12.56,0,0,0-1.75-7.27,12.43,12.43,0,0,0-5.29-5,15.1,15.1,0,0,0-2.39-1,16.34,16.34,0,0,0-2.69-.41,12.79,12.79,0,0,0-3.8.32,6.7,6.7,0,0,0-1.06.3,18.12,18.12,0,0,0-2.44,1.05,11.92,11.92,0,0,0-2.94,2.3,6.92,6.92,0,0,0-1.94,4.68,6.74,6.74,0,0,0,1.94,4.68,6.65,6.65,0,0,0,4.68,1.94A6.72,6.72,0,0,0,987.59,420.64Z"/><path class="cls-17" d="M1216.83,282.56a11.11,11.11,0,0,1,.58-1.8c-.22.52-.45,1.05-.67,1.58a11.59,11.59,0,0,1,1.44-2.45c-.35.45-.69.9-1,1.34a12,12,0,0,1,2-2l-1.35,1a11.59,11.59,0,0,1,2.45-1.44l-1.59.67a11.38,11.38,0,0,1,1.46-.49,5,5,0,0,0,2.26-1.19,4.89,4.89,0,0,0,1.7-1.85,5,5,0,0,0,.79-2.47,5.15,5.15,0,0,0-.12-2.64,6.67,6.67,0,0,0-3-4,7,7,0,0,0-5.11-.67,17.3,17.3,0,0,0-4.31,1.79,23.76,23.76,0,0,0-2.51,1.84,11,11,0,0,0-1.19,1.07,17.43,17.43,0,0,0-2.79,3.71,17,17,0,0,0-1.74,4.4,7,7,0,0,0,.67,5.1,5.1,5.1,0,0,0,1.71,1.86,5,5,0,0,0,2.25,1.18,6.61,6.61,0,0,0,8.14-4.62Z"/><path class="cls-9" d="M1059,88.77a12.08,12.08,0,0,1,5-7.94,22.88,22.88,0,0,1,10.7-4.31c3.76-.58,8-.38,11.44,1.46a8.85,8.85,0,0,1,2,1.45,12.93,12.93,0,0,1,.9,1.06s.19,1.08.16.64.23-.7-.08-.15c-.19.33-.09.37-.78.9a5.35,5.35,0,0,1-3,1c-1.79-.13-2-.43-2.66-1.6-1.53-2.59-1.52-6-.73-9.1,1.77-6.91,7.86-13.14,14.6-15.58,10.43-3.75,22.06-1.57,32,2.78,3.27,1.44,7.11,1,9.06-2.38,1.65-2.81.92-7.61-2.37-9.06-13.54-6-29.43-9.28-43.65-3.53-12.43,5-22.14,16.2-23.26,29.83-.53,6.47,1.5,13.81,6.61,18.1,5.89,5,14.77,4.89,20.94.44s8.62-12.7,4.3-19.5-12.22-9.63-19.76-10.16c-14-1-31.31,7.19-34.12,22.15-.66,3.51,1,7.14,4.62,8.15C1054.08,94.28,1058.34,92.3,1059,88.77Z"/><path class="cls-18" d="M220.84,1049.67h933.68a3.31,3.31,0,1,0,0-6.62H220.84a3.31,3.31,0,1,0,0,6.62"/><path class="cls-18" d="M1341,1043.05h-95.43a3.31,3.31,0,1,0,0,6.62H1341a3.31,3.31,0,0,0,0-6.62"/></svg>