<?xml version="1.0" encoding="UTF-8" standalone="no"?>
<svg
   xmlns:dc="http://purl.org/dc/elements/1.1/"
   xmlns:cc="http://creativecommons.org/ns#"
   xmlns:rdf="http://www.w3.org/1999/02/22-rdf-syntax-ns#"
   xmlns:svg="http://www.w3.org/2000/svg"
   xmlns="http://www.w3.org/2000/svg"
   xmlns:sodipodi="http://sodipodi.sourceforge.net/DTD/sodipodi-0.dtd"
   xmlns:inkscape="http://www.inkscape.org/namespaces/inkscape"
   id="Layer_1"
   data-name="Layer 1"
   viewBox="0 0 762.72998 133.71"
   version="1.1"
   sodipodi:docname="thank-you-phone-button.svg"
   inkscape:version="1.0.1 (0767f8302a, 2020-10-17)">
  <metadata
     id="metadata2335">
    <rdf:RDF>
      <cc:Work
         rdf:about="">
        <dc:format>image/svg+xml</dc:format>
        <dc:type
           rdf:resource="http://purl.org/dc/dcmitype/StillImage" />
        <dc:title>Thankyou</dc:title>
      </cc:Work>
    </rdf:RDF>
  </metadata>
  <sodipodi:namedview
     pagecolor="#ffffff"
     bordercolor="#666666"
     borderopacity="1"
     objecttolerance="10"
     gridtolerance="10"
     guidetolerance="10"
     inkscape:pageopacity="0"
     inkscape:pageshadow="2"
     inkscape:window-width="1920"
     inkscape:window-height="1015"
     id="namedview2333"
     showgrid="false"
     inkscape:zoom="1.7330176"
     inkscape:cx="386.33"
     inkscape:cy="64.634999"
     inkscape:window-x="0"
     inkscape:window-y="36"
     inkscape:window-maximized="1"
     inkscape:current-layer="Layer_1" />
  <defs
     id="defs2318">
    <style
       id="style2316">.cls-1{fill:#fe4c00;}.cls-2{font-size:72.88px;font-family:Somatic-Rounded, Somatic;}.cls-2,.cls-3{fill:#fff;}</style>
  </defs>
  <title
     id="title2320">Thankyou</title>
  <rect
     class="cls-1"
     x="0"
     y="0"
     width="762.72998"
     height="133.71001"
     rx="37.459999"
     id="rect2322" />
  <text
     class="cls-2"
     id="text2324"
     x="218.12"
     y="91.120003">Phone booking</text>
  <path
     class="cls-3"
     d="m 128.89,83.759999 -1.35,-1.82 -7.34,5.41 a 3.59,3.59 0 0 1 -2.17,0.69 3.37,3.37 0 0 1 -2.11,-0.76 92.57,92.57 0 0 1 -16.570001,-17.16 84.6,84.6 0 0 1 -11,-20 3.56,3.56 0 0 1 1.19,-4.15 l 7.39,-5.46 a 6.89,6.89 0 0 0 1.46,-9.64 l -13.24,-18 a 6.89,6.89 0 0 0 -9.61,-1.46 l -11,8.09 a 22.07,22.07 0 0 0 -7.26,26.32 189.38,189.38 0 0 0 22.06,38.79 A 199.37,199.37 0 0 0 110.69,118.07 a 22.08,22.08 0 0 0 27.39,0.94 l 10.87,-8 a 6.9,6.9 0 0 0 1.45,-9.64 L 137.17,83.369999 a 6.94,6.94 0 0 0 -4.52,-2.72 6.87,6.87 0 0 0 -5.13,1.27 l 1.35,1.82 1.35,1.83 a 2.36,2.36 0 0 1 3.29,0.5 L 146.75,104.07 a 2.37,2.37 0 0 1 -0.5,3.3 l -10.87,8 a 17.51,17.51 0 0 1 -21.74,-0.76 194.18,194.18 0 0 1 -30.640001,-32.690001 184.72,184.72 0 0 1 -21.51,-37.87 17.51,17.51 0 0 1 5.76,-20.84 l 11,-8.1 a 2.37,2.37 0 0 1 3.3,0.5 l 13.21,17.9 a 2.36,2.36 0 0 1 -0.49,3.3 l -7.4,5.45 a 8.11,8.11 0 0 0 -2.73,9.45 89.89,89.89 0 0 0 11.55,21.11 97.54,97.54 0 0 0 17.380001,18 7.92,7.92 0 0 0 4.89,1.76 8.08,8.08 0 0 0 4.94,-1.58 l 7.34,-5.41 z"
     id="path2326" />
  <path
     class="cls-3"
     d="m 111.34,36.289999 a 30.79,30.79 0 0 1 24.21,32.51 2.27,2.27 0 1 0 4.53,0.24 35.29,35.29 0 0 0 -27.67,-37.16 2.27,2.27 0 1 0 -1.07,4.41 z"
     id="path2328" />
  <path
     class="cls-3"
     d="m 109.17,19.299999 a 49,49 0 0 1 42.47,55.91 2.2706001,2.2706001 0 1 0 4.49,0.68 53.52,53.52 0 0 0 -46.41,-61.13 2.2717064,2.2717064 0 0 0 -0.55,4.51 z"
     id="path2330" />
</svg>
