<svg xmlns="http://www.w3.org/2000/svg" viewBox="0 0 129.68 112.06">
  <defs>
    <style>
      .cls-1 {
        fill: #fafafa;
        stroke: #3882bb;
        stroke-linecap: round;
        stroke-linejoin: round;
      }
    </style>
  </defs>
  <g id="Layer_2" data-name="Layer 2">
    <g id="Layer_1-2" data-name="Layer 1">
      <g>
        <path class="cls-1" d="M9.37,2.28A16.24,16.24,0,0,0,.5,16.76h0A16.88,16.88,0,0,0,17.38,33.64H34.76"/>
        <path class="cls-1" d="M34.76,33.64H83.29V.5H16.76A16.09,16.09,0,0,0,9.37,2.28"/>
        <path class="cls-1" d="M23.4,20.18l-.08.26C23.32,4.83,15.9.5,15.9.5H86.44a22.15,22.15,0,0,1,22.15,22.14v88.49H35.82A12.43,12.43,0,0,1,23.4,98.7Z"/>
        <path class="cls-1" d="M11,30.73s6.32-5.65.91-16h10.9"/>
        <path class="cls-1" d="M82.81,84.52H43.07v.06c7.35.16,9.64,9.48,9.56,13.54A13.69,13.69,0,0,1,40.8,111.56h74.93a13.51,13.51,0,0,0,0-27H82.81"/>
        <path class="cls-1" d="M43.07,84.52S29.55,83.3,29.1,97.6s16.74,10.64,17.18.56h6.35"/>
        <line class="cls-1" x1="34.98" y1="61.02" x2="91.51" y2="61.02"/>
        <line class="cls-1" x1="34.98" y1="70.11" x2="86.8" y2="70.11"/>
        <rect class="cls-1" x="35.53" y="17.13" width="60.51" height="33.25"/>
        <g>
          <circle class="cls-1" cx="66.88" cy="33.91" r="8.99"/>
          <path class="cls-1" d="M64.48,38.68,72,33.54l-7.4-5a.45.45,0,0,0-.7.37l0,9.47A.37.37,0,0,0,64.48,38.68Z"/>
        </g>
      </g>
    </g>
  </g>
</svg>
