<svg xmlns="http://www.w3.org/2000/svg" width="181.36" height="131.31" viewBox="0 0 181.36 131.31">
  <defs>
    <style>
      .cls-1 {
        fill: #fafafa;
        stroke-linecap: round;
        stroke-linejoin: round;
      }

      .cls-1, .cls-2 {
        stroke: #3882bb;
      }

      .cls-2 {
        isolation: isolate;
        font-size: 27.81px;
        fill: #3882bb;
        stroke-miterlimit: 10;
        font-family: Montserrat-Bold, Montserrat;
        font-weight: 700;
      }
    </style>
  </defs>
  <g id="Layer_2" data-name="Layer 2">
    <g id="Layer_1-2" data-name="Layer 1">
      <g id="Layer_2-2" data-name="Layer 2">
        <g id="Layer_1-2-2" data-name="Layer 1-2">
          <g id="g15">
            <rect id="rect6" class="cls-1" x="0.5" y="0.5" width="180.36" height="60.26" rx="27.69"/>
            <text id="text8" class="cls-2" transform="translate(28.7 41.85)">BOOK</text>
            <g id="a7eUH5.tif">
              <path id="path10" class="cls-1" d="M66.08,111.91c-3.42-6.54-6.85-13.11-10.27-19.63Q53,86.82,50.15,81.38c-.19-.36-.35-.72-.52-1.06,4-4.09,9-4.73,12.91-1.54a20.78,20.78,0,0,1,2.92,3c1.49,1.71,2.93,3.52,4.37,5.3.59.74,1.25,1.29,2.25.91s1.15-1.08,1.15-2.09V44.33a10.15,10.15,0,0,1,.4-2.95,5.61,5.61,0,0,1,6.12-4.09,6,6,0,0,1,5,5.34V78.91c0,1.71.59,2.67,1.72,2.66s1.71-.86,1.71-2.71V66.23a5.72,5.72,0,0,1,5.69-5.74,5.63,5.63,0,0,1,1.73.27,6,6,0,0,1,4.21,5.63V77.58q0,.49,0,1a1.72,1.72,0,0,0,3.43,0c0-.3,0-.59,0-.89V69.12a5.64,5.64,0,1,1,11.27-.62,3.21,3.21,0,0,1,0,.62v8.56c0,1.42.67,2.23,1.72,2.19s1.71-.8,1.71-2.15c0-1.72,0-3.43.1-5.14a5.83,5.83,0,0,1,6.35-5.24,6.29,6.29,0,0,1,1.13.23,6,6,0,0,1,4,5.13q0,.72,0,1.44v36.18a20.55,20.55,0,0,1-7.14,16.15,17.13,17.13,0,0,1-11.55,4.33H87.45A17.76,17.76,0,0,1,71,121.15q-2.48-4.58-4.89-9.17"/>
            </g>
            <polyline id="polyline13" class="cls-1" points="122.26 34.35 133.74 44.26 158.57 13.71"/>
          </g>
        </g>
      </g>
    </g>
  </g>
</svg>
