<svg id="Layer_1" data-name="Layer 1" xmlns="http://www.w3.org/2000/svg" viewBox="0 0 1024 1024">
  <defs>
    <style>
      .cls-1, .cls-3 {
        fill: #fafafa;
        stroke: #3882bb;
        stroke-linecap: round;
        stroke-width: 5px;
      }

      .cls-1 {
        stroke-miterlimit: 10;
      }

      .cls-2 {
        fill: #3882bb;
      }

      .cls-3 {
        stroke-linejoin: round;
      }
    </style>
  </defs>
  <title>Homepage_icons</title>
  <g>
    <rect class="cls-1" x="66.45" y="239.59" width="892.55" height="298.2" rx="44.45"/>
    <g>
      <path class="cls-2" d="M286.56,403a23.66,23.66,0,0,1,5.1,14.94q0,12.11-8.47,19.2t-23.6,7.09h-45V347.56h43.49q14.73,0,23.06,6.75t8.32,18.3q0,8.53-4.47,14.18a23.15,23.15,0,0,1-11.9,7.84A22.5,22.5,0,0,1,286.56,403Zm-48.44-16.3h15.41q5.78,0,8.88-2.55t3.09-7.5c0-3.3-1-5.83-3.09-7.57s-5-2.61-8.88-2.61H238.12Zm26.49,35.85c2.16-1.79,3.23-4.38,3.23-7.78a10,10,0,0,0-3.37-8q-3.37-2.89-9.28-2.89H238.12v21.33h17.34Q261.37,425.18,264.61,422.5Z"/>
      <path class="cls-2" d="M326,438.81a47.29,47.29,0,0,1-18-17.69,52.06,52.06,0,0,1,0-51,47.44,47.44,0,0,1,18-17.61,52.36,52.36,0,0,1,49.95,0,46.36,46.36,0,0,1,17.89,17.61,52.75,52.75,0,0,1-.06,51,47,47,0,0,1-17.89,17.69,52.32,52.32,0,0,1-49.89,0ZM369.48,416q6.94-7.69,7-20.37t-7-20.44q-6.94-7.63-18.51-7.63t-18.64,7.57q-7,7.56-7,20.5t7,20.44q6.94,7.64,18.64,7.64T369.48,416Z"/>
      <path class="cls-2" d="M434.17,438.81a47.26,47.26,0,0,1-18-17.69,52,52,0,0,1,0-51,47.41,47.41,0,0,1,18-17.61,52.38,52.38,0,0,1,50,0A46.49,46.49,0,0,1,502,370.13a52.72,52.72,0,0,1-.07,51,47,47,0,0,1-17.89,17.69,52.32,52.32,0,0,1-49.89,0ZM477.65,416q7-7.69,7-20.37t-7-20.44q-6.94-7.63-18.5-7.63t-18.65,7.57q-7,7.56-6.95,20.5T440.5,416q6.94,7.64,18.65,7.64Q470.7,423.67,477.65,416Z"/>
      <path class="cls-2" d="M577.64,444.18l-32.47-42.67v42.67H521.63V347.56h23.54V390l32.2-42.39H605L567.6,394.9l38.81,49.28Z"/>
    </g>
    <g id="a7eUH5.tif">
      <path class="cls-3" d="M391,790.89c-16.94-32.3-33.48-64.82-50.33-97.17q-14-26.94-28.06-53.89c-.91-1.75-1.73-3.55-2.55-5.22,19.74-20.31,44.6-23.44,63.87-7.7,5.31,4.34,9.6,10,14.08,15.25,7.32,8.64,14.45,17.44,21.56,26.25,3,3.66,6.15,6.39,11.2,4.55s5.61-6,5.61-10.71c0-81.12.05-124.65.21-205.78a49.77,49.77,0,0,1,1.92-14.55c4.25-13.69,16.68-21.65,30.18-20,12.57,1.53,23.3,13.05,24.53,26.48.28,3.09.26,6.21.26,9.31,0,69.25,0,100.9,0,170.15,0,9,2.85,13.24,8.72,13.16s8.46-4.19,8.47-13.36c0-20.83-.2-41.67.09-62.49.27-19.52,18.56-32.79,36.78-27.08,11.61,3.63,20,14.85,20.2,27.82.25,18.45.09,36.91.11,55.36,0,1.65-.08,3.3.06,4.93.48,5.41,3.87,8.65,8.8,8.53,4.67-.12,7.84-3.31,8.32-8.47.14-1.45.06-2.92.06-4.38,0-14.25-.15-28.51.08-42.75.27-16.86,12.7-30.06,27.9-30.06s27.64,13.28,28,30.1c.27,14.06,0,28.13.09,42.2,0,7,3.23,11,8.69,10.88,5.18-.12,8.27-4,8.39-10.73.15-8.58-.3-17.21.46-25.74a28.82,28.82,0,0,1,37-24.8c10.59,3.27,18.88,13.63,20,25.12.23,2.36.29,4.74.29,7.11,0,59.93,0,133.86,0,193.79,0,31.89-8.65,56.41-32.83,77.48a85,85,0,0,1-57.17,21.47q-58.35.14-116.69,0c-36.55-.08-64.25-16.55-81.5-48.14-8.22-15.06-20.21-38.3-26.76-56.91"/>
    </g>
    <polyline class="cls-1" points="668.97 407.07 725.83 456.09 848.71 304.95"/>
  </g>
</svg>
