<svg id="Layer_1" data-name="Layer 1" xmlns="http://www.w3.org/2000/svg" viewBox="0 0 1024 1024">
  <defs>
    <style>
      .cls-1 {
        fill: #fafafa;
      }

      .cls-1, .cls-2 {
        stroke: #3882bb;
        stroke-linecap: round;
        stroke-linejoin: round;
        stroke-width: 5px;
      }

      .cls-2 {
        fill: none;
      }
    </style>
  </defs>
  <title>Homepage_icons</title>
  <g>
    <path class="cls-1" d="M124.67,139.51A113,113,0,0,0,63.06,240.19h0A117.33,117.33,0,0,0,180.39,357.52H301.14"/>
    <path class="cls-1" d="M301.14,357.52H638.46V127.17H176.08a112.56,112.56,0,0,0-51.41,12.34"/>
    <path class="cls-1" d="M221.68,265.77c0-108.52-51.57-138.6-51.57-138.6H660.34A153.89,153.89,0,0,1,814.23,281.06V896H308.54a86.36,86.36,0,0,1-86.36-86.36Z"/>
    <path class="cls-1" d="M130.25,344.73s49.55-46.73,12-118.37h75.69"/>
    <path class="cls-1" d="M635.09,707.86H358.91v.36c51,1.16,67,65.89,66.42,94.14-1,47.94-35.84,87.45-82.18,93.38H863.91v0a93.92,93.92,0,0,0,0-187.83v0H635.09"/>
    <path class="cls-2" d="M358.91,707.86s-94-8.47-97.06,90.91,116.32,74,119.4,3.85h44.08"/>
    <line class="cls-1" x1="302.68" y1="547.8" x2="695.56" y2="547.8"/>
    <line class="cls-1" x1="302.68" y1="610.97" x2="662.82" y2="610.97"/>
    <rect class="cls-1" x="306.53" y="242.73" width="420.51" height="231.11"/>
    <g>
      <circle class="cls-1" cx="524.38" cy="359.32" r="62.48"/>
      <path class="cls-1" d="M507.67,392.53l52.48-35.72L508.78,322a3.14,3.14,0,0,0-4.89,2.58l-.31,65.82A2.61,2.61,0,0,0,507.67,392.53Z"/>
    </g>
  </g>
</svg>
