<svg xmlns="http://www.w3.org/2000/svg" width="204.21" height="221.44" viewBox="0 0 204.21 221.44">
  <defs>
    <style>
      .cls-1 {
        fill: #fafafa;
      }

      .cls-1, .cls-2 {
        stroke: #3882bb;
        stroke-linecap: round;
        stroke-linejoin: round;
      }

      .cls-2 {
        fill: none;
      }
    </style>
  </defs>
  <g id="Layer_2" data-name="Layer 2">
    <g id="Layer_1-2" data-name="Layer 1">
      <g id="Layer_2-2" data-name="Layer 2">
        <g id="Layer_1-2-2" data-name="Layer 1-2">
          <g>
            <path class="cls-1" d="M156.1,164.87v44.89a11.2,11.2,0,0,1-11.2,11.18H61.18A11.2,11.2,0,0,1,50,209.76V47.13a11.2,11.2,0,0,1,11.2-11.19H144.9a11.19,11.19,0,0,1,11.2,11.19V164.87"/>
            <line class="cls-2" x1="50" y1="197.51" x2="155.79" y2="197.51"/>
            <path class="cls-1" d="M87.75,205.83h28.58a3,3,0,0,1,3,3h0a3.05,3.05,0,0,1-3,3.06H87.75a3.06,3.06,0,0,1-3.06-3.06h0A3.05,3.05,0,0,1,87.75,205.83Z"/>
            <g>
              <path class="cls-1" d="M203.71,97.09v-21a5.26,5.26,0,0,0-5.25-5.26H114.58a5.26,5.26,0,0,0-5.24,5.26V128.8a5.24,5.24,0,0,0,5.24,5.2h28.48l-5.83,13.93a.79.79,0,0,0,.45,1,.8.8,0,0,0,.75-.09L158.49,134h40a5.25,5.25,0,0,0,5.25-5.25V97.09"/>
              <polyline class="cls-1" points="109.17 123.61 137.28 102.07 184.66 132.44"/>
              <polyline class="cls-1" points="160.18 117.04 185.34 91.41 201.89 102.98"/>
              <circle class="cls-1" cx="154.34" cy="93.17" r="6.29"/>
            </g>
            <g>
              <path class="cls-1" d="M9.4,26.79v-21A5.24,5.24,0,0,1,14.63.5H98.48a5.26,5.26,0,0,1,5.26,5.24V58.51a5.26,5.26,0,0,1-5.26,5.24H70l5.86,13.9a.79.79,0,0,1-.45,1,.78.78,0,0,1-.75-.09L54.71,63.75h-40A5.24,5.24,0,0,1,9.4,58.54V26.79"/>
              <circle class="cls-1" cx="54.08" cy="32.01" r="19.27"/>
              <path class="cls-1" d="M48.93,42.26l16.18-11L49.27,20.48a1,1,0,0,0-1.33.23.91.91,0,0,0-.17.57l-.1,20.3a.8.8,0,0,0,.8.82A.78.78,0,0,0,48.93,42.26Z"/>
            </g>
            <g>
              <path class="cls-1" d="M.5,143.59v-21a5.25,5.25,0,0,1,5.24-5.25H89.56a5.25,5.25,0,0,1,5.25,5.25v40.56a5.26,5.26,0,0,1-5.25,5.26H61.08l5.86,13.89a.79.79,0,0,1-.41,1,.8.8,0,0,1-.79-.09l-20-14.84h-40A5.26,5.26,0,0,1,.5,163.12V131.39"/>
              <line class="cls-2" x1="12.07" y1="131.47" x2="82.94" y2="131.47"/>
              <line class="cls-2" x1="12.07" y1="143.25" x2="82.94" y2="143.25"/>
              <line class="cls-2" x1="12.07" y1="155.5" x2="62.41" y2="155.5"/>
            </g>
          </g>
        </g>
      </g>
    </g>
  </g>
</svg>
