<svg xmlns="http://www.w3.org/2000/svg"  viewBox="0 0 191.33 165.85">
  <defs>
    <style>
      .cls-1 {
        fill: #fafafa;
      }

      .cls-1, .cls-2 {
        stroke: #3882bb;
        stroke-linecap: round;
        stroke-linejoin: round;
      }

      .cls-2 {
        fill: none;
      }
    </style>
  </defs>
  <g id="Layer_2" data-name="Layer 2">
    <g id="Layer_1-2" data-name="Layer 1">
      <g id="Layer_2-2" data-name="Layer 2">
        <g id="Layer_1-2-2" data-name="Layer 1-2">
          <g>
            <path class="cls-1" d="M13.67,3.14A24.11,24.11,0,0,0,.5,24.64h0a25.06,25.06,0,0,0,25.06,25H51.35"/>
            <path class="cls-1" d="M51.35,49.69h72V.5H24.64a23.89,23.89,0,0,0-11,2.64"/>
            <path class="cls-1" d="M34.49,29.71l-.12.39c0-23.17-11-29.6-11-29.6H128.07A32.88,32.88,0,0,1,161,33.36V164.72h-108a18.46,18.46,0,0,1-18.44-18.46Z"/>
            <path class="cls-1" d="M16.09,45.37S25.47,37,17.44,21.62H33.62"/>
            <path class="cls-1" d="M122.68,125.22h-59v.09c10.91.23,14.31,14.07,14.19,20.09a20.32,20.32,0,0,1-17.56,19.95H171.54a20,20,0,0,0,0-40.07H122.68"/>
            <path class="cls-1" d="M63.69,125.22S43.62,123.41,43,144.63s24.85,15.8,25.5.83h9.43"/>
            <line class="cls-2" x1="51.68" y1="90.33" x2="135.59" y2="90.33"/>
            <line class="cls-2" x1="51.68" y1="103.83" x2="128.6" y2="103.83"/>
            <rect class="cls-1" x="52.5" y="25.19" width="89.82" height="49.36"/>
            <g>
              <circle class="cls-1" cx="99.03" cy="50.09" r="13.34"/>
              <path class="cls-1" d="M95.47,57.17l11.16-7.63-11-7.42a.68.68,0,0,0-.93.19.64.64,0,0,0-.11.36V56.73a.55.55,0,0,0,.55.54A.5.5,0,0,0,95.47,57.17Z"/>
            </g>
          </g>
        </g>
      </g>
    </g>
  </g>
</svg>
