<svg id="Layer_1" data-name="Layer 1" xmlns="http://www.w3.org/2000/svg" viewBox="0 0 1024 1024">
  <defs>
    <style>
      .cls-1 {
        fill: #fafafa;
        stroke: #3882bb;
        stroke-linecap: round;
        stroke-linejoin: round;
        stroke-width: 5px;
      }

      .cls-2 {
        fill: #3882bb;
      }
    </style>
  </defs>
  <title>Homepage_icons</title>
  <g>
    <rect class="cls-1" x="63.55" y="421.1" width="896.45" height="309.31" rx="37.76"/>
    <g id="WiHiG5.tif">
      <path class="cls-1" d="M397.42,311.51c6.72-19.72,20.1-32.91,40.53-38.36,3.15-.84,6.44-1.2,9.67-1.78h9c3.14.64,6.32,1.1,9.4,2,12.83,3.59,22.75,11.37,30.65,21.87,2.39,3.17,4.5,6.56,6.76,9.88,2.26-3.32,4.36-6.71,6.76-9.88,8.78-11.61,19.88-19.8,34.4-22.79,1.87-.39,3.76-.69,5.65-1h9c4.6,1,9.36,1.44,13.76,3,20.57,7.18,32.72,22.09,38.15,42.8,1.07,4.11,1.48,8.4,2.2,12.61v9a13.47,13.47,0,0,0-.31,1.66c-1,12.94-5.72,24.53-12.76,35.27a157.37,157.37,0,0,1-27.22,31.08c-21.26,18.94-42.84,37.52-64.3,56.22-3.79,3.3-6.87,3.28-10.67,0-18.41-15.9-36.9-31.7-55.17-47.76-13.51-11.87-26.37-24.41-36.34-39.54-13.14-19.94-17-41.38-9.18-64.2"/>
    </g>
    <g>
      <path class="cls-2" d="M181.23,504.18V511h-13.5v43.92h-8.31V511H145.84v-6.79Z"/>
      <path class="cls-2" d="M202.79,515.75A14.28,14.28,0,0,1,210,514v8.61h-2.12q-4.89,0-7.4,2.48t-2.52,8.61v21.16h-8.32v-40.2h8.32v5.84A12.93,12.93,0,0,1,202.79,515.75Z"/>
      <path class="cls-2" d="M253.82,514.69l-24.66,59.1h-8.61l8.18-19.56-15.84-39.54h9.27l11.31,30.64,11.75-30.64Z"/>
      <path class="cls-2" d="M278.81,523.88A18.34,18.34,0,0,1,295.27,514a17.56,17.56,0,0,1,8.28,1.86,16.86,16.86,0,0,1,5.65,4.64v-5.84h8.39v40.2H309.2v-6a16.54,16.54,0,0,1-5.76,4.74,17.86,17.86,0,0,1-8.32,1.9,17.67,17.67,0,0,1-9.49-2.67,18.83,18.83,0,0,1-6.82-7.44,22.85,22.85,0,0,1-2.51-10.83A22.23,22.23,0,0,1,278.81,523.88Zm28.68,3.65a12.1,12.1,0,0,0-4.49-4.67,11.74,11.74,0,0,0-6-1.61,12,12,0,0,0-6,1.57,11.81,11.81,0,0,0-4.48,4.6,14.28,14.28,0,0,0-1.72,7.19,14.88,14.88,0,0,0,1.72,7.29,12.07,12.07,0,0,0,4.52,4.78,11.53,11.53,0,0,0,5.95,1.64,11.73,11.73,0,0,0,6-1.6,12,12,0,0,0,4.49-4.71,14.79,14.79,0,0,0,1.71-7.26A14.58,14.58,0,0,0,307.49,527.53Z"/>
      <path class="cls-2" d="M376.29,516a14,14,0,0,1,5.87,5.84,19.21,19.21,0,0,1,2.12,9.34v23.71H376V532.42q0-5.4-2.7-8.28a9.61,9.61,0,0,0-7.37-2.89,9.72,9.72,0,0,0-7.4,2.89q-2.74,2.88-2.74,8.28v22.47H347.5v-40.2h8.32v4.6a13.63,13.63,0,0,1,5.22-3.87,16.55,16.55,0,0,1,6.75-1.39A18.09,18.09,0,0,1,376.29,516Z"/>
      <path class="cls-2" d="M431.41,537.89H400.69a11.09,11.09,0,0,0,3.58,7.73,11.25,11.25,0,0,0,7.88,2.92q6.71,0,9.48-5.62h9A18.05,18.05,0,0,1,424,552a19.35,19.35,0,0,1-11.85,3.54A20.6,20.6,0,0,1,401.82,553a18.46,18.46,0,0,1-7.15-7.3,22.22,22.22,0,0,1-2.59-10.91,22.79,22.79,0,0,1,2.52-10.91,17.73,17.73,0,0,1,7.08-7.25A21,21,0,0,1,412.15,514a20.53,20.53,0,0,1,10.14,2.48,17.66,17.66,0,0,1,6.93,7,21,21,0,0,1,2.48,10.32A26.65,26.65,0,0,1,431.41,537.89ZM423,531.18a9.47,9.47,0,0,0-3.29-7.37,11.72,11.72,0,0,0-8-2.77,10.69,10.69,0,0,0-7.37,2.73,11.49,11.49,0,0,0-3.65,7.41Z"/>
      <path class="cls-2" d="M493.86,514.69l-12.48,40.2h-8.75l-8.1-29.7-8.1,29.7h-8.75l-12.55-40.2h8.46L452,547l8.54-32.32h8.68l8.17,32.17,8.32-32.17Z"/>
      <path class="cls-2" d="M518.78,523.88A18.32,18.32,0,0,1,535.3,514a18.73,18.73,0,0,1,7.77,1.72,15.72,15.72,0,0,1,6.09,4.56V500.9h8.39v54h-8.39v-6.06a15.45,15.45,0,0,1-5.65,4.82,17.61,17.61,0,0,1-8.28,1.9,18,18,0,0,1-9.6-2.67,18.68,18.68,0,0,1-6.85-7.44,22.86,22.86,0,0,1-2.52-10.83A22.23,22.23,0,0,1,518.78,523.88Zm28.67,3.65a12,12,0,0,0-4.49-4.67,11.74,11.74,0,0,0-6-1.61,12,12,0,0,0-6,1.57,11.83,11.83,0,0,0-4.49,4.6,14.38,14.38,0,0,0-1.71,7.19,15,15,0,0,0,1.71,7.29,12.07,12.07,0,0,0,4.52,4.78,11.58,11.58,0,0,0,6,1.64,11.73,11.73,0,0,0,6-1.6,11.94,11.94,0,0,0,4.49-4.71,14.79,14.79,0,0,0,1.71-7.26A14.58,14.58,0,0,0,547.45,527.53Z"/>
      <path class="cls-2" d="M568.94,507.83a5.33,5.33,0,0,1,3.79-9.12,5.06,5.06,0,0,1,3.72,1.53,5.47,5.47,0,0,1,0,7.59,5.06,5.06,0,0,1-3.72,1.53A5.14,5.14,0,0,1,568.94,507.83Zm7.88,6.86v40.2H568.5v-40.2Z"/>
      <path class="cls-2" d="M593.85,553.83a14.85,14.85,0,0,1-5.94-4.67,11.66,11.66,0,0,1-2.34-6.6h8.61a5.89,5.89,0,0,0,2.44,4.27,8.92,8.92,0,0,0,5.59,1.71,9.39,9.39,0,0,0,5.43-1.35,4.06,4.06,0,0,0,1.93-3.46,3.55,3.55,0,0,0-2.15-3.36A40.58,40.58,0,0,0,600.6,538a66.24,66.24,0,0,1-7.37-2.4,12.92,12.92,0,0,1-4.92-3.58,9.34,9.34,0,0,1-2.08-6.35,9.92,9.92,0,0,1,1.89-5.87,12.71,12.71,0,0,1,5.44-4.2,20.33,20.33,0,0,1,8.13-1.53q6.87,0,11.06,3.47a12.49,12.49,0,0,1,4.49,9.45h-8.32a6,6,0,0,0-2.19-4.31,8.18,8.18,0,0,0-5.33-1.6,8.61,8.61,0,0,0-5,1.24,3.82,3.82,0,0,0-1.75,3.28,3.58,3.58,0,0,0,1.16,2.7,8.27,8.27,0,0,0,2.85,1.71q1.68.63,5,1.57a54.48,54.48,0,0,1,7.19,2.37,13.55,13.55,0,0,1,4.85,3.54,9.4,9.4,0,0,1,2.12,6.2,10.43,10.43,0,0,1-1.9,6.13,12.59,12.59,0,0,1-5.36,4.23,19.87,19.87,0,0,1-8.14,1.54A20.32,20.32,0,0,1,593.85,553.83Z"/>
      <path class="cls-2" d="M655.72,516a14,14,0,0,1,5.69,5.84,19.44,19.44,0,0,1,2.08,9.34v23.71h-8.24V532.42q0-5.4-2.7-8.28a9.62,9.62,0,0,0-7.37-2.89,9.76,9.76,0,0,0-7.41,2.89Q635,527,635,532.42v22.47h-8.32v-54H635v18.46a13.87,13.87,0,0,1,5.36-3.94,17.79,17.79,0,0,1,7.11-1.39A16.9,16.9,0,0,1,655.72,516Z"/>
      <path class="cls-2" d="M709.89,521.47h-7.44v33.42h-8.39V521.47h-4.74v-6.78h4.74v-2.85q0-6.93,3.69-10.1t11.56-3.18v6.94q-3.79,0-5.33,1.42t-1.53,4.92v2.85h7.44Z"/>
      <path class="cls-2" d="M730.43,515.75a14.28,14.28,0,0,1,7.19-1.72v8.61H735.5q-4.89,0-7.4,2.48t-2.52,8.61v21.16h-8.32v-40.2h8.32v5.84A12.93,12.93,0,0,1,730.43,515.75Z"/>
      <path class="cls-2" d="M752.43,553a18.66,18.66,0,0,1-7.23-7.3,22,22,0,0,1-2.62-10.91,21.59,21.59,0,0,1,2.7-10.87,18.59,18.59,0,0,1,7.37-7.29,22.53,22.53,0,0,1,20.86,0,18.65,18.65,0,0,1,7.37,7.29,21.59,21.59,0,0,1,2.7,10.87,21.1,21.1,0,0,1-2.77,10.87,19.23,19.23,0,0,1-7.55,7.34,21.86,21.86,0,0,1-10.55,2.59A20.63,20.63,0,0,1,752.43,553Zm16.3-6.17a11.53,11.53,0,0,0,4.56-4.6,14.73,14.73,0,0,0,1.75-7.44,15,15,0,0,0-1.67-7.4,11.37,11.37,0,0,0-4.45-4.56,12.23,12.23,0,0,0-6-1.54,12,12,0,0,0-5.94,1.54,10.88,10.88,0,0,0-4.34,4.56,15.63,15.63,0,0,0-1.61,7.4q0,6.5,3.32,10a11,11,0,0,0,8.35,3.54A12.39,12.39,0,0,0,768.73,546.79Z"/>
      <path class="cls-2" d="M849,516a14.27,14.27,0,0,1,5.91,5.84,19,19,0,0,1,2.15,9.34v23.71h-8.24V532.42q0-5.4-2.7-8.28a9.62,9.62,0,0,0-7.37-2.89,9.74,9.74,0,0,0-7.41,2.89q-2.73,2.88-2.73,8.28v22.47h-8.25V532.42q0-5.4-2.7-8.28a9.61,9.61,0,0,0-7.37-2.89,9.72,9.72,0,0,0-7.4,2.89q-2.75,2.88-2.74,8.28v22.47h-8.32v-40.2h8.32v4.6a13.72,13.72,0,0,1,5.18-3.87A16.32,16.32,0,0,1,812,514a17.87,17.87,0,0,1,8.61,2,14,14,0,0,1,5.84,5.91,13.53,13.53,0,0,1,5.69-5.8,16.89,16.89,0,0,1,8.32-2.15A18.09,18.09,0,0,1,849,516Z"/>
      <path class="cls-2" d="M157,624.13l-24.66,59.1h-8.61L132,663.67l-15.84-39.54h9.27l11.31,30.64,11.75-30.64Z"/>
      <path class="cls-2" d="M170.47,662.4a18.57,18.57,0,0,1-7.22-7.3,21.92,21.92,0,0,1-2.63-10.91,21.59,21.59,0,0,1,2.7-10.87,18.59,18.59,0,0,1,7.37-7.29,22.53,22.53,0,0,1,20.86,0,18.59,18.59,0,0,1,7.37,7.29,21.59,21.59,0,0,1,2.7,10.87,21.1,21.1,0,0,1-2.77,10.87,19.23,19.23,0,0,1-7.55,7.34A21.85,21.85,0,0,1,180.76,665,20.64,20.64,0,0,1,170.47,662.4Zm16.3-6.17a11.57,11.57,0,0,0,4.56-4.59,14.8,14.8,0,0,0,1.76-7.45,15,15,0,0,0-1.68-7.4,11.31,11.31,0,0,0-4.45-4.56,12.22,12.22,0,0,0-6-1.53,12,12,0,0,0-5.94,1.53,10.88,10.88,0,0,0-4.34,4.56,15.63,15.63,0,0,0-1.61,7.4q0,6.49,3.32,10a11,11,0,0,0,8.36,3.53A12.35,12.35,0,0,0,186.77,656.23Z"/>
      <path class="cls-2" d="M246.27,624.13v40.2H238v-4.74a13.55,13.55,0,0,1-5.15,3.9,16.25,16.25,0,0,1-6.75,1.42,18,18,0,0,1-8.5-2,14.24,14.24,0,0,1-5.91-5.83,19,19,0,0,1-2.15-9.34V624.13h8.25v22.4q0,5.4,2.7,8.28a9.58,9.58,0,0,0,7.36,2.88,9.72,9.72,0,0,0,7.41-2.88c1.82-1.92,2.74-4.68,2.74-8.28v-22.4Z"/>
      <path class="cls-2" d="M270.39,625.19a14.24,14.24,0,0,1,7.18-1.72v8.61h-2.11q-4.89,0-7.41,2.48t-2.52,8.61v21.16h-8.31v-40.2h8.31V630A13,13,0,0,1,270.39,625.19Z"/>
      <path class="cls-2" d="M321.06,630.91h-7.45v33.42h-8.39V630.91h-4.74v-6.78h4.74v-2.85q0-6.93,3.69-10.1T320.47,608v6.94q-3.8,0-5.32,1.42t-1.54,4.92v2.85h7.45Z"/>
      <path class="cls-2" d="M328.17,633.32a18.34,18.34,0,0,1,16.45-9.85,17.56,17.56,0,0,1,8.28,1.86,16.9,16.9,0,0,1,5.66,4.64v-5.84H367v40.2h-8.39v-6a16.67,16.67,0,0,1-5.77,4.74,18.61,18.61,0,0,1-17.8-.77,18.83,18.83,0,0,1-6.82-7.44,22.83,22.83,0,0,1-2.52-10.83A22.26,22.26,0,0,1,328.17,633.32ZM356.84,637a12,12,0,0,0-4.49-4.67,11.7,11.7,0,0,0-6-1.6,12,12,0,0,0-6,1.56,11.83,11.83,0,0,0-4.49,4.6,14.38,14.38,0,0,0-1.71,7.19,15,15,0,0,0,1.71,7.29,12,12,0,0,0,4.53,4.78,11.52,11.52,0,0,0,5.94,1.64,11.7,11.7,0,0,0,6-1.6,11.94,11.94,0,0,0,4.49-4.71,14.76,14.76,0,0,0,1.72-7.26A14.58,14.58,0,0,0,356.84,637Z"/>
      <path class="cls-2" d="M393.43,656.89l11.38-32.76h8.83l-15.32,40.2H388.4l-15.25-40.2h8.9Z"/>
      <path class="cls-2" d="M456.47,647.33H425.75a11.13,11.13,0,0,0,3.58,7.73,11.25,11.25,0,0,0,7.88,2.92q6.71,0,9.48-5.61h9a18.15,18.15,0,0,1-6.61,9.08A19.35,19.35,0,0,1,437.21,665a20.6,20.6,0,0,1-10.33-2.59,18.46,18.46,0,0,1-7.15-7.3,22.22,22.22,0,0,1-2.59-10.91,22.72,22.72,0,0,1,2.52-10.9,17.69,17.69,0,0,1,7.08-7.26,21,21,0,0,1,10.47-2.56A20.53,20.53,0,0,1,447.35,626a17.66,17.66,0,0,1,6.93,7,21,21,0,0,1,2.48,10.33A26.52,26.52,0,0,1,456.47,647.33Zm-8.39-6.71a9.47,9.47,0,0,0-3.29-7.37,11.72,11.72,0,0,0-8-2.77,10.71,10.71,0,0,0-7.37,2.73,11.49,11.49,0,0,0-3.65,7.41Z"/>
      <path class="cls-2" d="M497.07,625.19a14.28,14.28,0,0,1,7.19-1.72v8.61h-2.12q-4.89,0-7.41,2.48t-2.51,8.61v21.16H483.9v-40.2h8.32V630A12.93,12.93,0,0,1,497.07,625.19Z"/>
      <path class="cls-2" d="M548.47,647.33H517.75A11.1,11.1,0,0,0,529.21,658q6.7,0,9.48-5.61h9a18.15,18.15,0,0,1-6.61,9.08A19.35,19.35,0,0,1,529.21,665a20.6,20.6,0,0,1-10.33-2.59,18.46,18.46,0,0,1-7.15-7.3,22.33,22.33,0,0,1-2.59-10.91,22.72,22.72,0,0,1,2.52-10.9,17.69,17.69,0,0,1,7.08-7.26,21,21,0,0,1,10.47-2.56A20.53,20.53,0,0,1,539.35,626a17.6,17.6,0,0,1,6.93,7,21,21,0,0,1,2.48,10.33A26.52,26.52,0,0,1,548.47,647.33Zm-8.39-6.71a9.47,9.47,0,0,0-3.29-7.37,11.72,11.72,0,0,0-7.95-2.77,10.71,10.71,0,0,0-7.37,2.73,11.43,11.43,0,0,0-3.64,7.41Z"/>
      <path class="cls-2" d="M563,663.27a14.92,14.92,0,0,1-5.94-4.67,11.66,11.66,0,0,1-2.34-6.6h8.61a5.87,5.87,0,0,0,2.45,4.27,8.87,8.87,0,0,0,5.58,1.71,9.39,9.39,0,0,0,5.43-1.35,4.07,4.07,0,0,0,1.94-3.46,3.56,3.56,0,0,0-2.16-3.36,40.58,40.58,0,0,0-6.82-2.41,67,67,0,0,1-7.37-2.4,12.89,12.89,0,0,1-4.92-3.58,9.34,9.34,0,0,1-2.08-6.35,9.87,9.87,0,0,1,1.9-5.87,12.69,12.69,0,0,1,5.43-4.2,20.34,20.34,0,0,1,8.14-1.53q6.86,0,11,3.47a12.45,12.45,0,0,1,4.49,9.45h-8.32a6,6,0,0,0-2.19-4.31,8.17,8.17,0,0,0-5.32-1.6,8.64,8.64,0,0,0-5,1.24,3.82,3.82,0,0,0-1.75,3.28,3.55,3.55,0,0,0,1.17,2.7,8.13,8.13,0,0,0,2.84,1.71c1.12.42,2.78.94,5,1.57a54.48,54.48,0,0,1,7.19,2.37,13.55,13.55,0,0,1,4.85,3.54,9.4,9.4,0,0,1,2.12,6.2,10.36,10.36,0,0,1-1.9,6.13,12.62,12.62,0,0,1-5.36,4.24,22.13,22.13,0,0,1-16.64-.19Z"/>
      <path class="cls-2" d="M605.6,630.91v22.26a4.26,4.26,0,0,0,1,3.24,5.26,5.26,0,0,0,3.62,1h5.1v6.93h-6.56c-3.75,0-6.62-.87-8.61-2.63s-3-4.59-3-8.53V630.91h-4.75v-6.78h4.75v-10h8.39v10h9.77v6.78Z"/>
      <path class="cls-2" d="M622.78,633.32a18.34,18.34,0,0,1,16.45-9.85,17.56,17.56,0,0,1,8.28,1.86,16.9,16.9,0,0,1,5.66,4.64v-5.84h8.39v40.2h-8.39v-6a16.67,16.67,0,0,1-5.77,4.74,18.61,18.61,0,0,1-17.8-.77,18.83,18.83,0,0,1-6.82-7.44,22.83,22.83,0,0,1-2.52-10.83A22.26,22.26,0,0,1,622.78,633.32ZM651.45,637A12,12,0,0,0,647,632.3a11.7,11.7,0,0,0-6-1.6,12,12,0,0,0-6,1.56,11.83,11.83,0,0,0-4.49,4.6,14.38,14.38,0,0,0-1.71,7.19,15,15,0,0,0,1.71,7.29,12,12,0,0,0,4.53,4.78,11.52,11.52,0,0,0,5.94,1.64,11.7,11.7,0,0,0,6-1.6,11.94,11.94,0,0,0,4.49-4.71,14.76,14.76,0,0,0,1.72-7.26A14.58,14.58,0,0,0,651.45,637Z"/>
      <path class="cls-2" d="M708.91,624.13v40.2h-8.32v-4.74a13.51,13.51,0,0,1-5.14,3.9,16.31,16.31,0,0,1-6.75,1.42,17.91,17.91,0,0,1-8.5-2,14.13,14.13,0,0,1-5.91-5.83,18.88,18.88,0,0,1-2.16-9.34V624.13h8.25v22.4q0,5.4,2.7,8.28a9.6,9.6,0,0,0,7.37,2.88,9.72,9.72,0,0,0,7.4-2.88q2.74-2.88,2.74-8.28v-22.4Z"/>
      <path class="cls-2" d="M733,625.19a14.28,14.28,0,0,1,7.19-1.72v8.61h-2.12q-4.89,0-7.41,2.48t-2.51,8.61v21.16h-8.32v-40.2h8.32V630A12.93,12.93,0,0,1,733,625.19Z"/>
      <path class="cls-2" d="M747.61,633.32a18.34,18.34,0,0,1,16.45-9.85,17.56,17.56,0,0,1,8.28,1.86A16.81,16.81,0,0,1,778,630v-5.84h8.39v40.2H778v-6a16.48,16.48,0,0,1-5.77,4.74,18.61,18.61,0,0,1-17.8-.77,18.83,18.83,0,0,1-6.82-7.44,22.83,22.83,0,0,1-2.52-10.83A22.26,22.26,0,0,1,747.61,633.32ZM776.28,637a12,12,0,0,0-4.48-4.67,11.77,11.77,0,0,0-6-1.6,11.77,11.77,0,0,0-10.47,6.16,14.38,14.38,0,0,0-1.71,7.19,15,15,0,0,0,1.71,7.29,12.1,12.1,0,0,0,4.53,4.78,11.52,11.52,0,0,0,5.94,1.64,11.77,11.77,0,0,0,6-1.6,11.92,11.92,0,0,0,4.48-4.71,14.65,14.65,0,0,0,1.72-7.26A14.47,14.47,0,0,0,776.28,637Z"/>
      <path class="cls-2" d="M826.12,625.44a14.06,14.06,0,0,1,5.87,5.84,19.21,19.21,0,0,1,2.11,9.34v23.71h-8.24V641.86q0-5.4-2.7-8.28a9.62,9.62,0,0,0-7.37-2.88,9.72,9.72,0,0,0-7.4,2.88q-2.75,2.88-2.74,8.28v22.47h-8.32v-40.2h8.32v4.6a13.63,13.63,0,0,1,5.22-3.87,16.71,16.71,0,0,1,6.75-1.39A18.09,18.09,0,0,1,826.12,625.44Z"/>
      <path class="cls-2" d="M854.39,630.91v22.26a4.26,4.26,0,0,0,1.05,3.24,5.26,5.26,0,0,0,3.62,1h5.1v6.93H857.6c-3.75,0-6.62-.87-8.61-2.63s-3-4.59-3-8.53V630.91h-4.75v-6.78H846v-10h8.39v10h9.77v6.78Z"/>
      <path class="cls-2" d="M874.3,663.31a5.33,5.33,0,0,1,3.8-9.12,5.06,5.06,0,0,1,3.72,1.53,5.47,5.47,0,0,1,0,7.59,5.06,5.06,0,0,1-3.72,1.53A5.18,5.18,0,0,1,874.3,663.31Zm8-49.69-1,35.39h-6.93l-1-35.39Z"/>
    </g>
  </g>
</svg>
