<?xml version="1.0" encoding="UTF-8" standalone="no"?>
<svg
   viewBox="0 0 150.39 77.15"
   version="1.1"
   id="svg19"
   sodipodi:docname="home-information-book.svg"
   inkscape:version="1.1 (c68e22c387, 2021-05-23)"
   xmlns:inkscape="http://www.inkscape.org/namespaces/inkscape"
   xmlns:sodipodi="http://sodipodi.sourceforge.net/DTD/sodipodi-0.dtd"
   xmlns="http://www.w3.org/2000/svg"
   xmlns:svg="http://www.w3.org/2000/svg">
  <sodipodi:namedview
     id="namedview21"
     pagecolor="#ffffff"
     bordercolor="#666666"
     borderopacity="1.0"
     inkscape:pageshadow="2"
     inkscape:pageopacity="0.0"
     inkscape:pagecheckerboard="0"
     showgrid="false"
     inkscape:zoom="2.2909915"
     inkscape:cx="18.114427"
     inkscape:cy="-4.5831684"
     inkscape:window-width="1920"
     inkscape:window-height="1020"
     inkscape:window-x="0"
     inkscape:window-y="0"
     inkscape:window-maximized="1"
     inkscape:current-layer="svg19" />
  <defs
     id="defs4">
    <style
       id="style2">
      .cls-1 {
        fill: #fafafa;
        stroke: #3882bb;
        stroke-linecap: round;
        stroke-linejoin: round;
      }

      .cls-2 {
        font-size: 16.25px;
        fill: #3882bb;
        font-family: Poppins-Bold, Poppins;
        font-weight: 700;
      }
    </style>
  </defs>
  <g
     id="Layer_2"
     data-name="Layer 2"
     transform="translate(22)">
    <g
       id="Layer_1-2"
       data-name="Layer 1">
      <g
         id="g15">
        <rect
           class="cls-1"
           x="0.5"
           y="0.5"
           width="105.39"
           height="35.209999"
           rx="16.18"
           id="rect6" />
        <text
           class="cls-2"
           transform="translate(16.98,24.66)"
           id="text8">BOOK</text>
        <g
           id="a7eUH5.tif">
          <path
             class="cls-1"
             d="m 38.82,65.6 c -2,-3.82 -4,-7.66 -6,-11.47 q -1.65,-3.19 -3.31,-6.37 c -0.11,-0.21 -0.2,-0.42 -0.3,-0.62 2.33,-2.39 5.27,-2.76 7.54,-0.9 A 12.35,12.35 0 0 1 38.46,48 c 0.87,1 1.71,2.06 2.55,3.1 0.35,0.43 0.73,0.75 1.32,0.53 C 42.92,51.41 43,51 43,50.41 c 0,-9.58 0,-14.72 0,-24.3 a 5.9,5.9 0 0 1 0.23,-1.72 3.28,3.28 0 0 1 3.58,-2.39 3.5,3.5 0 0 1 2.9,3.12 c 0,0.37 0,0.74 0,1.1 v 20.1 c 0,1 0.34,1.56 1,1.55 0.66,-0.01 1,-0.5 1,-1.58 0,-2.46 0,-4.92 0,-7.38 a 3.34,3.34 0 0 1 4.34,-3.2 3.5,3.5 0 0 1 2.46,3.29 c 0,2.18 0,4.36 0,6.54 a 5.61,5.61 0 0 0 0,0.58 1,1 0 0 0 2,0 4.51,4.51 0 0 0 0,-0.52 c 0,-1.68 0,-3.37 0,-5 a 3.3,3.3 0 1 1 6.59,0 c 0,1.66 0,3.32 0,5 0,0.83 0.39,1.3 1,1.28 0.61,-0.02 1,-0.47 1,-1.26 0,-1 0,-2 0.06,-3 a 3.4,3.4 0 0 1 4.37,-2.93 3.5,3.5 0 0 1 2.36,3 7.86,7.86 0 0 1 0,0.84 v 21.14 a 12,12 0 0 1 -4.17,9.44 10,10 0 0 1 -6.75,2.53 H 51.31 A 10.38,10.38 0 0 1 41.68,71 q -1.45,-2.67 -2.86,-5.36"
             id="path10" />
        </g>
        <polyline
           class="cls-1"
           points="71.65 20.28 78.36 26.07 92.87 8.22"
           id="polyline13" />
      </g>
    </g>
  </g>
</svg>
