<svg xmlns="http://www.w3.org/2000/svg" viewBox="0 0 276.02 174.99">
  <defs>
    <style>
      .cls-1 {
        fill: #fafafa;
        stroke-linecap: round;
        stroke-linejoin: round;
      }

      .cls-1, .cls-3 {
        stroke: #3882bb;
      }

      .cls-2, .cls-3 {
        isolation: isolate;
      }

      .cls-3 {
        font-size: 19.38px;
        fill: #3882bb;
        stroke-miterlimit: 10;
        font-family: Montserrat-Medium, Montserrat;
        font-weight: 500;
      }

      .cls-4 {
        letter-spacing: -0.01em;
      }

      .cls-5 {
        letter-spacing: 0.02em;
      }

      .cls-6 {
        letter-spacing: 0em;
      }

      .cls-7 {
        letter-spacing: -0.01em;
      }

      .cls-8 {
        letter-spacing: 0.08em;
      }

      .cls-9 {
        letter-spacing: -0.01em;
      }
    </style>
  </defs>
  <g id="Layer_2" data-name="Layer 2">
    <g id="Layer_1-2" data-name="Layer 1">
      <g id="Layer_2-2" data-name="Layer 2">
        <g id="Layer_1-2-2" data-name="Layer 1-2">
          <g>
            <path class="cls-1" d="M275.52,82.27v33c0,4.27-4.38,7.73-9.69,7.73H10.19C4.76,123,.5,119.49.5,115.22V47.75C.5,43.48,4.89,40,10.31,40H265.69c5.42,0,9.69,3.46,9.69,7.73V82.27"/>
            <g id="WiHiG5.tif">
              <path class="cls-1" d="M105.58,11.16A15,15,0,0,1,116.34,1c.85-.22,1.72-.31,2.57-.46h2.42c.85.17,1.67.29,2.42.51a15.24,15.24,0,0,1,8.14,5.81c.63.85,1.22,1.75,1.8,2.64.6-.89,1.16-1.79,1.81-2.64A15,15,0,0,1,144.69.77l1.5-.27h2.42a30.3,30.3,0,0,1,3.64.8A15.33,15.33,0,0,1,162.4,12.66c.26,1.09.39,2.23.58,3.35v2.86a19.32,19.32,0,0,1-3.39,9.37,42.08,42.08,0,0,1-7.27,8.26c-5.65,5-11.39,10-17,14.93a1.87,1.87,0,0,1-2.63.2,2,2,0,0,1-.21-.2c-4.84-4.22-9.81-8.41-14.65-12.67a53.81,53.81,0,0,1-9.7-10.52,18.74,18.74,0,0,1-2.42-17"/>
            </g>
            <g class="cls-2">
              <text class="cls-3" transform="translate(65.65 75.83)"><tspan class="cls-4">T</tspan><tspan class="cls-5" x="11.13" y="0">r</tspan><tspan x="19.36" y="0">y a </tspan><tspan class="cls-6" x="52.22" y="0">n</tspan><tspan class="cls-7" x="65.48" y="0">e</tspan><tspan x="77.14" y="0">w dish</tspan></text>
              <text class="cls-3" transform="translate(76.72 104.9)"><tspan class="cls-8">f</tspan><tspan class="cls-9" x="8.39" y="0">r</tspan><tspan x="16.11" y="0">om Numa!</tspan></text>
            </g>
          </g>
        </g>
        <text/>      </g>
    </g>
  </g>
</svg>
