<svg id="Layer_1" data-name="Layer 1" xmlns="http://www.w3.org/2000/svg" viewBox="0 0 1024 1024">
  <defs>
    <style>
      .cls-1 {
        fill: #fafafa;
        stroke: #3882bb;
        stroke-linecap: round;
        stroke-linejoin: round;
        stroke-width: 5px;
      }
    </style>
  </defs>
  <title>Homepage_icons</title>
  <g>
    <path class="cls-1" d="M733.87,732V913.31a45.21,45.21,0,0,1-45.21,45.21H350.45a45.21,45.21,0,0,1-45.2-45.21V256.39a45.21,45.21,0,0,1,45.2-45.21H688.66a45.21,45.21,0,0,1,45.21,45.21V732"/>
    <line class="cls-1" x1="305.25" y1="863.88" x2="732.65" y2="863.88"/>
    <rect class="cls-1" x="445.37" y="897.46" width="140.13" height="24.73" rx="1.89"/>
    <g>
      <path class="cls-1" d="M926.2,458.16v-85A21.21,21.21,0,0,0,905,351.92H566.41a21.21,21.21,0,0,0-21.21,21.2V586.23a21.21,21.21,0,0,0,21.21,21.21h115l-23.65,56.14a3.18,3.18,0,0,0,4.83,3.8l80.94-59.94H905a21.21,21.21,0,0,0,21.21-21.21V458.16"/>
      <polyline class="cls-1" points="544.28 565.31 657.85 478.31 849.27 601.03"/>
      <polyline class="cls-1" points="750.35 538.75 852.01 435.26 918.87 481.97"/>
      <circle class="cls-1" cx="726.77" cy="442.36" r="25.42"/>
    </g>
    <g>
      <path class="cls-1" d="M141.31,174.24v-85A21.21,21.21,0,0,1,162.51,68H501.1a21.21,21.21,0,0,1,21.2,21.21V302.32a21.2,21.2,0,0,1-21.2,21.2h-115l23.65,56.15a3.18,3.18,0,0,1-4.83,3.79l-80.95-59.94H162.51a21.2,21.2,0,0,1-21.2-21.2V174.24"/>
      <circle class="cls-1" cx="321.73" cy="195.3" r="77.85"/>
      <path class="cls-1" d="M300.92,236.69l65.38-44.51-64-43.44a3.91,3.91,0,0,0-6.1,3.21l-.39,82A3.27,3.27,0,0,0,300.92,236.69Z"/>
    </g>
    <g>
      <path class="cls-1" d="M105.28,646.07V561a21.21,21.21,0,0,1,21.21-21.21H465.07A21.2,21.2,0,0,1,486.28,561V724.83A21.2,21.2,0,0,1,465.07,746H350l23.65,56.14a3.18,3.18,0,0,1-4.83,3.8L287.92,746H126.49a21.21,21.21,0,0,1-21.21-21.21V596.76"/>
      <line class="cls-1" x1="151.99" y1="597.06" x2="438.35" y2="597.06"/>
      <line class="cls-1" x1="151.99" y1="644.69" x2="438.35" y2="644.69"/>
      <line class="cls-1" x1="151.99" y1="694.14" x2="355.39" y2="694.14"/>
    </g>
  </g>
</svg>
