<svg xmlns="http://www.w3.org/2000/svg" viewBox="0 0 126.58 137.23">
  <defs>
    <style>
      .cls-1 {
        fill: #fafafa;
        stroke: #3882bb;
        stroke-linecap: round;
        stroke-linejoin: round;
      }
    </style>
  </defs>
  <g id="Layer_2" data-name="Layer 2">
    <g id="Layer_1-2" data-name="Layer 1">
      <g>
        <path class="cls-1" d="M96.66,102.08v27.74a6.92,6.92,0,0,1-6.92,6.91H38a6.92,6.92,0,0,1-6.92-6.91V29.32A6.92,6.92,0,0,1,38,22.4H89.74a6.92,6.92,0,0,1,6.92,6.92v72.76"/>
        <line class="cls-1" x1="31.09" y1="122.25" x2="96.47" y2="122.25"/>
        <rect class="cls-1" x="52.53" y="127.39" width="21.44" height="3.78" rx="1.89"/>
        <g>
          <path class="cls-1" d="M126.08,60.19v-13a3.25,3.25,0,0,0-3.24-3.25H71a3.25,3.25,0,0,0-3.24,3.25v32.6A3.24,3.24,0,0,0,71,83h17.6L85,91.61a.49.49,0,0,0,.74.58L98.14,83h24.7a3.24,3.24,0,0,0,3.24-3.24V60.19"/>
          <polyline class="cls-1" points="67.66 76.58 85.03 63.27 114.31 82.04"/>
          <polyline class="cls-1" points="99.18 72.52 114.73 56.68 124.96 63.83"/>
          <circle class="cls-1" cx="95.57" cy="57.77" r="3.89"/>
        </g>
        <g>
          <path class="cls-1" d="M6,16.75v-13A3.24,3.24,0,0,1,9.26.5H61.05A3.25,3.25,0,0,1,64.3,3.74V36.35a3.25,3.25,0,0,1-3.25,3.24H43.45l3.62,8.59a.49.49,0,0,1-.74.58L34,39.59H9.26A3.24,3.24,0,0,1,6,36.35V16.75"/>
          <circle class="cls-1" cx="33.61" cy="19.97" r="11.91"/>
          <path class="cls-1" d="M30.43,26.31l10-6.81-9.79-6.65a.59.59,0,0,0-.93.49l-.06,12.55A.5.5,0,0,0,30.43,26.31Z"/>
        </g>
        <g>
          <path class="cls-1" d="M.5,88.93v-13a3.24,3.24,0,0,1,3.24-3.24h51.8a3.24,3.24,0,0,1,3.24,3.24V101a3.25,3.25,0,0,1-3.24,3.25H37.94l3.62,8.58a.49.49,0,0,1-.74.59l-12.38-9.17H3.74A3.25,3.25,0,0,1,.5,101V81.39"/>
          <line class="cls-1" x1="7.65" y1="81.44" x2="51.45" y2="81.44"/>
          <line class="cls-1" x1="7.65" y1="88.72" x2="51.45" y2="88.72"/>
          <line class="cls-1" x1="7.65" y1="96.29" x2="38.76" y2="96.29"/>
        </g>
      </g>
    </g>
  </g>
</svg>
